<svg viewBox="0 0 330 200" xmlns="http://www.w3.org/2000/svg"><g><g><g><g><g><line x1="58.59375" y1="177" x2="53.59375" y2="177" style="visibility: inherit;" fill="rgb(0, 0, 0)" stroke="rgb(204, 204, 204)" stroke-width="1px"></line><line x1="58.59375" y1="159.3" x2="53.59375" y2="159.3" style="visibility: inherit;" fill="rgb(0, 0, 0)" stroke="rgb(204, 204, 204)" stroke-width="1px"></line><line x1="58.59375" y1="141.6" x2="53.59375" y2="141.6" style="visibility: inherit;" fill="rgb(0, 0, 0)" stroke="rgb(204, 204, 204)" stroke-width="1px"></line><line x1="58.59375" y1="123.9" x2="53.59375" y2="123.9" style="visibility: inherit;" fill="rgb(0, 0, 0)" stroke="rgb(204, 204, 204)" stroke-width="1px"></line><line x1="58.59375" y1="106.2" x2="53.59375" y2="106.2" style="visibility: inherit;" fill="rgb(0, 0, 0)" stroke="rgb(204, 204, 204)" stroke-width="1px"></line><line x1="58.59375" y1="88.5" x2="53.59375" y2="88.5" style="visibility: inherit;" fill="rgb(0, 0, 0)" stroke="rgb(204, 204, 204)" stroke-width="1px"></line><line x1="58.59375" y1="70.8" x2="53.59375" y2="70.8" style="visibility: inherit;" fill="rgb(0, 0, 0)" stroke="rgb(204, 204, 204)" stroke-width="1px"></line><line x1="58.59375" y1="53.10000000000001" x2="53.59375" y2="53.10000000000001" style="visibility: inherit;" fill="rgb(0, 0, 0)" stroke="rgb(204, 204, 204)" stroke-width="1px"></line><line x1="58.59375" y1="35.400000000000006" x2="53.59375" y2="35.400000000000006" style="visibility: inherit;" fill="rgb(0, 0, 0)" stroke="rgb(204, 204, 204)" stroke-width="1px"></line><line x1="58.59375" y1="17.69999999999999" x2="53.59375" y2="17.69999999999999" style="visibility: inherit;" fill="rgb(0, 0, 0)" stroke="rgb(204, 204, 204)" stroke-width="1px"></line><line x1="58.59375" y1="0" x2="53.59375" y2="0" style="visibility: inherit;" fill="rgb(0, 0, 0)" stroke="rgb(204, 204, 204)" stroke-width="1px"></line></g><g transform="translate(48.59375, 0)"><text x="0" y="177" dx="0em" dy="0.3em" style="text-anchor: end; visibility: hidden; font-family: &quot;Helvetica Neue&quot;, sans-serif; font-size: 12px; font-weight: 200;" fill="rgb(50, 49, 63)" stroke="none" stroke-width="1px">-1e+4</text><text x="0" y="159.3" dx="0em" dy="0.3em" style="text-anchor: end; visibility: inherit; font-family: &quot;Helvetica Neue&quot;, sans-serif; font-size: 12px; font-weight: 200;" fill="rgb(50, 49, 63)" stroke="none" stroke-width="1px">0</text><text x="0" y="141.6" dx="0em" dy="0.3em" style="text-anchor: end; visibility: hidden; font-family: &quot;Helvetica Neue&quot;, sans-serif; font-size: 12px; font-weight: 200;" fill="rgb(50, 49, 63)" stroke="none" stroke-width="1px">1e+4</text><text x="0" y="123.9" dx="0em" dy="0.3em" style="text-anchor: end; visibility: inherit; font-family: &quot;Helvetica Neue&quot;, sans-serif; font-size: 12px; font-weight: 200;" fill="rgb(50, 49, 63)" stroke="none" stroke-width="1px">2e+4</text><text x="0" y="106.2" dx="0em" dy="0.3em" style="text-anchor: end; visibility: hidden; font-family: &quot;Helvetica Neue&quot;, sans-serif; font-size: 12px; font-weight: 200;" fill="rgb(50, 49, 63)" stroke="none" stroke-width="1px">3e+4</text><text x="0" y="88.5" dx="0em" dy="0.3em" style="text-anchor: end; visibility: inherit; font-family: &quot;Helvetica Neue&quot;, sans-serif; font-size: 12px; font-weight: 200;" fill="rgb(50, 49, 63)" stroke="none" stroke-width="1px">4e+4</text><text x="0" y="70.8" dx="0em" dy="0.3em" style="text-anchor: end; visibility: hidden; font-family: &quot;Helvetica Neue&quot;, sans-serif; font-size: 12px; font-weight: 200;" fill="rgb(50, 49, 63)" stroke="none" stroke-width="1px">5e+4</text><text x="0" y="53.10000000000001" dx="0em" dy="0.3em" style="text-anchor: end; visibility: inherit; font-family: &quot;Helvetica Neue&quot;, sans-serif; font-size: 12px; font-weight: 200;" fill="rgb(50, 49, 63)" stroke="none" stroke-width="1px">6e+4</text><text x="0" y="35.400000000000006" dx="0em" dy="0.3em" style="text-anchor: end; visibility: hidden; font-family: &quot;Helvetica Neue&quot;, sans-serif; font-size: 12px; font-weight: 200;" fill="rgb(50, 49, 63)" stroke="none" stroke-width="1px">7e+4</text><text x="0" y="17.69999999999999" dx="0em" dy="0.3em" style="text-anchor: end; visibility: inherit; font-family: &quot;Helvetica Neue&quot;, sans-serif; font-size: 12px; font-weight: 200;" fill="rgb(50, 49, 63)" stroke="none" stroke-width="1px">8e+4</text><text x="0" y="0" dx="0em" dy="0.3em" style="text-anchor: end; visibility: hidden; font-family: &quot;Helvetica Neue&quot;, sans-serif; font-size: 12px; font-weight: 200;" fill="rgb(50, 49, 63)" stroke="none" stroke-width="1px">9e+4</text></g><line x1="58.59375" y1="0" x2="58.59375" y2="177" fill="rgb(0, 0, 0)" stroke="rgb(204, 204, 204)" stroke-width="1px"></line></g></g><g transform="translate(58, 0)" clip-path="url(#clip_0)"><clipPath id="clip_0"><rect width="271" height="177"></rect></clipPath><g><g><g><line x1="0" y1="0" x2="0" y2="177" fill="rgb(0, 0, 0)" stroke="rgb(60, 60, 60)" stroke-width="1px" opacity="0.25"></line><line x1="30.15625" y1="0" x2="30.15625" y2="177" fill="rgb(0, 0, 0)" stroke="rgb(60, 60, 60)" stroke-width="1px" opacity="0.25"></line><line x1="60.3125" y1="0" x2="60.3125" y2="177" fill="rgb(0, 0, 0)" stroke="rgb(60, 60, 60)" stroke-width="1px" opacity="0.25"></line><line x1="90.46875" y1="0" x2="90.46875" y2="177" fill="rgb(0, 0, 0)" stroke="rgb(60, 60, 60)" stroke-width="1px" opacity="0.25"></line><line x1="120.625" y1="0" x2="120.625" y2="177" fill="rgb(0, 0, 0)" stroke="rgb(60, 60, 60)" stroke-width="1px" opacity="0.25"></line><line x1="150.78125" y1="0" x2="150.78125" y2="177" fill="rgb(0, 0, 0)" stroke="rgb(60, 60, 60)" stroke-width="1px" opacity="0.25"></line><line x1="180.9375" y1="0" x2="180.9375" y2="177" fill="rgb(0, 0, 0)" stroke="rgb(60, 60, 60)" stroke-width="1px" opacity="0.25"></line><line x1="211.09375" y1="0" x2="211.09375" y2="177" fill="rgb(0, 0, 0)" stroke="rgb(60, 60, 60)" stroke-width="1px" opacity="0.25"></line><line x1="241.25" y1="0" x2="241.25" y2="177" fill="rgb(0, 0, 0)" stroke="rgb(60, 60, 60)" stroke-width="1px" opacity="0.25"></line><line x1="271.40625" y1="0" x2="271.40625" y2="177" fill="rgb(0, 0, 0)" stroke="rgb(60, 60, 60)" stroke-width="1px" opacity="0.25"></line></g><g><line x1="0" y1="177" x2="271.40625" y2="177" fill="rgb(0, 0, 0)" stroke="rgb(60, 60, 60)" stroke-width="1px" opacity="0.25"></line><line x1="0" y1="159.3" x2="271.40625" y2="159.3" fill="rgb(0, 0, 0)" stroke="rgb(60, 60, 60)" stroke-width="1px" opacity="0.25"></line><line x1="0" y1="141.6" x2="271.40625" y2="141.6" fill="rgb(0, 0, 0)" stroke="rgb(60, 60, 60)" stroke-width="1px" opacity="0.25"></line><line x1="0" y1="123.9" x2="271.40625" y2="123.9" fill="rgb(0, 0, 0)" stroke="rgb(60, 60, 60)" stroke-width="1px" opacity="0.25"></line><line x1="0" y1="106.2" x2="271.40625" y2="106.2" fill="rgb(0, 0, 0)" stroke="rgb(60, 60, 60)" stroke-width="1px" opacity="0.25"></line><line x1="0" y1="88.5" x2="271.40625" y2="88.5" fill="rgb(0, 0, 0)" stroke="rgb(60, 60, 60)" stroke-width="1px" opacity="0.25"></line><line x1="0" y1="70.8" x2="271.40625" y2="70.8" fill="rgb(0, 0, 0)" stroke="rgb(60, 60, 60)" stroke-width="1px" opacity="0.25"></line><line x1="0" y1="53.10000000000001" x2="271.40625" y2="53.10000000000001" fill="rgb(0, 0, 0)" stroke="rgb(60, 60, 60)" stroke-width="1px" opacity="0.25"></line><line x1="0" y1="35.400000000000006" x2="271.40625" y2="35.400000000000006" fill="rgb(0, 0, 0)" stroke="rgb(60, 60, 60)" stroke-width="1px" opacity="0.25"></line><line x1="0" y1="17.69999999999999" x2="271.40625" y2="17.69999999999999" fill="rgb(0, 0, 0)" stroke="rgb(60, 60, 60)" stroke-width="1px" opacity="0.25"></line><line x1="0" y1="0" x2="271.40625" y2="0" fill="rgb(0, 0, 0)" stroke="rgb(60, 60, 60)" stroke-width="1px" opacity="0.25"></line></g></g></g><g><g><line x1="0" y1="159.3" x2="271.40625" y2="159.3" fill="rgb(0, 0, 0)" stroke="rgb(153, 153, 153)" stroke-width="1.5px"></line></g></g><g><g><line x1="30.15625" y1="0" x2="30.15625" y2="177" fill="rgb(0, 0, 0)" stroke="rgb(153, 153, 153)" stroke-width="1.5px"></line></g></g><g><g><g><g><g><path stroke="rgb(255, 112, 67)" stroke-width="2px" d="M30.2542578125,158.59377L30.3688515625,158.55464368421053L30.373375,158.48678623616237L30.4095625,158.5178952108171L30.5045546875,158.4728864904398L30.518125,158.46695415525045L30.527171875,158.49126220416747L30.5316953125,158.4766287703019L30.5708984375,158.4896836029011L30.575421875,158.48854382750318L30.641765625,158.46054371173216L30.6462890625,158.4635700749079L30.6508125,158.46109223333485L30.659859375000003,158.45419778028662L30.7337421875,158.45773158035453L30.7458046875,158.43793018350638L30.8091328125,158.43432850702465L30.8181796875,158.43559470599482L30.887539062499997,158.44528760190417L30.907140625,158.4537279966732L30.913171875,158.45275806843895L30.944835937500002,158.46015354678318L30.9508671875,158.46257917393865L30.973484375,158.4727962351786L31.0368125,158.46180236385038L31.0413359375,158.45206819483397L31.04284375,158.45132729204846L31.063953125,158.4467468462995L31.086570312499997,158.45047370133824L31.1046640625,158.4499114987871L31.1679921875,158.4455457881301L31.1770390625,158.44549858863567L31.19965625,158.45696301676446L31.2132265625,158.4519184102598L31.21775,158.44359317566577L31.2554453125,158.45515431199766L31.2614765625,158.43515743288378L31.293140625,158.43995523999703L31.3459140625,158.43291916104246L31.359484375,158.43415450440384L31.364007812500002,158.4390299104894L31.395671875,158.42083305733988L31.40471875,158.43080014965352L31.455984375,158.43224312831617L31.480109375,158.42978939942822L31.48915625,158.43507800234562L31.4936796875,158.43608633063968L31.5178046875,158.43699246301097L31.5298671875,158.43406847272246L31.5660546875,158.43144007930138L31.659539062500002,158.42160846845022L31.6685859375,158.41276871956148L31.673109375,158.40855100120672L31.709296875,158.42340613210555L31.715328125000003,158.4330378305876L31.742468749999997,158.4417007747043L31.8073046875,158.44204053475417L31.938484375,158.43489563008458L31.9671328125,158.4247437971335L31.986734375,158.42678208023585L31.99578125,158.43233885924246L32.1148984375,158.44106066859504L32.149578125,158.4489078817457L32.173703124999996,158.44480425531984L32.2234609375,158.44111191178078L32.234015625000005,158.44151010087526L32.277742187499996,158.4455885962727L32.289804687499995,158.4343790654679L32.2958359375,158.43173131556134L32.3742421875,158.42934869110334L32.378765625,158.42348551562597L32.424,158.42564706110994L32.5084375,158.42015484628752L32.523515625,158.41893085847946L32.547640625,158.41782936509162L32.5672421875,158.41683809850096L32.589859375,158.423382249872L32.6004140625,158.4255536105477L32.6185078125,158.41263611377775L32.6275546875,158.4121643993424L32.656203125,158.40802214492888L32.6938984375,158.41172958652098L32.7542109375,158.41506615927784L32.76175,158.41435144090153L32.76778125,158.39883829550692L32.819046875,158.39974657141278L32.84015625,158.3968466112382L32.8808671875,158.39795405426509L32.8989609375,158.4101026771162L32.9200703125,158.3950152600852L32.9502265625,158.41117484197133L32.957765625,158.39598042022288L33.0165703125,158.38974003165131L33.024109375,158.39155811935413L33.027125,158.39319438102098L33.036171875,158.4058184539889L33.1462421875,158.40231148081207L33.156796875000005,158.39915522923155L33.171875,158.40746595157995L33.1733828125,158.41122845635934L33.200523437499996,158.41833178053022L33.2186171875,158.43215889996398L33.2457578125,158.41486667513374L33.28646875,158.40673786596014L33.3060703125,158.41800725611597L33.319640625,158.41699851626518L33.337734375000004,158.4198077003272L33.3693984375,158.43720412920197L33.39503125,158.41940753314714L33.50359375,158.42197580361815L33.53978125,158.42800427350514L33.6181875,158.42227880320374L33.6377890625,158.42827696338026L33.6423125,158.42995827725855L33.6785,158.42775443748044L33.6830234375,158.42948800226478L33.6860390625,158.43848224188002L33.7041328125,158.43170899068895L33.778015625,158.42561306974758L33.7825390625,158.42384375705927L33.80515625,158.42225137672537L33.8277734375,158.4319692644718L33.847375,158.440715358614L33.8971328125,158.44115282367946L33.916734375000004,158.44526354914998L33.92578125,158.43409517506834L33.9634765625,158.43891166500077L33.977046875,158.43952949935954L34.0117265625,158.4438025547695L34.013234375,158.4439312994375L34.034343750000005,158.44404716961117L34.05846875,158.4367174459651L34.09465625,158.43012069595378L34.11878125,158.43161762746425L34.1685390625,158.43296486561357L34.2167890625,158.43046037755357L34.2213125,158.4282063385843L34.252976562499995,158.41502669833778L34.334398437500006,158.39944802170822L34.3494765625,158.39286121695142L34.45653125,158.4018010984151L34.49271875,158.39869598758617L34.4972421875,158.41076939228302L34.5062890625,158.40305045106643L34.522875,158.39238640348756L34.5349375,158.3902227626874L34.6269140625,158.39942648814693L34.6480234375,158.3965588388476L34.66159375,158.38654395343954L34.743015625,158.3738135563529L34.74603125,158.3846582020537L34.752062499999994,158.39441838293055L34.78825,158.3994855451432L34.791265624999994,158.3966119903708L34.809359375,158.39030879082418L34.869671875,158.3957869121403L34.893796875,158.39700022100573L34.9586328125,158.40552619940755L34.996328125,158.4057655794795L35.021960937500005,158.40969802171924L35.074734375,158.40580321938L35.0792578125,158.40601489745018L35.0898125,158.4062054077118L35.104890625,158.406376866946L35.122984375,158.39909718004623L35.150124999999996,158.3925454618754L35.1621875,158.3977999158078L35.196867187500004,158.39137792409508L35.237578125,158.3855981315787L35.243609375,158.39154731851983L35.2752734375,158.39318458669237L35.322015625,158.4020921281432L35.365742187500004,158.41010891542618L35.3868515625,158.40245602379997L35.400421875000006,158.41043642149842L35.42153125,158.40646777931346L35.4682734375,158.41404700144244L35.4758125,158.4245853013737L35.502953125,158.4192017712016L35.507476562499996,158.4292245941396L35.546679687499996,158.42709413471454L35.584375,158.4214597212166L35.5979453125,158.4201057490892L35.641671875,158.42260417418981L35.720078125,158.41370175674032L35.7276171875,158.40940658105305L35.7487265625,158.41297492295763L35.774359374999996,158.40875243065133L35.781898437500004,158.42353718761944L35.81959375,158.41082446883178L35.8452265625,158.41425102195484L35.8542734375,158.40618391974613L35.86784375,158.40635752777177L35.943234374999996,158.3732377749506L35.962835937499996,158.3841399974686L35.982437499999996,158.39766899773628L36.015609375000004,158.40984509797443L36.035210937500004,158.40221858817034L36.0533046875,158.3842037293392L36.0744140625,158.3791413564017L36.087984375000005,158.38201922076337L36.1196484375,158.37717529868425L36.13321875,158.37281576881358L36.1467890625,158.37632619193386L36.1754375,158.39063657274642L36.184484375000004,158.38864791547104L36.214640624999994,158.3794241239208L36.2221796875,158.3822737115296L36.2674140625,158.38483834037734L36.287015625,158.3611275063338L36.3201875,158.36208975570062L36.3428046875,158.36667278013147L36.3518515625,158.36336350211772L36.385023437499996,158.36781915190667L36.4061328125,158.3829802367182L36.446843750000006,158.38175721304623L36.455890625,158.38065649174146L36.4664453125,158.3833828425676L36.4754921875,158.38955355831143L36.5373125,158.39882420248108L36.541835937500004,158.39973378223306L36.546359375,158.3931184040093L36.55540625,158.3983155636087L36.636828125,158.40299300724809L36.727296875,158.39233470652275L36.749914062500004,158.37530823586968L36.763484375,158.3674184122824L36.814750000000004,158.36031757105388L36.9037109375,158.3687948139488L36.9127578125,158.36899033255392L36.986640625,158.35058129929803L36.989656249999996,158.3451641693681L37.009257812499996,158.34028875243118L37.013781249999994,158.3173158771876L37.028859374999996,158.31894228946888L37.0695703125,158.31668906052195L37.119328125,158.30722715446962L37.1479765625,158.3024284390226L37.21884375,158.30182659512033L37.2851875,158.29013393560817L37.2866953125,158.2944785420474L37.3078046875,158.29467168784265L37.3168515625,158.29484551905838L37.348515625,158.26526596715235L37.381687500000005,158.2758143704372L37.4043046875,158.2815909333935L37.4284296875,158.2719218400541L37.508343749999995,158.26693665604867L37.5460390625,158.2383779904437L37.565640625,158.24789819139934L37.5761953125,158.2415983722594L37.589765625000005,158.2284945350334L37.601828125,158.2315690815301L37.6711875,158.22690217337706L37.680234375,158.23013595603936L37.6847578125,158.21817836043542L37.6938046875,158.22600152439188L37.698328124999996,158.2218913719527L37.71340625,158.2107582347574L37.728484375,158.21932341128166L37.80990625,158.22331507015352L37.824984375,158.19911856313814L37.827999999999996,158.19769670682433L37.957671875,158.18898303614188L37.97878125,158.1997257325277L38.0104453125,158.21311115927494L38.0285390625,158.19170504334744L38.114484374999996,158.1873075390127L38.119007812499994,158.1796327851114L38.1295625,158.17644250660027L38.150671875,158.18843925594024L38.263757812499996,158.16578333034622L38.2667734375,158.1639779973116L38.4054921875,158.15120219758043L38.43715625,158.13598697782237L38.470328125,158.12424028004014L38.480882812500006,158.11543825203614L38.542703125,158.1149504268325L38.5472265625,158.08477538414925L38.560796875,158.05584784573432L38.596984375000005,158.07247006116089L38.6256328125,158.0615880550448L38.6618203125,158.0441832495403L38.672375,158.0416169245863L38.6965,158.03736023212767L38.762843749999995,158.0298122089149L38.785460937500005,158.0267359880234L38.9000546875,158.02042738922106L38.93171875,157.99244765029897L38.940765625000004,157.98762088526905L38.9814765625,158.00363179674216L38.999570312500005,158.00317361706794L39.001078125,157.99161025536114L39.0056015625,157.97199922982503L39.0086171875,157.94886230684253L39.037265625,157.94644707615828L39.055359375,157.93683936854245L39.06440625,157.9246524316882L39.091546875000006,157.92465818851937L39.1171796875,157.83173836966745L39.1473359375,157.84475253270068L39.1714609375,157.84159727943063L39.175984375,157.79256055148755L39.1805078125,157.7871904963388L39.2197109375,157.78058744670494L39.2287578125,157.79128270203444L39.272484375,157.806572431831L39.290578124999996,157.8221031886479L39.314703124999994,157.8325408697831L39.326765625,157.84547478280479L39.3493828125,157.84968130452432L39.4247734375,157.8370061740719L39.441359375,157.8328555566647L39.453421875000004,157.82717300099822L39.4790546875,157.8220587008984L39.485085937499996,157.82488983080856L39.522781249999994,157.8274378477277L39.563492187499996,157.83716506295494L39.581585937499995,157.82733455665945L39.5936484375,157.8018491009935L39.61928125,157.78811619089416L39.628328125,157.77221657180473L39.6494375,157.79312991462427L39.70975,157.78398592316182L39.718796875,157.77398633084564L39.730859375,157.78534169776108L39.7459375,157.786357527985L39.7655390625,157.7929357751865L39.771570312499996,157.77283719766783L39.792679687500005,157.76589947790106L39.86053125,157.76177953011094L39.868070312499995,157.75948757709986L39.914812500000004,157.75565481938986L39.917828125,157.76707333745088L39.9313984375,157.75699500370578L39.9630625,157.69960350333523L39.967585937500004,157.6980421530017L39.9947265625,157.69486693770153L40.0128203125,157.70298324393136L40.062578125,157.67701191953824L40.1002734375,157.6814267275844L40.109320312499996,157.68540005482598L40.119875,157.68331204934339L40.1515390625,157.68514984440904L40.2178828125,157.67193585996813L40.2525625,157.66376027397132L40.2601015625,157.6787042465742L40.28875,157.67746282191678L40.376203124999996,157.7170555397251L40.3958046875,157.69162398575259L40.4169140625,157.68891358717732L40.46365625,157.6475342284596L40.47571875,157.64551580561363L40.5224609375,157.64741622505227L40.575234375,157.63992260254705L40.6159453125,157.62946134229233L40.6430859375,157.6257102080631L40.665703125,157.5795001872568L40.6943515625,157.56941716853112L40.796882812499994,157.564059451678L40.8089453125,157.5574675065102L40.846640625,157.5200287558592L40.8511640625,157.51783988027327L40.8541796875,157.51215289224595L40.900921875,157.52933660302133L40.9054453125,157.5448019427192L40.932585937499994,157.55677374844728L40.9627421875,157.54896337360256L40.9778203125,157.5624660362423L40.9808359375,157.53196143261806L41.0079765625,157.55265128935628L41.0381328125,157.56383816042063L41.0562265625,157.5461173443786L41.1316171875,157.5524706099407L41.148203125,157.56013554894665L41.160265624999994,157.57800799405197L41.179867187499994,157.5848891946468L41.181375,157.5093082751821L41.2039921875,157.5025274476639L41.2311328125,157.49837170289751L41.286921875,157.51321653260774L41.291445312499995,157.50427487934698L41.3125546875,157.52968039141228L41.3276328125,157.52652635227105L41.3427109375,157.44368371704394L41.387945312499994,157.44541234533955L41.396992187500004,157.44696811080559L41.437703125,157.45774929972504L41.491984375,157.46355836975255L41.499523437499995,157.45020153277727L41.508570312500005,157.46419937949955L41.5146015625,157.4713104415496L41.519124999999995,157.45540839739465L41.5326953125,157.47454955765517L41.54928125,157.48628960188967L41.596023437499994,157.4818106417007L41.606578125,157.48716057753063L41.66990625,157.46595651977756L41.687999999999995,157.4783788677998L41.7106171875,157.39114698101983L41.766406249999996,157.39246528291784L41.805609374999996,157.39736875462606L41.8402890625,157.39647187916344L41.8493359375,157.3676986912471L41.859890625,157.34357282212238L41.8674296875,157.31637253991016L41.8764765625,157.29366228591914L41.882507812499995,157.31959705732723L41.9578984375,157.3355043515945L42.004640625,157.32574891643506L42.013687499999996,157.33183702479155L42.080031250000005,157.33359932231238L42.1840703125,157.32952139008114L42.190101562500004,157.29062825107303L42.241367187499996,157.27243942596573L42.251921875,157.26527348336916L42.2805703125,157.25705413503223L42.3197734375,157.24399272152903L42.330328125,157.21931644937612L42.336359375,157.1988778044385L42.4011953125,157.19181102399466L42.416273437499996,157.18722092159518L42.4313515625,157.13459182943566L42.5127734375,157.0817386464921L42.5610234375,157.1288657818429L42.573085937500004,157.1397742036586L42.6153046875,157.14233478329274L42.618320312499996,157.15756030496348L42.674109375,157.15073127446712L42.720851562499995,157.1760911470204L42.7841796875,157.15431103231836L42.8113203125,157.15329392908654L42.815843750000006,157.17662753617788L42.8339375,157.16612178256008L42.835445312500006,157.1510026043041L42.852031249999996,157.15226334387367L42.859570312500004,157.16472600948632L42.9228984375,157.16833140853768L42.9786875,157.1975952676839L42.98471875,157.1793287409155L43.011859375,157.18519086682397L43.0269375,157.17754578014157L43.048046875000004,157.2002242021274L43.1279609375,157.17797778191468L43.1355,157.1839750037232L43.179226562500006,157.18937250335088L43.186765625,157.1774152530158L43.189781249999996,157.19090272771422L43.1943046875,157.15100345494278L43.207875,157.08535810944852L43.222953125000004,157.05424329850365L43.2908046875,157.0391609686533L43.295328125000005,157.06098687178797L43.361671875,157.05461118460917L43.3631796875,157.06551106614825L43.450632812500004,157.07709095953342L43.482296875,157.09689386358008L43.51546875,157.0941844772221L43.542609375000005,157.10856102949987L43.566734375,157.05087692654988L43.57578125,157.0267502338949L43.618,156.9512282105054L43.621015625,156.95954538945486L43.6376015625,156.9222498505094L43.64815625,156.88514386545845L43.6768046875,156.90360947891259L43.717515625,156.91668853102135L43.7521953125,156.8707576779192L43.770289062500005,156.87968791012727L43.811,156.85037811911457L43.82909375,156.8834713072031L43.90146875000001,156.91325517648278L43.9090078125,156.9066076588345L43.925593750000004,156.88398689295107L43.931625,156.93973820365596L43.9331328125,156.95274438329037L43.94971875,156.97383094496132L43.9843984375,156.9945788504652L43.9904296875,156.97625896541868L44.097484375,157.0153490688768L44.1170859375,157.02822816198912L44.1366875,157.06796234579022L44.14875,157.0309761112112L44.2573125,157.05539050009008L44.278421875,157.02921945008106L44.3010390625,157.03327750507296L44.31159375,156.99798975456565L44.4276953125,156.98286877910908L44.4427734375,157.0138639011982L44.4548359375,156.98051751107838L44.457851562500004,156.98767575997053L44.477453125000004,156.98296718397347L44.626726562500004,156.94704646557614L44.641804687500006,156.96675581901852L44.6568828125,156.92148223711666L44.6598984375,156.932597013405L44.72775,156.94260031206449L44.7624296875,156.93673528085804L44.7956015625,156.94260775277223L44.807664062499995,156.953733977495L44.816710937500005,156.9524195797455L44.90265625,156.93636862177095L44.9493984375,156.92740975959387L44.9916171875,156.9416487836345L44.996140625,156.95092390527103L45.0066953125,156.93873951474393L45.014234375,156.95202256326954L45.026296875,156.9080453069426L45.1695390625,156.88705077624832L45.183109375,156.8534646986235L45.190648437499995,156.85846022876115L45.201203125,156.86862020588504L45.2238203125,156.88696818529652L45.2931796875,156.89410036676688L45.3052421875,156.90069633009017L45.345953125,156.90840269708116L45.348968750000004,156.88188542737305L45.376109375,156.84881588463574L45.379124999999995,156.85232929617217L45.3926953125,156.84823436655495L45.394203125,156.89463992989945L45.430390625,156.93817493690952L45.5193515625,156.96443544321858L45.5404609375,156.9825828988967L45.548,156.95413460900704L45.56609375,156.90251214810633L45.587203124999995,156.9043729332957L45.59021875,156.90427763996612L45.5977578125,156.89498787596952L45.6565625,156.87724608837257L45.668625000000006,156.8872974795353L45.722906249999994,156.90183073158178L45.745523437500005,156.9094236584236L45.7786953125,156.91059329258124L45.816390625,156.9378419633231L45.8902734375,156.9436037669908L45.90384375,156.90790239029172L45.912890624999996,156.93559715126256L45.915906250000006,156.9306094361363L45.950585937499994,156.93337749252265L45.967171875,156.9192307432704L45.979234375000004,156.89906466894337L46.0742265625,156.878968202049L46.0923203125,156.89433438184412L46.099859375,156.9120579436597L46.142078125,156.90747714929373L46.1526328125,156.94795843436435L46.160171874999996,156.91943259092793L46.2611953125,156.90845033183513L46.2732578125,156.85785629865163L46.3607109375,156.86807666878647L46.3848359375,156.83621100190783L46.4391171875,156.82983390171702L46.44665625,156.84267951154533L46.467765625000006,156.8692855603908L46.61553125,156.8781860043517L46.6411640625,156.90124140391654L46.672828124999995,156.8957952635249L46.7663125,156.9188597371724L46.7949609375,156.91908576345517L46.8040078125,156.88229618710966L46.823609375,156.8918425683987L46.826625,156.8892833115588L46.950265625,156.85901398040292L46.9578046875,156.83938258236265L46.974390625,156.84950332412637L46.9849453125,156.86038199171372L46.997007812499994,156.84787079254235L47.0120859375,156.83678771328812L47.019625000000005,156.8192019419593L47.0422421875,156.80160474776338L47.046765625,156.79691827298706L47.1236640625,156.78349644568834L47.13271093749999,156.77123980111952L47.1598515625,156.80675982100755L47.206593749999996,156.7792558389068L47.233734375000004,156.77875125501612L47.2714296875,156.7744031295145L47.304601562500004,156.80765981656305L47.31515625,156.81546583490675L47.348328125,156.82620825141606L47.3498359375,156.82295542627446L47.4282421875,156.82905488364702L47.43578125,156.80852539528232L47.461414062500005,156.79748285575408L47.499109375,156.80984657017868L47.5488671875,156.7505279131608L47.55640625,156.70634512184472L47.7237734375,156.73525660966027L47.734328125,156.74835594869424L47.797656249999996,156.7137713538248L47.812734375,156.70866421844232L47.873046875,156.68176579659809L47.8760625,156.7002142169383L47.8805859375,156.63504379524446L47.88209375,156.60789641572L47.9605,156.619040774148L47.993671875000004,156.6418146967332L48.044937499999996,156.6012462270599L48.064539062499996,156.6334106043539L48.07509375,156.6398795439185L48.082632812499995,156.63826758952666L48.168578125,156.636816830574L48.3148359375,156.6169261475166L48.3178515625,156.60840553276495L48.3419765625,156.62303897948846L48.4309375,156.63797908153958L48.488234375000005,156.57708517338563L48.49728125,156.58918665604708L48.50934375,156.60751199044236L48.5108515625,156.61869479139813L48.634492187499994,156.6174313122583L48.645046875,156.6031961810325L48.6721875,156.60153556292923L48.68425,156.5814560066363L48.7098828125,156.56338440597267L48.7445625,156.5582709653754L48.749085937500006,156.52039286883786L48.7762265625,156.4898425819541L48.93153125,156.49597732375867L48.970734375,156.4531775913828L48.97978125,156.43872983224452L49.0054140625,156.42572684902007L49.0235078125,156.38269516411808L49.061203125,156.40503164770627L49.07628125,156.33964348293563L49.112468750000005,156.33849613464207L49.1682578125,156.32808252117786L49.3220546875,156.21640426906006L49.3522109375,156.20722584215406L49.368796875,156.17082225793865L49.3823671875,156.2311610321448L49.389906249999996,156.13678592893032L49.411015625,156.13910933603728L49.573859375,156.15783840243355L49.58290625,156.1895625621902L49.59496875,156.19793630597118L49.6115546875,156.16989567537405L49.680914062499994,156.13722510783666L49.6854375,156.113485597053L49.7412265625,156.0938900373477L49.875421875,156.03005703361293L49.8829609375,155.98552833025164L49.9221640625,155.89695449722646L49.935734375,155.8246720475038L49.9764453125,155.72634184275344L50.0156484375,155.67678465847808L50.0488203125,155.54474519263027L50.243328125,155.55423467336726L50.2991171875,155.44595520603053L50.348875,155.40390468542748L50.572031249999995,155.18817421688473L50.7635234375,155.02392979519627L50.768046875,154.78760981567663L50.858515624999995,154.64076583410898L50.991203125,154.45727625069807L51.00628125,154.26824062562827L51.172140625,154.08182456306542L51.684796875,153.5784581067589L51.9999296875,152.745763296083L52.0119921875,151.8430559664747L52.324109375000006,151.17540536982725L52.366328125,150.81948783284452L53.1111875,149.94426704956007L53.581625,149.16683434460404L53.748992187499994,148.65122491014364L53.837953125,147.37598541912928L54.1621328125,146.30066287721635L54.460679687500004,145.99449858949473L54.474250000000005,145.80160973054524L54.4848046875,144.7238937574907L54.5179765625,144.47929538174165L54.712484375,144.82909684356747L55.0879296875,144.67876215921075L55.11959375000001,144.48522794328966L55.519164062499996,144.7666451489607L55.9172265625,144.54308263406463L55.9323046875,144.29160837065817L56.033328125000004,143.41303653359233L56.244421875,144.2732008802331L57.1023671875,144.1430557922098L57.2380703125,143.44448021298882L57.275765625,143.44482019168993L57.29084375,143.33397017252094L57.425039062500005,143.20022115526885L57.690414062500004,144.18556603974196L57.8080234375,144.81254043576777L58.07490625,144.699615392191L58.124664062499996,143.8301568529719L58.608671875,143.6722771676747L58.735328125,142.89528645090724L58.756437500000004,142.9753258058165L59.172593750000004,141.26143122523484L59.3459921875,140.36833910271136L59.647554687500005,139.59340719244022L60.8960234375,139.4703334731962L61.615249999999996,138.9547681258766L61.862531249999996,139.00742231328894L61.9906953125,139.52403808196004L62.2017890625,139.05779527376404L62.366140625,139.31307774638762L62.4460546875,138.94138597174887L62.474703125,138.93449037457398L62.64659375,138.71730033711657L63.813640625000005,138.58997430340492L63.90109375,138.70194087306442L63.925218750000006,138.607479785758L63.958390625,138.3139588071822L64.04584375,137.24868792646396L64.4152578125,137.19919313381757L64.682140625,137.14349682043581L64.8374453125,136.60378813839225L65.09377343749999,137.133853324553L65.27621875,137.04982199209772L65.4888203125,137.04694079288794L65.7149921875,137.00682371359915L66.6377734375,136.83088834223923L66.8669609375,136.1826105080153L67.0478984375,136.16520645721377L67.1021796875,134.9496598114924L67.164,135.13378483034316L67.4700859375,135.11754134730884L67.7776796875,135.55745821257796L69.265890625,134.52924139132017L70.7691796875,134.44689725218814L71.1672421875,134.75422252696933L71.28334375,134.7182332742724L71.4265859375,134.78000694684516L71.5909375,134.50903825216065L72.088515625,134.7004094269446L72.1473203125,134.8167114842501L72.9766171875,134.62154533582512L73.4500703125,134.8328178022426L73.58728125,134.04592302201834L73.7727421875,134.1659007198165L73.789328125,134.39317864783484L74.880984375,133.18933978305137L75.339359375,133.19531980474625L75.80527343749999,132.54332382427162L75.85955468750001,132.85108544184445L76.05557031250001,133.28719389766002L76.141515625,133.59296150789402L76.9150234375,133.5699073571046L77.13365625,133.85766962139414L77.275390625,133.90000765925473L77.45632812500001,133.92589889332925L77.5015625,134.19310700399632L78.0971484375,132.9372363035967L78.36704687500001,132.99161367323703L79.08928906249999,133.31968230591332L79.2551484375,133.360772075322L79.59440625,133.23508986778978L80.0934921875,132.5842498810108L80.2864921875,132.60489589290972L80.3558515625,131.88273230361875L80.90921875,131.9329970732569L81.52591406250001,132.3203763659312L81.93905468749999,132.3337797293381L82.3371171875,132.31592975640427L82.92365625,131.06989178076384L83.22521875,131.40534460268745L84.6983515625,130.41019614241873L84.78580468749999,129.53049252817684L86.171484375,128.32369427535917L86.69469531249999,127.28501184782326L87.468203125,126.91677466304091L87.7079453125,127.52452319673682L88.82221874999999,127.11852887706314L88.84634375,125.88778098935683L88.9141953125,124.23671789042115L89.19917187499999,123.82302710137903L89.4389140625,124.13180139124111L91.313125,124.920520252117L91.37042187499999,124.9561742269053L91.40208593749999,124.93834880421477L91.4111328125,124.63963692379329L91.64333593750001,124.36070723141395L93.8598203125,124.30791050827257L93.9201328125,123.94869645744531L94.73435156250001,123.84382181170078L94.928859375,123.07736563053071L95.7566484375,123.12953906747762L96.5557890625,122.39362416072987L96.8362421875,122.51948174465687L97.82536718749999,123.56483557019118L98.1812109375,123.09213201317206L98.2053359375,122.88016081185485L100.2619921875,121.19108173066937L100.7957578125,120.29253455760244L101.7607578125,120.57097610184218L102.03367187500001,120.55394949165796L102.775515625,120.48941954249216L102.8644765625,120.80463558824296L103.07557031249999,115.65496102941866L104.789953125,116.2537899264768L105.4669609375,116.47537493382912L105.7926484375,117.15110844044621L105.95096875,117.77148159640159L106.8858125,115.98208943676143L108.9319140625,116.75033949308528L108.9620703125,115.69211954377676L110.82421875,115.87730058939908L110.8890546875,115.93227653045918L111.357984375,111.49126487741326L111.7786640625,110.93842038967193L113.9981640625,110.42581535070474L114.9842734375,111.66862681563427L115.56478125000001,111.07238113407084L115.688421875,111.67192302066375L115.7773828125,105.81030571859739L115.8678515625,105.74165914673763L117.3726484375,106.93622323206387L118.064734375,106.83144890885748L121.22058593749999,105.76028901797174L121.9714765625,105.89771611617456L121.99107812499999,106.10335150455711L122.539921875,107.26634835410141L122.9967890625,108.83997451869126L124.69760156250001,108.89068306682212L124.95091406249999,109.20482976013992L127.594109375,108.63849278412593L128.0630390625,109.46230750571334L129.475859375,110.223033755142L129.6251328125,104.49214537962779L130.030734375,99.33523084166502L130.5961640625,99.03581775749852L130.7469453125,99.90693398174867L131.1510390625,100.8946655835738L132.9272421875,101.36059402521641L133.64194531249998,101.83710062269478L134.05659375,102.2197595604253L134.5798046875,103.97201060438276L135.1844375,98.7453335439445L135.43775,99.45964818955004L137.605984375,100.69636637059503L139.0851484375,102.94221273353554L139.8963515625,103.17665946018197L140.7935,104.51515151416379L145.9668046875,104.17617736274741L148.61603125000002,99.02218562647266L152.22271874999998,92.5852730638254L162.39291406249998,88.27708175744286L162.48790625,83.49134558169857L163.2222109375,81.71280502352872L163.6926484375,84.24984752117582L164.32291406250002,86.41972876905825L167.1787109375,88.53847089215243L168.58851562499999,90.14249180293719L169.83396875,91.20502962264347L172.1997265625,91.08904766037911L173.3215390625,85.5898808943412L174.867046875,87.17936480490708L176.24669531249998,84.64810932441637L177.0880546875,85.57916639197472L179.571421875,80.53664675277726L180.216765625,82.43604607749953L180.5107890625,84.67367346974957L181.2616796875,79.75763412277462L182.28397656250002,75.27992171049716L186.91446875,76.94283153944744L187.80860156249997,75.5943523855027L188.6982109375,77.80018414695243L189.149046875,73.47255073225718L191.75153125,70.00248065903148L194.0117421875,66.46541459312832L203.7160234375,66.8712611338155L206.1601875,63.57917202043393L211.27770312500002,60.67664881839053L214.61599999999999,58.0218979365515L216.3906953125,59.34360414289635L222.06007031250002,57.69087372860673L223.545265625,55.28850335574606L230.0333828125,53.156283020171415L230.5249296875,58.005764718154296L233.22843749999998,56.52434224633885L234.534203125,57.93934102170499L240.12366406249998,55.46362591953449L240.487046875,51.62159632758103L248.146734375,49.833410694822945L249.63946875,48.19519262534064L249.793265625,52.22089436280659L250.878890625,50.33844092652592L251.2754453125,51.67553483387333L252.0142734375,49.88284035048602L257.0383046875,48.28092031543741L259.88203906250004,46.79954428389365L260.5243671875,45.486483855504275L261.5315859375,46.22978146995388L261.53309375000003,44.91121632295847L261.5346015625,43.83070769066265L261.536109375,41.04700892159636L261.5376171875,40.33557502943674L261.539125,37.945816526493076L261.5406328125,39.424064873843776L261.5466640625,38.84235738645938L261.5511875,43.963527647813464L261.55269531249996,42.32164888303211L261.554203125,41.417260994728935L261.5557109375,40.74526589525604L261.5587265625,40.056395305730405L261.560234375,37.24196577515738L261.5617421875,42.35360919764162L261.56325,47.51960327787745L261.56475781250003,48.04365895008971L261.56626562499997,46.60512505508075L261.5677734375,45.43009654957268L261.56928125,44.2550428946154L261.5707890625,44.72677460515388L261.5753125,43.587007144638505L261.578328125,42.57714643017465L261.5798359375,45.18278378715715L261.5858671875,47.23633840844144L261.587375,45.8585355675973L261.5888828125,48.32861001083759L261.5918984375,49.35763500975382L261.59792968749997,44.51408850877846L261.602453125,43.48072665790062L261.60546875,42.60415499211055L261.61150000000004,47.18878349289949L261.6130078125,45.86865914360956L261.614515625,42.723989229248616L261.6160234375,41.81512130632373L261.620546875,41.17290117569135L261.6235625,46.60830105812221L261.6250703125,45.15382595231L261.626578125,49.474460357078996L261.6280859375,46.23559532137108L261.62959375,48.162274789233976L261.632609375,46.683559310310585L261.6341171875,45.38032737927955L261.638640625,44.24830564135158L261.6401484375,43.2475400772164L261.64165625,42.277467069494776L261.64316406250003,41.401392362545295L261.644671875,40.648679126290745L261.6461796875,44.52580121366168L261.65371875,47.92016209229553L261.6552265625,48.412834883065955L261.656734375,46.93897639475935L261.6642734375,51.81440675528343L261.6672890625,48.3872130797551L261.668796875,46.95804277177959L261.6703046875,45.59532549460164L261.6718125,44.39047394514148L261.67482812500003,43.28433655062733L261.67633593749997,40.59332989556461L261.67784375,39.89044790600812L261.6793515625,39.15979611540729L261.680859375,38.612834503866594L261.6823671875,43.048426053479915L261.683875,42.169064448131934L261.686890625,46.78003300331872L261.68990625,51.527279702986846L261.6914140625,48.14455173268817L261.692921875,43.418065559419375L261.6959375,42.213230003477435L261.6974453125,46.832880003129674L261.7004609375,45.431526002816724L261.7034765625,44.42642640253504L261.704984375,43.35758076228154L261.7064921875,42.45739268605337L261.708,41.55642241744803L261.7095078125,46.93046017570322L261.7155390625,45.572448158132914L261.717046875,48.02351834231962L261.7185546875,46.579741508087665L261.7200625,45.23326035727888L261.72157031250003,46.01126132155099L261.723078125,41.73386818939588L261.7245859375,38.86921937045631L261.7276015625,38.347775433410675L261.729109375,43.356094890069585L261.7306171875,42.31392440106265L261.732125,39.695001960956375L261.73815625,39.734551764860754L261.74117187499996,35.95774358837468L261.7426796875,35.56425322953723L261.7441875,31.944992906583536L261.747203125,32.25509361592515L261.75021875,30.046980254332652L261.7517265625,28.500408228899374L261.75323437500003,29.036200406009442L261.75474218749997,29.46761436540848L261.75625,27.980040928867595L261.7577578125,34.72817783598086L261.759265625,40.25793405238278L261.76228125,43.191957647144505L261.7637890625,43.354755882430055L261.765296875,40.57351729418704L261.7668046875,39.87137756476835L261.7683125,45.03496280829154L261.7698203125,43.888271527462365L261.771328125,48.946819374716114L261.77283593749996,47.416907437244504L261.77434375,51.48663069352004L261.7788671875,53.37849662416804L261.780375,51.42824996175125L261.783390625,49.671434965576125L261.78489843750003,51.62038946901852L261.78640625,46.24028652211666" style="fill: none;" fill="none"></path></g></g></g></g><g opacity="0.2"><g><g><g><path stroke="rgb(255, 112, 67)" stroke-width="2px" d="M30.2542578125,158.59377L30.3688515625,158.51943L30.373375,158.37075L30.4095625,158.59377L30.5045546875,158.33358L30.518125,158.44509L30.527171875,158.59377L30.5316953125,158.40792L30.5708984375,158.5566L30.575421875,158.48226L30.641765625,158.29641L30.6462890625,158.48226L30.6508125,158.44509L30.659859375000003,158.40792L30.7337421875,158.48226L30.7458046875,158.29641L30.8091328125,158.40792L30.8181796875,158.44509L30.887539062499997,158.51943L30.907140625,158.51943L30.913171875,158.44509L30.944835937500002,158.51943L30.9508671875,158.48226L30.973484375,158.5566L31.0368125,158.37075L31.0413359375,158.37075L31.04284375,158.44509L31.063953125,158.40792L31.086570312499997,158.48226L31.1046640625,158.44509L31.1679921875,158.40792L31.1770390625,158.44509L31.19965625,158.5566L31.2132265625,158.40792L31.21775,158.37075L31.2554453125,158.5566L31.2614765625,158.25924L31.293140625,158.48226L31.3459140625,158.37075L31.359484375,158.44509L31.364007812500002,158.48226L31.395671875,158.25924L31.40471875,158.51943L31.455984375,158.44509L31.480109375,158.40792L31.48915625,158.48226L31.4936796875,158.44509L31.5178046875,158.44509L31.5298671875,158.40792L31.5660546875,158.40792L31.659539062500002,158.33358L31.6685859375,158.33358L31.673109375,158.37075L31.709296875,158.5566L31.715328125000003,158.51943L31.742468749999997,158.51943L31.8073046875,158.44509L31.938484375,158.37075L31.9671328125,158.33358L31.986734375,158.44509L31.99578125,158.48226L32.1148984375,158.51943L32.149578125,158.51943L32.173703124999996,158.40792L32.2234609375,158.40792L32.234015625000005,158.44509L32.277742187499996,158.48226L32.289804687499995,158.33358L32.2958359375,158.40792L32.3742421875,158.40792L32.378765625,158.37075L32.424,158.44509L32.5084375,158.37075L32.523515625,158.40792L32.547640625,158.40792L32.5672421875,158.40792L32.589859375,158.48226L32.6004140625,158.44509L32.6185078125,158.29641L32.6275546875,158.40792L32.656203125,158.37075L32.6938984375,158.44509L32.7542109375,158.44509L32.76175,158.40792L32.76778125,158.25924L32.819046875,158.40792L32.84015625,158.37075L32.8808671875,158.40792L32.8989609375,158.51943L32.9200703125,158.25924L32.9502265625,158.5566L32.957765625,158.25924L33.0165703125,158.33358L33.024109375,158.40792L33.027125,158.40792L33.036171875,158.51943L33.1462421875,158.37075L33.156796875000005,158.37075L33.171875,158.48226L33.1733828125,158.44509L33.200523437499996,158.48226L33.2186171875,158.5566L33.2457578125,158.25924L33.28646875,158.33358L33.3060703125,158.51943L33.319640625,158.40792L33.337734375000004,158.44509L33.3693984375,158.59377L33.39503125,158.25924L33.50359375,158.44509L33.53978125,158.48226L33.6181875,158.37075L33.6377890625,158.48226L33.6423125,158.44509L33.6785,158.40792L33.6830234375,158.44509L33.6860390625,158.51943L33.7041328125,158.37075L33.778015625,158.37075L33.7825390625,158.40792L33.80515625,158.40792L33.8277734375,158.51943L33.847375,158.51943L33.8971328125,158.44509L33.916734375000004,158.48226L33.92578125,158.33358L33.9634765625,158.48226L33.977046875,158.44509L34.0117265625,158.48226L34.013234375,158.44509L34.034343750000005,158.44509L34.05846875,158.37075L34.09465625,158.37075L34.11878125,158.44509L34.1685390625,158.44509L34.2167890625,158.40792L34.2213125,158.40792L34.252976562499995,158.29641L34.334398437500006,158.25924L34.3494765625,158.33358L34.45653125,158.48226L34.49271875,158.37075L34.4972421875,158.51943L34.5062890625,158.33358L34.522875,158.29641L34.5349375,158.37075L34.6269140625,158.48226L34.6480234375,158.37075L34.66159375,158.29641L34.743015625,158.25924L34.74603125,158.48226L34.752062499999994,158.48226L34.78825,158.44509L34.791265624999994,158.37075L34.809359375,158.33358L34.869671875,158.44509L34.893796875,158.40792L34.9586328125,158.48226L34.996328125,158.40792L35.021960937500005,158.44509L35.074734375,158.37075L35.0792578125,158.40792L35.0898125,158.40792L35.104890625,158.40792L35.122984375,158.33358L35.150124999999996,158.33358L35.1621875,158.44509L35.196867187500004,158.33358L35.237578125,158.33358L35.243609375,158.44509L35.2752734375,158.40792L35.322015625,158.48226L35.365742187500004,158.48226L35.3868515625,158.33358L35.400421875000006,158.48226L35.42153125,158.37075L35.4682734375,158.48226L35.4758125,158.51943L35.502953125,158.37075L35.507476562499996,158.51943L35.546679687499996,158.40792L35.584375,158.37075L35.5979453125,158.40792L35.641671875,158.44509L35.720078125,158.33358L35.7276171875,158.37075L35.7487265625,158.44509L35.774359374999996,158.37075L35.781898437500004,158.5566L35.81959375,158.29641L35.8452265625,158.44509L35.8542734375,158.33358L35.86784375,158.40792L35.943234374999996,158.07516L35.962835937499996,158.48226L35.982437499999996,158.51943L36.015609375000004,158.51943L36.035210937500004,158.33358L36.0533046875,158.22207L36.0744140625,158.33358L36.087984375000005,158.40792L36.1196484375,158.33358L36.13321875,158.33358L36.1467890625,158.40792L36.1754375,158.51943L36.184484375000004,158.37075L36.214640624999994,158.29641L36.2221796875,158.40792L36.2674140625,158.40792L36.287015625,158.14773L36.3201875,158.37075L36.3428046875,158.40792L36.3518515625,158.33358L36.385023437499996,158.40792L36.4061328125,158.51943L36.446843750000006,158.37075L36.455890625,158.37075L36.4664453125,158.40792L36.4754921875,158.44509L36.5373125,158.48226L36.541835937500004,158.40792L36.546359375,158.33358L36.55540625,158.44509L36.636828125,158.44509L36.727296875,158.29641L36.749914062500004,158.22207L36.763484375,158.29641L36.814750000000004,158.29641L36.9037109375,158.44509L36.9127578125,158.37075L36.986640625,158.1849L36.989656249999996,158.29641L37.009257812499996,158.29641L37.013781249999994,158.11056L37.028859374999996,158.33358L37.0695703125,158.29641L37.119328125,158.22207L37.1479765625,158.25924L37.21884375,158.29641L37.2851875,158.1849L37.2866953125,158.33358L37.3078046875,158.29641L37.3168515625,158.29641L37.348515625,157.99905L37.381687500000005,158.37075L37.4043046875,158.33358L37.4284296875,158.1849L37.508343749999995,158.22207L37.5460390625,157.98135L37.565640625,158.33358L37.5761953125,158.1849L37.589765625000005,158.11056L37.601828125,158.25924L37.6711875,158.1849L37.680234375,158.25924L37.6847578125,158.11056L37.6938046875,158.29641L37.698328124999996,158.1849L37.71340625,158.11056L37.728484375,158.29641L37.80990625,158.25924L37.824984375,157.98135L37.827999999999996,158.1849L37.957671875,158.11056L37.97878125,158.29641L38.0104453125,158.33358L38.0285390625,157.99905L38.114484374999996,158.14773L38.119007812499994,158.11056L38.1295625,158.14773L38.150671875,158.29641L38.263757812499996,157.96188L38.2667734375,158.14773L38.4054921875,158.03622000000001L38.43715625,157.99905L38.470328125,158.01852L38.480882812500006,158.03622000000001L38.542703125,158.11056L38.5472265625,157.8132L38.560796875,157.7955L38.596984375000005,158.22207L38.6256328125,157.96365L38.6618203125,157.88754L38.672375,158.01852L38.6965,157.99905L38.762843749999995,157.96188L38.785460937500005,157.99905L38.9000546875,157.96365L38.93171875,157.74063L38.940765625000004,157.94418L38.9814765625,158.14773L38.999570312500005,157.99905L39.001078125,157.88754L39.0056015625,157.7955L39.0086171875,157.74063L39.037265625,157.92471L39.055359375,157.85037L39.06440625,157.81497L39.091546875000006,157.92471L39.1171796875,156.99546L39.1473359375,157.96188L39.1714609375,157.8132L39.175984375,157.35123L39.1805078125,157.73886L39.2197109375,157.72116L39.2287578125,157.88754L39.272484375,157.94418L39.290578124999996,157.96188L39.314703124999994,157.92648L39.326765625,157.96188L39.3493828125,157.88754L39.4247734375,157.72293L39.441359375,157.7955L39.453421875000004,157.77603L39.4790546875,157.77603L39.485085937499996,157.85037L39.522781249999994,157.85037L39.563492187499996,157.92471L39.581585937499995,157.73886L39.5936484375,157.57248L39.61928125,157.66452L39.628328125,157.62912L39.6494375,157.98135L39.70975,157.70168999999999L39.718796875,157.68399L39.730859375,157.88754L39.7459375,157.7955L39.7655390625,157.85214L39.771570312499996,157.59195L39.792679687500005,157.70346L39.86053125,157.7247L39.868070312499995,157.73886L39.914812500000004,157.72116L39.917828125,157.86984L39.9313984375,157.66629L39.9630625,157.18308L39.967585937500004,157.68399L39.9947265625,157.66629L40.0128203125,157.77603L40.062578125,157.44326999999998L40.1002734375,157.72116L40.109320312499996,157.72116L40.119875,157.66452L40.1515390625,157.70168999999999L40.2178828125,157.55301L40.2525625,157.59018L40.2601015625,157.8132L40.28875,157.66629L40.376203124999996,158.07339L40.3958046875,157.46274L40.4169140625,157.66452L40.46365625,157.27512000000002L40.47571875,157.62735L40.5224609375,157.66452L40.575234375,157.57248L40.6159453125,157.53531L40.6430859375,157.59195L40.665703125,157.16361L40.6943515625,157.47867L40.796882812499994,157.51584L40.8089453125,157.49814L40.846640625,157.18308L40.8511640625,157.49814L40.8541796875,157.46097L40.900921875,157.68399L40.9054453125,157.68399L40.932585937499994,157.66452L40.9627421875,157.47867L40.9778203125,157.68399L40.9808359375,157.25742L41.0079765625,157.73886L41.0381328125,157.66452L41.0562265625,157.38663L41.1316171875,157.60965L41.148203125,157.62912L41.160265624999994,157.73886L41.179867187499994,157.64682L41.181375,156.82908L41.2039921875,157.4415L41.2311328125,157.46097L41.286921875,157.64682L41.291445312499995,157.4238L41.3125546875,157.75833L41.3276328125,157.49814L41.3427109375,156.6981L41.387945312499994,157.46097L41.396992187500004,157.46097L41.437703125,157.55478L41.491984375,157.51584L41.499523437499995,157.32999L41.508570312500005,157.59018L41.5146015625,157.53531L41.519124999999995,157.31229L41.5326953125,157.64682L41.54928125,157.59195L41.596023437499994,157.4415L41.606578125,157.53531L41.66990625,157.27512000000002L41.687999999999995,157.59018L41.7106171875,156.60606L41.766406249999996,157.40433L41.805609374999996,157.4415L41.8402890625,157.3884L41.8493359375,157.10874L41.859890625,157.12644L41.8674296875,157.07157L41.8764765625,157.08927L41.882507812499995,157.55301L41.9578984375,157.47867L42.004640625,157.23795L42.013687499999996,157.38663L42.080031250000005,157.34946L42.1840703125,157.29282L42.190101562500004,156.94059L42.241367187499996,157.10874L42.251921875,157.20078L42.2805703125,157.18308L42.3197734375,157.12644L42.330328125,156.99723L42.336359375,157.01493L42.4011953125,157.12821L42.416273437499996,157.14591000000001L42.4313515625,156.66093L42.5127734375,156.60606L42.5610234375,157.55301L42.573085937500004,157.23795L42.6153046875,157.16538L42.618320312499996,157.29459L42.674109375,157.08927L42.720851562499995,157.40433L42.7841796875,156.95829L42.8113203125,157.14414L42.815843750000006,157.38663L42.8339375,157.07157L42.835445312500006,157.01493L42.852031249999996,157.16361L42.859570312500004,157.27689L42.9228984375,157.20078L42.9786875,157.46097L42.98471875,157.01493L43.011859375,157.23795L43.0269375,157.10874L43.048046875000004,157.40433L43.1279609375,156.97776L43.1355,157.23795L43.179226562500006,157.23795L43.186765625,157.0698L43.189781249999996,157.31229L43.1943046875,156.79191L43.207875,156.49455L43.222953125000004,156.77421L43.2908046875,156.90342L43.295328125000005,157.25742L43.361671875,156.99723L43.3631796875,157.16361L43.450632812500004,157.18131L43.482296875,157.27512000000002L43.51546875,157.0698L43.542609375000005,157.23795L43.566734375,156.53172L43.57578125,156.80961L43.618,156.27152999999998L43.621015625,157.0344L43.6376015625,156.58659L43.64815625,156.55119L43.6768046875,157.0698L43.717515625,157.0344L43.7521953125,156.45738L43.770289062500005,156.96006L43.811,156.58659L43.82909375,157.18131L43.90146875000001,157.18131L43.9090078125,156.84678L43.925593750000004,156.6804L43.931625,157.4415L43.9331328125,157.0698L43.94971875,157.16361L43.9843984375,157.18131L43.9904296875,156.81137999999999L44.097484375,157.36716L44.1170859375,157.14414L44.1366875,157.42557L44.14875,156.6981L44.2573125,157.27512000000002L44.278421875,156.79368L44.3010390625,157.0698L44.31159375,156.6804L44.4276953125,156.84678L44.4427734375,157.29282L44.4548359375,156.6804L44.457851562500004,157.0521L44.477453125000004,156.94059L44.626726562500004,156.62376L44.641804687500006,157.14414L44.6568828125,156.51402000000002L44.6598984375,157.03263L44.72775,157.03263L44.7624296875,156.88395L44.7956015625,156.99546L44.807664062499995,157.05387L44.816710937500005,156.94059L44.90265625,156.79191L44.9493984375,156.84678L44.9916171875,157.0698L44.996140625,157.0344L45.0066953125,156.82908L45.014234375,157.07157L45.026296875,156.51225L45.1695390625,156.6981L45.183109375,156.55119L45.190648437499995,156.90342L45.201203125,156.96006L45.2238203125,157.0521L45.2931796875,156.95829L45.3052421875,156.96006L45.345953125,156.97776L45.348968750000004,156.64323L45.376109375,156.55119L45.379124999999995,156.88395L45.3926953125,156.81137999999999L45.394203125,157.31229L45.430390625,157.32999L45.5193515625,157.20078L45.5404609375,157.14591000000001L45.548,156.6981L45.56609375,156.43791L45.587203124999995,156.92112L45.59021875,156.90342L45.5977578125,156.81137999999999L45.6565625,156.71757L45.668625000000006,156.97776L45.722906249999994,157.03263L45.745523437500005,156.97776L45.7786953125,156.92112L45.816390625,157.18308L45.8902734375,156.99546L45.90384375,156.58659L45.912890624999996,157.18485L45.915906250000006,156.88572L45.950585937499994,156.95829L45.967171875,156.79191L45.979234375000004,156.71757L46.0742265625,156.6981L46.0923203125,157.03263L46.099859375,157.07157L46.142078125,156.86625L46.1526328125,157.31229L46.160171874999996,156.6627L46.2611953125,156.80961L46.2732578125,156.40251L46.3607109375,156.96006L46.3848359375,156.54942L46.4391171875,156.77244L46.44665625,156.95829L46.467765625000006,157.10874L46.61553125,156.95829L46.6411640625,157.10874L46.672828124999995,156.84678L46.7663125,157.12644L46.7949609375,156.92112L46.8040078125,156.55119L46.823609375,156.97776L46.826625,156.86625L46.950265625,156.58659L46.9578046875,156.6627L46.974390625,156.94059L46.9849453125,156.95829L46.997007812499994,156.73527L47.0120859375,156.73704L47.019625000000005,156.66093L47.0422421875,156.64323L47.046765625,156.75474L47.1236640625,156.6627L47.13271093749999,156.66093L47.1598515625,157.12644L47.206593749999996,156.53172L47.233734375000004,156.77421L47.2714296875,156.73527L47.304601562500004,157.10697L47.31515625,156.88572L47.348328125,156.92289L47.3498359375,156.79368L47.4282421875,156.88395L47.43578125,156.62376L47.461414062500005,156.6981L47.499109375,156.92112L47.5488671875,156.21666L47.55640625,156.3087L47.7237734375,156.99546L47.734328125,156.86625L47.797656249999996,156.40251L47.812734375,156.6627L47.873046875,156.43968L47.8760625,156.86625L47.8805859375,156.04851L47.88209375,156.36357L47.9605,156.71934L47.993671875000004,156.84678L48.044937499999996,156.23613L48.064539062499996,156.92289L48.07509375,156.6981L48.082632812499995,156.62376L48.168578125,156.62376L48.3148359375,156.43791L48.3178515625,156.53172L48.3419765625,156.75474L48.4309375,156.77244L48.488234375000005,156.02904L48.49728125,156.6981L48.50934375,156.77244L48.5108515625,156.71934L48.634492187499994,156.60606L48.645046875,156.47508L48.6721875,156.58659L48.68425,156.40073999999998L48.7098828125,156.40073999999998L48.7445625,156.51225L48.749085937500006,156.17949L48.7762265625,156.21489L48.93153125,156.55119L48.970734375,156.06798L48.97978125,156.3087L49.0054140625,156.3087L49.0235078125,155.99541L49.061203125,156.60606L49.07628125,155.75115L49.112468750000005,156.32817L49.1682578125,156.23436L49.3220546875,155.2113L49.3522109375,156.12462L49.368796875,155.84319L49.3823671875,156.77421L49.389906249999996,155.28741L49.411015625,156.16002L49.573859375,156.3264L49.58290625,156.47508L49.59496875,156.2733L49.6115546875,155.91753L49.680914062499994,155.84319L49.6854375,155.89983L49.7412265625,155.91753L49.875421875,155.45556L49.8829609375,155.58477L49.9221640625,155.09978999999998L49.935734375,155.17413L49.9764453125,154.84137L50.0156484375,155.23077L50.0488203125,154.35639L50.243328125,155.63963999999999L50.2991171875,154.47144L50.348875,155.02545L50.572031249999995,153.2466L50.7635234375,153.54573L50.768046875,152.66073L50.858515624999995,153.31916999999999L50.991203125,152.80587L51.00628125,152.56692L51.172140625,152.40408L51.684796875,149.04816L51.9999296875,145.25151L52.0119921875,143.71869L52.324109375000006,145.16655L52.366328125,147.61623L53.1111875,142.06727999999998L53.581625,142.16994L53.748992187499994,144.01074L53.837953125,135.89883L54.1621328125,136.62276L54.460679687500004,143.23902L54.474250000000005,144.06561L54.4848046875,135.02445L54.5179765625,142.27791L54.712484375,147.97731L55.0879296875,143.32575L55.11959375000001,142.74342000000001L55.519164062499996,147.2994L55.9172265625,142.53102L55.9323046875,142.02834000000001L56.033328125000004,135.50589L56.244421875,152.01468L57.1023671875,142.97175L57.2380703125,137.1573L57.275765625,143.44788L57.29084375,142.33632L57.425039062500005,141.99648L57.690414062500004,153.05367L57.8080234375,150.45531L58.07490625,143.68329L58.124664062499996,136.00503L58.608671875,142.25136L58.735328125,135.90237L58.756437500000004,143.69568L59.172593750000004,125.83638L59.3459921875,132.33051L59.647554687500005,132.61902L60.8960234375,138.36267L61.615249999999996,134.31468L61.862531249999996,139.48131L61.9906953125,144.17358L62.2017890625,134.86160999999998L62.366140625,141.61061999999998L62.4460546875,135.59616L62.474703125,138.87243L62.64659375,136.76259L63.813640625000005,137.44404L63.90109375,139.70964L63.925218750000006,137.75733L63.958390625,135.67227L64.04584375,127.66125L64.4152578125,136.75374L64.682140625,136.64223L64.8374453125,131.74641L65.09377343749999,141.90444L65.27621875,136.29354L65.4888203125,137.02101L65.7149921875,136.64577L66.6377734375,135.24747L66.8669609375,130.34811L67.0478984375,136.00857L67.1021796875,124.00974L67.164,136.79091L67.4700859375,134.97135L67.7776796875,139.51671L69.265890625,125.27529L70.7691796875,133.7058L71.1672421875,137.52015L71.28334375,134.39433L71.4265859375,135.33597L71.5909375,132.07031999999998L72.088515625,136.42275L72.1473203125,135.86343L72.9766171875,132.86505L73.4500703125,136.73427L73.58728125,126.96387L73.7727421875,135.2457L73.789328125,136.43868L74.880984375,122.35479000000001L75.339359375,133.24914L75.80527343749999,126.67536L75.85955468750001,135.62094000000002L76.05557031250001,137.21217000000001L76.141515625,136.34487000000001L76.9150234375,133.36242L77.13365625,136.44753L77.275390625,134.28105L77.45632812500001,134.15892L77.5015625,136.59798L78.0971484375,121.6344L78.36704687500001,133.48101L79.08928906249999,136.2723L79.2551484375,133.73058L79.59440625,132.10395L80.0934921875,126.72668999999999L80.2864921875,132.79071L80.3558515625,125.38326L80.90921875,132.38538L81.52591406250001,135.80679L81.93905468749999,132.45441L82.3371171875,132.15528L82.92365625,119.85555L83.22521875,134.42442L84.6983515625,121.45385999999999L84.78580468749999,121.61316000000001L86.171484375,117.46251000000001L86.69469531249999,117.93687L87.468203125,123.60264000000001L87.7079453125,132.99426L88.82221874999999,123.46458L88.84634375,114.81105L88.9141953125,109.37715L89.19917187499999,120.09981L89.4389140625,126.91077L91.313125,132.01899L91.37042187499999,125.27706L91.40208593749999,124.77792L91.4111328125,121.95123L91.64333593750001,121.85033999999999L93.8598203125,123.83274L93.9201328125,120.71576999999999L94.73435156250001,122.89995L94.928859375,116.17926L95.7566484375,123.59909999999999L96.5557890625,115.77038999999999L96.8362421875,123.6522L97.82536718749999,132.97302000000002L98.1812109375,118.8378L98.2053359375,120.97242L100.2619921875,105.98937000000001L100.7957578125,112.20561L101.7607578125,123.07695000000001L102.03367187500001,120.40071L102.775515625,119.90865L102.8644765625,123.64158L103.07557031249999,69.30789L104.789953125,121.64325L105.4669609375,118.46964L105.7926484375,123.23271L105.95096875,123.35484L106.8858125,99.87756L108.9319140625,123.66459L108.9620703125,106.16814000000001L110.82421875,117.54393L110.8890546875,116.42706L111.357984375,71.52216L111.7786640625,105.96282000000001L113.9981640625,105.81237L114.9842734375,122.85392999999999L115.56478125000001,105.70617L115.688421875,117.0678L115.7773828125,53.05574999999999L115.8678515625,105.12384L117.3726484375,117.6873L118.064734375,105.88848L121.22058593749999,96.11985L121.9714765625,107.13456L121.99107812499999,107.95407L122.539921875,117.73331999999999L122.9967890625,123.00261L124.69760156250001,109.34706L124.95091406249999,112.03215L127.594109375,103.54146L128.0630390625,116.87664000000001L129.475859375,117.06957L129.6251328125,52.91415000000001L130.030734375,52.923L130.5961640625,96.3411L130.7469453125,107.74698L131.1510390625,109.78425L132.9272421875,105.55395L133.64194531249998,106.12566L134.05659375,105.66369L134.5798046875,119.74226999999999L135.1844375,51.70524L135.43775,105.88848L137.605984375,111.82683L139.0851484375,123.15483L139.8963515625,105.28667999999999L140.7935,116.56157999999999L145.9668046875,101.12541L148.61603125000002,52.63625999999999L152.22271874999998,34.65305999999998L162.39291406249998,49.50336L162.48790625,40.41972000000001L163.2222109375,65.70594L163.6926484375,107.08323L164.32291406250002,105.94866L167.1787109375,107.60715L168.58851562499999,104.57867999999999L169.83396875,100.76787L172.1997265625,90.04521L173.3215390625,36.097380000000015L174.867046875,101.48472L176.24669531249998,61.86681L177.0880546875,93.95868L179.571421875,35.15396999999999L180.216765625,99.53063999999999L180.5107890625,104.81232L181.2616796875,35.51328000000001L182.28397656250002,34.98050999999998L186.91446875,91.90902L187.80860156249997,63.45804L188.6982109375,97.65267L189.149046875,34.52384999999998L191.75153125,38.77185L194.0117421875,34.631819999999976L203.7160234375,70.52388L206.1601875,33.95036999999999L211.27770312500002,34.55393999999998L214.61599999999999,34.12914000000001L216.3906953125,71.23895999999999L222.06007031250002,42.81630000000001L223.545265625,33.66717L230.0333828125,33.96629999999999L230.5249296875,101.6511L233.22843749999998,43.19154L234.534203125,70.67433000000001L240.12366406249998,33.18218999999999L240.487046875,17.043329999999997L248.146734375,33.73974000000001L249.63946875,33.45123000000001L249.793265625,88.45221000000001L250.878890625,33.39635999999999L251.2754453125,63.70938000000001L252.0142734375,33.74859000000001L257.0383046875,33.863640000000004L259.88203906250004,33.46716000000001L260.5243671875,33.66893999999999L261.5315859375,52.91946L261.53309375000003,33.044129999999996L261.5346015625,34.10613000000001L261.536109375,15.993719999999996L261.5376171875,33.93267L261.539125,16.437990000000013L261.5406328125,52.728300000000004L261.5466640625,33.606989999999996L261.5511875,90.05406L261.55269531249996,27.54473999999999L261.554203125,33.277770000000004L261.5557109375,34.697310000000016L261.5587265625,33.85656L261.560234375,11.91210000000001L261.5617421875,88.35839999999999L261.56325,94.01355L261.56475781250003,52.76016L261.56626562499997,33.65832L261.5677734375,34.854839999999996L261.56928125,33.67956000000001L261.5707890625,48.97236000000001L261.5753125,33.32910000000001L261.578328125,33.48840000000001L261.5798359375,68.63352L261.5858671875,65.71833L261.587375,33.45831000000001L261.5888828125,70.55928L261.5918984375,58.61886000000001L261.59792968749997,0.9221700000000226L261.602453125,34.180470000000014L261.60546875,34.71501000000001L261.61150000000004,88.45044000000001L261.6130078125,33.987539999999996L261.614515625,14.421960000000013L261.6160234375,33.635310000000004L261.620546875,35.392920000000004L261.6235625,95.5269L261.6250703125,32.06354999999999L261.626578125,88.36017000000001L261.6280859375,17.08581000000001L261.62959375,65.50239L261.632609375,33.37511999999998L261.6341171875,33.65124L261.638640625,34.06011000000001L261.6401484375,34.24064999999999L261.64165625,33.546809999999994L261.64316406250003,33.51671999999999L261.644671875,33.87425999999999L261.6461796875,79.4199L261.65371875,78.46941L261.6552265625,52.84689L261.656734375,33.67425L261.6642734375,95.69328L261.6672890625,17.54247000000001L261.668796875,34.09550999999999L261.6703046875,33.330870000000004L261.6718125,33.546809999999994L261.67482812500003,33.32910000000001L261.67633593749997,16.374269999999996L261.67784375,33.564509999999984L261.6793515625,32.58393000000001L261.680859375,33.69018L261.6823671875,82.96875L261.683875,34.25480999999999L261.686890625,88.27875L261.68990625,94.2525L261.6914140625,17.69999999999999L261.692921875,0.8796900000000107L261.6959375,31.369709999999998L261.6974453125,88.40973L261.7004609375,32.81934000000001L261.7034765625,35.38052999999999L261.704984375,33.73796999999999L261.7064921875,34.35570000000001L261.708,33.447689999999994L261.7095078125,95.2968L261.7155390625,33.35034000000002L261.717046875,70.08315L261.7185546875,33.58574999999999L261.7200625,33.11492999999999L261.72157031250003,53.013270000000006L261.723078125,3.2373300000000143L261.7245859375,13.087379999999996L261.7276015625,33.65477999999999L261.729109375,88.43097L261.7306171875,32.93438999999998L261.732125,16.12469999999999L261.73815625,40.09050000000002L261.74117187499996,1.9664699999999868L261.7426796875,32.02284L261.7441875,-0.6283499999999833L261.747203125,35.04599999999999L261.75021875,10.173959999999994L261.7517265625,14.581260000000015L261.75323437500003,33.858329999999995L261.75474218749997,33.35034000000002L261.75625,14.591880000000003L261.7577578125,95.46141L261.759265625,90.02574L261.76228125,69.59817L261.7637890625,44.81994L261.765296875,15.542370000000005L261.7668046875,33.55212L261.7683125,91.50723L261.7698203125,33.56805L261.771328125,94.47375L261.77283593749996,33.647700000000015L261.77434375,88.11414L261.7788671875,70.40529L261.780375,33.876029999999986L261.783390625,33.86010000000002L261.78489843750003,69.16098L261.78640625,-2.180640000000011" style="fill: none;" fill="none"></path></g></g></g></g></g></g><g transform="translate(58, 177)" clip-path="url(#clip_1)"><clipPath id="clip_1"><rect width="271" height="23"></rect></clipPath><g><g><line x1="0" y1="0" x2="0" y2="5" style="visibility: inherit;" fill="rgb(0, 0, 0)" stroke="rgb(204, 204, 204)" stroke-width="1px"></line><line x1="30.15625" y1="0" x2="30.15625" y2="5" style="visibility: inherit;" fill="rgb(0, 0, 0)" stroke="rgb(204, 204, 204)" stroke-width="1px"></line><line x1="60.3125" y1="0" x2="60.3125" y2="5" style="visibility: inherit;" fill="rgb(0, 0, 0)" stroke="rgb(204, 204, 204)" stroke-width="1px"></line><line x1="90.46875" y1="0" x2="90.46875" y2="5" style="visibility: inherit;" fill="rgb(0, 0, 0)" stroke="rgb(204, 204, 204)" stroke-width="1px"></line><line x1="120.625" y1="0" x2="120.625" y2="5" style="visibility: inherit;" fill="rgb(0, 0, 0)" stroke="rgb(204, 204, 204)" stroke-width="1px"></line><line x1="150.78125" y1="0" x2="150.78125" y2="5" style="visibility: inherit;" fill="rgb(0, 0, 0)" stroke="rgb(204, 204, 204)" stroke-width="1px"></line><line x1="180.9375" y1="0" x2="180.9375" y2="5" style="visibility: inherit;" fill="rgb(0, 0, 0)" stroke="rgb(204, 204, 204)" stroke-width="1px"></line><line x1="211.09375" y1="0" x2="211.09375" y2="5" style="visibility: inherit;" fill="rgb(0, 0, 0)" stroke="rgb(204, 204, 204)" stroke-width="1px"></line><line x1="241.25" y1="0" x2="241.25" y2="5" style="visibility: inherit;" fill="rgb(0, 0, 0)" stroke="rgb(204, 204, 204)" stroke-width="1px"></line><line x1="271.40625" y1="0" x2="271.40625" y2="5" style="visibility: inherit;" fill="rgb(0, 0, 0)" stroke="rgb(204, 204, 204)" stroke-width="1px"></line></g><g transform="translate(0, 8)"><text x="0" y="0" dx="0em" dy="0.95em" style="text-anchor: middle; visibility: hidden; font-family: &quot;Helvetica Neue&quot;, sans-serif; font-size: 12px; font-weight: 200;" fill="rgb(50, 49, 63)" stroke="none" stroke-width="1px">-20k</text><text x="30.15625" y="0" dx="0em" dy="0.95em" style="text-anchor: middle; visibility: inherit; font-family: &quot;Helvetica Neue&quot;, sans-serif; font-size: 12px; font-weight: 200;" fill="rgb(50, 49, 63)" stroke="none" stroke-width="1px">0</text><text x="60.3125" y="0" dx="0em" dy="0.95em" style="text-anchor: middle; visibility: hidden; font-family: &quot;Helvetica Neue&quot;, sans-serif; font-size: 12px; font-weight: 200;" fill="rgb(50, 49, 63)" stroke="none" stroke-width="1px">20k</text><text x="90.46875" y="0" dx="0em" dy="0.95em" style="text-anchor: middle; visibility: inherit; font-family: &quot;Helvetica Neue&quot;, sans-serif; font-size: 12px; font-weight: 200;" fill="rgb(50, 49, 63)" stroke="none" stroke-width="1px">40k</text><text x="120.625" y="0" dx="0em" dy="0.95em" style="text-anchor: middle; visibility: hidden; font-family: &quot;Helvetica Neue&quot;, sans-serif; font-size: 12px; font-weight: 200;" fill="rgb(50, 49, 63)" stroke="none" stroke-width="1px">60k</text><text x="150.78125" y="0" dx="0em" dy="0.95em" style="text-anchor: middle; visibility: inherit; font-family: &quot;Helvetica Neue&quot;, sans-serif; font-size: 12px; font-weight: 200;" fill="rgb(50, 49, 63)" stroke="none" stroke-width="1px">80k</text><text x="180.9375" y="0" dx="0em" dy="0.95em" style="text-anchor: middle; visibility: hidden; font-family: &quot;Helvetica Neue&quot;, sans-serif; font-size: 12px; font-weight: 200;" fill="rgb(50, 49, 63)" stroke="none" stroke-width="1px">100k</text><text x="211.09375" y="0" dx="0em" dy="0.95em" style="text-anchor: middle; visibility: inherit; font-family: &quot;Helvetica Neue&quot;, sans-serif; font-size: 12px; font-weight: 200;" fill="rgb(50, 49, 63)" stroke="none" stroke-width="1px">120k</text><text x="241.25" y="0" dx="0em" dy="0.95em" style="text-anchor: middle; visibility: hidden; font-family: &quot;Helvetica Neue&quot;, sans-serif; font-size: 12px; font-weight: 200;" fill="rgb(50, 49, 63)" stroke="none" stroke-width="1px">140k</text><text x="271.40625" y="0" dx="0em" dy="0.95em" style="text-anchor: middle; visibility: hidden; font-family: &quot;Helvetica Neue&quot;, sans-serif; font-size: 12px; font-weight: 200;" fill="rgb(50, 49, 63)" stroke="none" stroke-width="1px">160k</text></g><line x1="0" y1="0" x2="271.40625" y2="0" fill="rgb(0, 0, 0)" stroke="rgb(204, 204, 204)" stroke-width="1px"></line></g></g></g></g></svg>