<svg viewBox="0 0 330 200" xmlns="http://www.w3.org/2000/svg"><g><g><g><g><g><line x1="39.15625" y1="177" x2="34.15625" y2="177" style="visibility: inherit;" fill="rgb(0, 0, 0)" stroke="rgb(204, 204, 204)" stroke-width="1px"></line><line x1="39.15625" y1="163.3846153846154" x2="34.15625" y2="163.3846153846154" style="visibility: inherit;" fill="rgb(0, 0, 0)" stroke="rgb(204, 204, 204)" stroke-width="1px"></line><line x1="39.15625" y1="149.76923076923077" x2="34.15625" y2="149.76923076923077" style="visibility: inherit;" fill="rgb(0, 0, 0)" stroke="rgb(204, 204, 204)" stroke-width="1px"></line><line x1="39.15625" y1="136.15384615384616" x2="34.15625" y2="136.15384615384616" style="visibility: inherit;" fill="rgb(0, 0, 0)" stroke="rgb(204, 204, 204)" stroke-width="1px"></line><line x1="39.15625" y1="122.53846153846153" x2="34.15625" y2="122.53846153846153" style="visibility: inherit;" fill="rgb(0, 0, 0)" stroke="rgb(204, 204, 204)" stroke-width="1px"></line><line x1="39.15625" y1="108.92307692307692" x2="34.15625" y2="108.92307692307692" style="visibility: inherit;" fill="rgb(0, 0, 0)" stroke="rgb(204, 204, 204)" stroke-width="1px"></line><line x1="39.15625" y1="95.3076923076923" x2="34.15625" y2="95.3076923076923" style="visibility: inherit;" fill="rgb(0, 0, 0)" stroke="rgb(204, 204, 204)" stroke-width="1px"></line><line x1="39.15625" y1="81.6923076923077" x2="34.15625" y2="81.6923076923077" style="visibility: inherit;" fill="rgb(0, 0, 0)" stroke="rgb(204, 204, 204)" stroke-width="1px"></line><line x1="39.15625" y1="68.07692307692307" x2="34.15625" y2="68.07692307692307" style="visibility: inherit;" fill="rgb(0, 0, 0)" stroke="rgb(204, 204, 204)" stroke-width="1px"></line><line x1="39.15625" y1="54.46153846153847" x2="34.15625" y2="54.46153846153847" style="visibility: inherit;" fill="rgb(0, 0, 0)" stroke="rgb(204, 204, 204)" stroke-width="1px"></line><line x1="39.15625" y1="40.84615384615384" x2="34.15625" y2="40.84615384615384" style="visibility: inherit;" fill="rgb(0, 0, 0)" stroke="rgb(204, 204, 204)" stroke-width="1px"></line><line x1="39.15625" y1="27.230769230769226" x2="34.15625" y2="27.230769230769226" style="visibility: inherit;" fill="rgb(0, 0, 0)" stroke="rgb(204, 204, 204)" stroke-width="1px"></line><line x1="39.15625" y1="13.615384615384613" x2="34.15625" y2="13.615384615384613" style="visibility: inherit;" fill="rgb(0, 0, 0)" stroke="rgb(204, 204, 204)" stroke-width="1px"></line><line x1="39.15625" y1="0" x2="34.15625" y2="0" style="visibility: inherit;" fill="rgb(0, 0, 0)" stroke="rgb(204, 204, 204)" stroke-width="1px"></line></g><g transform="translate(29.15625, 0)"><text x="0" y="177" dx="0em" dy="0.3em" style="text-anchor: end; visibility: hidden; font-family: &quot;Helvetica Neue&quot;, sans-serif; font-size: 12px; font-weight: 200;" fill="rgb(50, 49, 63)" stroke="none" stroke-width="1px">-10</text><text x="0" y="163.3846153846154" dx="0em" dy="0.3em" style="text-anchor: end; visibility: inherit; font-family: &quot;Helvetica Neue&quot;, sans-serif; font-size: 12px; font-weight: 200;" fill="rgb(50, 49, 63)" stroke="none" stroke-width="1px">0</text><text x="0" y="149.76923076923077" dx="0em" dy="0.3em" style="text-anchor: end; visibility: hidden; font-family: &quot;Helvetica Neue&quot;, sans-serif; font-size: 12px; font-weight: 200;" fill="rgb(50, 49, 63)" stroke="none" stroke-width="1px">10</text><text x="0" y="136.15384615384616" dx="0em" dy="0.3em" style="text-anchor: end; visibility: inherit; font-family: &quot;Helvetica Neue&quot;, sans-serif; font-size: 12px; font-weight: 200;" fill="rgb(50, 49, 63)" stroke="none" stroke-width="1px">20</text><text x="0" y="122.53846153846153" dx="0em" dy="0.3em" style="text-anchor: end; visibility: hidden; font-family: &quot;Helvetica Neue&quot;, sans-serif; font-size: 12px; font-weight: 200;" fill="rgb(50, 49, 63)" stroke="none" stroke-width="1px">30</text><text x="0" y="108.92307692307692" dx="0em" dy="0.3em" style="text-anchor: end; visibility: inherit; font-family: &quot;Helvetica Neue&quot;, sans-serif; font-size: 12px; font-weight: 200;" fill="rgb(50, 49, 63)" stroke="none" stroke-width="1px">40</text><text x="0" y="95.3076923076923" dx="0em" dy="0.3em" style="text-anchor: end; visibility: hidden; font-family: &quot;Helvetica Neue&quot;, sans-serif; font-size: 12px; font-weight: 200;" fill="rgb(50, 49, 63)" stroke="none" stroke-width="1px">50</text><text x="0" y="81.6923076923077" dx="0em" dy="0.3em" style="text-anchor: end; visibility: inherit; font-family: &quot;Helvetica Neue&quot;, sans-serif; font-size: 12px; font-weight: 200;" fill="rgb(50, 49, 63)" stroke="none" stroke-width="1px">60</text><text x="0" y="68.07692307692307" dx="0em" dy="0.3em" style="text-anchor: end; visibility: hidden; font-family: &quot;Helvetica Neue&quot;, sans-serif; font-size: 12px; font-weight: 200;" fill="rgb(50, 49, 63)" stroke="none" stroke-width="1px">70</text><text x="0" y="54.46153846153847" dx="0em" dy="0.3em" style="text-anchor: end; visibility: inherit; font-family: &quot;Helvetica Neue&quot;, sans-serif; font-size: 12px; font-weight: 200;" fill="rgb(50, 49, 63)" stroke="none" stroke-width="1px">80</text><text x="0" y="40.84615384615384" dx="0em" dy="0.3em" style="text-anchor: end; visibility: hidden; font-family: &quot;Helvetica Neue&quot;, sans-serif; font-size: 12px; font-weight: 200;" fill="rgb(50, 49, 63)" stroke="none" stroke-width="1px">90</text><text x="0" y="27.230769230769226" dx="0em" dy="0.3em" style="text-anchor: end; visibility: inherit; font-family: &quot;Helvetica Neue&quot;, sans-serif; font-size: 12px; font-weight: 200;" fill="rgb(50, 49, 63)" stroke="none" stroke-width="1px">100</text><text x="0" y="13.615384615384613" dx="0em" dy="0.3em" style="text-anchor: end; visibility: hidden; font-family: &quot;Helvetica Neue&quot;, sans-serif; font-size: 12px; font-weight: 200;" fill="rgb(50, 49, 63)" stroke="none" stroke-width="1px">110</text><text x="0" y="0" dx="0em" dy="0.3em" style="text-anchor: end; visibility: hidden; font-family: &quot;Helvetica Neue&quot;, sans-serif; font-size: 12px; font-weight: 200;" fill="rgb(50, 49, 63)" stroke="none" stroke-width="1px">120</text></g><line x1="39.15625" y1="0" x2="39.15625" y2="177" fill="rgb(0, 0, 0)" stroke="rgb(204, 204, 204)" stroke-width="1px"></line></g></g><g transform="translate(39, 0)" clip-path="url(#clip_0)"><clipPath id="clip_0"><rect width="290" height="177"></rect></clipPath><g><g><g><line x1="0" y1="0" x2="0" y2="177" fill="rgb(0, 0, 0)" stroke="rgb(60, 60, 60)" stroke-width="1px" opacity="0.25"></line><line x1="29.084375" y1="0" x2="29.084375" y2="177" fill="rgb(0, 0, 0)" stroke="rgb(60, 60, 60)" stroke-width="1px" opacity="0.25"></line><line x1="58.16875" y1="0" x2="58.16875" y2="177" fill="rgb(0, 0, 0)" stroke="rgb(60, 60, 60)" stroke-width="1px" opacity="0.25"></line><line x1="87.253125" y1="0" x2="87.253125" y2="177" fill="rgb(0, 0, 0)" stroke="rgb(60, 60, 60)" stroke-width="1px" opacity="0.25"></line><line x1="116.3375" y1="0" x2="116.3375" y2="177" fill="rgb(0, 0, 0)" stroke="rgb(60, 60, 60)" stroke-width="1px" opacity="0.25"></line><line x1="145.421875" y1="0" x2="145.421875" y2="177" fill="rgb(0, 0, 0)" stroke="rgb(60, 60, 60)" stroke-width="1px" opacity="0.25"></line><line x1="174.50625" y1="0" x2="174.50625" y2="177" fill="rgb(0, 0, 0)" stroke="rgb(60, 60, 60)" stroke-width="1px" opacity="0.25"></line><line x1="203.590625" y1="0" x2="203.590625" y2="177" fill="rgb(0, 0, 0)" stroke="rgb(60, 60, 60)" stroke-width="1px" opacity="0.25"></line><line x1="232.675" y1="0" x2="232.675" y2="177" fill="rgb(0, 0, 0)" stroke="rgb(60, 60, 60)" stroke-width="1px" opacity="0.25"></line><line x1="261.75937500000003" y1="0" x2="261.75937500000003" y2="177" fill="rgb(0, 0, 0)" stroke="rgb(60, 60, 60)" stroke-width="1px" opacity="0.25"></line><line x1="290.84375" y1="0" x2="290.84375" y2="177" fill="rgb(0, 0, 0)" stroke="rgb(60, 60, 60)" stroke-width="1px" opacity="0.25"></line></g><g><line x1="0" y1="177" x2="290.84375" y2="177" fill="rgb(0, 0, 0)" stroke="rgb(60, 60, 60)" stroke-width="1px" opacity="0.25"></line><line x1="0" y1="163.3846153846154" x2="290.84375" y2="163.3846153846154" fill="rgb(0, 0, 0)" stroke="rgb(60, 60, 60)" stroke-width="1px" opacity="0.25"></line><line x1="0" y1="149.76923076923077" x2="290.84375" y2="149.76923076923077" fill="rgb(0, 0, 0)" stroke="rgb(60, 60, 60)" stroke-width="1px" opacity="0.25"></line><line x1="0" y1="136.15384615384616" x2="290.84375" y2="136.15384615384616" fill="rgb(0, 0, 0)" stroke="rgb(60, 60, 60)" stroke-width="1px" opacity="0.25"></line><line x1="0" y1="122.53846153846153" x2="290.84375" y2="122.53846153846153" fill="rgb(0, 0, 0)" stroke="rgb(60, 60, 60)" stroke-width="1px" opacity="0.25"></line><line x1="0" y1="108.92307692307692" x2="290.84375" y2="108.92307692307692" fill="rgb(0, 0, 0)" stroke="rgb(60, 60, 60)" stroke-width="1px" opacity="0.25"></line><line x1="0" y1="95.3076923076923" x2="290.84375" y2="95.3076923076923" fill="rgb(0, 0, 0)" stroke="rgb(60, 60, 60)" stroke-width="1px" opacity="0.25"></line><line x1="0" y1="81.6923076923077" x2="290.84375" y2="81.6923076923077" fill="rgb(0, 0, 0)" stroke="rgb(60, 60, 60)" stroke-width="1px" opacity="0.25"></line><line x1="0" y1="68.07692307692307" x2="290.84375" y2="68.07692307692307" fill="rgb(0, 0, 0)" stroke="rgb(60, 60, 60)" stroke-width="1px" opacity="0.25"></line><line x1="0" y1="54.46153846153847" x2="290.84375" y2="54.46153846153847" fill="rgb(0, 0, 0)" stroke="rgb(60, 60, 60)" stroke-width="1px" opacity="0.25"></line><line x1="0" y1="40.84615384615384" x2="290.84375" y2="40.84615384615384" fill="rgb(0, 0, 0)" stroke="rgb(60, 60, 60)" stroke-width="1px" opacity="0.25"></line><line x1="0" y1="27.230769230769226" x2="290.84375" y2="27.230769230769226" fill="rgb(0, 0, 0)" stroke="rgb(60, 60, 60)" stroke-width="1px" opacity="0.25"></line><line x1="0" y1="13.615384615384613" x2="290.84375" y2="13.615384615384613" fill="rgb(0, 0, 0)" stroke="rgb(60, 60, 60)" stroke-width="1px" opacity="0.25"></line><line x1="0" y1="0" x2="290.84375" y2="0" fill="rgb(0, 0, 0)" stroke="rgb(60, 60, 60)" stroke-width="1px" opacity="0.25"></line></g></g></g><g><g><line x1="0" y1="163.3846153846154" x2="290.84375" y2="163.3846153846154" fill="rgb(0, 0, 0)" stroke="rgb(153, 153, 153)" stroke-width="1.5px"></line></g></g><g><g><line x1="29.084375" y1="0" x2="29.084375" y2="177" fill="rgb(0, 0, 0)" stroke="rgb(153, 153, 153)" stroke-width="1.5px"></line></g></g><g><g><g><g><g><path stroke="rgb(255, 112, 67)" stroke-width="2px" d="M29.14690640625,162.02307692307693L29.32868375,162.02307692307693L29.4188453125,162.02307692307693L29.775128906249996,162.02307692307693L29.86529046875,162.02307692307693L29.927821875000003,162.02307692307693L29.93800140625,162.02307692307693L30.00780390625,162.02307692307693L30.02670875,162.02307692307693L30.12414140625,160.35073742705595L30.26083796875,159.0070897193312L30.56040703125,159.0479094430462L31.0243028125,157.62125005472762L31.0999221875,156.42659567761882L31.110101718750002,155.41679668228983L31.17408734375,154.22222132758512L31.60744453125,152.5439583890081L31.6118071875,151.0960916780071L31.8153978125,149.84075071435046L31.873566562500002,149.3676149135484L32.046618593750004,148.95406471609456L32.440711875,148.4403797345183L32.559957812499995,147.0922417402517L32.6995628125,147.38314495811846L32.70101703125,147.64020804662454L32.9904065625,147.86781627276255L33.503745781250004,147.49145715402042L33.782955781249996,147.5881405732482L33.80622328125,147.67414674822143L33.8920221875,147.75074854297404L34.34719265625,145.83728659170515L34.35010109375,144.129534510238L34.422812031250004,142.604054293174L34.6423990625,142.92092343266114L34.83871859375,143.204388191574L35.3636915625,143.1795435076034L35.484391718750004,143.1572918379427L35.61817984375,143.96946002525675L35.6429015625,144.69754849067283L35.88575609375,145.35052209103324L36.314750625,144.97041337371985L36.551788281250005,144.90489531267497L36.8586284375,142.78152591630487L36.8789875,140.8748832045347L37.408323125,137.92627492303916L37.61336796875,137.4731651003902L37.675899375,137.06604733310508L37.796599531249996,135.19290902533913L38.10198546875,134.05711408748152L38.129615625,133.03614081197873L38.827640625,133.07578755120127L38.84509125,133.1114345295337L39.05304453125,130.54680936407232L39.21591703125,130.5629522438374L39.490764375000005,128.3923590481097L39.93430109375,127.53230598188571L39.938663749999996,127.71413899299543L40.42582703125,127.0589638749247L40.476724687499996,124.01391057308064L40.81555765624999,121.54731779237073L40.98133859375,119.73735104482691L41.0409615625,116.47271015361167L41.44378015625,116.5347511825015L41.45832234375,114.95479788553641L41.99638328125,115.71396982078076L42.07927375,113.12625540477802L42.55189484375,111.07032432083444L42.85437234375,107.44895210020904L42.97943515625,108.82270560315848L42.99834,108.56027060665103L43.188842656249996,106.9618036755796L44.20825,104.84223987607182L44.3245875,104.97807793601774L44.38711890625,103.3295924528087L44.5107275,101.70988008644936L44.762307343749995,101.47804564856999L44.93972203125001,101.13321466416016L44.9440846875,99.59717120132741L45.03279203125,98.21481082167197L45.111319843749996,96.56219945529271L45.23056578124999,96.43672406867749L45.85587984375,95.77908913002713L45.90532328125,93.68930892055779L46.07837531249999,97.66402469178846L46.185987499999996,95.93047550569312L46.491373437499995,92.73628785902295L46.498644531249994,89.8615894487968L46.774946093749996,85.23191817827266L46.958177656249994,82.42695048223977L47.8118040625,78.26855404301833L48.04011640625,73.98140471341654L48.07938031250001,72.3016221318167L48.8588415625,68.47509357277355L48.89228859375,68.57143518449206L49.168590156250005,66.47958218577486L49.7662740625,63.03109974425645L49.87243203125,59.7232538625626L49.93641765624999,56.74621546909306L50.094927500000004,54.06689946381154L50.37268328125,52.33631739690365L50.41630984375,51.187273573638464L50.577728125,50.35737451506404L50.7144246875,48.65737337676319L51.5869559375,46.51467562151183L52.010133593750005,44.58625473662076L52.52201859375,42.85068168700511L52.8201334375,41.288670597225945L53.5995946875,39.88286438685739L53.90352640625,38.61764185156443L53.948607187499995,37.47894404356367L54.2685353125,37.951822811538534L54.300528125,36.87970941076321L54.59718875,36.187118409007894L54.61754781250001,35.56378739588558L55.917619374999994,34.730481022224325L56.884674843750005,33.98050615179184L56.9617484375,33.30552946975027L57.488175625000004,32.698051024003576L57.64668546875,32.151320882984436L57.66704453125,31.659264128790625L57.779019375000004,31.216413351921773L58.162933124999995,30.817847897283116L58.2472778125,30.459139186188253L58.260365781249995,30.680918045146456L58.525033593749995,30.335902505820172L58.53666734375,30.02538864542555L58.639916875,30.018234385217596L58.810060468749995,29.73948748229097L58.954028125,29.488615343278667L59.010742656249995,29.26283047780109L59.303040625,29.05962414717436L59.307403281250004,28.87673848873584L59.413561249999994,28.71214142783279L59.740760468750004,28.564004098690276L59.833830468749994,28.43068052325492L59.961801718749996,28.31068932220529L60.08831875,28.202697254902887L60.384979375,28.105504405380856L60.85760046874999,28.018030849761715L61.4349253125,27.939304656954477L61.558533906250005,27.868451089300493L61.59925203125,27.804682883168624L62.73354265625,27.7472915015029L62.74808484375,28.10410090480002L62.812070468749994,28.016767717150742L62.94876703125,27.938167852113168L63.0578334375,27.86742797669524L63.153811875,27.80376209134303L63.31813859375,28.01877053029645L63.50718703125,27.93997038955669L63.523183437499995,27.869050264940398L63.552267812500006,27.805222154445886L63.896917656250004,27.747776856345524L64.200849375,27.696076089144412L64.39716890625,27.649545399545673L64.40007734375,27.607667779621437L64.45533765625,27.569977922268492L64.8901490625,27.536057051119712L65.0326625,27.505528267465536L65.04429625,27.478052362484448L65.2973303125,27.453324048250664L65.34531953125,27.43106856564208L65.8092153125,27.683346333240706L66.0098975,27.63808862157626L66.62212359375,27.59735668134752L66.67302125,27.560697935359826L66.7806334375,27.52770506414754L67.336145,27.498011480199608L68.0545290625,27.471287254762387L68.05598328125001,27.44723545196277L68.57368515625001,27.42558882951917L68.58095625,27.406106869381546L69.0841159375,27.388573105307586L69.226629375,27.37279271768142L69.27752703125,27.358590368850628L69.5494659375,27.345808254929466L69.68179984375,27.33430435242184L70.44090203125,27.32395084018242L70.593595,27.314632679181017L71.21454640625,27.30624633429116L71.25235609375001,27.298698623899554L71.34833453125,27.291905684554592L71.55047093750001,27.28579203915018L71.64063250000001,27.280289758291133L71.94311,27.275337705521963L71.9663775,27.270880858032967L72.146700625,27.26686969529544L72.4637203125,27.26325964883381L72.71966281249999,27.260010607020035L72.75747249999999,27.257086469389066L72.96542578125,27.25445474552228L73.18792124999999,27.252086194043073L73.39587453125,27.249954497712537L73.60237359375,27.24803597101564L73.73907015625001,27.246309296988954L73.75942921875,27.244755290365276L74.75702328125,27.243356684404347L74.810829375,27.242097939039752L75.17874671875,27.24096506821178L75.44632296875,27.2399454844668L75.52775921875,27.239027859096467L75.62664609375,27.238201996263257L75.9218525,27.237458719713487L76.253414375,27.236789770818746L76.40901578124999,27.23618771681359L76.5762509375,27.235645868208934L76.72894390625001,27.235158204464767L76.92090078125,27.234719307095077L76.93253453125,27.2343242994624L77.12449140625,27.233968792593004L77.3382615625,27.233648836410538L77.62038,27.23336087584633L77.661098125,27.233101711338577L78.1468071875,27.23286846328159L78.1642578125,27.232658540030314L78.19188796875,27.232469609104186L78.2166096875,27.232299571270687L78.2951375,27.2321465372205L78.34894359375,27.23200880657535L78.40274968749999,27.231884848994753L78.58161859375001,27.23177328717219L79.05569390625,27.231672881531892L79.2927315625,27.231582516455603L79.40034375,27.23150118788695L79.66792,27.231427992175185L80.46774031250001,27.231362116034575L80.49827890625,27.231302827508046L80.53172593750001,27.231249467834147L80.685873125,27.231201444127635L80.8167528125,27.231158222791805L81.104688125,27.231119323589525L81.2181171875,27.23108431430748L81.3693559375,27.231052805953652L81.4915103125,27.231024448435193L81.79544203125,27.230998926668605L81.837614375,27.23097595707867L82.3524078125,27.23095528444773L82.396034375,27.23093667907986L82.55309,27.23091993424879L82.67379015624999,27.23090486390086L82.756680625,27.230891300587672L83.18567515625,27.230879093605807L83.6030359375,27.230868107322152L84.00294609375,27.230858219666857L84.16581859375,27.23084932077711L84.98454375,27.230841311776288L85.00781124999999,27.230834103675562L85.39317921875,27.230827616384943L85.56768546875,27.230821777823365L85.7727303125,27.230816523117937L86.23080921875,27.230811793883078L86.82122203124999,27.23080753757168L86.9361053125,27.230803706891436L87.07716453125,27.230800259279192L87.1222453125,27.230797156428196L87.28366359375,27.230794363862287L87.68502796875,27.230791850553004L87.98168859375001,27.230789588574623L88.21872624999999,27.230787552794084L88.224543125,27.230785720591598L88.27253234375,27.23078407160935L88.30161671875,27.23078258752534L88.40777468750001,27.23078125184972L88.76696671875,27.230780049741668L89.06362734375001,27.23077896784443L89.10289125000001,27.23077799413693L89.2046865625,27.23077711780013L89.492621875,27.23077632909701L89.515889375,27.23077561926428L90.35788203125,27.230774980414736L90.81741515625001,27.230774405450177L90.84359109374999,27.23077388798208L91.14897703125,27.230773422260796L92.37052078125001,27.230773003111636L92.49994625,27.23077262587742L92.54648125,27.2307722863666L92.651185,27.230771980806878L92.69044890625,27.230771705803107L92.69626578125,27.2307714582997L92.78788156249999,27.230771235546655L93.06127468749999,27.230771035068898L93.1776121875,27.230770854638934L93.36229796875,27.23077069225195L93.3724775,27.230770546103685L93.436463125,27.23077041457023L93.51353671875,27.230770296190116L94.25809671875,27.230770189648013L94.47332109374999,27.230770093760157L94.97648078124999,27.230770007461075L95.06664234375,27.230769929791876L95.262961875,27.23076985988959L95.48254890625,27.23076979697757L96.44233328124999,27.23076974035672L96.46560078125,27.230769689397988L96.58048406249999,27.230769643535098L96.70554687500001,27.230769602258505L97.8718303125,27.23076956510957L98.2848284375,27.23076953167555L98.36190203125001,27.230769501584888L98.40698281249999,27.230769474503347L98.4593346875,27.230769450129912L98.51604921875,27.230769428193838L98.71673140625,27.23076940845138L98.811255625,27.23076939068315L98.84470265625,27.23076937469176L98.99884984375,27.23076936029952L99.1515428125,27.230769347346467L99.218436875,27.230769335688734L99.64743140625,27.230769325196803L100.73809546874999,27.23076931575403L100.85297875,27.230769307255542L101.03621031249999,27.23076929960692L101.80549203125,27.230769292723153L101.87820296875,27.23076928652776L102.0134453125,27.230769280951904L102.0367128125,27.230769275933625L102.08033937500001,27.230769271417188L102.18649734375,27.2307692673524L102.71147031250001,27.23076926369407L102.987771875,27.230769260401587L103.220446875,27.230769257438368L103.44585078125,27.230769254771445L103.58109312500001,27.230769252371232L104.41145203125001,27.23076925021104L104.63831015625,27.230769248266853L104.7066584375,27.23076924651707L105.12983609375,27.23076924494231L105.21854343749999,27.230769243524975L105.44685578125001,27.23076924224941L105.69698140625,27.2307692411014L106.02272640625,27.230769240068156L106.070715625,27.230769239138226L106.29321109374999,27.23076923830135L106.315024375,27.230769237548145L106.83999734375,27.23076923687026L107.18610140625,27.23076923626013L107.1962809375,27.23076923571108L107.20209781249999,27.230769235216883L107.2079146875,27.23076923477211L107.41295953125,27.23076923437179L107.47694515625,27.230769234011547L107.71834546875,27.23076923368731L107.792510625,27.230769233395478L107.9641084375,27.23076923313286L108.61850687500001,27.230769232896478L108.78719625,27.23076923268377L108.97624468750001,27.230769232492293L109.04168453125,27.23076923232L109.3485246875,27.230769232164903L109.502671875,27.230769232025324L109.85750125,27.2307692318997L109.869135,27.230769231786667L110.10471843750001,27.230769231684917L110.18179203125,27.230769231593342L111.0121509375,27.23076923151092L111.259368125,27.230769231436767L111.2797271875,27.230769231370004L111.40624421875,27.23076923130992L111.666549375,27.230769231255863L111.71453859374999,27.230769231207205L111.97484375,27.23076923116338L112.41110937500001,27.230769231123958L112.4198346875,27.230769231088487L112.68013984375001,27.23076923105654L113.08150421875,27.230769231027807L113.85951125,27.23076923100197L114.07037296875001,27.230769230978666L114.23906234374999,27.23076923095772L114.3626709375,27.230769230938876L114.4761,27.230769230921908L114.51536390625,27.230769230906645L114.540085625,27.230769230892918L115.26864921875,27.230769230880526L115.33699750000001,27.230769230869413L115.51295796875,27.23076923085938L115.81543546875,27.23076923085037L115.85906203125,27.23076923084224L116.59925937499999,27.230769230834937L116.60798468750001,27.230769230828372L116.6399775,27.23076923082246L116.7708571875,27.230769230817117L117.029708125,27.230769230812314L118.0912878125,27.230769230807994L118.19453734375,27.2307692308041L118.43012078125,27.230769230800632L118.56972578125,27.230769230797478L118.78204171875001,27.230769230794692L119.449528125,27.230769230792134L119.565865625,27.230769230789832L119.99776859375,27.230769230787757L120.042849375,27.23076923078591L120.51837890624999,27.230769230784233L120.73651171875001,27.230769230782727L121.02153859375,27.230769230781362L121.3254703125,27.23076923078017L121.4476246875,27.23076923077906L121.67739125,27.230769230778066L121.95950968749999,27.230769230777184L122.13837859375,27.23076923077639L122.29834265625,27.230769230775678L122.4830284375,27.230769230775024L122.898935,27.230769230774456L122.91347718749999,27.230769230773916L123.1548775,27.23076923077349L123.4486296875,27.230769230773035L123.9663315625,27.230769230772665L124.03467984375,27.230769230772296L124.26444640625,27.23076923077201L124.30952718750001,27.230769230771728L124.4840334375,27.23076923077147L124.54511062499999,27.230769230771244L124.6410890625,27.230769230771017L125.13552343750001,27.230769230770875L125.49762390625,27.230769230770676L126.208736875,27.230769230770534L126.44286609375,27.23076923077039L126.48358421875001,27.230769230770278L126.5490240625,27.230769230770164L127.15834171875001,27.23076923077005L128.35516375,27.230769230769965L128.3813396875,27.23076923076991L128.52239890625,27.230769230769823L128.5965640625,27.230769230769766L128.83069328125,27.23076923076971L129.3236734375,27.230769230769653L129.40947234375,27.230769230769624L129.675594375,27.230769230769596L129.6959534375,27.23076923076954L130.0885925,27.23076923076951L130.11913109374998,27.230769230769482L130.47250625,27.230769230769454L130.58738953124998,27.230769230769425L130.75753312499998,27.230769230769397L131.55299078125,27.230769230769397L131.72458859375,27.23076923076937L131.83510921875,27.23076923076934L132.211751875,27.23076923076934L132.32954359375,27.23076923076931L132.95776609375,27.230769230769283L133.14099765625,27.230769230769283L133.17880734375,27.230769230769283L133.34749671875,27.230769230769283L133.57144640625,27.230769230769283L133.65288265625,27.230769230769283L133.7270478125,27.230769230769283L133.75904062499998,27.230769230769283L133.80702984375,27.230769230769283L133.8433853125,27.230769230769283L134.22148218750002,27.230769230769283L134.224390625,27.230769230769283L134.3727209375,27.230769230769283L134.37708359375,27.230769230769283L134.60103328125,27.230769230769283L134.840979375,27.230769230769283L135.0591121875,27.230769230769283L135.25688593750002,27.230769230769283L135.504103125,27.230769230769283L135.70623953125,27.230769230769283L136.3911765625,27.230769230769283L136.39844765625,27.230769230769283L136.4667959375,27.230769230769283L136.55404906249998,27.230769230769283L136.58749609375,27.230769230769283L136.969955625,27.230769230769283L138.0082678125,27.230769230769283L138.400906875,27.230769230769283L138.8342640625,27.230769230769283L138.86043999999998,27.230769230769283L138.9767775,27.230769230769283L139.50175046875,27.230769230769283L139.750421875,27.230769230769283L139.92347390625,27.230769230769283L140.23322249999998,27.230769230769283L140.30738765625,27.230769230769283L140.51679515625,27.230769230769283L140.5851434375,27.230769230769283L140.75528703125002,27.230769230769283L140.92397640625,27.230769230769283L140.9341559375,27.230769230769283L141.34860828125,27.230769230769283L141.83140890625,27.230769230769283L142.3709240625,27.230769230769283L142.71121125,27.230769230769283L142.81736921875,27.230769230769283L142.9002596875,27.230769230769283L143.64191125,27.230769230769283L143.740798125,27.230769230769283L143.85277296875,27.230769230769283L143.87313203124998,27.230769230769283L143.9298465625,27.230769230769283L143.9763815625,27.230769230769283L144.57697390625,27.230769230769283L144.8372790625,27.230769230769283L145.38697375,27.230769230769283L145.46841,27.230769230769283L145.474226875,27.230769230769283L145.56875109375,27.230769230769283L145.6632753125,27.230769230769283L145.99047453125002,27.230769230769283L146.01374203125,27.230769230769283L146.22314953125,27.230769230769283L146.26095921875,27.230769230769283L146.31476531250001,27.230769230769283L146.87173109375001,27.230769230769283L146.89936125,27.230769230769283L147.0476915625,27.230769230769283L147.43160531249998,27.230769230769283L147.59593203125002,27.230769230769283L147.6468296875,27.230769230769283L148.26196421875,27.230769230769283L149.40207171875,27.230769230769283L149.45151515625,27.230769230769283L149.5663984375,27.230769230769283L149.89505187499998,27.230769230769283L149.97067125,27.230769230769283L150.174261875,27.230769230769283L150.52763703125,27.230769230769283L150.89410015625,27.230769230769283L151.128229375,27.230769230769283L151.4801503125,27.230769230769283L151.52668531249998,27.230769230769283L151.8349796875,27.230769230769283L152.1141896875,27.230769230769283L152.23779828125,27.230769230769283L152.42975515625,27.230769230769283L152.72350734375001,27.230769230769283L152.77004234375,27.230769230769283L152.8238484375,27.230769230769283L152.94018593750002,27.230769230769283L153.15977296875,27.230769230769283L153.43316609375,27.230769230769283L153.478246875,27.230769230769283L153.52623609375001,27.230769230769283L153.69201703125,27.230769230769283L153.7836328125,27.230769230769283L154.16900078125,27.230769230769283L155.28293234375,27.230769230769283L155.30183718749998,27.230769230769283L155.40654093749998,27.230769230769283L155.61449421875,27.230769230769283L156.1743684375,27.230769230769283L156.25725890625,27.230769230769283L156.41140609374997,27.230769230769283L156.5059303125,27.230769230769283L156.57137015625,27.230769230769283L156.8084078125,27.230769230769283L157.2563071875,27.230769230769283L158.03722265625,27.230769230769283L158.2422675,27.230769230769283L158.89230328125,27.230769230769283L159.015911875,27.230769230769283L159.039179375,27.230769230769283L159.59469093750002,27.230769230769283L159.61941265625,27.230769230769283L159.80846109375,27.230769230769283L159.9262528125,27.230769230769283L160.016414375,27.230769230769283L160.3101665625,27.230769230769283L160.61991515625002,27.230769230769283L161.52734765625,27.230769230769283L161.55643203125,27.230769230769283L161.85600109375,27.230769230769283L162.32716796875,27.230769230769283L162.35625234375,27.230769230769283L162.360615,27.230769230769283L162.48422359375,27.230769230769283L162.48858625,27.230769230769283L163.01065078124998,27.230769230769283L163.04846046875,27.230769230769283L163.9340796875,27.230769230769283L164.01987859375,27.230769230769283L164.51140453125,27.230769230769283L164.65246374999998,27.230769230769283L165.01310999999998,27.230769230769283L165.63842406249998,27.230769230769283L166.33499484375,27.230769230769283L166.56185296875,27.230769230769283L166.92249921875,27.230769230769283L167.078100625,27.230769230769283L167.31950093749998,27.230769230769283L167.50418671875,27.230769230769283L167.7034146875,27.230769230769283L167.7848509375,27.230769230769283L167.8313859375,27.230769230769283L167.93463546874997,27.230769230769283L168.48723859375,27.230769230769283L168.6166640625,27.230769230769283L168.65011109374998,27.230769230769283L169.12854906249999,27.230769230769283L169.46883624999998,27.230769230769283L169.56336046875,27.230769230769283L170.17122390625002,27.230769230769283L170.37190609375,27.230769230769283L170.47370140625,27.230769230769283L170.57549671875,27.230769230769283L170.75000296874998,27.230769230769283L170.81398859375,27.230769230769283L171.01176234375,27.230769230769283L171.22407828125,27.230769230769283L171.30260609375,27.230769230769283L171.41894359375001,27.230769230769283L171.57890765625,27.230769230769283L171.801403125,27.230769230769283L171.90756109375,27.230769230769283L172.18677109375,27.230769230769283L172.28856640625,27.230769230769283L172.35982312500002,27.230769230769283L173.13346750000002,27.230769230769283L173.78932015625,27.230769230769283L173.94346734375,27.230769230769283L173.94637578125,27.230769230769283L174.33901484375,27.230769230769283L174.92070234375,27.230769230769283L175.33079203125,27.230769230769283L175.3642390625,27.230769230769283L175.5998225,27.230769230769283L175.75542390625,27.230769230769283L175.84122281249998,27.230769230769283L175.95756031250002,27.230769230769283L176.06662671875,27.230769230769283L176.187326875,27.230769230769283L176.30221015625,27.230769230769283L176.44908625,27.230769230769283L176.478170625,27.230769230769283L176.58869125,27.230769230769283L176.67158171875,27.230769230769283L176.68757812500002,27.230769230769283L177.30416687500002,27.230769230769283L177.33325125000002,27.230769230769283L177.862586875,27.230769230769283L178.15633906250002,27.230769230769283L178.2028740625,27.230769230769283L178.281401875,27.230769230769283L178.4122815625,27.230769230769283L178.69585421875,27.230769230769283L178.740935,27.230769230769283L178.82091703125002,27.230769230769283L178.87181468749998,27.230769230769283L178.88635687500002,27.230769230769283L179.16992953125,27.230769230769283L179.54220953125,27.230769230769283L179.62219156249998,27.230769230769283L180.24750562499997,27.230769230769283L180.72594359375,27.230769230769283L180.81028828125,27.230769230769283L181.34834921875,27.230769230769283L181.49958796874998,27.230769230769283L181.51994703124998,27.230769230769283L181.54757718750002,27.230769230769283L181.60720015625,27.230769230769283L181.62755921874998,27.230769230769283L181.6493725,27.230769230769283L181.66827734375,27.230769230769283L181.724991875,27.230769230769283L181.9140403125,27.230769230769283L182.1641659375,27.230769230769283L182.40992890625,27.230769230769283L182.66587140625,27.230769230769283L182.79965953125,27.230769230769283L182.90436328125,27.230769230769283L182.92472234375,27.230769230769283L183.53840265625,27.230769230769283L183.621293125,27.230769230769283L183.80016203125,27.230769230769283L184.05610453125,27.230769230769283L184.20152640625,27.230769230769283L184.35131093750002,27.230769230769283L184.83702,27.230769230769283L185.79825859375,27.230769230769283L185.85642734375,27.230769230769283L185.90441656250002,27.230769230769283L186.17199281249998,27.230769230769283L186.7943984375,27.230769230769283L186.99362640625,27.230769230769283L187.94759390625,27.230769230769283L187.94904812500002,27.230769230769283L188.0333928125,27.230769230769283L188.3242365625,27.230769230769283L188.43911984374998,27.230769230769283L188.79104078125,27.230769230769283L189.1415075,27.230769230769283L189.32764749999998,27.230769230769283L189.37563671874997,27.230769230769283L189.65775515625,27.230769230769283L189.74500828125,27.230769230769283L189.90206390625002,27.230769230769283L189.95441578125,27.230769230769283L189.98204593749998,27.230769230769283L190.1216509375,27.230769230769283L190.78622890625,27.230769230769283L190.845851875,27.230769230769283L190.973823125,27.230769230769283L191.2966596875,27.230769230769283L191.51915515625,27.230769230769283L191.7940025,27.230769230769283L191.83472062500002,27.230769230769283L192.64181203125,27.230769230769283L192.92393046875003,27.230769230769283L192.980645,27.230769230769283L193.27003453125,27.230769230769283L193.88080640624997,27.230769230769283L194.26908281250002,27.230769230769283L194.4901240625,27.230769230769283L194.83768234375,27.230769230769283L195.29139859375,27.230769230769283L195.534253125,27.230769230769283L195.545886875,27.230769230769283L196.05922609375,27.230769230769283L196.46059046875,27.230769230769283L196.5376640625,27.230769230769283L197.05682015625,27.230769230769283L197.07427078125,27.230769230769283L197.4334628125,27.230769230769283L197.44364234375,27.230769230769283L197.59778953125,27.230769230769283L197.83191875,27.230769230769283L197.9627984375,27.230769230769283L198.43396531250002,27.230769230769283L198.7538934375,27.230769230769283L198.80915374999998,27.230769230769283L198.85859718749998,27.230769230769283L198.9138575,27.230769230769283L198.97057203125001,27.230769230769283L199.13926140625003,27.230769230769283L199.25269046875002,27.230769230769283L199.27304953125,27.230769230769283L199.29777124999998,27.230769230769283L199.45482687499998,27.230769230769283L200.152851875,27.230769230769283L200.42915343750002,27.230769230769283L200.5978428125,27.230769230769283L200.91777093750002,27.230769230769283L200.95994328125,27.230769230769283L201.630338125,27.230769230769283L202.00407234374998,27.230769230769283L202.0462446875,27.230769230769283L202.13495203125,27.230769230769283L202.57703453125,27.230769230769283L202.82134328125,27.230769230769283L203.561540625,27.230769230769283L204.015256875,27.230769230769283L204.83398203125,27.230769230769283L205.32550796874997,27.230769230769283L205.3269621875,27.230769230769283L205.52909859375,27.230769230769283L205.57272515625,27.230769230769283L205.632348125,27.230769230769283L205.8010375,27.230769230769283L206.260570625,27.230769230769283L206.3216478125,27.230769230769283L206.79863156250002,27.230769230769283L206.84371234374998,27.230769230769283L207.26979843750001,27.230769230769283L207.40504078125002,27.230769230769283L207.42249140625,27.230769230769283L207.575184375,27.230769230769283L208.05362234375,27.230769230769283L208.8403546875,27.230769230769283L208.8752559375,27.230769230769283L208.92324515624998,27.230769230769283L209.55873875,27.230769230769283L209.65471718749998,27.230769230769283L209.6954353125,27.230769230769283L210.18259859375,27.230769230769283L210.51416046875002,27.230769230769283L210.518523125,27.230769230769283L210.53451953125003,27.230769230769283L210.59850515625,27.230769230769283L210.92570437499998,27.230769230769283L211.28489640625,27.230769230769283L212.96306484375,27.230769230769283L213.31644,27.230769230769283L213.67708625,27.230769230769283L213.75415984375,27.230769230769283L213.9126696875,27.230769230769283L214.10608078125,27.230769230769283L214.37365703125002,27.230769230769283L214.55979703125,27.230769230769283L214.636870625,27.230769230769283L214.6979478125,27.230769230769283L214.85645765625,27.230769230769283L214.8666371875,27.230769230769283L214.91317218749998,27.230769230769283L214.95970718750002,27.230769230769283L215.04841453125002,27.230769230769283L215.07459046875,27.230769230769283L215.38870171875,27.230769230769283L215.66791171875,27.230769230769283L215.81915046875,27.230769230769283L215.90931203124998,27.230769230769283L216.16234609375002,27.230769230769283L216.46482359375,27.230769230769283L216.89236390625,27.230769230769283L216.95053265625,27.230769230769283L217.14248953125,27.230769230769283L217.27046078125,27.230769230769283L217.28791140624998,27.230769230769283L217.29954515625,27.230769230769283L217.41006578125,27.230769230769283L217.4725971875,27.230769230769283L217.65728296875,27.230769230769283L218.0252003125,27.230769230769283L218.23751625,27.230769230769283L218.3742128125,27.230769230769283L218.59379984375,27.230769230769283L219.15658249999998,27.230769230769283L219.48087328124998,27.230769230769283L219.56812640625,27.230769230769283L220.302506875,27.230769230769283L220.31850328125,27.230769230769283L220.57735421875,27.230769230769283L220.61080124999998,27.230769230769283L220.65588203125,27.230769230769283L220.86238109375,27.230769230769283L220.88274015625,27.230769230769283L222.02575609375,27.230769230769283L222.37476859375,27.230769230769283L222.39803609375002,27.230769230769283L222.79649203125,27.230769230769283L222.95936453125,27.230769230769283L223.21821546875,27.230769230769283L223.26475046875,27.230769230769283L223.36945421875,27.230769230769283L223.74755109375002,27.230769230769283L223.96132125,27.230769230769283L224.49792796875002,27.230769230769283L224.5168328125,27.230769230769283L224.64044140625,27.230769230769283L225.1566890625,27.230769230769283L225.19013609375,27.230769230769283L225.1974071875,27.230769230769283L225.2264915625,27.230769230769283L225.38063875,27.230769230769283L226.299705,27.230769230769283L226.67343921875,27.230769230769283L227.1635109375,27.230769230769283L227.26676046875,27.230769230769283L227.38018953125,27.230769230769283L227.8382684375,27.230769230769283L227.84553953124998,27.230769230769283L227.8673528125,27.230769230769283L228.34724500000002,27.230769230769283L228.39378,27.230769230769283L228.68026109375,27.230769230769283L229.01473140625,27.230769230769283L229.1354315625,27.230769230769283L229.16306171875,27.230769230769283L229.31284625,27.230769230769283L229.39573671875002,27.230769230769283L229.71857328124997,27.230769230769283L229.99487484374998,27.230769230769283L230.41368984374998,27.230769230769283L230.45440796875,27.230769230769283L230.57947078125,27.230769230769283L231.133528125,27.230769230769283L231.1655209375,27.230769230769283L231.59742390625,27.230769230769283L231.808285625,27.230769230769283L231.8751796875,27.230769230769283L232.64009875000002,27.230769230769283L232.69826750000001,27.230769230769283L232.70990125,27.230769230769283L232.7418940625,27.230769230769283L232.75643625,27.230769230769283L232.866956875,27.230769230769283L232.9164003125,27.230769230769283L233.04291734375,27.230769230769283L233.087998125,27.230769230769283L233.76711828125,27.230769230769283L234.024515,27.230769230769283L234.11467656250002,27.230769230769283L234.45350953125,27.230769230769283L234.46223484375,27.230769230769283L235.3711215625,27.230769230769283L235.4234734375,27.230769230769283L235.56453265624998,27.230769230769283L235.86991859375,27.230769230769283L235.8713728125,27.230769230769283L236.30618421875,27.230769230769283L236.67701000000002,27.230769230769283L236.88205484375,27.230769230769283L237.30959515625,27.230769230769283L237.53645328125,27.230769230769283L237.7444065625,27.230769230769283L237.86946937500002,27.230769230769283L237.8840115625,27.230769230769283L238.08905640625,27.230769230769283L238.15449625,27.230769230769283L238.19085171875003,27.230769230769283L238.37408328125,27.230769230769283L238.47587859375,27.230769230769283L238.7216415625,27.230769230769283L238.82198265625,27.230769230769283L238.9077815625,27.230769230769283L239.08083359375001,27.230769230769283L239.26115671875,27.230769230769283L240.35472921874998,27.230769230769283L240.83752984375002,27.230769230769283L240.85352625,27.230769230769283L240.9814975,27.230769230769283L241.03821203125,27.230769230769283L241.097835,27.230769230769283L241.85548296875,27.230769230769283L241.982,27.230769230769283L242.41390296875002,27.230769230769283L243.28643421875,27.230769230769283L243.37368734375,27.230769230769283L243.38822953125,27.230769230769283L243.570006875,27.230769230769283L244.40182,27.230769230769283L244.58505156249998,27.230769230769283L244.72901921875,27.230769230769283L244.92679296875,27.230769230769283L245.10420765625,27.230769230769283L245.18855234375002,27.230769230769283L245.28889343749998,27.230769230769283L245.2947103125,27.230769230769283L245.44158640625,27.230769230769283L245.56664921875,27.230769230769283L245.58846250000002,27.230769230769283L246.40718765625002,27.230769230769283L246.571514375,27.230769230769283L246.757654375,27.230769230769283L246.77946765625,27.230769230769283L246.88126296874998,27.230769230769283L247.05286078125002,27.230769230769283L247.12702593749998,27.230769230769283L247.22736703125,27.230769230769283L247.23318390625,27.230769230769283L247.9995571875,27.230769230769283L248.02718734375,27.230769230769283L248.14352484375,27.230769230769283L248.32093953125,27.230769230769283L248.47363249999998,27.230769230769283L248.73393765625,27.230769230769283L248.75429671875,27.230769230769283L248.80664859375,27.230769230769283L248.8662715625,27.230769230769283L249.002968125,27.230769230769283L249.07422484375,27.230769230769283L249.09749234375002,27.230769230769283L249.21528406250002,27.230769230769283L249.33598421874999,27.230769230769283L249.46250125,27.230769230769283L249.4886771875,27.230769230769283L249.68499671875003,27.230769230769283L249.88277046874998,27.230769230769283L250.445553125,27.230769230769283L250.49935921875,27.230769230769283L250.887635625,27.230769230769283L251.1872046875,27.230769230769283L251.24101078125,27.230769230769283L252.38984359375002,27.230769230769283L252.48727625,27.230769230769283L252.57598359375,27.230769230769283L252.7228596875,27.230769230769283L253.09950234375,27.230769230769283L253.19257234375002,27.230769230769283L253.7931646875,27.230769230769283L254.00111796875,27.230769230769283L254.47228484375,27.230769230769283L254.7645828125,27.230769230769283L254.878011875,27.230769230769283L254.89109984375,27.230769230769283L255.33899921875,27.230769230769283L255.53677296875,27.230769230769283L255.55858625000002,27.230769230769283L255.90178187499998,27.230769230769283L255.9919434375,27.230769230769283L256.3933078125,27.230769230769283L256.51400796875,27.230769230769283L256.89210484374996,27.230769230769283L257.14513890625,27.230769230769283L257.251296875,27.230769230769283L257.286198125,27.230769230769283L257.3530921875,27.230769230769283L257.4636128125,27.230769230769283L257.49124296875,27.230769230769283L257.58722140624997,27.230769230769283L257.821350625,27.230769230769283L257.95368453125,27.230769230769283L258.02348703125,27.230769230769283L258.30415125,27.230769230769283L258.5746359375,27.230769230769283L258.74623375,27.230769230769283L258.810219375,27.230769230769283L258.845120625,27.230769230769283L258.9120146875,27.230769230769283L259.62312765625,27.230769230769283L259.8281725,27.230769230769283L259.86743640625,27.230769230769283L260.09429453125,27.230769230769283L260.28334296875,27.230769230769283L260.51456375,27.230769230769283L260.89993171875,27.230769230769283L261.06571265625,27.230769230769283L261.0817090625,27.230769230769283L261.439446875,27.230769230769283L261.485981875,27.230769230769283L261.60959046875,27.230769230769283" style="fill: none;" fill="none"></path></g></g></g></g><g opacity="0.2"><g><g><g><path stroke="rgb(255, 112, 67)" stroke-width="2px" d="M29.14690640625,162.02307692307693L29.32868375,162.02307692307693L29.4188453125,162.02307692307693L29.775128906249996,162.02307692307693L29.86529046875,162.02307692307693L29.927821875000003,162.02307692307693L29.93800140625,162.02307692307693L30.00780390625,162.02307692307693L30.02670875,162.02307692307693L30.12414140625,151.13076923076923L30.26083796875,151.13076923076923L30.56040703125,159.3L31.0243028125,148.40769230769232L31.0999221875,148.40769230769232L31.110101718750002,148.40769230769232L31.17408734375,145.68461538461537L31.60744453125,140.23846153846154L31.6118071875,140.23846153846154L31.8153978125,140.23846153846154L31.873566562500002,145.68461538461537L32.046618593750004,145.68461538461537L32.440711875,144.3230769230769L32.559957812499995,136.15384615384616L32.6995628125,149.76923076923077L32.70101703125,149.76923076923077L32.9904065625,149.76923076923077L33.503745781250004,144.3230769230769L33.782955781249996,148.40769230769232L33.80622328125,148.40769230769232L33.8920221875,148.40769230769232L34.34719265625,129.34615384615384L34.35010109375,129.34615384615384L34.422812031250004,129.34615384615384L34.6423990625,145.68461538461537L34.83871859375,145.68461538461537L35.3636915625,142.96153846153845L35.484391718750004,142.96153846153845L35.61817984375,151.13076923076923L35.6429015625,151.13076923076923L35.88575609375,151.13076923076923L36.314750625,141.6L36.551788281250005,144.3230769230769L36.8586284375,123.9L36.8789875,123.9L37.408323125,111.64615384615384L37.61336796875,133.43076923076922L37.675899375,133.43076923076922L37.796599531249996,118.45384615384616L38.10198546875,123.9L38.129615625,123.9L38.827640625,133.43076923076922L38.84509125,133.43076923076922L39.05304453125,107.56153846153846L39.21591703125,130.7076923076923L39.490764375000005,108.92307692307692L39.93430109375,119.8153846153846L39.938663749999996,129.34615384615384L40.42582703125,121.17692307692309L40.476724687499996,96.66923076923077L40.81555765624999,99.3923076923077L40.98133859375,103.47692307692307L41.0409615625,87.13846153846154L41.44378015625,117.09230769230768L41.45832234375,100.75384615384615L41.99638328125,122.53846153846153L42.07927375,89.86153846153846L42.55189484375,92.58461538461538L42.85437234375,74.88461538461539L42.97943515625,121.17692307692309L42.99834,106.2L43.188842656249996,92.58461538461538L44.20825,85.77692307692308L44.3245875,106.2L44.38711890625,88.5L44.5107275,87.13846153846154L44.762307343749995,99.3923076923077L44.93972203125001,98.03076923076922L44.9440846875,85.77692307692308L45.03279203125,85.77692307692308L45.111319843749996,81.6923076923077L45.23056578124999,95.3076923076923L45.85587984375,89.86153846153846L45.90532328125,74.88461538461539L46.07837531249999,133.43076923076922L46.185987499999996,80.33076923076923L46.491373437499995,63.992307692307705L46.498644531249994,63.992307692307705L46.774946093749996,43.569230769230785L46.958177656249994,57.184615384615384L47.8118040625,40.84615384615384L48.04011640625,35.400000000000006L48.07938031250001,57.184615384615384L48.8588415625,34.03846153846155L48.89228859375,69.43846153846155L49.168590156250005,47.65384615384616L49.7662740625,31.996153846153845L49.87243203125,29.953846153846143L49.93641765624999,29.953846153846143L50.094927500000004,29.953846153846143L50.37268328125,36.761538461538464L50.41630984375,40.84615384615384L50.577728125,42.88846153846154L50.7144246875,33.357692307692304L51.5869559375,27.230769230769226L52.010133593750005,27.230769230769226L52.52201859375,27.230769230769226L52.8201334375,27.230769230769226L53.5995946875,27.230769230769226L53.90352640625,27.230769230769226L53.948607187499995,27.230769230769226L54.2685353125,42.20769230769233L54.300528125,27.230769230769226L54.59718875,29.953846153846143L54.61754781250001,29.953846153846143L55.917619374999994,27.230769230769226L56.884674843750005,27.230769230769226L56.9617484375,27.230769230769226L57.488175625000004,27.230769230769226L57.64668546875,27.230769230769226L57.66704453125,27.230769230769226L57.779019375000004,27.230769230769226L58.162933124999995,27.230769230769226L58.2472778125,27.230769230769226L58.260365781249995,32.67692307692309L58.525033593749995,27.230769230769226L58.53666734375,27.230769230769226L58.639916875,29.953846153846143L58.810060468749995,27.230769230769226L58.954028125,27.230769230769226L59.010742656249995,27.230769230769226L59.303040625,27.230769230769226L59.307403281250004,27.230769230769226L59.413561249999994,27.230769230769226L59.740760468750004,27.230769230769226L59.833830468749994,27.230769230769226L59.961801718749996,27.230769230769226L60.08831875,27.230769230769226L60.384979375,27.230769230769226L60.85760046874999,27.230769230769226L61.4349253125,27.230769230769226L61.558533906250005,27.230769230769226L61.59925203125,27.230769230769226L62.73354265625,27.230769230769226L62.74808484375,31.31538461538463L62.812070468749994,27.230769230769226L62.94876703125,27.230769230769226L63.0578334375,27.230769230769226L63.153811875,27.230769230769226L63.31813859375,29.953846153846143L63.50718703125,27.230769230769226L63.523183437499995,27.230769230769226L63.552267812500006,27.230769230769226L63.896917656250004,27.230769230769226L64.200849375,27.230769230769226L64.39716890625,27.230769230769226L64.40007734375,27.230769230769226L64.45533765625,27.230769230769226L64.8901490625,27.230769230769226L65.0326625,27.230769230769226L65.04429625,27.230769230769226L65.2973303125,27.230769230769226L65.34531953125,27.230769230769226L65.8092153125,29.953846153846143L66.0098975,27.230769230769226L66.62212359375,27.230769230769226L66.67302125,27.230769230769226L66.7806334375,27.230769230769226L67.336145,27.230769230769226L68.0545290625,27.230769230769226L68.05598328125001,27.230769230769226L68.57368515625001,27.230769230769226L68.58095625,27.230769230769226L69.0841159375,27.230769230769226L69.226629375,27.230769230769226L69.27752703125,27.230769230769226L69.5494659375,27.230769230769226L69.68179984375,27.230769230769226L70.44090203125,27.230769230769226L70.593595,27.230769230769226L71.21454640625,27.230769230769226L71.25235609375001,27.230769230769226L71.34833453125,27.230769230769226L71.55047093750001,27.230769230769226L71.64063250000001,27.230769230769226L71.94311,27.230769230769226L71.9663775,27.230769230769226L72.146700625,27.230769230769226L72.4637203125,27.230769230769226L72.71966281249999,27.230769230769226L72.75747249999999,27.230769230769226L72.96542578125,27.230769230769226L73.18792124999999,27.230769230769226L73.39587453125,27.230769230769226L73.60237359375,27.230769230769226L73.73907015625001,27.230769230769226L73.75942921875,27.230769230769226L74.75702328125,27.230769230769226L74.810829375,27.230769230769226L75.17874671875,27.230769230769226L75.44632296875,27.230769230769226L75.52775921875,27.230769230769226L75.62664609375,27.230769230769226L75.9218525,27.230769230769226L76.253414375,27.230769230769226L76.40901578124999,27.230769230769226L76.5762509375,27.230769230769226L76.72894390625001,27.230769230769226L76.92090078125,27.230769230769226L76.93253453125,27.230769230769226L77.12449140625,27.230769230769226L77.3382615625,27.230769230769226L77.62038,27.230769230769226L77.661098125,27.230769230769226L78.1468071875,27.230769230769226L78.1642578125,27.230769230769226L78.19188796875,27.230769230769226L78.2166096875,27.230769230769226L78.2951375,27.230769230769226L78.34894359375,27.230769230769226L78.40274968749999,27.230769230769226L78.58161859375001,27.230769230769226L79.05569390625,27.230769230769226L79.2927315625,27.230769230769226L79.40034375,27.230769230769226L79.66792,27.230769230769226L80.46774031250001,27.230769230769226L80.49827890625,27.230769230769226L80.53172593750001,27.230769230769226L80.685873125,27.230769230769226L80.8167528125,27.230769230769226L81.104688125,27.230769230769226L81.2181171875,27.230769230769226L81.3693559375,27.230769230769226L81.4915103125,27.230769230769226L81.79544203125,27.230769230769226L81.837614375,27.230769230769226L82.3524078125,27.230769230769226L82.396034375,27.230769230769226L82.55309,27.230769230769226L82.67379015624999,27.230769230769226L82.756680625,27.230769230769226L83.18567515625,27.230769230769226L83.6030359375,27.230769230769226L84.00294609375,27.230769230769226L84.16581859375,27.230769230769226L84.98454375,27.230769230769226L85.00781124999999,27.230769230769226L85.39317921875,27.230769230769226L85.56768546875,27.230769230769226L85.7727303125,27.230769230769226L86.23080921875,27.230769230769226L86.82122203124999,27.230769230769226L86.9361053125,27.230769230769226L87.07716453125,27.230769230769226L87.1222453125,27.230769230769226L87.28366359375,27.230769230769226L87.68502796875,27.230769230769226L87.98168859375001,27.230769230769226L88.21872624999999,27.230769230769226L88.224543125,27.230769230769226L88.27253234375,27.230769230769226L88.30161671875,27.230769230769226L88.40777468750001,27.230769230769226L88.76696671875,27.230769230769226L89.06362734375001,27.230769230769226L89.10289125000001,27.230769230769226L89.2046865625,27.230769230769226L89.492621875,27.230769230769226L89.515889375,27.230769230769226L90.35788203125,27.230769230769226L90.81741515625001,27.230769230769226L90.84359109374999,27.230769230769226L91.14897703125,27.230769230769226L92.37052078125001,27.230769230769226L92.49994625,27.230769230769226L92.54648125,27.230769230769226L92.651185,27.230769230769226L92.69044890625,27.230769230769226L92.69626578125,27.230769230769226L92.78788156249999,27.230769230769226L93.06127468749999,27.230769230769226L93.1776121875,27.230769230769226L93.36229796875,27.230769230769226L93.3724775,27.230769230769226L93.436463125,27.230769230769226L93.51353671875,27.230769230769226L94.25809671875,27.230769230769226L94.47332109374999,27.230769230769226L94.97648078124999,27.230769230769226L95.06664234375,27.230769230769226L95.262961875,27.230769230769226L95.48254890625,27.230769230769226L96.44233328124999,27.230769230769226L96.46560078125,27.230769230769226L96.58048406249999,27.230769230769226L96.70554687500001,27.230769230769226L97.8718303125,27.230769230769226L98.2848284375,27.230769230769226L98.36190203125001,27.230769230769226L98.40698281249999,27.230769230769226L98.4593346875,27.230769230769226L98.51604921875,27.230769230769226L98.71673140625,27.230769230769226L98.811255625,27.230769230769226L98.84470265625,27.230769230769226L98.99884984375,27.230769230769226L99.1515428125,27.230769230769226L99.218436875,27.230769230769226L99.64743140625,27.230769230769226L100.73809546874999,27.230769230769226L100.85297875,27.230769230769226L101.03621031249999,27.230769230769226L101.80549203125,27.230769230769226L101.87820296875,27.230769230769226L102.0134453125,27.230769230769226L102.0367128125,27.230769230769226L102.08033937500001,27.230769230769226L102.18649734375,27.230769230769226L102.71147031250001,27.230769230769226L102.987771875,27.230769230769226L103.220446875,27.230769230769226L103.44585078125,27.230769230769226L103.58109312500001,27.230769230769226L104.41145203125001,27.230769230769226L104.63831015625,27.230769230769226L104.7066584375,27.230769230769226L105.12983609375,27.230769230769226L105.21854343749999,27.230769230769226L105.44685578125001,27.230769230769226L105.69698140625,27.230769230769226L106.02272640625,27.230769230769226L106.070715625,27.230769230769226L106.29321109374999,27.230769230769226L106.315024375,27.230769230769226L106.83999734375,27.230769230769226L107.18610140625,27.230769230769226L107.1962809375,27.230769230769226L107.20209781249999,27.230769230769226L107.2079146875,27.230769230769226L107.41295953125,27.230769230769226L107.47694515625,27.230769230769226L107.71834546875,27.230769230769226L107.792510625,27.230769230769226L107.9641084375,27.230769230769226L108.61850687500001,27.230769230769226L108.78719625,27.230769230769226L108.97624468750001,27.230769230769226L109.04168453125,27.230769230769226L109.3485246875,27.230769230769226L109.502671875,27.230769230769226L109.85750125,27.230769230769226L109.869135,27.230769230769226L110.10471843750001,27.230769230769226L110.18179203125,27.230769230769226L111.0121509375,27.230769230769226L111.259368125,27.230769230769226L111.2797271875,27.230769230769226L111.40624421875,27.230769230769226L111.666549375,27.230769230769226L111.71453859374999,27.230769230769226L111.97484375,27.230769230769226L112.41110937500001,27.230769230769226L112.4198346875,27.230769230769226L112.68013984375001,27.230769230769226L113.08150421875,27.230769230769226L113.85951125,27.230769230769226L114.07037296875001,27.230769230769226L114.23906234374999,27.230769230769226L114.3626709375,27.230769230769226L114.4761,27.230769230769226L114.51536390625,27.230769230769226L114.540085625,27.230769230769226L115.26864921875,27.230769230769226L115.33699750000001,27.230769230769226L115.51295796875,27.230769230769226L115.81543546875,27.230769230769226L115.85906203125,27.230769230769226L116.59925937499999,27.230769230769226L116.60798468750001,27.230769230769226L116.6399775,27.230769230769226L116.7708571875,27.230769230769226L117.029708125,27.230769230769226L118.0912878125,27.230769230769226L118.19453734375,27.230769230769226L118.43012078125,27.230769230769226L118.56972578125,27.230769230769226L118.78204171875001,27.230769230769226L119.449528125,27.230769230769226L119.565865625,27.230769230769226L119.99776859375,27.230769230769226L120.042849375,27.230769230769226L120.51837890624999,27.230769230769226L120.73651171875001,27.230769230769226L121.02153859375,27.230769230769226L121.3254703125,27.230769230769226L121.4476246875,27.230769230769226L121.67739125,27.230769230769226L121.95950968749999,27.230769230769226L122.13837859375,27.230769230769226L122.29834265625,27.230769230769226L122.4830284375,27.230769230769226L122.898935,27.230769230769226L122.91347718749999,27.230769230769226L123.1548775,27.230769230769226L123.4486296875,27.230769230769226L123.9663315625,27.230769230769226L124.03467984375,27.230769230769226L124.26444640625,27.230769230769226L124.30952718750001,27.230769230769226L124.4840334375,27.230769230769226L124.54511062499999,27.230769230769226L124.6410890625,27.230769230769226L125.13552343750001,27.230769230769226L125.49762390625,27.230769230769226L126.208736875,27.230769230769226L126.44286609375,27.230769230769226L126.48358421875001,27.230769230769226L126.5490240625,27.230769230769226L127.15834171875001,27.230769230769226L128.35516375,27.230769230769226L128.3813396875,27.230769230769226L128.52239890625,27.230769230769226L128.5965640625,27.230769230769226L128.83069328125,27.230769230769226L129.3236734375,27.230769230769226L129.40947234375,27.230769230769226L129.675594375,27.230769230769226L129.6959534375,27.230769230769226L130.0885925,27.230769230769226L130.11913109374998,27.230769230769226L130.47250625,27.230769230769226L130.58738953124998,27.230769230769226L130.75753312499998,27.230769230769226L131.55299078125,27.230769230769226L131.72458859375,27.230769230769226L131.83510921875,27.230769230769226L132.211751875,27.230769230769226L132.32954359375,27.230769230769226L132.95776609375,27.230769230769226L133.14099765625,27.230769230769226L133.17880734375,27.230769230769226L133.34749671875,27.230769230769226L133.57144640625,27.230769230769226L133.65288265625,27.230769230769226L133.7270478125,27.230769230769226L133.75904062499998,27.230769230769226L133.80702984375,27.230769230769226L133.8433853125,27.230769230769226L134.22148218750002,27.230769230769226L134.224390625,27.230769230769226L134.3727209375,27.230769230769226L134.37708359375,27.230769230769226L134.60103328125,27.230769230769226L134.840979375,27.230769230769226L135.0591121875,27.230769230769226L135.25688593750002,27.230769230769226L135.504103125,27.230769230769226L135.70623953125,27.230769230769226L136.3911765625,27.230769230769226L136.39844765625,27.230769230769226L136.4667959375,27.230769230769226L136.55404906249998,27.230769230769226L136.58749609375,27.230769230769226L136.969955625,27.230769230769226L138.0082678125,27.230769230769226L138.400906875,27.230769230769226L138.8342640625,27.230769230769226L138.86043999999998,27.230769230769226L138.9767775,27.230769230769226L139.50175046875,27.230769230769226L139.750421875,27.230769230769226L139.92347390625,27.230769230769226L140.23322249999998,27.230769230769226L140.30738765625,27.230769230769226L140.51679515625,27.230769230769226L140.5851434375,27.230769230769226L140.75528703125002,27.230769230769226L140.92397640625,27.230769230769226L140.9341559375,27.230769230769226L141.34860828125,27.230769230769226L141.83140890625,27.230769230769226L142.3709240625,27.230769230769226L142.71121125,27.230769230769226L142.81736921875,27.230769230769226L142.9002596875,27.230769230769226L143.64191125,27.230769230769226L143.740798125,27.230769230769226L143.85277296875,27.230769230769226L143.87313203124998,27.230769230769226L143.9298465625,27.230769230769226L143.9763815625,27.230769230769226L144.57697390625,27.230769230769226L144.8372790625,27.230769230769226L145.38697375,27.230769230769226L145.46841,27.230769230769226L145.474226875,27.230769230769226L145.56875109375,27.230769230769226L145.6632753125,27.230769230769226L145.99047453125002,27.230769230769226L146.01374203125,27.230769230769226L146.22314953125,27.230769230769226L146.26095921875,27.230769230769226L146.31476531250001,27.230769230769226L146.87173109375001,27.230769230769226L146.89936125,27.230769230769226L147.0476915625,27.230769230769226L147.43160531249998,27.230769230769226L147.59593203125002,27.230769230769226L147.6468296875,27.230769230769226L148.26196421875,27.230769230769226L149.40207171875,27.230769230769226L149.45151515625,27.230769230769226L149.5663984375,27.230769230769226L149.89505187499998,27.230769230769226L149.97067125,27.230769230769226L150.174261875,27.230769230769226L150.52763703125,27.230769230769226L150.89410015625,27.230769230769226L151.128229375,27.230769230769226L151.4801503125,27.230769230769226L151.52668531249998,27.230769230769226L151.8349796875,27.230769230769226L152.1141896875,27.230769230769226L152.23779828125,27.230769230769226L152.42975515625,27.230769230769226L152.72350734375001,27.230769230769226L152.77004234375,27.230769230769226L152.8238484375,27.230769230769226L152.94018593750002,27.230769230769226L153.15977296875,27.230769230769226L153.43316609375,27.230769230769226L153.478246875,27.230769230769226L153.52623609375001,27.230769230769226L153.69201703125,27.230769230769226L153.7836328125,27.230769230769226L154.16900078125,27.230769230769226L155.28293234375,27.230769230769226L155.30183718749998,27.230769230769226L155.40654093749998,27.230769230769226L155.61449421875,27.230769230769226L156.1743684375,27.230769230769226L156.25725890625,27.230769230769226L156.41140609374997,27.230769230769226L156.5059303125,27.230769230769226L156.57137015625,27.230769230769226L156.8084078125,27.230769230769226L157.2563071875,27.230769230769226L158.03722265625,27.230769230769226L158.2422675,27.230769230769226L158.89230328125,27.230769230769226L159.015911875,27.230769230769226L159.039179375,27.230769230769226L159.59469093750002,27.230769230769226L159.61941265625,27.230769230769226L159.80846109375,27.230769230769226L159.9262528125,27.230769230769226L160.016414375,27.230769230769226L160.3101665625,27.230769230769226L160.61991515625002,27.230769230769226L161.52734765625,27.230769230769226L161.55643203125,27.230769230769226L161.85600109375,27.230769230769226L162.32716796875,27.230769230769226L162.35625234375,27.230769230769226L162.360615,27.230769230769226L162.48422359375,27.230769230769226L162.48858625,27.230769230769226L163.01065078124998,27.230769230769226L163.04846046875,27.230769230769226L163.9340796875,27.230769230769226L164.01987859375,27.230769230769226L164.51140453125,27.230769230769226L164.65246374999998,27.230769230769226L165.01310999999998,27.230769230769226L165.63842406249998,27.230769230769226L166.33499484375,27.230769230769226L166.56185296875,27.230769230769226L166.92249921875,27.230769230769226L167.078100625,27.230769230769226L167.31950093749998,27.230769230769226L167.50418671875,27.230769230769226L167.7034146875,27.230769230769226L167.7848509375,27.230769230769226L167.8313859375,27.230769230769226L167.93463546874997,27.230769230769226L168.48723859375,27.230769230769226L168.6166640625,27.230769230769226L168.65011109374998,27.230769230769226L169.12854906249999,27.230769230769226L169.46883624999998,27.230769230769226L169.56336046875,27.230769230769226L170.17122390625002,27.230769230769226L170.37190609375,27.230769230769226L170.47370140625,27.230769230769226L170.57549671875,27.230769230769226L170.75000296874998,27.230769230769226L170.81398859375,27.230769230769226L171.01176234375,27.230769230769226L171.22407828125,27.230769230769226L171.30260609375,27.230769230769226L171.41894359375001,27.230769230769226L171.57890765625,27.230769230769226L171.801403125,27.230769230769226L171.90756109375,27.230769230769226L172.18677109375,27.230769230769226L172.28856640625,27.230769230769226L172.35982312500002,27.230769230769226L173.13346750000002,27.230769230769226L173.78932015625,27.230769230769226L173.94346734375,27.230769230769226L173.94637578125,27.230769230769226L174.33901484375,27.230769230769226L174.92070234375,27.230769230769226L175.33079203125,27.230769230769226L175.3642390625,27.230769230769226L175.5998225,27.230769230769226L175.75542390625,27.230769230769226L175.84122281249998,27.230769230769226L175.95756031250002,27.230769230769226L176.06662671875,27.230769230769226L176.187326875,27.230769230769226L176.30221015625,27.230769230769226L176.44908625,27.230769230769226L176.478170625,27.230769230769226L176.58869125,27.230769230769226L176.67158171875,27.230769230769226L176.68757812500002,27.230769230769226L177.30416687500002,27.230769230769226L177.33325125000002,27.230769230769226L177.862586875,27.230769230769226L178.15633906250002,27.230769230769226L178.2028740625,27.230769230769226L178.281401875,27.230769230769226L178.4122815625,27.230769230769226L178.69585421875,27.230769230769226L178.740935,27.230769230769226L178.82091703125002,27.230769230769226L178.87181468749998,27.230769230769226L178.88635687500002,27.230769230769226L179.16992953125,27.230769230769226L179.54220953125,27.230769230769226L179.62219156249998,27.230769230769226L180.24750562499997,27.230769230769226L180.72594359375,27.230769230769226L180.81028828125,27.230769230769226L181.34834921875,27.230769230769226L181.49958796874998,27.230769230769226L181.51994703124998,27.230769230769226L181.54757718750002,27.230769230769226L181.60720015625,27.230769230769226L181.62755921874998,27.230769230769226L181.6493725,27.230769230769226L181.66827734375,27.230769230769226L181.724991875,27.230769230769226L181.9140403125,27.230769230769226L182.1641659375,27.230769230769226L182.40992890625,27.230769230769226L182.66587140625,27.230769230769226L182.79965953125,27.230769230769226L182.90436328125,27.230769230769226L182.92472234375,27.230769230769226L183.53840265625,27.230769230769226L183.621293125,27.230769230769226L183.80016203125,27.230769230769226L184.05610453125,27.230769230769226L184.20152640625,27.230769230769226L184.35131093750002,27.230769230769226L184.83702,27.230769230769226L185.79825859375,27.230769230769226L185.85642734375,27.230769230769226L185.90441656250002,27.230769230769226L186.17199281249998,27.230769230769226L186.7943984375,27.230769230769226L186.99362640625,27.230769230769226L187.94759390625,27.230769230769226L187.94904812500002,27.230769230769226L188.0333928125,27.230769230769226L188.3242365625,27.230769230769226L188.43911984374998,27.230769230769226L188.79104078125,27.230769230769226L189.1415075,27.230769230769226L189.32764749999998,27.230769230769226L189.37563671874997,27.230769230769226L189.65775515625,27.230769230769226L189.74500828125,27.230769230769226L189.90206390625002,27.230769230769226L189.95441578125,27.230769230769226L189.98204593749998,27.230769230769226L190.1216509375,27.230769230769226L190.78622890625,27.230769230769226L190.845851875,27.230769230769226L190.973823125,27.230769230769226L191.2966596875,27.230769230769226L191.51915515625,27.230769230769226L191.7940025,27.230769230769226L191.83472062500002,27.230769230769226L192.64181203125,27.230769230769226L192.92393046875003,27.230769230769226L192.980645,27.230769230769226L193.27003453125,27.230769230769226L193.88080640624997,27.230769230769226L194.26908281250002,27.230769230769226L194.4901240625,27.230769230769226L194.83768234375,27.230769230769226L195.29139859375,27.230769230769226L195.534253125,27.230769230769226L195.545886875,27.230769230769226L196.05922609375,27.230769230769226L196.46059046875,27.230769230769226L196.5376640625,27.230769230769226L197.05682015625,27.230769230769226L197.07427078125,27.230769230769226L197.4334628125,27.230769230769226L197.44364234375,27.230769230769226L197.59778953125,27.230769230769226L197.83191875,27.230769230769226L197.9627984375,27.230769230769226L198.43396531250002,27.230769230769226L198.7538934375,27.230769230769226L198.80915374999998,27.230769230769226L198.85859718749998,27.230769230769226L198.9138575,27.230769230769226L198.97057203125001,27.230769230769226L199.13926140625003,27.230769230769226L199.25269046875002,27.230769230769226L199.27304953125,27.230769230769226L199.29777124999998,27.230769230769226L199.45482687499998,27.230769230769226L200.152851875,27.230769230769226L200.42915343750002,27.230769230769226L200.5978428125,27.230769230769226L200.91777093750002,27.230769230769226L200.95994328125,27.230769230769226L201.630338125,27.230769230769226L202.00407234374998,27.230769230769226L202.0462446875,27.230769230769226L202.13495203125,27.230769230769226L202.57703453125,27.230769230769226L202.82134328125,27.230769230769226L203.561540625,27.230769230769226L204.015256875,27.230769230769226L204.83398203125,27.230769230769226L205.32550796874997,27.230769230769226L205.3269621875,27.230769230769226L205.52909859375,27.230769230769226L205.57272515625,27.230769230769226L205.632348125,27.230769230769226L205.8010375,27.230769230769226L206.260570625,27.230769230769226L206.3216478125,27.230769230769226L206.79863156250002,27.230769230769226L206.84371234374998,27.230769230769226L207.26979843750001,27.230769230769226L207.40504078125002,27.230769230769226L207.42249140625,27.230769230769226L207.575184375,27.230769230769226L208.05362234375,27.230769230769226L208.8403546875,27.230769230769226L208.8752559375,27.230769230769226L208.92324515624998,27.230769230769226L209.55873875,27.230769230769226L209.65471718749998,27.230769230769226L209.6954353125,27.230769230769226L210.18259859375,27.230769230769226L210.51416046875002,27.230769230769226L210.518523125,27.230769230769226L210.53451953125003,27.230769230769226L210.59850515625,27.230769230769226L210.92570437499998,27.230769230769226L211.28489640625,27.230769230769226L212.96306484375,27.230769230769226L213.31644,27.230769230769226L213.67708625,27.230769230769226L213.75415984375,27.230769230769226L213.9126696875,27.230769230769226L214.10608078125,27.230769230769226L214.37365703125002,27.230769230769226L214.55979703125,27.230769230769226L214.636870625,27.230769230769226L214.6979478125,27.230769230769226L214.85645765625,27.230769230769226L214.8666371875,27.230769230769226L214.91317218749998,27.230769230769226L214.95970718750002,27.230769230769226L215.04841453125002,27.230769230769226L215.07459046875,27.230769230769226L215.38870171875,27.230769230769226L215.66791171875,27.230769230769226L215.81915046875,27.230769230769226L215.90931203124998,27.230769230769226L216.16234609375002,27.230769230769226L216.46482359375,27.230769230769226L216.89236390625,27.230769230769226L216.95053265625,27.230769230769226L217.14248953125,27.230769230769226L217.27046078125,27.230769230769226L217.28791140624998,27.230769230769226L217.29954515625,27.230769230769226L217.41006578125,27.230769230769226L217.4725971875,27.230769230769226L217.65728296875,27.230769230769226L218.0252003125,27.230769230769226L218.23751625,27.230769230769226L218.3742128125,27.230769230769226L218.59379984375,27.230769230769226L219.15658249999998,27.230769230769226L219.48087328124998,27.230769230769226L219.56812640625,27.230769230769226L220.302506875,27.230769230769226L220.31850328125,27.230769230769226L220.57735421875,27.230769230769226L220.61080124999998,27.230769230769226L220.65588203125,27.230769230769226L220.86238109375,27.230769230769226L220.88274015625,27.230769230769226L222.02575609375,27.230769230769226L222.37476859375,27.230769230769226L222.39803609375002,27.230769230769226L222.79649203125,27.230769230769226L222.95936453125,27.230769230769226L223.21821546875,27.230769230769226L223.26475046875,27.230769230769226L223.36945421875,27.230769230769226L223.74755109375002,27.230769230769226L223.96132125,27.230769230769226L224.49792796875002,27.230769230769226L224.5168328125,27.230769230769226L224.64044140625,27.230769230769226L225.1566890625,27.230769230769226L225.19013609375,27.230769230769226L225.1974071875,27.230769230769226L225.2264915625,27.230769230769226L225.38063875,27.230769230769226L226.299705,27.230769230769226L226.67343921875,27.230769230769226L227.1635109375,27.230769230769226L227.26676046875,27.230769230769226L227.38018953125,27.230769230769226L227.8382684375,27.230769230769226L227.84553953124998,27.230769230769226L227.8673528125,27.230769230769226L228.34724500000002,27.230769230769226L228.39378,27.230769230769226L228.68026109375,27.230769230769226L229.01473140625,27.230769230769226L229.1354315625,27.230769230769226L229.16306171875,27.230769230769226L229.31284625,27.230769230769226L229.39573671875002,27.230769230769226L229.71857328124997,27.230769230769226L229.99487484374998,27.230769230769226L230.41368984374998,27.230769230769226L230.45440796875,27.230769230769226L230.57947078125,27.230769230769226L231.133528125,27.230769230769226L231.1655209375,27.230769230769226L231.59742390625,27.230769230769226L231.808285625,27.230769230769226L231.8751796875,27.230769230769226L232.64009875000002,27.230769230769226L232.69826750000001,27.230769230769226L232.70990125,27.230769230769226L232.7418940625,27.230769230769226L232.75643625,27.230769230769226L232.866956875,27.230769230769226L232.9164003125,27.230769230769226L233.04291734375,27.230769230769226L233.087998125,27.230769230769226L233.76711828125,27.230769230769226L234.024515,27.230769230769226L234.11467656250002,27.230769230769226L234.45350953125,27.230769230769226L234.46223484375,27.230769230769226L235.3711215625,27.230769230769226L235.4234734375,27.230769230769226L235.56453265624998,27.230769230769226L235.86991859375,27.230769230769226L235.8713728125,27.230769230769226L236.30618421875,27.230769230769226L236.67701000000002,27.230769230769226L236.88205484375,27.230769230769226L237.30959515625,27.230769230769226L237.53645328125,27.230769230769226L237.7444065625,27.230769230769226L237.86946937500002,27.230769230769226L237.8840115625,27.230769230769226L238.08905640625,27.230769230769226L238.15449625,27.230769230769226L238.19085171875003,27.230769230769226L238.37408328125,27.230769230769226L238.47587859375,27.230769230769226L238.7216415625,27.230769230769226L238.82198265625,27.230769230769226L238.9077815625,27.230769230769226L239.08083359375001,27.230769230769226L239.26115671875,27.230769230769226L240.35472921874998,27.230769230769226L240.83752984375002,27.230769230769226L240.85352625,27.230769230769226L240.9814975,27.230769230769226L241.03821203125,27.230769230769226L241.097835,27.230769230769226L241.85548296875,27.230769230769226L241.982,27.230769230769226L242.41390296875002,27.230769230769226L243.28643421875,27.230769230769226L243.37368734375,27.230769230769226L243.38822953125,27.230769230769226L243.570006875,27.230769230769226L244.40182,27.230769230769226L244.58505156249998,27.230769230769226L244.72901921875,27.230769230769226L244.92679296875,27.230769230769226L245.10420765625,27.230769230769226L245.18855234375002,27.230769230769226L245.28889343749998,27.230769230769226L245.2947103125,27.230769230769226L245.44158640625,27.230769230769226L245.56664921875,27.230769230769226L245.58846250000002,27.230769230769226L246.40718765625002,27.230769230769226L246.571514375,27.230769230769226L246.757654375,27.230769230769226L246.77946765625,27.230769230769226L246.88126296874998,27.230769230769226L247.05286078125002,27.230769230769226L247.12702593749998,27.230769230769226L247.22736703125,27.230769230769226L247.23318390625,27.230769230769226L247.9995571875,27.230769230769226L248.02718734375,27.230769230769226L248.14352484375,27.230769230769226L248.32093953125,27.230769230769226L248.47363249999998,27.230769230769226L248.73393765625,27.230769230769226L248.75429671875,27.230769230769226L248.80664859375,27.230769230769226L248.8662715625,27.230769230769226L249.002968125,27.230769230769226L249.07422484375,27.230769230769226L249.09749234375002,27.230769230769226L249.21528406250002,27.230769230769226L249.33598421874999,27.230769230769226L249.46250125,27.230769230769226L249.4886771875,27.230769230769226L249.68499671875003,27.230769230769226L249.88277046874998,27.230769230769226L250.445553125,27.230769230769226L250.49935921875,27.230769230769226L250.887635625,27.230769230769226L251.1872046875,27.230769230769226L251.24101078125,27.230769230769226L252.38984359375002,27.230769230769226L252.48727625,27.230769230769226L252.57598359375,27.230769230769226L252.7228596875,27.230769230769226L253.09950234375,27.230769230769226L253.19257234375002,27.230769230769226L253.7931646875,27.230769230769226L254.00111796875,27.230769230769226L254.47228484375,27.230769230769226L254.7645828125,27.230769230769226L254.878011875,27.230769230769226L254.89109984375,27.230769230769226L255.33899921875,27.230769230769226L255.53677296875,27.230769230769226L255.55858625000002,27.230769230769226L255.90178187499998,27.230769230769226L255.9919434375,27.230769230769226L256.3933078125,27.230769230769226L256.51400796875,27.230769230769226L256.89210484374996,27.230769230769226L257.14513890625,27.230769230769226L257.251296875,27.230769230769226L257.286198125,27.230769230769226L257.3530921875,27.230769230769226L257.4636128125,27.230769230769226L257.49124296875,27.230769230769226L257.58722140624997,27.230769230769226L257.821350625,27.230769230769226L257.95368453125,27.230769230769226L258.02348703125,27.230769230769226L258.30415125,27.230769230769226L258.5746359375,27.230769230769226L258.74623375,27.230769230769226L258.810219375,27.230769230769226L258.845120625,27.230769230769226L258.9120146875,27.230769230769226L259.62312765625,27.230769230769226L259.8281725,27.230769230769226L259.86743640625,27.230769230769226L260.09429453125,27.230769230769226L260.28334296875,27.230769230769226L260.51456375,27.230769230769226L260.89993171875,27.230769230769226L261.06571265625,27.230769230769226L261.0817090625,27.230769230769226L261.439446875,27.230769230769226L261.485981875,27.230769230769226L261.60959046875,27.230769230769226" style="fill: none;" fill="none"></path></g></g></g></g></g></g><g transform="translate(39, 177)" clip-path="url(#clip_1)"><clipPath id="clip_1"><rect width="290" height="23"></rect></clipPath><g><g><line x1="0" y1="0" x2="0" y2="5" style="visibility: inherit;" fill="rgb(0, 0, 0)" stroke="rgb(204, 204, 204)" stroke-width="1px"></line><line x1="29.084375" y1="0" x2="29.084375" y2="5" style="visibility: inherit;" fill="rgb(0, 0, 0)" stroke="rgb(204, 204, 204)" stroke-width="1px"></line><line x1="58.16875" y1="0" x2="58.16875" y2="5" style="visibility: inherit;" fill="rgb(0, 0, 0)" stroke="rgb(204, 204, 204)" stroke-width="1px"></line><line x1="87.253125" y1="0" x2="87.253125" y2="5" style="visibility: inherit;" fill="rgb(0, 0, 0)" stroke="rgb(204, 204, 204)" stroke-width="1px"></line><line x1="116.3375" y1="0" x2="116.3375" y2="5" style="visibility: inherit;" fill="rgb(0, 0, 0)" stroke="rgb(204, 204, 204)" stroke-width="1px"></line><line x1="145.421875" y1="0" x2="145.421875" y2="5" style="visibility: inherit;" fill="rgb(0, 0, 0)" stroke="rgb(204, 204, 204)" stroke-width="1px"></line><line x1="174.50625" y1="0" x2="174.50625" y2="5" style="visibility: inherit;" fill="rgb(0, 0, 0)" stroke="rgb(204, 204, 204)" stroke-width="1px"></line><line x1="203.590625" y1="0" x2="203.590625" y2="5" style="visibility: inherit;" fill="rgb(0, 0, 0)" stroke="rgb(204, 204, 204)" stroke-width="1px"></line><line x1="232.675" y1="0" x2="232.675" y2="5" style="visibility: inherit;" fill="rgb(0, 0, 0)" stroke="rgb(204, 204, 204)" stroke-width="1px"></line><line x1="261.75937500000003" y1="0" x2="261.75937500000003" y2="5" style="visibility: inherit;" fill="rgb(0, 0, 0)" stroke="rgb(204, 204, 204)" stroke-width="1px"></line><line x1="290.84375" y1="0" x2="290.84375" y2="5" style="visibility: inherit;" fill="rgb(0, 0, 0)" stroke="rgb(204, 204, 204)" stroke-width="1px"></line></g><g transform="translate(0, 8)"><text x="0" y="0" dx="0em" dy="0.95em" style="text-anchor: middle; visibility: hidden; font-family: &quot;Helvetica Neue&quot;, sans-serif; font-size: 12px; font-weight: 200;" fill="rgb(50, 49, 63)" stroke="none" stroke-width="1px">-20k</text><text x="29.084375" y="0" dx="0em" dy="0.95em" style="text-anchor: middle; visibility: inherit; font-family: &quot;Helvetica Neue&quot;, sans-serif; font-size: 12px; font-weight: 200;" fill="rgb(50, 49, 63)" stroke="none" stroke-width="1px">0</text><text x="58.16875" y="0" dx="0em" dy="0.95em" style="text-anchor: middle; visibility: hidden; font-family: &quot;Helvetica Neue&quot;, sans-serif; font-size: 12px; font-weight: 200;" fill="rgb(50, 49, 63)" stroke="none" stroke-width="1px">20k</text><text x="87.253125" y="0" dx="0em" dy="0.95em" style="text-anchor: middle; visibility: inherit; font-family: &quot;Helvetica Neue&quot;, sans-serif; font-size: 12px; font-weight: 200;" fill="rgb(50, 49, 63)" stroke="none" stroke-width="1px">40k</text><text x="116.3375" y="0" dx="0em" dy="0.95em" style="text-anchor: middle; visibility: hidden; font-family: &quot;Helvetica Neue&quot;, sans-serif; font-size: 12px; font-weight: 200;" fill="rgb(50, 49, 63)" stroke="none" stroke-width="1px">60k</text><text x="145.421875" y="0" dx="0em" dy="0.95em" style="text-anchor: middle; visibility: inherit; font-family: &quot;Helvetica Neue&quot;, sans-serif; font-size: 12px; font-weight: 200;" fill="rgb(50, 49, 63)" stroke="none" stroke-width="1px">80k</text><text x="174.50625" y="0" dx="0em" dy="0.95em" style="text-anchor: middle; visibility: hidden; font-family: &quot;Helvetica Neue&quot;, sans-serif; font-size: 12px; font-weight: 200;" fill="rgb(50, 49, 63)" stroke="none" stroke-width="1px">100k</text><text x="203.590625" y="0" dx="0em" dy="0.95em" style="text-anchor: middle; visibility: inherit; font-family: &quot;Helvetica Neue&quot;, sans-serif; font-size: 12px; font-weight: 200;" fill="rgb(50, 49, 63)" stroke="none" stroke-width="1px">120k</text><text x="232.675" y="0" dx="0em" dy="0.95em" style="text-anchor: middle; visibility: hidden; font-family: &quot;Helvetica Neue&quot;, sans-serif; font-size: 12px; font-weight: 200;" fill="rgb(50, 49, 63)" stroke="none" stroke-width="1px">140k</text><text x="261.75937500000003" y="0" dx="0em" dy="0.95em" style="text-anchor: middle; visibility: inherit; font-family: &quot;Helvetica Neue&quot;, sans-serif; font-size: 12px; font-weight: 200;" fill="rgb(50, 49, 63)" stroke="none" stroke-width="1px">160k</text><text x="290.84375" y="0" dx="0em" dy="0.95em" style="text-anchor: middle; visibility: hidden; font-family: &quot;Helvetica Neue&quot;, sans-serif; font-size: 12px; font-weight: 200;" fill="rgb(50, 49, 63)" stroke="none" stroke-width="1px">180k</text></g><line x1="0" y1="0" x2="290.84375" y2="0" fill="rgb(0, 0, 0)" stroke="rgb(204, 204, 204)" stroke-width="1px"></line></g></g></g></g></svg>