<svg viewBox="0 0 330 200" xmlns="http://www.w3.org/2000/svg"><g><g><g><g><g><line x1="68.3125" y1="177" x2="63.3125" y2="177" style="visibility: inherit;" fill="rgb(0, 0, 0)" stroke="rgb(204, 204, 204)" stroke-width="1px"></line><line x1="68.3125" y1="151.71428571428572" x2="63.3125" y2="151.71428571428572" style="visibility: inherit;" fill="rgb(0, 0, 0)" stroke="rgb(204, 204, 204)" stroke-width="1px"></line><line x1="68.3125" y1="126.42857142857143" x2="63.3125" y2="126.42857142857143" style="visibility: inherit;" fill="rgb(0, 0, 0)" stroke="rgb(204, 204, 204)" stroke-width="1px"></line><line x1="68.3125" y1="101.14285714285715" x2="63.3125" y2="101.14285714285715" style="visibility: inherit;" fill="rgb(0, 0, 0)" stroke="rgb(204, 204, 204)" stroke-width="1px"></line><line x1="68.3125" y1="75.85714285714286" x2="63.3125" y2="75.85714285714286" style="visibility: inherit;" fill="rgb(0, 0, 0)" stroke="rgb(204, 204, 204)" stroke-width="1px"></line><line x1="68.3125" y1="50.57142857142857" x2="63.3125" y2="50.57142857142857" style="visibility: inherit;" fill="rgb(0, 0, 0)" stroke="rgb(204, 204, 204)" stroke-width="1px"></line><line x1="68.3125" y1="25.285714285714306" x2="63.3125" y2="25.285714285714306" style="visibility: inherit;" fill="rgb(0, 0, 0)" stroke="rgb(204, 204, 204)" stroke-width="1px"></line><line x1="68.3125" y1="0" x2="63.3125" y2="0" style="visibility: inherit;" fill="rgb(0, 0, 0)" stroke="rgb(204, 204, 204)" stroke-width="1px"></line></g><g transform="translate(58.3125, 0)"><text x="0" y="177" dx="0em" dy="0.3em" style="text-anchor: end; visibility: hidden; font-family: &quot;Helvetica Neue&quot;, sans-serif; font-size: 12px; font-weight: 200;" fill="rgb(50, 49, 63)" stroke="none" stroke-width="1px">-5e+4</text><text x="0" y="151.71428571428572" dx="0em" dy="0.3em" style="text-anchor: end; visibility: inherit; font-family: &quot;Helvetica Neue&quot;, sans-serif; font-size: 12px; font-weight: 200;" fill="rgb(50, 49, 63)" stroke="none" stroke-width="1px">0</text><text x="0" y="126.42857142857143" dx="0em" dy="0.3em" style="text-anchor: end; visibility: inherit; font-family: &quot;Helvetica Neue&quot;, sans-serif; font-size: 12px; font-weight: 200;" fill="rgb(50, 49, 63)" stroke="none" stroke-width="1px">5e+4</text><text x="0" y="101.14285714285715" dx="0em" dy="0.3em" style="text-anchor: end; visibility: inherit; font-family: &quot;Helvetica Neue&quot;, sans-serif; font-size: 12px; font-weight: 200;" fill="rgb(50, 49, 63)" stroke="none" stroke-width="1px">1e+5</text><text x="0" y="75.85714285714286" dx="0em" dy="0.3em" style="text-anchor: end; visibility: inherit; font-family: &quot;Helvetica Neue&quot;, sans-serif; font-size: 12px; font-weight: 200;" fill="rgb(50, 49, 63)" stroke="none" stroke-width="1px">1.5e+5</text><text x="0" y="50.57142857142857" dx="0em" dy="0.3em" style="text-anchor: end; visibility: inherit; font-family: &quot;Helvetica Neue&quot;, sans-serif; font-size: 12px; font-weight: 200;" fill="rgb(50, 49, 63)" stroke="none" stroke-width="1px">2e+5</text><text x="0" y="25.285714285714306" dx="0em" dy="0.3em" style="text-anchor: end; visibility: inherit; font-family: &quot;Helvetica Neue&quot;, sans-serif; font-size: 12px; font-weight: 200;" fill="rgb(50, 49, 63)" stroke="none" stroke-width="1px">2.5e+5</text><text x="0" y="0" dx="0em" dy="0.3em" style="text-anchor: end; visibility: hidden; font-family: &quot;Helvetica Neue&quot;, sans-serif; font-size: 12px; font-weight: 200;" fill="rgb(50, 49, 63)" stroke="none" stroke-width="1px">3e+5</text></g><line x1="68.3125" y1="0" x2="68.3125" y2="177" fill="rgb(0, 0, 0)" stroke="rgb(204, 204, 204)" stroke-width="1px"></line></g></g><g transform="translate(68, 0)" clip-path="url(#clip_0)"><clipPath id="clip_0"><rect width="261" height="177"></rect></clipPath><g><g><g><line x1="0" y1="0" x2="0" y2="177" fill="rgb(0, 0, 0)" stroke="rgb(60, 60, 60)" stroke-width="1px" opacity="0.25"></line><line x1="29.076388888888886" y1="0" x2="29.076388888888886" y2="177" fill="rgb(0, 0, 0)" stroke="rgb(60, 60, 60)" stroke-width="1px" opacity="0.25"></line><line x1="58.15277777777777" y1="0" x2="58.15277777777777" y2="177" fill="rgb(0, 0, 0)" stroke="rgb(60, 60, 60)" stroke-width="1px" opacity="0.25"></line><line x1="87.22916666666666" y1="0" x2="87.22916666666666" y2="177" fill="rgb(0, 0, 0)" stroke="rgb(60, 60, 60)" stroke-width="1px" opacity="0.25"></line><line x1="116.30555555555554" y1="0" x2="116.30555555555554" y2="177" fill="rgb(0, 0, 0)" stroke="rgb(60, 60, 60)" stroke-width="1px" opacity="0.25"></line><line x1="145.38194444444446" y1="0" x2="145.38194444444446" y2="177" fill="rgb(0, 0, 0)" stroke="rgb(60, 60, 60)" stroke-width="1px" opacity="0.25"></line><line x1="174.45833333333331" y1="0" x2="174.45833333333331" y2="177" fill="rgb(0, 0, 0)" stroke="rgb(60, 60, 60)" stroke-width="1px" opacity="0.25"></line><line x1="203.53472222222223" y1="0" x2="203.53472222222223" y2="177" fill="rgb(0, 0, 0)" stroke="rgb(60, 60, 60)" stroke-width="1px" opacity="0.25"></line><line x1="232.6111111111111" y1="0" x2="232.6111111111111" y2="177" fill="rgb(0, 0, 0)" stroke="rgb(60, 60, 60)" stroke-width="1px" opacity="0.25"></line><line x1="261.6875" y1="0" x2="261.6875" y2="177" fill="rgb(0, 0, 0)" stroke="rgb(60, 60, 60)" stroke-width="1px" opacity="0.25"></line></g><g><line x1="0" y1="177" x2="261.6875" y2="177" fill="rgb(0, 0, 0)" stroke="rgb(60, 60, 60)" stroke-width="1px" opacity="0.25"></line><line x1="0" y1="151.71428571428572" x2="261.6875" y2="151.71428571428572" fill="rgb(0, 0, 0)" stroke="rgb(60, 60, 60)" stroke-width="1px" opacity="0.25"></line><line x1="0" y1="126.42857142857143" x2="261.6875" y2="126.42857142857143" fill="rgb(0, 0, 0)" stroke="rgb(60, 60, 60)" stroke-width="1px" opacity="0.25"></line><line x1="0" y1="101.14285714285715" x2="261.6875" y2="101.14285714285715" fill="rgb(0, 0, 0)" stroke="rgb(60, 60, 60)" stroke-width="1px" opacity="0.25"></line><line x1="0" y1="75.85714285714286" x2="261.6875" y2="75.85714285714286" fill="rgb(0, 0, 0)" stroke="rgb(60, 60, 60)" stroke-width="1px" opacity="0.25"></line><line x1="0" y1="50.57142857142857" x2="261.6875" y2="50.57142857142857" fill="rgb(0, 0, 0)" stroke="rgb(60, 60, 60)" stroke-width="1px" opacity="0.25"></line><line x1="0" y1="25.285714285714306" x2="261.6875" y2="25.285714285714306" fill="rgb(0, 0, 0)" stroke="rgb(60, 60, 60)" stroke-width="1px" opacity="0.25"></line><line x1="0" y1="0" x2="261.6875" y2="0" fill="rgb(0, 0, 0)" stroke="rgb(60, 60, 60)" stroke-width="1px" opacity="0.25"></line></g></g></g><g><g><line x1="0" y1="151.71428571428572" x2="261.6875" y2="151.71428571428572" fill="rgb(0, 0, 0)" stroke="rgb(153, 153, 153)" stroke-width="1.5px"></line></g></g><g><g><line x1="29.076388888888886" y1="0" x2="29.076388888888886" y2="177" fill="rgb(0, 0, 0)" stroke="rgb(153, 153, 153)" stroke-width="1.5px"></line></g></g><g><g><g><g><g><path stroke="rgb(255, 112, 67)" stroke-width="2px" d="M29.967580208333334,147.41571428571427L29.98647986111111,148.3472932330827L30.595630208333333,147.5183500263574L30.919831944444443,146.92970506376437L30.944546874999997,146.67790812713451L31.00269965277778,146.15541387530706L31.700532986111114,145.70874775080748L32.71820659722222,137.8659976494317L33.30845729166666,131.78860620492927L33.35788715277778,125.6780795336471L33.68935798611111,121.34340468087885L33.73151875,118.67627322675442L33.85945486111111,114.02670142080203L34.634340625,109.9693177519925L34.64887881944444,106.24044392262711L34.67213993055555,104.05048062415963L34.707031597222226,101.08563741559892L35.60985347222222,99.89042095197297L35.82065729166666,97.76659586593942L36.07943715277778,94.88093597494016L36.181204513888886,93.45463512287266L36.439984375,92.69749651818996L36.46324548611111,91.43233024849113L36.78163194444444,90.38277818903521L37.47365,88.77973231514136L37.611762847222224,87.44146389358419L38.34158020833333,86.58199686543314L38.693404513888886,87.09390189305837L39.22695625,87.09816987400502L39.292378125,86.54746501251532L39.92188194444444,85.75675116290964L40.169031249999996,85.25528588596855L40.952639930555556,85.80927738210342L41.0849375,85.2953707265644L41.452753819444446,84.96531469533555L42.08661909722222,84.62848060716915L42.31777638888889,84.33196335028352L42.405005555555555,83.92202939611369L42.41518229166667,83.09693287141847L43.11156180555555,82.28509707729313L43.65383645833333,79.41949543074747L43.73525034722222,78.86444337565891L43.83411006944444,79.15345608336374L44.09579756944444,79.47425002179762L44.49559791666667,79.7317582563936L44.561019791666666,79.76429515640147L44.92447465277778,80.56259505632583L45.364981944444445,81.25453816704997L45.379520138888886,81.27626591534708L45.75169791666667,81.86513134673025L45.953778819444445,81.03290085320418L45.993031944444446,81.00575458708072L46.14132152777778,80.38742743870026L46.35503298611111,80.56207524751869L46.683596180555554,80.34377480793123L46.735933680555554,80.25392265718743L47.459935763888886,80.39616674236092L47.98767222222222,80.16426415642314L48.207198958333336,80.08739855062254L48.27407465277778,81.08216057888531L48.57937673611111,80.88805917041815L49.51418263888889,80.58175025389404L49.63921111111111,79.86560849668705L49.66392604166666,79.84402219637184L50.03755763888889,79.86509948505295L50.450442361111115,80.08148189710816L50.501326041666665,79.16265826010161L50.60745486111111,79.03935419459422L50.76155972222222,79.03467265871319L52.19066423611111,79.37962153047414L52.775099652777776,79.36113466658401L53.14582361111111,79.47605095181979L53.26358298611111,78.92679496973817L53.41623402777778,79.23186945980225L53.91925555555556,79.2686389752622L54.465891666666664,78.63396373745924L54.94855972222223,78.94300283699187L54.989266666666666,78.64950910597803L55.496649652777776,78.16786984914651L56.973730208333336,77.60290229036951L57.39969930555556,78.0909080164591L57.46075972222223,78.5098627834407L57.90562847222222,78.73011158366292L57.99431145833333,75.93407106628932L58.447903124999996,76.5788328527349L58.51041736111111,76.98208210152822L58.60927708333334,76.49025106858754L59.02797708333333,76.12347718235772L59.5077375,73.89679813752956L59.56152881944445,73.59215225951867L59.65893472222222,73.77820693226035L60.22592430555556,74.22381373460134L60.289892361111114,72.885100875159L60.461443055555556,73.41496012712913L60.67951597222222,71.74750339465471L61.50092395833334,68.67397148418537L61.77714965277777,69.45806004719611L62.354315972222224,70.5076313170035L62.914036458333335,70.97685346187077L62.96782777777778,71.23226061394064L63.63513090277778,69.59599543720371L63.882280208333334,70.31821143176772L64.42019340277777,68.90484863556564L64.67897326388889,66.44943526739713L64.83743958333334,67.02104356304221L65.37680659722223,67.64674803906748L65.46548958333332,66.49042997359601L65.49601979166667,68.09971966226527L65.55126493055556,69.24464519210062L65.92344270833334,69.66315597745239L66.47734791666667,70.81356425436022L66.56312326388888,69.30011076112872L68.02857326388889,69.78893155674307L68.7162298611111,68.41840150175669L69.11893784722223,69.52133881184804L69.38789444444444,69.73012024397482L69.53763784722223,70.62602647388097L69.85020902777778,69.12121782723689L70.27763194444444,69.35483973990344L70.96238090277777,70.21241567809392L71.375265625,70.57966089190289L71.46685625,70.92535284979245L71.60351527777777,71.47416171391818L72.21993472222222,71.76580330328697L72.85816145833333,71.97265193881358L72.86833819444445,69.84769738389781L73.42078958333335,70.28681403802626L73.42369722222222,71.05624798951614L74.3686798611111,71.0255660093219L74.39048715277778,71.30138114752029L75.36163854166666,71.62547193262124L75.54772743055555,71.81601062742267L75.55208888888889,70.30346546599357L75.93008194444444,68.67414628716666L76.17432361111112,69.32670352088917L77.52928333333334,69.71171911347383L78.11662638888889,67.81791761079631L78.13407222222222,66.69001101731455L78.49171180555555,65.65972375186209L78.55567986111112,64.17112222082098L79.14302291666667,65.06158174194601L79.18082222222222,63.2130515513349L79.89755520833334,60.9779171850638L80.07782881944443,58.89549635872751L80.22175694444445,59.150375353371146L80.47762916666666,60.65922384713225L80.56485833333333,60.156158510810656L80.71314791666667,61.79200007904696L80.85998368055556,63.11254312914188L81.44296527777779,63.96220321825322L81.53310208333333,65.1820401895718L82.43301631944443,66.08772198532422L82.58712118055556,66.61963555415923L82.93603784722221,67.18432919231813L83.24570138888889,66.08438189845992L83.40707534722222,64.90225790832902L83.49721215277778,65.72971788595957L83.78506840277778,66.36823184927523L84.20231458333333,67.13506584787355L84.36950381944445,68.16404502648622L84.4203875,66.6525833160511L84.538146875,65.49961065415525L84.65736006944444,66.2926210449047L84.682075,67.14287325275534L85.07024479166667,67.80695737476827L85.270871875,68.90023309359519L85.27814097222222,69.58580979988713L85.54128229166668,70.68325741387589L85.73318645833334,67.69604590296305L86.17223993055556,66.41849843426192L86.422296875,67.77704861118478L86.46881909722222,64.98437228384773L87.18700590277777,63.96282075735458L87.41234791666668,64.88422440596595L87.85721666666666,63.918201955875844L88.44310590277777,63.05383889550042L88.5579576388889,61.835940710541365L89.68030625,60.72971806013348L90.45955347222221,59.759403390720905L90.46973020833333,58.88106304655183L90.66018055555556,57.62529959248104L90.95821354166667,59.34228392701776L90.97711319444444,57.499284097947964L90.98583611111111,58.99118426526189L91.31876076388889,58.19472297886371L91.45832743055556,58.01396496613417L92.074746875,59.27233990158487L92.14162256944445,60.52624877170149L92.45273993055557,61.84188104034628L92.833640625,61.286292935187475L93.29740902777779,63.082206502082045L93.65068715277778,60.87027156253431L93.68557881944444,62.28298726550757L93.95453541666666,61.663059966705234L94.194415625,59.58292539612084L94.23512256944444,58.68683285554518L94.33979756944446,58.24952099813888L94.51716354166668,58.06328318387706L94.64946111111111,57.86532629390558L94.85444965277777,56.159907949026135L94.97802430555556,54.54411715309756L95.34147916666667,53.140476865557105L95.36328645833333,52.88862917887187L95.37055555555555,51.70110911757784L96.13817222222222,53.696969635222956L96.58304097222222,51.225015527916696L96.9653954861111,51.66537111813075L97.439340625,51.0806054347115L97.50040104166666,51.34828774845636L97.57309201388888,50.15803040188936L97.94963125000001,49.23851307578256L98.55878159722222,48.593004625218526L98.72887847222222,51.182875591732554L98.80447708333334,51.566759461192675L98.82773819444445,52.05891208657347L99.0748875,54.50447802109295L99.58663194444443,56.89260164783609L100.43711631944444,58.65251291181025L100.57668298611111,57.86969019198321L100.61448229166668,55.33446402971029L100.88634652777777,55.414446198174005L101.38500659722222,56.65968729272883L101.49695069444445,56.349232849150795L101.62488680555555,55.79168099277577L101.79643750000001,54.2632843219922L101.82987534722223,52.47304160399709L102.11627777777778,54.59399458654154L102.35034270833333,54.74296655646431L102.95222395833333,53.29415561505543L103.16884305555556,55.12565433931897L103.22263437500001,55.1456031911019L103.66023402777778,56.91332858632023L103.7561861111111,56.30442429910349L103.85359201388889,55.60975329775094L104.05567291666667,54.02874939651936L104.060034375,54.26458874258546L104.83637395833334,54.24927272546954L105.04717777777778,54.19503116720759L105.12132256944444,54.424356621918065L105.33939548611112,53.65472095971825L105.76972604166667,52.36530600659145L105.84532465277778,51.48297540592485L106.035775,51.95316357962166L106.08084340277779,51.460990078798986L106.12591180555555,53.55166249950338L106.24803263888889,55.458553392420754L106.57368819444444,57.37198376747392L106.73796979166666,57.06109967643941L107.06217152777778,58.96598970880318L107.2235454861111,58.359162166492084L107.34566631944445,58.202417378413784L107.47651006944444,56.933604211997235L107.61026145833334,56.61598664793951L108.23976527777778,55.02538798314178L108.28774131944444,55.00479204197042L108.4200388888889,54.92051283777322L108.83001597222223,54.92557583971018L109.21237048611111,56.69001825574193L109.57146388888889,54.93524500159383L109.93055729166666,53.43180621571824L110.08175451388888,53.64136845128952L110.17334513888889,53.81986017758932L110.21259826388888,53.95015987411621L110.58477604166666,54.168572458133326L111.060175,56.034000926607106L111.23463333333333,55.96311511966066L111.58645763888889,55.995403607694584L112.96467847222222,55.97894896121085L113.36593263888889,55.48371120794667L113.690134375,55.40211151572339L113.7293875,53.90761464986474L114.27893125,53.225053184878035L114.449028125,55.07357643781938L114.78049895833333,56.848504508323686L114.94332673611112,54.971682628919396L115.3940107638889,53.580914366027145L115.63098333333333,52.09659435799553L115.74728888888889,51.59007777933873L115.91593194444444,51.892784287119184L116.02206076388889,50.835191572692835L116.48437534722223,51.38532955828076L116.90598298611111,51.865282316738444L117.68377638888889,50.61826837077875L117.72157569444445,49.65272724798649L117.74192916666667,49.00625452318778L117.7826361111111,49.18805764229758L118.1620829861111,49.91808044949644L118.57060625,52.289472404546956L118.58950590277777,52.673953735520854L118.69418090277777,52.50415836196875L118.76832569444444,54.47028538291484L118.79740208333334,54.64174255890906L119.22918645833333,53.25362544587526L119.24372465277777,52.01949147271624L119.74238472222223,52.314656611158924L120.25703680555554,54.39581952147165L120.51727048611112,54.04372328361018L121.31250972222222,54.26795095524918L121.43317673611111,54.484927288295665L122.30982986111111,56.212520273751835L122.35344444444445,58.10618253209098L122.46538854166666,56.68516427888186L122.75469861111111,56.48847642242224L122.86518888888888,54.940971637322846L123.10216145833333,55.08558875930484L123.11669965277778,57.03125845480295L123.43653993055557,55.4092468950369L123.46997777777777,55.39577934839036L124.15908819444445,53.93731569926561L124.26376319444444,55.729784129339066L124.71153958333333,54.242977144976564L124.82348368055555,54.46245085905035L124.94124305555556,54.08852005885959L124.97031944444444,53.686239481545044L125.27271388888889,55.61507267624769L125.3250513888889,55.13093683719434L125.33813576388889,55.19081458204633L125.78009687500001,56.943904552413116L125.78300451388888,56.3369998114575L126.66547291666666,56.17007125888318L127.05364270833333,56.11592127585202L127.219378125,55.991329148266814L127.48978854166667,54.478367662011564L127.50432673611111,54.456845181524685L127.9288420138889,52.859646377657924L128.056778125,52.666224597035L128.20216006944443,51.789202137331486L128.3286423611111,53.80153906645546L128.344634375,54.03987087409564L128.58596840277778,54.229083786686076L129.29979375,56.19971826516034L129.7388472222222,54.3675464386443L130.13719375,54.559391794779856L130.20988472222223,53.56385261530187L130.6794684027778,53.84618163948596L130.9266177083333,52.53762061839451L131.07490729166668,52.750629985126494L131.55466770833334,51.58702412947099L132.10857291666667,51.707978859381L132.2408704861111,52.14049525915718L132.68719305555555,50.289445733241465L132.91544270833333,52.451758302774465L133.3457732638889,52.774496758211285L133.46789409722223,52.250761368104435L133.8371642361111,52.63911380272258L133.89095555555556,51.26414527959318L134.28639444444445,51.56404503734814L134.79668506944446,53.63429767647045L134.89554479166665,55.522810765966284L135.34622881944446,57.126386832226785L135.357859375,56.49617672043267L135.69369166666667,54.816416191246546L136.43950104166666,54.766146000693325L136.45840069444444,54.88778854348112L136.9352534722222,53.227266831990164L137.53422708333332,52.976854434505455L137.57493402777777,51.78051184819776L137.6316329861111,52.20577494909226L138.58097708333332,51.066311739897316L138.6885597222222,51.04716628019328L139.28462569444446,50.13987822360252L139.7178638888889,49.449747544099424L139.7513017361111,50.108087075403745L140.35754444444444,52.581849796434796L140.57997881944445,52.95732195964847L140.65703125,53.27501833511218L140.67156944444446,52.59503078731524L142.26786319444446,51.42169913715516L142.58334201388888,51.62998636629678L142.76506944444444,50.55315915823853L142.999134375,50.10995752812896L143.16196215277776,48.33553320388748L143.46144895833334,48.58440845492731L143.5457704861111,48.20153903800602L143.65771458333336,48.45369941991967L145.4037517361111,46.60215804935629L145.7701142361111,47.58065653013492L145.81809027777777,46.918876591407155L145.8544357638889,47.840417503694994L145.88932743055554,48.538318610468366L146.41415625,49.19171532085008L146.64531354166667,49.74942950305079L146.80523368055557,49.85185798131714L146.89682430555555,52.09838646889972L146.9317159722222,52.36543353629544L147.4841673611111,52.21131875409448L147.5554045138889,51.025786878685025L147.8752447916667,50.85897961938795L147.91740555555555,51.38651022887771L148.26196076388888,51.63877349170423L148.48584895833335,50.550953285390946L148.6152388888889,51.1194008139947L148.89582604166665,51.641117875452395L149.9498451388889,51.54932037362144L150.21880173611112,51.48693119340216L150.66948576388887,50.44969521691908L150.86138993055556,50.487154266655736L150.91081979166665,52.80163883999016L151.137615625,54.96558924170543L151.27718229166666,54.66777317467775L151.8863326388889,56.40236728578141L151.9284934027778,55.060701985774685L152.16837361111112,55.188288930054355L153.07119548611112,53.801145751334644L153.18168576388888,53.98388831905831L153.3256138888889,55.857670915723915L153.40993541666668,52.88644668129437L153.95511770833335,53.201116298879214L153.9972784722222,51.734547526134136L154.1760982638889,52.10877848780645L154.4843079861111,52.4911006390258L155.3842222222222,51.36861914655178L155.78693020833336,51.32430008903947L156.30012847222224,50.57641293727836L156.76825833333334,51.16254307212195L157.35850902777779,50.01108876490976L157.38758541666667,49.57152274556164L157.391946875,50.16711332814832L157.4152079861111,52.5742877096192L158.19736284722222,50.45734465294298L158.44451215277778,50.49403875907727L159.16706041666666,50.8911777403124L159.44764756944443,51.46100282342401L159.93903854166666,51.705816826795896L159.95793819444444,50.505092286973436L160.14402708333333,52.6407830582761L160.40426076388889,51.67527618101994L161.03085694444445,50.60909142006079L161.09337118055555,49.98835370662613L161.1791465277778,50.582718335963506L161.395765625,50.606875073795734L161.66762986111112,49.62730185213043L161.80574270833333,48.700171666917385L162.10086805555557,47.89104021451135L162.1575670138889,48.72547905020309L162.180828125,49.43601685946848L162.7376409722222,50.06538660209304L163.48199652777777,49.281562227598045L164.28741250000002,49.445948861981094L164.4604170138889,49.5787254043544L164.74681944444444,49.67799572106182L165.33270868055556,49.807796148955646L165.61038819444443,48.90307367691722L166.42452708333334,51.34562345208265L166.68330694444447,53.35174682116009L167.00023958333333,52.107800710472645L167.12236041666668,52.48010635371109L167.2546579861111,54.484038575482856L167.59194409722224,54.67434900364884L167.71115729166667,56.36277124614111L167.9277763888889,57.89752269295556L167.9510375,56.07762756651715L168.31594618055556,53.51426480986542L170.10705173611112,53.21998118602174L170.18701180555553,53.400154495991L170.22190347222224,53.16279618924905L170.72056354166665,55.16420228460984L171.17851666666667,53.779467770434564L171.53034097222223,52.477578136248255L171.575409375,51.29576317976628L171.62338541666668,50.78841543321822L172.21218229166666,50.877973889896396L172.26015833333332,48.920547929478204L172.38809444444445,48.68612170795896L172.49276944444446,48.272852394305914L172.63524375,49.06911001201817L172.87657777777778,45.92714186795919L173.33016944444446,45.74425625259187L174.15303125,46.798430627332664L174.44961041666664,46.128901850313696L174.5979,44.302497379568024L175.631565625,45.500847641611216L175.9136065972222,45.05716287745008L177.06503159722223,44.52636087541936L177.98239166666667,45.16121050216313L177.9969298611111,46.056232309089665L178.26734027777778,46.052609078180694L178.94627395833334,45.90774817036262L179.01314965277777,45.564973353326366L179.90579479166666,46.43479030370801L179.95958611111112,45.74599698762293L180.01773888888889,45.328368717432056L180.07153020833334,46.35838898854598L180.2677958333333,47.13369294683423L180.6007204861111,46.68349508072225L180.60217430555556,46.070974144078576L180.84205451388888,45.24661958681358L181.7579607638889,46.24435762813221L182.40345659722223,45.61000757960471L182.40491041666667,45.1402353930728L182.7043972222222,46.25986899662266L183.53016666666667,47.04502495410324L183.53888958333334,49.51660817297862L184.57255520833334,49.63726164139506L185.27474999999998,48.8456783343984L185.35761770833335,48.04222478667285L185.47973854166668,48.866602308005554L185.64111250000002,49.44165636291929L186.30114652777777,49.06914786948451L186.33603819444446,49.22949022539319L187.00479513888888,48.42305548856817L187.11383159722223,47.72254993971134L188.05590659722222,45.903666374311626L188.54729756944442,46.42101402259476L188.89039895833332,45.85496976319243L189.17389375,46.77670135830175L190.16830625,47.41408836532872L190.27152743055558,48.200136671652984L190.66987395833334,50.62700871877341L190.85450902777777,50.66696498975321L191.0871201388889,50.04549706220645L191.37061493055558,50.11326164170009L191.79658402777778,50.32596404895864L192.36066597222222,49.57171050120563L192.44934895833336,49.94982516537078L193.13991319444446,49.32421407740513L193.3027409722222,50.010278383950336L193.3550784722222,50.37487911698386L193.44521527777778,49.83319120528547L193.57605902777777,48.87030065618549L193.64729618055554,46.93158487628122L194.43090486111112,46.28919781722453L194.57337916666668,45.26602089264492L194.8612354166667,43.97093308909473L195.32209618055558,44.95463978018526L195.57796840277777,44.504890087880995L196.15949618055555,43.88265822195004L197.0506875,44.5869352568979L197.10884027777777,45.46858458835095L197.14663958333333,45.17478327237302L197.99712395833333,44.758647802278546L198.12796770833333,44.722954450622126L198.44199270833332,45.89443043413135L198.54085243055556,45.542873105003935L198.59900520833332,44.95338579450353L199.392790625,43.19901864362461L199.45675868055554,44.512773922119294L199.94378819444447,47.22241081562166L200.2069295138889,47.789941162630896L200.50060104166667,47.24377561779636L200.5122315972222,46.6106266274453L200.6779670138889,47.02187825041506L200.92220868055554,47.41729042537355L201.0515986111111,48.2687613828362L201.4499451388889,50.85059953026686L202.088171875,49.866882434383044L202.1695857638889,50.478451333801885L202.8267121527778,50.5079776289931L203.0462388888889,49.55346558037952L203.13056041666667,48.63877616519872L203.15382152777778,48.32632712010741L204.15404930555556,49.10712297952524L204.65416319444444,48.37866782442987L204.678878125,47.662372470558296L204.75011527777778,48.054420937788194L204.78936840277777,48.87252170115224L204.88677430555555,48.551869531037L205.72708194444445,47.81825400650473L205.80268055555555,47.658657177282834L206.14287430555555,47.96510574526883L206.20102708333334,48.81742374217049L206.28971006944445,48.00668136795343L206.45253784722223,48.278327516872395L206.84216145833332,48.912209050899406L206.86396875,48.117273860095196L206.97736666666668,48.92908933122854L207.91944166666667,48.10718039810564L208.11716111111113,47.5090623582951L209.04469791666665,46.79375612246557L209.7614309027778,45.09303765307618L209.8050454861111,45.76730531633996L210.53922430555554,46.29828907042028L210.62063819444444,44.7786030205211L210.66279895833335,44.412199861326116L210.78201215277778,44.40103701805063L211.6324965277778,45.02819045910272L212.32742222222222,44.63177141319244L212.33469131944446,44.25982284330178L213.0499704861111,45.32084055897161L213.14156111111112,44.879985074503L213.76088819444445,42.22772942419553L213.95715381944444,43.40092791034746L214.24937152777778,43.11666369074126L214.47471354166666,44.3627973216671L214.90213645833333,45.42868901807185L215.49674861111112,46.46384868769323L215.96633229166667,47.20332096178103L216.05210763888888,48.015503151317205L216.5275065972222,47.477124264756924L216.690334375,47.82195469542407L216.8240857638889,47.13098779731024L217.21952465277778,47.52054616043634L217.53645729166666,47.84586297296417L217.78796805555555,50.34861953281059L217.80832152777776,50.94235757952953L217.98714131944445,51.476721821576575L218.64426770833333,49.535278210847494L218.94666215277778,48.90560753261988L218.95974652777778,49.05196106507218L219.51074409722222,48.21776495856494L219.52818993055556,47.45687417699418L219.74044756944446,47.79867247358044L219.8800142361111,48.5766052262224L220.20276215277778,48.80137327502874L221.41960902777777,49.468921661811564L222.21920972222222,49.918000924201834L222.709146875,46.812515117495934L223.12203159722222,46.26800646288922L223.1743690972222,45.96506295945744L223.94780104166668,46.46109952065456L224.00304618055554,44.561018140017666L224.12807465277777,44.534973468873034L224.72123298611112,44.20304755055716L224.78520104166665,45.13825708121573L225.20390104166668,44.28074565880843L225.72291458333333,45.410471092927594L225.77525208333333,45.95690969792054L225.94825659722224,45.91264729955705L226.19831354166666,46.79321114102993L226.268096875,46.26580431264122L226.817640625,45.467481024234246L227.22034861111112,46.00316149323939L227.60415694444444,46.950531058201165L227.6783017361111,46.51359223809533L228.0577486111111,47.22786158571438L228.27727534722223,47.58244685571435L228.7570357638889,47.87123074157148L229.28331840277778,48.141250524557194L229.29494895833332,47.36778261495863L229.45486909722223,47.71343292489132L229.91572986111112,48.58586106097363L230.80982881944445,47.65667495487625L230.87525069444445,48.529721745102904L231.1151309027778,47.616263856306915L231.12094618055553,46.96103747067622L232.35378506944443,47.8328480093229L233.13157847222223,47.55042035124774L233.34238229166667,48.19640688755155L233.40344270833333,48.858709055939244L233.73055208333332,49.485123864631035L233.77416666666667,47.14609719245365L234.223396875,47.52403033035114L234.472,47.87934158303031L234.53887569444444,48.183950281870125L235.2541548611111,48.862669539397416L235.3719142361111,49.61511687117196L235.7571763888889,50.15577661262617L235.77171458333333,50.374341808506415L235.84149791666667,50.61150762765578L236.16860729166666,51.19918543631876L236.55677708333334,51.15158117840117L236.95803125,51.12390877484677L237.08160590277777,51.09900361164783L237.35928541666667,50.52030325048304L237.36946215277777,50.53553006829188L237.75327048611112,51.02460563289125L238.17342430555556,50.99445935531641L238.74913680555554,50.704356276927626L238.93522569444443,51.22206350637771L239.33066458333332,51.192400012882814L239.74645694444442,50.15427429730882L240.3570611111111,50.76238972472078L240.43265972222224,51.11246503796298L240.55768819444447,51.53878996273811L240.6013027777778,51.917425252178575L240.70161631944444,51.84856844124643L240.86299027777778,52.04956873997894L241.24970625,51.99784043740961L241.61606875,50.97525639366863L241.62333784722222,51.516445040016066L242.13653611111113,50.38017196458587L242.68462604166666,49.42832619669872L242.92450625,49.52240786274314L243.79243645833333,50.026824219325945L243.79970555555556,50.37965608310765L243.81860520833334,50.4190619033683L243.82296666666664,51.01081285588862L243.85204305555555,50.987102998871165L243.99306354166666,49.99479269898406L244.59058333333334,50.29519914337135L244.7752184027778,49.422650657605644L244.9293232638889,50.11404273470224L245.18083402777776,48.81963846123199L245.42362187499998,49.55616032939453L245.61116458333333,49.71837286788363L245.84377569444445,49.17659272395241L245.9629888888889,49.33124773727144L246.3104517361111,49.4603229635443L246.57068541666666,49.9810620957613L246.9806625,48.07287017189944L247.02427708333332,48.342954583280914L247.20600451388887,47.68585912495283L247.25979583333333,47.30687321245753L247.73374097222222,47.68390017692607L247.77880937499998,48.29631015923346L248.02450486111113,47.896736286167254L248.09719583333333,47.173005514693386L248.12336458333334,46.53681924893834L248.16988680555556,45.52428018118735L248.4286666666667,46.423452163068646L248.83864375,45.87233551819034L249.02327881944444,45.30047339494274L249.26170520833332,43.96654034116273L249.35329583333333,44.66748630704646L250.20523402777778,45.74336624777041L250.32735486111113,46.827972480136225L250.35061597222222,47.64228951783687L250.55851215277775,48.3448319946246L250.81293055555554,47.65214879516216L251.24180729166665,47.3321624870745L251.43516527777777,48.15168909550991L251.7869895833333,49.00557732881606L251.79135104166664,47.59950531022017L251.79425868055557,46.94089763634099L251.79716631944444,47.845065015564046L251.7986201388889,48.15815851400765L251.80443541666668,48.859685519749746L251.80734305555555,49.0864883963462L251.808796875,48.27918241385444L251.81025069444445,49.01917845818326L251.81461215277778,47.81908918379352L251.82042743055555,48.10949455112845L251.82188125000002,47.62240223887272L251.82624270833335,48.42807630069976L251.8306041666667,49.259382956344055L251.8451423611111,49.329901803566784L251.84659618055557,49.899083051781545L251.8509576388889,50.57823188946051L251.85241145833334,50.577551557657316L251.8553190972222,49.02439640189158L251.85968055555554,47.91481390455954L251.86258819444444,48.220932514103595L251.86404201388888,48.956639262693216L251.86694965277778,49.158575336423894L251.8684034722222,47.6866320884958L251.86985729166668,48.000397451074775L251.8713111111111,48.25750056311017L251.87421875,48.47877907822772L251.87712638888888,49.067329741833504L251.87858020833335,48.30239676765015L251.88439548611112,47.69992851945656L251.88584930555555,47.203221381796595L251.88875694444445,48.12161352933123L251.8931184027778,47.38550931925525L251.89602604166666,47.75467267304401L251.9003875,48.59263397716816L251.91783333333333,47.82965629373709L251.92364861111113,48.06843352150622L251.92801006944444,47.929333026498455L251.93527916666667,48.2087140095629L251.93818680555555,47.63584260860662L251.94254826388888,48.248001204888794L251.95127118055555,48.970886798685626L251.952725,46.850169547388504L251.9556326388889,47.25769544979249L251.95999409722222,47.62446876195611L251.96435555555553,45.972164742903345L251.965809375,46.60909112575587L251.96726319444446,46.57041058460885L251.98034756944446,47.29922666900512L251.9818013888889,45.42658971639031L251.98325520833333,46.431616459036974L251.98470902777777,45.89485481313332L251.98761666666667,45.507855046105675L251.99052430555557,46.03949811292367L251.9948857638889,45.30426258734562L252.0021548611111,44.83472204289674L252.00506249999998,45.42356412432136L252.00651631944444,44.74486485474637L252.0079701388889,44.77629265498601L252.00942395833331,43.10537767520168L252.02105451388888,44.30206847911009L252.0341388888889,44.17043305977049L252.0414079861111,45.260618325222026L252.05303854166667,45.00784220698554L252.0544923611111,45.60971512914412L252.05885381944444,46.545857901944004L252.06466909722224,45.94710068317818L252.06903055555557,46.97087632914605L252.07484583333334,46.41053155337431L252.07920729166668,46.86202125517974L252.08356875,47.27341912966176L252.08502256944445,46.632248645267026L252.08647638888888,47.041338066454585L252.08938402777778,47.17183283123771L252.10101458333335,47.532020976685374L252.10392222222222,48.10399030758825L252.1068298611111,48.37096270540087L252.10973750000002,48.4342378634322L252.11700659722223,48.65807121994612L252.12427569444444,49.31972124080865L252.13590625,49.47017768815634L252.13736006944444,48.4525599193407L252.13881388888888,48.912246784549495L252.14462916666668,49.609164963237404L252.148990625,49.56379132405651L252.15335208333335,50.241069334508L252.1649826388889,49.24244811534291L252.1678902777778,47.35248901809433L252.17370555555556,45.81335440199919L252.175159375,46.45099039037069L252.17661319444446,47.434491351333634L252.1780670138889,47.495327930485985L252.1809746527778,46.79656656600878L252.18388229166666,47.21450990940792L252.18824375,48.16211606132427L252.19696666666667,47.50287588376327L252.19987430555554,47.8451311525298L252.21005104166667,47.04058946584826L252.21586631944444,47.980301947834846L252.21877395833334,47.89552889590851L252.22458923611111,48.68906172060338L252.22604305555555,46.945469834257324L252.22895069444445,47.318179993688716L252.23331215277778,45.10987628003414L252.23621979166666,45.37788865203072L252.24058125,45.952871215399085L252.2434888888889,46.460241236716314L252.24785034722223,46.91181711304469L252.24930416666666,47.328349687454505L252.25075798611113,46.90925757585188L252.26529618055557,46.17807467540956L252.26675,45.9953814935829L252.2696576388889,45.932100487081755L252.27111145833334,46.50729043837356L252.27256527777777,46.933932823107625L252.27401909722224,44.875310969368286L252.27838055555557,45.37917987243148L252.27983437499998,46.35354759947401L252.2827420138889,45.62736426809806L252.28710347222224,45.160913555573956L252.2900111111111,45.73230791430228L252.29291874999998,46.29207712287203L252.29582638888888,46.623926553441976L252.3089107638889,46.37136246952636L252.31036458333332,46.81159765114515L252.31472604166666,46.31775217174493L252.31763368055556,45.5192912402847L252.32054131944443,46.064962116256225L252.32344895833336,46.53583733320204L252.32635659722223,46.974796457024695L252.3278104166667,47.36985966846507L252.332171875,47.28544513019L252.34089479166667,46.68352918859958L252.3423486111111,47.13806198402531L252.34816388888888,47.52691292847993L252.3525253472222,47.85159306420337L252.35688680555555,48.68491947206874L252.35979444444445,46.380398953433286L252.36124826388888,44.129330486661416L252.36706354166668,43.60534029513809L252.37287881944442,43.406834837052884L252.37724027777776,44.11317992477615L252.37869409722222,44.94611907515568L252.3801479166667,46.0194214533544L252.3816017361111,45.6098507365904L252.38596319444443,46.14140852007421L252.39177847222223,45.517353382352496L252.3946861111111,46.058160901260095L252.4005013888889,46.52465909684835L252.40195520833333,47.53113604430638L252.4048628472222,46.86419386844716L252.40631666666667,49.49040305303103L252.41358576388888,50.043534176299346L252.4179472222222,50.50089504438371L252.41940104166667,49.84546268280248L252.42230868055555,47.617059271665084L252.42521631944444,47.57872477307001L252.42812395833334,48.16119515290586L252.42957777777778,48.43256135190097L252.43393923611112,45.35930521671088L252.43539305555555,46.4671461236112L252.43830069444445,45.85603151125008L252.44266215277779,46.76754264583934L252.44411597222222,47.66375980982684L252.44702361111112,48.374269543129884L252.4557465277778,47.8354140173883L252.46010798611113,48.508529758506626L252.46446944444446,48.740105354084506L252.46592326388887,48.452923390104644L252.47173854166667,48.70523105109416L252.48046145833334,50.92482223169904L252.4993611111111,50.3382542942434L252.5051763888889,50.144114579104766L252.50808402777778,48.90738883547999L252.515353125,48.10787852336057L252.51971458333333,48.82454781388165L252.52262222222222,49.03969303249349L252.5284375,48.79335230067272L252.53570659722223,48.03053135631973L252.541521875,47.47547822068776L252.54733715277777,46.86973039861897L252.5516986111111,47.325871644471334L252.5647829861111,46.90197019430991L252.57350590277778,45.71637317487895L252.58804409722222,45.27136442881962L252.5894979166667,45.56368512879479L252.5909517361111,44.860859473058156L252.59531319444443,45.447087811466645L252.5967670138889,45.68643617317713L252.6040361111111,45.37084969871654L252.60694375,44.93005044313057L252.61275902777777,45.716702541674664L252.61421284722223,46.65731800179293L252.61566666666667,46.0828147730422L252.6171204861111,46.99693329573796L252.61857430555557,46.80315425187845L252.620028125,45.809495969547754L252.62148194444444,46.553717801164396L252.6331125,46.990888878190816L252.63747395833335,46.20602856180031L252.64619687500002,47.011739991334565L252.66655034722223,46.34110884934398L252.66800416666666,45.54031225012386L252.6694579861111,44.89039531082574L252.6796347222222,46.05018435117174L252.68690381944447,46.53770877319744L252.6912652777778,45.82345218159196L252.69417291666667,45.731849820575604L252.69562673611114,46.266379124232344L252.69708055555554,44.79034121180911L252.698534375,44.26093566205674L252.70434965277778,42.81855638156537L252.71598020833332,41.29284360055166L252.71743402777778,41.11318781192509L252.72179548611112,42.210726173589705L252.724703125,41.15542498480218L252.72615694444445,42.14759677203625L252.72906458333333,43.5361513805469L252.73633368055553,44.320593385349326L252.74651041666667,44.04550547538582L252.74941805555554,44.718326356418686L252.75377951388887,45.33397943506253L252.75668715277777,44.93732434869912L252.76395625,45.84462048525779L252.76831770833334,46.16052986530343L252.77267916666665,45.88856259305882L252.78576354166665,46.38719204803863L252.78721736111112,46.24427284323477L252.79157881944445,46.737674130339855L252.7959402777778,47.292992431591586L252.79884791666666,46.64986461700386L252.80030173611112,46.18230672673204L252.80902465277777,45.88793319691595L252.8133861111111,45.380254162938655L252.81483993055556,44.96380017521622L252.82210902777777,45.155391586266006L252.82501666666664,44.756366713353714L252.82792430555557,44.34667289916118L252.8322857638889,44.827548466387924L252.8337395833333,45.60927933403485L252.83519340277778,45.13957997205992L252.84537013888888,45.723221974853914L252.85263923611112,46.26367120593997L252.85554687500002,45.99150408534595L252.85700069444445,45.33186796252565L252.8584545138889,45.683881166273096L252.8642697916667,46.056321621074346L252.8657236111111,46.84160374468118L252.87299270833336,47.23987194164167L252.87444652777776,46.93582760462033L252.88026180555556,47.32973055844403L252.8846232638889,48.24052893117107L252.88607708333333,48.51407603805396L252.88898472222223,46.47949700567713L252.89916145833334,46.94937587653797L252.90061527777777,47.72626686031276L252.907884375,48.52155445999577L252.92533020833335,48.77711329971049L252.93259930555556,48.981830541167994L252.93550694444443,48.67047605847975L252.9369607638889,47.93511416691749L252.94132222222223,46.45908846451147L252.94277604166666,47.4620081894889L252.95586041666667,48.36463594196857L252.96458333333334,48.83311520491455L252.97039861111114,49.0221179701374L252.97185243055554,47.280620458837916L252.97766770833334,46.43644412723984L252.9805753472222,46.854999714515856L252.9834829861111,45.03184260020714L252.986390625,45.63131548304355L252.98929826388888,46.15566964902493L252.99365972222222,47.08778839840812L252.99511354166665,46.48035241571017L252.99656736111112,47.36483145985346L253.00092881944445,47.28597688529666L253.0023826388889,46.658722053909855L253.00383645833332,46.675764134233134L253.0052902777778,47.338416292238406L253.00965173611112,47.752746091586005L253.01110555555553,48.51504291099883L253.012559375,49.12525290561322L253.01692083333333,48.8046133293376L253.0183746527778,48.581780567832425L253.02128229166667,48.800973939620604L253.02273611111113,49.49890511708709L253.0285513888889,49.66684317680695L253.03145902777777,49.185844573411984L253.03291284722224,48.348374401785065" style="fill: none;" fill="none"></path></g></g></g></g><g opacity="0.2"><g><g><g><path stroke="rgb(255, 112, 67)" stroke-width="2px" d="M29.967580208333334,147.41571428571427L29.98647986111111,149.18571428571428L30.595630208333333,146.10085714285714L30.919831944444443,145.494L30.944546874999997,145.89857142857142L31.00269965277778,144.2297142857143L31.700532986111114,143.82514285714285L32.71820659722222,101.04171428571428L33.30845729166666,100.63714285714286L33.35788715277778,91.98942857142858L33.68935798611111,95.934L33.73151875,102.20485714285714L33.85945486111111,83.99914285714286L34.634340625,82.73485714285714L34.64887881944444,80.35799999999999L34.67213993055555,88.39885714285714L34.707031597222226,79.34657142857142L35.60985347222222,90.92742857142858L35.82065729166666,81.52114285714285L36.07943715277778,72.41828571428572L36.181204513888886,82.17857142857143L36.439984375,86.62885714285714L36.46324548611111,81.16714285714285L36.78163194444444,81.774L37.47365,75.50314285714286L37.611762847222224,76.26171428571428L38.34158020833333,79.34657142857142L38.693404513888886,91.43314285714285L39.22695625,87.13457142857143L39.292378125,81.82457142857143L39.92188194444444,78.942L40.169031249999996,80.91428571428573L40.952639930555556,90.624L41.0849375,80.81314285714285L41.452753819444446,82.07742857142858L42.08661909722222,81.67285714285714L42.31777638888889,81.72342857142857L42.405005555555555,80.30742857142857L42.41518229166667,75.80657142857143L43.11156180555555,75.09857142857142L43.65383645833333,54.010285714285715L43.73525034722222,73.93542857142857L43.83411006944444,81.72342857142857L44.09579756944444,82.33028571428572L44.49559791666667,82.02685714285714L44.561019791666666,80.05457142857144L44.92447465277778,87.69085714285714L45.364981944444445,87.438L45.379520138888886,81.47057142857143L45.75169791666667,87.13457142857143L45.953778819444445,73.58142857142857L45.993031944444446,80.76257142857143L46.14132152777778,74.84571428571428L46.35503298611111,82.128L46.683596180555554,78.38571428571429L46.735933680555554,79.44771428571428L47.459935763888886,81.67285714285714L47.98767222222222,78.08228571428572L48.207198958333336,79.39714285714287L48.27407465277778,90.01714285714286L48.57937673611111,79.14428571428572L49.51418263888889,77.82942857142858L49.63921111111111,73.42971428571428L49.66392604166666,79.64999999999999L50.03755763888889,80.05457142857144L50.450442361111115,82.02685714285714L50.501326041666665,70.90114285714286L50.60745486111111,77.93057142857143L50.76155972222222,78.99257142857142L52.19066423611111,82.482L52.775099652777776,79.19485714285713L53.14582361111111,80.50971428571428L53.26358298611111,73.986L53.41623402777778,81.97628571428572L53.91925555555556,79.59942857142858L54.465891666666664,72.924L54.94855972222223,81.72342857142857L54.989266666666666,76.00885714285714L55.496649652777776,73.83428571428571L56.973730208333336,72.51942857142856L57.39969930555556,82.482L57.46075972222223,82.27971428571429L57.90562847222222,80.71199999999999L57.99431145833333,50.77371428571428L58.447903124999996,82.38085714285714L58.51041736111111,80.61085714285714L58.60927708333334,72.06428571428572L59.02797708333333,72.82285714285715L59.5077375,53.85857142857142L59.56152881944445,70.85057142857143L59.65893472222222,75.45257142857143L60.22592430555556,78.234L60.289892361111114,60.837428571428575L60.461443055555556,78.18342857142858L60.67951597222222,56.74114285714286L61.50092395833334,41.01342857142859L61.77714965277777,76.51457142857143L62.354315972222224,79.95342857142857L62.914036458333335,75.19971428571428L62.96782777777778,73.53085714285716L63.63513090277778,54.870000000000005L63.882280208333334,76.81800000000001L64.42019340277777,56.18485714285714L64.67897326388889,44.35114285714286L64.83743958333334,72.16542857142856L65.37680659722223,73.278L65.46548958333332,56.08371428571428L65.49601979166667,82.58314285714285L65.55126493055556,79.54885714285714L65.92344270833334,73.42971428571428L66.47734791666667,81.16714285714285L66.56312326388888,55.679142857142864L68.02857326388889,74.18828571428571L68.7162298611111,56.08371428571428L69.11893784722223,79.44771428571428L69.38789444444444,71.60914285714286L69.53763784722223,78.68914285714287L69.85020902777778,55.57799999999999L70.27763194444444,71.45742857142857L70.96238090277777,77.93057142857143L71.375265625,73.88485714285716L71.46685625,74.03657142857142L71.60351527777777,76.41342857142857L72.21993472222222,74.39057142857142L72.85816145833333,73.83428571428571L72.86833819444445,50.72314285714286L73.42078958333335,74.23885714285716L73.42369722222222,77.98114285714287L74.3686798611111,70.74942857142857L74.39048715277778,73.78371428571428L75.36163854166666,74.54228571428571L75.54772743055555,73.53085714285716L75.55208888888889,56.69057142857143L75.93008194444444,54.010285714285715L76.17432361111112,75.19971428571428L77.52928333333334,73.17685714285714L78.11662638888889,50.77371428571428L78.13407222222222,56.53885714285714L78.49171180555555,56.38714285714286L78.55567986111112,50.77371428571428L79.14302291666667,73.07571428571428L79.18082222222222,46.57628571428572L79.89755520833334,40.8617142857143L80.07782881944443,40.1537142857143L80.22175694444445,61.444285714285726L80.47762916666666,74.23885714285716L80.56485833333333,55.62857142857143L80.71314791666667,76.51457142857143L80.85998368055556,74.99742857142857L81.44296527777779,71.60914285714286L81.53310208333333,76.16057142857143L82.43301631944443,74.23885714285716L82.58712118055556,71.40685714285715L82.93603784722221,72.26657142857142L83.24570138888889,56.18485714285714L83.40707534722222,54.26314285714287L83.49721215277778,73.17685714285714L83.78506840277778,72.11485714285715L84.20231458333333,74.03657142857142L84.36950381944445,77.42485714285714L84.4203875,53.049428571428564L84.538146875,55.12285714285713L84.65736006944444,73.42971428571428L84.682075,74.79514285714286L85.07024479166667,73.78371428571428L85.270871875,78.73971428571429L85.27814097222222,75.75600000000001L85.54128229166668,80.56028571428573L85.73318645833334,40.81114285714284L86.17223993055556,54.92057142857142L86.422296875,80.00399999999999L86.46881909722222,39.85028571428572L87.18700590277777,54.76885714285713L87.41234791666668,73.17685714285714L87.85721666666666,55.224000000000004L88.44310590277777,55.27457142857142L88.5579576388889,50.87485714285715L89.68030625,50.77371428571428L90.45955347222221,51.02657142857143L90.46973020833333,50.976L90.66018055555556,46.323428571428565L90.95821354166667,74.79514285714286L90.97711319444444,40.9122857142857L90.98583611111111,72.41828571428572L91.31876076388889,51.02657142857143L91.45832743055556,56.38714285714286L92.074746875,70.59771428571429L92.14162256944445,71.81142857142856L92.45273993055557,73.68257142857142L92.833640625,56.28599999999999L93.29740902777779,79.24542857142858L93.65068715277778,40.96285714285713L93.68557881944444,74.99742857142857L93.95453541666666,56.08371428571428L94.194415625,40.8617142857143L94.23512256944444,50.622L94.33979756944446,54.31371428571428L94.51716354166668,56.38714285714286L94.64946111111111,56.08371428571428L94.85444965277777,40.81114285714284L94.97802430555556,40.00200000000001L95.34147916666667,40.507714285714286L95.36328645833333,50.622L95.37055555555555,41.01342857142859L96.13817222222222,71.65971428571427L96.58304097222222,28.97742857142856L96.9653954861111,55.62857142857143L97.439340625,45.81771428571429L97.50040104166666,53.757428571428576L97.57309201388888,39.445714285714274L97.94963125000001,40.96285714285713L98.55878159722222,42.78342857142857L98.72887847222222,74.49171428571428L98.80447708333334,55.02171428571428L98.82773819444445,56.48828571428572L99.0748875,76.51457142857143L99.58663194444443,78.38571428571429L100.43711631944444,74.49171428571428L100.57668298611111,50.82428571428571L100.61448229166668,32.51742857142858L100.88634652777777,56.134285714285724L101.38500659722222,67.86685714285714L101.49695069444445,53.55514285714287L101.62488680555555,50.77371428571428L101.79643750000001,40.507714285714286L101.82987534722223,36.36085714285713L102.11627777777778,73.68257142857142L102.35034270833333,56.08371428571428L102.95222395833333,40.254857142857134L103.16884305555556,71.60914285714286L103.22263437500001,55.325142857142865L103.66023402777778,72.82285714285715L103.7561861111111,50.82428571428571L103.85359201388889,49.35771428571428L104.05567291666667,39.79971428571429L104.060034375,56.38714285714286L104.83637395833334,54.111428571428576L105.04717777777778,53.70685714285713L105.12132256944444,56.48828571428572L105.33939548611112,46.72800000000001L105.76972604166667,40.76057142857144L105.84532465277778,43.542L106.035775,56.18485714285714L106.08084340277779,47.03142857142856L106.12591180555555,72.36771428571427L106.24803263888889,72.62057142857142L106.57368819444444,74.59285714285713L106.73796979166666,54.26314285714287L107.06217152777778,76.11000000000001L107.2235454861111,52.89771428571427L107.34566631944445,56.79171428571428L107.47651006944444,45.514285714285705L107.61026145833334,53.757428571428576L108.23976527777778,40.71000000000001L108.28774131944444,54.819428571428574L108.4200388888889,54.162000000000006L108.83001597222223,54.971142857142866L109.21237048611111,72.57000000000001L109.57146388888889,39.14228571428572L109.93055729166666,39.90085714285715L110.08175451388888,55.52742857142857L110.17334513888889,55.42628571428571L110.21259826388888,55.12285714285713L110.58477604166666,56.134285714285724L111.060175,72.82285714285715L111.23463333333333,55.325142857142865L111.58645763888889,56.28599999999999L112.96467847222222,55.83085714285714L113.36593263888889,51.02657142857143L113.690134375,54.66771428571428L113.7293875,40.457142857142856L114.27893125,47.081999999999994L114.449028125,71.71028571428572L114.78049895833333,72.82285714285715L114.94332673611112,38.080285714285736L115.3940107638889,41.06399999999999L115.63098333333333,38.737714285714276L115.74728888888889,47.03142857142856L115.91593194444444,54.617142857142866L116.02206076388889,41.316857142857145L116.48437534722223,56.33657142857143L116.90598298611111,56.18485714285714L117.68377638888889,39.395142857142844L117.72157569444445,40.96285714285713L117.74192916666667,43.18799999999999L117.7826361111111,50.82428571428571L118.1620829861111,56.48828571428572L118.57060625,73.632L118.58950590277777,56.134285714285724L118.69418090277777,50.976L118.76832569444444,72.16542857142856L118.79740208333334,56.18485714285714L119.22918645833333,40.76057142857144L119.24372465277777,40.9122857142857L119.74238472222223,54.971142857142866L120.25703680555554,73.12628571428571L120.51727048611112,50.87485714285715L121.31250972222222,56.28599999999999L121.43317673611111,56.43771428571428L122.30982986111111,71.76085714285715L122.35344444444445,75.14914285714286L122.46538854166666,43.89599999999999L122.75469861111111,54.71828571428571L122.86518888888888,41.01342857142859L123.10216145833333,56.38714285714286L123.11669965277778,74.54228571428571L123.43653993055557,40.81114285714284L123.46997777777777,55.27457142857142L124.15908819444445,40.81114285714284L124.26376319444444,71.86200000000001L124.71153958333333,40.8617142857143L124.82348368055555,56.43771428571428L124.94124305555556,50.72314285714286L124.97031944444444,50.06571428571428L125.27271388888889,72.97457142857142L125.3250513888889,50.77371428571428L125.33813576388889,55.72971428571428L125.78009687500001,72.72171428571427L125.78300451388888,50.87485714285715L126.66547291666666,54.66771428571428L127.05364270833333,55.62857142857143L127.219378125,54.870000000000005L127.48978854166667,40.8617142857143L127.50432673611111,54.26314285714287L127.9288420138889,38.48485714285715L128.056778125,50.92542857142857L128.20216006944443,43.89599999999999L128.3286423611111,71.91257142857143L128.344634375,56.18485714285714L128.58596840277778,55.93199999999999L129.29979375,73.93542857142857L129.7388472222222,37.877999999999986L130.13719375,56.28599999999999L130.20988472222223,44.60400000000001L130.6794684027778,56.38714285714286L130.9266177083333,40.76057142857144L131.07490729166668,54.66771428571428L131.55466770833334,41.11457142857142L132.10857291666667,52.796571428571426L132.2408704861111,56.03314285714286L132.68719305555555,33.629999999999995L132.91544270833333,71.91257142857143L133.3457732638889,55.679142857142864L133.46789409722223,47.53714285714287L133.8371642361111,56.134285714285724L133.89095555555556,38.88942857142857L134.28639444444445,54.26314285714287L134.79668506944446,72.26657142857142L134.89554479166665,72.51942857142856L135.34622881944446,71.55857142857143L135.357859375,50.82428571428571L135.69369166666667,39.69857142857143L136.43950104166666,54.31371428571428L136.45840069444444,55.98257142857143L136.9352534722222,38.28257142857143L137.53422708333332,50.72314285714286L137.57493402777777,41.01342857142859L137.6316329861111,56.03314285714286L138.58097708333332,40.81114285714284L138.6885597222222,50.87485714285715L139.28462569444446,41.97428571428571L139.7178638888889,43.23857142857145L139.7513017361111,56.03314285714286L140.35754444444444,74.84571428571428L140.57997881944445,56.33657142857143L140.65703125,56.134285714285724L140.67156944444446,46.475142857142856L142.26786319444446,40.8617142857143L142.58334201388888,53.504571428571424L142.76506944444444,40.8617142857143L142.999134375,46.12114285714284L143.16196215277776,32.36571428571429L143.46144895833334,50.82428571428571L143.5457704861111,44.755714285714305L143.65771458333336,50.72314285714286L145.4037517361111,29.938285714285712L145.7701142361111,56.38714285714286L145.81809027777777,40.96285714285713L145.8544357638889,56.134285714285724L145.88932743055554,54.819428571428574L146.41415625,55.07228571428571L146.64531354166667,54.76885714285713L146.80523368055557,50.77371428571428L146.89682430555555,72.31714285714285L146.9317159722222,54.76885714285713L147.4841673611111,50.82428571428571L147.5554045138889,40.355999999999995L147.8752447916667,49.35771428571428L147.91740555555555,56.134285714285724L148.26196076388888,53.90914285714287L148.48584895833335,40.76057142857144L148.6152388888889,56.23542857142857L148.89582604166665,56.33657142857143L149.9498451388889,50.72314285714286L150.21880173611112,50.92542857142857L150.66948576388887,41.11457142857142L150.86138993055556,50.82428571428571L150.91081979166665,73.632L151.137615625,74.44114285714286L151.27718229166666,51.987428571428566L151.8863326388889,72.01371428571427L151.9284934027778,42.985714285714295L152.16837361111112,56.33657142857143L153.07119548611112,41.316857142857145L153.18168576388888,55.62857142857143L153.3256138888889,72.72171428571427L153.40993541666668,26.145428571428567L153.95511770833335,56.03314285714286L153.9972784722222,38.53542857142858L154.1760982638889,55.47685714285714L154.4843079861111,55.93199999999999L155.3842222222222,41.266285714285715L155.78693020833336,50.92542857142857L156.30012847222224,43.845428571428556L156.76825833333334,56.43771428571428L157.35850902777779,39.647999999999996L157.38758541666667,45.615428571428566L157.391946875,55.52742857142857L157.4152079861111,74.23885714285716L158.19736284722222,31.40485714285714L158.44451215277778,50.82428571428571L159.16706041666666,54.465428571428575L159.44764756944443,56.58942857142857L159.93903854166666,53.90914285714287L159.95793819444444,39.69857142857143L160.14402708333333,71.86200000000001L160.40426076388889,42.985714285714295L161.03085694444445,41.01342857142859L161.09337118055555,44.40171428571429L161.1791465277778,55.93199999999999L161.395765625,50.82428571428571L161.66762986111112,40.81114285714284L161.80574270833333,40.355999999999995L162.10086805555557,40.60885714285715L162.1575670138889,56.23542857142857L162.180828125,55.83085714285714L162.7376409722222,55.72971428571428L163.48199652777777,42.227142857142866L164.28741250000002,50.92542857142857L164.4604170138889,50.77371428571428L164.74681944444444,50.57142857142857L165.33270868055556,50.976L165.61038819444443,40.76057142857144L166.42452708333334,73.32857142857142L166.68330694444447,71.40685714285715L167.00023958333333,40.9122857142857L167.12236041666668,55.83085714285714L167.2546579861111,72.51942857142856L167.59194409722224,56.38714285714286L167.71115729166667,71.55857142857143L167.9277763888889,71.71028571428572L167.9510375,39.69857142857143L168.31594618055556,30.444000000000017L170.10705173611112,50.57142857142857L170.18701180555553,55.02171428571428L170.22190347222224,51.02657142857143L170.72056354166665,73.17685714285714L171.17851666666667,41.316857142857145L171.53034097222223,40.76057142857144L171.575409375,40.65942857142858L171.62338541666668,46.222285714285704L172.21218229166666,51.68400000000001L172.26015833333332,31.30371428571428L172.38809444444445,46.57628571428572L172.49276944444446,44.553428571428555L172.63524375,56.23542857142857L172.87657777777778,17.649428571428587L173.33016944444446,44.09828571428571L174.15303125,56.28599999999999L174.44961041666664,40.10314285714284L174.5979,27.864857142857147L175.631565625,56.28599999999999L175.9136065972222,41.06399999999999L177.06503159722223,39.74914285714286L177.98239166666667,50.87485714285715L177.9969298611111,54.111428571428576L178.26734027777778,46.02000000000001L178.94627395833334,44.60400000000001L179.01314965277777,42.47999999999999L179.90579479166666,54.26314285714287L179.95958611111112,39.546857142857135L180.01773888888889,41.5697142857143L180.07153020833334,55.62857142857143L180.2677958333333,54.111428571428576L180.6007204861111,42.63171428571428L180.60217430555556,40.55828571428572L180.84205451388888,37.827428571428584L181.7579607638889,55.224000000000004L182.40345659722223,39.90085714285715L182.40491041666667,40.9122857142857L182.7043972222222,56.33657142857143L183.53016666666667,54.111428571428576L183.53888958333334,71.76085714285715L184.57255520833334,50.72314285714286L185.27474999999998,41.72142857142859L185.35761770833335,40.81114285714284L185.47973854166668,56.28599999999999L185.64111250000002,54.617142857142866L186.30114652777777,45.71657142857143L186.33603819444446,50.672571428571416L187.00479513888888,41.165142857142854L187.11383159722223,41.418000000000006L188.05590659722222,29.533714285714268L188.54729756944442,51.07714285714286L188.89039895833332,40.76057142857144L189.17389375,55.07228571428571L190.16830625,53.150571428571425L190.27152743055558,55.27457142857142L190.66987395833334,72.46885714285715L190.85450902777777,51.02657142857143L191.0871201388889,44.45228571428572L191.37061493055558,50.72314285714286L191.79658402777778,52.24028571428572L192.36066597222222,42.78342857142857L192.44934895833336,53.35285714285713L193.13991319444446,43.69371428571429L193.3027409722222,56.18485714285714L193.3550784722222,53.656285714285715L193.44521527777778,44.958L193.57605902777777,40.2042857142857L193.64729618055554,29.483142857142866L194.43090486111112,40.507714285714286L194.57337916666668,36.057428571428574L194.8612354166667,32.31514285714286L195.32209618055558,53.80800000000001L195.57796840277777,40.457142857142856L196.15949618055555,38.28257142857143L197.0506875,50.92542857142857L197.10884027777777,53.40342857142858L197.14663958333333,42.53057142857145L197.99712395833333,41.01342857142859L198.12796770833333,44.40171428571429L198.44199270833332,56.43771428571428L198.54085243055556,42.37885714285716L198.59900520833332,39.647999999999996L199.392790625,27.409714285714273L199.45675868055554,56.33657142857143L199.94378819444447,71.60914285714286L200.2069295138889,52.89771428571427L200.50060104166667,42.3282857142857L200.5122315972222,40.9122857142857L200.6779670138889,50.72314285714286L200.92220868055554,50.976L201.0515986111111,55.93199999999999L201.4499451388889,74.08714285714287L202.088171875,41.01342857142859L202.1695857638889,55.98257142857143L202.8267121527778,50.77371428571428L203.0462388888889,40.96285714285713L203.13056041666667,40.406571428571425L203.15382152777778,45.514285714285705L204.15404930555556,56.134285714285724L204.65416319444444,41.82257142857142L204.678878125,41.215714285714284L204.75011527777778,51.58285714285715L204.78936840277777,56.23542857142857L204.88677430555555,45.666L205.72708194444445,41.215714285714284L205.80268055555555,46.222285714285704L206.14287430555555,50.72314285714286L206.20102708333334,56.48828571428572L206.28971006944445,40.71000000000001L206.45253784722223,50.72314285714286L206.84216145833332,54.617142857142866L206.86396875,40.96285714285713L206.97736666666668,56.23542857142857L207.91944166666667,40.71000000000001L208.11716111111113,42.126000000000005L209.04469791666665,40.355999999999995L209.7614309027778,29.78657142857142L209.8050454861111,51.835714285714275L210.53922430555554,51.07714285714286L210.62063819444444,31.101428571428585L210.66279895833335,41.11457142857142L210.78201215277778,44.30057142857143L211.6324965277778,50.672571428571416L212.32742222222222,41.06399999999999L212.33469131944446,40.9122857142857L213.0499704861111,54.870000000000005L213.14156111111112,40.9122857142857L213.76088819444445,18.357428571428585L213.95715381944444,53.959714285714284L214.24937152777778,40.55828571428572L214.47471354166666,55.57799999999999L214.90213645833333,55.02171428571428L215.49674861111112,55.780285714285725L215.96633229166667,53.85857142857142L216.05210763888888,55.325142857142865L216.5275065972222,42.63171428571428L216.690334375,50.92542857142857L216.8240857638889,40.9122857142857L217.21952465277778,51.02657142857143L217.53645729166666,50.77371428571428L217.78796805555555,72.87342857142856L217.80832152777776,56.28599999999999L217.98714131944445,56.28599999999999L218.64426770833333,32.06228571428571L218.94666215277778,43.23857142857145L218.95974652777778,50.36914285714286L219.51074409722222,40.71000000000001L219.52818993055556,40.60885714285715L219.74044756944446,50.87485714285715L219.8800142361111,55.57799999999999L220.20276215277778,50.82428571428571L221.41960902777777,55.47685714285714L222.21920972222222,53.959714285714284L222.709146875,18.86314285714286L223.12203159722222,41.367428571428576L223.1743690972222,43.23857142857145L223.94780104166668,50.92542857142857L224.00304618055554,27.460285714285703L224.12807465277777,44.30057142857143L224.72123298611112,41.215714285714284L224.78520104166665,53.55514285714287L225.20390104166668,36.56314285714285L225.72291458333333,55.57799999999999L225.77525208333333,50.87485714285715L225.94825659722224,45.514285714285705L226.19831354166666,54.71828571428571L226.268096875,41.51914285714284L226.817640625,38.28257142857143L227.22034861111112,50.82428571428571L227.60415694444444,55.47685714285714L227.6783017361111,42.58114285714285L228.0577486111111,53.656285714285715L228.27727534722223,50.77371428571428L228.7570357638889,50.47028571428571L229.28331840277778,50.57142857142857L229.29494895833332,40.406571428571425L229.45486909722223,50.82428571428571L229.91572986111112,56.43771428571428L230.80982881944445,39.29399999999998L230.87525069444445,56.38714285714286L231.1151309027778,39.395142857142844L231.12094618055553,41.06399999999999L232.35378506944443,55.679142857142864L233.13157847222223,45.00857142857143L233.34238229166667,54.010285714285715L233.40344270833333,54.819428571428574L233.73055208333332,55.12285714285713L233.77416666666667,26.094857142857137L234.223396875,50.92542857142857L234.472,51.07714285714286L234.53887569444444,50.92542857142857L235.2541548611111,54.971142857142866L235.3719142361111,56.38714285714286L235.7571763888889,55.02171428571428L235.77171458333333,52.341428571428565L235.84149791666667,52.74600000000001L236.16860729166666,56.48828571428572L236.55677708333334,50.72314285714286L236.95803125,50.87485714285715L237.08160590277777,50.87485714285715L237.35928541666667,45.31200000000001L237.36946215277777,50.672571428571416L237.75327048611112,55.42628571428571L238.17342430555556,50.72314285714286L238.74913680555554,48.093428571428575L238.93522569444443,55.88142857142857L239.33066458333332,50.92542857142857L239.74645694444442,40.81114285714284L240.3570611111111,56.23542857142857L240.43265972222224,54.26314285714287L240.55768819444447,55.37571428571428L240.6013027777778,55.325142857142865L240.70161631944444,51.22885714285715L240.86299027777778,53.85857142857142L241.24970625,51.53228571428572L241.61606875,41.77199999999999L241.62333784722222,56.38714285714286L242.13653611111113,40.1537142857143L242.68462604166666,40.8617142857143L242.92450625,50.36914285714286L243.79243645833333,54.56657142857142L243.79970555555556,53.55514285714287L243.81860520833334,50.77371428571428L243.82296666666664,56.33657142857143L243.85204305555555,50.77371428571428L243.99306354166666,41.06399999999999L244.59058333333334,52.99885714285713L244.7752184027778,41.5697142857143L244.9293232638889,56.33657142857143L245.18083402777776,37.16999999999999L245.42362187499998,56.18485714285714L245.61116458333333,51.17828571428572L245.84377569444445,44.30057142857143L245.9629888888889,50.72314285714286L246.3104517361111,50.622L246.57068541666666,54.66771428571428L246.9806625,30.899142857142863L247.02427708333332,50.77371428571428L247.20600451388887,41.77199999999999L247.25979583333333,43.89599999999999L247.73374097222222,51.07714285714286L247.77880937499998,53.80800000000001L248.02450486111113,44.30057142857143L248.09719583333333,40.65942857142858L248.12336458333334,40.81114285714284L248.16988680555556,36.41142857142859L248.4286666666667,54.516000000000005L248.83864375,40.9122857142857L249.02327881944444,40.1537142857143L249.26170520833332,31.961142857142875L249.35329583333333,50.976L250.20523402777778,55.42628571428571L250.32735486111113,56.58942857142857L250.35061597222222,54.971142857142866L250.55851215277775,54.66771428571428L250.81293055555554,41.418000000000006L251.24180729166665,44.45228571428572L251.43516527777777,55.52742857142857L251.7869895833333,56.69057142857143L251.79135104166664,34.94485714285713L251.79425868055557,41.01342857142859L251.79716631944444,55.98257142857143L251.7986201388889,50.976L251.80443541666668,55.17342857142857L251.80734305555555,51.127714285714276L251.808796875,41.01342857142859L251.81025069444445,55.679142857142864L251.81461215277778,37.018285714285724L251.82042743055555,50.72314285714286L251.82188125000002,43.23857142857145L251.82624270833335,55.679142857142864L251.8306041666667,56.74114285714286L251.8451423611111,49.96457142857142L251.84659618055557,55.02171428571428L251.8509576388889,56.69057142857143L251.85241145833334,50.57142857142857L251.8553190972222,35.04599999999999L251.85968055555554,37.928571428571445L251.86258819444444,50.976L251.86404201388888,55.57799999999999L251.86694965277778,50.976L251.8684034722222,34.439142857142855L251.86985729166668,50.82428571428571L251.8713111111111,50.57142857142857L251.87421875,50.47028571428571L251.87712638888888,54.364285714285714L251.87858020833335,41.418000000000006L251.88439548611112,42.277714285714296L251.88584930555555,42.73285714285714L251.88875694444445,56.38714285714286L251.8931184027778,40.76057142857144L251.89602604166666,51.07714285714286L251.9003875,56.134285714285724L251.91783333333333,40.96285714285713L251.92364861111113,50.21742857142857L251.92801006944444,46.67742857142858L251.93527916666667,50.72314285714286L251.93818680555555,42.47999999999999L251.94254826388888,53.757428571428576L251.95127118055555,55.47685714285714L251.952725,27.763714285714286L251.9556326388889,50.92542857142857L251.95999409722222,50.92542857142857L251.96435555555553,31.101428571428585L251.965809375,52.341428571428565L251.96726319444446,46.222285714285704L251.98034756944446,53.85857142857142L251.9818013888889,28.572857142857146L251.98325520833333,55.47685714285714L251.98470902777777,41.06399999999999L251.98761666666667,42.024857142857144L251.99052430555557,50.82428571428571L251.9948857638889,38.687142857142845L252.0021548611111,40.60885714285715L252.00506249999998,50.72314285714286L252.00651631944444,38.63657142857144L252.0079701388889,45.05914285714286L252.00942395833331,28.06714285714287L252.02105451388888,55.07228571428571L252.0341388888889,42.985714285714295L252.0414079861111,55.07228571428571L252.05303854166667,42.73285714285714L252.0544923611111,51.02657142857143L252.05885381944444,54.971142857142866L252.06466909722224,40.55828571428572L252.06903055555557,56.18485714285714L252.07484583333334,41.367428571428576L252.07920729166668,50.92542857142857L252.08356875,50.976L252.08502256944445,40.8617142857143L252.08647638888888,50.72314285714286L252.08938402777778,48.3462857142857L252.10101458333335,50.77371428571428L252.10392222222222,53.251714285714286L252.1068298611111,50.77371428571428L252.10973750000002,49.00371428571428L252.11700659722223,50.672571428571416L252.12427569444444,55.27457142857142L252.13590625,50.82428571428571L252.13736006944444,39.29399999999998L252.13881388888888,53.049428571428564L252.14462916666668,55.88142857142857L252.148990625,49.15542857142857L252.15335208333335,56.33657142857143L252.1649826388889,40.254857142857134L252.1678902777778,30.342857142857127L252.17370555555556,31.961142857142875L252.175159375,52.189714285714274L252.17661319444446,56.28599999999999L252.1780670138889,48.042857142857144L252.1809746527778,40.507714285714286L252.18388229166666,50.976L252.18824375,56.69057142857143L252.19696666666667,41.5697142857143L252.19987430555554,50.92542857142857L252.21005104166667,39.79971428571429L252.21586631944444,56.43771428571428L252.21877395833334,47.132571428571424L252.22458923611111,55.83085714285714L252.22604305555555,31.253142857142876L252.22895069444445,50.672571428571416L252.23331215277778,25.235142857142847L252.23621979166666,47.78999999999999L252.24058125,51.127714285714276L252.2434888888889,51.02657142857143L252.24785034722223,50.976L252.24930416666666,51.07714285714286L252.25075798611113,43.13742857142856L252.26529618055557,39.597428571428566L252.26675,44.35114285714286L252.2696576388889,45.36257142857144L252.27111145833334,51.68400000000001L252.27256527777777,50.77371428571428L252.27401909722224,26.34771428571429L252.27838055555557,49.914L252.27983437499998,55.12285714285713L252.2827420138889,39.09171428571429L252.28710347222224,40.96285714285713L252.2900111111111,50.87485714285715L252.29291874999998,51.33000000000001L252.29582638888888,49.61057142857142L252.3089107638889,44.09828571428571L252.31036458333332,50.77371428571428L252.31472604166666,41.87314285714285L252.31763368055556,38.33314285714286L252.32054131944443,50.976L252.32344895833336,50.77371428571428L252.32635659722223,50.92542857142857L252.3278104166667,50.92542857142857L252.332171875,46.52571428571429L252.34089479166667,41.266285714285715L252.3423486111111,51.22885714285715L252.34816388888888,51.02657142857143L252.3525253472222,50.77371428571428L252.35688680555555,56.18485714285714L252.35979444444445,25.63971428571429L252.36124826388888,23.86971428571428L252.36706354166668,38.88942857142857L252.37287881944442,41.6202857142857L252.37724027777776,50.47028571428571L252.37869409722222,52.442571428571426L252.3801479166667,55.679142857142864L252.3816017361111,41.92371428571428L252.38596319444443,50.92542857142857L252.39177847222223,39.90085714285715L252.3946861111111,50.92542857142857L252.4005013888889,50.72314285714286L252.40195520833333,56.58942857142857L252.4048628472222,40.8617142857143L252.40631666666667,73.12628571428571L252.41358576388888,55.02171428571428L252.4179472222222,54.617142857142866L252.41940104166667,43.946571428571445L252.42230868055555,27.561428571428564L252.42521631944444,47.233714285714285L252.42812395833334,53.40342857142858L252.42957777777778,50.87485714285715L252.43393923611112,17.69999999999999L252.43539305555555,56.43771428571428L252.43830069444445,40.355999999999995L252.44266215277779,54.971142857142866L252.44411597222222,55.72971428571428L252.44702361111112,54.76885714285713L252.4557465277778,42.985714285714295L252.46010798611113,54.56657142857142L252.46446944444446,50.82428571428571L252.46592326388887,45.86828571428572L252.47173854166667,50.976L252.48046145833334,70.90114285714286L252.4993611111111,45.05914285714286L252.5051763888889,48.39685714285716L252.50808402777778,37.77685714285715L252.515353125,40.9122857142857L252.51971458333333,55.27457142857142L252.52262222222222,50.976L252.5284375,46.57628571428572L252.53570659722223,41.165142857142854L252.541521875,42.47999999999999L252.54733715277777,41.418000000000006L252.5516986111111,51.43114285714286L252.5647829861111,43.086857142857156L252.57350590277778,35.04599999999999L252.58804409722222,41.266285714285715L252.5894979166667,48.19457142857141L252.5909517361111,38.53542857142858L252.59531319444443,50.72314285714286L252.5967670138889,47.84057142857142L252.6040361111111,42.53057142857145L252.60694375,40.96285714285713L252.61275902777777,52.796571428571426L252.61421284722223,55.12285714285713L252.61566666666667,40.9122857142857L252.6171204861111,55.224000000000004L252.61857430555557,45.05914285714286L252.620028125,36.86657142857143L252.62148194444444,53.251714285714286L252.6331125,50.92542857142857L252.63747395833335,39.14228571428572L252.64619687500002,54.26314285714287L252.66655034722223,40.30542857142859L252.66800416666666,38.33314285714286L252.6694579861111,39.04114285714286L252.6796347222222,56.48828571428572L252.68690381944447,50.92542857142857L252.6912652777778,39.395142857142844L252.69417291666667,44.90742857142857L252.69562673611114,51.07714285714286L252.69708055555554,31.506L252.698534375,39.49628571428573L252.70434965277778,29.83714285714285L252.71598020833332,27.561428571428564L252.71743402777778,39.49628571428573L252.72179548611112,52.08857142857143L252.724703125,31.65771428571429L252.72615694444445,51.07714285714286L252.72906458333333,56.03314285714286L252.73633368055553,51.38057142857143L252.74651041666667,41.5697142857143L252.74941805555554,50.77371428571428L252.75377951388887,50.87485714285715L252.75668715277777,41.367428571428576L252.76395625,54.010285714285715L252.76831770833334,49.00371428571428L252.77267916666665,43.44085714285714L252.78576354166665,50.87485714285715L252.78721736111112,44.958L252.79157881944445,51.17828571428572L252.7959402777778,52.290857142857135L252.79884791666666,40.8617142857143L252.80030173611112,41.97428571428571L252.80902465277777,43.23857142857145L252.8133861111111,40.81114285714284L252.81483993055556,41.215714285714284L252.82210902777777,46.8797142857143L252.82501666666664,41.165142857142854L252.82792430555557,40.65942857142858L252.8322857638889,49.15542857142857L252.8337395833333,52.644857142857134L252.83519340277778,40.9122857142857L252.84537013888888,50.976L252.85263923611112,51.127714285714276L252.85554687500002,43.542L252.85700069444445,39.395142857142844L252.8584545138889,48.852000000000004L252.8642697916667,49.40828571428571L252.8657236111111,53.90914285714287L252.87299270833336,50.82428571428571L252.87444652777776,44.19942857142857L252.88026180555556,50.87485714285715L252.8846232638889,56.43771428571428L252.88607708333333,50.976L252.88898472222223,28.1682857142857L252.89916145833334,51.17828571428572L252.90061527777777,54.71828571428571L252.907884375,55.679142857142864L252.92533020833335,51.07714285714286L252.93259930555556,50.82428571428571L252.93550694444443,45.86828571428572L252.9369607638889,41.316857142857145L252.94132222222223,33.17485714285715L252.94277604166666,56.48828571428572L252.95586041666667,56.48828571428572L252.96458333333334,53.049428571428564L252.97039861111114,50.72314285714286L252.97185243055554,31.60714285714286L252.97766770833334,38.83885714285714L252.9805753472222,50.622L252.9834829861111,28.623428571428576L252.986390625,51.02657142857143L252.98929826388888,50.87485714285715L252.99365972222222,55.47685714285714L252.99511354166665,41.01342857142859L252.99656736111112,55.325142857142865L253.00092881944445,46.57628571428572L253.0023826388889,41.01342857142859L253.00383645833332,46.82914285714287L253.0052902777778,53.302285714285716L253.00965173611112,51.481714285714276L253.01110555555553,55.37571428571428L253.012559375,54.617142857142866L253.01692083333333,45.91885714285715L253.0183746527778,46.57628571428572L253.02128229166667,50.77371428571428L253.02273611111113,55.780285714285725L253.0285513888889,51.17828571428572L253.03145902777777,44.85685714285714L253.03291284722224,40.81114285714284" style="fill: none;" fill="none"></path></g></g></g></g></g></g><g transform="translate(68, 177)" clip-path="url(#clip_1)"><clipPath id="clip_1"><rect width="261" height="23"></rect></clipPath><g><g><line x1="0" y1="0" x2="0" y2="5" style="visibility: inherit;" fill="rgb(0, 0, 0)" stroke="rgb(204, 204, 204)" stroke-width="1px"></line><line x1="29.076388888888886" y1="0" x2="29.076388888888886" y2="5" style="visibility: inherit;" fill="rgb(0, 0, 0)" stroke="rgb(204, 204, 204)" stroke-width="1px"></line><line x1="58.15277777777777" y1="0" x2="58.15277777777777" y2="5" style="visibility: inherit;" fill="rgb(0, 0, 0)" stroke="rgb(204, 204, 204)" stroke-width="1px"></line><line x1="87.22916666666666" y1="0" x2="87.22916666666666" y2="5" style="visibility: inherit;" fill="rgb(0, 0, 0)" stroke="rgb(204, 204, 204)" stroke-width="1px"></line><line x1="116.30555555555554" y1="0" x2="116.30555555555554" y2="5" style="visibility: inherit;" fill="rgb(0, 0, 0)" stroke="rgb(204, 204, 204)" stroke-width="1px"></line><line x1="145.38194444444446" y1="0" x2="145.38194444444446" y2="5" style="visibility: inherit;" fill="rgb(0, 0, 0)" stroke="rgb(204, 204, 204)" stroke-width="1px"></line><line x1="174.45833333333331" y1="0" x2="174.45833333333331" y2="5" style="visibility: inherit;" fill="rgb(0, 0, 0)" stroke="rgb(204, 204, 204)" stroke-width="1px"></line><line x1="203.53472222222223" y1="0" x2="203.53472222222223" y2="5" style="visibility: inherit;" fill="rgb(0, 0, 0)" stroke="rgb(204, 204, 204)" stroke-width="1px"></line><line x1="232.6111111111111" y1="0" x2="232.6111111111111" y2="5" style="visibility: inherit;" fill="rgb(0, 0, 0)" stroke="rgb(204, 204, 204)" stroke-width="1px"></line><line x1="261.6875" y1="0" x2="261.6875" y2="5" style="visibility: inherit;" fill="rgb(0, 0, 0)" stroke="rgb(204, 204, 204)" stroke-width="1px"></line></g><g transform="translate(0, 8)"><text x="0" y="0" dx="0em" dy="0.95em" style="text-anchor: middle; visibility: hidden; font-family: &quot;Helvetica Neue&quot;, sans-serif; font-size: 12px; font-weight: 200;" fill="rgb(50, 49, 63)" stroke="none" stroke-width="1px">-20k</text><text x="29.076388888888886" y="0" dx="0em" dy="0.95em" style="text-anchor: middle; visibility: inherit; font-family: &quot;Helvetica Neue&quot;, sans-serif; font-size: 12px; font-weight: 200;" fill="rgb(50, 49, 63)" stroke="none" stroke-width="1px">0</text><text x="58.15277777777777" y="0" dx="0em" dy="0.95em" style="text-anchor: middle; visibility: hidden; font-family: &quot;Helvetica Neue&quot;, sans-serif; font-size: 12px; font-weight: 200;" fill="rgb(50, 49, 63)" stroke="none" stroke-width="1px">20k</text><text x="87.22916666666666" y="0" dx="0em" dy="0.95em" style="text-anchor: middle; visibility: inherit; font-family: &quot;Helvetica Neue&quot;, sans-serif; font-size: 12px; font-weight: 200;" fill="rgb(50, 49, 63)" stroke="none" stroke-width="1px">40k</text><text x="116.30555555555554" y="0" dx="0em" dy="0.95em" style="text-anchor: middle; visibility: hidden; font-family: &quot;Helvetica Neue&quot;, sans-serif; font-size: 12px; font-weight: 200;" fill="rgb(50, 49, 63)" stroke="none" stroke-width="1px">60k</text><text x="145.38194444444446" y="0" dx="0em" dy="0.95em" style="text-anchor: middle; visibility: inherit; font-family: &quot;Helvetica Neue&quot;, sans-serif; font-size: 12px; font-weight: 200;" fill="rgb(50, 49, 63)" stroke="none" stroke-width="1px">80k</text><text x="174.45833333333331" y="0" dx="0em" dy="0.95em" style="text-anchor: middle; visibility: hidden; font-family: &quot;Helvetica Neue&quot;, sans-serif; font-size: 12px; font-weight: 200;" fill="rgb(50, 49, 63)" stroke="none" stroke-width="1px">100k</text><text x="203.53472222222223" y="0" dx="0em" dy="0.95em" style="text-anchor: middle; visibility: inherit; font-family: &quot;Helvetica Neue&quot;, sans-serif; font-size: 12px; font-weight: 200;" fill="rgb(50, 49, 63)" stroke="none" stroke-width="1px">120k</text><text x="232.6111111111111" y="0" dx="0em" dy="0.95em" style="text-anchor: middle; visibility: hidden; font-family: &quot;Helvetica Neue&quot;, sans-serif; font-size: 12px; font-weight: 200;" fill="rgb(50, 49, 63)" stroke="none" stroke-width="1px">140k</text><text x="261.6875" y="0" dx="0em" dy="0.95em" style="text-anchor: middle; visibility: hidden; font-family: &quot;Helvetica Neue&quot;, sans-serif; font-size: 12px; font-weight: 200;" fill="rgb(50, 49, 63)" stroke="none" stroke-width="1px">160k</text></g><line x1="0" y1="0" x2="261.6875" y2="0" fill="rgb(0, 0, 0)" stroke="rgb(204, 204, 204)" stroke-width="1px"></line></g></g></g></g></svg>