<svg viewBox="0 0 330 200" xmlns="http://www.w3.org/2000/svg"><g><g><g><g><g><line x1="58.59375" y1="177" x2="53.59375" y2="177" style="visibility: inherit;" fill="rgb(0, 0, 0)" stroke="rgb(204, 204, 204)" stroke-width="1px"></line><line x1="58.59375" y1="159.3" x2="53.59375" y2="159.3" style="visibility: inherit;" fill="rgb(0, 0, 0)" stroke="rgb(204, 204, 204)" stroke-width="1px"></line><line x1="58.59375" y1="141.6" x2="53.59375" y2="141.6" style="visibility: inherit;" fill="rgb(0, 0, 0)" stroke="rgb(204, 204, 204)" stroke-width="1px"></line><line x1="58.59375" y1="123.9" x2="53.59375" y2="123.9" style="visibility: inherit;" fill="rgb(0, 0, 0)" stroke="rgb(204, 204, 204)" stroke-width="1px"></line><line x1="58.59375" y1="106.2" x2="53.59375" y2="106.2" style="visibility: inherit;" fill="rgb(0, 0, 0)" stroke="rgb(204, 204, 204)" stroke-width="1px"></line><line x1="58.59375" y1="88.5" x2="53.59375" y2="88.5" style="visibility: inherit;" fill="rgb(0, 0, 0)" stroke="rgb(204, 204, 204)" stroke-width="1px"></line><line x1="58.59375" y1="70.8" x2="53.59375" y2="70.8" style="visibility: inherit;" fill="rgb(0, 0, 0)" stroke="rgb(204, 204, 204)" stroke-width="1px"></line><line x1="58.59375" y1="53.10000000000001" x2="53.59375" y2="53.10000000000001" style="visibility: inherit;" fill="rgb(0, 0, 0)" stroke="rgb(204, 204, 204)" stroke-width="1px"></line><line x1="58.59375" y1="35.400000000000006" x2="53.59375" y2="35.400000000000006" style="visibility: inherit;" fill="rgb(0, 0, 0)" stroke="rgb(204, 204, 204)" stroke-width="1px"></line><line x1="58.59375" y1="17.69999999999999" x2="53.59375" y2="17.69999999999999" style="visibility: inherit;" fill="rgb(0, 0, 0)" stroke="rgb(204, 204, 204)" stroke-width="1px"></line><line x1="58.59375" y1="0" x2="53.59375" y2="0" style="visibility: inherit;" fill="rgb(0, 0, 0)" stroke="rgb(204, 204, 204)" stroke-width="1px"></line></g><g transform="translate(48.59375, 0)"><text x="0" y="177" dx="0em" dy="0.3em" style="text-anchor: end; visibility: hidden; font-family: &quot;Helvetica Neue&quot;, sans-serif; font-size: 12px; font-weight: 200;" fill="rgb(50, 49, 63)" stroke="none" stroke-width="1px">-1e+5</text><text x="0" y="159.3" dx="0em" dy="0.3em" style="text-anchor: end; visibility: inherit; font-family: &quot;Helvetica Neue&quot;, sans-serif; font-size: 12px; font-weight: 200;" fill="rgb(50, 49, 63)" stroke="none" stroke-width="1px">0</text><text x="0" y="141.6" dx="0em" dy="0.3em" style="text-anchor: end; visibility: hidden; font-family: &quot;Helvetica Neue&quot;, sans-serif; font-size: 12px; font-weight: 200;" fill="rgb(50, 49, 63)" stroke="none" stroke-width="1px">1e+5</text><text x="0" y="123.9" dx="0em" dy="0.3em" style="text-anchor: end; visibility: inherit; font-family: &quot;Helvetica Neue&quot;, sans-serif; font-size: 12px; font-weight: 200;" fill="rgb(50, 49, 63)" stroke="none" stroke-width="1px">2e+5</text><text x="0" y="106.2" dx="0em" dy="0.3em" style="text-anchor: end; visibility: hidden; font-family: &quot;Helvetica Neue&quot;, sans-serif; font-size: 12px; font-weight: 200;" fill="rgb(50, 49, 63)" stroke="none" stroke-width="1px">3e+5</text><text x="0" y="88.5" dx="0em" dy="0.3em" style="text-anchor: end; visibility: inherit; font-family: &quot;Helvetica Neue&quot;, sans-serif; font-size: 12px; font-weight: 200;" fill="rgb(50, 49, 63)" stroke="none" stroke-width="1px">4e+5</text><text x="0" y="70.8" dx="0em" dy="0.3em" style="text-anchor: end; visibility: hidden; font-family: &quot;Helvetica Neue&quot;, sans-serif; font-size: 12px; font-weight: 200;" fill="rgb(50, 49, 63)" stroke="none" stroke-width="1px">5e+5</text><text x="0" y="53.10000000000001" dx="0em" dy="0.3em" style="text-anchor: end; visibility: inherit; font-family: &quot;Helvetica Neue&quot;, sans-serif; font-size: 12px; font-weight: 200;" fill="rgb(50, 49, 63)" stroke="none" stroke-width="1px">6e+5</text><text x="0" y="35.400000000000006" dx="0em" dy="0.3em" style="text-anchor: end; visibility: hidden; font-family: &quot;Helvetica Neue&quot;, sans-serif; font-size: 12px; font-weight: 200;" fill="rgb(50, 49, 63)" stroke="none" stroke-width="1px">7e+5</text><text x="0" y="17.69999999999999" dx="0em" dy="0.3em" style="text-anchor: end; visibility: inherit; font-family: &quot;Helvetica Neue&quot;, sans-serif; font-size: 12px; font-weight: 200;" fill="rgb(50, 49, 63)" stroke="none" stroke-width="1px">8e+5</text><text x="0" y="0" dx="0em" dy="0.3em" style="text-anchor: end; visibility: hidden; font-family: &quot;Helvetica Neue&quot;, sans-serif; font-size: 12px; font-weight: 200;" fill="rgb(50, 49, 63)" stroke="none" stroke-width="1px">9e+5</text></g><line x1="58.59375" y1="0" x2="58.59375" y2="177" fill="rgb(0, 0, 0)" stroke="rgb(204, 204, 204)" stroke-width="1px"></line></g></g><g transform="translate(58, 0)" clip-path="url(#clip_0)"><clipPath id="clip_0"><rect width="271" height="177"></rect></clipPath><g><g><g><line x1="0" y1="0" x2="0" y2="177" fill="rgb(0, 0, 0)" stroke="rgb(60, 60, 60)" stroke-width="1px" opacity="0.25"></line><line x1="30.15625" y1="0" x2="30.15625" y2="177" fill="rgb(0, 0, 0)" stroke="rgb(60, 60, 60)" stroke-width="1px" opacity="0.25"></line><line x1="60.3125" y1="0" x2="60.3125" y2="177" fill="rgb(0, 0, 0)" stroke="rgb(60, 60, 60)" stroke-width="1px" opacity="0.25"></line><line x1="90.46875" y1="0" x2="90.46875" y2="177" fill="rgb(0, 0, 0)" stroke="rgb(60, 60, 60)" stroke-width="1px" opacity="0.25"></line><line x1="120.625" y1="0" x2="120.625" y2="177" fill="rgb(0, 0, 0)" stroke="rgb(60, 60, 60)" stroke-width="1px" opacity="0.25"></line><line x1="150.78125" y1="0" x2="150.78125" y2="177" fill="rgb(0, 0, 0)" stroke="rgb(60, 60, 60)" stroke-width="1px" opacity="0.25"></line><line x1="180.9375" y1="0" x2="180.9375" y2="177" fill="rgb(0, 0, 0)" stroke="rgb(60, 60, 60)" stroke-width="1px" opacity="0.25"></line><line x1="211.09375" y1="0" x2="211.09375" y2="177" fill="rgb(0, 0, 0)" stroke="rgb(60, 60, 60)" stroke-width="1px" opacity="0.25"></line><line x1="241.25" y1="0" x2="241.25" y2="177" fill="rgb(0, 0, 0)" stroke="rgb(60, 60, 60)" stroke-width="1px" opacity="0.25"></line><line x1="271.40625" y1="0" x2="271.40625" y2="177" fill="rgb(0, 0, 0)" stroke="rgb(60, 60, 60)" stroke-width="1px" opacity="0.25"></line></g><g><line x1="0" y1="177" x2="271.40625" y2="177" fill="rgb(0, 0, 0)" stroke="rgb(60, 60, 60)" stroke-width="1px" opacity="0.25"></line><line x1="0" y1="159.3" x2="271.40625" y2="159.3" fill="rgb(0, 0, 0)" stroke="rgb(60, 60, 60)" stroke-width="1px" opacity="0.25"></line><line x1="0" y1="141.6" x2="271.40625" y2="141.6" fill="rgb(0, 0, 0)" stroke="rgb(60, 60, 60)" stroke-width="1px" opacity="0.25"></line><line x1="0" y1="123.9" x2="271.40625" y2="123.9" fill="rgb(0, 0, 0)" stroke="rgb(60, 60, 60)" stroke-width="1px" opacity="0.25"></line><line x1="0" y1="106.2" x2="271.40625" y2="106.2" fill="rgb(0, 0, 0)" stroke="rgb(60, 60, 60)" stroke-width="1px" opacity="0.25"></line><line x1="0" y1="88.5" x2="271.40625" y2="88.5" fill="rgb(0, 0, 0)" stroke="rgb(60, 60, 60)" stroke-width="1px" opacity="0.25"></line><line x1="0" y1="70.8" x2="271.40625" y2="70.8" fill="rgb(0, 0, 0)" stroke="rgb(60, 60, 60)" stroke-width="1px" opacity="0.25"></line><line x1="0" y1="53.10000000000001" x2="271.40625" y2="53.10000000000001" fill="rgb(0, 0, 0)" stroke="rgb(60, 60, 60)" stroke-width="1px" opacity="0.25"></line><line x1="0" y1="35.400000000000006" x2="271.40625" y2="35.400000000000006" fill="rgb(0, 0, 0)" stroke="rgb(60, 60, 60)" stroke-width="1px" opacity="0.25"></line><line x1="0" y1="17.69999999999999" x2="271.40625" y2="17.69999999999999" fill="rgb(0, 0, 0)" stroke="rgb(60, 60, 60)" stroke-width="1px" opacity="0.25"></line><line x1="0" y1="0" x2="271.40625" y2="0" fill="rgb(0, 0, 0)" stroke="rgb(60, 60, 60)" stroke-width="1px" opacity="0.25"></line></g></g></g><g><g><line x1="0" y1="159.3" x2="271.40625" y2="159.3" fill="rgb(0, 0, 0)" stroke="rgb(153, 153, 153)" stroke-width="1.5px"></line></g></g><g><g><line x1="30.15625" y1="0" x2="30.15625" y2="177" fill="rgb(0, 0, 0)" stroke="rgb(153, 153, 153)" stroke-width="1.5px"></line></g></g><g><g><g><g><g><path stroke="rgb(255, 112, 67)" stroke-width="2px" d="M32.083234375,159.23451L32.1571171875,159.21570375L32.2988515625,159.1467324489796L32.4677265625,159.16185540441177L32.481296875,159.11736572519084L32.525023437499996,159.08853847073038L32.56875,159.07504124654324L32.58684375,159.06430847863896L32.5883515625,159.1341549789805L32.595890625,159.11826893052813L32.6094609375,159.10879900169385L32.6185078125,159.16664331549683L32.7210390625,159.1250596781818L32.8416640625,159.15116026041215L32.85825,159.18097417430195L33.0150625,159.16061075983814L33.048234375,159.12432031314256L33.060296875,159.0926369701266L33.078390625,159.08637380042362L33.0919609375,159.04579879676774L33.25028125,159.1120807320842L33.272898437500004,159.09237617989584L33.3060703125,159.06356148037912L33.3905078125,159.07600894720832L33.542796875,159.01550919632245L33.6076328125,158.9877054703654L33.63628125,159.00500729992748L33.6588984375,159.01822038807057L33.6950859375,158.97163221567664L33.702625,158.95252932518284L33.8157109375,158.97115759758063L33.942367187500004,158.9936625603395L34.0177578125,159.00574953678085L34.0599765625,159.06114572365567L34.087117187500006,159.0717274343753L34.09465625,159.02568446015027L34.130843750000004,159.05045067624343L34.170046875000004,159.07522240583805L34.2167890625,158.99344344332064L34.224328125,158.9574740659443L34.45653125,158.95111443956148L34.49875,158.94340466373316L34.550015625,158.96851479824716L34.574140625,158.96658887894796L34.592234375,158.97676132736984L34.667625,158.94180079641973L34.694765624999995,158.95622447785237L34.700796875,159.00735868671256L34.77015625,159.0281272120278L34.8922890625,159.04625232721685L34.942046874999996,159.02314339633L35.0279921875,159.0602540377981L35.068703125,158.98729442267873L35.0898125,159.00192865360725L35.110921874999995,158.96681319216432L35.163695312499996,158.93052191529858L35.213453125,158.99193714917917L35.3597109375,158.9806422895075L35.3898671875,158.9922733737045L35.4275625,159.0134120242227L35.56025,159.0558312145336L35.5888984375,159.01473072872017L35.5949296875,158.9886544372321L35.599453125,158.97442466233926L35.635640625,159.00553479740356L35.6371484375,158.93039087844213L35.741187499999995,158.98194652706528L35.84371875,158.95907191623917L35.8693515625,159.0048191497435L35.8964921875,159.0166914898461L36.015609375000004,159.03655889390765L36.078937499999995,159.0244073363446L36.1286953125,159.01994840180674L36.1347265625,158.98612104108406L36.145281250000004,159.00688862465043L36.164882812500004,158.89615717479026L36.178453125,158.99539030487415L36.287015625,158.9912101829245L36.3367734375,159.0099421097547L36.42875,159.00135726585282L36.4332734375,159.04151835951168L36.480015625,159.00755901570702L36.582546875000006,159.0395754094242L36.731820312500005,158.92143324565453L36.749914062500004,158.8763899473927L36.8750625,158.87839196843564L36.9097421875,158.90685118106137L36.9233125,158.84073670863683L36.9670390625,158.90549802518208L36.9881484375,158.92877881510927L37.107265625,158.86132728906554L37.1404375,158.89944437343934L37.330421875,158.8380626240636L37.445015624999996,158.73574357443815L37.466125,158.64921814466288L37.493265625,158.76793088679773L37.5068359375,158.83066253207863L37.52040625,158.78758951924718L37.662140625000006,158.7794457115483L37.7571328125,158.682519426929L37.8023671875,158.6905616561574L37.885296875,158.69928099369443L38.082820312500004,158.64291659621665L38.088851562500004,158.71458995773L38.0918671875,158.608205974638L38.141625000000005,158.6558855847828L38.1551953125,158.6547573508697L38.349703125000005,158.5192064105218L38.3934296875,158.52779184631308L38.428109375,158.56621910778784L38.5080234375,158.4774114646727L38.7221328125,158.43970287880362L38.821648437499995,158.42486572728217L38.8774375,158.4541954363693L38.916640625,158.4774572618216L38.921164062500004,158.46097035709295L38.9302109375,158.40718221425578L39.0478203125,158.50447332855347L39.1744765625,158.3596519971321L39.2679609375,158.36055119827924L39.4217578125,158.40781871896755L39.549921875,158.37599923138052L39.5755546875,158.40292753882832L39.5906328125,158.511478523297L39.634359374999995,158.5720071139782L39.6494375,158.5863762683869L39.65546875,158.64243376103215L39.720304687500004,158.5394242566193L39.9072734375,158.47195455397159L40.056546874999995,158.67006873238296L40.095749999999995,158.56945723942977L40.097257812500004,158.65069034365786L40.1123359375,158.57765420619472L40.1319375,158.65490052371683L40.144,158.75718031423008L40.1907421875,158.76403218853807L40.364140625000005,158.66123531312283L40.480242187500004,158.4919411878737L40.623484375,158.42930471272422L40.7124453125,158.45119482763454L40.8873515625,158.3482168965807L40.897906250000005,158.48644013794842L40.928062499999996,158.38635608276905L40.947664062499996,158.24736364966145L41.053210937500005,158.33353418979686L41.0592421875,158.45886851387812L41.0984453125,158.34574110832688L41.2070078125,158.33946066499612L41.519124999999995,158.29321239899767L41.5568203125,158.3398034393986L41.577929687499996,158.34864206363915L41.580945312500006,158.3695212381835L41.8312421875,158.3516047429101L41.841796875,158.33660684574605L41.862906249999995,158.32052810744764L41.884015624999996,158.3746008644686L41.9126640625,158.40350451868116L42.0272578125,158.3019027112087L42.1086796875,158.3336896267252L42.340882812500006,158.35311577603514L42.3831015625,158.30282146562107L42.399687500000006,158.35902087937265L42.6484765625,158.43451252762358L42.651492187500004,158.41537951657415L42.6891875,158.3260197099445L42.714820312499995,158.3446198259667L42.71934375,158.49560989558003L42.723867187500005,158.56779593734802L42.859570312500004,158.44791356240881L43.0646328125,158.37244413744529L43.0887578125,158.42699048246718L43.2033515625,158.3698022894803L43.3285,158.3715973736882L43.387304687500006,158.4073664242129L43.397859374999996,158.40971185452776L43.406906250000006,158.39129511271665L43.5712578125,158.41281306763L43.578796875,158.369791840578L43.6406171875,158.3227391043468L43.780843749999995,158.3192874626081L43.832109375,158.28394047756484L44.0296328125,158.3257442865389L44.086929687499996,158.29985057192334L44.126132812499996,158.29564234315401L44.2618359375,158.2711694058924L44.299531249999994,158.26285764353543L44.5332421875,158.18600858612126L44.56490625,157.98980315167276L44.72171875,158.03244189100366L44.785046875,157.99005713460218L44.8046484375,158.01737228076132L44.845359375,158.19837136845678L44.9493984375,158.22979882107407L45.0609765625,158.16581929264444L45.104703125,158.20106357558666L45.1755703125,158.153534145352L45.4891953125,158.0878464872112L45.623390625,158.00312189232673L45.7213984375,158.08999313539604L45.73496875,157.92121988123762L45.8058359375,158.01394792874257L45.8420234375,158.02356475724554L45.861625000000004,158.12845485434732L45.89178125,158.1885569126084L45.952093749999996,158.53543014756502L46.010898437499996,158.33256008853903L46.0470859375,158.31456005312342L46.506968750000006,158.29030803187405L46.6502109375,158.09981881912444L46.7180625,158.05172329147464L46.752742187500004,158.0334859748848L46.7828984375,157.99386958493088L46.8190859375,158.04550175095852L46.823609375,158.0446210505751L46.8432109375,158.01506463034508L46.956296875,158.09220277820705L47.4900625,157.87581766692423L47.610687500000004,158.06458660015454L47.65290625,158.16439596009272L47.6966328125,158.03559957605563L47.73734375,157.94805574563338L47.7478984375,157.84349144738002L47.8760625,157.84057886842803L47.88209375,157.80590932105682L47.9921640625,157.7097055926341L48.494265625,157.75959935558046L48.595289062499994,157.79555361334826L48.71440625,157.83907416800895L48.78075,157.68854050080537L48.842570312499994,157.63893030048322L48.8878046875,157.73660418028993L48.892328125,157.77396850817397L49.015968750000006,157.37512710490438L49.2888828125,157.41371226294262L49.534656250000005,157.03896735776559L49.5934609375,157.34476641465935L49.7683671875,157.44647184879562L49.7985234375,157.53050510927736L49.8075703125,157.61030706556642L49.950812500000005,157.70208423933985L49.9915234375,157.7398045436039L50.3322890625,157.47498872616234L50.520765625,156.83147323569742L50.624804687499996,157.23265994141843L50.7906640625,157.43655596485107L50.896210937499994,157.56915957891064L50.911289062499996,157.5053517473464L50.936921875,157.27873904840783L51.255070312499996,157.4312814290447L51.2611015625,157.52599285742681L51.3274453125,156.76578771445608L51.431484375000004,157.08280062867365L51.5189375,157.3643403772042L51.748125,157.44618022632253L51.7586796875,157.5285601357935L51.9758046875,157.5981660814761L52.150710937499994,157.20026164888566L52.2411796875,156.8514249893314L52.56234375,156.92992499359883L52.568374999999996,157.0899509961593L52.615117187500005,157.2465005976956L52.6301953125,157.34751035861734L52.8563671875,157.42652421517042L53.081031249999995,157.31357052910224L53.3660078125,156.23300431746134L53.403703125,156.2986825904768L53.759546875,156.0803775542861L53.783671874999996,156.57172653257166L53.886203125,156.940521919543L53.8967578125,157.0382531517258L53.9329453125,156.30180789103548L53.941992187500006,156.7208687346213L54.282757812499995,156.89796524077278L54.54059375,156.11214314446366L54.6144765625,156.6548598866782L55.115070312499995,157.00668593200692L55.1452265625,156.34977355920415L55.369890625000004,156.4915821355225L55.400046875,155.8598172813135L55.442265625,155.6351023687881L55.7031171875,155.26273942127287L55.764937499999995,155.7526316527637L56.6741484375,154.02522699165823L56.7887421875,154.24442219499494L57.230531250000006,154.41063131699696L57.286320312499996,154.42893679019818L57.6029609375,154.2158380741189L57.73715625,154.43914684447134L57.7507265625,152.8711001066828L57.758265625,152.7558000640097L57.8653203125,152.74892403840582L58.889125,151.8459924230435L59.5043125,152.2179074538261L60.1541796875,152.59681647229564L60.627632812499996,150.7160918833774L60.629140625,151.10596313002645L60.963875,149.48811187801587L61.93490625,148.52412712680953L62.100765625,148.0423782760857L62.153539062499995,145.32665896565143L62.33296875,149.05041537939087L62.7370625,148.2965552276345L62.83959375,150.4599451365807L63.130601562500004,150.42021308194842L63.2075,149.86643584916905L63.697539062500006,146.67314150950142L63.831734375,149.94255690570085L63.944820312500006,151.8242021434205L65.2837578125,148.90767728605232L65.8687890625,148.5447343716314L66.1793984375,148.21227262297884L68.053609375,146.3327115737873L68.21946875,143.8615449442724L68.632609375,139.46153096656343L69.62776562500001,138.59789457993804L70.604828125,137.98554874796284L70.972734375,137.4078652487777L71.473328125,131.7579811492666L71.7356875,133.49644868955997L72.00860156249999,134.75157521373598L72.20160156249999,138.42621312824159L72.64640625,137.58093187694496L74.17985156249999,135.61386712616698L76.61044531249999,134.5168182757002L79.01992968750001,132.35939896542013L80.4704453125,129.00962337925208L81.18364062500001,127.47659602755124L82.426078125,121.77742561653073L82.4456796875,112.00220736991845L82.58590625,114.39837442195108L83.095546875,113.24408665317064L84.802390625,107.87517399190239L85.7266796875,106.91659439514143L95.5395234375,94.11570263708487L95.5515859375,86.24719358225093L100.08859375,80.25487414935056L100.46705468750001,77.35190648961034L100.9917734375,75.00266189376622L101.997484375,73.42885913625973L102.46490625,72.79609748175585L102.727265625,72.30174448905352L104.25769531249999,71.1679226934321L104.440140625,70.37611961605924L114.15799218750001,68.19581976963556L114.86515625,67.93618786178133L118.3647890625,66.56477271706879L120.12591406249999,65.18897563024127L120.2766953125,64.90547137814477L120.73356249999999,64.19551882688685L121.985046875,63.84034729613211L122.49167187500001,63.85840637767927L122.50675,63.91809382660756L124.43071875000001,63.51034429596454L133.173015625,62.08935257757874L133.770109375,61.91679154654723L136.3982265625,60.69709292792835L137.2576796875,60.47680375675699L139.99134375,58.72862025405422L139.9958671875,58.33815015243253L140.22203906250002,58.11555009145951L141.29861718749999,58.00181405487574L142.1972734375,57.596210432925446L144.143859375,57.031062259755274L152.71728125,55.75741335585316L153.275171875,56.364266013511894L154.1361328125,55.08440160810713L154.41658593749997,54.938106964864275L157.608625,54.10055817891856L158.718375,53.78989690735115L160.36792187499998,52.637434144410676L160.5594140625,52.42598048664644L162.002390625,53.05029629198786L164.0861875,52.56572777519273L171.4910546875,52.18967266511565L171.8197578125,51.77535759906938L171.923796875,51.00886655944164L172.731984375,51.47538993566498L175.13242187499998,51.218285961398976L177.810296875,50.89905957683939L179.755375,50.357417746103636L180.23184375,50.055442647662176L181.8165546875,50.02152158859731L183.97121875000002,49.72434095315839L188.64091406249997,49.50850857189505L189.6511484375,48.965537143137055L191.2011796875,48.46452428588225L192.3802890625,48.98661257152932L192.5175,48.54619954291758L196.99268750000002,48.52054772575056L199.0327578125,47.95008463545037L200.23599218750002,47.563202781270235L201.66690624999998,47.237263668762125L203.85021875,47.22401020125727L205.795296875,47.13499212075436L207.278984375,46.57252927245264L209.9131328125,46.1688535634716L210.1423203125,45.782570138082946L211.9004296875,45.819840082849794L216.3092734375,45.64927204970988L218.34934374999997,45.47152922982593L220.402984375,44.741489537895575L221.53384375,44.82703172273736L223.1577578125,44.953051033642396L223.5784375,44.51784062018544L224.68215625000002,44.31335437211126L227.84253124999998,43.63346662326674L228.2451171875,43.545903973960066L231.5803984375,43.84064038437603L235.6409375,43.5339182306256L237.640296875,42.95482093837538L240.57902343749998,42.42576056302525L240.59711718749998,42.62445633781513L241.3992734375,42.7960658026891L242.4517265625,43.044525481613476L243.4695,42.55498528896808L245.2472109375,42.28073117338084L246.44290625,41.969268704028536L251.34480468750002,42.453929222417116L254.9168125,42.43780753345027L256.940296875,41.944924520070174L258.0093359375,41.944430712042106L260.2439140625,41.16391842722527L260.3434296875,40.98093505633517L260.3449375,40.8346830338011L260.3464453125,40.76781782028067L260.347953125,40.7574346921684L260.3494609375,40.681466815301036L260.35096875,40.804744089180645L260.3524765625,40.631618453508366L260.353984375,40.78651707210503L260.35549218750003,39.93321424326302L260.35699999999997,40.08887654595782L260.3585078125,39.57162392757468L260.360015625,39.28322035654483L260.3615234375,40.069872213926885L260.36303125,39.83103132835615L260.3645390625,39.730914797013696" style="fill: none;" fill="none"></path></g></g></g></g><g opacity="0.2"><g><g><g><path stroke="rgb(255, 112, 67)" stroke-width="2px" d="M32.083234375,159.23451L32.1571171875,159.20442L32.2988515625,159.08052L32.4677265625,159.17964L32.481296875,159.05928L32.525023437499996,159.04866L32.56875,159.05574000000001L32.58684375,159.04866L32.5883515625,159.237165L32.595890625,159.09468L32.6094609375,159.09468L32.6185078125,159.253095L32.7210390625,159.06282L32.8416640625,159.19026L32.85825,159.22566L33.0150625,159.13008L33.048234375,159.0699L33.060296875,159.04512L33.078390625,159.07698L33.0919609375,158.98494L33.25028125,159.2115L33.272898437500004,159.06282L33.3060703125,159.02034L33.3905078125,159.09468L33.542796875,158.92476L33.6076328125,158.946L33.63628125,159.03096L33.6588984375,159.03804L33.6950859375,158.90175L33.702625,158.923875L33.8157109375,158.9991L33.942367187500004,159.02742L34.0177578125,159.02388L34.0599765625,159.14424L34.087117187500006,159.0876L34.09465625,158.95662L34.130843750000004,159.0876L34.170046875000004,159.11238L34.2167890625,158.870775L34.224328125,158.90352000000001L34.45653125,158.941575L34.49875,158.93184L34.550015625,159.00618L34.574140625,158.9637L34.592234375,158.99202L34.667625,158.88936L34.694765624999995,158.97786L34.700796875,159.08406L34.77015625,159.05928L34.8922890625,159.07344L34.942046874999996,158.98848L35.0279921875,159.11592L35.068703125,158.877855L35.0898125,159.02388L35.110921874999995,158.91414L35.163695312499996,158.876085L35.213453125,159.08406L35.3597109375,158.9637L35.3898671875,159.00972000000002L35.4275625,159.04512L35.56025,159.11946L35.5888984375,158.95308L35.5949296875,158.94954L35.599453125,158.95308L35.635640625,159.0522L35.6371484375,158.817675L35.741187499999995,159.05928L35.84371875,158.92476L35.8693515625,159.07344L35.8964921875,159.0345L36.015609375000004,159.06636L36.078937499999995,159.00618L36.1286953125,159.01326L36.1347265625,158.93538L36.145281250000004,159.03804L36.164882812500004,158.73006L36.178453125,159.14424L36.287015625,158.98494L36.3367734375,159.03804L36.42875,158.98848L36.4332734375,159.10176L36.480015625,158.95662L36.582546875000006,159.0876L36.731820312500005,158.74422L36.749914062500004,158.808825L36.8750625,158.881395L36.9097421875,158.94954L36.9233125,158.741565L36.9670390625,159.00263999999999L36.9881484375,158.9637L37.107265625,158.76015L37.1404375,158.95662L37.330421875,158.74599L37.445015624999996,158.582265L37.466125,158.51943L37.493265625,158.946L37.5068359375,158.92476L37.52040625,158.72298L37.662140625000006,158.76722999999998L37.7571328125,158.53713L37.8023671875,158.702625L37.885296875,158.71236L38.082820312500004,158.55837L38.088851562500004,158.8221L38.0918671875,158.44863L38.141625000000005,158.727405L38.1551953125,158.653065L38.349703125000005,158.31588L38.3934296875,158.54067L38.428109375,158.62386L38.5080234375,158.3442L38.7221328125,158.38314L38.821648437499995,158.40261L38.8774375,158.49819L38.916640625,158.51235L38.921164062500004,158.43624L38.9302109375,158.3265L39.0478203125,158.65041L39.1744765625,158.14242000000002L39.2679609375,158.3619L39.4217578125,158.47872L39.549921875,158.32827L39.5755546875,158.44332L39.5906328125,158.674305L39.634359374999995,158.6628L39.6494375,158.60793L39.65546875,158.72652L39.720304687500004,158.38491L39.9072734375,158.37075L40.056546874999995,158.96724L40.095749999999995,158.41854L40.097257812500004,158.77254L40.1123359375,158.4681L40.1319375,158.77077L40.144,158.9106L40.1907421875,158.77431L40.364140625000005,158.50704L40.480242187500004,158.238L40.623484375,158.33535L40.7124453125,158.48403L40.8873515625,158.19375L40.897906250000005,158.693775L40.928062499999996,158.23623L40.947664062499996,158.038875L41.053210937500005,158.46278999999998L41.0592421875,158.64687L41.0984453125,158.17605L41.2070078125,158.33004L41.519124999999995,158.22384L41.5568203125,158.40969L41.577929687499996,158.3619L41.580945312500006,158.40084L41.8312421875,158.32473L41.841796875,158.31411L41.862906249999995,158.29641L41.884015624999996,158.45571L41.9126640625,158.44686000000002L42.0272578125,158.1495L42.1086796875,158.38137L42.340882812500006,158.382255L42.3831015625,158.22738L42.399687500000006,158.44332L42.6484765625,158.54775L42.651492187500004,158.38668L42.6891875,158.19198L42.714820312499995,158.37252L42.71934375,158.722095L42.723867187500005,158.676075L42.859570312500004,158.26809L43.0646328125,158.25924L43.0887578125,158.50881L43.2033515625,158.28402L43.3285,158.37429L43.387304687500006,158.46102L43.397859374999996,158.41323L43.406906250000006,158.36367L43.5712578125,158.44509L43.578796875,158.30526L43.6406171875,158.25216L43.780843749999995,158.31411L43.832109375,158.23092L44.0296328125,158.38845L44.086929687499996,158.26101L44.126132812499996,158.28933L44.2618359375,158.23446L44.299531249999994,158.25039L44.5332421875,158.070735L44.56490625,157.695495L44.72171875,158.0964L44.785046875,157.92648L44.8046484375,158.058345L44.845359375,158.46987000000001L44.9493984375,158.27694L45.0609765625,158.06985L45.104703125,158.25393L45.1755703125,158.08224L45.4891953125,157.989315L45.623390625,157.876035L45.7213984375,158.2203L45.73496875,157.66806L45.8058359375,158.15304L45.8420234375,158.03799L45.861625000000004,158.28579L45.89178125,158.27871L45.952093749999996,159.05574000000001L46.010898437499996,158.028255L46.0470859375,158.28756L46.506968750000006,158.25393L46.6502109375,157.814085L46.7180625,157.97958L46.752742187500004,158.00612999999998L46.7828984375,157.934445L46.8190859375,158.12295L46.823609375,158.0433L46.8432109375,157.97073L46.956296875,158.20791L47.4900625,157.55124L47.610687500000004,158.34774L47.65290625,158.31411L47.6966328125,157.84240499999999L47.73734375,157.81674L47.7478984375,157.686645L47.8760625,157.83621L47.88209375,157.753905L47.9921640625,157.5654L48.494265625,157.83444L48.595289062499994,157.84948500000002L48.71440625,157.904355L48.78075,157.46274L48.842570312499994,157.564515L48.8878046875,157.883115L48.892328125,157.830015L49.015968750000006,156.776865L49.2888828125,157.47159L49.534656250000005,156.47685L49.5934609375,157.803465L49.7683671875,157.59903L49.7985234375,157.656555L49.8075703125,157.73001L49.950812500000005,157.83975L49.9915234375,157.796385L50.3322890625,157.077765L50.520765625,155.8662L50.624804687499996,157.83444L50.7906640625,157.7424L50.896210937499994,157.768065L50.911289062499996,157.40964L50.936921875,156.93882L51.255070312499996,157.660095L51.2611015625,157.66806L51.3274453125,155.62548L51.431484375000004,157.55832L51.5189375,157.78665L51.748125,157.56894L51.7586796875,157.65213L51.9758046875,157.702575L52.150710937499994,156.603405L52.2411796875,156.32817L52.56234375,157.047675L52.568374999999996,157.32999L52.615117187500005,157.481325L52.6301953125,157.499025L52.8563671875,157.54504500000002L53.081031249999995,157.14414L53.3660078125,154.612155L53.403703125,156.3972L53.759546875,155.75292L53.783671874999996,157.30875L53.886203125,157.493715L53.8967578125,157.18485L53.9329453125,155.19714L53.941992187500006,157.34946L54.282757812499995,157.16361L54.54059375,154.93341L54.6144765625,157.468935L55.115070312499995,157.534425L55.1452265625,155.364405L55.369890625000004,156.704295L55.400046875,154.91217L55.442265625,155.29803L55.7031171875,154.704195L55.764937499999995,156.48747L56.6741484375,151.43412L56.7887421875,154.573215L57.230531250000006,154.659945L57.286320312499996,154.456395L57.6029609375,153.89619L57.73715625,154.77411L57.7507265625,150.51903L57.758265625,152.58285L57.8653203125,152.73861L58.889125,150.491595L59.5043125,152.77578L60.1541796875,153.16518L60.627632812499996,147.895005L60.629140625,151.69077L60.963875,147.061335L61.93490625,147.07815L62.100765625,147.319755L62.153539062499995,141.25308L62.33296875,154.63605L62.7370625,147.165765L62.83959375,153.70503L63.130601562500004,150.360615L63.2075,149.03577L63.697539062500006,141.8832L63.831734375,154.84668L63.944820312500006,154.64667L65.2837578125,144.53289L65.8687890625,148.00032L66.1793984375,147.71358L68.053609375,143.51337L68.21946875,140.154795L68.632609375,132.86151L69.62776562500001,137.30244L70.604828125,137.06703L70.972734375,136.54134L71.473328125,123.283155L71.7356875,136.10415L72.00860156249999,136.634265L72.20160156249999,143.93817L72.64640625,136.31301L74.17985156249999,132.66327L76.61044531249999,132.871245L79.01992968750001,129.12327L80.4704453125,123.98496L81.18364062500001,125.177055L82.426078125,113.22867L82.4456796875,97.33937999999999L82.58590625,117.992625L83.095546875,111.512655L84.802390625,99.821805L85.7266796875,105.478725L95.5395234375,74.914365L95.5515859375,74.44443L100.08859375,71.26639499999999L100.46705468750001,72.997455L100.9917734375,71.478795L101.997484375,71.06815499999999L102.46490625,71.84695500000001L102.727265625,71.560215L104.25769531249999,69.46719L104.440140625,69.18841499999999L114.15799218750001,64.92537L114.86515625,67.54674L118.3647890625,64.50765000000001L120.12591406249999,63.12527999999999L120.2766953125,64.480215L120.73356249999999,63.13059000000001L121.985046875,63.307590000000005L122.49167187500001,63.885495000000006L122.50675,64.00762499999999L124.43071875000001,62.89872L133.173015625,59.957865L133.770109375,61.657950000000014L136.3982265625,58.86754500000001L137.2576796875,60.14636999999999L139.99134375,56.10634499999999L139.9958671875,57.75244500000001L140.22203906250002,57.78165L141.29861718749999,57.83121L142.1972734375,56.987804999999994L144.143859375,56.18334L152.71728125,53.846940000000004L153.275171875,57.274545L154.1361328125,53.164604999999995L154.41658593749997,54.718665L157.608625,52.844235L158.718375,53.323904999999996L160.36792187499998,50.908739999999995L160.5594140625,52.1088L162.002390625,53.98677000000001L164.0861875,51.838875L171.4910546875,51.62559L171.8197578125,51.15388499999999L171.923796875,49.85912999999999L172.731984375,52.175174999999996L175.13242187499998,50.832629999999995L177.810296875,50.42022L179.755375,49.544955L180.23184375,49.602480000000014L181.8165546875,49.97064L183.97121875000002,49.27857L188.64091406249997,49.18476L189.6511484375,48.15107999999998L191.2011796875,47.71300500000001L192.3802890625,49.769745L192.5175,47.885580000000004L196.99268750000002,48.48206999999999L199.0327578125,47.094390000000004L200.23599218750002,46.982879999999994L201.66690624999998,46.748355000000004L203.85021875,47.20412999999999L205.795296875,47.001464999999996L207.278984375,45.728835000000004L209.9131328125,45.56334000000001L210.1423203125,45.203145000000006L211.9004296875,45.875744999999995L216.3092734375,45.39341999999999L218.34934374999997,45.204915L220.402984375,43.64643000000001L221.53384375,44.955344999999994L223.1577578125,45.14208000000002L223.5784375,43.865025L224.68215625000002,44.006624999999985L227.84253124999998,42.613635000000016L228.2451171875,43.41456000000002L231.5803984375,44.282745000000006L235.6409375,43.073835L237.640296875,42.086175L240.57902343749998,41.63217L240.59711718749998,42.922500000000014L241.3992734375,43.05348000000001L242.4517265625,43.417215L243.4695,41.820674999999994L245.2472109375,41.86935L246.44290625,41.50207499999999L251.34480468750002,43.180919999999986L254.9168125,42.413624999999996L256.940296875,41.205600000000004L258.0093359375,41.943690000000004L260.2439140625,39.993149999999986L260.3434296875,40.70645999999999L260.3449375,40.615305000000006L260.3464453125,40.667519999999996L260.347953125,40.74186L260.3494609375,40.567515000000014L260.35096875,40.989660000000015L260.3524765625,40.37192999999999L260.353984375,41.018865000000005L260.35549218750003,38.65326000000002L260.35699999999997,40.32237000000001L260.3585078125,38.79574499999998L260.360015625,38.850615000000005L260.3615234375,41.24985000000001L260.36303125,39.47277L260.3645390625,39.58074000000002" style="fill: none;" fill="none"></path></g></g></g></g></g></g><g transform="translate(58, 177)" clip-path="url(#clip_1)"><clipPath id="clip_1"><rect width="271" height="23"></rect></clipPath><g><g><line x1="0" y1="0" x2="0" y2="5" style="visibility: inherit;" fill="rgb(0, 0, 0)" stroke="rgb(204, 204, 204)" stroke-width="1px"></line><line x1="30.15625" y1="0" x2="30.15625" y2="5" style="visibility: inherit;" fill="rgb(0, 0, 0)" stroke="rgb(204, 204, 204)" stroke-width="1px"></line><line x1="60.3125" y1="0" x2="60.3125" y2="5" style="visibility: inherit;" fill="rgb(0, 0, 0)" stroke="rgb(204, 204, 204)" stroke-width="1px"></line><line x1="90.46875" y1="0" x2="90.46875" y2="5" style="visibility: inherit;" fill="rgb(0, 0, 0)" stroke="rgb(204, 204, 204)" stroke-width="1px"></line><line x1="120.625" y1="0" x2="120.625" y2="5" style="visibility: inherit;" fill="rgb(0, 0, 0)" stroke="rgb(204, 204, 204)" stroke-width="1px"></line><line x1="150.78125" y1="0" x2="150.78125" y2="5" style="visibility: inherit;" fill="rgb(0, 0, 0)" stroke="rgb(204, 204, 204)" stroke-width="1px"></line><line x1="180.9375" y1="0" x2="180.9375" y2="5" style="visibility: inherit;" fill="rgb(0, 0, 0)" stroke="rgb(204, 204, 204)" stroke-width="1px"></line><line x1="211.09375" y1="0" x2="211.09375" y2="5" style="visibility: inherit;" fill="rgb(0, 0, 0)" stroke="rgb(204, 204, 204)" stroke-width="1px"></line><line x1="241.25" y1="0" x2="241.25" y2="5" style="visibility: inherit;" fill="rgb(0, 0, 0)" stroke="rgb(204, 204, 204)" stroke-width="1px"></line><line x1="271.40625" y1="0" x2="271.40625" y2="5" style="visibility: inherit;" fill="rgb(0, 0, 0)" stroke="rgb(204, 204, 204)" stroke-width="1px"></line></g><g transform="translate(0, 8)"><text x="0" y="0" dx="0em" dy="0.95em" style="text-anchor: middle; visibility: hidden; font-family: &quot;Helvetica Neue&quot;, sans-serif; font-size: 12px; font-weight: 200;" fill="rgb(50, 49, 63)" stroke="none" stroke-width="1px">-20k</text><text x="30.15625" y="0" dx="0em" dy="0.95em" style="text-anchor: middle; visibility: inherit; font-family: &quot;Helvetica Neue&quot;, sans-serif; font-size: 12px; font-weight: 200;" fill="rgb(50, 49, 63)" stroke="none" stroke-width="1px">0</text><text x="60.3125" y="0" dx="0em" dy="0.95em" style="text-anchor: middle; visibility: hidden; font-family: &quot;Helvetica Neue&quot;, sans-serif; font-size: 12px; font-weight: 200;" fill="rgb(50, 49, 63)" stroke="none" stroke-width="1px">20k</text><text x="90.46875" y="0" dx="0em" dy="0.95em" style="text-anchor: middle; visibility: inherit; font-family: &quot;Helvetica Neue&quot;, sans-serif; font-size: 12px; font-weight: 200;" fill="rgb(50, 49, 63)" stroke="none" stroke-width="1px">40k</text><text x="120.625" y="0" dx="0em" dy="0.95em" style="text-anchor: middle; visibility: hidden; font-family: &quot;Helvetica Neue&quot;, sans-serif; font-size: 12px; font-weight: 200;" fill="rgb(50, 49, 63)" stroke="none" stroke-width="1px">60k</text><text x="150.78125" y="0" dx="0em" dy="0.95em" style="text-anchor: middle; visibility: inherit; font-family: &quot;Helvetica Neue&quot;, sans-serif; font-size: 12px; font-weight: 200;" fill="rgb(50, 49, 63)" stroke="none" stroke-width="1px">80k</text><text x="180.9375" y="0" dx="0em" dy="0.95em" style="text-anchor: middle; visibility: hidden; font-family: &quot;Helvetica Neue&quot;, sans-serif; font-size: 12px; font-weight: 200;" fill="rgb(50, 49, 63)" stroke="none" stroke-width="1px">100k</text><text x="211.09375" y="0" dx="0em" dy="0.95em" style="text-anchor: middle; visibility: inherit; font-family: &quot;Helvetica Neue&quot;, sans-serif; font-size: 12px; font-weight: 200;" fill="rgb(50, 49, 63)" stroke="none" stroke-width="1px">120k</text><text x="241.25" y="0" dx="0em" dy="0.95em" style="text-anchor: middle; visibility: hidden; font-family: &quot;Helvetica Neue&quot;, sans-serif; font-size: 12px; font-weight: 200;" fill="rgb(50, 49, 63)" stroke="none" stroke-width="1px">140k</text><text x="271.40625" y="0" dx="0em" dy="0.95em" style="text-anchor: middle; visibility: hidden; font-family: &quot;Helvetica Neue&quot;, sans-serif; font-size: 12px; font-weight: 200;" fill="rgb(50, 49, 63)" stroke="none" stroke-width="1px">160k</text></g><line x1="0" y1="0" x2="271.40625" y2="0" fill="rgb(0, 0, 0)" stroke="rgb(204, 204, 204)" stroke-width="1px"></line></g></g></g></g></svg>