<svg viewBox="0 0 330 200" xmlns="http://www.w3.org/2000/svg"><g><g><g><g><g><line x1="68.3125" y1="177" x2="63.3125" y2="177" style="visibility: inherit;" fill="rgb(0, 0, 0)" stroke="rgb(204, 204, 204)" stroke-width="1px"></line><line x1="68.3125" y1="159.3" x2="63.3125" y2="159.3" style="visibility: inherit;" fill="rgb(0, 0, 0)" stroke="rgb(204, 204, 204)" stroke-width="1px"></line><line x1="68.3125" y1="141.6" x2="63.3125" y2="141.6" style="visibility: inherit;" fill="rgb(0, 0, 0)" stroke="rgb(204, 204, 204)" stroke-width="1px"></line><line x1="68.3125" y1="123.9" x2="63.3125" y2="123.9" style="visibility: inherit;" fill="rgb(0, 0, 0)" stroke="rgb(204, 204, 204)" stroke-width="1px"></line><line x1="68.3125" y1="106.2" x2="63.3125" y2="106.2" style="visibility: inherit;" fill="rgb(0, 0, 0)" stroke="rgb(204, 204, 204)" stroke-width="1px"></line><line x1="68.3125" y1="88.5" x2="63.3125" y2="88.5" style="visibility: inherit;" fill="rgb(0, 0, 0)" stroke="rgb(204, 204, 204)" stroke-width="1px"></line><line x1="68.3125" y1="70.8" x2="63.3125" y2="70.8" style="visibility: inherit;" fill="rgb(0, 0, 0)" stroke="rgb(204, 204, 204)" stroke-width="1px"></line><line x1="68.3125" y1="53.10000000000001" x2="63.3125" y2="53.10000000000001" style="visibility: inherit;" fill="rgb(0, 0, 0)" stroke="rgb(204, 204, 204)" stroke-width="1px"></line><line x1="68.3125" y1="35.400000000000006" x2="63.3125" y2="35.400000000000006" style="visibility: inherit;" fill="rgb(0, 0, 0)" stroke="rgb(204, 204, 204)" stroke-width="1px"></line><line x1="68.3125" y1="17.69999999999999" x2="63.3125" y2="17.69999999999999" style="visibility: inherit;" fill="rgb(0, 0, 0)" stroke="rgb(204, 204, 204)" stroke-width="1px"></line><line x1="68.3125" y1="0" x2="63.3125" y2="0" style="visibility: inherit;" fill="rgb(0, 0, 0)" stroke="rgb(204, 204, 204)" stroke-width="1px"></line></g><g transform="translate(58.3125, 0)"><text x="0" y="177" dx="0em" dy="0.3em" style="text-anchor: end; visibility: hidden; font-family: &quot;Helvetica Neue&quot;, sans-serif; font-size: 12px; font-weight: 200;" fill="rgb(50, 49, 63)" stroke="none" stroke-width="1px">-2e+3</text><text x="0" y="159.3" dx="0em" dy="0.3em" style="text-anchor: end; visibility: inherit; font-family: &quot;Helvetica Neue&quot;, sans-serif; font-size: 12px; font-weight: 200;" fill="rgb(50, 49, 63)" stroke="none" stroke-width="1px">0</text><text x="0" y="141.6" dx="0em" dy="0.3em" style="text-anchor: end; visibility: hidden; font-family: &quot;Helvetica Neue&quot;, sans-serif; font-size: 12px; font-weight: 200;" fill="rgb(50, 49, 63)" stroke="none" stroke-width="1px">2e+3</text><text x="0" y="123.9" dx="0em" dy="0.3em" style="text-anchor: end; visibility: inherit; font-family: &quot;Helvetica Neue&quot;, sans-serif; font-size: 12px; font-weight: 200;" fill="rgb(50, 49, 63)" stroke="none" stroke-width="1px">4e+3</text><text x="0" y="106.2" dx="0em" dy="0.3em" style="text-anchor: end; visibility: hidden; font-family: &quot;Helvetica Neue&quot;, sans-serif; font-size: 12px; font-weight: 200;" fill="rgb(50, 49, 63)" stroke="none" stroke-width="1px">6e+3</text><text x="0" y="88.5" dx="0em" dy="0.3em" style="text-anchor: end; visibility: inherit; font-family: &quot;Helvetica Neue&quot;, sans-serif; font-size: 12px; font-weight: 200;" fill="rgb(50, 49, 63)" stroke="none" stroke-width="1px">8e+3</text><text x="0" y="70.8" dx="0em" dy="0.3em" style="text-anchor: end; visibility: hidden; font-family: &quot;Helvetica Neue&quot;, sans-serif; font-size: 12px; font-weight: 200;" fill="rgb(50, 49, 63)" stroke="none" stroke-width="1px">1e+4</text><text x="0" y="53.10000000000001" dx="0em" dy="0.3em" style="text-anchor: end; visibility: inherit; font-family: &quot;Helvetica Neue&quot;, sans-serif; font-size: 12px; font-weight: 200;" fill="rgb(50, 49, 63)" stroke="none" stroke-width="1px">1.2e+4</text><text x="0" y="35.400000000000006" dx="0em" dy="0.3em" style="text-anchor: end; visibility: hidden; font-family: &quot;Helvetica Neue&quot;, sans-serif; font-size: 12px; font-weight: 200;" fill="rgb(50, 49, 63)" stroke="none" stroke-width="1px">1.4e+4</text><text x="0" y="17.69999999999999" dx="0em" dy="0.3em" style="text-anchor: end; visibility: inherit; font-family: &quot;Helvetica Neue&quot;, sans-serif; font-size: 12px; font-weight: 200;" fill="rgb(50, 49, 63)" stroke="none" stroke-width="1px">1.6e+4</text><text x="0" y="0" dx="0em" dy="0.3em" style="text-anchor: end; visibility: hidden; font-family: &quot;Helvetica Neue&quot;, sans-serif; font-size: 12px; font-weight: 200;" fill="rgb(50, 49, 63)" stroke="none" stroke-width="1px">1.8e+4</text></g><line x1="68.3125" y1="0" x2="68.3125" y2="177" fill="rgb(0, 0, 0)" stroke="rgb(204, 204, 204)" stroke-width="1px"></line></g></g><g transform="translate(68, 0)" clip-path="url(#clip_0)"><clipPath id="clip_0"><rect width="261" height="177"></rect></clipPath><g><g><g><line x1="0" y1="0" x2="0" y2="177" fill="rgb(0, 0, 0)" stroke="rgb(60, 60, 60)" stroke-width="1px" opacity="0.25"></line><line x1="29.076388888888886" y1="0" x2="29.076388888888886" y2="177" fill="rgb(0, 0, 0)" stroke="rgb(60, 60, 60)" stroke-width="1px" opacity="0.25"></line><line x1="58.15277777777777" y1="0" x2="58.15277777777777" y2="177" fill="rgb(0, 0, 0)" stroke="rgb(60, 60, 60)" stroke-width="1px" opacity="0.25"></line><line x1="87.22916666666666" y1="0" x2="87.22916666666666" y2="177" fill="rgb(0, 0, 0)" stroke="rgb(60, 60, 60)" stroke-width="1px" opacity="0.25"></line><line x1="116.30555555555554" y1="0" x2="116.30555555555554" y2="177" fill="rgb(0, 0, 0)" stroke="rgb(60, 60, 60)" stroke-width="1px" opacity="0.25"></line><line x1="145.38194444444446" y1="0" x2="145.38194444444446" y2="177" fill="rgb(0, 0, 0)" stroke="rgb(60, 60, 60)" stroke-width="1px" opacity="0.25"></line><line x1="174.45833333333331" y1="0" x2="174.45833333333331" y2="177" fill="rgb(0, 0, 0)" stroke="rgb(60, 60, 60)" stroke-width="1px" opacity="0.25"></line><line x1="203.53472222222223" y1="0" x2="203.53472222222223" y2="177" fill="rgb(0, 0, 0)" stroke="rgb(60, 60, 60)" stroke-width="1px" opacity="0.25"></line><line x1="232.6111111111111" y1="0" x2="232.6111111111111" y2="177" fill="rgb(0, 0, 0)" stroke="rgb(60, 60, 60)" stroke-width="1px" opacity="0.25"></line><line x1="261.6875" y1="0" x2="261.6875" y2="177" fill="rgb(0, 0, 0)" stroke="rgb(60, 60, 60)" stroke-width="1px" opacity="0.25"></line></g><g><line x1="0" y1="177" x2="261.6875" y2="177" fill="rgb(0, 0, 0)" stroke="rgb(60, 60, 60)" stroke-width="1px" opacity="0.25"></line><line x1="0" y1="159.3" x2="261.6875" y2="159.3" fill="rgb(0, 0, 0)" stroke="rgb(60, 60, 60)" stroke-width="1px" opacity="0.25"></line><line x1="0" y1="141.6" x2="261.6875" y2="141.6" fill="rgb(0, 0, 0)" stroke="rgb(60, 60, 60)" stroke-width="1px" opacity="0.25"></line><line x1="0" y1="123.9" x2="261.6875" y2="123.9" fill="rgb(0, 0, 0)" stroke="rgb(60, 60, 60)" stroke-width="1px" opacity="0.25"></line><line x1="0" y1="106.2" x2="261.6875" y2="106.2" fill="rgb(0, 0, 0)" stroke="rgb(60, 60, 60)" stroke-width="1px" opacity="0.25"></line><line x1="0" y1="88.5" x2="261.6875" y2="88.5" fill="rgb(0, 0, 0)" stroke="rgb(60, 60, 60)" stroke-width="1px" opacity="0.25"></line><line x1="0" y1="70.8" x2="261.6875" y2="70.8" fill="rgb(0, 0, 0)" stroke="rgb(60, 60, 60)" stroke-width="1px" opacity="0.25"></line><line x1="0" y1="53.10000000000001" x2="261.6875" y2="53.10000000000001" fill="rgb(0, 0, 0)" stroke="rgb(60, 60, 60)" stroke-width="1px" opacity="0.25"></line><line x1="0" y1="35.400000000000006" x2="261.6875" y2="35.400000000000006" fill="rgb(0, 0, 0)" stroke="rgb(60, 60, 60)" stroke-width="1px" opacity="0.25"></line><line x1="0" y1="17.69999999999999" x2="261.6875" y2="17.69999999999999" fill="rgb(0, 0, 0)" stroke="rgb(60, 60, 60)" stroke-width="1px" opacity="0.25"></line><line x1="0" y1="0" x2="261.6875" y2="0" fill="rgb(0, 0, 0)" stroke="rgb(60, 60, 60)" stroke-width="1px" opacity="0.25"></line></g></g></g><g><g><line x1="0" y1="159.3" x2="261.6875" y2="159.3" fill="rgb(0, 0, 0)" stroke="rgb(153, 153, 153)" stroke-width="1.5px"></line></g></g><g><g><line x1="29.076388888888886" y1="0" x2="29.076388888888886" y2="177" fill="rgb(0, 0, 0)" stroke="rgb(153, 153, 153)" stroke-width="1.5px"></line></g></g><g><g><g><g><g><path stroke="rgb(255, 112, 67)" stroke-width="2px" d="M29.287192708333333,159.2646L29.30463854166667,159.27391578947368L29.65937048611111,159.26721254612545L29.663731944444446,159.26387944169818L29.668093402777778,159.25757203975482L29.67245486111111,159.25907194910354L29.79602951388889,159.25673883107078L30.255436458333335,159.25345739909724L30.269974652777776,159.24660810062352L30.28015138888889,159.2452941412599L30.313589236111113,159.24165897273096L30.32958125,159.2423893577643L30.377557291666665,159.24180752889603L30.403726041666665,159.24132031771595L30.956177430555552,159.23756512508166L30.959085069444445,159.23545205674458L30.983800000000002,159.2251425090724L30.996884375,159.226661206502L31.001245833333332,159.22695473754288L31.00996875,159.21310552256259L31.43303020833333,159.20994404458148L31.53043611111111,159.19637322533174L31.563873958333332,159.19609087858072L31.576958333333334,159.18622480948363L31.606034722222223,159.1755995427765L31.610396180555554,159.1595688310893L31.614757638888886,159.15474653259093L31.61766527777778,159.15326430742883L31.72670173611111,159.11108098805465L31.904067708333336,159.11602235971745L32.13231736111111,159.10570655471537L32.15121701388889,159.03967871188777L32.186108680555556,158.97339238407721L32.21227743055556,158.9277898085818L32.247169097222226,158.88427149670417L32.251530555555554,158.84350596484435L32.331490625,158.8259647095938L32.344575,158.78861161930723L32.74728298611111,158.72903196866332L32.78798993055556,158.69536108642814L32.81415868055556,158.64631756184906L32.83015069444444,158.5870765416504L32.833058333333334,158.53031729160068L32.91883368055555,158.5025866378454L32.92319513888889,158.4098283833954L32.952271527777775,158.35772123468985L33.392778819444445,158.2761423772111L33.43493958333333,158.2072850217972L33.58032152777778,158.15162780318036L33.82165555555555,157.9388031725575L33.869631597222224,157.7190184061497L33.92487673611111,157.5374034031861L33.99902152777778,157.32790094072033L34.057174305555556,157.12262673410598L34.26361666666667,156.99660053111006L34.43371354166666,156.68002840992645L34.438075,156.7678971684731L34.456974652777774,156.58883018593195L35.13881597222222,156.45080156861988L35.15044652777778,156.09700062782318L35.784311805555554,155.64396286286396L35.86281805555556,155.31347552636794L36.073621875,155.00992531673114L36.18411215277778,154.5985828046438L36.19283506944444,154.45969715030444L36.24662638888889,154.1221250522491L36.277156597222216,154.0176677655208L36.807800694444445,153.67302438870252L38.357572222222224,153.04141722580394L38.36774895833334,152.44560217817684L38.53493819444444,151.65530129319384L39.282201388888886,150.67936584854297L39.378153472222216,150.0640832174065L41.10092951388889,149.15092449765328L41.691180208333336,147.87143865285861L41.88017673611111,144.8714958377051L42.22182430555556,144.2901770381124L42.26543888888889,141.65484352791552L42.56637951388889,141.45106970914253L42.95891076388889,141.36328355919304L43.93006215277778,141.12760386227006L44.61626493055556,140.93940017069997L45.894172222222224,138.11814081754673L47.01797465277778,137.94857743038625L47.109565277777776,138.0747859691336L47.52390381944444,137.9254950386016L47.53844201388889,135.93244226934436L48.115608333333334,133.85816296451296L49.681371874999996,131.4541081852643L50.60163958333333,128.81521634295552L53.05568680555556,126.39599884804417L53.15163888888889,124.48867627447159L53.76515069444444,122.80308504060312L53.968685416666666,121.77638522212897L56.46780104166667,119.1106067879712L58.945109375,116.61407504016691L61.22615208333333,112.35465234242554L62.26127152777778,108.67962159712427L62.99690416666667,105.39335745099758L63.25277638888888,105.03859228283868L63.51882534722222,102.11114807324277L65.33319201388889,95.16641885192287L68.62318541666666,92.23943029069068L68.73658333333333,93.81693975277459L69.95343020833333,90.44699792251922L69.99704479166667,87.09988088297776L74.2829045138889,87.79745165678283L75.06360555555555,85.50119023608484L76.89105659722223,84.03282610237781L77.25015,81.93514906474091L79.6416829861111,81.04818676521573L83.06106631944445,76.1939366734518L84.12380833333333,73.7119512488549L85.36246249999999,71.74366916390782L88.16397256944445,67.8251958183405L89.77480451388888,64.29503386146996L90.12953645833333,61.140016499565405L91.52665694444444,60.74488327432198L94.62329236111111,57.92275982096652L96.52924965277778,55.43506580549388L96.95085729166667,53.14215756101616L102.89988645833333,51.07765640482101L102.95222395833333,49.2196063902656L103.44652256944445,47.55975223449224L104.75641388888889,46.05349413885361L108.48691458333334,44.69786239849583L108.71952569444446,43.475139270103426L109.96544895833334,42.37645881583438L112.07203333333334,41.385876694957375L116.56724305555555,40.496123023627064L117.91784131944443,39.696229910675385L119.02710555555555,38.97367126060945L121.38229305555555,38.326023602939216L121.42590763888889,37.74402581269567L123.65025138888889,37.21757288140168L124.68682465277779,36.7437653097418L127.32405312499999,36.3208785510231L128.68918958333333,35.93851051058988L131.44126979166666,35.59349430902682L135.41165069444443,35.28209475586837L135.68933020833333,35.000950180941686L137.60401041666668,34.748805082663665L138.84557222222224,34.5227595097017L140.9376184027778,34.3193185063281L141.02193993055556,34.13445161283815L143.51814791666666,33.96807141684005L146.6438597222222,33.81921424720366L147.96102013888887,33.68435779969229L150.457228125,33.5647570015316L151.59411493055555,33.45623128652221L152.82695381944444,33.35944314594548L155.9206815972222,33.27144882159391L156.4164340277778,33.19136893144304L160.0582517361111,33.119297031825624L160.48858229166666,33.05443232339985L162.8190548611111,32.99605408681285L166.0378111111111,32.944398674749436L167.0380388888889,32.89879380458714L167.2895496527778,32.85686442190473L167.9801138888889,32.82001297795529L169.55314652777776,32.78507667865898L175.25357256944446,32.75363400957741L175.657734375,32.725335607634975L179.4943638888889,32.69986704607388L179.85345729166667,32.67694534082045L181.64165520833333,32.65720080623757L182.24935173611112,32.638545725187925L184.0709875,32.62264115234234L185.44048541666666,32.608327036843406L185.71380347222222,32.596329332959385L188.2943329861111,32.58376139947518L194.37565972222222,32.57156525936327L195.47183958333332,32.561473733304496L195.92543125,32.55327635988451L198.64698125,32.54501372381483L199.00171319444445,32.53846235137544L200.11824652777776,32.533451116197995L201.59823472222223,32.528941004545885L204.77919166666666,32.52311190405371L204.79518368055557,32.518750713623035L207.37571319444444,32.51394064223561L210.043471875,32.51049657799584L213.28112777777778,32.506511920179406L214.9835503472222,32.503810728151166L217.26459305555557,32.49960965532168L217.5960638888889,32.49848368978601L217.77052222222224,32.496585320802154L220.5923857638889,32.49399178871545L223.7239128472222,32.49077260983668L223.75153541666666,32.49141534885433L224.10190590277776,32.49110881396834L226.2448357638889,32.49083293257104L231.94526180555556,32.490584639313596L234.33534097222224,32.490361175381935L234.93431458333333,32.4901600578435L236.36196527777778,32.487324052056096L236.69488993055558,32.48919664685232L238.2591996527778,32.487341982165475L239.73482638888888,32.48478778394693L242.5552361111111,32.485144005552485L242.57704340277778,32.48457960499687L245.188103125,32.4849566444974L250.76786215277778,32.48352598004692L250.86236041666666,32.48223838204163L250.86381423611112,32.482849543837716L250.86526805555556,32.482514589453814L250.866721875,32.48309813050864L250.86817569444446,32.48273831745766" style="fill: none;" fill="none"></path></g></g></g></g><g opacity="0.2"><g><g><g><path stroke="rgb(255, 112, 67)" stroke-width="2px" d="M29.287192708333333,159.2646L29.30463854166667,159.2823L29.65937048611111,159.25575L29.663731944444446,159.25575L29.668093402777778,159.23805L29.67245486111111,159.2646L29.79602951388889,159.2469L30.255436458333335,159.23805L30.269974652777776,159.2115L30.28015138888889,159.23805L30.313589236111113,159.22035L30.32958125,159.2469L30.377557291666665,159.23805L30.403726041666665,159.23805L30.956177430555552,159.2115L30.959085069444445,159.22035L30.983800000000002,159.14955L30.996884375,159.23805L31.001245833333332,159.2292L31.00996875,159.1053L31.43303020833333,159.18495000000001L31.53043611111111,159.0876L31.563873958333332,159.1938L31.576958333333334,159.1053L31.606034722222223,159.0876L31.610396180555554,159.02564999999998L31.614757638888886,159.11415L31.61766527777778,159.1407L31.72670173611111,158.75130000000001L31.904067708333336,159.1584L32.13231736111111,159.0168L32.15121701388889,158.4681L32.186108680555556,158.3973L32.21227743055556,158.53005L32.247169097222226,158.5035L32.251530555555554,158.4858L32.331490625,158.67165L32.344575,158.45925L32.74728298611111,158.2026L32.78798993055556,158.3973L32.81415868055556,158.21145L32.83015069444444,158.061L32.833058333333334,158.0256L32.91883368055555,158.2557L32.92319513888889,157.5831L32.952271527777775,157.89285L33.392778819444445,157.5477L33.43493958333333,157.59195L33.58032152777778,157.6539L33.82165555555555,156.03435L33.869631597222224,155.75115L33.92487673611111,155.91045L33.99902152777778,155.45025L34.057174305555556,155.2821L34.26361666666667,155.8662L34.43371354166666,153.83955L34.438075,157.55655L34.456974652777774,154.9812L35.13881597222222,155.2113L35.15044652777778,152.91915L35.784311805555554,151.57395L35.86281805555556,152.3439L36.073621875,152.28195L36.18411215277778,150.90135L36.19283506944444,153.2112L36.24662638888889,151.0872L36.277156597222216,153.07845L36.807800694444445,150.5739L38.357572222222224,147.36135000000002L38.36774895833334,147.087L38.53493819444444,144.54705L39.282201388888886,141.9009L39.378153472222216,144.52935L41.10092951388889,140.93625L41.691180208333336,136.36079999999998L41.88017673611111,117.882L42.22182430555556,139.06005L42.26543888888889,117.94395L42.56637951388889,139.6176L42.95891076388889,140.5734L43.93006215277778,139.00695L44.61626493055556,139.2459L45.894172222222224,112.7313L47.01797465277778,136.42275L47.109565277777776,139.2105L47.52390381944444,136.58205L47.53844201388889,117.99705L48.115608333333334,115.1916L49.681371874999996,109.81965L50.60163958333333,105.0672L53.05568680555556,104.6247L53.15163888888889,107.32395L53.76515069444444,107.63369999999999L53.968685416666666,112.53659999999999L56.46780104166667,95.1198L58.945109375,94.1463L61.22615208333333,74.0214L62.26127152777778,75.60555000000001L62.99690416666667,75.81795L63.25277638888888,101.8458L63.51882534722222,75.76485000000001L65.33319201388889,32.66534999999999L68.62318541666666,65.8971L68.73658333333333,108.01425L69.95343020833333,60.11805L69.99704479166667,56.976299999999995L74.2829045138889,94.07549999999999L75.06360555555555,64.8351L76.89105659722223,70.8177L77.25015,63.05624999999999L79.6416829861111,73.06559999999999L83.06106631944445,32.50604999999999L84.12380833333333,51.37425L85.36246249999999,54.029250000000005L88.16397256944445,32.55914999999999L89.77480451388888,32.52375000000001L90.12953645833333,32.745000000000005L91.52665694444444,57.18870000000001L94.62329236111111,32.52375000000001L96.52924965277778,33.04589999999999L96.95085729166667,32.50604999999999L102.89988645833333,32.49719999999999L102.95222395833333,32.49719999999999L103.44652256944445,32.62110000000001L104.75641388888889,32.49719999999999L108.48691458333334,32.49719999999999L108.71952569444446,32.470650000000006L109.96544895833334,32.48835L112.07203333333334,32.470650000000006L116.56724305555555,32.48835L117.91784131944443,32.49719999999999L119.02710555555555,32.470650000000006L121.38229305555555,32.49719999999999L121.42590763888889,32.50604999999999L123.65025138888889,32.4795L124.68682465277779,32.4795L127.32405312499999,32.51489999999998L128.68918958333333,32.49719999999999L131.44126979166666,32.48835L135.41165069444443,32.4795L135.68933020833333,32.470650000000006L137.60401041666668,32.4795L138.84557222222224,32.48835L140.9376184027778,32.48835L141.02193993055556,32.470650000000006L143.51814791666666,32.470650000000006L146.6438597222222,32.4795L147.96102013888887,32.470650000000006L150.457228125,32.48835L151.59411493055555,32.4795L152.82695381944444,32.48835L155.9206815972222,32.4795L156.4164340277778,32.470650000000006L160.0582517361111,32.470650000000006L160.48858229166666,32.470650000000006L162.8190548611111,32.470650000000006L166.0378111111111,32.4795L167.0380388888889,32.48835L167.2895496527778,32.4795L167.9801138888889,32.48835L169.55314652777776,32.470650000000006L175.25357256944446,32.470650000000006L175.657734375,32.470650000000006L179.4943638888889,32.470650000000006L179.85345729166667,32.470650000000006L181.64165520833333,32.4795L182.24935173611112,32.470650000000006L184.0709875,32.4795L185.44048541666666,32.4795L185.71380347222222,32.48835L188.2943329861111,32.470650000000006L194.37565972222222,32.46180000000001L195.47183958333332,32.470650000000006L195.92543125,32.4795L198.64698125,32.470650000000006L199.00171319444445,32.4795L200.11824652777776,32.48835L201.59823472222223,32.48835L204.77919166666666,32.470650000000006L204.79518368055557,32.4795L207.37571319444444,32.470650000000006L210.043471875,32.4795L213.28112777777778,32.470650000000006L214.9835503472222,32.4795L217.26459305555557,32.46180000000001L217.5960638888889,32.48835L217.77052222222224,32.4795L220.5923857638889,32.470650000000006L223.7239128472222,32.46180000000001L223.75153541666666,32.49719999999999L224.10190590277776,32.48835L226.2448357638889,32.48835L231.94526180555556,32.48835L234.33534097222224,32.48835L234.93431458333333,32.48835L236.36196527777778,32.46180000000001L236.69488993055558,32.50604999999999L238.2591996527778,32.470650000000006L239.73482638888888,32.46180000000001L242.5552361111111,32.48835L242.57704340277778,32.4795L245.188103125,32.48835L250.76786215277778,32.470650000000006L250.86236041666666,32.470650000000006L250.86381423611112,32.48835L250.86526805555556,32.4795L250.866721875,32.48835L250.86817569444446,32.4795" style="fill: none;" fill="none"></path></g></g></g></g></g></g><g transform="translate(68, 177)" clip-path="url(#clip_1)"><clipPath id="clip_1"><rect width="261" height="23"></rect></clipPath><g><g><line x1="0" y1="0" x2="0" y2="5" style="visibility: inherit;" fill="rgb(0, 0, 0)" stroke="rgb(204, 204, 204)" stroke-width="1px"></line><line x1="29.076388888888886" y1="0" x2="29.076388888888886" y2="5" style="visibility: inherit;" fill="rgb(0, 0, 0)" stroke="rgb(204, 204, 204)" stroke-width="1px"></line><line x1="58.15277777777777" y1="0" x2="58.15277777777777" y2="5" style="visibility: inherit;" fill="rgb(0, 0, 0)" stroke="rgb(204, 204, 204)" stroke-width="1px"></line><line x1="87.22916666666666" y1="0" x2="87.22916666666666" y2="5" style="visibility: inherit;" fill="rgb(0, 0, 0)" stroke="rgb(204, 204, 204)" stroke-width="1px"></line><line x1="116.30555555555554" y1="0" x2="116.30555555555554" y2="5" style="visibility: inherit;" fill="rgb(0, 0, 0)" stroke="rgb(204, 204, 204)" stroke-width="1px"></line><line x1="145.38194444444446" y1="0" x2="145.38194444444446" y2="5" style="visibility: inherit;" fill="rgb(0, 0, 0)" stroke="rgb(204, 204, 204)" stroke-width="1px"></line><line x1="174.45833333333331" y1="0" x2="174.45833333333331" y2="5" style="visibility: inherit;" fill="rgb(0, 0, 0)" stroke="rgb(204, 204, 204)" stroke-width="1px"></line><line x1="203.53472222222223" y1="0" x2="203.53472222222223" y2="5" style="visibility: inherit;" fill="rgb(0, 0, 0)" stroke="rgb(204, 204, 204)" stroke-width="1px"></line><line x1="232.6111111111111" y1="0" x2="232.6111111111111" y2="5" style="visibility: inherit;" fill="rgb(0, 0, 0)" stroke="rgb(204, 204, 204)" stroke-width="1px"></line><line x1="261.6875" y1="0" x2="261.6875" y2="5" style="visibility: inherit;" fill="rgb(0, 0, 0)" stroke="rgb(204, 204, 204)" stroke-width="1px"></line></g><g transform="translate(0, 8)"><text x="0" y="0" dx="0em" dy="0.95em" style="text-anchor: middle; visibility: hidden; font-family: &quot;Helvetica Neue&quot;, sans-serif; font-size: 12px; font-weight: 200;" fill="rgb(50, 49, 63)" stroke="none" stroke-width="1px">-20k</text><text x="29.076388888888886" y="0" dx="0em" dy="0.95em" style="text-anchor: middle; visibility: inherit; font-family: &quot;Helvetica Neue&quot;, sans-serif; font-size: 12px; font-weight: 200;" fill="rgb(50, 49, 63)" stroke="none" stroke-width="1px">0</text><text x="58.15277777777777" y="0" dx="0em" dy="0.95em" style="text-anchor: middle; visibility: hidden; font-family: &quot;Helvetica Neue&quot;, sans-serif; font-size: 12px; font-weight: 200;" fill="rgb(50, 49, 63)" stroke="none" stroke-width="1px">20k</text><text x="87.22916666666666" y="0" dx="0em" dy="0.95em" style="text-anchor: middle; visibility: inherit; font-family: &quot;Helvetica Neue&quot;, sans-serif; font-size: 12px; font-weight: 200;" fill="rgb(50, 49, 63)" stroke="none" stroke-width="1px">40k</text><text x="116.30555555555554" y="0" dx="0em" dy="0.95em" style="text-anchor: middle; visibility: hidden; font-family: &quot;Helvetica Neue&quot;, sans-serif; font-size: 12px; font-weight: 200;" fill="rgb(50, 49, 63)" stroke="none" stroke-width="1px">60k</text><text x="145.38194444444446" y="0" dx="0em" dy="0.95em" style="text-anchor: middle; visibility: inherit; font-family: &quot;Helvetica Neue&quot;, sans-serif; font-size: 12px; font-weight: 200;" fill="rgb(50, 49, 63)" stroke="none" stroke-width="1px">80k</text><text x="174.45833333333331" y="0" dx="0em" dy="0.95em" style="text-anchor: middle; visibility: hidden; font-family: &quot;Helvetica Neue&quot;, sans-serif; font-size: 12px; font-weight: 200;" fill="rgb(50, 49, 63)" stroke="none" stroke-width="1px">100k</text><text x="203.53472222222223" y="0" dx="0em" dy="0.95em" style="text-anchor: middle; visibility: inherit; font-family: &quot;Helvetica Neue&quot;, sans-serif; font-size: 12px; font-weight: 200;" fill="rgb(50, 49, 63)" stroke="none" stroke-width="1px">120k</text><text x="232.6111111111111" y="0" dx="0em" dy="0.95em" style="text-anchor: middle; visibility: hidden; font-family: &quot;Helvetica Neue&quot;, sans-serif; font-size: 12px; font-weight: 200;" fill="rgb(50, 49, 63)" stroke="none" stroke-width="1px">140k</text><text x="261.6875" y="0" dx="0em" dy="0.95em" style="text-anchor: middle; visibility: hidden; font-family: &quot;Helvetica Neue&quot;, sans-serif; font-size: 12px; font-weight: 200;" fill="rgb(50, 49, 63)" stroke="none" stroke-width="1px">160k</text></g><line x1="0" y1="0" x2="261.6875" y2="0" fill="rgb(0, 0, 0)" stroke="rgb(204, 204, 204)" stroke-width="1px"></line></g></g></g></g></svg>