<svg viewBox="0 0 330 200" xmlns="http://www.w3.org/2000/svg"><g><g><g><g><g><line x1="68.3125" y1="177" x2="63.3125" y2="177" style="visibility: inherit;" fill="rgb(0, 0, 0)" stroke="rgb(204, 204, 204)" stroke-width="1px"></line><line x1="68.3125" y1="154.875" x2="63.3125" y2="154.875" style="visibility: inherit;" fill="rgb(0, 0, 0)" stroke="rgb(204, 204, 204)" stroke-width="1px"></line><line x1="68.3125" y1="132.75" x2="63.3125" y2="132.75" style="visibility: inherit;" fill="rgb(0, 0, 0)" stroke="rgb(204, 204, 204)" stroke-width="1px"></line><line x1="68.3125" y1="110.625" x2="63.3125" y2="110.625" style="visibility: inherit;" fill="rgb(0, 0, 0)" stroke="rgb(204, 204, 204)" stroke-width="1px"></line><line x1="68.3125" y1="88.5" x2="63.3125" y2="88.5" style="visibility: inherit;" fill="rgb(0, 0, 0)" stroke="rgb(204, 204, 204)" stroke-width="1px"></line><line x1="68.3125" y1="66.375" x2="63.3125" y2="66.375" style="visibility: inherit;" fill="rgb(0, 0, 0)" stroke="rgb(204, 204, 204)" stroke-width="1px"></line><line x1="68.3125" y1="44.25" x2="63.3125" y2="44.25" style="visibility: inherit;" fill="rgb(0, 0, 0)" stroke="rgb(204, 204, 204)" stroke-width="1px"></line><line x1="68.3125" y1="22.125" x2="63.3125" y2="22.125" style="visibility: inherit;" fill="rgb(0, 0, 0)" stroke="rgb(204, 204, 204)" stroke-width="1px"></line><line x1="68.3125" y1="0" x2="63.3125" y2="0" style="visibility: inherit;" fill="rgb(0, 0, 0)" stroke="rgb(204, 204, 204)" stroke-width="1px"></line></g><g transform="translate(58.3125, 0)"><text x="0" y="177" dx="0em" dy="0.3em" style="text-anchor: end; visibility: hidden; font-family: &quot;Helvetica Neue&quot;, sans-serif; font-size: 12px; font-weight: 200;" fill="rgb(50, 49, 63)" stroke="none" stroke-width="1px">-2e+3</text><text x="0" y="154.875" dx="0em" dy="0.3em" style="text-anchor: end; visibility: inherit; font-family: &quot;Helvetica Neue&quot;, sans-serif; font-size: 12px; font-weight: 200;" fill="rgb(50, 49, 63)" stroke="none" stroke-width="1px">0</text><text x="0" y="132.75" dx="0em" dy="0.3em" style="text-anchor: end; visibility: hidden; font-family: &quot;Helvetica Neue&quot;, sans-serif; font-size: 12px; font-weight: 200;" fill="rgb(50, 49, 63)" stroke="none" stroke-width="1px">2e+3</text><text x="0" y="110.625" dx="0em" dy="0.3em" style="text-anchor: end; visibility: inherit; font-family: &quot;Helvetica Neue&quot;, sans-serif; font-size: 12px; font-weight: 200;" fill="rgb(50, 49, 63)" stroke="none" stroke-width="1px">4e+3</text><text x="0" y="88.5" dx="0em" dy="0.3em" style="text-anchor: end; visibility: hidden; font-family: &quot;Helvetica Neue&quot;, sans-serif; font-size: 12px; font-weight: 200;" fill="rgb(50, 49, 63)" stroke="none" stroke-width="1px">6e+3</text><text x="0" y="66.375" dx="0em" dy="0.3em" style="text-anchor: end; visibility: inherit; font-family: &quot;Helvetica Neue&quot;, sans-serif; font-size: 12px; font-weight: 200;" fill="rgb(50, 49, 63)" stroke="none" stroke-width="1px">8e+3</text><text x="0" y="44.25" dx="0em" dy="0.3em" style="text-anchor: end; visibility: hidden; font-family: &quot;Helvetica Neue&quot;, sans-serif; font-size: 12px; font-weight: 200;" fill="rgb(50, 49, 63)" stroke="none" stroke-width="1px">1e+4</text><text x="0" y="22.125" dx="0em" dy="0.3em" style="text-anchor: end; visibility: inherit; font-family: &quot;Helvetica Neue&quot;, sans-serif; font-size: 12px; font-weight: 200;" fill="rgb(50, 49, 63)" stroke="none" stroke-width="1px">1.2e+4</text><text x="0" y="0" dx="0em" dy="0.3em" style="text-anchor: end; visibility: hidden; font-family: &quot;Helvetica Neue&quot;, sans-serif; font-size: 12px; font-weight: 200;" fill="rgb(50, 49, 63)" stroke="none" stroke-width="1px">1.4e+4</text></g><line x1="68.3125" y1="0" x2="68.3125" y2="177" fill="rgb(0, 0, 0)" stroke="rgb(204, 204, 204)" stroke-width="1px"></line></g></g><g transform="translate(68, 0)" clip-path="url(#clip_0)"><clipPath id="clip_0"><rect width="261" height="177"></rect></clipPath><g><g><g><line x1="0" y1="0" x2="0" y2="177" fill="rgb(0, 0, 0)" stroke="rgb(60, 60, 60)" stroke-width="1px" opacity="0.25"></line><line x1="29.076388888888886" y1="0" x2="29.076388888888886" y2="177" fill="rgb(0, 0, 0)" stroke="rgb(60, 60, 60)" stroke-width="1px" opacity="0.25"></line><line x1="58.15277777777777" y1="0" x2="58.15277777777777" y2="177" fill="rgb(0, 0, 0)" stroke="rgb(60, 60, 60)" stroke-width="1px" opacity="0.25"></line><line x1="87.22916666666666" y1="0" x2="87.22916666666666" y2="177" fill="rgb(0, 0, 0)" stroke="rgb(60, 60, 60)" stroke-width="1px" opacity="0.25"></line><line x1="116.30555555555554" y1="0" x2="116.30555555555554" y2="177" fill="rgb(0, 0, 0)" stroke="rgb(60, 60, 60)" stroke-width="1px" opacity="0.25"></line><line x1="145.38194444444446" y1="0" x2="145.38194444444446" y2="177" fill="rgb(0, 0, 0)" stroke="rgb(60, 60, 60)" stroke-width="1px" opacity="0.25"></line><line x1="174.45833333333331" y1="0" x2="174.45833333333331" y2="177" fill="rgb(0, 0, 0)" stroke="rgb(60, 60, 60)" stroke-width="1px" opacity="0.25"></line><line x1="203.53472222222223" y1="0" x2="203.53472222222223" y2="177" fill="rgb(0, 0, 0)" stroke="rgb(60, 60, 60)" stroke-width="1px" opacity="0.25"></line><line x1="232.6111111111111" y1="0" x2="232.6111111111111" y2="177" fill="rgb(0, 0, 0)" stroke="rgb(60, 60, 60)" stroke-width="1px" opacity="0.25"></line><line x1="261.6875" y1="0" x2="261.6875" y2="177" fill="rgb(0, 0, 0)" stroke="rgb(60, 60, 60)" stroke-width="1px" opacity="0.25"></line></g><g><line x1="0" y1="177" x2="261.6875" y2="177" fill="rgb(0, 0, 0)" stroke="rgb(60, 60, 60)" stroke-width="1px" opacity="0.25"></line><line x1="0" y1="154.875" x2="261.6875" y2="154.875" fill="rgb(0, 0, 0)" stroke="rgb(60, 60, 60)" stroke-width="1px" opacity="0.25"></line><line x1="0" y1="132.75" x2="261.6875" y2="132.75" fill="rgb(0, 0, 0)" stroke="rgb(60, 60, 60)" stroke-width="1px" opacity="0.25"></line><line x1="0" y1="110.625" x2="261.6875" y2="110.625" fill="rgb(0, 0, 0)" stroke="rgb(60, 60, 60)" stroke-width="1px" opacity="0.25"></line><line x1="0" y1="88.5" x2="261.6875" y2="88.5" fill="rgb(0, 0, 0)" stroke="rgb(60, 60, 60)" stroke-width="1px" opacity="0.25"></line><line x1="0" y1="66.375" x2="261.6875" y2="66.375" fill="rgb(0, 0, 0)" stroke="rgb(60, 60, 60)" stroke-width="1px" opacity="0.25"></line><line x1="0" y1="44.25" x2="261.6875" y2="44.25" fill="rgb(0, 0, 0)" stroke="rgb(60, 60, 60)" stroke-width="1px" opacity="0.25"></line><line x1="0" y1="22.125" x2="261.6875" y2="22.125" fill="rgb(0, 0, 0)" stroke="rgb(60, 60, 60)" stroke-width="1px" opacity="0.25"></line><line x1="0" y1="0" x2="261.6875" y2="0" fill="rgb(0, 0, 0)" stroke="rgb(60, 60, 60)" stroke-width="1px" opacity="0.25"></line></g></g></g><g><g><line x1="0" y1="154.875" x2="261.6875" y2="154.875" fill="rgb(0, 0, 0)" stroke="rgb(153, 153, 153)" stroke-width="1.5px"></line></g></g><g><g><line x1="29.076388888888886" y1="0" x2="29.076388888888886" y2="177" fill="rgb(0, 0, 0)" stroke="rgb(153, 153, 153)" stroke-width="1.5px"></line></g></g><g><g><g><g><g><path stroke="rgb(255, 112, 67)" stroke-width="2px" d="M29.124364930555554,152.994375L29.247939583333334,153.05259868421052L29.31190763888889,153.1535770295203L29.48345833333333,152.94644500581563L29.506719444444443,152.87710725928548L29.531434375,152.8313057147019L29.617209722222224,152.84135823026065L29.63320173611111,152.9070729312069L29.769860763888886,152.9213244801447L29.82946736111111,152.9155555201627L30.02427916666667,152.7980689318288L30.160938194444444,152.73292634924027L30.19582986111111,152.76798185303542L30.48659375,152.66824120718815L30.703212847222222,152.61179539411336L30.890755555555554,152.5637045183293L30.91547048611111,152.49590142070807L31.02886840277778,152.4634388157915L31.246941319444446,152.43529282871336L31.293463541666668,152.41078382290897L31.335624305555555,152.42662642177075L31.355977777777778,152.47733213021914L31.401046180555557,152.44909640208508L31.62202673611111,152.4121795346736L31.838645833333334,152.40339332067106L31.944774652777777,152.3956138506771L31.969489583333335,152.37696822752696L32.21082361111111,152.34873112256997L32.30677569444445,152.34683101269235L32.372197569444445,152.32203424783953L32.46669583333333,152.31142610057069L32.514671875,152.29050254165654L32.529210069444446,152.2489816613156L32.74728298611111,152.2573795647189L32.91011076388889,152.25354563912748L32.953725347222225,152.27274868919923L32.97117118055555,152.28994753653333L33.102014930555555,152.29409089082415L33.221228125,152.2865580890063L33.33026458333333,152.24611702547963L33.43348576388889,152.25468175780705L33.690811805555555,152.26236810695826L33.744603125000005,152.22453614691807L33.85800104166666,152.21290725831955L34.404637152777774,152.20246287428424L34.422082986111114,152.19308038584023L34.61398715277778,152.19579151398463L34.64015590277778,152.19822786431695L34.64887881944444,152.18929140398782L34.67795520833334,152.19237817209802L34.84805208333333,152.19515322669503L34.868405555555555,152.17543057065558L34.907658680555556,152.17990432193045L35.03850243055556,152.17282746009403L35.23186041666666,152.16646284495226L35.25802916666667,152.12745973376516L35.53861631944445,152.13673662825553L35.577869444444445,152.13399438167028L35.69272118055556,152.12044288552752L35.75814305555556,150.61212563534065L35.785765625,150.7288518542024L35.83374166666666,150.8449481560448L35.91806319444444,150.97155670022977L35.99656944444444,151.08547283943756L36.11723645833334,151.19904606993538L36.18701979166667,151.29016598290983L36.31786354166667,151.3943013894648L36.40654652777778,151.47693517221234L36.419630902777776,151.55129342310192L36.48505277777778,151.6071365709214L36.50395243055556,151.65738875208316L36.66387256944445,151.7136784455146L36.88339930555556,151.76433373908083L36.91829097222222,151.80991910524006L37.044773263888885,151.82880918382762L37.13345625,151.86794129603265L37.13781770833333,151.89209190414138L37.15235590277778,151.91382607590296L37.20033194444444,151.9444509024723L37.24103888888889,151.94988199878114L37.36025208333333,151.97689911119815L37.45184270833333,152.00121350285875L37.47655763888889,152.0341598998767L37.53471041666666,152.04168248818524L37.64665451388889,152.0595165400844L37.70044583333333,152.06450296503135L38.052270138888886,152.05792698136636L38.088615625,152.07413580760675L38.133684027777775,152.0665965887153L38.155491319444444,152.04874807019095L38.223820833333335,152.05481117885626L38.36920277777777,152.04920471503132L38.42299409722222,152.03309584894993L38.45933958333333,152.02966109238594L38.52476145833333,152.0486958393676L38.550930208333334,152.0326381053533L38.71375798611111,152.02924917134084L38.760280208333334,152.0151362914193L38.76464166666667,152.01349761391563L38.7820875,151.98989722566475L38.79226423611111,151.97971975980332L38.90275451388889,151.25148211598446L38.97253784722222,151.31514763715802L39.01906006944444,151.3724463719835L39.065582291666665,151.42401504360058L39.08448194444444,151.47042669437886L39.16734965277778,151.51219705560146L39.22841006944444,151.54979027987514L39.30837013888888,151.5836241000522L39.31273159722222,151.61407447205966L39.62239513888889,150.40246942582465L39.66600972222222,150.5510360977483L40.109424652777776,149.64486386990524L40.17193888888889,149.86919134601732L40.20973819444444,150.07108581552728L40.299875,148.65978278770922L40.41181909722222,148.94943079198995L40.49323298611111,149.25436392847507L40.55283958333333,149.51774098063788L40.65169930555556,149.7547801480319L40.6662375,149.9681152532491L40.79126597222222,150.16011673014037L40.84214965277778,148.91691463047897L41.12564444444444,147.7759082499714L41.131459722222225,146.74900296683276L41.32336388888889,146.05710148274017L41.37424756944444,144.57151403991935L41.59086666666667,143.31192338498994L41.68681875,142.18935464207206L41.83801597222222,140.70335500467613L42.05172743055556,138.73539250993116L42.105518749999995,137.18547684536156L42.26689270833334,136.44324105157526L42.271254166666665,135.32166611785658L42.41663611111111,134.81006166591888L42.88621979166666,133.4093046611339L43.02724027777778,131.78356081948067L43.16099166666666,131.39345454845102L43.53607708333333,130.34542113642937L43.67564375,129.02606600480638L44.02456041666667,127.55102138313225L44.46652152777778,126.66598146337033L44.787815625,125.42694546241367L45.290837152777776,124.3339381346295L45.42895,123.99185674186288L45.677553125,123.89417104729503L45.71826006944445,123.58500388451017L45.812758333333335,123.10762841538184L46.02646979166667,122.93242804719537L46.10352222222222,122.71943521331895L46.280888194444444,121.93036659477197L46.28524965277777,122.04989244854804L46.60363611111111,121.50477814929415L46.920568749999994,121.12480030023721L47.02960520833333,121.11469526939668L47.16481041666667,120.86222572408991L47.59077951388889,120.4248156230416L47.81466770833333,120.24133404992537L48.384564930555555,120.09832563734844L49.25249513888889,120.20193057855877L49.412415277777775,120.0628625147288L49.43131493055556,119.93770125841691L49.508367361111105,119.75868112634605L50.204746875,119.43162550346923L50.75283680555555,119.3695879513738L50.760105902777774,119.96644167137637L50.97381736111112,119.86198500185404L51.28057326388889,119.96709900382837L52.45235173611111,119.3094515912843L52.47852048611111,118.68438142175296L52.88268229166667,118.21031827247688L53.29120555555555,117.6840989381354L53.320281944444446,116.97818903575734L53.5936,116.61943262826422L54.30451770833333,116.38505186313444L54.52404444444444,116.11879667446605L54.83806944444444,115.90129200528807L55.034335069444445,115.65022530296058L55.415235763888894,115.45745277142157L55.70309201388889,114.86358249083318L55.764152430555555,114.9375367421361L56.22937465277778,114.77178306714339L56.3674875,114.37922975876839L56.49106215277778,114.33568178272574L56.55939166666667,113.8539886028026L57.30520104166667,112.92265223965015L58.44644930555556,112.96944951581501L58.567116319444445,112.79031706378603L58.65289166666666,112.6622853571196L58.747389930555556,112.77936932164454L59.567344097222225,112.88474488967199L59.977321180555556,112.73620790046134L60.026751041666664,112.80164961051173L60.14596423611111,111.65473464793799L60.30879201388889,113.23326118503019L60.378575347222224,113.09412256637754L61.22033680555556,112.89146030954366L61.22615208333333,111.93468927775594L61.640490625000005,111.84797034991237L61.83384861111111,112.01329831503776L62.07082118055556,111.97403098350905L62.1246125,112.09356538522646L62.451721875,112.00202134665673L62.77301597222222,111.98600671198365L63.331282638888894,112.19284354087145L63.39234305555556,112.46749668688727L64.30824930555555,112.33855951815504L64.32424131944444,113.24026606661337L64.86796979166667,113.24423945995314L64.93193784722223,113.10400301392332L65.28085451388888,112.97779021250304L65.51637326388888,112.93057369124332L65.64867083333334,112.56726632205384L65.96124201388889,112.40622718982246L66.23746770833333,112.12854197079989L66.24764444444445,112.2326252737335L66.66925208333333,112.34842524637376L66.93530104166666,112.0765202217076L67.05015277777778,112.2743056995557L67.26095659722223,111.67793762954896L67.29875590277778,111.3182063665663L67.55172048611111,111.02763572988948L67.606965625,110.40105965686136L67.91517534722223,109.49420369112418L68.16377847222222,109.20903332199732L68.3367829861111,108.81962998977986L68.56357881944444,108.31429199078113L68.79618993055556,107.63823779167805L68.91831076388888,107.68247651251173L68.93430277777777,106.98110386123959L68.94884097222221,106.438368475101L69.02298576388888,106.37028162758926L69.09713055555557,106.27581596482828L69.26286597222223,106.02485936834053L69.51001527777777,105.63306093149956L69.75134930555555,105.31362983834453L69.83857847222222,105.39120435451119L69.95488402777778,105.46102141906097L69.97378368055556,105.23623177715227L70.11189652777777,105.46535859943945L70.21366388888889,105.67157273949744L70.22965590277778,105.17129046554348L70.24274027777778,104.80953641898637L70.77774583333334,104.849020277088L71.01326458333332,104.68543074937818L71.22842986111111,103.85232517443575L71.42033402777778,103.81053015699197L71.43196458333334,103.56272714129166L71.64131458333333,103.27332942716133L71.80704999999999,103.54387148444617L72.121075,103.51079683600145L72.343509375,103.42571715240105L72.42783090277777,103.45977043716104L72.66480347222223,103.08110589344403L72.82326979166666,103.07218280409961L72.90759131944445,102.86502702368925L73.023896875,103.18746182132088L73.34373715277778,103.61040313918946L73.43242013888889,102.85161282526944L73.58361736111111,102.92095154274259L73.59524791666666,103.37054388846883L73.61850902777778,103.63136449962222L74.70887361111112,102.69347804965912L74.8920548611111,102.52419274469308L75.41542986111111,102.5820234702238L75.44596006944444,101.22913362320051L75.50702048611112,101.4607202608806L75.67420972222222,101.41471073479251L75.74980833333333,100.17855216131265L75.82540694444444,100.22757194518141L75.91845138888888,100.70312725066346L76.33133611111111,100.69968952559711L76.6773451388889,100.78509557303742L76.73404409722221,100.99471101573374L77.15710555555556,101.18336491416042L77.34028680555555,101.14296592274437L77.54672916666667,100.9959818304699L77.62668923611112,101.16238364742294L77.91454548611111,101.11302028268064L77.99305173611111,101.15709325441257L78.03812013888889,101.10825892897131L78.16169479166668,101.3740580360742L78.80719062499999,100.28577723246667L79.12266944444444,100.51213700922003L79.16628402777778,100.49461080829802L79.27241284722223,100.71114972746823L79.2913125,100.6737222547214L79.31021215277778,100.65110002924925L79.33492708333333,99.50236502632426L79.50357013888889,99.81812852369185L79.54136944444444,100.10231567132267L79.74345034722222,100.52402160419044L79.76816527777778,100.71549444377139L80.21594166666667,100.68869499939424L81.25106111111111,100.66457549945483L81.36445902777777,100.21143044950934L81.43860381944445,100.4452249045584L81.50693333333334,100.60032741410257L81.79188194444444,100.13148217269229L82.0128625,100.09670895542307L82.17714409722223,99.26891305988075L82.41411666666667,99.57483425389267L82.46354652777778,98.7439133285034L82.48389999999999,98.42752199565304L82.48680763888889,98.68483229608775L82.59729791666666,98.86109906647896L82.72087256944444,99.05292665983106L82.90986909722221,99.25875899384796L82.98837534722223,98.53688309446316L83.36200694444445,97.86506978501683L83.54082673611111,97.22725030651515L83.62805590277777,97.06252527586363L83.67748576388888,96.40539774827725L83.72110034722222,96.28967047344953L83.87375138888889,95.34476592610457L83.87811284722223,94.78197683349411L83.93626562499999,94.2090916501447L83.95516527777778,93.93686998513023L84.18777638888889,91.9661204866172L84.35787326388889,90.12607093795548L84.44801006944445,90.63827634415993L85.09350590277776,91.16563620974392L85.39153888888889,92.09382258876954L85.56599722222222,92.40925282989258L85.73609409722222,93.30157754690332L85.82913854166667,93.28604479221299L85.84803819444444,93.44906531299168L86.17369375,93.25284628169251L86.23330034722221,94.00549915352327L86.6868920138889,93.07882423817094L86.97474826388888,92.15631681435386L87.30040381944444,90.75081013291846L87.98515277777777,89.1761041196266L88.61901805555556,87.68143120766393L88.6364638888889,88.47128808689756L88.73823125,89.1379092782078L89.1016861111111,87.84618085038701L89.222353125,86.7610627653483L89.89111006944445,85.57426898881347L90.35633229166666,86.02171708993211L90.57295138888888,84.9309828809389L90.83027743055555,86.42732209284502L90.87534583333333,87.37577738356052L90.92768333333333,87.76476214520446L90.98438229166666,86.65459843068402L91.11231840277777,87.02720108761561L91.89883472222222,87.87141847885404L91.996240625,87.01608913096862L92.32335,85.71529271787176L92.38731805555555,84.59988844608459L92.63882881944446,85.90808710147613L93.15784236111112,84.67384089132851L93.37736909722223,83.59620680219562L93.67540208333332,82.47146112197609L93.77716944444444,81.70256500977847L93.82078402777778,80.80037100880065L94.312175,80.03264640792058L94.38922743055555,79.4523192671285L94.52297881944445,79.02958734041566L94.88788749999999,78.53850360637408L95.38509375,78.42840324573667L95.7747173611111,78.052750421163L95.81978576388889,79.7169753790467L95.83287013888888,79.22352784114202L96.11781875,78.69092505702783L96.2719236111111,78.07883255132506L96.99737951388889,77.53901179619253L97.19655277777777,77.20804811657328L97.23580590277778,76.94336830491595L97.49458576388889,76.58346897442436L97.76208854166667,76.43655957698192L97.9758,76.24902861928373L98.06884444444445,76.10237575735535L98.86844513888889,75.87082568161982L98.96585104166667,75.66243061345783L99.06907222222223,75.87312505211206L99.25516111111111,75.55387504690084L99.61716215277778,75.35505004221075L99.85558854166666,75.15398253798968L100.36297152777777,75.05045928419071L100.78457916666666,74.99047585577163L100.9067,74.71524077019446L101.13785729166666,72.46521669317502L101.33412291666666,72.57525752385752L101.37192222222222,72.76279427147176L101.46205902777778,72.77670234432459L101.75136909722222,72.83346960989212L102.43175659722222,72.8845601489029L102.43902569444444,73.07435413401262L102.45211006944444,73.05710622061135L102.71525138888889,73.01945809855023L103.03654548611112,73.0187622886952L103.07579861111111,72.99601105982569L103.57445868055555,72.94234745384311L103.61807326388889,73.1042377084588L103.63842673611111,73.07293893761292L103.67186458333333,73.1996450438516L103.71547916666667,73.35793053946645L104.71570694444443,73.2459499855198L105.11259965277777,73.26685498696781L105.1431298611111,73.06441948827103L105.42807847222223,72.95966503944392L105.71448090277778,72.95388603549952L105.76536458333334,72.87124743194957L106.0255982638889,73.13981018875461L106.18115694444444,73.79082916987916L106.73651597222222,71.72174625289122L106.78885347222221,69.39494662760211L106.81792986111111,69.8894519648419L106.89352847222221,68.18838176835771L107.24099131944443,69.33454359152194L107.775996875,70.44352673236975L108.42585416666667,71.09867405913276L108.52326006944445,71.65511915321949L108.56978229166667,72.53204473789754L108.76750173611111,72.81240276410777L109.47260416666667,70.73053748769699L109.69358472222221,70.66004623892728L109.70230763888888,71.05016661503457L109.77936006944445,71.31277495353109L109.80989027777778,72.10224745817798L109.91892673611112,70.4122102123602L110.02505555555555,68.52611419112418L110.11955381944445,68.13400277201174L110.46120138888888,68.79885249481057L110.49463923611111,67.29534224532951L110.80721041666666,68.14362052079657L110.837740625,66.3848209687169L111.17066527777777,64.8019013718452L111.62571076388889,63.5763987346607L111.86122951388889,64.67488386119462L111.86995243055556,63.78289547507515L112.37733541666667,62.48229342756764L112.87744930555554,63.33618908481088L113.62180486111112,62.35682017632979L114.16844097222221,63.6436381586968L114.23240902777778,62.19102434282715L114.4621125,60.82835940854443L114.66273958333333,62.057835967689996L114.789221875,63.286052370921L115.01747152777777,62.433384633828894L115.04654791666667,61.433671170446004L115.63825243055555,60.23524155340142L115.96826944444445,61.66784239806128L116.22123402777777,60.15837065825515L116.24740277777778,59.33084609242964L116.39714618055555,58.232073983186694L116.52362847222221,57.34274158486804L117.2723454861111,56.46490492638124L117.379928125,55.40935193374311L117.58055520833332,54.49254174036879L117.67650729166667,53.64528756633193L117.693953125,52.860633809698726L117.73175243055555,54.909007928728855L117.772459375,54.374107135855965L118.4688388888889,53.61613392227038L118.68400416666667,53.13308303004334L119.00239062499999,52.698337227039005L119.09543506944443,52.074753504335106L119.19284097222221,51.4914031539016L119.84705972222221,51.04382533851141L120.1436388888889,50.61888030466028L120.572515625,50.01517977419424L120.59577673611112,48.96297429677483L120.8051267361111,48.723989367097346L120.97231597222222,48.53102793038761L121.16858159722221,48.346300137348834L121.61490416666666,47.538420123613946L122.13973298611111,50.18539061125256L122.21678541666667,49.967976550127304L122.26476145833334,49.42936639511457L122.41159722222223,49.43136725560311L122.56715590277778,49.2561680300428L123.14141458333334,48.91042622703853L123.27661979166668,48.709883604334664L124.04423645833333,48.33027024390117L124.10675069444444,47.98861821951107L124.28120902777778,47.75856889755994L124.50655104166667,47.573649507803935L124.68827847222222,47.49572205702353L124.73480069444444,47.28177485132119L124.97904236111111,47.14453486618905L125.021203125,47.021018879570136L125.1622236111111,46.95410449161312L125.38901944444444,46.84963154245182L125.62308437499999,46.82198088820664L125.69868298611111,46.75284529938597L126.26131111111111,49.75493576944737L126.30928715277778,50.919129692502636L126.70181840277777,50.47346672325236L126.84720034722221,50.03918255092711L126.905353125,49.65938929583439L127.07254236111112,49.31757536625095L127.6511625,49.36394282962587L127.73403020833332,49.12911104666328L127.90267326388889,49.116887441996965L128.04223993055555,48.78507369779726L128.10184652777778,48.58600382801754L128.5830607638889,48.329403445215775L129.19075729166667,48.1648381006942L129.65743333333333,47.85079179062478L129.93656666666666,47.64558761156232L129.93947430555556,47.42771635040609L130.64166909722223,46.68956971536548L130.65620729166668,46.58942524382891L130.80013541666668,46.53248271944602L130.87573402777778,46.44804694750141L130.9382482638889,46.37205475275127L131.51541458333335,46.370036777476145L131.85270069444442,46.34609559972853L131.93847604166666,46.302423539755665L132.14055694444446,45.7984936857801L132.42405173611112,45.80958181720209L133.1044392361111,45.76424863548189L133.37630347222222,45.76769877193371L133.48533993055554,45.75974139474033L134.1875347222222,45.78576725526631L134.258771875,45.79812802973967L134.42014583333335,45.79819022676571L134.4448607638889,45.82037120408913L134.5131902777778,45.85139658368021L134.68910243055555,45.84613192531219L134.87519131944444,45.28826873278095L134.89699861111112,45.328254359502864L135.20666215277777,45.375303923552565L135.50033368055554,45.39552353119731L135.9001340277778,45.44690867807759L136.18072118055557,45.53740531026983L136.640128125,45.519289779242825L136.64739722222222,44.93879830131854L136.78405625000002,45.03585597118669L137.17513368055555,45.123207874068015L137.26672430555556,45.212887086661226L137.46880520833332,45.24934837799509L137.5007892361111,45.28216354019557L137.83226006944443,45.33382218617601L137.93257361111114,45.369252467558425L137.97037291666666,45.412202220802556L138.33237395833333,44.853481998722316L138.9400704861111,44.36169629885006L139.14796666666666,44.439026668965084L139.33696319444445,44.57499900206855L140.1234795138889,44.6973741018617L140.13801770833334,44.78538669167554L140.16418645833332,44.87566052250796L140.44186597222222,45.00115697025717L140.78642118055555,45.136228773231466L141.07718506944443,45.235668395908306L141.3141576388889,45.29197655631748L141.402840625,45.35371640068573L141.74739583333331,45.40928226061715L141.98000694444445,45.426104034555436L142.08468194444444,45.4080561310999L142.95988125,45.32543801798991L143.30879791666666,45.39489421619092L143.4149267361111,45.402092294571844L143.65916840277777,45.46388306511466L143.79582743055553,45.508432258603165L143.8263576388889,45.52640153274285L144.14183645833333,45.55363637946854L144.26104965277779,45.522835241521705L144.57798229166667,45.539364217369496L144.65358090277778,45.543177795632545L144.96760590277776,45.66829751606929L145.00685902777778,45.67028026446235L145.02139722222222,45.08575223801611L145.07955,45.555302014214504L146.0696010416667,45.61283431279304L146.6264138888889,45.62036338151373L146.75435,45.66032704336237L146.80087222222224,45.65204433902613L147.20067256944446,45.6114024051235L149.27091145833333,45.608012164611154L149.69978819444444,45.07396094815002L150.08795798611112,44.493752353335026L150.1853638888889,44.580002118001545L150.2580548611111,44.70187690620139L150.35982222222222,44.247376715581254L150.39616770833334,43.71663904402311L150.40779826388888,43.3053501396208L150.50229652777776,43.45512762565872L151.18559166666665,43.047864863092826L151.40802604166666,42.49326587678357L151.44437152777778,42.72425178910521L151.739496875,42.3790141101947L152.12330520833333,42.00192519917522L152.42569965277775,42.359482679257695L152.576896875,42.592784411331934L152.6524954861111,42.813818470198726L152.8807451388889,42.54812412317884L153.04793437499998,42.17624921086096L153.69488402777776,42.53849928977485L153.95802534722222,42.25608686079738L154.06415416666667,42.477603174717615L154.3723638888889,42.69909285724586L154.43487812499998,42.38955857152126L154.77361805555554,42.74154021436914L154.905915625,42.18438619293224L155.11962708333334,41.93738507363898L155.22866354166666,42.31245906627507L155.71423923611113,41.99733815964757L155.97011145833332,41.75797934368282L156.12421631944443,42.12886890931452L156.40916493055556,42.45160701838307L157.02703819444446,42.13363381654477L157.18695833333334,42.41164543489029L157.47626840277778,42.672918391401254L157.63909618055555,42.44343905226111L157.6507267361111,42.148407647035015L158.25987708333332,42.436004382331475L158.29331493055554,42.19702894409835L158.34710625,41.9930135496885L158.56808680555554,41.73196219471964L158.64659305555557,41.55232847524766L159.53051527777777,41.30215812772292L159.71951180555556,41.68544231495062L159.88088576388887,41.18964808345552L159.98410694444445,41.617370775109976L160.26905555555555,41.493446197598956L160.349015625,41.348726577839074L160.89565173611112,41.17422892005516L160.90001319444445,41.05036852804963L161.5324246527778,41.46989417524469L161.57458541666665,41.88065475772021L161.61674618055557,42.272464281948174L161.83918055555557,42.03878035375334L161.9351326388889,41.817402318378015L162.2128121527778,41.319474586540224L162.30585659722223,41.20321462788618L162.3087642361111,41.09858066509756L162.83650069444445,40.9490975985878L163.13162604166666,40.825625338729026L163.26537743055556,40.65918780485609L163.66663159722222,41.15101902437047L163.79602152777778,41.02947962193343L163.9050579861111,41.4732191597401L163.94140347222222,41.31945974376609L164.3208503472222,41.14788876938948L164.94599270833334,41.51341239245053L165.51298229166665,41.30032115320546L165.635103125,40.93153903788493L165.87643715277775,41.296572634096435L166.22535381944445,41.12729037068678L166.47104930555554,41.53912383361808L166.6760378472222,41.36771145025628L166.70075277777778,41.19131530523063L166.73855208333333,41.02149627470757L167.08601493055556,41.4328466472368L167.82891666666666,41.20568698251316L168.03681284722222,41.55436828426181L168.1371263888889,41.84605645583562L168.71574652777778,42.15282581025207L168.81460625,41.59923072922686L169.0951934027778,41.11205765630419L169.19405312499998,40.916976890673766L169.20422986111112,40.6639667016064L169.48627083333332,40.38094503144575L169.67672118055557,40.258975528301164L169.6810826388889,39.96114047547107L169.72178958333333,39.958588927923955L169.7930267361111,39.60229253513157L170.1782888888889,40.07812578161838L170.31204027777778,40.61700070345657L170.33675520833333,40.482488133110905L170.34402430555556,40.892426819799795L170.36001631944444,40.542309137819814L170.59553506944442,40.968390724037846L170.59989652777776,40.69917665163405L170.81506180555556,40.56750898647064L170.96044375,40.21669558782358L170.98806631944444,40.63108852904122L171.16543229166666,40.50622967613711L171.93304895833333,40.44916920852336L171.9868402777778,40.32037728767102L172.4971309027778,40.06065205890391L172.93036909722224,39.74946185301354L173.6267486111111,39.74595316771217L173.6616402777778,39.709607850940955L174.24607569444444,40.19683456584687L174.30132083333334,40.07115110926216L174.41617256944446,40.013348498335944L174.44815659722224,40.52551364850237L175.03695347222222,40.1788997836521L175.88162256944443,40.13244730528692L175.92087569444445,40.57739007475823L176.40499756944445,40.96677606728238L176.60562465277778,41.39466096055418L176.91819583333336,41.01644486449874L176.93564166666667,40.86411287804884L177.03740902777778,40.74913909024397L177.14499166666667,40.623537681219574L177.1595298611111,40.4773089130976L177.57096076388888,40.34570302178781L177.87917048611112,40.14982021960904L178.58718055555553,39.76333819764815L178.85177569444446,39.65887937788332L178.94045868055557,40.195428940094985L179.190515625,40.11413604608549L179.60485416666668,40.12947244147696L179.63393055555554,39.81140019732925L179.7182520833333,39.834885177596306L179.9305097222222,39.74539665983667L180.56728263888888,39.432544493853015L181.14881041666666,39.42754004446772L181.32908402777778,40.00934854002094L181.50790381944446,39.78072618601885L181.5268034722222,40.24977856741694L181.70998472222223,40.163050710675236L182.18683750000002,40.06287063960772L182.20428333333334,40.492646075646945L182.48341666666667,40.37056896808227L183.26121006944445,40.82488707127405L183.47637534722222,40.60321086414663L183.89798298611112,40.49220227773196L184.06517222222223,40.41441954995875L184.68159166666666,40.266977594962896L184.95200208333333,40.2117173354666L185.73124930555554,40.13985810191997L185.88099270833334,40.60618479172794L185.89698472222221,40.55019131255514L186.03509756944445,40.466609681299644L186.0627201388889,40.11482371316967L186.19647152777776,40.61684134185268L186.8245215277778,40.52659470766744L186.90884305555556,40.190935236900685L187.74624305555557,40.67427921321061L188.15476631944443,40.55616379188953L188.75664756944443,40.30604741270059L189.09393368055555,40.18050517143055L189.6638309027778,40.687017154287474L189.7234375,40.57869043885873L190.10143055555557,40.49225889497285L190.15086041666666,40.42553300547556L190.26425833333332,40.31016720492801L190.83124791666665,40.09571298443521L190.95482256944445,40.090766685991696L191.59304930555555,39.77656501739253L191.64829444444445,39.71503351565323L192.2312760416667,39.737092664087896L192.4420798611111,39.73482089767913L192.89131006944444,39.65533880791119L192.95091666666664,39.60592992712009L192.96981631944445,39.58358693440809L193.20824270833333,39.45285324096727L194.172125,39.40156791687056L194.603909375,39.4217861251835L194.82488993055557,39.37360751266513L194.94264930555553,39.96080926139862L195.1665375,39.91404083525876L195.40932534722222,39.89407425173289L195.62594444444443,39.876104326559584L195.72771180555554,39.83780639390366L195.78731840277777,39.62633825451326L196.29615520833332,39.36964192906194L196.6159954861111,39.34880273615573L196.83261458333334,39.241547462540154L197.28039097222222,39.26670521628614L197.46066458333334,39.30040969465753L197.67146840277778,39.286493725191775L197.73543645833334,39.362469352672605L197.80521979166667,39.342347417405335L198.17739756944445,39.34636267566481L198.28061875,39.327851408098326L198.5001454861111,39.31119126728848L198.93338368055555,39.417884640559635L199.13982604166668,39.12672117650368L199.49165034722225,39.0527365588533L199.8158520833333,39.64990040296797L199.85074375000002,39.54572286267117L200.33631944444443,39.54046307640405L200.66342881944445,39.30341676876364L200.7768267361111,39.21176259188729L200.89603993055556,39.23989883269854L201.28711736111111,39.30947144942871L201.44849131944443,39.31677430448582L202.56357083333333,38.91403437403724L202.86305763888888,39.13788093663351L202.90667222222223,39.66015534297017L203.09421493055555,39.38901480867315L203.553621875,39.34411332780584L203.89672326388887,39.270514495025225L204.20347916666665,39.2706505455227L204.45208229166667,39.80177299097042L204.76319965277779,40.36828319187339L204.83007534722222,40.26970487268605L204.96091909722222,39.93760938541743L205.18189965277776,40.46841094687568L205.3636270833333,40.35981985218811L205.751796875,40.31740036696931L205.77941944444444,40.2017853302724L206.27807951388888,40.77254429724513L206.43218437500002,40.5671648675206L206.66043402777777,40.50401088076856L207.11984097222222,40.236984792691686L207.55889444444443,39.90816131342251L207.66793090277778,39.844532682080256L207.8525659722222,40.329329413872244L208.20439027777778,40.035521472485016L208.525684375,39.62728182523651L208.55912222222221,39.558553642712866L208.69141979166668,40.13832327844156L208.8687857638889,40.029553450597405L209.17844930555555,39.94272310553768L209.52155069444444,39.87563829498387L209.56661909722223,40.41263696548552L209.88791319444442,40.010935768936946L210.0332951388889,40.02552969204325L210.043471875,39.92803922283892L210.67733715277777,39.884547800555026L210.86633368055556,39.779030520499504L210.93320937500002,39.76150246844955L210.9433861111111,39.6351022216046L211.02189236111113,39.43284199944415L211.34318645833332,39.394620299499735L211.97414409722222,39.89122076954976L212.65307777777778,39.89566119259479L212.79409826388888,39.64522007333528L213.11539236111113,39.696385566001766L213.30002743055556,39.012309509401575L213.340734375,38.83914105846145L213.4512246527778,39.4355394526153L213.5893375,39.253235507353764L213.680928125,39.2772244566184L214.2115722222222,39.81875201095656L214.36567708333334,39.874689309860884L215.00099618055555,39.836532878874806L215.07514097222224,39.70262959098733L215.21470763888888,39.6263666318886L215.32229027777777,40.16616746869971L215.57961631944445,39.86655072182975L215.87183402777777,40.34914564964677L215.90091041666665,40.21929358468208L216.32251805555555,40.113489226213886L216.46499236111111,40.571390303592494L216.55512916666666,40.352938773233234L216.76157152777776,40.79795739590992L216.81390902777778,40.52366165631892L216.87933090277778,40.354232990687024L217.37944479166666,40.24599719161833L217.44341284722222,40.13752247245648L217.45795104166666,40.017770225210825L217.73272291666666,39.71086820268977L218.26045937499998,39.655906382420795L218.3680420138889,39.6617532441787L218.57303055555556,39.567452919760825L218.6428138888889,39.50470762778474L219.18799618055556,39.39292436500628L219.49184444444444,39.93394442850564L219.52237465277778,39.856674985655076L219.61541909722223,39.76500748708955L219.78406215277778,39.73781923838061L219.7942388888889,39.458912314542545L219.99486597222221,39.45127108308827L220.28272222222222,39.422268974779456L220.32924444444444,39.130667077301496L220.62146215277778,39.72003786957137L220.82354305555555,40.27259658261423L221.3251107638889,40.769899424352786L221.57516770833334,40.63115948191748L222.185771875,40.45098103372575L222.98101111111112,40.32200793035318L223.05370208333335,40.09530713731783L223.20926076388886,40.00190142358605L223.2194375,39.97314878122742L223.42442604166666,40.41189640310469L223.9681545138889,40.906331762794224L224.39121597222223,41.3402610865148L224.7953777777778,40.93429747786331L225.01345069444446,40.756992730076945L225.2794996527778,40.57529345706925L226.22302847222224,40.43388911136233L227.0604284722222,40.129625200226116L227.33083888888888,39.84472518020351L227.8832902777778,39.53300266218315L227.91382048611112,39.31882739596483L228.12607812500002,39.303069656368365L228.30925937499998,39.33313769073152L228.7090597222222,39.43763642165837L228.780296875,39.244060279492516L229.1408440972222,39.84421675154326L229.26587256944444,39.56573257638891L229.48539930555555,39.52528431875004L229.49412222222222,39.52206838687502L229.75726354166667,39.408549048187524L230.07274236111112,39.41700664336875L230.07710381944446,39.3250559790319L230.43328958333333,39.009987881128694L230.44346631944444,39.08042659301583L230.51761111111114,39.055321433714255L230.76766805555556,39.04378929034283L230.98283333333333,39.64184786130852L231.4655013888889,39.604850575177664L231.73300416666666,39.57155301765991L232.3029013888889,39.53052271589391L232.3843152777778,39.28340794430454L232.44973715277777,39.28225464987406L232.5064361111111,39.27015418488665L232.59366527777777,39.36988876639799L232.86552951388887,39.32689988975818L232.92513611111113,39.91877240078236L233.2100847222222,39.63283266070411L233.35837430555554,39.4197368946337L233.700021875,39.47132570517036L233.8962875,39.263318134653304L234.8281857638889,39.26417382118797L235.11022673611112,39.32025643906917L235.36900659722224,39.30435579516225L235.38645243055558,39.212607715646016L235.58853333333334,39.77165944408139L235.71356180555557,39.68849349967326L235.8400440972222,39.757456649705915L236.0624784722222,39.67571098473533L236.26019791666667,39.55788988626179L236.3721420138889,39.4739758976356L236.53496979166667,39.26570330787203L236.54078506944444,39.21100797708485L236.7326892361111,39.217094679376345L236.87807118055554,39.034510211438686L237.04235277777778,39.633496690294834L237.3607392361111,40.216834521265326L237.40726145833332,39.934276069138804L237.78816215277777,39.6135984622249L238.00623506944444,39.59048861600243L238.2112236111111,39.55862725440218L238.39295104166666,39.48570202896195L238.7302371527778,39.486444326065765L239.169290625,39.43179989345916L239.79879444444444,39.404744904113244L240.477728125,39.42464541370191L240.67108611111112,39.49786837233174L241.14066979166665,39.40889403509854L241.26715208333334,39.38412963158868L241.367465625,39.29546666842981L241.57100034722222,39.20460750158682L241.7236513888889,39.78658425142814L241.86321805555556,39.779363326285335L242.14380520833333,39.70648949365679L242.2630184027778,39.419653044291096L242.29064097222223,39.37168773986198L242.41566944444446,39.439143965875786L242.91578333333334,39.25647956928822L243.11931805555557,39.26908161235937L243.22399305555555,39.25829845112344L243.42316631944442,39.23753110601109L243.6412392361111,39.20777799540997L243.77644444444445,39.225250195868995L243.88838854166667,39.318412676282065L243.97707152777778,39.26950890865385L244.22422083333333,38.99318301778845L244.50626180555554,39.61842721600962L244.57749895833334,40.15902199440865L245.09360486111112,40.66768229496776L245.12995034722223,40.295789065470984L245.42507569444444,40.790772658923885L245.55882708333334,41.23625789303151L245.75073125,40.95131960372834L246.43257256944446,40.76125014335551L246.47764097222222,41.22075012901996L246.50235590277777,40.77142511611794L247.1144138888889,40.61040760450615L247.40808541666667,40.310616844055545L247.48223020833333,40.162492659649985L248.09719583333333,40.051305893685L248.10591875,39.94017530431648L248.32835312499998,39.784845273884855L248.47955034722222,39.61186074649635L248.64092430555556,39.58892467184671L249.06398576388887,39.49084470466204L249.2762434027778,39.45788523419583L249.77926493055554,39.251221710776235L250.160165625,39.24222453969861L250.4509295138889,39.234127085728744L250.74023958333333,39.04983937715588L250.90742881944445,38.77335543944028L250.93650520833333,38.79001989549624L251.14440138888887,38.79395540594663L251.29414479166667,38.775372365351956L251.7666361111111,38.714397628816755L251.92655625,38.58208286593509L252.37869409722222,38.68424957934158L252.803209375,38.477512121407415L252.84682395833332,38.54588590926667L253.06925833333332,38.58529731834L253.34403020833332,38.62076758650599L253.61153298611111,39.28325332785539L253.8048909722222,39.87949049506986L254.12327743055556,39.67491644556287L254.1276388888889,39.60142480100657L254.22940625,39.54634482090589L254.23231388888888,39.474647838815315L254.23376770833335,39.454370554933774L254.2613902777778,39.20380849944041L254.26575173611113,39.188490149496346L254.27883611111113,39.15257863454673L254.29773576388888,39.175570771092055L254.31372777777779,39.19626369398284L254.31808923611112,38.99363732458454L254.33262743055553,38.98827359212609L254.35588854166667,38.85069623291349L254.36751909722224,38.881751609622114" style="fill: none;" fill="none"></path></g></g></g></g><g opacity="0.2"><g><g><g><path stroke="rgb(255, 112, 67)" stroke-width="2px" d="M29.124364930555554,152.994375L29.247939583333334,153.105L29.31190763888889,153.32625L29.48345833333333,152.44125L29.506719444444443,152.6625L29.531434375,152.6625L29.617209722222224,152.88375L29.63320173611111,153.215625L29.769860763888886,152.994375L29.82946736111111,152.88375L30.02427916666667,152.109375L30.160938194444444,152.330625L30.19582986111111,152.994375L30.48659375,151.99875L30.703212847222222,152.22L30.890755555555554,152.22L30.91547048611111,151.99875L31.02886840277778,152.22L31.246941319444446,152.22L31.293463541666668,152.22L31.335624305555555,152.551875L31.355977777777778,152.88375L31.401046180555557,152.22L31.62202673611111,152.109375L31.838645833333334,152.330625L31.944774652777777,152.330625L31.969489583333335,152.22L32.21082361111111,152.109375L32.30677569444445,152.330625L32.372197569444445,152.109375L32.46669583333333,152.22L32.514671875,152.109375L32.529210069444446,151.888125L32.74728298611111,152.330625L32.91011076388889,152.22L32.953725347222225,152.44125L32.97117118055555,152.44125L33.102014930555555,152.330625L33.221228125,152.22L33.33026458333333,151.888125L33.43348576388889,152.330625L33.690811805555555,152.330625L33.744603125000005,151.888125L33.85800104166666,152.109375L34.404637152777774,152.109375L34.422082986111114,152.109375L34.61398715277778,152.22L34.64015590277778,152.22L34.64887881944444,152.109375L34.67795520833334,152.22L34.84805208333333,152.22L34.868405555555555,151.99875L34.907658680555556,152.22L35.03850243055556,152.109375L35.23186041666666,152.109375L35.25802916666667,151.7775L35.53861631944445,152.22L35.577869444444445,152.109375L35.69272118055556,151.99875L35.75814305555556,137.06437499999998L35.785765625,151.7775L35.83374166666666,151.888125L35.91806319444444,152.109375L35.99656944444444,152.109375L36.11723645833334,152.22L36.18701979166667,152.109375L36.31786354166667,152.330625L36.40654652777778,152.22L36.419630902777776,152.22L36.48505277777778,152.109375L36.50395243055556,152.109375L36.66387256944445,152.22L36.88339930555556,152.22L36.91829097222222,152.22L37.044773263888885,151.99875L37.13345625,152.22L37.13781770833333,152.109375L37.15235590277778,152.109375L37.20033194444444,152.22L37.24103888888889,151.99875L37.36025208333333,152.22L37.45184270833333,152.22L37.47655763888889,152.330625L37.53471041666666,152.109375L37.64665451388889,152.22L37.70044583333333,152.109375L38.052270138888886,151.99875L38.088615625,152.22L38.133684027777775,151.99875L38.155491319444444,151.888125L38.223820833333335,152.109375L38.36920277777777,151.99875L38.42299409722222,151.888125L38.45933958333333,151.99875L38.52476145833333,152.22L38.550930208333334,151.888125L38.71375798611111,151.99875L38.760280208333334,151.888125L38.76464166666667,151.99875L38.7820875,151.7775L38.79226423611111,151.888125L38.90275451388889,144.6975L38.97253784722222,151.888125L39.01906006944444,151.888125L39.065582291666665,151.888125L39.08448194444444,151.888125L39.16734965277778,151.888125L39.22841006944444,151.888125L39.30837013888888,151.888125L39.31273159722222,151.888125L39.62239513888889,139.49812500000002L39.66600972222222,151.888125L40.109424652777776,141.489375L40.17193888888889,151.888125L40.20973819444444,151.888125L40.299875,135.958125L40.41181909722222,151.55625L40.49323298611111,151.99875L40.55283958333333,151.888125L40.65169930555556,151.888125L40.6662375,151.888125L40.79126597222222,151.888125L40.84214965277778,137.728125L41.12564444444444,137.506875L41.131459722222225,137.506875L41.32336388888889,139.82999999999998L41.37424756944444,131.20125000000002L41.59086666666667,131.97562499999998L41.68681875,132.08625L41.83801597222222,127.329375L42.05172743055556,121.02375L42.105518749999995,123.23625L42.26689270833334,129.763125L42.271254166666665,125.2275L42.41663611111111,130.205625L42.88621979166666,120.80250000000001L43.02724027777778,117.15187499999999L43.16099166666666,127.8825L43.53607708333333,120.913125L43.67564375,117.15187499999999L44.02456041666667,114.27562499999999L44.46652152777778,118.700625L44.787815625,114.27562499999999L45.290837152777776,114.49687499999999L45.42895,120.913125L45.677553125,123.015L45.71826006944445,120.80250000000001L45.812758333333335,118.81125L46.02646979166667,121.355625L46.10352222222222,120.80250000000001L46.280888194444444,114.82875L46.28524965277777,123.125625L46.60363611111111,116.59875L46.920568749999994,117.705L47.02960520833333,121.02375L47.16481041666667,118.59L47.59077951388889,116.488125L47.81466770833333,118.59L48.384564930555555,118.81125L49.25249513888889,121.134375L49.412415277777775,118.81125L49.43131493055556,118.81125L49.508367361111105,118.1475L50.204746875,116.488125L50.75283680555555,118.81125L50.760105902777774,125.33812499999999L50.97381736111112,118.921875L51.28057326388889,120.913125L52.45235173611111,113.390625L52.47852048611111,113.05875L52.88268229166667,113.94375L53.29120555555555,112.948125L53.320281944444446,110.625L53.5936,113.390625L54.30451770833333,114.27562499999999L54.52404444444444,113.7225L54.83806944444444,113.94375L55.034335069444445,113.390625L55.415235763888894,113.7225L55.70309201388889,109.51875L55.764152430555555,115.603125L56.22937465277778,113.28L56.3674875,110.84625L56.49106215277778,113.94375L56.55939166666667,109.51875L57.30520104166667,104.540625L58.44644930555556,113.390625L58.567116319444445,111.178125L58.65289166666666,111.51L58.747389930555556,113.833125L59.567344097222225,113.833125L59.977321180555556,111.399375L60.026751041666664,113.390625L60.14596423611111,101.3325L60.30879201388889,127.44L60.378575347222224,111.841875L61.22033680555556,111.0675L61.22615208333333,103.32375L61.640490625000005,111.0675L61.83384861111111,113.50125L62.07082118055556,111.620625L62.1246125,113.169375L62.451721875,111.178125L62.77301597222222,111.841875L63.331282638888894,114.054375L63.39234305555556,114.939375L64.30824930555555,111.178125L64.32424131944444,121.355625L64.86796979166667,113.28L64.93193784722223,111.841875L65.28085451388888,111.841875L65.51637326388888,112.505625L65.64867083333334,109.2975L65.96124201388889,110.956875L66.23746770833333,109.629375L66.24764444444445,113.169375L66.66925208333333,113.390625L66.93530104166666,109.629375L67.05015277777778,114.054375L67.26095659722223,106.310625L67.29875590277778,108.080625L67.55172048611111,108.4125L67.606965625,104.761875L67.91517534722223,101.3325L68.16377847222222,106.6425L68.3367829861111,105.315L68.56357881944444,103.76625L68.79618993055556,101.55375L68.91831076388888,108.080625L68.93430277777777,100.66875L68.94884097222221,101.55375L69.02298576388888,105.7575L69.09713055555557,105.425625L69.26286597222223,103.76625L69.51001527777777,102.106875L69.75134930555555,102.43875L69.83857847222222,106.089375L69.95488402777778,106.089375L69.97378368055556,103.213125L70.11189652777777,107.5275L70.21366388888889,107.5275L70.22965590277778,100.66875L70.24274027777778,101.55375L70.77774583333334,105.204375L71.01326458333332,103.213125L71.22842986111111,96.354375L71.42033402777778,103.434375L71.43196458333334,101.3325L71.64131458333333,100.66875L71.80704999999999,105.97875L72.121075,103.213125L72.343509375,102.66L72.42783090277777,103.76625L72.66480347222223,99.673125L72.82326979166666,102.991875L72.90759131944445,101.000625L73.023896875,106.089375L73.34373715277778,107.416875L73.43242013888889,96.0225L73.58361736111111,103.545L73.59524791666666,107.416875L73.61850902777778,105.97875L74.70887361111112,94.2525L74.8920548611111,101.000625L75.41542986111111,103.1025L75.44596006944444,89.053125L75.50702048611112,103.545L75.67420972222222,101.000625L75.74980833333333,89.053125L75.82540694444444,100.66875L75.91845138888888,104.983125L76.33133611111111,100.66875L76.6773451388889,101.55375L76.73404409722221,102.88125L77.15710555555556,102.88125L77.34028680555555,100.779375L77.54672916666667,99.673125L77.62668923611112,102.66L77.91454548611111,100.66875L77.99305173611111,101.55375L78.03812013888889,100.66875L78.16169479166668,103.76625L78.80719062499999,90.49125L79.12266944444444,102.549375L79.16628402777778,100.336875L79.27241284722223,102.66L79.2913125,100.336875L79.31021215277778,100.4475L79.33492708333333,89.16375L79.50357013888889,102.66L79.54136944444444,102.66L79.74345034722222,104.319375L79.76816527777778,102.43875L80.21594166666667,100.4475L81.25106111111111,100.4475L81.36445902777777,96.133125L81.43860381944445,102.549375L81.50693333333334,101.99625L81.79188194444444,95.911875L82.0128625,99.78375L82.17714409722223,91.81875L82.41411666666667,102.328125L82.46354652777778,91.265625L82.48389999999999,95.58L82.48680763888889,101.000625L82.59729791666666,100.4475L82.72087256944444,100.779375L82.90986909722221,101.11125L82.98837534722223,92.04L83.36200694444445,91.81875L83.54082673611111,91.486875L83.62805590277777,95.58L83.67748576388888,90.49125L83.72110034722222,95.248125L83.87375138888889,86.840625L83.87811284722223,89.716875L83.93626562499999,89.053125L83.95516527777778,91.486875L84.18777638888889,74.229375L84.35787326388889,73.565625L84.44801006944445,95.248125L85.09350590277776,95.911875L85.39153888888889,100.4475L85.56599722222222,95.248125L85.73609409722222,101.3325L85.82913854166667,93.14625L85.84803819444444,94.91625L86.17369375,91.486875L86.23330034722221,100.779375L86.6868920138889,84.73875L86.97474826388888,83.85375L87.30040381944444,78.10125000000001L87.98515277777777,75.00375L88.61901805555556,74.229375L88.6364638888889,95.58L88.73823125,95.1375L89.1016861111111,76.22062500000001L89.222353125,76.995L89.89111006944445,74.893125L90.35633229166666,90.04875L90.57295138888888,75.114375L90.83027743055555,99.894375L90.87534583333333,95.911875L90.92768333333333,91.265625L90.98438229166666,76.663125L91.11231840277777,90.380625L91.89883472222222,95.469375L91.996240625,79.318125L92.32335,74.00812499999999L92.38731805555555,74.56125L92.63882881944446,97.681875L93.15784236111112,73.565625L93.37736909722223,73.8975L93.67540208333332,72.34875L93.77716944444444,74.7825L93.82078402777778,72.680625L94.312175,73.12312499999999L94.38922743055555,74.229375L94.52297881944445,75.22500000000001L94.88788749999999,74.11874999999999L95.38509375,77.4375L95.7747173611111,74.671875L95.81978576388889,94.695L95.83287013888888,74.7825L96.11781875,73.8975L96.2719236111111,72.57000000000001L96.99737951388889,72.680625L97.19655277777777,74.229375L97.23580590277778,74.56125L97.49458576388889,73.34437500000001L97.76208854166667,75.114375L97.9758,74.56125L98.06884444444445,74.7825L98.86844513888889,73.786875L98.96585104166667,73.786875L99.06907222222223,77.769375L99.25516111111111,72.680625L99.61716215277778,73.565625L99.85558854166666,73.34437500000001L100.36297152777777,74.11874999999999L100.78457916666666,74.450625L100.9067,72.238125L101.13785729166666,52.215L101.33412291666666,73.565625L101.37192222222222,74.450625L101.46205902777778,72.901875L101.75136909722222,73.34437500000001L102.43175659722222,73.34437500000001L102.43902569444444,74.7825L102.45211006944444,72.901875L102.71525138888889,72.680625L103.03654548611112,73.0125L103.07579861111111,72.79125L103.57445868055555,72.45937500000001L103.61807326388889,74.56125L103.63842673611111,72.79125L103.67186458333333,74.34L103.71547916666667,74.7825L104.71570694444443,72.238125L105.11259965277777,73.45500000000001L105.1431298611111,71.24249999999999L105.42807847222223,72.016875L105.71448090277778,72.901875L105.76536458333334,72.1275L106.0255982638889,75.556875L106.18115694444444,79.64999999999999L106.73651597222222,53.10000000000001L106.78885347222221,48.453750000000014L106.81792986111111,74.34L106.89352847222221,52.87875L107.24099131944443,79.64999999999999L107.775996875,80.424375L108.42585416666667,76.995L108.52326006944445,76.663125L108.56978229166667,80.424375L108.76750173611111,75.33562500000001L109.47260416666667,51.99374999999999L109.69358472222221,70.025625L109.70230763888888,74.56125L109.77936006944445,73.67625L109.80989027777778,79.2075L109.91892673611112,55.201875L110.02505555555555,51.551249999999996L110.11955381944445,64.605L110.46120138888888,74.7825L110.49463923611111,53.76374999999999L110.80721041666666,75.778125L110.837740625,50.555625000000006L111.17066527777777,50.555625000000006L111.62571076388889,52.546875L111.86122951388889,74.56125L111.86995243055556,55.754999999999995L112.37733541666667,50.776875000000004L112.87744930555554,71.02125L113.62180486111112,53.542500000000004L114.16844097222221,75.22500000000001L114.23240902777778,49.11749999999999L114.4621125,48.56437500000001L114.66273958333333,73.12312499999999L114.789221875,74.34L115.01747152777777,54.75937499999999L115.04654791666667,52.43625L115.63825243055555,49.449375L115.96826944444445,74.56125L116.22123402777777,46.573125000000005L116.24740277777778,51.88312499999999L116.39714618055555,48.343124999999986L116.52362847222221,49.338750000000005L117.2723454861111,48.56437500000001L117.379928125,45.90937500000001L117.58055520833332,46.24125000000001L117.67650729166667,46.02000000000001L117.693953125,45.79875000000001L117.73175243055555,73.34437500000001L117.772459375,49.56L118.4688388888889,46.794375L118.68400416666667,48.78562500000001L119.00239062499999,48.78562500000001L119.09543506944443,46.462500000000006L119.19284097222221,46.24125000000001L119.84705972222221,47.015625L120.1436388888889,46.794375L120.572515625,44.581875L120.59577673611112,39.49312499999999L120.8051267361111,46.573125000000005L120.97231597222222,46.794375L121.16858159722221,46.68375L121.61490416666666,40.26750000000001L122.13973298611111,74.00812499999999L122.21678541666667,48.01124999999999L122.26476145833334,44.581875L122.41159722222223,49.449375L122.56715590277778,47.67937499999999L123.14141458333334,45.79875000000001L123.27661979166668,46.905L124.04423645833333,44.91374999999999L124.10675069444444,44.91374999999999L124.28120902777778,45.688125000000014L124.50655104166667,45.90937500000001L124.68827847222222,46.794375L124.73480069444444,45.35624999999999L124.97904236111111,45.90937500000001L125.021203125,45.90937500000001L125.1622236111111,46.35187500000001L125.38901944444444,45.90937500000001L125.62308437499999,46.573125000000005L125.69868298611111,46.13062500000001L126.26131111111111,76.77374999999999L126.30928715277778,61.39687500000001L126.70181840277777,46.462500000000006L126.84720034722221,46.13062500000001L126.905353125,46.24125000000001L127.07254236111112,46.24125000000001L127.6511625,49.78125L127.73403020833332,47.015625L127.90267326388889,49.006874999999994L128.04223993055555,45.79875000000001L128.10184652777778,46.794375L128.5830607638889,46.02000000000001L129.19075729166667,46.68375L129.65743333333333,45.02437499999999L129.93656666666666,45.79875000000001L129.93947430555556,45.46687499999999L130.64166909722223,40.046249999999986L130.65620729166668,45.688125000000014L130.80013541666668,46.02000000000001L130.87573402777778,45.688125000000014L130.9382482638889,45.688125000000014L131.51541458333335,46.35187500000001L131.85270069444442,46.13062500000001L131.93847604166666,45.90937500000001L132.14055694444446,41.263125L132.42405173611112,45.90937500000001L133.1044392361111,45.35624999999999L133.37630347222222,45.79875000000001L133.48533993055554,45.688125000000014L134.1875347222222,46.02000000000001L134.258771875,45.90937500000001L134.42014583333335,45.79875000000001L134.4448607638889,46.02000000000001L134.5131902777778,46.13062500000001L134.68910243055555,45.79875000000001L134.87519131944444,40.26750000000001L134.89699861111112,45.688125000000014L135.20666215277777,45.79875000000001L135.50033368055554,45.577499999999986L135.9001340277778,45.90937500000001L136.18072118055557,46.35187500000001L136.640128125,45.35624999999999L136.64739722222222,39.71437499999999L136.78405625000002,45.90937500000001L137.17513368055555,45.90937500000001L137.26672430555556,46.02000000000001L137.46880520833332,45.577499999999986L137.5007892361111,45.577499999999986L137.83226006944443,45.79875000000001L137.93257361111114,45.688125000000014L137.97037291666666,45.79875000000001L138.33237395833333,39.82499999999999L138.9400704861111,39.93562499999999L139.14796666666666,45.13499999999999L139.33696319444445,45.79875000000001L140.1234795138889,45.79875000000001L140.13801770833334,45.577499999999986L140.16418645833332,45.688125000000014L140.44186597222222,46.13062500000001L140.78642118055555,46.35187500000001L141.07718506944443,46.13062500000001L141.3141576388889,45.79875000000001L141.402840625,45.90937500000001L141.74739583333331,45.90937500000001L141.98000694444445,45.577499999999986L142.08468194444444,45.24562499999999L142.95988125,44.581875L143.30879791666666,46.02000000000001L143.4149267361111,45.46687499999999L143.65916840277777,46.02000000000001L143.79582743055553,45.90937500000001L143.8263576388889,45.688125000000014L144.14183645833333,45.79875000000001L144.26104965277779,45.24562499999999L144.57798229166667,45.688125000000014L144.65358090277778,45.577499999999986L144.96760590277776,46.794375L145.00685902777778,45.688125000000014L145.02139722222222,39.82499999999999L145.07955,49.78125L146.0696010416667,46.13062500000001L146.6264138888889,45.688125000000014L146.75435,46.02000000000001L146.80087222222224,45.577499999999986L147.20067256944446,45.24562499999999L149.27091145833333,45.577499999999986L149.69978819444444,40.26750000000001L150.08795798611112,39.271874999999994L150.1853638888889,45.35624999999999L150.2580548611111,45.79875000000001L150.35982222222222,40.156875000000014L150.39616770833334,38.94L150.40779826388888,39.60374999999999L150.50229652777776,44.803124999999994L151.18559166666665,39.38249999999999L151.40802604166666,37.50187500000001L151.44437152777778,44.803124999999994L151.739496875,39.271874999999994L152.12330520833333,38.608125L152.42569965277775,45.577499999999986L152.576896875,44.692499999999995L152.6524954861111,44.803124999999994L152.8807451388889,40.156875000000014L153.04793437499998,38.829375L153.69488402777776,45.79875000000001L153.95802534722222,39.71437499999999L154.06415416666667,44.47125L154.3723638888889,44.692499999999995L154.43487812499998,39.60374999999999L154.77361805555554,45.90937500000001L154.905915625,37.16999999999999L155.11962708333334,39.71437499999999L155.22866354166666,45.688125000000014L155.71423923611113,39.161249999999995L155.97011145833332,39.60374999999999L156.12421631944443,45.46687499999999L156.40916493055556,45.35624999999999L157.02703819444446,39.271874999999994L157.18695833333334,44.91374999999999L157.47626840277778,45.02437499999999L157.63909618055555,40.37812500000001L157.6507267361111,39.49312499999999L158.25987708333332,45.02437499999999L158.29331493055554,40.046249999999986L158.34710625,40.156875000000014L158.56808680555554,39.38249999999999L158.64659305555557,39.93562499999999L159.53051527777777,39.050625L159.71951180555556,45.13499999999999L159.88088576388887,36.72749999999999L159.98410694444445,45.46687499999999L160.26905555555555,40.37812500000001L160.349015625,40.046249999999986L160.89565173611112,39.60374999999999L160.90001319444445,39.93562499999999L161.5324246527778,45.24562499999999L161.57458541666665,45.577499999999986L161.61674618055557,45.79875000000001L161.83918055555557,39.93562499999999L161.9351326388889,39.82499999999999L162.2128121527778,36.83812499999999L162.30585659722223,40.156875000000014L162.3087642361111,40.156875000000014L162.83650069444445,39.60374999999999L163.13162604166666,39.71437499999999L163.26537743055556,39.161249999999995L163.66663159722222,45.577499999999986L163.79602152777778,39.93562499999999L163.9050579861111,45.46687499999999L163.94140347222222,39.93562499999999L164.3208503472222,39.60374999999999L164.94599270833334,44.803124999999994L165.51298229166665,39.38249999999999L165.635103125,37.61250000000001L165.87643715277775,44.581875L166.22535381944445,39.60374999999999L166.47104930555554,45.24562499999999L166.6760378472222,39.82499999999999L166.70075277777778,39.60374999999999L166.73855208333333,39.49312499999999L167.08601493055556,45.13499999999999L167.82891666666666,39.161249999999995L168.03681284722222,44.692499999999995L168.1371263888889,44.47125L168.71574652777778,44.91374999999999L168.81460625,36.61687499999999L169.0951934027778,36.72749999999999L169.19405312499998,39.161249999999995L169.20422986111112,38.386875L169.48627083333332,37.83375000000001L169.67672118055557,39.161249999999995L169.6810826388889,37.280624999999986L169.72178958333333,39.93562499999999L169.7930267361111,36.395624999999995L170.1782888888889,44.360625L170.31204027777778,45.46687499999999L170.33675520833333,39.271874999999994L170.34402430555556,44.581875L170.36001631944444,37.391250000000014L170.59553506944442,44.803124999999994L170.59989652777776,38.276250000000005L170.81506180555556,39.38249999999999L170.96044375,37.05937499999999L170.98806631944444,44.360625L171.16543229166666,39.38249999999999L171.93304895833333,39.93562499999999L171.9868402777778,39.161249999999995L172.4971309027778,37.72312500000001L172.93036909722224,36.94874999999999L173.6267486111111,39.71437499999999L173.6616402777778,39.38249999999999L174.24607569444444,44.581875L174.30132083333334,38.94L174.41617256944446,39.49312499999999L174.44815659722224,45.13499999999999L175.03695347222222,37.05937499999999L175.88162256944443,39.71437499999999L175.92087569444445,44.581875L176.40499756944445,44.47125L176.60562465277778,45.24562499999999L176.91819583333336,37.61250000000001L176.93564166666667,39.49312499999999L177.03740902777778,39.71437499999999L177.14499166666667,39.49312499999999L177.1595298611111,39.161249999999995L177.57096076388888,39.161249999999995L177.87917048611112,38.386875L178.58718055555553,36.285L178.85177569444446,38.71875L178.94045868055557,45.02437499999999L179.190515625,39.38249999999999L179.60485416666668,40.26750000000001L179.63393055555554,36.94874999999999L179.7182520833333,40.046249999999986L179.9305097222222,38.94L180.56728263888888,36.61687499999999L181.14881041666666,39.38249999999999L181.32908402777778,45.24562499999999L181.50790381944446,37.72312500000001L181.5268034722222,44.47125L181.70998472222223,39.38249999999999L182.18683750000002,39.161249999999995L182.20428333333334,44.360625L182.48341666666667,39.271874999999994L183.26121006944445,44.91374999999999L183.47637534722222,38.608125L183.89798298611112,39.49312499999999L184.06517222222223,39.71437499999999L184.68159166666666,38.94L184.95200208333333,39.71437499999999L185.73124930555554,39.49312499999999L185.88099270833334,44.803124999999994L185.89698472222221,40.046249999999986L186.03509756944445,39.71437499999999L186.0627201388889,36.94874999999999L186.19647152777776,45.13499999999999L186.8245215277778,39.71437499999999L186.90884305555556,37.16999999999999L187.74624305555557,45.02437499999999L188.15476631944443,39.49312499999999L188.75664756944443,38.05500000000001L189.09393368055555,39.050625L189.6638309027778,45.24562499999999L189.7234375,39.60374999999999L190.10143055555557,39.71437499999999L190.15086041666666,39.82499999999999L190.26425833333332,39.271874999999994L190.83124791666665,38.165625000000006L190.95482256944445,40.046249999999986L191.59304930555555,36.94874999999999L191.64829444444445,39.161249999999995L192.2312760416667,39.93562499999999L192.4420798611111,39.71437499999999L192.89131006944444,38.94L192.95091666666664,39.161249999999995L192.96981631944445,39.38249999999999L193.20824270833333,38.276250000000005L194.172125,38.94L194.603909375,39.60374999999999L194.82488993055557,38.94L194.94264930555553,45.24562499999999L195.1665375,39.49312499999999L195.40932534722222,39.71437499999999L195.62594444444443,39.71437499999999L195.72771180555554,39.49312499999999L195.78731840277777,37.72312500000001L196.29615520833332,37.05937499999999L196.6159954861111,39.161249999999995L196.83261458333334,38.276250000000005L197.28039097222222,39.49312499999999L197.46066458333334,39.60374999999999L197.67146840277778,39.161249999999995L197.73543645833334,40.046249999999986L197.80521979166667,39.161249999999995L198.17739756944445,39.38249999999999L198.28061875,39.161249999999995L198.5001454861111,39.161249999999995L198.93338368055555,40.37812500000001L199.13982604166668,36.506249999999994L199.49165034722225,38.386875L199.8158520833333,45.02437499999999L199.85074375000002,38.608125L200.33631944444443,39.49312499999999L200.66342881944445,37.16999999999999L200.7768267361111,38.386875L200.89603993055556,39.49312499999999L201.28711736111111,39.93562499999999L201.44849131944443,39.38249999999999L202.56357083333333,35.28937500000001L202.86305763888888,41.1525L202.90667222222223,44.360625L203.09421493055555,36.94874999999999L203.553621875,38.94L203.89672326388887,38.608125L204.20347916666665,39.271874999999994L204.45208229166667,44.581875L204.76319965277779,45.46687499999999L204.83007534722222,39.38249999999999L204.96091909722222,36.94874999999999L205.18189965277776,45.24562499999999L205.3636270833333,39.38249999999999L205.751796875,39.93562499999999L205.77941944444444,39.161249999999995L206.27807951388888,45.90937500000001L206.43218437500002,38.71875L206.66043402777777,39.93562499999999L207.11984097222222,37.83375000000001L207.55889444444443,36.94874999999999L207.66793090277778,39.271874999999994L207.8525659722222,44.692499999999995L208.20439027777778,37.391250000000014L208.525684375,35.953125L208.55912222222221,38.94L208.69141979166668,45.35624999999999L208.8687857638889,39.050625L209.17844930555555,39.161249999999995L209.52155069444444,39.271874999999994L209.56661909722223,45.24562499999999L209.88791319444442,36.395624999999995L210.0332951388889,40.156875000000014L210.043471875,39.050625L210.67733715277777,39.49312499999999L210.86633368055556,38.829375L210.93320937500002,39.60374999999999L210.9433861111111,38.4975L211.02189236111113,37.61250000000001L211.34318645833332,39.050625L211.97414409722222,44.360625L212.65307777777778,39.93562499999999L212.79409826388888,37.391250000000014L213.11539236111113,40.156875000000014L213.30002743055556,32.855625L213.340734375,37.280624999999986L213.4512246527778,44.803124999999994L213.5893375,37.61250000000001L213.680928125,39.49312499999999L214.2115722222222,44.692499999999995L214.36567708333334,40.37812500000001L215.00099618055555,39.49312499999999L215.07514097222224,38.4975L215.21470763888888,38.94L215.32229027777777,45.02437499999999L215.57961631944445,37.16999999999999L215.87183402777777,44.692499999999995L215.90091041666665,39.050625L216.32251805555555,39.161249999999995L216.46499236111111,44.692499999999995L216.55512916666666,38.386875L216.76157152777776,44.803124999999994L216.81390902777778,38.05500000000001L216.87933090277778,38.829375L217.37944479166666,39.271874999999994L217.44341284722222,39.161249999999995L217.45795104166666,38.94L217.73272291666666,36.94874999999999L218.26045937499998,39.161249999999995L218.3680420138889,39.71437499999999L218.57303055555556,38.71875L218.6428138888889,38.94L219.18799618055556,38.386875L219.49184444444444,44.803124999999994L219.52237465277778,39.161249999999995L219.61541909722223,38.94L219.78406215277778,39.49312499999999L219.7942388888889,36.94874999999999L219.99486597222221,39.38249999999999L220.28272222222222,39.161249999999995L220.32924444444444,36.506249999999994L220.62146215277778,45.02437499999999L220.82354305555555,45.24562499999999L221.3251107638889,45.24562499999999L221.57516770833334,39.38249999999999L222.185771875,38.829375L222.98101111111112,39.161249999999995L223.05370208333335,38.05500000000001L223.20926076388886,39.161249999999995L223.2194375,39.71437499999999L223.42442604166666,44.360625L223.9681545138889,45.35624999999999L224.39121597222223,45.24562499999999L224.7953777777778,37.280624999999986L225.01345069444446,39.161249999999995L225.2794996527778,38.94L226.22302847222224,39.161249999999995L227.0604284722222,37.391250000000014L227.33083888888888,37.280624999999986L227.8832902777778,36.72749999999999L227.91382048611112,37.391250000000014L228.12607812500002,39.161249999999995L228.30925937499998,39.60374999999999L228.7090597222222,40.37812500000001L228.780296875,37.50187500000001L229.1408440972222,45.24562499999999L229.26587256944444,37.05937499999999L229.48539930555555,39.161249999999995L229.49412222222222,39.49312499999999L229.75726354166667,38.386875L230.07274236111112,39.49312499999999L230.07710381944446,38.4975L230.43328958333333,36.174375L230.44346631944444,39.71437499999999L230.51761111111114,38.829375L230.76766805555556,38.94L230.98283333333333,45.02437499999999L231.4655013888889,39.271874999999994L231.73300416666666,39.271874999999994L232.3029013888889,39.161249999999995L232.3843152777778,37.05937499999999L232.44973715277777,39.271874999999994L232.5064361111111,39.161249999999995L232.59366527777777,40.26750000000001L232.86552951388887,38.94L232.92513611111113,45.24562499999999L233.2100847222222,37.05937499999999L233.35837430555554,37.50187500000001L233.700021875,39.93562499999999L233.8962875,37.391250000000014L234.8281857638889,39.271874999999994L235.11022673611112,39.82499999999999L235.36900659722224,39.161249999999995L235.38645243055558,38.386875L235.58853333333334,44.803124999999994L235.71356180555557,38.94L235.8400440972222,40.37812500000001L236.0624784722222,38.94L236.26019791666667,38.4975L236.3721420138889,38.71875L236.53496979166667,37.391250000000014L236.54078506944444,38.71875L236.7326892361111,39.271874999999994L236.87807118055554,37.391250000000014L237.04235277777778,45.02437499999999L237.3607392361111,45.46687499999999L237.40726145833332,37.391250000000014L237.78816215277777,36.72749999999999L238.00623506944444,39.38249999999999L238.2112236111111,39.271874999999994L238.39295104166666,38.829375L238.7302371527778,39.49312499999999L239.169290625,38.94L239.79879444444444,39.161249999999995L240.477728125,39.60374999999999L240.67108611111112,40.156875000000014L241.14066979166665,38.608125L241.26715208333334,39.161249999999995L241.367465625,38.4975L241.57100034722222,38.386875L241.7236513888889,45.02437499999999L241.86321805555556,39.71437499999999L242.14380520833333,39.050625L242.2630184027778,36.83812499999999L242.29064097222223,38.94L242.41566944444446,40.046249999999986L242.91578333333334,37.61250000000001L243.11931805555557,39.38249999999999L243.22399305555555,39.161249999999995L243.42316631944442,39.050625L243.6412392361111,38.94L243.77644444444445,39.38249999999999L243.88838854166667,40.156875000000014L243.97707152777778,38.829375L244.22422083333333,36.506249999999994L244.50626180555554,45.24562499999999L244.57749895833334,45.02437499999999L245.09360486111112,45.24562499999999L245.12995034722223,36.94874999999999L245.42507569444444,45.24562499999999L245.55882708333334,45.24562499999999L245.75073125,38.386875L246.43257256944446,39.050625L246.47764097222222,45.35624999999999L246.50235590277777,36.72749999999999L247.1144138888889,39.161249999999995L247.40808541666667,37.61250000000001L247.48223020833333,38.829375L248.09719583333333,39.050625L248.10591875,38.94L248.32835312499998,38.386875L248.47955034722222,38.05500000000001L248.64092430555556,39.38249999999999L249.06398576388887,38.608125L249.2762434027778,39.161249999999995L249.77926493055554,37.391250000000014L250.160165625,39.161249999999995L250.4509295138889,39.161249999999995L250.74023958333333,37.391250000000014L250.90742881944445,36.285L250.93650520833333,38.94L251.14440138888887,38.829375L251.29414479166667,38.608125L251.7666361111111,38.165625000000006L251.92655625,37.391250000000014L252.37869409722222,39.60374999999999L252.803209375,36.61687499999999L252.84682395833332,39.161249999999995L253.06925833333332,38.94L253.34403020833332,38.94L253.61153298611111,45.24562499999999L253.8048909722222,45.24562499999999L254.12327743055556,37.83375000000001L254.1276388888889,38.94L254.22940625,39.050625L254.23231388888888,38.829375L254.23376770833335,39.271874999999994L254.2613902777778,36.94874999999999L254.26575173611113,39.050625L254.27883611111113,38.829375L254.29773576388888,39.38249999999999L254.31372777777779,39.38249999999999L254.31808923611112,37.16999999999999L254.33262743055553,38.94L254.35588854166667,37.61250000000001L254.36751909722224,39.161249999999995" style="fill: none;" fill="none"></path></g></g></g></g></g></g><g transform="translate(68, 177)" clip-path="url(#clip_1)"><clipPath id="clip_1"><rect width="261" height="23"></rect></clipPath><g><g><line x1="0" y1="0" x2="0" y2="5" style="visibility: inherit;" fill="rgb(0, 0, 0)" stroke="rgb(204, 204, 204)" stroke-width="1px"></line><line x1="29.076388888888886" y1="0" x2="29.076388888888886" y2="5" style="visibility: inherit;" fill="rgb(0, 0, 0)" stroke="rgb(204, 204, 204)" stroke-width="1px"></line><line x1="58.15277777777777" y1="0" x2="58.15277777777777" y2="5" style="visibility: inherit;" fill="rgb(0, 0, 0)" stroke="rgb(204, 204, 204)" stroke-width="1px"></line><line x1="87.22916666666666" y1="0" x2="87.22916666666666" y2="5" style="visibility: inherit;" fill="rgb(0, 0, 0)" stroke="rgb(204, 204, 204)" stroke-width="1px"></line><line x1="116.30555555555554" y1="0" x2="116.30555555555554" y2="5" style="visibility: inherit;" fill="rgb(0, 0, 0)" stroke="rgb(204, 204, 204)" stroke-width="1px"></line><line x1="145.38194444444446" y1="0" x2="145.38194444444446" y2="5" style="visibility: inherit;" fill="rgb(0, 0, 0)" stroke="rgb(204, 204, 204)" stroke-width="1px"></line><line x1="174.45833333333331" y1="0" x2="174.45833333333331" y2="5" style="visibility: inherit;" fill="rgb(0, 0, 0)" stroke="rgb(204, 204, 204)" stroke-width="1px"></line><line x1="203.53472222222223" y1="0" x2="203.53472222222223" y2="5" style="visibility: inherit;" fill="rgb(0, 0, 0)" stroke="rgb(204, 204, 204)" stroke-width="1px"></line><line x1="232.6111111111111" y1="0" x2="232.6111111111111" y2="5" style="visibility: inherit;" fill="rgb(0, 0, 0)" stroke="rgb(204, 204, 204)" stroke-width="1px"></line><line x1="261.6875" y1="0" x2="261.6875" y2="5" style="visibility: inherit;" fill="rgb(0, 0, 0)" stroke="rgb(204, 204, 204)" stroke-width="1px"></line></g><g transform="translate(0, 8)"><text x="0" y="0" dx="0em" dy="0.95em" style="text-anchor: middle; visibility: hidden; font-family: &quot;Helvetica Neue&quot;, sans-serif; font-size: 12px; font-weight: 200;" fill="rgb(50, 49, 63)" stroke="none" stroke-width="1px">-20k</text><text x="29.076388888888886" y="0" dx="0em" dy="0.95em" style="text-anchor: middle; visibility: inherit; font-family: &quot;Helvetica Neue&quot;, sans-serif; font-size: 12px; font-weight: 200;" fill="rgb(50, 49, 63)" stroke="none" stroke-width="1px">0</text><text x="58.15277777777777" y="0" dx="0em" dy="0.95em" style="text-anchor: middle; visibility: hidden; font-family: &quot;Helvetica Neue&quot;, sans-serif; font-size: 12px; font-weight: 200;" fill="rgb(50, 49, 63)" stroke="none" stroke-width="1px">20k</text><text x="87.22916666666666" y="0" dx="0em" dy="0.95em" style="text-anchor: middle; visibility: inherit; font-family: &quot;Helvetica Neue&quot;, sans-serif; font-size: 12px; font-weight: 200;" fill="rgb(50, 49, 63)" stroke="none" stroke-width="1px">40k</text><text x="116.30555555555554" y="0" dx="0em" dy="0.95em" style="text-anchor: middle; visibility: hidden; font-family: &quot;Helvetica Neue&quot;, sans-serif; font-size: 12px; font-weight: 200;" fill="rgb(50, 49, 63)" stroke="none" stroke-width="1px">60k</text><text x="145.38194444444446" y="0" dx="0em" dy="0.95em" style="text-anchor: middle; visibility: inherit; font-family: &quot;Helvetica Neue&quot;, sans-serif; font-size: 12px; font-weight: 200;" fill="rgb(50, 49, 63)" stroke="none" stroke-width="1px">80k</text><text x="174.45833333333331" y="0" dx="0em" dy="0.95em" style="text-anchor: middle; visibility: hidden; font-family: &quot;Helvetica Neue&quot;, sans-serif; font-size: 12px; font-weight: 200;" fill="rgb(50, 49, 63)" stroke="none" stroke-width="1px">100k</text><text x="203.53472222222223" y="0" dx="0em" dy="0.95em" style="text-anchor: middle; visibility: inherit; font-family: &quot;Helvetica Neue&quot;, sans-serif; font-size: 12px; font-weight: 200;" fill="rgb(50, 49, 63)" stroke="none" stroke-width="1px">120k</text><text x="232.6111111111111" y="0" dx="0em" dy="0.95em" style="text-anchor: middle; visibility: hidden; font-family: &quot;Helvetica Neue&quot;, sans-serif; font-size: 12px; font-weight: 200;" fill="rgb(50, 49, 63)" stroke="none" stroke-width="1px">140k</text><text x="261.6875" y="0" dx="0em" dy="0.95em" style="text-anchor: middle; visibility: hidden; font-family: &quot;Helvetica Neue&quot;, sans-serif; font-size: 12px; font-weight: 200;" fill="rgb(50, 49, 63)" stroke="none" stroke-width="1px">160k</text></g><line x1="0" y1="0" x2="261.6875" y2="0" fill="rgb(0, 0, 0)" stroke="rgb(204, 204, 204)" stroke-width="1px"></line></g></g></g></g></svg>