<svg viewBox="0 0 330 200" xmlns="http://www.w3.org/2000/svg"><g><g><g><g><g><line x1="68.3125" y1="177" x2="63.3125" y2="177" style="visibility: inherit;" fill="rgb(0, 0, 0)" stroke="rgb(204, 204, 204)" stroke-width="1px"></line><line x1="68.3125" y1="163.3846153846154" x2="63.3125" y2="163.3846153846154" style="visibility: inherit;" fill="rgb(0, 0, 0)" stroke="rgb(204, 204, 204)" stroke-width="1px"></line><line x1="68.3125" y1="149.76923076923077" x2="63.3125" y2="149.76923076923077" style="visibility: inherit;" fill="rgb(0, 0, 0)" stroke="rgb(204, 204, 204)" stroke-width="1px"></line><line x1="68.3125" y1="136.15384615384616" x2="63.3125" y2="136.15384615384616" style="visibility: inherit;" fill="rgb(0, 0, 0)" stroke="rgb(204, 204, 204)" stroke-width="1px"></line><line x1="68.3125" y1="122.53846153846153" x2="63.3125" y2="122.53846153846153" style="visibility: inherit;" fill="rgb(0, 0, 0)" stroke="rgb(204, 204, 204)" stroke-width="1px"></line><line x1="68.3125" y1="108.92307692307692" x2="63.3125" y2="108.92307692307692" style="visibility: inherit;" fill="rgb(0, 0, 0)" stroke="rgb(204, 204, 204)" stroke-width="1px"></line><line x1="68.3125" y1="95.3076923076923" x2="63.3125" y2="95.3076923076923" style="visibility: inherit;" fill="rgb(0, 0, 0)" stroke="rgb(204, 204, 204)" stroke-width="1px"></line><line x1="68.3125" y1="81.6923076923077" x2="63.3125" y2="81.6923076923077" style="visibility: inherit;" fill="rgb(0, 0, 0)" stroke="rgb(204, 204, 204)" stroke-width="1px"></line><line x1="68.3125" y1="68.07692307692307" x2="63.3125" y2="68.07692307692307" style="visibility: inherit;" fill="rgb(0, 0, 0)" stroke="rgb(204, 204, 204)" stroke-width="1px"></line><line x1="68.3125" y1="54.46153846153847" x2="63.3125" y2="54.46153846153847" style="visibility: inherit;" fill="rgb(0, 0, 0)" stroke="rgb(204, 204, 204)" stroke-width="1px"></line><line x1="68.3125" y1="40.84615384615384" x2="63.3125" y2="40.84615384615384" style="visibility: inherit;" fill="rgb(0, 0, 0)" stroke="rgb(204, 204, 204)" stroke-width="1px"></line><line x1="68.3125" y1="27.230769230769226" x2="63.3125" y2="27.230769230769226" style="visibility: inherit;" fill="rgb(0, 0, 0)" stroke="rgb(204, 204, 204)" stroke-width="1px"></line><line x1="68.3125" y1="13.615384615384613" x2="63.3125" y2="13.615384615384613" style="visibility: inherit;" fill="rgb(0, 0, 0)" stroke="rgb(204, 204, 204)" stroke-width="1px"></line><line x1="68.3125" y1="0" x2="63.3125" y2="0" style="visibility: inherit;" fill="rgb(0, 0, 0)" stroke="rgb(204, 204, 204)" stroke-width="1px"></line></g><g transform="translate(58.3125, 0)"><text x="0" y="177" dx="0em" dy="0.3em" style="text-anchor: end; visibility: hidden; font-family: &quot;Helvetica Neue&quot;, sans-serif; font-size: 12px; font-weight: 200;" fill="rgb(50, 49, 63)" stroke="none" stroke-width="1px">-5e+4</text><text x="0" y="163.3846153846154" dx="0em" dy="0.3em" style="text-anchor: end; visibility: inherit; font-family: &quot;Helvetica Neue&quot;, sans-serif; font-size: 12px; font-weight: 200;" fill="rgb(50, 49, 63)" stroke="none" stroke-width="1px">0</text><text x="0" y="149.76923076923077" dx="0em" dy="0.3em" style="text-anchor: end; visibility: hidden; font-family: &quot;Helvetica Neue&quot;, sans-serif; font-size: 12px; font-weight: 200;" fill="rgb(50, 49, 63)" stroke="none" stroke-width="1px">5e+4</text><text x="0" y="136.15384615384616" dx="0em" dy="0.3em" style="text-anchor: end; visibility: inherit; font-family: &quot;Helvetica Neue&quot;, sans-serif; font-size: 12px; font-weight: 200;" fill="rgb(50, 49, 63)" stroke="none" stroke-width="1px">1e+5</text><text x="0" y="122.53846153846153" dx="0em" dy="0.3em" style="text-anchor: end; visibility: hidden; font-family: &quot;Helvetica Neue&quot;, sans-serif; font-size: 12px; font-weight: 200;" fill="rgb(50, 49, 63)" stroke="none" stroke-width="1px">1.5e+5</text><text x="0" y="108.92307692307692" dx="0em" dy="0.3em" style="text-anchor: end; visibility: inherit; font-family: &quot;Helvetica Neue&quot;, sans-serif; font-size: 12px; font-weight: 200;" fill="rgb(50, 49, 63)" stroke="none" stroke-width="1px">2e+5</text><text x="0" y="95.3076923076923" dx="0em" dy="0.3em" style="text-anchor: end; visibility: hidden; font-family: &quot;Helvetica Neue&quot;, sans-serif; font-size: 12px; font-weight: 200;" fill="rgb(50, 49, 63)" stroke="none" stroke-width="1px">2.5e+5</text><text x="0" y="81.6923076923077" dx="0em" dy="0.3em" style="text-anchor: end; visibility: inherit; font-family: &quot;Helvetica Neue&quot;, sans-serif; font-size: 12px; font-weight: 200;" fill="rgb(50, 49, 63)" stroke="none" stroke-width="1px">3e+5</text><text x="0" y="68.07692307692307" dx="0em" dy="0.3em" style="text-anchor: end; visibility: hidden; font-family: &quot;Helvetica Neue&quot;, sans-serif; font-size: 12px; font-weight: 200;" fill="rgb(50, 49, 63)" stroke="none" stroke-width="1px">3.5e+5</text><text x="0" y="54.46153846153847" dx="0em" dy="0.3em" style="text-anchor: end; visibility: inherit; font-family: &quot;Helvetica Neue&quot;, sans-serif; font-size: 12px; font-weight: 200;" fill="rgb(50, 49, 63)" stroke="none" stroke-width="1px">4e+5</text><text x="0" y="40.84615384615384" dx="0em" dy="0.3em" style="text-anchor: end; visibility: hidden; font-family: &quot;Helvetica Neue&quot;, sans-serif; font-size: 12px; font-weight: 200;" fill="rgb(50, 49, 63)" stroke="none" stroke-width="1px">4.5e+5</text><text x="0" y="27.230769230769226" dx="0em" dy="0.3em" style="text-anchor: end; visibility: inherit; font-family: &quot;Helvetica Neue&quot;, sans-serif; font-size: 12px; font-weight: 200;" fill="rgb(50, 49, 63)" stroke="none" stroke-width="1px">5e+5</text><text x="0" y="13.615384615384613" dx="0em" dy="0.3em" style="text-anchor: end; visibility: hidden; font-family: &quot;Helvetica Neue&quot;, sans-serif; font-size: 12px; font-weight: 200;" fill="rgb(50, 49, 63)" stroke="none" stroke-width="1px">5.5e+5</text><text x="0" y="0" dx="0em" dy="0.3em" style="text-anchor: end; visibility: hidden; font-family: &quot;Helvetica Neue&quot;, sans-serif; font-size: 12px; font-weight: 200;" fill="rgb(50, 49, 63)" stroke="none" stroke-width="1px">6e+5</text></g><line x1="68.3125" y1="0" x2="68.3125" y2="177" fill="rgb(0, 0, 0)" stroke="rgb(204, 204, 204)" stroke-width="1px"></line></g></g><g transform="translate(68, 0)" clip-path="url(#clip_0)"><clipPath id="clip_0"><rect width="261" height="177"></rect></clipPath><g><g><g><line x1="0" y1="0" x2="0" y2="177" fill="rgb(0, 0, 0)" stroke="rgb(60, 60, 60)" stroke-width="1px" opacity="0.25"></line><line x1="29.076388888888886" y1="0" x2="29.076388888888886" y2="177" fill="rgb(0, 0, 0)" stroke="rgb(60, 60, 60)" stroke-width="1px" opacity="0.25"></line><line x1="58.15277777777777" y1="0" x2="58.15277777777777" y2="177" fill="rgb(0, 0, 0)" stroke="rgb(60, 60, 60)" stroke-width="1px" opacity="0.25"></line><line x1="87.22916666666666" y1="0" x2="87.22916666666666" y2="177" fill="rgb(0, 0, 0)" stroke="rgb(60, 60, 60)" stroke-width="1px" opacity="0.25"></line><line x1="116.30555555555554" y1="0" x2="116.30555555555554" y2="177" fill="rgb(0, 0, 0)" stroke="rgb(60, 60, 60)" stroke-width="1px" opacity="0.25"></line><line x1="145.38194444444446" y1="0" x2="145.38194444444446" y2="177" fill="rgb(0, 0, 0)" stroke="rgb(60, 60, 60)" stroke-width="1px" opacity="0.25"></line><line x1="174.45833333333331" y1="0" x2="174.45833333333331" y2="177" fill="rgb(0, 0, 0)" stroke="rgb(60, 60, 60)" stroke-width="1px" opacity="0.25"></line><line x1="203.53472222222223" y1="0" x2="203.53472222222223" y2="177" fill="rgb(0, 0, 0)" stroke="rgb(60, 60, 60)" stroke-width="1px" opacity="0.25"></line><line x1="232.6111111111111" y1="0" x2="232.6111111111111" y2="177" fill="rgb(0, 0, 0)" stroke="rgb(60, 60, 60)" stroke-width="1px" opacity="0.25"></line><line x1="261.6875" y1="0" x2="261.6875" y2="177" fill="rgb(0, 0, 0)" stroke="rgb(60, 60, 60)" stroke-width="1px" opacity="0.25"></line></g><g><line x1="0" y1="177" x2="261.6875" y2="177" fill="rgb(0, 0, 0)" stroke="rgb(60, 60, 60)" stroke-width="1px" opacity="0.25"></line><line x1="0" y1="163.3846153846154" x2="261.6875" y2="163.3846153846154" fill="rgb(0, 0, 0)" stroke="rgb(60, 60, 60)" stroke-width="1px" opacity="0.25"></line><line x1="0" y1="149.76923076923077" x2="261.6875" y2="149.76923076923077" fill="rgb(0, 0, 0)" stroke="rgb(60, 60, 60)" stroke-width="1px" opacity="0.25"></line><line x1="0" y1="136.15384615384616" x2="261.6875" y2="136.15384615384616" fill="rgb(0, 0, 0)" stroke="rgb(60, 60, 60)" stroke-width="1px" opacity="0.25"></line><line x1="0" y1="122.53846153846153" x2="261.6875" y2="122.53846153846153" fill="rgb(0, 0, 0)" stroke="rgb(60, 60, 60)" stroke-width="1px" opacity="0.25"></line><line x1="0" y1="108.92307692307692" x2="261.6875" y2="108.92307692307692" fill="rgb(0, 0, 0)" stroke="rgb(60, 60, 60)" stroke-width="1px" opacity="0.25"></line><line x1="0" y1="95.3076923076923" x2="261.6875" y2="95.3076923076923" fill="rgb(0, 0, 0)" stroke="rgb(60, 60, 60)" stroke-width="1px" opacity="0.25"></line><line x1="0" y1="81.6923076923077" x2="261.6875" y2="81.6923076923077" fill="rgb(0, 0, 0)" stroke="rgb(60, 60, 60)" stroke-width="1px" opacity="0.25"></line><line x1="0" y1="68.07692307692307" x2="261.6875" y2="68.07692307692307" fill="rgb(0, 0, 0)" stroke="rgb(60, 60, 60)" stroke-width="1px" opacity="0.25"></line><line x1="0" y1="54.46153846153847" x2="261.6875" y2="54.46153846153847" fill="rgb(0, 0, 0)" stroke="rgb(60, 60, 60)" stroke-width="1px" opacity="0.25"></line><line x1="0" y1="40.84615384615384" x2="261.6875" y2="40.84615384615384" fill="rgb(0, 0, 0)" stroke="rgb(60, 60, 60)" stroke-width="1px" opacity="0.25"></line><line x1="0" y1="27.230769230769226" x2="261.6875" y2="27.230769230769226" fill="rgb(0, 0, 0)" stroke="rgb(60, 60, 60)" stroke-width="1px" opacity="0.25"></line><line x1="0" y1="13.615384615384613" x2="261.6875" y2="13.615384615384613" fill="rgb(0, 0, 0)" stroke="rgb(60, 60, 60)" stroke-width="1px" opacity="0.25"></line><line x1="0" y1="0" x2="261.6875" y2="0" fill="rgb(0, 0, 0)" stroke="rgb(60, 60, 60)" stroke-width="1px" opacity="0.25"></line></g></g></g><g><g><line x1="0" y1="163.3846153846154" x2="261.6875" y2="163.3846153846154" fill="rgb(0, 0, 0)" stroke="rgb(153, 153, 153)" stroke-width="1.5px"></line></g></g><g><g><line x1="29.076388888888886" y1="0" x2="29.076388888888886" y2="177" fill="rgb(0, 0, 0)" stroke="rgb(153, 153, 153)" stroke-width="1.5px"></line></g></g><g><g><g><g><g><path stroke="rgb(255, 112, 67)" stroke-width="2px" d="M29.274108333333334,163.0632923076923L29.28283125,163.0030979757085L29.295915625,162.99114584161225L29.297369444444445,163.04696493166617L29.58086423611111,163.06957085823018L29.592494791666667,163.08799032404917L29.602671527777776,163.07072919170957L29.611394444444443,163.06559840733422L29.621571180555556,163.05810952963142L29.64628611111111,163.06475845047947L29.688446875,163.0708942327784L29.890527777777777,163.07211174895227L29.891981597222223,163.07677106302592L29.90361215277778,163.0926774412388L29.951588194444447,163.08966286972753L29.95594965277778,163.0677083695479L29.97921076388889,163.04168715875852L29.98357222222222,163.03974365673167L30.014102430555557,163.0424663122108L30.19146840277778,163.05041707768873L30.213275694444444,163.053697373494L30.236536805555556,163.05596988833176L30.259797916666667,163.05079755578905L30.272882291666665,163.05807356630413L30.28015138888889,163.0609827518245L30.28451284722222,163.06530529837596L30.293235763888887,163.0679827705324L30.323765972222223,163.06576374596926L30.35284236111111,163.05407367716373L30.495316666666668,163.06242976443465L30.521485416666668,163.068747835299L30.54183888888889,163.07889851716698L30.556377083333334,163.07560218294014L30.573822916666668,163.07321558662727L30.576730555555557,163.06046722432404L30.58254583333333,163.0663279185686L30.621798958333336,163.06935339297527L30.68576701388889,163.07428340109928L30.69448993055556,163.0759344847643L30.78317291666667,163.09012930987467L30.82387986111111,163.08685746965324L30.884940277777776,163.07234567228124L30.906747569444445,163.07143047432302L30.91110902777778,163.0618095099208L30.948908333333335,163.0460261872791L30.961992708333334,163.01757546800943L30.99397673611111,163.02217970230495L31.011422569444445,163.02248056947454L31.017237847222223,163.02001222390516L31.079752083333336,163.02600496367134L31.165527430555557,163.02646815422776L31.20914201388889,163.03727568624257L31.230949305555555,163.03168712080722L31.24839513888889,163.03759067866162L31.283286805555555,163.02924313017272L31.28764826388889,163.02938073249976L31.305094097222224,163.038785843174L31.348708680555553,163.04233359118484L31.370515972222222,163.0373394912255L31.377785069444446,163.04976016988275L31.465014236111113,163.0609345329878L31.53334375,163.06498851904487L31.547881944444445,163.0653640051888L31.574050694444445,163.07715227248542L31.610396180555554,163.06867728305403L31.62784201388889,163.06432231881314L31.680179513888888,163.06967006796143L31.681633333333334,163.08211268620252L31.707802083333334,163.0873142696867L31.739786111111112,163.0827307400065L31.773223958333336,163.06716273303562L31.816838541666666,163.05860211497196L31.825561458333333,163.06179566990602L31.866268402777777,163.06357991333797L31.88080659722222,163.06682004389208L31.90988298611111,163.07354951111495L31.96803576388889,163.08396383492533L32.03345763888889,163.08679898536488L32.06834930555556,163.08281350397039L32.097425694444446,163.06887680106684L32.14540173611111,163.0710418543605L32.16575520833333,163.06481964473826L32.178839583333335,163.06412218456603L32.21663888888889,163.06403918498143L32.24135381944444,163.0612410593516L32.279153125,163.06253556525522L32.34602881944444,163.06805797041253L32.35329791666667,163.06976002575067L32.41435833333333,163.0674792147397L32.436165625,163.06651583526266L32.47832638888889,163.0454966568235L32.48704930555556,163.03148151097085L32.49577222222222,163.0395645779838L32.57137083333333,163.04683925300415L32.58445520833333,163.0435828735331L32.662961458333335,163.04391998444268L32.68186111111111,163.02679505435262L32.750190625,163.0195522344888L32.78944375,162.99723942945266L32.827243055555556,162.9831489583986L32.85341180555555,162.9982436541706L32.87085763888889,163.0085610491911L32.87521909722222,162.99115999194615L32.953725347222225,162.96950823081235L32.972625,162.9761636659627L32.99879375,162.97126107631624L33.096199652777784,162.96739338108696L33.13690659722222,162.9502969244237L33.15144479166667,162.94689181232587L33.183428819444444,162.93347942995294L33.21832048611111,162.94646082593005L33.31718020833333,162.85956793764444L33.33607986111111,162.84508489225084L33.34480277777777,162.83640711952694L33.417493750000006,162.8340433177241L33.48000798611111,162.82973742629707L33.490184722222224,162.81823747887998L33.504722916666665,162.81061062366274L33.52216875,162.80919263313172L33.638474305555555,162.81172876262372L33.66028159722222,162.82163591515473L33.70244236111111,162.83055234696187L33.706803819444445,162.8135247644884L33.71261909722222,162.82107384249537L33.780948611111114,162.8147972155081L33.84200902777778,162.81241595140915L33.868177777777774,162.79338971149684L33.93796111111111,162.75829376848392L33.95686076388889,162.7130920273924L34.04408993055556,162.72414899094912L34.078981597222224,162.70578022708597L34.08334305555555,162.70722066722956L34.09206597222222,162.72757861721703L34.094973611111115,162.72792844806148L34.17493368055556,162.71190482337087L34.23163263888888,162.72525896440933L34.24907847222222,162.70351151779482L34.267978125000006,162.71770498827942L34.36683784722222,162.65368830767977L34.37992222222223,162.6810333338013L34.424990625,162.6931176969988L34.443890277777776,162.69691362081372L34.47442048611111,162.7014191830988L34.49622777777778,162.71200957520915L34.50204305555555,162.72753169820976L34.58636458333333,162.71536006431077L34.58781840277778,162.72891329119395L34.683770486111115,162.71224657464248L34.71430069444445,162.72393268818647L34.76809201388889,162.67617633590731L34.779722569444445,162.68874639617292L34.786991666666665,162.66574867708252L34.85822881944444,162.68807535006388L34.87276701388889,162.67004627497667L34.95999618055555,162.66525703170726L34.96290381944445,162.64134055756585L34.980349652777775,162.65576034890725L35.03850243055556,162.68507662343637L35.04286388888889,162.6744274220664L35.16353090277778,162.6566739097816L35.17661527777778,162.65322190327055L35.182430555555555,162.65011509743874L35.25948298611111,162.66365743431993L35.314728124999995,162.6605963061767L35.32490486111111,162.67145667586513L35.37433472222222,162.6730617775501L35.42667222222222,162.67777406144114L35.43103368055556,162.65369511634074L35.487732638888886,162.65598714321058L35.493547916666664,162.6629515059285L35.51099375,162.6855578941358L35.55606215277778,162.66287902749343L35.643291319444444,162.67296650948185L35.67527534722222,162.68095601246705L35.689813541666666,162.64512194932973L35.76250451388889,162.64827129288616L35.784311805555554,162.63367800963522L35.832287847222226,162.63524867022142L35.83519548611111,162.65899149566005L35.85700277777777,162.63896926905477L35.90061736111111,162.65308157299225L35.993661805555554,162.64781033874516L36.016922916666665,162.64470007408826L36.05617604166667,162.62774083584563L36.08816006944445,162.63589598305825L36.165212499999996,162.58332792305183L36.17248159722222,162.58557666921445L36.182658333333336,162.58160977151385L36.19283506944444,162.61834110213735L36.20010416666667,162.61981160731122L36.23790347222222,162.63747352353533L36.335309375,162.6593600173715L36.40800034722222,162.65836247717135L36.42980763888889,162.66400007561555L36.434169097222224,162.69358160655088L36.531575000000004,162.72074959977115L36.53448263888889,162.72668387056902L36.56210520833333,162.7216770219693L36.589727777777775,162.70192162744917L36.61589652777778,162.707015618554L36.666780208333336,162.65005867204707L36.70021805555556,162.66415126638887L36.76127847222222,162.68173613975904L36.80198541666667,162.67632252578062L36.845600000000005,162.6877887347458L36.92265243055555,162.6801360151145L36.932829166666664,162.62205472127576L36.940098263888885,162.65310771069608L36.950275,162.6576369396277L37.017150694444446,162.66389170720493L37.02005833333333,162.68640407495096L37.044773263888885,162.68270212899358L37.142179166666665,162.68318268532508L37.225046875,162.69178441679395L37.2643,162.69625828280752L37.27883819444445,162.70954322375928L37.320998958333334,162.71333043984535L37.36606736111111,162.7287204727855L37.39514375,162.7322238101227L37.39950520833333,162.71413681372425L37.460565625,162.7201877477369L37.54197951388889,162.71365204988584L37.56087916666667,162.73826838336032L37.617578124999994,162.74081692963983L37.62775486111111,162.73711985206026L37.63211631944444,162.68858940531356L37.70480729166667,162.71135508016775L37.71498402777778,162.72639803369L37.73388368055555,162.71270592262823L37.90834201388889,162.71454302267315L37.917064930555554,162.70475948963636L37.92724166666667,162.66708969451795L37.934510763888895,162.67784534045103L37.98103298611112,162.65920542179015L37.99557118055555,162.66530334114972L38.12350729166667,162.66044377626542L38.13223020833333,162.67839939863916L38.18311388888889,162.63029484339L38.26598159722222,162.63819458982033L38.28051979166666,162.6665443616078L38.297965625,162.69532684852422L38.303780902777774,162.64988647136371L38.32268055555555,162.65909474730435L38.335764930555555,162.6673821956509L38.372110416666665,162.67102859147045L38.48405451388889,162.6704980400157L38.55674548611111,162.66947592832182L38.59309097222223,162.65058372010495L38.63234409722222,162.6629899634791L38.633797916666666,162.62895250559262L38.641067013888886,162.6337187934949L38.71230416666667,162.6516238372224L38.71811944444445,162.6737291458079L38.723934722222225,162.6789193081502L38.796625694444444,162.68903660810443L38.88821631944444,162.68779448575552L38.98852986111111,162.70519349871847L39.004521874999995,162.68599722576965L39.00742951388889,162.66872058011575L39.087389583333334,162.68312544518113L39.12082743055556,162.67811751604762L39.133911805555556,162.68777037982747L39.14408854166667,162.65288872646008L39.24876354166667,162.675956776891L39.344715625000006,162.6912718684327L39.354892361111105,162.69579698928175L39.36506909722222,162.68788805958434L39.381061111111116,162.70146540747206L39.38687638888889,162.7202204051864L39.45229826388889,162.7234845185139L39.47846701388889,162.72587760512405L39.522081597222225,162.72585292153474L39.535165972222224,162.69696609091972L39.57151145833333,162.7237956356739L39.684909375000004,162.74576376441422L39.71398576388889,162.75464277258817L39.737246875000004,162.72178772609857L39.76486944444445,162.70583356887335L39.7765,162.726330211986L39.783769097222226,162.72026949847972L39.841921875,162.72080562555482L39.952412152777775,162.69405737069164L39.96695034722222,162.66072547977632L39.998934375000005,162.66993908564484L40.065810069444446,162.67714210015728L40.070171527777774,162.6879817362954L40.11233229166667,162.67159587035817L40.129778124999994,162.68462397563005L40.13413958333334,162.69362619345165L40.15740069444445,162.7049958817988L40.20246909722222,162.69235475515737L40.324589930555554,162.6913254334878L40.347851041666665,162.65173135167748L40.39437326388889,162.6231766780482L40.41181909722222,162.63124362562797L40.49323298611111,162.6379592630652L40.497594444444445,162.64836025983558L40.51067881944444,162.6522750030828L40.519401736111114,162.60841673354375L40.56883159722222,162.6223165986509L40.624076736111114,162.5901680157089L40.705490624999996,162.5835635218303L40.77818159722222,162.61193024657035L40.78254305555556,162.62057722191332L40.80725798611111,162.65450103818353L40.81307326388889,162.65780170359594L40.87413368055555,162.66077230246714L40.92501736111111,162.59863661068195L40.94246319444444,162.58682833422915L41.035507638888895,162.61595780849854L41.058768750000006,162.61657741226406L41.154720833333336,162.63456274796073L41.17798194444445,162.65565108854926L41.212873611111114,162.62779367200204L41.256488194444444,162.65337122787875L41.26084965277778,162.67257872047549L41.294287499999996,162.64575161765873L41.308825694444444,162.63740107127745L41.39750868055555,162.60265481030356L41.43966944444445,162.62530009850397L41.53707534722222,162.61028085788433L41.57342083333333,162.59676354132668L41.592320486111106,162.62544411027093L41.61122013888889,162.63873046847462L41.622850694444445,162.65068819085792L41.62866597222222,162.6467455256183L41.66937291666667,162.65300020382568L41.699903125,162.6711555680585L41.75950972222223,162.64338154971418L41.843831249999994,162.64779416397354L41.91506840277778,162.6561224398839L41.91652222222222,162.67505481128012L41.95577534722223,162.67575548399824L41.996482291666666,162.6954476279061L42.02410486111111,162.71643824973088L42.02992013888889,162.68849288629627L42.041550694444446,162.6698774438205L42.05754270833334,162.66347123789998L42.13459513888889,162.64027796026383L42.2363625,162.6624286257759L42.24653923611111,162.65186576319832L42.26543888888889,162.67612534072464L42.272707986111115,162.66854972972908L42.34249131944445,162.6862393721408L42.35266805555556,162.7086954349267L42.37011388888889,162.71855819912636L42.43989722222222,162.7307023792137L42.473335069444445,162.69642906436928L42.509680555555555,162.70479538870157L42.62017083333333,162.6894512344468L42.64924722222222,162.6930691879252L42.657970138888885,162.65057765374806L42.666693055555555,162.67442142683478L42.67686979166667,162.65939159184362L42.7597375,162.66710474035156L42.76409895833333,162.65879734323948L42.830974652777776,162.6540437627617L42.87168159722222,162.6639255403317L42.91529618055556,162.68970221706775L42.99234861111111,162.68675968766865L43.009794444444445,162.68737910351717L43.03741701388889,162.70481965470393L43.04177847222222,162.70036538154122L43.060678125,162.6860088433871L43.09702361111111,162.6698202667407L43.20024479166667,162.65525054775892L43.25403611111111,162.62906703144458L43.26712048611111,162.6349110975309L43.31218888888889,162.63962614162395L43.3877875,162.65585121976926L43.434309722222224,162.6410445593308L43.47501666666667,162.60865702647465L43.509908333333335,162.62743440075025L43.53607708333333,162.65577096067523L43.584053125000004,162.66112309537692L43.63784444444444,162.68881386276232L43.66110555555555,162.64620324571686L43.75996527777777,162.63617369037593L43.815210416666666,162.65546709056912L43.81666423611111,162.6526803815122L43.85155590277778,162.65670772797637L43.88644756944444,162.6881077244095L43.898078125000005,162.66844156735317L43.934423611111114,162.64366202600246L44.07253645833333,162.65240351570992L44.07835173611111,162.60853239490814L44.14086597222222,162.58048530926348L44.20483402777778,162.56068908602944L44.219372222222226,162.5706478697342L44.470882986111114,162.34488154429923L44.56538125,162.1634764667924L44.57265034722222,162.169042666267L44.57991944444445,162.01175686117875L44.59300381944445,161.85876271352242L44.72820902777778,161.71943413447786L44.99425798611111,161.59077072103008L45.074218055555555,161.3905582643117L45.08003333333334,161.2866132071113L45.148362847222224,161.1821703479386L45.444942013888884,161.09525177468322L45.45948020833333,161.01539121259952L45.47692604166667,160.9685690144165L45.51181770833333,160.92261672835946L45.65429201388889,160.97438890167734L45.790951041666666,160.891365396125L46.020654513888886,160.77525347189712L46.074445833333336,160.86354658624586L46.122421875,160.76655500454436L46.227096875,160.74897335024377L46.25035798611111,160.72606986137325L46.371024999999996,160.66025364446668L46.42627013888889,160.49209597232772L46.469884722222226,160.38432329817186L46.766463888888886,160.19637712220083L46.818801388888886,160.09857017921152L47.36252986111111,159.80958085359805L47.400329166666666,159.6644043066998L47.71726180555556,159.42754541449136L47.74779201388888,159.27482471919606L47.76669166666667,158.9108160934303L47.7841375,158.5298360225488L47.90480451388889,158.41242472798623L48.26680555555556,158.224517639803L48.397649305555554,157.55871202966884L49.02279166666666,157.01285928824043L49.569427777777776,156.77756105172406L49.58832743055555,156.2624418696286L49.659564583333335,156.08911460574265L49.695910069444444,155.71908622209148L49.76860104166667,155.61479913834387L49.81657708333333,155.4321684552787L50.225100347222224,155.38325930205852L50.28761458333334,155.0898072180065L50.821166319444444,154.76089111159047L50.85024270833333,154.75078969273912L51.58442152777778,154.74224303115753L51.946422569444444,154.45734180496484L52.00312152777778,154.62899839369913L52.10779652777778,154.44637240048306L52.12088090277778,154.7667166988963L52.343315277777776,154.18527579823743L52.45962083333333,153.5361728337983L52.56865729166667,152.8534047811877L52.731485069444446,152.37397814922278L52.97427291666666,152.33461725737743L53.53108576388889,152.4293555316397L54.234734374999995,152.74553690155264L54.340863194444445,152.55465090370507L54.365578125,152.51628427487302L54.38302395833334,152.4997266166165L54.570566666666664,152.87313549341638L54.66506493055555,152.4091634825363L54.91076041666667,151.65665021120572L54.97036701388889,151.44340057470055L55.14337152777778,150.74770667107663L56.25699722222222,150.7756652347382L56.55212256944444,150.66794178818745L58.25018368055556,149.3603106862918L58.277806250000005,148.09575961766262L58.53367847222222,146.26110057897327L58.77355868055556,145.6871566749221L59.56152881944445,144.4048779305068L59.767971180555556,142.87504244514844L61.370080208333334,143.1271351237105L61.41224097222223,141.3324062267241L61.46893993055555,140.44747945020552L62.5433125,140.4652453513388L62.62036493055556,136.48648081620493L64.55249097222222,134.88799273458443L64.58156736111111,131.806793461126L64.72113402777778,131.27644026885955L65.32301527777777,132.20477470351204L65.77224548611112,131.1994756946993L67.91226770833333,130.7919404329217L68.16232465277777,129.5679340819372L68.17686284722222,128.4570699045127L68.46181145833333,125.93345829867683L69.4286013888889,126.70334016111684L70.10753506944445,125.09632306808209L70.22093298611111,125.6503799920431L71.44068750000001,124.70961276206957L73.0791420138889,125.61440533201646L73.14020243055555,124.64510326035327L73.90491145833333,124.38596831893334L74.08373125,122.46389456396308L75.34855416666666,121.65388356910523L75.5651732638889,121.45914136604085L75.70328611111111,120.85743953712908L77.07569166666666,120.61980327572387L77.22543506944444,123.17366602507455L77.59906666666666,123.06058557641325L79.71001249999999,120.04130855723346L79.75217326388888,120.37435000920243L82.81537083333333,118.15578577751295L82.89242326388889,117.45907489206934L83.18027951388889,118.28615817209318L83.34746875,117.28613004719156L84.74313541666666,115.46516011939548L85.61688090277777,111.2627825689944L87.82087118055554,111.31636892747957L88.10581979166666,109.23460588088545L88.46927465277777,107.07400683125846L92.127084375,106.21325230197877L94.00978055555555,101.10343476408856L94.25547604166667,99.77446974921817L98.37269270833333,95.43814892814252L99.05598784722223,90.76101711225135L99.63751562499999,89.72779540102621L100.36151770833334,89.19383124553899L102.04649444444445,84.4238727363697L102.54515451388889,81.30128853965581L103.64714965277777,79.43369199338254L103.90592951388888,81.68443356327505L104.14580972222222,81.68031943771678L104.3246295138889,83.17594287856049L105.394640625,86.6950193599352L111.47742118055555,85.61364357778784L111.53121250000001,85.60165152770135L115.50450104166667,80.8886494518543L115.96390798611112,80.28824604513042L116.57015069444444,79.71030451754045L118.92679201388889,77.67068021963254L119.67550902777778,75.32580296690007L119.87613611111111,71.91487190097929L120.1436388888889,69.82479701857368L121.34158611111111,68.15994193210092L129.94965104166667,64.85018158504467L130.60241597222222,62.02171111884789L131.37730173611112,61.26514923773233L132.99249513888887,58.661751237036015L135.03220381944445,56.546342267178574L136.02952395833336,54.63212650199918L136.68519652777778,53.76002154410695L137.87151319444445,51.8657455435424L137.89477430555556,50.35804791226509L140.14819444444444,49.04360004411548L147.41002256944444,47.806680039703934L147.8766986111111,46.67929203573354L149.0048625,45.86124898600633L150.76398402777778,44.566779472021096L153.36050555555556,43.724169217126644L153.8620732638889,42.97072152618321L156.3277510416667,41.92827091202642L156.35391979166667,41.14909305159301L157.117175,40.58997759258756L157.86879965277777,40.22891829486727L166.0043732638889,39.651263388457465L167.51779930555554,39.1907370496117L168.08042743055555,38.76264796003514L169.2303986111111,38.33488777941625L170.633334375,37.892174386090005L171.47364201388888,37.62008310132714L174.99915416666664,37.21345017580984L175.01950763888888,37.079486696690395L175.70571041666668,36.76939341163674L175.79003194444445,36.66349714739613L184.01138090277777,36.4630797403488L186.45525138888888,36.29468561246779L186.93791944444445,36.02168166660559L187.3217277777778,35.73186426917579L187.86545625,35.624065534565915L189.31200659722222,35.537938981109335L192.41591111111111,35.570982006075326L193.3812472222222,35.47763765162162L194.30151493055556,35.189396963382535L194.6140861111111,34.79001419012121L202.40655833333332,34.75461584803216L203.94324548611112,34.58006810938278L205.10339340277778,34.631562836906056L205.6892826388889,34.50145270706159L206.20684236111111,34.275975128663106L208.61000590277777,34.23479607733526L209.76579236111112,34.250562623447905L212.31724548611112,34.161820207256966L212.63708576388888,34.10754895576201L213.3988871527778,33.814717137108886L220.87006527777777,33.88719619262878L222.87052083333333,33.77324888105821L223.01590277777777,33.752388608336986L223.0391638888889,33.60671897827254L223.93035520833334,33.56003169582988L227.43551388888886,33.61005314163151L228.9082329861111,33.566300135160674L229.81541631944444,33.46810396779844L230.67898506944445,33.506078186403215L232.14298125,33.37959344468595L239.28705,33.342003330986614L240.54169618055556,33.386596844041776L240.96185,33.32488792886838L241.8414107638889,33.32598990521231L241.99406180555556,33.26652937622953L245.62861041666667,33.25004874629886L247.04753819444443,33.18620079474593L248.3777829861111,33.00184225373286L248.77031423611112,33.063568797590335L251.06444131944443,32.76403345629285L251.14294756944446,32.78255318758664L251.14440138888887,32.75837479190491L251.14585520833333,32.705026543483626L251.1473090277778,32.5785885045199L251.1487628472222,32.57698503868326L251.15021666666667,32.54395422712267L251.15167048611113,32.51095880441039L251.15312430555554,32.55696446243087L251.154578125,32.42627109311087L251.15603194444446,32.421382445338224L251.15748576388887,32.520459585419786L251.15893958333334,32.64230593457009L251.16039340277777,32.553183033420794L251.1618472222222,32.46916011469409L251.16330104166667,32.45453641091703L251.1647548611111,32.49747046213298L251.16620868055554,32.597652646688914L251.1676625,32.73955507432768L251.16911631944444,32.66140264381801L251.17057013888888,32.579628533282374L251.17202395833334,32.691745679954124L251.17347777777778,32.810623419650994L251.1749315972222,32.80378876999359L251.17638541666668,32.58904989299424L251.1778392361111,32.52758182677175L251.17929305555555,32.60623595178686L251.18074687499998,32.627464664300504L251.18220069444445,32.733164351716596L251.1836545138889,32.47974022423725L251.18510833333332,32.36984004796736" style="fill: none;" fill="none"></path></g></g></g></g><g opacity="0.2"><g><g><g><path stroke="rgb(255, 112, 67)" stroke-width="2px" d="M29.274108333333334,163.0632923076923L29.28283125,162.94892307692308L29.295915625,162.97070769230768L29.297369444444445,163.1831076923077L29.58086423611111,163.13953846153845L29.592494791666667,163.15587692307693L29.602671527777776,162.99793846153847L29.611394444444443,163.0415076923077L29.621571180555556,163.01972307692307L29.64628611111111,163.1014153846154L29.688446875,163.10686153846154L29.890527777777777,163.07963076923076L29.891981597222223,163.10686153846154L29.90361215277778,163.19944615384617L29.951588194444447,163.06873846153846L29.95594965277778,162.9108L29.97921076388889,162.8508923076923L29.98357222222222,163.02516923076922L30.014102430555557,163.0632923076923L30.19146840277778,163.1123076923077L30.213275694444444,163.07963076923076L30.236536805555556,163.0741846153846L30.259797916666667,163.00883076923077L30.272882291666665,163.11775384615385L30.28015138888889,163.0850769230769L30.28451284722222,163.1014153846154L30.293235763888887,163.0905230769231L30.323765972222223,163.04695384615385L30.35284236111111,162.95436923076923L30.495316666666668,163.1340923076923L30.521485416666668,163.1232L30.54183888888889,163.16676923076923L30.556377083333334,163.04695384615385L30.573822916666668,163.0524L30.576730555555557,162.94892307692308L30.58254583333333,163.11775384615385L30.621798958333336,163.09596923076924L30.68576701388889,163.11775384615385L30.69448993055556,163.0905230769231L30.78317291666667,163.21578461538462L30.82387986111111,163.05784615384616L30.884940277777776,162.94347692307693L30.906747569444445,163.0632923076923L30.91110902777778,162.97615384615384L30.948908333333335,162.90535384615384L30.961992708333334,162.76375384615383L30.99397673611111,163.0632923076923L31.011422569444445,163.02516923076922L31.017237847222223,162.99793846153847L31.079752083333336,163.07963076923076L31.165527430555557,163.03061538461537L31.20914201388889,163.1340923076923L31.230949305555555,162.9816L31.24839513888889,163.0905230769231L31.283286805555555,162.95436923076923L31.28764826388889,163.03061538461537L31.305094097222224,163.1232L31.348708680555553,163.0741846153846L31.370515972222222,162.99249230769232L31.377785069444446,163.16132307692308L31.465014236111113,163.16132307692308L31.53334375,163.1014153846154L31.547881944444445,163.06873846153846L31.574050694444445,163.1831076923077L31.610396180555554,162.99249230769232L31.62784201388889,163.02516923076922L31.680179513888888,163.11775384615385L31.681633333333334,163.194L31.707802083333334,163.1340923076923L31.739786111111112,163.0415076923077L31.773223958333336,162.92713846153845L31.816838541666666,162.9816L31.825561458333333,163.0905230769231L31.866268402777777,163.07963076923076L31.88080659722222,163.09596923076924L31.90988298611111,163.1340923076923L31.96803576388889,163.17766153846154L32.03345763888889,163.1123076923077L32.06834930555556,163.04695384615385L32.097425694444446,162.94347692307693L32.14540173611111,163.0905230769231L32.16575520833333,163.00883076923077L32.178839583333335,163.05784615384616L32.21663888888889,163.0632923076923L32.24135381944444,163.03606153846152L32.279153125,163.0741846153846L32.34602881944444,163.11775384615385L32.35329791666667,163.0850769230769L32.41435833333333,163.04695384615385L32.436165625,163.05784615384616L32.47832638888889,162.85633846153846L32.48704930555556,162.90535384615384L32.49577222222222,163.1123076923077L32.57137083333333,163.1123076923077L32.58445520833333,163.01427692307692L32.662961458333335,163.04695384615385L32.68186111111111,162.8726769230769L32.750190625,162.95436923076923L32.78944375,162.79643076923077L32.827243055555556,162.85633846153846L32.85341180555555,163.1340923076923L32.87085763888889,163.1014153846154L32.87521909722222,162.83455384615385L32.953725347222225,162.77464615384616L32.972625,163.03606153846152L32.99879375,162.92713846153845L33.096199652777784,162.93258461538463L33.13690659722222,162.79643076923077L33.15144479166667,162.91624615384615L33.183428819444444,162.81276923076922L33.21832048611111,163.0632923076923L33.31718020833333,162.07753846153847L33.33607986111111,162.71473846153847L33.34480277777777,162.75830769230768L33.417493750000006,162.81276923076922L33.48000798611111,162.79098461538462L33.490184722222224,162.71473846153847L33.504722916666665,162.74196923076923L33.52216875,162.79643076923077L33.638474305555555,162.83455384615385L33.66028159722222,162.9108L33.70244236111111,162.9108L33.706803819444445,162.66027692307694L33.71261909722222,162.8890153846154L33.780948611111114,162.75830769230768L33.84200902777778,162.79098461538462L33.868177777777774,162.62215384615385L33.93796111111111,162.44243076923078L33.95686076388889,162.30627692307692L34.04408993055556,162.82366153846155L34.078981597222224,162.54046153846153L34.08334305555555,162.72018461538462L34.09206597222222,162.9108L34.094973611111115,162.73107692307693L34.17493368055556,162.5676923076923L34.23163263888888,162.84544615384615L34.24907847222222,162.50778461538462L34.267978125000006,162.84544615384615L34.36683784722222,162.07753846153847L34.37992222222223,162.92713846153845L34.424990625,162.80187692307692L34.443890277777776,162.73107692307693L34.47442048611111,162.74196923076923L34.49622777777778,162.80732307692307L34.50204305555555,162.86723076923076L34.58636458333333,162.60581538461537L34.58781840277778,162.8508923076923L34.683770486111115,162.56224615384616L34.71430069444445,162.8291076923077L34.76809201388889,162.24636923076923L34.779722569444445,162.80187692307692L34.786991666666665,162.45876923076924L34.85822881944444,162.8890153846154L34.87276701388889,162.50778461538462L34.95999618055555,162.62215384615385L34.96290381944445,162.4260923076923L34.980349652777775,162.78553846153847L35.03850243055556,162.94892307692308L35.04286388888889,162.5785846153846L35.16353090277778,162.4968923076923L35.17661527777778,162.62215384615385L35.182430555555555,162.62215384615385L35.25948298611111,162.78553846153847L35.314728124999995,162.63304615384615L35.32490486111111,162.7692L35.37433472222222,162.6875076923077L35.42667222222222,162.72018461538462L35.43103368055556,162.4369846153846L35.487732638888886,162.6766153846154L35.493547916666664,162.72563076923078L35.51099375,162.8890153846154L35.55606215277778,162.45876923076924L35.643291319444444,162.76375384615383L35.67527534722222,162.75286153846153L35.689813541666666,162.32261538461537L35.76250451388889,162.6766153846154L35.784311805555554,162.50233846153847L35.832287847222226,162.6493846153846L35.83519548611111,162.8726769230769L35.85700277777777,162.45876923076924L35.90061736111111,162.7800923076923L35.993661805555554,162.60036923076922L36.016922916666665,162.6167076923077L36.05617604166667,162.4751076923077L36.08816006944445,162.7092923076923L36.165212499999996,162.11021538461537L36.17248159722222,162.60581538461537L36.182658333333336,162.54590769230768L36.19283506944444,162.94892307692308L36.20010416666667,162.63304615384615L36.23790347222222,162.79643076923077L36.335309375,162.85633846153846L36.40800034722222,162.6493846153846L36.42980763888889,162.71473846153847L36.434169097222224,162.95981538461538L36.531575000000004,162.96526153846153L36.53448263888889,162.7800923076923L36.56210520833333,162.6766153846154L36.589727777777775,162.52412307692308L36.61589652777778,162.75286153846153L36.666780208333336,162.13744615384616L36.70021805555556,162.79098461538462L36.76127847222222,162.84L36.80198541666667,162.6276L36.845600000000005,162.79098461538462L36.92265243055555,162.61126153846155L36.932829166666664,162.09932307692307L36.940098263888885,162.93258461538463L36.950275,162.6984L37.017150694444446,162.72018461538462L37.02005833333333,162.8890153846154L37.044773263888885,162.6493846153846L37.142179166666665,162.6875076923077L37.225046875,162.7692L37.2643,162.73652307692308L37.27883819444445,162.8291076923077L37.320998958333334,162.74741538461538L37.36606736111111,162.86723076923076L37.39514375,162.76375384615383L37.39950520833333,162.55135384615386L37.460565625,162.77464615384616L37.54197951388889,162.65483076923076L37.56087916666667,162.95981538461538L37.617578124999994,162.76375384615383L37.62775486111111,162.70384615384614L37.63211631944444,162.25181538461538L37.70480729166667,162.91624615384615L37.71498402777778,162.8617846153846L37.73388368055555,162.58947692307692L37.90834201388889,162.73107692307693L37.917064930555554,162.6167076923077L37.92724166666667,162.32806153846153L37.934510763888895,162.77464615384616L37.98103298611112,162.49144615384614L37.99557118055555,162.72018461538462L38.12350729166667,162.6167076923077L38.13223020833333,162.84L38.18311388888889,162.19735384615385L38.26598159722222,162.7092923076923L38.28051979166666,162.9216923076923L38.297965625,162.95436923076923L38.303780902777774,162.24092307692308L38.32268055555555,162.74196923076923L38.335764930555555,162.74196923076923L38.372110416666665,162.70384615384614L38.48405451388889,162.6657230769231L38.55674548611111,162.66027692307694L38.59309097222223,162.48055384615384L38.63234409722222,162.77464615384616L38.633797916666666,162.32261538461537L38.641067013888886,162.6766153846154L38.71230416666667,162.81276923076922L38.71811944444445,162.8726769230769L38.723934722222225,162.72563076923078L38.796625694444444,162.7800923076923L38.88821631944444,162.6766153846154L38.98852986111111,162.8617846153846L39.004521874999995,162.51323076923077L39.00742951388889,162.51323076923077L39.087389583333334,162.81276923076922L39.12082743055556,162.63304615384615L39.133911805555556,162.77464615384616L39.14408854166667,162.33895384615386L39.24876354166667,162.88356923076924L39.344715625000006,162.8291076923077L39.354892361111105,162.73652307692308L39.36506909722222,162.6167076923077L39.381061111111116,162.82366153846155L39.38687638888889,162.8890153846154L39.45229826388889,162.75286153846153L39.47846701388889,162.74741538461538L39.522081597222225,162.72563076923078L39.535165972222224,162.4369846153846L39.57151145833333,162.96526153846153L39.684909375000004,162.94347692307693L39.71398576388889,162.83455384615385L39.737246875000004,162.4260923076923L39.76486944444445,162.56224615384616L39.7765,162.9108L39.783769097222226,162.6657230769231L39.841921875,162.72563076923078L39.952412152777775,162.45332307692308L39.96695034722222,162.36073846153846L39.998934375000005,162.75286153846153L40.065810069444446,162.74196923076923L40.070171527777774,162.78553846153847L40.11233229166667,162.52412307692308L40.129778124999994,162.80187692307692L40.13413958333334,162.77464615384616L40.15740069444445,162.80732307692307L40.20246909722222,162.5785846153846L40.324589930555554,162.68206153846154L40.347851041666665,162.29538461538462L40.39437326388889,162.3661846153846L40.41181909722222,162.70384615384614L40.49323298611111,162.6984L40.497594444444445,162.74196923076923L40.51067881944444,162.6875076923077L40.519401736111114,162.2136923076923L40.56883159722222,162.74741538461538L40.624076736111114,162.30083076923077L40.705490624999996,162.52412307692308L40.77818159722222,162.86723076923076L40.78254305555556,162.6984L40.80725798611111,162.95981538461538L40.81307326388889,162.6875076923077L40.87413368055555,162.6875076923077L40.92501736111111,162.03941538461538L40.94246319444444,162.48055384615384L41.035507638888895,162.8781230769231L41.058768750000006,162.62215384615385L41.154720833333336,162.79643076923077L41.17798194444445,162.84544615384615L41.212873611111114,162.3770769230769L41.256488194444444,162.88356923076924L41.26084965277778,162.84544615384615L41.294287499999996,162.4043076923077L41.308825694444444,162.56224615384616L41.39750868055555,162.28993846153847L41.43966944444445,162.8291076923077L41.53707534722222,162.4751076923077L41.57342083333333,162.4751076923077L41.592320486111106,162.88356923076924L41.61122013888889,162.75830769230768L41.622850694444445,162.75830769230768L41.62866597222222,162.61126153846155L41.66937291666667,162.7092923076923L41.699903125,162.83455384615385L41.75950972222223,162.3934153846154L41.843831249999994,162.6875076923077L41.91506840277778,162.73107692307693L41.91652222222222,162.84544615384615L41.95577534722223,162.68206153846154L41.996482291666666,162.8726769230769L42.02410486111111,162.90535384615384L42.02992013888889,162.4369846153846L42.041550694444446,162.50233846153847L42.05754270833334,162.60581538461537L42.13459513888889,162.43153846153845L42.2363625,162.8617846153846L42.24653923611111,162.5568L42.26543888888889,162.89446153846154L42.272707986111115,162.60036923076922L42.34249131944445,162.84544615384615L42.35266805555556,162.9108L42.37011388888889,162.80732307692307L42.43989722222222,162.84L42.473335069444445,162.38796923076922L42.509680555555555,162.7800923076923L42.62017083333333,162.55135384615386L42.64924722222222,162.72563076923078L42.657970138888885,162.26815384615384L42.666693055555555,162.8890153846154L42.67686979166667,162.52412307692308L42.7597375,162.73652307692308L42.76409895833333,162.58403076923076L42.830974652777776,162.61126153846155L42.87168159722222,162.75286153846153L42.91529618055556,162.9216923076923L42.99234861111111,162.66027692307694L43.009794444444445,162.69295384615384L43.03741701388889,162.8617846153846L43.04177847222222,162.66027692307694L43.060678125,162.5568L43.09702361111111,162.52412307692308L43.20024479166667,162.52412307692308L43.25403611111111,162.3934153846154L43.26712048611111,162.6875076923077L43.31218888888889,162.68206153846154L43.3877875,162.80187692307692L43.434309722222224,162.50778461538462L43.47501666666667,162.31716923076922L43.509908333333335,162.79643076923077L43.53607708333333,162.9108L43.584053125000004,162.7092923076923L43.63784444444444,162.93803076923078L43.66110555555555,162.26270769230769L43.75996527777777,162.54590769230768L43.815210416666666,162.8291076923077L43.81666423611111,162.6276L43.85155590277778,162.69295384615384L43.88644756944444,162.97070769230768L43.898078125000005,162.49144615384614L43.934423611111114,162.42064615384615L44.07253645833333,162.73107692307693L44.07835173611111,162.2136923076923L44.14086597222222,162.32806153846153L44.20483402777778,162.38252307692306L44.219372222222226,162.66027692307694L44.470882986111114,160.3129846153846L44.56538125,160.53083076923076L44.57265034722222,162.21913846153845L44.57991944444445,160.59618461538463L44.59300381944445,160.48181538461537L44.72820902777778,160.46547692307692L44.99425798611111,160.4328L45.074218055555555,159.58864615384616L45.08003333333334,160.3511076923077L45.148362847222224,160.24218461538462L45.444942013888884,160.3129846153846L45.45948020833333,160.29664615384615L45.47692604166667,160.54716923076924L45.51181770833333,160.50904615384616L45.65429201388889,161.44033846153846L45.790951041666666,160.14415384615384L46.020654513888886,159.73024615384617L46.074445833333336,161.6581846153846L46.122421875,159.89363076923078L46.227096875,160.59073846153845L46.25035798611111,160.51993846153846L46.371024999999996,160.0679076923077L46.42627013888889,158.97867692307693L46.469884722222226,159.41436923076924L46.766463888888886,158.50486153846154L46.818801388888886,159.2183076923077L47.36252986111111,157.20867692307692L47.400329166666666,158.35781538461538L47.71726180555556,157.2958153846154L47.74779201388888,157.90033846153847L47.76669166666667,155.63473846153846L47.7841375,155.10101538461538L47.90480451388889,157.35572307692308L48.26680555555556,156.53335384615386L48.397649305555554,151.56646153846154L49.02279166666666,152.10018461538462L49.569427777777776,154.65987692307692L49.58832743055555,151.62636923076923L49.659564583333335,154.52916923076924L49.695910069444444,152.38883076923076L49.76860104166667,154.67621538461538L49.81657708333333,153.7884923076923L50.225100347222224,154.94307692307692L50.28761458333334,152.44873846153845L50.821166319444444,151.80064615384615L50.85024270833333,154.65987692307692L51.58442152777778,154.66532307692307L51.946422569444444,151.89323076923077L52.00312152777778,156.1739076923077L52.10779652777778,152.80273846153847L52.12088090277778,157.64981538461538L52.343315277777776,148.9523076923077L52.45962083333333,147.69424615384617L52.56865729166667,146.7084923076923L52.731485069444446,148.05913846153845L52.97427291666666,151.9803692307692L53.53108576388889,153.282L54.234734374999995,155.59116923076922L54.340863194444445,150.83667692307694L54.365578125,152.1709846153846L54.38302395833334,152.35070769230768L54.570566666666664,156.23381538461538L54.66506493055555,148.2334153846154L54.91076041666667,144.88403076923078L54.97036701388889,149.52415384615384L55.14337152777778,144.48646153846153L56.25699722222222,151.0272923076923L56.55212256944444,149.69843076923078L58.25018368055556,137.59163076923076L58.277806250000005,136.7148L58.53367847222222,129.74916923076924L58.77355868055556,140.52166153846153L59.56152881944445,132.86436923076923L59.767971180555556,129.10652307692308L61.370080208333334,145.39596923076923L61.41224097222223,125.17984615384614L61.46893993055555,132.48313846153846L62.5433125,140.62513846153846L62.62036493055556,100.6776L64.55249097222222,120.5016L64.58156736111111,104.07600000000001L64.72113402777778,126.50326153846154L65.32301527777777,140.55978461538461L65.77224548611112,122.15178461538463L67.91226770833333,127.12412307692307L68.16232465277777,118.55187692307692L68.17686284722222,118.45929230769231L68.46181145833333,103.22095384615385L69.4286013888889,133.63227692307692L70.10753506944445,110.63316923076924L70.22093298611111,130.6368923076923L71.44068750000001,116.2427076923077L73.0791420138889,133.75753846153845L73.14020243055555,115.92138461538462L73.90491145833333,122.05375384615385L74.08373125,105.16523076923077L75.34855416666666,114.36378461538462L75.5651732638889,119.70646153846154L75.70328611111111,115.44212307692308L77.07569166666666,118.48107692307693L77.22543506944444,146.15843076923076L77.59906666666666,122.04286153846155L79.71001249999999,92.86781538461538L79.75217326388888,123.37172307692308L82.81537083333333,98.18870769230769L82.89242326388889,111.18867692307693L83.18027951388889,125.72990769230769L83.34746875,108.28587692307693L84.74313541666666,99.07643076923077L85.61688090277777,73.44138461538462L87.82087118055554,111.79864615384615L88.10581979166666,90.49873846153847L88.46927465277777,87.62861538461539L92.127084375,98.46646153846153L94.00978055555555,55.11507692307693L94.25547604166667,87.8137846153846L98.37269270833333,56.411261538461545L99.05598784722223,48.66683076923076L99.63751562499999,80.42880000000001L100.36151770833334,84.38815384615384L102.04649444444445,41.49424615384615L102.54515451388889,53.19803076923077L103.64714965277777,62.62532307692308L103.90592951388888,101.9411076923077L104.14580972222222,81.64329230769232L104.3246295138889,96.63655384615384L105.394640625,118.3667076923077L111.47742118055555,75.88126153846154L111.53121250000001,85.49372307692308L115.50450104166667,38.47163076923076L115.96390798611112,74.88461538461539L116.57015069444444,74.50883076923077L118.92679201388889,59.314061538461544L119.67550902777778,54.221907692307695L119.87613611111111,41.216492307692306L120.1436388888889,51.014123076923084L121.34158611111111,53.176246153846165L129.94965104166667,35.062338461538445L130.60241597222222,36.565476923076915L131.37730173611112,54.4560923076923L132.99249513888887,35.23116923076924L135.03220381944445,37.50766153846155L136.02952395833336,37.40418461538462L136.68519652777778,45.911076923076934L137.87151319444445,34.81726153846154L137.89477430555556,36.78876923076922L140.14819444444444,37.213569230769224L147.41002256944444,36.67440000000002L147.8766986111111,36.53280000000001L149.0048625,38.49886153846154L150.76398402777778,32.916553846153846L153.36050555555556,36.14067692307694L153.8620732638889,36.1896923076923L156.3277510416667,32.54621538461538L156.35391979166667,34.13649230769229L157.117175,35.55793846153847L157.86879965277777,36.97938461538462L166.0043732638889,34.45236923076922L167.51779930555554,35.04599999999999L168.08042743055555,34.90984615384616L169.2303986111111,34.485046153846156L170.633334375,33.90775384615384L171.47364201388888,35.17126153846155L174.99915416666664,33.55375384615385L175.01950763888888,35.8738153846154L175.70571041666668,33.97855384615386L175.79003194444445,35.71043076923078L184.01138090277777,34.65932307692307L186.45525138888888,34.77913846153848L186.93791944444445,33.564646153846155L187.3217277777778,33.1235076923077L187.86545625,34.65387692307692L189.31200659722222,34.7628L192.41591111111111,35.86836923076922L193.3812472222222,34.63753846153847L194.30151493055556,32.59523076923077L194.6140861111111,31.195569230769223L202.40655833333332,34.43603076923077L203.94324548611112,33.00913846153847L205.10339340277778,35.09501538461538L205.6892826388889,33.33046153846155L206.20684236111111,32.24667692307693L208.61000590277777,33.86418461538463L209.76579236111112,34.39246153846153L212.31724548611112,33.36313846153848L212.63708576388888,33.61910769230769L213.3988871527778,31.17923076923077L220.87006527777777,34.539507692307694L222.87052083333333,32.74772307692308L223.01590277777777,33.564646153846155L223.0391638888889,32.29569230769232L223.93035520833334,33.13984615384615L227.43551388888886,34.06024615384615L228.9082329861111,33.172523076923085L229.81541631944444,32.584338461538465L230.67898506944445,33.84784615384615L232.14298125,32.241230769230754L239.28705,33.00369230769232L240.54169618055556,33.78793846153846L240.96185,32.76950769230771L241.8414107638889,33.3359076923077L241.99406180555556,32.73138461538463L245.62861041666667,33.101723076923065L247.04753819444443,32.61156923076922L248.3777829861111,31.342615384615385L248.77031423611112,33.61910769230769L251.06444131944443,30.06821538461537L251.14294756944446,32.94923076923075L251.14440138888887,32.54076923076923L251.14585520833333,32.2248923076923L251.1473090277778,31.44064615384616L251.1487628472222,32.56255384615386L251.15021666666667,32.24667692307693L251.15167048611113,32.214L251.15312430555554,32.971015384615384L251.154578125,31.25003076923076L251.15603194444446,32.377384615384614L251.15748576388887,33.41215384615384L251.15893958333334,33.73892307692307L251.16039340277777,31.75107692307691L251.1618472222222,31.71295384615385L251.16330104166667,32.322923076923075L251.1647548611111,32.88387692307694L251.16620868055554,33.499292307692315L251.1676625,34.016676923076915L251.16911631944444,31.95803076923076L251.17057013888888,31.843661538461532L251.17202395833334,33.700800000000015L251.17347777777778,33.88052307692308L251.1749315972222,32.74227692307693L251.17638541666668,30.65639999999999L251.1778392361111,31.97436923076924L251.17929305555555,33.31412307692307L251.18074687499998,32.81852307692307L251.18220069444445,33.684461538461534L251.1836545138889,30.19892307692308L251.18510833333332,31.380738461538442" style="fill: none;" fill="none"></path></g></g></g></g></g></g><g transform="translate(68, 177)" clip-path="url(#clip_1)"><clipPath id="clip_1"><rect width="261" height="23"></rect></clipPath><g><g><line x1="0" y1="0" x2="0" y2="5" style="visibility: inherit;" fill="rgb(0, 0, 0)" stroke="rgb(204, 204, 204)" stroke-width="1px"></line><line x1="29.076388888888886" y1="0" x2="29.076388888888886" y2="5" style="visibility: inherit;" fill="rgb(0, 0, 0)" stroke="rgb(204, 204, 204)" stroke-width="1px"></line><line x1="58.15277777777777" y1="0" x2="58.15277777777777" y2="5" style="visibility: inherit;" fill="rgb(0, 0, 0)" stroke="rgb(204, 204, 204)" stroke-width="1px"></line><line x1="87.22916666666666" y1="0" x2="87.22916666666666" y2="5" style="visibility: inherit;" fill="rgb(0, 0, 0)" stroke="rgb(204, 204, 204)" stroke-width="1px"></line><line x1="116.30555555555554" y1="0" x2="116.30555555555554" y2="5" style="visibility: inherit;" fill="rgb(0, 0, 0)" stroke="rgb(204, 204, 204)" stroke-width="1px"></line><line x1="145.38194444444446" y1="0" x2="145.38194444444446" y2="5" style="visibility: inherit;" fill="rgb(0, 0, 0)" stroke="rgb(204, 204, 204)" stroke-width="1px"></line><line x1="174.45833333333331" y1="0" x2="174.45833333333331" y2="5" style="visibility: inherit;" fill="rgb(0, 0, 0)" stroke="rgb(204, 204, 204)" stroke-width="1px"></line><line x1="203.53472222222223" y1="0" x2="203.53472222222223" y2="5" style="visibility: inherit;" fill="rgb(0, 0, 0)" stroke="rgb(204, 204, 204)" stroke-width="1px"></line><line x1="232.6111111111111" y1="0" x2="232.6111111111111" y2="5" style="visibility: inherit;" fill="rgb(0, 0, 0)" stroke="rgb(204, 204, 204)" stroke-width="1px"></line><line x1="261.6875" y1="0" x2="261.6875" y2="5" style="visibility: inherit;" fill="rgb(0, 0, 0)" stroke="rgb(204, 204, 204)" stroke-width="1px"></line></g><g transform="translate(0, 8)"><text x="0" y="0" dx="0em" dy="0.95em" style="text-anchor: middle; visibility: hidden; font-family: &quot;Helvetica Neue&quot;, sans-serif; font-size: 12px; font-weight: 200;" fill="rgb(50, 49, 63)" stroke="none" stroke-width="1px">-20k</text><text x="29.076388888888886" y="0" dx="0em" dy="0.95em" style="text-anchor: middle; visibility: inherit; font-family: &quot;Helvetica Neue&quot;, sans-serif; font-size: 12px; font-weight: 200;" fill="rgb(50, 49, 63)" stroke="none" stroke-width="1px">0</text><text x="58.15277777777777" y="0" dx="0em" dy="0.95em" style="text-anchor: middle; visibility: hidden; font-family: &quot;Helvetica Neue&quot;, sans-serif; font-size: 12px; font-weight: 200;" fill="rgb(50, 49, 63)" stroke="none" stroke-width="1px">20k</text><text x="87.22916666666666" y="0" dx="0em" dy="0.95em" style="text-anchor: middle; visibility: inherit; font-family: &quot;Helvetica Neue&quot;, sans-serif; font-size: 12px; font-weight: 200;" fill="rgb(50, 49, 63)" stroke="none" stroke-width="1px">40k</text><text x="116.30555555555554" y="0" dx="0em" dy="0.95em" style="text-anchor: middle; visibility: hidden; font-family: &quot;Helvetica Neue&quot;, sans-serif; font-size: 12px; font-weight: 200;" fill="rgb(50, 49, 63)" stroke="none" stroke-width="1px">60k</text><text x="145.38194444444446" y="0" dx="0em" dy="0.95em" style="text-anchor: middle; visibility: inherit; font-family: &quot;Helvetica Neue&quot;, sans-serif; font-size: 12px; font-weight: 200;" fill="rgb(50, 49, 63)" stroke="none" stroke-width="1px">80k</text><text x="174.45833333333331" y="0" dx="0em" dy="0.95em" style="text-anchor: middle; visibility: hidden; font-family: &quot;Helvetica Neue&quot;, sans-serif; font-size: 12px; font-weight: 200;" fill="rgb(50, 49, 63)" stroke="none" stroke-width="1px">100k</text><text x="203.53472222222223" y="0" dx="0em" dy="0.95em" style="text-anchor: middle; visibility: inherit; font-family: &quot;Helvetica Neue&quot;, sans-serif; font-size: 12px; font-weight: 200;" fill="rgb(50, 49, 63)" stroke="none" stroke-width="1px">120k</text><text x="232.6111111111111" y="0" dx="0em" dy="0.95em" style="text-anchor: middle; visibility: hidden; font-family: &quot;Helvetica Neue&quot;, sans-serif; font-size: 12px; font-weight: 200;" fill="rgb(50, 49, 63)" stroke="none" stroke-width="1px">140k</text><text x="261.6875" y="0" dx="0em" dy="0.95em" style="text-anchor: middle; visibility: hidden; font-family: &quot;Helvetica Neue&quot;, sans-serif; font-size: 12px; font-weight: 200;" fill="rgb(50, 49, 63)" stroke="none" stroke-width="1px">160k</text></g><line x1="0" y1="0" x2="261.6875" y2="0" fill="rgb(0, 0, 0)" stroke="rgb(204, 204, 204)" stroke-width="1px"></line></g></g></g></g></svg>