<svg viewBox="0 0 330 200" xmlns="http://www.w3.org/2000/svg"><g><g><g><g><g><line x1="68.3125" y1="177" x2="63.3125" y2="177" style="visibility: inherit;" fill="rgb(0, 0, 0)" stroke="rgb(204, 204, 204)" stroke-width="1px"></line><line x1="68.3125" y1="157.33333333333334" x2="63.3125" y2="157.33333333333334" style="visibility: inherit;" fill="rgb(0, 0, 0)" stroke="rgb(204, 204, 204)" stroke-width="1px"></line><line x1="68.3125" y1="137.66666666666669" x2="63.3125" y2="137.66666666666669" style="visibility: inherit;" fill="rgb(0, 0, 0)" stroke="rgb(204, 204, 204)" stroke-width="1px"></line><line x1="68.3125" y1="118" x2="63.3125" y2="118" style="visibility: inherit;" fill="rgb(0, 0, 0)" stroke="rgb(204, 204, 204)" stroke-width="1px"></line><line x1="68.3125" y1="98.33333333333334" x2="63.3125" y2="98.33333333333334" style="visibility: inherit;" fill="rgb(0, 0, 0)" stroke="rgb(204, 204, 204)" stroke-width="1px"></line><line x1="68.3125" y1="78.66666666666666" x2="63.3125" y2="78.66666666666666" style="visibility: inherit;" fill="rgb(0, 0, 0)" stroke="rgb(204, 204, 204)" stroke-width="1px"></line><line x1="68.3125" y1="59" x2="63.3125" y2="59" style="visibility: inherit;" fill="rgb(0, 0, 0)" stroke="rgb(204, 204, 204)" stroke-width="1px"></line><line x1="68.3125" y1="39.33333333333334" x2="63.3125" y2="39.33333333333334" style="visibility: inherit;" fill="rgb(0, 0, 0)" stroke="rgb(204, 204, 204)" stroke-width="1px"></line><line x1="68.3125" y1="19.666666666666686" x2="63.3125" y2="19.666666666666686" style="visibility: inherit;" fill="rgb(0, 0, 0)" stroke="rgb(204, 204, 204)" stroke-width="1px"></line><line x1="68.3125" y1="0" x2="63.3125" y2="0" style="visibility: inherit;" fill="rgb(0, 0, 0)" stroke="rgb(204, 204, 204)" stroke-width="1px"></line></g><g transform="translate(58.3125, 0)"><text x="0" y="177" dx="0em" dy="0.3em" style="text-anchor: end; visibility: hidden; font-family: &quot;Helvetica Neue&quot;, sans-serif; font-size: 12px; font-weight: 200;" fill="rgb(50, 49, 63)" stroke="none" stroke-width="1px">-500</text><text x="0" y="157.33333333333334" dx="0em" dy="0.3em" style="text-anchor: end; visibility: inherit; font-family: &quot;Helvetica Neue&quot;, sans-serif; font-size: 12px; font-weight: 200;" fill="rgb(50, 49, 63)" stroke="none" stroke-width="1px">0</text><text x="0" y="137.66666666666669" dx="0em" dy="0.3em" style="text-anchor: end; visibility: hidden; font-family: &quot;Helvetica Neue&quot;, sans-serif; font-size: 12px; font-weight: 200;" fill="rgb(50, 49, 63)" stroke="none" stroke-width="1px">500</text><text x="0" y="118" dx="0em" dy="0.3em" style="text-anchor: end; visibility: inherit; font-family: &quot;Helvetica Neue&quot;, sans-serif; font-size: 12px; font-weight: 200;" fill="rgb(50, 49, 63)" stroke="none" stroke-width="1px">1e+3</text><text x="0" y="98.33333333333334" dx="0em" dy="0.3em" style="text-anchor: end; visibility: hidden; font-family: &quot;Helvetica Neue&quot;, sans-serif; font-size: 12px; font-weight: 200;" fill="rgb(50, 49, 63)" stroke="none" stroke-width="1px">1.5e+3</text><text x="0" y="78.66666666666666" dx="0em" dy="0.3em" style="text-anchor: end; visibility: inherit; font-family: &quot;Helvetica Neue&quot;, sans-serif; font-size: 12px; font-weight: 200;" fill="rgb(50, 49, 63)" stroke="none" stroke-width="1px">2e+3</text><text x="0" y="59" dx="0em" dy="0.3em" style="text-anchor: end; visibility: hidden; font-family: &quot;Helvetica Neue&quot;, sans-serif; font-size: 12px; font-weight: 200;" fill="rgb(50, 49, 63)" stroke="none" stroke-width="1px">2.5e+3</text><text x="0" y="39.33333333333334" dx="0em" dy="0.3em" style="text-anchor: end; visibility: inherit; font-family: &quot;Helvetica Neue&quot;, sans-serif; font-size: 12px; font-weight: 200;" fill="rgb(50, 49, 63)" stroke="none" stroke-width="1px">3e+3</text><text x="0" y="19.666666666666686" dx="0em" dy="0.3em" style="text-anchor: end; visibility: hidden; font-family: &quot;Helvetica Neue&quot;, sans-serif; font-size: 12px; font-weight: 200;" fill="rgb(50, 49, 63)" stroke="none" stroke-width="1px">3.5e+3</text><text x="0" y="0" dx="0em" dy="0.3em" style="text-anchor: end; visibility: hidden; font-family: &quot;Helvetica Neue&quot;, sans-serif; font-size: 12px; font-weight: 200;" fill="rgb(50, 49, 63)" stroke="none" stroke-width="1px">4e+3</text></g><line x1="68.3125" y1="0" x2="68.3125" y2="177" fill="rgb(0, 0, 0)" stroke="rgb(204, 204, 204)" stroke-width="1px"></line></g></g><g transform="translate(68, 0)" clip-path="url(#clip_0)"><clipPath id="clip_0"><rect width="261" height="177"></rect></clipPath><g><g><g><line x1="0" y1="0" x2="0" y2="177" fill="rgb(0, 0, 0)" stroke="rgb(60, 60, 60)" stroke-width="1px" opacity="0.25"></line><line x1="29.076388888888886" y1="0" x2="29.076388888888886" y2="177" fill="rgb(0, 0, 0)" stroke="rgb(60, 60, 60)" stroke-width="1px" opacity="0.25"></line><line x1="58.15277777777777" y1="0" x2="58.15277777777777" y2="177" fill="rgb(0, 0, 0)" stroke="rgb(60, 60, 60)" stroke-width="1px" opacity="0.25"></line><line x1="87.22916666666666" y1="0" x2="87.22916666666666" y2="177" fill="rgb(0, 0, 0)" stroke="rgb(60, 60, 60)" stroke-width="1px" opacity="0.25"></line><line x1="116.30555555555554" y1="0" x2="116.30555555555554" y2="177" fill="rgb(0, 0, 0)" stroke="rgb(60, 60, 60)" stroke-width="1px" opacity="0.25"></line><line x1="145.38194444444446" y1="0" x2="145.38194444444446" y2="177" fill="rgb(0, 0, 0)" stroke="rgb(60, 60, 60)" stroke-width="1px" opacity="0.25"></line><line x1="174.45833333333331" y1="0" x2="174.45833333333331" y2="177" fill="rgb(0, 0, 0)" stroke="rgb(60, 60, 60)" stroke-width="1px" opacity="0.25"></line><line x1="203.53472222222223" y1="0" x2="203.53472222222223" y2="177" fill="rgb(0, 0, 0)" stroke="rgb(60, 60, 60)" stroke-width="1px" opacity="0.25"></line><line x1="232.6111111111111" y1="0" x2="232.6111111111111" y2="177" fill="rgb(0, 0, 0)" stroke="rgb(60, 60, 60)" stroke-width="1px" opacity="0.25"></line><line x1="261.6875" y1="0" x2="261.6875" y2="177" fill="rgb(0, 0, 0)" stroke="rgb(60, 60, 60)" stroke-width="1px" opacity="0.25"></line></g><g><line x1="0" y1="177" x2="261.6875" y2="177" fill="rgb(0, 0, 0)" stroke="rgb(60, 60, 60)" stroke-width="1px" opacity="0.25"></line><line x1="0" y1="157.33333333333334" x2="261.6875" y2="157.33333333333334" fill="rgb(0, 0, 0)" stroke="rgb(60, 60, 60)" stroke-width="1px" opacity="0.25"></line><line x1="0" y1="137.66666666666669" x2="261.6875" y2="137.66666666666669" fill="rgb(0, 0, 0)" stroke="rgb(60, 60, 60)" stroke-width="1px" opacity="0.25"></line><line x1="0" y1="118" x2="261.6875" y2="118" fill="rgb(0, 0, 0)" stroke="rgb(60, 60, 60)" stroke-width="1px" opacity="0.25"></line><line x1="0" y1="98.33333333333334" x2="261.6875" y2="98.33333333333334" fill="rgb(0, 0, 0)" stroke="rgb(60, 60, 60)" stroke-width="1px" opacity="0.25"></line><line x1="0" y1="78.66666666666666" x2="261.6875" y2="78.66666666666666" fill="rgb(0, 0, 0)" stroke="rgb(60, 60, 60)" stroke-width="1px" opacity="0.25"></line><line x1="0" y1="59" x2="261.6875" y2="59" fill="rgb(0, 0, 0)" stroke="rgb(60, 60, 60)" stroke-width="1px" opacity="0.25"></line><line x1="0" y1="39.33333333333334" x2="261.6875" y2="39.33333333333334" fill="rgb(0, 0, 0)" stroke="rgb(60, 60, 60)" stroke-width="1px" opacity="0.25"></line><line x1="0" y1="19.666666666666686" x2="261.6875" y2="19.666666666666686" fill="rgb(0, 0, 0)" stroke="rgb(60, 60, 60)" stroke-width="1px" opacity="0.25"></line><line x1="0" y1="0" x2="261.6875" y2="0" fill="rgb(0, 0, 0)" stroke="rgb(60, 60, 60)" stroke-width="1px" opacity="0.25"></line></g></g></g><g><g><line x1="0" y1="157.33333333333334" x2="261.6875" y2="157.33333333333334" fill="rgb(0, 0, 0)" stroke="rgb(153, 153, 153)" stroke-width="1.5px"></line></g></g><g><g><line x1="29.076388888888886" y1="0" x2="29.076388888888886" y2="177" fill="rgb(0, 0, 0)" stroke="rgb(153, 153, 153)" stroke-width="1.5px"></line></g></g><g><g><g><g><g><path stroke="rgb(255, 112, 67)" stroke-width="2px" d="M30.950362152777778,141.6L32.857773263888895,148.975L32.92319513888889,151.23265306122448L32.95517916666667,152.22867647058823L33.243035416666665,152.73671061762664L33.54397604166667,153.01501074113855L33.95976840277778,153.17344149174326L34.69685486111111,153.26561302282954L34.77536111111111,148.55186408488075L34.91202013888889,150.50291571404787L35.28419791666666,151.6659689513333L35.295828472222226,152.3610945078327L35.76686597222223,152.77720016756962L36.17248159722222,153.02651547439794L36.72929444444445,153.17597956040774L36.771455208333336,153.26561302282954L36.874676388888886,148.59857784054626L37.07094201388889,150.51934177702992L37.203239583333335,151.67167528478262L37.38787465277778,147.64285787092166L38.097338541666666,149.9457652413183L38.292150347222226,151.32747733112092L38.47969305555556,152.1564929456594L38.65705902777778,152.65389812429106L38.73992673611111,152.95233972305272L38.78935659722222,153.1314041392828L39.03359826388889,153.2388425935319L39.235679166666664,148.583302697179L39.45665972222223,150.5099823282051L39.50027430555556,151.66598965248613L39.916066666666666,152.35959388349437L39.998934375000005,152.77575636321757L40.04691041666666,153.0254538298541L40.27661388888889,148.45527216697135L40.385650347222224,150.43316333418417L40.392919444444445,151.61989801275098L40.443803124999995,152.33193881205716L40.533939930555555,152.75916328882067L40.70839826388889,153.0154979738635L41.505091319444446,148.44929877821423L42.21019375,145.70957926473113L43.71198923611111,148.78574756031904L43.79776458333333,150.63144853672435L43.976584375,147.01886912140876L44.42290694444444,149.57132147311057L44.66860243055556,151.10279288396185L45.18325451388888,147.30167573023488L45.523448263888895,149.74100543819569L45.54961701388889,151.20460326293713L45.58887013888889,152.08276195776938L46.058453819444445,152.6096571746642L46.088984027777784,152.92579430479944L46.231458333333336,153.11547658287998L46.27798055555556,153.2292859497281L46.436446875,153.29757156983692L46.83915486111111,153.33854294190215L46.87695416666667,153.3631257651413L46.990352083333335,148.65787545908415L47.13718784722222,145.83472527545027L47.30583090277778,148.86083516527032L47.45121284722222,145.9565010991621L47.714354166666666,148.9339006594973L48.09089340277778,146.00034039569834L48.12723888888889,144.240204237419L48.53576215277778,147.90412254245143L48.58083055555556,150.10247352547086L48.61136076388888,146.7014841152825L48.91084756944444,144.6608904691695L49.03732986111111,148.1565342815017L49.29901736111111,150.25392056890104L49.37752361111111,151.5123523413406L49.652295486111115,152.26741140480436L49.97504340277777,148.0004468428826L49.9823125,150.16026810572959L50.13787118055556,146.73616086343776L50.19893159722223,149.40169651806264L50.23527708333334,151.0010179108376L50.24254618055556,147.24061074650254L50.441719444444445,149.70436644790152L50.687414930555555,151.18261986874091L50.909849305555554,152.06957192124455L51.424501388888885,152.60174315274674L51.455031597222224,152.92104589164805L51.485561805555555,148.39262753498883L51.696365625,150.3955765209933L52.13251145833333,151.59734591259598L52.195025694444446,147.5984075475576L52.59773368055556,149.91904452853456L52.62099479166667,151.31142671712072L52.63698680555555,152.14685603027243L52.86232881944444,152.64811361816345L52.87832083333333,152.94886817089807L52.99462638888889,148.40932090253884L53.03678715277778,150.4055925415233L53.497647916666665,151.60335552491398L53.65611423611111,152.32201331494838L53.68228298611111,152.75320798896905L53.70990555555556,153.0119247933814L53.98903888888889,153.16715487602886L54.00793854166667,153.2602929256173L54.19693506944444,153.31617575537038L54.257995486111106,153.34970545322224L54.32923263888889,153.36982327193334L54.48042986111111,153.38189396316L54.497875694444446,148.669136377896L54.51677534722222,150.5614818267376L54.59673541666667,151.69688909604255L54.69414131944445,147.65813345762552L54.854061458333334,145.23488007457533L55.002351041666664,148.5009280447452L55.21897013888889,150.46055682684712L55.23060069444444,151.63633409610827L55.37889027777778,152.34180045766496L55.653662152777784,152.76508027459897L55.90081145833334,153.0190481647594L56.14796076388889,148.45142889885562L56.27880451388889,150.43085733931338L56.316603819444445,151.61851440358802L56.336957291666664,152.33110864215283L56.537584374999994,152.7586651852917L56.77455694444445,153.015199111175L56.94610763888889,153.169119466705L57.22814861111111,153.261471680023L57.37789201388889,148.5968830080138L57.42005277777778,145.7981298048083L57.635218055555555,148.83887788288496L57.851837152777776,150.66332672973098L58.24872986111111,151.75799603783858L58.269083333333334,152.41479762270316L58.43481875,152.80887857362188L58.90876388888889,153.04532714417314L59.06432256944444,153.18719628650388L59.110844791666665,153.27231777190232L59.28675694444445,148.6033906631414L59.440861805555556,150.52203439788485L59.48011493055555,151.6732206387309L59.88863819444445,147.64393238323854L59.939521875000004,149.94635942994313L59.997674652777775,151.32781565796589L60.18521736111111,147.43668939477953L60.43527430555556,145.10201363686772L60.646078125,148.42120818212064L61.04587847222222,150.41272490927238L61.1302,146.88763494556343L61.22033680555556,149.49258096733806L61.46893993055555,151.05554858040284L61.67392847222222,151.9933291482417L61.998130208333336,152.55599748894502L62.03738333333334,152.89359849336702L62.38339236111111,153.09615909602022L62.412468749999995,153.21769545761214L62.53168194444444,153.29061727456727L62.668340972222225,148.61437036474035L62.741031944444444,145.80862221884422L62.78173888888889,148.84517333130654L63.19462361111111,150.66710399878392L63.228061458333336,147.04026239927035L63.24405347222222,149.5841574395622L63.43159618055555,146.39049446373733L63.44468055555555,149.19429667824238L63.58860868055556,146.15657800694544L63.60169305555556,144.33394680416728L63.732536805555554,147.96036808250037L63.78342048611111,145.4162208495002L63.89536458333333,148.60973250970014L63.927348611111114,150.52583950582007L63.950609722222225,151.67550370349204L64.03202361111111,147.6453022220952L64.074184375,145.22718133325714L64.22974305555556,148.49630879995428L64.45653888888889,145.73778527997257L64.88250798611111,144.08267116798353L65.10203472222221,143.08960270079012L65.23287847222223,147.2137616204741L65.28521597222222,144.96825697228445L65.29248506944445,143.62095418337066L65.38552951388888,142.8125725100224L65.58034131944446,142.32754350601346L65.60214861111112,146.75652610360805L65.62540972222222,149.41391566216484L65.68501631944444,151.0083493972989L65.722815625,151.96500963837934L65.82167534722223,147.8190057830276L65.96996493055556,150.05140346981656L66.01794097222222,146.67084208188993L66.07173229166666,144.64250524913396L66.08772430555555,143.4255031494804L66.13715416666666,142.6953018896882L66.18803784722222,142.25718113381294L66.29271284722222,146.71430868028776L66.31452013888888,144.66858520817266L66.4657173611111,148.1611511249036L66.51805486111111,150.25669067494215L66.74194305555557,146.79401440496528L66.74630451388889,144.71640864297916L66.88150972222222,148.1898451857875L66.89750173611112,145.5539071114725L66.96292361111111,148.6923442668835L67.07196006944444,145.85540656013012L67.10249027777778,144.15324393607807L67.1330204861111,147.85194636164684L67.28131006944444,150.0711678169881L67.30602499999999,146.68270069019286L67.31329409722223,149.36962041411573L67.33073993055555,150.98177224846944L67.5575357638889,151.94906334908165L67.64476493055557,147.809438009449L67.6752951388889,145.3256628056694L67.69128715277779,143.83539768340165L67.72327118055556,147.66123861004098L67.7799701388889,145.23674316602458L67.83521527777778,148.50204589961476L67.842484375,145.74122753976886L67.90790625,144.08473652386132L67.91226770833333,147.8108419143168L68.08963368055555,145.32650514859006L68.11725625,143.83590308915404L68.26990729166667,142.94154185349242L68.313521875,142.40492511209544L68.32224479166666,146.80295506725727L68.352775,149.44177304035438L68.42110451388888,146.30506382421262L68.65953090277777,144.42303829452757L68.66243854166667,141.72048964338322L68.72495277777777,141.6722937860299L68.78601319444445,141.64337627161797L68.82672013888889,146.34602576297078L68.8528888888889,144.44761545778246L68.93721041666667,143.30856927466948L68.94011805555554,142.62514156480168L69.05206215277778,142.215084938881L69.07386944444444,141.9690509633286L69.16691388888889,146.54143057799718L69.36463333333333,144.5648583467983L69.38062534722222,143.378915008079L69.41406319444445,147.38734900484738L69.438778125,145.07240940290842L69.48530034722222,143.68344564174507L69.621959375,142.85006738504703L69.63504375,147.07004043102822L69.91563090277778,149.60202425861695L69.93889201388889,146.40121455517016L70.00431388888889,149.2007287331021L72.5630361111111,146.16043723986127L72.64299618055556,144.33626234391676L72.683703125,143.24175740635005L72.68806458333333,142.58505444381004L72.75348645833334,142.19103266628602L72.78110902777777,141.9546195997716L72.85089236111112,141.81277175986298L73.03116597222221,141.7276630559178L73.73190694444445,141.67659783355066L74.67398194444444,141.6459587001304L75.00109131944444,141.62757522007826L75.10576631944444,141.61654513204695L75.38926111111111,141.60992707922816L75.70764756944445,141.6059562475369L75.93444340277777,141.60357374852214L76.26736805555555,140.02881091577996L77.44496180555556,140.65728654946798L77.79097083333333,141.0343719296808L79.74490416666667,141.26062315780848L79.77688819444444,141.3963738946851L80.48925972222223,141.47782433681107L81.59852395833335,141.52669460208662L81.74390590277778,141.55601676125198L82.811009375,141.5736100567512L83.70220069444444,141.58416603405072L84.7896576388889,141.59049962043042L87.04162395833333,141.59429977225827L87.45014722222223,141.59657986335495L89.98851597222222,141.59794791801298L90.16006666666668,141.59876875080778L92.70715833333334,141.5992612504847L95.07397638888888,141.59955675029082L95.19318958333334,141.59973405017448L95.86049270833334,141.59984043010468L96.37223715277777,141.59990425806282L97.02645590277778,141.5999425548377L99.65205381944445,141.59996553290262L101.19164861111112,141.59997931974158L101.76299965277778,141.59998759184495L102.38232673611111,140.02665922177363L103.746009375,139.08266219973086L103.77363194444445,138.51626398650518L104.06148819444444,139.7497583919031L104.77676736111111,140.48985503514186L105.132953125,139.3605796877518L105.21291319444444,140.2563478126511L105.28560416666666,140.79380868759065L105.47750833333333,139.54295187922105L105.59236006944445,138.79243779419932L105.61852881944445,138.34212934318623L105.91946944444445,138.0719442725784L105.97616840277779,137.9098332302137L106.00960625,137.8125666047949L106.02705208333333,137.7542066295436L106.44865972222223,137.71919064439282L107.02727986111111,137.69818105330236L108.247034375,137.68557529864808L108.46074583333333,137.6780118458555L108.46510729166665,137.67347377417997L109.22400104166667,137.67075093117467L109.33885277777777,137.66911722537145L109.40282083333332,137.66813700188953L110.09920034722222,137.6675488678004L110.66473611111111,136.09386265401358L110.85954791666666,136.7229842590748L110.89298576388889,135.52712388877822L110.89734722222222,136.3829409999336L110.96276909722222,136.89643126662682L111.0703517361111,137.20452542664276L111.22300277777778,135.816048589319L111.40182256944445,136.55629582025807L111.48614409722222,137.0004441588215L111.52248958333334,137.26693316195957L111.55011215277777,137.4268265638424L111.73329340277778,137.52276260497212L111.75946215277779,137.58032422964993L111.76236979166666,137.61486120445664L111.90775173611111,137.63558338934064L112.05604131944445,137.64801670027106L112.10837881944444,137.6554766868293L112.23922256944444,137.65995267876426L112.33226701388888,137.6626382739252L112.41949618055556,137.6642496310218L112.46456458333334,137.66521644527973L113.25980381944444,137.6657965338345L113.29033402777777,137.6661445869674L113.47787673611111,137.6663534188471L113.49823020833333,137.66647871797494L113.95036805555556,137.66655389745162L114.00561319444445,137.66659900513764L114.14663368055555,137.66662606974924L114.16698715277778,137.66664230851623L114.28910798611112,137.6666520517764L114.55951840277778,137.6666578977325L114.56969513888889,137.66666140530617L114.67437013888889,137.66666350985037L114.72089236111111,137.6666647725769L114.75869166666666,137.6666655302128L114.77759131944445,137.66666598479435L114.79939861111112,137.66666625754328L114.82992881944445,137.66666642119264L114.99130277777778,137.66666651938226L115.247175,137.666666578296L115.30242013888889,137.66666661364428L115.40564131944444,137.66666663485324L115.43181006944444,137.6666666475786L115.43762534722222,137.66666665521382L115.44925590277778,137.66666665979497L116.17471180555555,137.66666666254366L116.22123402777777,137.66666666419286L116.2444951388889,137.6666666651824L116.40441527777779,137.6666666657761L116.4538451388889,137.66666666613233L116.48582916666666,137.66666666634606L116.53962048611112,137.6666666664743L116.81293854166667,137.66666666655124L116.84928402777777,137.66666666659742L116.95541284722222,137.66666666662513L117.15313229166667,137.66666666664173L117.23018472222222,137.6666666666517L117.27379930555556,137.6666666666577L117.2883375,137.66666666666129L117.41772743055556,137.66666666666345L117.47297256944445,137.66666666666472L117.51804097222222,137.6666666666655L117.59945486111111,137.66666666666598L117.62126215277777,137.66666666666623L117.62998506944444,137.6666666666664L117.746290625,137.66666666666652L117.83788125,137.66666666666657L117.88004201388888,137.66666666666663L117.93237951388889,137.66666666666663L117.9454638888889,137.66666666666666L118.01524722222221,137.66666666666666L118.36707152777778,137.66666666666666L118.39760173611111,137.66666666666666L118.4950076388889,137.66666666666669L118.53571458333334,137.66666666666669L118.7116267361111,137.66666666666669L118.84101666666666,137.66666666666669L118.85119340277777,137.66666666666669L118.93842256944444,137.66666666666669L118.9631375,137.66666666666669L119.53739618055556,137.66666666666669L119.71330833333334,137.66666666666669L119.7511076388889,137.66666666666669L119.75401527777777,136.09333333333333L119.761284375,136.72266666666667L119.79762986111112,137.10026666666667L119.8165295138889,137.32682666666668L120.02006423611111,105.996096L120.28320555555557,118.66432426666667L126.82539305555555,94.79859456000001L126.92425277777778,80.47915673600001L127.60464027777778,71.8874940416L127.67733125,66.73249642495999L127.68169270833333,63.639497854976L127.742753125,61.7836987129856L127.75438368055555,60.67021922779138L127.93756493055557,58.428798203341486L128.72262743055555,57.08394558867157L128.79822604166665,56.27703401986962L128.8840013888889,55.79288707858845L129.06282118055555,55.50239891381973L129.11079722222223,56.90143934829183L129.29543229166666,56.16753027564178L129.38702291666667,55.727184832051734L129.45535243055556,55.4629775658977L129.69668645833332,55.30445320620528L129.95255868055557,55.20933859038985L130.03251875,55.15226982090057L131.21156631944444,56.69136189254036L132.0765888888889,56.041483802190896L132.43858993055554,57.22489028131453L132.97359548611112,57.93493416878873L134.41287673611112,56.7876271679399L134.52191319444447,57.672576300763936L134.54808194444445,56.63021244712503L136.2112513888889,57.57812746827503L136.26649652777778,58.14687648096502L136.28539618055555,56.914792555245654L136.31301875,57.7488755331474L136.94252256944446,56.67599198655512L137.0224826388889,56.032261858599725L137.05301284722222,57.21935711515982L137.29580069444444,56.35828093576258L138.51119375,51.121635228124205L141.11207673611113,52.69964780354118L141.13969930555555,53.64645534879138L142.5717114583333,54.2145398759415L143.03257222222223,54.55539059223156L143.30879791666666,54.75990102200561L143.4018423611111,54.88260727987003L143.98918541666666,54.9562310345887L145.21184756944444,55.000405287419866L147.23411041666665,55.0269098391186L147.94357430555556,50.32281257013783L147.9784659722222,52.22035420874937L150.5720798611111,53.3588791919163L150.732,54.041994181816435L152.4794909722222,54.451863175756515L152.6888409722222,54.69778457212058L153.03775763888888,54.84533740993902L153.75885208333332,54.93386911263006L155.5703111111111,50.26698813424471L155.57176493055556,52.1868595472135L155.66044791666667,53.33878239499478L155.74767708333331,54.02993610366353L157.6768954861111,54.44462832886481L157.71614861111112,54.69344366398555L158.22789305555554,54.84273286505801L159.26592013888887,54.93230638570148L159.64100555555555,54.98605049808758L160.087328125,55.0182969655192L161.45973368055553,55.03764484597819L162.08778368055556,55.04925357425357L163.41512083333333,55.05621881121881L163.54014930555556,55.06039795339795L163.6593625,48.769572105372106L165.3443392361111,44.9950765965566L166.4957642361111,49.023712624600634L166.6513229166667,51.440894241427046L166.67894548611113,52.89120321152289L167.5875826388889,53.761388593580406L168.88729722222223,54.28349982281492L168.9352732638889,54.596766560355604L169.11118541666667,54.78472660288003L169.16643055555556,54.897502628394705L169.43684097222223,54.96516824370349L169.61711458333335,55.00576761288875L171.91414930555555,55.03012723439993L172.95653784722222,55.04474300730662L173.46828229166667,50.33351247105064L174.27660590277776,52.22677414929706L174.58045416666667,53.36273115624492L175.61702743055557,54.04430536041362L175.98484375,49.73324988291483L176.10405694444444,47.146616596415555L176.207278125,45.594636624516L176.26979236111112,44.66344864137628L176.54747187499999,44.10473585149245L176.9530875,43.76950817756213L177.04322430555555,43.56837157320396L177.5099003472222,43.44768961058904L177.52589236111112,43.375280433020095L177.61166770833333,43.331834926478734L178.0463597222222,43.30576762255393L178.08270520833332,43.29012724019901L178.0841590277778,48.00074301078607L178.08561284722222,46.1071124731383L178.1670267361111,44.97093415054965L178.66277916666667,44.289227156996475L178.72674722222223,43.88020296086455L178.77181562500002,43.634788443185386L178.97680416666665,43.487539732577915L179.19487708333332,43.399190506213415L179.32717465277776,43.34618097039473L179.3504357638889,43.3143752489035L179.99447777777777,48.015291816008784L180.01046979166665,46.11584175627195L180.4131777777778,44.97617172042982L180.53820625,44.292369698924574L181.18370208333334,42.308755152688065L181.59222534722224,42.69191975827951L181.6402013888889,42.92181852163438L181.80157534722224,43.0597577796473L182.0719857638889,43.14252133445504L182.3860107638889,43.19217946733971L182.43980208333335,43.2219743470705L182.67822847222223,43.23985127490897L182.99225347222222,43.250577431612044L183.02278368055556,43.257013125633904L183.04604479166667,43.26087454204702L183.05476770833334,43.26319139189488L183.285925,43.264581501803605L183.3586159722222,43.26541556774882L183.62466493055555,43.26591600731598L183.6450184027778,43.266216271056265L183.88926006944445,43.266396429300414L184.01283472222224,43.266504524246926L184.05063402777776,43.26656938121482L184.43298854166667,43.26660829539557L184.81679687500002,43.26663164390399L184.88367256944446,43.26664565300908L185.05231562499998,43.266654058472085L185.81266319444444,43.26665910174992L186.0176517361111,43.266662127716614L186.046728125,43.266663943296635L186.16884895833334,43.26666503264468L186.256078125,43.266665686253475L186.28806215277777,43.26666607841875L186.7561920138889,43.266666313717934L186.81579861111112,43.266666454897404L187.01351805555555,43.266666539605126L187.03532534722223,43.266666590429736L187.39587256944444,43.266666620924525L187.54852361111114,43.26666663922137L187.55143125,43.26666665019948L187.9076170138889,43.266666656786356L188.2347263888889,43.26666666073848L188.52839791666668,41.69333332977641L188.75664756944443,42.322666664532534L188.91656770833333,42.70026666538618L189.03141944444442,42.9268266658984L189.58096319444442,43.062762666205685L189.78159027777778,43.14432426639007L190.0272857638889,43.19326122650071L190.19302118055555,43.22262340256708L190.29478854166666,43.240240708206926L190.3165958333333,43.250811091590805L190.59427534722224,43.25715332162116L190.69604270833332,43.26095865963936L191.25576319444446,43.263241862450286L191.2746628472222,43.26461178413686L191.46511319444443,41.69210040381546L191.568334375,42.32192690895596L191.63957152777778,42.699822812040225L191.79658402777778,42.92656035389081L191.92015868055557,43.06260287900116L191.94923506944443,43.14422839406734L192.196384375,43.193203703107116L192.63834548611112,41.64925555519761L192.83606493055555,42.29621999978522L192.850603125,42.68439866653779L192.98871597222222,41.34397253325599L193.05704548611112,42.113050186620285L193.13409791666666,41.00116344530551L193.27657222222223,41.90736473384999L193.30419479166667,42.45108550697665L193.6458423611111,42.777317970852664L193.94532916666665,41.39972411584492L194.13432569444447,42.14650113617364L194.44544305555553,42.59456734837087L194.48469618055557,42.863407075689196L194.525403125,41.45137757874687L194.5283107638889,40.60415988058145L194.5937326388889,40.09582926168221L195.04732430555558,41.36416422367597L195.19997534722222,42.12516520087226L195.29738125,41.0084324538567L195.32209618055558,41.9117261389807L195.52708472222224,40.880369016721744L195.74661145833332,40.26155474336639L196.0490059027778,39.890266179353176L196.15077326388888,39.66749304094526L196.1900263888889,39.5338291579005L196.200203125,39.45363082807364L196.62762604166664,40.97884516351087L196.64943333333332,40.32064043143987L196.71194756944445,39.92571759219726L196.85296805555558,39.68876388865169L196.94455868055556,39.546591666524364L197.06086423611112,39.46128833324795L197.1858927083333,40.983439666615425L197.68746041666665,40.32339713330259L197.84592673611112,39.927371613314875L197.8561034722222,41.263089634655614L197.86046493055554,40.49118711412669L198.00148541666667,41.60137893514269L198.032015625,40.69416069441894L198.22828124999998,40.14982974998469L198.41291631944446,39.82323118332414L198.54376006944443,39.62727204332785L198.7414795138889,39.509696559330024L199.27357743055558,39.43915126893134L199.38406770833333,39.396824094692136L199.44658194444446,39.37142779014863L199.47565833333334,39.3561900074225L199.52799583333334,39.34704733778685L199.5468954861111,39.341561736005445L199.73153055555554,39.3382703749366L199.87109722222223,39.33629555829529L200.20256805555556,39.335110668310506L200.32032743055555,39.334399734319646L200.7739190972222,39.33397317392513L200.92802395833334,39.333717237688404L200.95564652777776,39.33356367594635L201.02252222222222,39.333471538901165L201.24641041666666,39.33341625667404L201.250771875,39.33338308733778L201.28857118055555,39.333363185736005L201.66074895833333,39.333351244774946L201.9471513888889,39.333344080198316L202.192846875,39.33333978145231L202.47634166666668,39.33333720220472L202.50105659722223,39.33333565465617L202.5432173611111,39.33333472612705L202.67696875,39.33333416900953L202.76274409722222,39.33333383473908L203.05060034722223,39.33333363417677L203.16981354166666,39.33333351383942L203.47656944444444,39.33333344163697L203.61613611111113,39.333333398315546L203.88945416666667,39.33333337232264L204.30379270833333,39.33333335672691L204.91585069444443,39.33333334736946L205.26622118055553,39.33333334175501L205.33891215277777,39.333333338386325L205.54680833333333,39.33333333636514L206.34495520833332,39.33333333515242L206.47725277777778,39.33333333442479L207.01661979166667,39.33333333398821L207.09803368055555,39.33333333372627L207.14600972222223,39.3333333335691L207.766790625,39.33333333347477L207.81331284722222,39.33333333341821L208.24509722222223,39.333333333384275L208.43118611111112,39.333333333363896L208.43554756944445,39.333333333351675L208.6274517361111,39.33333333334434L209.12901944444442,39.33333333333994L209.17844930555555,39.33333333333729L209.84139097222223,39.33333333333573L209.8501138888889,39.333333333334764L209.85447534722223,39.333333333334195L209.93007395833334,39.333333333333854L210.21938402777778,39.333333333333655L210.32551284722223,39.33333333333354L210.95210902777777,39.33333333333346L211.01026180555556,39.3333333333334L211.33300972222222,39.33333333333337L211.45513055555557,39.33333333333337L211.55544409722222,39.33333333333337L211.62377361111112,39.33333333333337L211.74007916666667,39.33333333333337L211.75752500000002,39.33333333333337L212.15005625,39.33333333333337L212.82172083333333,39.33333333333337L212.82608229166667,39.33333333333337L212.895865625,39.33333333333337L213.00926354166666,39.33333333333337L213.24768993055557,39.33333333333337L213.65185173611113,39.33333333333337L213.72745034722223,39.33333333333337L214.4994284722222,39.33333333333337L214.65353333333334,39.33333333333337L214.88323680555555,39.33333333333337L214.91231319444444,39.33333333333337L214.98645798611113,39.33333333333337L216.06373819444445,39.33333333333337L216.18149756944445,39.33333333333337L216.39375520833332,39.33333333333337L216.67579618055555,39.33333333333337L216.77029444444443,39.33333333333337L216.94620659722224,39.33333333333337L217.02325902777775,39.33333333333337L217.44632048611112,39.33333333333337L217.8737434027778,39.33333333333337L218.181953125,39.33333333333337L218.21539097222222,39.33333333333337L218.44509444444446,39.33333333333337L218.495978125,39.33333333333337L218.78819583333333,39.33333333333337L218.888509375,39.33333333333337L220.11989444444444,39.33333333333337L220.84825798611112,39.33333333333337L221.217528125,39.33333333333337L221.37308680555557,39.33333333333337L221.4690388888889,39.33333333333337L221.86447777777778,39.33333333333337L222.31806944444443,39.33333333333337L222.34133055555554,39.33333333333337L222.47508194444444,39.33333333333337L223.34882743055556,39.33333333333337L223.69774409722223,39.33333333333337L224.30107916666665,39.33333333333337L224.35341666666665,39.33333333333337L224.5584052083333,39.33333333333337L224.92622152777776,39.33333333333337L225.48158055555555,39.33333333333337L225.8595736111111,39.33333333333337L226.3698642361111,39.33333333333337L226.40330208333333,39.33333333333337L226.67516631944446,39.33333333333337L226.84817083333334,39.33333333333337L226.89760069444446,39.33333333333337L227.23488680555556,39.33333333333337L227.4747670138889,39.33333333333337L227.91527430555556,39.33333333333337L228.4735409722222,39.33333333333337L228.81809618055556,39.33333333333337L228.82827291666666,39.33333333333337L229.36909375,39.33333333333337L229.64531944444443,39.33333333333337L230.50598055555554,39.33333333333337L230.9057809027778,39.33333333333337L230.96102604166668,39.33333333333337L231.44224027777778,39.33333333333337L231.63123680555555,39.33333333333337L234.05329999999998,39.33333333333337L234.21176631944445,39.33333333333337L235.7251923611111,39.33333333333337L238.44092708333335,39.33333333333337L239.6694045138889,39.33333333333337L240.78012256944444,39.33333333333337L243.58308645833333,39.33333333333337L243.8898423611111,39.33333333333337L244.46846250000002,39.33333333333337L246.0676638888889,39.33333333333337L246.55469340277776,39.33333333333337L247.72792569444445,39.33333333333337L250.66900243055557,39.33333333333337L252.80175555555556,39.33333333333337L252.803209375,39.33333333333337L252.80466319444446,39.33333333333337L252.8061170138889,39.33333333333337L252.80757083333333,39.33333333333337L252.80902465277777,39.33333333333337L252.81047847222223,39.33333333333337" style="fill: none;" fill="none"></path></g></g></g></g><g opacity="0.2"><g><g><g><path stroke="rgb(255, 112, 67)" stroke-width="2px" d="M30.950362152777778,141.6L32.857773263888895,153.4L32.92319513888889,153.4L32.95517916666667,153.4L33.243035416666665,153.4L33.54397604166667,153.4L33.95976840277778,153.4L34.69685486111111,153.4L34.77536111111111,141.6L34.91202013888889,153.4L35.28419791666666,153.4L35.295828472222226,153.4L35.76686597222223,153.4L36.17248159722222,153.4L36.72929444444445,153.4L36.771455208333336,153.4L36.874676388888886,141.6L37.07094201388889,153.4L37.203239583333335,153.4L37.38787465277778,141.6L38.097338541666666,153.4L38.292150347222226,153.4L38.47969305555556,153.4L38.65705902777778,153.4L38.73992673611111,153.4L38.78935659722222,153.4L39.03359826388889,153.4L39.235679166666664,141.6L39.45665972222223,153.4L39.50027430555556,153.4L39.916066666666666,153.4L39.998934375000005,153.4L40.04691041666666,153.4L40.27661388888889,141.6L40.385650347222224,153.4L40.392919444444445,153.4L40.443803124999995,153.4L40.533939930555555,153.4L40.70839826388889,153.4L41.505091319444446,141.6L42.21019375,141.6L43.71198923611111,153.4L43.79776458333333,153.4L43.976584375,141.6L44.42290694444444,153.4L44.66860243055556,153.4L45.18325451388888,141.6L45.523448263888895,153.4L45.54961701388889,153.4L45.58887013888889,153.4L46.058453819444445,153.4L46.088984027777784,153.4L46.231458333333336,153.4L46.27798055555556,153.4L46.436446875,153.4L46.83915486111111,153.4L46.87695416666667,153.4L46.990352083333335,141.6L47.13718784722222,141.6L47.30583090277778,153.4L47.45121284722222,141.6L47.714354166666666,153.4L48.09089340277778,141.6L48.12723888888889,141.6L48.53576215277778,153.4L48.58083055555556,153.4L48.61136076388888,141.6L48.91084756944444,141.6L49.03732986111111,153.4L49.29901736111111,153.4L49.37752361111111,153.4L49.652295486111115,153.4L49.97504340277777,141.6L49.9823125,153.4L50.13787118055556,141.6L50.19893159722223,153.4L50.23527708333334,153.4L50.24254618055556,141.6L50.441719444444445,153.4L50.687414930555555,153.4L50.909849305555554,153.4L51.424501388888885,153.4L51.455031597222224,153.4L51.485561805555555,141.6L51.696365625,153.4L52.13251145833333,153.4L52.195025694444446,141.6L52.59773368055556,153.4L52.62099479166667,153.4L52.63698680555555,153.4L52.86232881944444,153.4L52.87832083333333,153.4L52.99462638888889,141.6L53.03678715277778,153.4L53.497647916666665,153.4L53.65611423611111,153.4L53.68228298611111,153.4L53.70990555555556,153.4L53.98903888888889,153.4L54.00793854166667,153.4L54.19693506944444,153.4L54.257995486111106,153.4L54.32923263888889,153.4L54.48042986111111,153.4L54.497875694444446,141.6L54.51677534722222,153.4L54.59673541666667,153.4L54.69414131944445,141.6L54.854061458333334,141.6L55.002351041666664,153.4L55.21897013888889,153.4L55.23060069444444,153.4L55.37889027777778,153.4L55.653662152777784,153.4L55.90081145833334,153.4L56.14796076388889,141.6L56.27880451388889,153.4L56.316603819444445,153.4L56.336957291666664,153.4L56.537584374999994,153.4L56.77455694444445,153.4L56.94610763888889,153.4L57.22814861111111,153.4L57.37789201388889,141.6L57.42005277777778,141.6L57.635218055555555,153.4L57.851837152777776,153.4L58.24872986111111,153.4L58.269083333333334,153.4L58.43481875,153.4L58.90876388888889,153.4L59.06432256944444,153.4L59.110844791666665,153.4L59.28675694444445,141.6L59.440861805555556,153.4L59.48011493055555,153.4L59.88863819444445,141.6L59.939521875000004,153.4L59.997674652777775,153.4L60.18521736111111,141.6L60.43527430555556,141.6L60.646078125,153.4L61.04587847222222,153.4L61.1302,141.6L61.22033680555556,153.4L61.46893993055555,153.4L61.67392847222222,153.4L61.998130208333336,153.4L62.03738333333334,153.4L62.38339236111111,153.4L62.412468749999995,153.4L62.53168194444444,153.4L62.668340972222225,141.6L62.741031944444444,141.6L62.78173888888889,153.4L63.19462361111111,153.4L63.228061458333336,141.6L63.24405347222222,153.4L63.43159618055555,141.6L63.44468055555555,153.4L63.58860868055556,141.6L63.60169305555556,141.6L63.732536805555554,153.4L63.78342048611111,141.6L63.89536458333333,153.4L63.927348611111114,153.4L63.950609722222225,153.4L64.03202361111111,141.6L64.074184375,141.6L64.22974305555556,153.4L64.45653888888889,141.6L64.88250798611111,141.6L65.10203472222221,141.6L65.23287847222223,153.4L65.28521597222222,141.6L65.29248506944445,141.6L65.38552951388888,141.6L65.58034131944446,141.6L65.60214861111112,153.4L65.62540972222222,153.4L65.68501631944444,153.4L65.722815625,153.4L65.82167534722223,141.6L65.96996493055556,153.4L66.01794097222222,141.6L66.07173229166666,141.6L66.08772430555555,141.6L66.13715416666666,141.6L66.18803784722222,141.6L66.29271284722222,153.4L66.31452013888888,141.6L66.4657173611111,153.4L66.51805486111111,153.4L66.74194305555557,141.6L66.74630451388889,141.6L66.88150972222222,153.4L66.89750173611112,141.6L66.96292361111111,153.4L67.07196006944444,141.6L67.10249027777778,141.6L67.1330204861111,153.4L67.28131006944444,153.4L67.30602499999999,141.6L67.31329409722223,153.4L67.33073993055555,153.4L67.5575357638889,153.4L67.64476493055557,141.6L67.6752951388889,141.6L67.69128715277779,141.6L67.72327118055556,153.4L67.7799701388889,141.6L67.83521527777778,153.4L67.842484375,141.6L67.90790625,141.6L67.91226770833333,153.4L68.08963368055555,141.6L68.11725625,141.6L68.26990729166667,141.6L68.313521875,141.6L68.32224479166666,153.4L68.352775,153.4L68.42110451388888,141.6L68.65953090277777,141.6L68.66243854166667,137.66666666666669L68.72495277777777,141.6L68.78601319444445,141.6L68.82672013888889,153.4L68.8528888888889,141.6L68.93721041666667,141.6L68.94011805555554,141.6L69.05206215277778,141.6L69.07386944444444,141.6L69.16691388888889,153.4L69.36463333333333,141.6L69.38062534722222,141.6L69.41406319444445,153.4L69.438778125,141.6L69.48530034722222,141.6L69.621959375,141.6L69.63504375,153.4L69.91563090277778,153.4L69.93889201388889,141.6L70.00431388888889,153.4L72.5630361111111,141.6L72.64299618055556,141.6L72.683703125,141.6L72.68806458333333,141.6L72.75348645833334,141.6L72.78110902777777,141.6L72.85089236111112,141.6L73.03116597222221,141.6L73.73190694444445,141.6L74.67398194444444,141.6L75.00109131944444,141.6L75.10576631944444,141.6L75.38926111111111,141.6L75.70764756944445,141.6L75.93444340277777,141.6L76.26736805555555,137.66666666666669L77.44496180555556,141.6L77.79097083333333,141.6L79.74490416666667,141.6L79.77688819444444,141.6L80.48925972222223,141.6L81.59852395833335,141.6L81.74390590277778,141.6L82.811009375,141.6L83.70220069444444,141.6L84.7896576388889,141.6L87.04162395833333,141.6L87.45014722222223,141.6L89.98851597222222,141.6L90.16006666666668,141.6L92.70715833333334,141.6L95.07397638888888,141.6L95.19318958333334,141.6L95.86049270833334,141.6L96.37223715277777,141.6L97.02645590277778,141.6L99.65205381944445,141.6L101.19164861111112,141.6L101.76299965277778,141.6L102.38232673611111,137.66666666666669L103.746009375,137.66666666666669L103.77363194444445,137.66666666666669L104.06148819444444,141.6L104.77676736111111,141.6L105.132953125,137.66666666666669L105.21291319444444,141.6L105.28560416666666,141.6L105.47750833333333,137.66666666666669L105.59236006944445,137.66666666666669L105.61852881944445,137.66666666666669L105.91946944444445,137.66666666666669L105.97616840277779,137.66666666666669L106.00960625,137.66666666666669L106.02705208333333,137.66666666666669L106.44865972222223,137.66666666666669L107.02727986111111,137.66666666666669L108.247034375,137.66666666666669L108.46074583333333,137.66666666666669L108.46510729166665,137.66666666666669L109.22400104166667,137.66666666666669L109.33885277777777,137.66666666666669L109.40282083333332,137.66666666666669L110.09920034722222,137.66666666666669L110.66473611111111,133.73333333333335L110.85954791666666,137.66666666666669L110.89298576388889,133.73333333333335L110.89734722222222,137.66666666666669L110.96276909722222,137.66666666666669L111.0703517361111,137.66666666666669L111.22300277777778,133.73333333333335L111.40182256944445,137.66666666666669L111.48614409722222,137.66666666666669L111.52248958333334,137.66666666666669L111.55011215277777,137.66666666666669L111.73329340277778,137.66666666666669L111.75946215277779,137.66666666666669L111.76236979166666,137.66666666666669L111.90775173611111,137.66666666666669L112.05604131944445,137.66666666666669L112.10837881944444,137.66666666666669L112.23922256944444,137.66666666666669L112.33226701388888,137.66666666666669L112.41949618055556,137.66666666666669L112.46456458333334,137.66666666666669L113.25980381944444,137.66666666666669L113.29033402777777,137.66666666666669L113.47787673611111,137.66666666666669L113.49823020833333,137.66666666666669L113.95036805555556,137.66666666666669L114.00561319444445,137.66666666666669L114.14663368055555,137.66666666666669L114.16698715277778,137.66666666666669L114.28910798611112,137.66666666666669L114.55951840277778,137.66666666666669L114.56969513888889,137.66666666666669L114.67437013888889,137.66666666666669L114.72089236111111,137.66666666666669L114.75869166666666,137.66666666666669L114.77759131944445,137.66666666666669L114.79939861111112,137.66666666666669L114.82992881944445,137.66666666666669L114.99130277777778,137.66666666666669L115.247175,137.66666666666669L115.30242013888889,137.66666666666669L115.40564131944444,137.66666666666669L115.43181006944444,137.66666666666669L115.43762534722222,137.66666666666669L115.44925590277778,137.66666666666669L116.17471180555555,137.66666666666669L116.22123402777777,137.66666666666669L116.2444951388889,137.66666666666669L116.40441527777779,137.66666666666669L116.4538451388889,137.66666666666669L116.48582916666666,137.66666666666669L116.53962048611112,137.66666666666669L116.81293854166667,137.66666666666669L116.84928402777777,137.66666666666669L116.95541284722222,137.66666666666669L117.15313229166667,137.66666666666669L117.23018472222222,137.66666666666669L117.27379930555556,137.66666666666669L117.2883375,137.66666666666669L117.41772743055556,137.66666666666669L117.47297256944445,137.66666666666669L117.51804097222222,137.66666666666669L117.59945486111111,137.66666666666669L117.62126215277777,137.66666666666669L117.62998506944444,137.66666666666669L117.746290625,137.66666666666669L117.83788125,137.66666666666669L117.88004201388888,137.66666666666669L117.93237951388889,137.66666666666669L117.9454638888889,137.66666666666669L118.01524722222221,137.66666666666669L118.36707152777778,137.66666666666669L118.39760173611111,137.66666666666669L118.4950076388889,137.66666666666669L118.53571458333334,137.66666666666669L118.7116267361111,137.66666666666669L118.84101666666666,137.66666666666669L118.85119340277777,137.66666666666669L118.93842256944444,137.66666666666669L118.9631375,137.66666666666669L119.53739618055556,137.66666666666669L119.71330833333334,137.66666666666669L119.7511076388889,137.66666666666669L119.75401527777777,133.73333333333335L119.761284375,137.66666666666669L119.79762986111112,137.66666666666669L119.8165295138889,137.66666666666669L120.02006423611111,59L120.28320555555557,137.66666666666669L126.82539305555555,59L126.92425277777778,59L127.60464027777778,59L127.67733125,59L127.68169270833333,59L127.742753125,59L127.75438368055555,59L127.93756493055557,55.06666666666666L128.72262743055555,55.06666666666666L128.79822604166665,55.06666666666666L128.8840013888889,55.06666666666666L129.06282118055555,55.06666666666666L129.11079722222223,59L129.29543229166666,55.06666666666666L129.38702291666667,55.06666666666666L129.45535243055556,55.06666666666666L129.69668645833332,55.06666666666666L129.95255868055557,55.06666666666666L130.03251875,55.06666666666666L131.21156631944444,59L132.0765888888889,55.06666666666666L132.43858993055554,59L132.97359548611112,59L134.41287673611112,55.06666666666666L134.52191319444447,59L134.54808194444445,55.06666666666666L136.2112513888889,59L136.26649652777778,59L136.28539618055555,55.06666666666666L136.31301875,59L136.94252256944446,55.06666666666666L137.0224826388889,55.06666666666666L137.05301284722222,59L137.29580069444444,55.06666666666666L138.51119375,43.26666666666668L141.11207673611113,55.06666666666666L141.13969930555555,55.06666666666666L142.5717114583333,55.06666666666666L143.03257222222223,55.06666666666666L143.30879791666666,55.06666666666666L143.4018423611111,55.06666666666666L143.98918541666666,55.06666666666666L145.21184756944444,55.06666666666666L147.23411041666665,55.06666666666666L147.94357430555556,43.26666666666668L147.9784659722222,55.06666666666666L150.5720798611111,55.06666666666666L150.732,55.06666666666666L152.4794909722222,55.06666666666666L152.6888409722222,55.06666666666666L153.03775763888888,55.06666666666666L153.75885208333332,55.06666666666666L155.5703111111111,43.26666666666668L155.57176493055556,55.06666666666666L155.66044791666667,55.06666666666666L155.74767708333331,55.06666666666666L157.6768954861111,55.06666666666666L157.71614861111112,55.06666666666666L158.22789305555554,55.06666666666666L159.26592013888887,55.06666666666666L159.64100555555555,55.06666666666666L160.087328125,55.06666666666666L161.45973368055553,55.06666666666666L162.08778368055556,55.06666666666666L163.41512083333333,55.06666666666666L163.54014930555556,55.06666666666666L163.6593625,39.33333333333334L165.3443392361111,39.33333333333334L166.4957642361111,55.06666666666666L166.6513229166667,55.06666666666666L166.67894548611113,55.06666666666666L167.5875826388889,55.06666666666666L168.88729722222223,55.06666666666666L168.9352732638889,55.06666666666666L169.11118541666667,55.06666666666666L169.16643055555556,55.06666666666666L169.43684097222223,55.06666666666666L169.61711458333335,55.06666666666666L171.91414930555555,55.06666666666666L172.95653784722222,55.06666666666666L173.46828229166667,43.26666666666668L174.27660590277776,55.06666666666666L174.58045416666667,55.06666666666666L175.61702743055557,55.06666666666666L175.98484375,43.26666666666668L176.10405694444444,43.26666666666668L176.207278125,43.26666666666668L176.26979236111112,43.26666666666668L176.54747187499999,43.26666666666668L176.9530875,43.26666666666668L177.04322430555555,43.26666666666668L177.5099003472222,43.26666666666668L177.52589236111112,43.26666666666668L177.61166770833333,43.26666666666668L178.0463597222222,43.26666666666668L178.08270520833332,43.26666666666668L178.0841590277778,55.06666666666666L178.08561284722222,43.26666666666668L178.1670267361111,43.26666666666668L178.66277916666667,43.26666666666668L178.72674722222223,43.26666666666668L178.77181562500002,43.26666666666668L178.97680416666665,43.26666666666668L179.19487708333332,43.26666666666668L179.32717465277776,43.26666666666668L179.3504357638889,43.26666666666668L179.99447777777777,55.06666666666666L180.01046979166665,43.26666666666668L180.4131777777778,43.26666666666668L180.53820625,43.26666666666668L181.18370208333334,39.33333333333334L181.59222534722224,43.26666666666668L181.6402013888889,43.26666666666668L181.80157534722224,43.26666666666668L182.0719857638889,43.26666666666668L182.3860107638889,43.26666666666668L182.43980208333335,43.26666666666668L182.67822847222223,43.26666666666668L182.99225347222222,43.26666666666668L183.02278368055556,43.26666666666668L183.04604479166667,43.26666666666668L183.05476770833334,43.26666666666668L183.285925,43.26666666666668L183.3586159722222,43.26666666666668L183.62466493055555,43.26666666666668L183.6450184027778,43.26666666666668L183.88926006944445,43.26666666666668L184.01283472222224,43.26666666666668L184.05063402777776,43.26666666666668L184.43298854166667,43.26666666666668L184.81679687500002,43.26666666666668L184.88367256944446,43.26666666666668L185.05231562499998,43.26666666666668L185.81266319444444,43.26666666666668L186.0176517361111,43.26666666666668L186.046728125,43.26666666666668L186.16884895833334,43.26666666666668L186.256078125,43.26666666666668L186.28806215277777,43.26666666666668L186.7561920138889,43.26666666666668L186.81579861111112,43.26666666666668L187.01351805555555,43.26666666666668L187.03532534722223,43.26666666666668L187.39587256944444,43.26666666666668L187.54852361111114,43.26666666666668L187.55143125,43.26666666666668L187.9076170138889,43.26666666666668L188.2347263888889,43.26666666666668L188.52839791666668,39.33333333333334L188.75664756944443,43.26666666666668L188.91656770833333,43.26666666666668L189.03141944444442,43.26666666666668L189.58096319444442,43.26666666666668L189.78159027777778,43.26666666666668L190.0272857638889,43.26666666666668L190.19302118055555,43.26666666666668L190.29478854166666,43.26666666666668L190.3165958333333,43.26666666666668L190.59427534722224,43.26666666666668L190.69604270833332,43.26666666666668L191.25576319444446,43.26666666666668L191.2746628472222,43.26666666666668L191.46511319444443,39.33333333333334L191.568334375,43.26666666666668L191.63957152777778,43.26666666666668L191.79658402777778,43.26666666666668L191.92015868055557,43.26666666666668L191.94923506944443,43.26666666666668L192.196384375,43.26666666666668L192.63834548611112,39.33333333333334L192.83606493055555,43.26666666666668L192.850603125,43.26666666666668L192.98871597222222,39.33333333333334L193.05704548611112,43.26666666666668L193.13409791666666,39.33333333333334L193.27657222222223,43.26666666666668L193.30419479166667,43.26666666666668L193.6458423611111,43.26666666666668L193.94532916666665,39.33333333333334L194.13432569444447,43.26666666666668L194.44544305555553,43.26666666666668L194.48469618055557,43.26666666666668L194.525403125,39.33333333333334L194.5283107638889,39.33333333333334L194.5937326388889,39.33333333333334L195.04732430555558,43.26666666666668L195.19997534722222,43.26666666666668L195.29738125,39.33333333333334L195.32209618055558,43.26666666666668L195.52708472222224,39.33333333333334L195.74661145833332,39.33333333333334L196.0490059027778,39.33333333333334L196.15077326388888,39.33333333333334L196.1900263888889,39.33333333333334L196.200203125,39.33333333333334L196.62762604166664,43.26666666666668L196.64943333333332,39.33333333333334L196.71194756944445,39.33333333333334L196.85296805555558,39.33333333333334L196.94455868055556,39.33333333333334L197.06086423611112,39.33333333333334L197.1858927083333,43.26666666666668L197.68746041666665,39.33333333333334L197.84592673611112,39.33333333333334L197.8561034722222,43.26666666666668L197.86046493055554,39.33333333333334L198.00148541666667,43.26666666666668L198.032015625,39.33333333333334L198.22828124999998,39.33333333333334L198.41291631944446,39.33333333333334L198.54376006944443,39.33333333333334L198.7414795138889,39.33333333333334L199.27357743055558,39.33333333333334L199.38406770833333,39.33333333333334L199.44658194444446,39.33333333333334L199.47565833333334,39.33333333333334L199.52799583333334,39.33333333333334L199.5468954861111,39.33333333333334L199.73153055555554,39.33333333333334L199.87109722222223,39.33333333333334L200.20256805555556,39.33333333333334L200.32032743055555,39.33333333333334L200.7739190972222,39.33333333333334L200.92802395833334,39.33333333333334L200.95564652777776,39.33333333333334L201.02252222222222,39.33333333333334L201.24641041666666,39.33333333333334L201.250771875,39.33333333333334L201.28857118055555,39.33333333333334L201.66074895833333,39.33333333333334L201.9471513888889,39.33333333333334L202.192846875,39.33333333333334L202.47634166666668,39.33333333333334L202.50105659722223,39.33333333333334L202.5432173611111,39.33333333333334L202.67696875,39.33333333333334L202.76274409722222,39.33333333333334L203.05060034722223,39.33333333333334L203.16981354166666,39.33333333333334L203.47656944444444,39.33333333333334L203.61613611111113,39.33333333333334L203.88945416666667,39.33333333333334L204.30379270833333,39.33333333333334L204.91585069444443,39.33333333333334L205.26622118055553,39.33333333333334L205.33891215277777,39.33333333333334L205.54680833333333,39.33333333333334L206.34495520833332,39.33333333333334L206.47725277777778,39.33333333333334L207.01661979166667,39.33333333333334L207.09803368055555,39.33333333333334L207.14600972222223,39.33333333333334L207.766790625,39.33333333333334L207.81331284722222,39.33333333333334L208.24509722222223,39.33333333333334L208.43118611111112,39.33333333333334L208.43554756944445,39.33333333333334L208.6274517361111,39.33333333333334L209.12901944444442,39.33333333333334L209.17844930555555,39.33333333333334L209.84139097222223,39.33333333333334L209.8501138888889,39.33333333333334L209.85447534722223,39.33333333333334L209.93007395833334,39.33333333333334L210.21938402777778,39.33333333333334L210.32551284722223,39.33333333333334L210.95210902777777,39.33333333333334L211.01026180555556,39.33333333333334L211.33300972222222,39.33333333333334L211.45513055555557,39.33333333333334L211.55544409722222,39.33333333333334L211.62377361111112,39.33333333333334L211.74007916666667,39.33333333333334L211.75752500000002,39.33333333333334L212.15005625,39.33333333333334L212.82172083333333,39.33333333333334L212.82608229166667,39.33333333333334L212.895865625,39.33333333333334L213.00926354166666,39.33333333333334L213.24768993055557,39.33333333333334L213.65185173611113,39.33333333333334L213.72745034722223,39.33333333333334L214.4994284722222,39.33333333333334L214.65353333333334,39.33333333333334L214.88323680555555,39.33333333333334L214.91231319444444,39.33333333333334L214.98645798611113,39.33333333333334L216.06373819444445,39.33333333333334L216.18149756944445,39.33333333333334L216.39375520833332,39.33333333333334L216.67579618055555,39.33333333333334L216.77029444444443,39.33333333333334L216.94620659722224,39.33333333333334L217.02325902777775,39.33333333333334L217.44632048611112,39.33333333333334L217.8737434027778,39.33333333333334L218.181953125,39.33333333333334L218.21539097222222,39.33333333333334L218.44509444444446,39.33333333333334L218.495978125,39.33333333333334L218.78819583333333,39.33333333333334L218.888509375,39.33333333333334L220.11989444444444,39.33333333333334L220.84825798611112,39.33333333333334L221.217528125,39.33333333333334L221.37308680555557,39.33333333333334L221.4690388888889,39.33333333333334L221.86447777777778,39.33333333333334L222.31806944444443,39.33333333333334L222.34133055555554,39.33333333333334L222.47508194444444,39.33333333333334L223.34882743055556,39.33333333333334L223.69774409722223,39.33333333333334L224.30107916666665,39.33333333333334L224.35341666666665,39.33333333333334L224.5584052083333,39.33333333333334L224.92622152777776,39.33333333333334L225.48158055555555,39.33333333333334L225.8595736111111,39.33333333333334L226.3698642361111,39.33333333333334L226.40330208333333,39.33333333333334L226.67516631944446,39.33333333333334L226.84817083333334,39.33333333333334L226.89760069444446,39.33333333333334L227.23488680555556,39.33333333333334L227.4747670138889,39.33333333333334L227.91527430555556,39.33333333333334L228.4735409722222,39.33333333333334L228.81809618055556,39.33333333333334L228.82827291666666,39.33333333333334L229.36909375,39.33333333333334L229.64531944444443,39.33333333333334L230.50598055555554,39.33333333333334L230.9057809027778,39.33333333333334L230.96102604166668,39.33333333333334L231.44224027777778,39.33333333333334L231.63123680555555,39.33333333333334L234.05329999999998,39.33333333333334L234.21176631944445,39.33333333333334L235.7251923611111,39.33333333333334L238.44092708333335,39.33333333333334L239.6694045138889,39.33333333333334L240.78012256944444,39.33333333333334L243.58308645833333,39.33333333333334L243.8898423611111,39.33333333333334L244.46846250000002,39.33333333333334L246.0676638888889,39.33333333333334L246.55469340277776,39.33333333333334L247.72792569444445,39.33333333333334L250.66900243055557,39.33333333333334L252.80175555555556,39.33333333333334L252.803209375,39.33333333333334L252.80466319444446,39.33333333333334L252.8061170138889,39.33333333333334L252.80757083333333,39.33333333333334L252.80902465277777,39.33333333333334L252.81047847222223,39.33333333333334" style="fill: none;" fill="none"></path></g></g></g></g></g></g><g transform="translate(68, 177)" clip-path="url(#clip_1)"><clipPath id="clip_1"><rect width="261" height="23"></rect></clipPath><g><g><line x1="0" y1="0" x2="0" y2="5" style="visibility: inherit;" fill="rgb(0, 0, 0)" stroke="rgb(204, 204, 204)" stroke-width="1px"></line><line x1="29.076388888888886" y1="0" x2="29.076388888888886" y2="5" style="visibility: inherit;" fill="rgb(0, 0, 0)" stroke="rgb(204, 204, 204)" stroke-width="1px"></line><line x1="58.15277777777777" y1="0" x2="58.15277777777777" y2="5" style="visibility: inherit;" fill="rgb(0, 0, 0)" stroke="rgb(204, 204, 204)" stroke-width="1px"></line><line x1="87.22916666666666" y1="0" x2="87.22916666666666" y2="5" style="visibility: inherit;" fill="rgb(0, 0, 0)" stroke="rgb(204, 204, 204)" stroke-width="1px"></line><line x1="116.30555555555554" y1="0" x2="116.30555555555554" y2="5" style="visibility: inherit;" fill="rgb(0, 0, 0)" stroke="rgb(204, 204, 204)" stroke-width="1px"></line><line x1="145.38194444444446" y1="0" x2="145.38194444444446" y2="5" style="visibility: inherit;" fill="rgb(0, 0, 0)" stroke="rgb(204, 204, 204)" stroke-width="1px"></line><line x1="174.45833333333331" y1="0" x2="174.45833333333331" y2="5" style="visibility: inherit;" fill="rgb(0, 0, 0)" stroke="rgb(204, 204, 204)" stroke-width="1px"></line><line x1="203.53472222222223" y1="0" x2="203.53472222222223" y2="5" style="visibility: inherit;" fill="rgb(0, 0, 0)" stroke="rgb(204, 204, 204)" stroke-width="1px"></line><line x1="232.6111111111111" y1="0" x2="232.6111111111111" y2="5" style="visibility: inherit;" fill="rgb(0, 0, 0)" stroke="rgb(204, 204, 204)" stroke-width="1px"></line><line x1="261.6875" y1="0" x2="261.6875" y2="5" style="visibility: inherit;" fill="rgb(0, 0, 0)" stroke="rgb(204, 204, 204)" stroke-width="1px"></line></g><g transform="translate(0, 8)"><text x="0" y="0" dx="0em" dy="0.95em" style="text-anchor: middle; visibility: hidden; font-family: &quot;Helvetica Neue&quot;, sans-serif; font-size: 12px; font-weight: 200;" fill="rgb(50, 49, 63)" stroke="none" stroke-width="1px">-20k</text><text x="29.076388888888886" y="0" dx="0em" dy="0.95em" style="text-anchor: middle; visibility: inherit; font-family: &quot;Helvetica Neue&quot;, sans-serif; font-size: 12px; font-weight: 200;" fill="rgb(50, 49, 63)" stroke="none" stroke-width="1px">0</text><text x="58.15277777777777" y="0" dx="0em" dy="0.95em" style="text-anchor: middle; visibility: hidden; font-family: &quot;Helvetica Neue&quot;, sans-serif; font-size: 12px; font-weight: 200;" fill="rgb(50, 49, 63)" stroke="none" stroke-width="1px">20k</text><text x="87.22916666666666" y="0" dx="0em" dy="0.95em" style="text-anchor: middle; visibility: inherit; font-family: &quot;Helvetica Neue&quot;, sans-serif; font-size: 12px; font-weight: 200;" fill="rgb(50, 49, 63)" stroke="none" stroke-width="1px">40k</text><text x="116.30555555555554" y="0" dx="0em" dy="0.95em" style="text-anchor: middle; visibility: hidden; font-family: &quot;Helvetica Neue&quot;, sans-serif; font-size: 12px; font-weight: 200;" fill="rgb(50, 49, 63)" stroke="none" stroke-width="1px">60k</text><text x="145.38194444444446" y="0" dx="0em" dy="0.95em" style="text-anchor: middle; visibility: inherit; font-family: &quot;Helvetica Neue&quot;, sans-serif; font-size: 12px; font-weight: 200;" fill="rgb(50, 49, 63)" stroke="none" stroke-width="1px">80k</text><text x="174.45833333333331" y="0" dx="0em" dy="0.95em" style="text-anchor: middle; visibility: hidden; font-family: &quot;Helvetica Neue&quot;, sans-serif; font-size: 12px; font-weight: 200;" fill="rgb(50, 49, 63)" stroke="none" stroke-width="1px">100k</text><text x="203.53472222222223" y="0" dx="0em" dy="0.95em" style="text-anchor: middle; visibility: inherit; font-family: &quot;Helvetica Neue&quot;, sans-serif; font-size: 12px; font-weight: 200;" fill="rgb(50, 49, 63)" stroke="none" stroke-width="1px">120k</text><text x="232.6111111111111" y="0" dx="0em" dy="0.95em" style="text-anchor: middle; visibility: hidden; font-family: &quot;Helvetica Neue&quot;, sans-serif; font-size: 12px; font-weight: 200;" fill="rgb(50, 49, 63)" stroke="none" stroke-width="1px">140k</text><text x="261.6875" y="0" dx="0em" dy="0.95em" style="text-anchor: middle; visibility: hidden; font-family: &quot;Helvetica Neue&quot;, sans-serif; font-size: 12px; font-weight: 200;" fill="rgb(50, 49, 63)" stroke="none" stroke-width="1px">160k</text></g><line x1="0" y1="0" x2="261.6875" y2="0" fill="rgb(0, 0, 0)" stroke="rgb(204, 204, 204)" stroke-width="1px"></line></g></g></g></g></svg>