<svg viewBox="0 0 330 200" xmlns="http://www.w3.org/2000/svg"><g><g><g><g><g><line x1="68.3125" y1="177" x2="63.3125" y2="177" style="visibility: inherit;" fill="rgb(0, 0, 0)" stroke="rgb(204, 204, 204)" stroke-width="1px"></line><line x1="68.3125" y1="157.33333333333334" x2="63.3125" y2="157.33333333333334" style="visibility: inherit;" fill="rgb(0, 0, 0)" stroke="rgb(204, 204, 204)" stroke-width="1px"></line><line x1="68.3125" y1="137.66666666666669" x2="63.3125" y2="137.66666666666669" style="visibility: inherit;" fill="rgb(0, 0, 0)" stroke="rgb(204, 204, 204)" stroke-width="1px"></line><line x1="68.3125" y1="118" x2="63.3125" y2="118" style="visibility: inherit;" fill="rgb(0, 0, 0)" stroke="rgb(204, 204, 204)" stroke-width="1px"></line><line x1="68.3125" y1="98.33333333333334" x2="63.3125" y2="98.33333333333334" style="visibility: inherit;" fill="rgb(0, 0, 0)" stroke="rgb(204, 204, 204)" stroke-width="1px"></line><line x1="68.3125" y1="78.66666666666666" x2="63.3125" y2="78.66666666666666" style="visibility: inherit;" fill="rgb(0, 0, 0)" stroke="rgb(204, 204, 204)" stroke-width="1px"></line><line x1="68.3125" y1="59" x2="63.3125" y2="59" style="visibility: inherit;" fill="rgb(0, 0, 0)" stroke="rgb(204, 204, 204)" stroke-width="1px"></line><line x1="68.3125" y1="39.33333333333334" x2="63.3125" y2="39.33333333333334" style="visibility: inherit;" fill="rgb(0, 0, 0)" stroke="rgb(204, 204, 204)" stroke-width="1px"></line><line x1="68.3125" y1="19.666666666666686" x2="63.3125" y2="19.666666666666686" style="visibility: inherit;" fill="rgb(0, 0, 0)" stroke="rgb(204, 204, 204)" stroke-width="1px"></line><line x1="68.3125" y1="0" x2="63.3125" y2="0" style="visibility: inherit;" fill="rgb(0, 0, 0)" stroke="rgb(204, 204, 204)" stroke-width="1px"></line></g><g transform="translate(58.3125, 0)"><text x="0" y="177" dx="0em" dy="0.3em" style="text-anchor: end; visibility: hidden; font-family: &quot;Helvetica Neue&quot;, sans-serif; font-size: 12px; font-weight: 200;" fill="rgb(50, 49, 63)" stroke="none" stroke-width="1px">-2e+3</text><text x="0" y="157.33333333333334" dx="0em" dy="0.3em" style="text-anchor: end; visibility: inherit; font-family: &quot;Helvetica Neue&quot;, sans-serif; font-size: 12px; font-weight: 200;" fill="rgb(50, 49, 63)" stroke="none" stroke-width="1px">0</text><text x="0" y="137.66666666666669" dx="0em" dy="0.3em" style="text-anchor: end; visibility: hidden; font-family: &quot;Helvetica Neue&quot;, sans-serif; font-size: 12px; font-weight: 200;" fill="rgb(50, 49, 63)" stroke="none" stroke-width="1px">2e+3</text><text x="0" y="118" dx="0em" dy="0.3em" style="text-anchor: end; visibility: inherit; font-family: &quot;Helvetica Neue&quot;, sans-serif; font-size: 12px; font-weight: 200;" fill="rgb(50, 49, 63)" stroke="none" stroke-width="1px">4e+3</text><text x="0" y="98.33333333333334" dx="0em" dy="0.3em" style="text-anchor: end; visibility: hidden; font-family: &quot;Helvetica Neue&quot;, sans-serif; font-size: 12px; font-weight: 200;" fill="rgb(50, 49, 63)" stroke="none" stroke-width="1px">6e+3</text><text x="0" y="78.66666666666666" dx="0em" dy="0.3em" style="text-anchor: end; visibility: inherit; font-family: &quot;Helvetica Neue&quot;, sans-serif; font-size: 12px; font-weight: 200;" fill="rgb(50, 49, 63)" stroke="none" stroke-width="1px">8e+3</text><text x="0" y="59" dx="0em" dy="0.3em" style="text-anchor: end; visibility: hidden; font-family: &quot;Helvetica Neue&quot;, sans-serif; font-size: 12px; font-weight: 200;" fill="rgb(50, 49, 63)" stroke="none" stroke-width="1px">1e+4</text><text x="0" y="39.33333333333334" dx="0em" dy="0.3em" style="text-anchor: end; visibility: inherit; font-family: &quot;Helvetica Neue&quot;, sans-serif; font-size: 12px; font-weight: 200;" fill="rgb(50, 49, 63)" stroke="none" stroke-width="1px">1.2e+4</text><text x="0" y="19.666666666666686" dx="0em" dy="0.3em" style="text-anchor: end; visibility: hidden; font-family: &quot;Helvetica Neue&quot;, sans-serif; font-size: 12px; font-weight: 200;" fill="rgb(50, 49, 63)" stroke="none" stroke-width="1px">1.4e+4</text><text x="0" y="0" dx="0em" dy="0.3em" style="text-anchor: end; visibility: hidden; font-family: &quot;Helvetica Neue&quot;, sans-serif; font-size: 12px; font-weight: 200;" fill="rgb(50, 49, 63)" stroke="none" stroke-width="1px">1.6e+4</text></g><line x1="68.3125" y1="0" x2="68.3125" y2="177" fill="rgb(0, 0, 0)" stroke="rgb(204, 204, 204)" stroke-width="1px"></line></g></g><g transform="translate(68, 0)" clip-path="url(#clip_0)"><clipPath id="clip_0"><rect width="261" height="177"></rect></clipPath><g><g><g><line x1="0" y1="0" x2="0" y2="177" fill="rgb(0, 0, 0)" stroke="rgb(60, 60, 60)" stroke-width="1px" opacity="0.25"></line><line x1="29.076388888888886" y1="0" x2="29.076388888888886" y2="177" fill="rgb(0, 0, 0)" stroke="rgb(60, 60, 60)" stroke-width="1px" opacity="0.25"></line><line x1="58.15277777777777" y1="0" x2="58.15277777777777" y2="177" fill="rgb(0, 0, 0)" stroke="rgb(60, 60, 60)" stroke-width="1px" opacity="0.25"></line><line x1="87.22916666666666" y1="0" x2="87.22916666666666" y2="177" fill="rgb(0, 0, 0)" stroke="rgb(60, 60, 60)" stroke-width="1px" opacity="0.25"></line><line x1="116.30555555555554" y1="0" x2="116.30555555555554" y2="177" fill="rgb(0, 0, 0)" stroke="rgb(60, 60, 60)" stroke-width="1px" opacity="0.25"></line><line x1="145.38194444444446" y1="0" x2="145.38194444444446" y2="177" fill="rgb(0, 0, 0)" stroke="rgb(60, 60, 60)" stroke-width="1px" opacity="0.25"></line><line x1="174.45833333333331" y1="0" x2="174.45833333333331" y2="177" fill="rgb(0, 0, 0)" stroke="rgb(60, 60, 60)" stroke-width="1px" opacity="0.25"></line><line x1="203.53472222222223" y1="0" x2="203.53472222222223" y2="177" fill="rgb(0, 0, 0)" stroke="rgb(60, 60, 60)" stroke-width="1px" opacity="0.25"></line><line x1="232.6111111111111" y1="0" x2="232.6111111111111" y2="177" fill="rgb(0, 0, 0)" stroke="rgb(60, 60, 60)" stroke-width="1px" opacity="0.25"></line><line x1="261.6875" y1="0" x2="261.6875" y2="177" fill="rgb(0, 0, 0)" stroke="rgb(60, 60, 60)" stroke-width="1px" opacity="0.25"></line></g><g><line x1="0" y1="177" x2="261.6875" y2="177" fill="rgb(0, 0, 0)" stroke="rgb(60, 60, 60)" stroke-width="1px" opacity="0.25"></line><line x1="0" y1="157.33333333333334" x2="261.6875" y2="157.33333333333334" fill="rgb(0, 0, 0)" stroke="rgb(60, 60, 60)" stroke-width="1px" opacity="0.25"></line><line x1="0" y1="137.66666666666669" x2="261.6875" y2="137.66666666666669" fill="rgb(0, 0, 0)" stroke="rgb(60, 60, 60)" stroke-width="1px" opacity="0.25"></line><line x1="0" y1="118" x2="261.6875" y2="118" fill="rgb(0, 0, 0)" stroke="rgb(60, 60, 60)" stroke-width="1px" opacity="0.25"></line><line x1="0" y1="98.33333333333334" x2="261.6875" y2="98.33333333333334" fill="rgb(0, 0, 0)" stroke="rgb(60, 60, 60)" stroke-width="1px" opacity="0.25"></line><line x1="0" y1="78.66666666666666" x2="261.6875" y2="78.66666666666666" fill="rgb(0, 0, 0)" stroke="rgb(60, 60, 60)" stroke-width="1px" opacity="0.25"></line><line x1="0" y1="59" x2="261.6875" y2="59" fill="rgb(0, 0, 0)" stroke="rgb(60, 60, 60)" stroke-width="1px" opacity="0.25"></line><line x1="0" y1="39.33333333333334" x2="261.6875" y2="39.33333333333334" fill="rgb(0, 0, 0)" stroke="rgb(60, 60, 60)" stroke-width="1px" opacity="0.25"></line><line x1="0" y1="19.666666666666686" x2="261.6875" y2="19.666666666666686" fill="rgb(0, 0, 0)" stroke="rgb(60, 60, 60)" stroke-width="1px" opacity="0.25"></line><line x1="0" y1="0" x2="261.6875" y2="0" fill="rgb(0, 0, 0)" stroke="rgb(60, 60, 60)" stroke-width="1px" opacity="0.25"></line></g></g></g><g><g><line x1="0" y1="157.33333333333334" x2="261.6875" y2="157.33333333333334" fill="rgb(0, 0, 0)" stroke="rgb(153, 153, 153)" stroke-width="1.5px"></line></g></g><g><g><line x1="29.076388888888886" y1="0" x2="29.076388888888886" y2="177" fill="rgb(0, 0, 0)" stroke="rgb(153, 153, 153)" stroke-width="1.5px"></line></g></g><g><g><g><g><g><path stroke="rgb(255, 112, 67)" stroke-width="2px" d="M29.201417361111112,140.715L29.499450347222222,145.63166666666666L29.58086423611111,147.77250307503076L29.854182291666664,147.89341911408354L29.862905208333334,147.98944791742977L29.963218750000003,148.28373004964868L30.085339583333333,148.15235327302702L30.14930763888889,146.79468723363584L30.457517361111112,147.0221917574849L30.473509375,147.15594160233607L30.850048611111113,146.20295764507765L30.995430555555558,146.47963788613987L31.060852430555556,147.20976180031454L31.09138263888889,147.31114566273953L31.197511458333334,146.10902514141608L31.418492013888887,146.20734069848766L31.691810069444443,146.1264496077993L31.904067708333336,146.65829906382044L32.017465625,146.73287684286382L32.03781909722222,146.8537892893154L32.18901631944445,143.9672329503722L32.238446180555556,144.41363688227773L32.49722604166667,144.7738668169117L32.549563541666664,145.10216751409445L32.6062625,145.7948445762563L32.64987708333333,145.8509875629778L32.70076076388889,145.8903440422667L32.85922708333333,145.20933590503756L33.00897048611111,144.56225741837306L33.065669444444445,144.79715596465655L33.15726006944444,145.3746391997559L33.352071875,144.03673591102395L33.50036145833333,144.71880713904778L33.561421875,144.64075558997942L33.85945486111111,143.3908940531167L33.99320625,143.11713734735963L34.05426666666666,142.16937384389826L34.19528715277777,141.80087882778287L34.32903854166667,141.5305174111703L34.340669097222225,141.67730194168308L34.67650138888889,142.01827429943705L34.727385069444445,142.0555599390463L34.76809201388889,140.66754774781185L34.84078298611111,139.9871950917018L34.957088541666664,139.40590207828816L34.989072569444446,140.10278601027193L35.12427777777778,140.9071942946668L35.128639236111106,141.0461926010337L35.34671215277778,140.16234539669838L35.54443159722222,140.19812860899424L35.72906666666667,140.67486035284597L36.03582256944444,140.41227815295971L36.128867013888886,140.24525615228322L36.330947916666666,140.0161224127476L37.3166375,138.78426130680884L37.320998958333334,138.2284795970135L37.42567395833333,138.1918747383986L37.70044583333333,136.2273288581619L37.74115277777778,135.99713635200737L37.746968055555556,136.20379408287755L37.774590625,136.51775578108806L37.93887222222222,134.55495652822862L38.088615625,133.52744815169302L38.1540375,133.78433954955676L38.16130659722222,133.62173305014335L38.3633875,131.96948183704052L38.64542847222222,132.59874117120467L38.69921979166667,132.3973779554278L39.14408854166667,131.99969662803136L39.15862673611111,131.8287865432679L39.26475555555556,131.93079874908665L39.38978402777778,131.68809569539178L39.54825034722222,131.36147026455836L39.58604965277778,129.82802617515193L39.648563888888894,129.69734187261628L39.7765,128.93051900795436L39.88408263888889,128.7224047372531L40.06871770833334,128.78101340488507L40.26207569444444,127.91903615323041L40.299875,127.6940833914651L40.44234930555556,128.1210923471634L40.5615625,128.03330090982615L40.59936180555555,126.70525930443148L40.68077569444445,126.85742185180493L40.74619756944445,126.88618337706275L40.766551041666666,127.01041279650893L40.85814166666667,125.78474343970964L40.85959548611111,125.99945595528192L41.08057604166667,126.67456750220626L41.21723506944445,127.12481171706256L41.307371874999994,127.01865660073592L41.44257708333333,125.97906012709672L41.47601493055556,126.47918188779217L41.727525694444445,126.95878766968983L41.88017673611111,125.67935135116466L41.88744583333333,125.58991259523053L41.93978333333333,124.42771232382132L42.061904166666665,123.63741517613329L42.07644236111111,124.41102982328356L42.46897361111112,124.8417716153931L42.48787326388889,124.42308444502854L42.54311840277778,125.04928947315972L42.668146875,126.40938686176284L42.689954166666666,126.56161749516639L42.83533611111111,127.21979940206636L42.867320138888886,127.47782310407493L42.94582638888889,126.45136108658633L43.06649340277778,126.48139198796201L43.32818090277778,126.39041851967636L43.48810104166667,126.99688228440444L43.643659722222225,125.16301210353379L43.77595729166667,124.4958725551506L43.845740625,123.74794691664395L43.86318645833333,124.35315590246907L44.03764479166667,125.70418103398296L44.21355694444444,124.81575855787509L44.308055208333336,124.81268268846242L44.421453125000006,125.13441570227675L44.54357395833333,125.24697453591591L44.545027777777776,124.24694051963513L44.60754201388889,124.65474765289022L44.83869930555555,125.14960751533417L44.956458680555556,124.88697947887607L44.97535833333333,125.82078350944683L45.00152708333333,125.49103786306412L45.03932638888889,126.08910176979398L45.04078020833333,125.87019125469888L45.17598541666667,124.99467091218172L45.25449166666667,124.50170320422345L45.27920659722222,124.95286672513032L45.29519861111111,125.47691391700519L45.42895,122.86088680606447L45.45366493055556,123.35813186694551L45.497279513888884,123.37298535789063L45.594685416666664,123.986187229803L45.663014930555555,123.76123503888117L45.798220138888894,124.45361190787068L45.80694305555556,124.36875067595201L45.80985069444444,123.00420834644507L46.38992465277778,123.24128760487807L46.47279236111111,123.94632576017571L46.565836805555556,123.72535978055615L46.64288923611111,123.67399045446498L47.333453472222224,124.08009151362421L47.34217638888889,123.08858213240322L47.532626736111105,122.60922381914756L47.563156944444444,120.03413428701631L47.64166319444445,119.10305403429376L47.65765520833334,119.34674866793074L47.85973611111111,118.76957372212732L48.04873263888889,118.09278293319906L48.122877430555555,117.69017126190339L48.33658888888889,116.9934873995216L48.38165729166667,116.74997197103154L48.561930902777775,114.57397459803587L48.62880659722222,114.53307713525703L48.66515208333333,112.87376931308852L48.76255798611111,112.85539238069677L48.95446215277778,112.25868644431439L48.973361805555555,111.48565109631846L49.054775694444444,111.56675265683724L49.20161145833333,111.47257738751249L49.30628645833334,111.37798631213651L49.570881597222225,111.90252103068272L49.655203125,111.96160226261297L49.76278576388889,111.80827536579568L49.78895451388889,111.68994782651473L49.99975833333333,111.54411970753364L50.008481249999996,111.61937440483855L50.09571041666667,111.13643695631727L50.17712430555555,111.0951265934001L50.18439340277778,111.77578060990243L50.300698958333335,111.65086921406335L50.30215277777778,111.55811562497753L50.40828159722223,111.46480406156277L50.412643055555556,111.39065698808402L50.64380034722222,111.08792462019913L50.732483333333334,111.19896549230808L50.808081944444446,111.34806894403864L50.84297361111111,111.86576205263894L50.88804201388889,113.11835252058361L51.08576145833334,113.0558506015648L51.16572152777778,114.65159888149228L51.366348611111114,115.69443899731351L51.42159375,116.42649510009062L51.65275104166667,115.85617892165607L51.814125000000004,116.51306103131367L52.1804875,115.99308826021674L52.334592361111106,115.6431127667416L52.426182986111115,115.73130149024587L52.47415902777777,116.5875046761138L52.58901076388889,116.2862542080087L52.66751701388889,117.7752954560709L52.70677013888889,118.31893257785217L52.871051736111106,117.7560393193944L52.879774652777776,117.20026872019068L53.110931944444445,117.32940851496326L53.25049861111111,116.28530099589085L53.37698090277778,117.51877089726867L53.38279618055556,117.61606047427712L53.65029895833334,118.37228776066291L53.789865625000004,118.18755898449103L54.11988263888889,118.21796975272426L54.14459756944445,117.4488394437625L54.743571180555556,117.84812216621923L54.77700902777777,116.73247661584568L54.800270138888884,117.33122895446314L54.823531249999995,117.9192727258621L54.83370798611111,118.79267878684794L55.33672951388888,118.61507757478611L55.704545833333334,119.75323648422615L55.713268750000005,118.76174616893931L55.80631319444444,118.42990488531922L55.934249305555554,118.45574773012478L56.03020138888889,119.05917295719996L56.66552048611111,119.3564223281855L56.74257291666667,118.33578009524686L56.95337673611111,118.50870208574048L57.324100694444446,118.61516521050991L57.35753854166667,116.61648202262081L57.40551458333333,117.1776671537354L57.71953958333333,117.68273377173028L57.956512152777776,117.8717937279024L58.090263541666666,118.41561435514276L58.32142083333333,118.8165529196488L58.42318819444445,119.4723976277138L58.66161458333333,120.14132453163654L58.85642638888889,119.11102541176817L58.86224166666667,118.77375620391348L58.984362499999996,117.39838058348101L59.128290625000005,117.67487585847368L59.31583333333333,116.33072160592708L59.36090173611111,116.37964944533545L59.51209895833333,112.49035116739225L59.51791423611111,113.58214938400563L60.026751041666664,114.71226777895637L60.37566770833333,114.30354100105488L60.77837569444444,113.22768690093554L60.8685125,113.96058487751716L60.878689236111114,115.07252638977702L60.92666527777778,114.61794041746172L60.93538819444445,114.11047970904461L61.62013715277778,112.59176507146194L61.666659375,114.35192189766111L61.73935034722222,115.20839637456695L61.95742326388889,115.52689007044535L61.97632291666667,116.28553439673794L62.10135138888889,116.0243142903963L62.22492604166667,114.82554952801848L62.35140833333333,115.08399457521757L63.03615729166667,115.89676178436515L63.04633402777778,116.02841893926237L63.33855173611111,115.47824371200133L63.62495416666667,115.69108600746837L63.62640798611111,116.66931074005697L63.725267708333334,115.25854633271523L63.79505104166667,116.1226916994452L63.824127430555556,117.01842252950209L64.08872256944444,118.02124694321995L64.22538159722222,119.11062224889935L64.64117395833333,119.01922669067596L64.64262777777778,118.16997068827416L64.76765625,118.3791402861136L65.4509513888889,118.39039292416892L65.45531284722222,116.85668696508421L65.5628954861111,117.40368493524284L65.801321875,118.50564977505255L66.03829444444445,117.92408479754698L66.04556354166667,118.71834298445934L66.32905833333334,116.73884201934585L66.40029548611112,115.18345781741064L66.4584482638889,113.45911203566897L66.57475381944444,113.71653416543549L66.84661805555555,114.35138074889213L67.005084375,115.27674267400315L67.01962256944444,115.29340173993617L67.20861909722223,112.74189489927537L67.37290069444444,110.8290387426808L67.62150381944444,112.1558015350796L67.63749583333333,113.28105471490515L67.79450833333334,113.98894924341474L67.86865312500001,114.09505431907328L67.99368159722222,115.19354888716607L68.01258125000001,115.81836066511622L68.10562569444446,116.94119126527136L68.17250138888889,117.37157213874426L68.30770659722224,116.77558159153645L68.47344201388889,117.60602343238286L68.70459930555556,117.61592108914456L68.86161180555555,118.33282898023015L68.89214201388889,118.92887941554048L69.07968472222221,118.99332480731978L69.32392638888888,119.11032565992113L69.48384652777777,118.39945976059568L69.49983854166666,118.10384711786942L69.53036875,117.3657957394158L69.54926840277778,115.88538283214085L69.67865833333333,114.97584454892674L69.86329340277777,114.30476009403405L70.10171979166665,112.93378408463062L70.39102986111111,113.72557234283423L70.46953611111111,114.17268177521748L70.48552812499999,114.97824693102908L70.616371875,115.91958890459284L70.747215625,114.77063001413356L70.85915972222223,114.15940034605352L70.86933645833332,113.25529364478149L70.88387465277778,113.74943094697002L71.03071041666668,114.51865451893968L71.3723579861111,113.46062240037904L71.57298506944444,114.51439349367448L71.7648892361111,114.51878747764036L71.97860069444444,115.49624206320966L71.98441597222222,116.4841178568887L72.20103506944444,117.05853940453316L72.36967812500001,115.61868546407985L72.68515694444444,114.31298358433853L72.86833819444445,114.73085189257134L72.90322986111111,114.10393336998087L73.00208958333333,113.64787336631612L73.23760833333333,113.45375269635116L73.26086944444445,112.8562107600494L73.35246006944443,113.78358968404444L73.50947256944445,114.30356404897334L73.60397083333334,114.31920764407602L73.93108020833334,113.53678687966841L73.97614861111111,112.64577485836823L74.1782295138889,113.12219737253142L74.17968333333333,114.33764430194495L74.21166736111111,113.8090465384171L75.051975,112.6941418845754L75.21480277777778,111.1990610294512L75.41252222222222,109.95182159317274L75.562265625,110.98280610052213L75.67857118055555,112.12702549046992L75.70328611111111,111.27865627475626L75.75416979166665,110.5249573139473L75.96061215277777,110.29896158255256L75.9911423611111,110.7445654242973L76.03184930555555,111.58810888186757L76.15978541666667,110.66579799368081L76.26591423611112,111.52705152764605L76.37495069444444,112.91184637488145L76.68316041666667,111.8866617373933L76.70642152777778,112.70449556365398L76.9986392361111,110.98221267395523L77.00736215277777,110.9169914065597L77.08586840277778,111.7629589325704L77.52928333333334,110.52816303931336L77.58888993055555,109.46601340204869L77.73136423611112,109.25741206184382L77.83167777777777,108.4993375223261L77.98142118055556,107.55157043676016L78.0453892361111,107.65241339308413L78.12389548611111,107.35967205377572L78.32888402777778,107.29287151506483L78.35650659722222,107.79325103022501L78.48008125,108.52875926053584L78.55567986111112,108.01071666781559L78.64145520833333,108.92114500103403L78.71560000000001,108.57036383426396L78.77375277777779,109.14949411750423L79.27241284722223,109.87721137242048L79.67948229166666,109.89299023517843L79.69983576388888,109.18935787832726L79.76380381944445,110.28675542382787L79.78561111111111,110.9794132147784L79.79288020833333,111.8093052266339L79.85684826388889,110.02904137063717L79.89028611111111,109.67563723357345L80.13162013888889,108.86590684354944L80.19994965277778,108.80581615919449L80.47617534722222,108.85006787660838L80.49798263888889,106.50039442228088L80.75094722222222,106.52935498005279L81.11149444444445,105.62125281538084L81.26269166666667,105.8954608671761L81.4996642361111,107.5287481137918L81.52292534722223,105.4980399690793L81.55636319444444,106.43356930550469L82.14516006944444,106.34137904162088L82.28908819444445,105.3832411374588L82.32834131944445,106.07458369037958L82.34578715277779,105.56595865467496L82.48680763888889,105.10819612254079L82.55368333333334,105.22720984362005L82.66562743055555,105.8456555259247L82.99709826388889,102.79342330666556L83.02472083333333,101.600080975999L83.13957256944445,101.3520728783991L83.1642875,100.57819892389253L83.31839236111111,101.4747123648366L83.45650520833334,100.60990779501961L83.77198402777778,100.22491701551766L83.805421875,100.75359198063256L83.98278784722221,100.51156611590264L83.99296458333333,100.30357617097904L84.09182430555555,99.75255188721447L84.171784375,99.76796336515967L84.472725,98.27733369531038L84.64282187500001,98.53860032577934L85.15602013888889,98.96057362653474L85.25487986111112,98.6913495972146L85.33193229166666,98.93088130415981L85.5092982638889,98.37945984041048L85.54273611111111,99.11234718970276L85.64886493055556,99.63427913739916L85.65904166666667,99.63201789032591L85.68811805555555,98.80398276795998L85.79715451388888,98.47175115783065L85.85676111111111,99.11674270871426L85.87129930555555,98.86140177117616L86.15334027777779,99.83126159405853L86.25946909722222,99.00296876798602L86.44119652777778,98.39517189118742L87.17537534722223,98.40865470206866L87.5606375,98.11595589852847L87.83395555555556,97.71486030867561L87.90955416666667,96.63604094447473L87.99678333333333,96.48127018336058L88.19741041666667,96.13547649835785L88.22212534722223,96.07009551518873L88.2512017361111,96.16858596366986L88.60011840277778,95.90322736730288L88.61901805555556,95.10390463057259L88.66117881944444,93.95184750084866L88.75567708333334,93.79999608409712L89.274690625,91.90316314235407L89.28632118055556,92.59534682811866L89.37355034722222,89.70781214530682L89.64686840277778,89.79353093077613L89.97833923611111,87.33367783769852L90.84045416666667,87.58797672059532L91.33620659722222,87.39401238186915L91.54555659722223,88.50761114368221L91.58917118055555,88.23151669598066L91.69093854166667,88.66153169304926L92.04712430555556,88.57654519041098L92.10673090277778,87.49705733803656L92.26374340277778,87.23351827089957L92.5879451388889,85.80649977714296L92.88161666666666,86.81334979942864L92.96157673611111,86.13634815281911L93.40499166666666,85.98921333753721L93.73791631944444,87.09579200378347L93.93418194444445,85.15154613673846L93.98797326388889,84.90622485639796L94.07665625,83.70210237075815L94.09991736111111,84.673558800349L94.35578958333333,84.77103625364745L95.40835486111112,85.2029326282827L95.42580069444445,85.34580603212109L95.86194652777777,82.79972542890899L95.92446076388889,83.15341955268472L96.19196354166667,83.80607759741626L96.21667847222221,83.80346983767464L96.6513704861111,84.68612285390716L96.74586875,83.89734390184978L97.07588576388889,83.87577617833148L97.27505902777779,83.92519856049833L97.4000875,83.95001203778182L97.45533263888889,84.11984416733698L97.54983090277779,84.91185975060326L97.92491631944445,82.64517377554293L98.067390625,80.58548973132197L98.381415625,79.8527740915231L98.4046767361111,79.69483001570414L98.48899826388889,78.43168034746705L98.96730486111112,78.45517897938701L99.11704826388889,77.8371610814483L99.56046319444444,76.98594497330348L99.63751562499999,76.49518380930647L100.213228125,74.62668209504248L100.23503541666666,74.1456805522049L100.28010381944445,70.92896249698441L100.51271493055556,70.13923291395265L100.64646631944444,70.74614295589072L101.0215517361111,71.44969532696831L101.03608993055556,69.14174246093816L101.93455034722221,68.82573488151101L102.02468715277779,68.47249472669324L102.08865520833334,65.18392858735726L102.11627777777778,67.49586906195485L102.53061631944445,68.00328215575936L102.88534826388889,68.45995394018344L103.04090694444444,68.91029187949843L103.38836979166666,67.32827935821524L104.23158506944445,65.43246808906038L104.45111180555556,65.44805461348767L104.4758267361111,67.7827491521389L104.72152222222223,67.58297423692504L104.96867152777777,65.60269347989917L105.65196666666667,63.68277413190927L105.86422430555555,64.32566338538501L105.98634513888888,65.01243038017984L106.80339166666667,63.849704008828525L107.29332881944445,64.38740027461233L107.29914409722223,63.71001024715109L107.46633333333334,63.986342555769326L107.73528993055555,64.59887496685906L108.06239930555556,64.34382080350647L108.16707430555556,64.78293872315584L108.18888159722222,62.78766151750692L108.20341979166666,63.11689536575622L108.3153638888889,61.642222495847264L108.76750173611111,62.06633357959586L109.97417187500001,59.61505022163628L110.01197118055556,57.723561866139306L110.06576249999999,57.79122234619203L110.41758680555556,58.590600111572826L110.86827083333334,60.22454010041555L111.060175,61.20341942370732L111.56901180555556,61.494410814669905L111.58500381944444,62.31680306653625L111.79726145833334,63.39128942654929L111.936828125,62.22351048389436L112.00225,62.078159435504915L112.04731840277778,61.868676825287764L112.96613229166665,61.433325809425654L113.10279131944445,60.225343228483084L113.40373194444444,58.97099223896811L113.47787673611111,59.554059681737954L113.90820729166667,59.61665371356415L114.00997465277779,60.390821675541076L114.37924479166666,60.22125617465362L114.38506006944445,60.2564638905216L114.75869166666666,60.03150083480277L114.86918194444443,61.01001741798915L115.286428125,61.27118234285689L115.30096631944444,60.315414108571204L115.52776215277777,59.032389364380734L116.4872829861111,58.379167094609315L116.51781319444444,55.64760038514838L116.55852013888888,56.91700701330019L116.58468888888889,57.20397297863683L117.10515625000001,57.94407568077314L117.60236250000001,57.68485144602914L118.00652430555554,57.924532968092905L118.85700868055555,58.66141300461696L119.16957986111112,56.8652883708219L119.18557187500001,55.86827620040637L119.37311458333333,57.34178191369908L120.19888402777778,57.309953722329155L120.48528645833332,57.66579168342959L120.64811423611111,57.81887918175329L120.74261249999999,59.63815793024462L120.92724756944445,59.10135880388681L120.97958506944445,58.06757292349812L121.13078229166666,58.52464896448164L121.37502395833333,59.201517401366814L121.37938541666666,60.243365661230115L121.423,60.256695761773784L121.80390069444445,61.15369285226306L121.88240694444444,59.255840233703424L121.95509791666667,58.90477287699976L122.378159375,57.802145589299755L122.47120381944444,57.006447697036464L122.5220875,56.270652927332804L122.62821631944445,55.99193763459952L122.9407875,53.095927204472886L123.71567326388889,53.55751781735893L123.86250902777778,54.58359936895637L123.91630034722222,55.389072765394076L124.05005173611112,55.15918215552132L124.60686458333333,55.3456139399692L124.74497743055555,54.412069212638926L125.34976631944446,55.51002895804169L125.58237743055555,56.1441927289042L126.63639652777778,55.67162345601376L127.37202916666668,54.97097777707906L127.42436666666667,52.91456333270446L127.62935520833334,55.23410699943402L127.68460034722223,54.301879632823955L127.91285,54.377375002874885L128.0247940972222,53.275154169254066L128.18616805555556,53.13865541899531L128.49437777777777,54.23612321042911L128.57288402777777,55.67617755605285L129.40592256944444,56.77555980044757L129.96273541666667,55.78752048706946L130.17935451388888,55.645618438362504L130.33782083333332,54.32807326119291L130.5820625,55.38526593507363L130.80013541666668,54.211756008232925L131.91666874999999,54.27659707407629L131.97482152777778,55.12260403333532L132.4167826388889,55.805343630001786L132.44295138888887,56.71480926700161L132.60723298611111,57.454661673634774L132.75261493055558,58.33686217293797L132.78605277777777,58.531009288977515L133.21056805555554,57.86892502674641L133.866240625,57.499215857405105L134.13519722222222,57.75746093833125L134.51900555555554,57.57589817783145L134.70509444444443,57.50099169338162L134.80976944444444,57.749225857376814L135.1877625,56.35898660497244L135.77510555555554,57.80308794447521L135.87105763888889,58.42427915002769L136.16618298611112,58.83585123502492L136.613959375,59.35376611152243L136.901815625,59.268239500370186L137.0355670138889,59.3397488836665L137.18094895833335,58.734457328633184L137.5269579861111,58.32736159576986L137.87151319444445,58.59129210285954L138.36145034722222,59.41882955924025L138.42251076388888,57.1929632699829L138.65512187500002,56.04518360965126L139.32387881944445,56.48816524868613L139.39511597222224,54.5946987238175L139.414015625,53.93291218476908L139.62481944444446,54.21247096629216L139.87633020833331,53.765907202996274L140.82858194444447,51.82999981602998L141.05101631944444,52.251016501093645L141.95965347222221,51.676098184317624L142.11375833333335,51.00133836588584L142.32310833333335,52.25353786263061L142.52082777777778,53.00685074303421L142.94534305555555,53.55601566873078L143.16777743055556,53.50943076852435L143.22011493055555,53.408504358338575L143.5981079861111,52.521170589171376L143.61846145833331,53.09923686358758L144.019715625,54.07281317722881L144.2392423611111,53.286215192839265L144.60124340277778,53.936260340222006L144.66957291666665,53.61565097286646L145.08972673611112,53.90726920891315L145.602925,54.10089228802181L145.616009375,54.50131972588629L146.19608333333332,54.87153775329766L146.2789510416667,55.707217311301235L146.44904791666667,56.54782891350443L146.7703420138889,56.38889602215397L147.47689826388887,55.665689753271906L147.62954930555554,56.38262077794471L148.01481145833333,57.037692033483566L148.10058680555557,56.977272830135206L148.19508506944445,57.10972888045501L148.61087743055558,56.304605992409506L149.0935454861111,56.35682872650186L149.80446319444445,55.990829187185014L149.92513020833331,55.307429601799825L150.5938871527778,53.76803664161986L150.666578125,54.950066310791215L151.0096795138889,54.71490967971208L151.02131006944444,54.7196020450742L151.85144097222224,52.8653251739001L152.02153784722222,52.6026426565101L152.07387534722224,54.10771172419241L152.2556027777778,53.86829055177317L152.39807708333333,53.34797816326251L152.55218194444444,52.88953034693624L153.00868125,53.13576064557594L153.30816805555554,52.63953458101834L153.44628090277777,53.52141445624984L154.01472430555555,52.957123010624855L154.02053958333335,53.10809404289569L154.277865625,54.14961797193945L154.65585868055555,53.42417284141217L155.88724375,53.10560555727095L156.09804756944445,53.595728334877194L156.31757430555555,54.50982216805612L157.43992291666666,53.8466899512505L157.59984305555557,52.61070428945878L157.71614861111112,52.4324838605129L157.96329791666668,49.2925854744616L158.046165625,50.14434359368211L158.1741017361111,50.26192590098054L158.50702638888887,48.528916644215826L158.55209479166666,48.06070831312758L159.01004791666668,47.56065414848149L159.3080809027778,46.91393873363333L159.6584513888889,46.56789486027L160.0451673611111,47.27912204090967L160.20363368055555,46.788393170152034L160.44060625,47.35957051980347L161.16751597222222,47.0869634678231L161.23439166666665,47.62828378770746L161.46554895833333,47.69263874227005L161.9642090277778,46.23622486804305L162.19245868055555,46.23328571457208L162.56172881944445,45.17847380978151L162.6722190972222,46.451476428803346L163.1970479166667,47.272678785923006L163.29154618055554,47.5987609073307L163.5096190972222,48.69856814993096L164.19436805555557,49.56056133493786L164.94744652777777,49.41202186811074L165.268740625,49.71100301463299L165.66854097222222,48.97708604650302L166.96534791666667,48.85739410851937L167.01187013888887,49.5756713643341L167.0453079861111,49.356787561234015L167.40294756944445,48.72712547177727L168.068796875,49.6354295912662L168.48313541666667,50.05956996547292L168.76372256944444,49.497296302258945L168.77389930555555,49.817250005366375L169.06902465277778,48.36470833816307L169.63601423611112,48.54225417101341L169.8540871527778,49.19371208724539L170.2698795138889,48.8458575451875L170.33239375000002,48.54262179066876L171.2424847222222,48.13204294493522L171.35297500000001,48.342688650441715L171.79784375,47.78493645206419L171.89379583333334,48.33512614019111L172.15548333333334,49.21379685950532L172.41717083333336,49.24743384022145L172.62942847222223,49.385873789532624L172.64251284722224,48.63530307724602L173.28510104166668,48.28428943618809L173.28800868055555,48.1355438259026L173.8724440972222,47.736172776645674L174.02364131944444,48.09457216564775L174.03817951388888,46.64713161574966L174.45542569444444,46.08193512084134L174.53683958333335,46.04525827542386L174.55137777777776,45.8549157812148L174.5557392361111,45.26077420309332L174.5819079861111,45.10954678278398L174.96571631944445,45.465108771172225L176.024096875,46.02111456072166L176.83387430555555,44.98751977131616L177.1464454861111,44.73578446085122L177.18279097222222,45.4040560147661L177.27583541666667,45.49416707995613L177.69017395833333,44.778767038627194L178.18883402777777,44.76424033476445L180.6457888888889,45.39033296795466L181.38287534722224,46.50448300449253L181.39595972222222,46.99588470404328L181.92515,48.68796290030559L182.0138329861111,47.89901661027503L182.0981545138889,48.142798282580856L182.1243232638889,48.13603512098942L182.33658090277777,48.71011494222381L182.36129583333332,48.54828678133475L182.4514326388889,49.03197476986793L183.62175729166665,49.26079395954778L183.8412840277778,48.247397896926344L184.03754965277776,48.12200810723371L184.18002395833332,47.733823963176974L184.45770347222222,48.11212490019264L185.05231562499998,48.157595743506704L185.42740104166666,48.021519502489355L185.62948194444442,47.88921755224041L185.64256631944443,48.025812463683025L186.12523437500002,48.33558121731471L186.40146006944443,48.230873095583235L187.14436180555558,47.74330245269158L187.45257152777776,47.67815554075574L187.65756006944446,47.6490233200135L187.85382569444445,47.22947098801214L188.09661354166667,47.89420722254425L188.218734375,47.05680316695651L188.68104895833332,47.47330618359416L188.82061562500002,48.67514223190142L189.25821527777777,47.45481134204459L189.47338055555556,47.96918020784014L189.7990361111111,46.67194552038944L190.2264590277778,45.90760096835049L190.6495204861111,45.91785753818212L190.71639618055553,45.91725511769724L191.31100833333332,46.3198796059275L192.10915520833333,46.10207497866807L192.562746875,46.15188414746794L192.57437743055556,46.65887906605448L192.667421875,46.387507826115694L192.76628159722222,44.60927371017081L193.08321423611113,45.00502967248704L193.09048333333334,46.22654337190497L193.77959375,46.676905701381145L194.1270565972222,45.076231797909685L194.1430486111111,45.6219586181187L194.30878402777776,45.43461275630682L194.6271704861111,44.57766814734279L194.76237569444444,46.029734665941845L195.08657743055556,46.63744453268097L195.28575069444446,44.873550079412894L195.74661145833332,44.25954507147159L196.23509479166668,43.972440564324415L196.55348125,44.00904650789198L196.72939340277776,41.73115852376944L196.95328159722223,42.87689267139248L197.34435902777778,40.62372007091989L197.52463263888887,39.64803139716122L198.12215243055553,41.00207825744508L198.30533368055555,42.00438709836723L198.31841805555555,41.56913172186384L199.29974618055556,41.58056854967745L199.340453125,42.790528361376346L199.42477465277778,43.20099219190536L199.82748263888888,43.68840963938149L199.92925,44.225418675443336L200.33922708333333,42.643726807898986L200.38574930555555,43.54087079377575L200.45844027777778,43.47313371439816L200.99053819444447,44.02183700962502L201.2086111111111,43.62083664199585L201.74652430555554,44.44976964446292L201.8657375,44.6353093466833L202.32805208333335,44.57612841201498L202.53449444444442,45.850365570813466L202.5926472222222,46.53501234706545L202.7714670138889,46.11869444569223L203.29484201388888,45.79317500112299L204.24709375,45.726374167677335L204.56257256944443,46.57092008424294L205.045240625,45.688844742485315L205.23278333333334,45.53414360157012L205.65293715277778,45.81774590807976L205.94079340277776,46.90882131727179L206.09635208333333,48.15727251887793L206.28971006944445,47.470561933656796L206.65316493055556,47.737522406957765L206.67497222222224,48.70545349959531L206.68805659722221,47.777091482969126L207.19543958333333,46.62689900133884L208.2014826388889,46.58489243453829L208.48788506944445,46.320919857751136L208.72195,46.55534453864266L209.11593506944445,46.16649341811174L209.64221770833333,46.21969407630053L209.7745152777778,45.87424133533713L210.13942395833334,46.63516720180343L210.28480590277778,46.287500481623084L210.44327222222222,46.741600433460775L210.80091180555553,46.78645705678136L211.01316944444446,46.04999468443654L211.07277604166666,46.46884521599287L211.12947499999999,45.685477361060265L211.33300972222222,46.189946291620885L211.40570069444445,47.145468329125436L211.48420694444442,47.14010482954623L211.60196631944444,47.17461101325827L211.71972569444443,47.56949991193244L211.88836874999998,47.89539992073921L212.0032204861111,47.51020992866526L212.01775868055554,47.43887226913208L212.05991944444446,46.22416837555218L212.22129340277777,46.21260153799696L212.3695829861111,45.55319138419725L212.45826597222222,46.749388912444175L212.7882829861111,47.55063335453309L213.02670937500002,46.61975335241311L213.08050069444442,47.28646135050511L213.31601944444444,46.92283188212127L213.93825416666667,46.654565360575816L214.37294618055554,46.23612549118488L214.42382986111113,46.71502960873306L214.42819131944447,47.00837664785976L214.79455381944445,45.19755564974045L214.99372708333334,45.927816751433056L215.36735868055555,46.703051742956404L215.56071666666665,46.702596568660766L216.38212465277778,47.17418691179469L216.55367534722222,47.05778488728188L216.73104131944444,47.41518973188701L216.87642326388888,46.910854092031656L217.36199895833334,45.906285349495136L217.5248267361111,47.31399014787897L217.6774777777778,47.63594113309105L217.80832152777776,46.66703035311528L217.8359440972222,45.814677317803756L218.70096666666666,45.46055958602335L219.1400201388889,44.925520294087676L219.9163597222222,45.250318264678896L219.98468923611114,44.205303104877686L220.07627986111112,44.28745612772323L220.85552708333333,43.77139384828422L221.0794152777778,44.1821044634558L221.5766215277778,44.14857735044353L221.610059375,44.43306961539915L221.8586625,43.4304459871926L221.94298402777778,42.13475138847332L221.950253125,41.637292916292665L222.71932361111112,41.38624695799672L223.1307545138889,41.90763892886369L223.87220243055555,41.73772503597735L224.35632430555557,42.37146919904626L224.47699131944447,41.59467227914163L224.74594791666667,42.1738883845608L224.82736180555557,40.05001621277137L224.959659375,41.23603125816089L225.7737982638889,41.68394479901147L225.83049722222222,42.94256698577698L225.85085069444446,44.15399362053259L225.88283472222224,43.93644425847933L226.23902048611112,43.720983165964725L226.43964756944445,42.64206818270159L227.1287579861111,41.10071136443145L227.91091284722222,41.522823561321616L228.2627371527778,41.047224538522784L228.51715555555558,41.29768541800385L228.5578625,42.13276687620345L228.8355420138889,40.199840188583096L229.23970381944446,40.80053950305813L229.5362829861111,40.495502219418995L229.59879722222223,39.88663533081041L230.0029590277778,41.295488464396044L230.01168194444446,40.33128961795643L230.06692708333333,41.67601065616077L230.32716076388888,41.95209292387804L231.17619131944446,41.75806696482354L231.501846875,40.70827693500783L231.84058680555555,41.956299241507054L232.25492534722224,42.627185984023015L232.49044409722222,42.13948405228737L232.7346857638889,42.20205231372529L233.52847118055556,42.13053041568608L233.88901840277777,42.75449404078415L234.22048923611112,43.660227970039074L234.2263045138889,44.45572183970182L235.1683795138889,45.83049965573164L235.30067708333334,45.533799690158446L235.32975347222222,44.25393638780926L235.4751354166667,43.48555941569498L235.5812642361111,42.69568680745883L235.61324826388886,41.493134793379596L235.8909277777778,40.8828379807083L235.89383541666666,40.422070849304134L236.52770069444443,40.98088043104039L236.76612708333334,41.277309054602995L237.09178263888887,41.29826148247605L238.26501493055557,42.143118667561765L238.95703298611113,42.1069901341389L239.39027118055557,40.746974454058346L239.82205555555555,40.41779367531916L239.88456979166665,41.04586430778724L239.90928472222222,40.971961210341846L240.4152138888889,41.94778175597432L240.42102916666664,42.265520247043554L241.275875,44.076634889005874L241.42271076388892,45.420488066771924L241.96789305555558,45.24345592676141L242.03040729166665,43.795960334085265L242.18305833333332,43.46671430067673L242.19323506944446,43.49489287060905L242.65409583333334,42.6254202502148L243.07570347222222,42.73772822519334L243.35338298611111,43.13380540267397L243.57727118055556,42.12344152907323L244.01487083333333,43.23978070949926L244.2402128472222,43.634819305215984L244.28237361111113,40.80435404136105L244.48009305555556,41.708435303891605L244.9816607638889,42.80727510683579L245.135765625,43.520897596152196L245.52248159722222,43.04215783653697L246.19705381944445,43.49629205288329L246.21740729166666,43.53134618092827L246.26829097222222,42.953228229502116L246.62156909722222,43.2982554065519L247.28014930555557,42.743446532563354L247.5069451388889,42.34245187930702L248.28183090277778,41.38172335804296L248.73833020833334,41.31356768890532L248.91133472222222,41.330894253348134L248.99565625,41.75948816134664L249.05671666666666,41.73222267854533L249.27915104166667,42.22885041069077L249.532115625,42.095648702955L249.90720104166667,42.14293383265951L250.1761576388889,42.18549044939354L250.45529097222223,41.7911247377875L250.49745173611112,42.10486226400877L251.12259409722222,42.05289270427454L251.26652222222222,41.82912010051376L251.79135104166664,42.237391423795714L252.15480590277778,41.88700228141613L252.2085972222222,42.75165205327451L252.580775,42.15317018128039L252.63165868055555,42.49953649648566L252.72324930555556,42.811266180170435L253.24371666666667,42.76732289548673L253.42253645833335,42.806440605938036L253.57664131944443,41.34697987867756L253.57954895833333,40.702131890809795L253.58100277777777,40.46593536839549L253.59408715277777,40.273025164889276L253.59554097222224,39.509405981733664L253.59699479166665,40.346315383560295L253.60571770833332,39.30986717853759L253.62316354166666,40.206063794017155L253.6304326388889,40.10797408128212L253.64206319444443,39.82302667315389L253.64497083333336,39.655074005838514L253.65950902777777,40.3790832719213L253.66241666666667,40.814358278062514L253.68422395833335,41.69777245025625L253.70021597222222,42.41417853856396L253.7031236111111,42.46894401804087L253.7089388888889,42.55756628290345L253.71184652777777,43.659992987946424L253.72056944444444,43.89501035581844" style="fill: none;" fill="none"></path></g></g></g></g><g opacity="0.2"><g><g><g><path stroke="rgb(255, 112, 67)" stroke-width="2px" d="M29.201417361111112,140.715L29.499450347222222,150.05666666666667L29.58086423611111,151.43333333333334L29.854182291666664,148.18833333333333L29.862905208333334,148.28666666666666L29.963218750000003,149.36833333333334L30.085339583333333,147.59833333333333L30.14930763888889,140.42000000000002L30.457517361111112,148.18833333333333L30.473509375,147.89333333333332L30.850048611111113,140.61666666666667L30.995430555555558,148.18833333333333L31.060852430555556,151.925L31.09138263888889,147.99166666666667L31.197511458333334,137.765L31.418492013888887,146.91L31.691810069444443,145.53333333333333L31.904067708333336,150.64666666666668L32.017465625,147.30333333333334L32.03781909722222,147.795L32.18901631944445,121.14666666666668L32.238446180555556,147.99166666666667L32.49722604166667,147.69666666666666L32.549563541666664,147.795L32.6062625,151.53166666666667L32.64987708333333,146.32L32.70076076388889,146.22166666666666L32.85922708333333,139.43666666666667L33.00897048611111,139.04333333333335L33.065669444444445,146.81166666666667L33.15726006944444,150.35166666666666L33.352071875,132.455L33.50036145833333,150.64666666666668L33.561421875,143.96L33.85945486111111,132.455L33.99320625,140.715L34.05426666666666,133.83166666666668L34.19528715277777,138.55166666666668L34.32903854166667,139.14166666666665L34.340669097222225,142.97666666666666L34.67650138888889,145.04166666666666L34.727385069444445,142.38666666666666L34.76809201388889,128.325L34.84078298611111,133.93L34.957088541666664,134.225L34.989072569444446,146.32L35.12427777777778,148.09L35.128639236111106,142.28833333333333L35.34671215277778,132.25833333333333L35.54443159722222,140.51833333333332L35.72906666666667,144.94333333333333L36.03582256944444,138.06L36.128867013888886,138.74833333333333L36.330947916666666,137.96166666666667L37.3166375,127.735L37.320998958333334,133.24166666666667L37.42567395833333,137.86333333333334L37.70044583333333,118.59L37.74115277777778,133.93L37.746968055555556,138.06L37.774590625,139.33833333333334L37.93887222222222,116.91833333333334L38.088615625,124.29333333333334L38.1540375,136.09333333333333L38.16130659722222,132.16L38.3633875,117.11500000000001L38.64542847222222,138.25666666666666L38.69921979166667,130.58666666666667L39.14408854166667,128.42333333333335L39.15862673611111,130.29166666666666L39.26475555555556,132.84833333333333L39.38978402777778,129.505L39.54825034722222,128.42333333333335L39.58604965277778,116.03333333333333L39.648563888888894,128.52166666666665L39.7765,122.03166666666667L39.88408263888889,126.85L40.06871770833334,129.30833333333334L40.26207569444444,120.16333333333333L40.299875,125.67L40.44234930555556,131.96333333333334L40.5615625,127.24333333333334L40.59936180555555,114.755L40.68077569444445,128.22666666666666L40.74619756944445,127.145L40.766551041666666,128.12833333333333L40.85814166666667,114.755L40.85959548611111,127.93166666666667L41.08057604166667,132.75L41.21723506944445,131.17666666666668L41.307371874999994,126.06333333333333L41.44257708333333,116.62333333333333L41.47601493055556,130.98L41.727525694444445,131.275L41.88017673611111,114.165L41.88744583333333,124.785L41.93978333333333,113.96833333333333L42.061904166666665,116.525L42.07644236111111,131.37333333333333L42.46897361111112,128.71833333333333L42.48787326388889,120.655L42.54311840277778,130.685L42.668146875,138.65L42.689954166666666,127.93166666666667L42.83533611111111,133.14333333333332L42.867320138888886,129.8L42.94582638888889,117.21333333333334L43.06649340277778,126.75166666666667L43.32818090277778,125.57166666666666L43.48810104166667,132.455L43.643659722222225,108.65833333333333L43.77595729166667,118.49166666666667L43.845740625,117.01666666666667L43.86318645833333,129.8L44.03764479166667,137.86333333333334L44.21355694444444,116.82L44.308055208333336,124.785L44.421453125000006,128.03L44.54357395833333,126.25999999999999L44.545027777777776,115.24666666666667L44.60754201388889,128.325L44.83869930555555,129.60333333333332L44.956458680555556,122.52333333333334L44.97535833333333,134.225L45.00152708333333,122.52333333333334L45.03932638888889,131.47166666666666L45.04078020833333,123.9L45.17598541666667,117.11500000000001L45.25449166666667,120.065L45.27920659722222,129.01333333333332L45.29519861111111,130.19333333333333L45.42895,99.31666666666666L45.45366493055556,127.83333333333333L45.497279513888884,123.50666666666666L45.594685416666664,129.505L45.663014930555555,121.73666666666666L45.798220138888894,130.685L45.80694305555556,123.60499999999999L45.80985069444444,110.72333333333333L46.38992465277778,125.375L46.47279236111111,130.29166666666666L46.565836805555556,121.73666666666666L46.64288923611111,123.21166666666667L47.333453472222224,127.735L47.34217638888889,114.165L47.532626736111105,118.295L47.563156944444444,96.85833333333333L47.64166319444445,110.72333333333333L47.65765520833334,121.53999999999999L47.85973611111111,113.575L48.04873263888889,112.00166666666667L48.122877430555555,114.06666666666666L48.33658888888889,110.72333333333333L48.38165729166667,114.55833333333334L48.561930902777775,94.99000000000001L48.62880659722222,114.165L48.66515208333333,97.94L48.76255798611111,112.69L48.95446215277778,106.88833333333334L48.973361805555555,104.52833333333334L49.054775694444444,112.29666666666667L49.20161145833333,110.625L49.30628645833334,110.52666666666667L49.570881597222225,116.62333333333333L49.655203125,112.49333333333333L49.76278576388889,110.42833333333333L49.78895451388889,110.625L49.99975833333333,110.23166666666667L50.008481249999996,112.29666666666667L50.09571041666667,106.79L50.17712430555555,110.72333333333333L50.18439340277778,117.90166666666667L50.300698958333335,110.52666666666667L50.30215277777778,110.72333333333333L50.40828159722223,110.625L50.412643055555556,110.72333333333333L50.64380034722222,108.36333333333333L50.732483333333334,112.19833333333334L50.808081944444446,112.69L50.84297361111111,116.525L50.88804201388889,124.39166666666667L51.08576145833334,112.49333333333333L51.16572152777778,129.01333333333332L51.366348611111114,125.08L51.42159375,123.015L51.65275104166667,110.72333333333333L51.814125000000004,122.425L52.1804875,111.31333333333333L52.334592361111106,112.49333333333333L52.426182986111115,116.525L52.47415902777777,124.29333333333334L52.58901076388889,113.575L52.66751701388889,131.17666666666668L52.70677013888889,123.21166666666667L52.871051736111106,112.69L52.879774652777776,112.19833333333334L53.110931944444445,118.49166666666667L53.25049861111111,106.88833333333334L53.37698090277778,128.62L53.38279618055556,118.49166666666667L53.65029895833334,125.17833333333333L53.789865625000004,116.525L54.11988263888889,118.49166666666667L54.14459756944445,110.52666666666667L54.743571180555556,121.44166666666666L54.77700902777777,106.69166666666668L54.800270138888884,122.72L54.823531249999995,123.21166666666667L54.83370798611111,126.65333333333334L55.33672951388888,117.01666666666667L55.704545833333334,129.99666666666667L55.713268750000005,109.83833333333334L55.80631319444444,115.44333333333333L55.934249305555554,118.68833333333333L56.03020138888889,124.49L56.66552048611111,122.03166666666667L56.74257291666667,109.14999999999999L56.95337673611111,120.065L57.324100694444446,119.57333333333334L57.35753854166667,98.62833333333333L57.40551458333333,122.22833333333332L57.71953958333333,122.22833333333332L57.956512152777776,119.57333333333334L58.090263541666666,123.31L58.32142083333333,122.425L58.42318819444445,125.375L58.66161458333333,126.16166666666666L58.85642638888889,109.83833333333334L58.86224166666667,115.73833333333334L58.984362499999996,105.02L59.128290625000005,120.16333333333333L59.31583333333333,104.23333333333333L59.36090173611111,116.82L59.51209895833333,77.48666666666668L59.51791423611111,123.40833333333333L60.026751041666664,124.88333333333333L60.37566770833333,110.625L60.77837569444444,103.545L60.8685125,120.55666666666667L60.878689236111114,125.08L60.92666527777778,110.52666666666667L60.93538819444445,109.54333333333334L61.62013715277778,98.92333333333333L61.666659375,130.19333333333333L61.73935034722222,122.91666666666666L61.95742326388889,118.39333333333333L61.97632291666667,123.11333333333333L62.10135138888889,113.67333333333335L62.22492604166667,104.03666666666666L62.35140833333333,117.41L63.03615729166667,123.21166666666667L63.04633402777778,117.21333333333334L63.33855173611111,110.52666666666667L63.62495416666667,117.60666666666667L63.62640798611111,125.47333333333333L63.725267708333334,102.56166666666667L63.79505104166667,123.9L63.824127430555556,125.08L64.08872256944444,127.04666666666667L64.22538159722222,128.915L64.64117395833333,118.19666666666667L64.64262777777778,110.52666666666667L64.76765625,120.26166666666667L65.4509513888889,118.49166666666667L65.45531284722222,103.05333333333333L65.5628954861111,122.32666666666667L65.801321875,128.42333333333335L66.03829444444445,112.69L66.04556354166667,125.86666666666667L66.32905833333334,98.92333333333333L66.40029548611112,101.185L66.4584482638889,97.94L66.57475381944444,116.03333333333333L66.84661805555555,120.065L67.005084375,123.60499999999999L67.01962256944444,115.44333333333333L67.20861909722223,89.77833333333334L67.37290069444444,93.61333333333333L67.62150381944444,124.09666666666666L67.63749583333333,123.40833333333333L67.79450833333334,120.36L67.86865312500001,115.05000000000001L67.99368159722222,125.08L68.01258125000001,121.44166666666666L68.10562569444446,127.04666666666667L68.17250138888889,121.245L68.30770659722224,111.41166666666666L68.47344201388889,125.08L68.70459930555556,117.705L68.86161180555555,124.785L68.89214201388889,124.29333333333334L69.07968472222221,119.57333333333334L69.32392638888888,120.16333333333333L69.48384652777777,112.00166666666667L69.49983854166666,115.44333333333333L69.53036875,110.72333333333333L69.54926840277778,102.56166666666667L69.67865833333333,106.79L69.86329340277777,108.265L70.10171979166665,100.595L70.39102986111111,120.85166666666666L70.46953611111111,118.19666666666667L70.48552812499999,122.22833333333332L70.616371875,124.39166666666667L70.747215625,104.43L70.85915972222223,108.65833333333333L70.86933645833332,105.11833333333334L70.88387465277778,118.19666666666667L71.03071041666668,121.44166666666666L71.3723579861111,103.93833333333333L71.57298506944444,123.99833333333333L71.7648892361111,114.55833333333334L71.97860069444444,124.29333333333334L71.98441597222222,125.375L72.20103506944444,122.22833333333332L72.36967812500001,102.66L72.68515694444444,102.56166666666667L72.86833819444445,118.49166666666667L72.90322986111111,108.46166666666666L73.00208958333333,109.54333333333334L73.23760833333333,111.70666666666666L73.26086944444445,107.47833333333334L73.35246006944443,122.13L73.50947256944445,118.98333333333333L73.60397083333334,114.46000000000001L73.93108020833334,106.495L73.97614861111111,104.62666666666667L74.1782295138889,117.41L74.17968333333333,125.27666666666667L74.21166736111111,109.05166666666666L75.051975,102.66L75.21480277777778,97.74333333333334L75.41252222222222,98.72666666666666L75.562265625,120.26166666666667L75.67857118055555,122.425L75.70328611111111,103.64333333333333L75.75416979166665,103.74166666666667L75.96061215277777,108.265L75.9911423611111,114.755L76.03184930555555,119.18L76.15978541666667,102.365L76.26591423611112,119.27833333333334L76.37495069444444,125.375L76.68316041666667,102.66L76.70642152777778,120.065L76.9986392361111,95.48166666666667L77.00736215277777,110.33L77.08586840277778,119.37666666666667L77.52928333333334,99.41499999999999L77.58888993055555,99.90666666666667L77.73136423611112,107.38000000000001L77.83167777777777,101.67666666666666L77.98142118055556,99.02166666666668L78.0453892361111,108.56L78.12389548611111,104.725L78.32888402777778,106.69166666666668L78.35650659722222,112.29666666666667L78.48008125,115.14833333333334L78.55567986111112,103.34833333333333L78.64145520833333,117.11500000000001L78.71560000000001,105.41333333333334L78.77375277777779,114.36166666666668L79.27241284722223,116.42666666666668L79.67948229166666,110.035L79.69983576388888,102.85666666666667L79.76380381944445,120.16333333333333L79.78561111111111,117.21333333333334L79.79288020833333,119.27833333333334L79.85684826388889,94.00666666666666L79.89028611111111,106.495L80.13162013888889,101.57833333333333L80.19994965277778,108.265L80.47617534722222,109.24833333333333L80.49798263888889,85.35333333333334L80.75094722222222,106.79L81.11149444444445,97.44833333333334L81.26269166666667,108.36333333333333L81.4996642361111,122.22833333333332L81.52292534722223,87.22166666666666L81.55636319444444,114.85333333333334L82.14516006944444,105.51166666666667L82.28908819444445,96.76L82.32834131944445,112.29666666666667L82.34578715277779,100.98833333333333L82.48680763888889,100.98833333333333L82.55368333333334,106.29833333333333L82.66562743055555,111.41166666666666L82.99709826388889,75.32333333333334L83.02472083333333,90.86L83.13957256944445,99.12L83.1642875,93.61333333333333L83.31839236111111,109.54333333333334L83.45650520833334,92.82666666666667L83.77198402777778,96.76L83.805421875,105.51166666666667L83.98278784722221,98.33333333333334L83.99296458333333,98.43166666666667L84.09182430555555,94.79333333333334L84.171784375,99.90666666666667L84.472725,84.86166666666666L84.64282187500001,100.89L85.15602013888889,102.75833333333333L85.25487986111112,96.26833333333333L85.33193229166666,101.08666666666667L85.5092982638889,93.41666666666667L85.54273611111111,105.70833333333333L85.64886493055556,104.33166666666666L85.65904166666667,99.61166666666666L85.68811805555555,91.35166666666667L85.79715451388888,95.48166666666667L85.85676111111111,104.92166666666667L85.87129930555555,96.56333333333333L86.15334027777779,108.56L86.25946909722222,91.54833333333333L86.44119652777778,92.925L87.17537534722223,98.53L87.5606375,95.48166666666667L87.83395555555556,94.105L87.90955416666667,86.92666666666668L87.99678333333333,95.08833333333334L88.19741041666667,93.02333333333333L88.22212534722223,95.48166666666667L88.2512017361111,97.055L88.60011840277778,93.515L88.61901805555556,87.91000000000001L88.66117881944444,83.58333333333333L88.75567708333334,92.43333333333332L89.274690625,74.83166666666668L89.28632118055556,98.825L89.37355034722222,63.72L89.64686840277778,90.565L89.97833923611111,65.195L90.84045416666667,89.87666666666667L91.33620659722222,85.64833333333334L91.54555659722223,98.53L91.58917118055555,85.74666666666667L91.69093854166667,92.53166666666667L92.04712430555556,87.81166666666665L92.10673090277778,77.78166666666667L92.26374340277778,84.86166666666666L92.5879451388889,72.96333333333334L92.88161666666666,95.875L92.96157673611111,80.04333333333332L93.40499166666666,84.665L93.73791631944444,97.055L93.93418194444445,67.65333333333334L93.98797326388889,82.69833333333332L94.07665625,72.865L94.09991736111111,93.41666666666667L94.35578958333333,85.64833333333334L95.40835486111112,89.09L95.42580069444445,86.63166666666667L95.86194652777777,59.885000000000005L95.92446076388889,86.33666666666666L96.19196354166667,89.67999999999999L96.21667847222221,83.78000000000002L96.6513704861111,92.63L96.74586875,76.79833333333333L97.07588576388889,83.68166666666666L97.27505902777779,84.37L97.4000875,84.17333333333333L97.45533263888889,85.64833333333334L97.54983090277779,92.04L97.92491631944445,62.245000000000005L98.067390625,62.04833333333333L98.381415625,73.25833333333333L98.4046767361111,78.27333333333333L98.48899826388889,67.06333333333335L98.96730486111112,78.66666666666666L99.11704826388889,72.275L99.56046319444444,69.325L99.63751562499999,72.07833333333335L100.213228125,57.81016666666666L100.23503541666666,69.81666666666668L100.28010381944445,41.9785L100.51271493055556,63.03166666666668L100.64646631944444,76.20833333333334L101.0215517361111,77.78166666666667L101.03608993055556,48.37016666666665L101.93455034722221,65.98166666666667L102.02468715277779,65.29333333333334L102.08865520833334,35.586833333333345L102.11627777777778,88.30333333333334L102.53061631944445,72.57000000000001L102.88534826388889,72.57000000000001L103.04090694444444,72.96333333333334L103.38836979166666,53.090166666666676L104.23158506944445,48.37016666666665L104.45111180555556,65.58833333333332L104.4758267361111,88.795L104.72152222222223,65.78500000000001L104.96867152777777,47.78016666666667L105.65196666666667,46.40350000000001L105.86422430555555,70.11166666666666L105.98634513888888,71.19333333333334L106.80339166666667,53.38516666666668L107.29332881944445,69.22666666666666L107.29914409722223,57.6135L107.46633333333334,66.47333333333333L107.73528993055555,70.11166666666666L108.06239930555556,62.04833333333333L108.16707430555556,68.735L108.18888159722222,44.830166666666685L108.20341979166666,66.08L108.3153638888889,48.37016666666665L108.76750173611111,65.88333333333334L109.97417187500001,37.553499999999985L110.01197118055556,40.70016666666666L110.06576249999999,58.40016666666668L110.41758680555556,65.78500000000001L110.86827083333334,74.93L111.060175,70.01333333333334L111.56901180555556,64.11333333333333L111.58500381944444,69.71833333333332L111.79726145833334,73.06166666666667L111.936828125,51.71350000000001L112.00225,60.77000000000001L112.04731840277778,59.983333333333334L112.96613229166665,57.51516666666667L113.10279131944445,49.35350000000001L113.40373194444444,47.681833333333344L113.47787673611111,64.80166666666668L113.90820729166667,60.17999999999999L114.00997465277779,67.35833333333333L114.37924479166666,58.695166666666665L114.38506006944445,60.57333333333332L114.75869166666666,58.00683333333333L114.86918194444443,69.81666666666668L115.286428125,63.62166666666667L115.30096631944444,51.71350000000001L115.52776215277777,47.48516666666666L116.4872829861111,52.50016666666667L116.51781319444444,31.063500000000005L116.55852013888888,68.34166666666665L116.58468888888889,59.78666666666666L117.10515625000001,64.605L117.60236250000001,55.35183333333333L118.00652430555554,60.08166666666666L118.85700868055555,65.29333333333334L119.16957986111112,40.70016666666666L119.18557187500001,46.895166666666654L119.37311458333333,70.60333333333332L120.19888402777778,57.02350000000001L120.48528645833332,60.86833333333334L120.64811423611111,59.19666666666666L120.74261249999999,76.01166666666666L120.92724756944445,54.270166666666654L120.97958506944445,48.76349999999999L121.13078229166666,62.638333333333335L121.37502395833333,65.29333333333334L121.37938541666666,69.61999999999999L121.423,60.376666666666665L121.80390069444445,69.22666666666666L121.88240694444444,42.175166666666684L121.95509791666667,55.74516666666668L122.378159375,47.8785L122.47120381944444,49.84516666666667L122.5220875,49.6485L122.62821631944445,53.48350000000001L122.9407875,27.03183333333334L123.71567326388889,57.71183333333333L123.86250902777778,63.81833333333333L123.91630034722222,62.638333333333335L124.05005173611112,53.090166666666676L124.60686458333333,57.02350000000001L124.74497743055555,46.01016666666666L125.34976631944446,65.39166666666667L125.58237743055555,61.851666666666674L126.63639652777778,51.418499999999995L127.37202916666668,48.665166666666664L127.42436666666667,34.40683333333334L127.62935520833334,76.11000000000001L127.68460034722223,45.911833333333334L127.91285,55.05683333333333L128.0247940972222,43.35516666666666L128.18616805555556,51.910166666666655L128.49437777777777,64.11333333333333L128.57288402777777,68.63666666666667L129.40592256944444,66.67L129.96273541666667,46.895166666666654L130.17935451388888,54.36850000000001L130.33782083333332,42.47016666666667L130.5820625,64.9L130.80013541666668,43.65016666666668L131.91666874999999,54.86016666666667L131.97482152777778,62.736666666666665L132.4167826388889,61.95L132.44295138888887,64.9L132.60723298611111,64.11333333333333L132.75261493055558,66.27666666666667L132.78605277777777,60.27833333333332L133.21056805555554,51.910166666666655L133.866240625,54.171833333333325L134.13519722222222,60.08166666666666L134.51900555555554,55.941833333333335L134.70509444444443,56.826833333333326L134.80976944444444,59.983333333333334L135.1877625,43.846833333333336L135.77510555555554,70.8L135.87105763888889,64.015L136.16618298611112,62.540000000000006L136.613959375,64.015L136.901815625,58.49850000000001L137.0355670138889,59.983333333333334L137.18094895833335,53.286833333333334L137.5269579861111,54.6635L137.87151319444445,60.96666666666667L138.36145034722222,66.86666666666666L138.42251076388888,37.16016666666667L138.65512187500002,45.715166666666676L139.32387881944445,60.474999999999994L139.39511597222224,37.553499999999985L139.414015625,47.97683333333333L139.62481944444446,56.7285L139.87633020833331,49.74683333333333L140.82858194444447,34.40683333333334L141.05101631944444,56.040166666666664L141.95965347222221,46.50183333333334L142.11375833333335,44.928500000000014L142.32310833333335,63.52333333333334L142.52082777777778,59.78666666666666L142.94534305555555,58.49850000000001L143.16777743055556,53.090166666666676L143.22011493055555,52.50016666666667L143.5981079861111,44.53516666666667L143.61846145833331,58.30183333333332L144.019715625,62.834999999999994L144.2392423611111,46.20683333333335L144.60124340277778,59.78666666666666L144.66957291666665,50.730166666666676L145.08972673611112,56.53183333333334L145.602925,55.843500000000006L145.616009375,58.10516666666666L146.19608333333332,58.20349999999999L146.2789510416667,63.22833333333334L146.44904791666667,64.11333333333333L146.7703420138889,54.9585L147.47689826388887,49.156833333333324L147.62954930555554,62.834999999999994L148.01481145833333,62.93333333333332L148.10058680555557,56.433499999999995L148.19508506944445,58.30183333333332L148.61087743055558,49.058499999999995L149.0935454861111,56.826833333333326L149.80446319444445,52.69683333333333L149.92513020833331,49.156833333333324L150.5938871527778,39.9135L150.666578125,65.58833333333332L151.0096795138889,52.5985L151.02131006944444,54.76183333333334L151.85144097222224,36.17683333333332L152.02153784722222,50.2385L152.07387534722224,67.65333333333334L152.2556027777778,51.71350000000001L152.39807708333333,48.665166666666664L152.55218194444444,48.76349999999999L153.00868125,55.35183333333333L153.30816805555554,48.17349999999999L153.44628090277777,61.45833333333333L154.01472430555555,47.8785L154.02053958333335,54.46683333333334L154.277865625,63.52333333333334L154.65585868055555,46.895166666666654L155.88724375,50.2385L156.09804756944445,58.00683333333333L156.31757430555555,62.736666666666665L157.43992291666666,47.8785L157.59984305555557,41.48683333333332L157.71614861111112,50.828500000000005L157.96329791666668,21.033500000000004L158.046165625,57.81016666666666L158.1741017361111,51.320166666666665L158.50702638888887,32.931833333333316L158.55209479166666,43.846833333333336L159.01004791666668,43.060166666666674L159.3080809027778,41.093500000000006L159.6584513888889,43.45350000000002L160.0451673611111,53.680166666666665L160.20363368055555,42.37183333333334L160.44060625,52.50016666666667L161.16751597222222,44.6335L161.23439166666665,52.50016666666667L161.46554895833333,48.27183333333332L161.9642090277778,33.1285L162.19245868055555,46.20683333333335L162.56172881944445,35.685166666666646L162.6722190972222,57.908500000000004L163.1970479166667,54.6635L163.29154618055554,50.53349999999999L163.5096190972222,58.596833333333336L164.19436805555557,57.3185L164.94744652777777,48.07516666666666L165.268740625,52.40183333333333L165.66854097222222,42.37183333333334L166.96534791666667,47.78016666666667L167.01187013888887,56.040166666666664L167.0453079861111,47.38683333333333L167.40294756944445,43.060166666666674L168.068796875,57.81016666666666L168.48313541666667,53.87683333333334L168.76372256944444,44.43683333333334L168.77389930555555,52.69683333333333L169.06902465277778,35.29183333333333L169.63601423611112,50.14016666666666L169.8540871527778,55.05683333333333L170.2698795138889,45.715166666666676L170.33239375000002,45.813500000000005L171.2424847222222,44.43683333333334L171.35297500000001,50.2385L171.79784375,42.76516666666666L171.89379583333334,53.286833333333334L172.15548333333334,57.12183333333334L172.41717083333336,49.55016666666667L172.62942847222223,50.63183333333332L172.64251284722224,41.88016666666667L173.28510104166668,45.12516666666667L173.28800868055555,46.796833333333325L173.8724440972222,44.141833333333324L174.02364131944444,51.320166666666665L174.03817951388888,33.62016666666668L174.45542569444444,40.99516666666668L174.53683958333335,45.715166666666676L174.55137777777776,44.141833333333324L174.5557392361111,39.9135L174.5819079861111,43.74850000000001L174.96571631944445,48.665166666666664L176.024096875,51.025166666666664L176.83387430555555,35.685166666666646L177.1464454861111,42.47016666666667L177.18279097222222,51.418499999999995L177.27583541666667,46.30516666666668L177.69017395833333,38.340166666666676L178.18883402777777,44.6335L180.6457888888889,51.025166666666664L181.38287534722224,56.53183333333334L181.39595972222222,51.418499999999995L181.92515,63.91666666666667L182.0138329861111,40.79850000000002L182.0981545138889,50.33683333333333L182.1243232638889,48.07516666666666L182.33658090277777,53.87683333333334L182.36129583333332,47.09183333333334L182.4514326388889,53.38516666666668L183.62175729166665,51.320166666666665L183.8412840277778,39.12683333333334L184.03754965277776,46.99349999999998L184.18002395833332,44.24016666666665L184.45770347222222,51.516833333333324L185.05231562499998,48.566833333333335L185.42740104166666,46.796833333333325L185.62948194444442,46.698499999999996L185.64256631944443,49.25516666666665L186.12523437500002,51.12350000000001L186.40146006944443,47.2885L187.14436180555558,43.35516666666666L187.45257152777776,47.09183333333334L187.65756006944446,47.38683333333333L187.85382569444445,43.45350000000002L188.09661354166667,53.87683333333334L188.218734375,39.52016666666668L188.68104895833332,51.221833333333336L188.82061562500002,59.491666666666674L189.25821527777777,36.471833333333336L189.47338055555556,52.5985L189.7990361111111,34.99683333333334L190.2264590277778,39.02850000000001L190.6495204861111,46.01016666666666L190.71639618055553,45.911833333333334L191.31100833333332,49.9435L192.10915520833333,44.141833333333324L192.562746875,46.60016666666667L192.57437743055556,51.221833333333336L192.667421875,43.945166666666665L192.76628159722222,28.605166666666662L193.08321423611113,48.566833333333335L193.09048333333334,57.22016666666667L193.77959375,50.730166666666676L194.1270565972222,30.67016666666666L194.1430486111111,50.53349999999999L194.30878402777776,43.74850000000001L194.6271704861111,36.86516666666668L194.76237569444444,59.09833333333333L195.08657743055556,52.10683333333334L195.28575069444446,28.998500000000007L195.74661145833332,38.73349999999999L196.23509479166668,41.38849999999999L196.55348125,44.33849999999998L196.72939340277776,21.230166666666662L196.95328159722223,53.188500000000005L197.34435902777778,20.34516666666667L197.52463263888887,30.866833333333346L198.12215243055553,53.188500000000005L198.30533368055555,51.025166666666664L198.31841805555555,37.65183333333334L199.29974618055556,41.68350000000001L199.340453125,53.680166666666665L199.42477465277778,46.895166666666654L199.82748263888888,48.07516666666666L199.92925,49.058499999999995L200.33922708333333,28.408500000000004L200.38574930555555,51.61516666666668L200.45844027777778,42.86349999999999L200.99053819444447,48.96016666666668L201.2086111111111,40.01183333333333L201.74652430555554,51.910166666666655L201.8657375,46.30516666666668L202.32805208333335,44.043499999999995L202.53449444444442,57.3185L202.5926472222222,52.69683333333333L202.7714670138889,42.37183333333334L203.29484201388888,42.86349999999999L204.24709375,45.12516666666667L204.56257256944443,54.171833333333325L205.045240625,37.75016666666667L205.23278333333334,44.141833333333324L205.65293715277778,48.37016666666665L205.94079340277776,56.7285L206.09635208333333,59.393333333333345L206.28971006944445,41.290166666666664L206.65316493055556,50.14016666666666L206.67497222222224,57.41683333333333L206.68805659722221,39.42183333333335L207.19543958333333,36.27516666666668L208.2014826388889,46.20683333333335L208.48788506944445,43.945166666666665L208.72195,48.665166666666664L209.11593506944445,42.66683333333333L209.64221770833333,46.698499999999996L209.7745152777778,42.76516666666666L210.13942395833334,53.48350000000001L210.28480590277778,43.158500000000004L210.44327222222222,50.828500000000005L210.80091180555553,47.19016666666667L211.01316944444446,39.42183333333335L211.07277604166666,50.2385L211.12947499999999,38.63516666666666L211.33300972222222,50.730166666666676L211.40570069444445,55.74516666666668L211.48420694444442,47.09183333333334L211.60196631944444,47.48516666666666L211.71972569444443,51.12350000000001L211.88836874999998,50.828500000000005L212.0032204861111,44.043499999999995L212.01775868055554,46.796833333333325L212.05991944444446,35.29183333333333L212.22129340277777,46.10849999999999L212.3695829861111,39.61850000000001L212.45826597222222,57.51516666666667L212.7882829861111,54.76183333333334L213.02670937500002,38.241833333333346L213.08050069444442,53.286833333333334L213.31601944444444,43.65016666666668L213.93825416666667,44.24016666666665L214.37294618055554,42.47016666666667L214.42382986111113,51.025166666666664L214.42819131944447,49.6485L214.79455381944445,28.90016666666665L214.99372708333334,52.50016666666667L215.36735868055555,53.680166666666665L215.56071666666665,46.698499999999996L216.38212465277778,51.418499999999995L216.55367534722222,46.01016666666666L216.73104131944444,50.63183333333332L216.87642326388888,42.37183333333334L217.36199895833334,36.86516666666668L217.5248267361111,59.983333333333334L217.6774777777778,50.53349999999999L217.80832152777776,37.94683333333333L217.8359440972222,38.14350000000002L218.70096666666666,42.27350000000001L219.1400201388889,40.11016666666666L219.9163597222222,48.17349999999999L219.98468923611114,34.800166666666655L220.07627986111112,45.02683333333334L220.85552708333333,39.12683333333334L221.0794152777778,47.8785L221.5766215277778,43.846833333333336L221.610059375,46.99349999999998L221.8586625,34.40683333333334L221.94298402777778,30.4735L221.950253125,37.16016666666667L222.71932361111112,39.12683333333334L223.1307545138889,46.60016666666667L223.87220243055555,40.20849999999999L224.35632430555557,48.07516666666666L224.47699131944447,34.6035L224.74594791666667,47.38683333333333L224.82736180555557,20.935166666666674L224.959659375,51.910166666666655L225.7737982638889,45.715166666666676L225.83049722222222,54.270166666666654L225.85085069444446,55.05683333333333L225.88283472222224,41.9785L226.23902048611112,41.78183333333334L226.43964756944445,32.931833333333316L227.1287579861111,27.228499999999997L227.91091284722222,45.32183333333333L228.2627371527778,36.76683333333335L228.51715555555558,43.55183333333335L228.5578625,49.6485L228.8355420138889,22.803500000000014L229.23970381944446,46.20683333333335L229.5362829861111,37.75016666666667L229.59879722222223,34.40683333333334L230.0029590277778,53.97516666666667L230.01168194444446,31.65349999999998L230.06692708333333,53.778499999999994L230.32716076388888,44.43683333333334L231.17619131944446,40.01183333333333L231.501846875,31.260166666666663L231.84058680555555,53.188500000000005L232.25492534722224,48.665166666666664L232.49044409722222,37.75016666666667L232.7346857638889,42.76516666666666L233.52847118055556,41.48683333333332L233.88901840277777,48.37016666666665L234.22048923611112,51.811833333333325L234.2263045138889,51.61516666666668L235.1683795138889,58.20349999999999L235.30067708333334,42.86349999999999L235.32975347222222,32.73516666666666L235.4751354166667,36.570166666666665L235.5812642361111,35.586833333333345L235.61324826388886,30.67016666666666L235.8909277777778,35.39016666666669L235.89383541666666,36.27516666666668L236.52770069444443,46.01016666666666L236.76612708333334,43.945166666666665L237.09178263888887,41.48683333333332L238.26501493055557,49.74683333333333L238.95703298611113,41.78183333333334L239.39027118055557,28.506833333333333L239.82205555555555,37.455166666666656L239.88456979166665,46.698499999999996L239.90928472222222,40.306833333333344L240.4152138888889,50.730166666666676L240.42102916666664,45.12516666666667L241.275875,60.376666666666665L241.42271076388892,57.51516666666667L241.96789305555558,43.65016666666668L242.03040729166665,30.76849999999999L242.18305833333332,40.5035L242.19323506944446,43.74850000000001L242.65409583333334,34.800166666666655L243.07570347222222,43.74850000000001L243.35338298611111,46.698499999999996L243.57727118055556,33.030166666666645L244.01487083333333,53.286833333333334L244.2402128472222,47.19016666666667L244.28237361111113,15.330166666666656L244.48009305555556,49.84516666666667L244.9816607638889,52.69683333333333L245.135765625,49.9435L245.52248159722222,38.73349999999999L246.19705381944445,47.583500000000015L246.21740729166666,43.846833333333336L246.26829097222222,37.75016666666667L246.62156909722222,46.40350000000001L247.28014930555557,37.75016666666667L247.5069451388889,38.73349999999999L248.28183090277778,32.73516666666666L248.73833020833334,40.70016666666666L248.91133472222222,41.48683333333332L248.99565625,45.61683333333332L249.05671666666666,41.48683333333332L249.27915104166667,46.698499999999996L249.532115625,40.89683333333335L249.90720104166667,42.5685L250.1761576388889,42.5685L250.45529097222223,38.241833333333346L250.49745173611112,44.928500000000014L251.12259409722222,41.58516666666665L251.26652222222222,39.81516666666667L251.79135104166664,45.911833333333334L252.15480590277778,38.73349999999999L252.2085972222222,50.53349999999999L252.580775,36.76683333333335L252.63165868055555,45.61683333333332L252.72324930555556,45.61683333333332L253.24371666666667,42.37183333333334L253.42253645833335,43.158500000000004L253.57664131944443,28.211833333333345L253.57954895833333,34.89850000000001L253.58100277777777,38.340166666666676L253.59408715277777,38.536833333333334L253.59554097222224,32.63683333333333L253.59699479166665,47.8785L253.60571770833332,29.981833333333327L253.62316354166666,48.27183333333332L253.6304326388889,39.22516666666667L253.64206319444443,37.2585L253.64497083333336,38.14350000000002L253.65950902777777,46.895166666666654L253.66241666666667,44.73183333333333L253.68422395833335,49.6485L253.70021597222222,48.86183333333335L253.7031236111111,42.96183333333332L253.7089388888889,43.35516666666666L253.71184652777777,53.581833333333336L253.72056944444444,46.01016666666666" style="fill: none;" fill="none"></path></g></g></g></g></g></g><g transform="translate(68, 177)" clip-path="url(#clip_1)"><clipPath id="clip_1"><rect width="261" height="23"></rect></clipPath><g><g><line x1="0" y1="0" x2="0" y2="5" style="visibility: inherit;" fill="rgb(0, 0, 0)" stroke="rgb(204, 204, 204)" stroke-width="1px"></line><line x1="29.076388888888886" y1="0" x2="29.076388888888886" y2="5" style="visibility: inherit;" fill="rgb(0, 0, 0)" stroke="rgb(204, 204, 204)" stroke-width="1px"></line><line x1="58.15277777777777" y1="0" x2="58.15277777777777" y2="5" style="visibility: inherit;" fill="rgb(0, 0, 0)" stroke="rgb(204, 204, 204)" stroke-width="1px"></line><line x1="87.22916666666666" y1="0" x2="87.22916666666666" y2="5" style="visibility: inherit;" fill="rgb(0, 0, 0)" stroke="rgb(204, 204, 204)" stroke-width="1px"></line><line x1="116.30555555555554" y1="0" x2="116.30555555555554" y2="5" style="visibility: inherit;" fill="rgb(0, 0, 0)" stroke="rgb(204, 204, 204)" stroke-width="1px"></line><line x1="145.38194444444446" y1="0" x2="145.38194444444446" y2="5" style="visibility: inherit;" fill="rgb(0, 0, 0)" stroke="rgb(204, 204, 204)" stroke-width="1px"></line><line x1="174.45833333333331" y1="0" x2="174.45833333333331" y2="5" style="visibility: inherit;" fill="rgb(0, 0, 0)" stroke="rgb(204, 204, 204)" stroke-width="1px"></line><line x1="203.53472222222223" y1="0" x2="203.53472222222223" y2="5" style="visibility: inherit;" fill="rgb(0, 0, 0)" stroke="rgb(204, 204, 204)" stroke-width="1px"></line><line x1="232.6111111111111" y1="0" x2="232.6111111111111" y2="5" style="visibility: inherit;" fill="rgb(0, 0, 0)" stroke="rgb(204, 204, 204)" stroke-width="1px"></line><line x1="261.6875" y1="0" x2="261.6875" y2="5" style="visibility: inherit;" fill="rgb(0, 0, 0)" stroke="rgb(204, 204, 204)" stroke-width="1px"></line></g><g transform="translate(0, 8)"><text x="0" y="0" dx="0em" dy="0.95em" style="text-anchor: middle; visibility: hidden; font-family: &quot;Helvetica Neue&quot;, sans-serif; font-size: 12px; font-weight: 200;" fill="rgb(50, 49, 63)" stroke="none" stroke-width="1px">-20k</text><text x="29.076388888888886" y="0" dx="0em" dy="0.95em" style="text-anchor: middle; visibility: inherit; font-family: &quot;Helvetica Neue&quot;, sans-serif; font-size: 12px; font-weight: 200;" fill="rgb(50, 49, 63)" stroke="none" stroke-width="1px">0</text><text x="58.15277777777777" y="0" dx="0em" dy="0.95em" style="text-anchor: middle; visibility: hidden; font-family: &quot;Helvetica Neue&quot;, sans-serif; font-size: 12px; font-weight: 200;" fill="rgb(50, 49, 63)" stroke="none" stroke-width="1px">20k</text><text x="87.22916666666666" y="0" dx="0em" dy="0.95em" style="text-anchor: middle; visibility: inherit; font-family: &quot;Helvetica Neue&quot;, sans-serif; font-size: 12px; font-weight: 200;" fill="rgb(50, 49, 63)" stroke="none" stroke-width="1px">40k</text><text x="116.30555555555554" y="0" dx="0em" dy="0.95em" style="text-anchor: middle; visibility: hidden; font-family: &quot;Helvetica Neue&quot;, sans-serif; font-size: 12px; font-weight: 200;" fill="rgb(50, 49, 63)" stroke="none" stroke-width="1px">60k</text><text x="145.38194444444446" y="0" dx="0em" dy="0.95em" style="text-anchor: middle; visibility: inherit; font-family: &quot;Helvetica Neue&quot;, sans-serif; font-size: 12px; font-weight: 200;" fill="rgb(50, 49, 63)" stroke="none" stroke-width="1px">80k</text><text x="174.45833333333331" y="0" dx="0em" dy="0.95em" style="text-anchor: middle; visibility: hidden; font-family: &quot;Helvetica Neue&quot;, sans-serif; font-size: 12px; font-weight: 200;" fill="rgb(50, 49, 63)" stroke="none" stroke-width="1px">100k</text><text x="203.53472222222223" y="0" dx="0em" dy="0.95em" style="text-anchor: middle; visibility: inherit; font-family: &quot;Helvetica Neue&quot;, sans-serif; font-size: 12px; font-weight: 200;" fill="rgb(50, 49, 63)" stroke="none" stroke-width="1px">120k</text><text x="232.6111111111111" y="0" dx="0em" dy="0.95em" style="text-anchor: middle; visibility: hidden; font-family: &quot;Helvetica Neue&quot;, sans-serif; font-size: 12px; font-weight: 200;" fill="rgb(50, 49, 63)" stroke="none" stroke-width="1px">140k</text><text x="261.6875" y="0" dx="0em" dy="0.95em" style="text-anchor: middle; visibility: hidden; font-family: &quot;Helvetica Neue&quot;, sans-serif; font-size: 12px; font-weight: 200;" fill="rgb(50, 49, 63)" stroke="none" stroke-width="1px">160k</text></g><line x1="0" y1="0" x2="261.6875" y2="0" fill="rgb(0, 0, 0)" stroke="rgb(204, 204, 204)" stroke-width="1px"></line></g></g></g></g></svg>