<svg viewBox="0 0 330 200" xmlns="http://www.w3.org/2000/svg"><g><g><g><g><g><line x1="68.3125" y1="177" x2="63.3125" y2="177" style="visibility: inherit;" fill="rgb(0, 0, 0)" stroke="rgb(204, 204, 204)" stroke-width="1px"></line><line x1="68.3125" y1="162.25" x2="63.3125" y2="162.25" style="visibility: inherit;" fill="rgb(0, 0, 0)" stroke="rgb(204, 204, 204)" stroke-width="1px"></line><line x1="68.3125" y1="147.5" x2="63.3125" y2="147.5" style="visibility: inherit;" fill="rgb(0, 0, 0)" stroke="rgb(204, 204, 204)" stroke-width="1px"></line><line x1="68.3125" y1="132.75" x2="63.3125" y2="132.75" style="visibility: inherit;" fill="rgb(0, 0, 0)" stroke="rgb(204, 204, 204)" stroke-width="1px"></line><line x1="68.3125" y1="118" x2="63.3125" y2="118" style="visibility: inherit;" fill="rgb(0, 0, 0)" stroke="rgb(204, 204, 204)" stroke-width="1px"></line><line x1="68.3125" y1="103.25" x2="63.3125" y2="103.25" style="visibility: inherit;" fill="rgb(0, 0, 0)" stroke="rgb(204, 204, 204)" stroke-width="1px"></line><line x1="68.3125" y1="88.5" x2="63.3125" y2="88.5" style="visibility: inherit;" fill="rgb(0, 0, 0)" stroke="rgb(204, 204, 204)" stroke-width="1px"></line><line x1="68.3125" y1="73.75" x2="63.3125" y2="73.75" style="visibility: inherit;" fill="rgb(0, 0, 0)" stroke="rgb(204, 204, 204)" stroke-width="1px"></line><line x1="68.3125" y1="59" x2="63.3125" y2="59" style="visibility: inherit;" fill="rgb(0, 0, 0)" stroke="rgb(204, 204, 204)" stroke-width="1px"></line><line x1="68.3125" y1="44.25" x2="63.3125" y2="44.25" style="visibility: inherit;" fill="rgb(0, 0, 0)" stroke="rgb(204, 204, 204)" stroke-width="1px"></line><line x1="68.3125" y1="29.5" x2="63.3125" y2="29.5" style="visibility: inherit;" fill="rgb(0, 0, 0)" stroke="rgb(204, 204, 204)" stroke-width="1px"></line><line x1="68.3125" y1="14.75" x2="63.3125" y2="14.75" style="visibility: inherit;" fill="rgb(0, 0, 0)" stroke="rgb(204, 204, 204)" stroke-width="1px"></line><line x1="68.3125" y1="0" x2="63.3125" y2="0" style="visibility: inherit;" fill="rgb(0, 0, 0)" stroke="rgb(204, 204, 204)" stroke-width="1px"></line></g><g transform="translate(58.3125, 0)"><text x="0" y="177" dx="0em" dy="0.3em" style="text-anchor: end; visibility: hidden; font-family: &quot;Helvetica Neue&quot;, sans-serif; font-size: 12px; font-weight: 200;" fill="rgb(50, 49, 63)" stroke="none" stroke-width="1px">-1e+5</text><text x="0" y="162.25" dx="0em" dy="0.3em" style="text-anchor: end; visibility: inherit; font-family: &quot;Helvetica Neue&quot;, sans-serif; font-size: 12px; font-weight: 200;" fill="rgb(50, 49, 63)" stroke="none" stroke-width="1px">0</text><text x="0" y="147.5" dx="0em" dy="0.3em" style="text-anchor: end; visibility: hidden; font-family: &quot;Helvetica Neue&quot;, sans-serif; font-size: 12px; font-weight: 200;" fill="rgb(50, 49, 63)" stroke="none" stroke-width="1px">1e+5</text><text x="0" y="132.75" dx="0em" dy="0.3em" style="text-anchor: end; visibility: inherit; font-family: &quot;Helvetica Neue&quot;, sans-serif; font-size: 12px; font-weight: 200;" fill="rgb(50, 49, 63)" stroke="none" stroke-width="1px">2e+5</text><text x="0" y="118" dx="0em" dy="0.3em" style="text-anchor: end; visibility: hidden; font-family: &quot;Helvetica Neue&quot;, sans-serif; font-size: 12px; font-weight: 200;" fill="rgb(50, 49, 63)" stroke="none" stroke-width="1px">3e+5</text><text x="0" y="103.25" dx="0em" dy="0.3em" style="text-anchor: end; visibility: inherit; font-family: &quot;Helvetica Neue&quot;, sans-serif; font-size: 12px; font-weight: 200;" fill="rgb(50, 49, 63)" stroke="none" stroke-width="1px">4e+5</text><text x="0" y="88.5" dx="0em" dy="0.3em" style="text-anchor: end; visibility: hidden; font-family: &quot;Helvetica Neue&quot;, sans-serif; font-size: 12px; font-weight: 200;" fill="rgb(50, 49, 63)" stroke="none" stroke-width="1px">5e+5</text><text x="0" y="73.75" dx="0em" dy="0.3em" style="text-anchor: end; visibility: inherit; font-family: &quot;Helvetica Neue&quot;, sans-serif; font-size: 12px; font-weight: 200;" fill="rgb(50, 49, 63)" stroke="none" stroke-width="1px">6e+5</text><text x="0" y="59" dx="0em" dy="0.3em" style="text-anchor: end; visibility: hidden; font-family: &quot;Helvetica Neue&quot;, sans-serif; font-size: 12px; font-weight: 200;" fill="rgb(50, 49, 63)" stroke="none" stroke-width="1px">7e+5</text><text x="0" y="44.25" dx="0em" dy="0.3em" style="text-anchor: end; visibility: inherit; font-family: &quot;Helvetica Neue&quot;, sans-serif; font-size: 12px; font-weight: 200;" fill="rgb(50, 49, 63)" stroke="none" stroke-width="1px">8e+5</text><text x="0" y="29.5" dx="0em" dy="0.3em" style="text-anchor: end; visibility: hidden; font-family: &quot;Helvetica Neue&quot;, sans-serif; font-size: 12px; font-weight: 200;" fill="rgb(50, 49, 63)" stroke="none" stroke-width="1px">9e+5</text><text x="0" y="14.75" dx="0em" dy="0.3em" style="text-anchor: end; visibility: inherit; font-family: &quot;Helvetica Neue&quot;, sans-serif; font-size: 12px; font-weight: 200;" fill="rgb(50, 49, 63)" stroke="none" stroke-width="1px">1e+6</text><text x="0" y="0" dx="0em" dy="0.3em" style="text-anchor: end; visibility: hidden; font-family: &quot;Helvetica Neue&quot;, sans-serif; font-size: 12px; font-weight: 200;" fill="rgb(50, 49, 63)" stroke="none" stroke-width="1px">1.1e+6</text></g><line x1="68.3125" y1="0" x2="68.3125" y2="177" fill="rgb(0, 0, 0)" stroke="rgb(204, 204, 204)" stroke-width="1px"></line></g></g><g transform="translate(68, 0)" clip-path="url(#clip_0)"><clipPath id="clip_0"><rect width="261" height="177"></rect></clipPath><g><g><g><line x1="0" y1="0" x2="0" y2="177" fill="rgb(0, 0, 0)" stroke="rgb(60, 60, 60)" stroke-width="1px" opacity="0.25"></line><line x1="29.076388888888886" y1="0" x2="29.076388888888886" y2="177" fill="rgb(0, 0, 0)" stroke="rgb(60, 60, 60)" stroke-width="1px" opacity="0.25"></line><line x1="58.15277777777777" y1="0" x2="58.15277777777777" y2="177" fill="rgb(0, 0, 0)" stroke="rgb(60, 60, 60)" stroke-width="1px" opacity="0.25"></line><line x1="87.22916666666666" y1="0" x2="87.22916666666666" y2="177" fill="rgb(0, 0, 0)" stroke="rgb(60, 60, 60)" stroke-width="1px" opacity="0.25"></line><line x1="116.30555555555554" y1="0" x2="116.30555555555554" y2="177" fill="rgb(0, 0, 0)" stroke="rgb(60, 60, 60)" stroke-width="1px" opacity="0.25"></line><line x1="145.38194444444446" y1="0" x2="145.38194444444446" y2="177" fill="rgb(0, 0, 0)" stroke="rgb(60, 60, 60)" stroke-width="1px" opacity="0.25"></line><line x1="174.45833333333331" y1="0" x2="174.45833333333331" y2="177" fill="rgb(0, 0, 0)" stroke="rgb(60, 60, 60)" stroke-width="1px" opacity="0.25"></line><line x1="203.53472222222223" y1="0" x2="203.53472222222223" y2="177" fill="rgb(0, 0, 0)" stroke="rgb(60, 60, 60)" stroke-width="1px" opacity="0.25"></line><line x1="232.6111111111111" y1="0" x2="232.6111111111111" y2="177" fill="rgb(0, 0, 0)" stroke="rgb(60, 60, 60)" stroke-width="1px" opacity="0.25"></line><line x1="261.6875" y1="0" x2="261.6875" y2="177" fill="rgb(0, 0, 0)" stroke="rgb(60, 60, 60)" stroke-width="1px" opacity="0.25"></line></g><g><line x1="0" y1="177" x2="261.6875" y2="177" fill="rgb(0, 0, 0)" stroke="rgb(60, 60, 60)" stroke-width="1px" opacity="0.25"></line><line x1="0" y1="162.25" x2="261.6875" y2="162.25" fill="rgb(0, 0, 0)" stroke="rgb(60, 60, 60)" stroke-width="1px" opacity="0.25"></line><line x1="0" y1="147.5" x2="261.6875" y2="147.5" fill="rgb(0, 0, 0)" stroke="rgb(60, 60, 60)" stroke-width="1px" opacity="0.25"></line><line x1="0" y1="132.75" x2="261.6875" y2="132.75" fill="rgb(0, 0, 0)" stroke="rgb(60, 60, 60)" stroke-width="1px" opacity="0.25"></line><line x1="0" y1="118" x2="261.6875" y2="118" fill="rgb(0, 0, 0)" stroke="rgb(60, 60, 60)" stroke-width="1px" opacity="0.25"></line><line x1="0" y1="103.25" x2="261.6875" y2="103.25" fill="rgb(0, 0, 0)" stroke="rgb(60, 60, 60)" stroke-width="1px" opacity="0.25"></line><line x1="0" y1="88.5" x2="261.6875" y2="88.5" fill="rgb(0, 0, 0)" stroke="rgb(60, 60, 60)" stroke-width="1px" opacity="0.25"></line><line x1="0" y1="73.75" x2="261.6875" y2="73.75" fill="rgb(0, 0, 0)" stroke="rgb(60, 60, 60)" stroke-width="1px" opacity="0.25"></line><line x1="0" y1="59" x2="261.6875" y2="59" fill="rgb(0, 0, 0)" stroke="rgb(60, 60, 60)" stroke-width="1px" opacity="0.25"></line><line x1="0" y1="44.25" x2="261.6875" y2="44.25" fill="rgb(0, 0, 0)" stroke="rgb(60, 60, 60)" stroke-width="1px" opacity="0.25"></line><line x1="0" y1="29.5" x2="261.6875" y2="29.5" fill="rgb(0, 0, 0)" stroke="rgb(60, 60, 60)" stroke-width="1px" opacity="0.25"></line><line x1="0" y1="14.75" x2="261.6875" y2="14.75" fill="rgb(0, 0, 0)" stroke="rgb(60, 60, 60)" stroke-width="1px" opacity="0.25"></line><line x1="0" y1="0" x2="261.6875" y2="0" fill="rgb(0, 0, 0)" stroke="rgb(60, 60, 60)" stroke-width="1px" opacity="0.25"></line></g></g></g><g><g><line x1="0" y1="162.25" x2="261.6875" y2="162.25" fill="rgb(0, 0, 0)" stroke="rgb(153, 153, 153)" stroke-width="1.5px"></line></g></g><g><g><line x1="29.076388888888886" y1="0" x2="29.076388888888886" y2="177" fill="rgb(0, 0, 0)" stroke="rgb(153, 153, 153)" stroke-width="1.5px"></line></g></g><g><g><g><g><g><path stroke="rgb(255, 112, 67)" stroke-width="2px" d="M29.138903125000002,162.25L29.320630555555557,162.11647368421052L29.41076736111111,162.07321771217713L29.766953125,162.05170921779586L29.857089930555556,162.04934438719445L29.919604166666666,162.04778228142027L29.92978090277778,162.0466787262717L29.999564236111112,162.022812018567L30.01846388888889,162.0045185535466L30.115869791666665,161.9901218930766L30.252528819444446,161.98865773565603L30.552015625000003,161.97512836946947L31.015784027777777,161.958981117798L31.09138263888889,161.9454597509984L31.101559375,161.93718824646632L31.165527430555557,161.93014106483616L31.53625138888889,161.9154222798337L31.598765625,161.90272412727276L31.60312708333333,161.89171447358612L31.806661805555553,161.89085902346343L31.86481458333333,161.89358937322834L32.03781909722222,161.87945890889446L32.431804166666666,161.8704303197347L32.55101736111111,161.86246980588652L32.69058402777778,161.82762642607258L32.692037847222224,161.7967754784776L32.981347916666664,161.80167270294464L33.49454618055555,161.7801859273345L33.77367951388889,161.79466166025128L33.796940625,161.8075545382584L33.88271597222222,161.81705660779275L34.33776145833333,161.81148462266157L34.340669097222225,161.80650734687333L34.413360069444444,161.80964384716341L34.63288680555555,161.78975665510424L34.82915243055555,161.7930808790388L35.35398125,161.77362582911076L35.47464826388889,161.80036365820206L35.608399652777784,161.8037885399103L35.63311458333333,161.78694827188895L35.875902430555556,161.78828370975575L36.03873020833333,161.7685819592734L36.30477916666666,161.74358946260483L36.54175173611111,161.72278627247147L36.84850763888889,161.69993570631542L36.868861111111116,161.6924911575082L37.39805138888889,161.61524090950368L37.60303993055556,161.60890903080087L37.665554166666666,161.49388444901206L37.78622118055555,161.47158859629792L38.09152326388889,161.37315315394002L38.119145833333334,161.2437677115229L38.81697916666667,161.12283408036788L38.834425,161.01408043362943L39.042321180555554,160.9640601659507L39.20514895833333,160.87632635280653L39.47992083333334,160.85034717795827L39.80993784722222,160.66362821831842L39.92333576388889,160.6484801506715L39.92769722222222,160.6348526468396L40.414726736111106,160.6191945581837L40.46561041666667,160.55813372353683L40.80435034722222,160.4748387330373L40.97008576388889,160.47166361621225L41.02969236111111,160.5123654439766L41.43240034722223,160.4911136039665L41.44693854166666,160.47199080744105L41.58214375,160.37064332894852L41.98485173611111,160.40210339851035L42.06771944444445,160.32975522683248L42.540210763888886,160.26479807345456L42.84260520833334,160.17948496725188L42.96763368055556,160.11407409241497L42.986533333333334,160.0552099842377L43.17698368055556,160.01920566463025L44.196111111111115,159.97529547652965L44.312416666666664,159.9357790861831L44.374930902777784,159.8923969764725L44.49850555555555,159.80378326789665L44.75001631944444,159.88071424856457L44.92738229166667,159.9337207462194L44.931743749999995,159.9814246134811L45.02042673611111,159.94897198347041L45.098932986111116,159.81325533134648L45.21814618055556,159.61632189241814L45.843288541666666,159.57170452281832L45.89271840277778,159.61533863011203L46.06572291666667,159.81333338773732L46.17330555555555,159.85301090732827L46.47860763888889,159.81496441831482L46.485876736111116,159.7807231289138L46.76210243055555,159.6757093362879L46.945283680555555,159.6792911015663L47.79867569444444,159.46243365288348L48.026925347222225,159.57083266359535L48.06617847222222,159.66839084675846L48.845425694444444,159.65647882806357L48.87886354166667,159.54176718365014L49.15508923611111,159.54561557886151L49.75260902777778,159.4403687254717L49.85873784722222,159.46718999409393L49.92270590277778,159.46315590789223L50.08117222222222,159.19638015145472L50.358851736111106,159.3318244966889L50.40246631944444,159.15886683431046L50.56384027777778,159.30189716986936L50.70049930555555,159.4306240882594L51.57279097222222,159.44514434545536L51.62222083333334,159.55703856234945L51.99585243055556,159.14030834661463L52.507596875,159.09196710901693L52.80562986111111,158.95523937242157L53.58487708333334,159.09739139492606L53.88872534722222,159.01676176549591L53.93379375,158.81365697821568L54.25363402777778,158.82984136005172L54.28561805555555,158.90753756821687L54.58219722222222,158.81521344332444L54.602550694444446,158.73212180085494L55.90226527777777,158.90528767996466L56.86905520833333,158.75581097754085L56.94610763888889,158.712142265563L57.47239027777778,158.69998051037646L57.63085659722222,158.82473522365765L57.651210069444446,158.93701441539005L57.763154166666666,158.8023602427638L58.1469625,158.74341662744675L58.23128402777778,158.71971993176166L58.24436840277778,158.69839291190377L58.35485868055555,158.69778362002734L58.50896354166667,158.35090490650757L58.52059409722222,158.29506936493289L58.62381527777778,158.40470751843398L58.79391215277778,158.20218661697868L58.937840277777774,158.21697796511518L58.99453923611111,158.2302901765695L59.28675694444445,158.16616112437603L59.29111840277778,157.9281998966004L59.39724722222222,157.71403481351658L59.724356597222226,157.67911131845392L59.81740104166666,157.86140775102132L59.94533715277778,157.941547001404L60.07181944444445,158.00570731962668L60.36839861111111,157.93881407043327L60.840889930555555,158.03569768585018L61.41805625,157.42403778964587L61.541630902777776,157.46044651751808L61.58233784722222,157.4932143713041L62.71631701388889,157.39939541990367L62.73085520833333,157.3149583663546L62.79482326388889,157.17391751234257L62.83262256944444,157.0469807470333L62.93148229166666,156.9327376609292L63.040518750000004,157.012376401989L63.136470833333334,156.58712372741564L63.300752430555555,156.63067135784215L63.48974895833334,156.86441673736235L63.50574097222222,157.07478757602271L63.53481736111111,157.14921882236786L63.87937256944444,157.3994019520726L64.18322083333334,157.51054926164L64.37948645833333,157.63182184016466L64.38239409722223,157.74096715994602L64.43763923611111,157.71441294311984L64.87233125,157.7980416511649L65.01480555555555,157.96814999036343L65.02643611111111,157.93318499052884L65.27940069444445,157.6899064864774L65.3273767361111,157.80887834002968L65.79114513888888,157.72051550455612L65.905996875,157.6409889529093L65.99177222222222,157.45318505508666L66.60383020833333,157.28357154752013L66.65471388888889,157.39405939397457L66.76229652777776,157.5106084557225L67.31765555555556,157.10825010659153L68.03584236111111,156.86545509399969L68.03729618055554,156.64693958303423L68.55485590277777,156.75338812541716L68.56212500000001,156.8491918134314L69.06514652777778,156.65929513109648L69.20762083333334,156.06668561520132L69.2585045138889,156.3267395547813L69.53036875,156.35502559941088L69.66266631944444,156.29227803925477L70.42156006944444,156.11515023478304L70.57421111111111,155.85750021058962L71.19499201388888,155.5111551886655L71.23279131944444,155.19944466909814L71.32874340277777,155.3889139525717L71.53082430555556,155.2103775569894L71.6209611111111,155.26047230137257L71.92335555555556,155.38255257141537L71.94661666666666,155.4924248144197L72.12689027777778,155.6668298331861L72.44382291666666,155.64531934984439L72.69969513888888,155.77242741498296L72.73749444444445,155.8868246735843L72.945390625,156.15896470643918L73.16782500000001,156.29488823589116L73.37572118055556,156.15216191221143L73.58216354166667,155.8564432208213L73.71882256944444,155.94355889878398L73.73917604166667,155.75093175881642L74.73649618055555,156.05259108306043L74.7902875,155.92244197470558L75.15810381944445,155.44894777707526L75.42560659722223,155.3474504993369L75.50702048611112,155.23810794937333L75.60588020833333,154.82368090433405L75.90100555555556,154.78426781389192L76.2324763888889,154.9185685325295L76.38803506944444,155.0394391792982L76.55522430555556,155.2954277614097L76.70787534722221,155.63467248531802L76.89977951388889,155.49955773676854L76.91141006944444,155.3779544630774L77.10331423611112,155.4927115167818L77.31702569444445,155.31574286508675L77.44786944444445,155.21620857856954L77.59906666666666,154.76761272067796L77.63977361111111,154.36387644858212L78.12534930555556,154.55791630373602L78.14279513888889,154.73255217337226L78.17041770833333,154.88972445604298L78.1951326388889,155.21260451045342L78.27363888888888,155.18813655940707L78.32743020833334,155.16611540346554L78.38122152777778,155.14629636311832L78.56004131944445,154.99851172680206L78.71269236111111,155.0441280541231L79.03398645833333,153.7892477486804L79.06451666666666,152.65985547378773L79.27095902777778,152.9732624264151L79.37854166666666,153.22007618377796L79.64604444444444,153.11387356539848L80.44564513888889,153.64914870886628L80.47617534722222,153.7243863379806L80.50961319444446,153.79210020418333L80.66371805555555,153.84640518376557L80.79456180555555,154.0905696653913L81.08241805555555,154.01620269885154L81.19581597222222,154.21816492896792L81.34701319444444,154.24623593607132L81.371728125,154.27149984246435L81.46913402777778,154.29423735821803L81.77298229166666,154.5648611223976L81.81514305555555,154.98085001015968L82.3297951388889,155.51542500914587L82.37340972222222,155.99654250823303L82.53042222222221,155.94648575740956L82.6510892361111,155.54876218166746L82.73395694444444,155.19081096349976L83.16283368055555,154.00459986714696L83.58007986111112,154.04399738043233L83.97988020833334,154.31501264238963L84.1427079861111,152.19096137814697L84.60211493055556,151.81508524033168L84.96120833333333,151.26646171629775L84.98446944444444,150.77270054466734L85.36973159722223,148.1302704901976L85.54418993055555,148.8571059411786L85.74917847222223,149.40387784706124L86.20713159722222,149.22248756235496L86.79738229166666,148.1025513061186L86.91223402777777,148.42284617550698L87.05325451388889,148.71111155795646L87.09832291666666,149.11495290216104L87.259696875,149.8319676119453L87.66095104166668,149.82916585075074L87.95753020833334,149.74271676567562L88.19450277777777,150.3645050891083L88.20031805555556,150.92411458019765L88.24829409722223,151.42776312217802L88.27737048611111,151.15859180996014L88.38349930555556,151.8122526289643L88.74259270833333,151.39371236606777L89.039171875,148.98078862946053L89.078425,146.80915726651412L89.18019236111111,147.29492903986278L89.46804861111112,146.38987363587637L89.49130972222223,145.57532377228864L90.33307118055556,145.46512139505975L90.79247812499999,146.26008425555386L90.81864687500001,146.97555082999853L91.12394895833333,146.1853282469986L92.34515729166667,146.7982354222988L92.47454722222223,147.815214380069L92.52106944444445,148.73049544206214L92.62574444444445,149.24243339785596L92.66499756944445,149.04208255807035L92.67081284722222,148.8617668022633L92.76240347222222,148.69948262203698L93.03572152777778,148.40017435983327L93.15202708333332,149.17288442384995L93.33666215277778,148.44848848146495L93.34683888888888,147.79653213331844L93.41080694444445,148.5520214199866L93.487859375,148.03691677798793L94.23221493055556,147.75460010018912L94.44738020833333,147.3786800901702L94.9504017361111,146.9564245811532L94.96348611111111,146.57639462303786L95.04053854166668,146.23436766073408L95.23680416666667,145.78671339466067L95.45633090277778,145.9567145551946L96.41585173611111,145.87430559967513L96.43911284722222,145.80013753970763L96.55396458333334,146.71912878573687L96.67899305555557,147.9897534071632L97.84495625,147.55816306644687L98.25784097222223,148.31595425980217L98.33489340277778,148.99796633382198L98.37996180555557,149.61177720043978L98.43229930555556,149.6599044803958L98.48899826388889,149.97373403235622L98.68962534722222,149.4891806291206L98.78412361111111,149.05308256620853L98.81756145833333,148.66059430958768L98.97166631944445,147.6576173786289L99.12431736111111,145.314453140766L99.19119305555556,144.86232532668942L99.62006979166667,142.99147279402047L100.08819965277777,141.5882505146184L100.710434375,141.46818046315659L100.82528611111111,140.78589991684092L101.00846736111112,141.38193742515682L101.77753784722222,139.97933618264113L101.85022881944445,138.71699506437702L101.98543402777779,138.93729805793933L102.00869513888888,138.56843325214538L102.05230972222222,138.23645492693083L102.15843854166667,137.70801693423778L102.68326736111112,138.005322740814L102.95949305555555,137.8948554667326L103.19210416666667,137.03713742005934L103.41744618055556,133.5045811780534L103.55265138888889,133.42676306024805L103.63261145833334,133.35672675422325L104.38278229166666,133.93384407880092L104.39441284722221,134.45324967092083L104.609578125,133.67891220382873L104.67790763888888,132.98200848344587L105.10096909722222,133.9067901351013L105.18965208333334,135.60285362159115L105.41790173611112,135.20812325943203L105.66795868055556,136.49247593348883L105.99361423611111,137.02166584013995L106.04159027777777,137.49793675612597L106.26402465277778,138.18809808051336L106.28583194444444,138.80924327246203L106.81066076388888,138.87355894521582L107.15666979166666,138.13125555069422L107.16684652777778,137.4631824956248L107.17266180555555,136.86191674606232L107.17847708333333,136.3207775714561L107.383465625,134.65080231431048L107.44743368055555,133.88016208287945L107.68876770833333,132.6017483745915L107.74110520833334,131.45117603713234L107.7629125,130.4156609334191L107.93446319444445,127.90588984007718L108.58868194444445,129.98359585606948L108.75732500000001,129.05825877046252L108.94632152777777,131.06099539341628L109.01174340277778,132.86345835407465L109.31849930555555,129.7674450186672L109.47260416666667,129.43676051680046L109.82733611111111,129.38428946512042L109.83896666666666,129.33706551860837L110.07448541666668,126.37701396674754L110.15153784722223,123.71296757007278L110.98166875,123.27560081306551L111.22881805555555,121.93413573175896L111.24917152777778,120.47503465858307L111.37565381944445,120.29567619272476L111.6358875,121.35319357345227L111.68386354166667,122.30495921610705L111.94409722222221,122.17846079449635L112.38024305555555,120.04518971504672L112.38896597222222,118.12524574354205L112.64919965277777,115.52793116918784L113.05045381944444,113.78698555226907L113.82824722222223,112.19977949704216L114.03905104166667,111.83270404733794L114.20769409722223,111.69556114260415L114.33126875,112.33492877834372L114.44466666666668,106.73549340050936L114.48391979166666,101.69600156045841L114.50863472222223,97.16045890441258L115.23699826388888,93.66994551397131L115.30532777777779,90.52848346257419L115.48123993055555,91.24957511631676L115.783634375,89.59490260468507L115.82724895833333,89.74663484421656L116.56724305555555,88.2710188597949L116.57596597222222,86.94296447381541L116.60795,85.74771552643388L116.73879375,84.6218414737905L116.99757361111111,86.94323482641146L118.05886180555557,88.37862134377029L118.1620829861111,91.17496920939325L118.39760173611111,88.60706228845393L118.53716840277778,86.29594605960854L118.74942604166667,84.60283395364769L119.41672916666666,84.74548805828293L119.53303472222223,84.87387675245465L119.96481909722222,84.97688907720918L120.0098875,85.06960016948824L120.48528645833332,90.25727765253943L120.703359375,90.84751738728548L120.98830798611111,93.18796814855693L121.18893506944444,88.51704383370124L121.29070243055556,84.31321195033111L121.29215625,80.529763255298L121.41427708333335,78.3899144297682L121.64398055555556,76.46405048679138L121.92602152777778,71.47854543811223L122.10484131944445,69.72063589430101L122.26476145833334,76.80650230487089L122.44939652777778,74.79943957438381L122.86518888888888,72.89927311694544L122.87972708333334,71.18912330525089L123.12106111111112,72.4632559747258L123.41473263888888,73.6099753772532L123.93229236111111,80.61002033952788L124.000621875,86.9100608055751L124.23032534722223,83.8452947250176L124.27539374999999,81.08700525251582L124.44985208333334,77.62942222726426L124.5109125,74.51759750453782L124.60686458333333,72.83692275408406L124.89472083333334,74.48878047867564L125.10116319444445,75.97545243080806L125.46316423611111,74.56980968772724L126.17408194444444,72.25807121895453L126.408146875,68.67713659705908L126.44885381944444,65.45429543735315L126.51427569444445,64.34055339361784L127.12342604166668,61.55033805425606L128.31991944444445,62.19682424883044L128.34608819444443,57.9455293239474L128.48710868055556,58.49908139155265L128.5612534722222,58.99727825239738L128.79531840277778,65.86234792715764L129.28816319444445,72.04091063444187L129.37393854166666,72.29146957099768L129.6399875,76.89890261389792L129.66034097222223,81.04559235250811L130.05287222222222,77.87254811725731L130.08340243055557,75.0168083055316L130.43668055555557,78.06506497497843L130.55153229166666,72.39185097748059L130.72162916666667,70.85944087973253L131.51686840277776,66.95905429175927L131.68841909722224,63.44870636258334L131.79890937500002,60.28939322632499L132.1754486111111,57.32476640369249L132.2932079861111,56.22555976332325L132.92125798611113,56.97456128699089L133.1044392361111,57.64866265829181L133.14223854166667,58.25535389246264L133.31088159722222,57.207343503216364L133.53476979166666,59.29319415289473L133.61618368055557,61.17045973760524L133.6903284722222,62.85999876384473L133.72231250000002,64.59460638746025L133.77028854166667,66.15575324871422L133.8066340277778,67.56078542384279L134.18462708333334,65.0892868814585L134.1875347222222,62.86493819331265L134.33582430555558,60.863024373981375L134.3401857638889,59.06130193658325L134.56407395833332,65.55298924292491L134.80395416666667,62.07926031863241L135.02202708333334,58.244904286769184L135.21974652777777,67.71439385809227L135.46689583333335,76.23693447228304L135.66897673611112,72.69441852505473L136.35372569444445,73.31416167254926L136.36099479166666,73.87193050529433L136.42932430555558,74.37392245476488L136.51655347222223,74.8257152092884L136.54999131944444,75.23232868835956L136.93234583333333,75.36228081952359L136.94252256944446,83.81992023757124L137.97037291666666,84.58410821381412L138.36290416666668,85.27187739243273L138.79614236111112,85.89086965318944L138.8223111111111,86.44796268787049L138.9386166666667,86.94934641908343L139.4634454861111,87.4005917771751L139.7120486111111,82.3236950994576L139.88505312499998,77.75448808951184L140.19471666666666,73.64220178056065L140.26886145833333,69.9411441025046L140.47821145833333,65.52650969225414L140.54654097222223,61.553338723028716L140.71663784722222,57.97748485072583L140.8852809027778,67.70543886565326L140.89545763888887,76.46059747908794L141.30979618055557,84.34024023117915L141.7924642361111,90.10264870806124L142.187903125,95.2888163372551L142.33183125000002,99.9563672035296L142.672025,105.17683048317663L142.77815381944444,109.87524743485898L142.86102152777778,114.10382269137307L143.60246944444444,107.97202292223577L143.70132916666668,102.45340313001218L143.81327326388887,97.48664531701097L143.8336267361111,93.01656328530986L143.89032569444444,85.89008945677888L143.93684791666666,79.476263011101L144.37880902777778,73.70381920999088L144.53727534722222,68.50861978899181L144.79750902777778,63.83294031009264L145.34705277777778,59.62482877908337L145.42846666666665,55.837528401175035L145.43428194444445,52.428958061057514L145.52878020833333,49.36124475495177L145.6232784722222,46.6003027794566L145.95038784722223,44.115455001510924L145.9736489583333,41.87909200135982L146.18299895833334,39.86636530122385L146.2207982638889,38.054911271101474L146.27458958333332,36.42460264399131L146.83140243055556,42.79517987959218L146.859025,48.528699391632955L147.0073145833333,53.68886695246968L147.3911229166667,58.333017757222706L147.5554045138889,62.51275348150044L147.60628819444443,66.27451563335038L148.22125381944446,63.484424070015336L149.3610482638889,62.27812666301382L149.410478125,61.19245899671242L149.5253298611111,64.98742559704118L149.85389305555555,64.15504303733707L149.92949166666665,63.405898733603365L150.13302638888888,62.73166886024302L150.48630451388888,61.782956974218706L150.8526670138889,62.24068627679682L151.08673194444444,64.08486764911716L151.43855625,65.74463088420542L151.48507847222223,67.23841779578487L151.79328819444444,68.5828260162064L152.07242152777778,72.64323091458576L152.19599618055554,76.29759532312718L152.38790034722223,72.62644079081446L152.681571875,67.18202921173301L152.72809409722223,62.28205879055969L152.78188541666665,57.87208541150373L152.8981909722222,53.90310937035336L153.11771770833332,51.316920933318L153.3910357638889,58.24409133998621L153.43610416666667,59.920499705987595L153.48408020833332,61.42926723538882L153.64981562499997,62.787158011849925L153.74140625,64.00925971066495L154.08450763888888,65.10915123959845L154.12666840277777,67.2281661156386L155.24029409722223,74.53746700407473L155.25919375,81.11583780366726L155.36386875,74.73236402330053L155.57176493055556,70.51356762097048L156.13148541666666,67.89134085887343L156.214353125,65.53133677298608L156.3684579861111,63.40733309568746L156.46295625,61.49572978611873L156.528378125,59.77528680750686L156.76535069444444,58.22688812675615L157.21312708333335,56.83332931408053L157.993828125,57.85947638267247L158.1988166666667,58.78300874440522L158.84867395833334,59.61418786996471L158.9722486111111,55.87456158296824L158.9955097222222,52.5088979246714L159.55086875,60.234468132204256L159.57558368055555,67.18748131898384L159.76458020833334,73.44519318708544L159.88233958333333,79.07713386837688L159.9724763888889,84.1458804815392L160.26614791666668,87.46712993338528L160.57581145833333,85.21705444004675L161.48299479166667,83.19198649604208L161.51207118055558,81.36942534643788L161.8115579861111,78.0175303117941L162.06452256944445,75.00082478061468L162.28259548611112,72.28578980255323L162.311671875,69.84225832229788L162.31603333333334,67.64307999006809L162.4396079861111,65.66381949106129L162.44396944444443,63.88248504195515L162.96589062500001,61.633971537759635L163.00368993055554,59.610309383983676L163.88906597222223,57.7890134455853L163.97484131944444,56.14984710102675L164.46623229166664,59.99713489092406L164.60725277777777,63.459693901831656L164.96779999999998,61.764694511648486L165.5929423611111,65.55067006048364L166.28932187499998,68.95804805443528L166.51611770833333,63.81292074899173L166.87666493055556,63.75657617409257L167.0322236111111,61.749868556683325L167.2735576388889,59.94383170101497L167.45819270833334,61.406163530913474L167.65736597222224,62.72226217782213L167.7387798611111,63.9067509600399L167.78530208333333,64.9727908640359L167.88852326388889,66.58019427763232L168.44097465277778,65.05723984986909L168.57036458333334,63.570055864882164L168.60380243055553,62.231590278393966L169.0821090277778,69.06778625055456L169.4223027777778,75.2203626254991L169.51680104166667,80.75768136294919L170.12449756944446,85.74126822665427L170.32512465277776,90.22649640398883L170.42689201388887,94.26320176358996L170.528659375,97.89623658723096L170.70311770833334,101.16596792850785L170.7670857638889,104.10872613565707L170.96480520833333,106.75720852209136L171.1770628472222,109.14084266988222L171.25556909722224,111.28611340289399L171.37187465277776,113.21685706260459L171.53179479166667,109.58242885634412L171.75422916666668,106.71544597070971L171.8603579861111,98.39239637363873L172.13949131944443,96.40384423627488L172.24125868055555,94.61414731264736L172.31249583333332,93.00342008138263L173.08592777777778,91.55376557324436L173.74160034722223,86.17129151591992L173.89570520833334,81.32706486432794L173.89861284722224,76.96726087789514L174.29114409722223,76.83713729010563L174.872671875,76.72002606109507L175.2826489583333,76.61462595498556L175.31608680555556,76.316953359487L175.55160555555557,76.04904802353829L175.7071642361111,76.28170322118446L175.79293958333332,76.491092899066L175.80602395833333,76.6795436091594L175.90924513888888,76.84914924824345L176.01828159722223,77.00179432341912L176.1389486111111,77.1391748910772L176.2538003472222,77.26281740196949L176.4006361111111,77.37409566177254L176.4297125,77.47424609559529L176.54020277777778,77.56438148603577L176.62307048611112,77.6455033374322L176.63906250000002,77.71851300368898L177.25548194444445,72.20178920332009L177.28455833333334,67.23673778298807L177.81374861111112,67.60294650468927L178.10742013888887,68.21337435422033L178.15394236111112,68.5978544187983L178.2324486111111,68.94388647691846L178.36329236111112,69.25531532922663L178.6467871527778,69.53560129630395L178.69185555555558,69.78785866667356L178.77181562500002,70.01489030000619L178.82269930555555,70.2192187700056L178.83723750000001,70.40311439300503L179.12073229166666,70.57009545370454L179.49291006944443,66.06306590833405L179.57287013888887,62.006739317500646L180.1980125,66.4219353857506L180.6763190972222,70.39561184717552L180.76064062499998,73.97192066245796L181.29855381944444,77.19059859621215L181.44975104166667,80.08740873659094L181.47010451388888,82.69453786293184L181.49772708333333,85.04095407663866L181.55733368055556,87.15272866897477L181.57768715277777,89.05332580207731L181.59949444444445,90.7638632218696L181.61839409722222,92.30334689968264L181.67509305555555,93.68888220971435L181.8640895833333,94.93586398874292L182.1141465277778,92.66107508986862L182.3598420138889,90.61376508088176L182.6157142361111,84.8950335727936L182.749465625,83.51237521551423L182.85414062499999,82.26798269396281L182.87449409722223,81.14802942456652L183.48800590277776,80.33845898210988L183.57087361111113,79.60984558389889L183.74969340277778,81.95380102550901L184.005565625,84.06336092295811L184.15094756944444,82.2477673306623L184.3006909722222,83.13229559759607L184.78626666666665,83.56463603783646L185.74724131944444,79.65411743405282L185.80539409722223,76.13465069064755L185.8533701388889,72.9671306215828L186.12087291666668,70.1163625594245L186.7431076388889,70.84847630348206L186.94228090277778,71.50737867313384L187.8959864583333,67.74309330582047L187.89744027777778,64.35523647523841L187.98176180555555,61.30616532771458L188.27252569444443,60.64750379494312L188.38737743055555,58.4384034154488L188.7392017361111,56.450213073903925L189.08957222222222,59.19027176651353L189.2756611111111,61.656324589862194L189.32363715277776,63.87577213087596L189.605678125,65.87327491778835L189.69290729166667,67.67102742600953L189.84991979166668,69.28900468340856L189.90225729166667,70.7451842150677L189.92987986111112,72.05574579356093L190.06944652777779,73.23525121420482L190.73384201388888,68.61466359278432L190.7934486111111,64.4561347335059L190.92138472222223,60.713458760155305L191.24413263888889,64.01618038413976L191.4665670138889,63.67356734572577L191.7413388888889,67.1627506111532L191.78204583333334,70.30301555003788L192.588915625,73.1292539950341L192.8709565972222,70.12288609553067L192.92765555555556,67.41715498597762L193.216965625,64.98199698737984L193.82756979166666,62.790354788641864L194.03255833333336,70.07246930977767L194.21573958333332,73.6099973787999L194.4367201388889,76.79377264091991L194.78418298611112,79.6591703768279L195.23777465277777,82.23802833914512L195.4805625,85.9567105052306L195.49219305555553,89.30352445470754L196.00539131944444,92.3156570092368L196.4066454861111,87.7453863083131L196.48369791666667,85.84936267748179L197.00271145833335,87.88103390973362L197.02015729166666,89.70953801876026L197.37925069444444,84.20394921688424L197.38942743055557,79.24891929519582L197.54353229166668,74.78939236567624L197.77759722222223,70.7758181291086L197.90844097222222,70.48235131619774L198.37947847222222,72.24340618457796L198.6280815972222,73.82835556612015L198.69931875,75.25481000950812L198.7545638888889,76.5386190085573L198.80399375000002,77.69404710770158L198.85923888888888,78.73393239693141L198.9159378472222,79.66982915723827L199.08458090277776,78.55569624151444L199.19797881944444,77.552976617363L199.21833229166666,76.65052895562671L199.24304722222223,75.83832606006405L199.4000597222222,75.10734345405764L199.47856597222224,74.44945910865187L200.09789305555557,73.85736319778668L200.37411875,73.32447687800801L200.54276180555556,70.15020169020723L200.86260208333331,69.78448152118649L200.90476284722223,69.45533336906784L201.57497361111112,70.81508253216104L201.94860520833333,68.46242427894494L201.99076597222222,66.34503185105044L202.07944895833333,64.43937866594541L202.52141006944444,64.84312829935087L202.7656517361111,65.20650296941578L203.50564583333332,65.7661476724742L203.52745312500002,66.26982790522676L203.9592375,66.7231401147041L204.77773784722223,67.13112110323368L204.8649670138889,67.49830399291031L205.26912881944446,66.70821109361928L205.27058263888887,65.99712748425735L205.4319565972222,65.35715223583162L205.47266354166666,64.78117451224844L205.51627812499999,64.26279456102358L205.57588472222224,63.79625260492122L205.7445277777778,63.376364844429105L206.20393472222221,62.9984658599862L206.26499513888888,62.65835677398758L206.31733263888887,62.33101859658882L206.74184791666667,62.03641423692993L206.78691631944446,61.771270313236926L207.21288541666667,61.532640781913216L207.348090625,61.3178742037219L207.36553645833334,61.124584283349705L207.5181875,60.95062335501473L207.99649409722224,60.79405851951324L208.78301041666666,61.16541766756191L208.81790208333334,61.49964090080573L208.865878125,61.80044181072515L209.50119722222223,62.07116262965263L209.59714930555555,62.31481136668735L209.63785625,62.53409523001861L210.1248857638889,62.78204320701674L210.38511944444443,63.00519638631509L210.45635659722222,63.20603424768356L210.46071805555556,63.386788322915194L210.47671006944447,63.549466990623685L210.540678125,62.83713279156133L210.8677875,62.19603201240517L211.22688090277776,61.61904131116465L212.90458854166667,62.182104680048184L213.25786666666664,62.21302671204336L213.61841388888888,61.75838404083902L213.69546631944445,61.34920563675513L213.8539326388889,60.980945073079596L214.047290625,60.649510565771635L214.31479340277778,60.08262200919448L214.50088229166667,59.57242230827501L214.57793472222224,68.86417257744752L214.6389951388889,77.22674781970277L214.79746145833332,84.75306553773248L214.80763819444445,91.52675148395923L214.85416041666664,97.62306883556332L214.9006826388889,103.10975445200697L214.989365625,108.04777150680627L215.015534375,112.49198685612564L215.329559375,116.49178067051307L215.60869270833334,110.57386260346176L215.75988993055554,105.24773634311558L215.85002673611112,100.77857520880401L216.10299131944444,96.75633018792361L216.4053857638889,93.13630966913124L216.83280868055556,89.87829120221812L216.89096145833332,86.94607458199633L217.082865625,84.30707962379667L217.2108017361111,81.93198416141702L217.22824756944445,79.79439824527533L217.23987812500002,77.8705709207478L217.28058506944444,76.13912632867302L217.3503684027778,75.35210369580572L217.41288263888887,74.64378332622513L217.59751770833333,74.68243499360263L217.8184982638889,72.96639649424235L217.96533402777777,71.42196184481811L218.17759166666667,70.03197066033628L218.31425069444444,68.78097859430267L218.53377743055557,67.6550857348724L219.09640555555555,66.64178216138515L219.1400201388889,65.72980894524665L219.42060729166667,64.90903305072197L219.50783645833334,64.63510724564976L219.54418194444446,63.724676521084774L220.2420152777778,67.1456188689763L220.25800729166667,70.22446698207868L220.5167871527778,72.9954302838708L220.550225,71.69456475548373L220.59529340277777,70.52378577993535L220.80173576388887,69.4700847019418L220.8220892361111,68.52175373174762L221.7176420138889,67.66825585857286L221.96479131944443,67.09539777271557L222.3137079861111,66.288807995444L222.3369690972222,65.56287719589962L222.53323472222223,64.77737947630966L222.735315625,64.0704315286787L222.89814340277778,63.434178375810816L223.15692326388887,59.92969303822973L223.20344548611112,56.77565623440675L223.3081204861111,53.93702311096607L223.68611354166666,54.91768079986947L223.89982500000002,55.800272719882514L224.436284375,56.55256794789426L224.4551840277778,57.22963365310484L224.57875868055555,57.83899278779435L224.82736180555557,58.38741600901491L225.09486458333333,58.88099690811343L225.12830243055555,59.325219717302076L225.13557152777778,59.72502024557187L225.16464791666667,60.084840721014686L225.31875277777777,60.40867914891322L225.81886666666668,60.700133734021904L226.23756666666668,60.2239103606197L226.61119826388887,59.92761682455772L227.10113541666666,59.83397014210195L227.20435659722224,59.749688127891744L227.3177545138889,59.045779315102564L227.7757076388889,58.41226138359232L227.7829767361111,57.84209524523307L227.80478402777777,57.32894572070977L228.28454444444444,56.867111148638784L228.3310666666667,56.45146003377491L228.61746909722223,56.94821403039741L228.95184756944445,57.39529262735768L229.07251458333332,57.79766336462191L229.10013715277776,58.1597970281597L229.24988055555554,57.58773732534374L229.3327482638889,57.07288359280936L229.65549618055556,56.60951523352841L229.93172187500002,56.184666210175564L230.350421875,56.52711708915801L230.39112881944445,56.83532288024222L230.51615729166667,57.112708092217986L231.0700625,55.754014782996194L231.1020465277778,54.53119080469655L231.53383090277777,54.42804422422691L231.74463472222223,57.27001980180421L231.81151041666666,59.827797821623804L232.57621944444443,59.38275803946141L232.63437222222223,58.98222223551525L232.6460027777778,58.62174001196374L232.67798680555555,58.29730601076736L232.692525,58.00531540969061L232.80301527777777,58.752161368721545L232.8524451388889,59.42432273184939L232.97892743055556,59.67925045866444L233.02399583333332,59.90868541279799L233.70292951388888,66.5544368715182L233.96025555555556,72.53561318436638L234.0503923611111,77.91867186592974L234.38913229166667,82.76342467933677L234.39785520833334,87.12370221140309L235.3064923611111,86.83741699026277L235.3588298611111,86.5797602912365L235.4998503472222,86.34786926211285L235.7804375,83.20199983590156L235.80515243055555,80.37071735231142L235.80660625000002,77.82256311708026L236.2412982638889,75.58129180537223L236.2936357638889,73.564147624835L236.6120222222222,71.7487178623515L236.81701076388887,69.95553107611634L237.24443368055557,68.3416629685047L237.47122951388891,66.88918167165423L237.67912569444445,65.5819485044888L237.80415416666665,64.40543865403993L237.81869236111112,63.34657978863595L238.02368090277778,62.393606809772336L238.08910277777778,61.60496112879511L238.1254482638889,60.8951800159156L238.3086295138889,60.25637701432403L238.410396875,59.48690181289163L238.6560923611111,59.27020913160247L238.75640590277777,59.51163821844223L238.84218124999998,59.72892439659799L239.01518576388887,59.924481956938195L239.195459375,60.10048376124436L239.22598958333333,60.258885385119925L240.2887315972222,59.81041434660793L240.77139965277777,58.98154791194713L240.78739166666668,58.23556812075242L240.91532777777778,57.564186308677165L240.9720267361111,56.95994267780945L241.03163333333333,56.416123410028504L241.236621875,56.639406069025654L241.7890732638889,56.8403604621231L241.91555555555556,57.02121941591078L242.34733993055556,57.18399247431971L243.21963159722222,56.70656322688771L243.3068607638889,56.27687690419894L243.32139895833333,55.89015921377904L243.5031263888889,55.542113292401154L244.33471111111112,55.21471196316102L244.51789236111114,54.92005076684491L244.6618204861111,54.65485569016042L244.85953993055557,54.64288762114438L245.0369059027778,54.632116359029936L245.12122743055556,54.62242222312696L245.22154097222221,54.61369750081427L245.22735625,54.60584525073283L245.3741920138889,54.59877822565956L245.4992204861111,54.59241790309359L245.52102777777776,54.58669361278422L246.33952812500002,54.33388925150581L246.50380972222223,54.10636532635522L246.68989861111112,53.901593793719684L246.7117059027778,53.71729941434771L246.81347326388888,53.551434472912945L246.98502395833333,53.402156025621636L247.05916875000003,53.26780542305946L247.15948229166668,53.14688988075352L247.16529756944445,53.038065892678176L247.93146041666668,52.94012430341034L247.95908298611113,52.851976873069304L248.07538854166665,52.772644185762374L248.25275451388887,52.70124476718614L248.40540555555555,52.63698529046752L248.6656392361111,52.57915176142076L248.68599270833334,52.52710158527867L248.73833020833334,52.48025642675081L248.79793680555554,52.43809578407571L248.93459583333333,52.40015120566815L249.00583298611113,52.36600108510133L249.0290940972222,52.33526597659119L249.14685347222223,52.30760437893207L249.26752048611112,52.28270894103886L249.39400277777779,52.26030304693498L249.42017152777777,52.24013774224146L249.6164371527778,52.22198896801733L249.81415659722222,52.20565507121559L250.3767847222222,53.06120456409404L250.43057604166665,53.83119910768461L250.81874583333334,54.524194196916156L251.11823263888888,54.51437727722454L251.17202395833334,54.50554204950207L251.1996465277778,55.77597284455189" style="fill: none;" fill="none"></path></g></g></g></g><g opacity="0.2"><g><g><g><path stroke="rgb(255, 112, 67)" stroke-width="2px" d="M29.138903125000002,162.25L29.320630555555557,161.9963L29.41076736111111,161.99925L29.766953125,161.99925L29.857089930555556,162.042025L29.919604166666666,162.042025L29.92978090277778,162.042025L29.999564236111112,161.91075L30.01846388888889,161.91075L30.115869791666665,161.91075L30.252528819444446,161.980075L30.552015625000003,161.891575L31.015784027777777,161.8547L31.09138263888889,161.8547L31.101559375,161.879775L31.165527430555557,161.879775L31.53625138888889,161.8075L31.598765625,161.8075L31.60312708333333,161.8075L31.806661805555553,161.8842L31.86481458333333,161.915175L32.03781909722222,161.7662L32.431804166666666,161.797175L32.55101736111111,161.797175L32.69058402777778,161.53905L32.692037847222224,161.53905L32.981347916666664,161.8429L33.49454618055555,161.59805L33.77367951388889,161.918125L33.796940625,161.918125L33.88271597222222,161.89895L34.33776145833333,161.76325L34.340669097222225,161.76325L34.413360069444444,161.837L34.63288680555555,161.61575L34.82915243055555,161.82225L35.35398125,161.602475L35.47464826388889,162.036125L35.608399652777784,161.83405L35.63311458333333,161.637875L35.875902430555556,161.800125L36.03873020833333,161.593625L36.30477916666666,161.52135L36.54175173611111,161.537575L36.84850763888889,161.496275L36.868861111111116,161.62607500000001L37.39805138888889,160.92545L37.60303993055556,161.552325L37.665554166666666,160.46525L37.78622118055555,161.272075L38.09152326388889,160.4918L38.119145833333334,160.0847L38.81697916666667,160.038975L38.834425,160.038975L39.042321180555554,160.5154L39.20514895833333,160.089125L39.47992083333334,160.617175L39.80993784722222,158.9873L39.92333576388889,160.51245L39.92769722222222,160.51245L40.414726736111106,160.478525L40.46561041666667,160.009475L40.80435034722222,159.726275L40.97008576388889,160.443125L41.02969236111111,160.87825L41.43240034722223,160.30005L41.44693854166666,160.30005L41.58214375,159.4593L41.98485173611111,160.685025L42.06771944444445,159.679075L42.540210763888886,159.68055L42.84260520833334,159.4121L42.96763368055556,159.525675L42.986533333333334,159.525675L43.17698368055556,159.6953L44.196111111111115,159.58025L44.312416666666664,159.58025L44.374930902777784,159.502075L44.49850555555555,159.006475L44.75001631944444,160.572925L44.92738229166667,160.410675L44.931743749999995,160.410675L45.02042673611111,159.65695L45.098932986111116,158.592L45.21814618055556,157.844175L45.843288541666666,159.1702L45.89271840277778,160.008L46.06572291666667,161.5951L46.17330555555555,160.210075L46.47860763888889,159.472575L46.485876736111116,159.472575L46.76210243055555,158.73065L46.945283680555555,159.711525L47.79867569444444,157.510825L48.026925347222225,160.546375L48.06617847222222,160.546375L48.845425694444444,159.549275L48.87886354166667,158.5094L49.15508923611111,159.58025L49.75260902777778,158.493175L49.85873784722222,159.708575L49.92270590277778,159.42685L50.08117222222222,156.79545L50.358851736111106,160.5508L50.40246631944444,157.602275L50.56384027777778,160.58915L50.70049930555555,160.58915L51.57279097222222,159.575825L51.62222083333334,160.564075L51.99585243055556,155.389775L52.507596875,158.6569L52.80562986111111,157.7247L53.58487708333334,160.37675000000002L53.88872534722222,158.2911L53.93379375,156.985725L54.25363402777778,158.9755L54.28561805555555,159.6068L54.58219722222222,157.9843L54.602550694444446,157.9843L55.90226527777777,160.463775L56.86905520833333,157.410525L56.94610763888889,158.31912499999999L57.47239027777778,158.590525L57.63085659722222,159.94752499999998L57.651210069444446,159.94752499999998L57.763154166666666,157.590475L58.1469625,158.212925L58.23128402777778,158.50645L58.24436840277778,158.50645L58.35485868055555,158.6923L58.50896354166667,155.22899999999998L58.52059409722222,157.79255L58.62381527777778,159.39145L58.79391215277778,156.3795L58.937840277777774,158.3501L58.99453923611111,158.3501L59.28675694444445,157.589L59.29111840277778,155.78655L59.39724722222222,155.78655L59.724356597222226,157.3648L59.81740104166666,159.502075L59.94533715277778,158.6628L60.07181944444445,158.58315L60.36839861111111,157.336775L60.840889930555555,158.90765L61.41805625,151.91910000000001L61.541630902777776,157.788125L61.58233784722222,157.788125L62.71631701388889,156.555025L62.73085520833333,156.555025L62.79482326388889,155.90455L62.83262256944444,155.90455L62.93148229166666,155.90455L63.040518750000004,157.729125L63.136470833333334,152.75985L63.300752430555555,157.0226L63.48974895833334,158.968125L63.50574097222222,158.968125L63.53481736111111,157.8191L63.87937256944444,159.65105L64.18322083333334,158.510875L64.37948645833333,158.723275L64.38239409722223,158.723275L64.43763923611111,157.475425L64.87233125,158.5507L65.01480555555555,159.499125L65.02643611111111,157.6185L65.27940069444445,155.5004L65.3273767361111,158.879625L65.79114513888888,156.92525L65.905996875,156.92525L65.99177222222222,155.76295L66.60383020833333,155.75705L66.65471388888889,158.38845L66.76229652777776,158.55955L67.31765555555556,153.487025L68.03584236111111,154.6803L68.03729618055554,154.6803L68.55485590277777,157.711425L68.56212500000001,157.711425L69.06514652777778,154.950225L69.20762083333334,150.7332L69.2585045138889,158.667225L69.53036875,156.6096L69.66266631944444,155.72755L70.42156006944444,154.52100000000002L70.57421111111111,153.53865L71.19499201388888,152.39405L71.23279131944444,152.39405L71.32874340277777,157.0941375L71.53082430555556,153.60354999999998L71.6209611111111,155.711325L71.92335555555556,156.481275L71.94661666666666,156.481275L72.12689027777778,157.23647499999998L72.44382291666666,155.451725L72.69969513888888,156.9164L72.73749444444445,156.9164L72.945390625,158.608225L73.16782500000001,157.5182L73.37572118055556,154.867625L73.58216354166667,153.194975L73.71882256944444,156.7276L73.73917604166667,154.0172875L74.73649618055555,158.767525L74.7902875,154.7511L75.15810381944445,151.1875L75.42560659722223,154.433975L75.50702048611112,154.254025L75.60588020833333,151.0938375L75.90100555555556,154.42955L76.2324763888889,156.127275L76.38803506944444,156.127275L76.55522430555556,157.599325L76.70787534722221,158.687875L76.89977951388889,154.283525L76.91141006944444,154.283525L77.10331423611112,156.525525L77.31702569444445,153.723025L77.44786944444445,154.3204L77.59906666666666,150.73025L77.63977361111111,150.73025L78.12534930555556,156.304275L78.14279513888889,156.304275L78.17041770833333,156.304275L78.1951326388889,158.118525L78.27363888888888,154.967925L78.32743020833334,154.967925L78.38122152777778,154.967925L78.56004131944445,153.66845L78.71269236111111,155.454675L79.03398645833333,142.495325L79.06451666666666,142.495325L79.27095902777778,155.793925L79.37854166666666,155.4414L79.64604444444444,152.15805L80.44564513888889,158.466625L80.47617534722222,154.401525L80.50961319444446,154.401525L80.66371805555555,154.33515L80.79456180555555,156.28805L81.08241805555555,153.3469L81.19581597222222,156.035825L81.34701319444444,154.498875L81.371728125,154.498875L81.46913402777778,154.498875L81.77298229166666,157.000475L81.81514305555555,158.72475L82.3297951388889,160.32659999999998L82.37340972222222,160.32659999999998L82.53042222222221,155.495975L82.6510892361111,151.96925L82.73395694444444,151.96925L83.16283368055555,143.3287L83.58007986111112,154.398575L83.97988020833334,156.75415L84.1427079861111,133.0745L84.60211493055556,148.4322L84.96120833333333,146.32885L84.98446944444444,146.32885L85.36973159722223,124.3484L85.54418993055555,155.398625L85.74917847222223,154.324825L86.20713159722222,147.589975L86.79738229166666,138.023125L86.91223402777777,151.3055L87.05325451388889,151.3055L87.09832291666666,152.749525L87.259696875,156.2851L87.66095104166668,149.80395L87.95753020833334,148.964675L88.19450277777777,155.9606L88.20031805555556,155.9606L88.24829409722223,155.9606L88.27737048611111,148.73605L88.38349930555556,157.6952L88.74259270833333,147.62685L89.039171875,127.264475L89.078425,127.264475L89.18019236111111,151.666875L89.46804861111112,138.244375L89.49130972222223,138.244375L90.33307118055556,144.4733L90.79247812499999,153.41475L90.81864687500001,153.41475L91.12394895833333,139.073325L92.34515729166667,152.3144L92.47454722222223,156.968025L92.52106944444445,156.968025L92.62574444444445,153.849875L92.66499756944445,147.238925L92.67081284722222,147.238925L92.76240347222222,147.238925L93.03572152777778,145.7064L93.15202708333332,156.127275L93.33666215277778,141.928925L93.34683888888888,141.928925L93.41080694444445,155.351425L93.487859375,143.40097500000002L94.23221493055556,145.21375L94.44738020833333,143.9954L94.9504017361111,143.156125L94.96348611111111,143.156125L95.04053854166668,143.156125L95.23680416666667,141.757825L95.45633090277778,147.486725L96.41585173611111,145.132625L96.43911284722222,145.132625L96.55396458333334,154.99005L96.67899305555557,159.425375L97.84495625,143.67385000000002L98.25784097222223,155.136075L98.33489340277778,155.136075L98.37996180555557,155.136075L98.43229930555556,150.09305L98.48899826388889,152.7982L98.68962534722222,145.1282L98.78412361111111,145.1282L98.81756145833333,145.1282L98.97166631944445,138.63082500000002L99.12431736111111,124.225975L99.19119305555556,140.793175L99.62006979166667,126.15379999999999L100.08819965277777,128.95925L100.710434375,140.38755L100.82528611111111,134.645375L101.00846736111112,146.746275L101.77753784722222,127.35592500000001L101.85022881944445,127.35592500000001L101.98543402777779,140.920025L102.00869513888888,135.24865L102.05230972222222,135.24865L102.15843854166667,132.952075L102.68326736111112,140.681075L102.95949305555555,136.90064999999998L103.19210416666667,129.317675L103.41744618055556,101.711575L103.55265138888889,132.7264L103.63261145833334,132.7264L104.38278229166666,139.1279L104.39441284722221,139.1279L104.609578125,126.709875L104.67790763888888,126.709875L105.10096909722222,142.229825L105.18965208333334,150.867425L105.41790173611112,131.65555L105.66795868055556,148.05165L105.99361423611111,141.784375L106.04159027777777,141.784375L106.26402465277778,144.39955L106.28583194444444,144.39955L106.81066076388888,139.4524L107.15666979166666,131.450525L107.16684652777778,131.450525L107.17266180555555,131.450525L107.17847708333333,131.450525L107.383465625,119.621025L107.44743368055555,126.9444L107.68876770833333,121.096025L107.74110520833334,121.096025L107.7629125,121.096025L107.93446319444445,105.31795000000001L108.58868194444445,148.68295L108.75732500000001,120.73022499999999L108.94632152777777,149.085625L109.01174340277778,149.085625L109.31849930555555,101.903325L109.47260416666667,126.4606L109.82733611111111,128.91205L109.83896666666666,128.91205L110.07448541666668,99.73655L110.15153784722223,99.73655L110.98166875,119.33930000000001L111.22881805555555,109.86095L111.24917152777778,107.343125L111.37565381944445,118.68145L111.6358875,130.87085L111.68386354166667,130.87085L111.94409722222221,121.039975L112.38024305555555,100.84575L112.38896597222222,100.84575L112.64919965277777,92.1521L113.05045381944444,98.118475L113.82824722222223,97.91492500000001L114.03905104166667,108.529025L114.20769409722223,110.461275L114.33126875,118.0892375L114.44466666666668,56.340575L114.48391979166666,56.340575L114.50863472222223,56.340575L115.23699826388888,62.255324999999985L115.30532777777779,62.255324999999985L115.48123993055555,97.7394L115.783634375,74.70285000000001L115.82724895833333,91.112225L116.56724305555555,74.990475L116.57596597222222,74.990475L116.60795,74.990475L116.73879375,74.488975L116.99757361111111,107.835775L118.05886180555557,101.2971L118.1620829861111,116.3421L118.39760173611111,65.49589999999999L118.53716840277778,65.49589999999999L118.74942604166667,69.364825L119.41672916666666,86.029375L119.53303472222223,86.029375L119.96481909722222,85.904L120.0098875,85.904L120.48528645833332,136.946375L120.703359375,96.15967500000001L120.98830798611111,114.252025L121.18893506944444,46.478725L121.29070243055556,46.478725L121.29215625,46.478725L121.41427708333335,59.131275L121.64398055555556,59.131275L121.92602152777778,26.60900000000001L122.10484131944445,53.89945L122.26476145833334,140.5793L122.44939652777778,56.73587499999999L122.86518888888888,55.797775L122.87972708333334,55.797775L123.12106111111112,83.93045L123.41473263888888,83.93045L123.93229236111111,143.610425L124.000621875,143.610425L124.23032534722223,56.2624L124.27539374999999,56.2624L124.44985208333334,46.51117500000001L124.5109125,46.51117500000001L124.60686458333333,57.71084999999999L124.89472083333334,89.3555L125.10116319444445,89.3555L125.46316423611111,61.919025000000005L126.17408194444444,51.452425000000005L126.408146875,36.448724999999996L126.44885381944444,36.448724999999996L126.51427569444445,54.316874999999996L127.12342604166668,36.4384L128.31991944444445,68.0152L128.34608819444443,19.683875L128.48710868055556,63.48105000000001L128.5612534722222,63.48105000000001L128.79531840277778,127.647975L129.28816319444445,127.647975L129.37393854166666,74.54650000000001L129.6399875,118.36580000000001L129.66034097222223,118.36580000000001L130.05287222222222,49.31514999999999L130.08340243055557,49.31514999999999L130.43668055555557,105.499375L130.55153229166666,21.33292499999999L130.72162916666667,57.067750000000004L131.51686840277776,31.855574999999988L131.68841909722224,31.855574999999988L131.79890937500002,31.855574999999988L132.1754486111111,30.643124999999998L132.2932079861111,46.33270000000002L132.92125798611113,63.715575L133.1044392361111,63.715575L133.14223854166667,63.715575L133.31088159722222,47.77525L133.53476979166666,78.06585000000001L133.61618368055557,78.06585000000001L133.6903284722222,78.06585000000001L133.72231250000002,80.206075L133.77028854166667,80.206075L133.8066340277778,80.206075L134.18462708333334,42.8458L134.1875347222222,42.8458L134.33582430555558,42.8458L134.3401857638889,42.8458L134.56407395833332,123.978175L134.80395416666667,30.815699999999993L135.02202708333334,23.73570000000001L135.21974652777777,152.9398L135.46689583333335,152.9398L135.66897673611112,40.81177499999998L136.35372569444445,78.89184999999999L136.36099479166666,78.89184999999999L136.42932430555558,78.89184999999999L136.51655347222223,78.89184999999999L136.54999131944444,78.89184999999999L136.93234583333333,76.53185L136.94252256944446,159.938675L137.97037291666666,91.4618L138.36290416666668,91.4618L138.79614236111112,91.4618L138.8223111111111,91.4618L138.9386166666667,91.4618L139.4634454861111,91.4618L139.7120486111111,36.631625000000014L139.88505312499998,36.631625000000014L140.19471666666666,36.631625000000014L140.26886145833333,36.631625000000014L140.47821145833333,25.79480000000001L140.54654097222223,25.79480000000001L140.71663784722222,25.79480000000001L140.8852809027778,155.257025L140.89545763888887,155.257025L141.30979618055557,155.257025L141.7924642361111,141.964325L142.187903125,141.964325L142.33183125000002,141.964325L142.672025,152.161L142.77815381944444,152.161L142.86102152777778,152.161L143.60246944444444,52.78582499999999L143.70132916666668,52.78582499999999L143.81327326388887,52.78582499999999L143.8336267361111,52.78582499999999L143.89032569444444,21.751824999999997L143.93684791666666,21.751824999999997L144.37880902777778,21.751824999999997L144.53727534722222,21.751824999999997L144.79750902777778,21.751824999999997L145.34705277777778,21.751824999999997L145.42846666666665,21.751824999999997L145.43428194444445,21.751824999999997L145.52878020833333,21.751824999999997L145.6232784722222,21.751824999999997L145.95038784722223,21.751824999999997L145.9736489583333,21.751824999999997L146.18299895833334,21.751824999999997L146.2207982638889,21.751824999999997L146.27458958333332,21.751824999999997L146.83140243055556,100.130375L146.859025,100.130375L147.0073145833333,100.130375L147.3911229166667,100.130375L147.5554045138889,100.130375L147.60628819444443,100.130375L148.22125381944446,38.37360000000001L149.3610482638889,51.42144999999999L149.410478125,51.42144999999999L149.5253298611111,99.142125L149.85389305555555,56.6636L149.92949166666665,56.6636L150.13302638888888,56.6636L150.48630451388888,53.24454999999999L150.8526670138889,66.36025000000001L151.08673194444444,80.68249999999999L151.43855625,80.68249999999999L151.48507847222223,80.68249999999999L151.79328819444444,80.68249999999999L152.07242152777778,109.186875L152.19599618055554,109.186875L152.38790034722223,39.58605L152.681571875,18.18232499999999L152.72809409722223,18.18232499999999L152.78188541666665,18.18232499999999L152.8981909722222,18.18232499999999L153.11771770833332,28.041224999999997L153.3910357638889,120.58862500000001L153.43610416666667,75.00817500000001L153.48408020833332,75.00817500000001L153.64981562499997,75.00817500000001L153.74140625,75.00817500000001L154.08450763888888,75.00817500000001L154.12666840277777,86.2993L155.24029409722223,140.321175L155.25919375,140.321175L155.36386875,17.28110000000001L155.57176493055556,32.544399999999996L156.13148541666666,44.29130000000001L156.214353125,44.29130000000001L156.3684579861111,44.29130000000001L156.46295625,44.29130000000001L156.528378125,44.29130000000001L156.76535069444444,44.29130000000001L157.21312708333335,44.29130000000001L157.993828125,67.09479999999999L158.1988166666667,67.09479999999999L158.84867395833334,67.09479999999999L158.9722486111111,22.217925000000008L158.9955097222222,22.217925000000008L159.55086875,129.7646L159.57558368055555,129.7646L159.76458020833334,129.7646L159.88233958333333,129.7646L159.9724763888889,129.7646L160.26614791666668,117.358375L160.57581145833333,64.96637500000001L161.48299479166667,64.96637500000001L161.51207118055558,64.96637500000001L161.8115579861111,47.85047500000002L162.06452256944445,47.85047500000002L162.28259548611112,47.85047500000002L162.311671875,47.85047500000002L162.31603333333334,47.85047500000002L162.4396079861111,47.85047500000002L162.44396944444443,47.85047500000002L162.96589062500001,41.39734999999999L163.00368993055554,41.39734999999999L163.88906597222223,41.39734999999999L163.97484131944444,41.39734999999999L164.46623229166664,94.622725L164.60725277777777,94.622725L164.96779999999998,46.50970000000001L165.5929423611111,99.62445L166.28932187499998,99.62445L166.51611770833333,17.506775000000005L166.87666493055556,63.249475000000004L167.0322236111111,43.68950000000001L167.2735576388889,43.68950000000001L167.45819270833334,74.56715L167.65736597222224,74.56715L167.7387798611111,74.56715L167.78530208333333,74.56715L167.88852326388889,81.046825L168.44097465277778,51.35065L168.57036458333334,50.1854L168.60380243055553,50.1854L169.0821090277778,130.59355L169.4223027777778,130.59355L169.51680104166667,130.59355L170.12449756944446,130.59355L170.32512465277776,130.59355L170.42689201388887,130.59355L170.528659375,130.59355L170.70311770833334,130.59355L170.7670857638889,130.59355L170.96480520833333,130.59355L171.1770628472222,130.59355L171.25556909722224,130.59355L171.37187465277776,130.59355L171.53179479166667,76.872575L171.75422916666668,80.9126L171.8603579861111,23.484949999999998L172.13949131944443,78.506875L172.24125868055555,78.506875L172.31249583333332,78.506875L173.08592777777778,78.506875L173.74160034722223,37.72902500000001L173.89570520833334,37.72902500000001L173.89861284722224,37.72902500000001L174.29114409722223,75.666025L174.872671875,75.666025L175.2826489583333,75.666025L175.31608680555556,73.6379L175.55160555555557,73.6379L175.7071642361111,78.37559999999999L175.79293958333332,78.37559999999999L175.80602395833333,78.37559999999999L175.90924513888888,78.37559999999999L176.01828159722223,78.37559999999999L176.1389486111111,78.37559999999999L176.2538003472222,78.37559999999999L176.4006361111111,78.37559999999999L176.4297125,78.37559999999999L176.54020277777778,78.37559999999999L176.62307048611112,78.37559999999999L176.63906250000002,78.37559999999999L177.25548194444445,22.551275000000004L177.28455833333334,22.551275000000004L177.81374861111112,70.898825L178.10742013888887,73.70722500000001L178.15394236111112,72.05817499999999L178.2324486111111,72.05817499999999L178.36329236111112,72.05817499999999L178.6467871527778,72.05817499999999L178.69185555555558,72.05817499999999L178.77181562500002,72.05817499999999L178.82269930555555,72.05817499999999L178.83723750000001,72.05817499999999L179.12073229166666,72.072925L179.49291006944443,25.499799999999993L179.57287013888887,25.499799999999993L180.1980125,106.1587L180.6763190972222,106.1587L180.76064062499998,106.1587L181.29855381944444,106.1587L181.44975104166667,106.1587L181.47010451388888,106.1587L181.49772708333333,106.1587L181.55733368055556,106.1587L181.57768715277777,106.1587L181.59949444444445,106.1587L181.61839409722222,106.1587L181.67509305555555,106.1587L181.8640895833333,106.1587L182.1141465277778,72.187975L182.3598420138889,72.187975L182.6157142361111,33.42644999999999L182.749465625,71.06845L182.85414062499999,71.06845L182.87449409722223,71.06845L183.48800590277776,73.052325L183.57087361111113,73.052325L183.74969340277778,103.0494L184.005565625,103.0494L184.15094756944444,65.907425L184.3006909722222,91.09305L184.78626666666665,87.4557L185.74724131944444,44.459450000000004L185.80539409722223,44.459450000000004L185.8533701388889,44.459450000000004L186.12087291666668,44.459450000000004L186.7431076388889,77.4375L186.94228090277778,77.4375L187.8959864583333,33.864524999999986L187.89744027777778,33.864524999999986L187.98176180555555,33.864524999999986L188.27252569444443,54.71955000000001L188.38737743055555,38.5565L188.7392017361111,38.5565L189.08957222222222,83.8508L189.2756611111111,83.8508L189.32363715277776,83.8508L189.605678125,83.8508L189.69290729166667,83.8508L189.84991979166668,83.8508L189.90225729166667,83.8508L189.92987986111112,83.8508L190.06944652777779,83.8508L190.73384201388888,27.029374999999987L190.7934486111111,27.029374999999987L190.92138472222223,27.029374999999987L191.24413263888889,93.740675L191.4665670138889,60.590050000000005L191.7413388888889,98.5654L191.78204583333334,98.5654L192.588915625,98.5654L192.8709565972222,43.065574999999995L192.92765555555556,43.065574999999995L193.216965625,43.065574999999995L193.82756979166666,43.065574999999995L194.03255833333336,135.6115L194.21573958333332,105.44775L194.4367201388889,105.44775L194.78418298611112,105.44775L195.23777465277777,105.44775L195.4805625,119.42485L195.49219305555553,119.42485L196.00539131944444,119.42485L196.4066454861111,46.612949999999984L196.48369791666667,68.78515000000002L197.00271145833335,106.166075L197.02015729166666,106.166075L197.37925069444444,34.65365L197.38942743055557,34.65365L197.54353229166668,34.65365L197.77759722222223,34.65365L197.90844097222222,67.84115L198.37947847222222,88.0929L198.6280815972222,88.0929L198.69931875,88.0929L198.7545638888889,88.0929L198.80399375000002,88.0929L198.85923888888888,88.0929L198.9159378472222,88.0929L199.08458090277776,68.5285L199.19797881944444,68.5285L199.21833229166666,68.5285L199.24304722222223,68.5285L199.4000597222222,68.5285L199.47856597222224,68.5285L200.09789305555557,68.5285L200.37411875,68.5285L200.54276180555556,41.581725000000006L200.86260208333331,66.49300000000001L200.90476284722223,66.49300000000001L201.57497361111112,83.052825L201.94860520833333,47.2885L201.99076597222222,47.2885L202.07944895833333,47.2885L202.52141006944444,68.47687499999999L202.7656517361111,68.47687499999999L203.50564583333332,70.80295000000001L203.52745312500002,70.80295000000001L203.9592375,70.80295000000001L204.77773784722223,70.80295000000001L204.8649670138889,70.80295000000001L205.26912881944446,59.597375000000014L205.27058263888887,59.597375000000014L205.4319565972222,59.597375000000014L205.47266354166666,59.597375000000014L205.51627812499999,59.597375000000014L205.57588472222224,59.597375000000014L205.7445277777778,59.597375000000014L206.20393472222221,59.597375000000014L206.26499513888888,59.597375000000014L206.31733263888887,59.384975L206.74184791666667,59.384975L206.78691631944446,59.384975L207.21288541666667,59.384975L207.348090625,59.384975L207.36553645833334,59.384975L207.5181875,59.384975L207.99649409722224,59.384975L208.78301041666666,64.50765000000001L208.81790208333334,64.50765000000001L208.865878125,64.50765000000001L209.50119722222223,64.50765000000001L209.59714930555555,64.50765000000001L209.63785625,64.50765000000001L210.1248857638889,65.013575L210.38511944444443,65.013575L210.45635659722222,65.013575L210.46071805555556,65.013575L210.47671006944447,65.013575L210.540678125,56.426125L210.8677875,56.426125L211.22688090277776,56.426125L212.90458854166667,67.249675L213.25786666666664,62.491325L213.61841388888888,57.6666L213.69546631944445,57.6666L213.8539326388889,57.6666L214.047290625,57.6666L214.31479340277778,54.980625L214.50088229166667,54.980625L214.57793472222224,152.489925L214.6389951388889,152.489925L214.79746145833332,152.489925L214.80763819444445,152.489925L214.85416041666664,152.489925L214.9006826388889,152.489925L214.989365625,152.489925L215.015534375,152.489925L215.329559375,152.489925L215.60869270833334,57.31259999999999L215.75988993055554,57.31259999999999L215.85002673611112,60.55612500000001L216.10299131944444,60.55612500000001L216.4053857638889,60.55612500000001L216.83280868055556,60.55612500000001L216.89096145833332,60.55612500000001L217.082865625,60.55612500000001L217.2108017361111,60.55612500000001L217.22824756944445,60.55612500000001L217.23987812500002,60.55612500000001L217.28058506944444,60.55612500000001L217.3503684027778,68.2689L217.41288263888887,68.2689L217.59751770833333,75.03030000000001L217.8184982638889,57.52204999999999L217.96533402777777,57.52204999999999L218.17759166666667,57.52204999999999L218.31425069444444,57.52204999999999L218.53377743055557,57.52204999999999L219.09640555555555,57.52204999999999L219.1400201388889,57.52204999999999L219.42060729166667,57.52204999999999L219.50783645833334,62.169775L219.54418194444446,55.5308L220.2420152777778,97.9341L220.25800729166667,97.9341L220.5167871527778,97.9341L220.550225,59.98677500000001L220.59529340277777,59.98677500000001L220.80173576388887,59.98677500000001L220.8220892361111,59.98677500000001L221.7176420138889,59.98677500000001L221.96479131944443,61.93967500000001L222.3137079861111,59.0295L222.3369690972222,59.0295L222.53323472222223,57.707899999999995L222.735315625,57.707899999999995L222.89814340277778,57.707899999999995L223.15692326388887,28.389325000000014L223.20344548611112,28.389325000000014L223.3081204861111,28.389325000000014L223.68611354166666,63.7436L223.89982500000002,63.7436L224.436284375,63.323224999999994L224.4551840277778,63.323224999999994L224.57875868055555,63.323224999999994L224.82736180555557,63.323224999999994L225.09486458333333,63.323224999999994L225.12830243055555,63.323224999999994L225.13557152777778,63.323224999999994L225.16464791666667,63.323224999999994L225.31875277777777,63.323224999999994L225.81886666666668,63.323224999999994L226.23756666666668,55.93790000000001L226.61119826388887,57.26097499999999L227.10113541666666,58.991150000000005L227.20435659722224,58.991150000000005L227.3177545138889,52.710599999999985L227.7757076388889,52.710599999999985L227.7829767361111,52.710599999999985L227.80478402777777,52.710599999999985L228.28454444444444,52.710599999999985L228.3310666666667,52.710599999999985L228.61746909722223,61.419L228.95184756944445,61.419L229.07251458333332,61.419L229.10013715277776,61.419L229.24988055555554,52.4392L229.3327482638889,52.4392L229.65549618055556,52.4392L229.93172187500002,52.361025L230.350421875,59.60917500000001L230.39112881944445,59.60917500000001L230.51615729166667,59.60917500000001L231.0700625,43.52577499999998L231.1020465277778,43.52577499999998L231.53383090277777,53.499725L231.74463472222223,82.84779999999999L231.81151041666666,82.84779999999999L232.57621944444443,55.377399999999994L232.63437222222223,55.377399999999994L232.6460027777778,55.377399999999994L232.67798680555555,55.377399999999994L232.692525,55.377399999999994L232.80301527777777,65.47377499999999L232.8524451388889,65.47377499999999L232.97892743055556,61.97359999999999L233.02399583333332,61.97359999999999L233.70292951388888,126.36619999999999L233.96025555555556,126.36619999999999L234.0503923611111,126.36619999999999L234.38913229166667,126.36619999999999L234.39785520833334,126.36619999999999L235.3064923611111,84.26084999999999L235.3588298611111,84.26084999999999L235.4998503472222,84.26084999999999L235.7804375,54.889174999999994L235.80515243055555,54.889174999999994L235.80660625000002,54.889174999999994L236.2412982638889,55.409850000000006L236.2936357638889,55.409850000000006L236.6120222222222,55.409850000000006L236.81701076388887,53.81685L237.24443368055557,53.81685L237.47122951388891,53.81685L237.67912569444445,53.81685L237.80415416666665,53.81685L237.81869236111112,53.81685L238.02368090277778,53.81685L238.08910277777778,54.507149999999996L238.1254482638889,54.507149999999996L238.3086295138889,54.507149999999996L238.410396875,52.56162499999999L238.6560923611111,57.319975L238.75640590277777,61.6845L238.84218124999998,61.6845L239.01518576388887,61.6845L239.195459375,61.6845L239.22598958333333,61.6845L240.2887315972222,55.774175L240.77139965277777,51.52175000000001L240.78739166666668,51.52175000000001L240.91532777777778,51.52175000000001L240.9720267361111,51.52175000000001L241.03163333333333,51.52175000000001L241.236621875,58.64895L241.7890732638889,58.64895L241.91555555555556,58.64895L242.34733993055556,58.64895L243.21963159722222,52.4097L243.3068607638889,52.4097L243.32139895833333,52.4097L243.5031263888889,52.4097L244.33471111111112,52.268100000000004L244.51789236111114,52.268100000000004L244.6618204861111,52.268100000000004L244.85953993055557,54.535174999999995L245.0369059027778,54.535174999999995L245.12122743055556,54.535174999999995L245.22154097222221,54.535174999999995L245.22735625,54.535174999999995L245.3741920138889,54.535174999999995L245.4992204861111,54.535174999999995L245.52102777777776,54.535174999999995L246.33952812500002,52.05865L246.50380972222223,52.05865L246.68989861111112,52.05865L246.7117059027778,52.05865L246.81347326388888,52.05865L246.98502395833333,52.05865L247.05916875000003,52.05865L247.15948229166668,52.05865L247.16529756944445,52.05865L247.93146041666668,52.05865L247.95908298611113,52.05865L248.07538854166665,52.05865L248.25275451388887,52.05865L248.40540555555555,52.05865L248.6656392361111,52.05865L248.68599270833334,52.05865L248.73833020833334,52.05865L248.79793680555554,52.05865L248.93459583333333,52.05865L249.00583298611113,52.05865L249.0290940972222,52.05865L249.14685347222223,52.05865L249.26752048611112,52.05865L249.39400277777779,52.05865L249.42017152777777,52.05865L249.6164371527778,52.05865L249.81415659722222,52.05865L250.3767847222222,60.761150000000015L250.43057604166665,60.761150000000015L250.81874583333334,60.761150000000015L251.11823263888888,54.42602500000001L251.17202395833334,54.42602500000001L251.1996465277778,67.20985" style="fill: none;" fill="none"></path></g></g></g></g></g></g><g transform="translate(68, 177)" clip-path="url(#clip_1)"><clipPath id="clip_1"><rect width="261" height="23"></rect></clipPath><g><g><line x1="0" y1="0" x2="0" y2="5" style="visibility: inherit;" fill="rgb(0, 0, 0)" stroke="rgb(204, 204, 204)" stroke-width="1px"></line><line x1="29.076388888888886" y1="0" x2="29.076388888888886" y2="5" style="visibility: inherit;" fill="rgb(0, 0, 0)" stroke="rgb(204, 204, 204)" stroke-width="1px"></line><line x1="58.15277777777777" y1="0" x2="58.15277777777777" y2="5" style="visibility: inherit;" fill="rgb(0, 0, 0)" stroke="rgb(204, 204, 204)" stroke-width="1px"></line><line x1="87.22916666666666" y1="0" x2="87.22916666666666" y2="5" style="visibility: inherit;" fill="rgb(0, 0, 0)" stroke="rgb(204, 204, 204)" stroke-width="1px"></line><line x1="116.30555555555554" y1="0" x2="116.30555555555554" y2="5" style="visibility: inherit;" fill="rgb(0, 0, 0)" stroke="rgb(204, 204, 204)" stroke-width="1px"></line><line x1="145.38194444444446" y1="0" x2="145.38194444444446" y2="5" style="visibility: inherit;" fill="rgb(0, 0, 0)" stroke="rgb(204, 204, 204)" stroke-width="1px"></line><line x1="174.45833333333331" y1="0" x2="174.45833333333331" y2="5" style="visibility: inherit;" fill="rgb(0, 0, 0)" stroke="rgb(204, 204, 204)" stroke-width="1px"></line><line x1="203.53472222222223" y1="0" x2="203.53472222222223" y2="5" style="visibility: inherit;" fill="rgb(0, 0, 0)" stroke="rgb(204, 204, 204)" stroke-width="1px"></line><line x1="232.6111111111111" y1="0" x2="232.6111111111111" y2="5" style="visibility: inherit;" fill="rgb(0, 0, 0)" stroke="rgb(204, 204, 204)" stroke-width="1px"></line><line x1="261.6875" y1="0" x2="261.6875" y2="5" style="visibility: inherit;" fill="rgb(0, 0, 0)" stroke="rgb(204, 204, 204)" stroke-width="1px"></line></g><g transform="translate(0, 8)"><text x="0" y="0" dx="0em" dy="0.95em" style="text-anchor: middle; visibility: hidden; font-family: &quot;Helvetica Neue&quot;, sans-serif; font-size: 12px; font-weight: 200;" fill="rgb(50, 49, 63)" stroke="none" stroke-width="1px">-20k</text><text x="29.076388888888886" y="0" dx="0em" dy="0.95em" style="text-anchor: middle; visibility: inherit; font-family: &quot;Helvetica Neue&quot;, sans-serif; font-size: 12px; font-weight: 200;" fill="rgb(50, 49, 63)" stroke="none" stroke-width="1px">0</text><text x="58.15277777777777" y="0" dx="0em" dy="0.95em" style="text-anchor: middle; visibility: hidden; font-family: &quot;Helvetica Neue&quot;, sans-serif; font-size: 12px; font-weight: 200;" fill="rgb(50, 49, 63)" stroke="none" stroke-width="1px">20k</text><text x="87.22916666666666" y="0" dx="0em" dy="0.95em" style="text-anchor: middle; visibility: inherit; font-family: &quot;Helvetica Neue&quot;, sans-serif; font-size: 12px; font-weight: 200;" fill="rgb(50, 49, 63)" stroke="none" stroke-width="1px">40k</text><text x="116.30555555555554" y="0" dx="0em" dy="0.95em" style="text-anchor: middle; visibility: hidden; font-family: &quot;Helvetica Neue&quot;, sans-serif; font-size: 12px; font-weight: 200;" fill="rgb(50, 49, 63)" stroke="none" stroke-width="1px">60k</text><text x="145.38194444444446" y="0" dx="0em" dy="0.95em" style="text-anchor: middle; visibility: inherit; font-family: &quot;Helvetica Neue&quot;, sans-serif; font-size: 12px; font-weight: 200;" fill="rgb(50, 49, 63)" stroke="none" stroke-width="1px">80k</text><text x="174.45833333333331" y="0" dx="0em" dy="0.95em" style="text-anchor: middle; visibility: hidden; font-family: &quot;Helvetica Neue&quot;, sans-serif; font-size: 12px; font-weight: 200;" fill="rgb(50, 49, 63)" stroke="none" stroke-width="1px">100k</text><text x="203.53472222222223" y="0" dx="0em" dy="0.95em" style="text-anchor: middle; visibility: inherit; font-family: &quot;Helvetica Neue&quot;, sans-serif; font-size: 12px; font-weight: 200;" fill="rgb(50, 49, 63)" stroke="none" stroke-width="1px">120k</text><text x="232.6111111111111" y="0" dx="0em" dy="0.95em" style="text-anchor: middle; visibility: hidden; font-family: &quot;Helvetica Neue&quot;, sans-serif; font-size: 12px; font-weight: 200;" fill="rgb(50, 49, 63)" stroke="none" stroke-width="1px">140k</text><text x="261.6875" y="0" dx="0em" dy="0.95em" style="text-anchor: middle; visibility: hidden; font-family: &quot;Helvetica Neue&quot;, sans-serif; font-size: 12px; font-weight: 200;" fill="rgb(50, 49, 63)" stroke="none" stroke-width="1px">160k</text></g><line x1="0" y1="0" x2="261.6875" y2="0" fill="rgb(0, 0, 0)" stroke="rgb(204, 204, 204)" stroke-width="1px"></line></g></g></g></g></svg>