<svg viewBox="0 0 330 200" xmlns="http://www.w3.org/2000/svg"><g><g><g><g><g><line x1="39.15625" y1="177" x2="34.15625" y2="177" style="visibility: inherit;" fill="rgb(0, 0, 0)" stroke="rgb(204, 204, 204)" stroke-width="1px"></line><line x1="39.15625" y1="162.25" x2="34.15625" y2="162.25" style="visibility: inherit;" fill="rgb(0, 0, 0)" stroke="rgb(204, 204, 204)" stroke-width="1px"></line><line x1="39.15625" y1="147.5" x2="34.15625" y2="147.5" style="visibility: inherit;" fill="rgb(0, 0, 0)" stroke="rgb(204, 204, 204)" stroke-width="1px"></line><line x1="39.15625" y1="132.75" x2="34.15625" y2="132.75" style="visibility: inherit;" fill="rgb(0, 0, 0)" stroke="rgb(204, 204, 204)" stroke-width="1px"></line><line x1="39.15625" y1="118" x2="34.15625" y2="118" style="visibility: inherit;" fill="rgb(0, 0, 0)" stroke="rgb(204, 204, 204)" stroke-width="1px"></line><line x1="39.15625" y1="103.25" x2="34.15625" y2="103.25" style="visibility: inherit;" fill="rgb(0, 0, 0)" stroke="rgb(204, 204, 204)" stroke-width="1px"></line><line x1="39.15625" y1="88.5" x2="34.15625" y2="88.5" style="visibility: inherit;" fill="rgb(0, 0, 0)" stroke="rgb(204, 204, 204)" stroke-width="1px"></line><line x1="39.15625" y1="73.75" x2="34.15625" y2="73.75" style="visibility: inherit;" fill="rgb(0, 0, 0)" stroke="rgb(204, 204, 204)" stroke-width="1px"></line><line x1="39.15625" y1="59" x2="34.15625" y2="59" style="visibility: inherit;" fill="rgb(0, 0, 0)" stroke="rgb(204, 204, 204)" stroke-width="1px"></line><line x1="39.15625" y1="44.25" x2="34.15625" y2="44.25" style="visibility: inherit;" fill="rgb(0, 0, 0)" stroke="rgb(204, 204, 204)" stroke-width="1px"></line><line x1="39.15625" y1="29.5" x2="34.15625" y2="29.5" style="visibility: inherit;" fill="rgb(0, 0, 0)" stroke="rgb(204, 204, 204)" stroke-width="1px"></line><line x1="39.15625" y1="14.75" x2="34.15625" y2="14.75" style="visibility: inherit;" fill="rgb(0, 0, 0)" stroke="rgb(204, 204, 204)" stroke-width="1px"></line><line x1="39.15625" y1="0" x2="34.15625" y2="0" style="visibility: inherit;" fill="rgb(0, 0, 0)" stroke="rgb(204, 204, 204)" stroke-width="1px"></line></g><g transform="translate(29.15625, 0)"><text x="0" y="177" dx="0em" dy="0.3em" style="text-anchor: end; visibility: hidden; font-family: &quot;Helvetica Neue&quot;, sans-serif; font-size: 12px; font-weight: 200;" fill="rgb(50, 49, 63)" stroke="none" stroke-width="1px">-30</text><text x="0" y="162.25" dx="0em" dy="0.3em" style="text-anchor: end; visibility: inherit; font-family: &quot;Helvetica Neue&quot;, sans-serif; font-size: 12px; font-weight: 200;" fill="rgb(50, 49, 63)" stroke="none" stroke-width="1px">-25</text><text x="0" y="147.5" dx="0em" dy="0.3em" style="text-anchor: end; visibility: hidden; font-family: &quot;Helvetica Neue&quot;, sans-serif; font-size: 12px; font-weight: 200;" fill="rgb(50, 49, 63)" stroke="none" stroke-width="1px">-20</text><text x="0" y="132.75" dx="0em" dy="0.3em" style="text-anchor: end; visibility: inherit; font-family: &quot;Helvetica Neue&quot;, sans-serif; font-size: 12px; font-weight: 200;" fill="rgb(50, 49, 63)" stroke="none" stroke-width="1px">-15</text><text x="0" y="118" dx="0em" dy="0.3em" style="text-anchor: end; visibility: hidden; font-family: &quot;Helvetica Neue&quot;, sans-serif; font-size: 12px; font-weight: 200;" fill="rgb(50, 49, 63)" stroke="none" stroke-width="1px">-10</text><text x="0" y="103.25" dx="0em" dy="0.3em" style="text-anchor: end; visibility: inherit; font-family: &quot;Helvetica Neue&quot;, sans-serif; font-size: 12px; font-weight: 200;" fill="rgb(50, 49, 63)" stroke="none" stroke-width="1px">-5</text><text x="0" y="88.5" dx="0em" dy="0.3em" style="text-anchor: end; visibility: hidden; font-family: &quot;Helvetica Neue&quot;, sans-serif; font-size: 12px; font-weight: 200;" fill="rgb(50, 49, 63)" stroke="none" stroke-width="1px">0</text><text x="0" y="73.75" dx="0em" dy="0.3em" style="text-anchor: end; visibility: inherit; font-family: &quot;Helvetica Neue&quot;, sans-serif; font-size: 12px; font-weight: 200;" fill="rgb(50, 49, 63)" stroke="none" stroke-width="1px">5</text><text x="0" y="59" dx="0em" dy="0.3em" style="text-anchor: end; visibility: hidden; font-family: &quot;Helvetica Neue&quot;, sans-serif; font-size: 12px; font-weight: 200;" fill="rgb(50, 49, 63)" stroke="none" stroke-width="1px">10</text><text x="0" y="44.25" dx="0em" dy="0.3em" style="text-anchor: end; visibility: inherit; font-family: &quot;Helvetica Neue&quot;, sans-serif; font-size: 12px; font-weight: 200;" fill="rgb(50, 49, 63)" stroke="none" stroke-width="1px">15</text><text x="0" y="29.5" dx="0em" dy="0.3em" style="text-anchor: end; visibility: hidden; font-family: &quot;Helvetica Neue&quot;, sans-serif; font-size: 12px; font-weight: 200;" fill="rgb(50, 49, 63)" stroke="none" stroke-width="1px">20</text><text x="0" y="14.75" dx="0em" dy="0.3em" style="text-anchor: end; visibility: inherit; font-family: &quot;Helvetica Neue&quot;, sans-serif; font-size: 12px; font-weight: 200;" fill="rgb(50, 49, 63)" stroke="none" stroke-width="1px">25</text><text x="0" y="0" dx="0em" dy="0.3em" style="text-anchor: end; visibility: hidden; font-family: &quot;Helvetica Neue&quot;, sans-serif; font-size: 12px; font-weight: 200;" fill="rgb(50, 49, 63)" stroke="none" stroke-width="1px">30</text></g><line x1="39.15625" y1="0" x2="39.15625" y2="177" fill="rgb(0, 0, 0)" stroke="rgb(204, 204, 204)" stroke-width="1px"></line></g></g><g transform="translate(39, 0)" clip-path="url(#clip_0)"><clipPath id="clip_0"><rect width="290" height="177"></rect></clipPath><g><g><g><line x1="0" y1="0" x2="0" y2="177" fill="rgb(0, 0, 0)" stroke="rgb(60, 60, 60)" stroke-width="1px" opacity="0.25"></line><line x1="32.31597222222222" y1="0" x2="32.31597222222222" y2="177" fill="rgb(0, 0, 0)" stroke="rgb(60, 60, 60)" stroke-width="1px" opacity="0.25"></line><line x1="64.63194444444444" y1="0" x2="64.63194444444444" y2="177" fill="rgb(0, 0, 0)" stroke="rgb(60, 60, 60)" stroke-width="1px" opacity="0.25"></line><line x1="96.94791666666666" y1="0" x2="96.94791666666666" y2="177" fill="rgb(0, 0, 0)" stroke="rgb(60, 60, 60)" stroke-width="1px" opacity="0.25"></line><line x1="129.26388888888889" y1="0" x2="129.26388888888889" y2="177" fill="rgb(0, 0, 0)" stroke="rgb(60, 60, 60)" stroke-width="1px" opacity="0.25"></line><line x1="161.57986111111111" y1="0" x2="161.57986111111111" y2="177" fill="rgb(0, 0, 0)" stroke="rgb(60, 60, 60)" stroke-width="1px" opacity="0.25"></line><line x1="193.89583333333331" y1="0" x2="193.89583333333331" y2="177" fill="rgb(0, 0, 0)" stroke="rgb(60, 60, 60)" stroke-width="1px" opacity="0.25"></line><line x1="226.21180555555557" y1="0" x2="226.21180555555557" y2="177" fill="rgb(0, 0, 0)" stroke="rgb(60, 60, 60)" stroke-width="1px" opacity="0.25"></line><line x1="258.52777777777777" y1="0" x2="258.52777777777777" y2="177" fill="rgb(0, 0, 0)" stroke="rgb(60, 60, 60)" stroke-width="1px" opacity="0.25"></line><line x1="290.84375" y1="0" x2="290.84375" y2="177" fill="rgb(0, 0, 0)" stroke="rgb(60, 60, 60)" stroke-width="1px" opacity="0.25"></line></g><g><line x1="0" y1="177" x2="290.84375" y2="177" fill="rgb(0, 0, 0)" stroke="rgb(60, 60, 60)" stroke-width="1px" opacity="0.25"></line><line x1="0" y1="162.25" x2="290.84375" y2="162.25" fill="rgb(0, 0, 0)" stroke="rgb(60, 60, 60)" stroke-width="1px" opacity="0.25"></line><line x1="0" y1="147.5" x2="290.84375" y2="147.5" fill="rgb(0, 0, 0)" stroke="rgb(60, 60, 60)" stroke-width="1px" opacity="0.25"></line><line x1="0" y1="132.75" x2="290.84375" y2="132.75" fill="rgb(0, 0, 0)" stroke="rgb(60, 60, 60)" stroke-width="1px" opacity="0.25"></line><line x1="0" y1="118" x2="290.84375" y2="118" fill="rgb(0, 0, 0)" stroke="rgb(60, 60, 60)" stroke-width="1px" opacity="0.25"></line><line x1="0" y1="103.25" x2="290.84375" y2="103.25" fill="rgb(0, 0, 0)" stroke="rgb(60, 60, 60)" stroke-width="1px" opacity="0.25"></line><line x1="0" y1="88.5" x2="290.84375" y2="88.5" fill="rgb(0, 0, 0)" stroke="rgb(60, 60, 60)" stroke-width="1px" opacity="0.25"></line><line x1="0" y1="73.75" x2="290.84375" y2="73.75" fill="rgb(0, 0, 0)" stroke="rgb(60, 60, 60)" stroke-width="1px" opacity="0.25"></line><line x1="0" y1="59" x2="290.84375" y2="59" fill="rgb(0, 0, 0)" stroke="rgb(60, 60, 60)" stroke-width="1px" opacity="0.25"></line><line x1="0" y1="44.25" x2="290.84375" y2="44.25" fill="rgb(0, 0, 0)" stroke="rgb(60, 60, 60)" stroke-width="1px" opacity="0.25"></line><line x1="0" y1="29.5" x2="290.84375" y2="29.5" fill="rgb(0, 0, 0)" stroke="rgb(60, 60, 60)" stroke-width="1px" opacity="0.25"></line><line x1="0" y1="14.75" x2="290.84375" y2="14.75" fill="rgb(0, 0, 0)" stroke="rgb(60, 60, 60)" stroke-width="1px" opacity="0.25"></line><line x1="0" y1="0" x2="290.84375" y2="0" fill="rgb(0, 0, 0)" stroke="rgb(60, 60, 60)" stroke-width="1px" opacity="0.25"></line></g></g></g><g><g><line x1="0" y1="88.5" x2="290.84375" y2="88.5" fill="rgb(0, 0, 0)" stroke="rgb(153, 153, 153)" stroke-width="1.5px"></line></g></g><g><g><line x1="32.31597222222222" y1="0" x2="32.31597222222222" y2="177" fill="rgb(0, 0, 0)" stroke="rgb(153, 153, 153)" stroke-width="1.5px"></line></g></g><g><g><g><g><g><path stroke="rgb(255, 112, 67)" stroke-width="2px" d="M32.6472109375,147.5L32.94451788194444,143.8125L33.10609774305556,142.68367346938774L33.50843159722222,143.54136029411765L33.592453125,143.97883414295626L33.66193246527778,144.218481471536L33.886528472222224,141.92694039874635L33.913997048611115,142.9940882248792L34.361573263888886,141.2387633039936L34.37934704861111,141.38413700155442L35.02405069444445,142.65509319257671L35.23248871527778,143.41470943476418L35.27773107638889,140.32479001164657L35.290657465277775,140.83527404353237L35.85941857638889,138.78019816029695L36.22943645833333,139.90843718480718L36.502506423611116,140.5851768603045L36.62853871527778,140.9911473465277L36.717407638888886,137.69448752273928L36.9226140625,139.25674963242156L37.23123159722222,137.83401856907182L37.35241649305556,139.34043096909977L37.392811458333334,141.42427503820628L37.441285416666666,140.31455976466964L37.57539670138889,138.46873061105634L37.84361927083333,138.54123849031902L38.063367881944444,136.22474072327825L38.07791006944444,136.01484430507077L38.328358854166666,132.34890523230325L38.675755555555554,131.3293429139833L39.02638385416666,130.71760566724652L39.1330265625,126.81056308939962L40.150979687500005,107.94633695283588L40.66965104166667,95.44780181360375L41.03482152777778,86.76868093896202L41.67306197916667,70.94120840012594L41.89442638888889,57.90472495939726L41.962289930555556,51.26283495097573L43.4375140625,42.55770095119115L43.83823211805555,36.154620562155344L44.14361805555556,32.31277233421187L44.474856770833334,31.187663399985695L44.688142187500006,29.332598039455775L45.11956041666667,30.579558823889528L46.090655381944444,28.967735294166175L46.77090659722222,28.000641176439387L47.0439765625,27.42038470584191L48.092629861111114,27.072230823497335L48.29622048611112,26.863338494095586L49.00232447916667,26.73800309645634L51.86551961805556,26.662801857873433L51.922072569444445,26.617681114723922L52.98688385416667,26.590608668834335L53.111300347222226,26.574365201300566L53.1226109375,26.56461912078032L53.52332899305556,26.55877147246818L53.70914583333334,26.555262883480935L54.33122829861111,26.553157730088543L54.55259270833333,26.551894638053113L54.5622875,26.55113678283186L55.30878645833334,26.55068206969912L56.2346390625,26.550409241819494L56.26695503472222,26.550245545091684L57.35923489583334,26.550147327055015L57.50627256944444,26.550088396233008L57.57575190972222,26.550053037739787L58.081496875,26.55003182264386L58.401425,26.550019093586343L58.57593125,26.550011456151793L58.75205329861111,26.550006873691075L58.99119149305555,26.550004124214638L59.362825173611114,26.55000247452878L59.91219670138889,26.550001484717257L60.35330972222222,26.550000890830376L60.57467413194444,26.550000534498224L60.878444270833334,26.550000320698928L61.10950347222222,26.55000019241936L61.20483559027778,26.55000011545161L61.50375833333333,26.550000069270965L61.56354288194445,26.550000041562583L61.60232204861111,26.55000002493756L61.978803125000006,26.550000014962507L62.40537395833333,26.55000000897752L63.33607395833333,26.550000005386522L63.51542760416667,26.5500000032319L64.34756388888889,26.55000000193914L64.5818546875,26.550000001163482L64.68365,26.550000000698077L64.81776128472222,26.550000000418834L64.98580434027778,26.550000000251316L65.03104670138889,26.55000000015079L65.77108246527777,26.550000000090478L66.11847916666666,26.55000000005427L66.24127986111111,26.550000000032554L66.40770711805555,26.550000000019537L66.64846111111112,26.55000000001175L66.71955625,26.55000000000703L66.83750954861111,26.550000000004218L67.13481649305555,26.55000000000254L67.32386493055556,26.550000000001518L68.80232065972223,26.55000000000092L68.94774253472222,26.55000000000055L69.29998663194445,26.550000000000324L69.3226078125,26.550000000000182L69.54397222222222,26.550000000000125L70.02386440972222,26.550000000000068L70.37610850694445,26.55000000000004L70.53768836805556,26.55000000000001L70.85438489583333,26.55000000000001L70.97072239583333,26.55000000000001L71.48616215277778,26.55000000000001L71.69944756944444,26.55000000000001L71.84971684027778,26.55000000000001L71.85618003472223,26.55000000000001L71.94504895833333,26.55000000000001L71.96120694444444,26.55000000000001L72.332840625,26.55000000000001L72.6543845486111,26.55000000000001L72.76264305555556,26.55000000000001L72.90806493055555,26.55000000000001L73.05025520833333,26.55000000000001L73.14235572916667,26.55000000000001L73.24253524305556,26.55000000000001L73.38795711805555,26.55000000000001L73.68203246527777,26.55000000000001L73.7159642361111,26.55000000000001L73.72242743055557,26.55000000000001L74.69998559027778,26.55000000000001L75.04253489583334,26.55000000000001L75.43840555555555,26.55000000000001L76.58885416666666,26.55000000000001L76.81021857638889,26.55000000000001L76.8134501736111,26.55000000000001L77.20608923611111,26.55000000000001L77.58418611111112,26.55000000000001L77.68113402777777,26.55000000000001L77.99944635416666,26.55000000000001L78.25312673611111,26.55000000000001L78.4276329861111,26.55000000000001L78.54881788194444,26.55000000000001L78.65546059027778,26.55000000000001L79.27915885416667,26.55000000000001L79.28239045138888,26.55000000000001L79.72027187500001,26.55000000000001L79.82206718750001,26.55000000000001L80.19693246527777,26.55000000000001L80.42476006944445,26.55000000000001L80.55402395833335,26.55000000000001L80.56695034722222,26.55000000000001L81.00160017361111,26.55000000000001L81.04684253472223,26.55000000000001L81.36677065972222,26.55000000000001L81.45725538194445,26.55000000000001L81.65276701388889,26.55000000000001L82.19729114583333,26.55000000000001L82.512371875,26.55000000000001L82.5559984375,26.55000000000001L82.91955312500001,26.55000000000001L83.07305399305555,26.55000000000001L83.4285296875,26.55000000000001L83.90519027777778,26.55000000000001L84.20896041666666,26.55000000000001L84.73086336805557,26.55000000000001L84.99585434027777,26.55000000000001L85.07664427083333,26.55000000000001L85.13319722222222,26.55000000000001L85.33194045138889,26.55000000000001L85.52745208333333,26.55000000000001L85.59854722222222,26.55000000000001L85.83445381944445,26.55000000000001L85.84576440972222,26.55000000000001L86.21255069444443,26.55000000000001L86.46138368055554,26.55000000000001L86.62619513888889,26.55000000000001L86.70860086805556,26.55000000000001L87.15294548611111,26.55000000000001L87.34845711805556,26.55000000000001L87.97538697916667,26.55000000000001L88.84791822916667,26.55000000000001L88.90931857638888,26.55000000000001L89.05150885416666,26.55000000000001L89.07413003472222,26.55000000000001L89.10967760416666,26.55000000000001L89.91434531249999,26.55000000000001L90.45563784722222,26.55000000000001L90.4669484375,26.55000000000001L90.7448657986111,26.55000000000001L90.80141875,26.55000000000001L90.92098784722222,26.55000000000001L92.05527847222223,26.55000000000001L92.14091579861112,26.55000000000001L92.5319390625,26.55000000000001L92.9552782986111,26.55000000000001L93.14755833333332,26.55000000000001L93.19764809027778,26.55000000000001L93.97646302083334,26.55000000000001L94.17359045138889,26.55000000000001L94.52906614583334,26.55000000000001L94.74073576388889,26.55000000000001L95.22224375,26.55000000000001L95.36604982638889,26.55000000000001L95.56156145833333,26.55000000000001L95.833015625,26.55000000000001L96.01398506944444,26.55000000000001L96.04630104166667,26.55000000000001L96.17718072916666,26.55000000000001L96.18849131944444,26.55000000000001L96.93499027777779,26.55000000000001L97.57969392361112,26.55000000000001L98.15330243055556,26.55000000000001L98.31811388888889,26.55000000000001L98.34235086805556,26.55000000000001L98.41990920138889,26.55000000000001L98.43121979166666,26.55000000000001L99.31667743055556,26.55000000000001L99.42170434027778,26.55000000000001L99.59944218749999,26.55000000000001L99.75132725694445,26.55000000000001L99.7901064236111,26.55000000000001L99.97430746527778,26.55000000000001L100.12942413194443,26.55000000000001L100.24899322916667,26.55000000000001L101.33965729166667,26.55000000000001L101.34612048611112,26.55000000000001L101.73714375,26.55000000000001L102.11039322916668,26.55000000000001L102.11685642361111,26.55000000000001L102.30105746527778,26.55000000000001L102.33175763888889,26.55000000000001L102.71470190972222,26.55000000000001L103.0313984375,26.55000000000001L103.59531215277778,26.55000000000001L103.61147013888888,26.55000000000001L103.68902847222222,26.55000000000001L104.68597621527778,26.55000000000001L104.70213420138889,26.55000000000001L104.75868715277778,26.55000000000001L105.04306770833334,26.55000000000001L105.314521875,26.55000000000001L105.35006944444444,26.55000000000001L105.64576059027777,26.55000000000001L105.91398315972222,26.55000000000001L106.06586822916667,26.55000000000001L106.41326493055556,26.55000000000001L106.67340850694444,26.55000000000001L106.69118229166666,26.55000000000001L106.94809427083334,26.55000000000001L107.24701701388888,26.55000000000001L107.65742986111111,26.55000000000001L107.66066145833332,26.55000000000001L107.74791458333333,26.55000000000001L108.00321076388889,26.55000000000001L108.048453125,26.55000000000001L108.10985347222223,26.55000000000001L108.31344409722223,26.55000000000001L108.397465625,26.55000000000001L108.56550868055555,26.55000000000001L108.87251041666667,26.55000000000001L109.16012256944444,26.55000000000001L109.27484427083333,26.55000000000001L109.41865034722223,26.55000000000001L109.6206251736111,26.55000000000001L109.94701649305556,26.55000000000001L110.14575972222222,26.55000000000001L110.15545451388888,26.55000000000001L110.18938628472222,26.55000000000001L110.2459392361111,26.55000000000001L110.32996076388888,26.55000000000001L110.59818333333332,26.55000000000001L110.91649565972222,26.55000000000001L111.28651354166666,26.55000000000001L111.43355121527777,26.55000000000001L111.56281510416666,26.55000000000001L111.61936805555555,26.55000000000001L111.87143263888889,26.55000000000001L111.95060677083333,26.55000000000001L111.9603015625,26.55000000000001L111.97161215277778,26.55000000000001L112.29638767361111,26.55000000000001L112.72780590277777,26.55000000000001L113.11398177083333,26.55000000000001L113.3563515625,26.55000000000001L113.66012170138889,26.55000000000001L113.69243767361111,26.55000000000001L114.039834375,26.55000000000001L114.20949322916667,26.55000000000001L114.74270677083334,26.55000000000001L114.93175520833333,26.55000000000001L115.14827222222222,26.55000000000001L115.55706927083332,26.55000000000001L115.65240138888889,26.55000000000001L115.88830798611112,26.55000000000001L116.03049826388889,26.55000000000001L116.50231145833334,26.55000000000001L116.67197031250001,26.55000000000001L116.83839756944444,26.55000000000001L116.86263454861111,26.55000000000001L116.87232934027779,26.55000000000001L118.25383715277778,26.55000000000001L118.51398072916666,26.55000000000001L118.80159288194444,26.55000000000001L118.93085677083333,26.55000000000001L119.18453715277778,26.55000000000001L119.23947430555556,26.55000000000001L119.28310086805556,26.55000000000001L119.53516545138889,26.55000000000001L119.65635034722223,26.55000000000001L119.68866631944445,26.55000000000001L119.72582968750001,26.55000000000001L120.3673017361111,26.55000000000001L120.38669131944445,26.55000000000001L120.79225677083333,26.55000000000001L120.95545243055555,26.55000000000001L121.02977916666667,26.55000000000001L121.53552413194444,26.55000000000001L121.63731944444444,26.55000000000001L121.75688854166667,26.55000000000001L121.96855815972222,26.55000000000001L122.13336961805555,26.55000000000001L122.27394409722223,26.55000000000001L122.60841440972222,26.55000000000001L122.68112534722223,26.55000000000001L122.80231024305554,26.55000000000001L122.90248975694445,26.55000000000001L122.97843229166666,26.55000000000001L123.17879131944446,26.55000000000001L123.81864756944445,26.55000000000001L124.21451822916666,26.55000000000001L124.2904607638889,26.55000000000001L124.44073003472224,26.55000000000001L124.48112499999999,26.55000000000001L124.52151996527778,26.55000000000001L124.57160972222222,26.55000000000001L124.69764201388888,26.55000000000001L124.89800104166666,26.55000000000001L125.05311770833333,26.55000000000001L125.20338697916667,26.55000000000001L125.65419479166667,26.55000000000001L125.82223784722223,26.55000000000001L126.09046041666666,26.55000000000001L126.12762378472222,26.55000000000001L126.81110659722222,26.55000000000001L126.87897013888889,26.55000000000001L126.94198628472223,26.55000000000001L127.127803125,26.55000000000001L127.15527170138888,26.55000000000001L127.30715677083333,26.55000000000001L127.71433802083332,26.55000000000001L127.98740798611111,26.55000000000001L128.01810815972223,26.55000000000001L128.07789270833334,26.55000000000001L128.2346251736111,26.55000000000001L128.6385748263889,26.55000000000001L128.69674357638888,26.55000000000001L128.76137552083333,26.55000000000001L128.77914930555556,26.55000000000001L129.01020850694445,26.55000000000001L129.1216986111111,26.55000000000001L129.37537899305556,26.55000000000001L129.53534305555556,26.55000000000001L130.04108802083334,26.55000000000001L130.14773072916668,26.55000000000001L130.26406822916667,26.55000000000001L130.42241649305555,26.55000000000001L130.4272638888889,26.55000000000001L130.57914895833335,26.55000000000001L130.71326024305554,26.55000000000001L130.74557621527777,26.55000000000001L130.7778921875,26.55000000000001L130.80051336805556,26.55000000000001L131.10751510416665,26.55000000000001L131.18184184027777,26.55000000000001L131.38381666666666,26.55000000000001L132.03983090277777,26.55000000000001L132.40500138888888,26.55000000000001L132.68938194444445,26.55000000000001L133.00123107638888,26.55000000000001L133.07071041666666,26.55000000000001L133.10787378472222,26.55000000000001L133.5247498263889,26.55000000000001L133.6443189236111,26.55000000000001L133.78327760416667,26.55000000000001L134.20015364583332,26.55000000000001L134.6331876736111,26.55000000000001L134.96927378472222,26.55000000000001L135.63175121527777,26.55000000000001L136.26999166666667,26.55000000000001L136.27645486111112,26.55000000000001L136.31200243055557,26.55000000000001L136.58830399305555,26.55000000000001L136.64485694444443,26.55000000000001L136.8856109375,26.55000000000001L137.22654444444444,26.55000000000001L137.59009913194444,26.55000000000001L137.61918350694444,26.55000000000001L138.05383333333333,26.55000000000001L138.35921927083334,26.55000000000001L138.66622100694445,26.55000000000001L138.67106840277776,26.55000000000001L138.70015277777776,26.55000000000001L138.9522173611111,26.55000000000001L139.05886006944445,26.55000000000001L140.04934461805556,26.55000000000001L140.0671184027778,26.55000000000001L140.39674131944443,26.55000000000001L140.49207343749998,26.55000000000001L140.61648993055556,26.55000000000001L140.66981128472221,26.55000000000001L141.11415590277778,26.55000000000001L141.42115763888887,26.55000000000001L141.68130121527778,26.55000000000001L141.70392239583333,26.55000000000001L141.7588595486111,26.55000000000001L141.80410190972222,26.55000000000001L142.40679479166667,26.55000000000001L142.5295954861111,26.55000000000001L142.62654340277777,26.55000000000001L142.72833871527777,26.55000000000001L143.15329375000002,26.55000000000001L143.1549095486111,26.55000000000001L143.60086996527778,26.55000000000001L143.62995434027778,26.55000000000001L144.1405467013889,26.55000000000001L144.19548385416667,26.55000000000001L144.21002604166668,26.55000000000001L144.31505295138888,26.55000000000001L144.51056458333335,26.55000000000001L144.71738680555555,26.55000000000001L145.3782484375,26.55000000000001L145.43480138888887,26.55000000000001L145.55921788194445,26.55000000000001L145.5947654513889,26.55000000000001L145.9114619791667,26.55000000000001L146.12797899305556,26.55000000000001L146.31056423611113,26.55000000000001L146.46568090277776,26.55000000000001L147.2380326388889,26.55000000000001L147.39961250000002,26.55000000000001L147.49979201388888,26.55000000000001L147.68237725694442,26.55000000000001L147.84395711805556,26.55000000000001L148.30930711805556,26.55000000000001L148.50805034722222,26.55000000000001L149.06711666666666,26.55000000000001L149.4225923611111,26.55000000000001L149.56316684027777,26.55000000000001L149.7877628472222,26.55000000000001L150.1222331597222,26.55000000000001L150.16585972222225,26.55000000000001L150.17878611111112,26.55000000000001L150.2224126736111,26.55000000000001L150.56657777777778,26.55000000000001L151.43749322916668,26.55000000000001L151.51989895833333,26.55000000000001L151.54413593750002,26.55000000000001L151.78165833333335,26.55000000000001L152.15006041666666,26.55000000000001L152.18883958333333,26.55000000000001L152.62510520833334,26.55000000000001L152.63156840277776,26.55000000000001L152.7624480902778,26.55000000000001L152.87555399305558,26.55000000000001L152.89655937499998,26.55000000000001L152.9531123263889,26.55000000000001L153.63659513888888,26.55000000000001L153.8967387152778,26.55000000000001L154.32169374999998,26.55000000000001L154.32815694444443,26.55000000000001L154.64970086805556,26.55000000000001L154.6577798611111,26.55000000000001L154.94216041666664,26.55000000000001L155.06657690972222,26.55000000000001L155.3509574652778,26.55000000000001L155.35580486111112,26.55000000000001L155.4414421875,26.55000000000001L156.04575086805556,26.55000000000001L156.1637041666667,26.55000000000001L156.17501475694442,26.55000000000001L156.1863253472222,26.55000000000001L156.65652274305558,26.55000000000001L157.38686371527777,26.55000000000001L157.92492465277778,26.55000000000001L158.19799461805556,26.55000000000001L158.22869479166667,26.55000000000001L158.3951220486111,26.55000000000001L159.01558871527777,26.55000000000001L159.21594774305555,26.55000000000001L159.39206979166667,26.55000000000001L159.4518543402778,26.55000000000001L159.60697100694443,26.55000000000001L159.64413437500002,26.55000000000001L159.67321875000002,26.55000000000001L159.81379322916666,26.55000000000001L159.876809375,26.55000000000001L160.22905347222223,26.55000000000001L160.31630659722222,26.55000000000001L160.65239270833334,26.55000000000001L160.778425,26.55000000000001L160.80266197916666,26.55000000000001L161.08542673611112,26.55000000000001L161.57986111111111,26.55000000000001L161.64772465277778,26.55000000000001L161.74144097222222,26.55000000000001L161.82384670138887,26.55000000000001L162.14700642361112,26.55000000000001L162.36352343750002,26.55000000000001L162.83695243055556,26.55000000000001L163.79996840277778,26.55000000000001L164.30571336805556,26.55000000000001L164.32671875,26.55000000000001L164.5723201388889,26.55000000000001L164.6175625,26.55000000000001L164.65149427083335,26.55000000000001L164.73066840277778,26.55000000000001L164.91163784722224,26.55000000000001L165.10230208333334,26.55000000000001L165.16370243055556,26.55000000000001L165.70176336805557,26.55000000000001L166.16711336805554,26.55000000000001L166.45634131944442,26.55000000000001L166.5258206597222,26.55000000000001L166.7245638888889,26.55000000000001L166.85059618055556,26.55000000000001L167.6681902777778,26.55000000000001L167.8620861111111,26.55000000000001L167.97196041666666,26.55000000000001L168.18847743055557,26.55000000000001L168.20625121527777,26.55000000000001L168.24987777777778,26.55000000000001L168.26603576388888,26.55000000000001L169.04808229166667,26.55000000000001L169.2839888888889,26.55000000000001L169.59745381944444,26.55000000000001L169.65885416666669,26.55000000000001L169.76064947916666,26.55000000000001L169.98847708333335,26.55000000000001L170.51522743055557,26.55000000000001L170.56693298611108,26.55000000000001L170.8400029513889,26.55000000000001L171.12599930555555,26.55000000000001L171.32958993055556,26.55000000000001L171.39745347222222,26.55000000000001L171.62366527777777,26.55000000000001L171.70768680555557,26.55000000000001L171.96944618055556,26.55000000000001L172.6012234375,26.55000000000001L172.66908697916668,26.55000000000001L173.28470625,26.55000000000001L173.3412592013889,26.55000000000001L173.37519097222224,26.55000000000001L173.4592125,26.55000000000001L173.6902717013889,26.55000000000001L174.20571145833333,26.55000000000001L174.42384427083334,26.55000000000001L175.06531631944446,26.55000000000001L175.21396979166667,26.55000000000001L175.40301822916666,26.55000000000001L175.5225873263889,26.55000000000001L175.8134310763889,26.55000000000001L175.92653697916666,26.55000000000001L175.95400555555554,26.55000000000001L176.24646510416667,26.55000000000001L176.26908628472225,26.55000000000001L176.40319756944444,26.55000000000001L176.68111493055557,26.55000000000001L176.97519027777776,26.55000000000001L177.0236642361111,26.55000000000001L177.28057621527776,26.55000000000001L177.68129427083332,26.55000000000001L177.73623142361112,26.55000000000001L178.07554913194446,26.55000000000001L178.13856527777776,26.55000000000001L178.16603385416667,26.55000000000001L178.39709305555556,26.55000000000001L179.04018090277776,26.55000000000001L179.05310729166666,26.55000000000001L179.3326404513889,26.55000000000001L179.47321493055554,26.55000000000001L179.55885225694445,26.55000000000001L180.0726762152778,26.55000000000001L180.53641041666668,26.55000000000001L180.59781076388887,26.55000000000001L181.04053958333333,26.55000000000001L181.11325052083333,26.55000000000001L181.27483038194444,26.55000000000001L181.28614097222223,26.55000000000001L181.9243814236111,26.55000000000001L182.02617673611113,26.55000000000001L182.06980329861113,26.55000000000001L182.23461475694444,26.55000000000001L182.27662552083333,26.55000000000001L182.36549444444447,26.55000000000001L182.97788211805553,26.55000000000001L183.37860017361112,26.55000000000001L183.38506336805557,26.55000000000001L183.65974913194444,26.55000000000001L183.86818715277778,26.55000000000001L184.76333958333333,26.55000000000001L184.9620828125,26.55000000000001L185.01217256944446,26.55000000000001L185.78290850694444,26.55000000000001L185.91378819444446,26.55000000000001L186.04305208333335,26.55000000000001L186.05759427083333,26.55000000000001L186.10445243055554,26.55000000000001L186.3452064236111,26.55000000000001L186.43892274305554,26.55000000000001L186.4744703125,26.55000000000001L186.91558333333336,26.55000000000001L187.15795312499998,26.55000000000001L187.34215416666666,26.55000000000001L187.67500868055555,26.55000000000001L187.81558315972222,26.55000000000001L187.92222586805553,26.55000000000001L188.47482899305555,26.55000000000001L188.49745017361113,26.55000000000001L188.54269253472222,26.55000000000001L189.08398506944445,26.55000000000001L189.18739618055557,26.55000000000001L189.36674982638888,26.55000000000001L189.50732430555556,26.55000000000001L189.95166892361112,26.55000000000001L190.00175868055555,26.55000000000001L190.20534930555556,26.55000000000001L190.6642361111111,26.55000000000001L191.3444873263889,26.55000000000001L191.49960399305553,26.55000000000001L191.72904739583333,26.55000000000001L192.68883177083333,26.55000000000001L192.72761093749997,26.55000000000001L192.74538472222224,26.55000000000001L193.03461267361112,26.55000000000001L193.44502552083333,26.55000000000001L193.7019375,26.55000000000001L193.91522291666666,26.55000000000001L194.08811336805556,26.55000000000001L194.55346336805556,26.55000000000001L194.87662309027777,26.55000000000001L194.96872361111113,26.55000000000001L195.67321180555555,26.55000000000001L195.7976282986111,26.55000000000001L196.12401961805554,26.55000000000001L196.37285260416667,26.55000000000001L196.5215060763889,26.55000000000001L196.69924392361114,26.55000000000001L196.71378611111112,26.55000000000001L197.25669444444443,26.55000000000001L197.26315763888888,26.55000000000001L197.6590282986111,26.55000000000001L197.6848810763889,26.55000000000001L197.76728680555556,26.55000000000001L198.02419878472222,26.55000000000001L198.11468350694443,26.55000000000001L198.14053628472223,26.55000000000001L198.14215208333334,26.55000000000001L198.47662239583335,26.55000000000001L199.21827395833333,26.55000000000001L199.85651440972222,26.55000000000001L200.00678368055557,26.55000000000001L200.01809427083333,26.55000000000001L200.22330069444445,26.55000000000001L200.57877638888888,26.55000000000001L200.97626284722222,26.55000000000001L202.8958315972222,26.55000000000001L203.39834496527777,26.55000000000001L203.43712413194447,26.55000000000001L203.94610069444443,26.55000000000001L204.0155800347222,26.55000000000001L204.06728559027778,26.55000000000001L204.07859618055554,26.55000000000001L204.27733940972223,26.55000000000001L204.29672899305555,26.55000000000001L204.36782413194445,26.55000000000001L205.39062465277777,26.55000000000001L205.48918836805555,26.55000000000001L205.6976263888889,26.55000000000001L205.79134270833333,26.55000000000001L205.97554375,26.55000000000001L206.36171961805556,26.55000000000001L206.71234791666666,26.55000000000001L206.8626171875,26.55000000000001L206.88039097222222,26.55000000000001L207.22940347222223,26.55000000000001L207.517015625,26.55000000000001L208.01791319444445,26.55000000000001L208.23604600694443,26.55000000000001L208.3604625,26.55000000000001L208.69008541666668,26.55000000000001L208.7563331597222,26.55000000000001L209.06495069444446,26.55000000000001L209.20067777777777,26.55000000000001L209.48667413194443,26.55000000000001L209.59493263888888,26.55000000000001L209.89708697916666,26.55000000000001L210.26064166666666,26.55000000000001L210.3818265625,26.55000000000001L210.61450156249998,26.55000000000001L210.96674565972222,26.55000000000001L211.53389097222222,26.55000000000001L211.7908029513889,26.55000000000001L211.8344295138889,26.55000000000001L211.9653092013889,26.55000000000001L211.9976251736111,26.55000000000001L212.13012065972222,26.55000000000001L212.13658385416667,26.55000000000001L212.79906128472223,26.55000000000001L212.89439340277778,26.55000000000001L212.95094635416666,26.55000000000001L213.03819947916668,26.55000000000001L213.26441128472223,26.55000000000001L214.2969065972222,26.55000000000001L214.54573958333333,26.55000000000001L214.6685402777778,26.55000000000001L214.71055104166666,26.55000000000001L215.05956354166668,26.55000000000001L215.21468020833333,26.55000000000001L215.78505711805553,26.55000000000001L215.8480732638889,26.55000000000001L216.49762430555558,26.55000000000001L216.58972482638887,26.55000000000001L216.6963675347222,26.55000000000001L216.9096529513889,26.55000000000001L217.0405326388889,26.55000000000001L217.31037100694445,26.55000000000001L217.4008557291667,26.55000000000001L217.41055052083334,26.55000000000001L217.92275868055557,26.55000000000001L218.00516440972223,26.55000000000001L218.3654875,26.55000000000001L218.4495090277778,26.55000000000001L218.9487907986111,26.55000000000001L218.99403315972222,26.55000000000001L219.034428125,26.55000000000001L219.1636920138889,26.55000000000001L219.66297378472223,26.55000000000001L220.20749791666665,26.55000000000001L220.78433802083333,26.55000000000001L221.09133975694445,26.55000000000001L221.26261440972223,26.55000000000001L221.5793109375,26.55000000000001L221.75704878472223,26.55000000000001L222.0753611111111,26.55000000000001L222.11090868055555,26.55000000000001L222.12221927083334,26.55000000000001L222.47123177083333,26.55000000000001L223.34214722222222,26.55000000000001L223.5279640625,26.55000000000001L223.74124947916667,26.55000000000001L223.9367611111111,26.55000000000001L224.41503749999998,26.55000000000001L224.57176996527778,26.55000000000001L224.83029774305555,26.55000000000001L224.91593506944446,26.55000000000001L224.9530984375,26.55000000000001L225.27302656249998,26.55000000000001L225.4604592013889,26.55000000000001L225.47176979166667,26.55000000000001L225.51539635416665,26.55000000000001L225.59618628472222,26.55000000000001L225.63011805555556,26.55000000000001L225.68505520833335,26.55000000000001L225.9290407986111,26.55000000000001L226.12616822916667,26.55000000000001L226.19564756944445,26.55000000000001L226.2053423611111,26.55000000000001L226.22957934027778,26.55000000000001L226.32652725694444,26.55000000000001L226.4202435763889,26.55000000000001L226.43801736111112,26.55000000000001L226.6803871527778,26.55000000000001L226.88559357638889,26.55000000000001L226.93568333333334,26.55000000000001L227.05202083333333,26.55000000000001L227.73550364583335,26.55000000000001L227.8292199652778,26.55000000000001L228.00695781250002,26.55000000000001L228.21701163194444,26.55000000000001L228.68236163194445,26.55000000000001L229.21880677083334,26.55000000000001L229.5177295138889,26.55000000000001L229.55812447916668,26.55000000000001L229.97338472222222,26.55000000000001L230.22060190972223,26.55000000000001L230.24322309027778,26.55000000000001L230.26584427083333,26.55000000000001L230.99295364583332,26.55000000000001L231.70875243055556,26.55000000000001L231.87033229166667,26.55000000000001L232.37607725694443,26.55000000000001L232.6556104166667,26.55000000000001L232.90282760416665,26.55000000000001L232.97392274305557,26.55000000000001L233.03693888888887,26.55000000000001L233.08702864583333,26.55000000000001L233.15973958333333,26.55000000000001L233.64286336805554,26.55000000000001L233.97571788194446,26.55000000000001L234.67697447916666,26.55000000000001L234.94034965277777,26.55000000000001L234.98397621527778,26.55000000000001L235.26997256944443,26.55000000000001L235.72401197916668,26.55000000000001L235.7983387152778,26.55000000000001L235.8581232638889,26.55000000000001L236.15381440972223,26.55000000000001L236.76135468750002,26.55000000000001L237.25740486111113,26.55000000000001L237.5741013888889,26.55000000000001L237.84717135416665,26.55000000000001L237.8649451388889,26.55000000000001L238.07984635416668,26.55000000000001L238.5645859375,26.55000000000001L238.5775123263889,26.55000000000001L238.90875104166668,26.55000000000001L238.9426828125,26.55000000000001L239.887925,26.55000000000001L240.01880468750002,26.55000000000001L240.56494461805556,26.55000000000001L240.69582430555553,26.55000000000001L241.3276015625,26.55000000000001L241.5925925347222,26.55000000000001L241.7929515625,26.55000000000001L242.5329873263889,26.55000000000001L242.5782296875,26.55000000000001L242.60085086805557,26.55000000000001L242.7349621527778,26.55000000000001L242.79797829861113,26.55000000000001L242.84322065972222,26.55000000000001L242.94986336805556,26.55000000000001L242.9724845486111,26.55000000000001L243.4960032986111,26.55000000000001L243.68828333333332,26.55000000000001L243.83208940972222,26.55000000000001L244.72401024305555,26.55000000000001L245.11664930555554,26.55000000000001L245.443040625,26.55000000000001L245.68056302083335,26.55000000000001L246.141065625,26.55000000000001L246.14591302083335,26.55000000000001L246.63226840277778,26.55000000000001L246.77930607638888,26.55000000000001L247.1767925347222,26.55000000000001L247.18487152777777,26.55000000000001L247.36584097222223,26.55000000000001L247.9168282986111,26.55000000000001L248.0638659722222,26.55000000000001L248.2512986111111,26.55000000000001L248.5712267361111,26.55000000000001L248.700490625,26.55000000000001L248.7828963541667,26.55000000000001L248.88146006944447,26.55000000000001L249.23693576388888,26.55000000000001L249.4114420138889,26.55000000000001L249.58110086805556,26.55000000000001L250.0933090277778,26.55000000000001L250.096540625,26.55000000000001L250.1708673611111,26.55000000000001L250.30497864583333,26.55000000000001L250.63298576388888,26.55000000000001L250.91898211805554,26.55000000000001L251.32616336805557,26.55000000000001L251.66386527777777,26.55000000000001L251.8706875,26.55000000000001L251.957940625,26.55000000000001L252.06458333333333,26.55000000000001L252.31987951388888,26.55000000000001L252.50731215277779,26.55000000000001L252.6979763888889,26.55000000000001L252.77715052083332,26.55000000000001L252.8013875,26.55000000000001L253.20856875,26.55000000000001L253.4283173611111,26.55000000000001L253.75470868055555,26.55000000000001L253.83065121527775,26.55000000000001L253.99546267361112,26.55000000000001L254.21844288194444,26.55000000000001L254.4026439236111,26.55000000000001L254.6013871527778,26.55000000000001L254.89061510416664,26.55000000000001L254.95039965277778,26.55000000000001L254.98594722222222,26.55000000000001L255.10390052083332,26.55000000000001L255.389896875,26.55000000000001L255.39151267361112,26.55000000000001L255.5207765625,26.55000000000001L255.70659340277777,26.55000000000001L256.1444748263889,26.55000000000001L256.3399864583333,26.55000000000001L256.66153038194443,26.55000000000001L256.73424131944444,26.55000000000001L257.0493220486111,26.55000000000001L257.16889114583336,26.55000000000001L257.6310095486111,26.55000000000001L258.20300225694444,26.55000000000001L258.2417814236111,26.55000000000001L258.3985138888889,26.55000000000001L258.4162876736111,26.55000000000001L258.78468975694443,26.55000000000001L258.8687112847222,26.55000000000001L259.1644024305555,26.55000000000001L259.58612586805555,26.55000000000001L260.01915989583335,26.55000000000001L260.2389085069444,26.55000000000001L260.3584776041667,26.55000000000001L260.55722083333336,26.55000000000001L261.0161076388889,26.55000000000001L261.42328888888886,26.55000000000001L261.6301111111111,26.55000000000001L261.85470711805556,26.55000000000001L262.22149340277775,26.55000000000001L262.3249045138889,26.55000000000001L262.46547899305557,26.55000000000001L262.65452743055556,26.55000000000001L262.9453711805555,26.55000000000001L263.0520138888889,26.55000000000001L263.42526336805554,26.55000000000001L263.4737373263889,26.55000000000001L264.0311878472222,26.55000000000001L264.1265199652778,26.55000000000001L264.37050555555555,26.55000000000001L264.7356760416667,26.55000000000001L264.76476041666666,26.55000000000001L265.1977944444444,26.55000000000001L265.2591947916667,26.55000000000001L265.4288536458333,26.55000000000001L265.59689670138886,26.55000000000001L265.9733777777778,26.55000000000001L266.2836111111111,26.55000000000001L266.2949217013889,26.55000000000001L266.37571163194445,26.55000000000001L266.4775069444445,26.55000000000001L266.6083866319444,26.55000000000001L266.8459090277778,26.55000000000001L267.19007413194447,26.55000000000001L267.2757114583333,26.55000000000001L267.4760704861111,26.55000000000001L267.57625,26.55000000000001L267.7152086805555,26.55000000000001L267.75721944444444,26.55000000000001L268.3712229166667,26.55000000000001L268.5618871527778,26.55000000000001L268.63944548611113,26.55000000000001L268.68145625,26.55000000000001L268.9092838541667,26.55000000000001L269.14034305555555,26.55000000000001L269.7187989583333,26.55000000000001L270.0920484375,26.55000000000001L270.46691371527777,26.55000000000001L270.5670932291667,26.55000000000001L270.68181493055556,26.55000000000001L270.7222098958333,26.55000000000001L270.91448993055553,26.55000000000001L271.14554913194445,26.55000000000001L271.22795486111113,26.55000000000001L271.2441128472222,26.55000000000001L271.3055131944444,26.55000000000001L271.47840364583334,26.55000000000001L271.97283802083336,26.55000000000001L272.0810965277778,26.55000000000001L272.2265184027778,26.55000000000001L272.8356744791667,26.55000000000001L272.8421376736111,26.55000000000001L273.0958180555556,26.55000000000001L273.2525505208333,26.55000000000001L273.49168871527775,26.55000000000001L273.89079097222225,26.55000000000001L273.9150279513889,26.55000000000001L274.26888784722223,26.55000000000001L274.39168854166667,26.55000000000001L274.4223887152778,26.55000000000001L274.70838506944443,26.55000000000001L274.75201163194447,26.55000000000001L274.7907907986111,26.55000000000001L275.050934375,26.55000000000001L275.14949809027775,26.55000000000001L275.2383670138889,26.55000000000001L275.3611677083333,26.55000000000001L275.36763090277776,26.55000000000001L275.58091631944444,26.55000000000001L275.9121550347222,26.55000000000001L276.1286720486111,26.55000000000001L276.2999467013889,26.55000000000001L276.4954583333333,26.55000000000001L276.5552428819444,26.55000000000001L277.0561404513889,26.55000000000001L277.4600901041667,26.55000000000001L277.4843270833333,26.55000000000001L277.6507543402778,26.55000000000001L277.8284921875,26.55000000000001L277.8398027777778,26.55000000000001L278.06763038194447,26.55000000000001L278.23082604166666,26.55000000000001L278.5087434027778,26.55000000000001L278.56206475694444,26.55000000000001L278.64608628472223,26.55000000000001L278.92885104166663,26.55000000000001L279.37804305555557,26.55000000000001L279.5848652777778,26.55000000000001L280.0146677083333,26.55000000000001L280.24734270833335,26.55000000000001" style="fill: none;" fill="none"></path></g></g></g></g><g opacity="0.2"><g><g><g><path stroke="rgb(255, 112, 67)" stroke-width="2px" d="M32.6472109375,147.5L32.94451788194444,141.6L33.10609774305556,141.6L33.50843159722222,144.55L33.592453125,144.55L33.66193246527778,144.55L33.886528472222224,138.65L33.913997048611115,144.55L34.361573263888886,138.65L34.37934704861111,141.6L35.02405069444445,144.55L35.23248871527778,144.55L35.27773107638889,135.7L35.290657465277775,141.6L35.85941857638889,135.7L36.22943645833333,141.6L36.502506423611116,141.6L36.62853871527778,141.6L36.717407638888886,132.75L36.9226140625,141.6L37.23123159722222,135.7L37.35241649305556,141.6L37.392811458333334,144.55L37.441285416666666,138.65L37.57539670138889,135.7L37.84361927083333,138.65L38.063367881944444,132.75L38.07791006944444,135.7L38.328358854166666,126.85L38.675755555555554,129.8L39.02638385416666,129.8L39.1330265625,120.95L40.150979687500005,79.64999999999999L40.66965104166667,76.7L41.03482152777778,73.75L41.67306197916667,47.20000000000002L41.89442638888889,38.349999999999994L41.962289930555556,41.29999999999998L43.4375140625,29.5L43.83823211805555,26.55000000000001L44.14361805555556,26.55000000000001L44.474856770833334,29.5L44.688142187500006,26.55000000000001L45.11956041666667,32.44999999999999L46.090655381944444,26.55000000000001L46.77090659722222,26.55000000000001L47.0439765625,26.55000000000001L48.092629861111114,26.55000000000001L48.29622048611112,26.55000000000001L49.00232447916667,26.55000000000001L51.86551961805556,26.55000000000001L51.922072569444445,26.55000000000001L52.98688385416667,26.55000000000001L53.111300347222226,26.55000000000001L53.1226109375,26.55000000000001L53.52332899305556,26.55000000000001L53.70914583333334,26.55000000000001L54.33122829861111,26.55000000000001L54.55259270833333,26.55000000000001L54.5622875,26.55000000000001L55.30878645833334,26.55000000000001L56.2346390625,26.55000000000001L56.26695503472222,26.55000000000001L57.35923489583334,26.55000000000001L57.50627256944444,26.55000000000001L57.57575190972222,26.55000000000001L58.081496875,26.55000000000001L58.401425,26.55000000000001L58.57593125,26.55000000000001L58.75205329861111,26.55000000000001L58.99119149305555,26.55000000000001L59.362825173611114,26.55000000000001L59.91219670138889,26.55000000000001L60.35330972222222,26.55000000000001L60.57467413194444,26.55000000000001L60.878444270833334,26.55000000000001L61.10950347222222,26.55000000000001L61.20483559027778,26.55000000000001L61.50375833333333,26.55000000000001L61.56354288194445,26.55000000000001L61.60232204861111,26.55000000000001L61.978803125000006,26.55000000000001L62.40537395833333,26.55000000000001L63.33607395833333,26.55000000000001L63.51542760416667,26.55000000000001L64.34756388888889,26.55000000000001L64.5818546875,26.55000000000001L64.68365,26.55000000000001L64.81776128472222,26.55000000000001L64.98580434027778,26.55000000000001L65.03104670138889,26.55000000000001L65.77108246527777,26.55000000000001L66.11847916666666,26.55000000000001L66.24127986111111,26.55000000000001L66.40770711805555,26.55000000000001L66.64846111111112,26.55000000000001L66.71955625,26.55000000000001L66.83750954861111,26.55000000000001L67.13481649305555,26.55000000000001L67.32386493055556,26.55000000000001L68.80232065972223,26.55000000000001L68.94774253472222,26.55000000000001L69.29998663194445,26.55000000000001L69.3226078125,26.55000000000001L69.54397222222222,26.55000000000001L70.02386440972222,26.55000000000001L70.37610850694445,26.55000000000001L70.53768836805556,26.55000000000001L70.85438489583333,26.55000000000001L70.97072239583333,26.55000000000001L71.48616215277778,26.55000000000001L71.69944756944444,26.55000000000001L71.84971684027778,26.55000000000001L71.85618003472223,26.55000000000001L71.94504895833333,26.55000000000001L71.96120694444444,26.55000000000001L72.332840625,26.55000000000001L72.6543845486111,26.55000000000001L72.76264305555556,26.55000000000001L72.90806493055555,26.55000000000001L73.05025520833333,26.55000000000001L73.14235572916667,26.55000000000001L73.24253524305556,26.55000000000001L73.38795711805555,26.55000000000001L73.68203246527777,26.55000000000001L73.7159642361111,26.55000000000001L73.72242743055557,26.55000000000001L74.69998559027778,26.55000000000001L75.04253489583334,26.55000000000001L75.43840555555555,26.55000000000001L76.58885416666666,26.55000000000001L76.81021857638889,26.55000000000001L76.8134501736111,26.55000000000001L77.20608923611111,26.55000000000001L77.58418611111112,26.55000000000001L77.68113402777777,26.55000000000001L77.99944635416666,26.55000000000001L78.25312673611111,26.55000000000001L78.4276329861111,26.55000000000001L78.54881788194444,26.55000000000001L78.65546059027778,26.55000000000001L79.27915885416667,26.55000000000001L79.28239045138888,26.55000000000001L79.72027187500001,26.55000000000001L79.82206718750001,26.55000000000001L80.19693246527777,26.55000000000001L80.42476006944445,26.55000000000001L80.55402395833335,26.55000000000001L80.56695034722222,26.55000000000001L81.00160017361111,26.55000000000001L81.04684253472223,26.55000000000001L81.36677065972222,26.55000000000001L81.45725538194445,26.55000000000001L81.65276701388889,26.55000000000001L82.19729114583333,26.55000000000001L82.512371875,26.55000000000001L82.5559984375,26.55000000000001L82.91955312500001,26.55000000000001L83.07305399305555,26.55000000000001L83.4285296875,26.55000000000001L83.90519027777778,26.55000000000001L84.20896041666666,26.55000000000001L84.73086336805557,26.55000000000001L84.99585434027777,26.55000000000001L85.07664427083333,26.55000000000001L85.13319722222222,26.55000000000001L85.33194045138889,26.55000000000001L85.52745208333333,26.55000000000001L85.59854722222222,26.55000000000001L85.83445381944445,26.55000000000001L85.84576440972222,26.55000000000001L86.21255069444443,26.55000000000001L86.46138368055554,26.55000000000001L86.62619513888889,26.55000000000001L86.70860086805556,26.55000000000001L87.15294548611111,26.55000000000001L87.34845711805556,26.55000000000001L87.97538697916667,26.55000000000001L88.84791822916667,26.55000000000001L88.90931857638888,26.55000000000001L89.05150885416666,26.55000000000001L89.07413003472222,26.55000000000001L89.10967760416666,26.55000000000001L89.91434531249999,26.55000000000001L90.45563784722222,26.55000000000001L90.4669484375,26.55000000000001L90.7448657986111,26.55000000000001L90.80141875,26.55000000000001L90.92098784722222,26.55000000000001L92.05527847222223,26.55000000000001L92.14091579861112,26.55000000000001L92.5319390625,26.55000000000001L92.9552782986111,26.55000000000001L93.14755833333332,26.55000000000001L93.19764809027778,26.55000000000001L93.97646302083334,26.55000000000001L94.17359045138889,26.55000000000001L94.52906614583334,26.55000000000001L94.74073576388889,26.55000000000001L95.22224375,26.55000000000001L95.36604982638889,26.55000000000001L95.56156145833333,26.55000000000001L95.833015625,26.55000000000001L96.01398506944444,26.55000000000001L96.04630104166667,26.55000000000001L96.17718072916666,26.55000000000001L96.18849131944444,26.55000000000001L96.93499027777779,26.55000000000001L97.57969392361112,26.55000000000001L98.15330243055556,26.55000000000001L98.31811388888889,26.55000000000001L98.34235086805556,26.55000000000001L98.41990920138889,26.55000000000001L98.43121979166666,26.55000000000001L99.31667743055556,26.55000000000001L99.42170434027778,26.55000000000001L99.59944218749999,26.55000000000001L99.75132725694445,26.55000000000001L99.7901064236111,26.55000000000001L99.97430746527778,26.55000000000001L100.12942413194443,26.55000000000001L100.24899322916667,26.55000000000001L101.33965729166667,26.55000000000001L101.34612048611112,26.55000000000001L101.73714375,26.55000000000001L102.11039322916668,26.55000000000001L102.11685642361111,26.55000000000001L102.30105746527778,26.55000000000001L102.33175763888889,26.55000000000001L102.71470190972222,26.55000000000001L103.0313984375,26.55000000000001L103.59531215277778,26.55000000000001L103.61147013888888,26.55000000000001L103.68902847222222,26.55000000000001L104.68597621527778,26.55000000000001L104.70213420138889,26.55000000000001L104.75868715277778,26.55000000000001L105.04306770833334,26.55000000000001L105.314521875,26.55000000000001L105.35006944444444,26.55000000000001L105.64576059027777,26.55000000000001L105.91398315972222,26.55000000000001L106.06586822916667,26.55000000000001L106.41326493055556,26.55000000000001L106.67340850694444,26.55000000000001L106.69118229166666,26.55000000000001L106.94809427083334,26.55000000000001L107.24701701388888,26.55000000000001L107.65742986111111,26.55000000000001L107.66066145833332,26.55000000000001L107.74791458333333,26.55000000000001L108.00321076388889,26.55000000000001L108.048453125,26.55000000000001L108.10985347222223,26.55000000000001L108.31344409722223,26.55000000000001L108.397465625,26.55000000000001L108.56550868055555,26.55000000000001L108.87251041666667,26.55000000000001L109.16012256944444,26.55000000000001L109.27484427083333,26.55000000000001L109.41865034722223,26.55000000000001L109.6206251736111,26.55000000000001L109.94701649305556,26.55000000000001L110.14575972222222,26.55000000000001L110.15545451388888,26.55000000000001L110.18938628472222,26.55000000000001L110.2459392361111,26.55000000000001L110.32996076388888,26.55000000000001L110.59818333333332,26.55000000000001L110.91649565972222,26.55000000000001L111.28651354166666,26.55000000000001L111.43355121527777,26.55000000000001L111.56281510416666,26.55000000000001L111.61936805555555,26.55000000000001L111.87143263888889,26.55000000000001L111.95060677083333,26.55000000000001L111.9603015625,26.55000000000001L111.97161215277778,26.55000000000001L112.29638767361111,26.55000000000001L112.72780590277777,26.55000000000001L113.11398177083333,26.55000000000001L113.3563515625,26.55000000000001L113.66012170138889,26.55000000000001L113.69243767361111,26.55000000000001L114.039834375,26.55000000000001L114.20949322916667,26.55000000000001L114.74270677083334,26.55000000000001L114.93175520833333,26.55000000000001L115.14827222222222,26.55000000000001L115.55706927083332,26.55000000000001L115.65240138888889,26.55000000000001L115.88830798611112,26.55000000000001L116.03049826388889,26.55000000000001L116.50231145833334,26.55000000000001L116.67197031250001,26.55000000000001L116.83839756944444,26.55000000000001L116.86263454861111,26.55000000000001L116.87232934027779,26.55000000000001L118.25383715277778,26.55000000000001L118.51398072916666,26.55000000000001L118.80159288194444,26.55000000000001L118.93085677083333,26.55000000000001L119.18453715277778,26.55000000000001L119.23947430555556,26.55000000000001L119.28310086805556,26.55000000000001L119.53516545138889,26.55000000000001L119.65635034722223,26.55000000000001L119.68866631944445,26.55000000000001L119.72582968750001,26.55000000000001L120.3673017361111,26.55000000000001L120.38669131944445,26.55000000000001L120.79225677083333,26.55000000000001L120.95545243055555,26.55000000000001L121.02977916666667,26.55000000000001L121.53552413194444,26.55000000000001L121.63731944444444,26.55000000000001L121.75688854166667,26.55000000000001L121.96855815972222,26.55000000000001L122.13336961805555,26.55000000000001L122.27394409722223,26.55000000000001L122.60841440972222,26.55000000000001L122.68112534722223,26.55000000000001L122.80231024305554,26.55000000000001L122.90248975694445,26.55000000000001L122.97843229166666,26.55000000000001L123.17879131944446,26.55000000000001L123.81864756944445,26.55000000000001L124.21451822916666,26.55000000000001L124.2904607638889,26.55000000000001L124.44073003472224,26.55000000000001L124.48112499999999,26.55000000000001L124.52151996527778,26.55000000000001L124.57160972222222,26.55000000000001L124.69764201388888,26.55000000000001L124.89800104166666,26.55000000000001L125.05311770833333,26.55000000000001L125.20338697916667,26.55000000000001L125.65419479166667,26.55000000000001L125.82223784722223,26.55000000000001L126.09046041666666,26.55000000000001L126.12762378472222,26.55000000000001L126.81110659722222,26.55000000000001L126.87897013888889,26.55000000000001L126.94198628472223,26.55000000000001L127.127803125,26.55000000000001L127.15527170138888,26.55000000000001L127.30715677083333,26.55000000000001L127.71433802083332,26.55000000000001L127.98740798611111,26.55000000000001L128.01810815972223,26.55000000000001L128.07789270833334,26.55000000000001L128.2346251736111,26.55000000000001L128.6385748263889,26.55000000000001L128.69674357638888,26.55000000000001L128.76137552083333,26.55000000000001L128.77914930555556,26.55000000000001L129.01020850694445,26.55000000000001L129.1216986111111,26.55000000000001L129.37537899305556,26.55000000000001L129.53534305555556,26.55000000000001L130.04108802083334,26.55000000000001L130.14773072916668,26.55000000000001L130.26406822916667,26.55000000000001L130.42241649305555,26.55000000000001L130.4272638888889,26.55000000000001L130.57914895833335,26.55000000000001L130.71326024305554,26.55000000000001L130.74557621527777,26.55000000000001L130.7778921875,26.55000000000001L130.80051336805556,26.55000000000001L131.10751510416665,26.55000000000001L131.18184184027777,26.55000000000001L131.38381666666666,26.55000000000001L132.03983090277777,26.55000000000001L132.40500138888888,26.55000000000001L132.68938194444445,26.55000000000001L133.00123107638888,26.55000000000001L133.07071041666666,26.55000000000001L133.10787378472222,26.55000000000001L133.5247498263889,26.55000000000001L133.6443189236111,26.55000000000001L133.78327760416667,26.55000000000001L134.20015364583332,26.55000000000001L134.6331876736111,26.55000000000001L134.96927378472222,26.55000000000001L135.63175121527777,26.55000000000001L136.26999166666667,26.55000000000001L136.27645486111112,26.55000000000001L136.31200243055557,26.55000000000001L136.58830399305555,26.55000000000001L136.64485694444443,26.55000000000001L136.8856109375,26.55000000000001L137.22654444444444,26.55000000000001L137.59009913194444,26.55000000000001L137.61918350694444,26.55000000000001L138.05383333333333,26.55000000000001L138.35921927083334,26.55000000000001L138.66622100694445,26.55000000000001L138.67106840277776,26.55000000000001L138.70015277777776,26.55000000000001L138.9522173611111,26.55000000000001L139.05886006944445,26.55000000000001L140.04934461805556,26.55000000000001L140.0671184027778,26.55000000000001L140.39674131944443,26.55000000000001L140.49207343749998,26.55000000000001L140.61648993055556,26.55000000000001L140.66981128472221,26.55000000000001L141.11415590277778,26.55000000000001L141.42115763888887,26.55000000000001L141.68130121527778,26.55000000000001L141.70392239583333,26.55000000000001L141.7588595486111,26.55000000000001L141.80410190972222,26.55000000000001L142.40679479166667,26.55000000000001L142.5295954861111,26.55000000000001L142.62654340277777,26.55000000000001L142.72833871527777,26.55000000000001L143.15329375000002,26.55000000000001L143.1549095486111,26.55000000000001L143.60086996527778,26.55000000000001L143.62995434027778,26.55000000000001L144.1405467013889,26.55000000000001L144.19548385416667,26.55000000000001L144.21002604166668,26.55000000000001L144.31505295138888,26.55000000000001L144.51056458333335,26.55000000000001L144.71738680555555,26.55000000000001L145.3782484375,26.55000000000001L145.43480138888887,26.55000000000001L145.55921788194445,26.55000000000001L145.5947654513889,26.55000000000001L145.9114619791667,26.55000000000001L146.12797899305556,26.55000000000001L146.31056423611113,26.55000000000001L146.46568090277776,26.55000000000001L147.2380326388889,26.55000000000001L147.39961250000002,26.55000000000001L147.49979201388888,26.55000000000001L147.68237725694442,26.55000000000001L147.84395711805556,26.55000000000001L148.30930711805556,26.55000000000001L148.50805034722222,26.55000000000001L149.06711666666666,26.55000000000001L149.4225923611111,26.55000000000001L149.56316684027777,26.55000000000001L149.7877628472222,26.55000000000001L150.1222331597222,26.55000000000001L150.16585972222225,26.55000000000001L150.17878611111112,26.55000000000001L150.2224126736111,26.55000000000001L150.56657777777778,26.55000000000001L151.43749322916668,26.55000000000001L151.51989895833333,26.55000000000001L151.54413593750002,26.55000000000001L151.78165833333335,26.55000000000001L152.15006041666666,26.55000000000001L152.18883958333333,26.55000000000001L152.62510520833334,26.55000000000001L152.63156840277776,26.55000000000001L152.7624480902778,26.55000000000001L152.87555399305558,26.55000000000001L152.89655937499998,26.55000000000001L152.9531123263889,26.55000000000001L153.63659513888888,26.55000000000001L153.8967387152778,26.55000000000001L154.32169374999998,26.55000000000001L154.32815694444443,26.55000000000001L154.64970086805556,26.55000000000001L154.6577798611111,26.55000000000001L154.94216041666664,26.55000000000001L155.06657690972222,26.55000000000001L155.3509574652778,26.55000000000001L155.35580486111112,26.55000000000001L155.4414421875,26.55000000000001L156.04575086805556,26.55000000000001L156.1637041666667,26.55000000000001L156.17501475694442,26.55000000000001L156.1863253472222,26.55000000000001L156.65652274305558,26.55000000000001L157.38686371527777,26.55000000000001L157.92492465277778,26.55000000000001L158.19799461805556,26.55000000000001L158.22869479166667,26.55000000000001L158.3951220486111,26.55000000000001L159.01558871527777,26.55000000000001L159.21594774305555,26.55000000000001L159.39206979166667,26.55000000000001L159.4518543402778,26.55000000000001L159.60697100694443,26.55000000000001L159.64413437500002,26.55000000000001L159.67321875000002,26.55000000000001L159.81379322916666,26.55000000000001L159.876809375,26.55000000000001L160.22905347222223,26.55000000000001L160.31630659722222,26.55000000000001L160.65239270833334,26.55000000000001L160.778425,26.55000000000001L160.80266197916666,26.55000000000001L161.08542673611112,26.55000000000001L161.57986111111111,26.55000000000001L161.64772465277778,26.55000000000001L161.74144097222222,26.55000000000001L161.82384670138887,26.55000000000001L162.14700642361112,26.55000000000001L162.36352343750002,26.55000000000001L162.83695243055556,26.55000000000001L163.79996840277778,26.55000000000001L164.30571336805556,26.55000000000001L164.32671875,26.55000000000001L164.5723201388889,26.55000000000001L164.6175625,26.55000000000001L164.65149427083335,26.55000000000001L164.73066840277778,26.55000000000001L164.91163784722224,26.55000000000001L165.10230208333334,26.55000000000001L165.16370243055556,26.55000000000001L165.70176336805557,26.55000000000001L166.16711336805554,26.55000000000001L166.45634131944442,26.55000000000001L166.5258206597222,26.55000000000001L166.7245638888889,26.55000000000001L166.85059618055556,26.55000000000001L167.6681902777778,26.55000000000001L167.8620861111111,26.55000000000001L167.97196041666666,26.55000000000001L168.18847743055557,26.55000000000001L168.20625121527777,26.55000000000001L168.24987777777778,26.55000000000001L168.26603576388888,26.55000000000001L169.04808229166667,26.55000000000001L169.2839888888889,26.55000000000001L169.59745381944444,26.55000000000001L169.65885416666669,26.55000000000001L169.76064947916666,26.55000000000001L169.98847708333335,26.55000000000001L170.51522743055557,26.55000000000001L170.56693298611108,26.55000000000001L170.8400029513889,26.55000000000001L171.12599930555555,26.55000000000001L171.32958993055556,26.55000000000001L171.39745347222222,26.55000000000001L171.62366527777777,26.55000000000001L171.70768680555557,26.55000000000001L171.96944618055556,26.55000000000001L172.6012234375,26.55000000000001L172.66908697916668,26.55000000000001L173.28470625,26.55000000000001L173.3412592013889,26.55000000000001L173.37519097222224,26.55000000000001L173.4592125,26.55000000000001L173.6902717013889,26.55000000000001L174.20571145833333,26.55000000000001L174.42384427083334,26.55000000000001L175.06531631944446,26.55000000000001L175.21396979166667,26.55000000000001L175.40301822916666,26.55000000000001L175.5225873263889,26.55000000000001L175.8134310763889,26.55000000000001L175.92653697916666,26.55000000000001L175.95400555555554,26.55000000000001L176.24646510416667,26.55000000000001L176.26908628472225,26.55000000000001L176.40319756944444,26.55000000000001L176.68111493055557,26.55000000000001L176.97519027777776,26.55000000000001L177.0236642361111,26.55000000000001L177.28057621527776,26.55000000000001L177.68129427083332,26.55000000000001L177.73623142361112,26.55000000000001L178.07554913194446,26.55000000000001L178.13856527777776,26.55000000000001L178.16603385416667,26.55000000000001L178.39709305555556,26.55000000000001L179.04018090277776,26.55000000000001L179.05310729166666,26.55000000000001L179.3326404513889,26.55000000000001L179.47321493055554,26.55000000000001L179.55885225694445,26.55000000000001L180.0726762152778,26.55000000000001L180.53641041666668,26.55000000000001L180.59781076388887,26.55000000000001L181.04053958333333,26.55000000000001L181.11325052083333,26.55000000000001L181.27483038194444,26.55000000000001L181.28614097222223,26.55000000000001L181.9243814236111,26.55000000000001L182.02617673611113,26.55000000000001L182.06980329861113,26.55000000000001L182.23461475694444,26.55000000000001L182.27662552083333,26.55000000000001L182.36549444444447,26.55000000000001L182.97788211805553,26.55000000000001L183.37860017361112,26.55000000000001L183.38506336805557,26.55000000000001L183.65974913194444,26.55000000000001L183.86818715277778,26.55000000000001L184.76333958333333,26.55000000000001L184.9620828125,26.55000000000001L185.01217256944446,26.55000000000001L185.78290850694444,26.55000000000001L185.91378819444446,26.55000000000001L186.04305208333335,26.55000000000001L186.05759427083333,26.55000000000001L186.10445243055554,26.55000000000001L186.3452064236111,26.55000000000001L186.43892274305554,26.55000000000001L186.4744703125,26.55000000000001L186.91558333333336,26.55000000000001L187.15795312499998,26.55000000000001L187.34215416666666,26.55000000000001L187.67500868055555,26.55000000000001L187.81558315972222,26.55000000000001L187.92222586805553,26.55000000000001L188.47482899305555,26.55000000000001L188.49745017361113,26.55000000000001L188.54269253472222,26.55000000000001L189.08398506944445,26.55000000000001L189.18739618055557,26.55000000000001L189.36674982638888,26.55000000000001L189.50732430555556,26.55000000000001L189.95166892361112,26.55000000000001L190.00175868055555,26.55000000000001L190.20534930555556,26.55000000000001L190.6642361111111,26.55000000000001L191.3444873263889,26.55000000000001L191.49960399305553,26.55000000000001L191.72904739583333,26.55000000000001L192.68883177083333,26.55000000000001L192.72761093749997,26.55000000000001L192.74538472222224,26.55000000000001L193.03461267361112,26.55000000000001L193.44502552083333,26.55000000000001L193.7019375,26.55000000000001L193.91522291666666,26.55000000000001L194.08811336805556,26.55000000000001L194.55346336805556,26.55000000000001L194.87662309027777,26.55000000000001L194.96872361111113,26.55000000000001L195.67321180555555,26.55000000000001L195.7976282986111,26.55000000000001L196.12401961805554,26.55000000000001L196.37285260416667,26.55000000000001L196.5215060763889,26.55000000000001L196.69924392361114,26.55000000000001L196.71378611111112,26.55000000000001L197.25669444444443,26.55000000000001L197.26315763888888,26.55000000000001L197.6590282986111,26.55000000000001L197.6848810763889,26.55000000000001L197.76728680555556,26.55000000000001L198.02419878472222,26.55000000000001L198.11468350694443,26.55000000000001L198.14053628472223,26.55000000000001L198.14215208333334,26.55000000000001L198.47662239583335,26.55000000000001L199.21827395833333,26.55000000000001L199.85651440972222,26.55000000000001L200.00678368055557,26.55000000000001L200.01809427083333,26.55000000000001L200.22330069444445,26.55000000000001L200.57877638888888,26.55000000000001L200.97626284722222,26.55000000000001L202.8958315972222,26.55000000000001L203.39834496527777,26.55000000000001L203.43712413194447,26.55000000000001L203.94610069444443,26.55000000000001L204.0155800347222,26.55000000000001L204.06728559027778,26.55000000000001L204.07859618055554,26.55000000000001L204.27733940972223,26.55000000000001L204.29672899305555,26.55000000000001L204.36782413194445,26.55000000000001L205.39062465277777,26.55000000000001L205.48918836805555,26.55000000000001L205.6976263888889,26.55000000000001L205.79134270833333,26.55000000000001L205.97554375,26.55000000000001L206.36171961805556,26.55000000000001L206.71234791666666,26.55000000000001L206.8626171875,26.55000000000001L206.88039097222222,26.55000000000001L207.22940347222223,26.55000000000001L207.517015625,26.55000000000001L208.01791319444445,26.55000000000001L208.23604600694443,26.55000000000001L208.3604625,26.55000000000001L208.69008541666668,26.55000000000001L208.7563331597222,26.55000000000001L209.06495069444446,26.55000000000001L209.20067777777777,26.55000000000001L209.48667413194443,26.55000000000001L209.59493263888888,26.55000000000001L209.89708697916666,26.55000000000001L210.26064166666666,26.55000000000001L210.3818265625,26.55000000000001L210.61450156249998,26.55000000000001L210.96674565972222,26.55000000000001L211.53389097222222,26.55000000000001L211.7908029513889,26.55000000000001L211.8344295138889,26.55000000000001L211.9653092013889,26.55000000000001L211.9976251736111,26.55000000000001L212.13012065972222,26.55000000000001L212.13658385416667,26.55000000000001L212.79906128472223,26.55000000000001L212.89439340277778,26.55000000000001L212.95094635416666,26.55000000000001L213.03819947916668,26.55000000000001L213.26441128472223,26.55000000000001L214.2969065972222,26.55000000000001L214.54573958333333,26.55000000000001L214.6685402777778,26.55000000000001L214.71055104166666,26.55000000000001L215.05956354166668,26.55000000000001L215.21468020833333,26.55000000000001L215.78505711805553,26.55000000000001L215.8480732638889,26.55000000000001L216.49762430555558,26.55000000000001L216.58972482638887,26.55000000000001L216.6963675347222,26.55000000000001L216.9096529513889,26.55000000000001L217.0405326388889,26.55000000000001L217.31037100694445,26.55000000000001L217.4008557291667,26.55000000000001L217.41055052083334,26.55000000000001L217.92275868055557,26.55000000000001L218.00516440972223,26.55000000000001L218.3654875,26.55000000000001L218.4495090277778,26.55000000000001L218.9487907986111,26.55000000000001L218.99403315972222,26.55000000000001L219.034428125,26.55000000000001L219.1636920138889,26.55000000000001L219.66297378472223,26.55000000000001L220.20749791666665,26.55000000000001L220.78433802083333,26.55000000000001L221.09133975694445,26.55000000000001L221.26261440972223,26.55000000000001L221.5793109375,26.55000000000001L221.75704878472223,26.55000000000001L222.0753611111111,26.55000000000001L222.11090868055555,26.55000000000001L222.12221927083334,26.55000000000001L222.47123177083333,26.55000000000001L223.34214722222222,26.55000000000001L223.5279640625,26.55000000000001L223.74124947916667,26.55000000000001L223.9367611111111,26.55000000000001L224.41503749999998,26.55000000000001L224.57176996527778,26.55000000000001L224.83029774305555,26.55000000000001L224.91593506944446,26.55000000000001L224.9530984375,26.55000000000001L225.27302656249998,26.55000000000001L225.4604592013889,26.55000000000001L225.47176979166667,26.55000000000001L225.51539635416665,26.55000000000001L225.59618628472222,26.55000000000001L225.63011805555556,26.55000000000001L225.68505520833335,26.55000000000001L225.9290407986111,26.55000000000001L226.12616822916667,26.55000000000001L226.19564756944445,26.55000000000001L226.2053423611111,26.55000000000001L226.22957934027778,26.55000000000001L226.32652725694444,26.55000000000001L226.4202435763889,26.55000000000001L226.43801736111112,26.55000000000001L226.6803871527778,26.55000000000001L226.88559357638889,26.55000000000001L226.93568333333334,26.55000000000001L227.05202083333333,26.55000000000001L227.73550364583335,26.55000000000001L227.8292199652778,26.55000000000001L228.00695781250002,26.55000000000001L228.21701163194444,26.55000000000001L228.68236163194445,26.55000000000001L229.21880677083334,26.55000000000001L229.5177295138889,26.55000000000001L229.55812447916668,26.55000000000001L229.97338472222222,26.55000000000001L230.22060190972223,26.55000000000001L230.24322309027778,26.55000000000001L230.26584427083333,26.55000000000001L230.99295364583332,26.55000000000001L231.70875243055556,26.55000000000001L231.87033229166667,26.55000000000001L232.37607725694443,26.55000000000001L232.6556104166667,26.55000000000001L232.90282760416665,26.55000000000001L232.97392274305557,26.55000000000001L233.03693888888887,26.55000000000001L233.08702864583333,26.55000000000001L233.15973958333333,26.55000000000001L233.64286336805554,26.55000000000001L233.97571788194446,26.55000000000001L234.67697447916666,26.55000000000001L234.94034965277777,26.55000000000001L234.98397621527778,26.55000000000001L235.26997256944443,26.55000000000001L235.72401197916668,26.55000000000001L235.7983387152778,26.55000000000001L235.8581232638889,26.55000000000001L236.15381440972223,26.55000000000001L236.76135468750002,26.55000000000001L237.25740486111113,26.55000000000001L237.5741013888889,26.55000000000001L237.84717135416665,26.55000000000001L237.8649451388889,26.55000000000001L238.07984635416668,26.55000000000001L238.5645859375,26.55000000000001L238.5775123263889,26.55000000000001L238.90875104166668,26.55000000000001L238.9426828125,26.55000000000001L239.887925,26.55000000000001L240.01880468750002,26.55000000000001L240.56494461805556,26.55000000000001L240.69582430555553,26.55000000000001L241.3276015625,26.55000000000001L241.5925925347222,26.55000000000001L241.7929515625,26.55000000000001L242.5329873263889,26.55000000000001L242.5782296875,26.55000000000001L242.60085086805557,26.55000000000001L242.7349621527778,26.55000000000001L242.79797829861113,26.55000000000001L242.84322065972222,26.55000000000001L242.94986336805556,26.55000000000001L242.9724845486111,26.55000000000001L243.4960032986111,26.55000000000001L243.68828333333332,26.55000000000001L243.83208940972222,26.55000000000001L244.72401024305555,26.55000000000001L245.11664930555554,26.55000000000001L245.443040625,26.55000000000001L245.68056302083335,26.55000000000001L246.141065625,26.55000000000001L246.14591302083335,26.55000000000001L246.63226840277778,26.55000000000001L246.77930607638888,26.55000000000001L247.1767925347222,26.55000000000001L247.18487152777777,26.55000000000001L247.36584097222223,26.55000000000001L247.9168282986111,26.55000000000001L248.0638659722222,26.55000000000001L248.2512986111111,26.55000000000001L248.5712267361111,26.55000000000001L248.700490625,26.55000000000001L248.7828963541667,26.55000000000001L248.88146006944447,26.55000000000001L249.23693576388888,26.55000000000001L249.4114420138889,26.55000000000001L249.58110086805556,26.55000000000001L250.0933090277778,26.55000000000001L250.096540625,26.55000000000001L250.1708673611111,26.55000000000001L250.30497864583333,26.55000000000001L250.63298576388888,26.55000000000001L250.91898211805554,26.55000000000001L251.32616336805557,26.55000000000001L251.66386527777777,26.55000000000001L251.8706875,26.55000000000001L251.957940625,26.55000000000001L252.06458333333333,26.55000000000001L252.31987951388888,26.55000000000001L252.50731215277779,26.55000000000001L252.6979763888889,26.55000000000001L252.77715052083332,26.55000000000001L252.8013875,26.55000000000001L253.20856875,26.55000000000001L253.4283173611111,26.55000000000001L253.75470868055555,26.55000000000001L253.83065121527775,26.55000000000001L253.99546267361112,26.55000000000001L254.21844288194444,26.55000000000001L254.4026439236111,26.55000000000001L254.6013871527778,26.55000000000001L254.89061510416664,26.55000000000001L254.95039965277778,26.55000000000001L254.98594722222222,26.55000000000001L255.10390052083332,26.55000000000001L255.389896875,26.55000000000001L255.39151267361112,26.55000000000001L255.5207765625,26.55000000000001L255.70659340277777,26.55000000000001L256.1444748263889,26.55000000000001L256.3399864583333,26.55000000000001L256.66153038194443,26.55000000000001L256.73424131944444,26.55000000000001L257.0493220486111,26.55000000000001L257.16889114583336,26.55000000000001L257.6310095486111,26.55000000000001L258.20300225694444,26.55000000000001L258.2417814236111,26.55000000000001L258.3985138888889,26.55000000000001L258.4162876736111,26.55000000000001L258.78468975694443,26.55000000000001L258.8687112847222,26.55000000000001L259.1644024305555,26.55000000000001L259.58612586805555,26.55000000000001L260.01915989583335,26.55000000000001L260.2389085069444,26.55000000000001L260.3584776041667,26.55000000000001L260.55722083333336,26.55000000000001L261.0161076388889,26.55000000000001L261.42328888888886,26.55000000000001L261.6301111111111,26.55000000000001L261.85470711805556,26.55000000000001L262.22149340277775,26.55000000000001L262.3249045138889,26.55000000000001L262.46547899305557,26.55000000000001L262.65452743055556,26.55000000000001L262.9453711805555,26.55000000000001L263.0520138888889,26.55000000000001L263.42526336805554,26.55000000000001L263.4737373263889,26.55000000000001L264.0311878472222,26.55000000000001L264.1265199652778,26.55000000000001L264.37050555555555,26.55000000000001L264.7356760416667,26.55000000000001L264.76476041666666,26.55000000000001L265.1977944444444,26.55000000000001L265.2591947916667,26.55000000000001L265.4288536458333,26.55000000000001L265.59689670138886,26.55000000000001L265.9733777777778,26.55000000000001L266.2836111111111,26.55000000000001L266.2949217013889,26.55000000000001L266.37571163194445,26.55000000000001L266.4775069444445,26.55000000000001L266.6083866319444,26.55000000000001L266.8459090277778,26.55000000000001L267.19007413194447,26.55000000000001L267.2757114583333,26.55000000000001L267.4760704861111,26.55000000000001L267.57625,26.55000000000001L267.7152086805555,26.55000000000001L267.75721944444444,26.55000000000001L268.3712229166667,26.55000000000001L268.5618871527778,26.55000000000001L268.63944548611113,26.55000000000001L268.68145625,26.55000000000001L268.9092838541667,26.55000000000001L269.14034305555555,26.55000000000001L269.7187989583333,26.55000000000001L270.0920484375,26.55000000000001L270.46691371527777,26.55000000000001L270.5670932291667,26.55000000000001L270.68181493055556,26.55000000000001L270.7222098958333,26.55000000000001L270.91448993055553,26.55000000000001L271.14554913194445,26.55000000000001L271.22795486111113,26.55000000000001L271.2441128472222,26.55000000000001L271.3055131944444,26.55000000000001L271.47840364583334,26.55000000000001L271.97283802083336,26.55000000000001L272.0810965277778,26.55000000000001L272.2265184027778,26.55000000000001L272.8356744791667,26.55000000000001L272.8421376736111,26.55000000000001L273.0958180555556,26.55000000000001L273.2525505208333,26.55000000000001L273.49168871527775,26.55000000000001L273.89079097222225,26.55000000000001L273.9150279513889,26.55000000000001L274.26888784722223,26.55000000000001L274.39168854166667,26.55000000000001L274.4223887152778,26.55000000000001L274.70838506944443,26.55000000000001L274.75201163194447,26.55000000000001L274.7907907986111,26.55000000000001L275.050934375,26.55000000000001L275.14949809027775,26.55000000000001L275.2383670138889,26.55000000000001L275.3611677083333,26.55000000000001L275.36763090277776,26.55000000000001L275.58091631944444,26.55000000000001L275.9121550347222,26.55000000000001L276.1286720486111,26.55000000000001L276.2999467013889,26.55000000000001L276.4954583333333,26.55000000000001L276.5552428819444,26.55000000000001L277.0561404513889,26.55000000000001L277.4600901041667,26.55000000000001L277.4843270833333,26.55000000000001L277.6507543402778,26.55000000000001L277.8284921875,26.55000000000001L277.8398027777778,26.55000000000001L278.06763038194447,26.55000000000001L278.23082604166666,26.55000000000001L278.5087434027778,26.55000000000001L278.56206475694444,26.55000000000001L278.64608628472223,26.55000000000001L278.92885104166663,26.55000000000001L279.37804305555557,26.55000000000001L279.5848652777778,26.55000000000001L280.0146677083333,26.55000000000001L280.24734270833335,26.55000000000001" style="fill: none;" fill="none"></path></g></g></g></g></g></g><g transform="translate(39, 177)" clip-path="url(#clip_1)"><clipPath id="clip_1"><rect width="290" height="23"></rect></clipPath><g><g><line x1="0" y1="0" x2="0" y2="5" style="visibility: inherit;" fill="rgb(0, 0, 0)" stroke="rgb(204, 204, 204)" stroke-width="1px"></line><line x1="32.31597222222222" y1="0" x2="32.31597222222222" y2="5" style="visibility: inherit;" fill="rgb(0, 0, 0)" stroke="rgb(204, 204, 204)" stroke-width="1px"></line><line x1="64.63194444444444" y1="0" x2="64.63194444444444" y2="5" style="visibility: inherit;" fill="rgb(0, 0, 0)" stroke="rgb(204, 204, 204)" stroke-width="1px"></line><line x1="96.94791666666666" y1="0" x2="96.94791666666666" y2="5" style="visibility: inherit;" fill="rgb(0, 0, 0)" stroke="rgb(204, 204, 204)" stroke-width="1px"></line><line x1="129.26388888888889" y1="0" x2="129.26388888888889" y2="5" style="visibility: inherit;" fill="rgb(0, 0, 0)" stroke="rgb(204, 204, 204)" stroke-width="1px"></line><line x1="161.57986111111111" y1="0" x2="161.57986111111111" y2="5" style="visibility: inherit;" fill="rgb(0, 0, 0)" stroke="rgb(204, 204, 204)" stroke-width="1px"></line><line x1="193.89583333333331" y1="0" x2="193.89583333333331" y2="5" style="visibility: inherit;" fill="rgb(0, 0, 0)" stroke="rgb(204, 204, 204)" stroke-width="1px"></line><line x1="226.21180555555557" y1="0" x2="226.21180555555557" y2="5" style="visibility: inherit;" fill="rgb(0, 0, 0)" stroke="rgb(204, 204, 204)" stroke-width="1px"></line><line x1="258.52777777777777" y1="0" x2="258.52777777777777" y2="5" style="visibility: inherit;" fill="rgb(0, 0, 0)" stroke="rgb(204, 204, 204)" stroke-width="1px"></line><line x1="290.84375" y1="0" x2="290.84375" y2="5" style="visibility: inherit;" fill="rgb(0, 0, 0)" stroke="rgb(204, 204, 204)" stroke-width="1px"></line></g><g transform="translate(0, 8)"><text x="0" y="0" dx="0em" dy="0.95em" style="text-anchor: middle; visibility: hidden; font-family: &quot;Helvetica Neue&quot;, sans-serif; font-size: 12px; font-weight: 200;" fill="rgb(50, 49, 63)" stroke="none" stroke-width="1px">-20k</text><text x="32.31597222222222" y="0" dx="0em" dy="0.95em" style="text-anchor: middle; visibility: inherit; font-family: &quot;Helvetica Neue&quot;, sans-serif; font-size: 12px; font-weight: 200;" fill="rgb(50, 49, 63)" stroke="none" stroke-width="1px">0</text><text x="64.63194444444444" y="0" dx="0em" dy="0.95em" style="text-anchor: middle; visibility: inherit; font-family: &quot;Helvetica Neue&quot;, sans-serif; font-size: 12px; font-weight: 200;" fill="rgb(50, 49, 63)" stroke="none" stroke-width="1px">20k</text><text x="96.94791666666666" y="0" dx="0em" dy="0.95em" style="text-anchor: middle; visibility: inherit; font-family: &quot;Helvetica Neue&quot;, sans-serif; font-size: 12px; font-weight: 200;" fill="rgb(50, 49, 63)" stroke="none" stroke-width="1px">40k</text><text x="129.26388888888889" y="0" dx="0em" dy="0.95em" style="text-anchor: middle; visibility: inherit; font-family: &quot;Helvetica Neue&quot;, sans-serif; font-size: 12px; font-weight: 200;" fill="rgb(50, 49, 63)" stroke="none" stroke-width="1px">60k</text><text x="161.57986111111111" y="0" dx="0em" dy="0.95em" style="text-anchor: middle; visibility: inherit; font-family: &quot;Helvetica Neue&quot;, sans-serif; font-size: 12px; font-weight: 200;" fill="rgb(50, 49, 63)" stroke="none" stroke-width="1px">80k</text><text x="193.89583333333331" y="0" dx="0em" dy="0.95em" style="text-anchor: middle; visibility: inherit; font-family: &quot;Helvetica Neue&quot;, sans-serif; font-size: 12px; font-weight: 200;" fill="rgb(50, 49, 63)" stroke="none" stroke-width="1px">100k</text><text x="226.21180555555557" y="0" dx="0em" dy="0.95em" style="text-anchor: middle; visibility: inherit; font-family: &quot;Helvetica Neue&quot;, sans-serif; font-size: 12px; font-weight: 200;" fill="rgb(50, 49, 63)" stroke="none" stroke-width="1px">120k</text><text x="258.52777777777777" y="0" dx="0em" dy="0.95em" style="text-anchor: middle; visibility: inherit; font-family: &quot;Helvetica Neue&quot;, sans-serif; font-size: 12px; font-weight: 200;" fill="rgb(50, 49, 63)" stroke="none" stroke-width="1px">140k</text><text x="290.84375" y="0" dx="0em" dy="0.95em" style="text-anchor: middle; visibility: hidden; font-family: &quot;Helvetica Neue&quot;, sans-serif; font-size: 12px; font-weight: 200;" fill="rgb(50, 49, 63)" stroke="none" stroke-width="1px">160k</text></g><line x1="0" y1="0" x2="290.84375" y2="0" fill="rgb(0, 0, 0)" stroke="rgb(204, 204, 204)" stroke-width="1px"></line></g></g></g></g></svg>