<svg viewBox="0 0 330 200" xmlns="http://www.w3.org/2000/svg"><g><g><g><g><g><line x1="68.3125" y1="177" x2="63.3125" y2="177" style="visibility: inherit;" fill="rgb(0, 0, 0)" stroke="rgb(204, 204, 204)" stroke-width="1px"></line><line x1="68.3125" y1="160.9090909090909" x2="63.3125" y2="160.9090909090909" style="visibility: inherit;" fill="rgb(0, 0, 0)" stroke="rgb(204, 204, 204)" stroke-width="1px"></line><line x1="68.3125" y1="144.8181818181818" x2="63.3125" y2="144.8181818181818" style="visibility: inherit;" fill="rgb(0, 0, 0)" stroke="rgb(204, 204, 204)" stroke-width="1px"></line><line x1="68.3125" y1="128.72727272727275" x2="63.3125" y2="128.72727272727275" style="visibility: inherit;" fill="rgb(0, 0, 0)" stroke="rgb(204, 204, 204)" stroke-width="1px"></line><line x1="68.3125" y1="112.63636363636364" x2="63.3125" y2="112.63636363636364" style="visibility: inherit;" fill="rgb(0, 0, 0)" stroke="rgb(204, 204, 204)" stroke-width="1px"></line><line x1="68.3125" y1="96.54545454545455" x2="63.3125" y2="96.54545454545455" style="visibility: inherit;" fill="rgb(0, 0, 0)" stroke="rgb(204, 204, 204)" stroke-width="1px"></line><line x1="68.3125" y1="80.45454545454547" x2="63.3125" y2="80.45454545454547" style="visibility: inherit;" fill="rgb(0, 0, 0)" stroke="rgb(204, 204, 204)" stroke-width="1px"></line><line x1="68.3125" y1="64.36363636363636" x2="63.3125" y2="64.36363636363636" style="visibility: inherit;" fill="rgb(0, 0, 0)" stroke="rgb(204, 204, 204)" stroke-width="1px"></line><line x1="68.3125" y1="48.27272727272728" x2="63.3125" y2="48.27272727272728" style="visibility: inherit;" fill="rgb(0, 0, 0)" stroke="rgb(204, 204, 204)" stroke-width="1px"></line><line x1="68.3125" y1="32.18181818181819" x2="63.3125" y2="32.18181818181819" style="visibility: inherit;" fill="rgb(0, 0, 0)" stroke="rgb(204, 204, 204)" stroke-width="1px"></line><line x1="68.3125" y1="16.090909090909093" x2="63.3125" y2="16.090909090909093" style="visibility: inherit;" fill="rgb(0, 0, 0)" stroke="rgb(204, 204, 204)" stroke-width="1px"></line><line x1="68.3125" y1="0" x2="63.3125" y2="0" style="visibility: inherit;" fill="rgb(0, 0, 0)" stroke="rgb(204, 204, 204)" stroke-width="1px"></line></g><g transform="translate(58.3125, 0)"><text x="0" y="177" dx="0em" dy="0.3em" style="text-anchor: end; visibility: hidden; font-family: &quot;Helvetica Neue&quot;, sans-serif; font-size: 12px; font-weight: 200;" fill="rgb(50, 49, 63)" stroke="none" stroke-width="1px">-2e+3</text><text x="0" y="160.9090909090909" dx="0em" dy="0.3em" style="text-anchor: end; visibility: inherit; font-family: &quot;Helvetica Neue&quot;, sans-serif; font-size: 12px; font-weight: 200;" fill="rgb(50, 49, 63)" stroke="none" stroke-width="1px">0</text><text x="0" y="144.8181818181818" dx="0em" dy="0.3em" style="text-anchor: end; visibility: hidden; font-family: &quot;Helvetica Neue&quot;, sans-serif; font-size: 12px; font-weight: 200;" fill="rgb(50, 49, 63)" stroke="none" stroke-width="1px">2e+3</text><text x="0" y="128.72727272727275" dx="0em" dy="0.3em" style="text-anchor: end; visibility: inherit; font-family: &quot;Helvetica Neue&quot;, sans-serif; font-size: 12px; font-weight: 200;" fill="rgb(50, 49, 63)" stroke="none" stroke-width="1px">4e+3</text><text x="0" y="112.63636363636364" dx="0em" dy="0.3em" style="text-anchor: end; visibility: hidden; font-family: &quot;Helvetica Neue&quot;, sans-serif; font-size: 12px; font-weight: 200;" fill="rgb(50, 49, 63)" stroke="none" stroke-width="1px">6e+3</text><text x="0" y="96.54545454545455" dx="0em" dy="0.3em" style="text-anchor: end; visibility: inherit; font-family: &quot;Helvetica Neue&quot;, sans-serif; font-size: 12px; font-weight: 200;" fill="rgb(50, 49, 63)" stroke="none" stroke-width="1px">8e+3</text><text x="0" y="80.45454545454547" dx="0em" dy="0.3em" style="text-anchor: end; visibility: hidden; font-family: &quot;Helvetica Neue&quot;, sans-serif; font-size: 12px; font-weight: 200;" fill="rgb(50, 49, 63)" stroke="none" stroke-width="1px">1e+4</text><text x="0" y="64.36363636363636" dx="0em" dy="0.3em" style="text-anchor: end; visibility: inherit; font-family: &quot;Helvetica Neue&quot;, sans-serif; font-size: 12px; font-weight: 200;" fill="rgb(50, 49, 63)" stroke="none" stroke-width="1px">1.2e+4</text><text x="0" y="48.27272727272728" dx="0em" dy="0.3em" style="text-anchor: end; visibility: hidden; font-family: &quot;Helvetica Neue&quot;, sans-serif; font-size: 12px; font-weight: 200;" fill="rgb(50, 49, 63)" stroke="none" stroke-width="1px">1.4e+4</text><text x="0" y="32.18181818181819" dx="0em" dy="0.3em" style="text-anchor: end; visibility: inherit; font-family: &quot;Helvetica Neue&quot;, sans-serif; font-size: 12px; font-weight: 200;" fill="rgb(50, 49, 63)" stroke="none" stroke-width="1px">1.6e+4</text><text x="0" y="16.090909090909093" dx="0em" dy="0.3em" style="text-anchor: end; visibility: hidden; font-family: &quot;Helvetica Neue&quot;, sans-serif; font-size: 12px; font-weight: 200;" fill="rgb(50, 49, 63)" stroke="none" stroke-width="1px">1.8e+4</text><text x="0" y="0" dx="0em" dy="0.3em" style="text-anchor: end; visibility: hidden; font-family: &quot;Helvetica Neue&quot;, sans-serif; font-size: 12px; font-weight: 200;" fill="rgb(50, 49, 63)" stroke="none" stroke-width="1px">2e+4</text></g><line x1="68.3125" y1="0" x2="68.3125" y2="177" fill="rgb(0, 0, 0)" stroke="rgb(204, 204, 204)" stroke-width="1px"></line></g></g><g transform="translate(68, 0)" clip-path="url(#clip_0)"><clipPath id="clip_0"><rect width="261" height="177"></rect></clipPath><g><g><g><line x1="0" y1="0" x2="0" y2="177" fill="rgb(0, 0, 0)" stroke="rgb(60, 60, 60)" stroke-width="1px" opacity="0.25"></line><line x1="29.076388888888886" y1="0" x2="29.076388888888886" y2="177" fill="rgb(0, 0, 0)" stroke="rgb(60, 60, 60)" stroke-width="1px" opacity="0.25"></line><line x1="58.15277777777777" y1="0" x2="58.15277777777777" y2="177" fill="rgb(0, 0, 0)" stroke="rgb(60, 60, 60)" stroke-width="1px" opacity="0.25"></line><line x1="87.22916666666666" y1="0" x2="87.22916666666666" y2="177" fill="rgb(0, 0, 0)" stroke="rgb(60, 60, 60)" stroke-width="1px" opacity="0.25"></line><line x1="116.30555555555554" y1="0" x2="116.30555555555554" y2="177" fill="rgb(0, 0, 0)" stroke="rgb(60, 60, 60)" stroke-width="1px" opacity="0.25"></line><line x1="145.38194444444446" y1="0" x2="145.38194444444446" y2="177" fill="rgb(0, 0, 0)" stroke="rgb(60, 60, 60)" stroke-width="1px" opacity="0.25"></line><line x1="174.45833333333331" y1="0" x2="174.45833333333331" y2="177" fill="rgb(0, 0, 0)" stroke="rgb(60, 60, 60)" stroke-width="1px" opacity="0.25"></line><line x1="203.53472222222223" y1="0" x2="203.53472222222223" y2="177" fill="rgb(0, 0, 0)" stroke="rgb(60, 60, 60)" stroke-width="1px" opacity="0.25"></line><line x1="232.6111111111111" y1="0" x2="232.6111111111111" y2="177" fill="rgb(0, 0, 0)" stroke="rgb(60, 60, 60)" stroke-width="1px" opacity="0.25"></line><line x1="261.6875" y1="0" x2="261.6875" y2="177" fill="rgb(0, 0, 0)" stroke="rgb(60, 60, 60)" stroke-width="1px" opacity="0.25"></line></g><g><line x1="0" y1="177" x2="261.6875" y2="177" fill="rgb(0, 0, 0)" stroke="rgb(60, 60, 60)" stroke-width="1px" opacity="0.25"></line><line x1="0" y1="160.9090909090909" x2="261.6875" y2="160.9090909090909" fill="rgb(0, 0, 0)" stroke="rgb(60, 60, 60)" stroke-width="1px" opacity="0.25"></line><line x1="0" y1="144.8181818181818" x2="261.6875" y2="144.8181818181818" fill="rgb(0, 0, 0)" stroke="rgb(60, 60, 60)" stroke-width="1px" opacity="0.25"></line><line x1="0" y1="128.72727272727275" x2="261.6875" y2="128.72727272727275" fill="rgb(0, 0, 0)" stroke="rgb(60, 60, 60)" stroke-width="1px" opacity="0.25"></line><line x1="0" y1="112.63636363636364" x2="261.6875" y2="112.63636363636364" fill="rgb(0, 0, 0)" stroke="rgb(60, 60, 60)" stroke-width="1px" opacity="0.25"></line><line x1="0" y1="96.54545454545455" x2="261.6875" y2="96.54545454545455" fill="rgb(0, 0, 0)" stroke="rgb(60, 60, 60)" stroke-width="1px" opacity="0.25"></line><line x1="0" y1="80.45454545454547" x2="261.6875" y2="80.45454545454547" fill="rgb(0, 0, 0)" stroke="rgb(60, 60, 60)" stroke-width="1px" opacity="0.25"></line><line x1="0" y1="64.36363636363636" x2="261.6875" y2="64.36363636363636" fill="rgb(0, 0, 0)" stroke="rgb(60, 60, 60)" stroke-width="1px" opacity="0.25"></line><line x1="0" y1="48.27272727272728" x2="261.6875" y2="48.27272727272728" fill="rgb(0, 0, 0)" stroke="rgb(60, 60, 60)" stroke-width="1px" opacity="0.25"></line><line x1="0" y1="32.18181818181819" x2="261.6875" y2="32.18181818181819" fill="rgb(0, 0, 0)" stroke="rgb(60, 60, 60)" stroke-width="1px" opacity="0.25"></line><line x1="0" y1="16.090909090909093" x2="261.6875" y2="16.090909090909093" fill="rgb(0, 0, 0)" stroke="rgb(60, 60, 60)" stroke-width="1px" opacity="0.25"></line><line x1="0" y1="0" x2="261.6875" y2="0" fill="rgb(0, 0, 0)" stroke="rgb(60, 60, 60)" stroke-width="1px" opacity="0.25"></line></g></g></g><g><g><line x1="0" y1="160.9090909090909" x2="261.6875" y2="160.9090909090909" fill="rgb(0, 0, 0)" stroke="rgb(153, 153, 153)" stroke-width="1.5px"></line></g></g><g><g><line x1="29.076388888888886" y1="0" x2="29.076388888888886" y2="177" fill="rgb(0, 0, 0)" stroke="rgb(153, 153, 153)" stroke-width="1.5px"></line></g></g><g><g><g><g><g><path stroke="rgb(255, 112, 67)" stroke-width="2px" d="M29.381690972222223,160.10454545454544L29.926873263888886,160.10454545454544L30.01846388888889,160.10454545454544L30.349934722222223,160.10454545454544L31.24257986111111,160.10454545454544L31.299278819444446,160.10454545454544L31.42430729166667,160.10454545454544L31.467921875,160.10454545454544L31.58858888888889,160.10454545454544L31.901160069444444,160.10454545454544L32.08724895833333,160.10454545454544L32.593178125,160.10454545454544L32.80979722222222,160.10454545454544L32.89557256944444,160.10454545454544L32.99152465277778,160.10454545454544L33.02350868055556,160.10454545454544L33.26338888888889,160.10454545454544L33.623936111111114,160.10454545454544L34.017921180555554,160.09152262733062L34.35084583333333,160.09300515022608L34.593633680555556,156.51053735806133L34.600902777777776,156.90919701024416L34.869859375000004,153.43027935372518L35.17225381944444,155.01235723448016L35.61566875,155.75598356864887L35.78285798611111,156.22087689580354L36.24953402777778,156.63322148085297L36.91538333333334,156.99952424677383L37.19306284722222,157.32537432562498L37.33262951388888,157.6155941949314L37.800759375,157.87436183487605L37.819659027777774,158.05198842317503L38.380833333333335,154.56939369092186L38.638159375,155.1387441190445L38.742834374999994,155.64807356054814L38.82570208333333,156.1039918595476L38.92892326388889,156.51232643098336L39.39850694444444,156.87822525643514L39.885536458333334,157.2062444013388L39.89135173611111,153.7831877986219L39.937873958333334,154.4238461101719L40.34930486111111,154.9987996850133L40.91193298611111,144.209939632077L41.182343402777775,145.81496533191725L41.43240034722223,147.25650505032428L41.651927083333334,148.55148134608422L42.316322569444445,149.71501352275345L42.68413888888889,139.50582705565074L42.950187847222224,141.57756251648934L43.070854861111115,143.43985866601906L43.283112499999994,145.11409311004368L43.49973159722222,146.61942242892107L43.55788437499999,147.82281052892716L44.606088194444446,149.05515104775407L44.82561493055555,146.30761084742107L44.95936631944444,147.6910935669305L45.17307777777778,148.93550627620766L45.410050347222224,146.91018969321513L45.51327152777778,148.2322650282307L45.88108784722222,149.42163037263643L45.94214826388889,146.76782531184742L46.40446284722222,148.10344141999872L46.43063159722222,146.1632829032792L46.54548333333334,147.47850528441472L47.02524375,148.74245049468706L47.468658680555556,149.8797461136195L48.377295833333335,150.90310562977604L48.58809965277778,151.82396194434787L48.87886354166667,152.65259719007318L49.271394791666665,153.39825923250956L49.331001388888886,154.06926624957626L49.84129201388889,154.673100633405L49.95178229166666,155.21649332420847L50.780459375,144.11528030180074L51.42013993055556,145.7147986204347L51.43903958333333,147.15425262711227L51.597505902777776,148.4496701344L51.89990034722222,149.61547210839478L52.47270520833334,150.59784063969835L52.61663333333333,151.54871886382816L52.663155555555555,140.5753256751453L52.86959791666667,142.5285933118141L53.19379965277778,141.01949362947894L53.61976875,142.92827241847465L53.864010416666666,144.64612133663056L53.88145625,146.19214325131716L54.39756215277778,147.58352886542076L55.22333159722223,148.8357482906974L55.332368055555555,146.214833441651L55.361444444444444,147.60391045914386L56.078177430555556,148.88865749498936L56.414009722222225,149.9821546728051L56.509961805555555,150.99444996706399L56.82834826388889,151.90550505030697L57.037698263888885,152.72544597328246L57.401153125,153.46338579599188L57.510189583333336,154.12752596005274L57.636671875,154.7252475098977L57.963781250000004,155.26319318057307L58.283621527777775,155.74734126762078L58.738667013888886,156.1830721025717L58.83316527777778,156.57522787489586L58.99599305555556,156.92816646690247L59.35363263888889,157.24580990121785L59.48156875,157.53168794033053L59.77378645833333,157.78897732360173L59.89154583333333,158.02053707848557L59.90463020833333,158.22894029893465L60.18521736111111,158.41650274459397L60.18957881944444,158.5853085789653L60.201209375,158.73723353285556L60.47888888888889,158.87396575075184L60.624270833333334,158.997024551969L61.01534826388889,159.10777731520432L61.35844965277778,159.20745467424962L61.49365486111111,159.2971641938188L61.68265138888889,159.37790267753812L61.97923055555555,147.62370191267252L62.03156805555555,148.87179074506633L62.68578680555556,149.9950698433588L63.05069548611111,151.00602034262457L63.100125347222225,148.34690226202636L63.19753125,149.5226693491755L63.23242291666667,150.58085920170814L63.44758819444445,151.53322964300753L63.46794166666666,152.3903626951334L63.49556423611111,153.16178216256156L63.969509375,153.85605945686407L64.14251388888889,154.48090883836633L64.27771909722222,155.0432731331887L64.49724583333334,155.54940087821987L64.63972013888889,156.0049157512977L64.90140763888888,156.41487905813307L65.12093437499999,156.78384597034784L65.13401875,157.11591613955213L65.408790625,157.4147792498869L65.64576319444444,157.68375601520944L65.67193194444444,157.92583507647694L66.1546,158.14370620932425L66.37558055555556,146.55158558276906L66.62418368055556,136.13798698130617L66.638721875,138.53464359078308L67.10394409722221,137.13634701332197L67.28567152777777,139.4331674490719L67.54735902777777,141.50030572883756L67.57207395833333,143.36073008957516L67.57788923611112,145.03511194048727L67.97042048611111,146.54205554656932L68.17977048611111,147.89830474365465L68.23646944444445,149.1189289818368L68.40802013888889,150.21749076445303L68.57666319444444,151.20619634309202L68.71041458333333,152.09603134303745L69.00117847222222,152.89688282611633L69.03316249999999,153.617649147221L69.03752395833332,154.26633882514545L69.20180555555555,154.85015952631096L69.71500381944445,155.3755981500971L69.95052256944444,155.8484929056217L69.97232986111112,156.27409818082867L69.97378368055556,144.83032423478056L70.05519756944443,146.35774641581057L70.14678819444444,147.73242636751738L70.59165694444445,148.96963831496518L70.69342430555557,150.08312906030667L70.721046875,151.08527072515113L70.87660555555556,151.98719821868124L71.00454166666667,140.97211453412615L71.16010034722223,139.37029850563817L71.16446180555555,141.44372323503652L71.20953020833333,131.724350765951L71.25896006944446,134.56237027306884L71.506109375,137.11658782220582L71.6340454861111,139.41538361054114L71.87828715277777,141.48429981527366L72.04547638888889,131.76086974774574L72.08472951388889,134.59523734098786L72.34205555555555,137.14616817061895L72.83344652777778,139.44200591381463L73.05878854166667,141.50825987987815L73.23615451388889,143.36788844705717L73.4658579861111,145.0415541556729L73.5967017361111,146.54785329193237L73.80023645833334,147.9035225133552L75.08832048611112,137.296806589311L75.21916423611111,139.57758048286823L75.25260208333334,141.6302769857333L75.38489965277778,143.4777038372294L75.60006493055556,145.14038800269904L75.745446875,146.6368037509115L75.82831458333334,147.9835779237274L76.25137604166666,149.19567467879577L76.46508750000001,150.28656175797983L76.77329722222223,151.26836012893978L77.10040659722222,152.15197866255608L77.21961979166666,152.94723534261016L77.32574861111112,142.0775117978297L77.33011006944444,143.88021516507143L77.49875312500001,145.50264819529065L77.69065729166667,146.9628379222463L77.83458541666667,148.27700867631066L77.8549388888889,149.45976235481004L78.0352125,150.52424066533104L78.48735034722223,151.48227114469594L78.50334236111112,152.3444985760401L78.66180868055555,153.1205032641816L78.97292604166667,153.81890748345364L79.15174583333334,154.44747128075372L79.6605826388889,155.0131786982875L79.78415729166667,155.52231537403856L79.85684826388889,155.9805383821907L79.92227013888889,156.39293908950833L80.16069652777777,156.76409972607863L80.64772604166666,157.0981442989792L80.66226423611111,157.3987844145795L80.84399166666667,157.66936051861148L80.89487534722223,157.91287901223353L80.91377499999999,146.30522747341737L80.94575902777778,147.6851592716617L81.16964722222222,148.9270978900566L81.1754625,138.70075173662514L81.41098124999999,129.01431292592602L81.42551944444445,132.12333617898236L81.87911111111111,134.92145710669615L82.10009166666666,137.4397659416086L82.182959375,139.7062438930056L82.23965833333334,141.74607404924328L82.30071875,131.75510300758643L82.65981215277777,134.59004725237654L82.75721805555555,137.14149707266972L82.91713819444445,139.43780191091912L83.27332395833332,141.50447626533182L83.43324409722221,143.3644831842937L83.55681874999999,145.03848941135175L83.61497152777777,146.5450950156977L83.88828958333333,147.90104005960404L84.2473829861111,149.12139059911564L84.72568958333333,150.21970608467277L84.878340625,151.2081900216715L85.13275902777778,140.27100738302664L85.40607708333334,142.25436119019713L85.50784444444444,144.03937961664704L85.62560381944445,145.6458962004491L85.94689791666667,147.09176112586863L86.00505069444444,148.3930395587443L86.20713159722222,149.56419014833094L86.28273020833333,150.61822567895763L86.39467430555555,151.56685765652068L86.86861944444445,152.42062643632661L87.13902986111111,153.18901833815127L87.46468541666667,153.88057104979296L87.51411527777778,154.50296849027004L87.52865347222222,155.06312618669907L88.00114479166666,155.56726811348491L88.18287222222222,156.02099584759193L88.57831111111112,156.42935080828806L89.00428020833334,153.65914300018173L89.14530069444444,154.3036832456191L90.32580208333333,154.88376946651255L90.3447017361111,155.40584706531652L90.62819652777777,155.87571690423994L90.64855,156.29859975927093L90.65872673611112,156.67919432879873L91.66040833333334,157.02172944137368L92.02240937500001,145.50319286086406L92.35533402777779,146.96332812023317L92.39022569444445,136.45063167183986L92.63882881944446,138.8160230501117L92.78275694444444,140.94487529055613L93.14621180555555,142.8608423069559L93.15784236111112,144.58521262171556L93.29886284722222,146.1371459049991L93.58671909722221,147.53388585995418L94.58840069444443,148.79095181941366L94.61602326388889,149.92231118292716L94.75413611111111,150.94053461008923L95.13939826388889,151.85693569453503L95.38654756944445,152.68169667053624L95.63805833333333,153.4239815489373L95.66713472222223,154.0920379394982L95.90410729166666,154.693288691003L95.95353715277778,155.23441436735732L96.08874236111112,155.7214274760762L96.35624513888888,144.3329210921038L96.62520173611111,134.08326534652883L97.04826319444444,136.64194790278526L97.32739652777778,138.98820765796145L97.58326875,141.09984143762L97.61816041666667,143.00031183931264L97.63415243055556,144.710735200836L97.63996770833333,146.25011622620704L98.03976805555556,147.63555914904094L98.56459687499999,148.88245777959145L98.58495034722222,138.90193927435922L98.77249305555556,141.0221998923779L98.83791493055556,142.93043444859472L99.07343368055555,132.82102736737136L99.323490625,135.54937917608882L99.39182013888889,138.00489580393455L99.62006979166667,140.21486076899566L99.66077673611112,142.20382923755068L99.87594201388889,143.99390085925018L99.88466493055556,134.01951077332504L101.07243541666666,136.6280142414471L101.60889479166666,127.87294009002957L101.84732118055555,131.0961006264812L102.55533125000001,122.17012692746934L102.81265729166665,125.96356878017698L102.83155694444444,129.37766644761388L102.86208715277778,132.45035434830703L102.88680208333334,135.2157734589309L104.00624305555556,137.70465065849237L104.00769687500001,139.9446401380977L104.086203125,141.96063066974247L104.39295902777778,143.77502214822277L104.49327256944446,145.40797447885504L104.67063854166668,146.8776315764241L104.84364305555556,148.20032296423622L104.97303298611111,149.39074521326717L105.1620295138889,150.46212523739499L105.35393368055556,151.42636725911004L106.27420138888888,152.29418507865358L106.80629930555556,153.07522111624277L106.81938368055556,153.77815355007306L107.3471201388889,142.5839745587021L107.82542673611111,144.33603164828642L108.09002187499999,145.91288302891232L108.12782118055554,147.33204927147563L108.19033541666666,148.60929888978262L108.31245625,149.7588235462589L108.81402395833334,150.79339573708756L108.8329236111111,151.72451070883335L109.23853923611112,152.56251418340457L109.346121875,153.31671731051864L109.93782638888888,153.99550012492134L110.04540902777778,154.60640465788373L110.29982743055555,155.15621873754992L110.54406909722222,155.65105140924948L111.34221597222222,156.09640081377907L111.50795138888888,156.4972152778557L111.56319652777778,156.8579482955247L111.8292454861111,157.18260801142677L112.07930243055554,157.47480175573864L112.40205034722223,157.73777612561932L112.42676527777778,157.97445305851193L112.92251770833333,158.1874622981153L113.16094409722223,158.3791706137583L113.32522569444446,158.551708097837L113.48223819444445,147.1215372880533L113.98671354166666,148.41983810470254L114.28620034722222,149.58830883968682L114.30655381944445,139.29584159208179L114.63947847222222,141.37671197832813L115.09307013888889,143.24949532594985L115.13377708333333,144.93500033880943L115.55393090277776,146.45195485038303L115.58882256944445,147.81721391079927L115.71094340277779,149.0459470651739L116.06567534722222,150.15180690411106L116.17471180555555,151.14708075915448L116.23286458333332,152.04282722869357L116.52508229166666,152.84899905127878L116.55852013888888,153.57455369160544L116.74315520833333,154.22755286789945L117.21128506944444,154.81525212656405L117.60672395833333,155.34418145936218L117.68232256944445,155.8202178588805L117.73611388888888,144.42183243662882L118.00070902777777,145.9901037384205L118.05159270833333,147.40154791003297L118.26530416666667,148.67184766448423L118.269665625,138.22966289803583L118.78577152777778,140.41715115368677L118.89916944444445,142.38589058377264L119.028559375,144.15775607084993L119.10270416666667,133.9256168274013L119.133234375,136.5435096901157L119.15794930555556,138.89961326655867L119.28152395833332,141.02010648535736L119.66678611111112,131.101732200458L119.67405520833333,134.00201352586674L120.15236180555556,136.6122667187346L120.17271527777777,138.9614945923157L120.21342222222222,141.07579967853866L120.6800982638889,142.97867425613936L120.87345624999999,144.69126137597996L120.98249270833333,146.23258978383652L120.99848472222222,147.6197853509074L121.18893506944444,148.8682613612712L121.32268645833334,149.99188977059862L121.44189965277778,151.0031553389933L121.47242986111111,151.91329435054854L121.65706493055555,152.73241946094822L121.71812534722221,153.46963206030793L121.79517777777778,154.1331233997317L122.62385486111111,142.90344742339488L123.06872361111111,144.62355722650994L123.3304111111111,134.3448378674953L123.77382604166667,136.9208086262003L123.78109513888889,139.23918230903485L124.25649409722223,141.32571862358589L124.56615763888888,143.20360130668186L124.94996597222222,144.89369572146822L125.1942076388889,146.41478069477594L125.46025659722223,147.7837571707529L125.65361458333334,149.01583599913215L125.81062708333333,150.12470694467348L126.2903875,151.12269079566067L126.29184131944444,152.02087626154915L126.46775347222221,152.82924318084878L126.76724027777777,153.55677340821845L126.97222881944444,154.21155061285114L127.51159583333333,154.80085009702057L127.72094583333333,155.33121963277307L127.72385347222222,155.8085522149503L127.99862534722222,156.23815153890982L128.056778125,156.62479093047338L128.21960590277777,145.14594820106242L128.26467430555556,146.6418079264107L128.3024736111111,147.9880816792242L129.01048368055555,138.33836442039268L129.91039791666668,140.51498252380796L130.13137847222222,142.4739388168817L130.5457170138889,132.4101812988299L130.76233611111113,135.17961771440145L131.0603690972222,137.67211048841585L131.13596770833334,139.91535398502882L131.16940555555556,141.9342731319805L131.55466770833334,143.75130036423698L131.641896875,145.38662487326783L131.67097326388887,146.8584169313956L131.94719895833333,148.18302978371057L132.0257052083333,149.37518135079407L132.16091041666667,150.44811776116921L132.66683958333334,151.41376053050683L132.73226145833334,152.28283902291068L133.29052812499998,153.06500966607416L133.38066493055555,142.66623597219402L133.41410277777777,144.4100669204292L134.0305222222222,145.9795147738408L134.3052940972222,147.39201784191127L134.48120625,148.66327060317468L134.8402996527778,149.80739808831177L134.8417534722222,150.83711282493513L134.94352083333334,151.76385608789616L134.95805902777778,152.59792502456108L134.97841250000002,153.34858706755952L135.44944999999998,154.02418290625812L135.4727111111111,154.63221916108685L135.85361180555554,155.17945179043272L135.92048749999998,155.671961156844L135.94374861111112,156.11521958661413L136.04260833333333,156.51415217340727L136.41042465277778,156.8731915015211L136.4336857638889,157.1963268968235L137.34086909722222,157.48714875259571L137.4906125,157.74888842279069L137.91803541666667,157.98445412596618L137.94275034722222,146.3696450770059L137.96165,147.74313511475987L137.98345729166667,137.15245796692025L138.02125659722225,127.62084853386457L138.35418124999998,130.86921822593266L138.37889618055556,133.79275094879395L138.4922940972222,136.4239303993691L138.83830312499998,126.96517372306855L139.02584583333334,130.27911089621625L139.3195173611111,121.434836170231L139.5288673611111,113.47498891684425L139.82108506944445,118.13794457061437L139.85016145833333,122.33460465900748L139.9926357638889,126.11159873856127L140.00862777777778,117.6840752283415L140.32410659722223,121.9261222509619L140.54363333333333,125.74396457132025L140.75298333333333,129.18002265964276L140.76752152777777,132.27247493913305L141.24728194444444,135.0556819906743L141.26327395833331,137.5605683370614L141.5176923611111,127.98814786699162L141.612190625,119.37296944392882L141.75611874999998,111.61930886317231L141.82008680555555,104.64101434049144L141.99745277777777,98.36054927007865L142.0599670138889,104.53494888852534L142.14138090277777,110.09190854512735L142.31583923611112,103.26635405425097L142.43796006944444,97.12335501246224L142.80432256944445,91.59465587485238L142.91626666666667,86.61882665100349L143.21866111111112,82.1405803495395L143.2273840277778,78.11015867822192L143.25064513888887,74.48277917403608L143.5646701388889,71.21813762026883L144.02407708333334,68.27996022187831L144.1738204861111,65.63560056332686L144.21598125,63.25567687063052L144.24651145833334,61.11374554720382L144.4224236111111,59.186007356119816L144.63904270833333,57.45104298414418L145.01267430555555,55.88957504936613L145.26127743055557,54.48425390806588L145.30198437500002,53.21946488089564L146.05360902777778,52.081154756442444L146.2469670138889,51.05667564443456L146.30511979166667,50.134644443627465L146.48975486111112,49.30481636290108L146.55226909722222,48.55797109024732L146.55808437500002,47.88581034485895L146.74998854166665,47.28086567400942L146.83140243055556,46.73641547024485L146.88955520833335,46.24641028685673L146.93753125,45.80540562180741L147.0349371527778,45.40850142326303L147.04802152777776,45.05128764457311L147.30825520833332,44.729795243752164L147.4318298611111,44.44045208301327L147.5626736111111,44.180043238348304L147.80836909722223,43.94567527814985L148.50911006944446,43.73474411397123L148.5788934027778,43.544906066210444L148.80714305555554,43.374051823225784L149.33633333333333,43.22028300453957L149.55731388888887,43.08189106772198L149.59511319444445,42.95733832458612L149.724503125,42.845240855763876L149.96147569444443,42.744353133823864L150.064696875,42.65355418407782L150.07341979166668,42.57183512930641L150.11412673611113,42.49828798001212L150.60551770833334,42.43209554564726L150.6956545138889,42.37252235471891L150.78869895833336,42.31890648288339L150.97624166666665,42.2706521982314L151.49961666666667,42.227223342044624L151.5199701388889,42.18813737147653L151.61010694444442,42.15295999796521L151.61446840277776,42.12130036180508L151.99391527777777,42.092806689260925L152.48530625,42.06716238397118L153.45791145833334,42.044082509210455L154.31711875,42.02331062192576L154.408709375,42.004615923369556L154.43051666666665,41.987790694668945L154.4319704861111,41.97264798883842L154.47994652777777,41.959019553590934L154.92772291666665,41.94675396186824L155.01204444444443,41.935714929317754L155.3377,41.925779800022354L155.86252881944446,41.916838183656495L156.21871458333334,41.90879072892719L156.34955833333333,41.901548019670855L156.82204965277776,41.89502958134011L157.2029503472222,41.88916298684245L157.444284375,41.883883051794555L157.50389097222222,41.87913111025148L157.5649513888889,41.87485436286269L157.71760243055556,41.871005290212764L157.94294444444444,41.86754112482785L158.831228125,41.86442337598143L158.89810381944446,41.86161740201965L159.26446631944444,41.85909202545406L159.27464305555554,41.85681918654498L159.7951104166667,41.854773631526854L159.85617083333332,41.85293263201052L160.19054930555558,41.60991209608218L160.19781840277778,41.63255725011035L160.20217986111112,41.652937888735664L160.72991631944444,41.42991682713483L160.75463125,41.229197871694055L160.86221388888887,41.28991444816103L161.12099375,41.34455936698126L161.30562881944445,41.152376157555864L161.33615902777777,41.22077490543663L161.3666892361111,41.28233377852936L161.77085104166665,41.096373127949164L161.79265833333332,40.92900854242694L161.82173472222223,41.019744051820624L162.31603333333334,41.1014060102749L162.38145520833334,41.17490177288374L162.7361871527778,40.99968432286812L162.835046875,40.841988617854014L162.89465347222222,40.941426119705L162.978975,40.78955623500721L163.39185972222222,40.652873338779216L163.39622118055556,40.529858732174034L163.70006944444444,40.66050922259299L163.8687125,40.77809466397005L163.8977888888889,40.64255792484576L164.12313090277777,40.52057485963391L164.55346145833335,40.410790100943245L164.87184791666667,40.31198381812166L164.876209375,40.22305816358221L164.88202465277777,40.143025074496734L164.90092430555555,40.312358930683416L164.97652291666665,40.22339576488781L165.40976111111112,40.14332891567176L165.52315902777778,40.31263238774093L165.6060267361111,40.223641876239554L165.9026059027778,40.14355041588834L166.38818159722223,40.07146810157221L166.4128965277778,40.006594018687736L166.59607777777777,39.948207344091685L166.89701840277777,39.89565933695522L166.90283368055555,39.84836613053241L167.38259409722224,39.8058022447519L167.42620868055556,39.76749474754942L167.5643215277778,39.733018000067204L167.90306145833333,39.70198892733322L167.96993715277776,39.67406276187262L168.00192118055554,39.64892921295808L168.3595607638889,39.62630901893502L169.3118125,39.605950844314236L169.4397486111111,39.58762848715554L169.49935520833336,39.5711383657127L169.822103125,39.55629725641418L169.96603125,39.54294025804549L170.75109375,39.530918959513656L170.88920659722223,39.761463427198635L170.93282118055555,39.7275898117515L171.91996458333335,39.69710355784909L172.42153229166667,39.6696659293369L172.42589375,39.64497206367594L172.5799986111111,39.62274758458105L172.90129270833333,39.60274555339569L173.16588784722222,39.58474372532882L173.22258680555555,39.56854208006865L173.36942256944445,39.553960599334545L173.37523784722222,39.540837266673805L173.4755513888889,39.529026267279136L173.48427430555554,39.51839636782398L174.00910312500002,39.508829458314295L175.13145173611113,39.50021923975558L175.20414270833334,39.49247004305275L175.22594999999998,39.48549576602019L175.64610381944445,39.47921891669088L176.16657118055556,39.47356975229454L176.25234652777777,39.46848550433779L176.82369756944445,39.463909681176744L176.85422777777777,39.45979144033177L177.02287083333334,39.45608502357135L177.20314444444443,39.452749248486924L177.23803611111111,39.44974705091096L177.26856631944446,39.44704507309257L178.2687940972222,39.44461329305605L178.50431284722222,39.44242469102318L178.62934131944445,39.68181858555721L178.84596041666666,39.65590945427422L179.32572083333335,39.63259123611951L179.34171284722223,39.61160483978031L179.609215625,39.59271708307497L179.68626805555553,39.57571810204021L179.713890625,39.560419019108906L180.09333750000002,39.54664984447075L180.1165986111111,39.534257587296366L180.15585173611112,39.52310455583947L180.55274444444444,39.51306682752826L180.59054375000002,39.50403287204816L180.603628125,39.495902312116044L180.8987534722222,39.488584808177194L180.95981388888887,39.48199905463218L181.3072767361111,39.476071876441694L181.55587986111112,39.47073741607025L181.60967118055555,39.465936401735945L181.6140326388889,39.70297912519871L181.62566319444443,39.67495393995159L182.25371319444446,39.64973127322915L183.0794826388889,39.62703087317897L183.23213368055556,39.60660051313377L184.19310833333333,39.588213189093125L184.63652326388888,39.57166459745656L184.6801378472222,39.55677086498363L184.69031458333333,39.543366505758L184.72084479166665,39.53130258245491L185.55679097222222,39.52044505148214L185.7428798611111,39.51067327360664L186.1615798611111,39.50187867351869L186.23863229166668,39.49396353343957L186.282246875,39.48683990736836L186.60935625,39.48042864390422L186.71693888888888,39.47465850678651L186.74456145833332,39.46946538338062L187.12836979166664,39.46479157231528L187.16035381944445,39.46058514235645L187.2214142361111,39.45679935539354L187.6197607638889,39.45339214712692L187.66192152777776,39.45032565968697L187.747696875,39.447565820990945L187.76223506944444,39.445081966164594L188.27107187500002,39.44284649682086L188.30160208333334,39.4408345744115L188.37720069444444,39.43902384424308L188.532759375,39.43739418709151L188.81480034722222,39.43592749565508L189.74524479166666,39.43460747336229L189.76414444444444,39.4334194532988L189.86881944444443,39.432350235241614L190.06799270833335,39.431387938990184L190.11451493055554,39.430521872363926L190.60590590277778,39.42974241240026L190.79054097222223,39.42904089843296L190.887946875,39.428409535862386L191.48110520833333,39.42784130954888L191.67446319444443,39.427329905866685L192.12369340277777,39.42686964255279L192.602,39.42645540557021L192.9523704861111,39.42608259228592L193.27657222222223,39.425747060330025L193.3812472222222,39.42544508156976L193.46702256944445,39.425173300685515L193.753425,39.42492869788967L193.7636017361111,39.424708555373456L193.84065416666667,39.42451042710883L194.08925729166668,39.42433211167068L194.30733020833335,39.42417162777633L194.56901770833335,39.42402719227141L194.58937118055556,39.423897200317015L194.63880104166668,39.42378020755805L195.51254652777777,39.42367491407492L195.781503125,39.42358014994019L196.00829895833334,39.42349486221892L196.08244374999998,39.42341810326974L196.52295104166666,39.42334902021548L196.5302201388889,39.42328684546666L196.802084375,39.423230888192705L197.00998055555556,39.42318052664615L198.2253736111111,39.42313520125427L198.44344652777778,39.42309440840157L198.45216944444445,39.42305769483417L198.8330701388889,39.42302465262344L198.95519097222223,39.42299491463385L199.00462083333332,39.42296815044318L199.10929583333333,39.422944062671576L199.1151111111111,39.42292238367716L199.45530486111113,39.42290287258217L199.5919638888889,39.42288531259669L199.615225,39.42286950860975L200.15604583333334,39.422855285021484L200.37993402777778,39.42284248379204L200.87568645833332,39.422830962685566L201.06613680555557,39.42282059368972L201.09085173611112,39.422811261593495L201.36562361111112,39.422802862706845L201.49501354166668,39.42279530370891L202.16667812499998,39.42278850061075L202.34113645833332,39.42278237782239L202.35276701388887,39.42277686731288L202.70895277777777,39.4227719078543L203.24541215277776,39.422767444341616L203.4722079861111,39.42276342718014L203.51582256944445,39.42275981173486L203.54926041666667,39.422756557834106L203.8996309027778,39.42275362932344L203.9534222222222,39.42275099366381L204.43463645833333,39.42274862157012L204.89985868055555,39.42274648668584L205.1600923611111,39.42274456529L205.37380381944445,39.422742836033734L205.4086954861111,39.422741279703075L205.84338749999998,39.42273987900552L205.92770902777778,39.42273861837768L206.0163920138889,39.422737483812625L206.1545048611111,39.42273646270408L206.32896319444444,39.42273554370641L206.43218437500002,39.42273471660849L206.4554454861111,39.422733972220385L206.63571909722222,39.42273330227107L207.2405079861111,39.4227326993167L207.52981805555555,39.42273215665773L207.58506319444444,39.4227316682647L207.69991493055556,39.42273122871097L208.61291354166667,39.42273083311258L208.7452111111111,39.422730477074055L208.94583819444446,39.422730156639375L209.22061006944446,39.422729868248126L209.6204104166667,39.42272960869607L209.67856319444445,39.42272937509918L209.9097204861111,39.422729164862005L210.08708645833332,39.42272897564851L210.21356875,39.42272880535637L210.42437256944444,39.42272865209347L210.67733715277777,39.42272851415686L211.07859131944446,39.4227283900139L211.34464027777778,39.422728278285206L211.47403020833335,39.422728177729454L211.75025590277778,39.42272808722922L212.32451458333333,39.42272800577902L212.48298090277777,39.42272793247386L212.50914965277778,39.4227278664992L212.80427500000002,39.42272780712196L212.9787333333333,39.42272775368252L213.00344826388888,39.422727705586965L213.0427013888889,39.422727662300986L213.27531249999998,39.42272762334363L213.48030104166665,39.422727588282015L213.97896111111112,39.42272755672656L214.24501006944445,39.42272752832659L214.4267375,39.42272750276669L214.49506701388887,39.42272747976273L214.5503121527778,39.42272745905919L214.58956527777778,39.422727440426L214.96755833333333,39.422727423656085L215.02571111111112,39.42272740856322L215.3920736111111,39.42272739497963L215.48511805555555,39.4227273827544L215.538909375,39.42272737175168L215.89945659722224,39.42272736184921L216.49988402777777,39.422727352937045L216.63508923611113,39.42272734491607L216.74848715277776,39.42272733769718L217.187540625,39.42272733120018L217.21370937499998,39.42272732535287L217.69201597222224,39.42272732009033L217.70364652777778,39.422727315354024L218.56140000000002,39.422727311091336L218.71405104166666,39.42272730725492L218.73585833333334,39.42272730380216L219.0556986111111,39.422727300694675L219.15455833333334,39.42272729789789L219.21707256944444,39.42272729538087L219.70410208333334,39.422727293115486L220.05156493055557,39.422727291076654L220.1475170138889,39.42272728924172L220.67670729166667,39.422727287590305L220.68688402777778,39.42272728610399L221.04016215277778,39.422727284766324L221.43414722222224,39.42272728356241L222.75712291666665,39.42272728247889L222.78910694444443,39.42272728150374L222.99409548611112,39.422727280626106L223.049340625,39.42272727983618L223.09440902777777,39.42272727912527L224.10772118055556,39.42272727848547L224.35050902777778,39.42272727790967L224.5569513888889,39.42272727739143L224.60056597222223,39.422727276925L224.60492743055556,39.42272727650521L224.907321875,39.42272727612743L225.02362743055554,39.42272727578742L225.14865590277776,39.42272727548138L225.4016204861111,39.422727275206L225.46122708333334,39.422727274958106L225.75635243055555,39.422727274735024L225.954071875,39.42272727453425L226.02530902777775,39.42272727435355L226.47163159722223,39.42272727419089L226.97319930555557,39.422727274044576L226.99355277777778,39.42272727391284L227.35119236111112,39.422727273794294L227.45732118055557,39.4227272736876L227.46022881944444,39.42272727359153L227.87602118055554,39.42272727350513L227.97051944444445,39.42272727342731L228.09118645833334,39.42272727335734L228.40085,39.42272727329433L228.8820642361111,39.422727273237626L228.94893993055555,39.42272727318655L228.9692934027778,39.42272727314065L229.01290798611112,39.4227272730993L229.45341527777776,39.42272727306212L229.46940729166667,39.42272727302864L229.957890625,39.422727272998486L229.97242881944445,39.42272727297137L230.08291909722223,39.42272727294696L230.86943541666668,39.42272727292499L230.99737152777777,39.422727272905206L231.04825520833333,39.42272727288744L231.57017638888888,39.42272727287141L231.90310104166667,39.422727272857L232.28836319444443,39.422727272844014L232.391584375,39.42272727283236L232.48462881944445,39.42272727282182L233.50375625,39.42272727281238L233.60116215277776,39.422727272803854L233.67530694444443,39.42272727279621L233.8933798611111,39.42272727278933L233.91518715277778,39.422727272783106L234.34842534722222,39.42272727277748L234.46763854166667,39.422727272772505L234.8543545138889,39.42272727276796L234.89942291666665,39.42272727276392L234.9139611111111,39.66409090912387L235.31812291666665,39.639954545484215L235.35301458333333,39.61823181820856L235.4431513888889,39.598681363660376L236.07701666666668,39.5810859545671L236.43901770833332,39.56525008638312L236.85044861111112,39.550997805017545L236.92895486111112,39.5381707517885L236.9682079861111,39.526626403882375L237.33747812500002,39.51623649076686L237.49158298611113,39.5068855689629L237.5831736111111,39.49846973933933L237.96988958333333,39.490895492678135L237.9786125,39.48407867068303L238.2824607638889,39.477943530887444L238.42202743055554,39.47242190507146L238.4859954861111,39.467452441837025L238.52524861111112,39.46297992492603L238.763675,39.458954659706194L239.02390868055554,39.45533192100825L239.14166805555556,39.45207145618019L239.195459375,39.449137037834845L239.41062465277778,39.446496061324126L239.76244895833332,39.44411918246439L239.9121923611111,39.44197999149074L240.39631423611112,39.44005471961435L240.49372013888888,39.43832197492566L240.5271579861111,39.4367625047058L240.84990590277778,39.43535898150796L240.98947256944444,39.434095810629884L241.0505329861111,39.43295895683963L241.1639309027778,39.431935788428376L241.184284375,39.43101493685825L241.24825243055557,39.430186170445154L241.50993993055556,39.42944028067336L242.5421517361111,39.42876897987878L242.74568645833332,39.428164809163604L243.22980833333332,39.42762105551998L243.2588847222222,39.42713167724071L243.27778437499998,39.42669123678934L243.69793819444442,39.42629484038315L243.71393020833332,39.425938083617524L243.75754479166667,39.425617002528526L244.20822881944443,39.42532802954841L244.3739642361111,39.42506795386626L244.84500173611113,39.424833885752406L246.15925451388887,39.424623224449874L246.5256170138889,39.424433629277615L247.03736145833332,39.42426299362256L247.11150625000002,39.424109421533046L247.5069451388889,39.42397120665245L247.86313090277778,39.42384681325993L248.02159722222223,39.42373485920669L248.55951041666665,39.42363410055876L248.56532569444445,39.42354341777559L248.57404861111112,39.423461803270754L248.61911701388888,39.42338835021641L248.8648125,39.42332224246749L249.00001770833333,39.423262745493446L249.0509013888889,39.42320919821685L249.05671666666666,39.42316100566791L249.07561631944444,39.423117632373845L250.0874746527778,39.42307859640917L250.17034236111112,39.423043464041L250.57305034722222,39.42301184490964L250.67191006944444,39.422983387691374L250.83909930555555,39.42295777619498L251.0658951388889,39.422934725848194L251.6445152777778,39.42291398053612L252.03995416666666,39.42289530975523L252.044315625,39.42287850605243L252.04576944444443,39.422863382719925L252.05885381944444,39.42284977172068L252.0675767361111,39.42283752182132L252.08938402777778,39.42282649691191L252.09083784722222,39.42281657449345L252.0937454861111,39.42280764431683L252.0995607638889,39.422799607157856L252.1053760416667,39.4227923737148L252.10973750000002,39.422785863616014L252.11846041666666,39.42278000452714L252.12136805555556,39.422774731347175L252.13445243055554,39.42276998548519L252.14026770833334,39.42276571420939L252.148990625,39.42276187006115L252.15625972222222,39.42275841032779L252.1649826388889,39.422755296567715L252.17079791666666,39.42275249418367L252.1780670138889,39.42274997203802L252.18824375,39.42274770210696L252.1940590277778,39.42274565916895L252.20714340277777,39.42274382052477L252.2115048611111,39.42274216574506L252.22895069444445,39.42274067644328L252.23912743055556,39.42273933607166L252.2434888888889,39.42273812973721L252.2463965277778,39.42273704403621L252.24785034722223,39.422736066905316L252.253665625,39.42273518748752L252.25511944444446,39.42273439601149L252.2565732638889,39.422733683683106L252.27401909722224,39.42273304258748L252.2827420138889,39.422732465601484L252.2841958333333,39.42273194631409L252.28710347222224,39.42273147895537L252.29437256944445,39.42273105833257L252.29582638888888,39.42273067977206L252.30018784722222,39.422730339067584L252.3089107638889,39.42273003243352L252.31472604166666,39.4227297564629L252.32490277777777,39.42272950808933L252.33944097222223,39.42272928455313L252.34816388888888,39.42272908337054L252.35397916666668,39.422728902306204L252.358340625,39.42272873934829L252.36997118055555,39.42272859268621L252.37287881944442,39.42272846069031L252.39177847222223,39.422728341894015L252.39759375,39.42272823497734" style="fill: none;" fill="none"></path></g></g></g></g><g opacity="0.2"><g><g><g><path stroke="rgb(255, 112, 67)" stroke-width="2px" d="M29.381690972222223,160.10454545454544L29.926873263888886,160.10454545454544L30.01846388888889,160.10454545454544L30.349934722222223,160.10454545454544L31.24257986111111,160.10454545454544L31.299278819444446,160.10454545454544L31.42430729166667,160.10454545454544L31.467921875,160.10454545454544L31.58858888888889,160.10454545454544L31.901160069444444,160.10454545454544L32.08724895833333,160.10454545454544L32.593178125,160.10454545454544L32.80979722222222,160.10454545454544L32.89557256944444,160.10454545454544L32.99152465277778,160.10454545454544L33.02350868055556,160.10454545454544L33.26338888888889,160.10454545454544L33.623936111111114,160.10454545454544L34.017921180555554,159.99190909090908L34.35084583333333,160.10454545454544L34.593633680555556,128.18822727272726L34.600902777777776,160.10454545454544L34.869859375000004,125.20336363636363L35.17225381944444,167.98909090909092L35.61566875,161.91477272727272L35.78285798611111,160.10454545454544L36.24953402777778,160.10454545454544L36.91538333333334,160.10454545454544L37.19306284722222,160.10454545454544L37.33262951388888,160.10454545454544L37.800759375,160.10454545454544L37.819659027777774,159.58963636363637L38.380833333333335,124.30227272727274L38.638159375,160.10454545454544L38.742834374999994,160.10454545454544L38.82570208333333,160.10454545454544L38.92892326388889,160.10454545454544L39.39850694444444,160.10454545454544L39.885536458333334,160.10454545454544L39.89135173611111,123.48163636363637L39.937873958333334,160.10454545454544L40.34930486111111,160.10454545454544L40.91193298611111,48.27272727272728L41.182343402777775,160.10454545454544L41.43240034722223,160.10454545454544L41.651927083333334,160.10454545454544L42.316322569444445,160.10454545454544L42.68413888888889,48.27272727272728L42.950187847222224,160.10454545454544L43.070854861111115,160.10454545454544L43.283112499999994,160.10454545454544L43.49973159722222,160.10454545454544L43.55788437499999,158.60809090909092L44.606088194444446,160.10454545454544L44.82561493055555,121.66336363636364L44.95936631944444,160.10454545454544L45.17307777777778,160.10454545454544L45.410050347222224,128.72727272727275L45.51327152777778,160.10454545454544L45.88108784722222,160.10454545454544L45.94214826388889,122.9265L46.40446284722222,160.10454545454544L46.43063159722222,128.72727272727275L46.54548333333334,159.3L47.02524375,160.10454545454544L47.468658680555556,160.10454545454544L48.377295833333335,160.10454545454544L48.58809965277778,160.10454545454544L48.87886354166667,160.10454545454544L49.271394791666665,160.10454545454544L49.331001388888886,160.10454545454544L49.84129201388889,160.10454545454544L49.95178229166666,160.10454545454544L50.780459375,44.25L51.42013993055556,160.10454545454544L51.43903958333333,160.10454545454544L51.597505902777776,160.10454545454544L51.89990034722222,160.10454545454544L52.47270520833334,159.43677272727274L52.61663333333333,160.10454545454544L52.663155555555555,41.83636363636364L52.86959791666667,160.10454545454544L53.19379965277778,127.44L53.61976875,160.10454545454544L53.864010416666666,160.10454545454544L53.88145625,160.10454545454544L54.39756215277778,160.10454545454544L55.22333159722223,160.10454545454544L55.332368055555555,122.62881818181819L55.361444444444444,160.10454545454544L56.078177430555556,160.4505L56.414009722222225,159.82295454545454L56.509961805555555,160.10454545454544L56.82834826388889,160.10454545454544L57.037698263888885,160.10454545454544L57.401153125,160.10454545454544L57.510189583333336,160.10454545454544L57.636671875,160.10454545454544L57.963781250000004,160.10454545454544L58.283621527777775,160.10454545454544L58.738667013888886,160.10454545454544L58.83316527777778,160.10454545454544L58.99599305555556,160.10454545454544L59.35363263888889,160.10454545454544L59.48156875,160.10454545454544L59.77378645833333,160.10454545454544L59.89154583333333,160.10454545454544L59.90463020833333,160.10454545454544L60.18521736111111,160.10454545454544L60.18957881944444,160.10454545454544L60.201209375,160.10454545454544L60.47888888888889,160.10454545454544L60.624270833333334,160.10454545454544L61.01534826388889,160.10454545454544L61.35844965277778,160.10454545454544L61.49365486111111,160.10454545454544L61.68265138888889,160.10454545454544L61.97923055555555,41.83636363636364L62.03156805555555,160.10454545454544L62.68578680555556,160.10454545454544L63.05069548611111,160.10454545454544L63.100125347222225,124.41490909090909L63.19753125,160.10454545454544L63.23242291666667,160.10454545454544L63.44758819444445,160.10454545454544L63.46794166666666,160.10454545454544L63.49556423611111,160.10454545454544L63.969509375,160.10454545454544L64.14251388888889,160.10454545454544L64.27771909722222,160.10454545454544L64.49724583333334,160.10454545454544L64.63972013888889,160.10454545454544L64.90140763888888,160.10454545454544L65.12093437499999,160.10454545454544L65.13401875,160.10454545454544L65.408790625,160.10454545454544L65.64576319444444,160.10454545454544L65.67193194444444,160.10454545454544L66.1546,160.10454545454544L66.37558055555556,42.22254545454544L66.62418368055556,42.41563636363637L66.638721875,160.10454545454544L67.10394409722221,124.55168181818182L67.28567152777777,160.10454545454544L67.54735902777777,160.10454545454544L67.57207395833333,160.10454545454544L67.57788923611112,160.10454545454544L67.97042048611111,160.10454545454544L68.17977048611111,160.10454545454544L68.23646944444445,160.10454545454544L68.40802013888889,160.10454545454544L68.57666319444444,160.10454545454544L68.71041458333333,160.10454545454544L69.00117847222222,160.10454545454544L69.03316249999999,160.10454545454544L69.03752395833332,160.10454545454544L69.20180555555555,160.10454545454544L69.71500381944445,160.10454545454544L69.95052256944444,160.10454545454544L69.97232986111112,160.10454545454544L69.97378368055556,41.83636363636364L70.05519756944443,160.10454545454544L70.14678819444444,160.10454545454544L70.59165694444445,160.10454545454544L70.69342430555557,160.10454545454544L70.721046875,160.10454545454544L70.87660555555556,160.10454545454544L71.00454166666667,41.83636363636364L71.16010034722223,124.95395454545454L71.16446180555555,160.10454545454544L71.20953020833333,44.25L71.25896006944446,160.10454545454544L71.506109375,160.10454545454544L71.6340454861111,160.10454545454544L71.87828715277777,160.10454545454544L72.04547638888889,44.25L72.08472951388889,160.10454545454544L72.34205555555555,160.10454545454544L72.83344652777778,160.10454545454544L73.05878854166667,160.10454545454544L73.23615451388889,160.10454545454544L73.4658579861111,160.10454545454544L73.5967017361111,160.10454545454544L73.80023645833334,160.10454545454544L75.08832048611112,41.83636363636364L75.21916423611111,160.10454545454544L75.25260208333334,160.10454545454544L75.38489965277778,160.10454545454544L75.60006493055556,160.10454545454544L75.745446875,160.10454545454544L75.82831458333334,160.10454545454544L76.25137604166666,160.10454545454544L76.46508750000001,160.10454545454544L76.77329722222223,160.10454545454544L77.10040659722222,160.10454545454544L77.21961979166666,160.10454545454544L77.32574861111112,44.25L77.33011006944444,160.10454545454544L77.49875312500001,160.10454545454544L77.69065729166667,160.10454545454544L77.83458541666667,160.10454545454544L77.8549388888889,160.10454545454544L78.0352125,160.10454545454544L78.48735034722223,160.10454545454544L78.50334236111112,160.10454545454544L78.66180868055555,160.10454545454544L78.97292604166667,160.10454545454544L79.15174583333334,160.10454545454544L79.6605826388889,160.10454545454544L79.78415729166667,160.10454545454544L79.85684826388889,160.10454545454544L79.92227013888889,160.10454545454544L80.16069652777777,160.10454545454544L80.64772604166666,160.10454545454544L80.66226423611111,160.10454545454544L80.84399166666667,160.10454545454544L80.89487534722223,160.10454545454544L80.91377499999999,41.83636363636364L80.94575902777778,160.10454545454544L81.16964722222222,160.10454545454544L81.1754625,46.66363636363636L81.41098124999999,41.83636363636364L81.42551944444445,160.10454545454544L81.87911111111111,160.10454545454544L82.10009166666666,160.10454545454544L82.182959375,160.10454545454544L82.23965833333334,160.10454545454544L82.30071875,41.83636363636364L82.65981215277777,160.10454545454544L82.75721805555555,160.10454545454544L82.91713819444445,160.10454545454544L83.27332395833332,160.10454545454544L83.43324409722221,160.10454545454544L83.55681874999999,160.10454545454544L83.61497152777777,160.10454545454544L83.88828958333333,160.10454545454544L84.2473829861111,160.10454545454544L84.72568958333333,160.10454545454544L84.878340625,160.10454545454544L85.13275902777778,41.83636363636364L85.40607708333334,160.10454545454544L85.50784444444444,160.10454545454544L85.62560381944445,160.10454545454544L85.94689791666667,160.10454545454544L86.00505069444444,160.10454545454544L86.20713159722222,160.10454545454544L86.28273020833333,160.10454545454544L86.39467430555555,160.10454545454544L86.86861944444445,160.10454545454544L87.13902986111111,160.10454545454544L87.46468541666667,160.10454545454544L87.51411527777778,160.10454545454544L87.52865347222222,160.10454545454544L88.00114479166666,160.10454545454544L88.18287222222222,160.10454545454544L88.57831111111112,160.10454545454544L89.00428020833334,128.72727272727275L89.14530069444444,160.10454545454544L90.32580208333333,160.10454545454544L90.3447017361111,160.10454545454544L90.62819652777777,160.10454545454544L90.64855,160.10454545454544L90.65872673611112,160.10454545454544L91.66040833333334,160.10454545454544L92.02240937500001,41.83636363636364L92.35533402777779,160.10454545454544L92.39022569444445,41.83636363636364L92.63882881944446,160.10454545454544L92.78275694444444,160.10454545454544L93.14621180555555,160.10454545454544L93.15784236111112,160.10454545454544L93.29886284722222,160.10454545454544L93.58671909722221,160.10454545454544L94.58840069444443,160.10454545454544L94.61602326388889,160.10454545454544L94.75413611111111,160.10454545454544L95.13939826388889,160.10454545454544L95.38654756944445,160.10454545454544L95.63805833333333,160.10454545454544L95.66713472222223,160.10454545454544L95.90410729166666,160.10454545454544L95.95353715277778,160.10454545454544L96.08874236111112,160.10454545454544L96.35624513888888,41.83636363636364L96.62520173611111,41.83636363636364L97.04826319444444,159.6700909090909L97.32739652777778,160.10454545454544L97.58326875,160.10454545454544L97.61816041666667,160.10454545454544L97.63415243055556,160.10454545454544L97.63996770833333,160.10454545454544L98.03976805555556,160.10454545454544L98.56459687499999,160.10454545454544L98.58495034722222,49.077272727272714L98.77249305555556,160.10454545454544L98.83791493055556,160.10454545454544L99.07343368055555,41.83636363636364L99.323490625,160.10454545454544L99.39182013888889,160.10454545454544L99.62006979166667,160.10454545454544L99.66077673611112,160.10454545454544L99.87594201388889,160.10454545454544L99.88466493055556,44.25L101.07243541666666,160.10454545454544L101.60889479166666,49.077272727272714L101.84732118055555,160.10454545454544L102.55533125000001,41.83636363636364L102.81265729166665,160.10454545454544L102.83155694444444,160.10454545454544L102.86208715277778,160.10454545454544L102.88680208333334,160.10454545454544L104.00624305555556,160.10454545454544L104.00769687500001,160.10454545454544L104.086203125,160.10454545454544L104.39295902777778,160.10454545454544L104.49327256944446,160.10454545454544L104.67063854166668,160.10454545454544L104.84364305555556,160.10454545454544L104.97303298611111,160.10454545454544L105.1620295138889,160.10454545454544L105.35393368055556,160.10454545454544L106.27420138888888,160.10454545454544L106.80629930555556,160.10454545454544L106.81938368055556,160.10454545454544L107.3471201388889,41.83636363636364L107.82542673611111,160.10454545454544L108.09002187499999,160.10454545454544L108.12782118055554,160.10454545454544L108.19033541666666,160.10454545454544L108.31245625,160.10454545454544L108.81402395833334,160.10454545454544L108.8329236111111,160.10454545454544L109.23853923611112,160.10454545454544L109.346121875,160.10454545454544L109.93782638888888,160.10454545454544L110.04540902777778,160.10454545454544L110.29982743055555,160.10454545454544L110.54406909722222,160.10454545454544L111.34221597222222,160.10454545454544L111.50795138888888,160.10454545454544L111.56319652777778,160.10454545454544L111.8292454861111,160.10454545454544L112.07930243055554,160.10454545454544L112.40205034722223,160.10454545454544L112.42676527777778,160.10454545454544L112.92251770833333,160.10454545454544L113.16094409722223,160.10454545454544L113.32522569444446,160.10454545454544L113.48223819444445,44.25L113.98671354166666,160.10454545454544L114.28620034722222,160.10454545454544L114.30655381944445,46.66363636363636L114.63947847222222,160.10454545454544L115.09307013888889,160.10454545454544L115.13377708333333,160.10454545454544L115.55393090277776,160.10454545454544L115.58882256944445,160.10454545454544L115.71094340277779,160.10454545454544L116.06567534722222,160.10454545454544L116.17471180555555,160.10454545454544L116.23286458333332,160.10454545454544L116.52508229166666,160.10454545454544L116.55852013888888,160.10454545454544L116.74315520833333,160.10454545454544L117.21128506944444,160.10454545454544L117.60672395833333,160.10454545454544L117.68232256944445,160.10454545454544L117.73611388888888,41.83636363636364L118.00070902777777,160.10454545454544L118.05159270833333,160.10454545454544L118.26530416666667,160.10454545454544L118.269665625,44.25L118.78577152777778,160.10454545454544L118.89916944444445,160.10454545454544L119.028559375,160.10454545454544L119.10270416666667,41.83636363636364L119.133234375,160.10454545454544L119.15794930555556,160.10454545454544L119.28152395833332,160.10454545454544L119.66678611111112,41.83636363636364L119.67405520833333,160.10454545454544L120.15236180555556,160.10454545454544L120.17271527777777,160.10454545454544L120.21342222222222,160.10454545454544L120.6800982638889,160.10454545454544L120.87345624999999,160.10454545454544L120.98249270833333,160.10454545454544L120.99848472222222,160.10454545454544L121.18893506944444,160.10454545454544L121.32268645833334,160.10454545454544L121.44189965277778,160.10454545454544L121.47242986111111,160.10454545454544L121.65706493055555,160.10454545454544L121.71812534722221,160.10454545454544L121.79517777777778,160.10454545454544L122.62385486111111,41.83636363636364L123.06872361111111,160.10454545454544L123.3304111111111,41.83636363636364L123.77382604166667,160.10454545454544L123.78109513888889,160.10454545454544L124.25649409722223,160.10454545454544L124.56615763888888,160.10454545454544L124.94996597222222,160.10454545454544L125.1942076388889,160.10454545454544L125.46025659722223,160.10454545454544L125.65361458333334,160.10454545454544L125.81062708333333,160.10454545454544L126.2903875,160.10454545454544L126.29184131944444,160.10454545454544L126.46775347222221,160.10454545454544L126.76724027777777,160.10454545454544L126.97222881944444,160.10454545454544L127.51159583333333,160.10454545454544L127.72094583333333,160.10454545454544L127.72385347222222,160.10454545454544L127.99862534722222,160.10454545454544L128.056778125,160.10454545454544L128.21960590277777,41.83636363636364L128.26467430555556,160.10454545454544L128.3024736111111,160.10454545454544L129.01048368055555,51.490909090909085L129.91039791666668,160.10454545454544L130.13137847222222,160.10454545454544L130.5457170138889,41.83636363636364L130.76233611111113,160.10454545454544L131.0603690972222,160.10454545454544L131.13596770833334,160.10454545454544L131.16940555555556,160.10454545454544L131.55466770833334,160.10454545454544L131.641896875,160.10454545454544L131.67097326388887,160.10454545454544L131.94719895833333,160.10454545454544L132.0257052083333,160.10454545454544L132.16091041666667,160.10454545454544L132.66683958333334,160.10454545454544L132.73226145833334,160.10454545454544L133.29052812499998,160.10454545454544L133.38066493055555,49.077272727272714L133.41410277777777,160.10454545454544L134.0305222222222,160.10454545454544L134.3052940972222,160.10454545454544L134.48120625,160.10454545454544L134.8402996527778,160.10454545454544L134.8417534722222,160.10454545454544L134.94352083333334,160.10454545454544L134.95805902777778,160.10454545454544L134.97841250000002,160.10454545454544L135.44944999999998,160.10454545454544L135.4727111111111,160.10454545454544L135.85361180555554,160.10454545454544L135.92048749999998,160.10454545454544L135.94374861111112,160.10454545454544L136.04260833333333,160.10454545454544L136.41042465277778,160.10454545454544L136.4336857638889,160.10454545454544L137.34086909722222,160.10454545454544L137.4906125,160.10454545454544L137.91803541666667,160.10454545454544L137.94275034722222,41.83636363636364L137.96165,160.10454545454544L137.98345729166667,41.83636363636364L138.02125659722225,41.83636363636364L138.35418124999998,160.10454545454544L138.37889618055556,160.10454545454544L138.4922940972222,160.10454545454544L138.83830312499998,41.83636363636364L139.02584583333334,160.10454545454544L139.3195173611111,41.83636363636364L139.5288673611111,41.83636363636364L139.82108506944445,160.10454545454544L139.85016145833333,160.10454545454544L139.9926357638889,160.10454545454544L140.00862777777778,41.83636363636364L140.32410659722223,160.10454545454544L140.54363333333333,160.10454545454544L140.75298333333333,160.10454545454544L140.76752152777777,160.10454545454544L141.24728194444444,160.10454545454544L141.26327395833331,160.10454545454544L141.5176923611111,41.83636363636364L141.612190625,41.83636363636364L141.75611874999998,41.83636363636364L141.82008680555555,41.83636363636364L141.99745277777777,41.83636363636364L142.0599670138889,160.10454545454544L142.14138090277777,160.10454545454544L142.31583923611112,41.83636363636364L142.43796006944444,41.83636363636364L142.80432256944445,41.83636363636364L142.91626666666667,41.83636363636364L143.21866111111112,41.83636363636364L143.2273840277778,41.83636363636364L143.25064513888887,41.83636363636364L143.5646701388889,41.83636363636364L144.02407708333334,41.83636363636364L144.1738204861111,41.83636363636364L144.21598125,41.83636363636364L144.24651145833334,41.83636363636364L144.4224236111111,41.83636363636364L144.63904270833333,41.83636363636364L145.01267430555555,41.83636363636364L145.26127743055557,41.83636363636364L145.30198437500002,41.83636363636364L146.05360902777778,41.83636363636364L146.2469670138889,41.83636363636364L146.30511979166667,41.83636363636364L146.48975486111112,41.83636363636364L146.55226909722222,41.83636363636364L146.55808437500002,41.83636363636364L146.74998854166665,41.83636363636364L146.83140243055556,41.83636363636364L146.88955520833335,41.83636363636364L146.93753125,41.83636363636364L147.0349371527778,41.83636363636364L147.04802152777776,41.83636363636364L147.30825520833332,41.83636363636364L147.4318298611111,41.83636363636364L147.5626736111111,41.83636363636364L147.80836909722223,41.83636363636364L148.50911006944446,41.83636363636364L148.5788934027778,41.83636363636364L148.80714305555554,41.83636363636364L149.33633333333333,41.83636363636364L149.55731388888887,41.83636363636364L149.59511319444445,41.83636363636364L149.724503125,41.83636363636364L149.96147569444443,41.83636363636364L150.064696875,41.83636363636364L150.07341979166668,41.83636363636364L150.11412673611113,41.83636363636364L150.60551770833334,41.83636363636364L150.6956545138889,41.83636363636364L150.78869895833336,41.83636363636364L150.97624166666665,41.83636363636364L151.49961666666667,41.83636363636364L151.5199701388889,41.83636363636364L151.61010694444442,41.83636363636364L151.61446840277776,41.83636363636364L151.99391527777777,41.83636363636364L152.48530625,41.83636363636364L153.45791145833334,41.83636363636364L154.31711875,41.83636363636364L154.408709375,41.83636363636364L154.43051666666665,41.83636363636364L154.4319704861111,41.83636363636364L154.47994652777777,41.83636363636364L154.92772291666665,41.83636363636364L155.01204444444443,41.83636363636364L155.3377,41.83636363636364L155.86252881944446,41.83636363636364L156.21871458333334,41.83636363636364L156.34955833333333,41.83636363636364L156.82204965277776,41.83636363636364L157.2029503472222,41.83636363636364L157.444284375,41.83636363636364L157.50389097222222,41.83636363636364L157.5649513888889,41.83636363636364L157.71760243055556,41.83636363636364L157.94294444444444,41.83636363636364L158.831228125,41.83636363636364L158.89810381944446,41.83636363636364L159.26446631944444,41.83636363636364L159.27464305555554,41.83636363636364L159.7951104166667,41.83636363636364L159.85617083333332,41.83636363636364L160.19054930555558,39.422727272727286L160.19781840277778,41.83636363636364L160.20217986111112,41.83636363636364L160.72991631944444,39.422727272727286L160.75463125,39.422727272727286L160.86221388888887,41.83636363636364L161.12099375,41.83636363636364L161.30562881944445,39.422727272727286L161.33615902777777,41.83636363636364L161.3666892361111,41.83636363636364L161.77085104166665,39.422727272727286L161.79265833333332,39.422727272727286L161.82173472222223,41.83636363636364L162.31603333333334,41.83636363636364L162.38145520833334,41.83636363636364L162.7361871527778,39.422727272727286L162.835046875,39.422727272727286L162.89465347222222,41.83636363636364L162.978975,39.422727272727286L163.39185972222222,39.422727272727286L163.39622118055556,39.422727272727286L163.70006944444444,41.83636363636364L163.8687125,41.83636363636364L163.8977888888889,39.422727272727286L164.12313090277777,39.422727272727286L164.55346145833335,39.422727272727286L164.87184791666667,39.422727272727286L164.876209375,39.422727272727286L164.88202465277777,39.422727272727286L164.90092430555555,41.83636363636364L164.97652291666665,39.422727272727286L165.40976111111112,39.422727272727286L165.52315902777778,41.83636363636364L165.6060267361111,39.422727272727286L165.9026059027778,39.422727272727286L166.38818159722223,39.422727272727286L166.4128965277778,39.422727272727286L166.59607777777777,39.422727272727286L166.89701840277777,39.422727272727286L166.90283368055555,39.422727272727286L167.38259409722224,39.422727272727286L167.42620868055556,39.422727272727286L167.5643215277778,39.422727272727286L167.90306145833333,39.422727272727286L167.96993715277776,39.422727272727286L168.00192118055554,39.422727272727286L168.3595607638889,39.422727272727286L169.3118125,39.422727272727286L169.4397486111111,39.422727272727286L169.49935520833336,39.422727272727286L169.822103125,39.422727272727286L169.96603125,39.422727272727286L170.75109375,39.422727272727286L170.88920659722223,41.83636363636364L170.93282118055555,39.422727272727286L171.91996458333335,39.422727272727286L172.42153229166667,39.422727272727286L172.42589375,39.422727272727286L172.5799986111111,39.422727272727286L172.90129270833333,39.422727272727286L173.16588784722222,39.422727272727286L173.22258680555555,39.422727272727286L173.36942256944445,39.422727272727286L173.37523784722222,39.422727272727286L173.4755513888889,39.422727272727286L173.48427430555554,39.422727272727286L174.00910312500002,39.422727272727286L175.13145173611113,39.422727272727286L175.20414270833334,39.422727272727286L175.22594999999998,39.422727272727286L175.64610381944445,39.422727272727286L176.16657118055556,39.422727272727286L176.25234652777777,39.422727272727286L176.82369756944445,39.422727272727286L176.85422777777777,39.422727272727286L177.02287083333334,39.422727272727286L177.20314444444443,39.422727272727286L177.23803611111111,39.422727272727286L177.26856631944446,39.422727272727286L178.2687940972222,39.422727272727286L178.50431284722222,39.422727272727286L178.62934131944445,41.83636363636364L178.84596041666666,39.422727272727286L179.32572083333335,39.422727272727286L179.34171284722223,39.422727272727286L179.609215625,39.422727272727286L179.68626805555553,39.422727272727286L179.713890625,39.422727272727286L180.09333750000002,39.422727272727286L180.1165986111111,39.422727272727286L180.15585173611112,39.422727272727286L180.55274444444444,39.422727272727286L180.59054375000002,39.422727272727286L180.603628125,39.422727272727286L180.8987534722222,39.422727272727286L180.95981388888887,39.422727272727286L181.3072767361111,39.422727272727286L181.55587986111112,39.422727272727286L181.60967118055555,39.422727272727286L181.6140326388889,41.83636363636364L181.62566319444443,39.422727272727286L182.25371319444446,39.422727272727286L183.0794826388889,39.422727272727286L183.23213368055556,39.422727272727286L184.19310833333333,39.422727272727286L184.63652326388888,39.422727272727286L184.6801378472222,39.422727272727286L184.69031458333333,39.422727272727286L184.72084479166665,39.422727272727286L185.55679097222222,39.422727272727286L185.7428798611111,39.422727272727286L186.1615798611111,39.422727272727286L186.23863229166668,39.422727272727286L186.282246875,39.422727272727286L186.60935625,39.422727272727286L186.71693888888888,39.422727272727286L186.74456145833332,39.422727272727286L187.12836979166664,39.422727272727286L187.16035381944445,39.422727272727286L187.2214142361111,39.422727272727286L187.6197607638889,39.422727272727286L187.66192152777776,39.422727272727286L187.747696875,39.422727272727286L187.76223506944444,39.422727272727286L188.27107187500002,39.422727272727286L188.30160208333334,39.422727272727286L188.37720069444444,39.422727272727286L188.532759375,39.422727272727286L188.81480034722222,39.422727272727286L189.74524479166666,39.422727272727286L189.76414444444444,39.422727272727286L189.86881944444443,39.422727272727286L190.06799270833335,39.422727272727286L190.11451493055554,39.422727272727286L190.60590590277778,39.422727272727286L190.79054097222223,39.422727272727286L190.887946875,39.422727272727286L191.48110520833333,39.422727272727286L191.67446319444443,39.422727272727286L192.12369340277777,39.422727272727286L192.602,39.422727272727286L192.9523704861111,39.422727272727286L193.27657222222223,39.422727272727286L193.3812472222222,39.422727272727286L193.46702256944445,39.422727272727286L193.753425,39.422727272727286L193.7636017361111,39.422727272727286L193.84065416666667,39.422727272727286L194.08925729166668,39.422727272727286L194.30733020833335,39.422727272727286L194.56901770833335,39.422727272727286L194.58937118055556,39.422727272727286L194.63880104166668,39.422727272727286L195.51254652777777,39.422727272727286L195.781503125,39.422727272727286L196.00829895833334,39.422727272727286L196.08244374999998,39.422727272727286L196.52295104166666,39.422727272727286L196.5302201388889,39.422727272727286L196.802084375,39.422727272727286L197.00998055555556,39.422727272727286L198.2253736111111,39.422727272727286L198.44344652777778,39.422727272727286L198.45216944444445,39.422727272727286L198.8330701388889,39.422727272727286L198.95519097222223,39.422727272727286L199.00462083333332,39.422727272727286L199.10929583333333,39.422727272727286L199.1151111111111,39.422727272727286L199.45530486111113,39.422727272727286L199.5919638888889,39.422727272727286L199.615225,39.422727272727286L200.15604583333334,39.422727272727286L200.37993402777778,39.422727272727286L200.87568645833332,39.422727272727286L201.06613680555557,39.422727272727286L201.09085173611112,39.422727272727286L201.36562361111112,39.422727272727286L201.49501354166668,39.422727272727286L202.16667812499998,39.422727272727286L202.34113645833332,39.422727272727286L202.35276701388887,39.422727272727286L202.70895277777777,39.422727272727286L203.24541215277776,39.422727272727286L203.4722079861111,39.422727272727286L203.51582256944445,39.422727272727286L203.54926041666667,39.422727272727286L203.8996309027778,39.422727272727286L203.9534222222222,39.422727272727286L204.43463645833333,39.422727272727286L204.89985868055555,39.422727272727286L205.1600923611111,39.422727272727286L205.37380381944445,39.422727272727286L205.4086954861111,39.422727272727286L205.84338749999998,39.422727272727286L205.92770902777778,39.422727272727286L206.0163920138889,39.422727272727286L206.1545048611111,39.422727272727286L206.32896319444444,39.422727272727286L206.43218437500002,39.422727272727286L206.4554454861111,39.422727272727286L206.63571909722222,39.422727272727286L207.2405079861111,39.422727272727286L207.52981805555555,39.422727272727286L207.58506319444444,39.422727272727286L207.69991493055556,39.422727272727286L208.61291354166667,39.422727272727286L208.7452111111111,39.422727272727286L208.94583819444446,39.422727272727286L209.22061006944446,39.422727272727286L209.6204104166667,39.422727272727286L209.67856319444445,39.422727272727286L209.9097204861111,39.422727272727286L210.08708645833332,39.422727272727286L210.21356875,39.422727272727286L210.42437256944444,39.422727272727286L210.67733715277777,39.422727272727286L211.07859131944446,39.422727272727286L211.34464027777778,39.422727272727286L211.47403020833335,39.422727272727286L211.75025590277778,39.422727272727286L212.32451458333333,39.422727272727286L212.48298090277777,39.422727272727286L212.50914965277778,39.422727272727286L212.80427500000002,39.422727272727286L212.9787333333333,39.422727272727286L213.00344826388888,39.422727272727286L213.0427013888889,39.422727272727286L213.27531249999998,39.422727272727286L213.48030104166665,39.422727272727286L213.97896111111112,39.422727272727286L214.24501006944445,39.422727272727286L214.4267375,39.422727272727286L214.49506701388887,39.422727272727286L214.5503121527778,39.422727272727286L214.58956527777778,39.422727272727286L214.96755833333333,39.422727272727286L215.02571111111112,39.422727272727286L215.3920736111111,39.422727272727286L215.48511805555555,39.422727272727286L215.538909375,39.422727272727286L215.89945659722224,39.422727272727286L216.49988402777777,39.422727272727286L216.63508923611113,39.422727272727286L216.74848715277776,39.422727272727286L217.187540625,39.422727272727286L217.21370937499998,39.422727272727286L217.69201597222224,39.422727272727286L217.70364652777778,39.422727272727286L218.56140000000002,39.422727272727286L218.71405104166666,39.422727272727286L218.73585833333334,39.422727272727286L219.0556986111111,39.422727272727286L219.15455833333334,39.422727272727286L219.21707256944444,39.422727272727286L219.70410208333334,39.422727272727286L220.05156493055557,39.422727272727286L220.1475170138889,39.422727272727286L220.67670729166667,39.422727272727286L220.68688402777778,39.422727272727286L221.04016215277778,39.422727272727286L221.43414722222224,39.422727272727286L222.75712291666665,39.422727272727286L222.78910694444443,39.422727272727286L222.99409548611112,39.422727272727286L223.049340625,39.422727272727286L223.09440902777777,39.422727272727286L224.10772118055556,39.422727272727286L224.35050902777778,39.422727272727286L224.5569513888889,39.422727272727286L224.60056597222223,39.422727272727286L224.60492743055556,39.422727272727286L224.907321875,39.422727272727286L225.02362743055554,39.422727272727286L225.14865590277776,39.422727272727286L225.4016204861111,39.422727272727286L225.46122708333334,39.422727272727286L225.75635243055555,39.422727272727286L225.954071875,39.422727272727286L226.02530902777775,39.422727272727286L226.47163159722223,39.422727272727286L226.97319930555557,39.422727272727286L226.99355277777778,39.422727272727286L227.35119236111112,39.422727272727286L227.45732118055557,39.422727272727286L227.46022881944444,39.422727272727286L227.87602118055554,39.422727272727286L227.97051944444445,39.422727272727286L228.09118645833334,39.422727272727286L228.40085,39.422727272727286L228.8820642361111,39.422727272727286L228.94893993055555,39.422727272727286L228.9692934027778,39.422727272727286L229.01290798611112,39.422727272727286L229.45341527777776,39.422727272727286L229.46940729166667,39.422727272727286L229.957890625,39.422727272727286L229.97242881944445,39.422727272727286L230.08291909722223,39.422727272727286L230.86943541666668,39.422727272727286L230.99737152777777,39.422727272727286L231.04825520833333,39.422727272727286L231.57017638888888,39.422727272727286L231.90310104166667,39.422727272727286L232.28836319444443,39.422727272727286L232.391584375,39.422727272727286L232.48462881944445,39.422727272727286L233.50375625,39.422727272727286L233.60116215277776,39.422727272727286L233.67530694444443,39.422727272727286L233.8933798611111,39.422727272727286L233.91518715277778,39.422727272727286L234.34842534722222,39.422727272727286L234.46763854166667,39.422727272727286L234.8543545138889,39.422727272727286L234.89942291666665,39.422727272727286L234.9139611111111,41.83636363636364L235.31812291666665,39.422727272727286L235.35301458333333,39.422727272727286L235.4431513888889,39.422727272727286L236.07701666666668,39.422727272727286L236.43901770833332,39.422727272727286L236.85044861111112,39.422727272727286L236.92895486111112,39.422727272727286L236.9682079861111,39.422727272727286L237.33747812500002,39.422727272727286L237.49158298611113,39.422727272727286L237.5831736111111,39.422727272727286L237.96988958333333,39.422727272727286L237.9786125,39.422727272727286L238.2824607638889,39.422727272727286L238.42202743055554,39.422727272727286L238.4859954861111,39.422727272727286L238.52524861111112,39.422727272727286L238.763675,39.422727272727286L239.02390868055554,39.422727272727286L239.14166805555556,39.422727272727286L239.195459375,39.422727272727286L239.41062465277778,39.422727272727286L239.76244895833332,39.422727272727286L239.9121923611111,39.422727272727286L240.39631423611112,39.422727272727286L240.49372013888888,39.422727272727286L240.5271579861111,39.422727272727286L240.84990590277778,39.422727272727286L240.98947256944444,39.422727272727286L241.0505329861111,39.422727272727286L241.1639309027778,39.422727272727286L241.184284375,39.422727272727286L241.24825243055557,39.422727272727286L241.50993993055556,39.422727272727286L242.5421517361111,39.422727272727286L242.74568645833332,39.422727272727286L243.22980833333332,39.422727272727286L243.2588847222222,39.422727272727286L243.27778437499998,39.422727272727286L243.69793819444442,39.422727272727286L243.71393020833332,39.422727272727286L243.75754479166667,39.422727272727286L244.20822881944443,39.422727272727286L244.3739642361111,39.422727272727286L244.84500173611113,39.422727272727286L246.15925451388887,39.422727272727286L246.5256170138889,39.422727272727286L247.03736145833332,39.422727272727286L247.11150625000002,39.422727272727286L247.5069451388889,39.422727272727286L247.86313090277778,39.422727272727286L248.02159722222223,39.422727272727286L248.55951041666665,39.422727272727286L248.56532569444445,39.422727272727286L248.57404861111112,39.422727272727286L248.61911701388888,39.422727272727286L248.8648125,39.422727272727286L249.00001770833333,39.422727272727286L249.0509013888889,39.422727272727286L249.05671666666666,39.422727272727286L249.07561631944444,39.422727272727286L250.0874746527778,39.422727272727286L250.17034236111112,39.422727272727286L250.57305034722222,39.422727272727286L250.67191006944444,39.422727272727286L250.83909930555555,39.422727272727286L251.0658951388889,39.422727272727286L251.6445152777778,39.422727272727286L252.03995416666666,39.422727272727286L252.044315625,39.422727272727286L252.04576944444443,39.422727272727286L252.05885381944444,39.422727272727286L252.0675767361111,39.422727272727286L252.08938402777778,39.422727272727286L252.09083784722222,39.422727272727286L252.0937454861111,39.422727272727286L252.0995607638889,39.422727272727286L252.1053760416667,39.422727272727286L252.10973750000002,39.422727272727286L252.11846041666666,39.422727272727286L252.12136805555556,39.422727272727286L252.13445243055554,39.422727272727286L252.14026770833334,39.422727272727286L252.148990625,39.422727272727286L252.15625972222222,39.422727272727286L252.1649826388889,39.422727272727286L252.17079791666666,39.422727272727286L252.1780670138889,39.422727272727286L252.18824375,39.422727272727286L252.1940590277778,39.422727272727286L252.20714340277777,39.422727272727286L252.2115048611111,39.422727272727286L252.22895069444445,39.422727272727286L252.23912743055556,39.422727272727286L252.2434888888889,39.422727272727286L252.2463965277778,39.422727272727286L252.24785034722223,39.422727272727286L252.253665625,39.422727272727286L252.25511944444446,39.422727272727286L252.2565732638889,39.422727272727286L252.27401909722224,39.422727272727286L252.2827420138889,39.422727272727286L252.2841958333333,39.422727272727286L252.28710347222224,39.422727272727286L252.29437256944445,39.422727272727286L252.29582638888888,39.422727272727286L252.30018784722222,39.422727272727286L252.3089107638889,39.422727272727286L252.31472604166666,39.422727272727286L252.32490277777777,39.422727272727286L252.33944097222223,39.422727272727286L252.34816388888888,39.422727272727286L252.35397916666668,39.422727272727286L252.358340625,39.422727272727286L252.36997118055555,39.422727272727286L252.37287881944442,39.422727272727286L252.39177847222223,39.422727272727286L252.39759375,39.422727272727286" style="fill: none;" fill="none"></path></g></g></g></g></g></g><g transform="translate(68, 177)" clip-path="url(#clip_1)"><clipPath id="clip_1"><rect width="261" height="23"></rect></clipPath><g><g><line x1="0" y1="0" x2="0" y2="5" style="visibility: inherit;" fill="rgb(0, 0, 0)" stroke="rgb(204, 204, 204)" stroke-width="1px"></line><line x1="29.076388888888886" y1="0" x2="29.076388888888886" y2="5" style="visibility: inherit;" fill="rgb(0, 0, 0)" stroke="rgb(204, 204, 204)" stroke-width="1px"></line><line x1="58.15277777777777" y1="0" x2="58.15277777777777" y2="5" style="visibility: inherit;" fill="rgb(0, 0, 0)" stroke="rgb(204, 204, 204)" stroke-width="1px"></line><line x1="87.22916666666666" y1="0" x2="87.22916666666666" y2="5" style="visibility: inherit;" fill="rgb(0, 0, 0)" stroke="rgb(204, 204, 204)" stroke-width="1px"></line><line x1="116.30555555555554" y1="0" x2="116.30555555555554" y2="5" style="visibility: inherit;" fill="rgb(0, 0, 0)" stroke="rgb(204, 204, 204)" stroke-width="1px"></line><line x1="145.38194444444446" y1="0" x2="145.38194444444446" y2="5" style="visibility: inherit;" fill="rgb(0, 0, 0)" stroke="rgb(204, 204, 204)" stroke-width="1px"></line><line x1="174.45833333333331" y1="0" x2="174.45833333333331" y2="5" style="visibility: inherit;" fill="rgb(0, 0, 0)" stroke="rgb(204, 204, 204)" stroke-width="1px"></line><line x1="203.53472222222223" y1="0" x2="203.53472222222223" y2="5" style="visibility: inherit;" fill="rgb(0, 0, 0)" stroke="rgb(204, 204, 204)" stroke-width="1px"></line><line x1="232.6111111111111" y1="0" x2="232.6111111111111" y2="5" style="visibility: inherit;" fill="rgb(0, 0, 0)" stroke="rgb(204, 204, 204)" stroke-width="1px"></line><line x1="261.6875" y1="0" x2="261.6875" y2="5" style="visibility: inherit;" fill="rgb(0, 0, 0)" stroke="rgb(204, 204, 204)" stroke-width="1px"></line></g><g transform="translate(0, 8)"><text x="0" y="0" dx="0em" dy="0.95em" style="text-anchor: middle; visibility: hidden; font-family: &quot;Helvetica Neue&quot;, sans-serif; font-size: 12px; font-weight: 200;" fill="rgb(50, 49, 63)" stroke="none" stroke-width="1px">-20k</text><text x="29.076388888888886" y="0" dx="0em" dy="0.95em" style="text-anchor: middle; visibility: inherit; font-family: &quot;Helvetica Neue&quot;, sans-serif; font-size: 12px; font-weight: 200;" fill="rgb(50, 49, 63)" stroke="none" stroke-width="1px">0</text><text x="58.15277777777777" y="0" dx="0em" dy="0.95em" style="text-anchor: middle; visibility: hidden; font-family: &quot;Helvetica Neue&quot;, sans-serif; font-size: 12px; font-weight: 200;" fill="rgb(50, 49, 63)" stroke="none" stroke-width="1px">20k</text><text x="87.22916666666666" y="0" dx="0em" dy="0.95em" style="text-anchor: middle; visibility: inherit; font-family: &quot;Helvetica Neue&quot;, sans-serif; font-size: 12px; font-weight: 200;" fill="rgb(50, 49, 63)" stroke="none" stroke-width="1px">40k</text><text x="116.30555555555554" y="0" dx="0em" dy="0.95em" style="text-anchor: middle; visibility: hidden; font-family: &quot;Helvetica Neue&quot;, sans-serif; font-size: 12px; font-weight: 200;" fill="rgb(50, 49, 63)" stroke="none" stroke-width="1px">60k</text><text x="145.38194444444446" y="0" dx="0em" dy="0.95em" style="text-anchor: middle; visibility: inherit; font-family: &quot;Helvetica Neue&quot;, sans-serif; font-size: 12px; font-weight: 200;" fill="rgb(50, 49, 63)" stroke="none" stroke-width="1px">80k</text><text x="174.45833333333331" y="0" dx="0em" dy="0.95em" style="text-anchor: middle; visibility: hidden; font-family: &quot;Helvetica Neue&quot;, sans-serif; font-size: 12px; font-weight: 200;" fill="rgb(50, 49, 63)" stroke="none" stroke-width="1px">100k</text><text x="203.53472222222223" y="0" dx="0em" dy="0.95em" style="text-anchor: middle; visibility: inherit; font-family: &quot;Helvetica Neue&quot;, sans-serif; font-size: 12px; font-weight: 200;" fill="rgb(50, 49, 63)" stroke="none" stroke-width="1px">120k</text><text x="232.6111111111111" y="0" dx="0em" dy="0.95em" style="text-anchor: middle; visibility: hidden; font-family: &quot;Helvetica Neue&quot;, sans-serif; font-size: 12px; font-weight: 200;" fill="rgb(50, 49, 63)" stroke="none" stroke-width="1px">140k</text><text x="261.6875" y="0" dx="0em" dy="0.95em" style="text-anchor: middle; visibility: hidden; font-family: &quot;Helvetica Neue&quot;, sans-serif; font-size: 12px; font-weight: 200;" fill="rgb(50, 49, 63)" stroke="none" stroke-width="1px">160k</text></g><line x1="0" y1="0" x2="261.6875" y2="0" fill="rgb(0, 0, 0)" stroke="rgb(204, 204, 204)" stroke-width="1px"></line></g></g></g></g></svg>