<svg viewBox="0 0 330 200" xmlns="http://www.w3.org/2000/svg"><g><g><g><g><g><line x1="68.3125" y1="177" x2="63.3125" y2="177" style="visibility: inherit;" fill="rgb(0, 0, 0)" stroke="rgb(204, 204, 204)" stroke-width="1px"></line><line x1="68.3125" y1="154.875" x2="63.3125" y2="154.875" style="visibility: inherit;" fill="rgb(0, 0, 0)" stroke="rgb(204, 204, 204)" stroke-width="1px"></line><line x1="68.3125" y1="132.75" x2="63.3125" y2="132.75" style="visibility: inherit;" fill="rgb(0, 0, 0)" stroke="rgb(204, 204, 204)" stroke-width="1px"></line><line x1="68.3125" y1="110.625" x2="63.3125" y2="110.625" style="visibility: inherit;" fill="rgb(0, 0, 0)" stroke="rgb(204, 204, 204)" stroke-width="1px"></line><line x1="68.3125" y1="88.5" x2="63.3125" y2="88.5" style="visibility: inherit;" fill="rgb(0, 0, 0)" stroke="rgb(204, 204, 204)" stroke-width="1px"></line><line x1="68.3125" y1="66.375" x2="63.3125" y2="66.375" style="visibility: inherit;" fill="rgb(0, 0, 0)" stroke="rgb(204, 204, 204)" stroke-width="1px"></line><line x1="68.3125" y1="44.25" x2="63.3125" y2="44.25" style="visibility: inherit;" fill="rgb(0, 0, 0)" stroke="rgb(204, 204, 204)" stroke-width="1px"></line><line x1="68.3125" y1="22.125" x2="63.3125" y2="22.125" style="visibility: inherit;" fill="rgb(0, 0, 0)" stroke="rgb(204, 204, 204)" stroke-width="1px"></line><line x1="68.3125" y1="0" x2="63.3125" y2="0" style="visibility: inherit;" fill="rgb(0, 0, 0)" stroke="rgb(204, 204, 204)" stroke-width="1px"></line></g><g transform="translate(58.3125, 0)"><text x="0" y="177" dx="0em" dy="0.3em" style="text-anchor: end; visibility: hidden; font-family: &quot;Helvetica Neue&quot;, sans-serif; font-size: 12px; font-weight: 200;" fill="rgb(50, 49, 63)" stroke="none" stroke-width="1px">-5e+3</text><text x="0" y="154.875" dx="0em" dy="0.3em" style="text-anchor: end; visibility: inherit; font-family: &quot;Helvetica Neue&quot;, sans-serif; font-size: 12px; font-weight: 200;" fill="rgb(50, 49, 63)" stroke="none" stroke-width="1px">0</text><text x="0" y="132.75" dx="0em" dy="0.3em" style="text-anchor: end; visibility: hidden; font-family: &quot;Helvetica Neue&quot;, sans-serif; font-size: 12px; font-weight: 200;" fill="rgb(50, 49, 63)" stroke="none" stroke-width="1px">5e+3</text><text x="0" y="110.625" dx="0em" dy="0.3em" style="text-anchor: end; visibility: inherit; font-family: &quot;Helvetica Neue&quot;, sans-serif; font-size: 12px; font-weight: 200;" fill="rgb(50, 49, 63)" stroke="none" stroke-width="1px">1e+4</text><text x="0" y="88.5" dx="0em" dy="0.3em" style="text-anchor: end; visibility: hidden; font-family: &quot;Helvetica Neue&quot;, sans-serif; font-size: 12px; font-weight: 200;" fill="rgb(50, 49, 63)" stroke="none" stroke-width="1px">1.5e+4</text><text x="0" y="66.375" dx="0em" dy="0.3em" style="text-anchor: end; visibility: inherit; font-family: &quot;Helvetica Neue&quot;, sans-serif; font-size: 12px; font-weight: 200;" fill="rgb(50, 49, 63)" stroke="none" stroke-width="1px">2e+4</text><text x="0" y="44.25" dx="0em" dy="0.3em" style="text-anchor: end; visibility: hidden; font-family: &quot;Helvetica Neue&quot;, sans-serif; font-size: 12px; font-weight: 200;" fill="rgb(50, 49, 63)" stroke="none" stroke-width="1px">2.5e+4</text><text x="0" y="22.125" dx="0em" dy="0.3em" style="text-anchor: end; visibility: inherit; font-family: &quot;Helvetica Neue&quot;, sans-serif; font-size: 12px; font-weight: 200;" fill="rgb(50, 49, 63)" stroke="none" stroke-width="1px">3e+4</text><text x="0" y="0" dx="0em" dy="0.3em" style="text-anchor: end; visibility: hidden; font-family: &quot;Helvetica Neue&quot;, sans-serif; font-size: 12px; font-weight: 200;" fill="rgb(50, 49, 63)" stroke="none" stroke-width="1px">3.5e+4</text></g><line x1="68.3125" y1="0" x2="68.3125" y2="177" fill="rgb(0, 0, 0)" stroke="rgb(204, 204, 204)" stroke-width="1px"></line></g></g><g transform="translate(68, 0)" clip-path="url(#clip_0)"><clipPath id="clip_0"><rect width="261" height="177"></rect></clipPath><g><g><g><line x1="0" y1="0" x2="0" y2="177" fill="rgb(0, 0, 0)" stroke="rgb(60, 60, 60)" stroke-width="1px" opacity="0.25"></line><line x1="29.076388888888886" y1="0" x2="29.076388888888886" y2="177" fill="rgb(0, 0, 0)" stroke="rgb(60, 60, 60)" stroke-width="1px" opacity="0.25"></line><line x1="58.15277777777777" y1="0" x2="58.15277777777777" y2="177" fill="rgb(0, 0, 0)" stroke="rgb(60, 60, 60)" stroke-width="1px" opacity="0.25"></line><line x1="87.22916666666666" y1="0" x2="87.22916666666666" y2="177" fill="rgb(0, 0, 0)" stroke="rgb(60, 60, 60)" stroke-width="1px" opacity="0.25"></line><line x1="116.30555555555554" y1="0" x2="116.30555555555554" y2="177" fill="rgb(0, 0, 0)" stroke="rgb(60, 60, 60)" stroke-width="1px" opacity="0.25"></line><line x1="145.38194444444446" y1="0" x2="145.38194444444446" y2="177" fill="rgb(0, 0, 0)" stroke="rgb(60, 60, 60)" stroke-width="1px" opacity="0.25"></line><line x1="174.45833333333331" y1="0" x2="174.45833333333331" y2="177" fill="rgb(0, 0, 0)" stroke="rgb(60, 60, 60)" stroke-width="1px" opacity="0.25"></line><line x1="203.53472222222223" y1="0" x2="203.53472222222223" y2="177" fill="rgb(0, 0, 0)" stroke="rgb(60, 60, 60)" stroke-width="1px" opacity="0.25"></line><line x1="232.6111111111111" y1="0" x2="232.6111111111111" y2="177" fill="rgb(0, 0, 0)" stroke="rgb(60, 60, 60)" stroke-width="1px" opacity="0.25"></line><line x1="261.6875" y1="0" x2="261.6875" y2="177" fill="rgb(0, 0, 0)" stroke="rgb(60, 60, 60)" stroke-width="1px" opacity="0.25"></line></g><g><line x1="0" y1="177" x2="261.6875" y2="177" fill="rgb(0, 0, 0)" stroke="rgb(60, 60, 60)" stroke-width="1px" opacity="0.25"></line><line x1="0" y1="154.875" x2="261.6875" y2="154.875" fill="rgb(0, 0, 0)" stroke="rgb(60, 60, 60)" stroke-width="1px" opacity="0.25"></line><line x1="0" y1="132.75" x2="261.6875" y2="132.75" fill="rgb(0, 0, 0)" stroke="rgb(60, 60, 60)" stroke-width="1px" opacity="0.25"></line><line x1="0" y1="110.625" x2="261.6875" y2="110.625" fill="rgb(0, 0, 0)" stroke="rgb(60, 60, 60)" stroke-width="1px" opacity="0.25"></line><line x1="0" y1="88.5" x2="261.6875" y2="88.5" fill="rgb(0, 0, 0)" stroke="rgb(60, 60, 60)" stroke-width="1px" opacity="0.25"></line><line x1="0" y1="66.375" x2="261.6875" y2="66.375" fill="rgb(0, 0, 0)" stroke="rgb(60, 60, 60)" stroke-width="1px" opacity="0.25"></line><line x1="0" y1="44.25" x2="261.6875" y2="44.25" fill="rgb(0, 0, 0)" stroke="rgb(60, 60, 60)" stroke-width="1px" opacity="0.25"></line><line x1="0" y1="22.125" x2="261.6875" y2="22.125" fill="rgb(0, 0, 0)" stroke="rgb(60, 60, 60)" stroke-width="1px" opacity="0.25"></line><line x1="0" y1="0" x2="261.6875" y2="0" fill="rgb(0, 0, 0)" stroke="rgb(60, 60, 60)" stroke-width="1px" opacity="0.25"></line></g></g></g><g><g><line x1="0" y1="154.875" x2="261.6875" y2="154.875" fill="rgb(0, 0, 0)" stroke="rgb(153, 153, 153)" stroke-width="1.5px"></line></g></g><g><g><line x1="29.076388888888886" y1="0" x2="29.076388888888886" y2="177" fill="rgb(0, 0, 0)" stroke="rgb(153, 153, 153)" stroke-width="1.5px"></line></g></g><g><g><g><g><g><path stroke="rgb(255, 112, 67)" stroke-width="2px" d="M29.192694444444445,152.551875L29.352614583333335,152.90121710526316L29.406405902777777,152.69066651291513L29.62884027777778,151.94261722157603L29.63320173611111,152.30750642536202L29.643378472222224,152.28883077824779L29.816382986111112,152.27563730129742L29.832375000000003,152.22702073239057L29.993748958333335,152.2078157589499L30.04608645833333,152.17571705812048L30.278697569444446,152.08544066291665L30.383372569444447,152.104192735908L30.419718055555556,152.09005478484934L30.615983680555555,152.14993562096225L30.76427326388889,152.130897221182L30.880578819444445,151.97889031188691L30.957631250000002,152.04765715148756L30.975077083333332,152.05491888333154L31.072482986111112,152.07400528482216L31.20914201388889,152.07803178472824L31.25566423611111,152.1188161952242L31.299278819444446,152.13003984840904L31.303640277777777,152.06708084615786L31.329809027777777,152.08369827471086L31.43303020833333,152.11030073231814L31.590042708333332,152.12202839283609L31.623480555555556,152.16766692202185L31.728155555555556,152.28992349882907L31.80084652777778,152.2941948343461L31.85754548611111,152.05540267467603L32.03055,151.84248932817505L32.126502083333335,151.824303449794L32.20500833333333,151.77381278397388L32.247169097222226,151.78557103594483L32.32422152777778,151.83012929486134L32.335852083333336,151.84737999606432L32.53211770833334,151.89670457999873L32.60771631944444,151.88456255426925L32.670230555555555,151.89617196251376L32.75745972222222,151.89535519369812L32.76182118055556,151.9170457189313L32.84759652777778,151.90292205121196L32.98425555555555,151.9349752275167L33.11364548611111,151.87439016676166L33.215412847222225,151.9315752594915L33.421855208333334,151.91604574662205L33.43930104166667,152.05807023545694L33.54542986111111,152.0409668886958L34.05135902777778,152.15910923213798L34.05572048611111,152.18746947122122L34.24617083333333,152.06848311807394L34.27379340277778,152.06148057373966L34.278154861111105,152.01076698021564L34.28687777777778,151.89856086935816L34.3857375,152.01957305307988L34.49186631944445,152.0507636766269L34.53111944444444,151.92356125056943L34.534027083333335,152.05305491124335L34.67213993055555,151.9700211283823L34.884397569444445,152.10588817001732L34.9091125,152.10623741785736L35.11991631944444,152.08439438182143L35.157715625,152.14228077600282L35.18533819444444,152.09468408102063L35.307459027777774,152.1958229930983L35.36415798611111,152.27575452880077L35.369973263888895,152.27017427967172L35.4324875,152.1765844549203L35.48627881944444,152.2805608976831L35.56187743055556,152.2412927032987L35.67818298611111,152.30557468291892L35.72325138888889,152.3855578083656L35.81338819444445,152.43539979414732L35.875902430555556,152.26997931065029L35.919517013888886,152.34244569131164L35.968946875,152.19740282440895L35.99656944444444,152.08900505616796L36.01983055555556,152.06891163092024L36.02855347222223,152.03976339210942L36.10124444444445,152.02459623926234L36.20010416666667,152.01094643141465L36.41090798611111,152.03185548843078L36.43562291666667,152.03960867442143L36.58100486111111,152.1350989946687L36.642065277777775,152.11039840865314L36.66387256944445,152.2209339016557L36.6885875,152.24296781393872L36.717663888888886,152.10790833072602L36.77581666666667,152.06380126436525L36.91538333333334,152.03516895679547L36.96626701388889,151.88770445100644L37.0026125,151.76605149947443L37.02732743055556,151.88889067118993L37.084026388888894,151.82243578265837L37.105833680555556,151.8511309951595L37.120371875000004,151.8105787539361L37.18433993055555,151.5638868902284L37.22940833333334,151.5741860389337L37.54779479166666,151.73833477950717L37.604493749999996,151.89713051939344L37.64520069444444,151.96260653267515L37.65246979166667,151.95515821915916L37.74551423611111,151.8599530537609L37.83710486111111,151.64151644170443L37.896711458333336,151.6883030313461L37.953410416666664,151.58659629253785L38.005747916666664,151.70525067069713L38.06535451388889,151.646099927309L38.17729861111111,151.52648870372715L38.21219027777778,151.54052746337283L38.21655173611111,151.54209973014076L38.245628125,151.58776509969567L38.27761215277778,151.5846135684484L38.290696527777776,151.59283976158915L38.38228715277778,151.63343100741386L38.470970138888894,151.74740096761906L38.48405451388889,151.76147343319383L38.53493819444444,151.55288775830104L38.55383784722222,151.45366112644072L38.5727375,151.4528575112016L38.61344444444444,151.5406345151896L38.66287430555556,151.53113353881903L38.715211805555555,151.600020347105L38.716665625,151.40758040467037L38.75882638888889,151.1458843651915L39.087389583333334,151.08735832823268L39.12809652777778,151.03468491405332L39.23422534722222,151.0757789797722L39.57732673611111,151.0685135727054L39.62530277777778,150.91816204614378L39.64565625,150.97090839498105L39.73433923611111,151.16219272994087L39.82592986111111,151.15734845297044L39.908797569444445,151.18617612896978L39.961135069444445,151.35593362894L40.041095138888885,151.2653402118362L40.06871770833334,151.29443120631944L40.13268576388889,151.29848808765385L40.17339270833333,151.23576425152686L40.327497569444446,151.05762525643664L40.365296875,150.86411266241709L40.50195590277778,150.8669513970781L40.519401736111114,150.8473812517692L40.72293645833333,150.862955630604L40.74765138888889,150.69997252975975L40.81452708333333,150.67497527156823L40.92501736111111,150.77416526303728L40.94682465277778,150.84131124808135L41.00788506944444,150.7136801038603L41.034053819444445,150.6983745913791L41.10529097222223,150.54078711282602L41.303010416666666,150.49852089685686L41.35098645833333,150.39410629675123L41.41640833333334,150.30013315863596L41.52544479166667,150.1823698332532L41.58505138888889,148.85950775369L41.698449305555556,148.90793198149157L41.904891666666664,148.95151378591055L42.011020486111114,148.9907374093997L42.240723958333334,149.00391366908866L42.354121875,149.22595981171847L42.37738298611111,149.42580133827292L42.39482881944445,149.61672121108887L42.484965625,149.68898659224305L42.53003402777778,149.63233793142214L42.585279166666666,149.6145416378285L42.660877777777785,149.77552497772083L42.67832361111111,149.72128497883432L42.82225173611111,149.6614064798436L42.90075798611111,149.61857833114647L42.980718055555556,148.38528297955887L42.98507951388889,148.41475468200028L43.11883090277777,148.5850917158669L43.188614236111114,148.638832544867L43.44303263888889,148.6761367907469L43.74542708333333,147.4928356012063L43.754149999999996,147.84386454387993L43.82974861111111,146.92079058287888L43.860278819444446,145.94621151830714L43.86464027777778,144.74827785952482L44.10888194444444,143.76970006846153L44.30950902777778,143.0770425583596L44.313870486111114,142.63065080063524L44.454890972222216,142.02977321828396L44.470882986111114,142.72798339884807L44.55520451388889,141.90718505643196L44.9579125,141.3565290492604L44.992804166666666,140.88306364315162L45.13673229166666,140.4790697779282L45.27920659722222,140.17078779951163L45.33445173611111,139.76058401881346L45.379520138888886,139.2033381160188L45.635392361111116,138.9673168040688L45.74588263888889,138.68852262329182L45.850557638888894,138.49292036072893L45.92324861111111,138.27262832441914L46.07589965277778,138.05224049176394L46.139867708333334,137.69901644227988L46.20383576388889,137.55811479794144L46.318687499999996,137.364928318011L46.35939444444445,137.2795604861557L46.392832291666664,137.08104193742668L46.44953125,136.93556274360918L46.46697708333333,136.76038146916719L46.69668055555555,136.66909332221243L46.908938194444445,136.5648089899521L47.12119583333334,136.52626559094386L47.14445694444445,136.43626403182216L47.14881840277778,136.42163762863595L47.18952534722222,136.4084738657691L47.19388680555556,136.3966264791896L47.56024930555555,136.3638388312641L47.61985590277778,136.29007994812446L47.65183993055555,136.22369695330127L47.72598472222222,136.1860772579657L47.771053124999995,136.1522195321647L47.81466770833333,136.19918507895375L47.877181944444445,136.19720407105817L47.93388090277777,136.20648366395324L48.307512499999994,136.1816477975558L48.31768923611111,136.14823301779762L48.46888645833334,136.16240971601886L48.59100729166667,136.16410624441707L48.65061388888889,136.15457061997483L48.68841319444444,136.14598855797692L48.70731284722223,136.09401470217685L48.88031736111111,136.04723823195724L48.974815625000005,135.98301440875915L49.20597291666667,135.91415046788094L49.210334375,135.87429792109165L49.236503125000006,135.8494931289818L49.59268888888889,135.87141881608417L49.59414270833334,135.8690269344757L49.65665694444445,135.78943674102658L49.735163194444446,135.77311806692364L49.860191666666665,135.75843126023102L49.864553125,135.74521313420775L49.98812777777778,135.73331682078683L50.098618055555555,135.722610138708L50.13350972222223,135.72403662483723L50.29197604166667,135.7142579623534L50.395197222222215,135.70545716611798L50.40537395833333,135.69753644950612L50.44317326388889,135.6793453045554L50.58128611111111,135.66297327409976L50.7150375,135.6703634466898L50.73684479166666,135.65488960202077L50.80372048611111,135.64096314181862L50.867688541666666,135.62842932763672L50.925841319444444,135.62821139487303L50.956371527777776,135.6169527553857L51.03633159722222,135.6068199798471L51.06686180555556,135.59770048186238L51.19625173611111,135.60055543367613L51.29511145833334,135.5920623903085L51.37507152777778,135.58441865127764L51.39833263888889,135.5886017861499L51.49573854166667,135.57024160753485L51.62512847222222,135.4984049467813L51.67746597222222,135.48906445210315L51.700727083333334,135.49172050689282L51.72689583333333,135.49411095620354L51.74434166666667,135.45201236058315L51.78650243055556,135.45837362452485L51.86937013888889,135.46409876207235L52.010390625,135.4360638858651L52.186302777777776,135.4329574972786L52.22555590277778,135.44122424755074L52.247363194444446,135.44866432279568L52.30551597222222,135.4442978905161L52.39129131944444,135.4071806014645L52.40728333333334,135.39590004131804L52.47415902777777,135.40787253718625L52.481428125,135.4075852834676L52.54394236111111,135.2082017551208L52.74893090277778,135.19469407960872L52.92048159722222,135.20466217164784L53.03678715277778,135.20257095448306L53.14582361111111,135.01262635903473L53.18216909722222,135.06292622313126L53.33772777777777,135.10819610081813L53.445310416666665,135.10468899073632L53.67356006944445,135.14578259166268L53.84656458333333,134.96151683249641L53.88291006944445,134.79567764924676L54.051553125000005,134.87873488432209L54.14168993055555,134.94242389588987L54.214380902777776,134.9997440063009L54.288525694444445,135.0513321056708L54.473160763888885,135.04244889510375L54.53131354166667,135.04551650559335L54.60545833333333,135.07040235503402L54.647619097222226,135.11492461953063L54.65488819444444,135.15499465757756L55.17390173611111,135.19105769181982L55.280030555555555,135.22351442263783L55.40796666666667,135.26378798037405L55.474842361111115,135.24472168233663L55.578063541666666,135.10587451410296L55.592601736111114,135.1468495626927L55.62022430555556,135.1726646064234L55.71472256944444,135.20696064578107L55.78305208333333,135.04976458120296L55.825212847222225,135.02997562308266L55.84120486111111,134.9457905607744L56.08980798611111,134.89214900469696L56.10143854166667,134.95449660422727L56.29915798611111,134.93317194380455L56.32241909722222,134.95822974942408L56.34422638888889,134.84803177448168L56.58846805555555,134.8705410970335L56.66552048611111,134.86867448733017L56.69750451388889,134.87805703859715L56.78909513888888,134.94181383473745L56.835617361111105,134.97706995126367L56.905400694444445,134.82073795613732L57.04932881944445,134.84597666052358L57.11038923611111,134.86869149447122L57.14237326388889,134.87807234502412L57.20052604166666,134.88651511052169L57.212156597222226,134.94942609946952L57.308108680555556,134.87329598952257L57.597418749999996,134.87115389057033L57.85765243055556,133.3868510015133L57.860560069444446,133.53335340136195L57.89981319444445,133.64308056122576L57.94052013888889,132.1820225051032L57.99285763888889,132.44900775459286L58.00012673611111,132.68929447913357L58.12515520833333,132.93874003122022L58.16586215277778,133.1300535280982L58.29525208333333,133.3022356752884L58.30688263888889,133.46826210775953L58.60200798611111,132.1574358969836L58.63689965277778,132.43794230728523L58.78518923611111,130.9203980765567L58.799727430555556,129.83117076890102L59.128290625000005,128.8287411920109L59.237327083333334,126.12336707280983L59.28239548611111,125.44746786552884L59.31001805555556,124.60684607897596L59.32601006944444,124.02728647107836L59.48302256944445,123.49462032397052L59.63712743055556,124.63034579157346L59.73162569444444,122.42224871241612L59.74616388888889,122.12752384117451L59.783963194444446,123.41102145705706L59.86973854166667,124.45554431135136L60.06018888888889,123.68092738021622L60.148871875,123.01695964219459L60.19103263888889,122.43045117797513L60.20266319444445,121.95790606017763L60.28698472222222,121.66536545415985L60.36839861111111,122.97295390874388L60.52977256944444,124.16084601786949L60.62863229166666,125.21888641608253L60.91939618055555,124.41218527447428L60.997902430555555,123.71934174702685L61.04733229166667,122.87453257232417L61.1302,122.31332931509175L61.18108368055555,121.73080888358257L61.229059722222225,121.21760299522431L61.29884305555556,120.88846769570188L61.32210416666667,120.70287092613171L61.33518854166667,120.58008383351853L61.341003819444445,120.24832545016667L61.51691597222222,119.91655540515L61.56053055555556,119.65114986463499L61.653575000000004,121.1712223781715L62.08972083333333,120.74716264035435L62.323785763888885,120.3323213763189L62.44736041666667,120.21340173868703L62.645079861111114,120.11743656481832L62.703232638888885,119.75450540833648L62.74684722222222,118.04505486750284L62.97945833333333,117.91148688075255L63.025980555555556,114.83758819267729L63.078318055555556,115.24601687340957L63.393796875,112.64885268606861L63.59587777777778,114.92446741746176L63.77469756944445,113.67589567571557L64.205028125,112.60749360814401L64.68042708333334,110.28524424732962L64.68333472222223,109.44528232259665L64.72549548611111,108.86631659033698L64.94066076388889,108.37843493130329L64.99154444444444,107.91721643817296L65.08168125,108.89599479435566L65.38407569444445,106.71258281492008L65.61232534722222,106.29626203342808L65.62686354166668,105.95476083008526L65.90745069444445,105.70272224707674L66.18222256944445,105.55332502236907L66.35231944444443,105.42993002013216L66.3610423611111,105.36312451811894L66.41919513888888,105.08174956630704L66.47589409722222,105.01657460967634L66.58783819444444,104.9579171487087L67.35545486111111,103.09087543383784L67.37435451388889,103.05885039045404L67.62731909722221,102.87515285140864L67.67820277777777,103.03063756626777L67.80032361111111,102.705948809641L67.88319131944445,101.0972914286769L68.22047743055556,99.7158747858092L68.44291180555557,98.39516230722828L68.69733020833334,97.25077107650546L68.732221875,96.13231896885492L68.77729027777778,95.23633707196943L68.84852743055556,94.55164086477247L69.38062534722222,93.64778927829524L69.43150902777778,93.15513535046571L69.45477013888889,92.57899681541913L69.66993541666666,91.94984713387721L69.88510069444445,91.5274249204895L69.94179965277779,91.03661992844054L70.27763194444444,90.41789543559648L70.37067638888888,90.10441839203683L70.71377777777776,89.95503905283314L70.73413124999999,89.84272264754983L70.80972986111111,89.71951288279486L70.93766597222222,89.61968659451536L71.06414826388888,89.02096793506382L71.23279131944444,88.76974614155745L71.79687326388888,88.76489652740169L71.98732361111111,88.52821937466152L72.04111493055555,88.30414743719535L72.26064166666667,88.20204519347583L72.46272256944445,88.03271567412826L72.64445,88.10156910671543L72.79855486111111,88.07503719604388L73.35682152777777,88.0290334764395L73.55308715277778,88.12038012879553L73.56617152777778,88.19152961591598L73.64322395833332,88.1006891543244L73.88310416666667,88.14062023889196L74.21602881944445,88.18762071500275L74.48062395833334,88.24098364350247L74.8920548611111,88.28901027915221L75.29040138888888,87.96717175123699L75.36309236111111,87.84345457611329L75.59134201388889,87.93123411850199L75.86466006944445,88.02129820665178L75.8791982638889,87.9364183859866L75.89809791666666,87.97065154738793L75.91118229166668,87.92402389264916L76.21648437500001,87.81568400338423L76.9724704861111,87.76242810304579L76.975378125,87.84724779274123L77.00300069444444,87.68021051346712L77.2472423611111,87.56306446212038L77.65431180555555,87.55719551590835L77.8156857638889,87.68466346431751L78.13261840277778,87.55600961788578L78.13407222222222,87.67253365609717L78.25328541666666,87.76634279048746L78.38122152777778,87.6737710114387L78.38849062499999,87.77851891029485L78.42338229166667,87.76216701926536L78.97147222222222,87.88020031733882L79.22152916666667,87.79836778560494L79.657675,87.78003100704444L79.67512083333334,87.84096540634L79.93099305555556,87.91793136570598L79.93971597222223,87.9761382291354L80.15633506944444,87.81833690622186L80.24501805555556,87.89756571559965L80.36859270833332,87.7476216440397L80.47762916666666,87.60160947963573L80.55468159722221,87.45913603167213L81.14783993055556,87.35303492850493L81.17837013888888,87.25754393565444L81.188546875,87.17160204208899L81.2278,87.35975433788008L81.57526284722222,87.31890390409208L82.27018854166667,87.24895101368288L82.86189305555556,87.14174341231457L83.00436736111112,87.32181907108313L83.15265694444444,87.3732621639748L83.25733194444445,87.49699844757731L83.81123715277778,87.35392360281959L83.97842638888888,87.38003124253763L84.13689270833333,87.28184061828385L84.22412187500001,87.39259405645548L84.27064409722223,87.24889715080992L84.30408194444443,87.26338243572893L84.36805000000001,87.40916919215604L84.5410545138889,87.42975227294043L84.58757673611112,87.5478395456464L85.01645347222222,87.44393059108174L85.04262222222222,87.35041253197356L85.34210902777777,87.47643377877621L85.39444652777779,87.58985290089859L85.39735416666666,87.50386761080873L85.68084895833334,87.28266834972786L86.17514756944445,87.30483901475507L86.23039270833334,87.21416761327956L86.28999930555555,87.11043835195161L86.40485104166666,87.03920701675644L86.82645868055556,86.9861613150808L87.23062048611112,86.82779518357273L88.00550625,86.80695316521543L88.61320277777777,86.62225784869389L88.61756423611111,86.58878206382452L88.86616736111111,86.24890385744204L88.89815138888889,86.27488847169784L88.92722777777779,86.13233712452805L89.02463368055557,86.13679091207526L89.26451388888889,86.24036182086772L89.31830520833333,86.30038813878095L89.39681145833333,86.33228682490285L89.93763229166667,86.38312064241256L90.30254097222222,86.1744335781713L90.52061388888889,86.37380272035416L90.52497534722222,85.87842244831877L90.70088750000001,85.95251770348689L90.85208472222222,86.05239093313817L91.77235243055554,85.86571433982436L91.84940486111111,85.84151790584194L92.17360659722222,85.86399111525773L92.205590625,85.87315450373195L92.22885173611111,85.84821405335875L92.38004895833333,85.91426764802287L92.41348680555555,85.7524658832206L93.17819583333333,85.33028179489853L93.22181041666667,85.55875361540866L93.58962673611111,85.6205657538678L93.64051041666667,85.33325917848103L93.75972361111111,85.12999576063292L94.01414201388889,85.07980868456963L94.40958090277778,85.26695281611265L94.50117152777779,84.4950700345014L94.71633680555556,84.23181303105125L95.05071527777778,83.85106922794614L95.32403333333333,84.13896230515151L95.35165590277778,84.30956607463636L95.55082916666666,84.46310946717271L95.70348020833335,84.31367352045544L96.03495104166666,84.47786866840991L96.39404444444445,84.4043943015689L96.46964305555555,84.52632987141202L97.06134756944444,84.5365093842708L97.11077743055556,84.28017094584372L97.2270829861111,84.20434135125934L97.3375732638889,84.23565721613342L97.5803611111111,83.77709149452008L98.20986493055555,84.02813234506806L98.45846805555556,84.18769411056125L99.14903229166667,83.46842469950514L99.22463090277779,83.83883222955461L99.33366736111111,83.99519900659914L99.52557152777779,83.81511660593925L99.77853611111111,83.95172994534532L99.92973333333335,83.97511945081078L100.01987013888889,84.00723250572969L100.25102743055555,83.93657175515673L100.25538888888889,83.95041457964105L100.42839340277779,84.11774812167697L100.76131805555556,84.32366080950925L100.97357569444445,84.03329472855833L101.12041145833334,84.01534025570248L101.27160868055554,84.19830623013226L101.76445347222221,84.19703810711901L101.85022881944445,83.29983429640711L102.22676805555555,83.33310086676642L102.42157986111111,83.16391578008978L102.44193333333334,83.17758670208077L102.686175,83.2230780318727L103.2618875,83.21977022868543L103.35493194444444,82.88491820581689L103.63697291666666,82.7937388852352L103.74310173611111,82.82230249671169L103.89284513888889,82.71525974704049L104.41185868055555,82.44192127233646L104.94831805555555,82.5388541451028L105.18965208333334,82.62609373059252L105.68831215277778,82.63823435753328L105.69267361111112,82.78191092177994L106.01106006944444,82.98865732960195L106.0590361111111,82.94241659664176L106.51408159722222,83.06673743697759L106.703078125,83.07906369327982L106.80048402777777,82.83571982395183L106.89062083333333,82.71627284155666L106.98948055555556,82.73045805740098L107.07816354166667,82.77641225166089L107.79053506944445,82.5854585264948L108.25575729166667,82.62378767384533L108.26302638888889,82.68040890646078L108.55960555555556,82.69818051581471L108.81838541666667,82.75842496423326L109.87095069444445,82.50289496780992L109.95236458333333,82.33929297102893L110.14281493055556,82.41330117392602L111.03546006944444,82.57947105653342L111.09506666666667,82.6073364508801L111.34803124999999,82.75410280579207L111.37565381944445,82.56538002521287L111.38146909722222,82.28490452269158L111.6591486111111,82.53028907042243L111.78853854166667,82.29757266338018L111.89757499999999,82.36469039704215L112.24649166666667,82.41403385733794L112.55760902777779,82.39206797160415L112.72770590277777,82.02936117444375L113.04173090277777,82.34455005699937L113.14204444444444,82.36272005129943L113.42408541666667,82.62244804616951L113.88349236111111,82.73451574155254L114.02887430555555,82.94600166739728L114.19170208333334,82.98146400065757L114.64093229166666,82.4713176005918L114.76741458333333,82.27768584053263L115.05381701388889,82.34679225647936L115.13086944444444,82.29836303083142L115.56701527777778,82.34327672774828L115.61935277777778,82.32838655497346L115.73275069444445,82.42561039947611L116.29683263888889,82.54629935952849L117.092071875,82.45579442357565L117.35230555555555,82.50708998121809L117.50931805555557,82.34306848309629L118.65783541666667,82.35032413478666L118.6912732638889,82.356854221308L118.69272708333334,82.39591879917721L118.9922138888889,82.42001441925949L119.51413506944444,82.43063797733353L119.91102777777778,82.45126167960015L120.08257847222222,82.48088551164015L120.336996875,80.23973446047614L120.82548020833333,80.68963601442853L120.965046875,80.89542241298567L121.24708784722222,81.09169267168711L121.98998958333334,81.0692109045184L122.13391770833333,80.79453981406657L122.62967013888888,80.85708583265992L122.85646597222222,81.07931474939392L123.04691631944443,81.25719577445453L123.19665972222222,81.17391369700907L123.23445902777779,81.33127232730817L123.64443611111112,81.06358259457737L123.74184201388888,81.24303683511964L124.23032534722223,80.96204565160768L124.35535381944445,81.18484108644692L124.3640767361111,80.88754447780224L124.68682465277779,80.76379003002201L124.79731493055556,80.8072860270198L124.82639131944445,80.84643242431783L124.83656805555556,80.78210168188605L125.11860902777778,81.01182901369744L126.25694965277778,80.75395861232771L126.97513645833334,80.80950025109493L127.22083194444444,80.69355022598545L127.22373958333334,80.73300770338687L127.37057534722221,80.5140819330482L127.72821493055555,80.60467373974339L130.3727125,80.36539386576905L131.04146944444443,80.59254197919215L131.05600763888887,80.52041278127294L131.5197760416667,80.21212150314564L131.61427430555554,79.81297185283107L131.6448045138889,79.47586216754797L131.73494131944443,79.69240095079316L131.93120694444445,79.40053585571385L131.94719895833333,79.30379477014246L132.00535173611112,79.44904029312822L133.1887607638889,78.8053862638154L133.34141180555557,78.50266013743385L133.5493079861111,78.48464412369047L133.63653715277778,78.51267971132143L133.89967847222223,78.75916174018928L134.33873194444445,78.73762056617035L134.84320729166666,78.41954600955333L134.9362517361111,78.67534140859797L134.97841250000002,78.87236976773818L135.38257430555558,79.02757029096436L135.65879999999999,78.90175076186792L136.34645659722221,78.92126318568114L136.67501979166667,79.01626186711303L136.78551006944443,78.84732318040173L137.1954871527778,78.67315336236156L137.33796145833335,78.83721302612543L137.647625,78.7414917235129L137.87732847222222,78.05796755116161L138.14046979166667,78.09548329604546L138.40651875,78.0960599664409L138.6056920138889,78.09657896979682L139.0011309027778,78.09704607281714L139.33841701388891,78.17490396553544L139.48670659722222,78.43303856898189L139.8981375,78.4109222120837L140.71663784722222,78.21401749087534L140.96669479166667,78.22486574178781L141.141153125,78.04656666760904L141.23419756944443,76.66922250084814L141.23710520833333,76.67967525076332L141.39121006944444,76.86608272568698L141.47843923611111,76.87897445311827L142.31002395833332,77.03438950780645L142.3289236111111,77.19638805702581L142.4132451388889,77.28687425132324L142.70110138888887,77.36831182619092L142.83630659722223,77.47479314357183L144.25378055555555,77.61487632921467L144.39189340277778,77.6967011962932L144.66521145833332,77.81459357666387L144.75970972222223,78.10875921899748L145.09699583333332,78.14119579709774L145.21039374999998,78.09295121738796L145.96347222222224,78.12696859564917L146.02307881944444,78.20183423608427L147.029121875,78.22496331247584L147.081459375,78.29002948122826L147.2093954861111,78.30433903310545L147.50742847222224,78.20659262979488L147.62228020833334,78.1296833668154L147.97555833333334,78.12684003013388L148.05842604166665,78.1132185271205L148.06714895833332,78.13414667440846L148.86965729166667,77.9870445069676L149.00340868055554,78.03165255627084L149.43083159722224,77.81736230064377L149.6227357638889,77.83468857057937L150.19408680555557,77.76178221352146L150.34528402777778,77.72935399216931L150.41070590277778,76.17354359295237L150.54445729166667,75.24900173365714L151.0678322916667,74.19566406029143L151.97646944444446,74.47559765426229L152.71064826388888,72.94647538883606L153.04066527777778,71.66982784995245L153.4477347222222,70.6425325649572L153.94348715277778,69.54096680846149L154.16301388888888,68.50530762761532L154.61515173611113,67.8387143648538L154.6413204861111,67.34940542836841L154.65149722222225,66.79840238553157L155.2940854166667,66.33568714697842L156.38008854166668,65.83074343228057L156.7813427083333,64.98910658905251L157.20731180555555,64.39757093014727L157.33379409722224,63.57756383713253L157.92113715277776,63.21568245341926L158.34710625,62.55811420807734L158.57099444444444,60.81580278726959L158.92281874999998,60.70797250854264L158.95480277777776,60.50030025768838L159.5217923611111,60.31339523191954L159.67444340277777,60.36643070872756L159.7238732638889,60.259287637854825L159.81546388888887,60.40623387406934L160.0117295138889,60.08492298666242L160.048075,58.55674318799616L160.0771513888889,58.885006369196546L160.47840555555555,59.180443232276886L160.62087986111112,59.5790864090492L160.70956284722223,59.51749026814427L160.7808,58.15667874132984L160.82877604166669,58.58026086719687L161.0075958333333,58.87298478047717L161.18932326388887,59.235998802429435L161.264921875,58.1135239221865L161.65309166666668,58.39760902996785L161.94094791666666,58.67541062697106L162.10668333333334,58.63780706427394L162.23752708333333,58.88052635784655L163.45292013888889,58.888786222061896L163.57940243055555,57.84528259985571L163.94431111111112,58.145129339870124L164.3891798611111,58.326491405883104L165.11318194444445,58.47865476529479L166.1221326388889,58.67091428876529L166.22535381944445,58.74438535988878L167.18632847222221,58.66669682389991L167.37677881944444,58.61890214150989L167.47709236111112,57.3147619273589L167.51779930555554,55.975098234623005L168.68230868055556,55.18977591116071L170.03436076388888,53.49842332004462L170.35420104166667,52.44083098804016L171.04767291666664,51.898310389236144L171.48963402777778,51.321541850312514L171.90833402777776,50.680762665281264L172.0013784722222,51.27668639875313L172.2368972222222,50.75101775887782L172.308134375,50.410665982990054L172.33866458333333,47.69272438469105L173.22258680555555,47.082951946221925L173.70380104166665,45.372594251599736L175.23321909722225,45.404147326439755L175.5196215277778,43.82848259379577L175.84673090277778,43.981259334416194L176.11423368055554,42.204945900974565L177.03595520833332,40.44032631087711L177.13481493055556,41.0204186797894L177.21768263888887,41.25487681181045L177.66691284722222,41.39951413062943L178.7558236111111,41.927937717566465L179.83019618055556,40.401206445809834L180.37973993055556,38.89439830122882L180.49749930555558,37.74845847110595L180.708303125,36.849862623995335L181.03686631944444,35.565438861595794L181.82774409722222,34.520082475436226L182.0138329861111,35.39351172789259L182.35257291666665,36.03578555510336L182.4514326388889,35.507581999593015L183.927059375,34.99901129963371L184.23817673611111,34.39748516967035L185.0886611111111,33.92248665270333L185.314003125,33.638800487432974L186.69367777777776,34.478670438689676L187.054225,34.227865894820724L187.40750312499998,33.891516805338654L188.5618357638889,33.38967762480476L188.78572395833334,32.71677236232429L188.8046236111111,32.50940762609187L189.02269652777778,31.415654363482673L189.10701805555556,31.216713927134407L189.15644791666668,31.281042534420948L189.40650486111113,31.018125780978863L189.4166815972222,31.069125702880967L190.2279128472222,30.838463132592892L190.56229131944445,30.82999181933357L190.81670972222224,30.700680137400212L192.196384375,30.064362123660175L193.09484479166667,30.221800911294196L193.45248437499998,29.95418332016476L193.975859375,29.868202488148285L194.70567673611112,29.757632239333446L194.75946805555557,29.77980651540011L195.68409722222222,29.456825863860104L195.82947916666666,29.464830777474077L196.5345815972222,29.339285199726703L196.60727256944443,28.89441917975401L196.71049375,29.013977261778592L197.88081840277778,29.110517035600736L198.1308753472222,29.14209033204068L198.39547048611112,29.10413129883659L199.04678159722224,29.081030668952934L199.3099229166667,29.027052602057637L199.40151354166667,28.823597341851865L199.63557847222222,28.684737607666676L200.1356923611111,28.548701346900003L200.42645625,28.415206212209995L200.75065798611112,28.472060590988974L201.63894166666665,28.29091703189013L201.6796486111111,28.40445032870113L201.7450704861111,28.473442795830948L202.14777847222223,27.949223516247855L202.81508159722222,27.986301164623086L203.11747604166666,28.086046048160796L203.919984375,27.611628943344698L204.53494999999998,27.7156535490102L204.88386666666668,27.86458819410919L205.01034895833334,28.053941874698268L205.18480729166666,28.10267268722842L205.61513784722223,28.1575929185056L206.0629142361111,27.753458626655032L206.32314791666667,28.020300263989526L206.4423611111111,27.994957737590568L206.68660277777778,27.96108696383149L207.33500625,27.85316576744836L207.56180208333333,27.833474190703498L208.14478368055555,28.092314271633143L208.29598090277776,27.89383284446984L208.70305034722222,28.25726206002284L208.85860902777776,28.241410854020558L209.2744013888889,28.393082268618514L209.5767958333333,28.308336541756688L209.94606597222221,28.16569038758098L210.05801006944444,28.324933848822894L210.10307847222222,28.23594046394058L210.14087777777777,28.399221417546528L210.71513645833335,28.535111775791876L210.74421284722223,28.557850598212667L210.78782743055555,28.257503038391405L211.26613402777778,28.230565234552273L212.05265034722223,28.062508711096996L212.30125347222221,27.53513283998734L212.81154409722222,27.80168205598858L212.88132743055556,27.333576350389734L213.45413229166667,27.520718715350768L213.56026111111112,27.19133434381567L214.6186416666667,27.37057590943408L215.29612152777779,27.20001831849069L215.37608159722222,27.135016486641604L215.79623541666666,26.87738983797746L215.82967326388888,27.076963354179696L216.4780767361111,27.356142018761716L216.5653059027778,27.319777816885562L217.1119420138889,27.375550035196994L217.8868277777778,27.33724503167727L218.79255729166667,27.47977052850959L219.20108055555554,27.442105975658592L219.47439861111113,27.474582878092747L219.7055559027778,27.37106209028343L220.4484576388889,27.300018381255114L221.16082916666664,27.424141543129622L221.64495104166667,27.30353988881666L221.95461458333332,27.128623399934952L222.49688923611112,27.059698559941495L222.84580590277776,26.710041203947327L223.06242500000002,26.937412083552573L223.46367916666665,26.35660837519731L223.8896482638889,26.077260037677576L224.0568375,25.892221533909833L224.70233333333334,25.91374938051885L224.71687152777778,25.99949944246697L225.70983020833336,26.087736998220265L226.01077083333334,26.388400798398237L226.36259513888888,26.072685718558375L226.97465312499997,26.485479646702544L227.18254930555557,26.3591816820323L228.0940940972222,26.38932601382905L228.1231704861111,26.449643412446164L228.2336607638889,26.64774157120155L228.714875,26.615842414081413L229.32111770833333,26.476508172673277L229.7950628472222,26.528107355405922L229.9418986111111,26.862171619865308L230.08437291666667,26.255704457878807L230.22103194444443,26.16344651209093L230.31407638888888,26.567164360881804L230.90432708333333,26.74244792479365L231.5483690972222,26.80064063231424L231.64432118055555,26.853014069082832L232.22730277777777,26.966525162174577L232.25492534722224,27.212497645957086L232.55731979166669,26.80331038136137L232.60965729166668,27.043479343225243L233.76398993055554,26.850318908902693L234.20158958333334,26.28928701801243L234.32225659722224,26.02773331621117L234.33534097222224,25.748084984590093L234.66971944444444,25.56277648613107L235.28468506944446,25.55087383751794L236.37795729166666,25.805661453766163L237.0365375,26.178782808389542L237.68494097222222,26.204842027550598L238.10073333333335,26.11767032479551L238.27955312499998,26.337903292315957L238.29845277777778,26.071487963084365L238.5906704861111,26.340589166775942L238.96430208333334,26.162405250098317L239.02100104166666,26.466664725088492L239.07915381944446,26.707310752579616L239.41934756944443,26.78007967732168L239.535653125,26.790259209589493L240.4980815972222,26.76623328863053L240.76122291666667,27.1539224597675L241.19300729166665,27.17096771379076L242.13362847222223,27.11993344241165L242.34007083333336,27.361627598170486L242.5159829861111,26.93752733835342L242.8489076388889,26.777087104518074L243.18183229166667,26.19019089406629L243.78225972222222,26.314671804659667L243.96980243055555,26.61476712419369L244.57895277777777,26.431290411774285L245.06598229166667,26.465286370596885L245.2011875,26.617570233537208L245.64751006944445,26.223625710183455L245.71002430555555,26.499638139165143L245.7928920138889,26.781236825248612L246.30899791666667,26.946175642723745L246.70007534722222,27.03930807845134L246.7087982638889,27.167377270606238L246.90942534722222,27.3600770435456L246.9515861111111,27.500319339191037L247.31067951388889,27.117662405271915L247.83986979166667,27.293208664744725L248.25275451388887,27.28526279827028L248.48391180555555,27.39979901844322L248.86917395833333,27.248444116598904L248.94913402777777,27.410912204938995L250.055490625,27.4022584844451L250.61957256944444,27.50509513600059L250.67481770833334,27.409585622400527L250.78676180555556,27.699752060160506L251.20255416666666,27.629026854144428L251.2229076388889,27.675999168729987L251.44388819444444,27.78464925185699L251.8902107638889,28.01518432667129L252.10392222222222,27.746978394004145L252.42812395833334,28.025530554603733L252.69417291666667,28.02178999914335L253.01692083333333,28.018423499229016L253.74819201388888,27.893706149306126L253.80052951388888,27.9363355343755L253.81797534722224,27.84195198093795L253.82815208333332,27.856569282844163L253.85722847222223,27.880787354559743L253.86158993055557,27.460083619103756L253.8674052083333,27.52395025719335L253.86885902777777,27.47080523147403L253.8790357638889,27.754849708326617L253.90375069444443,28.13217723749392L253.91974270833336,28.23945951374455L253.93573472222224,28.4687635623701" style="fill: none;" fill="none"></path></g></g></g></g><g opacity="0.2"><g><g><g><path stroke="rgb(255, 112, 67)" stroke-width="2px" d="M29.192694444444445,152.551875L29.352614583333335,153.215625L29.406405902777777,152.330625L29.62884027777778,150.118125L29.63320173611111,153.436875L29.643378472222224,152.22L29.816382986111112,152.22L29.832375000000003,151.99875L29.993748958333335,152.109375L30.04608645833333,151.99875L30.278697569444446,151.55625L30.383372569444447,152.22L30.419718055555556,151.99875L30.615983680555555,152.551875L30.76427326388889,151.99875L30.880578819444445,150.8925L30.957631250000002,152.551875L30.975077083333332,152.109375L31.072482986111112,152.22L31.20914201388889,152.109375L31.25566423611111,152.44125L31.299278819444446,152.22L31.303640277777777,151.55625L31.329809027777777,152.22L31.43303020833333,152.330625L31.590042708333332,152.22L31.623480555555556,152.551875L31.728155555555556,153.32625L31.80084652777778,152.330625L31.85754548611111,150.0075L32.03055,150.0075L32.126502083333335,151.666875L32.20500833333333,151.335L32.247169097222226,151.888125L32.32422152777778,152.22L32.335852083333336,151.99875L32.53211770833334,152.330625L32.60771631944444,151.7775L32.670230555555555,151.99875L32.75745972222222,151.888125L32.76182118055556,152.109375L32.84759652777778,151.7775L32.98425555555555,152.22L33.11364548611111,151.335L33.215412847222225,152.44125L33.421855208333334,151.7775L33.43930104166667,153.32625L33.54542986111111,151.888125L34.05135902777778,153.215625L34.05572048611111,152.44125L34.24617083333333,151.003125L34.27379340277778,151.99875L34.278154861111105,151.55625L34.28687777777778,150.8925L34.3857375,153.105L34.49186631944445,152.330625L34.53111944444444,150.781875L34.534027083333335,153.215625L34.67213993055555,151.224375L34.884397569444445,153.32625L34.9091125,152.109375L35.11991631944444,151.888125L35.157715625,152.6625L35.18533819444444,151.666875L35.307459027777774,153.105L35.36415798611111,152.994375L35.369973263888895,152.22L35.4324875,151.335L35.48627881944444,153.215625L35.56187743055556,151.888125L35.67818298611111,152.88375L35.72325138888889,153.105L35.81338819444445,152.88375L35.875902430555556,150.781875L35.919517013888886,152.994375L35.968946875,150.8925L35.99656944444444,151.11375L36.01983055555556,151.888125L36.02855347222223,151.7775L36.10124444444445,151.888125L36.20010416666667,151.888125L36.41090798611111,152.22L36.43562291666667,152.109375L36.58100486111111,152.994375L36.642065277777775,151.888125L36.66387256944445,153.215625L36.6885875,152.44125L36.717663888888886,150.8925L36.77581666666667,151.666875L36.91538333333334,151.7775L36.96626701388889,150.560625L37.0026125,150.67125L37.02732743055556,152.994375L37.084026388888894,151.224375L37.105833680555556,152.109375L37.120371875000004,151.445625L37.18433993055555,149.34375L37.22940833333334,151.666875L37.54779479166666,153.215625L37.604493749999996,153.32625L37.64520069444444,152.551875L37.65246979166667,151.888125L37.74551423611111,151.003125L37.83710486111111,149.675625L37.896711458333336,152.109375L37.953410416666664,150.67125L38.005747916666664,152.773125L38.06535451388889,151.11375L38.17729861111111,150.45L38.21219027777778,151.666875L38.21655173611111,151.55625L38.245628125,151.99875L38.27761215277778,151.55625L38.290696527777776,151.666875L38.38228715277778,151.99875L38.470970138888894,152.773125L38.48405451388889,151.888125L38.53493819444444,149.675625L38.55383784722222,150.560625L38.5727375,151.445625L38.61344444444444,152.330625L38.66287430555556,151.445625L38.715211805555555,152.22L38.716665625,149.675625L38.75882638888889,148.790625L39.087389583333334,150.560625L39.12809652777778,150.560625L39.23422534722222,151.445625L39.57732673611111,151.003125L39.62530277777778,149.565L39.64565625,151.445625L39.73433923611111,152.88375L39.82592986111111,151.11375L39.908797569444445,151.445625L39.961135069444445,152.88375L40.041095138888885,150.45L40.06871770833334,151.55625L40.13268576388889,151.335L40.17339270833333,150.67125L40.327497569444446,149.454375L40.365296875,149.1225L40.50195590277778,150.8925L40.519401736111114,150.67125L40.72293645833333,151.003125L40.74765138888889,149.233125L40.81452708333333,150.45L40.92501736111111,151.666875L40.94682465277778,151.445625L41.00788506944444,149.565L41.034053819444445,150.560625L41.10529097222223,149.1225L41.303010416666666,150.118125L41.35098645833333,149.454375L41.41640833333334,149.454375L41.52544479166667,149.1225L41.58505138888889,136.95375L41.698449305555556,149.34375L41.904891666666664,149.34375L42.011020486111114,149.34375L42.240723958333334,149.1225L42.354121875,151.224375L42.37738298611111,151.224375L42.39482881944445,151.335L42.484965625,150.339375L42.53003402777778,149.1225L42.585279166666666,149.454375L42.660877777777785,151.224375L42.67832361111111,149.233125L42.82225173611111,149.1225L42.90075798611111,149.233125L42.980718055555556,137.285625L42.98507951388889,148.68L43.11883090277777,150.118125L43.188614236111114,149.1225L43.44303263888889,149.011875L43.74542708333333,136.843125L43.754149999999996,151.003125L43.82974861111111,138.613125L43.860278819444446,137.175L43.86464027777778,133.96687500000002L44.10888194444444,134.9625L44.30950902777778,136.843125L44.313870486111114,138.613125L44.454890972222216,136.621875L44.470882986111114,149.011875L44.55520451388889,134.52L44.9579125,136.400625L44.992804166666666,136.621875L45.13673229166666,136.843125L45.27920659722222,137.39625L45.33445173611111,136.06875L45.379520138888886,134.188125L45.635392361111116,136.843125L45.74588263888889,136.179375L45.850557638888894,136.73250000000002L45.92324861111111,136.29L46.07589965277778,136.06875L46.139867708333334,134.52L46.20383576388889,136.29L46.318687499999996,135.62625L46.35939444444445,136.51125L46.392832291666664,135.294375L46.44953125,135.62625L46.46697708333333,135.18375L46.69668055555555,135.8475L46.908938194444445,135.62625L47.12119583333334,136.179375L47.14445694444445,135.62625L47.14881840277778,136.29L47.18952534722222,136.29L47.19388680555556,136.29L47.56024930555555,136.06875L47.61985590277778,135.62625L47.65183993055555,135.62625L47.72598472222222,135.8475L47.771053124999995,135.8475L47.81466770833333,136.621875L47.877181944444445,136.179375L47.93388090277777,136.29L48.307512499999994,135.958125L48.31768923611111,135.8475L48.46888645833334,136.29L48.59100729166667,136.179375L48.65061388888889,136.06875L48.68841319444444,136.06875L48.70731284722223,135.62625L48.88031736111111,135.62625L48.974815625000005,135.405L49.20597291666667,135.294375L49.210334375,135.515625L49.236503125000006,135.62625L49.59268888888889,136.06875L49.59414270833334,135.8475L49.65665694444445,135.073125L49.735163194444446,135.62625L49.860191666666665,135.62625L49.864553125,135.62625L49.98812777777778,135.62625L50.098618055555555,135.62625L50.13350972222223,135.736875L50.29197604166667,135.62625L50.395197222222215,135.62625L50.40537395833333,135.62625L50.44317326388889,135.515625L50.58128611111111,135.515625L50.7150375,135.736875L50.73684479166666,135.515625L50.80372048611111,135.515625L50.867688541666666,135.515625L50.925841319444444,135.62625L50.956371527777776,135.515625L51.03633159722222,135.515625L51.06686180555556,135.515625L51.19625173611111,135.62625L51.29511145833334,135.515625L51.37507152777778,135.515625L51.39833263888889,135.62625L51.49573854166667,135.405L51.62512847222222,134.851875L51.67746597222222,135.405L51.700727083333334,135.515625L51.72689583333333,135.515625L51.74434166666667,135.073125L51.78650243055556,135.515625L51.86937013888889,135.515625L52.010390625,135.18375L52.186302777777776,135.405L52.22555590277778,135.515625L52.247363194444446,135.515625L52.30551597222222,135.405L52.39129131944444,135.073125L52.40728333333334,135.294375L52.47415902777777,135.515625L52.481428125,135.405L52.54394236111111,133.41375L52.74893090277778,135.073125L52.92048159722222,135.294375L53.03678715277778,135.18375L53.14582361111111,133.303125L53.18216909722222,135.515625L53.33772777777777,135.515625L53.445310416666665,135.073125L53.67356006944445,135.515625L53.84656458333333,133.303125L53.88291006944445,133.303125L54.051553125000005,135.62625L54.14168993055555,135.515625L54.214380902777776,135.515625L54.288525694444445,135.515625L54.473160763888885,134.9625L54.53131354166667,135.073125L54.60545833333333,135.294375L54.647619097222226,135.515625L54.65488819444444,135.515625L55.17390173611111,135.515625L55.280030555555555,135.515625L55.40796666666667,135.62625L55.474842361111115,135.073125L55.578063541666666,133.85625L55.592601736111114,135.515625L55.62022430555556,135.405L55.71472256944444,135.515625L55.78305208333333,133.635L55.825212847222225,134.851875L55.84120486111111,134.188125L56.08980798611111,134.409375L56.10143854166667,135.515625L56.29915798611111,134.74125L56.32241909722222,135.18375L56.34422638888889,133.85625L56.58846805555555,135.073125L56.66552048611111,134.851875L56.69750451388889,134.9625L56.78909513888888,135.515625L56.835617361111105,135.294375L56.905400694444445,133.41375L57.04932881944445,135.073125L57.11038923611111,135.073125L57.14237326388889,134.9625L57.20052604166666,134.9625L57.212156597222226,135.515625L57.308108680555556,134.188125L57.597418749999996,134.851875L57.85765243055556,120.02812499999999L57.860560069444446,134.851875L57.89981319444445,134.630625L57.94052013888889,119.0325L57.99285763888889,134.851875L58.00012673611111,134.851875L58.12515520833333,135.18375L58.16586215277778,134.851875L58.29525208333333,134.851875L58.30688263888889,134.9625L58.60200798611111,120.36L58.63689965277778,134.9625L58.78518923611111,117.26249999999999L58.799727430555556,120.02812499999999L59.128290625000005,119.80687499999999L59.237327083333334,101.775L59.28239548611111,119.364375L59.31001805555556,117.04124999999999L59.32601006944444,118.81125L59.48302256944445,118.700625L59.63712743055556,134.851875L59.73162569444444,102.549375L59.74616388888889,119.475L59.783963194444446,134.9625L59.86973854166667,133.85625L60.06018888888889,116.709375L60.148871875,117.04124999999999L60.19103263888889,117.15187499999999L60.20266319444445,117.705L60.28698472222222,119.0325L60.36839861111111,134.74125L60.52977256944444,134.851875L60.62863229166666,134.74125L60.91939618055555,117.15187499999999L60.997902430555555,117.48375L61.04733229166667,115.27125000000001L61.1302,117.26249999999999L61.18108368055555,116.488125L61.229059722222225,116.59875L61.29884305555556,117.92625000000001L61.32210416666667,119.0325L61.33518854166667,119.475L61.341003819444445,117.26249999999999L61.51691597222222,116.930625L61.56053055555556,117.26249999999999L61.653575000000004,134.851875L62.08972083333333,116.930625L62.323785763888885,116.59875L62.44736041666667,119.143125L62.645079861111114,119.25375L62.703232638888885,116.488125L62.74684722222222,102.66L62.97945833333333,116.709375L63.025980555555556,87.17250000000001L63.078318055555556,118.921875L63.393796875,89.274375L63.59587777777778,135.405L63.77469756944445,102.43875L64.205028125,102.991875L64.68042708333334,89.385L64.68333472222223,101.885625L64.72549548611111,103.655625L64.94066076388889,103.9875L64.99154444444444,103.76625L65.08168125,117.705L65.38407569444445,87.06187499999999L65.61232534722222,102.549375L65.62686354166668,102.88125L65.90745069444445,103.434375L66.18222256944445,104.20875L66.35231944444443,104.319375L66.3610423611111,104.761875L66.41919513888888,102.549375L66.47589409722222,104.43L66.58783819444444,104.43L67.35545486111111,86.28750000000001L67.37435451388889,102.770625L67.62731909722221,101.221875L67.67820277777777,104.43L67.80032361111111,99.78375L67.88319131944445,86.619375L68.22047743055556,87.28312500000001L68.44291180555557,86.50875L68.69733020833334,86.95124999999999L68.732221875,86.06625L68.77729027777778,87.17250000000001L68.84852743055556,88.389375L69.38062534722222,85.513125L69.43150902777778,88.72125L69.45477013888889,87.39375L69.66993541666666,86.28750000000001L69.88510069444445,87.725625L69.94179965277779,86.619375L70.27763194444444,84.849375L70.37067638888888,87.28312500000001L70.71377777777776,88.610625L70.73413124999999,88.831875L70.80972986111111,88.610625L70.93766597222222,88.72125L71.06414826388888,83.63250000000001L71.23279131944444,86.50875L71.79687326388888,88.72125L71.98732361111111,86.39812500000001L72.04111493055555,86.28750000000001L72.26064166666667,87.28312500000001L72.46272256944445,86.50875L72.64445,88.72125L72.79855486111111,87.83624999999999L73.35682152777777,87.615L73.55308715277778,88.9425L73.56617152777778,88.831875L73.64322395833332,87.28312500000001L73.88310416666667,88.5L74.21602881944445,88.610625L74.48062395833334,88.72125L74.8920548611111,88.72125L75.29040138888888,85.07062499999999L75.36309236111111,86.73L75.59134201388889,88.72125L75.86466006944445,88.831875L75.8791982638889,87.17250000000001L75.89809791666666,88.27875L75.91118229166668,87.504375L76.21648437500001,86.840625L76.9724704861111,87.28312500000001L76.975378125,88.610625L77.00300069444444,86.176875L77.2472423611111,86.50875L77.65431180555555,87.504375L77.8156857638889,88.831875L78.13261840277778,86.39812500000001L78.13407222222222,88.72125L78.25328541666666,88.610625L78.38122152777778,86.840625L78.38849062499999,88.72125L78.42338229166667,87.615L78.97147222222222,88.9425L79.22152916666667,87.06187499999999L79.657675,87.615L79.67512083333334,88.389375L79.93099305555556,88.610625L79.93971597222223,88.5L80.15633506944444,86.39812500000001L80.24501805555556,88.610625L80.36859270833332,86.39812500000001L80.47762916666666,86.28750000000001L80.55468159722221,86.176875L81.14783993055556,86.39812500000001L81.17837013888888,86.39812500000001L81.188546875,86.39812500000001L81.2278,89.053125L81.57526284722222,86.95124999999999L82.27018854166667,86.619375L82.86189305555556,86.176875L83.00436736111112,88.9425L83.15265694444444,87.83624999999999L83.25733194444445,88.610625L83.81123715277778,86.06625L83.97842638888888,87.615L84.13689270833333,86.39812500000001L84.22412187500001,88.389375L84.27064409722223,85.955625L84.30408194444443,87.39375L84.36805000000001,88.72125L84.5410545138889,87.615L84.58757673611112,88.610625L85.01645347222222,86.50875L85.04262222222222,86.50875L85.34210902777777,88.610625L85.39444652777779,88.610625L85.39735416666666,86.73L85.68084895833334,85.291875L86.17514756944445,87.504375L86.23039270833334,86.39812500000001L86.28999930555555,86.176875L86.40485104166666,86.39812500000001L86.82645868055556,86.50875L87.23062048611112,85.4025L88.00550625,86.619375L88.61320277777777,84.96L88.61756423611111,86.28750000000001L88.86616736111111,83.19L88.89815138888889,86.50875L88.92722777777779,84.849375L89.02463368055557,86.176875L89.26451388888889,87.17250000000001L89.31830520833333,86.840625L89.39681145833333,86.619375L89.93763229166667,86.840625L90.30254097222222,84.29624999999999L90.52061388888889,88.168125L90.52497534722222,81.41999999999999L90.70088750000001,86.619375L90.85208472222222,86.95124999999999L91.77235243055554,84.18562499999999L91.84940486111111,85.62375L92.17360659722222,86.06625L92.205590625,85.955625L92.22885173611111,85.62375L92.38004895833333,86.50875L92.41348680555555,84.29624999999999L93.17819583333333,81.53062499999999L93.22181041666667,87.615L93.58962673611111,86.176875L93.64051041666667,82.7475L93.75972361111111,83.300625L94.01414201388889,84.628125L94.40958090277778,86.95124999999999L94.50117152777779,77.548125L94.71633680555556,81.8625L95.05071527777778,80.424375L95.32403333333333,86.73L95.35165590277778,85.845L95.55082916666666,85.845L95.70348020833335,82.96875L96.03495104166666,85.955625L96.39404444444445,83.743125L96.46964305555555,85.62375L97.06134756944444,84.628125L97.11077743055556,81.973125L97.2270829861111,83.52187500000001L97.3375732638889,84.51750000000001L97.5803611111111,79.64999999999999L98.20986493055555,86.28750000000001L98.45846805555556,85.62375L99.14903229166667,76.995L99.22463090277779,87.17250000000001L99.33366736111111,85.4025L99.52557152777779,82.194375L99.77853611111111,85.18124999999999L99.92973333333335,84.18562499999999L100.01987013888889,84.29624999999999L100.25102743055555,83.300625L100.25538888888889,84.075L100.42839340277779,85.62375L100.76131805555556,86.176875L100.97357569444445,81.41999999999999L101.12041145833334,83.85375L101.27160868055554,85.845L101.76445347222221,84.18562499999999L101.85022881944445,75.22500000000001L102.22676805555555,83.63250000000001L102.42157986111111,81.64125000000001L102.44193333333334,83.300625L102.686175,83.63250000000001L103.2618875,83.19L103.35493194444444,79.87125L103.63697291666666,81.973125L103.74310173611111,83.079375L103.89284513888889,81.75187500000001L104.41185868055555,79.981875L104.94831805555555,83.41125L105.18965208333334,83.41125L105.68831215277778,82.7475L105.69267361111112,84.075L106.01106006944444,84.849375L106.0590361111111,82.52625L106.51408159722222,84.18562499999999L106.703078125,83.19L106.80048402777777,80.645625L106.89062083333333,81.64125000000001L106.98948055555556,82.858125L107.07816354166667,83.19L107.79053506944445,80.86687500000001L108.25575729166667,82.96875L108.26302638888889,83.19L108.55960555555556,82.858125L108.81838541666667,83.300625L109.87095069444445,80.203125L109.95236458333333,80.86687500000001L110.14281493055556,83.079375L111.03546006944444,84.075L111.09506666666667,82.858125L111.34803124999999,84.075L111.37565381944445,80.86687500000001L111.38146909722222,79.760625L111.6591486111111,84.73875L111.78853854166667,80.203125L111.89757499999999,82.96875L112.24649166666667,82.858125L112.55760902777779,82.194375L112.72770590277777,78.76499999999999L113.04173090277777,85.18124999999999L113.14204444444444,82.52625L113.42408541666667,84.96L113.88349236111111,83.743125L114.02887430555555,84.849375L114.19170208333334,83.300625L114.64093229166666,77.88L114.76741458333333,80.535L115.05381701388889,82.96875L115.13086944444444,81.8625L115.56701527777778,82.7475L115.61935277777778,82.194375L115.73275069444445,83.300625L116.29683263888889,83.63250000000001L117.092071875,81.64125000000001L117.35230555555555,82.96875L117.50931805555557,80.86687500000001L118.65783541666667,82.41562499999999L118.6912732638889,82.41562499999999L118.69272708333334,82.7475L118.9922138888889,82.636875L119.51413506944444,82.52625L119.91102777777778,82.636875L120.08257847222222,82.7475L120.336996875,60.069374999999994L120.82548020833333,84.73875L120.965046875,82.7475L121.24708784722222,82.858125L121.98998958333334,80.86687500000001L122.13391770833333,78.3225L122.62967013888888,81.41999999999999L122.85646597222222,83.079375L123.04691631944443,82.858125L123.19665972222222,80.424375L123.23445902777779,82.7475L123.64443611111112,78.65437499999999L123.74184201388888,82.858125L124.23032534722223,78.433125L124.35535381944445,83.19L124.3640767361111,78.211875L124.68682465277779,79.64999999999999L124.79731493055556,81.19875L124.82639131944445,81.19875L124.83656805555556,80.203125L125.11860902777778,83.079375L126.25694965277778,78.433125L126.97513645833334,81.309375L127.22083194444444,79.64999999999999L127.22373958333334,81.088125L127.37057534722221,78.54375L127.72821493055555,81.41999999999999L130.3727125,78.211875L131.04146944444443,82.636875L131.05600763888887,79.87125L131.5197760416667,77.4375L131.61427430555554,76.22062500000001L131.6448045138889,76.441875L131.73494131944443,81.64125000000001L131.93120694444445,76.77374999999999L131.94719895833333,78.433125L132.00535173611112,80.75625000000001L133.1887607638889,73.0125L133.34141180555557,75.778125L133.5493079861111,78.3225L133.63653715277778,78.76499999999999L133.89967847222223,80.9775L134.33873194444445,78.54375L134.84320729166666,75.556875L134.9362517361111,80.9775L134.97841250000002,80.645625L135.38257430555558,80.424375L135.65879999999999,77.769375L136.34645659722221,79.096875L136.67501979166667,79.87125L136.78551006944443,77.326875L137.1954871527778,77.105625L137.33796145833335,80.31375L137.647625,77.88L137.87732847222222,71.90625L138.14046979166667,78.433125L138.40651875,78.10125000000001L138.6056920138889,78.10125000000001L139.0011309027778,78.10125000000001L139.33841701388891,78.87562500000001L139.48670659722222,80.75625000000001L139.8981375,78.211875L140.71663784722222,76.441875L140.96669479166667,78.3225L141.141153125,76.441875L141.23419756944443,64.27312500000001L141.23710520833333,76.77374999999999L141.39121006944444,78.54375L141.47843923611111,76.995L142.31002395833332,78.433125L142.3289236111111,78.65437499999999L142.4132451388889,78.10125000000001L142.70110138888887,78.10125000000001L142.83630659722223,78.433125L144.25378055555555,78.87562500000001L144.39189340277778,78.433125L144.66521145833332,78.87562500000001L144.75970972222223,80.75625000000001L145.09699583333332,78.433125L145.21039374999998,77.65875L145.96347222222224,78.433125L146.02307881944444,78.87562500000001L147.029121875,78.433125L147.081459375,78.87562500000001L147.2093954861111,78.433125L147.50742847222224,77.326875L147.62228020833334,77.4375L147.97555833333334,78.10125000000001L148.05842604166665,77.99062500000001L148.06714895833332,78.3225L148.86965729166667,76.663125L149.00340868055554,78.433125L149.43083159722224,75.88874999999999L149.6227357638889,77.99062500000001L150.19408680555557,77.105625L150.34528402777778,77.4375L150.41070590277778,62.171249999999986L150.54445729166667,66.92812500000001L151.0678322916667,64.715625L151.97646944444446,76.995L152.71064826388888,59.184375L153.04066527777778,60.17999999999999L153.4477347222222,61.39687500000001L153.94348715277778,59.62687500000001L154.16301388888888,59.184375L154.61515173611113,61.839375000000004L154.6413204861111,62.94562499999999L154.65149722222225,61.839375000000004L155.2940854166667,62.171249999999986L156.38008854166668,61.286249999999995L156.7813427083333,57.41437499999999L157.20731180555555,59.073750000000004L157.33379409722224,56.197500000000005L157.92113715277776,59.958749999999995L158.34710625,56.639999999999986L158.57099444444444,45.13499999999999L158.92281874999998,59.7375L158.95480277777776,58.63125000000001L159.5217923611111,58.63125000000001L159.67444340277777,60.84375L159.7238732638889,59.29499999999999L159.81546388888887,61.728750000000005L160.0117295138889,57.193124999999995L160.048075,44.803124999999994L160.0771513888889,61.839375000000004L160.47840555555555,61.839375000000004L160.62087986111112,63.166875000000005L160.70956284722223,58.963125000000005L160.7808,45.90937500000001L160.82877604166669,62.39250000000001L161.0075958333333,61.50750000000001L161.18932326388887,62.503125L161.264921875,48.01124999999999L161.65309166666668,60.954375L161.94094791666666,61.175625L162.10668333333334,58.299375L162.23752708333333,61.065L163.45292013888889,58.963125000000005L163.57940243055555,48.453750000000014L163.94431111111112,60.84375L164.3891798611111,59.958749999999995L165.11318194444445,59.848124999999996L166.1221326388889,60.401250000000005L166.22535381944445,59.405624999999986L167.18632847222221,57.9675L167.37677881944444,58.18875L167.47709236111112,45.577499999999986L167.51779930555554,43.918125L168.68230868055556,48.12187499999999L170.03436076388888,38.276250000000005L170.35420104166667,42.922500000000014L171.04767291666664,47.015625L171.48963402777778,46.13062500000001L171.90833402777776,44.91374999999999L172.0013784722222,56.639999999999986L172.2368972222222,46.02000000000001L172.308134375,47.3475L172.33866458333333,23.23124999999999L173.22258680555555,41.595L173.70380104166665,29.979375000000005L175.23321909722225,45.688125000000014L175.5196215277778,29.647500000000008L175.84673090277778,45.35624999999999L176.11423368055554,26.218124999999986L177.03595520833332,24.558750000000003L177.13481493055556,46.24125000000001L177.21768263888887,43.36500000000001L177.66691284722222,42.70124999999999L178.7558236111111,46.68375L179.83019618055556,26.66062500000001L180.37973993055556,25.333124999999995L180.49749930555558,27.435000000000002L180.708303125,28.76249999999999L181.03686631944444,24.00562500000001L181.82774409722222,25.111874999999998L182.0138329861111,43.25437500000001L182.35257291666665,41.81625L182.4514326388889,30.753749999999997L183.927059375,30.421875L184.23817673611111,28.983749999999986L185.0886611111111,29.647500000000008L185.314003125,31.085624999999993L186.69367777777776,42.037499999999994L187.054225,31.970625000000013L187.40750312499998,30.864374999999995L188.5618357638889,28.873124999999987L188.78572395833334,26.66062500000001L188.8046236111111,30.643124999999998L189.02269652777778,21.571875000000006L189.10701805555556,29.42625000000001L189.15644791666668,31.860000000000014L189.40650486111113,28.65187499999999L189.4166815972222,31.52812499999999L190.2279128472222,28.76249999999999L190.56229131944445,30.753749999999997L190.81670972222224,29.53687500000001L192.196384375,24.337500000000006L193.09484479166667,31.638749999999987L193.45248437499998,27.545625L193.975859375,29.094375000000014L194.70567673611112,28.76249999999999L194.75946805555557,29.979375000000005L195.68409722222222,26.55000000000001L195.82947916666666,29.53687500000001L196.5345815972222,28.209374999999994L196.60727256944443,24.890625L196.71049375,30.090000000000003L197.88081840277778,29.979375000000005L198.1308753472222,29.42625000000001L198.39547048611112,28.76249999999999L199.04678159722224,28.873124999999987L199.3099229166667,28.54124999999999L199.40151354166667,26.992500000000007L199.63557847222222,27.435000000000002L200.1356923611111,27.324375000000003L200.42645625,27.213750000000005L200.75065798611112,28.983749999999986L201.63894166666665,26.66062500000001L201.6796486111111,29.42625000000001L201.7450704861111,29.094375000000014L202.14777847222223,23.23124999999999L202.81508159722222,28.319999999999993L203.11747604166666,28.983749999999986L203.919984375,23.341874999999987L204.53494999999998,28.65187499999999L204.88386666666668,29.205000000000013L205.01034895833334,29.758125000000007L205.18480729166666,28.54124999999999L205.61513784722223,28.65187499999999L206.0629142361111,24.116250000000008L206.32314791666667,30.421875L206.4423611111111,27.766875L206.68660277777778,27.65625L207.33500625,26.881875000000008L207.56180208333333,27.65625L208.14478368055555,30.421875L208.29598090277776,26.107499999999987L208.70305034722222,31.52812499999999L208.85860902777776,28.098749999999995L209.2744013888889,29.758125000000007L209.5767958333333,27.545625L209.94606597222221,26.881875000000008L210.05801006944444,29.758125000000007L210.10307847222222,27.435000000000002L210.14087777777777,29.868750000000006L210.71513645833335,29.758125000000007L210.74421284722223,28.76249999999999L210.78782743055555,25.554374999999993L211.26613402777778,27.988124999999997L212.05265034722223,26.55000000000001L212.30125347222221,22.788749999999993L212.81154409722222,30.200625000000002L212.88132743055556,23.12062499999999L213.45413229166667,29.205000000000013L213.56026111111112,24.226875000000007L214.6186416666667,28.983749999999986L215.29612152777779,25.664999999999992L215.37608159722222,26.55000000000001L215.79623541666666,24.558750000000003L215.82967326388888,28.873124999999987L216.4780767361111,29.868750000000006L216.5653059027778,26.992500000000007L217.1119420138889,27.877499999999998L217.8868277777778,26.992500000000007L218.79255729166667,28.76249999999999L219.20108055555554,27.103125000000006L219.47439861111113,27.766875L219.7055559027778,26.439375000000013L220.4484576388889,26.66062500000001L221.16082916666664,28.54124999999999L221.64495104166667,26.218124999999986L221.95461458333332,25.554374999999993L222.49688923611112,26.439375000000013L222.84580590277776,23.563125000000014L223.06242500000002,28.983749999999986L223.46367916666665,21.12937500000001L223.8896482638889,23.563125000000014L224.0568375,24.226875000000007L224.70233333333334,26.107499999999987L224.71687152777778,26.77125000000001L225.70983020833336,26.881875000000008L226.01077083333334,29.094375000000014L226.36259513888888,23.23124999999999L226.97465312499997,30.200625000000002L227.18254930555557,25.222499999999997L228.0940940972222,26.66062500000001L228.1231704861111,26.992500000000007L228.2336607638889,28.430624999999992L228.714875,26.328750000000014L229.32111770833333,25.222499999999997L229.7950628472222,26.992500000000007L229.9418986111111,29.868750000000006L230.08437291666667,20.797500000000014L230.22103194444443,25.333124999999995L230.31407638888888,30.200625000000002L230.90432708333333,28.319999999999993L231.5483690972222,27.324375000000003L231.64432118055555,27.324375000000003L232.22730277777777,27.988124999999997L232.25492534722224,29.42625000000001L232.55731979166669,23.12062499999999L232.60965729166668,29.205000000000013L233.76398993055554,25.111874999999998L234.20158958333334,21.24000000000001L234.32225659722224,23.673750000000013L234.33534097222224,23.23124999999999L234.66971944444444,23.89500000000001L235.28468506944446,25.443749999999994L236.37795729166666,28.098749999999995L237.0365375,29.53687500000001L237.68494097222222,26.439375000000013L238.10073333333335,25.333124999999995L238.27955312499998,28.319999999999993L238.29845277777778,23.673750000000013L238.5906704861111,28.76249999999999L238.96430208333334,24.558750000000003L239.02100104166666,29.205000000000013L239.07915381944446,28.873124999999987L239.41934756944443,27.435000000000002L239.535653125,26.881875000000008L240.4980815972222,26.55000000000001L240.76122291666667,30.643124999999998L241.19300729166665,27.324375000000003L242.13362847222223,26.66062500000001L242.34007083333336,29.53687500000001L242.5159829861111,23.12062499999999L242.8489076388889,25.333124999999995L243.18183229166667,20.908125000000013L243.78225972222222,27.435000000000002L243.96980243055555,29.31562500000001L244.57895277777777,24.78L245.06598229166667,26.77125000000001L245.2011875,27.988124999999997L245.64751006944445,22.678124999999994L245.71002430555555,28.983749999999986L245.7928920138889,29.31562500000001L246.30899791666667,28.430624999999992L246.70007534722222,27.877499999999998L246.7087982638889,28.319999999999993L246.90942534722222,29.094375000000014L246.9515861111111,28.76249999999999L247.31067951388889,23.673750000000013L247.83986979166667,28.873124999999987L248.25275451388887,27.213750000000005L248.48391180555555,28.430624999999992L248.86917395833333,25.88624999999999L248.94913402777777,28.873124999999987L250.055490625,27.324375000000003L250.61957256944444,28.430624999999992L250.67481770833334,26.55000000000001L250.78676180555556,30.31125L251.20255416666666,26.992500000000007L251.2229076388889,28.098749999999995L251.44388819444444,28.76249999999999L251.8902107638889,30.090000000000003L252.10392222222222,25.333124999999995L252.42812395833334,30.5325L252.69417291666667,27.988124999999997L253.01692083333333,27.988124999999997L253.74819201388888,26.77125000000001L253.80052951388888,28.319999999999993L253.81797534722224,26.992500000000007L253.82815208333332,27.988124999999997L253.85722847222223,28.098749999999995L253.86158993055557,23.673750000000013L253.8674052083333,28.098749999999995L253.86885902777777,26.992500000000007L253.8790357638889,30.31125L253.90375069444443,31.52812499999999L253.91974270833336,29.205000000000013L253.93573472222224,30.5325" style="fill: none;" fill="none"></path></g></g></g></g></g></g><g transform="translate(68, 177)" clip-path="url(#clip_1)"><clipPath id="clip_1"><rect width="261" height="23"></rect></clipPath><g><g><line x1="0" y1="0" x2="0" y2="5" style="visibility: inherit;" fill="rgb(0, 0, 0)" stroke="rgb(204, 204, 204)" stroke-width="1px"></line><line x1="29.076388888888886" y1="0" x2="29.076388888888886" y2="5" style="visibility: inherit;" fill="rgb(0, 0, 0)" stroke="rgb(204, 204, 204)" stroke-width="1px"></line><line x1="58.15277777777777" y1="0" x2="58.15277777777777" y2="5" style="visibility: inherit;" fill="rgb(0, 0, 0)" stroke="rgb(204, 204, 204)" stroke-width="1px"></line><line x1="87.22916666666666" y1="0" x2="87.22916666666666" y2="5" style="visibility: inherit;" fill="rgb(0, 0, 0)" stroke="rgb(204, 204, 204)" stroke-width="1px"></line><line x1="116.30555555555554" y1="0" x2="116.30555555555554" y2="5" style="visibility: inherit;" fill="rgb(0, 0, 0)" stroke="rgb(204, 204, 204)" stroke-width="1px"></line><line x1="145.38194444444446" y1="0" x2="145.38194444444446" y2="5" style="visibility: inherit;" fill="rgb(0, 0, 0)" stroke="rgb(204, 204, 204)" stroke-width="1px"></line><line x1="174.45833333333331" y1="0" x2="174.45833333333331" y2="5" style="visibility: inherit;" fill="rgb(0, 0, 0)" stroke="rgb(204, 204, 204)" stroke-width="1px"></line><line x1="203.53472222222223" y1="0" x2="203.53472222222223" y2="5" style="visibility: inherit;" fill="rgb(0, 0, 0)" stroke="rgb(204, 204, 204)" stroke-width="1px"></line><line x1="232.6111111111111" y1="0" x2="232.6111111111111" y2="5" style="visibility: inherit;" fill="rgb(0, 0, 0)" stroke="rgb(204, 204, 204)" stroke-width="1px"></line><line x1="261.6875" y1="0" x2="261.6875" y2="5" style="visibility: inherit;" fill="rgb(0, 0, 0)" stroke="rgb(204, 204, 204)" stroke-width="1px"></line></g><g transform="translate(0, 8)"><text x="0" y="0" dx="0em" dy="0.95em" style="text-anchor: middle; visibility: hidden; font-family: &quot;Helvetica Neue&quot;, sans-serif; font-size: 12px; font-weight: 200;" fill="rgb(50, 49, 63)" stroke="none" stroke-width="1px">-20k</text><text x="29.076388888888886" y="0" dx="0em" dy="0.95em" style="text-anchor: middle; visibility: inherit; font-family: &quot;Helvetica Neue&quot;, sans-serif; font-size: 12px; font-weight: 200;" fill="rgb(50, 49, 63)" stroke="none" stroke-width="1px">0</text><text x="58.15277777777777" y="0" dx="0em" dy="0.95em" style="text-anchor: middle; visibility: hidden; font-family: &quot;Helvetica Neue&quot;, sans-serif; font-size: 12px; font-weight: 200;" fill="rgb(50, 49, 63)" stroke="none" stroke-width="1px">20k</text><text x="87.22916666666666" y="0" dx="0em" dy="0.95em" style="text-anchor: middle; visibility: inherit; font-family: &quot;Helvetica Neue&quot;, sans-serif; font-size: 12px; font-weight: 200;" fill="rgb(50, 49, 63)" stroke="none" stroke-width="1px">40k</text><text x="116.30555555555554" y="0" dx="0em" dy="0.95em" style="text-anchor: middle; visibility: hidden; font-family: &quot;Helvetica Neue&quot;, sans-serif; font-size: 12px; font-weight: 200;" fill="rgb(50, 49, 63)" stroke="none" stroke-width="1px">60k</text><text x="145.38194444444446" y="0" dx="0em" dy="0.95em" style="text-anchor: middle; visibility: inherit; font-family: &quot;Helvetica Neue&quot;, sans-serif; font-size: 12px; font-weight: 200;" fill="rgb(50, 49, 63)" stroke="none" stroke-width="1px">80k</text><text x="174.45833333333331" y="0" dx="0em" dy="0.95em" style="text-anchor: middle; visibility: hidden; font-family: &quot;Helvetica Neue&quot;, sans-serif; font-size: 12px; font-weight: 200;" fill="rgb(50, 49, 63)" stroke="none" stroke-width="1px">100k</text><text x="203.53472222222223" y="0" dx="0em" dy="0.95em" style="text-anchor: middle; visibility: inherit; font-family: &quot;Helvetica Neue&quot;, sans-serif; font-size: 12px; font-weight: 200;" fill="rgb(50, 49, 63)" stroke="none" stroke-width="1px">120k</text><text x="232.6111111111111" y="0" dx="0em" dy="0.95em" style="text-anchor: middle; visibility: hidden; font-family: &quot;Helvetica Neue&quot;, sans-serif; font-size: 12px; font-weight: 200;" fill="rgb(50, 49, 63)" stroke="none" stroke-width="1px">140k</text><text x="261.6875" y="0" dx="0em" dy="0.95em" style="text-anchor: middle; visibility: hidden; font-family: &quot;Helvetica Neue&quot;, sans-serif; font-size: 12px; font-weight: 200;" fill="rgb(50, 49, 63)" stroke="none" stroke-width="1px">160k</text></g><line x1="0" y1="0" x2="261.6875" y2="0" fill="rgb(0, 0, 0)" stroke="rgb(204, 204, 204)" stroke-width="1px"></line></g></g></g></g></svg>