<svg viewBox="0 0 330 200" xmlns="http://www.w3.org/2000/svg"><g><g><g><g><g><line x1="68.3125" y1="177" x2="63.3125" y2="177" style="visibility: inherit;" fill="rgb(0, 0, 0)" stroke="rgb(204, 204, 204)" stroke-width="1px"></line><line x1="68.3125" y1="157.33333333333334" x2="63.3125" y2="157.33333333333334" style="visibility: inherit;" fill="rgb(0, 0, 0)" stroke="rgb(204, 204, 204)" stroke-width="1px"></line><line x1="68.3125" y1="137.66666666666669" x2="63.3125" y2="137.66666666666669" style="visibility: inherit;" fill="rgb(0, 0, 0)" stroke="rgb(204, 204, 204)" stroke-width="1px"></line><line x1="68.3125" y1="118" x2="63.3125" y2="118" style="visibility: inherit;" fill="rgb(0, 0, 0)" stroke="rgb(204, 204, 204)" stroke-width="1px"></line><line x1="68.3125" y1="98.33333333333334" x2="63.3125" y2="98.33333333333334" style="visibility: inherit;" fill="rgb(0, 0, 0)" stroke="rgb(204, 204, 204)" stroke-width="1px"></line><line x1="68.3125" y1="78.66666666666666" x2="63.3125" y2="78.66666666666666" style="visibility: inherit;" fill="rgb(0, 0, 0)" stroke="rgb(204, 204, 204)" stroke-width="1px"></line><line x1="68.3125" y1="59" x2="63.3125" y2="59" style="visibility: inherit;" fill="rgb(0, 0, 0)" stroke="rgb(204, 204, 204)" stroke-width="1px"></line><line x1="68.3125" y1="39.33333333333334" x2="63.3125" y2="39.33333333333334" style="visibility: inherit;" fill="rgb(0, 0, 0)" stroke="rgb(204, 204, 204)" stroke-width="1px"></line><line x1="68.3125" y1="19.666666666666686" x2="63.3125" y2="19.666666666666686" style="visibility: inherit;" fill="rgb(0, 0, 0)" stroke="rgb(204, 204, 204)" stroke-width="1px"></line><line x1="68.3125" y1="0" x2="63.3125" y2="0" style="visibility: inherit;" fill="rgb(0, 0, 0)" stroke="rgb(204, 204, 204)" stroke-width="1px"></line></g><g transform="translate(58.3125, 0)"><text x="0" y="177" dx="0em" dy="0.3em" style="text-anchor: end; visibility: hidden; font-family: &quot;Helvetica Neue&quot;, sans-serif; font-size: 12px; font-weight: 200;" fill="rgb(50, 49, 63)" stroke="none" stroke-width="1px">-5e+3</text><text x="0" y="157.33333333333334" dx="0em" dy="0.3em" style="text-anchor: end; visibility: inherit; font-family: &quot;Helvetica Neue&quot;, sans-serif; font-size: 12px; font-weight: 200;" fill="rgb(50, 49, 63)" stroke="none" stroke-width="1px">0</text><text x="0" y="137.66666666666669" dx="0em" dy="0.3em" style="text-anchor: end; visibility: hidden; font-family: &quot;Helvetica Neue&quot;, sans-serif; font-size: 12px; font-weight: 200;" fill="rgb(50, 49, 63)" stroke="none" stroke-width="1px">5e+3</text><text x="0" y="118" dx="0em" dy="0.3em" style="text-anchor: end; visibility: inherit; font-family: &quot;Helvetica Neue&quot;, sans-serif; font-size: 12px; font-weight: 200;" fill="rgb(50, 49, 63)" stroke="none" stroke-width="1px">1e+4</text><text x="0" y="98.33333333333334" dx="0em" dy="0.3em" style="text-anchor: end; visibility: hidden; font-family: &quot;Helvetica Neue&quot;, sans-serif; font-size: 12px; font-weight: 200;" fill="rgb(50, 49, 63)" stroke="none" stroke-width="1px">1.5e+4</text><text x="0" y="78.66666666666666" dx="0em" dy="0.3em" style="text-anchor: end; visibility: inherit; font-family: &quot;Helvetica Neue&quot;, sans-serif; font-size: 12px; font-weight: 200;" fill="rgb(50, 49, 63)" stroke="none" stroke-width="1px">2e+4</text><text x="0" y="59" dx="0em" dy="0.3em" style="text-anchor: end; visibility: hidden; font-family: &quot;Helvetica Neue&quot;, sans-serif; font-size: 12px; font-weight: 200;" fill="rgb(50, 49, 63)" stroke="none" stroke-width="1px">2.5e+4</text><text x="0" y="39.33333333333334" dx="0em" dy="0.3em" style="text-anchor: end; visibility: inherit; font-family: &quot;Helvetica Neue&quot;, sans-serif; font-size: 12px; font-weight: 200;" fill="rgb(50, 49, 63)" stroke="none" stroke-width="1px">3e+4</text><text x="0" y="19.666666666666686" dx="0em" dy="0.3em" style="text-anchor: end; visibility: hidden; font-family: &quot;Helvetica Neue&quot;, sans-serif; font-size: 12px; font-weight: 200;" fill="rgb(50, 49, 63)" stroke="none" stroke-width="1px">3.5e+4</text><text x="0" y="0" dx="0em" dy="0.3em" style="text-anchor: end; visibility: hidden; font-family: &quot;Helvetica Neue&quot;, sans-serif; font-size: 12px; font-weight: 200;" fill="rgb(50, 49, 63)" stroke="none" stroke-width="1px">4e+4</text></g><line x1="68.3125" y1="0" x2="68.3125" y2="177" fill="rgb(0, 0, 0)" stroke="rgb(204, 204, 204)" stroke-width="1px"></line></g></g><g transform="translate(68, 0)" clip-path="url(#clip_0)"><clipPath id="clip_0"><rect width="261" height="177"></rect></clipPath><g><g><g><line x1="0" y1="0" x2="0" y2="177" fill="rgb(0, 0, 0)" stroke="rgb(60, 60, 60)" stroke-width="1px" opacity="0.25"></line><line x1="29.076388888888886" y1="0" x2="29.076388888888886" y2="177" fill="rgb(0, 0, 0)" stroke="rgb(60, 60, 60)" stroke-width="1px" opacity="0.25"></line><line x1="58.15277777777777" y1="0" x2="58.15277777777777" y2="177" fill="rgb(0, 0, 0)" stroke="rgb(60, 60, 60)" stroke-width="1px" opacity="0.25"></line><line x1="87.22916666666666" y1="0" x2="87.22916666666666" y2="177" fill="rgb(0, 0, 0)" stroke="rgb(60, 60, 60)" stroke-width="1px" opacity="0.25"></line><line x1="116.30555555555554" y1="0" x2="116.30555555555554" y2="177" fill="rgb(0, 0, 0)" stroke="rgb(60, 60, 60)" stroke-width="1px" opacity="0.25"></line><line x1="145.38194444444446" y1="0" x2="145.38194444444446" y2="177" fill="rgb(0, 0, 0)" stroke="rgb(60, 60, 60)" stroke-width="1px" opacity="0.25"></line><line x1="174.45833333333331" y1="0" x2="174.45833333333331" y2="177" fill="rgb(0, 0, 0)" stroke="rgb(60, 60, 60)" stroke-width="1px" opacity="0.25"></line><line x1="203.53472222222223" y1="0" x2="203.53472222222223" y2="177" fill="rgb(0, 0, 0)" stroke="rgb(60, 60, 60)" stroke-width="1px" opacity="0.25"></line><line x1="232.6111111111111" y1="0" x2="232.6111111111111" y2="177" fill="rgb(0, 0, 0)" stroke="rgb(60, 60, 60)" stroke-width="1px" opacity="0.25"></line><line x1="261.6875" y1="0" x2="261.6875" y2="177" fill="rgb(0, 0, 0)" stroke="rgb(60, 60, 60)" stroke-width="1px" opacity="0.25"></line></g><g><line x1="0" y1="177" x2="261.6875" y2="177" fill="rgb(0, 0, 0)" stroke="rgb(60, 60, 60)" stroke-width="1px" opacity="0.25"></line><line x1="0" y1="157.33333333333334" x2="261.6875" y2="157.33333333333334" fill="rgb(0, 0, 0)" stroke="rgb(60, 60, 60)" stroke-width="1px" opacity="0.25"></line><line x1="0" y1="137.66666666666669" x2="261.6875" y2="137.66666666666669" fill="rgb(0, 0, 0)" stroke="rgb(60, 60, 60)" stroke-width="1px" opacity="0.25"></line><line x1="0" y1="118" x2="261.6875" y2="118" fill="rgb(0, 0, 0)" stroke="rgb(60, 60, 60)" stroke-width="1px" opacity="0.25"></line><line x1="0" y1="98.33333333333334" x2="261.6875" y2="98.33333333333334" fill="rgb(0, 0, 0)" stroke="rgb(60, 60, 60)" stroke-width="1px" opacity="0.25"></line><line x1="0" y1="78.66666666666666" x2="261.6875" y2="78.66666666666666" fill="rgb(0, 0, 0)" stroke="rgb(60, 60, 60)" stroke-width="1px" opacity="0.25"></line><line x1="0" y1="59" x2="261.6875" y2="59" fill="rgb(0, 0, 0)" stroke="rgb(60, 60, 60)" stroke-width="1px" opacity="0.25"></line><line x1="0" y1="39.33333333333334" x2="261.6875" y2="39.33333333333334" fill="rgb(0, 0, 0)" stroke="rgb(60, 60, 60)" stroke-width="1px" opacity="0.25"></line><line x1="0" y1="19.666666666666686" x2="261.6875" y2="19.666666666666686" fill="rgb(0, 0, 0)" stroke="rgb(60, 60, 60)" stroke-width="1px" opacity="0.25"></line><line x1="0" y1="0" x2="261.6875" y2="0" fill="rgb(0, 0, 0)" stroke="rgb(60, 60, 60)" stroke-width="1px" opacity="0.25"></line></g></g></g><g><g><line x1="0" y1="157.33333333333334" x2="261.6875" y2="157.33333333333334" fill="rgb(0, 0, 0)" stroke="rgb(153, 153, 153)" stroke-width="1.5px"></line></g></g><g><g><line x1="29.076388888888886" y1="0" x2="29.076388888888886" y2="177" fill="rgb(0, 0, 0)" stroke="rgb(153, 153, 153)" stroke-width="1.5px"></line></g></g><g><g><g><g><g><path stroke="rgb(255, 112, 67)" stroke-width="2px" d="M29.26393159722222,150.45L29.27992361111111,150.90543859649122L29.582318055555557,150.17132841328413L29.593948611111113,149.64617718328972L29.64919375,149.6119467168079L29.65937048611111,149.21997614672503L29.72188472222222,149.38035290506548L29.74369201388889,149.5060080222949L29.864359027777777,149.57021606451238L30.025732986111112,149.54223970448825L30.403726041666665,149.64586905591705L30.592722569444444,149.51126637854648L30.630521875,149.56857297538187L30.743919791666666,149.2799560493528L30.752642708333333,149.1152486518894L30.781719097222222,149.15355544639218L30.906747569444445,149.27138366043582L31.04195277777778,149.37766408220332L31.049221875,149.55166995368762L31.13063576388889,149.34497349426675L31.13499722222222,149.301222262635L31.1408125,149.18868429105822L31.43157638888889,149.12855314209588L31.53043611111111,148.85327304719993L31.560966319444443,148.70747923396607L31.574050694444445,148.5489556378792L31.623480555555556,148.3958220636927L31.72670173611111,148.23903441272103L31.768862499999997,147.9963677248096L31.88080659722222,147.89935166240537L31.88952951388889,147.61656077973885L31.9782125,147.60449023750942L32.223907986111115,147.39888743872618L32.32276770833333,147.3607376406643L32.331490625,147.06034457093637L32.56991701388889,146.55403715133468L32.89702638888889,146.46992807766597L32.94209479166667,146.07805096152768L32.97117118055555,145.6187696619005L33.30700347222222,145.1270242645553L33.34625659722222,144.88915754598924L33.40150173611111,144.58412309512954L33.75187222222222,144.29438882243574L33.767864236111116,144.20898841615355L33.868177777777774,144.1005430674859L33.876900694444444,143.90004716523327L34.19237951388889,143.66048214105265L34.278154861111105,143.66687460015385L34.32322326388889,143.61328023646865L34.35956875,143.39904810859255L34.46278993055556,143.2143532763172L34.68813194444445,143.19443479784346L34.974534375,142.97516750845998L35.07630173611111,142.54118328687653L35.10392430555556,142.17849453799988L35.14463125,141.7339608720732L35.204237847222224,141.0383834958268L35.458656250000004,140.54277896544684L35.51390138888889,140.32553396723617L35.545885416666664,140.06310899012573L35.70580555555556,139.74034274493948L35.96022395833333,139.59175886162953L35.99220798611111,139.6195527193235L36.194288888888885,139.30195632871784L36.26843368055555,138.968940660722L36.368747222222225,138.60630027128255L36.42980763888889,137.86663449812653L36.630434722222226,137.6301214260118L36.68131840277778,137.38580585791863L36.69876423611111,136.89438402431608L37.05495,136.62139167580085L37.494003472222225,136.0805780297275L37.51871840277778,135.6057033154262L37.61612430555556,135.34756019501464L37.67718472222222,135.1467298706057L38.27906597222223,134.92665026598425L38.321226736111115,134.64990230060187L38.559653125000004,134.2788786641174L38.73992673611111,133.9449764097854L39.045228819444446,133.530388191853L39.065582291666665,133.00384584019815L39.10192777777778,132.83683170063046L39.177526388888886,132.69832647112887L39.66455590277778,132.34944381478533L39.70090138888889,132.05906197201415L40.110878472222225,131.7229834206399L40.17339270833333,131.6958822466204L40.35948159722222,131.40399990489328L40.407457638888886,131.247520003044L40.55138576388889,130.41830483532718L40.741836111111105,129.90803936819137L41.11110625,128.88630572000818L41.259395833333336,128.95801246345184L41.33499444444444,128.23977531964434L41.83801597222222,127.60516924185326L42.09098055555556,127.46277988654393L42.118603125,127.66110912409255L42.432628124999994,127.74913443152934L42.457343055555555,127.6080834922539L42.562018055555555,127.46147124880223L42.64924722222222,126.88111025024202L42.793175347222224,126.65772775253632L42.91675,126.7792239965127L42.919657638888886,126.81383553336772L43.05631666666667,126.40051216403452L43.380518402777774,126.06392286306496L43.64802118055555,126.0874642091666L43.76578055555556,126.09685122891267L43.82684097222222,126.64417173818487L43.85155590277778,126.93615726855741L44.08416701388889,126.88427444257877L44.15395034722222,126.58584475958389L44.171396180555554,126.15205735488763L44.32259340277778,126.5404539794506L44.44035277777778,126.37080765375109L44.86777569444445,126.24959295843837L44.98117361111111,125.64489765064675L45.155631944444444,124.99053861016688L45.19633888888889,125.09388511996275L45.312644444444445,124.6637618856594L45.395512152777776,124.86665295342678L45.767689930555555,124.63232037847624L45.77205138888888,124.20115399227772L46.029377430555556,124.12777177090774L46.283795833333336,124.32132829623116L46.41173194444444,124.20446193271405L46.609451388888886,123.96948204317387L46.74901805555555,123.63606670871431L47.057227777777776,123.19045948035435L47.086304166666665,123.14734681710874L47.109565277777776,123.13607879064584L47.14009548611111,122.93713739680652L47.51372708333333,122.86035692743539L47.54571111111112,122.85418789680116L47.67800868055556,122.5851022615466L47.76087638888889,122.63399206464689L47.89462777777778,122.02899253236139L48.420910416666665,122.23182671077078L48.71458194444444,122.17051067961289L49.06059097222222,122.0405928939791L49.11147465277777,121.85286687158325L49.451668402777784,121.58164676484176L49.46766041666667,121.443748715557L49.562158680555555,121.2134404513439L49.59268888888889,120.96289634812663L49.905260069444445,120.43060660225478L50.457711458333335,119.2632123894829L50.54057916666667,118.39349100355011L50.606001041666666,118.62160860455884L50.64380034722222,118.94491445502743L51.26748888888889,117.9732895564849L51.725442013888895,116.94936048730099L51.79231770833333,116.37002438075669L52.04092083333333,116.06495524861472L52.14559583333334,115.50325967834968L52.15141111111111,114.47853363596616L52.36366875,114.63008028229203L52.39274513888889,114.38493890628396L52.88122847222222,113.57037830578903L52.89140520833333,112.06240706989966L53.69682118055556,111.79476635141238L53.939609027777784,110.73182300850875L53.99485416666667,109.68864067135932L54.30306388888889,108.71830990716947L54.40337743055555,108.35634557291733L54.586558680555555,107.47991099339373L55.41814340277778,107.07658655151326L55.70745347222222,106.68999455508543L55.81503611111111,106.37352842705812L56.009847916666665,106.64330892217555L56.182852430555556,106.76024469837617L56.437270833333336,106.61375355989709L56.90830833333333,106.46224486873587L56.986814583333334,105.6375537061905L57.34736180555556,105.32799833252933L57.67010972222222,105.47419850056949L57.68464791666667,106.21937865644432L57.828576041666665,105.86344078824989L57.83875277777778,105.38576337301161L57.84747569444445,104.80638703234834L57.987042361111115,104.26134832626694L58.180400347222225,104.22314682679401L58.603461805555554,103.3194988069585L58.618,103.12768225886566L58.619453819444445,102.34144736361833L58.92766354166667,101.9563692927356L59.283849305555556,101.88513236326432L59.334732986111106,101.62041912627663L59.506283680555555,101.54344388014259L59.80286284722222,101.37583282512252L59.85810798611111,101.39804954265072L60.16631770833333,100.86344458750948L60.35967569444445,100.37443346137053L60.675154513888884,100.54792344879714L60.862697222222224,100.60573110398649L61.080770138888894,100.38242466001438L61.36426493055556,99.59144885991412L61.38607222222222,98.50983730631395L61.62449861111111,98.2640535754899L61.62595243055556,97.77538155092948L61.66956701388889,98.08684339603428L61.705912500000004,97.84795905629433L61.855655902777784,96.98396315022055L61.967600000000004,96.30076683488225L62.47207534722222,95.97302348459084L62.59710381944445,95.4066544692527L62.71486319444445,94.66878902207846L62.889321527777774,94.31937678643116L63.11175590277778,94.32743910779024L63.18590069444445,93.4221618634552L63.816858333333336,93.35081234376052L63.927348611111114,93.49113110941244L64.03493125,93.12181799840496L64.45944652777777,92.86023619852226L64.68624236111111,93.35641257874211L64.72985694444445,93.4253713208769L64.89559236111111,92.64570085536415L65.29830034722222,93.06893076987254L65.90018159722221,93.1548376928935L66.4846170138889,93.58222059030746L66.48897847222223,93.34539853125844L66.68669791666667,93.25419201145958L66.75357361111111,93.35697281032003L66.94257013888888,93.45734219596036L67.06323715277779,93.52014130970083L67.18099652777778,93.44686051206075L67.4005232638889,93.38090779418529L67.84103055555556,93.28221701476312L67.96315138888889,93.2327286466185L68.25973055555555,93.22752244862316L68.45018090277777,93.17957020375955L68.86451944444444,93.41174651672254L69.10439965277777,92.74750519836914L69.15964479166666,92.91275467853549L69.47512361111112,92.31021254400463L69.52600729166666,92.18485795626884L69.61178263888888,92.20577216064225L69.68301979166667,92.30719494457934L69.70191944444444,92.22934211678715L69.71936527777778,91.81314123843745L70.04356701388889,91.72569378125955L70.26018611111111,91.52112440313186L70.29798541666666,91.49827862948517L70.35177673611112,91.78451743320528L70.51896597222222,91.73139902321776L70.55095,92.00219245423084L70.56694201388889,92.3560398754762L71.349096875,92.32836922126177L71.52646284722222,92.507998965803L71.67184479166666,92.47299906922255L71.86084131944445,92.22516582896615L72.10653680555555,92.32858257940319L72.32897118055556,92.41379098812975L72.4321923611111,92.00667855598248L72.83199270833333,91.7150107003836L73.25796180555555,91.66490963034515L73.58216354166667,91.24221866730991L73.5894326388889,90.79493013391155L73.72609166666666,90.95090378718727L73.74208368055555,90.36361340846781L74.29453506944445,90.05925206762069L74.724865625,89.93086019419182L75.06651319444444,90.01984084143938L75.10431249999999,89.98585675729541L75.19008784722223,89.85300441489912L75.41542986111111,89.36370397340887L75.62041840277779,88.66373357606757L75.75562361111112,87.48702688512684L76.13797812499999,87.9659241966144L76.15978541666667,87.6181317769528L76.33715138888888,86.62465193259045L76.45054930555555,86.30872007266463L76.70787534722221,86.22891473206481L77.13384444444445,87.10108992552526L77.50020694444444,85.95478093297243L77.5481829861111,86.32730283967527L77.79533229166667,86.43050588904111L77.87819999999999,86.26378863347028L77.88692291666668,86.76667643679001L78.01195138888889,86.31854212644429L78.21112465277777,86.68615458046656L78.70978472222221,87.18220578908665L78.92931145833333,86.7554518768446L79.19536041666666,86.61917335582679L79.47013229166667,85.98912268691072L79.58353020833333,86.39754375155303L79.70565104166666,86.17512270973104L79.71146631944445,86.01821043875792L79.8045107638889,85.67638939488212L80.11417430555555,85.4867504553939L80.34969305555556,88.27787540985463L80.46454479166667,88.0444212022025L80.56485833333333,87.7556457486489L80.92540555555556,87.82614784045069L81.1754625,87.82666638973895L81.33392881944444,87.32366641743171L81.36009756944445,87.09516644235522L81.43278854166667,86.60631646478635L81.79478958333333,86.38661815164104L81.94598680555556,86.43668966981028L81.99396284722222,86.44635403616257L82.25565034722221,85.98305196587965L82.53914513888888,85.55821343595834L82.87788506944445,85.2623920923625L83.27768541666666,84.8152195497929L83.56118020833334,85.01063092814692L83.63241736111111,85.59556783533225L83.71092361111111,84.57227771846568L83.92754270833333,84.49304994661912L84.1688767361111,83.0765449519572L84.51052430555555,82.94235712342814L84.79401909722223,82.82158807775198L85.08187534722222,82.5044292699768L85.4249767361111,82.30158634297909L86.17950902777778,82.04036104201452L86.20422395833334,82.57619160447973L86.46300381944445,82.37797244403176L87.03580868055556,81.7079085329619L87.13757604166668,80.3103176796657L87.17246770833333,79.43795257836578L87.60279826388889,79.41195732052921L87.6653125,78.42882825514296L87.86303194444444,77.98454542962867L88.13489618055556,77.47062421999914L88.39076840277777,76.98842846466589L88.52306597222223,77.34505228486596L88.76149236111111,76.76921372304602L89.00573402777778,77.21462568407476L89.08569409722222,76.35289644900061L89.35174305555556,76.38760680410056L89.36628125,77.01671279035716L89.63087638888888,76.97717484465477L89.9652548611111,76.83539069352264L90.02776909722222,76.20825162417037L90.95385208333335,75.96242646175334L90.96402881944445,75.24165048224467L90.98292847222221,74.43561876735353L91.15302534722223,74.36705689061819L91.23007777777778,74.89535120155637L91.34783715277779,74.9066827480674L91.72728402777778,74.511747806594L91.89301944444445,74.05010635926793L91.95117222222223,73.48909572334115L92.09364652777778,73.21231948434036L92.15179930555556,74.1392875359063L92.179421875,73.35302544898235L92.22449027777779,72.76338957075076L92.68825868055555,72.53558394700902L93.23489479166666,72.09062555230811L93.26978645833333,71.6429629970773L93.76408506944445,71.5036000307029L94.34561284722223,70.85110669429928L94.64800729166667,71.644462691536L95.29641076388889,70.22268308904907L95.35020208333333,69.9657481134775L95.43016215277778,69.03830663546309L95.71947222222222,69.5684759719168L95.87793854166667,69.45562837472511L95.89683819444444,69.63333220391927L96.07565798611111,69.32126565019401L96.314084375,69.25280575184127L96.55832604166666,69.2383918433238L96.78657569444444,68.45448599232476L96.88398159722222,68.18163739309227L97.37101111111112,69.50940698711638L97.38700312499999,68.9737329550714L97.76935763888889,68.69222632623094L97.84059479166667,67.78200369360785L97.95835416666667,68.6777366575804L98.01650694444444,68.68542965848901L98.40176909722223,68.55862002597345L98.40613055555556,70.06109135670944L98.56459687499999,69.12411555437181L99.03999583333334,68.98490399893463L99.04290347222224,68.02574693237449L99.83959652777777,68.14583890580371L100.2234048611111,67.43972168189002L100.34843333333333,67.71281618036767L100.501084375,67.75406789566424L100.50253819444444,67.8108611060978L101.21345590277778,67.75970832882135L101.21927118055555,67.64680416260587L101.24689375000001,67.75759041301195L101.38646041666667,66.85429803837742L101.56091875,66.12393490120635L101.5899951388889,65.63180807775238L102.03486388888888,64.89782726997716L102.55969270833334,66.35731120964611L102.96676215277778,66.85271342201483L103.21681909722221,66.06350874648L103.42762291666666,66.94622453849865L103.45088402777779,65.79366875131547L103.56428194444445,65.14183520951724L103.981528125,64.45685168856551L104.20977777777777,64.10783318637563L104.27519965277779,63.990383201071396L104.52234895833332,64.10494488096427L104.57468645833333,63.80685039286783L105.42517083333333,65.37149868691436L105.49204652777777,65.89468215155627L105.80752534722222,65.16588060306731L105.8947545138889,66.53562587609392L106.75832326388888,65.80172995515119L106.76413854166665,66.5650902929694L106.77722291666667,65.87544793033912L106.85572916666666,67.23323647063853L107.59863090277777,66.42957949024134L107.72656701388888,67.73195487455054L107.85741076388888,67.3307593870955L108.19033541666666,68.51548344838594L108.47964548611111,69.62500177021401L108.508721875,69.89983492652595L108.51453715277778,69.47851810054001L109.30977638888888,69.02459962381933L109.42898958333333,68.3525396614374L109.9581798611111,67.99155236196032L110.131184375,67.5407971257643L110.32308854166666,67.31605074652117L110.38124131944444,66.37824567186907L110.62112152777777,65.64042110468215L111.47160590277777,67.08857899421395L111.61262638888888,68.91112109479253L111.80307673611111,70.2918089853133L111.989165625,71.28662808678195L112.2930138888889,72.98436527810375L112.39623506944444,73.86726208362671L112.67391458333333,75.20466920859737L112.74079027777778,74.5832689544043L112.89925659722223,75.60914205896385L112.90652569444444,74.65229451973414L113.13186770833333,75.88366506776073L113.38337847222222,76.77949856098463L113.47206145833333,77.18848203821952L114.29492326388889,75.29883383439756L114.3734295138889,74.25108378429111L114.37924479166666,75.25904207252867L114.70199270833334,76.31960453194247L114.73543055555557,77.17577741208154L114.74560729166667,77.91093300420671L115.11342361111112,78.60797303711938L115.16721493055556,78.18510906674076L115.22536770833334,78.87439816006669L116.39133090277778,79.56555834406004L116.62975729166666,77.39100250965402L116.73297847222223,77.82536892535528L116.93651319444444,77.49256536615309L116.987396875,76.3080421628711L117.15167847222223,77.11030461325065L117.41772743055556,75.79880748525892L117.5267638888889,75.88892673673303L117.66923819444443,76.74883406305972L117.71285277777778,77.47161732342042L117.7753670138889,78.1063889244117L117.98762465277778,78.65015003197053L118.19552083333333,79.18673502877347L118.25221979166668,79.53986152589611L118.50954583333332,78.69734203997318L118.64329722222222,79.00500783597585L118.79449444444444,79.67130705237827L118.81194027777778,79.7478430138071L119.15649548611111,78.24732537909307L119.18993333333334,76.78279284118375L119.23064027777778,77.6870468903987L119.25390138888889,78.3042088680255L119.33240763888888,77.12112131455629L120.12183159722221,78.08200918310065L120.55216215277777,78.82094159812392L120.71789756944445,77.35804743831152L120.73534340277779,78.11824269448037L120.9417857638889,78.77881842503233L121.2369111111111,78.9485365825291L121.56111284722222,79.32548292427619L121.57565104166667,77.53286796518191L121.73847881944444,78.47224783533036L122.29819930555556,79.06595638513066L122.40578194444444,77.64542741328428L122.62385486111111,76.34335133862251L122.68346145833333,74.80174953809359L123.215559375,73.74470791761757L123.28388888888888,72.75797045918914L123.32459583333333,71.59850674660356L123.49469270833333,69.81552273860986L123.51213854166666,68.08497046474888L123.57029131944444,67.71140675160731L123.58046805555556,66.27386607644658L124.2521326388889,65.15707946880192L124.45275972222223,64.39977152192174L124.60686458333333,63.95026103639623L125.44281076388889,63.89576826608993L125.46461805555556,63.88605810614759L125.78300451388888,65.86758562886615L126.14355173611112,65.25949373264622L126.408146875,67.29247769271494L126.48229166666667,66.29802992344342L126.5026451388889,66.51222693109908L126.51136805555556,66.08747090465583L126.81812395833333,65.95692381419025L127.33422986111111,64.78136476610453L127.35749097222222,63.986894956160754L127.52322638888889,63.44100546054467L127.55521041666667,63.29977158115686L128.40569479166666,62.468594423041196L128.55543819444443,62.058801647403726L128.68628194444443,61.15112148266337L128.69645868055554,61.10514266773035L129.32014722222223,60.70976173429065L129.48879027777778,61.07371889419491L129.67778680555557,60.71688033810875L129.69232499999998,60.67892563763121L129.78973090277776,59.858099740534755L130.43231909722223,59.22948976648128L130.63003854166666,59.02167412316649L130.66347638888888,58.563240044183175L130.7158138888889,58.20964937309819L130.75070555555556,57.75768443578836L130.84520381944446,57.31944932554288L130.97459375,56.952571059655256L131.7363951388889,57.04324728702305L132.13474166666666,56.8416558916541L132.23796284722224,56.72315696915534L132.2481395833333,56.32150793890648L132.87328194444444,55.89709047834914L133.2192909722222,55.861248097180905L133.4184642361111,56.1987232874628L133.71068194444445,56.3923176253832L134.02179930555553,56.40921919617821L134.31256319444444,56.070430609893705L135.16886284722224,55.87172088223768L135.4334579861111,55.75581546068058L135.72712951388888,55.61610058127917L135.8870496527778,55.40382385648458L136.03097777777776,55.397641470836135L136.27958090277778,55.13641065708585L136.50492291666666,55.235636258043925L136.56307569444442,55.234472632239545L136.5717986111111,55.21769203568225L137.09081215277777,55.30878949878067L138.8513875,55.24917721556926L138.88627916666664,55.15619282734566L138.9386166666667,55.096106877944436L138.97060069444444,55.270162856816654L139.61464270833332,55.285213237801656L139.90249895833333,55.302691914021494L140.07114201388887,55.381356055952665L140.1496482638889,55.271220450357404L140.24269270833335,55.246831738655004L140.9158111111111,55.17768189812283L140.95361041666666,55.11544704164386L140.97832534722224,54.917835670812806L141.1222534722222,54.94058543706487L141.26036631944444,54.925660226691704L141.76629548611112,54.97909420402253L141.7982795138889,54.72038478362026L142.38853020833335,54.637012971924904L142.711278125,54.329911674732415L143.20412291666668,54.53732050725918L143.24919131944446,54.440788456533255L144.18108958333335,54.65284294421326L144.29884895833334,53.71875864979192L145.39212118055553,54.18394945147941L145.99254861111112,54.18962117299813L146.03034791666667,53.95872572236496L146.1451996527778,53.96725315012846L146.25132847222224,53.919861168448946L146.60315277777778,53.889008384937384L146.94916180555555,53.76290754644366L146.97823819444446,53.88541679179929L146.99859166666667,53.95634177928601L147.75748541666667,53.98870760135743L148.0308034722222,54.324636841221675L148.03516493055557,54.261173157099506L148.09041006944443,54.1411225080562L148.2910371527778,53.95834359058391L148.50329479166666,53.93544256485886L148.5963392361111,53.965964975039626L148.80423541666667,53.94623514420233L149.044115625,54.05827829644876L149.24038125,54.01751713347056L149.5122454861111,54.338765420123494L150.1591951388889,54.33682221144447L150.20280972222224,54.24067332363336L150.33074583333334,54.33507265793669L151.18704548611112,53.71203205880968L151.26555173611112,53.96549551959539L152.30939409722222,53.89074596763584L152.62341909722224,53.823471370872255L152.890921875,54.49452423378504L153.08573368055556,54.84673847707319L153.12062534722222,54.67599796269921L153.21366979166666,54.632464833095966L153.31543715277778,54.3769516831197L154.0452545138889,54.35152318147439L154.1441142361111,54.344370863326944L154.72854965277776,54.408733776994254L154.84630902777778,54.498127065961484L155.73023125,54.20491435936533L156.17073854166668,54.369756256762145L156.40480347222223,54.16018063108592L156.81478055555556,54.21542923464399L157.48644513888888,54.13928631117959L157.88333784722224,53.68135768006164L158.15229444444444,53.658621912055466L158.48231145833333,53.25662638751659L158.55354861111113,53.50056374876493L158.69311527777776,53.27170737388842L159.18305243055556,53.21913663649957L159.2630125,53.84835630618295L159.53196909722223,53.75385400889799L159.69915833333332,53.59013527467485L159.74131909722223,53.05732174720737L160.25597118055555,53.14418957248664L160.2792322916667,52.63630394857131L160.34756180555556,52.95407355371417L160.75172361111112,52.984399531676075L160.86802916666667,53.00382624517515L161.26056041666666,52.45097695399096L161.421934375,51.992745925258546L161.4611875,51.26567133273268L161.66326840277776,51.217037532792745L161.8508111111111,51.18113377951346L162.51956805555554,51.33762040156212L162.5631826388889,51.34079169473924L162.573359375,51.30037919193198L162.63732743055556,51.14600793940545L163.18105590277776,51.07787381213156L163.49798854166667,50.7726864309184L163.52124965277778,50.73008445449322L163.70733854166667,50.62487600904389L163.76258368055557,51.06905507480617L164.31648888888887,51.30754956732554L164.74972708333334,51.1957279439263L164.75118090277778,51.75588848286702L164.80351840277777,51.677899634580314L165.74413958333332,51.949909671122285L165.9782045138889,51.832852037343386L166.09887152777776,52.132633500275716L166.15411666666668,52.15857015024814L166.42307326388888,51.97737980189001L166.59753159722223,51.69630848836766L166.83886562499998,51.76981097286422L167.13835243055556,51.804496542244465L167.2779190972222,51.78851355468667L167.33461805555555,51.066128865884664L167.79838645833334,51.2695159792962L168.15893368055555,51.43683104803324L168.22435555555555,51.17441460989657L168.35810694444444,51.48497314890693L168.43370555555555,51.61107583401622L168.70120833333334,51.811101583947945L168.7695378472222,51.94392475888648L169.29000520833335,51.886465616331165L169.42811805555556,51.76001905469805L169.60403020833334,51.99628381589491L169.6679982638889,51.67398876763875L169.7145204861111,51.30918989087486L170.33820902777776,51.56693756845405L170.4109,51.4803104782753L170.82378472222223,51.654079430447766L171.27010729166665,51.54300482073633L171.31953715277777,51.36043767199604L171.37914375,50.88146057146308L171.59285520833333,51.0836478476501L172.28487326388887,50.809349729551755L172.30668055555557,50.77094808992992L172.61343645833333,50.736386614270245L172.6526895833333,50.67774795284322L172.753003125,50.75870649089224L172.93909201388888,50.61130250846968L173.16588784722222,50.919172257622705L173.25602465277777,49.95725503186043L173.38541458333333,50.043396195341046L173.87389791666666,49.84165657580695L173.96984999999998,50.01015758489291L173.9989263888889,50.472541826403614L174.11813958333335,50.80608764376325L174.37255798611113,51.11021221272027L174.72147465277777,50.82539099144822L174.88575625000001,50.38811855897008L175.01078472222224,50.27384003640641L175.05439930555556,50.580056032765754L175.9063375,50.53311709615585L176.11859513888888,50.32567205320693L176.2203625,49.910838181219546L176.88330416666668,49.895421029764265L177.28891979166667,50.02707892678784L177.98529930555554,50.12197103410905L178.13213506944444,50.37650726403149L178.20046458333334,50.48758987096164L178.51448958333333,50.46956421719882L178.77763090277776,50.508407795478945L179.01314965277777,50.95636701593105L179.13963194444446,50.9897969810046L179.1454472222222,51.204750616237476L179.3402590277778,51.43754222128038L179.91015625,51.42285466581902L180.1951048611111,51.21296919923711L180.44516180555556,51.38987227931338L180.6138048611111,50.97875171804871L181.60385590277778,51.09647654624385L181.60821736111112,51.24962889161945L181.93096527777777,50.844666002457515L182.10687743055556,50.031799402211746L182.57646111111112,50.22848612865725L182.80616458333333,50.20097084912487L183.168165625,50.07394043087905L183.88926006944445,49.8652130544578L183.979396875,49.826825082345366L184.2570763888889,50.028275907444154L184.26579930555556,50.390514983366415L184.65396909722222,49.811863485029775L185.03923125,49.31861046986012L185.04650034722223,49.59054942287409L185.34453333333335,49.61502781392004L185.58150590277776,49.46399169919469L185.63675104166668,49.5522591959419L186.0176517361111,49.47436660968103L186.2618934027778,49.63632994871293L186.42762881944444,50.10856362050829L186.47269722222222,50.0340405917908L187.40604930555557,50.37603653261172L187.51944722222223,50.750699546017216L187.54270833333334,50.69849625808216L188.48478333333335,51.029113298940615L188.52403645833334,51.29520196904653L188.5691048611111,51.13348177214188L188.60254270833335,51.102000261594355L188.63598055555553,51.152333568768256L189.06776493055554,51.17796687855808L189.8281125,51.21283685736894L189.893534375,51.57855317163204L190.06653888888889,51.35309785446884L191.04932083333333,50.536588069021946L191.62648715277777,50.93452926211974L191.94632743055556,50.91507633590777L192.1469545138889,50.92116870231699L192.20365347222221,51.21378516541863L192.62816875,51.23327331554343L192.86804895833333,51.270479317322426L192.90148680555558,51.45343138559019L192.95382430555557,51.41748824703116L193.35943993055554,51.393006088994696L193.46702256944445,51.351305480095235L193.63275798611113,51.069908265419045L193.93806006944445,51.288650772210474L193.9860361111111,50.80898569498942L194.53412604166667,50.60148712549048L194.66642361111113,50.442271746274756L194.79435972222223,50.04331123831395L194.83070520833334,50.20738011448256L194.95427986111113,50.41010876970097L195.05168576388888,50.54143122606419L195.80621805555558,50.738288103457776L195.91961597222223,50.56145929311201L196.15513472222221,49.957846697134144L196.6683329861111,49.9534620274207L196.97072743055554,49.402782491345306L197.011434375,49.029104242210764L197.07394861111112,48.74786048465634L197.47229513888888,48.833007769524045L198.1657670138889,48.34324032590496L198.17303611111112,48.59471629331446L198.34167916666667,48.81317799731636L198.59464375000002,49.07272686425138L199.3767986111111,49.369254177826235L199.73879965277777,49.45519542671029L199.7954986111111,49.571875884039244L199.9350652777778,49.49988829563533L201.23187222222222,48.99063279940512L201.590965625,49.04363618613128L201.774146875,49.33913923418481L201.84102256944445,49.026891977432996L202.24954583333334,49.41846944635637L202.29897569444447,49.42082250172072L202.70749895833333,48.52614025154864L202.84997326388887,48.959926226393804L202.89649548611112,48.9019336037544L203.06513854166667,48.07094024337897L203.23523541666665,48.5895795523744L203.33700277777777,48.20675493047028L203.8356628472222,47.75994610408995L204.1584107638889,48.0028848270143L204.37939131944444,47.918663010979486L204.89549722222222,48.16146337654823L204.93911180555554,47.408450372226724L205.17172291666668,47.64327200167074L205.41014930555556,47.012878134836996L205.59187673611112,46.248856988019924L206.04110694444446,45.67923795588459L206.42346145833335,45.371114160296145L206.54122083333334,45.69560274426655L206.69823333333335,46.05844246983989L207.15909409722224,46.404664889522536L207.43531979166664,46.606131733903624L207.50364930555557,47.196518560513226L208.3061576388889,47.00020003779525L208.4602625,47.37811336734907L208.67252013888887,47.36816869728082L209.1929875,47.83515182755272L209.7628847222222,48.133503311464125L209.80649930555558,48.50035298031773L209.94606597222221,48.252317682285934L210.11034756944443,47.17555258072403L210.25572951388887,46.87513065598492L210.4650795138889,46.50248425705311L210.77183541666668,46.324435831347785L211.02043854166666,46.82105891487967L211.1265673611111,46.56395302339175L211.51473715277777,47.052357721052545L212.03084305555555,47.24018861561393L212.37830590277778,47.346303087385905L212.89731944444446,47.669939445313986L213.0165326388889,47.807812167449214L213.17209131944446,47.90043095070433L213.18517569444444,47.920854522300544L213.44250173611113,47.32956907007048L213.86992465277777,46.70694549639677L213.92807743055556,47.15351761342376L214.22320277777777,47.26829918541472L214.33950833333336,47.41880260020659L214.83671458333333,47.28678900685259L215.01989583333332,47.557376772833976L215.09258680555556,46.74677242888396L215.11439409722223,46.35549518599552L215.28885243055555,46.50681233406263L216.036115625,46.78459776732305L216.15969027777777,47.22733799059071L216.16841319444444,46.70147085819835L216.37049409722223,47.32952377237848L217.0639659722222,46.92717139514065L217.20207881944444,46.56112092229324L217.23987812500002,46.459808830063906L217.2631392361111,46.65182794705754L217.48411979166664,46.045845152351774L217.54663402777777,45.626327303783256L217.7530763888889,45.69716124007161L218.024940625,45.75304511606444L218.25464409722224,46.04327393779133L218.30116631944443,46.30841321067885L218.41456423611112,45.85083855627764L218.56721527777776,45.407554700649825L218.91613194444446,45.748065897251536L218.91903958333333,45.47239264085968L219.65903368055555,45.11808671010709L219.7855159722222,45.19647803909638L219.8407611111111,44.81076356852006L220.26091493055554,45.15588721166807L220.41356597222222,45.48616515716793L220.90931840277779,45.77161530811779L221.16955208333331,45.477853777305995L222.15088020833332,44.95386839957541L222.1959486111111,44.836281559617845L222.30789270833336,45.387320070322744L222.7280465277778,45.05725472995712L222.95338854166667,45.80646259029473L223.18454583333335,45.87108299793192L223.2746826388889,45.8112413648054L223.39098819444442,45.48991722832483L223.4287875,45.660925505492344L223.51310902777777,46.10983295494313L224.0742833333333,46.482382992782135L224.1934965277778,46.396811360170574L224.57439722222225,46.03266355748684L224.59765833333333,46.49946386840483L224.95820555555557,45.90478414823099L225.20971631944442,45.9477724000746L225.7389065972222,45.35712849340047L226.2782736111111,45.100882310727116L226.50506944444444,44.823060746321005L226.8728857638889,45.127621338355596L226.88742395833333,45.27585920452003L227.0953201388889,44.70127328406801L227.17091875,45.34054595566121L227.43260625,44.97189136009507L227.63323333333332,44.64010222408558L227.76553090277778,44.44375866834366L228.04175659722222,44.20411613484262L228.204584375,44.55877118802505L228.24529131944445,44.88582740255589L228.25110659722225,45.1644446623003L228.56367777777777,44.64820019607026L228.77448159722223,44.29371350979656L228.85008020833334,44.108408825483565L229.4795840277778,44.37823460960189L229.51156805555556,44.825611148641684L229.73545625,44.362916700444174L230.06111180555556,44.13922503039976L230.41584375,44.606569194026434L230.6542701388889,44.29557894129047L231.23143645833335,44.00388771382808L231.91618541666665,44.28023227577859L232.2447486111111,44.62727571486741L232.76666979166666,44.322081476714004L233.24497638888892,43.83500666237592L233.56336284722224,43.97090599613833L233.9064642361111,44.40001539652448L234.54178333333334,44.03101385687202L234.55050624999998,43.84837913785151L235.060796875,43.507007890733036L235.39226770833332,43.35710710165969L235.48095069444443,44.343196391493734L235.5376496527778,44.27094341901105L235.64087083333334,44.16658241044328L236.69052847222224,44.97339083606559L236.78938819444443,45.25505175245905L237.01036875,44.90674657721314L237.26333333333332,45.49400525282516L237.3462010416667,45.07853806087596L237.5962579861111,44.60628425478839L237.9204597222222,44.45658916264287L237.99896597222224,44.671930246378594L238.47581875,44.81067055507407L238.80728958333333,43.999403499566654L238.97447881944447,44.63412981627664L238.99337847222222,44.27711683464898L239.0704309027778,44.63627181785074L240.02122881944445,45.238777969398996L241.0301795138889,45.44670017245909L241.13776215277778,44.85109682187985L241.54628541666668,44.69658713969184L242.23830347222224,44.29792842572266L242.69189513888887,44.324602249817076L242.74277881944445,44.87960869150203L242.98556666666667,45.32798115568514L243.016096875,45.727583040116656L243.36065208333335,45.26909140277161L243.8636736111111,45.654915595827816L244.08756180555557,45.20369070291167L244.1544375,44.73858829928716L244.40013298611112,44.980796136025134L245.11395833333333,45.580316522422606L245.1401270833333,45.6990182035137L245.14158090277778,45.8727163831623L245.31749305555556,45.639644744846095L246.37441979166667,45.47314693702816L246.48345625,45.76776557665863L246.71025208333333,45.934589018992796L246.79602743055557,45.64026345042683L247.57818229166668,45.87883710538412L247.91837604166668,45.51142006151238L248.62202465277778,45.090278055361125L248.95494930555554,44.25498358315835L248.97821041666668,44.742218558175836L249.03927083333332,44.677263369024956L249.65569027777778,44.1704036987891L249.72111215277778,44.03282999557686L249.92319305555557,44.55408032935253L249.94936180555555,44.035938963083936L250.28083263888888,43.919678400108864L251.04554166666668,44.401110560097976L251.29414479166667,44.99959950408817L251.43807291666667,44.51163955367937L252.15189826388888,45.055808931644776L252.21586631944444,45.124694705146965L252.31763368055556,45.072625234632255L252.36124826388888,45.49776271116903L252.3874170138889,45.03865310671878L252.61421284722223,45.37278779604688L253.13468020833335,45.284109016442216L253.13904166666669,45.44816478146467L253.1404954861111,45.44634830331819L253.14340312500002,45.649246806319695L253.1463107638889,45.93412212568771L253.1564875,46.359643246452265L253.16084895833333,46.47121225514039L253.16230277777777,45.97375769629298L253.16521041666667,45.74238192666368L253.16811805555557,46.210677067330636L253.17102569444444,46.592809360597585L253.17247951388887,45.89832842453782L253.17538715277777,44.97436224875071L253.1797486111111,44.5911926905423L253.18265625,44.344673421488096L253.18701770833334,44.1778727460059L253.18992534722221,44.523352138072L253.19428680555555,44.83821692426477L253.195740625,44.64172856517163L253.19719444444442,44.76775570865448L253.2117326388889,45.30991347112237L253.21318645833333,44.877455457343444L253.21609409722222,45.30244324494245L253.21754791666666,45.86193225378153L253.21900173611112,45.75580569507008L253.22045555555556,45.13322512556306L253.2248170138889,45.332035946340085L253.22627083333333,45.53456568503941L253.2291784722222,45.86237578320214L253.23353993055554,46.29507153821524L253.23644756944446,46.271497717727044L253.23935520833334,46.026081279287695L253.2422628472222,45.93500648469228L253.2553472222222,45.98283916955637L253.25680104166668,46.30122191926736L253.2611625,45.99776639400733L253.26407013888888,46.428723087939915L253.26697777777778,46.757584112479236L253.26843159722222,47.17942570123134L253.26988541666665,46.51281646444153L253.27279305555555,46.84506815133068L253.274246875,46.47936133619763L253.27860833333332,46.905425202577874" style="fill: none;" fill="none"></path></g></g></g></g><g opacity="0.2"><g><g><g><path stroke="rgb(255, 112, 67)" stroke-width="2px" d="M29.26393159722222,150.45L29.27992361111111,151.31533333333334L29.582318055555557,148.916L29.593948611111113,148.36533333333333L29.64919375,149.506L29.65937048611111,147.77533333333332L29.72188472222222,150.05666666666667L29.74369201388889,150.096L29.864359027777777,149.89933333333335L30.025732986111112,149.388L30.403726041666665,150.25333333333333L30.592722569444444,148.68L30.630521875,149.93866666666668L30.743919791666666,147.34266666666667L30.752642708333333,147.972L30.781719097222222,149.42733333333334L30.906747569444445,150.13533333333334L31.04195277777778,150.17466666666667L31.049221875,150.88266666666667L31.13063576388889,147.736L31.13499722222222,148.95533333333333L31.1408125,148.28666666666666L31.43157638888889,148.64066666666668L31.53043611111111,146.59533333333334L31.560966319444443,147.5L31.574050694444445,147.22466666666668L31.623480555555556,147.10666666666665L31.72670173611111,146.91L31.768862499999997,145.92666666666668L31.88080659722222,147.06733333333332L31.88952951388889,145.17933333333332L31.9782125,147.5L32.223907986111115,145.612L32.32276770833333,147.028L32.331490625,144.43200000000002L32.56991701388889,142.11133333333333L32.89702638888889,145.73L32.94209479166667,142.62266666666667L32.97117118055555,141.56066666666666L33.30700347222222,140.774L33.34625659722222,142.78L33.40150173611111,141.87533333333334L33.75187222222222,141.718L33.767864236111116,143.44866666666667L33.868177777777774,143.13400000000001L33.876900694444444,142.11133333333333L34.19237951388889,141.52133333333333L34.278154861111105,143.724L34.32322326388889,143.13400000000001L34.35956875,141.482L34.46278993055556,141.56066666666666L34.68813194444445,143.016L34.974534375,141.01L35.07630173611111,138.65L35.10392430555556,138.92533333333333L35.14463125,137.74533333333335L35.204237847222224,134.79533333333333L35.458656250000004,136.09333333333333L35.51390138888889,138.37466666666666L35.545885416666664,137.706L35.70580555555556,136.84066666666666L35.96022395833333,138.25666666666666L35.99220798611111,139.86933333333332L36.194288888888885,136.44733333333335L36.26843368055555,135.97533333333334L36.368747222222225,135.346L36.42980763888889,131.216L36.630434722222226,135.50333333333333L36.68131840277778,135.18866666666668L36.69876423611111,132.47466666666668L37.05495,134.166L37.494003472222225,131.216L37.51871840277778,131.334L37.61612430555556,133.02533333333332L37.67718472222222,133.34L38.27906597222223,132.94666666666666L38.321226736111115,132.16L38.559653125000004,130.94066666666666L38.73992673611111,130.94066666666666L39.045228819444446,129.8L39.065582291666665,128.26600000000002L39.10192777777778,131.334L39.177526388888886,131.452L39.66455590277778,129.20999999999998L39.70090138888889,129.446L40.110878472222225,128.69866666666667L40.17339270833333,131.452L40.35948159722222,128.77733333333333L40.407457638888886,129.83933333333334L40.55138576388889,122.95599999999999L40.741836111111105,125.316L41.11110625,119.69133333333333L41.259395833333336,129.60333333333332L41.33499444444444,121.77600000000001L41.83801597222222,121.894L42.09098055555556,126.18133333333333L42.118603125,129.446L42.432628124999994,128.54133333333334L42.457343055555555,126.33866666666667L42.562018055555555,126.142L42.64924722222222,121.658L42.793175347222224,124.64733333333334L42.91675,127.87266666666667L42.919657638888886,127.12533333333333L43.05631666666667,122.68066666666667L43.380518402777774,123.03466666666667L43.64802118055555,126.29933333333332L43.76578055555556,126.18133333333333L43.82684097222222,131.57L43.85155590277778,129.564L44.08416701388889,126.41733333333333L44.15395034722222,123.9L44.171396180555554,122.24799999999999L44.32259340277778,130.036L44.44035277777778,124.844L44.86777569444445,125.15866666666668L44.98117361111111,120.20266666666666L45.155631944444444,119.10133333333333L45.19633888888889,126.024L45.312644444444445,120.79266666666666L45.395512152777776,126.69266666666667L45.767689930555555,122.52333333333334L45.77205138888888,120.32066666666665L46.029377430555556,123.46733333333333L46.283795833333336,126.06333333333333L46.41173194444444,123.15266666666668L46.609451388888886,121.85466666666667L46.74901805555555,120.63533333333334L47.057227777777776,119.18L47.086304166666665,122.75933333333333L47.109565277777776,123.03466666666667L47.14009548611111,121.14666666666668L47.51372708333333,122.16933333333333L47.54571111111112,122.79866666666666L47.67800868055556,120.16333333333333L47.76087638888889,123.07400000000001L47.89462777777778,116.584L48.420910416666665,124.05733333333333L48.71458194444444,121.61866666666667L49.06059097222222,120.87133333333333L49.11147465277777,120.16333333333333L49.451668402777784,119.14066666666668L49.46766041666667,120.20266666666666L49.562158680555555,119.14066666666668L49.59268888888889,118.708L49.905260069444445,115.64L50.457711458333335,108.75666666666667L50.54057916666667,110.566L50.606001041666666,120.67466666666667L50.64380034722222,121.85466666666667L51.26748888888889,109.22866666666667L51.725442013888895,107.73400000000001L51.79231770833333,111.156L52.04092083333333,113.31933333333333L52.14559583333334,110.448L52.15141111111111,105.256L52.36366875,115.994L52.39274513888889,112.17866666666667L52.88122847222222,106.23933333333333L52.89140520833333,98.49066666666667L53.69682118055556,109.386L53.939609027777784,101.16533333333334L53.99485416666667,100.3L54.30306388888889,99.98533333333333L54.40337743055555,105.09866666666667L54.586558680555555,99.592L55.41814340277778,103.44666666666666L55.70745347222222,103.21066666666667L55.81503611111111,103.52533333333334L56.009847916666665,109.07133333333333L56.182852430555556,107.81266666666667L56.437270833333336,105.29533333333333L56.90830833333333,105.09866666666667L56.986814583333334,98.21533333333333L57.34736180555556,102.542L57.67010972222222,106.79L57.68464791666667,112.926L57.828576041666665,102.66L57.83875277777778,101.08666666666667L57.84747569444445,99.592L57.987042361111115,99.35600000000001L58.180400347222225,103.87933333333334L58.603461805555554,95.18666666666667L58.618,101.40133333333334L58.619453819444445,95.26533333333333L58.92766354166667,98.49066666666667L59.283849305555556,101.244L59.334732986111106,99.238L59.506283680555555,100.85066666666667L59.80286284722222,99.86733333333333L59.85810798611111,101.598L60.16631770833333,96.052L60.35967569444445,95.97333333333333L60.675154513888884,102.10933333333334L60.862697222222224,101.126L61.080770138888894,98.37266666666666L61.36426493055556,92.47266666666667L61.38607222222222,88.77533333333334L61.62449861111111,96.052L61.62595243055556,93.37733333333334L61.66956701388889,100.89L61.705912500000004,95.69800000000001L61.855655902777784,89.208L61.967600000000004,90.152L62.47207534722222,93.02333333333333L62.59710381944445,90.30933333333334L62.71486319444445,88.02799999999999L62.889321527777774,91.17466666666667L63.11175590277778,94.4L63.18590069444445,85.27466666666666L63.816858333333336,92.70866666666667L63.927348611111114,94.754L64.03493125,89.798L64.45944652777777,90.506L64.68624236111111,97.82199999999999L64.72985694444445,94.04599999999999L64.89559236111111,85.62866666666666L65.29830034722222,96.878L65.90018159722221,93.928L66.4846170138889,97.42866666666667L66.48897847222223,91.214L66.68669791666667,92.43333333333332L66.75357361111111,94.282L66.94257013888888,94.36066666666666L67.06323715277779,94.08533333333334L67.18099652777778,92.78733333333334L67.4005232638889,92.78733333333334L67.84103055555556,92.394L67.96315138888889,92.78733333333334L68.25973055555555,93.18066666666667L68.45018090277777,92.748L68.86451944444444,95.50133333333333L69.10439965277777,86.76933333333334L69.15964479166666,94.4L69.47512361111112,86.88733333333334L69.52600729166666,91.05666666666666L69.61178263888888,92.394L69.68301979166667,93.22L69.70191944444444,91.52866666666667L69.71936527777778,88.06733333333332L70.04356701388889,90.93866666666666L70.26018611111111,89.67999999999999L70.29798541666666,91.29266666666666L70.35177673611112,94.36066666666666L70.51896597222222,91.25333333333333L70.55095,94.43933333333334L70.56694201388889,95.54066666666667L71.349096875,92.07933333333332L71.52646284722222,94.12466666666667L71.67184479166666,92.158L71.86084131944445,89.99466666666666L72.10653680555555,93.25933333333333L72.32897118055556,93.18066666666667L72.4321923611111,88.34266666666666L72.83199270833333,89.09L73.25796180555555,91.214L73.58216354166667,87.438L73.5894326388889,86.76933333333334L73.72609166666666,92.35466666666667L73.74208368055555,85.078L74.29453506944445,87.32L74.724865625,88.77533333333334L75.06651319444444,90.82066666666667L75.10431249999999,89.67999999999999L75.19008784722223,88.65733333333333L75.41542986111111,84.96L75.62041840277779,82.364L75.75562361111112,76.89666666666666L76.13797812499999,92.276L76.15978541666667,84.48800000000001L76.33715138888888,77.68333333333334L76.45054930555555,83.46533333333332L76.70787534722221,85.51066666666668L77.13384444444445,94.95066666666666L77.50020694444444,75.638L77.5481829861111,89.67999999999999L77.79533229166667,87.35933333333332L77.87819999999999,84.76333333333334L77.88692291666668,91.29266666666666L78.01195138888889,82.28533333333334L78.21112465277777,89.99466666666666L78.70978472222221,91.64666666666666L78.92931145833333,82.91466666666666L79.19536041666666,85.39266666666667L79.47013229166667,80.31866666666666L79.58353020833333,90.07333333333334L79.70565104166666,84.17333333333333L79.71146631944445,84.606L79.8045107638889,82.6L80.11417430555555,83.78000000000002L80.34969305555556,113.398L80.46454479166667,85.94333333333333L80.56485833333333,85.15666666666668L80.92540555555556,88.46066666666667L81.1754625,87.83133333333333L81.33392881944444,82.79666666666665L81.36009756944445,85.03866666666667L81.43278854166667,82.20666666666666L81.79478958333333,84.40933333333334L81.94598680555556,86.88733333333334L81.99396284722222,86.53333333333335L82.25565034722221,81.81333333333333L82.53914513888888,81.73466666666666L82.87788506944445,82.6L83.27768541666666,80.79066666666667L83.56118020833334,86.76933333333334L83.63241736111111,90.86L83.71092361111111,75.36266666666667L83.92754270833333,83.78000000000002L84.1688767361111,70.328L84.51052430555555,81.73466666666666L84.79401909722223,81.73466666666666L85.08187534722222,79.64999999999999L85.4249767361111,80.476L86.17950902777778,79.68933333333332L86.20422395833334,87.39866666666666L86.46300381944445,80.59400000000001L87.03580868055556,75.67733333333334L87.13757604166668,67.73200000000001L87.17246770833333,71.58666666666667L87.60279826388889,79.17800000000001L87.6653125,69.58066666666666L87.86303194444444,73.986L88.13489618055556,72.84533333333333L88.39076840277777,72.64866666666666L88.52306597222223,80.55466666666668L88.76149236111111,71.58666666666667L89.00573402777778,81.22333333333333L89.08569409722222,68.59733333333332L89.35174305555556,76.7L89.36628125,82.67866666666667L89.63087638888888,76.62133333333333L89.9652548611111,75.55933333333333L90.02776909722222,70.564L90.95385208333335,73.75L90.96402881944445,68.75466666666668L90.98292847222221,67.18133333333333L91.15302534722223,73.75L91.23007777777778,79.64999999999999L91.34783715277779,75.00866666666667L91.72728402777778,70.95733333333332L91.89301944444445,69.89533333333333L91.95117222222223,68.44000000000001L92.09364652777778,70.72133333333333L92.15179930555556,82.482L92.179421875,66.27666666666667L92.22449027777779,67.45666666666666L92.68825868055555,70.48533333333334L93.23489479166666,68.08600000000001L93.26978645833333,67.614L93.76408506944445,70.24933333333333L94.34561284722223,64.97866666666668L94.64800729166667,78.78466666666667L95.29641076388889,57.42666666666666L95.35020208333333,67.65333333333334L95.43016215277778,60.69133333333333L95.71947222222222,74.34L95.87793854166667,68.44000000000001L95.89683819444444,71.23266666666667L96.07565798611111,66.51266666666666L96.314084375,68.63666666666667L96.55832604166666,69.10866666666668L96.78657569444444,61.39933333333333L96.88398159722222,65.726L97.37101111111112,81.45933333333333L97.38700312499999,64.15266666666668L97.76935763888889,66.15866666666666L97.84059479166667,59.59L97.95835416666667,76.73933333333333L98.01650694444444,68.75466666666668L98.40176909722223,67.41733333333335L98.40613055555556,83.58333333333333L98.56459687499999,60.69133333333333L99.03999583333334,67.73200000000001L99.04290347222224,59.393333333333345L99.83959652777777,69.22666666666666L100.2234048611111,61.08466666666668L100.34843333333333,70.17066666666668L100.501084375,68.12533333333333L100.50253819444444,68.322L101.21345590277778,67.29933333333334L101.21927118055555,66.63066666666667L101.24689375000001,68.75466666666668L101.38646041666667,58.724666666666664L101.56091875,59.55066666666667L101.5899951388889,61.20266666666666L102.03486388888888,58.292L102.55969270833334,79.49266666666666L102.96676215277778,71.31133333333332L103.21681909722221,58.96066666666667L103.42762291666666,74.89066666666666L103.45088402777779,55.42066666666666L103.56428194444445,59.275333333333336L103.981528125,58.292L104.20977777777777,60.96666666666667L104.27519965277779,62.93333333333332L104.52234895833332,65.136L104.57468645833333,61.12400000000001L105.42517083333333,79.45333333333333L105.49204652777777,70.60333333333332L105.80752534722222,58.60666666666667L105.8947545138889,78.86333333333334L106.75832326388888,59.19666666666666L106.76413854166665,73.43533333333333L106.77722291666667,59.66866666666667L106.85572916666666,79.45333333333333L107.59863090277777,59.19666666666666L107.72656701388888,79.45333333333333L107.85741076388888,63.72L108.19033541666666,79.17800000000001L108.47964548611111,79.61066666666667L108.508721875,72.37333333333333L108.51453715277778,65.68666666666665L109.30977638888888,64.93933333333334L109.42898958333333,62.304L109.9581798611111,64.74266666666666L110.131184375,63.48400000000001L110.32308854166666,65.29333333333334L110.38124131944444,57.938L110.62112152777777,59L111.47160590277777,80.122L111.61262638888888,85.314L111.80307673611111,82.718L111.989165625,80.24000000000001L112.2930138888889,88.26400000000001L112.39623506944444,81.81333333333333L112.67391458333333,87.24133333333334L112.74079027777778,68.99066666666667L112.89925659722223,84.84199999999998L112.90652569444444,66.04066666666665L113.13186770833333,86.966L113.38337847222222,84.84199999999998L113.47206145833333,80.86933333333333L114.29492326388889,58.292L114.3734295138889,64.82133333333333L114.37924479166666,84.33066666666667L114.70199270833334,85.86466666666668L114.73543055555557,84.88133333333333L114.74560729166667,84.52733333333333L115.11342361111112,84.88133333333333L115.16721493055556,74.37933333333335L115.22536770833334,85.078L116.39133090277778,85.786L116.62975729166666,57.81999999999999L116.73297847222223,81.73466666666666L116.93651319444444,74.49733333333333L116.987396875,65.64733333333334L117.15167847222223,84.33066666666667L117.41772743055556,63.99533333333332L117.5267638888889,76.7L117.66923819444443,84.48800000000001L117.71285277777778,83.97666666666667L117.7753670138889,83.81933333333332L117.98762465277778,83.544L118.19552083333333,84.016L118.25221979166668,82.718L118.50954583333332,71.11466666666666L118.64329722222222,81.774L118.79449444444444,85.66799999999999L118.81194027777778,80.43666666666667L119.15649548611111,64.74266666666666L119.18993333333334,63.60199999999999L119.23064027777778,85.82533333333333L119.25390138888889,83.85866666666666L119.33240763888888,66.47333333333333L120.12183159722221,86.73L120.55216215277777,85.47133333333333L120.71789756944445,64.19200000000001L120.73534340277779,84.96L120.9417857638889,84.724L121.2369111111111,80.476L121.56111284722222,82.718L121.57565104166667,61.39933333333333L121.73847881944444,86.92666666666668L122.29819930555556,84.40933333333334L122.40578194444444,64.86066666666667L122.62385486111111,64.62466666666667L122.68346145833333,60.92733333333334L123.215559375,64.23133333333334L123.28388888888888,63.87733333333334L123.32459583333333,61.16333333333333L123.49469270833333,53.768666666666675L123.51213854166666,52.50999999999999L123.57029131944444,64.34933333333333L123.58046805555556,53.336L124.2521326388889,55.10600000000001L124.45275972222223,57.584L124.60686458333333,59.90466666666667L125.44281076388889,63.40533333333333L125.46461805555556,63.79866666666666L125.78300451388888,83.70133333333334L126.14355173611112,59.78666666666666L126.408146875,85.58933333333333L126.48229166666667,57.348L126.5026451388889,68.44000000000001L126.51136805555556,62.264666666666656L126.81812395833333,64.782L127.33422986111111,54.201333333333324L127.35749097222222,56.83666666666667L127.52322638888889,58.528000000000006L127.55521041666667,62.028666666666666L128.40569479166666,54.988L128.55543819444443,58.37066666666665L128.68628194444443,52.982L128.69645868055554,60.69133333333333L129.32014722222223,57.15133333333334L129.48879027777778,64.34933333333333L129.67778680555557,57.50533333333334L129.69232499999998,60.33733333333333L129.78973090277776,52.47066666666666L130.43231909722223,53.57199999999999L130.63003854166666,57.15133333333334L130.66347638888888,54.43733333333334L130.7158138888889,55.02733333333333L130.75070555555556,53.69L130.84520381944446,53.37533333333333L130.97459375,53.650666666666666L131.7363951388889,57.85933333333334L132.13474166666666,55.02733333333333L132.23796284722224,55.656666666666666L132.2481395833333,52.70666666666668L132.87328194444444,52.07733333333334L133.2192909722222,55.53866666666667L133.4184642361111,59.236000000000004L133.71068194444445,58.13466666666666L134.02179930555553,56.56133333333334L134.31256319444444,53.02133333333333L135.16886284722224,54.08333333333334L135.4334579861111,54.712666666666664L135.72712951388888,54.358666666666664L135.8870496527778,53.493333333333325L136.03097777777776,55.342L136.27958090277778,52.78533333333334L136.50492291666666,56.128666666666675L136.56307569444442,55.224000000000004L136.5717986111111,55.06666666666666L137.09081215277777,56.128666666666675L138.8513875,54.712666666666664L138.88627916666664,54.31933333333333L138.9386166666667,54.55533333333332L138.97060069444444,56.83666666666667L139.61464270833332,55.42066666666666L139.90249895833333,55.46000000000001L140.07114201388887,56.08933333333333L140.1496482638889,54.28L140.24269270833335,55.02733333333333L140.9158111111111,54.55533333333332L140.95361041666666,54.55533333333332L140.97832534722224,53.139333333333326L141.1222534722222,55.14533333333334L141.26036631944444,54.79133333333334L141.76629548611112,55.46000000000001L141.7982795138889,52.39200000000001L142.38853020833335,53.886666666666656L142.711278125,51.566L143.20412291666668,56.403999999999996L143.24919131944446,53.57199999999999L144.18108958333335,56.56133333333334L144.29884895833334,45.31200000000001L145.39212118055553,58.37066666666665L145.99254861111112,54.240666666666655L146.03034791666667,51.88066666666667L146.1451996527778,54.044L146.25132847222224,53.493333333333325L146.60315277777778,53.611333333333334L146.94916180555555,52.628L146.97823819444446,54.988L146.99859166666667,54.594666666666654L147.75748541666667,54.28L148.0308034722222,57.348L148.03516493055557,53.69L148.09041006944443,53.06066666666668L148.2910371527778,52.31333333333333L148.50329479166666,53.729333333333344L148.5963392361111,54.240666666666655L148.80423541666667,53.768666666666675L149.044115625,55.06666666666666L149.24038125,53.650666666666666L149.5122454861111,57.230000000000004L150.1591951388889,54.31933333333333L150.20280972222224,53.37533333333333L150.33074583333334,55.18466666666667L151.18704548611112,48.104666666666674L151.26555173611112,56.24666666666667L152.30939409722222,53.21799999999999L152.62341909722224,53.21799999999999L152.890921875,60.53399999999999L153.08573368055556,58.01666666666665L153.12062534722222,53.139333333333326L153.21366979166666,54.240666666666655L153.31543715277778,52.07733333333334L154.0452545138889,54.122666666666674L154.1441142361111,54.28L154.72854965277776,54.988L154.84630902777778,55.30266666666667L155.73023125,51.566L156.17073854166668,55.85333333333334L156.40480347222223,52.274L156.81478055555556,54.712666666666664L157.48644513888888,53.45400000000001L157.88333784722224,49.56L158.15229444444444,53.45400000000001L158.48231145833333,49.63866666666668L158.55354861111113,55.696L158.69311527777776,51.212L159.18305243055556,52.74600000000001L159.2630125,59.511333333333326L159.53196909722223,52.903333333333336L159.69915833333332,52.11666666666666L159.74131909722223,48.262L160.25597118055555,53.926L160.2792322916667,48.06533333333334L160.34756180555556,55.81400000000001L160.75172361111112,53.257333333333335L160.86802916666667,53.17866666666666L161.26056041666666,47.47533333333334L161.421934375,47.868666666666684L161.4611875,44.72200000000001L161.66326840277776,50.77933333333333L161.8508111111111,50.858000000000004L162.51956805555554,52.74600000000001L162.5631826388889,51.369333333333344L162.573359375,50.93666666666667L162.63732743055556,49.75666666666666L163.18105590277776,50.46466666666666L163.49798854166667,48.02600000000001L163.52124965277778,50.34666666666668L163.70733854166667,49.678L163.76258368055557,55.06666666666666L164.31648888888887,53.45400000000001L164.74972708333334,50.18933333333334L164.75118090277778,56.79733333333333L164.80351840277777,50.976L165.74413958333332,54.397999999999996L165.9782045138889,50.77933333333333L166.09887152777776,54.83066666666667L166.15411666666668,52.39200000000001L166.42307326388888,50.34666666666668L166.59753159722223,49.16666666666667L166.83886562499998,52.43133333333334L167.13835243055556,52.11666666666666L167.2779190972222,51.644666666666666L167.33461805555555,44.56466666666665L167.79838645833334,53.10000000000001L168.15893368055555,52.94266666666667L168.22435555555555,48.81266666666667L168.35810694444444,54.28L168.43370555555555,52.74600000000001L168.70120833333334,53.611333333333334L168.7695378472222,53.139333333333326L169.29000520833335,51.369333333333344L169.42811805555556,50.622L169.60403020833334,54.122666666666674L169.6679982638889,48.77333333333334L169.7145204861111,48.02600000000001L170.33820902777776,53.886666666666656L170.4109,50.70066666666666L170.82378472222223,53.21799999999999L171.27010729166665,50.54333333333334L171.31953715277777,49.71733333333333L171.37914375,46.570666666666654L171.59285520833333,52.903333333333336L172.28487326388887,48.340666666666664L172.30668055555557,50.42533333333333L172.61343645833333,50.42533333333333L172.6526895833333,50.150000000000006L172.753003125,51.487333333333325L172.93909201388888,49.28466666666668L173.16588784722222,53.69L173.25602465277777,41.29999999999998L173.38541458333333,50.81866666666666L173.87389791666666,48.02600000000001L173.96984999999998,51.52666666666667L173.9989263888889,54.634L174.11813958333335,53.80800000000001L174.37255798611113,53.847333333333324L174.72147465277777,48.262L174.88575625000001,46.45266666666669L175.01078472222224,49.245333333333335L175.05439930555556,53.336L175.9063375,50.11066666666666L176.11859513888888,48.45866666666666L176.2203625,46.17733333333334L176.88330416666668,49.75666666666666L177.28891979166667,51.212L177.98529930555554,50.976L178.13213506944444,52.66733333333333L178.20046458333334,51.487333333333325L178.51448958333333,50.30733333333335L178.77763090277776,50.858000000000004L179.01314965277777,54.988L179.13963194444446,51.29066666666667L179.1454472222222,53.139333333333326L179.3402590277778,53.53266666666666L179.91015625,51.29066666666667L180.1951048611111,49.324L180.44516180555556,52.982L180.6138048611111,47.27866666666665L181.60385590277778,52.15599999999999L181.60821736111112,52.628L181.93096527777777,47.20000000000002L182.10687743055556,42.71599999999998L182.57646111111112,51.998666666666665L182.80616458333333,49.95333333333335L183.168165625,48.93066666666667L183.88926006944445,47.98666666666665L183.979396875,49.48133333333334L184.2570763888889,51.841333333333324L184.26579930555556,53.650666666666666L184.65396909722222,44.60400000000001L185.03923125,44.879333333333335L185.04650034722223,52.03800000000001L185.34453333333335,49.83533333333334L185.58150590277776,48.104666666666674L185.63675104166668,50.34666666666668L186.0176517361111,48.77333333333334L186.2618934027778,51.093999999999994L186.42762881944444,54.358666666666664L186.47269722222222,49.36333333333333L187.40604930555557,53.45400000000001L187.51944722222223,54.122666666666674L187.54270833333334,50.22866666666667L188.48478333333335,54.004666666666665L188.52403645833334,53.69L188.5691048611111,49.678L188.60254270833335,50.81866666666666L188.63598055555553,51.605333333333334L189.06776493055554,51.40866666666666L189.8281125,51.52666666666667L189.893534375,54.870000000000005L190.06653888888889,49.324L191.04932083333333,43.18799999999999L191.62648715277777,54.516000000000005L191.94632743055556,50.739999999999995L192.1469545138889,50.976L192.20365347222221,53.847333333333324L192.62816875,51.40866666666666L192.86804895833333,51.605333333333334L192.90148680555558,53.10000000000001L192.95382430555557,51.093999999999994L193.35943993055554,51.17266666666666L193.46702256944445,50.976L193.63275798611113,48.53733333333335L193.93806006944445,53.257333333333335L193.9860361111111,46.49200000000002L194.53412604166667,48.73400000000001L194.66642361111113,49.00933333333333L194.79435972222223,46.45266666666669L194.83070520833334,51.68400000000001L194.95427986111113,52.23466666666667L195.05168576388888,51.72333333333334L195.80621805555558,52.50999999999999L195.91961597222223,48.97L196.15513472222221,44.52533333333332L196.6683329861111,49.914L196.97072743055554,44.44666666666666L197.011434375,45.666L197.07394861111112,46.21666666666667L197.47229513888888,49.599333333333334L198.1657670138889,43.93533333333335L198.17303611111112,50.858000000000004L198.34167916666667,50.77933333333333L198.59464375000002,51.40866666666666L199.3767986111111,52.03800000000001L199.73879965277777,50.22866666666667L199.7954986111111,50.622L199.9350652777778,48.852000000000004L201.23187222222222,44.407333333333355L201.590965625,49.52066666666667L201.774146875,51.998666666666665L201.84102256944445,46.21666666666667L202.24954583333334,52.94266666666667L202.29897569444447,49.44199999999999L202.70749895833333,40.47399999999999L202.84997326388887,52.86399999999999L202.89649548611112,48.379999999999995L203.06513854166667,40.591999999999985L203.23523541666665,53.257333333333335L203.33700277777777,44.76133333333334L203.8356628472222,43.73866666666666L204.1584107638889,50.18933333333334L204.37939131944444,47.160666666666685L204.89549722222222,50.34666666666668L204.93911180555554,40.631333333333316L205.17172291666668,49.75666666666666L205.41014930555556,41.339333333333315L205.59187673611112,39.372666666666674L206.04110694444446,40.55266666666668L206.42346145833335,42.59800000000001L206.54122083333334,48.615999999999985L206.69823333333335,49.324L207.15909409722224,49.52066666666667L207.43531979166664,48.41933333333333L207.50364930555557,52.50999999999999L208.3061576388889,45.23333333333332L208.4602625,50.77933333333333L208.67252013888887,47.27866666666665L209.1929875,52.03800000000001L209.7628847222222,50.81866666666666L209.80649930555558,51.80199999999999L209.94606597222221,46.02000000000001L210.11034756944443,37.48466666666667L210.25572951388887,44.17133333333334L210.4650795138889,43.14866666666666L210.77183541666668,44.72200000000001L211.02043854166666,51.29066666666667L211.1265673611111,44.25L211.51473715277777,51.44799999999999L212.03084305555555,48.93066666666667L212.37830590277778,48.30133333333333L212.89731944444446,50.58266666666667L213.0165326388889,49.04866666666666L213.17209131944446,48.73400000000001L213.18517569444444,48.104666666666674L213.44250173611113,42.00799999999998L213.86992465277777,41.103333333333325L213.92807743055556,51.17266666666666L214.22320277777777,48.30133333333333L214.33950833333336,48.77333333333334L214.83671458333333,46.098666666666674L215.01989583333332,49.99266666666668L215.09258680555556,39.45133333333334L215.11439409722223,42.834L215.28885243055555,47.868666666666684L216.036115625,49.28466666666668L216.15969027777777,51.212L216.16841319444444,41.96866666666668L216.37049409722223,52.982L217.0639659722222,43.30600000000001L217.20207881944444,43.26666666666668L217.23987812500002,45.548L217.2631392361111,48.379999999999995L217.48411979166664,40.591999999999985L217.54663402777777,41.850666666666655L217.7530763888889,46.334666666666664L218.024940625,46.256L218.25464409722224,48.65533333333332L218.30116631944443,48.69466666666665L218.41456423611112,41.73266666666666L218.56721527777776,41.418000000000006L218.91613194444446,48.81266666666667L218.91903958333333,42.99133333333333L219.65903368055555,41.929333333333346L219.7855159722222,45.90199999999999L219.8407611111111,41.339333333333315L220.26091493055554,48.262L220.41356597222222,48.45866666666666L220.90931840277779,48.340666666666664L221.16955208333331,42.834L222.15088020833332,40.238L222.1959486111111,43.77799999999999L222.30789270833336,50.34666666666668L222.7280465277778,42.08666666666667L222.95338854166667,52.54933333333334L223.18454583333335,46.45266666666669L223.2746826388889,45.27266666666665L223.39098819444442,42.59800000000001L223.4287875,47.20000000000002L223.51310902777777,50.150000000000006L224.0742833333333,49.83533333333334L224.1934965277778,45.626666666666665L224.57439722222225,42.75533333333334L224.59765833333333,50.70066666666666L224.95820555555557,40.55266666666668L225.20971631944442,46.334666666666664L225.7389065972222,40.04133333333334L226.2782736111111,42.79466666666667L226.50506944444444,42.32266666666666L226.8728857638889,47.868666666666684L226.88742395833333,46.609999999999985L227.0953201388889,39.53L227.17091875,51.093999999999994L227.43260625,41.653999999999996L227.63323333333332,41.653999999999996L227.76553090277778,42.67666666666668L228.04175659722222,42.04733333333331L228.204584375,47.75066666666666L228.24529131944445,47.82933333333335L228.25110659722225,47.672L228.56367777777777,40.00200000000001L228.77448159722223,41.103333333333325L228.85008020833334,42.44066666666666L229.4795840277778,46.80666666666667L229.51156805555556,48.852000000000004L229.73545625,40.19866666666667L230.06111180555556,42.126000000000005L230.41584375,48.81266666666667L230.6542701388889,41.49666666666667L231.23143645833335,41.378666666666675L231.91618541666665,46.76733333333334L232.2447486111111,47.75066666666666L232.76666979166666,41.57533333333333L233.24497638888892,39.45133333333334L233.56336284722224,45.19399999999999L233.9064642361111,48.262L234.54178333333334,40.71000000000001L234.55050624999998,42.20466666666667L235.060796875,40.43466666666666L235.39226770833332,42.00799999999998L235.48095069444443,53.21799999999999L235.5376496527778,43.620666666666665L235.64087083333334,43.22733333333335L236.69052847222224,52.23466666666667L236.78938819444443,47.78999999999999L237.01036875,41.77199999999999L237.26333333333332,50.77933333333333L237.3462010416667,41.339333333333315L237.5962579861111,40.355999999999995L237.9204597222222,43.109333333333325L237.99896597222224,46.609999999999985L238.47581875,46.05933333333334L238.80728958333333,36.69800000000001L238.97447881944447,50.34666666666668L238.99337847222222,41.06399999999999L239.0704309027778,47.868666666666684L240.02122881944445,50.661333333333346L241.0301795138889,47.317999999999984L241.13776215277778,39.49066666666667L241.54628541666668,43.30600000000001L242.23830347222224,40.71000000000001L242.69189513888887,44.56466666666665L242.74277881944445,49.87466666666667L242.98556666666667,49.36333333333333L243.016096875,49.324L243.36065208333335,41.142666666666656L243.8636736111111,49.12733333333334L244.08756180555557,41.142666666666656L244.1544375,40.55266666666668L244.40013298611112,47.160666666666685L245.11395833333333,50.976L245.1401270833333,46.76733333333334L245.14158090277778,47.43600000000001L245.31749305555556,43.542L246.37441979166667,43.97466666666668L246.48345625,48.41933333333333L246.71025208333333,47.43600000000001L246.79602743055557,42.99133333333333L247.57818229166668,48.02600000000001L247.91837604166668,42.20466666666667L248.62202465277778,41.29999999999998L248.95494930555554,36.73733333333334L248.97821041666668,49.12733333333334L249.03927083333332,44.092666666666645L249.65569027777778,39.608666666666664L249.72111215277778,42.79466666666667L249.92319305555557,49.245333333333335L249.94936180555555,39.372666666666674L250.28083263888888,42.873333333333335L251.04554166666668,48.73400000000001L251.29414479166667,50.385999999999996L251.43807291666667,40.120000000000005L252.15189826388888,49.95333333333335L252.21586631944444,45.74466666666666L252.31763368055556,44.60400000000001L252.36124826388888,49.324L252.3874170138889,40.906666666666666L252.61421284722223,48.379999999999995L253.13468020833335,44.48599999999999L253.13904166666669,46.92466666666667L253.1404954861111,45.43000000000001L253.14340312500002,47.47533333333334L253.1463107638889,48.49799999999999L253.1564875,50.18933333333334L253.16084895833333,47.47533333333334L253.16230277777777,41.49666666666667L253.16521041666667,43.66L253.16811805555557,50.42533333333333L253.17102569444444,50.032L253.17247951388887,39.647999999999996L253.17538715277777,36.658666666666676L253.1797486111111,41.142666666666656L253.18265625,42.126000000000005L253.18701770833334,42.67666666666668L253.18992534722221,47.632666666666665L253.19428680555555,47.672L253.195740625,42.873333333333335L253.19719444444442,45.90199999999999L253.2117326388889,50.18933333333334L253.21318645833333,40.98533333333333L253.21609409722222,49.12733333333334L253.21754791666666,50.897333333333336L253.21900173611112,44.80066666666667L253.22045555555556,39.53L253.2248170138889,47.121333333333325L253.22627083333333,47.357333333333344L253.2291784722222,48.81266666666667L253.23353993055554,50.18933333333334L253.23644756944446,46.05933333333334L253.23935520833334,43.81733333333332L253.2422628472222,45.11533333333335L253.2553472222222,46.41333333333333L253.25680104166668,49.16666666666667L253.2611625,43.26666666666668L253.26407013888888,50.30733333333335L253.26697777777778,49.71733333333333L253.26843159722222,50.976L253.26988541666665,40.51333333333335L253.27279305555555,49.83533333333334L253.274246875,43.18799999999999L253.27860833333332,50.739999999999995" style="fill: none;" fill="none"></path></g></g></g></g></g></g><g transform="translate(68, 177)" clip-path="url(#clip_1)"><clipPath id="clip_1"><rect width="261" height="23"></rect></clipPath><g><g><line x1="0" y1="0" x2="0" y2="5" style="visibility: inherit;" fill="rgb(0, 0, 0)" stroke="rgb(204, 204, 204)" stroke-width="1px"></line><line x1="29.076388888888886" y1="0" x2="29.076388888888886" y2="5" style="visibility: inherit;" fill="rgb(0, 0, 0)" stroke="rgb(204, 204, 204)" stroke-width="1px"></line><line x1="58.15277777777777" y1="0" x2="58.15277777777777" y2="5" style="visibility: inherit;" fill="rgb(0, 0, 0)" stroke="rgb(204, 204, 204)" stroke-width="1px"></line><line x1="87.22916666666666" y1="0" x2="87.22916666666666" y2="5" style="visibility: inherit;" fill="rgb(0, 0, 0)" stroke="rgb(204, 204, 204)" stroke-width="1px"></line><line x1="116.30555555555554" y1="0" x2="116.30555555555554" y2="5" style="visibility: inherit;" fill="rgb(0, 0, 0)" stroke="rgb(204, 204, 204)" stroke-width="1px"></line><line x1="145.38194444444446" y1="0" x2="145.38194444444446" y2="5" style="visibility: inherit;" fill="rgb(0, 0, 0)" stroke="rgb(204, 204, 204)" stroke-width="1px"></line><line x1="174.45833333333331" y1="0" x2="174.45833333333331" y2="5" style="visibility: inherit;" fill="rgb(0, 0, 0)" stroke="rgb(204, 204, 204)" stroke-width="1px"></line><line x1="203.53472222222223" y1="0" x2="203.53472222222223" y2="5" style="visibility: inherit;" fill="rgb(0, 0, 0)" stroke="rgb(204, 204, 204)" stroke-width="1px"></line><line x1="232.6111111111111" y1="0" x2="232.6111111111111" y2="5" style="visibility: inherit;" fill="rgb(0, 0, 0)" stroke="rgb(204, 204, 204)" stroke-width="1px"></line><line x1="261.6875" y1="0" x2="261.6875" y2="5" style="visibility: inherit;" fill="rgb(0, 0, 0)" stroke="rgb(204, 204, 204)" stroke-width="1px"></line></g><g transform="translate(0, 8)"><text x="0" y="0" dx="0em" dy="0.95em" style="text-anchor: middle; visibility: hidden; font-family: &quot;Helvetica Neue&quot;, sans-serif; font-size: 12px; font-weight: 200;" fill="rgb(50, 49, 63)" stroke="none" stroke-width="1px">-20k</text><text x="29.076388888888886" y="0" dx="0em" dy="0.95em" style="text-anchor: middle; visibility: inherit; font-family: &quot;Helvetica Neue&quot;, sans-serif; font-size: 12px; font-weight: 200;" fill="rgb(50, 49, 63)" stroke="none" stroke-width="1px">0</text><text x="58.15277777777777" y="0" dx="0em" dy="0.95em" style="text-anchor: middle; visibility: hidden; font-family: &quot;Helvetica Neue&quot;, sans-serif; font-size: 12px; font-weight: 200;" fill="rgb(50, 49, 63)" stroke="none" stroke-width="1px">20k</text><text x="87.22916666666666" y="0" dx="0em" dy="0.95em" style="text-anchor: middle; visibility: inherit; font-family: &quot;Helvetica Neue&quot;, sans-serif; font-size: 12px; font-weight: 200;" fill="rgb(50, 49, 63)" stroke="none" stroke-width="1px">40k</text><text x="116.30555555555554" y="0" dx="0em" dy="0.95em" style="text-anchor: middle; visibility: hidden; font-family: &quot;Helvetica Neue&quot;, sans-serif; font-size: 12px; font-weight: 200;" fill="rgb(50, 49, 63)" stroke="none" stroke-width="1px">60k</text><text x="145.38194444444446" y="0" dx="0em" dy="0.95em" style="text-anchor: middle; visibility: inherit; font-family: &quot;Helvetica Neue&quot;, sans-serif; font-size: 12px; font-weight: 200;" fill="rgb(50, 49, 63)" stroke="none" stroke-width="1px">80k</text><text x="174.45833333333331" y="0" dx="0em" dy="0.95em" style="text-anchor: middle; visibility: hidden; font-family: &quot;Helvetica Neue&quot;, sans-serif; font-size: 12px; font-weight: 200;" fill="rgb(50, 49, 63)" stroke="none" stroke-width="1px">100k</text><text x="203.53472222222223" y="0" dx="0em" dy="0.95em" style="text-anchor: middle; visibility: inherit; font-family: &quot;Helvetica Neue&quot;, sans-serif; font-size: 12px; font-weight: 200;" fill="rgb(50, 49, 63)" stroke="none" stroke-width="1px">120k</text><text x="232.6111111111111" y="0" dx="0em" dy="0.95em" style="text-anchor: middle; visibility: hidden; font-family: &quot;Helvetica Neue&quot;, sans-serif; font-size: 12px; font-weight: 200;" fill="rgb(50, 49, 63)" stroke="none" stroke-width="1px">140k</text><text x="261.6875" y="0" dx="0em" dy="0.95em" style="text-anchor: middle; visibility: hidden; font-family: &quot;Helvetica Neue&quot;, sans-serif; font-size: 12px; font-weight: 200;" fill="rgb(50, 49, 63)" stroke="none" stroke-width="1px">160k</text></g><line x1="0" y1="0" x2="261.6875" y2="0" fill="rgb(0, 0, 0)" stroke="rgb(204, 204, 204)" stroke-width="1px"></line></g></g></g></g></svg>