<svg viewBox="0 0 330 200" xmlns="http://www.w3.org/2000/svg"><g><g><g><g><g><line x1="68.3125" y1="177" x2="63.3125" y2="177" style="visibility: inherit;" fill="rgb(0, 0, 0)" stroke="rgb(204, 204, 204)" stroke-width="1px"></line><line x1="68.3125" y1="162.25" x2="63.3125" y2="162.25" style="visibility: inherit;" fill="rgb(0, 0, 0)" stroke="rgb(204, 204, 204)" stroke-width="1px"></line><line x1="68.3125" y1="147.5" x2="63.3125" y2="147.5" style="visibility: inherit;" fill="rgb(0, 0, 0)" stroke="rgb(204, 204, 204)" stroke-width="1px"></line><line x1="68.3125" y1="132.75" x2="63.3125" y2="132.75" style="visibility: inherit;" fill="rgb(0, 0, 0)" stroke="rgb(204, 204, 204)" stroke-width="1px"></line><line x1="68.3125" y1="118" x2="63.3125" y2="118" style="visibility: inherit;" fill="rgb(0, 0, 0)" stroke="rgb(204, 204, 204)" stroke-width="1px"></line><line x1="68.3125" y1="103.25" x2="63.3125" y2="103.25" style="visibility: inherit;" fill="rgb(0, 0, 0)" stroke="rgb(204, 204, 204)" stroke-width="1px"></line><line x1="68.3125" y1="88.5" x2="63.3125" y2="88.5" style="visibility: inherit;" fill="rgb(0, 0, 0)" stroke="rgb(204, 204, 204)" stroke-width="1px"></line><line x1="68.3125" y1="73.75" x2="63.3125" y2="73.75" style="visibility: inherit;" fill="rgb(0, 0, 0)" stroke="rgb(204, 204, 204)" stroke-width="1px"></line><line x1="68.3125" y1="59" x2="63.3125" y2="59" style="visibility: inherit;" fill="rgb(0, 0, 0)" stroke="rgb(204, 204, 204)" stroke-width="1px"></line><line x1="68.3125" y1="44.25" x2="63.3125" y2="44.25" style="visibility: inherit;" fill="rgb(0, 0, 0)" stroke="rgb(204, 204, 204)" stroke-width="1px"></line><line x1="68.3125" y1="29.5" x2="63.3125" y2="29.5" style="visibility: inherit;" fill="rgb(0, 0, 0)" stroke="rgb(204, 204, 204)" stroke-width="1px"></line><line x1="68.3125" y1="14.75" x2="63.3125" y2="14.75" style="visibility: inherit;" fill="rgb(0, 0, 0)" stroke="rgb(204, 204, 204)" stroke-width="1px"></line><line x1="68.3125" y1="0" x2="63.3125" y2="0" style="visibility: inherit;" fill="rgb(0, 0, 0)" stroke="rgb(204, 204, 204)" stroke-width="1px"></line></g><g transform="translate(58.3125, 0)"><text x="0" y="177" dx="0em" dy="0.3em" style="text-anchor: end; visibility: hidden; font-family: &quot;Helvetica Neue&quot;, sans-serif; font-size: 12px; font-weight: 200;" fill="rgb(50, 49, 63)" stroke="none" stroke-width="1px">-1e+5</text><text x="0" y="162.25" dx="0em" dy="0.3em" style="text-anchor: end; visibility: inherit; font-family: &quot;Helvetica Neue&quot;, sans-serif; font-size: 12px; font-weight: 200;" fill="rgb(50, 49, 63)" stroke="none" stroke-width="1px">0</text><text x="0" y="147.5" dx="0em" dy="0.3em" style="text-anchor: end; visibility: hidden; font-family: &quot;Helvetica Neue&quot;, sans-serif; font-size: 12px; font-weight: 200;" fill="rgb(50, 49, 63)" stroke="none" stroke-width="1px">1e+5</text><text x="0" y="132.75" dx="0em" dy="0.3em" style="text-anchor: end; visibility: inherit; font-family: &quot;Helvetica Neue&quot;, sans-serif; font-size: 12px; font-weight: 200;" fill="rgb(50, 49, 63)" stroke="none" stroke-width="1px">2e+5</text><text x="0" y="118" dx="0em" dy="0.3em" style="text-anchor: end; visibility: hidden; font-family: &quot;Helvetica Neue&quot;, sans-serif; font-size: 12px; font-weight: 200;" fill="rgb(50, 49, 63)" stroke="none" stroke-width="1px">3e+5</text><text x="0" y="103.25" dx="0em" dy="0.3em" style="text-anchor: end; visibility: inherit; font-family: &quot;Helvetica Neue&quot;, sans-serif; font-size: 12px; font-weight: 200;" fill="rgb(50, 49, 63)" stroke="none" stroke-width="1px">4e+5</text><text x="0" y="88.5" dx="0em" dy="0.3em" style="text-anchor: end; visibility: hidden; font-family: &quot;Helvetica Neue&quot;, sans-serif; font-size: 12px; font-weight: 200;" fill="rgb(50, 49, 63)" stroke="none" stroke-width="1px">5e+5</text><text x="0" y="73.75" dx="0em" dy="0.3em" style="text-anchor: end; visibility: inherit; font-family: &quot;Helvetica Neue&quot;, sans-serif; font-size: 12px; font-weight: 200;" fill="rgb(50, 49, 63)" stroke="none" stroke-width="1px">6e+5</text><text x="0" y="59" dx="0em" dy="0.3em" style="text-anchor: end; visibility: hidden; font-family: &quot;Helvetica Neue&quot;, sans-serif; font-size: 12px; font-weight: 200;" fill="rgb(50, 49, 63)" stroke="none" stroke-width="1px">7e+5</text><text x="0" y="44.25" dx="0em" dy="0.3em" style="text-anchor: end; visibility: inherit; font-family: &quot;Helvetica Neue&quot;, sans-serif; font-size: 12px; font-weight: 200;" fill="rgb(50, 49, 63)" stroke="none" stroke-width="1px">8e+5</text><text x="0" y="29.5" dx="0em" dy="0.3em" style="text-anchor: end; visibility: hidden; font-family: &quot;Helvetica Neue&quot;, sans-serif; font-size: 12px; font-weight: 200;" fill="rgb(50, 49, 63)" stroke="none" stroke-width="1px">9e+5</text><text x="0" y="14.75" dx="0em" dy="0.3em" style="text-anchor: end; visibility: inherit; font-family: &quot;Helvetica Neue&quot;, sans-serif; font-size: 12px; font-weight: 200;" fill="rgb(50, 49, 63)" stroke="none" stroke-width="1px">1e+6</text><text x="0" y="0" dx="0em" dy="0.3em" style="text-anchor: end; visibility: hidden; font-family: &quot;Helvetica Neue&quot;, sans-serif; font-size: 12px; font-weight: 200;" fill="rgb(50, 49, 63)" stroke="none" stroke-width="1px">1.1e+6</text></g><line x1="68.3125" y1="0" x2="68.3125" y2="177" fill="rgb(0, 0, 0)" stroke="rgb(204, 204, 204)" stroke-width="1px"></line></g></g><g transform="translate(68, 0)" clip-path="url(#clip_0)"><clipPath id="clip_0"><rect width="261" height="177"></rect></clipPath><g><g><g><line x1="0" y1="0" x2="0" y2="177" fill="rgb(0, 0, 0)" stroke="rgb(60, 60, 60)" stroke-width="1px" opacity="0.25"></line><line x1="29.076388888888886" y1="0" x2="29.076388888888886" y2="177" fill="rgb(0, 0, 0)" stroke="rgb(60, 60, 60)" stroke-width="1px" opacity="0.25"></line><line x1="58.15277777777777" y1="0" x2="58.15277777777777" y2="177" fill="rgb(0, 0, 0)" stroke="rgb(60, 60, 60)" stroke-width="1px" opacity="0.25"></line><line x1="87.22916666666666" y1="0" x2="87.22916666666666" y2="177" fill="rgb(0, 0, 0)" stroke="rgb(60, 60, 60)" stroke-width="1px" opacity="0.25"></line><line x1="116.30555555555554" y1="0" x2="116.30555555555554" y2="177" fill="rgb(0, 0, 0)" stroke="rgb(60, 60, 60)" stroke-width="1px" opacity="0.25"></line><line x1="145.38194444444446" y1="0" x2="145.38194444444446" y2="177" fill="rgb(0, 0, 0)" stroke="rgb(60, 60, 60)" stroke-width="1px" opacity="0.25"></line><line x1="174.45833333333331" y1="0" x2="174.45833333333331" y2="177" fill="rgb(0, 0, 0)" stroke="rgb(60, 60, 60)" stroke-width="1px" opacity="0.25"></line><line x1="203.53472222222223" y1="0" x2="203.53472222222223" y2="177" fill="rgb(0, 0, 0)" stroke="rgb(60, 60, 60)" stroke-width="1px" opacity="0.25"></line><line x1="232.6111111111111" y1="0" x2="232.6111111111111" y2="177" fill="rgb(0, 0, 0)" stroke="rgb(60, 60, 60)" stroke-width="1px" opacity="0.25"></line><line x1="261.6875" y1="0" x2="261.6875" y2="177" fill="rgb(0, 0, 0)" stroke="rgb(60, 60, 60)" stroke-width="1px" opacity="0.25"></line></g><g><line x1="0" y1="177" x2="261.6875" y2="177" fill="rgb(0, 0, 0)" stroke="rgb(60, 60, 60)" stroke-width="1px" opacity="0.25"></line><line x1="0" y1="162.25" x2="261.6875" y2="162.25" fill="rgb(0, 0, 0)" stroke="rgb(60, 60, 60)" stroke-width="1px" opacity="0.25"></line><line x1="0" y1="147.5" x2="261.6875" y2="147.5" fill="rgb(0, 0, 0)" stroke="rgb(60, 60, 60)" stroke-width="1px" opacity="0.25"></line><line x1="0" y1="132.75" x2="261.6875" y2="132.75" fill="rgb(0, 0, 0)" stroke="rgb(60, 60, 60)" stroke-width="1px" opacity="0.25"></line><line x1="0" y1="118" x2="261.6875" y2="118" fill="rgb(0, 0, 0)" stroke="rgb(60, 60, 60)" stroke-width="1px" opacity="0.25"></line><line x1="0" y1="103.25" x2="261.6875" y2="103.25" fill="rgb(0, 0, 0)" stroke="rgb(60, 60, 60)" stroke-width="1px" opacity="0.25"></line><line x1="0" y1="88.5" x2="261.6875" y2="88.5" fill="rgb(0, 0, 0)" stroke="rgb(60, 60, 60)" stroke-width="1px" opacity="0.25"></line><line x1="0" y1="73.75" x2="261.6875" y2="73.75" fill="rgb(0, 0, 0)" stroke="rgb(60, 60, 60)" stroke-width="1px" opacity="0.25"></line><line x1="0" y1="59" x2="261.6875" y2="59" fill="rgb(0, 0, 0)" stroke="rgb(60, 60, 60)" stroke-width="1px" opacity="0.25"></line><line x1="0" y1="44.25" x2="261.6875" y2="44.25" fill="rgb(0, 0, 0)" stroke="rgb(60, 60, 60)" stroke-width="1px" opacity="0.25"></line><line x1="0" y1="29.5" x2="261.6875" y2="29.5" fill="rgb(0, 0, 0)" stroke="rgb(60, 60, 60)" stroke-width="1px" opacity="0.25"></line><line x1="0" y1="14.75" x2="261.6875" y2="14.75" fill="rgb(0, 0, 0)" stroke="rgb(60, 60, 60)" stroke-width="1px" opacity="0.25"></line><line x1="0" y1="0" x2="261.6875" y2="0" fill="rgb(0, 0, 0)" stroke="rgb(60, 60, 60)" stroke-width="1px" opacity="0.25"></line></g></g></g><g><g><line x1="0" y1="162.25" x2="261.6875" y2="162.25" fill="rgb(0, 0, 0)" stroke="rgb(153, 153, 153)" stroke-width="1.5px"></line></g></g><g><g><line x1="29.076388888888886" y1="0" x2="29.076388888888886" y2="177" fill="rgb(0, 0, 0)" stroke="rgb(153, 153, 153)" stroke-width="1.5px"></line></g></g><g><g><g><g><g><path stroke="rgb(255, 112, 67)" stroke-width="2px" d="M29.179610069444443,161.94025L29.202871180555555,161.94801315789474L29.327899652777777,161.95059132841328L29.339530208333333,161.95187329165455L29.425305555555557,161.97424800981662L29.470373958333333,161.9669921445325L29.471827777777776,161.95903893426166L29.487819791666666,161.95832976802353L29.50090416666667,161.95537835229726L29.503811805555554,161.9553202623582L29.512534722222224,161.95097448520278L29.518349999999998,161.9494799302081L29.577956597222222,161.9699971354862L29.624478819444445,161.94701480096873L29.684085416666665,161.94802035566707L29.72188472222222,161.96336096620374L29.812021527777777,161.94288506660217L29.823652083333332,161.94257502424784L29.82946736111111,161.92695787677405L29.845459375,161.90664217390633L29.951588194444447,161.91041587059237L29.964672569444446,161.89736397037822L29.97339548611111,161.9020696333365L29.995202777777777,161.8693529788447L30.01555625,161.87381285453884L30.02282534722222,161.87776170772287L30.105693055555555,161.86560354286144L30.11296215277778,161.88904499122697L30.142038541666665,161.89132277883192L30.162392013888887,161.88719032128688L30.166753472222226,161.87737168825393L30.20164513888889,161.86708117576623L30.211821875,161.86854324060502L30.230721527777778,161.83950631727245L30.3034125,161.81958194758863L30.310681597222224,161.79118399234784L30.333942708333332,161.7747830549291L30.336850347222224,161.7916373058685L30.403726041666665,161.76625674517433L30.4080875,161.76295730197316L30.412448958333332,161.73906878777706L30.485139930555555,161.7325589701085L30.509854861111112,161.71925977071768L30.547654166666664,161.68497632176428L30.658144444444446,161.68989663389286L30.669775,161.70918347184065L30.67268263888889,161.7175996239102L30.69012847222222,161.70883388789827L30.726473958333333,161.6994718883963L30.767180902777778,161.72367443403633L30.850048611111113,161.7143135712283L30.99979201388889,161.67923577983368L31.015784027777777,161.70691620001583L31.024506944444443,161.7229287246355L31.039045138888888,161.71661664291207L31.17134270833333,161.70354417407714L31.244033680555553,161.71100815564301L31.27601770833333,161.69554804133222L31.28037916666667,161.6742507132903L31.283286805555555,161.65509121214035L31.334170486111113,161.67035678007085L31.382146527777778,161.6988625945099L31.390869444444444,161.70678671582033L31.42576111111111,161.69767229817165L31.43303020833333,161.69094793301892L31.51444409722222,161.7011378711584L31.58568125,161.7073544272002L31.598765625,161.732138156033L31.639472569444447,161.75296383924137L31.662733680555554,161.74366162674858L31.668548958333332,161.761855724105L31.675818055555556,161.76347097147902L31.700532986111114,161.76049751612837L31.720886458333332,161.763724090955L31.783400694444445,161.74892120496213L31.809569444444445,161.73707513984903L31.81829236111111,161.75592327447427L31.835738194444446,161.765508532378L31.848822569444444,161.75495511730455L31.88080659722222,161.76021075379663L31.89243715277778,161.7472371274511L31.933144097222222,161.7488386981269L31.94622847222222,161.75028005787655L31.969489583333335,161.7456763921943L32.00292743055555,161.75038436033577L32.00438125,161.726593161994L32.029096180555555,161.71550768741045L32.074164583333335,161.73650889375114L32.10760243055555,161.7391832307359L32.13231736111111,161.73863986627026L32.141040277777776,161.72930023932201L32.148309375000004,161.72827015182966L32.155578472222224,161.73619357666053L32.19047013888889,161.75365009147035L32.23699236111111,161.75756025821028L32.267522569444445,161.7581292554244L32.27624548611111,161.76896672474936L32.28642222222222,161.76396988841893L32.29805277777778,161.78012337630952L32.30096041666667,161.7666356804265L32.436165625,161.77957242163998L32.46960347222222,161.760239763539L32.60771631944444,161.76939096438218L32.61207777777778,161.78057706288337L32.62080069444445,161.7522939129953L32.74873680555556,161.7592896204459L32.75600590277777,161.76116068217172L32.763275,161.77021971753385L32.77054409722222,161.72232225289494L32.79525902777778,161.72641506551057L32.85050416666667,161.72272352818965L32.89121111111111,161.72235117257736L32.89848020833333,161.72791609289146L32.91011076388889,161.74324957677464L32.91301840277778,161.75704969456666L32.94936388888889,161.7532447063823L32.997339930555555,161.75719525324376L33.00897048611111,161.740100659768L33.027870138888886,161.74536561268212L33.03659305555556,161.74567905242606L33.04822361111111,161.72826109656128L33.072938541666666,161.71553495361752L33.08893055555556,161.6967064139311L33.10783020833333,161.67533572725975L33.19651319444444,161.6752771544221L33.251758333333335,161.64129938066878L33.259027430555555,161.63579443409932L33.32444930555556,161.6500150104572L33.38405590277778,161.6746135401861L33.391324999999995,161.68052719282608L33.48000798611111,161.65192444455826L33.52362256944444,161.6394569887317L33.54397604166667,161.6164362709624L33.5483375,161.61341764163615L33.587590625,161.62397588449244L33.623936111111114,161.61135328849L33.706803819444445,161.5970429519342L33.79839444444444,161.60186365907734L33.83619375,161.59882729184508L33.85218576388889,161.60789456622038L33.94086875,161.617530113003L33.952499305555556,161.6203021025842L33.968491319444446,161.6331218959949L34.086250694444445,161.59450969644945L34.118234722222226,161.6025337286647L34.129865277777775,161.5817303514577L34.17202604166667,161.55415731113428L34.24907847222222,161.55441658006467L34.27088576388889,161.55907492276674L34.278154861111105,161.53229242682377L34.279608680555555,161.55243818662342L34.30577743055556,161.53664436620983L34.369745486111114,161.55930493185022L34.37410694444444,161.55904943864226L34.413360069444444,161.55881949475943L34.43080590277778,161.5482875445173L34.451159374999996,161.5358587892518L34.542750000000005,161.49517290792912L34.58636458333333,161.44675561456842L34.62416388888889,161.41940505180608L34.62707152777778,161.37856454487107L34.667778472222224,161.35655808953314L34.72593125,161.30430227876153L34.78263020833333,161.22039704825778L34.795714583333336,161.23043234371482L34.79862222222222,161.13031410680372L34.869859375000004,161.0313576938642L34.87276701388889,161.05882192504208L34.95563472222222,160.9596397307038L35.025418055555555,160.8969257565897L35.08066319444445,160.80655817957714L35.128639236111106,160.7104773603242L35.166438541666665,160.73020462453113L35.1708,160.652084161225L35.21296076388889,160.6599507451798L35.23186041666666,160.60655567018955L35.32054340277777,160.524575102518L35.37288090277778,160.42276759153685L35.42521840277778,160.3635908320016L35.452840972222226,160.3103317484924L35.457202430555554,160.2550235733543L35.480463541666666,160.22737121588887L35.554608333333334,160.19953409418224L35.592407638888886,160.14793068456754L35.60113055555556,160.09411261592638L35.64038368055556,160.03682635415706L35.654921875,159.9985437186351L35.68545208333333,159.99358934675922L35.695628819444444,159.94783041198042L35.733428125,159.89337237067218L35.80321145833334,159.85321013353183L35.832287847222226,159.81116412010974L35.84682604166667,159.77332270804294L35.89916354166667,159.73189043718364L35.926786111111106,159.70492639343308L35.95004722222222,159.6467337540272L36.0605375,159.63566037861375L36.06489895833334,159.59471934071672L36.069260416666665,159.5829474066358L36.08670625,159.56792766596163L36.14776666666667,159.5499848993541L36.15648958333333,159.519086409401L36.166666319444445,159.50455276845344L36.18992743055556,159.4885224916007L36.43126145833333,159.50064524244567L36.46760694444445,159.50123071820133L36.554836111111115,159.50470764638234L36.57955104166667,159.52848688175135L36.78163194444444,159.49383819356675L36.82960798611111,159.49215437420963L36.96772083333334,159.49063893678834L36.98662048611111,159.48780004310896L37.01133541666667,159.4852450387976L37.066580555555554,159.47999553491698L37.13636388888889,159.47822098142504L37.23813125,159.4810488832829L37.44311979166667,159.49244399495595L37.463473263888886,159.50122459546128L37.51144930555555,159.4973271359148L37.566694444444444,159.50266942232378L37.58704791666667,159.51927748009268L37.59577083333333,159.5179997320833L37.64810833333333,159.51242475887463L37.77313680555555,159.48380728298557L37.87490416666667,159.4462515546851L37.88508090277778,159.40950139921492L37.88944236111111,159.423626259294L37.89961909722222,159.4451886333654L37.98248680555555,159.39969477002734L38.02610138888889,159.36760029302366L38.045001041666666,159.38444026372173L38.06535451388889,159.40254623735L38.09443090277777,159.41441661361526L38.119145833333334,159.44132495225426L38.12496111111111,159.4286674570286L38.193290624999996,159.35975071132466L38.24998958333333,159.36410064019225L38.27470451388889,159.34736557617282L38.33721875,159.35737901855566L38.51458472222222,159.34721611669997L38.55238402777778,159.34396950502995L38.56256076388889,159.37054755452718L38.61489826388889,159.36939279907446L38.69776597222222,159.38605351916712L38.731203819444445,159.37449816725035L38.92165416666666,159.3906483505254L38.98271458333333,159.3815835154728L39.021967708333335,159.40587516392563L39.06848993055556,159.39971264753305L39.14554236111111,159.40744138277978L39.15135763888889,159.41439724450183L39.177526388888886,159.4368825200517L39.19642604166666,159.36419426804633L39.24730972222222,159.34007484124163L39.385422569444444,159.32721735711746L39.41886041666667,159.33924562140572L39.59186493055556,159.32647105926515L39.63838715277778,159.33414895333863L39.69072465277778,159.3440090580048L39.711078125,159.36025815220432L39.767777083333335,159.3822573369839L39.796853472222224,159.39025660328554L39.80557638888889,159.39893094295698L39.80993784722222,159.39051284866127L39.83029131944445,159.42423656379518L39.84337569444445,159.4442629074157L39.91752048611111,159.4298366166741L39.93932777777778,159.4345529550067L40.022195486111116,159.42109765950602L40.051271875,159.43111289355542L40.06871770833334,159.43127660419987L40.170485069444446,159.4240489437799L40.231545486111116,159.4396690494019L40.26934479166667,159.46847714446173L40.31732083333333,159.44425443001555L40.384196527777775,159.44310398701398L40.45397986111111,159.4494435883126L40.45834131944444,159.45514922948132L40.481602430555554,159.4617593065332L40.55429340277778,159.43378337587987L40.61244618055555,159.4395800382919L40.63861493055556,159.4167720344627L40.69967534722222,159.37706983101643L40.72439027777778,159.36346284791478L40.81161944444444,159.3467915631233L40.891579513888885,159.33916240681097L40.91774826388889,159.34999616612987L40.92647118055556,159.35532154951687L40.959909027777776,159.3365143945652L40.974447222222224,159.29598795510867L40.99916215277778,159.2683641595978L41.019515625,159.233177743638L41.04713819444444,159.23100996927423L41.19542777777777,159.2261089723468L41.21578125,159.1980980751121L41.21723506944445,159.22008826760091L41.23177326388889,159.2310294408408L41.255034375,159.25415149675672L41.31318715277778,159.24693634708106L41.391693402777776,159.25961771237294L41.41640833333334,159.25333094113566L41.43094652777778,159.2919228470221L41.445484722222226,159.2927305623199L41.51236041666667,159.2787075060879L41.63448125,159.24543675547912L41.64901944444444,159.2199180799312L41.659196180555554,159.23530127193808L41.66355763888889,159.24324614474426L41.69408784722223,159.22089653026984L41.89907638888889,159.16390687724285L41.90343784722222,159.16719118951858L41.91216076388889,159.1893220705667L41.922337500000005,159.19743986351006L41.94123715277778,159.16197087715904L42.128779861111106,159.15069878944314L42.13750277777778,159.15087891049882L42.166579166666665,159.14219101944894L42.184025000000005,159.14322191750404L42.41227465277778,159.11464972575365L42.41808993055556,159.09335975317828L42.540210763888886,159.11697377786044L42.54311840277778,159.1279014000744L42.55911041666666,159.12593626006696L42.61144791666666,159.15219263406027L42.643431944444444,159.10502337065424L42.64924722222222,159.12157103358882L42.70594618055556,159.10991393022994L42.72484583333333,159.08909753720695L42.905119444444445,159.11166278348625L42.90948090277777,159.1363965051376L42.92401909722222,159.13800685462385L43.00397916666667,159.12028116916147L43.136276736111114,159.16627805224533L43.165353125,159.1840752470208L43.182798958333336,159.13814272231872L43.24095173611111,159.11302845008686L43.307827430555555,159.11992560507815L43.32963472222222,159.05533304457035L43.35580347222223,159.0370247401133L43.39941805555555,159.05299726610198L43.419771527777776,159.05409753949178L43.50700069444444,159.0373877855426L43.51572361111111,159.04447400698834L43.52590034722222,159.04642660628951L43.60876805555556,159.05408394566055L43.636390625000004,159.0521255510945L43.642205902777775,159.07691299598505L43.65529027777778,159.07709669638655L43.659651736111115,159.1259370267479L43.741065625,159.1226933240731L43.755603819444445,159.1300989916658L43.77450347222222,159.1190640924992L43.88935520833333,159.1209326832493L43.96786145833334,159.12408941492436L44.08707465277778,159.06645547343192L44.11615104166667,159.04260992608874L44.12196631944445,159.03442393347987L44.13214305555556,159.03295654013186L44.18011909722222,159.01246088611867L44.18448055555555,159.0205647975068L44.23681805555555,159.01753331775615L44.25717152777778,159.04135498598052L44.36184652777778,159.01854448738248L44.398192013888895,159.01276503864423L44.404007291666666,158.9928135347798L44.510136111111116,158.94388218130183L44.655518055555554,158.97064396317165L44.67441770833333,158.92245456685447L44.76600833333333,158.96315911016902L44.77036979166667,158.98209319915213L44.805261458333334,158.9637338792369L44.83869930555555,158.96491049131322L44.87649861111111,158.9349944421819L44.90121354166667,158.9257699979637L44.96518159722222,158.89091799816734L45.02478819444444,158.9052761983506L45.037872569444446,158.87984857851555L45.13963993055556,158.873188720664L45.202154166666666,158.9011198485976L45.26612222222222,158.86135786373782L45.28066041666667,158.86982207736406L45.30537534722222,158.89956486962765L45.34608229166667,158.92780838266486L45.389696875,158.93700254439838L45.47256458333334,158.95707728995856L45.52780972222222,158.9795695609627L45.55543229166667,158.98063760486642L45.56706284722222,158.95062384437978L45.596139236111114,158.9280364599418L45.639753819444444,158.93130781394763L45.78658958333333,158.89590203255287L45.795312499999994,158.88616182929758L45.82438888888889,158.9201706463678L45.90725659722222,158.91685358173103L46.0046625,158.93009322355795L46.017746875,158.90660890120213L46.042461805555554,158.90022301108192L46.051184722222224,158.88710070997374L46.05554618055556,158.84726563897635L46.05990763888889,158.77601407507873L46.06717673611111,158.78711266757085L46.13841388888889,158.78972640081378L46.139867708333334,158.7743787607324L46.26198854166666,158.75909088465914L46.312872222222225,158.75860679619325L46.32304895833333,158.76407111657392L46.49605347222222,158.7542390049165L46.497507291666665,158.78226510442488L46.53966805555555,158.77061359398238L46.557113888888885,158.77192723458415L46.57165208333333,158.74803451112572L46.65597361111111,158.73390606001317L46.66615034722222,158.73004045401183L46.743202777777775,158.75311140861066L46.74611041666667,158.7134002677496L46.759194791666665,158.74256024097463L46.783909722222226,158.70537921687716L46.802809375,158.75009129518946L46.920568749999994,158.7873821656705L46.981629166666664,158.78259394910344L46.99616736111111,158.8033595541931L47.01070555555555,158.8161485987738L47.01942847222222,158.87633373889642L47.020882291666666,158.90395036500678L47.198248263888885,158.8698053285061L47.21714791666667,158.8552997956555L47.22587083333333,158.83044481608994L47.25349340277778,158.80070033448095L47.400329166666666,158.81228030103284L47.45412048611111,158.79910227092955L47.46284340277778,158.7990420438366L47.468658680555556,158.82258783945295L47.522450000000006,158.80690405550766L47.675101041666665,158.7839386499569L47.68091631944445,158.7721197849612L47.714354166666666,158.76148280646507L47.73325381944444,158.81385952581857L47.89608159722223,158.85214857323672L47.920796527777775,158.80548371591306L47.98476458333334,158.80478534432174L47.99494131944444,158.80268180988958L48.111246875000006,158.8155386289006L48.159222916666664,158.81383476601056L48.17376111111111,158.8285262894095L48.18539166666667,158.81224866046853L48.19411458333334,158.8197237944217L48.234821527777775,158.81022641497952L48.40491840277778,158.79430377348157L48.44126388888889,158.8153733961334L48.449986805555554,158.77238605652008L48.45580208333334,158.76762245086806L48.465978819444445,158.76038520578126L48.474701736111115,158.75977168520313L48.61862986111111,158.77249451668283L48.736389236111116,158.74117006501453L48.75238125,158.7247780585131L48.82071076388889,158.7483752526618L48.83524895833333,158.7415877273956L48.99371527777778,158.72072895465604L48.998076736111116,158.72555605919044L49.00679965277778,158.65320045327138L49.01261493055556,158.66330540794425L49.01697638888889,158.68124986714983L49.04314513888889,158.71952488043485L49.06786006944445,158.72004739239136L49.249587500000004,158.6998676531522L49.28011770833333,158.712680887837L49.29029444444444,158.7168377990533L49.473475694444446,158.74712901914796L49.49237534722222,158.79651611723318L49.51272881944444,158.79966450550987L49.51854409722222,158.84232305495885L49.52290555555555,158.84679074946297L49.52726701388889,158.83606167451669L49.720625,158.85148050706502L49.72498645833333,158.8756824563585L49.79476979166667,158.84436421072266L49.96195902777777,158.8191277896504L49.96632048611111,158.78314001068534L50.00411979166667,158.78615100961682L50.047734375,158.73723590865512L50.06808784722222,158.70943731778962L50.100071875000005,158.71391858601066L50.105887152777775,158.7091017274096L50.20183923611111,158.67674155466864L50.20620069444445,158.68891739920178L50.24109236111111,158.6762756592816L50.335590624999995,158.67227309335343L50.34576736111111,158.6775207840181L50.35012881944444,158.6837187056163L50.36902847222222,158.67897183505465L50.418458333333334,158.6746996515492L50.61472395833333,158.70330468639426L50.61908541666667,158.69512421775485L50.64816180555555,158.66268679597937L50.701953125,158.6718431163814L50.86332708333333,158.67713380474328L50.88804201388889,158.67009542426896L50.94183333333333,158.69178588184207L51.094484375,158.68475729365787L51.15554479166667,158.67695656429206L51.17444444444445,158.69501090786287L51.199159375,158.7009348170766L51.29656527777777,158.6959413353689L51.31982638888889,158.679647201832L51.32709548611111,158.62073248164882L51.40560173611111,158.59573423348394L51.40705555555556,158.61158581013555L51.41577847222222,158.58602722912198L51.424501388888885,158.57039950620978L51.487015625000005,158.55633455558882L51.54807604166667,158.54367610002993L51.562614236111116,158.52785849002694L51.64548194444445,158.53279764102425L51.67601215277777,158.48709287692182L51.700727083333334,158.50938358922963L51.79522534722222,158.45717023030667L51.896992708333336,158.469178207276L51.92897673611111,158.4755603865484L51.963868402777784,158.49605434789356L52.00602916666667,158.4776239131042L52.06999722222222,158.5097115217938L52.075812500000005,158.5076153696144L52.10488888888889,158.48950383265296L52.16885694444445,158.51155344938766L52.222648263888885,158.5535231044489L52.42036770833334,158.54704579400402L52.50468923611111,158.55449121460362L52.53085798611111,158.55086709314324L52.60209513888889,158.55498038382893L52.65297881944444,158.52770734544603L52.66751701388889,158.52381161090142L52.73293888888889,158.57930544981127L52.74166180555555,158.58942490483017L52.82743715277778,158.58083241434713L52.856513541666665,158.58342417291243L52.91612013888889,158.60640675562118L52.932112152777776,158.63004108005907L52.946650347222224,158.64393697205315L53.20397638888889,158.61661827484784L53.206884027777775,158.60088144736307L53.22142222222222,158.56016830262675L53.25631388888889,158.5382764723641L53.35371979166667,158.55544882512766L53.39588055555556,158.5237039426149L53.42059548611111,158.5128335483534L53.45112569444444,158.51190019351807L53.48165590277778,158.50958517416626L53.53108576388889,158.51635165674963L53.53690104166667,158.52686649107468L53.64157604166667,158.53780484196722L53.65320659722222,158.56682435777049L53.677921527777784,158.56196692199345L53.826211111111114,158.5354702297941L53.90471736111111,158.56029820681468L53.91925555555556,158.5428183861332L53.938155208333335,158.4961115475199L54.013753819444446,158.4762003927679L54.08935243055555,158.4745053534911L54.19402743055556,158.458229818142L54.21728854166667,158.43030683632782L54.340863194444445,158.419926152695L54.36703194444444,158.32208353742553L54.497875694444446,158.32105018368296L54.55893611111111,158.30537016531468L54.61708888888889,158.2809331487832L54.627265625,158.3061398339049L54.64180381944444,158.3317758505144L54.72612534722222,158.32092326546297L54.787185763888886,158.33475593891666L54.82207743055556,158.366380345025L54.88749930555556,158.3594423105225L54.89476840277778,158.34287307947025L54.90494513888889,158.29551077152323L55.00525868055555,158.2809096943709L55.08231111111111,158.27956872493382L55.09684930555556,158.28426185244044L55.22042395833333,158.3032356671964L55.301837847222224,158.28343710047676L55.36289826388889,158.30249339042908L55.36435208333333,158.30931905138615L55.437043055555556,158.32578714624754L55.652208333333334,158.3376584316228L55.76124479166667,158.3188425884605L55.78595972222222,158.31813332961445L55.89354236111111,158.326344996653L56.033109027777776,158.33226049698771L56.040378125000004,158.30808444728893L56.07963125,158.28337600256003L56.098530902777775,158.30538840230403L56.16686041666667,158.30454956207365L56.18576006944445,158.28904460586628L56.287527430555556,158.33704014527964L56.300611805555555,158.32418613075168L56.360218402777775,158.3052425176765L56.37475659722222,158.29851826590885L56.38784097222222,158.299841439318L56.55793784722222,158.27448229538618L56.560845486111106,158.29443406584755L56.616090625,158.2386406592628L56.914123611111116,158.20760159333653L56.928661805555556,158.18114143400288L56.941746180555555,158.17355229060257L56.94756145833334,158.12689706154234L56.985360763888885,158.1276823553881L57.08276666666667,158.15346411984927L57.10602777777778,158.18846770786436L57.18453402777778,158.19489593707792L57.23541770833334,158.20805634337012L57.244140625,158.21252570903312L57.248502083333335,158.20622313812981L57.374984375,158.17105082431684L57.43895243055555,158.17627074188513L57.725354861111114,158.15294366769663L57.776238541666665,158.13489930092697L57.79513819444445,158.11275937083425L57.814037847222224,158.08988343375086L57.81839930555555,158.05012009037574L57.898359375,158.07333308133818L58.01030347222222,158.09717477320436L58.051010416666664,158.12453229588394L58.10916319444445,158.10342906629552L58.16150069444445,158.075586159666L58.20802291666667,158.02692754369937L58.212384375,158.03328478932946L58.299613541666666,158.0478563103965L58.31851319444444,158.06244567935684L58.37085069444445,158.02542611142115L58.37957361111111,158.03783350027905L58.40865,158.04605015025115L58.46680277777778,158.06819513522603L58.51187118055556,158.06600062170344L58.55984722222222,158.10827555953307L58.59183125,158.13599800357977L58.663068402777775,158.1343982032218L58.79391215277778,158.1226333828996L58.81862708333333,158.11352004460966L58.82298854166667,158.1377680401487L58.828803819444445,158.1300912361338L58.83316527777778,158.14825711252044L58.841888194444444,158.1601814012684L59.049784374999994,158.19303826114157L59.126836805555556,158.1960594350274L59.13265208333333,158.13240349152466L59.31437951388889,158.1459131423722L59.526637152777774,158.16249682813498L59.549898263888885,158.17889714532149L59.656027083333335,158.16415743078932L59.65748090277778,158.2187416877104L59.704003125,158.21624251893937L59.878461458333334,158.24644326704544L59.908991666666665,158.2072489403409L59.91189930555556,158.2044240463068L60.03402013888889,158.20630664167612L60.15177951388888,158.2183259775085L60.228831944444444,158.21144337975764L60.252093055555555,158.20524904178188L60.467258333333334,158.1937741376037L60.48761180555556,158.11707172384334L60.56466423611111,158.115889551459L60.58211006944444,158.1015505963131L60.59083298611111,158.08569553668178L60.609732638888886,158.0183259830136L60.75511458333333,157.99456838471224L60.788552430555555,157.98498654624103L60.83362083333333,157.98078789161693L60.864151041666666,157.93865910245523L60.8685125,157.9346681922097L60.869966319444444,157.91927637298875L60.877235416666664,157.93344873568986L60.89031979166666,157.93440386212086L61.086585416666665,157.90576347590877L61.18108368055555,157.86671212831791L61.20579861111111,157.81681591548613L61.22033680555556,157.7792843239375L61.431140625,157.73223089154376L61.466032291666664,157.7193828023894L61.50673923611111,157.71076952215043L61.59396840277778,157.70449256993538L61.71463541666667,157.64131831294185L61.72481215277778,157.64788648164767L61.82221805555556,157.63757283348292L61.841117708333336,157.6179655501346L61.855655902777784,157.59294399512115L61.86583263888888,157.60729959560905L61.96178472222223,157.59514463604813L62.12170486111111,157.6019051724433L62.17840381944444,157.612414655199L62.30488611111111,157.59827318967908L62.31506284722222,157.57374587071118L62.323785763888885,157.53102128364006L62.35867743055556,157.51321915527606L62.52295902777778,157.50162223974846L62.65671041666667,157.4690600157736L62.65816423611111,157.43680401419624L62.726493749999996,157.47414861277662L62.735216666666666,157.45760875149895L62.742485763888894,157.43534787634906L62.91694409722222,157.42121308871415L63.00708090277778,157.40996677984273L63.130655555555556,157.38214510185847L63.276037499999994,157.34383059167263L63.29493715277778,157.34179753250535L63.34727465277778,157.3325927792548L63.36181284722222,157.29185850132933L63.40397361111111,157.2861726511964L63.72236006944445,157.25450538607677L63.77324375,157.2142048474691L63.78196666666667,157.20300936272218L63.786328125,157.21358342644996L63.816858333333336,157.13017508380497L63.828488888888884,157.14065757542448L63.93752534722223,157.051266817882L64.19048993055556,156.97376513609382L64.25300416666667,156.83616362248443L64.39693229166666,156.828847260236L64.50887638888888,156.6541125342124L64.51469166666666,156.62370128079115L64.65716597222223,156.62730615271204L64.833078125,156.52877553744082L65.62977118055555,156.42829798369675L65.67920104166667,156.34671818532706L65.71845416666666,156.12432136679436L66.26945173611111,156.00086423011493L66.44100243055556,155.94285280710343L66.53404687499999,155.7416675263931L66.53986215277779,155.73317577375377L66.63581423611112,155.67685819637842L67.55172048611111,155.28544737674056L67.78287777777777,155.2385026390665L67.83666909722223,155.24197737515985L68.16377847222222,155.19937963764386L68.70750694444445,154.79819167387947L68.7089607638889,154.75129750649154L69.3966173611111,154.79021775584238L69.86329340277777,154.59957098025814L70.05374375,154.37931388223234L70.25873229166667,154.2622074940091L70.73558506944445,154.47836174460818L70.7501232638889,154.60210057014737L70.91876631944444,154.38159051313264L70.92603541666666,154.45158146181936L71.36363506944444,154.54554831563743L71.44795659722222,154.69206848407367L71.91754027777779,154.70888663566632L71.96115486111111,154.43639797209968L72.76075555555555,154.49795817488973L74.58820659722223,154.54598735740075L74.70451215277778,154.65263862166069L75.39071493055555,154.6999497594946L75.54481979166667,154.69827978354513L75.55063506944444,154.57140180519065L76.25428368055556,154.43066162467156L76.69624479166666,154.32317046220442L76.70060625,154.30312841598396L76.80528125,154.30131557438557L76.85034965277778,154.34835901694703L77.21671215277779,154.31694811525233L77.29667222222223,154.33440330372707L77.45804618055556,153.94301297335437L77.55835972222222,153.75301167601893L77.57144409722223,153.74868550841705L77.6848420138889,153.81854195757535L78.71850763888888,153.5967377618178L78.78974479166666,153.38236398563603L78.80428298611112,152.69825258707243L79.32038888888889,152.7168023283652L80.37150034722222,152.44882209552867L81.24524583333333,151.30493988597578L81.40371215277779,151.04244589737823L82.03757743055556,150.8430763076404L82.34287951388889,148.47621867687636L82.74994895833333,147.20449680918873L83.64259409722223,145.16757212826985L85.02663020833334,145.24298991544288L85.70701770833334,145.19286592389858L86.08064930555555,143.28777933150872L87.82523263888889,141.81952639835785L88.51579687499999,140.32994875852205L88.52161215277778,137.36092888266984L88.59866458333333,137.12993599440287L89.69775208333333,138.75251739496258L90.14407465277777,140.0151906554663L90.56713611111111,139.9730715899197L91.41907430555555,141.27741443092773L91.86539687499999,141.57222298783495L92.10673090277778,141.89655068905145L92.20122916666666,140.90667062014631L92.23902847222222,140.18540355813167L93.55328125,141.4404882023185L93.94290486111112,142.26178938208665L94.13190138888888,143.210410443878L94.19732326388889,143.2558693994902L94.40667326388888,143.72010745954117L94.87334930555555,143.01102171358707L95.214996875,143.15311954222835L96.34316076388889,142.42255758800553L96.43329756944443,141.33877682920496L96.57431805555555,140.92682414628447L97.08751631944443,140.81861673165602L97.34338854166667,140.96018005849044L97.56146145833334,140.82356205264136L97.67340555555555,136.99540584737724L97.9758,137.7523402626395L98.58058888888888,139.08258123637557L98.83064583333334,140.335848112738L98.83355347222222,141.5670383014642L98.852453125,142.71493447131778L98.97457395833332,143.941266024186L99.27987604166667,145.0346394217674L99.29877569444444,145.99950047959067L101.00265208333333,146.1864254316316L101.23962465277778,146.82518288846845L102.32708159722222,146.3247895996216L103.76345520833334,145.00861063965942L103.88121458333335,143.48627457569347L103.90302187500001,140.14409711812414L105.80897916666666,139.87963740631173L105.91656180555556,138.48079866568054L108.20778125,137.88854379911248L108.66137291666666,136.01473941920125L109.66596215277778,133.5214904772811L109.80843645833335,130.802616429553L109.80989027777778,126.51925478659771L110.55424583333333,128.51260430793792L110.6705513888889,130.81106887714412L111.11105868055556,132.15841198942974L112.98357812500001,131.87537079048676L113.06789965277778,132.91273371143808L114.13354930555556,132.89941034029428L114.53334965277779,133.65589430626486L114.86918194444443,133.08740487563836L116.6239420138889,129.0903393880745L116.72716319444444,129.04035544926708L117.42790416666666,128.53664490434036L117.53257916666666,129.07598041390634L118.609859375,130.9847573725157L119.22918645833333,126.66548163526414L119.48069722222223,127.34768347173772L119.59700277777777,125.34354012456396L120.99703090277778,127.99873611210755L121.33867847222223,130.0948875008968L123.92502326388889,127.83372375080711L124.32773125,130.1602513757264L124.33936180555555,132.15677623815375L125.47043333333333,128.5403986143384L125.95164756944445,127.11465875290455L131.83670868055555,123.26646787761409L132.23941666666667,118.19534608985268L132.5868795138889,110.78016148086742L133.1102545138889,110.59649533278066L134.65566458333333,105.60204579950259L135.72567569444445,100.97281621955233L137.32778472222222,98.3405095975971L137.8206295138889,92.59515863783737L137.97037291666666,91.29474277405365L138.22624513888888,90.34119349664827L138.785965625,92.02737414698345L138.916809375,94.8783367322851L140.34591388888887,97.73920305905658L141.68052013888888,98.52775775315091L141.9189465277778,97.71083197783585L142.58624965277778,103.11897378005226L142.66330208333335,103.52885140204704L144.48929930555556,103.63371626184232L145.70905381944445,103.30034463565809L145.877696875,104.40746017209229L145.9736489583333,103.99523915488305L146.3385576388889,102.27314023939475L147.53505104166666,97.37942621545527L148.86820347222223,102.13040859390973L148.95107118055554,100.09329273451877L149.20985104166667,99.81748846106689L149.9963673611111,96.1059646149602L150.26532395833334,98.23194315346419L151.45600208333332,100.91969883811775L151.7424045138889,103.03335395430598L152.16255833333335,107.48444355887537L152.16691979166666,111.43879920298784L153.02612708333334,113.98291928268905L153.95511770833335,115.15457735442016L154.8070559027778,112.45961961897812L156.135846875,109.22585765708031L156.14456979166667,107.39959689137228L156.15765416666667,106.75011220223506L156.18527673611112,108.01375098201156L156.3350201388889,113.37837588381039L156.423703125,118.17998829542935L156.45859479166666,122.50438946588642L156.528378125,126.39192551929777L156.54291631944443,129.901032967368L156.55309305555556,133.0548046706312L156.6039767361111,135.88287420356806L156.711559375,138.40158678321126L156.7435434027778,140.63745310489014L156.7566277777778,142.62613279440114L156.76535069444444,144.44986951496102L156.78279652777778,146.0868075634649L156.86711805555555,147.51432680711844L157.23202673611112,148.8049941264066L157.3628704861111,149.9695447137659L157.54314409722224,150.96896524238934L157.55768229166665,151.8861437181504L158.61024756944445,152.73077934633537L158.68875381944443,153.48652641170182L159.73405000000002,154.15047377053165L160.40571458333332,154.42942639347848L161.64727638888888,154.80438375413064L161.65018402777775,155.01499537871757L164.21472152777778,155.1602958408458L164.45024027777777,155.02261625676124L166.5481017361111,155.1317546310851L169.34234270833335,155.3553541679766L170.47050659722223,155.47694375117894L177.6959892361111,152.12602437606103L178.4025454861111,140.56994693845493L178.89829791666665,140.63460224460945L180.5411138888889,141.4479920201485L180.6617809027778,129.99654281813366L183.141996875,118.6474135363203L185.39541701388887,108.37567218268826L189.03432708333335,100.20490496441944L191.2223253472222,92.32168946797749L192.5307628472222,84.75627052117976L193.03669201388888,87.60569346906179L197.37343541666667,84.9383491221556L197.65256875,81.23678920994004L197.6947295138889,76.16341028894605L197.86628020833334,70.16366926005142L199.8841815972222,68.2021273340463L204.97691111111112,63.75223960064166L205.22987569444444,60.38896564057748L205.2836670138889,59.81936907651972L212.08027291666667,58.274232168867755L213.47593958333331,58.200783951980966L215.73953645833333,59.494630556782866L215.95034027777777,61.68864250110458L216.11026041666665,58.86360325099412L219.26941006944446,58.03206792589471L222.07092013888888,63.53916113330523L222.08836597222222,66.8037200199747L223.04207152777778,72.26702301797721L223.19326875,68.5773707161795L227.8847440972222,73.01960864456154L235.69611597222223,67.2545977801054L239.0021013888889,62.03068800209485L240.30181597222222,57.44421920188536L243.77208298611112,58.55559728169683L244.28237361111113,54.41546255352712L246.62011527777778,61.38161629817441L250.42912222222222,56.79662966835696L250.51344375000002,60.63809170152126L252.17079791666666,60.74715753136914L252.17370555555556,66.65681677823221L252.17661319444446,62.38653510040899L252.1780670138889,59.00200659036808L252.17952083333333,54.59893093133128L252.1809746527778,50.86036283819816L252.18678993055553,49.42052655437833L252.18824375,46.9328738989405L252.18969756944446,45.792861509046446L252.19260520833333,43.11337535814178L252.1940590277778,40.552862822327626L252.1955128472222,41.10105154009486L252.201328125,38.62229638608537L252.20423576388887,36.990266747476824L252.20714340277777,37.86964007272911L252.21005104166667,38.146301065456214L252.2115048611111,37.98967095891058L252.2144125,38.7012538630195L252.21586631944444,36.39610347671754L252.22022777777778,35.7817181290458L252.22313541666665,33.69624631614121L252.22458923611111,32.32377168452712L252.22604305555555,30.873194516074392L252.22895069444445,30.963025064466933L252.23331215277778,32.93924755802027L252.23912743055556,32.48617280221822L252.24203506944446,31.588705521996417L252.2434888888889,34.05990996979676L252.24785034722223,34.10541897281709L252.253665625,32.7628270755354L252.25511944444446,31.85391936798183L252.2565732638889,32.72625243118367L252.25802708333333,33.17505218806528L252.26238854166667,31.943196969258764L252.2638423611111,30.50560227233288L252.26529618055557,31.651417045099578L252.26820381944444,30.990825340589623L252.2696576388889,32.67516780653065L252.27111145833334,32.770651025877584L252.27401909722224,35.787410923289826L252.27547291666664,36.725119830960836L252.27983437499998,34.80785784786477L252.28128819444444,36.88782206307826L252.2841958333333,35.38941485677043L252.28710347222224,34.185398371093385L252.28855729166665,33.721283533984064L252.2900111111111,33.638405180585664L252.29582638888888,32.6566896625271" style="fill: none;" fill="none"></path></g></g></g></g><g opacity="0.2"><g><g><g><path stroke="rgb(255, 112, 67)" stroke-width="2px" d="M29.179610069444443,161.94025L29.202871180555555,161.95499999999998L29.327899652777777,161.95499999999998L29.339530208333333,161.95499999999998L29.425305555555557,162.0435L29.470373958333333,161.94025L29.471827777777776,161.9255L29.487819791666666,161.95499999999998L29.50090416666667,161.94025L29.503811805555554,161.95499999999998L29.512534722222224,161.9255L29.518349999999998,161.94025L29.577956597222222,162.1025L29.624478819444445,161.79275L29.684085416666665,161.95499999999998L29.72188472222222,162.073L29.812021527777777,161.79275L29.823652083333332,161.94025L29.82946736111111,161.8075L29.845459375,161.7485L29.951588194444447,161.94025L29.964672569444446,161.79275L29.97339548611111,161.94025L29.995202777777777,161.601L30.01555625,161.91075L30.02282534722222,161.91075L30.105693055555555,161.76325L30.11296215277778,162.08775L30.142038541666665,161.91075L30.162392013888887,161.85175L30.166753472222226,161.79275L30.20164513888889,161.778L30.211821875,161.88125L30.230721527777778,161.58625L30.3034125,161.64525L30.310681597222224,161.542L30.333942708333332,161.6305L30.336850347222224,161.94025L30.403726041666665,161.542L30.4080875,161.73375L30.412448958333332,161.52725L30.485139930555555,161.67475L30.509854861111112,161.601L30.547654166666664,161.37975L30.658144444444446,161.73375L30.669775,161.88125L30.67268263888889,161.79275L30.69012847222222,161.6305L30.726473958333333,161.61575L30.767180902777778,161.94025L30.850048611111113,161.6305L30.99979201388889,161.365L31.015784027777777,161.95499999999998L31.024506944444443,161.8665L31.039045138888888,161.66L31.17134270833333,161.58625L31.244033680555553,161.778L31.27601770833333,161.55675L31.28037916666667,161.483L31.283286805555555,161.483L31.334170486111113,161.8075L31.382146527777778,161.95499999999998L31.390869444444444,161.778L31.42576111111111,161.61575L31.43303020833333,161.6305L31.51444409722222,161.79275L31.58568125,161.76325L31.598765625,161.95499999999998L31.639472569444447,161.94025L31.662733680555554,161.66L31.668548958333332,161.9255L31.675818055555556,161.778L31.700532986111114,161.73375L31.720886458333332,161.79275L31.783400694444445,161.61575L31.809569444444445,161.6305L31.81829236111111,161.9255L31.835738194444446,161.85175L31.848822569444444,161.66L31.88080659722222,161.8075L31.89243715277778,161.6305L31.933144097222222,161.76325L31.94622847222222,161.76325L31.969489583333335,161.70425L32.00292743055555,161.79275L32.00438125,161.5125L32.029096180555555,161.61575L32.074164583333335,161.9255L32.10760243055555,161.76325L32.13231736111111,161.73375L32.141040277777776,161.64525L32.148309375000004,161.719L32.155578472222224,161.8075L32.19047013888889,161.91075L32.23699236111111,161.79275L32.267522569444445,161.76325L32.27624548611111,161.8665L32.28642222222222,161.719L32.29805277777778,161.9255L32.30096041666667,161.64525L32.436165625,161.89600000000002L32.46960347222222,161.58625L32.60771631944444,161.85175L32.61207777777778,161.88125L32.62080069444445,161.49775L32.74873680555556,161.82225L32.75600590277777,161.778L32.763275,161.85175L32.77054409722222,161.29125L32.79525902777778,161.76325L32.85050416666667,161.6895L32.89121111111111,161.719L32.89848020833333,161.778L32.91011076388889,161.88125L32.91301840277778,161.88125L32.94936388888889,161.719L32.997339930555555,161.79275L33.00897048611111,161.58625L33.027870138888886,161.79275L33.03659305555556,161.7485L33.04822361111111,161.5715L33.072938541666666,161.601L33.08893055555556,161.52725L33.10783020833333,161.483L33.19651319444444,161.67475L33.251758333333335,161.3355L33.259027430555555,161.58625L33.32444930555556,161.778L33.38405590277778,161.89600000000002L33.391324999999995,161.73375L33.48000798611111,161.3945L33.52362256944444,161.52725L33.54397604166667,161.40925L33.5483375,161.58625L33.587590625,161.719L33.623936111111114,161.49775L33.706803819444445,161.46825L33.79839444444444,161.64525L33.83619375,161.5715L33.85218576388889,161.6895L33.94086875,161.70425L33.952499305555556,161.64525L33.968491319444446,161.7485L34.086250694444445,161.247L34.118234722222226,161.67475L34.129865277777775,161.3945L34.17202604166667,161.306L34.24907847222222,161.55675L34.27088576388889,161.601L34.278154861111105,161.29125L34.279608680555555,161.73375L34.30577743055556,161.3945L34.369745486111114,161.76325L34.37410694444444,161.55675L34.413360069444444,161.55675L34.43080590277778,161.4535L34.451159374999996,161.424L34.542750000000005,161.129L34.58636458333333,161.011L34.62416388888889,161.17325L34.62707152777778,161.011L34.667778472222224,161.1585L34.72593125,160.834L34.78263020833333,160.46525L34.795714583333336,161.32075L34.79862222222222,160.22925L34.869859375000004,160.14075L34.87276701388889,161.306L34.95563472222222,160.067L35.025418055555555,160.3325L35.08066319444445,159.99325L35.128639236111106,159.84575L35.166438541666665,160.90775L35.1708,159.949L35.21296076388889,160.73075L35.23186041666666,160.126L35.32054340277777,159.78674999999998L35.37288090277778,159.50650000000002L35.42521840277778,159.831L35.452840972222226,159.831L35.457202430555554,159.75725L35.480463541666666,159.9785L35.554608333333334,159.949L35.592407638888886,159.6835L35.60113055555556,159.60975L35.64038368055556,159.52125L35.654921875,159.654L35.68545208333333,159.949L35.695628819444444,159.536L35.733428125,159.40325L35.80321145833334,159.49175L35.832287847222226,159.43275L35.84682604166667,159.43275L35.89916354166667,159.359L35.926786111111106,159.46225L35.95004722222222,159.123L36.0605375,159.536L36.06489895833334,159.22625L36.069260416666665,159.477L36.08670625,159.43275L36.14776666666667,159.3885L36.15648958333333,159.24099999999999L36.166666319444445,159.37375L36.18992743055556,159.34425L36.43126145833333,159.60975L36.46760694444445,159.50650000000002L36.554836111111115,159.536L36.57955104166667,159.7425L36.78163194444444,159.182L36.82960798611111,159.477L36.96772083333334,159.477L36.98662048611111,159.46225L37.01133541666667,159.46225L37.066580555555554,159.43275L37.13636388888889,159.46225L37.23813125,159.50650000000002L37.44311979166667,159.595L37.463473263888886,159.58025L37.51144930555555,159.46225L37.566694444444444,159.55075L37.58704791666667,159.66875L37.59577083333333,159.50650000000002L37.64810833333333,159.46225L37.77313680555555,159.22625L37.87490416666667,159.10825L37.88508090277778,159.07875L37.88944236111111,159.55075L37.89961909722222,159.63925L37.98248680555555,158.99025L38.02610138888889,159.07875L38.045001041666666,159.536L38.06535451388889,159.5655L38.09443090277777,159.52125L38.119145833333334,159.6835L38.12496111111111,159.31475L38.193290624999996,158.7395L38.24998958333333,159.40325L38.27470451388889,159.19675L38.33721875,159.4475L38.51458472222222,159.25575L38.55238402777778,159.31475L38.56256076388889,159.60975L38.61489826388889,159.359L38.69776597222222,159.536L38.731203819444445,159.2705L38.92165416666666,159.536L38.98271458333333,159.3L39.021967708333335,159.6245L39.06848993055556,159.34425L39.14554236111111,159.477L39.15135763888889,159.477L39.177526388888886,159.63925L39.19642604166666,158.71L39.24730972222222,159.123L39.385422569444444,159.2115L39.41886041666667,159.4475L39.59186493055556,159.2115L39.63838715277778,159.40325L39.69072465277778,159.43275L39.711078125,159.50650000000002L39.767777083333335,159.58025L39.796853472222224,159.46225L39.80557638888889,159.477L39.80993784722222,159.31475L39.83029131944445,159.72775000000001L39.84337569444445,159.6245L39.91752048611111,159.3L39.93932777777778,159.477L40.022195486111116,159.3L40.051271875,159.52125L40.06871770833334,159.43275L40.170485069444446,159.359L40.231545486111116,159.58025L40.26934479166667,159.72775000000001L40.31732083333333,159.22625L40.384196527777775,159.43275L40.45397986111111,159.50650000000002L40.45834131944444,159.50650000000002L40.481602430555554,159.52125L40.55429340277778,159.182L40.61244618055555,159.49175L40.63861493055556,159.2115L40.69967534722222,159.01975L40.72439027777778,159.24099999999999L40.81161944444444,159.19675L40.891579513888885,159.2705L40.91774826388889,159.4475L40.92647118055556,159.40325L40.959909027777776,159.16725L40.974447222222224,158.93125L40.99916215277778,159.01975L41.019515625,158.91649999999998L41.04713819444444,159.2115L41.19542777777777,159.182L41.21578125,158.946L41.21723506944445,159.418L41.23177326388889,159.3295L41.255034375,159.46225L41.31318715277778,159.182L41.391693402777776,159.37375L41.41640833333334,159.19675L41.43094652777778,159.63925L41.445484722222226,159.3L41.51236041666667,159.1525L41.63448125,158.946L41.64901944444444,158.99025L41.659196180555554,159.37375L41.66355763888889,159.31475L41.69408784722223,159.01975L41.89907638888889,158.651L41.90343784722222,159.19675L41.91216076388889,159.3885L41.922337500000005,159.2705L41.94123715277778,158.84275L42.128779861111106,159.04925L42.13750277777778,159.1525L42.166579166666665,159.064L42.184025000000005,159.1525L42.41227465277778,158.85750000000002L42.41808993055556,158.90175L42.540210763888886,159.3295L42.54311840277778,159.22625L42.55911041666666,159.10825L42.61144791666666,159.3885L42.643431944444444,158.6805L42.64924722222222,159.2705L42.70594618055556,159.005L42.72484583333333,158.90175L42.905119444444445,159.31475L42.90948090277777,159.359L42.92401909722222,159.1525L43.00397916666667,158.96075L43.136276736111114,159.58025L43.165353125,159.34425L43.182798958333336,158.72475L43.24095173611111,158.887L43.307827430555555,159.182L43.32963472222222,158.474L43.35580347222223,158.87225L43.39941805555555,159.19675L43.419771527777776,159.064L43.50700069444444,158.887L43.51572361111111,159.10825L43.52590034722222,159.064L43.60876805555556,159.123L43.636390625000004,159.0345L43.642205902777775,159.3L43.65529027777778,159.07875L43.659651736111115,159.5655L43.741065625,159.0935L43.755603819444445,159.19675L43.77450347222222,159.01975L43.88935520833333,159.13775L43.96786145833334,159.1525L44.08707465277778,158.54775L44.11615104166667,158.828L44.12196631944445,158.96075L44.13214305555556,159.01975L44.18011909722222,158.828L44.18448055555555,159.0935L44.23681805555555,158.99025L44.25717152777778,159.25575L44.36184652777778,158.81325L44.398192013888895,158.96075L44.404007291666666,158.81325L44.510136111111116,158.5035L44.655518055555554,159.2115L44.67441770833333,158.48875L44.76600833333333,159.3295L44.77036979166667,159.1525L44.805261458333334,158.7985L44.83869930555555,158.9755L44.87649861111111,158.66575L44.90121354166667,158.84275L44.96518159722222,158.57725L45.02478819444444,159.0345L45.037872569444446,158.651L45.13963993055556,158.81325L45.202154166666666,159.1525L45.26612222222222,158.5035L45.28066041666667,158.946L45.30537534722222,159.16725L45.34608229166667,159.182L45.389696875,159.01975L45.47256458333334,159.13775L45.52780972222222,159.182L45.55543229166667,158.99025L45.56706284722222,158.6805L45.596139236111114,158.72475L45.639753819444444,158.96075L45.78658958333333,158.57725L45.795312499999994,158.7985L45.82438888888889,159.22625L45.90725659722222,158.887L46.0046625,159.04925L46.017746875,158.69525L46.042461805555554,158.84275L46.051184722222224,158.769L46.05554618055556,158.48875L46.05990763888889,158.13475L46.06717673611111,158.887L46.13841388888889,158.81325L46.139867708333334,158.63625L46.26198854166666,158.6215L46.312872222222225,158.75425L46.32304895833333,158.81325L46.49605347222222,158.66575L46.497507291666665,159.0345L46.53966805555555,158.66575L46.557113888888885,158.78375L46.57165208333333,158.53300000000002L46.65597361111111,158.60675L46.66615034722222,158.69525L46.743202777777775,158.96075L46.74611041666667,158.356L46.759194791666665,159.005L46.783909722222226,158.37075L46.802809375,159.1525L46.920568749999994,159.123L46.981629166666664,158.7395L46.99616736111111,158.99025L47.01070555555555,158.93125L47.01942847222222,159.418L47.020882291666666,159.1525L47.198248263888885,158.5625L47.21714791666667,158.72475L47.22587083333333,158.60675L47.25349340277778,158.53300000000002L47.400329166666666,158.91649999999998L47.45412048611111,158.6805L47.46284340277778,158.7985L47.468658680555556,159.0345L47.522450000000006,158.66575L47.675101041666665,158.57725L47.68091631944445,158.66575L47.714354166666666,158.66575L47.73325381944444,159.28525L47.89608159722223,159.19675L47.920796527777775,158.3855L47.98476458333334,158.7985L47.99494131944444,158.78375L48.111246875000006,158.93125L48.159222916666664,158.7985L48.17376111111111,158.96075L48.18539166666667,158.66575L48.19411458333334,158.887L48.234821527777775,158.72475L48.40491840277778,158.651L48.44126388888889,159.005L48.449986805555554,158.3855L48.45580208333334,158.72475L48.465978819444445,158.69525L48.474701736111115,158.75425L48.61862986111111,158.887L48.736389236111116,158.45925L48.75238125,158.57725L48.82071076388889,158.96075L48.83524895833333,158.6805L48.99371527777778,158.53300000000002L48.998076736111116,158.769L49.00679965277778,158.002L49.01261493055556,158.75425L49.01697638888889,158.84275L49.04314513888889,159.064L49.06786006944445,158.72475L49.249587500000004,158.51825L49.28011770833333,158.828L49.29029444444444,158.75425L49.473475694444446,159.01975L49.49237534722222,159.24099999999999L49.51272881944444,158.828L49.51854409722222,159.22625L49.52290555555555,158.887L49.52726701388889,158.7395L49.720625,158.99025L49.72498645833333,159.0935L49.79476979166667,158.5625L49.96195902777777,158.592L49.96632048611111,158.45925L50.00411979166667,158.81325L50.047734375,158.297L50.06808784722222,158.45925L50.100071875000005,158.75425L50.105887152777775,158.66575L50.20183923611111,158.3855L50.20620069444445,158.7985L50.24109236111111,158.5625L50.335590624999995,158.63625L50.34576736111111,158.72475L50.35012881944444,158.7395L50.36902847222222,158.63625L50.418458333333334,158.63625L50.61472395833333,158.96075L50.61908541666667,158.6215L50.64816180555555,158.37075L50.701953125,158.75425L50.86332708333333,158.72475L50.88804201388889,158.60675L50.94183333333333,158.887L51.094484375,158.6215L51.15554479166667,158.60675L51.17444444444445,158.85750000000002L51.199159375,158.75425L51.29656527777777,158.651L51.31982638888889,158.53300000000002L51.32709548611111,158.0905L51.40560173611111,158.37075L51.40705555555556,158.75425L51.41577847222222,158.356L51.424501388888885,158.42975L51.487015625000005,158.42975L51.54807604166667,158.42975L51.562614236111116,158.3855L51.64548194444445,158.57725L51.67601215277777,158.07575L51.700727083333334,158.71L51.79522534722222,157.98725L51.896992708333336,158.57725L51.92897673611111,158.53300000000002L51.963868402777784,158.6805L52.00602916666667,158.31175L52.06999722222222,158.7985L52.075812500000005,158.48875L52.10488888888889,158.3265L52.16885694444445,158.71L52.222648263888885,158.93125L52.42036770833334,158.48875L52.50468923611111,158.6215L52.53085798611111,158.51825L52.60209513888889,158.592L52.65297881944444,158.28225L52.66751701388889,158.48875L52.73293888888889,159.07875L52.74166180555555,158.6805L52.82743715277778,158.5035L52.856513541666665,158.60675L52.91612013888889,158.81325L52.932112152777776,158.84275L52.946650347222224,158.769L53.20397638888889,158.37075L53.206884027777775,158.45925L53.22142222222222,158.19375L53.25631388888889,158.34125L53.35371979166667,158.71L53.39588055555556,158.238L53.42059548611111,158.415L53.45112569444444,158.5035L53.48165590277778,158.48875L53.53108576388889,158.57725L53.53690104166667,158.6215L53.64157604166667,158.63625L53.65320659722222,158.828L53.677921527777784,158.51825L53.826211111111114,158.297L53.90471736111111,158.78375L53.91925555555556,158.3855L53.938155208333335,158.07575L54.013753819444446,158.297L54.08935243055555,158.45925L54.19402743055556,158.31175L54.21728854166667,158.179L54.340863194444445,158.3265L54.36703194444444,157.4415L54.497875694444446,158.31175L54.55893611111111,158.16425L54.61708888888889,158.061L54.627265625,158.53300000000002L54.64180381944444,158.5625L54.72612534722222,158.22325L54.787185763888886,158.45925L54.82207743055556,158.651L54.88749930555556,158.297L54.89476840277778,158.19375L54.90494513888889,157.86925L55.00525868055555,158.1495L55.08231111111111,158.26749999999998L55.09684930555556,158.3265L55.22042395833333,158.474L55.301837847222224,158.10525L55.36289826388889,158.474L55.36435208333333,158.37075L55.437043055555556,158.474L55.652208333333334,158.4445L55.76124479166667,158.1495L55.78595972222222,158.31175L55.89354236111111,158.40025L56.033109027777776,158.3855L56.040378125000004,158.0905L56.07963125,158.061L56.098530902777775,158.5035L56.16686041666667,158.297L56.18576006944445,158.1495L56.287527430555556,158.769L56.300611805555555,158.2085L56.360218402777775,158.13475L56.37475659722222,158.238L56.38784097222222,158.31175L56.55793784722222,158.04625L56.560845486111106,158.474L56.616090625,157.7365L56.914123611111116,157.92825L56.928661805555556,157.943L56.941746180555555,158.10525L56.94756145833334,157.707L56.985360763888885,158.13475L57.08276666666667,158.3855L57.10602777777778,158.5035L57.18453402777778,158.25275L57.23541770833334,158.3265L57.244140625,158.25275L57.248502083333335,158.1495L57.374984375,157.8545L57.43895243055555,158.22325L57.725354861111114,157.943L57.776238541666665,157.9725L57.79513819444445,157.9135L57.814037847222224,157.88400000000001L57.81839930555555,157.69225L57.898359375,158.28225L58.01030347222222,158.31175L58.051010416666664,158.37075L58.10916319444445,157.9135L58.16150069444445,157.825L58.20802291666667,157.589L58.212384375,158.0905L58.299613541666666,158.179L58.31851319444444,158.19375L58.37085069444445,157.69225L58.37957361111111,158.1495L58.40865,158.12L58.46680277777778,158.26749999999998L58.51187118055556,158.04625L58.55984722222222,158.48875L58.59183125,158.3855L58.663068402777775,158.12L58.79391215277778,158.01675L58.81862708333333,158.0315L58.82298854166667,158.356L58.828803819444445,158.061L58.83316527777778,158.31175L58.841888194444444,158.26749999999998L59.049784374999994,158.48875L59.126836805555556,158.22325L59.13265208333333,157.5595L59.31437951388889,158.26749999999998L59.526637152777774,158.31175L59.549898263888885,158.3265L59.656027083333335,158.0315L59.65748090277778,158.71L59.704003125,158.19375L59.878461458333334,158.51825L59.908991666666665,157.8545L59.91189930555556,158.179L60.03402013888889,158.22325L60.15177951388888,158.3265L60.228831944444444,158.1495L60.252093055555555,158.1495L60.467258333333334,158.0905L60.48761180555556,157.42675L60.56466423611111,158.10525L60.58211006944444,157.9725L60.59083298611111,157.943L60.609732638888886,157.412L60.75511458333333,157.78075L60.788552430555555,157.89875L60.83362083333333,157.943L60.864151041666666,157.5595L60.8685125,157.89875L60.869966319444444,157.78075L60.877235416666664,158.061L60.89031979166666,157.943L61.086585416666665,157.648L61.18108368055555,157.51525L61.20579861111111,157.36775L61.22033680555556,157.4415L61.431140625,157.30875L61.466032291666664,157.60375L61.50673923611111,157.63325L61.59396840277778,157.648L61.71463541666667,157.07275L61.72481215277778,157.707L61.82221805555556,157.54475L61.841117708333336,157.4415L61.855655902777784,157.36775L61.86583263888888,157.7365L61.96178472222223,157.48575L62.12170486111111,157.66275L62.17840381944444,157.707L62.30488611111111,157.471L62.31506284722222,157.353L62.323785763888885,157.1465L62.35867743055556,157.353L62.52295902777778,157.39724999999999L62.65671041666667,157.176L62.65816423611111,157.1465L62.726493749999996,157.81025L62.735216666666666,157.30875L62.742485763888894,157.235L62.91694409722222,157.294L63.00708090277778,157.30875L63.130655555555556,157.13175L63.276037499999994,156.999L63.29493715277778,157.3235L63.34727465277778,157.24975L63.36181284722222,156.92525L63.40397361111111,157.235L63.72236006944445,156.9695L63.77324375,156.8515L63.78196666666667,157.10225L63.786328125,157.30875L63.816858333333336,156.3795L63.828488888888884,157.235L63.93752534722223,156.24675L64.19048993055556,156.27625L64.25300416666667,155.59775L64.39693229166666,156.763L64.50887638888888,155.0815L64.51469166666666,156.35L64.65716597222223,156.65975L64.833078125,155.642L65.62977118055555,155.524L65.67920104166667,155.6125L65.71845416666666,154.12275L66.26945173611111,154.88975L66.44100243055556,155.42075L66.53404687499999,153.931L66.53986215277779,155.65675L66.63581423611112,155.17L67.55172048611111,151.76275L67.78287777777777,154.816L67.83666909722223,155.27325L68.16377847222222,154.816L68.70750694444445,151.1875L68.7089607638889,154.32925L69.3966173611111,155.1405L69.86329340277777,152.88375L70.05374375,152.397L70.25873229166667,153.20825L70.73558506944445,156.42374999999998L70.7501232638889,155.71575L70.91876631944444,152.397L70.92603541666666,155.0815L71.36363506944444,155.39125L71.44795659722222,156.01075L71.91754027777779,154.86025L71.96115486111111,151.984L72.76075555555555,155.052L74.58820659722223,154.97825L74.70451215277778,155.6125L75.39071493055555,155.12575L75.54481979166667,154.68325L75.55063506944444,153.4295L76.25428368055556,153.164L76.69624479166666,153.35575L76.70060625,154.12275L76.80528125,154.285L76.85034965277778,154.77175L77.21671215277779,154.03425L77.29667222222223,154.4915L77.45804618055556,150.4205L77.55835972222222,152.043L77.57144409722223,153.70974999999999L77.6848420138889,154.44725L78.71850763888888,151.6005L78.78974479166666,151.453L78.80428298611112,146.54125L79.32038888888889,152.88375L80.37150034722222,150.037L81.24524583333333,141.01L81.40371215277779,148.68L82.03757743055556,149.04874999999998L82.34287951388889,127.1745L82.74994895833333,135.75900000000001L83.64259409722223,126.83525L85.02663020833334,145.92175L85.70701770833334,144.74175L86.08064930555555,126.142L87.82523263888889,128.60525L88.51579687499999,126.92375000000001L88.52161215277778,110.63974999999999L88.59866458333333,135.051L89.69775208333333,153.35575L90.14407465277777,151.37925L90.56713611111111,139.594L91.41907430555555,153.0165L91.86539687499999,144.2255L92.10673090277778,144.8155L92.20122916666666,131.99775L92.23902847222222,133.69400000000002L93.55328125,152.73624999999998L93.94290486111112,149.6535L94.13190138888888,151.748L94.19732326388889,143.665L94.40667326388888,147.89825L94.87334930555555,136.62925L95.214996875,144.43200000000002L96.34316076388889,135.8475L96.43329756944443,131.58474999999999L96.57431805555555,137.21925L97.08751631944443,139.84475L97.34338854166667,142.23425L97.56146145833334,139.594L97.67340555555555,102.542L97.9758,144.56475L98.58058888888888,151.05475L98.83064583333334,151.61525L98.83355347222222,152.64775L98.852453125,153.046L98.97457395833332,154.97825L99.27987604166667,154.875L99.29877569444444,154.68325L101.00265208333333,147.86875L101.23962465277778,152.574L102.32708159722222,141.82125L103.76345520833334,133.163L103.88121458333335,129.78525000000002L103.90302187500001,110.06450000000001L105.80897916666666,137.4995L105.91656180555556,125.89125L108.20778125,132.55825L108.66137291666666,119.1505L109.66596215277778,111.08225L109.80843645833335,106.33275L109.80989027777778,87.969L110.55424583333333,146.45275L110.6705513888889,151.49725L111.11105868055556,144.2845L112.98357812500001,129.328L113.06789965277778,142.249L114.13354930555556,132.77949999999998L114.53334965277779,140.46425L114.86918194444443,127.971L116.6239420138889,93.11675L116.72716319444444,128.5905L117.42790416666666,124.00325000000001L117.53257916666666,133.93L118.609859375,148.16375L119.22918645833333,87.792L119.48069722222223,133.4875L119.59700277777777,107.30625L120.99703090277778,151.8955L121.33867847222223,148.96025L123.92502326388889,107.48325L124.32773125,151.099L124.33936180555555,150.1255L125.47043333333333,95.993L125.95164756944445,114.283L131.83670868055555,88.63275L132.23941666666667,72.55525L132.5868795138889,44.043499999999995L133.1102545138889,108.9435L134.65566458333333,60.652L135.72567569444445,59.309749999999994L137.32778472222222,74.64975L137.8206295138889,40.887L137.97037291666666,79.591L138.22624513888888,81.75925L138.785965625,107.203L138.916809375,120.537L140.34591388888887,123.487L141.68052013888888,105.62475L141.9189465277778,90.3585L142.58624965277778,151.79225L142.66330208333335,107.21775L144.48929930555556,104.5775L145.70905381944445,100.3L145.877696875,114.3715L145.9736489583333,100.28525L146.3385576388889,86.77425L147.53505104166666,53.336L148.86820347222223,144.88925L148.95107118055554,81.75925L149.20985104166667,97.33525L149.9963673611111,62.70224999999999L150.26532395833334,117.36575L151.45600208333332,125.1095L151.7424045138889,122.05625L152.16255833333335,147.54425L152.16691979166666,147.028L153.02612708333334,136.88L153.95511770833335,125.6995L154.8070559027778,88.205L156.135846875,80.122L156.14456979166667,90.96325L156.15765416666667,100.90474999999999L156.18527673611112,119.3865L156.3350201388889,161.66L156.423703125,161.3945L156.45859479166666,161.424L156.528378125,161.37975L156.54291631944443,161.483L156.55309305555556,161.43875L156.6039767361111,161.3355L156.711559375,161.07L156.7435434027778,160.76024999999998L156.7566277777778,160.52425L156.76535069444444,160.8635L156.78279652777778,160.81925L156.86711805555555,160.362L157.23202673611112,160.421L157.3628704861111,160.4505L157.54314409722224,159.96375L157.55768229166665,160.14075L158.61024756944445,160.3325L158.68875381944443,160.28825L159.73405000000002,160.126L160.40571458333332,156.94L161.64727638888888,158.179L161.65018402777775,156.9105L164.21472152777778,156.468L164.45024027777777,153.7835L166.5481017361111,156.114L169.34234270833335,157.36775L170.47050659722223,156.57125L177.6959892361111,121.96775L178.4025454861111,36.56524999999999L178.89829791666665,141.2165L180.5411138888889,148.7685L180.6617809027778,26.93350000000001L183.141996875,16.505250000000018L185.39541701388887,15.930000000000007L189.03432708333335,26.667999999999978L191.2223253472222,21.372749999999996L192.5307628472222,16.66749999999999L193.03669201388888,113.25049999999999L197.37343541666667,60.932249999999996L197.65256875,47.92275000000001L197.6947295138889,30.503000000000014L197.86628020833334,16.165999999999997L199.8841815972222,50.548249999999996L204.97691111111112,23.703249999999997L205.22987569444444,30.119500000000016L205.2836670138889,54.69300000000001L212.08027291666667,44.367999999999995L213.47593958333331,57.539749999999984L215.73953645833333,71.13925L215.95034027777777,81.43475L216.11026041666665,33.43824999999998L219.26941006944446,50.548249999999996L222.07092013888888,113.10300000000001L222.08836597222222,96.18475L223.04207152777778,121.43674999999999L223.19326875,35.37049999999999L227.8847440972222,112.99975L235.69611597222223,15.369499999999988L239.0021013888889,15.015500000000003L240.30181597222222,16.165999999999997L243.77208298611112,68.55799999999999L244.28237361111113,17.15424999999999L246.62011527777778,124.077L250.42912222222222,15.531749999999988L250.51344375000002,95.21124999999999L252.17079791666666,61.728750000000005L252.17370555555556,119.84375L252.17661319444446,23.954000000000008L252.1780670138889,28.54124999999999L252.17952083333333,14.971249999999998L252.1809746527778,17.213249999999988L252.18678993055553,36.46199999999999L252.18824375,24.54400000000001L252.18969756944446,35.53274999999999L252.19260520833333,18.99799999999999L252.1940590277778,17.508250000000004L252.1955128472222,46.03475L252.201328125,16.313500000000005L252.20423576388887,22.301999999999992L252.20714340277777,45.78400000000002L252.21005104166667,40.63625000000002L252.2115048611111,36.58000000000001L252.2144125,45.105500000000006L252.21586631944444,15.649750000000012L252.22022777777778,30.252250000000004L252.22313541666665,14.927000000000021L252.22458923611111,19.971499999999992L252.22604305555555,17.818000000000012L252.22895069444445,31.771500000000003L252.23331215277778,50.72524999999999L252.23912743055556,28.408500000000004L252.24203506944446,23.511500000000012L252.2434888888889,56.30075000000001L252.24785034722223,34.514999999999986L252.253665625,20.67949999999999L252.25511944444446,23.673750000000013L252.2565732638889,40.57724999999999L252.25802708333333,37.21425000000002L252.26238854166667,20.85650000000001L252.2638423611111,17.56725L252.26529618055557,41.963750000000005L252.26820381944444,25.045500000000004L252.2696576388889,47.83425L252.27111145833334,33.629999999999995L252.27401909722224,62.93825000000001L252.27547291666664,45.164500000000004L252.27983437499998,17.55249999999998L252.28128819444444,55.6075L252.2841958333333,21.903750000000002L252.28710347222224,23.349250000000012L252.28855729166665,29.544250000000005L252.2900111111111,32.892499999999984L252.29582638888888,23.82125000000002" style="fill: none;" fill="none"></path></g></g></g></g></g></g><g transform="translate(68, 177)" clip-path="url(#clip_1)"><clipPath id="clip_1"><rect width="261" height="23"></rect></clipPath><g><g><line x1="0" y1="0" x2="0" y2="5" style="visibility: inherit;" fill="rgb(0, 0, 0)" stroke="rgb(204, 204, 204)" stroke-width="1px"></line><line x1="29.076388888888886" y1="0" x2="29.076388888888886" y2="5" style="visibility: inherit;" fill="rgb(0, 0, 0)" stroke="rgb(204, 204, 204)" stroke-width="1px"></line><line x1="58.15277777777777" y1="0" x2="58.15277777777777" y2="5" style="visibility: inherit;" fill="rgb(0, 0, 0)" stroke="rgb(204, 204, 204)" stroke-width="1px"></line><line x1="87.22916666666666" y1="0" x2="87.22916666666666" y2="5" style="visibility: inherit;" fill="rgb(0, 0, 0)" stroke="rgb(204, 204, 204)" stroke-width="1px"></line><line x1="116.30555555555554" y1="0" x2="116.30555555555554" y2="5" style="visibility: inherit;" fill="rgb(0, 0, 0)" stroke="rgb(204, 204, 204)" stroke-width="1px"></line><line x1="145.38194444444446" y1="0" x2="145.38194444444446" y2="5" style="visibility: inherit;" fill="rgb(0, 0, 0)" stroke="rgb(204, 204, 204)" stroke-width="1px"></line><line x1="174.45833333333331" y1="0" x2="174.45833333333331" y2="5" style="visibility: inherit;" fill="rgb(0, 0, 0)" stroke="rgb(204, 204, 204)" stroke-width="1px"></line><line x1="203.53472222222223" y1="0" x2="203.53472222222223" y2="5" style="visibility: inherit;" fill="rgb(0, 0, 0)" stroke="rgb(204, 204, 204)" stroke-width="1px"></line><line x1="232.6111111111111" y1="0" x2="232.6111111111111" y2="5" style="visibility: inherit;" fill="rgb(0, 0, 0)" stroke="rgb(204, 204, 204)" stroke-width="1px"></line><line x1="261.6875" y1="0" x2="261.6875" y2="5" style="visibility: inherit;" fill="rgb(0, 0, 0)" stroke="rgb(204, 204, 204)" stroke-width="1px"></line></g><g transform="translate(0, 8)"><text x="0" y="0" dx="0em" dy="0.95em" style="text-anchor: middle; visibility: hidden; font-family: &quot;Helvetica Neue&quot;, sans-serif; font-size: 12px; font-weight: 200;" fill="rgb(50, 49, 63)" stroke="none" stroke-width="1px">-20k</text><text x="29.076388888888886" y="0" dx="0em" dy="0.95em" style="text-anchor: middle; visibility: inherit; font-family: &quot;Helvetica Neue&quot;, sans-serif; font-size: 12px; font-weight: 200;" fill="rgb(50, 49, 63)" stroke="none" stroke-width="1px">0</text><text x="58.15277777777777" y="0" dx="0em" dy="0.95em" style="text-anchor: middle; visibility: hidden; font-family: &quot;Helvetica Neue&quot;, sans-serif; font-size: 12px; font-weight: 200;" fill="rgb(50, 49, 63)" stroke="none" stroke-width="1px">20k</text><text x="87.22916666666666" y="0" dx="0em" dy="0.95em" style="text-anchor: middle; visibility: inherit; font-family: &quot;Helvetica Neue&quot;, sans-serif; font-size: 12px; font-weight: 200;" fill="rgb(50, 49, 63)" stroke="none" stroke-width="1px">40k</text><text x="116.30555555555554" y="0" dx="0em" dy="0.95em" style="text-anchor: middle; visibility: hidden; font-family: &quot;Helvetica Neue&quot;, sans-serif; font-size: 12px; font-weight: 200;" fill="rgb(50, 49, 63)" stroke="none" stroke-width="1px">60k</text><text x="145.38194444444446" y="0" dx="0em" dy="0.95em" style="text-anchor: middle; visibility: inherit; font-family: &quot;Helvetica Neue&quot;, sans-serif; font-size: 12px; font-weight: 200;" fill="rgb(50, 49, 63)" stroke="none" stroke-width="1px">80k</text><text x="174.45833333333331" y="0" dx="0em" dy="0.95em" style="text-anchor: middle; visibility: hidden; font-family: &quot;Helvetica Neue&quot;, sans-serif; font-size: 12px; font-weight: 200;" fill="rgb(50, 49, 63)" stroke="none" stroke-width="1px">100k</text><text x="203.53472222222223" y="0" dx="0em" dy="0.95em" style="text-anchor: middle; visibility: inherit; font-family: &quot;Helvetica Neue&quot;, sans-serif; font-size: 12px; font-weight: 200;" fill="rgb(50, 49, 63)" stroke="none" stroke-width="1px">120k</text><text x="232.6111111111111" y="0" dx="0em" dy="0.95em" style="text-anchor: middle; visibility: hidden; font-family: &quot;Helvetica Neue&quot;, sans-serif; font-size: 12px; font-weight: 200;" fill="rgb(50, 49, 63)" stroke="none" stroke-width="1px">140k</text><text x="261.6875" y="0" dx="0em" dy="0.95em" style="text-anchor: middle; visibility: hidden; font-family: &quot;Helvetica Neue&quot;, sans-serif; font-size: 12px; font-weight: 200;" fill="rgb(50, 49, 63)" stroke="none" stroke-width="1px">160k</text></g><line x1="0" y1="0" x2="261.6875" y2="0" fill="rgb(0, 0, 0)" stroke="rgb(204, 204, 204)" stroke-width="1px"></line></g></g></g></g></svg>