<svg viewBox="0 0 330 200" xmlns="http://www.w3.org/2000/svg"><g><g><g><g><g><line x1="39.15625" y1="177" x2="34.15625" y2="177" style="visibility: inherit;" fill="rgb(0, 0, 0)" stroke="rgb(204, 204, 204)" stroke-width="1px"></line><line x1="39.15625" y1="154.875" x2="34.15625" y2="154.875" style="visibility: inherit;" fill="rgb(0, 0, 0)" stroke="rgb(204, 204, 204)" stroke-width="1px"></line><line x1="39.15625" y1="132.75" x2="34.15625" y2="132.75" style="visibility: inherit;" fill="rgb(0, 0, 0)" stroke="rgb(204, 204, 204)" stroke-width="1px"></line><line x1="39.15625" y1="110.625" x2="34.15625" y2="110.625" style="visibility: inherit;" fill="rgb(0, 0, 0)" stroke="rgb(204, 204, 204)" stroke-width="1px"></line><line x1="39.15625" y1="88.5" x2="34.15625" y2="88.5" style="visibility: inherit;" fill="rgb(0, 0, 0)" stroke="rgb(204, 204, 204)" stroke-width="1px"></line><line x1="39.15625" y1="66.375" x2="34.15625" y2="66.375" style="visibility: inherit;" fill="rgb(0, 0, 0)" stroke="rgb(204, 204, 204)" stroke-width="1px"></line><line x1="39.15625" y1="44.25" x2="34.15625" y2="44.25" style="visibility: inherit;" fill="rgb(0, 0, 0)" stroke="rgb(204, 204, 204)" stroke-width="1px"></line><line x1="39.15625" y1="22.125" x2="34.15625" y2="22.125" style="visibility: inherit;" fill="rgb(0, 0, 0)" stroke="rgb(204, 204, 204)" stroke-width="1px"></line><line x1="39.15625" y1="0" x2="34.15625" y2="0" style="visibility: inherit;" fill="rgb(0, 0, 0)" stroke="rgb(204, 204, 204)" stroke-width="1px"></line></g><g transform="translate(29.15625, 0)"><text x="0" y="177" dx="0em" dy="0.3em" style="text-anchor: end; visibility: hidden; font-family: &quot;Helvetica Neue&quot;, sans-serif; font-size: 12px; font-weight: 200;" fill="rgb(50, 49, 63)" stroke="none" stroke-width="1px">-20</text><text x="0" y="154.875" dx="0em" dy="0.3em" style="text-anchor: end; visibility: inherit; font-family: &quot;Helvetica Neue&quot;, sans-serif; font-size: 12px; font-weight: 200;" fill="rgb(50, 49, 63)" stroke="none" stroke-width="1px">0</text><text x="0" y="132.75" dx="0em" dy="0.3em" style="text-anchor: end; visibility: hidden; font-family: &quot;Helvetica Neue&quot;, sans-serif; font-size: 12px; font-weight: 200;" fill="rgb(50, 49, 63)" stroke="none" stroke-width="1px">20</text><text x="0" y="110.625" dx="0em" dy="0.3em" style="text-anchor: end; visibility: inherit; font-family: &quot;Helvetica Neue&quot;, sans-serif; font-size: 12px; font-weight: 200;" fill="rgb(50, 49, 63)" stroke="none" stroke-width="1px">40</text><text x="0" y="88.5" dx="0em" dy="0.3em" style="text-anchor: end; visibility: hidden; font-family: &quot;Helvetica Neue&quot;, sans-serif; font-size: 12px; font-weight: 200;" fill="rgb(50, 49, 63)" stroke="none" stroke-width="1px">60</text><text x="0" y="66.375" dx="0em" dy="0.3em" style="text-anchor: end; visibility: inherit; font-family: &quot;Helvetica Neue&quot;, sans-serif; font-size: 12px; font-weight: 200;" fill="rgb(50, 49, 63)" stroke="none" stroke-width="1px">80</text><text x="0" y="44.25" dx="0em" dy="0.3em" style="text-anchor: end; visibility: hidden; font-family: &quot;Helvetica Neue&quot;, sans-serif; font-size: 12px; font-weight: 200;" fill="rgb(50, 49, 63)" stroke="none" stroke-width="1px">100</text><text x="0" y="22.125" dx="0em" dy="0.3em" style="text-anchor: end; visibility: inherit; font-family: &quot;Helvetica Neue&quot;, sans-serif; font-size: 12px; font-weight: 200;" fill="rgb(50, 49, 63)" stroke="none" stroke-width="1px">120</text><text x="0" y="0" dx="0em" dy="0.3em" style="text-anchor: end; visibility: hidden; font-family: &quot;Helvetica Neue&quot;, sans-serif; font-size: 12px; font-weight: 200;" fill="rgb(50, 49, 63)" stroke="none" stroke-width="1px">140</text></g><line x1="39.15625" y1="0" x2="39.15625" y2="177" fill="rgb(0, 0, 0)" stroke="rgb(204, 204, 204)" stroke-width="1px"></line></g></g><g transform="translate(39, 0)" clip-path="url(#clip_0)"><clipPath id="clip_0"><rect width="290" height="177"></rect></clipPath><g><g><g><line x1="0" y1="0" x2="0" y2="177" fill="rgb(0, 0, 0)" stroke="rgb(60, 60, 60)" stroke-width="1px" opacity="0.25"></line><line x1="32.31597222222222" y1="0" x2="32.31597222222222" y2="177" fill="rgb(0, 0, 0)" stroke="rgb(60, 60, 60)" stroke-width="1px" opacity="0.25"></line><line x1="64.63194444444444" y1="0" x2="64.63194444444444" y2="177" fill="rgb(0, 0, 0)" stroke="rgb(60, 60, 60)" stroke-width="1px" opacity="0.25"></line><line x1="96.94791666666666" y1="0" x2="96.94791666666666" y2="177" fill="rgb(0, 0, 0)" stroke="rgb(60, 60, 60)" stroke-width="1px" opacity="0.25"></line><line x1="129.26388888888889" y1="0" x2="129.26388888888889" y2="177" fill="rgb(0, 0, 0)" stroke="rgb(60, 60, 60)" stroke-width="1px" opacity="0.25"></line><line x1="161.57986111111111" y1="0" x2="161.57986111111111" y2="177" fill="rgb(0, 0, 0)" stroke="rgb(60, 60, 60)" stroke-width="1px" opacity="0.25"></line><line x1="193.89583333333331" y1="0" x2="193.89583333333331" y2="177" fill="rgb(0, 0, 0)" stroke="rgb(60, 60, 60)" stroke-width="1px" opacity="0.25"></line><line x1="226.21180555555557" y1="0" x2="226.21180555555557" y2="177" fill="rgb(0, 0, 0)" stroke="rgb(60, 60, 60)" stroke-width="1px" opacity="0.25"></line><line x1="258.52777777777777" y1="0" x2="258.52777777777777" y2="177" fill="rgb(0, 0, 0)" stroke="rgb(60, 60, 60)" stroke-width="1px" opacity="0.25"></line><line x1="290.84375" y1="0" x2="290.84375" y2="177" fill="rgb(0, 0, 0)" stroke="rgb(60, 60, 60)" stroke-width="1px" opacity="0.25"></line></g><g><line x1="0" y1="177" x2="290.84375" y2="177" fill="rgb(0, 0, 0)" stroke="rgb(60, 60, 60)" stroke-width="1px" opacity="0.25"></line><line x1="0" y1="154.875" x2="290.84375" y2="154.875" fill="rgb(0, 0, 0)" stroke="rgb(60, 60, 60)" stroke-width="1px" opacity="0.25"></line><line x1="0" y1="132.75" x2="290.84375" y2="132.75" fill="rgb(0, 0, 0)" stroke="rgb(60, 60, 60)" stroke-width="1px" opacity="0.25"></line><line x1="0" y1="110.625" x2="290.84375" y2="110.625" fill="rgb(0, 0, 0)" stroke="rgb(60, 60, 60)" stroke-width="1px" opacity="0.25"></line><line x1="0" y1="88.5" x2="290.84375" y2="88.5" fill="rgb(0, 0, 0)" stroke="rgb(60, 60, 60)" stroke-width="1px" opacity="0.25"></line><line x1="0" y1="66.375" x2="290.84375" y2="66.375" fill="rgb(0, 0, 0)" stroke="rgb(60, 60, 60)" stroke-width="1px" opacity="0.25"></line><line x1="0" y1="44.25" x2="290.84375" y2="44.25" fill="rgb(0, 0, 0)" stroke="rgb(60, 60, 60)" stroke-width="1px" opacity="0.25"></line><line x1="0" y1="22.125" x2="290.84375" y2="22.125" fill="rgb(0, 0, 0)" stroke="rgb(60, 60, 60)" stroke-width="1px" opacity="0.25"></line><line x1="0" y1="0" x2="290.84375" y2="0" fill="rgb(0, 0, 0)" stroke="rgb(60, 60, 60)" stroke-width="1px" opacity="0.25"></line></g></g></g><g><g><line x1="0" y1="154.875" x2="290.84375" y2="154.875" fill="rgb(0, 0, 0)" stroke="rgb(153, 153, 153)" stroke-width="1.5px"></line></g></g><g><g><line x1="32.31597222222222" y1="0" x2="32.31597222222222" y2="177" fill="rgb(0, 0, 0)" stroke="rgb(153, 153, 153)" stroke-width="1.5px"></line></g></g><g><g><g><g><g><path stroke="rgb(255, 112, 67)" stroke-width="2px" d="M33.39209409722222,140.49375L33.5197421875,138.16480263157894L33.54074756944445,134.12566881918818L33.56660034722223,135.3340378743821L33.6360796875,135.51345037361725L34.62818003472223,136.8124435903483L34.69281197916667,136.24580068745038L34.71866475694445,136.21471368235444L34.720280555555554,135.82970836630912L34.79783888888889,135.86640938288957L35.03051388888889,135.57346411567391L35.11453541666667,135.02582255077417L35.20017274305555,135.16566013283153L35.3666,134.42212127917549L35.40537916666667,133.6543271484717L35.81094461805556,134.62961775133482L36.172883506944444,134.13850165195075L36.617228125000004,133.1941610247145L36.827281944444444,132.75909957104474L36.84828732638889,132.75806367291062L37.03733576388889,132.63294157179777L37.55439131944444,132.89134414847402L37.58993888888889,132.87583518367333L38.21525295138889,132.5015187769569L38.4059171875,132.52828870716382L38.59334982638889,131.60586102877807L38.91650954861112,131.14006394816585L39.04092604166667,131.0764798970862L39.05869982638889,130.43945207722484L39.70501927083333,129.9876024400148L40.00394201388889,130.9648772250968L40.01363680555556,131.3788541616783L40.230153819444446,131.4061884616009L40.29963315972222,131.65820387967523L40.59855590277778,131.54325617183093L40.68419322916667,131.1008385947046L41.20124878472222,130.59168128587814L41.62943541666667,130.6988436566208L41.708609548611115,130.79491204157245L41.83625763888889,131.10563865105675L41.93320555555555,130.7117094263695L42.46480329861111,130.6940773838356L42.619919965277774,130.45458909600617L42.71525208333333,129.45758651731208L43.13051232638889,128.89693451533321L43.21776545138889,128.83928824268918L43.22746024305555,128.67608059741082L43.308250173611114,128.86341448426427L43.42458767361111,129.14304934160992L43.55061996527778,128.616028259261L43.56839375,128.4756492998945L44.116149479166666,127.34963375278718L44.300350520833334,126.33711624583032L44.41507222222222,125.87057706944894L44.723689756944445,126.22773127300626L45.087244444444444,125.66153236798252L45.25205590277778,124.37596015105382L45.37647239583333,123.66303248365038L45.75941666666667,123.13254502258366L46.07126579861111,122.54448376819418L46.23284565972222,121.68301713340058L46.749901215277774,121.01874852506035L46.82099635416667,120.42109072858378L47.090834722222226,118.99730298369423L47.142540277777776,118.04844083193308L47.17808784722222,117.30538712877453L47.347746701388886,116.85821406865944L47.76623854166667,116.23441011574417L47.85349166666667,115.78378037637196L48.21219895833334,115.37827325659126L48.23158854166667,115.23473998952682L48.82297083333333,115.21625660972681L49.11381458333333,114.97827224322916L49.3998109375,114.65343647947057L49.619559548611115,114.25044372884622L49.818302777777774,114.21976413997646L50.00411961805556,113.74952179873515L50.432306249999996,113.76894985902925L50.635896875,113.23317481403149L50.91866163194444,113.08294951223057L51.102862673611114,112.61581270927577L51.70717135416666,112.63798536211719L52.43104913194445,112.21536951676268L52.53122864583334,111.83502804651415L52.58293420138889,111.82464890288047L52.63302395833333,111.59403223654294L52.67341892361111,111.38648232482026L52.962646875000004,111.3103269302197L53.331048958333334,111.24178843599692L53.40860729166667,111.40137174903082L53.41183888888889,111.3237292509881L54.2278171875,111.3644838405963L54.24397517361111,111.8436870682669L54.473418576388895,111.38992068221528L54.59460347222222,111.20279519672224L55.17629097222222,111.14501333782275L56.09083298611111,111.31426817090623L56.09406458333333,111.13471046578617L56.4382296875,111.5262509746116L56.6418203125,111.54675142167099L56.73553663194445,111.78645700972805L56.97790642361111,112.0021909502134L57.0199171875,112.085723472654L57.407708854166664,111.93964857975111L57.79226892361111,112.14006186510616L57.81489010416667,112.2098066631003L57.8197375,112.38320319966057L58.22853454861111,112.53925966401466L58.375572222222225,112.45845786612794L58.41435138888889,112.16448435691268L58.63086840277778,112.1211605601068L58.84253802083334,112.3034208713626L59.28041944444444,112.46745489171042L59.41776232638889,112.283208282984L59.63589513888889,111.45363291793994L59.95259166666667,111.70264585175795L60.02691840277778,111.59488078921603L60.303219965277776,111.71914320569432L60.43571545138889,111.38847769868015L60.96408159722222,110.86962825331963L61.088498090277774,111.0664159999161L61.15474583333333,111.13289957382487L61.549000694444445,111.96711158027783L61.654027604166664,111.27977396598214L61.9351765625,111.21429644452893L61.961029340277776,111.3766170786432L62.591190798611116,111.19083008382374L62.62350677083333,111.35549730434272L63.05654079861111,111.5036977593185L63.13733072916666,111.30520275988752L63.5057328125,111.01593219076018L63.5929859375,111.08746403692368L63.65277048611111,111.3730928676843L64.17952083333334,111.07703336220253L64.3200953125,110.8105798488245L64.79837170138889,110.4601466542478L64.7999875,110.36600693812434L65.06982586805556,110.50253131048423L66.07323680555555,110.51477818477818L66.10393697916666,110.41517532719618L66.57090277777777,110.43615780189053L66.83427795138888,110.45504202770678L66.89729409722223,110.58266286146197L67.01201579861112,110.3656465194155L67.09280572916667,109.61720669396546L67.60016649305555,109.0542359071083L67.83122569444444,108.21568715893495L68.23840694444445,108.23536844636763L68.50016631944445,108.47433163807757L68.52763489583333,108.35752345827977L68.5373296875,108.47364612675838L69.03661145833334,108.3569065011382L69.49065086805555,107.91996580742038L69.50196145833333,108.41171927084494L69.66030972222222,108.5224223527089L69.94307447916667,107.73705506030275L70.035175,106.91959950074975L70.14504930555556,106.95826455295321L70.48113541666667,105.88681304083393L70.52960937499999,104.92250669072313L71.15330763888889,104.0546309843686L71.17269722222223,104.37979289850323L71.47646736111112,104.00868859573995L71.61219444444444,104.33844474649274L71.75276892361111,104.19272526773639L71.83840625,104.7253277544729L71.8820328125,104.98341998491776L72.2875982638889,104.55195297756076L72.48795729166666,104.82738268489794L72.75133246527778,105.1858944223748L73.40249930555555,105.28730498165629L73.48652083333333,105.15732448173846L73.93409704861112,105.04034203214529L73.9470234375,103.93943281690956L74.36066788194445,104.054864536353L74.37197847222222,104.15875308363655L74.47377378472223,103.92037777337538L74.81955468749999,103.92708999608593L75.08616145833334,102.93750599009674L75.22188854166666,103.26375539298027L75.70178072916666,102.8936298517492L75.91829774305556,103.2242668681284L75.92960833333333,103.30059018163844L76.22206788194444,103.25865616331492L76.85222934027779,102.66779054495879L76.95240885416666,102.24663648916409L77.30465295138889,101.86759783919562L77.50339618055555,101.41583805414756L77.81039791666667,102.11550425030579L77.85564027777777,101.97082882498249L78.45833315972223,102.28312094305294L78.48741753472223,101.90043384812043L78.70878194444444,101.66664046296354L79.01093628472223,101.45622641638784L79.10465260416667,101.93060377531586L79.1515107638889,101.03004339681587L79.43750711805556,101.1045390572064L79.55869201388889,100.06533515058061L80.28095399305555,100.34692663574327L80.88687847222222,100.60035897234776L80.9434314236111,100.82844807525781L81.31506510416668,100.25935326740681L82.13589079861111,99.96841794051649L82.279696875,99.92782614644607L82.35563940972222,100.66566853210882L82.62386197916668,99.33847667840033L82.63678836805555,99.02900401045586L82.64001996527777,99.19297860946008L82.64486736111111,98.89805574843346L82.76282065972222,97.96887517336155L82.99711145833334,98.68136265618314L83.06659079861112,98.88010139060442L84.1265546875,98.61646625149669L84.31721892361112,98.60044462634444L84.44325121527777,98.47540016369183L84.8245796875,99.0266101473947L85.44989375,98.8589491326355L85.83930121527779,97.93367921927397L86.03319704861111,97.87531129734101L86.0752078125,97.04840516753598L86.11237118055556,97.07856465078473L86.25617725694445,96.88445818569275L86.51793663194445,96.9310123671264L86.57610538194444,97.30478613043479L87.01721840277779,96.20305751733551L87.3678467013889,95.65400176557694L87.55689513888889,95.15985158899896L87.72655399305556,95.37886643010715L88.02709253472221,94.80160478707727L88.1094982638889,93.95019430834407L88.40680520833334,93.51579987749797L88.94971354166667,93.2354698897414L89.50877986111111,92.87254790075934L89.76084444444444,92.32466811067266L89.90303472222222,92.05282629960058L90.18095208333332,91.03379366962433L90.26982100694444,90.0060393026472L90.27143680555555,89.41293537237485L90.59136493055556,88.98976683513246L91.09710989583333,88.9407901516187L91.32009010416667,88.34358613645122L91.34755868055557,87.47422752279877L91.45904878472223,87.1343047705163L91.79028749999999,86.60712429346106L91.95509895833332,86.46453686411408L92.12314201388888,85.8937081776995L92.15545798611112,85.49058735992755L92.70159791666666,85.45965362393466L93.27035902777779,85.09993826153973L93.35761215277778,83.89119443538138L93.48687604166668,83.13519999184078L93.51434461805556,83.11855499265664L93.7841829861111,83.21419949339122L93.8698203125,83.41090454405257L93.90375208333334,83.36668908964722L93.95061024305556,83.10564518068199L94.29154375,82.76008066261322L94.91847361111111,82.55969759635157L94.99280034722223,82.37935283671617L95.25455972222221,82.21704255304435L95.32888645833333,81.51783829773912L95.629425,81.10980446796478L95.78938906249999,80.96382402116816L95.88795277777777,80.50056661905097L96.50357204861112,80.08363495714555L96.69262048611111,79.04464646143029L96.80249479166666,79.32643181528744L96.96245885416666,78.91628863375847L97.06263836805556,78.6577847703825L97.49890399305556,78.86763129334435L97.50213559027777,78.61399316400983L97.58130972222222,78.71759384760888L97.99172256944445,78.700209462848L98.36820364583333,78.6845635165632L98.59118385416667,78.78110716490689L98.77861649305555,78.31487144841608L98.82224305555556,77.34213430357427L98.98543871527778,77.24104587321683L99.38454097222223,76.81819128589505L99.91290711805556,76.54824715730554L100.08902916666668,76.41592244157496L100.42673107638889,76.40745519741748L100.52529479166667,76.51045967767574L100.602853125,76.49253870990817L100.92762864583332,75.9232848389173L101.05689253472222,76.07470635502557L101.37035746527778,75.54723571952299L101.98112934027777,74.85126214757065L102.80195503472223,74.88863593281359L102.88112916666667,74.14789733953216L103.65348090277777,73.92373260557893L103.70195486111112,73.94323434502105L103.73265503472221,73.73953591051892L103.82475555555556,73.55620731946702L103.95563524305555,73.61246158752031L104.0622779513889,72.99934042876825L104.54701753472223,73.11128138589143L105.01883072916667,73.54390324730231L105.34683784722222,73.82263792257206L105.53750208333334,73.07787413031485L105.96568871527778,72.96071171728337L106.26299565972224,73.29776554555502L106.62816614583333,73.60111399099955L106.79136180555555,73.43162759189958L106.99495243055556,73.38971483270961L107.0305,73.79449334943865L107.04181059027779,74.15879401449482L107.45707083333333,73.93353961304533L107.47646041666667,73.06706065174079L108.11146927083333,72.95097958656672L108.25042795138889,73.17838162791003L108.30374930555554,73.60429346511903L108.41685520833335,73.5451141186071L108.63983541666667,73.60247770674641L108.69154097222221,72.43722993607174L108.98723211805556,71.72038194246458L109.08902743055556,71.84959374821813L109.8064420138889,71.41275937339631L109.83391059027778,71.24085843605667L109.90823732638889,70.64364759245102L109.9227795138889,70.43803283320592L110.32026597222222,69.36797954988532L110.41398229166667,68.9580565948968L110.65796788194444,68.36787593540713L110.70482604166666,69.0535883418664L110.70805763888889,68.56447950767974L111.29620833333333,69.34115655691177L111.39638784722223,69.3764159012206L111.57897309027777,69.40814931109853L111.60159427083333,68.88358437998869L111.9473751736111,68.3008509419898L112.0055439236111,68.3295158477908L112.34324583333333,68.68718926301173L112.44342534722223,68.89847033671057L113.0089548611111,68.64612330303952L113.17538211805557,69.41463597273557L113.89764409722223,69.110672375462L114.42924184027778,69.3902301379158L114.48741059027778,69.64183212412419L114.87681805555555,69.8682739117118L114.89297604166667,69.62957152054061L115.43103697916666,69.30411436848655L115.59100104166667,69.56432793163788L115.60069583333335,69.3560201384741L116.02565086805555,69.16854312462667L116.41667413194443,68.66793881216401L116.50069565972221,68.77051993094759L117.35545312500001,68.75221793785282L117.36030052083333,68.40387114406755L117.59782291666666,67.97973402966079L117.89189826388889,67.59801062669472L118.10518368055556,67.25445956402523L118.12134166666667,67.60901360762271L118.67556059027778,67.59623724686044L118.83875625,67.69536352217439L119.0585048611111,67.56332716995695L119.08112604166666,67.00199445296127L119.08597343749999,67.38179500766515L119.19907934027778,66.83861550689863L119.45599131944444,66.79225395620875L119.7710720486111,66.63990356058788L119.80338802083332,66.39216320452911L120.3527595486111,67.0541968840762L120.71793003472222,66.76502719566857L120.75024600694445,66.61539947610173L120.75994079861111,66.37010952849154L122.16730138888889,66.5918485756424L122.52277708333334,66.34891371807815L122.55509305555556,66.13027234627035L122.5599404513889,66.5972451116433L122.5744826388889,66.13252060047897L122.73121510416667,65.16114354043107L123.18687031249999,64.95065418638796L123.54073020833334,64.98246376774918L123.61505694444445,64.78984239097426L123.78633159722222,64.50585815187684L124.09656493055556,64.58214733668913L124.28561336805555,64.87205760302022L124.31146614583334,64.35860184271819L124.44073003472224,64.78149165844637L124.46173541666667,64.38771749260174L124.47789340277777,64.25457074334155L125.07897048611112,64.35598866900742L125.09997586805555,64.22601480210666L125.42798298611112,64.330288321896L125.81415885416666,64.53475948970639L125.82546944444445,63.501908540735755L126.27142986111112,63.236092686662175L126.62205815972222,63.32873341799595L126.84503836805555,63.41211007619634L127.10679774305557,63.2658990685767L127.7838173611111,62.91305916171903L128.11020868055556,63.259253245547114L128.12475086805557,62.79645292099241L128.21038819444445,62.93305762889315L128.48668975694446,62.613501866003844L128.54485850694445,62.657776679403455L128.9875873263889,62.697624011463105L129.59189600694444,62.40161161031679L129.65006475694446,61.69270044928511L129.65491215277777,61.718430404356596L129.8778923611111,61.29908736392093L129.97160868055556,62.02792862752885L130.06855659722223,61.467010764775935L130.30123159722223,61.404684688298346L130.48220104166666,61.6804662194685L130.50643802083334,61.81804459752166L131.21900520833333,62.052490137769496L131.37089027777776,61.82099112399254L131.5340859375,61.39139201159328L131.58417569444444,61.447252810433966L131.6100284722222,61.608152529390566L131.74898715277777,61.86358727645151L131.77322413194443,62.31472854880636L132.1464736111111,61.50388069392574L132.2951270833333,59.88911762453317L132.8444986111111,59.87395586207985L133.0901,59.97093527587188L133.32923819444446,60.27946674828469L133.37124895833333,60.00402007345622L133.48920225694445,60.19861806611061L133.5990765625,60.59500625949954L133.9755576388889,60.95175563354958L134.1387532986111,59.392205070194635L134.34719131944445,59.31610956317516L134.81415711805556,57.69887360685766L134.8658626736111,57.460236246171874L135.1389326388889,58.019837621554686L135.15024322916668,58.08097885939921L135.3716076388889,57.91475597345929L135.7383939236111,58.207655376113365L135.9839953125,58.13938983850203L136.04377986111112,57.96732585465182L136.93570069444445,57.59121826918664L137.2523972222222,57.91647144226798L137.55293576388888,57.76669929804119L137.59009913194444,57.85315436823704L137.81469513888888,57.82033893141336L138.02636475694445,57.68018003827201L138.58058368055555,57.22216203444481L138.63552083333335,57.584320831000326L139.0216967013889,57.57838874790029L139.06532326388887,57.35179987311027L139.64539496527777,56.59474488579923L140.16083472222223,56.68777039721931L140.273940625,56.66086835749739L140.71666944444445,56.63665652174764L140.739290625,57.278615869572874L140.93803385416666,56.86075428261559L141.1448560763889,56.26342885435402L141.25634618055554,56.168335968918626L141.62313246527776,55.97212737202675L141.8622706597222,56.23803963482408L142.01415572916667,56.034860671341676L142.21451475694442,56.2944996042075L142.24036753472222,56.196299643786745L142.60876961805556,55.77604467940807L142.61846440972224,55.72969021146727L142.75580729166666,55.68797119032054L142.79297065972222,56.20354907128849L142.90284496527778,56.44631916415963L143.5152326388889,56.996687247743665L144.0565251736111,56.607018522969284L144.47178541666668,56.69881667067234L144.49763819444445,56.781435003605125L144.63174947916667,56.30266650324462L145.14234184027777,55.429274852920145L145.35401145833333,55.638847367628145L145.41864340277778,55.606212630865315L145.63192881944443,55.68746636777878L145.89530399305556,55.096844731000886L146.11020520833333,53.45903525790081L146.2233111111111,53.97625673211071L146.43659652777777,53.77800605889966L146.4834546875,54.70583045300968L146.76945104166668,54.98774740770871L147.1249267361111,54.909597666937856L147.33336475694443,54.28613790024406L147.48848142361112,54.056899110219675L147.78578836805553,52.85495919919771L148.0572425347222,52.99008827927794L148.31738611111112,53.443579451350146L148.32384930555554,53.85172150621513L148.48219756944445,52.6702993555936L148.60015086805555,51.71764442003425L148.69871458333333,51.63462997803083L149.27393888888886,51.78116698022774L149.3062548611111,51.58117528220497L149.44359774305556,51.29055775398447L149.61002499999998,51.029001978586024L149.8879423611111,52.23172678072741L150.27088663194445,52.097304102654675L150.32905538194444,51.8656986923892L150.93982725694443,52.09975382315028L151.33408211805553,52.421028440835244L151.79458472222223,52.710175596751725L151.88183784722222,53.74478303707656L152.09350746527775,53.45905473336889L152.36819322916668,51.98502426003199L152.47806753472221,50.99027183402879L152.54269947916666,51.42249465062592L153.1453923611111,50.70524518556333L153.17770833333333,51.497845667006985L153.29081423611112,50.662436100306294L153.44431510416666,51.016817490275656L153.4507782986111,51.22513574124811L153.56388420138887,51.301997167123304L153.9581390625,51.03929745041097L154.4509576388889,51.02411770536986L155.0342609375,50.45733093483288L155.05849791666668,49.947222841349614L155.53515850694444,49.820000557214655L155.78560729166665,49.263000501493195L156.28004166666668,50.08920045134387L156.41576874999998,50.279655406209486L156.7631654513889,50.00856486558854L156.77124444444442,50.20708337902968L156.92959270833333,51.160125041126705L156.94413489583332,51.354112537014046L157.5225907986111,50.31182628331263L157.5920701388889,50.59064365498138L158.17860503472224,51.284079289483216L158.829771875,50.691296360534906L158.86531944444445,50.93216672448142L159.33066944444445,51.48082505203327L159.44539114583333,51.31086754682994L159.51648628472222,48.94540579214694L160.03192604166668,49.13961521293224L160.07555260416666,48.65065369163901L160.23228506944443,47.76808832247511L160.67016649305555,47.96940449022762L160.8979940972222,48.48246404120485L161.06926875,46.73171763708433L161.28255416666667,47.257920873375895L161.6638826388889,47.8421287860383L161.67034583333333,47.704165907434486L162.1874013888889,47.91187431669101L162.53479809027777,48.430686885021885L162.58811944444443,48.67636819651972L162.6947621527778,48.786856376867746L162.80302065972222,49.439420739180974L163.26675486111114,49.25235366526286L163.28614444444446,49.747743298736594L164.11989652777777,50.304218968862926L164.3994296875,50.14129707197664L164.49153020833333,48.888417364778974L164.50607239583334,49.30957562830106L164.68381024305555,49.24611806547095L164.97626979166668,48.082756258923865L165.08937569444444,47.5888556330315L165.12007586805558,47.80809506972835L165.27842413194443,46.23541056275553L166.07178125,47.03249450647996L166.13318159722223,46.975495055832L166.4450307291667,48.0304455502488L166.51935746527778,48.205525995223894L166.5403628472222,48.58434839570151L166.93623350694443,48.15091355613134L167.19476128472223,45.76957220051821L167.76352239583332,45.94948998046641L168.01720277777778,45.779540982419746L168.20625121527777,46.290336884177776L168.4001470486111,44.42692819576001L168.5423373263889,44.187985376184L168.93174479166666,43.53043683856558L169.23874652777778,44.04489315470903L169.33407864583336,44.839778839238136L169.45041614583334,45.99767595531432L169.99494027777777,45.601658359782874L170.01432986111112,46.130242523804554L170.11935677083332,45.27846827142409L170.405353125,45.396871444281686L170.68811788194444,45.61405929985352L170.99188802083333,43.81827836986815L171.09368333333336,44.63582553288137L171.25526319444444,44.486617979593234L171.8482612847222,45.12670618163392L172.24897934027777,43.490285563470536L172.26028993055556,44.11938200712348L172.3426956597222,44.464318806411114L172.70948194444446,44.55351192576998L172.9680097222222,44.30191073319298L173.2249217013889,44.40734465987367L173.2733956597222,45.60848519388631L173.50283906250002,46.57888667449768L174.15562170138887,46.23537300704791L174.17016388888888,46.811210706343104L174.93928402777777,47.3294646357088L175.1040954861111,47.57464317213791L175.97985833333334,47.79530385492413L176.0897326388889,47.99389846943171L176.24646510416667,47.508883622488526L176.80068402777778,46.62987026023967L176.85562118055557,46.391883234215726L176.87662656249998,45.73519491079412L176.9654954861111,46.2504254197147L178.02061197916666,46.492882877743256L178.20804461805554,46.26859458996893L178.3049925347222,46.841110130972L178.72186857638889,44.59074911787482L178.72833177083334,45.33104920608733L179.04825989583335,45.5548192854786L179.8707013888889,45.977462356930744L180.1534661458333,46.35784112123767L180.28273003472222,46.25768200911389L180.36190416666665,45.3931638082025L180.52025243055556,47.15947242738224L180.643053125,46.97915018464403L181.04377118055555,46.706235166179624L181.1778824652778,46.23936164956166L181.77088055555555,45.2660504846055L181.9970923611111,45.275070436144944L182.32348368055554,44.398188392530415L182.4802161458333,43.830244553277396L182.71773854166665,42.65534509794966L182.91325017361112,43.58918558815469L183.15723576388888,43.43401702933923L183.5110956597222,42.74124032640529L184.34969513888888,39.573366293764764L184.55974895833333,40.37290466438827L184.62438090277777,39.76498919794949L184.77788177083332,40.102865278154525L184.9604670138889,40.62820375033908L185.23515277777776,41.65413337530518L185.71342916666666,43.01997003777467L185.98973072916667,43.474848033997176L186.05759427083333,43.220488230597454L186.29673246527778,42.65968940753771L186.40660677083335,43.371845466783924L186.5956552083333,44.01278592010553L186.86064618055556,45.032132328094974L186.89619374999998,44.622044095285474L187.06262100694445,43.14671468575693L187.34538576388888,44.031418217181226L187.74771961805556,44.38515139546311L187.9157626736111,45.25663625591679L188.2890121527778,45.81972263032512L188.41827604166667,46.326500367292624L188.44089722222222,46.782600330563355L188.53461354166666,46.861215297507016L189.0500532986111,46.600093767756306L189.24394913194445,46.58633439098068L189.52025069444443,47.34832595188263L189.99529548611113,45.82161835669439L190.19080711805555,46.991956521024946L190.2118125,47.04963586892245L190.33299739583333,47.54404728203019L190.80319479166667,46.993392553827164L191.3622611111111,47.604053298444455L191.86639027777778,47.26864796859999L192.00858055555554,46.413658171739996L192.07805989583332,46.971667354565994L192.3947564236111,46.14637561910939L192.45454097222222,46.28861305719846L192.89888559027779,46.19537675147859L193.03461267361112,45.558339076330725L193.3949357638889,45.31688016869765L193.49673107638887,45.76331715182789L193.80211701388887,46.6076104366451L193.8069644097222,47.47809939298057L194.00732343750002,48.04028945368253L194.3078619791667,48.546260508314276L194.49852621527776,48.669759457482826L194.9800342013889,48.22778351173454L195.10768229166666,49.378755160561084L195.30480972222222,49.52962964450498L195.4890107638889,49.44416668005448L196.20642534722225,49.58850001204904L196.2807520833333,48.39090001084415L196.84304999999998,47.86618500975973L196.9319189236111,47.725816508783765L197.28739461805554,48.04198485790539L197.38757413194446,48.215911372114846L197.48775364583335,47.37682023490336L198.01611979166665,47.064138211413024L198.63820225694445,47.33584939027173L199.00660434027776,47.58038945124457L199.1374840277778,46.47297550612009L199.2990638888889,46.803802955508104L199.54466527777777,46.54842265995728L200.09403680555556,46.98233039396155L200.28793263888886,47.15159735456538L200.30893802083332,46.75081261910884L200.9148625,45.283856357197976L201.060284375,44.51672072147815L201.29619097222223,45.153798649330355L201.48039201388892,44.289043784397336L201.59188211805557,44.28513940595761L201.92635243055557,44.392250465361826L202.02168454861112,44.59927541882567L202.07500590277778,45.006847876943084L202.24951215277775,45.92678808924879L202.76172031250002,44.4316092803239L203.03479027777777,44.74532335229151L203.39188177083335,44.80641601706233L203.46620850694447,43.20202441535611L203.60839878472223,43.638696973820515L204.11737534722224,44.69545227643843L204.34843454861112,43.987157048794614L204.84448472222223,44.566566343915156L205.4180932291667,44.20303470952362L205.42294062500002,44.87148123857128L205.44556180555554,44.477458114714125L205.68308420138888,45.007837303242724L206.36656701388887,43.71517857291846L206.3972671875,43.98991071562662L206.7171953125,44.56904464406395L207.33604618055557,42.65651517965753L207.40552552083332,40.935238661691784L207.4313782986111,40.60296479552261L207.47985225694444,41.18891831597034L207.95328125,40.72065148437332L207.9694392361111,42.06921133593599L208.622221875,41.95541520234238L209.2459201388889,41.963623682108135L209.30085729166666,40.20101131389731L209.6514855902778,39.94216018250759L209.7241965277778,40.92606916425683L210.0925986111111,41.81158724783114L210.29780503472224,42.27667852304802L210.66943871527778,40.48276067074326L211.01037222222223,41.412609603668926L211.1784152777778,41.143223643302036L211.42401666666666,40.67952627897182L211.43532725694445,40.48344865107464L212.05094652777777,40.306978785967175L212.1252732638889,41.58628090737045L212.2399949652778,42.627027816633415L212.54053350694446,42.67870003497009L212.8265298611111,42.83583003147308L213.11414201388888,42.42412202832574L213.59726579861112,41.83233482549318L214.14340572916666,41.63160134294384L214.45363906249997,40.455316208649464L214.4956498263889,41.166659587784494L214.56997656250002,41.80686862900603L214.9302996527778,41.387431766105436L215.76405173611113,41.12056358949488L216.01773211805556,42.20788223054538L216.04520069444445,43.51834400749087L216.14538020833334,43.70213460674174L216.21970694444445,44.31004614606758L216.28110729166667,44.19341653146083L216.4863137152778,43.75657487831475L216.66566736111113,43.14216739048328L216.93550572916666,42.589200651434936L217.72886284722222,43.19778058629146L218.04232777777776,42.63925252766231L218.18128645833332,41.5834522748961L218.21360243055557,41.40760704740646L218.95848559027777,42.02372134266582L219.72437413194444,41.14009920839922L219.8051640625,40.89796428755932L219.96835972222223,40.23754285880338L220.06369184027778,40.97066357292303L220.18164513888888,41.96234721563076L220.2672824652778,41.30611249406766L220.33676180555557,41.04737624466091L220.4579467013889,40.59326362019479L221.10588194444446,39.078312258175316L222.17230902777777,39.04235603235776L222.19654600694446,40.22687042912199L222.29187812499998,40.8504333862098L222.3080361111111,42.296640047588824L222.44537899305556,42.38135104282995L223.1918779513889,42.01509093854693L223.74771267361112,42.68108184469227L223.9771560763889,41.39984866022306L224.066025,41.68486379420074L224.25992083333333,42.052002414780645L224.2712314236111,41.60805217330261L224.385953125,41.31912195597232L224.42311649305557,42.16533476037509L224.9983407986111,41.820676284337594L225.26494756944444,41.28923365590384L225.6640498263889,41.91718529031343L226.0179097222222,43.035466761282095L226.24412152777776,43.15692008515387L226.26512690972223,40.832478076638495L226.35561163194444,41.83798026897463L226.48487552083333,42.41105724207716L226.7692560763889,43.36932651786944L227.28308003472225,43.1255188660825L227.85022534722222,43.23796697947424L228.14268489583333,44.44542028152682L228.25740659722223,44.53650325337412L228.37859149305555,43.733477928036706L228.48038680555555,44.78075513523305L228.6193454861111,44.50642962170974L229.06530590277777,45.033911659538774L229.39331302083332,43.29614549358487L230.22868090277777,42.838405944226395L230.36602378472222,43.532690349803744L230.42257673611113,42.94067131482339L230.57769340277778,43.73535418334103L230.80713680555556,43.897443765006955L231.60210972222222,43.15832438850623L231.91880625,42.603741949655614L232.36638246527778,43.43211775469004L232.41000902777776,44.17765597922104L232.6766157986111,43.29989038129895L233.45543072916666,43.06302634316904L233.5620734375,41.19047370885215L234.0726657986111,40.16892633796692L234.23909305555554,41.46203370417021L234.3182671875,42.29395533375322L234.34088836805557,43.042684800377884L234.4039045138889,43.163416320340104L234.80300677083335,43.382699688306076L234.90157048611113,42.69505471947548L235.26674097222224,43.4036742475279L235.48487378472223,44.262681822775136L235.69977500000002,45.478288640497624L236.14573541666664,44.69170977644788L236.1812829861111,43.98378879880309L236.36386822916666,43.89978491892276L237.16045694444446,42.82855642703049L237.2977998263889,41.75382578432743L237.52239583333332,42.44594320589471L237.56602239583333,42.29447388530525L237.6936704861111,41.82627649677471L237.85363454861113,41.62614884709723L238.20911024305556,41.224783962387505L238.87320347222223,40.97418056614873L238.96853559027778,38.97863750953388L239.44034878472223,39.06327375858049L239.45973836805555,39.581946382722435L239.5259861111111,38.278751744450204L239.91054618055557,35.889001570005206L239.94609375,34.29135141300469L240.13998958333332,35.065966271704184L240.4825388888889,35.87374464453379L240.8202407986111,36.3794951800804L240.95435208333333,36.392170662072346L241.01736822916666,36.5142035958651L241.35991753472223,36.51340823627859L241.46817604166668,35.73831741265073L241.6297559027778,35.92573567138567L241.7331670138889,37.2006621042471L242.1678168402778,37.13122089382239L242.64609322916667,36.18372380444015L242.71395677083333,34.11410142399612L243.13568020833333,35.01706628159653L243.30695486111114,34.50223465343686L243.51377708333334,36.030136188093195L244.42024010416668,36.85212256928389L244.95830104166666,38.2556603123555L245.27499756944442,38.85509428111996L245.34770850694443,39.06270985300796L245.9067748263889,39.470813867707164L246.0392703125,39.72748248093643L246.14752881944443,40.290359232842775L246.54663107638888,40.02257330955848L246.74214270833335,40.002815978602655L246.9004909722222,39.985034380742405L247.1121605902778,40.30090594266818L247.20102951388887,40.58519034840134L247.97014965277776,40.50917131356121L247.99600243055556,41.547004182205086L248.10749253472224,40.489803763984554L248.2222142361111,40.312698387586124L248.39672048611112,39.9320535488275L248.4985157986111,39.81072319394474L248.9186234375,40.365275874550264L249.0042607638889,38.76249828709524L249.1771512152778,39.53249845838573L249.34519427083333,40.00424861254717L249.8477076388889,40.53944875129244L250.1821779513889,40.24675387616321L250.23065190972224,40.757703488546895L250.92382951388888,38.673183139692185L251.03047222222224,37.46086482572298L251.15812031250002,39.02477834315067L251.6073123263889,38.77292550883561L252.13891006944445,37.32938295795205L252.18576822916665,36.36206966215684L252.40390104166667,35.15961269594115L252.4200590277778,35.18365142634704L252.481459375,34.209661283712336L253.47679131944443,32.44807015534107L254.08110000000002,33.62826313980699L254.51251822916666,34.469186825826284L254.5900765625,35.44726814324363L255.1846904513889,36.88066632891929L255.33657552083335,34.40947469602736L255.7873833333333,35.28290222642465L255.8859470486111,36.17961200378218L255.96512118055554,32.893525803403946L256.4094657986111,32.48042322306355L256.71323593750003,31.444880900757198L256.73424131944444,32.50414281068146L256.7568625,32.90435352961333L257.0541694444444,33.59641817665201L257.2416020833333,35.32552635898682L257.6471675347222,35.11172372308812L257.7053362847222,35.25117635077933L258.17230208333336,35.59793371570137L258.64249947916664,32.480640344131245L258.7329842013889,33.989451309718106L258.7588369791667,34.904881178746336L258.91880104166665,35.17564306087169L259.5182623263889,35.419328754784544L259.6119786458333,34.31114587930605L259.64106302083337,33.86690629137547L259.95937534722225,33.909590662237946L260.4408833333333,34.27988159601415L260.7171848958333,34.391893436412715L260.72203229166666,35.37770409277147L260.93854930555557,34.826808683494306L261.2746354166667,33.888502815144875L261.42975208333337,34.039652533630374L261.49923142361115,33.06943728026738L261.6220321180556,33.63436855224063L262.47840538194447,33.92155669701654L262.7805597222222,34.622526027314876L262.91305520833333,34.147148424583406L263.01808211805553,31.396183582125076L263.3767894097222,32.5709402239126L263.4317265625,31.30509620152131L263.5205954861111,31.382711581369165L263.5367534722222,31.89506542323224L263.7807390625,31.249933880908998L264.7211338541667,32.66056549281811L264.8617083333333,33.37700894353628L265.1153887152778,33.689933049182656L265.2818159722222,33.41843974426439L265.63567586805556,33.94847076983797L265.77301875,34.97862369285417L266.8022824652778,35.795136323568755L266.96870972222223,36.52999769121189L266.97032552083334,34.75762292209072L267.1965373263889,33.49436062988164L267.78145642361113,34.56992456689346L267.9527310763889,31.55543211020415L268.0141314236111,32.60363889918372L268.85434670138886,33.10452500926536L268.9028206597222,33.66594750833883L268.92382604166664,33.28622775750492L269.0191581597222,32.61260498175443L269.1435746527778,29.793844483579022L269.9498581597222,30.907585035221132L270.09851163194446,31.024951531698974L270.14052239583333,31.573081378529082L270.54770364583334,33.17264824067621L270.8611685763889,32.178508416608565L270.9241847222222,32.94315757494772L271.0356748263889,34.18446681745294L271.27642881944445,33.75289513570763L272.0439331597222,34.1388556221369L272.5254411458333,35.14997005992319L272.61107847222223,35.83872305393086L272.6692472222222,34.13547574853774L272.7758899305556,34.593803173683995L273.2848664930555,35.89129785631559L273.31395086805554,36.284668070684006L274.06691302083334,37.08120126361564L274.10407638888887,36.91308113725404L274.1929453125,38.42114802352867L274.2672720486111,38.45090822117578L274.33028819444445,38.47769239905821L274.47409427083335,38.39117315915237L275.3240043402778,38.75580584323714L275.39025208333334,38.420225258913405L275.4968947916667,36.01632773302208L276.0785822916667,34.184694959719906L276.097971875,33.3106004637479L276.22561996527776,34.07266541737309L276.3144888888889,34.31602387563581L276.95272934027776,33.31817148807221L277.4503953125,34.19010433926496L277.51664305555556,34.974843905338474L277.55057482638887,35.23860951480464L277.8058710069444,36.25037356332419L277.9399822916667,36.054711206991755L278.44734305555556,36.210490086292594L279.0564991319444,37.01444107766332L279.4976121527778,38.401746969896976L279.4992279513889,37.216572272907285L279.50084375,37.14554004561657L279.5024595486111,36.41786104105489L279.5040753472222,35.54169993694941L279.50569114583334,35.63815494325445L279.50730694444445,33.18058944892903L279.50892274305556,33.84503050403612L279.5105385416667,33.226152453632494L279.5153859375,34.21791220826927L279.5170017361111,34.55737098744234L279.52184913194446,31.654758888698126L279.5234649305556,33.68865799982828L279.52508072916663,33.306667199845464L279.5266965277778,32.85225047986094L279.5283123263889,32.11140043187484L279.52992812499997,32.66151038868736L279.53315972222225,33.156609349818666L279.5347755208333,33.9340734148368L279.5363913194444,33.195666073353124L279.5380071180556,34.8542244660178L279.53962291666664,35.35130201941601L279.54123871527776,37.23679681747441L279.54285451388887,35.172492135727" style="fill: none;" fill="none"></path></g></g></g></g><g opacity="0.2"><g><g><g><path stroke="rgb(255, 112, 67)" stroke-width="2px" d="M33.39209409722222,140.49375L33.5197421875,136.06875L33.54074756944445,127.21875L33.56660034722223,138.28125L33.6360796875,136.06875L34.62818003472223,141.6L34.69281197916667,133.85625L34.71866475694445,136.06875L34.720280555555554,133.85625L34.79783888888889,136.06875L35.03051388888889,133.85625L35.11453541666667,131.64375L35.20017274305555,136.06875L35.3666,129.43125L35.40537916666667,128.325L35.81094461805556,141.6L36.172883506944444,130.5375L36.617228125000004,126.11250000000001L36.827281944444444,129.43125L36.84828732638889,132.75L37.03733576388889,131.64375L37.55439131944444,134.9625L37.58993888888889,132.75L38.21525295138889,129.43125L38.4059171875,132.75L38.59334982638889,123.9L38.91650954861112,127.21875L39.04092604166667,130.5375L39.05869982638889,125.00625L39.70501927083333,126.11250000000001L40.00394201388889,139.3875L40.01363680555556,134.9625L40.230153819444446,131.64375L40.29963315972222,133.85625L40.59855590277778,130.5375L40.68419322916667,127.21875L41.20124878472222,126.11250000000001L41.62943541666667,131.64375L41.708609548611115,131.64375L41.83625763888889,133.85625L41.93320555555555,127.21875L42.46480329861111,130.5375L42.619919965277774,128.325L42.71525208333333,120.58125000000001L43.13051232638889,123.9L43.21776545138889,128.325L43.22746024305555,127.21875L43.308250173611114,130.5375L43.42458767361111,131.64375L43.55061996527778,123.9L43.56839375,127.21875L44.116149479166666,117.26249999999999L44.300350520833334,117.26249999999999L44.41507222222222,121.6875L44.723689756944445,129.43125L45.087244444444444,120.58125000000001L45.25205590277778,112.8375L45.37647239583333,117.26249999999999L45.75941666666667,118.36875L46.07126579861111,117.26249999999999L46.23284565972222,113.94375L46.749901215277774,115.05000000000001L46.82099635416667,115.05000000000001L47.090834722222226,106.2L47.142540277777776,109.51875L47.17808784722222,110.625L47.347746701388886,112.8375L47.76623854166667,110.625L47.85349166666667,111.73125L48.21219895833334,111.73125L48.23158854166667,113.94375L48.82297083333333,115.05000000000001L49.11381458333333,112.8375L49.3998109375,111.73125L49.619559548611115,110.625L49.818302777777774,113.94375L50.00411961805556,109.51875L50.432306249999996,113.94375L50.635896875,108.4125L50.91866163194444,111.73125L51.102862673611114,108.4125L51.70717135416666,112.8375L52.43104913194445,108.4125L52.53122864583334,108.4125L52.58293420138889,111.73125L52.63302395833333,109.51875L52.67341892361111,109.51875L52.962646875000004,110.625L53.331048958333334,110.625L53.40860729166667,112.8375L53.41183888888889,110.625L54.2278171875,111.73125L54.24397517361111,116.15625L54.473418576388895,107.30625L54.59460347222222,109.51875L55.17629097222222,110.625L56.09083298611111,112.8375L56.09406458333333,109.51875L56.4382296875,115.05000000000001L56.6418203125,111.73125L56.73553663194445,113.94375L56.97790642361111,113.94375L57.0199171875,112.8375L57.407708854166664,110.625L57.79226892361111,113.94375L57.81489010416667,112.8375L57.8197375,113.94375L58.22853454861111,113.94375L58.375572222222225,111.73125L58.41435138888889,109.51875L58.63086840277778,111.73125L58.84253802083334,113.94375L59.28041944444444,113.94375L59.41776232638889,110.625L59.63589513888889,103.9875L59.95259166666667,113.94375L60.02691840277778,110.625L60.303219965277776,112.8375L60.43571545138889,108.4125L60.96408159722222,106.2L61.088498090277774,112.8375L61.15474583333333,111.73125L61.549000694444445,119.475L61.654027604166664,105.09375L61.9351765625,110.625L61.961029340277776,112.8375L62.591190798611116,109.51875L62.62350677083333,112.8375L63.05654079861111,112.8375L63.13733072916666,109.51875L63.5057328125,108.4125L63.5929859375,111.73125L63.65277048611111,113.94375L64.17952083333334,108.4125L64.3200953125,108.4125L64.79837170138889,107.30625L64.7999875,109.51875L65.06982586805556,111.73125L66.07323680555555,110.625L66.10393697916666,109.51875L66.57090277777777,110.625L66.83427795138888,110.625L66.89729409722223,111.73125L67.01201579861112,108.4125L67.09280572916667,102.88125L67.60016649305555,103.9875L67.83122569444444,100.66875L68.23840694444445,108.4125L68.50016631944445,110.625L68.52763489583333,107.30625L68.5373296875,109.51875L69.03661145833334,107.30625L69.49065086805555,103.9875L69.50196145833333,112.8375L69.66030972222222,109.51875L69.94307447916667,100.66875L70.035175,99.5625L70.14504930555556,107.30625L70.48113541666667,96.24375L70.52960937499999,96.24375L71.15330763888889,96.24375L71.17269722222223,107.30625L71.47646736111112,100.66875L71.61219444444444,107.30625L71.75276892361111,102.88125L71.83840625,109.51875L71.8820328125,107.30625L72.2875982638889,100.66875L72.48795729166666,107.30625L72.75133246527778,108.4125L73.40249930555555,106.2L73.48652083333333,103.9875L73.93409704861112,103.9875L73.9470234375,94.03125L74.36066788194445,105.09375L74.37197847222222,105.09375L74.47377378472223,101.775L74.81955468749999,103.9875L75.08616145833334,94.03125L75.22188854166666,106.2L75.70178072916666,99.5625L75.91829774305556,106.2L75.92960833333333,103.9875L76.22206788194444,102.88125L76.85222934027779,97.35L76.95240885416666,98.45625L77.30465295138889,98.45625L77.50339618055555,97.35L77.81039791666667,108.4125L77.85564027777777,100.66875L78.45833315972223,105.09375L78.48741753472223,98.45625L78.70878194444444,99.5625L79.01093628472223,99.5625L79.10465260416667,106.2L79.1515107638889,92.925L79.43750711805556,101.775L79.55869201388889,90.7125L80.28095399305555,102.88125L80.88687847222222,102.88125L80.9434314236111,102.88125L81.31506510416668,95.1375L82.13589079861111,97.35L82.279696875,99.5625L82.35563940972222,107.30625L82.62386197916668,87.39375L82.63678836805555,96.24375L82.64001996527777,100.66875L82.64486736111111,96.24375L82.76282065972222,89.60625L82.99711145833334,105.09375L83.06659079861112,100.66875L84.1265546875,96.24375L84.31721892361112,98.45625L84.44325121527777,97.35L84.8245796875,103.9875L85.44989375,97.35L85.83930121527779,89.60625L86.03319704861111,97.35L86.0752078125,89.60625L86.11237118055556,97.35L86.25617725694445,95.1375L86.51793663194445,97.35L86.57610538194444,100.66875L87.01721840277779,86.28750000000001L87.3678467013889,90.7125L87.55689513888889,90.7125L87.72655399305556,97.35L88.02709253472221,89.60625L88.1094982638889,86.28750000000001L88.40680520833334,89.60625L88.94971354166667,90.7125L89.50877986111111,89.60625L89.76084444444444,87.39375L89.90303472222222,89.60625L90.18095208333332,81.8625L90.26982100694444,80.75625000000001L90.27143680555555,84.075L90.59136493055556,85.18124999999999L91.09710989583333,88.5L91.32009010416667,82.96875L91.34755868055557,79.64999999999999L91.45904878472223,84.075L91.79028749999999,81.8625L91.95509895833332,85.18124999999999L92.12314201388888,80.75625000000001L92.15545798611112,81.8625L92.70159791666666,85.18124999999999L93.27035902777779,81.8625L93.35761215277778,73.0125L93.48687604166668,76.33125L93.51434461805556,82.96875L93.7841829861111,84.075L93.8698203125,85.18124999999999L93.90375208333334,82.96875L93.95061024305556,80.75625000000001L94.29154375,79.64999999999999L94.91847361111111,80.75625000000001L94.99280034722223,80.75625000000001L95.25455972222221,80.75625000000001L95.32888645833333,75.22500000000001L95.629425,77.4375L95.78938906249999,79.64999999999999L95.88795277777777,76.33125L96.50357204861112,76.33125L96.69262048611111,69.69375000000001L96.80249479166666,81.8625L96.96245885416666,75.22500000000001L97.06263836805556,76.33125L97.49890399305556,80.75625000000001L97.50213559027777,76.33125L97.58130972222222,79.64999999999999L97.99172256944445,78.54375L98.36820364583333,78.54375L98.59118385416667,79.64999999999999L98.77861649305555,74.11874999999999L98.82224305555556,68.58749999999999L98.98543871527778,76.33125L99.38454097222223,73.0125L99.91290711805556,74.11874999999999L100.08902916666668,75.22500000000001L100.42673107638889,76.33125L100.52529479166667,77.4375L100.602853125,76.33125L100.92762864583332,70.8L101.05689253472222,77.4375L101.37035746527778,70.8L101.98112934027777,68.58749999999999L102.80195503472223,75.22500000000001L102.88112916666667,67.48125L103.65348090277777,71.90625L103.70195486111112,74.11874999999999L103.73265503472221,71.90625L103.82475555555556,71.90625L103.95563524305555,74.11874999999999L104.0622779513889,67.48125L104.54701753472223,74.11874999999999L105.01883072916667,77.4375L105.34683784722222,76.33125L105.53750208333334,66.375L105.96568871527778,71.90625L106.26299565972224,76.33125L106.62816614583333,76.33125L106.79136180555555,71.90625L106.99495243055556,73.0125L107.0305,77.4375L107.04181059027779,77.4375L107.45707083333333,71.90625L107.47646041666667,65.26875L108.11146927083333,71.90625L108.25042795138889,75.22500000000001L108.30374930555554,77.4375L108.41685520833335,73.0125L108.63983541666667,74.11874999999999L108.69154097222221,61.95L108.98723211805556,65.26875L109.08902743055556,73.0125L109.8064420138889,67.48125L109.83391059027778,69.69375000000001L109.90823732638889,65.26875L109.9227795138889,68.58749999999999L110.32026597222222,59.7375L110.41398229166667,65.26875L110.65796788194444,63.05624999999999L110.70482604166666,75.22500000000001L110.70805763888889,64.16250000000001L111.29620833333333,76.33125L111.39638784722223,69.69375000000001L111.57897309027777,69.69375000000001L111.60159427083333,64.16250000000001L111.9473751736111,63.05624999999999L112.0055439236111,68.58749999999999L112.34324583333333,71.90625L112.44342534722223,70.8L113.0089548611111,66.375L113.17538211805557,76.33125L113.89764409722223,66.375L114.42924184027778,71.90625L114.48741059027778,71.90625L114.87681805555555,71.90625L114.89297604166667,67.48125L115.43103697916666,66.375L115.59100104166667,71.90625L115.60069583333335,67.48125L116.02565086805555,67.48125L116.41667413194443,64.16250000000001L116.50069565972221,69.69375000000001L117.35545312500001,68.58749999999999L117.36030052083333,65.26875L117.59782291666666,64.16250000000001L117.89189826388889,64.16250000000001L118.10518368055556,64.16250000000001L118.12134166666667,70.8L118.67556059027778,67.48125L118.83875625,68.58749999999999L119.0585048611111,66.375L119.08112604166666,61.95L119.08597343749999,70.8L119.19907934027778,61.95L119.45599131944444,66.375L119.7710720486111,65.26875L119.80338802083332,64.16250000000001L120.3527595486111,73.0125L120.71793003472222,64.16250000000001L120.75024600694445,65.26875L120.75994079861111,64.16250000000001L122.16730138888889,68.58749999999999L122.52277708333334,64.16250000000001L122.55509305555556,64.16250000000001L122.5599404513889,70.8L122.5744826388889,61.95L122.73121510416667,56.41875L123.18687031249999,63.05624999999999L123.54073020833334,65.26875L123.61505694444445,63.05624999999999L123.78633159722222,61.95L124.09656493055556,65.26875L124.28561336805555,67.48125L124.31146614583334,59.7375L124.44073003472224,68.58749999999999L124.46173541666667,60.84375L124.47789340277777,63.05624999999999L125.07897048611112,65.26875L125.09997586805555,63.05624999999999L125.42798298611112,65.26875L125.81415885416666,66.375L125.82546944444445,54.20625L126.27142986111112,60.84375L126.62205815972222,64.16250000000001L126.84503836805555,64.16250000000001L127.10679774305557,61.95L127.7838173611111,59.7375L128.11020868055556,66.375L128.12475086805557,58.63125000000001L128.21038819444445,64.16250000000001L128.48668975694446,59.7375L128.54485850694445,63.05624999999999L128.9875873263889,63.05624999999999L129.59189600694444,59.7375L129.65006475694446,55.3125L129.65491215277777,61.95L129.8778923611111,57.52499999999999L129.97160868055556,68.58749999999999L130.06855659722223,56.41875L130.30123159722223,60.84375L130.48220104166666,64.16250000000001L130.50643802083334,63.05624999999999L131.21900520833333,64.16250000000001L131.37089027777776,59.7375L131.5340859375,57.52499999999999L131.58417569444444,61.95L131.6100284722222,63.05624999999999L131.74898715277777,64.16250000000001L131.77322413194443,66.375L132.1464736111111,54.20625L132.2951270833333,45.35624999999999L132.8444986111111,59.7375L133.0901,60.84375L133.32923819444446,63.05624999999999L133.37124895833333,57.52499999999999L133.48920225694445,61.95L133.5990765625,64.16250000000001L133.9755576388889,64.16250000000001L134.1387532986111,45.35624999999999L134.34719131944445,58.63125000000001L134.81415711805556,43.14375000000001L134.8658626736111,55.3125L135.1389326388889,63.05624999999999L135.15024322916668,58.63125000000001L135.3716076388889,56.41875L135.7383939236111,60.84375L135.9839953125,57.52499999999999L136.04377986111112,56.41875L136.93570069444445,54.20625L137.2523972222222,60.84375L137.55293576388888,56.41875L137.59009913194444,58.63125000000001L137.81469513888888,57.52499999999999L138.02636475694445,56.41875L138.58058368055555,53.10000000000001L138.63552083333335,60.84375L139.0216967013889,57.52499999999999L139.06532326388887,55.3125L139.64539496527777,49.78125L140.16083472222223,57.52499999999999L140.273940625,56.41875L140.71666944444445,56.41875L140.739290625,63.05624999999999L140.93803385416666,53.10000000000001L141.1448560763889,50.8875L141.25634618055554,55.3125L141.62313246527776,54.20625L141.8622706597222,58.63125000000001L142.01415572916667,54.20625L142.21451475694442,58.63125000000001L142.24036753472222,55.3125L142.60876961805556,51.99374999999999L142.61846440972224,55.3125L142.75580729166666,55.3125L142.79297065972222,60.84375L142.90284496527778,58.63125000000001L143.5152326388889,61.95L144.0565251736111,53.10000000000001L144.47178541666668,57.52499999999999L144.49763819444445,57.52499999999999L144.63174947916667,51.99374999999999L145.14234184027777,47.568749999999994L145.35401145833333,57.52499999999999L145.41864340277778,55.3125L145.63192881944443,56.41875L145.89530399305556,49.78125L146.11020520833333,38.71875L146.2233111111111,58.63125000000001L146.43659652777777,51.99374999999999L146.4834546875,63.05624999999999L146.76945104166668,57.52499999999999L147.1249267361111,54.20625L147.33336475694443,48.67500000000001L147.48848142361112,51.99374999999999L147.78578836805553,42.037499999999994L148.0572425347222,54.20625L148.31738611111112,57.52499999999999L148.32384930555554,57.52499999999999L148.48219756944445,42.037499999999994L148.60015086805555,43.14375000000001L148.69871458333333,50.8875L149.27393888888886,53.10000000000001L149.3062548611111,49.78125L149.44359774305556,48.67500000000001L149.61002499999998,48.67500000000001L149.8879423611111,63.05624999999999L150.27088663194445,50.8875L150.32905538194444,49.78125L150.93982725694443,54.20625L151.33408211805553,55.3125L151.79458472222223,55.3125L151.88183784722222,63.05624999999999L152.09350746527775,50.8875L152.36819322916668,38.71875L152.47806753472221,42.037499999999994L152.54269947916666,55.3125L153.1453923611111,44.25L153.17770833333333,58.63125000000001L153.29081423611112,43.14375000000001L153.44431510416666,54.20625L153.4507782986111,53.10000000000001L153.56388420138887,51.99374999999999L153.9581390625,48.67500000000001L154.4509576388889,50.8875L155.0342609375,45.35624999999999L155.05849791666668,45.35624999999999L155.53515850694444,48.67500000000001L155.78560729166665,44.25L156.28004166666668,57.52499999999999L156.41576874999998,51.99374999999999L156.7631654513889,47.568749999999994L156.77124444444442,51.99374999999999L156.92959270833333,59.7375L156.94413489583332,53.10000000000001L157.5225907986111,40.931250000000006L157.5920701388889,53.10000000000001L158.17860503472224,57.52499999999999L158.829771875,45.35624999999999L158.86531944444445,53.10000000000001L159.33066944444445,56.41875L159.44539114583333,49.78125L159.51648628472222,27.65625L160.03192604166668,50.8875L160.07555260416666,44.25L160.23228506944443,39.82499999999999L160.67016649305555,49.78125L160.8979940972222,53.10000000000001L161.06926875,30.974999999999994L161.28255416666667,51.99374999999999L161.6638826388889,53.10000000000001L161.67034583333333,46.462500000000006L162.1874013888889,49.78125L162.53479809027777,53.10000000000001L162.58811944444443,50.8875L162.6947621527778,49.78125L162.80302065972222,55.3125L163.26675486111114,47.568749999999994L163.28614444444446,54.20625L164.11989652777777,55.3125L164.3994296875,48.67500000000001L164.49153020833333,37.61250000000001L164.50607239583334,53.10000000000001L164.68381024305555,48.67500000000001L164.97626979166668,37.61250000000001L165.08937569444444,43.14375000000001L165.12007586805558,49.78125L165.27842413194443,32.08125000000001L166.07178125,54.20625L166.13318159722223,46.462500000000006L166.4450307291667,57.52499999999999L166.51935746527778,49.78125L166.5403628472222,51.99374999999999L166.93623350694443,44.25L167.19476128472223,24.337500000000006L167.76352239583332,47.568749999999994L168.01720277777778,44.25L168.20625121527777,50.8875L168.4001470486111,27.65625L168.5423373263889,42.037499999999994L168.93174479166666,37.61250000000001L169.23874652777778,48.67500000000001L169.33407864583336,51.99374999999999L169.45041614583334,56.41875L169.99494027777777,42.037499999999994L170.01432986111112,50.8875L170.11935677083332,37.61250000000001L170.405353125,46.462500000000006L170.68811788194444,47.568749999999994L170.99188802083333,27.65625L171.09368333333336,51.99374999999999L171.25526319444444,43.14375000000001L171.8482612847222,50.8875L172.24897934027777,28.76249999999999L172.26028993055556,49.78125L172.3426956597222,47.568749999999994L172.70948194444446,45.35624999999999L172.9680097222222,42.037499999999994L173.2249217013889,45.35624999999999L173.2733956597222,56.41875L173.50283906250002,55.3125L174.15562170138887,43.14375000000001L174.17016388888888,51.99374999999999L174.93928402777777,51.99374999999999L175.1040954861111,49.78125L175.97985833333334,49.78125L176.0897326388889,49.78125L176.24646510416667,43.14375000000001L176.80068402777778,38.71875L176.85562118055557,44.25L176.87662656249998,39.82499999999999L176.9654954861111,50.8875L178.02061197916666,48.67500000000001L178.20804461805554,44.25L178.3049925347222,51.99374999999999L178.72186857638889,24.337500000000006L178.72833177083334,51.99374999999999L179.04825989583335,47.568749999999994L179.8707013888889,49.78125L180.1534661458333,49.78125L180.28273003472222,45.35624999999999L180.36190416666665,37.61250000000001L180.52025243055556,63.05624999999999L180.643053125,45.35624999999999L181.04377118055555,44.25L181.1778824652778,42.037499999999994L181.77088055555555,36.506249999999994L181.9970923611111,45.35624999999999L182.32348368055554,36.506249999999994L182.4802161458333,38.71875L182.71773854166665,32.08125000000001L182.91325017361112,51.99374999999999L183.15723576388888,42.037499999999994L183.5110956597222,36.506249999999994L184.34969513888888,11.0625L184.55974895833333,47.568749999999994L184.62438090277777,34.29374999999999L184.77788177083332,43.14375000000001L184.9604670138889,45.35624999999999L185.23515277777776,50.8875L185.71342916666666,55.3125L185.98973072916667,47.568749999999994L186.05759427083333,40.931250000000006L186.29673246527778,37.61250000000001L186.40660677083335,49.78125L186.5956552083333,49.78125L186.86064618055556,54.20625L186.89619374999998,40.931250000000006L187.06262100694445,29.868750000000006L187.34538576388888,51.99374999999999L187.74771961805556,47.568749999999994L187.9157626736111,53.10000000000001L188.2890121527778,50.8875L188.41827604166667,50.8875L188.44089722222222,50.8875L188.53461354166666,47.568749999999994L189.0500532986111,44.25L189.24394913194445,46.462500000000006L189.52025069444443,54.20625L189.99529548611113,32.08125000000001L190.19080711805555,57.52499999999999L190.2118125,47.568749999999994L190.33299739583333,51.99374999999999L190.80319479166667,42.037499999999994L191.3622611111111,53.10000000000001L191.86639027777778,44.25L192.00858055555554,38.71875L192.07805989583332,51.99374999999999L192.3947564236111,38.71875L192.45454097222222,47.568749999999994L192.89888559027779,45.35624999999999L193.03461267361112,39.82499999999999L193.3949357638889,43.14375000000001L193.49673107638887,49.78125L193.80211701388887,54.20625L193.8069644097222,55.3125L194.00732343750002,53.10000000000001L194.3078619791667,53.10000000000001L194.49852621527776,49.78125L194.9800342013889,44.25L195.10768229166666,59.7375L195.30480972222222,50.8875L195.4890107638889,48.67500000000001L196.20642534722225,50.8875L196.2807520833333,37.61250000000001L196.84304999999998,43.14375000000001L196.9319189236111,46.462500000000006L197.28739461805554,50.8875L197.38757413194446,49.78125L197.48775364583335,39.82499999999999L198.01611979166665,44.25L198.63820225694445,49.78125L199.00660434027776,49.78125L199.1374840277778,36.506249999999994L199.2990638888889,49.78125L199.54466527777777,44.25L200.09403680555556,50.8875L200.28793263888886,48.67500000000001L200.30893802083332,43.14375000000001L200.9148625,32.08125000000001L201.060284375,37.61250000000001L201.29619097222223,50.8875L201.48039201388892,36.506249999999994L201.59188211805557,44.25L201.92635243055557,45.35624999999999L202.02168454861112,46.462500000000006L202.07500590277778,48.67500000000001L202.24951215277775,54.20625L202.76172031250002,30.974999999999994L203.03479027777777,47.568749999999994L203.39188177083335,45.35624999999999L203.46620850694447,28.76249999999999L203.60839878472223,47.568749999999994L204.11737534722224,54.20625L204.34843454861112,37.61250000000001L204.84448472222223,49.78125L205.4180932291667,40.931250000000006L205.42294062500002,50.8875L205.44556180555554,40.931250000000006L205.68308420138888,49.78125L206.36656701388887,32.08125000000001L206.3972671875,46.462500000000006L206.7171953125,49.78125L207.33604618055557,25.443749999999994L207.40552552083332,25.443749999999994L207.4313782986111,37.61250000000001L207.47985225694444,46.462500000000006L207.95328125,36.506249999999994L207.9694392361111,54.20625L208.622221875,40.931250000000006L209.2459201388889,42.037499999999994L209.30085729166666,24.337500000000006L209.6514855902778,37.61250000000001L209.7241965277778,49.78125L210.0925986111111,49.78125L210.29780503472224,46.462500000000006L210.66943871527778,24.337500000000006L211.01037222222223,49.78125L211.1784152777778,38.71875L211.42401666666666,36.506249999999994L211.43532725694445,38.71875L212.05094652777777,38.71875L212.1252732638889,53.10000000000001L212.2399949652778,51.99374999999999L212.54053350694446,43.14375000000001L212.8265298611111,44.25L213.11414201388888,38.71875L213.59726579861112,36.506249999999994L214.14340572916666,39.82499999999999L214.45363906249997,29.868750000000006L214.4956498263889,47.568749999999994L214.56997656250002,47.568749999999994L214.9302996527778,37.61250000000001L215.76405173611113,38.71875L216.01773211805556,51.99374999999999L216.04520069444445,55.3125L216.14538020833334,45.35624999999999L216.21970694444445,49.78125L216.28110729166667,43.14375000000001L216.4863137152778,39.82499999999999L216.66566736111113,37.61250000000001L216.93550572916666,37.61250000000001L217.72886284722222,48.67500000000001L218.04232777777776,37.61250000000001L218.18128645833332,32.08125000000001L218.21360243055557,39.82499999999999L218.95848559027777,47.568749999999994L219.72437413194444,33.1875L219.8051640625,38.71875L219.96835972222223,34.29374999999999L220.06369184027778,47.568749999999994L220.18164513888888,50.8875L220.2672824652778,35.400000000000006L220.33676180555557,38.71875L220.4579467013889,36.506249999999994L221.10588194444446,25.443749999999994L222.17230902777777,38.71875L222.19654600694446,50.8875L222.29187812499998,46.462500000000006L222.3080361111111,55.3125L222.44537899305556,43.14375000000001L223.1918779513889,38.71875L223.74771267361112,48.67500000000001L223.9771560763889,29.868750000000006L224.066025,44.25L224.25992083333333,45.35624999999999L224.2712314236111,37.61250000000001L224.385953125,38.71875L224.42311649305557,49.78125L224.9983407986111,38.71875L225.26494756944444,36.506249999999994L225.6640498263889,47.568749999999994L226.0179097222222,53.10000000000001L226.24412152777776,44.25L226.26512690972223,19.912499999999994L226.35561163194444,50.8875L226.48487552083333,47.568749999999994L226.7692560763889,51.99374999999999L227.28308003472225,40.931250000000006L227.85022534722222,44.25L228.14268489583333,55.3125L228.25740659722223,45.35624999999999L228.37859149305555,36.506249999999994L228.48038680555555,54.20625L228.6193454861111,42.037499999999994L229.06530590277777,49.78125L229.39331302083332,27.65625L230.22868090277777,38.71875L230.36602378472222,49.78125L230.42257673611113,37.61250000000001L230.57769340277778,50.8875L230.80713680555556,45.35624999999999L231.60210972222222,36.506249999999994L231.91880625,37.61250000000001L232.36638246527778,50.8875L232.41000902777776,50.8875L232.6766157986111,35.400000000000006L233.45543072916666,40.931250000000006L233.5620734375,24.337500000000006L234.0726657986111,30.974999999999994L234.23909305555554,53.10000000000001L234.3182671875,49.78125L234.34088836805557,49.78125L234.4039045138889,44.25L234.80300677083335,45.35624999999999L234.90157048611113,36.506249999999994L235.26674097222224,49.78125L235.48487378472223,51.99374999999999L235.69977500000002,56.41875L236.14573541666664,37.61250000000001L236.1812829861111,37.61250000000001L236.36386822916666,43.14375000000001L237.16045694444446,33.1875L237.2977998263889,32.08125000000001L237.52239583333332,48.67500000000001L237.56602239583333,40.931250000000006L237.6936704861111,37.61250000000001L237.85363454861113,39.82499999999999L238.20911024305556,37.61250000000001L238.87320347222223,38.71875L238.96853559027778,21.01875000000001L239.44034878472223,39.82499999999999L239.45973836805555,44.25L239.5259861111111,26.55000000000001L239.91054618055557,14.381249999999994L239.94609375,19.912499999999994L240.13998958333332,42.037499999999994L240.4825388888889,43.14375000000001L240.8202407986111,40.931250000000006L240.95435208333333,36.506249999999994L241.01736822916666,37.61250000000001L241.35991753472223,36.506249999999994L241.46817604166668,28.76249999999999L241.6297559027778,37.61250000000001L241.7331670138889,48.67500000000001L242.1678168402778,36.506249999999994L242.64609322916667,27.65625L242.71395677083333,15.487500000000011L243.13568020833333,43.14375000000001L243.30695486111114,29.868750000000006L243.51377708333334,49.78125L244.42024010416668,44.25L244.95830104166666,50.8875L245.27499756944442,44.25L245.34770850694443,40.931250000000006L245.9067748263889,43.14375000000001L246.0392703125,42.037499999999994L246.14752881944443,45.35624999999999L246.54663107638888,37.61250000000001L246.74214270833335,39.82499999999999L246.9004909722222,39.82499999999999L247.1121605902778,43.14375000000001L247.20102951388887,43.14375000000001L247.97014965277776,39.82499999999999L247.99600243055556,50.8875L248.10749253472224,30.974999999999994L248.2222142361111,38.71875L248.39672048611112,36.506249999999994L248.4985157986111,38.71875L248.9186234375,45.35624999999999L249.0042607638889,24.337500000000006L249.1771512152778,46.462500000000006L249.34519427083333,44.25L249.8477076388889,45.35624999999999L250.1821779513889,37.61250000000001L250.23065190972224,45.35624999999999L250.92382951388888,19.912499999999994L251.03047222222224,26.55000000000001L251.15812031250002,53.10000000000001L251.6073123263889,36.506249999999994L252.13891006944445,24.337500000000006L252.18576822916665,27.65625L252.40390104166667,24.337500000000006L252.4200590277778,35.400000000000006L252.481459375,25.443749999999994L253.47679131944443,16.59375L254.08110000000002,44.25L254.51251822916666,42.037499999999994L254.5900765625,44.25L255.1846904513889,49.78125L255.33657552083335,12.168749999999989L255.7873833333333,43.14375000000001L255.8859470486111,44.25L255.96512118055554,3.3187499999999943L256.4094657986111,28.76249999999999L256.71323593750003,22.125L256.73424131944444,42.037499999999994L256.7568625,36.506249999999994L257.0541694444444,39.82499999999999L257.2416020833333,50.8875L257.6471675347222,33.1875L257.7053362847222,36.506249999999994L258.17230208333336,38.71875L258.64249947916664,4.425000000000011L258.7329842013889,47.568749999999994L258.7588369791667,43.14375000000001L258.91880104166665,37.61250000000001L259.5182623263889,37.61250000000001L259.6119786458333,24.337500000000006L259.64106302083337,29.868750000000006L259.95937534722225,34.29374999999999L260.4408833333333,37.61250000000001L260.7171848958333,35.400000000000006L260.72203229166666,44.25L260.93854930555557,29.868750000000006L261.2746354166667,25.443749999999994L261.42975208333337,35.400000000000006L261.49923142361115,24.337500000000006L261.6220321180556,38.71875L262.47840538194447,36.506249999999994L262.7805597222222,40.931250000000006L262.91305520833333,29.868750000000006L263.01808211805553,6.637499999999989L263.3767894097222,43.14375000000001L263.4317265625,19.912499999999994L263.5205954861111,32.08125000000001L263.5367534722222,36.506249999999994L263.7807390625,25.443749999999994L264.7211338541667,45.35624999999999L264.8617083333333,39.82499999999999L265.1153887152778,36.506249999999994L265.2818159722222,30.974999999999994L265.63567586805556,38.71875L265.77301875,44.25L266.8022824652778,43.14375000000001L266.96870972222223,43.14375000000001L266.97032552083334,18.806250000000006L267.1965373263889,22.125L267.78145642361113,44.25L267.9527310763889,4.425000000000011L268.0141314236111,42.037499999999994L268.85434670138886,37.61250000000001L268.9028206597222,38.71875L268.92382604166664,29.868750000000006L269.0191581597222,26.55000000000001L269.1435746527778,4.425000000000011L269.9498581597222,40.931250000000006L270.09851163194446,32.08125000000001L270.14052239583333,36.506249999999994L270.54770364583334,47.568749999999994L270.8611685763889,23.23124999999999L270.9241847222222,39.82499999999999L271.0356748263889,45.35624999999999L271.27642881944445,29.868750000000006L272.0439331597222,37.61250000000001L272.5254411458333,44.25L272.61107847222223,42.037499999999994L272.6692472222222,18.806250000000006L272.7758899305556,38.71875L273.2848664930555,47.568749999999994L273.31395086805554,39.82499999999999L274.06691302083334,44.25L274.10407638888887,35.400000000000006L274.1929453125,51.99374999999999L274.2672720486111,38.71875L274.33028819444445,38.71875L274.47409427083335,37.61250000000001L275.3240043402778,42.037499999999994L275.39025208333334,35.400000000000006L275.4968947916667,14.381249999999994L276.0785822916667,17.69999999999999L276.097971875,25.443749999999994L276.22561996527776,40.931250000000006L276.3144888888889,36.506249999999994L276.95272934027776,24.337500000000006L277.4503953125,42.037499999999994L277.51664305555556,42.037499999999994L277.55057482638887,37.61250000000001L277.8058710069444,45.35624999999999L277.9399822916667,34.29374999999999L278.44734305555556,37.61250000000001L279.0564991319444,44.25L279.4976121527778,50.8875L279.4992279513889,26.55000000000001L279.50084375,36.506249999999994L279.5024595486111,29.868750000000006L279.5040753472222,27.65625L279.50569114583334,36.506249999999994L279.50730694444445,11.0625L279.50892274305556,39.82499999999999L279.5105385416667,27.65625L279.5153859375,43.14375000000001L279.5170017361111,37.61250000000001L279.52184913194446,5.53125L279.5234649305556,51.99374999999999L279.52508072916663,29.868750000000006L279.5266965277778,28.76249999999999L279.5283123263889,25.443749999999994L279.52992812499997,37.61250000000001L279.53315972222225,37.61250000000001L279.5347755208333,40.931250000000006L279.5363913194444,26.55000000000001L279.5380071180556,49.78125L279.53962291666664,39.82499999999999L279.54123871527776,54.20625L279.54285451388887,16.59375" style="fill: none;" fill="none"></path></g></g></g></g></g></g><g transform="translate(39, 177)" clip-path="url(#clip_1)"><clipPath id="clip_1"><rect width="290" height="23"></rect></clipPath><g><g><line x1="0" y1="0" x2="0" y2="5" style="visibility: inherit;" fill="rgb(0, 0, 0)" stroke="rgb(204, 204, 204)" stroke-width="1px"></line><line x1="32.31597222222222" y1="0" x2="32.31597222222222" y2="5" style="visibility: inherit;" fill="rgb(0, 0, 0)" stroke="rgb(204, 204, 204)" stroke-width="1px"></line><line x1="64.63194444444444" y1="0" x2="64.63194444444444" y2="5" style="visibility: inherit;" fill="rgb(0, 0, 0)" stroke="rgb(204, 204, 204)" stroke-width="1px"></line><line x1="96.94791666666666" y1="0" x2="96.94791666666666" y2="5" style="visibility: inherit;" fill="rgb(0, 0, 0)" stroke="rgb(204, 204, 204)" stroke-width="1px"></line><line x1="129.26388888888889" y1="0" x2="129.26388888888889" y2="5" style="visibility: inherit;" fill="rgb(0, 0, 0)" stroke="rgb(204, 204, 204)" stroke-width="1px"></line><line x1="161.57986111111111" y1="0" x2="161.57986111111111" y2="5" style="visibility: inherit;" fill="rgb(0, 0, 0)" stroke="rgb(204, 204, 204)" stroke-width="1px"></line><line x1="193.89583333333331" y1="0" x2="193.89583333333331" y2="5" style="visibility: inherit;" fill="rgb(0, 0, 0)" stroke="rgb(204, 204, 204)" stroke-width="1px"></line><line x1="226.21180555555557" y1="0" x2="226.21180555555557" y2="5" style="visibility: inherit;" fill="rgb(0, 0, 0)" stroke="rgb(204, 204, 204)" stroke-width="1px"></line><line x1="258.52777777777777" y1="0" x2="258.52777777777777" y2="5" style="visibility: inherit;" fill="rgb(0, 0, 0)" stroke="rgb(204, 204, 204)" stroke-width="1px"></line><line x1="290.84375" y1="0" x2="290.84375" y2="5" style="visibility: inherit;" fill="rgb(0, 0, 0)" stroke="rgb(204, 204, 204)" stroke-width="1px"></line></g><g transform="translate(0, 8)"><text x="0" y="0" dx="0em" dy="0.95em" style="text-anchor: middle; visibility: hidden; font-family: &quot;Helvetica Neue&quot;, sans-serif; font-size: 12px; font-weight: 200;" fill="rgb(50, 49, 63)" stroke="none" stroke-width="1px">-20k</text><text x="32.31597222222222" y="0" dx="0em" dy="0.95em" style="text-anchor: middle; visibility: inherit; font-family: &quot;Helvetica Neue&quot;, sans-serif; font-size: 12px; font-weight: 200;" fill="rgb(50, 49, 63)" stroke="none" stroke-width="1px">0</text><text x="64.63194444444444" y="0" dx="0em" dy="0.95em" style="text-anchor: middle; visibility: inherit; font-family: &quot;Helvetica Neue&quot;, sans-serif; font-size: 12px; font-weight: 200;" fill="rgb(50, 49, 63)" stroke="none" stroke-width="1px">20k</text><text x="96.94791666666666" y="0" dx="0em" dy="0.95em" style="text-anchor: middle; visibility: inherit; font-family: &quot;Helvetica Neue&quot;, sans-serif; font-size: 12px; font-weight: 200;" fill="rgb(50, 49, 63)" stroke="none" stroke-width="1px">40k</text><text x="129.26388888888889" y="0" dx="0em" dy="0.95em" style="text-anchor: middle; visibility: inherit; font-family: &quot;Helvetica Neue&quot;, sans-serif; font-size: 12px; font-weight: 200;" fill="rgb(50, 49, 63)" stroke="none" stroke-width="1px">60k</text><text x="161.57986111111111" y="0" dx="0em" dy="0.95em" style="text-anchor: middle; visibility: inherit; font-family: &quot;Helvetica Neue&quot;, sans-serif; font-size: 12px; font-weight: 200;" fill="rgb(50, 49, 63)" stroke="none" stroke-width="1px">80k</text><text x="193.89583333333331" y="0" dx="0em" dy="0.95em" style="text-anchor: middle; visibility: inherit; font-family: &quot;Helvetica Neue&quot;, sans-serif; font-size: 12px; font-weight: 200;" fill="rgb(50, 49, 63)" stroke="none" stroke-width="1px">100k</text><text x="226.21180555555557" y="0" dx="0em" dy="0.95em" style="text-anchor: middle; visibility: inherit; font-family: &quot;Helvetica Neue&quot;, sans-serif; font-size: 12px; font-weight: 200;" fill="rgb(50, 49, 63)" stroke="none" stroke-width="1px">120k</text><text x="258.52777777777777" y="0" dx="0em" dy="0.95em" style="text-anchor: middle; visibility: inherit; font-family: &quot;Helvetica Neue&quot;, sans-serif; font-size: 12px; font-weight: 200;" fill="rgb(50, 49, 63)" stroke="none" stroke-width="1px">140k</text><text x="290.84375" y="0" dx="0em" dy="0.95em" style="text-anchor: middle; visibility: hidden; font-family: &quot;Helvetica Neue&quot;, sans-serif; font-size: 12px; font-weight: 200;" fill="rgb(50, 49, 63)" stroke="none" stroke-width="1px">160k</text></g><line x1="0" y1="0" x2="290.84375" y2="0" fill="rgb(0, 0, 0)" stroke="rgb(204, 204, 204)" stroke-width="1px"></line></g></g></g></g></svg>