<svg viewBox="0 0 330 200" xmlns="http://www.w3.org/2000/svg"><g><g><g><g><g><line x1="68.3125" y1="177" x2="63.3125" y2="177" style="visibility: inherit;" fill="rgb(0, 0, 0)" stroke="rgb(204, 204, 204)" stroke-width="1px"></line><line x1="68.3125" y1="159.3" x2="63.3125" y2="159.3" style="visibility: inherit;" fill="rgb(0, 0, 0)" stroke="rgb(204, 204, 204)" stroke-width="1px"></line><line x1="68.3125" y1="141.6" x2="63.3125" y2="141.6" style="visibility: inherit;" fill="rgb(0, 0, 0)" stroke="rgb(204, 204, 204)" stroke-width="1px"></line><line x1="68.3125" y1="123.9" x2="63.3125" y2="123.9" style="visibility: inherit;" fill="rgb(0, 0, 0)" stroke="rgb(204, 204, 204)" stroke-width="1px"></line><line x1="68.3125" y1="106.2" x2="63.3125" y2="106.2" style="visibility: inherit;" fill="rgb(0, 0, 0)" stroke="rgb(204, 204, 204)" stroke-width="1px"></line><line x1="68.3125" y1="88.5" x2="63.3125" y2="88.5" style="visibility: inherit;" fill="rgb(0, 0, 0)" stroke="rgb(204, 204, 204)" stroke-width="1px"></line><line x1="68.3125" y1="70.8" x2="63.3125" y2="70.8" style="visibility: inherit;" fill="rgb(0, 0, 0)" stroke="rgb(204, 204, 204)" stroke-width="1px"></line><line x1="68.3125" y1="53.10000000000001" x2="63.3125" y2="53.10000000000001" style="visibility: inherit;" fill="rgb(0, 0, 0)" stroke="rgb(204, 204, 204)" stroke-width="1px"></line><line x1="68.3125" y1="35.400000000000006" x2="63.3125" y2="35.400000000000006" style="visibility: inherit;" fill="rgb(0, 0, 0)" stroke="rgb(204, 204, 204)" stroke-width="1px"></line><line x1="68.3125" y1="17.69999999999999" x2="63.3125" y2="17.69999999999999" style="visibility: inherit;" fill="rgb(0, 0, 0)" stroke="rgb(204, 204, 204)" stroke-width="1px"></line><line x1="68.3125" y1="0" x2="63.3125" y2="0" style="visibility: inherit;" fill="rgb(0, 0, 0)" stroke="rgb(204, 204, 204)" stroke-width="1px"></line></g><g transform="translate(58.3125, 0)"><text x="0" y="177" dx="0em" dy="0.3em" style="text-anchor: end; visibility: hidden; font-family: &quot;Helvetica Neue&quot;, sans-serif; font-size: 12px; font-weight: 200;" fill="rgb(50, 49, 63)" stroke="none" stroke-width="1px">-2e+4</text><text x="0" y="159.3" dx="0em" dy="0.3em" style="text-anchor: end; visibility: inherit; font-family: &quot;Helvetica Neue&quot;, sans-serif; font-size: 12px; font-weight: 200;" fill="rgb(50, 49, 63)" stroke="none" stroke-width="1px">0</text><text x="0" y="141.6" dx="0em" dy="0.3em" style="text-anchor: end; visibility: hidden; font-family: &quot;Helvetica Neue&quot;, sans-serif; font-size: 12px; font-weight: 200;" fill="rgb(50, 49, 63)" stroke="none" stroke-width="1px">2e+4</text><text x="0" y="123.9" dx="0em" dy="0.3em" style="text-anchor: end; visibility: inherit; font-family: &quot;Helvetica Neue&quot;, sans-serif; font-size: 12px; font-weight: 200;" fill="rgb(50, 49, 63)" stroke="none" stroke-width="1px">4e+4</text><text x="0" y="106.2" dx="0em" dy="0.3em" style="text-anchor: end; visibility: hidden; font-family: &quot;Helvetica Neue&quot;, sans-serif; font-size: 12px; font-weight: 200;" fill="rgb(50, 49, 63)" stroke="none" stroke-width="1px">6e+4</text><text x="0" y="88.5" dx="0em" dy="0.3em" style="text-anchor: end; visibility: inherit; font-family: &quot;Helvetica Neue&quot;, sans-serif; font-size: 12px; font-weight: 200;" fill="rgb(50, 49, 63)" stroke="none" stroke-width="1px">8e+4</text><text x="0" y="70.8" dx="0em" dy="0.3em" style="text-anchor: end; visibility: hidden; font-family: &quot;Helvetica Neue&quot;, sans-serif; font-size: 12px; font-weight: 200;" fill="rgb(50, 49, 63)" stroke="none" stroke-width="1px">1e+5</text><text x="0" y="53.10000000000001" dx="0em" dy="0.3em" style="text-anchor: end; visibility: inherit; font-family: &quot;Helvetica Neue&quot;, sans-serif; font-size: 12px; font-weight: 200;" fill="rgb(50, 49, 63)" stroke="none" stroke-width="1px">1.2e+5</text><text x="0" y="35.400000000000006" dx="0em" dy="0.3em" style="text-anchor: end; visibility: hidden; font-family: &quot;Helvetica Neue&quot;, sans-serif; font-size: 12px; font-weight: 200;" fill="rgb(50, 49, 63)" stroke="none" stroke-width="1px">1.4e+5</text><text x="0" y="17.69999999999999" dx="0em" dy="0.3em" style="text-anchor: end; visibility: inherit; font-family: &quot;Helvetica Neue&quot;, sans-serif; font-size: 12px; font-weight: 200;" fill="rgb(50, 49, 63)" stroke="none" stroke-width="1px">1.6e+5</text><text x="0" y="0" dx="0em" dy="0.3em" style="text-anchor: end; visibility: hidden; font-family: &quot;Helvetica Neue&quot;, sans-serif; font-size: 12px; font-weight: 200;" fill="rgb(50, 49, 63)" stroke="none" stroke-width="1px">1.8e+5</text></g><line x1="68.3125" y1="0" x2="68.3125" y2="177" fill="rgb(0, 0, 0)" stroke="rgb(204, 204, 204)" stroke-width="1px"></line></g></g><g transform="translate(68, 0)" clip-path="url(#clip_0)"><clipPath id="clip_0"><rect width="261" height="177"></rect></clipPath><g><g><g><line x1="0" y1="0" x2="0" y2="177" fill="rgb(0, 0, 0)" stroke="rgb(60, 60, 60)" stroke-width="1px" opacity="0.25"></line><line x1="29.076388888888886" y1="0" x2="29.076388888888886" y2="177" fill="rgb(0, 0, 0)" stroke="rgb(60, 60, 60)" stroke-width="1px" opacity="0.25"></line><line x1="58.15277777777777" y1="0" x2="58.15277777777777" y2="177" fill="rgb(0, 0, 0)" stroke="rgb(60, 60, 60)" stroke-width="1px" opacity="0.25"></line><line x1="87.22916666666666" y1="0" x2="87.22916666666666" y2="177" fill="rgb(0, 0, 0)" stroke="rgb(60, 60, 60)" stroke-width="1px" opacity="0.25"></line><line x1="116.30555555555554" y1="0" x2="116.30555555555554" y2="177" fill="rgb(0, 0, 0)" stroke="rgb(60, 60, 60)" stroke-width="1px" opacity="0.25"></line><line x1="145.38194444444446" y1="0" x2="145.38194444444446" y2="177" fill="rgb(0, 0, 0)" stroke="rgb(60, 60, 60)" stroke-width="1px" opacity="0.25"></line><line x1="174.45833333333331" y1="0" x2="174.45833333333331" y2="177" fill="rgb(0, 0, 0)" stroke="rgb(60, 60, 60)" stroke-width="1px" opacity="0.25"></line><line x1="203.53472222222223" y1="0" x2="203.53472222222223" y2="177" fill="rgb(0, 0, 0)" stroke="rgb(60, 60, 60)" stroke-width="1px" opacity="0.25"></line><line x1="232.6111111111111" y1="0" x2="232.6111111111111" y2="177" fill="rgb(0, 0, 0)" stroke="rgb(60, 60, 60)" stroke-width="1px" opacity="0.25"></line><line x1="261.6875" y1="0" x2="261.6875" y2="177" fill="rgb(0, 0, 0)" stroke="rgb(60, 60, 60)" stroke-width="1px" opacity="0.25"></line></g><g><line x1="0" y1="177" x2="261.6875" y2="177" fill="rgb(0, 0, 0)" stroke="rgb(60, 60, 60)" stroke-width="1px" opacity="0.25"></line><line x1="0" y1="159.3" x2="261.6875" y2="159.3" fill="rgb(0, 0, 0)" stroke="rgb(60, 60, 60)" stroke-width="1px" opacity="0.25"></line><line x1="0" y1="141.6" x2="261.6875" y2="141.6" fill="rgb(0, 0, 0)" stroke="rgb(60, 60, 60)" stroke-width="1px" opacity="0.25"></line><line x1="0" y1="123.9" x2="261.6875" y2="123.9" fill="rgb(0, 0, 0)" stroke="rgb(60, 60, 60)" stroke-width="1px" opacity="0.25"></line><line x1="0" y1="106.2" x2="261.6875" y2="106.2" fill="rgb(0, 0, 0)" stroke="rgb(60, 60, 60)" stroke-width="1px" opacity="0.25"></line><line x1="0" y1="88.5" x2="261.6875" y2="88.5" fill="rgb(0, 0, 0)" stroke="rgb(60, 60, 60)" stroke-width="1px" opacity="0.25"></line><line x1="0" y1="70.8" x2="261.6875" y2="70.8" fill="rgb(0, 0, 0)" stroke="rgb(60, 60, 60)" stroke-width="1px" opacity="0.25"></line><line x1="0" y1="53.10000000000001" x2="261.6875" y2="53.10000000000001" fill="rgb(0, 0, 0)" stroke="rgb(60, 60, 60)" stroke-width="1px" opacity="0.25"></line><line x1="0" y1="35.400000000000006" x2="261.6875" y2="35.400000000000006" fill="rgb(0, 0, 0)" stroke="rgb(60, 60, 60)" stroke-width="1px" opacity="0.25"></line><line x1="0" y1="17.69999999999999" x2="261.6875" y2="17.69999999999999" fill="rgb(0, 0, 0)" stroke="rgb(60, 60, 60)" stroke-width="1px" opacity="0.25"></line><line x1="0" y1="0" x2="261.6875" y2="0" fill="rgb(0, 0, 0)" stroke="rgb(60, 60, 60)" stroke-width="1px" opacity="0.25"></line></g></g></g><g><g><line x1="0" y1="159.3" x2="261.6875" y2="159.3" fill="rgb(0, 0, 0)" stroke="rgb(153, 153, 153)" stroke-width="1.5px"></line></g></g><g><g><line x1="29.076388888888886" y1="0" x2="29.076388888888886" y2="177" fill="rgb(0, 0, 0)" stroke="rgb(153, 153, 153)" stroke-width="1.5px"></line></g></g><g><g><g><g><g><path stroke="rgb(255, 112, 67)" stroke-width="2px" d="M29.14907986111111,159.0699L29.162164236111114,159.00003157894736L29.24648576388889,159.04214169741698L29.256662499999997,159.0708006978773L29.268293055555553,159.08138634953968L29.269746875000003,159.08837877748587L29.28283125,159.06363217784215L29.310453819444444,159.0725022241406L29.349706944444442,159.06340916387L29.355522222222223,159.07119960706333L29.422397916666664,159.05166424171094L29.556149305555557,159.0603722030145L29.56051076388889,159.06817613837498L29.58813333333333,159.07413723142187L29.668093402777778,159.07917593205792L29.686993055555554,159.06445870741305L29.697169791666667,159.0380273274015L29.710254166666665,159.04698393313194L29.732061458333334,159.0649817823752L29.788760416666666,159.06352670010287L29.80039097222222,159.07964520006473L29.82510590277778,159.07071085139862L29.84836701388889,159.07547720525127L29.849820833333332,159.0695817230834L29.85854375,159.07152290805342L29.861451388888888,159.07040327696672L29.941411458333334,159.07504804108177L29.958857291666668,159.0632983179971L29.969034027777777,159.0347356476654L29.977756944444444,159.03517312820568L30.01991770833333,159.03418304155727L30.040271180555557,159.00305593083704L30.070801388888892,158.99168906576722L30.079524305555555,158.9965477942225L30.082431944444444,159.00679450592838L30.089701041666668,159.01098700564424L30.166753472222226,159.0242267482704L30.229267708333335,159.02662534300885L30.233629166666667,159.03552395237844L30.24089826388889,159.0228441382929L30.246713541666665,159.04151560717997L30.264159375000002,159.0484191998298L30.274336111111108,159.06177367786879L30.364472916666667,159.06259426794892L30.453155902777777,159.04815380532233L30.528754513888888,159.0637257449799L30.531662152777777,159.07103232545214L30.658144444444446,159.0499876925274L30.669775,159.0546606827649L30.7221125,159.04106956894296L30.725020138888887,159.0533018502339L30.781719097222222,159.0416379736823L30.804980208333333,159.04314232832812L30.818064583333335,159.0551512022043L30.880578819444445,159.05618673336693L30.88930173611111,159.0619989793503L30.99397673611111,159.0694449359567L31.00269965277778,159.06461222083158L31.024506944444443,159.0527272683239L31.094290277777777,159.0336126924017L31.10882847222222,159.04389555372848L31.113189930555556,159.03320543805478L31.210595833333336,159.03422122495095L31.26147951388889,159.02007242075456L31.30073263888889,159.00246899939629L31.31672465277778,159.01364777524293L31.32690138888889,159.00156261046567L31.367608333333333,158.98935940958413L31.403953819444446,159.00981771166715L31.435937847222224,159.02025748183857L31.472283333333333,159.03629327657407L31.488275347222224,159.03965565542075L31.53334375,159.04976470745007L31.594404166666667,159.0384986052294L31.613303819444443,159.0349999502444L31.642380208333336,159.01635874789278L31.66127986111111,159.0195013149015L31.694717708333332,159.02896873697964L31.73833229166667,159.03306285712708L31.749962847222225,159.02346947550512L31.764501041666666,159.02811344108386L31.811023263888888,159.0367186197853L31.81829236111111,159.02676017174554L31.921513541666666,159.02222350428L32.02037326388889,159.02477898352672L32.03491145833333,159.03504477709743L32.072710763888885,159.04295612608945L32.141040277777776,159.05007618309418L32.162847569444445,159.0387826088797L32.206462152777775,159.0463199221643L32.27043020833334,159.0473505006039L32.27188402777778,159.05403086274626L32.327129166666666,159.0600431103515L32.33730590277778,159.06810920245928L32.36056701388889,159.06297805140412L32.37510520833333,159.05880257722478L32.41871979166667,159.0404416505148L32.46669583333333,159.03497980635933L32.47251111111111,159.04289705938265L32.481234027777774,159.03718970184897L32.619346875,159.04046080986078L32.70076076388889,159.0566800778279L32.731290972222226,159.0473818900019L32.790897569444446,159.03724352432107L32.80834340277778,159.04714682721476L32.827243055555556,159.05384723907505L32.83160451388889,159.04217736691078L32.86795,159.02769196459633L32.92464895833333,159.02350522505336L32.94791006944444,159.02858724961462L33.00315520833333,159.03227605540025L33.026416319444444,159.0183383453034L33.06276180555556,159.00977695297036L33.118006944444446,159.02286933722783L33.15144479166667,159.0319974534245L33.23722013888889,159.04021274851675L33.25321215277778,159.02990642801126L33.25466597222223,159.0431983382013L33.34480277777777,159.05250603777768L33.35788715277778,159.04805041961163L33.38260208333333,159.06129791615194L33.41313229166667,159.06658313836124L33.41894756944444,159.04921478363792L33.430578125000004,159.05570831903202L33.488730902777775,159.05270248139718L33.497453819444445,159.04778472481786L33.55415277777777,159.03672123524808L33.58904444444445,159.01835658619484L33.631205208333334,159.01731592627343L33.63265902777778,159.01770683408623L33.667550694444444,159.029563662693L33.68790416666667,159.03757980373467L33.73006493055556,159.0076242987728L33.74169548611111,159.01296687284233L33.77513333333333,159.00096017757517L33.78821770833333,159.00741166367814L33.82165555555555,159.00702299710102L33.83764756944445,159.00003569400423L33.849278125,159.02073963363534L33.93941493055556,159.02477067185438L33.96412986111111,159.03016860657627L33.99466006944444,159.0385667485893L33.99611388888889,159.02842507082775L34.07316631944444,159.0303600642434L34.08043541666667,159.03873905976155L34.138588194444445,159.0462801553588L34.163303125,159.01102963320358L34.189471874999995,159.03063417319643L34.206917708333336,159.0389857571471L34.23454027777778,159.04915718282476L34.24907847222222,159.055656465343L34.29269305555555,159.0575233190157L34.32176944444444,159.0720359885624L34.37119930555556,159.05810488845495L34.37556076388889,159.04335439841714L34.427898263888885,159.03273395780278L34.48459722222222,159.01742306102003L34.503496874999996,159.027095755488L34.519488888888894,159.01810117946218L34.53548090277778,159.00336856081276L34.54420381944444,158.99674670444702L34.65614791666666,159.00583203435357L34.659055555555554,158.99099883040208L34.667778472222224,159.0059689478307L34.67650138888889,159.01678705335252L34.67940902777778,159.01723084802853L34.69394722222222,159.02426776338632L34.705577777777776,159.03060098717782L34.82479097222222,159.0274508884018L34.843690625,159.02417329950705L34.948365625,159.0283034696182L35.06030972222222,159.0191881225335L35.07194027777778,159.01894931027726L35.13881597222222,159.0032468790781L35.16062326388889,158.99663719110532L35.17370763888889,159.00838847209872L35.191153472222226,159.01896462497302L35.23767569444445,159.00414566236958L35.29728229166667,159.00010109610653L35.45574861111111,159.01017848655437L35.46883298611111,158.9962381378261L35.49936319444444,158.99873682405524L35.532801041666666,159.01293314170977L35.550246875,159.0186298275605L35.59967673611111,159.0104818447765L35.666552430555555,158.99651116025578L35.76395833333333,158.99057504421373L35.77558888888889,159.00249003982213L35.80611909722222,159.00170853583816L35.81920347222222,159.00720018226545L35.84246458333333,159.00019516402614L35.86136423611111,159.00052814762407L35.90061736111111,159.00835033287322L35.96022395833333,159.00123029957643L35.97476215277778,159.0147347696349L36.03873020833333,158.98263879263692L36.099790625,158.9727799133637L36.128867013888886,158.96523442202076L36.25825694444444,158.96331097981715L36.34257847222222,158.96910238183955L36.34693993055555,158.97342964365833L36.37165486111111,158.9698016792904L36.40945416666666,158.97936901136632L36.47196840277778,158.9928471102359L36.66968784722222,158.98019739920704L36.719117708333336,158.98828265928938L36.732202083333334,158.9902493933611L36.74964791666667,158.9875944540242L36.77290902777778,158.99671000862426L36.78163194444444,158.98323150775852L36.7932625,158.9896858569841L36.85286909722222,158.9928397712863L36.92992152777778,158.9912532941574L36.934282986111114,158.98584296474078L37.017150694444446,158.97212366826471L37.05640381944445,158.96597130143743L37.06512673611111,158.96795667129393L37.066580555555554,158.9648760041642L37.07239583333333,158.9554659037469L37.134910069444445,158.94920931337168L37.14799444444444,158.95906588203525L37.15235590277778,158.95244929383128L37.18870138888889,158.94162686444747L37.21487013888889,158.94958667800316L37.24830798611111,158.91250051020097L37.27447673611111,158.914965459181L37.328268055555554,158.9202814132631L37.35007534722222,158.92993327193716L37.351529166666666,158.93640744474365L37.39950520833333,158.95152670026974L37.432943055555555,158.93637153024235L37.486734375,158.95414937721856L37.530348958333335,158.9590869394968L37.584140277777784,158.95954824554713L37.58559409722222,158.95730842099238L37.604493749999996,158.9544075788931L37.74406041666666,158.9491418210037L37.79930555555555,158.93599513890317L37.80366701388889,158.95381062501306L37.87490416666667,158.9671895625119L37.911249652777784,158.97436310626077L37.93887222222222,158.95471179563452L37.94759513888889,158.97729311607125L37.994117361111115,158.97903130446414L37.99993263888889,158.9575856740176L38.01447083333333,158.9710296066159L38.03773194444444,158.9676416459543L38.059539236111114,158.96370748135885L38.140953124999996,158.93804173322286L38.142406944444446,158.93706755990058L38.229636111111105,158.9388458039105L38.28051979166666,158.93867622351945L38.32268055555555,158.9283461011675L38.33285729166666,158.91993399105073L38.45788576388888,158.92342559194566L38.48986979166667,158.91285053275107L38.52766909722222,158.90997047947596L38.53639201388889,158.90605093152837L38.59163715277778,158.91756833837553L38.62071354166667,158.89651650453797L38.716665625,158.87978235408414L38.72102708333333,158.87489911867573L38.77772604166667,158.85811420680812L38.85913993055556,158.8461052861273L38.93764618055556,158.8534397575146L39.07721284722222,158.85340328176312L39.213871875,158.8241654535868L39.22841006944444,158.8071439082281L39.25457881944445,158.78562951740528L39.27929375,158.78440906566476L39.33453888888889,158.73021065909825L39.379607291666666,158.75355959318844L39.39123784722222,158.7674936338696L39.397053125,158.76100677048265L39.41449895833333,158.7573810934344L39.42176805555555,158.72889548409094L39.536619791666666,158.75281843568183L39.59041111111111,158.74160409211365L39.66600972222222,158.7301836829023L39.7765,158.70309031461204L39.795399652777775,158.69153878315086L39.82447604166667,158.71477240483577L39.85064479166667,158.7024951643522L39.95677361111112,158.70073814791698L39.982942361111114,158.7142018331253L40.00765729166667,158.72100914981274L40.01783402777777,158.71474573483147L40.057087152777775,158.6710536613483L40.09197881944445,158.6817332952135L40.11960138888889,158.60018996569212L40.12832430555556,158.61928346912293L40.170485069444446,158.63735262221064L40.17339270833333,158.64432235998956L40.20246909722222,158.65502012399062L40.23009166666667,158.66863061159154L40.28533680555555,158.6145050504324L40.29405972222222,158.61977704538916L40.34494340277777,158.58823684085024L40.34930486111111,158.6001181567652L40.533939930555555,158.59399634108868L40.59936180555555,158.57521170697981L40.62843819444445,158.57689053628184L40.63570729166666,158.56733898265367L40.683683333333335,158.5866200843883L40.743289930555555,158.59025557594947L40.77527395833333,158.60680251835453L40.810165625,158.63895226651906L40.862503125,158.65682453986716L40.98898541666667,158.67025458588046L40.993346875,158.6827841272924L41.02678472222222,158.67591821456315L41.03986909722222,158.67637639310684L41.0849375,158.69050625379617L41.130005902777775,158.70056812841653L41.15181319444444,158.71670381557487L41.21723506944445,158.7144109340174L41.43094652777778,158.69066484061565L41.46147673611111,158.6812408565541L41.47746875,158.66346677089868L41.47892256944445,158.61384009380882L41.50654513888889,158.61121358442793L41.542890625,158.62079722598514L41.630119791666665,158.65243250338662L41.63448125,158.56673925304796L41.73915625,158.59802782774318L41.74642534722222,158.62397504496886L41.755148263888884,158.61635254047195L41.82638541666667,158.54001978642478L41.83510833333333,158.54521780778228L41.99066701388889,158.56140102700405L42.09824965277778,158.50826342430366L42.144771874999996,158.5161945818733L42.21310138888889,158.45430262368598L42.28288472222222,158.41762736131736L42.35266805555556,158.38152212518563L42.35557569444445,158.41053491266706L42.37156770833333,158.40567142140037L42.37592916666667,158.41279927926033L42.38901354166667,158.4205418513343L42.41808993055556,158.45538766620086L42.55765659722223,158.47126139958078L42.641978125,158.5005927596227L42.67541597222222,158.51769848366044L42.70158472222222,158.5233586352944L42.720484375000005,158.54438277176496L42.76555277777778,158.56684449458845L42.84115138888889,158.5516600451296L42.91093472222222,158.55525154061664L42.91384236111111,158.54034138655499L42.91675,158.5105497478995L42.93710347222222,158.53418227310954L42.95454930555556,158.55987654579857L43.05195520833333,158.56485889121873L43.067947222222216,158.53925300209684L43.18134513888889,158.54452770188718L43.25839756944445,158.54927493169845L43.26857430555555,158.4977924385286L43.271481944444446,158.47314069467575L43.427040625,158.48458412520816L43.472109027777776,158.51214071268734L43.49682395833334,158.45773414141863L43.538984722222224,158.34195072727675L43.66401319444444,158.36872565454908L43.76432673611111,158.33751058909417L43.84137916666667,158.31207203018477L43.969315277777774,158.34183482716628L43.98239965277778,158.36685134444966L44.01874513888889,158.34954121000467L44.1205125,158.3485645890042L44.207741666666664,158.3746781301038L44.37638472222222,158.32295531709343L44.456344791666666,158.3489747853841L44.47960590277778,158.32415980684567L44.494144097222225,158.3708563261611L44.54793541666666,158.395183193545L44.62789548611111,158.4139798741905L44.81107673611111,158.43399438677145L44.90121354166667,158.4183774480943L44.902667361111114,158.40432220328486L44.97681215277778,158.35450248295638L45.014611458333334,158.34285223466074L45.06549513888889,158.33590701119468L45.17743923611111,158.2787688100752L45.223961458333335,158.2561069290677L45.319913541666665,158.2215512361609L45.42022708333334,158.2585961125448L45.42168090277777,158.26759900129034L45.42749618055556,158.2526916011613L45.43040381944445,158.29148994104517L45.63684618055555,158.28171594694066L45.67609930555555,158.29769935224658L45.70953715277778,158.25588691702194L45.812758333333335,158.23374322531973L45.92034097222223,158.27355140278777L45.93051770833333,158.199196262509L45.933425347222226,158.2083866362581L45.98285520833333,158.2463054726323L46.09334548611111,158.29857492536905L46.21837395833334,158.23100993283214L46.282342013888886,158.26710893954893L46.36375590277778,158.24384304559405L46.573105902777776,158.24060374103465L46.586190277777774,158.23724586693118L46.64434305555556,158.25059628023806L46.66760416666667,158.30199415221426L46.685050000000004,158.29736473699282L46.76937152777778,158.25735576329353L46.78681736111111,158.3085201869642L46.81734756944445,158.29837066826778L46.85369305555556,158.294546101441L46.87695416666667,158.3242914912969L46.985990625,158.2953073421672L46.99616736111111,158.23028160795047L47.022336111111116,158.28371094715544L47.11974201388889,158.2623248524399L47.14009548611111,158.1510373671959L47.349445486111115,158.19734613047632L47.35089930555555,158.18326901742867L47.50064270833333,158.12679211568582L47.76087638888889,158.15517040411723L47.833567361111115,158.1076983637055L48.018202430555554,158.05125602733494L48.14468472222222,158.09161292460146L48.18103020833334,158.1155441321413L48.198476041666666,158.1300022189272L48.220283333333334,158.19832699703446L48.234821527777775,158.14388429733103L48.303151041666666,158.14488836759793L48.33513506944445,158.15110203083813L48.40201076388889,158.2128918277543L48.474701736111115,158.18221514497887L48.55320798611111,158.154606130481L48.61281458333333,158.1722380174329L48.621537499999995,158.2137717156896L48.73057395833333,158.21840704412065L48.765465625,158.24293383970857L48.78872673611111,158.29554045573772L48.80617256944445,158.32518641016395L48.81634930555556,158.35408026914754L48.87595590277778,158.3083997422328L48.93847013888889,158.30135976800952L48.98935381944444,158.28307629120857L49.123105208333335,158.26086866208772L49.14200486111111,158.24043929587893L49.390607986111114,158.09903786629104L49.50400590277778,158.13904157966195L49.525813194444446,158.11309492169573L49.56506631944444,158.16319792952618L49.70608680555556,158.07642563657356L49.74388611111111,158.0368280729162L49.80349270833333,158.04367026562457L49.91543680555555,157.98964823906212L49.92415972222222,158.0666984151559L49.96050520833334,157.99709857364033L50.002665972222225,157.95525621627627L50.11751770833333,157.96538809464866L50.15531701388889,157.9917642851838L50.464980555555556,158.0137328566654L50.510048958333336,158.05607207099888L50.56384027777778,158.07160986389897L50.658338541666666,157.99443887750908L50.710676041666666,158.06304498975817L50.75283680555555,158.00664299078235L50.80953576388889,158.02712369170413L50.844427430555555,157.94156882253372L50.85315034722222,157.96811444028035L50.860419444444446,157.9995279962523L51.0814,158.00434769662706L51.097392013888886,158.04939542696437L51.26458125,158.10365588426794L51.29801909722222,158.15957029584115L51.45067013888889,158.16475826625702L51.51899965277778,158.11367243963133L51.739980208333336,158.1048651956682L51.747249305555556,158.05091867610136L51.78214097222222,158.10414180849125L51.79522534722222,158.11000512764213L52.02492881944445,158.1046621148779L52.08744305555555,158.0971984033901L52.15577256944445,158.1643785630511L52.235732638888884,158.151385706746L52.29097777777778,158.2131471360714L52.36076111111112,158.20943742246425L52.365122569444445,158.24680868021784L52.385476041666664,158.24327281219604L52.424729166666665,158.16884803097645L52.59482604166667,158.1934632278788L52.62390243055555,158.1669419050909L52.88413611111111,158.16298521458182L52.924843055555556,158.15278669312363L52.982995833333334,158.21440802381127L53.03969479166666,158.25482222143015L53.05277916666666,158.30623999928713L53.344996875,158.30074349935842L53.407511111111106,158.26039664942257L53.48747118055555,158.22010198448032L53.58342326388889,158.27499178603227L53.65756805555556,158.25226510742905L53.67210625,158.28889359668617L53.70263645833333,158.26831673701753L53.7506125,158.1891750633158L53.88000243055556,158.0953800569842L53.94833194444445,158.16185705128578L54.00793854166667,158.1601788461572L54.02247673611111,158.07105346154148L54.071906597222224,157.97845061538735L54.19548125,157.9831655538486L54.20129652777778,158.04891649846374L54.27544131944445,158.12048234861737L54.59964305555555,158.05568161375564L54.640350000000005,158.11683595238006L54.65779583333333,158.04974485714206L54.68977986111111,157.96945037142785L54.79154722222222,157.94276283428508L54.849700000000006,157.97184405085656L54.886045486111115,157.8913746457709L55.03578888888889,157.85213968119382L55.06631909722222,157.89028321307444L55.08376493055556,157.819739891767L55.55916388888889,157.8969659025903L55.67256180555556,157.91071431233127L55.69582291666667,157.90538788109814L55.71908402777778,157.97626159298832L55.83393576388889,158.0373929336895L55.84847395833334,158.00523864032056L55.90517291666667,158.0254172762885L56.07381597222223,157.93383804865965L56.091261805555554,158.00230924379366L56.10434618055555,157.95242331941432L56.152322222222224,157.98053848747287L56.24682048611111,158.00097463872558L56.30497326388889,158.00387967485304L56.32096527777778,157.94587170736773L56.376210416666666,157.97641203663096L56.45471666666667,158.00743833296787L56.55648402777778,158.02783949967107L56.59719097222222,158.03336804970397L56.60591388888889,158.06223874473358L56.687327777777774,158.06476987026022L56.762926388888886,158.1174928832342L56.76583402777778,158.16494359491077L56.81235624999999,158.0399417354197L57.087128125,158.05134006187774L57.136557986111114,158.05230605568994L57.30520104166667,158.06822045012095L57.396791666666665,158.06661340510885L57.47675173611111,158.08773456459798L57.479659375000004,158.02665110813817L57.60178020833333,158.02743099732436L57.687555555555555,157.9896353975919L57.80676875,158.00119685783272L57.873644444444444,158.00717717204947L57.918712847222224,158.0271619548445L57.93179722222222,157.97744575936005L58.06845625,157.94774618342404L58.23128402777778,157.93871656508165L58.23564548611111,157.83677990857348L58.24582222222222,157.91230191771615L58.27344479166667,157.8864617259445L58.40719618055556,157.91896055335008L58.49006388888889,157.89245449801507L58.53222465277778,157.89116654821356L58.54240138888889,157.9103623933922L58.56857013888889,157.928081154053L58.618,157.9258855386477L58.663068402777775,157.8464719847829L58.664522222222224,157.93872478630462L58.82444236111112,157.95006730767415L58.841888194444444,158.01647307690675L58.866603125000005,158.03818326921606L59.038153819444446,158.00771994229447L59.05705347222222,157.95463794806503L59.20388923611111,157.89181915325852L59.27803402777778,157.84236223793266L59.31874097222222,157.8438710141394L59.51064513888889,157.88062891272546L59.560075,157.9137110214529L59.61968159722222,157.92578491930763L59.64294270833333,157.93665142737686L59.776694097222226,157.82031878463917L59.81885486111111,157.70986690617525L59.901722569444445,157.62063771555773L59.95115243055555,157.73503144400195L59.97586736111111,157.78267329960175L60.079088541666664,157.71359846964157L60.103803472222225,157.76825112267744L60.11398020833334,157.72451351040968L60.40619791666667,157.62364215936873L60.42945902777778,157.66383794343184L60.43236666666667,157.70488164908866L60.62863229166666,157.6236734841798L60.67370069444445,157.5700561357618L60.71876909722222,157.61605302218564L60.77256041666667,157.61983771996708L60.933934375,157.66616644797037L61.09530833333333,157.62953980317332L61.138922916666665,157.601443322856L61.20870625,157.51287899057039L61.281397222222225,157.52919359151335L61.31919652777778,157.523964232362L61.3918875,157.4475728091258L61.42823298611111,157.48811802821325L61.49365486111111,157.5423087253919L61.51546215277777,157.44726785285272L61.653575000000004,157.52368606756744L61.80767986111111,157.5636999608107L61.862925,157.61077496472964L62.00830694444444,157.59915746825666L62.011214583333334,157.647554221431L62.01557604166666,157.5765037992879L62.13478923611111,157.49397341935912L62.287440277777776,157.3794285774232L62.45753715277778,157.3913882196809L62.55203541666666,157.4756068977128L62.579657986111116,157.4217512079415L62.81517673611111,157.41531858714737L63.14519375,157.40554672843263L63.299298611111105,157.29851705558937L63.478118402777774,157.39158035003044L63.502833333333335,157.3846248150274L63.57988576388889,157.38854233352464L63.76742847222222,157.38144810017218L63.891003125000005,157.37727579015495L63.93607152777778,157.33104071113948L64.05092326388889,157.28456164002552L64.07709201388889,157.22237547602296L64.100353125,157.28588292842068L64.15850590277778,157.2235646355786L64.20357430555556,157.23872067202075L64.36349444444444,157.22448360481866L64.66734270833334,157.3054802443368L65.29975416666666,157.25890221990312L65.32883055555556,157.2165394979128L65.36372222222222,157.17885554812153L65.42332881944444,157.23166999330937L65.591971875,157.31194799397844L65.76933784722222,157.2943706945806L65.80859097222223,157.23297362512253L66.03974826388888,157.17727376261027L66.09644722222222,157.12847138634925L66.11970833333334,157.12968424771432L66.17059201388888,157.1051108229429L66.40465694444445,157.0639672406486L66.49915520833333,157.04419551658376L66.61691458333333,157.00560346492537L66.68524409722222,156.99299561843284L66.69687465277778,156.98297605658956L66.72740486111111,156.9615684509306L66.91494756944445,156.94008910583753L66.97455416666666,156.9380151952538L67.27113333333334,156.9308386757284L67.37871597222222,156.92880480815558L67.71309444444445,156.90352182734L67.75961666666667,156.88607714460602L68.21175451388889,156.8814394301454L68.3033451388889,156.86354798713086L68.50397222222222,156.8678006884178L68.88632673611112,156.853043119576L69.30502673611112,156.8238313076184L69.33991840277778,156.81612567685656L69.40970173611112,156.7410456091709L69.53618402777778,156.69427104825382L69.67284305555556,156.65969644342843L69.86183958333334,156.6254817990856L69.93162291666667,156.63362861917702L69.94179965277779,156.64494325725934L70.2892625,156.6449489315334L70.3125236111111,156.65114903838005L70.50878923611111,156.65230413454205L70.53350416666667,156.58165872108785L70.60619513888889,156.57206284897907L70.62654861111112,156.60236656408117L70.65126354166667,156.61724990767303L70.71959305555556,156.61382991690573L70.75593854166667,156.62623942521515L70.84607534722223,156.64979798269366L71.00308784722222,156.54400318442427L71.17463854166667,156.54171286598185L71.29094409722222,156.50336657938368L71.67039097222222,156.4905374214453L71.80123472222222,156.47500867930077L71.846303125,156.5145753113707L71.90009444444443,156.44841028023362L72.42783090277777,156.45346675221026L72.51506006944444,156.42704257698924L72.75784791666668,156.4532633192903L72.88433020833334,156.40783198736128L73.07187291666666,156.45588628862515L73.25941562499999,156.45134515976264L73.26813854166666,156.45699314378638L73.35827534722222,156.30366132940773L73.46004270833333,156.32673269646696L73.56326388888888,156.38422442682025L73.586525,156.41561198413825L73.91944965277779,156.4438607857244L73.97760243055556,156.47238220715198L74.01249409722223,156.4781389864368L74.31488854166666,156.5178350877931L74.39630243055556,156.5571015790138L74.83535590277778,156.5906714211124L74.934215625,156.60451177900117L75.04906736111111,156.61608310110105L75.30930104166667,156.59596479099093L75.44596006944444,156.62299331189186L75.48085173611112,156.56058898070268L75.72509340277777,156.5473475826324L75.86175243055555,156.56375032436915L75.97078888888889,156.58293779193224L76.02312638888888,156.592241512739L76.06237951388889,156.5510548614651L76.14233958333332,156.5675293753186L76.26009895833333,156.56421393778675L76.48689479166667,156.50945754400806L76.51887881944444,156.51770178960726L76.63954583333333,156.49503161064655L76.67152986111111,156.5197634495819L76.92449444444445,156.53980960462368L76.97973958333334,156.5746661441613L76.98264722222221,156.5883370297452L77.027715625,156.58338332677067L77.19199722222223,156.5603399940936L77.20653541666667,156.57455849468425L77.23561180555555,156.5917801452158L77.5118375,156.59356213069424L77.61360486111111,156.56684591762482L77.76334826388889,156.55032382586234L77.78079409722221,156.4721764432761L77.93635277777777,156.4899012989485L77.98869027777778,156.52665116905365L78.2343857638889,156.50352855214828L78.30562291666668,156.52696819693344L78.31434583333333,156.5400988772401L78.35650659722222,156.55678398951608L78.50625,156.4598480905645L78.58475625,156.44827328150802L78.58911770833333,156.44095345335722L78.74322256944444,156.35427310802152L78.81591354166667,156.38467329721936L78.81882118055555,156.3823859674974L78.9278576388889,156.35864487074767L78.95257256944444,156.3939178836729L79.12703090277778,156.44159359530562L79.29712777777779,156.43140173577507L79.42070243055556,156.42311406219756L79.49048576388888,156.3961851559778L79.68238993055556,156.39009164038L79.70710486111112,156.36867747634201L79.78415729166667,156.40029222870783L79.82195659722223,156.28095050583704L80.15051979166667,156.21425295525333L80.27845590277778,156.182545159728L80.58375798611111,156.1283431437552L80.6288263888889,156.13133382937968L80.81346145833334,156.1641154464417L80.96611250000001,156.12104890179754L80.97192777777778,156.0384815116178L81.24233819444444,155.741150860456L81.79624340277778,155.6602882744104L81.90964131944445,155.32466694696936L81.921271875,155.01906775227243L82.11317604166668,155.0183784770452L82.34287951388889,155.10670062934065L82.66562743055555,155.1574280664066L82.67435034722222,154.55216525976596L82.72523402777779,154.03265123378935L82.87352361111111,154.1137886104104L82.87788506944445,154.38637974936938L82.968021875,154.58215177443242L83.10322708333334,154.6755990969892L83.40998298611112,154.84244918729027L83.42742881944444,154.97447176856124L83.43324409722221,154.9839945917051L83.44342083333333,155.0651351325346L83.8679361111111,155.24922911928115L83.98714930555555,155.27154370735303L84.41602604166667,155.03630433661772L84.68789027777777,154.70422890295595L84.71260520833333,154.66112601266036L84.82164166666666,154.42188091139434L85.1952732638889,154.3309028202549L85.4903986111111,154.5866500382294L85.76953194444445,154.76505003440647L86.21003923611111,154.57249503096583L86.23475416666668,154.24697552786924L86.26819201388889,154.5071329750823L86.34524444444445,154.46957967757407L86.44555798611111,154.30347420981667L86.59675520833333,154.210619288835L86.68834583333333,154.2040448599515L87.08669236111112,154.26804287395635L87.26405833333334,154.1026210865607L87.36437187499999,154.19136397790464L87.54900694444444,154.1898125801142L87.62024409722223,154.36630132210277L87.81796354166667,154.39327618989248L88.00550625,153.22457357090323L88.09855069444444,153.4263437138129L88.13344236111112,153.68316184243162L88.1886875,153.79792065818845L88.97084236111111,153.61269359236962L88.98538055555555,153.80529923313264L89.09587083333332,153.7467743098194L90.06556840277777,152.99672187883743L90.39413159722223,153.1858771909537L90.57731284722222,152.83263947185833L91.12540277777778,152.5302130246725L91.18064791666666,152.50051922220524L91.29840729166666,152.43750979998472L91.65459305555557,152.82905381998626L91.72873784722222,153.14427343798764L91.92500347222223,152.96511609418886L91.99769444444445,153.01317698476998L92.11399999999999,153.17811928629297L92.11981527777778,153.19956985766368L92.50071597222222,153.4609228718973L92.82927916666667,153.28505808470757L92.90633159722222,153.27590227623682L93.09678194444444,153.50351454861314L93.23925625,153.21188059375183L93.48640555555555,153.08216003437664L94.19732326388889,152.78487153093897L94.31362881944443,152.71378187784507L94.49099479166667,152.66351869006058L94.93586354166668,152.4957093210545L95.18155902777778,152.44026088894907L95.44906180555554,152.58815480005416L95.49413020833333,152.42655432004875L96.22103993055555,152.27757388804386L96.85490520833334,152.62758649923947L96.89997361111111,152.64479534931553L96.915965625,152.06423581438398L97.75772708333334,151.27490473294557L97.79552638888889,151.497739259651L97.94963125000001,151.14516533368592L98.27092534722223,151.07122380031734L98.4104920138889,150.5599639202856L98.91351354166667,150.17063002825702L99.43834236111111,149.22949202543134L99.45578819444444,148.9948878228882L99.96607881944445,148.85277404059937L100.07802291666667,147.50534163653944L100.90524618055557,146.8541849728855L101.01864409722224,146.96109897559694L101.24689375000001,146.80421157803727L101.312315625,147.09135292023353L102.22386041666667,147.4064201282102L102.44774861111111,147.45545561538916L102.86790243055556,147.41462755385024L103.96989756944446,147.3389422984652L104.08184166666666,147.6354455686187L104.25484618055556,147.1827935117568L104.53834097222222,147.24224416058115L104.59503993055556,146.31516974452302L105.11696111111111,145.52549527007073L105.45279340277779,145.89448824306365L106.179703125,146.75094441875729L106.6929013888889,147.11686747688157L107.10723993055556,147.5988607291934L107.61753055555556,147.73485215627406L108.33135590277779,146.79524444064666L108.99284374999999,146.785037496582L109.20510138888889,146.3793712469238L109.61217083333334,146.1487916222314L109.66741597222222,146.71829996000827L109.69213090277778,146.83968746400745L109.84478194444445,146.9007037176067L110.07448541666668,147.48883084584602L110.36088784722222,146.97827026126143L110.5266232638889,147.54094073513528L110.87990138888888,148.08451416162177L110.94823090277777,148.07237774545956L111.30441666666667,148.37784247091363L111.478875,148.02352572382225L111.85250659722223,148.46087315144004L112.6462920138889,147.55574833629603L112.77132048611111,147.12832350266643L113.07371493055555,146.80072365239977L113.22055069444446,147.2510537871598L113.29324166666667,146.6713459084438L113.71048784722223,146.42838381759944L113.83987777777777,146.8601929358395L113.94746041666667,147.11828364225553L114.14954131944445,147.70235277803L114.72816145833333,148.085972500227L114.73252291666667,147.6617227502043L115.46960937499999,147.63655297518386L115.68041319444444,147.4838051776655L115.84614861111112,148.07158965989893L115.91011666666667,147.47399069390903L116.57451215277777,148.02647162451814L117.02083472222222,148.15156196206632L117.16330902777779,148.2123707658597L117.34212881944444,146.7356061892737L117.80298958333333,146.96987057034633L118.06322326388889,147.7183460133117L118.50227673611111,146.40072391198055L118.88753888888888,146.4543065207825L119.46615902777778,147.03131836870423L120.05495590277778,147.5108040318338L120.22650659722223,146.52855362865043L120.31809722222222,147.00256076578538L120.76005833333333,147.58050218920684L122.70381493055555,147.22980947028617L122.82012048611112,147.52704852325755L123.00620937500001,147.2321461709318L123.37257187499999,146.81185905383862L123.40600972222222,147.53808064845475L123.79854097222221,147.44695258360926L124.46875173611112,147.77336482524834L124.5341736111111,146.8153033427235L124.66065590277778,147.13806300845116L124.66937881944445,147.57147420760603L124.77986909722223,147.70002678684546L124.81912222222222,147.0714391081609L125.00375729166667,146.5813776973448L125.66815277777778,147.11028242761031L125.76265104166666,146.63580668484929L125.99671597222222,146.98713601636436L126.826846875,146.2267299147279L126.97513645833334,145.80520942325512L127.68460034722223,146.18428598092962L127.75292986111111,146.39712988283665L127.87214305555555,147.033844394553L128.3649878472222,147.51617495509768L129.00757604166665,148.28170495958793L129.679240625,147.61574696362914L130.1081173611111,144.76538726726622L130.3727125,144.3581360405396L130.40033506944445,143.62256493648565L130.93388680555557,143.57120094283707L130.93970208333332,144.17367834855338L131.58229027777776,144.44200051369802L131.81926284722223,145.05076546232823L131.91957638888888,144.0591964160954L134.5146440972222,141.95920177448588L134.9871354166667,141.7192890970373L135.40728923611113,140.03117018733354L137.04865138888889,138.2025556686002L138.8048652777778,135.67357260174018L138.87755625,134.81039034156618L140.00572013888888,130.68689880740953L140.44913506944445,131.5003189266686L140.81404375,131.62440203400172L141.24582812499997,130.47008433060154L142.68947083333333,129.7803308975414L143.54431666666667,128.09622530778728L144.10403715277778,128.63461527700855L146.71945833333334,123.81713124930769L151.07946284722223,119.85132562437691L152.54200520833334,113.97357806193924L159.38222569444446,109.17256775574529L159.3967638888889,107.53807598017076L159.433109375,102.59871838215369L160.5292892361111,101.36186404393833L160.5612732638889,96.58789263954449L161.63273819444444,98.25710337559006L164.9648923611111,97.18227303803104L166.51321006944445,98.52256323422795L167.10927604166665,98.03449191080516L168.82623680555554,93.43351521972464L170.14630486111113,91.35557119775217L174.33185104166668,92.77850657797694L176.61580138888888,97.45754842017925L177.61166770833333,94.66789357816133L180.34775590277778,91.6288592203452L183.07366736111112,92.26159579831067L184.2192770833333,84.97048871847959L184.87640347222222,86.63810734663163L190.56519895833333,82.54576411196847L190.68295833333335,83.04560770077163L192.98580833333335,76.62078693069445L194.0965263888889,78.464493237625L194.45125833333333,72.39158391386252L198.0785378472222,67.37466052247626L201.36707743055555,64.13648447022862L202.82816597222222,62.68989852320577L202.84415798611113,57.986031170885184L204.2761701388889,57.66425055379668L204.39974479166668,57.36137299841698L206.68078749999998,53.11469069857529L212.09626493055555,49.183379128717775L213.61696006944445,51.980028715846004L220.30452951388887,55.92363334426136L220.60401631944444,51.69549750983525L222.26282430555557,49.0322677588517L227.49512048611112,46.74908348296654L228.05338715277776,43.324680134669904L233.60697743055556,40.339624621202915L238.00332743055557,37.509704659082644L240.229125,34.89861419317438L245.4265295138889,42.74383277385695L249.71384305555554,39.907574496471256L251.92219479166667,36.99872954682414L251.92510243055554,34.55688409214173L251.92655625,39.03654818292756L251.92946388888888,36.47057086463482L251.93237152777778,34.38288377817133L251.9338253472222,32.203950400354216L251.93527916666667,37.4817678603188L251.9367329861111,34.996043574286915" style="fill: none;" fill="none"></path></g></g></g></g><g opacity="0.2"><g><g><g><path stroke="rgb(255, 112, 67)" stroke-width="2px" d="M29.14907986111111,159.0699L29.162164236111114,158.93715L29.24648576388889,159.11415L29.256662499999997,159.1407L29.268293055555553,159.11415L29.269746875000003,159.11415L29.28283125,158.959275L29.310453819444444,159.11415L29.349706944444442,159.0168L29.355522222222223,159.11415L29.422397916666664,158.93715L29.556149305555557,159.11415L29.56051076388889,159.118575L29.58813333333333,159.11415L29.668093402777778,159.11415L29.686993055555554,158.959275L29.697169791666667,158.844225L29.710254166666665,159.11415L29.732061458333334,159.20265L29.788760416666666,159.0522L29.80039097222222,159.207075L29.82510590277778,158.9991L29.84836701388889,159.11415L29.849820833333332,159.02122500000002L29.85854375,159.0876L29.861451388888888,159.06105L29.941411458333334,159.11415L29.958857291666668,158.9637L29.969034027777777,158.791125L29.977756944444444,159.038925L30.01991770833333,159.02564999999998L30.040271180555557,158.7336L30.070801388888892,158.8929L30.079524305555555,159.038925L30.082431944444444,159.09645L30.089701041666668,159.047775L30.166753472222226,159.1407L30.229267708333335,159.047775L30.233629166666667,159.11415L30.24089826388889,158.9106L30.246713541666665,159.207075L30.264159375000002,159.109725L30.274336111111108,159.180525L30.364472916666667,159.0699L30.453155902777777,158.91944999999998L30.528754513888888,159.20265L30.531662152777777,159.136275L30.658144444444446,158.86192499999999L30.669775,159.09645L30.7221125,158.91944999999998L30.725020138888887,159.162825L30.781719097222222,158.93715L30.804980208333333,159.056625L30.818064583333335,159.162825L30.880578819444445,159.065475L30.88930173611111,159.11415L30.99397673611111,159.136275L31.00269965277778,159.02122500000002L31.024506944444443,158.946L31.094290277777777,158.86192499999999L31.10882847222222,159.136275L31.113189930555556,158.93715L31.210595833333336,159.04335L31.26147951388889,158.8929L31.30073263888889,158.844225L31.31672465277778,159.11415L31.32690138888889,158.8929L31.367608333333333,158.879625L31.403953819444446,159.1938L31.435937847222224,159.11415L31.472283333333333,159.180525L31.488275347222224,159.0699L31.53334375,159.1407L31.594404166666667,158.93715L31.613303819444443,159.003525L31.642380208333336,158.84865L31.66127986111111,159.047775L31.694717708333332,159.11415L31.73833229166667,159.0699L31.749962847222225,158.93715L31.764501041666666,159.0699L31.811023263888888,159.11415L31.81829236111111,158.93715L31.921513541666666,158.9814L32.02037326388889,159.047775L32.03491145833333,159.12742500000002L32.072710763888885,159.11415L32.141040277777776,159.11415L32.162847569444445,158.93715L32.206462152777775,159.11415L32.27043020833334,159.056625L32.27188402777778,159.11415L32.327129166666666,159.11415L32.33730590277778,159.1407L32.36056701388889,159.0168L32.37510520833333,159.02122500000002L32.41871979166667,158.8752L32.46669583333333,158.985825L32.47251111111111,159.11415L32.481234027777774,158.985825L32.619346875,159.0699L32.70076076388889,159.20265L32.731290972222226,158.9637L32.790897569444446,158.946L32.80834340277778,159.136275L32.827243055555556,159.11415L32.83160451388889,158.93715L32.86795,158.897325L32.92464895833333,158.985825L32.94791006944444,159.074325L33.00315520833333,159.065475L33.026416319444444,158.8929L33.06276180555556,158.932725L33.118006944444446,159.1407L33.15144479166667,159.11415L33.23722013888889,159.11415L33.25321215277778,158.93715L33.25466597222223,159.162825L33.34480277777777,159.136275L33.35788715277778,159.00795L33.38260208333333,159.180525L33.41313229166667,159.11415L33.41894756944444,158.8929L33.430578125000004,159.11415L33.488730902777775,159.02564999999998L33.497453819444445,159.003525L33.55415277777777,158.93715L33.58904444444445,158.853075L33.631205208333334,159.00795L33.63265902777778,159.02122500000002L33.667550694444444,159.136275L33.68790416666667,159.109725L33.73006493055556,158.738025L33.74169548611111,159.06105L33.77513333333333,158.8929L33.78821770833333,159.065475L33.82165555555555,159.003525L33.83764756944445,158.93715L33.849278125,159.207075L33.93941493055556,159.06105L33.96412986111111,159.07875L33.99466006944444,159.11415L33.99611388888889,158.93715L34.07316631944444,159.047775L34.08043541666667,159.11415L34.138588194444445,159.11415L34.163303125,158.693775L34.189471874999995,159.207075L34.206917708333336,159.11415L34.23454027777778,159.1407L34.24907847222222,159.11415L34.29269305555555,159.074325L34.32176944444444,159.20265L34.37119930555556,158.932725L34.37556076388889,158.9106L34.427898263888885,158.93715L34.48459722222222,158.879625L34.503496874999996,159.11415L34.519488888888894,158.93715L34.53548090277778,158.870775L34.54420381944444,158.93715L34.65614791666666,159.0876L34.659055555555554,158.85750000000002L34.667778472222224,159.1407L34.67650138888889,159.11415L34.67940902777778,159.02122500000002L34.69394722222222,159.0876L34.705577777777776,159.0876L34.82479097222222,158.9991L34.843690625,158.994675L34.948365625,159.065475L35.06030972222222,158.93715L35.07194027777778,159.0168L35.13881597222222,158.86192499999999L35.16062326388889,158.93715L35.17370763888889,159.11415L35.191153472222226,159.11415L35.23767569444445,158.870775L35.29728229166667,158.9637L35.45574861111111,159.100875L35.46883298611111,158.870775L35.49936319444444,159.02122500000002L35.532801041666666,159.1407L35.550246875,159.0699L35.59967673611111,158.93715L35.666552430555555,158.870775L35.76395833333333,158.93715L35.77558888888889,159.109725L35.80611909722222,158.994675L35.81920347222222,159.056625L35.84246458333333,158.93715L35.86136423611111,159.003525L35.90061736111111,159.07875L35.96022395833333,158.93715L35.97476215277778,159.136275L36.03873020833333,158.693775L36.099790625,158.88405L36.128867013888886,158.897325L36.25825694444444,158.946L36.34257847222222,159.02122500000002L36.34693993055555,159.012375L36.37165486111111,158.93715L36.40945416666666,159.065475L36.47196840277778,159.11415L36.66968784722222,158.86635L36.719117708333336,159.06105L36.732202083333334,159.00795L36.74964791666667,158.9637L36.77290902777778,159.07875L36.78163194444444,158.86192499999999L36.7932625,159.047775L36.85286909722222,159.02122500000002L36.92992152777778,158.976975L36.934282986111114,158.93715L37.017150694444446,158.84865L37.05640381944445,158.9106L37.06512673611111,158.985825L37.066580555555554,158.93715L37.07239583333333,158.870775L37.134910069444445,158.8929L37.14799444444444,159.047775L37.15235590277778,158.8929L37.18870138888889,158.844225L37.21487013888889,159.02122500000002L37.24830798611111,158.578725L37.27447673611111,158.93715L37.328268055555554,158.968125L37.35007534722222,159.0168L37.351529166666666,158.994675L37.39950520833333,159.0876L37.432943055555555,158.799975L37.486734375,159.11415L37.530348958333335,159.003525L37.584140277777784,158.9637L37.58559409722222,158.93715L37.604493749999996,158.9283L37.74406041666666,158.90175L37.79930555555555,158.817675L37.80366701388889,159.11415L37.87490416666667,159.0876L37.911249652777784,159.038925L37.93887222222222,158.77785L37.94759513888889,159.180525L37.994117361111115,158.994675L37.99993263888889,158.764575L38.01447083333333,159.092025L38.03773194444444,158.93715L38.059539236111114,158.9283L38.140953124999996,158.70705L38.142406944444446,158.9283L38.229636111111105,158.95485L38.28051979166666,158.93715L38.32268055555555,158.835375L38.33285729166666,158.844225L38.45788576388888,158.95485L38.48986979166667,158.817675L38.52766909722222,158.88405L38.53639201388889,158.870775L38.59163715277778,159.02122500000002L38.62071354166667,158.70705L38.716665625,158.729175L38.72102708333333,158.83095L38.77772604166667,158.70705L38.85913993055556,158.738025L38.93764618055556,158.91944999999998L39.07721284722222,158.853075L39.213871875,158.561025L39.22841006944444,158.65395L39.25457881944445,158.592L39.27929375,158.773425L39.33453888888889,158.242425L39.379607291666666,158.9637L39.39123784722222,158.8929L39.397053125,158.702625L39.41449895833333,158.72475L39.42176805555555,158.472525L39.536619791666666,158.968125L39.59041111111111,158.640675L39.66600972222222,158.6274L39.7765,158.45925L39.795399652777775,158.587575L39.82447604166667,158.923875L39.85064479166667,158.592L39.95677361111112,158.684925L39.982942361111114,158.835375L40.00765729166667,158.782275L40.01783402777777,158.658375L40.057087152777775,158.277825L40.09197881944445,158.77785L40.11960138888889,157.8663L40.12832430555556,158.791125L40.170485069444446,158.799975L40.17339270833333,158.70705L40.20246909722222,158.75130000000001L40.23009166666667,158.791125L40.28533680555555,158.127375L40.29405972222222,158.667225L40.34494340277777,158.304375L40.34930486111111,158.70705L40.533939930555555,158.5389L40.59936180555555,158.40615L40.62843819444445,158.592L40.63570729166666,158.481375L40.683683333333335,158.76015L40.743289930555555,158.622975L40.77527395833333,158.755725L40.810165625,158.9283L40.862503125,158.817675L40.98898541666667,158.791125L40.993346875,158.79555L41.02678472222222,158.614125L41.03986909722222,158.6805L41.0849375,158.817675L41.130005902777775,158.791125L41.15181319444444,158.86192499999999L41.21723506944445,158.693775L41.43094652777778,158.47695L41.46147673611111,158.596425L41.47746875,158.5035L41.47892256944445,158.1672L41.50654513888889,158.587575L41.542890625,158.70705L41.630119791666665,158.93715L41.63448125,157.7955L41.73915625,158.879625L41.74642534722222,158.85750000000002L41.755148263888884,158.54775L41.82638541666667,157.853025L41.83510833333333,158.592L41.99066701388889,158.70705L42.09824965277778,158.030025L42.144771874999996,158.587575L42.21310138888889,157.897275L42.28288472222222,158.08755L42.35266805555556,158.056575L42.35557569444445,158.67165L42.37156770833333,158.3619L42.37592916666667,158.47695L42.38901354166667,158.490225L42.41808993055556,158.769L42.55765659722223,158.614125L42.641978125,158.764575L42.67541597222222,158.67165L42.70158472222222,158.5743L42.720484375000005,158.7336L42.76555277777778,158.769L42.84115138888889,158.415L42.91093472222222,158.587575L42.91384236111111,158.40615L42.91675,158.242425L42.93710347222222,158.746875L42.95454930555556,158.791125L43.05195520833333,158.6097L43.067947222222216,158.3088L43.18134513888889,158.592L43.25839756944445,158.592L43.26857430555555,158.03445L43.271481944444446,158.251275L43.427040625,158.587575L43.472109027777776,158.76015L43.49682395833334,157.968075L43.538984722222224,157.2999L43.66401319444444,158.6097L43.76432673611111,158.056575L43.84137916666667,158.083125L43.969315277777774,158.6097L43.98239965277778,158.592L44.01874513888889,158.19375L44.1205125,158.339775L44.207741666666664,158.6097L44.37638472222222,157.85745L44.456344791666666,158.58315L44.47960590277778,158.100825L44.494144097222225,158.791125L44.54793541666666,158.614125L44.62789548611111,158.58315L44.81107673611111,158.614125L44.90121354166667,158.277825L44.902667361111114,158.277825L44.97681215277778,157.906125L45.014611458333334,158.238L45.06549513888889,158.2734L45.17743923611111,157.764525L45.223961458333335,158.05214999999998L45.319913541666665,157.91055L45.42022708333334,158.592L45.42168090277777,158.348625L45.42749618055556,158.118525L45.43040381944445,158.640675L45.63684618055555,158.19375L45.67609930555555,158.44155L45.70953715277778,157.879575L45.812758333333335,158.03445L45.92034097222223,158.631825L45.93051770833333,157.53L45.933425347222226,158.2911L45.98285520833333,158.587575L46.09334548611111,158.769L46.21837395833334,157.622925L46.282342013888886,158.592L46.36375590277778,158.03445L46.573105902777776,158.21145L46.586190277777774,158.207025L46.64434305555556,158.37075L46.66760416666667,158.764575L46.685050000000004,158.2557L46.76937152777778,157.897275L46.78681736111111,158.769L46.81734756944445,158.207025L46.85369305555556,158.26012500000002L46.87695416666667,158.592L46.985990625,158.03445L46.99616736111111,157.64505L47.022336111111116,158.764575L47.11974201388889,158.06985L47.14009548611111,157.14945L47.349445486111115,158.614125L47.35089930555555,158.056575L47.50064270833333,157.6185L47.76087638888889,158.410575L47.833567361111115,157.68045L48.018202430555554,157.543275L48.14468472222222,158.454825L48.18103020833334,158.330925L48.198476041666666,158.26012500000002L48.220283333333334,158.81325L48.234821527777775,157.6539L48.303151041666666,158.15392500000002L48.33513506944445,158.207025L48.40201076388889,158.769L48.474701736111115,157.906125L48.55320798611111,157.906125L48.61281458333333,158.330925L48.621537499999995,158.587575L48.73057395833333,158.26012500000002L48.765465625,158.463675L48.78872673611111,158.769L48.80617256944445,158.592L48.81634930555556,158.614125L48.87595590277778,157.897275L48.93847013888889,158.238L48.98935381944444,158.118525L49.123105208333335,158.061L49.14200486111111,158.056575L49.390607986111114,156.826425L49.50400590277778,158.499075L49.525813194444446,157.879575L49.56506631944444,158.614125L49.70608680555556,157.295475L49.74388611111111,157.68045L49.80349270833333,158.10525L49.91543680555555,157.50345L49.92415972222222,158.76015L49.96050520833334,157.3707L50.002665972222225,157.578675L50.11751770833333,158.056575L50.15531701388889,158.22915L50.464980555555556,158.21145L50.510048958333336,158.437125L50.56384027777778,158.21145L50.658338541666666,157.2999L50.710676041666666,158.6805L50.75283680555555,157.499025L50.80953576388889,158.21145L50.844427430555555,157.171575L50.85315034722222,158.207025L50.860419444444446,158.28225L51.0814,158.047725L51.097392013888886,158.454825L51.26458125,158.592L51.29801909722222,158.6628L51.45067013888889,158.21145L51.51899965277778,157.6539L51.739980208333336,158.0256L51.747249305555556,157.5654L51.78214097222222,158.58315L51.79522534722222,158.162775L52.02492881944445,158.056575L52.08744305555555,158.030025L52.15577256944445,158.769L52.235732638888884,158.03445L52.29097777777778,158.769L52.36076111111112,158.17605L52.365122569444445,158.58315L52.385476041666664,158.21145L52.424729166666665,157.499025L52.59482604166667,158.415L52.62390243055555,157.92825L52.88413611111111,158.127375L52.924843055555556,158.061L52.982995833333334,158.769L53.03969479166666,158.61855L53.05277916666666,158.769L53.344996875,158.251275L53.407511111111106,157.897275L53.48747118055555,157.85745L53.58342326388889,158.769L53.65756805555556,158.047725L53.67210625,158.61855L53.70263645833333,158.083125L53.7506125,157.4769L53.88000243055556,157.251225L53.94833194444445,158.76015L54.00793854166667,158.145075L54.02247673611111,157.268925L54.071906597222224,157.145025L54.19548125,158.0256L54.20129652777778,158.640675L54.27544131944445,158.764575L54.59964305555555,157.472475L54.640350000000005,158.667225L54.65779583333333,157.445925L54.68977986111111,157.2468L54.79154722222222,157.702575L54.849700000000006,158.233575L54.886045486111115,157.16715L55.03578888888889,157.499025L55.06631909722222,158.233575L55.08376493055556,157.18485L55.55916388888889,158.592L55.67256180555556,158.03445L55.69582291666667,157.85745L55.71908402777778,158.614125L55.83393576388889,158.587575L55.84847395833334,157.71585L55.90517291666667,158.207025L56.07381597222223,157.109625L56.091261805555554,158.61855L56.10434618055555,157.50345L56.152322222222224,158.233575L56.24682048611111,158.1849L56.30497326388889,158.030025L56.32096527777778,157.4238L56.376210416666666,158.251275L56.45471666666667,158.286675L56.55648402777778,158.21145L56.59719097222222,158.083125L56.60591388888889,158.322075L56.687327777777774,158.08755L56.762926388888886,158.592L56.76583402777778,158.592L56.81235624999999,156.914925L57.087128125,158.15392500000002L57.136557986111114,158.061L57.30520104166667,158.21145L57.396791666666665,158.05214999999998L57.47675173611111,158.277825L57.479659375000004,157.4769L57.60178020833333,158.03445L57.687555555555555,157.649475L57.80676875,158.10525L57.873644444444444,158.061L57.918712847222224,158.207025L57.93179722222222,157.53L58.06845625,157.68045L58.23128402777778,157.85745L58.23564548611111,156.91935L58.24582222222222,158.592L58.27344479166667,157.6539L58.40719618055556,158.21145L58.49006388888889,157.6539L58.53222465277778,157.879575L58.54240138888889,158.083125L58.56857013888889,158.08755L58.618,157.906125L58.663068402777775,157.13175L58.664522222222224,158.769L58.82444236111112,158.05214999999998L58.841888194444444,158.614125L58.866603125000005,158.233575L59.038153819444446,157.73355L59.05705347222222,157.4769L59.20388923611111,157.32645L59.27803402777778,157.39724999999999L59.31874097222222,157.85745L59.51064513888889,158.21145L59.560075,158.21145L59.61968159722222,158.03445L59.64294270833333,158.03445L59.776694097222226,156.773325L59.81885486111111,156.7158L59.901722569444445,156.817575L59.95115243055555,158.764575L59.97586736111111,158.21145L60.079088541666664,157.091925L60.103803472222225,158.26012500000002L60.11398020833334,157.330875L60.40619791666667,156.7158L60.42945902777778,158.0256L60.43236666666667,158.074275L60.62863229166666,156.8928L60.67370069444445,157.0875L60.71876909722222,158.030025L60.77256041666667,157.6539L60.933934375,158.083125L61.09530833333333,157.2999L61.138922916666665,157.348575L61.20870625,156.7158L61.281397222222225,157.676025L61.31919652777778,157.4769L61.3918875,156.76005L61.42823298611111,157.853025L61.49365486111111,158.030025L61.51546215277777,156.5919L61.653575000000004,158.21145L61.80767986111111,157.923825L61.862925,158.03445L62.00830694444444,157.4946L62.011214583333334,158.083125L62.01557604166666,156.93705L62.13478923611111,156.7512L62.287440277777776,156.348525L62.45753715277778,157.499025L62.55203541666666,158.233575L62.579657986111116,156.93705L62.81517673611111,157.357425L63.14519375,157.3176L63.299298611111105,156.33525L63.478118402777774,158.22915L63.502833333333335,157.322025L63.57988576388889,157.4238L63.76742847222222,157.3176L63.891003125000005,157.339725L63.93607152777778,156.914925L64.05092326388889,156.86625L64.07709201388889,156.6627L64.100353125,157.85745L64.15850590277778,156.6627L64.20357430555556,157.375125L64.36349444444444,157.09635L64.66734270833334,158.03445L65.29975416666666,156.8397L65.32883055555556,156.835275L65.36372222222222,156.8397L65.42332881944444,157.707L65.591971875,158.03445L65.76933784722222,157.136175L65.80859097222223,156.6804L66.03974826388888,156.675975L66.09644722222222,156.68925L66.11970833333334,157.1406L66.17059201388888,156.88395L66.40465694444445,156.693675L66.49915520833333,156.86625L66.61691458333333,156.658275L66.68524409722222,156.879525L66.69687465277778,156.8928L66.72740486111111,156.7689L66.91494756944445,156.746775L66.97455416666666,156.91935L67.27113333333334,156.86625L67.37871597222222,156.9105L67.71309444444445,156.675975L67.75961666666667,156.729075L68.21175451388889,156.8397L68.3033451388889,156.702525L68.50397222222222,156.906075L68.88632673611112,156.720225L69.30502673611112,156.560925L69.33991840277778,156.746775L69.40970173611112,156.065325L69.53618402777778,156.2733L69.67284305555556,156.348525L69.86183958333334,156.31755L69.93162291666667,156.70695L69.94179965277779,156.746775L70.2892625,156.645L70.3125236111111,156.70695L70.50878923611111,156.6627L70.53350416666667,155.94585L70.60619513888889,156.4857L70.62654861111112,156.8751L70.65126354166667,156.7512L70.71959305555556,156.58305000000001L70.75593854166667,156.737925L70.84607534722223,156.861825L71.00308784722222,155.59185L71.17463854166667,156.5211L71.29094409722222,156.15825L71.67039097222222,156.375075L71.80123472222222,156.33525L71.846303125,156.870675L71.90009444444443,155.852925L72.42783090277777,156.498975L72.51506006944444,156.189225L72.75784791666668,156.68925L72.88433020833334,155.99895L73.07187291666666,156.888375L73.25941562499999,156.410475L73.26813854166666,156.507825L73.35827534722222,154.923675L73.46004270833333,156.534375L73.56326388888888,156.90165L73.586525,156.6981L73.91944965277779,156.6981L73.97760243055556,156.729075L74.01249409722223,156.52994999999999L74.31488854166666,156.8751L74.39630243055556,156.9105L74.83535590277778,156.8928L74.934215625,156.729075L75.04906736111111,156.720225L75.30930104166667,156.4149L75.44596006944444,156.86625L75.48085173611112,155.99895L75.72509340277777,156.428175L75.86175243055555,156.711375L75.97078888888889,156.755625L76.02312638888888,156.675975L76.06237951388889,156.180375L76.14233958333332,156.7158L76.26009895833333,156.534375L76.48689479166667,156.01665L76.51887881944444,156.5919L76.63954583333333,156.291L76.67152986111111,156.74235L76.92449444444445,156.720225L76.97973958333334,156.888375L76.98264722222221,156.711375L77.027715625,156.5388L77.19199722222223,156.35295L77.20653541666667,156.702525L77.23561180555555,156.746775L77.5118375,156.6096L77.61360486111111,156.3264L77.76334826388889,156.401625L77.78079409722221,155.76885L77.93635277777777,156.649425L77.98869027777778,156.8574L78.2343857638889,156.295425L78.30562291666668,156.737925L78.31434583333333,156.658275L78.35650659722222,156.70695L78.50625,155.587425L78.58475625,156.3441L78.58911770833333,156.375075L78.74322256944444,155.57415L78.81591354166667,156.658275L78.81882118055555,156.36180000000002L78.9278576388889,156.144975L78.95257256944444,156.711375L79.12703090277778,156.870675L79.29712777777779,156.339675L79.42070243055556,156.348525L79.49048576388888,156.15382499999998L79.68238993055556,156.33525L79.70710486111112,156.17595L79.78415729166667,156.684825L79.82195659722223,155.206875L80.15051979166667,155.613975L80.27845590277778,155.897175L80.58375798611111,155.640525L80.6288263888889,156.15825L80.81346145833334,156.45915L80.96611250000001,155.73345L80.97192777777778,155.295375L81.24233819444444,153.065175L81.79624340277778,154.932525L81.90964131944445,152.304075L81.921271875,152.268675L82.11317604166668,155.012175L82.34287951388889,155.9016L82.66562743055555,155.613975L82.67435034722222,149.1048L82.72523402777779,149.357025L82.87352361111111,154.844025L82.87788506944445,156.8397L82.968021875,156.3441L83.10322708333334,155.516625L83.40998298611112,156.3441L83.42742881944444,156.162675L83.43324409722221,155.0697L83.44342083333333,155.7954L83.8679361111111,156.906075L83.98714930555555,155.472375L84.41602604166667,152.91915L84.68789027777777,151.71555L84.71260520833333,154.2732L84.82164166666666,152.268675L85.1952732638889,153.5121L85.4903986111111,156.888375L85.76953194444445,156.37065L86.21003923611111,152.8395L86.23475416666668,151.3173L86.26819201388889,156.84855L86.34524444444445,154.1316L86.44555798611111,152.808525L86.59675520833333,153.374925L86.68834583333333,154.144875L87.08669236111112,154.844025L87.26405833333334,152.613825L87.36437187499999,154.99005L87.54900694444444,154.17585L87.62024409722223,155.9547L87.81796354166667,154.63605L88.00550625,142.70625L88.09855069444444,155.242275L88.13344236111112,155.994525L88.1886875,154.83075L88.97084236111111,151.94565L88.98538055555555,155.53875L89.09587083333332,153.22005000000001L90.06556840277777,146.24625L90.39413159722223,154.888275L90.57731284722222,149.6535L91.12540277777778,149.808375L91.18064791666666,152.233275L91.29840729166666,151.870425L91.65459305555557,156.35295L91.72873784722222,155.98125L91.92500347222223,151.3527L91.99769444444445,153.445725L92.11399999999999,154.6626L92.11981527777778,153.392625L92.50071597222222,155.8131L92.82927916666667,151.702275L92.90633159722222,153.1935L93.09678194444444,155.55202500000001L93.23925625,150.587175L93.48640555555555,151.914675L94.19732326388889,150.109275L94.31362881944443,152.073975L94.49099479166667,152.21115L94.93586354166668,150.985425L95.18155902777778,151.941225L95.44906180555554,153.9192L95.49413020833333,150.97215L96.22103993055555,150.93675L96.85490520833334,155.7777L96.89997361111111,152.799675L96.915965625,146.8392L97.75772708333334,144.170925L97.79552638888889,153.50325L97.94963125000001,147.972L98.27092534722223,150.40575L98.4104920138889,145.95862499999998L98.91351354166667,146.666625L99.43834236111111,140.75925L99.45578819444444,146.88345L99.96607881944445,147.57375L100.07802291666667,135.37845L100.90524618055557,140.993775L101.01864409722224,147.923325L101.24689375000001,145.392225L101.312315625,149.675625L102.22386041666667,150.242025L102.44774861111111,147.896775L102.86790243055556,147.047175L103.96989756944446,146.65777500000002L104.08184166666666,150.303975L104.25484618055556,143.108925L104.53834097222222,147.7773L104.59503993055556,137.9715L105.11696111111111,138.418425L105.45279340277779,149.215425L106.179703125,154.45905L106.6929013888889,150.410175L107.10723993055556,151.9368L107.61753055555556,148.958775L108.33135590277779,138.338775L108.99284374999999,146.693175L109.20510138888889,142.728375L109.61217083333334,144.073575L109.66741597222222,151.843875L109.69213090277778,147.932175L109.84478194444445,147.44985L110.07448541666668,152.781975L110.36088784722222,142.383225L110.5266232638889,152.604975L110.87990138888888,152.976675L110.94823090277777,147.96314999999998L111.30441666666667,151.127025L111.478875,144.834675L111.85250659722223,152.397L112.6462920138889,139.409625L112.77132048611111,143.2815L113.07371493055555,143.852325L113.22055069444446,151.304025L113.29324166666667,141.453975L113.71048784722223,144.241725L113.83987777777777,150.746475L113.94746041666667,149.4411L114.14954131944445,152.958975L114.72816145833333,151.53855L114.73252291666667,143.843475L115.46960937499999,147.410025L115.68041319444444,146.109075L115.84614861111112,153.36165L115.91011666666667,142.0956L116.57451215277777,152.9988L117.02083472222222,149.277375L117.16330902777779,148.75965L117.34212881944444,133.444725L117.80298958333333,149.07825L118.06322326388889,154.454625L118.50227673611111,134.542125L118.88753888888888,146.93655L119.46615902777778,152.224425L120.05495590277778,151.826175L120.22650659722223,137.6883L120.31809722222222,151.268625L120.76005833333333,152.781975L122.70381493055555,144.073575L122.82012048611112,150.2022L123.00620937500001,144.578025L123.37257187499999,143.02927499999998L123.40600972222222,154.074075L123.79854097222221,146.6268L124.46875173611112,150.711075L124.5341736111111,138.19275L124.66065590277778,150.0429L124.66937881944445,151.472175L124.77986909722223,148.857L124.81912222222222,141.41415L125.00375729166667,142.170825L125.66815277777778,151.870425L125.76265104166666,142.365525L125.99671597222222,150.1491L126.826846875,139.383075L126.97513645833334,142.011525L127.68460034722223,149.595975L127.75292986111111,148.312725L127.87214305555555,152.764275L128.3649878472222,151.85715L129.00757604166665,155.171475L129.679240625,141.622125L130.1081173611111,119.11215L130.3727125,140.69287500000002L130.40033506944445,137.002425L130.93388680555557,143.108925L130.93970208333332,149.595975L131.58229027777776,146.8569L131.81926284722223,150.52965L131.91957638888888,135.135075L134.5146440972222,123.05924999999999L134.9871354166667,139.560075L135.40728923611113,124.8381L137.04865138888889,121.745025L138.8048652777778,112.91272500000001L138.87755625,127.04175000000001L140.00572013888888,93.575475L140.44913506944445,138.8211L140.81404375,132.74115L141.24582812499997,120.081225L142.68947083333333,123.57255L143.54431666666667,112.939275L144.10403715277778,133.480125L146.71945833333334,80.459775L151.07946284722223,84.159075L152.54200520833334,61.07384999999999L159.38222569444446,65.963475L159.3967638888889,92.82765L159.433109375,58.14450000000001L160.5292892361111,90.230175L160.5612732638889,53.622150000000005L161.63273819444444,113.28L164.9648923611111,87.5088L166.51321006944445,110.585175L167.10927604166665,93.64185L168.82623680555554,52.024725000000004L170.14630486111113,72.654075L174.33185104166668,105.584925L176.61580138888888,139.568925L177.61166770833333,69.561L180.34775590277778,64.27754999999999L183.07366736111112,97.956225L184.2192770833333,19.350525000000005L184.87640347222222,101.646675L190.56519895833333,45.714675L190.68295833333335,87.5442L192.98580833333335,18.797399999999982L194.0965263888889,95.05785L194.45125833333333,17.7354L198.0785378472222,22.222350000000006L201.36707743055555,34.99289999999999L202.82816597222222,49.670625L202.84415798611113,15.651224999999982L204.2761701388889,54.76822499999999L204.39974479166668,54.635475L206.68078749999998,14.894549999999981L212.09626493055555,13.801575000000014L213.61696006944445,77.14987500000001L220.30452951388887,91.416075L220.60401631944444,13.642275000000012L222.26282430555557,25.063199999999995L227.49512048611112,26.200424999999996L228.05338715277776,12.505050000000011L233.60697743055556,13.474124999999987L238.00332743055557,12.040424999999999L240.229125,11.398799999999994L245.4265295138889,113.3508L249.71384305555554,14.381249999999994L251.92219479166667,10.819124999999985L251.92510243055554,12.580275L251.92655625,79.35352499999999L251.92946388888888,13.37677499999998L251.93237152777778,15.593699999999984L251.9338253472222,12.593550000000022L251.93527916666667,84.98212500000001L251.9367329861111,12.624525000000006" style="fill: none;" fill="none"></path></g></g></g></g></g></g><g transform="translate(68, 177)" clip-path="url(#clip_1)"><clipPath id="clip_1"><rect width="261" height="23"></rect></clipPath><g><g><line x1="0" y1="0" x2="0" y2="5" style="visibility: inherit;" fill="rgb(0, 0, 0)" stroke="rgb(204, 204, 204)" stroke-width="1px"></line><line x1="29.076388888888886" y1="0" x2="29.076388888888886" y2="5" style="visibility: inherit;" fill="rgb(0, 0, 0)" stroke="rgb(204, 204, 204)" stroke-width="1px"></line><line x1="58.15277777777777" y1="0" x2="58.15277777777777" y2="5" style="visibility: inherit;" fill="rgb(0, 0, 0)" stroke="rgb(204, 204, 204)" stroke-width="1px"></line><line x1="87.22916666666666" y1="0" x2="87.22916666666666" y2="5" style="visibility: inherit;" fill="rgb(0, 0, 0)" stroke="rgb(204, 204, 204)" stroke-width="1px"></line><line x1="116.30555555555554" y1="0" x2="116.30555555555554" y2="5" style="visibility: inherit;" fill="rgb(0, 0, 0)" stroke="rgb(204, 204, 204)" stroke-width="1px"></line><line x1="145.38194444444446" y1="0" x2="145.38194444444446" y2="5" style="visibility: inherit;" fill="rgb(0, 0, 0)" stroke="rgb(204, 204, 204)" stroke-width="1px"></line><line x1="174.45833333333331" y1="0" x2="174.45833333333331" y2="5" style="visibility: inherit;" fill="rgb(0, 0, 0)" stroke="rgb(204, 204, 204)" stroke-width="1px"></line><line x1="203.53472222222223" y1="0" x2="203.53472222222223" y2="5" style="visibility: inherit;" fill="rgb(0, 0, 0)" stroke="rgb(204, 204, 204)" stroke-width="1px"></line><line x1="232.6111111111111" y1="0" x2="232.6111111111111" y2="5" style="visibility: inherit;" fill="rgb(0, 0, 0)" stroke="rgb(204, 204, 204)" stroke-width="1px"></line><line x1="261.6875" y1="0" x2="261.6875" y2="5" style="visibility: inherit;" fill="rgb(0, 0, 0)" stroke="rgb(204, 204, 204)" stroke-width="1px"></line></g><g transform="translate(0, 8)"><text x="0" y="0" dx="0em" dy="0.95em" style="text-anchor: middle; visibility: hidden; font-family: &quot;Helvetica Neue&quot;, sans-serif; font-size: 12px; font-weight: 200;" fill="rgb(50, 49, 63)" stroke="none" stroke-width="1px">-20k</text><text x="29.076388888888886" y="0" dx="0em" dy="0.95em" style="text-anchor: middle; visibility: inherit; font-family: &quot;Helvetica Neue&quot;, sans-serif; font-size: 12px; font-weight: 200;" fill="rgb(50, 49, 63)" stroke="none" stroke-width="1px">0</text><text x="58.15277777777777" y="0" dx="0em" dy="0.95em" style="text-anchor: middle; visibility: hidden; font-family: &quot;Helvetica Neue&quot;, sans-serif; font-size: 12px; font-weight: 200;" fill="rgb(50, 49, 63)" stroke="none" stroke-width="1px">20k</text><text x="87.22916666666666" y="0" dx="0em" dy="0.95em" style="text-anchor: middle; visibility: inherit; font-family: &quot;Helvetica Neue&quot;, sans-serif; font-size: 12px; font-weight: 200;" fill="rgb(50, 49, 63)" stroke="none" stroke-width="1px">40k</text><text x="116.30555555555554" y="0" dx="0em" dy="0.95em" style="text-anchor: middle; visibility: hidden; font-family: &quot;Helvetica Neue&quot;, sans-serif; font-size: 12px; font-weight: 200;" fill="rgb(50, 49, 63)" stroke="none" stroke-width="1px">60k</text><text x="145.38194444444446" y="0" dx="0em" dy="0.95em" style="text-anchor: middle; visibility: inherit; font-family: &quot;Helvetica Neue&quot;, sans-serif; font-size: 12px; font-weight: 200;" fill="rgb(50, 49, 63)" stroke="none" stroke-width="1px">80k</text><text x="174.45833333333331" y="0" dx="0em" dy="0.95em" style="text-anchor: middle; visibility: hidden; font-family: &quot;Helvetica Neue&quot;, sans-serif; font-size: 12px; font-weight: 200;" fill="rgb(50, 49, 63)" stroke="none" stroke-width="1px">100k</text><text x="203.53472222222223" y="0" dx="0em" dy="0.95em" style="text-anchor: middle; visibility: inherit; font-family: &quot;Helvetica Neue&quot;, sans-serif; font-size: 12px; font-weight: 200;" fill="rgb(50, 49, 63)" stroke="none" stroke-width="1px">120k</text><text x="232.6111111111111" y="0" dx="0em" dy="0.95em" style="text-anchor: middle; visibility: hidden; font-family: &quot;Helvetica Neue&quot;, sans-serif; font-size: 12px; font-weight: 200;" fill="rgb(50, 49, 63)" stroke="none" stroke-width="1px">140k</text><text x="261.6875" y="0" dx="0em" dy="0.95em" style="text-anchor: middle; visibility: hidden; font-family: &quot;Helvetica Neue&quot;, sans-serif; font-size: 12px; font-weight: 200;" fill="rgb(50, 49, 63)" stroke="none" stroke-width="1px">160k</text></g><line x1="0" y1="0" x2="261.6875" y2="0" fill="rgb(0, 0, 0)" stroke="rgb(204, 204, 204)" stroke-width="1px"></line></g></g></g></g></svg>