<svg viewBox="0 0 330 200" xmlns="http://www.w3.org/2000/svg"><g><g><g><g><g><line x1="68.3125" y1="177" x2="63.3125" y2="177" style="visibility: inherit;" fill="rgb(0, 0, 0)" stroke="rgb(204, 204, 204)" stroke-width="1px"></line><line x1="68.3125" y1="163.3846153846154" x2="63.3125" y2="163.3846153846154" style="visibility: inherit;" fill="rgb(0, 0, 0)" stroke="rgb(204, 204, 204)" stroke-width="1px"></line><line x1="68.3125" y1="149.76923076923077" x2="63.3125" y2="149.76923076923077" style="visibility: inherit;" fill="rgb(0, 0, 0)" stroke="rgb(204, 204, 204)" stroke-width="1px"></line><line x1="68.3125" y1="136.15384615384616" x2="63.3125" y2="136.15384615384616" style="visibility: inherit;" fill="rgb(0, 0, 0)" stroke="rgb(204, 204, 204)" stroke-width="1px"></line><line x1="68.3125" y1="122.53846153846153" x2="63.3125" y2="122.53846153846153" style="visibility: inherit;" fill="rgb(0, 0, 0)" stroke="rgb(204, 204, 204)" stroke-width="1px"></line><line x1="68.3125" y1="108.92307692307692" x2="63.3125" y2="108.92307692307692" style="visibility: inherit;" fill="rgb(0, 0, 0)" stroke="rgb(204, 204, 204)" stroke-width="1px"></line><line x1="68.3125" y1="95.3076923076923" x2="63.3125" y2="95.3076923076923" style="visibility: inherit;" fill="rgb(0, 0, 0)" stroke="rgb(204, 204, 204)" stroke-width="1px"></line><line x1="68.3125" y1="81.6923076923077" x2="63.3125" y2="81.6923076923077" style="visibility: inherit;" fill="rgb(0, 0, 0)" stroke="rgb(204, 204, 204)" stroke-width="1px"></line><line x1="68.3125" y1="68.07692307692307" x2="63.3125" y2="68.07692307692307" style="visibility: inherit;" fill="rgb(0, 0, 0)" stroke="rgb(204, 204, 204)" stroke-width="1px"></line><line x1="68.3125" y1="54.46153846153847" x2="63.3125" y2="54.46153846153847" style="visibility: inherit;" fill="rgb(0, 0, 0)" stroke="rgb(204, 204, 204)" stroke-width="1px"></line><line x1="68.3125" y1="40.84615384615384" x2="63.3125" y2="40.84615384615384" style="visibility: inherit;" fill="rgb(0, 0, 0)" stroke="rgb(204, 204, 204)" stroke-width="1px"></line><line x1="68.3125" y1="27.230769230769226" x2="63.3125" y2="27.230769230769226" style="visibility: inherit;" fill="rgb(0, 0, 0)" stroke="rgb(204, 204, 204)" stroke-width="1px"></line><line x1="68.3125" y1="13.615384615384613" x2="63.3125" y2="13.615384615384613" style="visibility: inherit;" fill="rgb(0, 0, 0)" stroke="rgb(204, 204, 204)" stroke-width="1px"></line><line x1="68.3125" y1="0" x2="63.3125" y2="0" style="visibility: inherit;" fill="rgb(0, 0, 0)" stroke="rgb(204, 204, 204)" stroke-width="1px"></line></g><g transform="translate(58.3125, 0)"><text x="0" y="177" dx="0em" dy="0.3em" style="text-anchor: end; visibility: hidden; font-family: &quot;Helvetica Neue&quot;, sans-serif; font-size: 12px; font-weight: 200;" fill="rgb(50, 49, 63)" stroke="none" stroke-width="1px">-5e+4</text><text x="0" y="163.3846153846154" dx="0em" dy="0.3em" style="text-anchor: end; visibility: inherit; font-family: &quot;Helvetica Neue&quot;, sans-serif; font-size: 12px; font-weight: 200;" fill="rgb(50, 49, 63)" stroke="none" stroke-width="1px">0</text><text x="0" y="149.76923076923077" dx="0em" dy="0.3em" style="text-anchor: end; visibility: hidden; font-family: &quot;Helvetica Neue&quot;, sans-serif; font-size: 12px; font-weight: 200;" fill="rgb(50, 49, 63)" stroke="none" stroke-width="1px">5e+4</text><text x="0" y="136.15384615384616" dx="0em" dy="0.3em" style="text-anchor: end; visibility: inherit; font-family: &quot;Helvetica Neue&quot;, sans-serif; font-size: 12px; font-weight: 200;" fill="rgb(50, 49, 63)" stroke="none" stroke-width="1px">1e+5</text><text x="0" y="122.53846153846153" dx="0em" dy="0.3em" style="text-anchor: end; visibility: hidden; font-family: &quot;Helvetica Neue&quot;, sans-serif; font-size: 12px; font-weight: 200;" fill="rgb(50, 49, 63)" stroke="none" stroke-width="1px">1.5e+5</text><text x="0" y="108.92307692307692" dx="0em" dy="0.3em" style="text-anchor: end; visibility: inherit; font-family: &quot;Helvetica Neue&quot;, sans-serif; font-size: 12px; font-weight: 200;" fill="rgb(50, 49, 63)" stroke="none" stroke-width="1px">2e+5</text><text x="0" y="95.3076923076923" dx="0em" dy="0.3em" style="text-anchor: end; visibility: hidden; font-family: &quot;Helvetica Neue&quot;, sans-serif; font-size: 12px; font-weight: 200;" fill="rgb(50, 49, 63)" stroke="none" stroke-width="1px">2.5e+5</text><text x="0" y="81.6923076923077" dx="0em" dy="0.3em" style="text-anchor: end; visibility: inherit; font-family: &quot;Helvetica Neue&quot;, sans-serif; font-size: 12px; font-weight: 200;" fill="rgb(50, 49, 63)" stroke="none" stroke-width="1px">3e+5</text><text x="0" y="68.07692307692307" dx="0em" dy="0.3em" style="text-anchor: end; visibility: hidden; font-family: &quot;Helvetica Neue&quot;, sans-serif; font-size: 12px; font-weight: 200;" fill="rgb(50, 49, 63)" stroke="none" stroke-width="1px">3.5e+5</text><text x="0" y="54.46153846153847" dx="0em" dy="0.3em" style="text-anchor: end; visibility: inherit; font-family: &quot;Helvetica Neue&quot;, sans-serif; font-size: 12px; font-weight: 200;" fill="rgb(50, 49, 63)" stroke="none" stroke-width="1px">4e+5</text><text x="0" y="40.84615384615384" dx="0em" dy="0.3em" style="text-anchor: end; visibility: hidden; font-family: &quot;Helvetica Neue&quot;, sans-serif; font-size: 12px; font-weight: 200;" fill="rgb(50, 49, 63)" stroke="none" stroke-width="1px">4.5e+5</text><text x="0" y="27.230769230769226" dx="0em" dy="0.3em" style="text-anchor: end; visibility: inherit; font-family: &quot;Helvetica Neue&quot;, sans-serif; font-size: 12px; font-weight: 200;" fill="rgb(50, 49, 63)" stroke="none" stroke-width="1px">5e+5</text><text x="0" y="13.615384615384613" dx="0em" dy="0.3em" style="text-anchor: end; visibility: hidden; font-family: &quot;Helvetica Neue&quot;, sans-serif; font-size: 12px; font-weight: 200;" fill="rgb(50, 49, 63)" stroke="none" stroke-width="1px">5.5e+5</text><text x="0" y="0" dx="0em" dy="0.3em" style="text-anchor: end; visibility: hidden; font-family: &quot;Helvetica Neue&quot;, sans-serif; font-size: 12px; font-weight: 200;" fill="rgb(50, 49, 63)" stroke="none" stroke-width="1px">6e+5</text></g><line x1="68.3125" y1="0" x2="68.3125" y2="177" fill="rgb(0, 0, 0)" stroke="rgb(204, 204, 204)" stroke-width="1px"></line></g></g><g transform="translate(68, 0)" clip-path="url(#clip_0)"><clipPath id="clip_0"><rect width="261" height="177"></rect></clipPath><g><g><g><line x1="0" y1="0" x2="0" y2="177" fill="rgb(0, 0, 0)" stroke="rgb(60, 60, 60)" stroke-width="1px" opacity="0.25"></line><line x1="29.076388888888886" y1="0" x2="29.076388888888886" y2="177" fill="rgb(0, 0, 0)" stroke="rgb(60, 60, 60)" stroke-width="1px" opacity="0.25"></line><line x1="58.15277777777777" y1="0" x2="58.15277777777777" y2="177" fill="rgb(0, 0, 0)" stroke="rgb(60, 60, 60)" stroke-width="1px" opacity="0.25"></line><line x1="87.22916666666666" y1="0" x2="87.22916666666666" y2="177" fill="rgb(0, 0, 0)" stroke="rgb(60, 60, 60)" stroke-width="1px" opacity="0.25"></line><line x1="116.30555555555554" y1="0" x2="116.30555555555554" y2="177" fill="rgb(0, 0, 0)" stroke="rgb(60, 60, 60)" stroke-width="1px" opacity="0.25"></line><line x1="145.38194444444446" y1="0" x2="145.38194444444446" y2="177" fill="rgb(0, 0, 0)" stroke="rgb(60, 60, 60)" stroke-width="1px" opacity="0.25"></line><line x1="174.45833333333331" y1="0" x2="174.45833333333331" y2="177" fill="rgb(0, 0, 0)" stroke="rgb(60, 60, 60)" stroke-width="1px" opacity="0.25"></line><line x1="203.53472222222223" y1="0" x2="203.53472222222223" y2="177" fill="rgb(0, 0, 0)" stroke="rgb(60, 60, 60)" stroke-width="1px" opacity="0.25"></line><line x1="232.6111111111111" y1="0" x2="232.6111111111111" y2="177" fill="rgb(0, 0, 0)" stroke="rgb(60, 60, 60)" stroke-width="1px" opacity="0.25"></line><line x1="261.6875" y1="0" x2="261.6875" y2="177" fill="rgb(0, 0, 0)" stroke="rgb(60, 60, 60)" stroke-width="1px" opacity="0.25"></line></g><g><line x1="0" y1="177" x2="261.6875" y2="177" fill="rgb(0, 0, 0)" stroke="rgb(60, 60, 60)" stroke-width="1px" opacity="0.25"></line><line x1="0" y1="163.3846153846154" x2="261.6875" y2="163.3846153846154" fill="rgb(0, 0, 0)" stroke="rgb(60, 60, 60)" stroke-width="1px" opacity="0.25"></line><line x1="0" y1="149.76923076923077" x2="261.6875" y2="149.76923076923077" fill="rgb(0, 0, 0)" stroke="rgb(60, 60, 60)" stroke-width="1px" opacity="0.25"></line><line x1="0" y1="136.15384615384616" x2="261.6875" y2="136.15384615384616" fill="rgb(0, 0, 0)" stroke="rgb(60, 60, 60)" stroke-width="1px" opacity="0.25"></line><line x1="0" y1="122.53846153846153" x2="261.6875" y2="122.53846153846153" fill="rgb(0, 0, 0)" stroke="rgb(60, 60, 60)" stroke-width="1px" opacity="0.25"></line><line x1="0" y1="108.92307692307692" x2="261.6875" y2="108.92307692307692" fill="rgb(0, 0, 0)" stroke="rgb(60, 60, 60)" stroke-width="1px" opacity="0.25"></line><line x1="0" y1="95.3076923076923" x2="261.6875" y2="95.3076923076923" fill="rgb(0, 0, 0)" stroke="rgb(60, 60, 60)" stroke-width="1px" opacity="0.25"></line><line x1="0" y1="81.6923076923077" x2="261.6875" y2="81.6923076923077" fill="rgb(0, 0, 0)" stroke="rgb(60, 60, 60)" stroke-width="1px" opacity="0.25"></line><line x1="0" y1="68.07692307692307" x2="261.6875" y2="68.07692307692307" fill="rgb(0, 0, 0)" stroke="rgb(60, 60, 60)" stroke-width="1px" opacity="0.25"></line><line x1="0" y1="54.46153846153847" x2="261.6875" y2="54.46153846153847" fill="rgb(0, 0, 0)" stroke="rgb(60, 60, 60)" stroke-width="1px" opacity="0.25"></line><line x1="0" y1="40.84615384615384" x2="261.6875" y2="40.84615384615384" fill="rgb(0, 0, 0)" stroke="rgb(60, 60, 60)" stroke-width="1px" opacity="0.25"></line><line x1="0" y1="27.230769230769226" x2="261.6875" y2="27.230769230769226" fill="rgb(0, 0, 0)" stroke="rgb(60, 60, 60)" stroke-width="1px" opacity="0.25"></line><line x1="0" y1="13.615384615384613" x2="261.6875" y2="13.615384615384613" fill="rgb(0, 0, 0)" stroke="rgb(60, 60, 60)" stroke-width="1px" opacity="0.25"></line><line x1="0" y1="0" x2="261.6875" y2="0" fill="rgb(0, 0, 0)" stroke="rgb(60, 60, 60)" stroke-width="1px" opacity="0.25"></line></g></g></g><g><g><line x1="0" y1="163.3846153846154" x2="261.6875" y2="163.3846153846154" fill="rgb(0, 0, 0)" stroke="rgb(153, 153, 153)" stroke-width="1.5px"></line></g></g><g><g><line x1="29.076388888888886" y1="0" x2="29.076388888888886" y2="177" fill="rgb(0, 0, 0)" stroke="rgb(153, 153, 153)" stroke-width="1.5px"></line></g></g><g><g><g><g><g><path stroke="rgb(255, 112, 67)" stroke-width="2px" d="M29.29010034722222,163.0850769230769L29.301730902777777,163.0564129554656L29.30318472222222,163.03684530229918L29.32644583333333,163.01919730690943L29.583771875,163.0219855361849L29.58667951388889,163.00639252457657L29.59104097222222,162.95362005657714L29.602671527777776,162.95279534907363L29.617209722222224,162.96105374906946L29.634655555555554,162.9675529760138L29.650647569444445,162.97674320953274L29.711707986111108,162.99184050227984L29.716069444444447,162.98243490659425L29.915242708333334,162.9922129292741L29.95594965277778,162.99704884748297L29.969034027777777,162.9911416559009L30.001018055555555,162.98607478708405L30.01991770833333,162.9945194174797L30.30632013888889,163.00184114839462L30.328127430555554,162.9989168975337L30.336850347222224,162.99941856080704L30.354296180555554,162.99683795920492L30.35865763888889,162.96170158680246L30.381918749999997,162.9543947408572L30.524393055555553,162.91273365669198L30.630521875,162.92533608253828L30.67268263888889,162.8757988184848L30.677044097222222,162.88638853136897L30.684313194444446,162.9015241225157L30.703212847222222,162.88941211436335L30.826787500000002,162.89276817423493L30.880578819444445,162.90704304935016L30.948908333333335,162.90855468963755L30.988161458333334,162.9155079964929L31.066667708333334,162.92731426455404L31.087021180555553,162.9295249489728L31.217864930555553,162.94540206377042L31.226587847222223,162.9513080921593L31.341439583333333,162.9621397894951L31.35307013888889,162.96356221993886L31.42866875,162.93448067052665L31.576958333333334,162.9331863378253L31.584227430555554,162.91275524594855L31.58858888888889,162.91365770392326L31.613303819444443,162.91172118551498L31.680179513888888,162.90998155572677L31.73397083333333,162.85356919989968L31.74269375,162.87138718862872L31.747055208333336,162.86275287222435L31.82701527777778,162.87415171669934L31.895344791666666,162.8789279297743L31.976758680555555,162.88048780242175L32.00728888888889,162.865490367593L32.04072673611111,162.87932657802222L32.13813263888889,162.88630747253853L32.206462152777775,162.884394562887L32.222454166666665,162.86902491218362L32.279153125,162.8770324937273L32.29369131944445,162.88423593500042L32.31404479166667,162.86343650316869L32.335852083333336,162.85017910384468L32.39982013888889,162.8491597096521L32.488503125,162.8536958349502L32.59753958333334,162.85232463478488L32.66586909722222,162.8592687706135L32.82433541666667,162.84643733177222L32.83887361111111,162.81308801162882L32.86504236111111,162.80488055386178L33.05113125,162.81384489328238L33.081661458333336,162.83008596487986L33.102014930555555,162.8419763813382L33.138360416666664,162.81453404619856L33.147083333333335,162.81980612666112L33.302642013888885,162.8272747381748L33.31281875,162.81765139613927L33.331718402777774,162.81443903299555L33.40150173611111,162.80610032297005L33.41894756944444,162.78770071251597L33.509084375,162.8038268635709L33.558514236111115,162.82106332755706L33.613759375,162.83385181705663L33.654466319444445,162.82901962637936L33.690811805555555,162.81650028519672L33.70389618055555,162.8025097897253L33.735880208333334,162.8198764357872L33.76495659722222,162.83822938464004L33.78240243055556,162.8057261266492L33.847824305555555,162.80370717026312L33.91179236111111,162.80189014559497L33.97866805555556,162.7893617151144L34.012105902777776,162.79987241805884L34.02955173611112,162.77665297429772L34.06735104166667,162.766648659757L34.109511805555556,162.76853773435104L34.13422673611111,162.78113068121755L34.16039548611111,162.7979106001024L34.163303125,162.80484286959518L34.190925694444445,162.8029123654847L34.21273298611111,162.80662123839497L34.26361666666667,162.79362030769408L34.32903854166667,162.78736581971722L34.340669097222225,162.78173680894653L34.356661111111116,162.75216255539792L34.44679791666666,162.7500539554194L34.47878194444444,162.7263712653555L34.52239652777778,162.7241187224081L34.534027083333335,162.72481455131495L34.541296180555555,162.70365593118288L34.56019583333333,162.70095184869996L34.60962569444444,162.69307197546678L34.64160972222223,162.6750877049398L34.67359375,162.6806866687554L34.718662152777775,162.66394096574348L34.739015625,162.67610078921086L34.763730555555554,162.6434751472527L34.76809201388889,162.62772755501967L34.94255034722222,162.6271701816641L35.07630173611111,162.61577619499607L35.130093055555555,162.6055216156256L35.13445451388889,162.58540015831667L35.13881597222222,162.58907553778224L35.27402118055556,162.57604487299676L35.27692881944445,162.5806557811671L35.29728229166667,162.56846710030305L35.32345104166667,162.55205112820093L35.369973263888895,162.40384576103764L35.390326736111106,162.38210730520416L35.428126041666665,162.36798886275022L35.44702569444444,162.38251307156915L35.44847951388889,162.39013869607538L35.509539930555555,162.38066327840417L35.52989340277777,162.40481235720395L35.53861631944445,162.39386957403983L35.58223090277777,162.40852878131147L35.590953819444444,162.36998356986032L35.606945833333334,162.3679698270539L35.60985347222222,162.37160361553626L35.63311458333333,162.396658650742L35.71743611111111,162.37019277412278L35.72906666666667,162.37905042326494L35.75378159722222,162.38702230683216L35.77558888888889,162.3887508459294L35.897709722222224,162.37941422020273L35.90643263888889,162.3410574036869L35.928239930555556,162.34738243401532L35.94859340277778,162.35307496103226L35.95295486111111,162.36909054485952L36.01401527777778,162.35082764113324L36.08525243055555,162.3289448736915L36.114328819444445,162.34737346576816L36.23644965277778,162.3585130436407L36.25971076388889,162.36309250901516L36.271341319444446,162.3290909470282L36.278610416666666,162.3311664678964L36.29896388888889,162.31124981949685L36.44289201388889,162.32600176169728L36.46324548611111,162.3283862010683L36.46760694444445,162.29785527147004L36.54029791666667,162.27582358930846L36.57228194444444,162.1770258410465L36.57809722222222,162.17796941082852L36.642065277777775,162.17337246956794L36.665326388888886,162.15289676036022L36.666780208333336,162.1126840061418L36.68131840277778,162.0764925275845L36.76854756944444,162.04119712008458L36.81943125,162.03938510034246L36.89066840277778,162.01052351279213L36.956090277777776,162.03900962357812L37.04331944444444,161.9421086596076L37.13345625,161.9120824085817L37.142179166666665,161.8768895518645L37.15671736111111,161.83976982699693L37.16980173611111,161.8363159211826L37.17416319444444,161.8223150981575L37.20033194444444,161.6163758942126L37.23813125,161.6515998435333L37.24249270833334,161.72687062894997L37.32681423611111,161.7047527966816L37.37188263888889,161.69846213236156L37.418404861111114,161.64378514960907L37.469288541666664,161.62452971148073L37.565240625,161.609922894117L37.64520069444444,161.5722690661004L37.71789166666667,161.5356575439803L37.74987569444444,161.47003025091834L37.76296006944444,161.45998107195246L37.808028472222226,161.45365988781836L37.85455069444445,161.41257082202105L37.879265624999995,161.3864829705354L37.92578784722222,161.35483467342422L38.00138645833333,161.31545889832495L38.046454861111116,161.33720531621685L38.059539236111114,161.37311555387362L38.066808333333334,161.391819383124L38.26452777777778,161.27794513699683L38.284881250000005,161.28982754638557L38.36047986111111,161.2814601763551L38.36920277777777,161.24397569715174L38.38664861111111,161.10403966579938L38.428809375,160.98082031452583L38.491323611111106,160.95433828305812L38.56982986111112,160.94411983936243L38.61344444444444,160.82327708613948L38.69631215277777,160.73358014671894L38.73701909722222,160.75632982436326L38.73992673611111,160.70600453421764L38.844601736111116,160.66888100386154L38.89839305555555,160.6518082880861L38.992891319444446,160.52479669001548L39.04959027777778,160.52757855947607L39.081574305555556,160.38303608811506L39.13827326388889,160.36187094083823L39.15281145833334,160.2938069236665L39.178980208333336,160.2951800774539L39.33744652777778,160.1711543773846L39.35925381944444,159.97239278577658L39.57587291666667,159.85341504564786L39.619487500000005,159.2806889256439L39.64420243055555,159.0103123407486L39.722708680555556,158.91674264512807L39.75033125,158.83252991907094L39.795399652777775,158.83570769639482L39.93932777777778,158.5880446190491L39.96258888888889,158.28890169559057L40.16612361111111,157.98699614140236L40.19229236111111,157.76701960417617L40.29842118055555,157.3675330283592L40.35948159722222,156.95353357166337L40.40309618055556,156.7143648298745L40.44961840277778,156.61892834688447L40.69531388888888,156.61472781988823L40.82761145833333,156.23788580712196L40.836334375,155.59374338024327L40.91774826388889,155.35712288836862L41.12855208333334,155.09787213798919L41.71734895833334,154.40162338571875L41.72171041666667,153.96833797021822L41.771140277777775,153.87519648088764L41.83801597222222,153.3229999097162L42.18693263888889,153.02753068797256L42.599817361111114,152.56554684994063L42.61726319444445,152.14431524186645L43.08103159722223,151.60726833306074L43.150814930555555,151.2982030382143L43.217690624999996,151.15892119593056L43.226413541666666,150.88379830710537L43.28892777777778,150.80229539947138L43.397964236111115,150.55738893644633L43.687274305555555,150.34786542741634L43.970769097222224,150.21375580775117L44.01292986111111,149.98685715005232L44.060905902777776,149.81532528120047L44.73693194444444,149.5955927530799L44.77473125,149.42234117007922L44.82416111111111,149.277307053071L44.82706875,149.10320711699438L44.86486805555556,149.01187102067942L45.04078020833333,148.90243776476518L45.558339930555555,148.8012247575193L45.60922361111111,148.66656382022876L45.62812326388889,148.56443051512883L45.66592256944444,148.39626438669274L46.07735347222222,148.3429456403311L46.36957118055555,148.16152799937478L46.40300902777778,147.86482135328328L46.42190868055555,147.73121614103178L46.462615625000005,147.59735606539004L46.506230208333335,147.55040507423564L46.5280375,147.41828764373508L46.57746736111111,147.29121272551538L46.65161215277778,147.2694299145023L46.833339583333334,147.18719461535974L47.1560875,147.1921520769007L47.17353333333333,147.02505994613364L47.26367013888889,146.83655395152024L47.27530069444445,146.7758216332913L47.33054583333334,146.6367471622698L47.59077951388889,146.58238013835052L47.89608159722223,146.52255750913085L48.04437118055556,146.47688637360235L48.320596875,146.36225927470366L48.34385798611111,146.25909488569482L48.67969027777778,146.20164693558687L48.78581909722222,146.1499437804897L48.836702777777774,146.11974940244073L48.92393194444445,146.0735129237351L49.39933090277778,145.99650009290008L49.538897569444444,145.7365731605331L49.76569340277778,145.71503892140288L50.14514027777778,145.7038273369549L50.309421875,145.66378306479788L50.31378333333333,145.55966629677962L50.34576736111111,145.38699197479397L50.43590416666667,145.42220046962225L50.546394444444445,145.4348265765062L50.72666805555556,145.15209776500942L50.79499756944445,144.90853414235463L50.88658819444444,144.95346534350378L51.09303055555556,144.96122650146108L51.15263715277778,144.7993807743919L51.19334409722222,144.6237657738758L51.239866319444445,144.40852765802669L51.514638194444444,144.21209027683938L51.59605208333333,144.22591201838623L52.28807013888889,144.18389004731682L52.31569270833333,144.07799335027744L52.45816701388889,144.0698247844805L52.47125138888889,143.85824230603242L52.59337222222222,143.92378730619842L52.775099652777776,143.97460857557857L52.9132125,143.8324554103284L52.91757395833333,143.96048679237248L52.95973472222222,143.85514580544293L53.05423298611111,143.94278507105247L53.05568680555556,144.03799887163956L53.080401736111114,143.8867835998602L53.26212916666667,143.8105975475665L53.45694097222222,143.56230702357908L53.62849166666667,143.30889170583654L53.74915868055555,143.31772561217596L53.797134722222225,143.17318382018914L53.824757291666664,143.1275115920164L53.87127951388889,143.08368350973782L53.973046874999994,142.86723823568713L54.236188194444445,142.78136056596455L54.505144791666666,142.63599374013734L54.65488819444444,142.6467635968928L54.683964583333335,142.6183333910497L54.76828611111111,142.50560774425242L54.86569201388889,142.64106235444257L55.09103402777778,142.6077561189983L55.346906249999996,142.43890358402155L55.438496875000006,142.4612132256194L55.45739652777778,142.44861497998053L55.60568611111111,142.32835348198248L55.652208333333334,142.29636428763038L55.70163819444444,142.22945093579042L55.97059479166667,142.18556738067292L56.24391284722222,142.07799525799024L56.29188888888889,142.04925727065276L56.32678055555555,142.08874692820285L56.50705416666667,141.8846568507672L56.509961805555555,141.73909885799816L56.52013854166667,141.51278897219834L56.58410659722222,141.3227254595939L56.61754444444444,141.15711445209604L56.921392708333336,140.95360300688642L57.14673472222222,140.79767347542855L57.16854201388889,140.89969074327033L57.366261458333334,140.95610628432792L57.37934583333333,141.02321873281818L57.48983611111111,140.96925070569023L57.73843923611111,140.81447948127504L57.84166041666666,140.8712469177629L58.157139236111114,140.41312222598663L58.20802291666667,140.10428692646488L58.39265798611111,140.07413515689532L58.50314826388889,139.76924471812887L58.578746875,140.05307409246984L58.73139791666667,140.22682822168437L59.222788888888886,140.21982232259285L59.36090173611111,140.0474093211028L59.385616666666664,140.0283914659156L59.47429965277777,139.7335215500933L59.506283680555555,139.45724631816086L60.06455034722222,139.21132168634477L60.38729826388889,139.31675874847951L60.410559375,139.24282133517005L60.46871215277778,138.8004930478069L60.512326736111106,138.41601297379543L60.662070138888886,138.5873655225697L61.05605520833333,138.4692751241589L61.45876319444445,138.15059376558918L61.473301388888885,137.80114977364565L61.59542222222222,137.45669633474262L61.93125451388889,137.25561131665296L62.32960104166666,137.53755787729537L62.75847777777778,137.02884824341197L62.829714930555554,136.75073264984002L63.07686423611111,136.50315169254833L63.184446875,136.55263652329347L63.32255972222222,136.3657113325026L63.329828819444444,136.2682786607908L63.576978125,136.11523541009632L63.688922222222224,135.9693272537021L63.74998263888889,135.78354837448572L63.77905902777778,135.67080892165254L63.93171006944444,135.80625110641034L64.34895625,135.74570291884623L64.53649895833334,135.86276339619238L64.68769618055555,135.79928705657315L64.93193784722223,135.64957373553122L64.97555243055555,135.57201636197811L65.17763333333333,135.17816857193412L65.28521597222222,135.16953633012534L65.35499930555555,135.0936903894205L65.591971875,135.01998288893998L65.70536979166667,134.80659998466137L65.77660694444444,134.84329383234908L65.77951458333334,134.50597983372955L66.02084861111112,134.08802800420276L66.26945173611111,134.19113289609015L66.29271284722222,133.935373452635L66.38284965277778,134.01017456890997L66.65762152777778,133.80246480432666L66.78991909722222,133.67543370850936L66.83353368055555,133.47669033765843L67.02253020833334,133.5102213038926L67.2565951388889,133.6847222504264L67.29439444444445,133.77914233307607L67.44268402777779,133.79876656130693L67.58370451388889,133.96075144363778L67.7872392361111,133.96493783773553L67.79596215277778,133.87067482319276L67.84829965277778,133.67691503318116L68.00385833333334,133.5297619914015L68.28153784722221,133.1631396384152L68.54031770833333,132.99384105918907L68.84416597222223,132.89865695327015L68.94302569444444,132.58969895025083L69.3471875,132.48591367061036L69.55508368055555,132.09841461124162L69.64376666666666,132.03558853473285L69.7557107638889,131.84833737356726L69.87928541666668,131.82958055928748L69.94616111111111,131.83176096489717L69.95488402777778,131.53690794533054L70.09154305555556,131.85427868925902L70.25727847222221,131.81314312802542L70.38376076388889,131.8333057382998L70.64399444444444,131.48655977985442L70.82426805555556,131.24256534033054L71.12375486111112,130.73977034475902L71.15719270833333,130.65759331028312L71.72854375,130.7252339792548L71.96987777777778,130.64995673517546L72.04547638888889,130.35891490781177L72.13270555555556,130.717838801646L72.14724375,130.6378549214814L72.29698715277777,130.92531558317938L72.61682743055555,130.95529171716916L72.70696423611112,131.27636254545223L73.14165625000001,131.16775706013777L73.16927881944444,131.06456596950864L73.18236319444445,131.13780168025005L73.73626840277777,131.26634458914813L74.12443819444444,130.96540243792563L74.16369131944445,130.71633911721L74.1782295138889,130.54936674395054L74.20439826388889,130.4807839157093L74.32070381944445,130.33736706259992L74.7873798611111,129.77804574095532L75.25696354166668,129.64499501301364L75.28894756944445,129.53341858863536L75.43287569444445,129.49290749900257L75.52882777777778,129.0915552106408L75.95188923611111,128.76846122803823L75.9911423611111,128.52941510523442L76.27027569444445,128.5702428254802L76.35895868055556,128.65328008139372L76.43019583333333,128.40124438094665L76.71223680555555,128.17168917362122L77.08296076388889,128.21833564087447L77.32574861111112,128.35290207678702L77.54382152777778,128.09278109987756L77.56853645833333,127.86684145142826L77.64558888888888,127.4864957678239L77.74154097222223,127.36747696027227L78.26346215277778,127.25763695655273L78.35650659722222,126.92459633782053L78.54841076388888,126.72561362711541L78.60074826388889,126.51112918748079L78.76066840277777,126.26635473027117L78.80719062499999,126.04333464185945L78.81736736111111,125.9951088699812L78.93658055555555,125.99527490605999L79.56172291666667,125.85927049237708L79.70419722222222,125.81038959698552L79.96152326388889,125.84808909882543L79.98187673611112,125.66144941971213L80.10690520833333,125.56427370851014L80.74513194444445,124.85595402996682L80.88324479166667,124.78486631927782L80.94866666666667,124.52210276427313L80.9893736111111,124.38909248784582L81.19581597222222,124.35379862367662L81.22634618055555,124.3029726074628L81.27432222222222,124.24905996210114L81.31793680555555,124.38026165819872L81.90527986111111,124.52285087699424L82.04048506944444,124.41155040467943L82.13643715277777,124.22696459498073L82.16551354166667,124.2133296739442L82.42283958333333,124.20650439885748L83.09305034722223,124.08871549743327L83.15992604166667,123.98542856307455L83.23552465277777,123.94693186061326L83.41725208333332,123.874161751475L83.4492361111111,123.50368403786598L83.65858611111112,123.51063871100246L83.69638541666667,123.47605176297913L83.75163055555556,123.43130812514275L84.36659618055555,123.43188500493616L84.46690972222223,123.33165035059639L84.60356875,123.33130070015214L84.95830069444443,123.29286293782923L85.65468020833333,122.92060741327708L85.7259173611111,122.74896205656475L85.728825,122.82049662013905L86.07483402777778,122.8031854196636L86.79011319444444,122.59154380077418L86.9427642361111,122.47458942069676L86.95730243055556,122.46736124785785L87.1259454861111,122.25934819999515L87.29168090277777,121.90602876461102L87.34837986111111,121.60982588814991L87.43851666666667,121.6155509916426L88.15234201388888,121.7323497386322L88.18141840277778,121.68769938015359L88.62192569444444,121.28534482675362L88.64954826388889,121.01308726715517L88.65245590277777,120.58833238659349L88.69752430555555,120.34492991716492L89.40698819444444,120.24023692544841L89.42879548611111,120.2494901559805L89.47967916666666,119.99912575576707L89.6832138888889,119.7111670263442L89.90855590277778,119.54731186217131L89.98996979166667,119.39167298364649L90.67908020833333,119.19169030066647L90.687803125,119.09884434752288L90.88406875,118.31817529738598L90.97420555555556,118.2010346907243L91.23153159722222,118.03297737549802L91.86539687499999,118.02332579179438L91.94681076388889,118.00374705876877L92.04130902777777,117.92349542981498L92.14889166666667,117.867607425295L92.54723819444445,117.70838514430397L92.56613784722222,117.41259278371973L92.70570451388889,117.27164119765544L93.34829270833333,117.2972770778899L93.35265416666667,116.579672447024L93.5242048611111,116.54652058693696L93.62161076388888,116.11094545132019L93.83677604166667,116.07020475234202L93.91964375,116.04987658480013L94.1580701388889,115.66396584939704L94.73959791666667,115.49636926445734L94.78902777777778,115.12496310724237L95.00419305555556,114.39857448882583L95.05071527777778,114.13422473225094L95.31967187500001,113.75743302825661L95.66422708333333,113.41287434081556L96.196325,113.07281767596479L96.25738541666666,112.78582821606061L96.51616527777777,112.57655308676225L96.58158715277779,112.00697470116295L96.87089722222223,112.01718492335434L96.94649583333333,111.86571258486505L97.962715625,111.138479787917L97.9917920138889,111.2219241168176L98.31017847222222,110.81776247436663L98.40031527777778,110.41589391923765L98.43520694444445,110.30473529654465L98.87280659722222,109.73360022842864L99.2842375,109.27404020558579L99.41071979166666,108.82775926195029L99.50812569444444,108.9380448742168L99.82941979166667,108.56893269448742L99.99224756944444,108.25579327119252L100.05330798611111,107.89499855945787L100.9067,107.67376024197362L101.04917430555555,107.35755344854549L101.12768055555556,107.10836733446017L101.19601006944445,106.76156137024493L101.49695069444445,106.59920523322043L102.66436770833333,106.05823855605223L102.78794236111112,105.89813777737008L102.9972923611111,105.26117015347924L103.18919652777778,105.02011467659285L104.31736041666667,104.4137647473951L104.72879131944444,103.99331134957868L105.31904201388889,103.99613406077466L105.9281923611111,103.65012065469718L106.14335763888889,103.34687781999669L106.36579201388889,103.12025157645856L106.45592881944444,102.88905718804348L106.87753645833332,102.69732070000835L106.91533576388889,102.27423478385369L107.44016458333334,101.37879592085292L107.56810069444445,101.12023940569071L107.84578020833334,101.0073539266601L107.89521006944445,100.56537238014793L108.06966840277778,100.23294283444083L108.15398993055555,100.2578023971506L108.53925208333334,100.07594523435861L108.63811180555555,99.88504301861505L109.10478784722223,99.62064640906124L109.2181857638889,99.32005869123203L109.59036354166666,99.10126820672421L109.91601909722222,98.77909523220563L110.33762673611112,98.5871703243697L110.785403125,98.43894559962504L110.91188541666666,98.34094334735482L111.37129236111112,97.90146439723473L111.43526041666667,97.7591794959728L111.61408020833333,97.79723077714475L111.84378368055556,97.08807693019949L112.57941631944445,96.47706923717955L112.74369791666668,96.1395623134616L113.07662256944445,95.91477531288466L113.13768298611112,95.99566701236543L113.57092118055556,95.53474646497504L113.86168506944445,95.10357951078524L114.39959826388889,94.66106771355285L115.62226041666668,94.34722248065911L116.13545868055556,93.86053100182396L116.36370833333334,93.51509328625696L116.63993402777778,93.10072241916971L116.79258506944444,92.93201940802197L117.013565625,92.63586362106592L117.13568645833334,92.3911080281901L117.45698055555555,92.2143972253711L118.10829166666666,91.9001421182186L118.33654131944445,91.05635867562751L118.48483090277779,90.5855997311417L118.76251041666666,89.94951668110446L118.94859930555555,89.17553424376324L119.028559375,88.70768851169461L119.29460833333333,88.95378119898669L120.16544618055556,89.0173261560111L120.57687708333333,88.40736277117921L121.78790868055556,88.47381110944592L121.95073645833334,87.83922999850132L122.0016201388889,87.54586084480505L122.273484375,86.99590552955532L122.69654583333333,86.16056113044593L122.99167118055556,85.46865886355518L123.23882048611111,85.28163913104582L123.75492638888889,85.10787521794124L124.03260590277779,84.52396461922405L124.19252604166667,84.37422969576318L124.58505729166667,83.62949903387917L124.70136284722221,83.22337989972202L124.88454409722222,82.07090344821134L125.80335798611111,81.60007464185175L125.99671597222222,81.83259025458965L126.05486875000001,81.33113122913069L127.13505659722223,80.78178733698685L127.36476006944444,80.663162449442L127.77909861111111,80.61630774295935L127.92738819444445,80.87912312250957L128.226875,80.44578004102783L128.56997638888888,80.02854049846351L128.80694895833335,80.3501326024633L128.83166388888887,80.04865780375545L129.11225104166667,80.35189971568758L130.26949131944446,79.90320205181114L130.60532361111112,79.77168184663003L130.8204888888889,79.66965212350547L130.9120795138889,79.33819460346263L131.11997569444446,79.34214437388557L131.47034618055557,79.01892993649702L131.9428375,78.63817540438578L132.26849305555555,78.33361940240873L132.69736979166666,78.16027284678323L132.81076770833332,78.01243017748952L133.09280868055555,77.3483717751252L133.1466,77.17551921299729L133.60309930555556,76.8974134455437L133.80081875,76.57359517791242L134.34600104166665,76.50272796781347L134.36780833333333,76.02503978641674L134.79523125,76.11522811546737L134.80395416666667,75.36858222699755L135.25318437500002,74.78918554275934L135.28226076388887,74.37665160386803L135.70386840277777,74.41383259732737L136.51364583333333,74.14231087605617L137.4019295138889,73.63652594229673L137.42664444444446,73.56799642499011L138.3759885416667,73.7051044747988L138.66239097222223,73.16951710424198L139.0287534722222,72.99247308612547L139.58702013888887,72.952948854436L139.95919791666668,72.83568473822318L140.15400972222224,73.0650854951701L140.47966527777777,72.62890002257618L140.81258993055556,72.50864078954933L141.68924305555555,72.39223824905591L141.873878125,71.93619903953494L142.66184826388888,71.55571759711991L143.00204201388888,71.27863814510022L143.8525263888889,70.92578971520558L144.57216701388887,69.96285689753117L144.80913958333335,69.93492505393189L144.91381458333333,69.51221716392334L145.20893993055557,69.25431852445408L145.67561597222223,68.45036359508558L145.79337534722222,68.33677338942319L146.03325555555557,68.25088066586548L146.25859756944445,67.80868490697122L146.5231927083333,67.02675487781256L146.73690416666665,66.71786400541593L147.13670451388887,65.9170314510282L147.4638138888889,65.41685138284845L147.92467465277775,65.63384316764052L148.573078125,65.23550500472261L148.76352847222222,64.77624681194267L149.26655,64.42554520767148L149.51660694444442,63.32566760998125L150.3162076388889,62.627147002829275L150.5328267361111,62.77455537946943L151.38912638888888,62.384392149214804L151.57812291666667,62.22658370352407L151.8339951388889,61.79863302547935L151.96193125,61.767477415239114L152.6263267361111,61.61145275063828L152.66994131944443,60.956369014036L152.77461631944445,61.543162881863154L153.15987847222223,61.14270813213838L153.19913159722222,61.35686808815531L153.7181451388889,60.80076589472439L153.97837881944443,59.98439699755964L154.23425104166668,59.95494191318829L154.24006631944442,60.07547849110023L154.89137743055554,60.140392180451755L155.07455868055555,60.490183731637345L155.3871298611111,61.09091920462744L155.49035104166666,61.043396514933946L156.03989479166668,60.94344147882515L158.70910729166667,60.071958869404156L159.44037847222222,60.1835168286176L159.629375,60.18044206883276L159.8547170138889,59.49145940041102L160.11640451388888,58.91766730652374L160.76335416666666,58.98399288356369L161.09191736111111,58.92114744136116L161.17187743055555,58.56232500491734L161.7417746527778,58.55526173519482L162.12994444444445,58.551627869367636L162.56754409722222,58.21614200550779L162.67658055555555,58.415250881880084L163.10691111111112,58.447402716769005L163.43838194444444,58.656062445092104L163.51398055555555,58.122240815967515L163.76258368055557,57.54104750360152L164.0809701388889,57.13778890708751L164.32375798611113,56.6822715548403L165.01432222222223,56.206952091663965L165.45337569444445,56.47354919018987L165.8284611111111,55.918348117324726L166.184646875,55.38871330559226L166.75018263888887,55.04819582118688L167.24884270833334,55.61583777752972L167.40003993055555,55.421438615161364L167.79547881944444,55.91907936902983L168.16765659722222,55.66440220135762L168.19527916666667,55.318100442760326L168.53838055555556,55.14530578309969L169.51970868055557,55.64332905094355L170.1782888888889,55.35904229969536L170.8325076388889,55.64235345434119L171.03168090277777,55.39901041659938L171.69316875,54.22147860570867L172.02609340277778,54.01946920667626L172.3502951388889,53.8839530552394L173.027775,53.83006544202314L173.21531770833334,53.580058897820834L173.33162326388887,53.58106839265413L173.92187395833332,54.18377693800409L174.07597881944446,54.05906078266521L174.43507222222223,53.95498547362946L174.75055104166665,53.81774846472807L175.0762065972222,53.53901977210141L175.52543680555556,53.50056394873741L175.72170243055555,53.45506140001753L176.25089270833334,53.286124490785L176.97780243055556,52.39340434939879L177.17988333333335,52.26800237599737L177.63929027777777,52.30763290762839L177.90097777777777,52.395038847634765L178.53920451388888,52.95024265517898L178.88812118055554,52.932541466584155L179.41295,52.76684116607959L179.61793854166666,52.783818587933155L179.9028871527778,53.0223905752937L180.0308232638889,52.9756899793028L180.37247083333335,51.94245944291097L180.65015034722222,51.66336734477373L180.88712291666667,51.63275368721942L181.28110798611112,51.64877062618979L181.820475,51.698585871263106L182.2071909722222,50.91288113029064L182.3467576388889,51.0090545557231L182.8148875,50.58639525399694L183.32227048611114,50.18149419013571L183.76423159722222,49.59923707881444L184.72520624999999,49.8540056786253L185.28928819444445,50.09418972614739L185.59604409722223,49.93457075353264L186.11360381944445,50.158529062794756L186.79689895833334,49.61941461805375L187.32754305555554,49.191396233171446L187.6924517361111,49.39164122523893L188.140228125,48.882923256561185L188.1533125,48.52583093090507L189.41232013888887,48.090078607045314L189.74524479166666,47.23225536172541L189.81938958333333,46.8795682870913L189.87463472222223,47.1094883814591L190.20901319444445,46.807201081774735L190.6029982638889,47.22135789667419L190.69168125000002,46.99229903008367L191.18161840277776,47.050284511690705L191.88381319444446,46.7375791374447L192.2458142361111,47.33569814677716L192.274890625,47.86311294748404L192.47551770833334,48.689063191197164L193.0279690972222,48.558310718231326L193.1544513888889,48.19827964640817L194.50068819444445,48.48149783561351L194.66496979166666,48.86437882128291L194.98917152777778,48.49280247761618L195.50236979166667,47.9568760760084L195.59396041666665,47.62703462225369L196.0722670138889,47.29205423695143L196.8384298611111,47.31734112094858L197.011434375,46.92346854731525L197.20624618055555,46.631614000276045L197.21206145833335,46.27091413870997L197.9564170138889,46.13417657099279L198.61499722222223,45.13972814466277L199.26776215277778,45.32578609942726L199.51781909722223,45.13651518179222L199.77078368055555,44.544094432843764L199.83620555555555,43.72771575879011L199.94088055555554,44.13122110598806L200.48751666666666,44.23568361077383L200.51077777777778,44.207161403542614L201.12865104166664,43.6967837247268L201.8715527777778,43.2701207368695L201.97913541666668,42.913354817028704L202.28589131944443,43.093311643018126L202.8267121527778,43.056488171024L203.71790347222225,43.118654738537L204.53058854166665,42.54829695699098L204.82716770833332,43.32026726129189L204.9696420138889,43.4704251505473L205.37525763888888,43.57289032780025L205.44649479166668,43.18857052578949L205.6340375,43.11226731936438L207.02679652777778,43.16613289512023L207.38588993055555,43.135642682531284L208.04010868055556,43.12181687581662L208.81208680555557,42.73086595746571L209.51428159722224,42.656763977103765L209.61314131944442,41.95831834862415L210.0492871527778,41.21534805222328L210.17867708333335,40.55756709315477L210.2731753472222,40.87234884537776L211.31847152777777,41.22645242237846L212.04683506944443,40.74728410321754L212.36522152777778,41.85729415443424L212.51205729166668,42.03938012360621L212.69087708333333,42.2822267266302L213.19535243055557,42.44905020781334L213.27822013888888,42.11176057164738L213.94843090277777,41.47053836063648L214.72622430555555,40.87437683226514L214.87742152777778,41.048554533654L215.26849895833334,41.22709908028861L215.381896875,41.54300455687513L215.75116701388887,41.65031948580301L215.8761954861111,41.08519522953037L216.44900034722224,40.971429552731195L217.10758055555556,41.2366558282273L217.3154767361111,41.54071332232763L217.48121215277777,41.75718045163333L218.3491423611111,41.85941625262387L218.9510236111111,41.929643858130675L219.94398229166669,41.36109485693302L220.96165590277778,40.92564690970124L223.00863368055556,41.12737452642344L223.4520486111111,40.96582168916569L223.58434618055557,40.86399336640298L224.096090625,40.41017864514728L224.65144965277776,40.64711462678642L225.09631840277777,40.86852624103085L225.48884965277776,40.88535054000468L226.00495555555554,40.94406163985036L226.02821666666668,41.58780932201918L227.11421979166667,41.69064377443263L227.59543402777777,41.53811785852784L227.64195625,40.77181376498274L227.7568079861111,40.69755546540756L228.10136319444445,41.09636914963602L228.62909965277777,40.56213223467242L228.63927638888887,40.21747285735901L229.13502881944444,39.795633263930824L229.5813513888889,40.18660839907619L230.2748232638889,39.72973217455319L230.3925826388889,39.528220495559395L230.51906493055554,39.84518306138807L231.25178993055556,39.50958783217234L231.83041006944444,39.12313674126278L232.13861979166666,39.06942306713651L233.14320902777777,38.73515768349978L233.89192604166666,38.44793422284212L235.4896736111111,37.45147926209637L235.53183437500002,38.0169621051175L235.58998715277778,38.988819740759595L236.89551701388888,39.487706997452875L237.7997927083333,39.46561322078449L238.16906284722222,38.58795959101374L238.5339715277778,38.37264055498929L239.48331562500002,38.497453422567276L239.79443298611113,38.08423115723363L240.69870868055557,38.11262342612565L240.78448402777778,37.980238006590014L241.56227743055555,38.599044975161775L242.0638451388889,38.53783278533791L242.3749625,38.332972583727184L243.14548680555555,37.1601214792006L243.16729409722222,37.06307856204978L243.22980833333332,37.321570705844806L243.3097684027778,37.48613671218342L244.08465416666667,37.985523040965035L244.2096826388889,37.82227842917624L244.7068888888889,37.648127509335524L244.83337118055553,38.12586860455582L245.68676319444444,38.22089712871562L245.7347392361111,37.97693049276714L245.83796041666668,37.741022058875046L245.8888440972222,38.206750622218294L246.4863638888889,38.018660175381086L247.30050277777778,37.86844031168914L248.46065069444447,37.65699628052022L248.52752638888887,37.540219729391254L249.09451597222224,37.36432083337522L249.33439618055556,36.39998105773L249.89993194444443,36.37622910580316L249.9348236111111,36.44199081060745L250.70680173611112,36.91780711416209L250.73733194444443,37.520318710438175L251.09933298611114,37.24020991631744L251.13567847222222,37.41291200160876L251.5631013888889,36.68334387837095L251.56455520833333,35.724471028995396L251.56600902777777,35.11745469532664L251.5703704861111,35.118478456563196L251.573278125,35.467953687829976L251.57473194444444,35.4911121652008L251.5805472222222,35.56913941021918L251.58200104166667,35.55494854612033L251.5834548611111,35.572130614585234L251.5863625,36.39907139928053L251.58781631944444,36.399918105506345L251.59217777777778,36.30809552572492L251.5965392361111,36.99608597315245L251.599446875,36.88276968352949L251.60526215277775,37.51329271517653L251.60671597222222,37.43811728981271L251.60816979166668,37.542013253139146L251.6096236111111,37.42039654320985L251.61398506944442,37.24558765811963L251.61689270833332,37.09642889230767L251.61834652777776,37.82540138769227L251.61980034722222,37.6699997104615L251.62125416666666,37.429384354799964L251.62270798611112,37.275461303935344L251.625615625,37.055238250464896L251.62706944444446,37.27094519464916L251.6314309027778,36.96131221364578L251.63288472222223,36.79973483843506L251.63433854166666,36.60802289305309L251.63579236111113,36.55529752682469L251.63724618055554,36.54596777414221L251.6387,36.49944791980491L251.6459690972222,36.4276262047475L251.64742291666667,36.202325122734294L251.64887673611113,36.04312337969162L251.65614583333334,36.3763802724917L251.6590534722222,36.38766532216559L251.66050729166668,36.39509878994903L251.6619611111111,36.41268121864644L251.66341493055555,36.22155155832027L251.66632256944445,36.46888871018055L251.66777638888888,36.470922916085556L251.66923020833335,37.10723062447701L251.67068402777778,36.971907562029315L251.67213784722222,36.817439882749454L251.67359166666665,36.73560358678219L251.67504548611112,36.493120151180904L251.677953125,36.33206967452435L251.6808607638889,35.73237039937962L251.68231458333332,35.86251797482626L251.6837684027778,36.55694310042054" style="fill: none;" fill="none"></path></g></g></g></g><g opacity="0.2"><g><g><g><path stroke="rgb(255, 112, 67)" stroke-width="2px" d="M29.29010034722222,163.0850769230769L29.301730902777777,163.03061538461537L29.30318472222222,163.00338461538462L29.32644583333333,162.97615384615384L29.583771875,163.03061538461537L29.58667951388889,162.94892307692308L29.59104097222222,162.73107692307693L29.602671527777776,162.94892307692308L29.617209722222224,163.00338461538462L29.634655555555554,163.00338461538462L29.650647569444445,163.03061538461537L29.711707986111108,163.0850769230769L29.716069444444447,162.9216923076923L29.915242708333334,163.05784615384616L29.95594965277778,163.03061538461537L29.969034027777777,162.94892307692308L30.001018055555555,162.94892307692308L30.01991770833333,163.05784615384616L30.30632013888889,163.05784615384616L30.328127430555554,162.97615384615384L30.336850347222224,163.00338461538462L30.354296180555554,162.97615384615384L30.35865763888889,162.6766153846154L30.381918749999997,162.89446153846154L30.524393055555553,162.5676923076923L30.630521875,163.03061538461537L30.67268263888889,162.45876923076924L30.677044097222222,162.97615384615384L30.684313194444446,163.03061538461537L30.703212847222222,162.78553846153847L30.826787500000002,162.9216923076923L30.880578819444445,163.03061538461537L30.948908333333335,162.9216923076923L30.988161458333334,162.97615384615384L31.066667708333334,163.03061538461537L31.087021180555553,162.94892307692308L31.217864930555553,163.0850769230769L31.226587847222223,163.00338461538462L31.341439583333333,163.05784615384616L31.35307013888889,162.97615384615384L31.42866875,162.6766153846154L31.576958333333334,162.9216923076923L31.584227430555554,162.73107692307693L31.58858888888889,162.9216923076923L31.613303819444443,162.89446153846154L31.680179513888888,162.89446153846154L31.73397083333333,162.34984615384616L31.74269375,163.03061538461537L31.747055208333336,162.78553846153847L31.82701527777778,162.97615384615384L31.895344791666666,162.9216923076923L31.976758680555555,162.89446153846154L32.00728888888889,162.73107692307693L32.04072673611111,163.00338461538462L32.13813263888889,162.94892307692308L32.206462152777775,162.86723076923076L32.222454166666665,162.73107692307693L32.279153125,162.94892307692308L32.29369131944445,162.94892307692308L32.31404479166667,162.6766153846154L32.335852083333336,162.73107692307693L32.39982013888889,162.84L32.488503125,162.89446153846154L32.59753958333334,162.84L32.66586909722222,162.9216923076923L32.82433541666667,162.73107692307693L32.83887361111111,162.51323076923077L32.86504236111111,162.73107692307693L33.05113125,162.89446153846154L33.081661458333336,162.97615384615384L33.102014930555555,162.94892307692308L33.138360416666664,162.5676923076923L33.147083333333335,162.86723076923076L33.302642013888885,162.89446153846154L33.31281875,162.73107692307693L33.331718402777774,162.78553846153847L33.40150173611111,162.73107692307693L33.41894756944444,162.62215384615385L33.509084375,162.94892307692308L33.558514236111115,162.97615384615384L33.613759375,162.94892307692308L33.654466319444445,162.78553846153847L33.690811805555555,162.70384615384614L33.70389618055555,162.6766153846154L33.735880208333334,162.97615384615384L33.76495659722222,163.00338461538462L33.78240243055556,162.51323076923077L33.847824305555555,162.78553846153847L33.91179236111111,162.78553846153847L33.97866805555556,162.6766153846154L34.012105902777776,162.89446153846154L34.02955173611112,162.5676923076923L34.06735104166667,162.6766153846154L34.109511805555556,162.78553846153847L34.13422673611111,162.89446153846154L34.16039548611111,162.94892307692308L34.163303125,162.86723076923076L34.190925694444445,162.78553846153847L34.21273298611111,162.84L34.26361666666667,162.6766153846154L34.32903854166667,162.73107692307693L34.340669097222225,162.73107692307693L34.356661111111116,162.486L34.44679791666666,162.73107692307693L34.47878194444444,162.51323076923077L34.52239652777778,162.70384615384614L34.534027083333335,162.73107692307693L34.541296180555555,162.51323076923077L34.56019583333333,162.6766153846154L34.60962569444444,162.62215384615385L34.64160972222223,162.51323076923077L34.67359375,162.73107692307693L34.718662152777775,162.51323076923077L34.739015625,162.78553846153847L34.763730555555554,162.34984615384616L34.76809201388889,162.486L34.94255034722222,162.62215384615385L35.07630173611111,162.51323076923077L35.130093055555555,162.51323076923077L35.13445451388889,162.4043076923077L35.13881597222222,162.62215384615385L35.27402118055556,162.45876923076924L35.27692881944445,162.62215384615385L35.29728229166667,162.45876923076924L35.32345104166667,162.4043076923077L35.369973263888895,161.07L35.390326736111106,162.18646153846154L35.428126041666665,162.24092307692308L35.44702569444444,162.51323076923077L35.44847951388889,162.45876923076924L35.509539930555555,162.29538461538462L35.52989340277777,162.62215384615385L35.53861631944445,162.29538461538462L35.58223090277777,162.54046153846153L35.590953819444444,162.02307692307693L35.606945833333334,162.34984615384616L35.60985347222222,162.4043076923077L35.63311458333333,162.62215384615385L35.71743611111111,162.132L35.72906666666667,162.45876923076924L35.75378159722222,162.45876923076924L35.77558888888889,162.4043076923077L35.897709722222224,162.29538461538462L35.90643263888889,161.99584615384614L35.928239930555556,162.4043076923077L35.94859340277778,162.4043076923077L35.95295486111111,162.51323076923077L36.01401527777778,162.18646153846154L36.08525243055555,162.132L36.114328819444445,162.51323076923077L36.23644965277778,162.45876923076924L36.25971076388889,162.4043076923077L36.271341319444446,162.02307692307693L36.278610416666666,162.34984615384616L36.29896388888889,162.132L36.44289201388889,162.45876923076924L36.46324548611111,162.34984615384616L36.46760694444445,162.02307692307693L36.54029791666667,162.07753846153847L36.57228194444444,161.28784615384615L36.57809722222222,162.18646153846154L36.642065277777775,162.132L36.665326388888886,161.9686153846154L36.666780208333336,161.75076923076924L36.68131840277778,161.75076923076924L36.76854756944444,161.72353846153845L36.81943125,162.02307692307693L36.89066840277778,161.75076923076924L36.956090277777776,162.29538461538462L37.04331944444444,161.07L37.13345625,161.64184615384616L37.142179166666665,161.56015384615384L37.15671736111111,161.5056923076923L37.16980173611111,161.80523076923077L37.17416319444444,161.6963076923077L37.20033194444444,159.76292307692307L37.23813125,161.9686153846154L37.24249270833334,162.4043076923077L37.32681423611111,161.5056923076923L37.37188263888889,161.64184615384616L37.418404861111114,161.15169230769231L37.469288541666664,161.45123076923076L37.565240625,161.47846153846154L37.64520069444444,161.2333846153846L37.71789166666667,161.20615384615385L37.74987569444444,160.87938461538462L37.76296006944444,161.36953846153847L37.808028472222226,161.39676923076922L37.85455069444445,161.04276923076924L37.879265624999995,161.15169230769231L37.92578784722222,161.07L38.00138645833333,160.96107692307692L38.046454861111116,161.53292307692308L38.059539236111114,161.6963076923077L38.066808333333334,161.56015384615384L38.26452777777778,160.25307692307692L38.284881250000005,161.39676923076922L38.36047986111111,161.20615384615385L38.36920277777777,160.90661538461538L38.38664861111111,159.8446153846154L38.428809375,159.87184615384615L38.491323611111106,160.716L38.56982986111112,160.85215384615384L38.61344444444444,159.73569230769232L38.69631215277777,159.9263076923077L38.73701909722222,160.96107692307692L38.73992673611111,160.25307692307692L38.844601736111116,160.33476923076924L38.89839305555555,160.49815384615385L38.992891319444446,159.3816923076923L39.04959027777778,160.5526153846154L39.081574305555556,159.08215384615386L39.13827326388889,160.17138461538462L39.15281145833334,159.68123076923078L39.178980208333336,160.30753846153846L39.33744652777778,159.05492307692307L39.35925381944444,158.18353846153846L39.57587291666667,158.78261538461538L39.619487500000005,154.12615384615384L39.64420243055555,156.57692307692307L39.722708680555556,158.07461538461538L39.75033125,158.07461538461538L39.795399652777775,158.8643076923077L39.93932777777778,156.3590769230769L39.96258888888889,155.59661538461538L40.16612361111111,155.26984615384615L40.19229236111111,155.78723076923077L40.29842118055555,153.77215384615386L40.35948159722222,153.22753846153847L40.40309618055556,154.56184615384615L40.44961840277778,155.76L40.69531388888888,156.57692307692307L40.82761145833333,152.84630769230768L40.836334375,149.79646153846153L40.91774826388889,153.22753846153847L41.12855208333334,152.76461538461538L41.71734895833334,148.13538461538462L41.72171041666667,150.06876923076922L41.771140277777775,153.03692307692307L41.83801597222222,148.35323076923078L42.18693263888889,150.3683076923077L42.599817361111114,148.40769230769232L42.61726319444445,148.35323076923078L43.08103159722223,146.77384615384616L43.150814930555555,148.5166153846154L43.217690624999996,149.9053846153846L43.226413541666666,148.40769230769232L43.28892777777778,150.06876923076922L43.397964236111115,148.35323076923078L43.687274305555555,148.46215384615385L43.970769097222224,149.00676923076924L44.01292986111111,147.94476923076923L44.060905902777776,148.27153846153846L44.73693194444444,147.618L44.77473125,147.86307692307693L44.82416111111111,147.972L44.82706875,147.5363076923077L44.86486805555556,148.18984615384616L45.04078020833333,147.91753846153847L45.558339930555555,147.8903076923077L45.60922361111111,147.45461538461538L45.62812326388889,147.64523076923078L45.66592256944444,146.88276923076924L46.07735347222222,147.86307692307693L46.36957118055555,146.52876923076923L46.40300902777778,145.19446153846155L46.42190868055555,146.52876923076923L46.462615625000005,146.3926153846154L46.506230208333335,147.12784615384615L46.5280375,146.22923076923078L46.57746736111111,146.14753846153846L46.65161215277778,147.0733846153846L46.833339583333334,146.44707692307693L47.1560875,147.23676923076923L47.17353333333333,145.52123076923078L47.26367013888889,145.14L47.27530069444445,146.22923076923078L47.33054583333334,145.38507692307692L47.59077951388889,146.09307692307692L47.89608159722223,145.98415384615384L48.04437118055556,146.06584615384617L48.320596875,145.33061538461538L48.34385798611111,145.33061538461538L48.67969027777778,145.68461538461537L48.78581909722222,145.68461538461537L48.836702777777774,145.848L48.92393194444445,145.65738461538461L49.39933090277778,145.30338461538463L49.538897569444444,143.39723076923076L49.76569340277778,145.52123076923078L50.14514027777778,145.60292307692308L50.309421875,145.30338461538463L50.31378333333333,144.6226153846154L50.34576736111111,143.83292307692307L50.43590416666667,145.73907692307694L50.546394444444445,145.54846153846154L50.72666805555556,142.60753846153847L50.79499756944445,142.71646153846154L50.88658819444444,145.35784615384614L51.09303055555556,145.0310769230769L51.15263715277778,143.34276923076925L51.19334409722222,143.04323076923077L51.239866319444445,142.4713846153846L51.514638194444444,142.44415384615385L51.59605208333333,144.3503076923077L52.28807013888889,143.8056923076923L52.31569270833333,143.1249230769231L52.45816701388889,143.9963076923077L52.47125138888889,141.954L52.59337222222222,144.5136923076923L52.775099652777776,144.43200000000002L52.9132125,142.55307692307693L52.91757395833333,145.11276923076923L52.95973472222222,142.90707692307691L53.05423298611111,144.73153846153846L53.05568680555556,144.89492307692308L53.080401736111114,142.52584615384615L53.26212916666667,143.1249230769231L53.45694097222222,141.3276923076923L53.62849166666667,141.02815384615383L53.74915868055555,143.39723076923076L53.797134722222225,141.8723076923077L53.824757291666664,142.71646153846154L53.87127951388889,142.68923076923076L53.973046874999994,140.91923076923078L54.236188194444445,142.00846153846155L54.505144791666666,141.3276923076923L54.65488819444444,142.7436923076923L54.683964583333335,142.36246153846153L54.76828611111111,141.49107692307692L54.86569201388889,143.86015384615385L55.09103402777778,142.308L55.346906249999996,140.91923076923078L55.438496875000006,142.662L55.45739652777778,142.33523076923078L55.60568611111111,141.24599999999998L55.652208333333334,142.00846153846155L55.70163819444444,141.62723076923078L55.97059479166667,141.7906153846154L56.24391284722222,141.10984615384615L56.29188888888889,141.7906153846154L56.32678055555555,142.44415384615385L56.50705416666667,140.04784615384614L56.509961805555555,140.42907692307693L56.52013854166667,139.476L56.58410659722222,139.61215384615383L56.61754444444444,139.6666153846154L56.921392708333336,139.122L57.14673472222222,139.39430769230768L57.16854201388889,141.81784615384615L57.366261458333334,141.46384615384616L57.37934583333333,141.62723076923078L57.48983611111111,140.48353846153847L57.73843923611111,139.42153846153846L57.84166041666666,141.38215384615384L58.157139236111114,136.29L58.20802291666667,137.32476923076922L58.39265798611111,139.80276923076923L58.50314826388889,137.02523076923077L58.578746875,142.60753846153847L58.73139791666667,141.7906153846154L59.222788888888886,140.1567692307692L59.36090173611111,138.4956923076923L59.385616666666664,139.85723076923077L59.47429965277777,137.0796923076923L59.506283680555555,136.97076923076924L60.06455034722222,136.998L60.38729826388889,140.26569230769232L60.410559375,138.57738461538463L60.46871215277778,134.81953846153846L60.512326736111106,134.95569230769232L60.662070138888886,140.12953846153846L61.05605520833333,137.40646153846154L61.45876319444445,135.28246153846155L61.473301388888885,134.65615384615384L61.59542222222222,134.3566153846154L61.93125451388889,135.44584615384616L62.32960104166666,140.07507692307692L62.75847777777778,132.45046153846152L62.829714930555554,134.24769230769232L63.07686423611111,134.27492307692307L63.184446875,136.998L63.32255972222222,134.68338461538463L63.329828819444444,135.39138461538462L63.576978125,134.73784615384616L63.688922222222224,134.65615384615384L63.74998263888889,134.11153846153846L63.77905902777778,134.65615384615384L63.93171006944444,137.02523076923077L64.34895625,135.20076923076923L64.53649895833334,136.9163076923077L64.68769618055555,135.228L64.93193784722223,134.30215384615386L64.97555243055555,134.874L65.17763333333333,131.63353846153848L65.28521597222222,135.09184615384615L65.35499930555555,134.4110769230769L65.591971875,134.3566153846154L65.70536979166667,132.88615384615383L65.77660694444444,135.17353846153847L65.77951458333334,131.47015384615383L66.02084861111112,130.32646153846156L66.26945173611111,135.11907692307693L66.29271284722222,131.63353846153848L66.38284965277778,134.68338461538463L66.65762152777778,131.93307692307692L66.78991909722222,132.53215384615385L66.83353368055555,131.688L67.02253020833334,133.812L67.2565951388889,135.25523076923076L67.29439444444445,134.62892307692306L67.44268402777779,133.9753846153846L67.58370451388889,135.41861538461538L67.7872392361111,134.00261538461538L67.79596215277778,133.0223076923077L67.84829965277778,131.93307692307692L68.00385833333334,132.20538461538462L68.28153784722221,129.86353846153847L68.54031770833333,131.47015384615383L68.84416597222223,132.042L68.94302569444444,129.80907692307693L69.3471875,131.55184615384616L69.55508368055555,128.6109230769231L69.64376666666666,131.47015384615383L69.7557107638889,130.16307692307691L69.87928541666668,131.66076923076923L69.94616111111111,131.8513846153846L69.95488402777778,128.88323076923078L70.09154305555556,134.71061538461538L70.25727847222221,131.44292307692308L70.38376076388889,132.01476923076922L70.64399444444444,128.36584615384615L70.82426805555556,129.0466153846154L71.12375486111112,126.21461538461537L71.15719270833333,129.918L71.72854375,131.334L71.96987777777778,129.97246153846154L72.04547638888889,127.73953846153846L72.13270555555556,133.94815384615384L72.14724375,129.918L72.29698715277777,133.51246153846154L72.61682743055555,131.22507692307693L72.70696423611112,134.166L73.14165625000001,130.1903076923077L73.16927881944444,130.13584615384616L73.18236319444445,131.79692307692306L73.73626840277777,132.42323076923077L74.12443819444444,128.25692307692307L74.16369131944445,128.47476923076923L74.1782295138889,129.0466153846154L74.20439826388889,129.86353846153847L74.32070381944445,129.0466153846154L74.7873798611111,124.74415384615384L75.25696354166668,128.44753846153847L75.28894756944445,128.52923076923076L75.43287569444445,129.1283076923077L75.52882777777778,125.47938461538462L75.95188923611111,125.86061538461539L75.9911423611111,126.37800000000001L76.27027569444445,128.93769230769232L76.35895868055556,129.40061538461538L76.43019583333333,126.13292307692308L76.71223680555555,126.10569230769231L77.08296076388889,128.63815384615384L77.32574861111112,129.564L77.54382152777778,125.75169230769231L77.56853645833333,125.83338461538462L77.64558888888888,124.06338461538462L77.74154097222223,126.29630769230769L78.26346215277778,126.26907692307692L78.35650659722222,123.92723076923076L78.54841076388888,124.93476923076923L78.60074826388889,124.58076923076922L78.76066840277777,124.06338461538462L78.80719062499999,124.03615384615384L78.81736736111111,125.56107692307693L78.93658055555555,125.99676923076923L79.56172291666667,124.63523076923076L79.70419722222222,125.37046153846154L79.96152326388889,126.18738461538462L79.98187673611112,123.9816923076923L80.10690520833333,124.68969230769231L80.74513194444445,118.48107692307693L80.88324479166667,124.14507692307691L80.94866666666667,122.15723076923078L80.9893736111111,123.19200000000001L81.19581597222222,124.03615384615384L81.22634618055555,123.84553846153847L81.27432222222222,123.76384615384615L81.31793680555555,125.56107692307693L81.90527986111111,125.80615384615385L82.04048506944444,123.40984615384616L82.13643715277777,122.5656923076923L82.16551354166667,124.09061538461539L82.42283958333333,124.14507692307691L83.09305034722223,123.02861538461539L83.15992604166667,123.05584615384615L83.23552465277777,123.60046153846153L83.41725208333332,123.21923076923078L83.4492361111111,120.16938461538462L83.65858611111112,123.57323076923078L83.69638541666667,123.16476923076922L83.75163055555556,123.02861538461539L84.36659618055555,123.43707692307692L84.46690972222223,122.42953846153847L84.60356875,123.32815384615384L84.95830069444443,122.94692307692307L85.65468020833333,119.5703076923077L85.7259173611111,121.20415384615384L85.728825,123.4643076923077L86.07483402777778,122.64738461538462L86.79011319444444,120.68676923076923L86.9427642361111,121.422L86.95730243055556,122.40230769230769L87.1259454861111,120.38723076923077L87.29168090277777,118.72615384615385L87.34837986111111,118.94399999999999L87.43851666666667,121.66707692307692L88.15234201388888,122.78353846153847L88.18141840277778,121.28584615384617L88.62192569444444,117.66415384615385L88.64954826388889,118.56276923076923L88.65245590277777,116.76553846153845L88.69752430555555,118.1543076923077L89.40698819444444,119.298L89.42879548611111,120.33276923076923L89.47967916666666,117.74584615384614L89.6832138888889,117.11953846153847L89.90855590277778,118.07261538461537L89.98996979166667,117.99092307692308L90.67908020833333,117.39184615384616L90.687803125,118.26323076923077L90.88406875,111.29215384615384L90.97420555555556,117.14676923076922L91.23153159722222,116.52046153846155L91.86539687499999,117.93646153846154L91.94681076388889,117.82753846153847L92.04130902777777,117.20123076923076L92.14889166666667,117.36461538461538L92.54723819444445,116.27538461538461L92.56613784722222,114.75046153846154L92.70570451388889,116.00307692307692L93.34829270833333,117.52799999999999L93.35265416666667,110.12123076923078L93.5242048611111,116.24815384615385L93.62161076388888,112.19076923076923L93.83677604166667,115.70353846153846L93.91964375,115.86692307692307L94.1580701388889,112.19076923076923L94.73959791666667,113.988L94.78902777777778,111.7823076923077L95.00419305555556,107.86107692307692L95.05071527777778,111.75507692307693L95.31967187500001,110.36630769230769L95.66422708333333,110.31184615384616L96.196325,110.01230769230769L96.25738541666666,110.20292307692308L96.51616527777777,110.69307692307692L96.58158715277779,106.88076923076923L96.87089722222223,112.10907692307693L96.94649583333333,110.50246153846153L97.962715625,104.59338461538462L97.9917920138889,111.97292307692308L98.31017847222222,107.1803076923077L98.40031527777778,106.79907692307692L98.43520694444445,109.30430769230769L98.87280659722222,104.59338461538462L99.2842375,105.13799999999999L99.41071979166666,104.81123076923076L99.50812569444444,109.93061538461538L99.82941979166667,105.24692307692307L99.99224756944444,105.43753846153847L100.05330798611111,104.64784615384616L100.9067,105.68261538461539L101.04917430555555,104.51169230769231L101.12768055555556,104.86569230769231L101.19601006944445,103.6403076923077L101.49695069444445,105.13799999999999L102.66436770833333,101.18953846153846L102.78794236111112,104.45723076923076L102.9972923611111,99.52846153846153L103.18919652777778,102.8506153846154L104.31736041666667,98.95661538461539L104.72879131944444,100.20923076923077L105.31904201388889,104.02153846153846L105.9281923611111,100.536L106.14335763888889,100.61769230769231L106.36579201388889,101.08061538461538L106.45592881944444,100.8083076923077L106.87753645833332,100.97169230769231L106.91533576388889,98.46646153846153L107.44016458333334,93.31984615384616L107.56810069444445,98.79323076923077L107.84578020833334,99.99138461538462L107.89521006944445,96.58753846153846L108.06966840277778,97.24107692307692L108.15398993055555,100.48153846153846L108.53925208333334,98.43923076923078L108.63811180555555,98.16692307692308L109.10478784722223,97.24107692307692L109.2181857638889,96.61476923076924L109.59036354166666,97.13215384615386L109.91601909722222,95.87953846153846L110.33762673611112,96.85984615384615L110.785403125,97.10492307692307L110.91188541666666,97.45892307692307L111.37129236111112,93.94615384615385L111.43526041666667,96.47861538461538L111.61408020833333,98.1396923076923L111.84378368055556,90.7056923076923L112.57941631944445,90.97800000000001L112.74369791666668,93.102L113.07662256944445,93.89169230769231L113.13768298611112,96.7236923076923L113.57092118055556,91.38646153846153L113.86168506944445,91.22307692307692L114.39959826388889,90.67846153846153L115.62226041666668,91.52261538461539L116.13545868055556,89.48030769230769L116.36370833333334,90.40615384615384L116.63993402777778,89.37138461538461L116.79258506944444,91.41369230769232L117.013565625,89.97046153846154L117.13568645833334,90.18830769230769L117.45698055555555,90.624L118.10829166666666,89.07184615384615L118.33654131944445,83.4623076923077L118.48483090277779,86.34876923076922L118.76251041666666,84.22476923076923L118.94859930555555,82.20969230769231L119.028559375,84.49707692307693L119.29460833333333,91.16861538461539L120.16544618055556,89.58923076923077L120.57687708333333,82.9176923076923L121.78790868055556,89.07184615384615L121.95073645833334,82.128L122.0016201388889,84.90553846153846L122.273484375,82.04630769230769L122.69654583333333,78.64246153846153L122.99167118055556,79.24153846153847L123.23882048611111,83.59846153846154L123.75492638888889,83.544L124.03260590277779,79.26876923076924L124.19252604166667,83.02661538461538L124.58505729166667,76.92692307692307L124.70136284722221,79.5683076923077L124.88454409722222,71.6986153846154L125.80335798611111,77.36261538461538L125.99671597222222,83.92523076923077L126.05486875000001,76.81800000000001L127.13505659722223,75.83769230769231L127.36476006944444,79.59553846153847L127.77909861111111,80.19461538461537L127.92738819444445,83.24446153846154L128.226875,76.5456923076923L128.56997638888888,76.27338461538463L128.80694895833335,83.24446153846154L128.83166388888887,77.33538461538463L129.11225104166667,83.08107692307692L130.26949131944446,75.86492307692308L130.60532361111112,78.588L130.8204888888889,78.75138461538462L130.9120795138889,76.35507692307692L131.11997569444446,79.37769230769231L131.47034618055557,76.11000000000001L131.9428375,75.21138461538462L132.26849305555555,75.5926153846154L132.69736979166666,76.60015384615384L132.81076770833332,76.68184615384615L133.09280868055555,71.37184615384616L133.1466,75.61984615384614L133.60309930555556,74.39446153846153L133.80081875,73.65923076923077L134.34600104166665,75.86492307692308L134.36780833333333,71.72584615384616L134.79523125,76.92692307692307L134.80395416666667,68.64876923076923L135.25318437500002,69.57461538461538L135.28226076388887,70.66384615384617L135.70386840277777,74.74846153846153L136.51364583333333,71.6986153846154L137.4019295138889,69.08446153846155L137.42664444444446,72.95123076923078L138.3759885416667,74.93907692307693L138.66239097222223,68.34923076923077L139.0287534722222,71.39907692307692L139.58702013888887,72.59723076923078L139.95919791666668,71.78030769230769L140.15400972222224,75.12969230769231L140.47966527777777,68.70323076923077L140.81258993055556,71.42630769230769L141.68924305555555,71.3446153846154L141.873878125,67.83184615384616L142.66184826388888,68.13138461538462L143.00204201388888,68.78492307692306L143.8525263888889,67.75015384615384L144.57216701388887,61.29646153846154L144.80913958333335,69.68353846153846L144.91381458333333,65.70784615384616L145.20893993055557,66.93323076923078L145.67561597222223,61.21476923076922L145.79337534722222,67.31446153846154L146.03325555555557,67.47784615384616L146.25859756944445,63.82892307692306L146.5231927083333,59.98938461538461L146.73690416666665,63.93784615384615L147.13670451388887,58.70953846153847L147.4638138888889,60.915230769230774L147.92467465277775,67.58676923076924L148.573078125,61.65046153846154L148.76352847222222,60.64292307692308L149.26655,61.269230769230774L149.51660694444442,53.42676923076924L150.3162076388889,56.34046153846154L150.5328267361111,64.10123076923077L151.38912638888888,58.87292307692309L151.57812291666667,60.8063076923077L151.8339951388889,57.94707692307692L151.96193125,61.48707692307693L152.6263267361111,60.20723076923076L152.66994131944443,55.060615384615375L152.77461631944445,66.82430769230768L153.15987847222223,57.53861538461538L153.19913159722222,63.284307692307706L153.7181451388889,55.79584615384614L153.97837881944443,52.63707692307692L154.23425104166668,59.68984615384615L154.24006631944442,61.1603076923077L154.89137743055554,60.724615384615376L155.07455868055555,63.638307692307706L155.3871298611111,66.49753846153845L155.49035104166666,60.61569230769231L156.03989479166668,60.04384615384615L158.70910729166667,52.228615384615395L159.44037847222222,61.187538461538466L159.629375,60.15276923076922L159.8547170138889,53.29061538461539L160.11640451388888,53.75353846153847L160.76335416666666,59.580923076923085L161.09191736111111,58.35553846153847L161.17187743055555,55.33292307692308L161.7417746527778,58.491692307692304L162.12994444444445,58.51892307692309L162.56754409722222,55.196769230769235L162.67658055555555,60.20723076923076L163.10691111111112,58.73676923076923L163.43838194444444,60.53399999999999L163.51398055555555,53.31784615384615L163.76258368055557,52.31030769230769L164.0809701388889,53.50846153846153L164.32375798611113,52.582615384615394L165.01432222222223,51.92907692307692L165.45337569444445,58.87292307692309L165.8284611111111,50.92153846153846L166.184646875,50.622L166.75018263888887,51.98353846153846L167.24884270833334,60.724615384615376L167.40003993055555,53.67184615384615L167.79547881944444,60.39784615384616L168.16765659722222,53.372307692307686L168.19527916666667,52.201384615384626L168.53838055555556,53.590153846153854L169.51970868055557,60.12553846153847L170.1782888888889,52.80046153846153L170.8325076388889,58.19215384615386L171.03168090277777,53.20892307692307L171.69316875,43.62369230769232L172.02609340277778,52.201384615384626L172.3502951388889,52.66430769230769L173.027775,53.34507692307692L173.21531770833334,51.33000000000001L173.33162326388887,53.590153846153854L173.92187395833332,59.608153846153854L174.07597881944446,52.93661538461539L174.43507222222223,53.01830769230769L174.75055104166665,52.582615384615394L175.0762065972222,51.03046153846154L175.52543680555556,53.15446153846153L175.72170243055555,53.04553846153847L176.25089270833334,51.765692307692305L176.97780243055556,44.35892307692308L177.17988333333335,51.139384615384614L177.63929027777777,52.66430769230769L177.90097777777777,53.1816923076923L178.53920451388888,57.94707692307692L178.88812118055554,52.773230769230764L179.41295,51.27553846153846L179.61793854166666,52.93661538461539L179.9028871527778,55.169538461538465L180.0308232638889,52.555384615384625L180.37247083333335,42.643384615384605L180.65015034722222,49.151538461538465L180.88712291666667,51.35723076923078L181.28110798611112,51.792923076923074L181.820475,52.14692307692307L182.2071909722222,43.84153846153845L182.3467576388889,51.874615384615396L182.8148875,46.78246153846155L183.32227048611114,46.53738461538461L183.76423159722222,44.35892307692308L184.72520624999999,52.14692307692307L185.28928819444445,52.25584615384615L185.59604409722223,48.49799999999999L186.11360381944445,52.17415384615384L186.79689895833334,44.76738461538463L187.32754305555554,45.33923076923077L187.6924517361111,51.19384615384614L188.140228125,44.30446153846154L188.1533125,45.31200000000001L189.41232013888887,44.16830769230768L189.74524479166666,39.511846153846164L189.81938958333333,43.70538461538462L189.87463472222223,49.178769230769234L190.20901319444445,44.086615384615385L190.6029982638889,50.94876923076923L190.69168125000002,44.930769230769215L191.18161840277776,47.57215384615384L191.88381319444446,43.92323076923077L192.2458142361111,52.71876923076924L192.274890625,52.60984615384615L192.47551770833334,56.12261538461537L193.0279690972222,47.38153846153847L193.1544513888889,44.958L194.50068819444445,51.03046153846154L194.66496979166666,52.31030769230769L194.98917152777778,45.1486153846154L195.50236979166667,43.13353846153845L195.59396041666665,44.65846153846155L196.0722670138889,44.27723076923078L196.8384298611111,47.544923076923084L197.011434375,43.37861538461539L197.20624618055555,44.00492307692306L197.21206145833335,43.02461538461537L197.9564170138889,44.90353846153846L198.61499722222223,36.1896923076923L199.26776215277778,47.00030769230767L199.51781909722223,43.433076923076925L199.77078368055555,39.21230769230769L199.83620555555555,36.380307692307696L199.94088055555554,47.76276923076924L200.48751666666666,45.17584615384615L200.51077777777778,43.95046153846155L201.12865104166664,39.10338461538461L201.8715527777778,39.43015384615384L201.97913541666668,39.702461538461534L202.28589131944443,44.71292307692306L202.8267121527778,42.72507692307693L203.71790347222225,43.67815384615383L204.53058854166665,37.415076923076924L204.82716770833332,50.268L204.9696420138889,44.82184615384617L205.37525763888888,44.49507692307694L205.44649479166668,39.72969230769232L205.6340375,42.42553846153845L207.02679652777778,43.65092307692308L207.38588993055555,42.86123076923076L208.04010868055556,42.99738461538462L208.81208680555557,39.21230769230769L209.51428159722224,41.989846153846145L209.61314131944442,35.6723076923077L210.0492871527778,34.528615384615364L210.17867708333335,34.63753846153847L210.2731753472222,43.70538461538462L211.31847152777777,44.413384615384615L212.04683506944443,36.434769230769234L212.36522152777778,51.84738461538463L212.51205729166668,43.67815384615383L212.69087708333333,44.46784615384615L213.19535243055557,43.95046153846155L213.27822013888888,39.07615384615383L213.94843090277777,35.69953846153848L214.72622430555555,35.50892307692308L214.87742152777778,42.61615384615385L215.26849895833334,42.834L215.381896875,44.38615384615383L215.75116701388887,42.61615384615385L215.8761954861111,35.99907692307693L216.44900034722224,39.94753846153847L217.10758055555556,43.62369230769232L217.3154767361111,44.27723076923078L217.48121215277777,43.70538461538462L218.3491423611111,42.779538461538465L218.9510236111111,42.56169230769231L219.94398229166669,36.244153846153864L220.96165590277778,37.00661538461537L223.00863368055556,42.94292307692308L223.4520486111111,39.511846153846164L223.58434618055557,39.94753846153847L224.096090625,36.32584615384616L224.65144965277776,42.779538461538465L225.09631840277777,42.86123076923076L225.48884965277776,41.03676923076924L226.00495555555554,41.472461538461545L226.02821666666668,47.38153846153847L227.11421979166667,42.61615384615385L227.59543402777777,40.165384615384596L227.64195625,33.87507692307693L227.7568079861111,40.029230769230765L228.10136319444445,44.68569230769231L228.62909965277777,35.75399999999999L228.63927638888887,37.11553846153848L229.13502881944444,35.99907692307693L229.5813513888889,43.70538461538462L230.2748232638889,35.61784615384616L230.3925826388889,37.71461538461537L230.51906493055554,42.69784615384614L231.25178993055556,36.48923076923077L231.83041006944444,35.645076923076914L232.13861979166666,38.585999999999984L233.14320902777777,35.726769230769236L233.89192604166666,35.862923076923096L235.4896736111111,28.483384615384608L235.53183437500002,43.106307692307695L235.58998715277778,47.735538461538454L236.89551701388888,43.97769230769231L237.7997927083333,39.26676923076923L238.16906284722222,30.689076923076925L238.5339715277778,36.434769230769234L239.48331562500002,39.62076923076921L239.79443298611113,34.36523076923078L240.69870868055557,38.36815384615383L240.78448402777778,36.78876923076922L241.56227743055555,44.16830769230768L242.0638451388889,37.98692307692309L242.3749625,36.48923076923077L243.14548680555555,26.60446153846152L243.16729409722222,36.1896923076923L243.22980833333332,39.647999999999996L243.3097684027778,38.96723076923078L244.08465416666667,42.47999999999999L244.2096826388889,36.35307692307691L244.7068888888889,36.08076923076925L244.83337118055553,42.42553846153845L245.68676319444444,39.07615384615383L245.7347392361111,35.781230769230774L245.83796041666668,35.61784615384616L245.8888440972222,42.3983076923077L246.4863638888889,36.32584615384616L247.30050277777778,36.51646153846153L248.46065069444447,35.75399999999999L248.52752638888887,36.48923076923077L249.09451597222224,35.781230769230774L249.33439618055556,27.72092307692307L249.89993194444443,36.16246153846154L249.9348236111111,37.033846153846156L250.70680173611112,41.20015384615385L250.73733194444443,42.94292307692308L251.09933298611114,34.71923076923076L251.13567847222222,38.96723076923078L251.5631013888889,30.11723076923076L251.56455520833333,27.094615384615395L251.56600902777777,29.654307692307697L251.5703704861111,35.127692307692314L251.573278125,38.61323076923077L251.57473194444444,35.69953846153848L251.5805472222222,36.27138461538462L251.58200104166667,35.42723076923076L251.5834548611111,35.726769230769236L251.5863625,43.84153846153845L251.58781631944444,36.40753846153848L251.59217777777778,35.4816923076923L251.5965392361111,43.18799999999999L251.599446875,35.862923076923096L251.60526215277775,43.18799999999999L251.60671597222222,36.761538461538464L251.60816979166668,38.477076923076936L251.6096236111111,36.32584615384616L251.61398506944442,35.6723076923077L251.61689270833332,35.75399999999999L251.61834652777776,44.38615384615383L251.61980034722222,36.27138461538462L251.62125416666666,35.263846153846146L251.62270798611112,35.89015384615385L251.625615625,35.073230769230776L251.62706944444446,39.21230769230769L251.6314309027778,34.17461538461538L251.63288472222223,35.34553846153847L251.63433854166666,34.88261538461538L251.63579236111113,36.08076923076925L251.63724618055554,36.46199999999999L251.6387,36.08076923076925L251.6459690972222,35.781230769230774L251.64742291666667,34.17461538461538L251.64887673611113,34.610307692307686L251.65614583333334,39.375692307692304L251.6590534722222,36.48923076923077L251.66050729166668,36.46199999999999L251.6619611111111,36.570923076923094L251.66341493055555,34.50138461538464L251.66632256944445,38.69492307692309L251.66777638888888,36.48923076923077L251.66923020833335,42.834L251.67068402777778,35.75399999999999L251.67213784722222,35.42723076923076L251.67359166666665,35.99907692307693L251.67504548611112,34.31076923076924L251.677953125,34.88261538461538L251.6808607638889,30.33507692307691L251.68231458333332,37.033846153846156L251.6837684027778,42.80676923076922" style="fill: none;" fill="none"></path></g></g></g></g></g></g><g transform="translate(68, 177)" clip-path="url(#clip_1)"><clipPath id="clip_1"><rect width="261" height="23"></rect></clipPath><g><g><line x1="0" y1="0" x2="0" y2="5" style="visibility: inherit;" fill="rgb(0, 0, 0)" stroke="rgb(204, 204, 204)" stroke-width="1px"></line><line x1="29.076388888888886" y1="0" x2="29.076388888888886" y2="5" style="visibility: inherit;" fill="rgb(0, 0, 0)" stroke="rgb(204, 204, 204)" stroke-width="1px"></line><line x1="58.15277777777777" y1="0" x2="58.15277777777777" y2="5" style="visibility: inherit;" fill="rgb(0, 0, 0)" stroke="rgb(204, 204, 204)" stroke-width="1px"></line><line x1="87.22916666666666" y1="0" x2="87.22916666666666" y2="5" style="visibility: inherit;" fill="rgb(0, 0, 0)" stroke="rgb(204, 204, 204)" stroke-width="1px"></line><line x1="116.30555555555554" y1="0" x2="116.30555555555554" y2="5" style="visibility: inherit;" fill="rgb(0, 0, 0)" stroke="rgb(204, 204, 204)" stroke-width="1px"></line><line x1="145.38194444444446" y1="0" x2="145.38194444444446" y2="5" style="visibility: inherit;" fill="rgb(0, 0, 0)" stroke="rgb(204, 204, 204)" stroke-width="1px"></line><line x1="174.45833333333331" y1="0" x2="174.45833333333331" y2="5" style="visibility: inherit;" fill="rgb(0, 0, 0)" stroke="rgb(204, 204, 204)" stroke-width="1px"></line><line x1="203.53472222222223" y1="0" x2="203.53472222222223" y2="5" style="visibility: inherit;" fill="rgb(0, 0, 0)" stroke="rgb(204, 204, 204)" stroke-width="1px"></line><line x1="232.6111111111111" y1="0" x2="232.6111111111111" y2="5" style="visibility: inherit;" fill="rgb(0, 0, 0)" stroke="rgb(204, 204, 204)" stroke-width="1px"></line><line x1="261.6875" y1="0" x2="261.6875" y2="5" style="visibility: inherit;" fill="rgb(0, 0, 0)" stroke="rgb(204, 204, 204)" stroke-width="1px"></line></g><g transform="translate(0, 8)"><text x="0" y="0" dx="0em" dy="0.95em" style="text-anchor: middle; visibility: hidden; font-family: &quot;Helvetica Neue&quot;, sans-serif; font-size: 12px; font-weight: 200;" fill="rgb(50, 49, 63)" stroke="none" stroke-width="1px">-20k</text><text x="29.076388888888886" y="0" dx="0em" dy="0.95em" style="text-anchor: middle; visibility: inherit; font-family: &quot;Helvetica Neue&quot;, sans-serif; font-size: 12px; font-weight: 200;" fill="rgb(50, 49, 63)" stroke="none" stroke-width="1px">0</text><text x="58.15277777777777" y="0" dx="0em" dy="0.95em" style="text-anchor: middle; visibility: hidden; font-family: &quot;Helvetica Neue&quot;, sans-serif; font-size: 12px; font-weight: 200;" fill="rgb(50, 49, 63)" stroke="none" stroke-width="1px">20k</text><text x="87.22916666666666" y="0" dx="0em" dy="0.95em" style="text-anchor: middle; visibility: inherit; font-family: &quot;Helvetica Neue&quot;, sans-serif; font-size: 12px; font-weight: 200;" fill="rgb(50, 49, 63)" stroke="none" stroke-width="1px">40k</text><text x="116.30555555555554" y="0" dx="0em" dy="0.95em" style="text-anchor: middle; visibility: hidden; font-family: &quot;Helvetica Neue&quot;, sans-serif; font-size: 12px; font-weight: 200;" fill="rgb(50, 49, 63)" stroke="none" stroke-width="1px">60k</text><text x="145.38194444444446" y="0" dx="0em" dy="0.95em" style="text-anchor: middle; visibility: inherit; font-family: &quot;Helvetica Neue&quot;, sans-serif; font-size: 12px; font-weight: 200;" fill="rgb(50, 49, 63)" stroke="none" stroke-width="1px">80k</text><text x="174.45833333333331" y="0" dx="0em" dy="0.95em" style="text-anchor: middle; visibility: hidden; font-family: &quot;Helvetica Neue&quot;, sans-serif; font-size: 12px; font-weight: 200;" fill="rgb(50, 49, 63)" stroke="none" stroke-width="1px">100k</text><text x="203.53472222222223" y="0" dx="0em" dy="0.95em" style="text-anchor: middle; visibility: inherit; font-family: &quot;Helvetica Neue&quot;, sans-serif; font-size: 12px; font-weight: 200;" fill="rgb(50, 49, 63)" stroke="none" stroke-width="1px">120k</text><text x="232.6111111111111" y="0" dx="0em" dy="0.95em" style="text-anchor: middle; visibility: hidden; font-family: &quot;Helvetica Neue&quot;, sans-serif; font-size: 12px; font-weight: 200;" fill="rgb(50, 49, 63)" stroke="none" stroke-width="1px">140k</text><text x="261.6875" y="0" dx="0em" dy="0.95em" style="text-anchor: middle; visibility: hidden; font-family: &quot;Helvetica Neue&quot;, sans-serif; font-size: 12px; font-weight: 200;" fill="rgb(50, 49, 63)" stroke="none" stroke-width="1px">160k</text></g><line x1="0" y1="0" x2="261.6875" y2="0" fill="rgb(0, 0, 0)" stroke="rgb(204, 204, 204)" stroke-width="1px"></line></g></g></g></g></svg>