<svg viewBox="0 0 330 200" xmlns="http://www.w3.org/2000/svg"><g><g><g><g><g><line x1="58.59375" y1="177" x2="53.59375" y2="177" style="visibility: inherit;" fill="rgb(0, 0, 0)" stroke="rgb(204, 204, 204)" stroke-width="1px"></line><line x1="58.59375" y1="151.71428571428572" x2="53.59375" y2="151.71428571428572" style="visibility: inherit;" fill="rgb(0, 0, 0)" stroke="rgb(204, 204, 204)" stroke-width="1px"></line><line x1="58.59375" y1="126.42857142857143" x2="53.59375" y2="126.42857142857143" style="visibility: inherit;" fill="rgb(0, 0, 0)" stroke="rgb(204, 204, 204)" stroke-width="1px"></line><line x1="58.59375" y1="101.14285714285715" x2="53.59375" y2="101.14285714285715" style="visibility: inherit;" fill="rgb(0, 0, 0)" stroke="rgb(204, 204, 204)" stroke-width="1px"></line><line x1="58.59375" y1="75.85714285714286" x2="53.59375" y2="75.85714285714286" style="visibility: inherit;" fill="rgb(0, 0, 0)" stroke="rgb(204, 204, 204)" stroke-width="1px"></line><line x1="58.59375" y1="50.57142857142857" x2="53.59375" y2="50.57142857142857" style="visibility: inherit;" fill="rgb(0, 0, 0)" stroke="rgb(204, 204, 204)" stroke-width="1px"></line><line x1="58.59375" y1="25.285714285714306" x2="53.59375" y2="25.285714285714306" style="visibility: inherit;" fill="rgb(0, 0, 0)" stroke="rgb(204, 204, 204)" stroke-width="1px"></line><line x1="58.59375" y1="0" x2="53.59375" y2="0" style="visibility: inherit;" fill="rgb(0, 0, 0)" stroke="rgb(204, 204, 204)" stroke-width="1px"></line></g><g transform="translate(48.59375, 0)"><text x="0" y="177" dx="0em" dy="0.3em" style="text-anchor: end; visibility: hidden; font-family: &quot;Helvetica Neue&quot;, sans-serif; font-size: 12px; font-weight: 200;" fill="rgb(50, 49, 63)" stroke="none" stroke-width="1px">-10.5</text><text x="0" y="151.71428571428572" dx="0em" dy="0.3em" style="text-anchor: end; visibility: inherit; font-family: &quot;Helvetica Neue&quot;, sans-serif; font-size: 12px; font-weight: 200;" fill="rgb(50, 49, 63)" stroke="none" stroke-width="1px">-10</text><text x="0" y="126.42857142857143" dx="0em" dy="0.3em" style="text-anchor: end; visibility: inherit; font-family: &quot;Helvetica Neue&quot;, sans-serif; font-size: 12px; font-weight: 200;" fill="rgb(50, 49, 63)" stroke="none" stroke-width="1px">-9.5</text><text x="0" y="101.14285714285715" dx="0em" dy="0.3em" style="text-anchor: end; visibility: inherit; font-family: &quot;Helvetica Neue&quot;, sans-serif; font-size: 12px; font-weight: 200;" fill="rgb(50, 49, 63)" stroke="none" stroke-width="1px">-9</text><text x="0" y="75.85714285714286" dx="0em" dy="0.3em" style="text-anchor: end; visibility: inherit; font-family: &quot;Helvetica Neue&quot;, sans-serif; font-size: 12px; font-weight: 200;" fill="rgb(50, 49, 63)" stroke="none" stroke-width="1px">-8.5</text><text x="0" y="50.57142857142857" dx="0em" dy="0.3em" style="text-anchor: end; visibility: inherit; font-family: &quot;Helvetica Neue&quot;, sans-serif; font-size: 12px; font-weight: 200;" fill="rgb(50, 49, 63)" stroke="none" stroke-width="1px">-8</text><text x="0" y="25.285714285714306" dx="0em" dy="0.3em" style="text-anchor: end; visibility: inherit; font-family: &quot;Helvetica Neue&quot;, sans-serif; font-size: 12px; font-weight: 200;" fill="rgb(50, 49, 63)" stroke="none" stroke-width="1px">-7.5</text><text x="0" y="0" dx="0em" dy="0.3em" style="text-anchor: end; visibility: hidden; font-family: &quot;Helvetica Neue&quot;, sans-serif; font-size: 12px; font-weight: 200;" fill="rgb(50, 49, 63)" stroke="none" stroke-width="1px">-7</text></g><line x1="58.59375" y1="0" x2="58.59375" y2="177" fill="rgb(0, 0, 0)" stroke="rgb(204, 204, 204)" stroke-width="1px"></line></g></g><g transform="translate(58, 0)" clip-path="url(#clip_0)"><clipPath id="clip_0"><rect width="271" height="177"></rect></clipPath><g><g><g><line x1="0" y1="0" x2="0" y2="177" fill="rgb(0, 0, 0)" stroke="rgb(60, 60, 60)" stroke-width="1px" opacity="0.25"></line><line x1="30.15625" y1="0" x2="30.15625" y2="177" fill="rgb(0, 0, 0)" stroke="rgb(60, 60, 60)" stroke-width="1px" opacity="0.25"></line><line x1="60.3125" y1="0" x2="60.3125" y2="177" fill="rgb(0, 0, 0)" stroke="rgb(60, 60, 60)" stroke-width="1px" opacity="0.25"></line><line x1="90.46875" y1="0" x2="90.46875" y2="177" fill="rgb(0, 0, 0)" stroke="rgb(60, 60, 60)" stroke-width="1px" opacity="0.25"></line><line x1="120.625" y1="0" x2="120.625" y2="177" fill="rgb(0, 0, 0)" stroke="rgb(60, 60, 60)" stroke-width="1px" opacity="0.25"></line><line x1="150.78125" y1="0" x2="150.78125" y2="177" fill="rgb(0, 0, 0)" stroke="rgb(60, 60, 60)" stroke-width="1px" opacity="0.25"></line><line x1="180.9375" y1="0" x2="180.9375" y2="177" fill="rgb(0, 0, 0)" stroke="rgb(60, 60, 60)" stroke-width="1px" opacity="0.25"></line><line x1="211.09375" y1="0" x2="211.09375" y2="177" fill="rgb(0, 0, 0)" stroke="rgb(60, 60, 60)" stroke-width="1px" opacity="0.25"></line><line x1="241.25" y1="0" x2="241.25" y2="177" fill="rgb(0, 0, 0)" stroke="rgb(60, 60, 60)" stroke-width="1px" opacity="0.25"></line><line x1="271.40625" y1="0" x2="271.40625" y2="177" fill="rgb(0, 0, 0)" stroke="rgb(60, 60, 60)" stroke-width="1px" opacity="0.25"></line></g><g><line x1="0" y1="177" x2="271.40625" y2="177" fill="rgb(0, 0, 0)" stroke="rgb(60, 60, 60)" stroke-width="1px" opacity="0.25"></line><line x1="0" y1="151.71428571428572" x2="271.40625" y2="151.71428571428572" fill="rgb(0, 0, 0)" stroke="rgb(60, 60, 60)" stroke-width="1px" opacity="0.25"></line><line x1="0" y1="126.42857142857143" x2="271.40625" y2="126.42857142857143" fill="rgb(0, 0, 0)" stroke="rgb(60, 60, 60)" stroke-width="1px" opacity="0.25"></line><line x1="0" y1="101.14285714285715" x2="271.40625" y2="101.14285714285715" fill="rgb(0, 0, 0)" stroke="rgb(60, 60, 60)" stroke-width="1px" opacity="0.25"></line><line x1="0" y1="75.85714285714286" x2="271.40625" y2="75.85714285714286" fill="rgb(0, 0, 0)" stroke="rgb(60, 60, 60)" stroke-width="1px" opacity="0.25"></line><line x1="0" y1="50.57142857142857" x2="271.40625" y2="50.57142857142857" fill="rgb(0, 0, 0)" stroke="rgb(60, 60, 60)" stroke-width="1px" opacity="0.25"></line><line x1="0" y1="25.285714285714306" x2="271.40625" y2="25.285714285714306" fill="rgb(0, 0, 0)" stroke="rgb(60, 60, 60)" stroke-width="1px" opacity="0.25"></line><line x1="0" y1="0" x2="271.40625" y2="0" fill="rgb(0, 0, 0)" stroke="rgb(60, 60, 60)" stroke-width="1px" opacity="0.25"></line></g></g></g><g><g><line x1="0" y1="-354" x2="271.40625" y2="-354" fill="rgb(0, 0, 0)" stroke="rgb(153, 153, 153)" stroke-width="1.5px"></line></g></g><g><g><line x1="30.15625" y1="0" x2="30.15625" y2="177" fill="rgb(0, 0, 0)" stroke="rgb(153, 153, 153)" stroke-width="1.5px"></line></g></g><g><g><g><g><g><path stroke="rgb(255, 112, 67)" stroke-width="2px" d="M31.333851562499998,101.14285714285715L31.665570312499998,127.75939849624064L31.6881875,117.93779652082237L31.7379453125,127.75939849624073L32.903484375,133.6090449561672L32.93665625,137.47307077962137L33.2578203125,140.20282548774264L33.2804375,142.2240366328539L33.3301953125,143.77326394310788L33.4327265625,144.9924807263503L33.5774765625,145.97206521856685L33.983078125,146.7722961070512L34.2891640625,147.43492693313715L34.3072578125,141.432574170093L34.390187499999996,136.3589981585934L34.4791484375,138.24378097524905L35.061164062500005,139.8604455353078L35.493906249999995,141.25517025070243L35.6673046875,136.61745196926103L35.8241171875,138.33608044423488L36.100046875,139.83826891522023L36.136234375,141.15559725709693L36.9187890625,142.3141477127888L37.1660703125,143.3356425203599L37.523421875,144.238309091231L37.659124999999996,139.63108753909182L38.1401171875,135.54463856643187L38.7945078125,131.9144767654705L38.952828124999996,133.99232708451524L39.2860546875,135.84297401440892L39.901242187499996,137.49305930858225L39.911796875,138.96574947305302L40.3988203125,140.28125641117657L40.58428125,141.45726754988522L40.641578125,142.5093034611527L40.819500000000005,143.4510169849878L41.196453125,139.132643563126L41.44071875,140.41419350625802L41.9759921875,136.4214868366932L42.02575,137.97370995262816L42.132804687500006,139.36629277207024L42.3167578125,140.61605486188674L42.927421875,136.62573837776335L43.204859375,138.14936887976305L43.55165625,139.51780421698382L43.807984375000004,135.64992668480318L44.3492890625,132.1746507443528L44.6116484375,134.1411263067774L45.2177890625,130.8222943751337L45.279609375,127.83897529600054L45.5796640625,125.15692305577994L45.719890625,127.82379232184124L45.774171875,125.14563669976094L46.883921875,127.8115159838672L47.2201640625,130.20908937866938L47.25484375,132.3655153063983L47.379992187499994,129.23553397744246L47.569976562499996,131.4884072207845L47.619734375,128.4477810612953L47.722265625000006,130.77862006829736L48.418875,127.81024299199125L48.506328125,130.20413175686218L48.792812500000004,132.3579687232027L48.807890625000006,134.2958852616796L48.862171874999994,136.03957556568804L49.0566796875,132.5465678837756L49.2888828125,134.46498855794403L50.0337421875,136.1912536328495L51.0258828125,132.6839722194084L51.255070312499996,129.52788317342961L51.5898046875,126.68777897633302L51.69384375,124.13198965633444L51.717968750000004,116.77257194313951L52.7734375,115.2089576639132L52.82771875,113.80182698966124L53.53940625,112.53550833399196L54.3732265625,111.3959016853952L54.386796875,110.370320609767L54.60090625,114.50572098636525L55.1452265625,113.16914259371775L55.418140625,117.02441495660804L55.5312265625,115.43597807854067L55.5478125,114.00643830515915L55.7091484375,117.77776363206726L56.01825,121.17185370169327L56.755570312500005,119.16872146952366L57.0149140625,122.42361801661596L57.105382812500004,125.35296027962374L57.507968749999996,122.93174503066192L57.56225,125.81021837348996L58.2483046875,128.40080271703022L58.43678125,125.67483995775574L58.827304687499996,128.27892914704037L59.6385078125,125.56518631386905L59.766671875,123.12284353539728L59.9159453125,125.98210350689777L60.030539062500004,123.49808836443468L60.80103125,121.26249193293309L61.099578125,119.25046907376795L61.3182109375,117.43965978304902L61.4810546875,115.80994056016985L61.756984375,119.40045232448378L61.853484375,122.63189823479063L62.522953125,120.48295667613505L62.71896875,123.60613856468572L63.0853671875,121.35977871329968L63.5935,119.33806087187753L63.777453125,117.51851969468515L63.8392734375,120.93813148592137L64.051875,118.9585857182753L64.1317890625,117.17699801075736L64.133296875,115.57357189550788L64.2313046875,114.13049067720601L64.54040625,112.83171943192265L64.630875,116.71999732420393L64.959578125,110.10510789122891L64.977671875,109.20887884637237L65.478265625,113.45943647896163L65.846171875,117.28493512857878L65.9894140625,120.72788130526979L66.3151015625,118.76937319697453L66.5684140625,122.0638730660936L66.89560937499999,119.97176654869943L67.4188203125,118.08887161881015L68.065671875,116.39426693987912L68.0913046875,119.92627487878843L68.198359375,118.04793020401992L68.240578125,121.4145704349611L68.39588281249999,114.33024738558075L68.51952343750001,118.06865542778084L68.67784375000001,116.37607388407432L68.8572734375,114.85275082062952L68.988453125,118.53890733570668L69.1859765625,121.85644762439054L69.3005703125,124.84223341854883L69.531265625,122.4722943728418L69.742359375,125.39649508180642L70.013765625,128.0282754206586L70.324375,125.33973242007347L70.3952421875,127.9771887849626L70.76465625,130.35089931662372L70.91392968749999,132.4872386357603L70.9531328125,134.4099438939027L71.36928906249999,131.0832343618861L71.45221875,123.0320519163595L71.95281250000001,120.84313198230387L72.12621093749999,118.87310412842781L72.23175781249999,117.1000791302263L72.66148437499999,110.44721306243467L73.10478125,109.51677734310825L73.27064062500001,108.67938521991451L73.3264296875,107.92573232864225L73.33999999999999,107.24744474237481L73.789328125,111.6941292389427L74.1225546875,110.63900194404496L74.1496953125,114.74653061989075L74.2100078125,118.44330637137573L74.42260937500001,116.71326134657704L74.67893749999999,115.15622084362812L74.96240625,113.75488440666362L75.26246093750001,112.49368162610426L75.2775390625,111.35859913389478L75.58513281249999,110.33702489924447L76.105328125,114.47475111032719L76.274203125,113.14156167600461L76.31491406250001,111.94169119225363L76.346578125,110.86180776266069L76.5742578125,109.88991268071113L76.6285390625,109.01520711075074L76.8667734375,113.28511504216749L77.37942968750001,112.07088923404925L77.402046875,110.9780860101983L77.5935390625,109.99456311153142L77.63877343749999,114.16653541736216L77.73075,112.86416757711278L77.99160156250001,111.69203652332013L78.02628125000001,100.52283278207894L78.119765625,100.58483521860094L78.2328515625,100.64063741138642L78.59623437500001,100.69085938482492L78.7153515625,100.73605916086424L78.7243984375,100.77673895925479L78.768125,100.81335077776988L79.4179921875,100.84630141440407L79.7798671875,100.87595698735097L79.9547734375,100.902647002984L80.254828125,100.92666801703801L80.5895625,100.94828692967394L80.94088281249999,100.96774395103607L80.99365625,106.042398137629L81.2213359375,110.60958690361164L82.872390625,114.72005679141589L82.956828125,118.41947968915974L83.01714062500001,121.74896029609235L83.3141796875,114.63120711512178L83.38353906249999,113.282372116445L83.80421874999999,117.12556347994845L83.92032031250001,115.52729284484727L84.19172656250001,114.08884927352076L84.82048437499999,107.73710719883036L84.929046875,107.07768219281436L85.55478906249999,111.54134254751231L85.6181171875,115.55863686625591L85.628671875,114.11705889324878L85.65732031249999,112.81963871766912L86.02975,116.7091034187892L86.19108593749999,115.15247879067073L86.30869531249999,118.80865948414261L86.3207578125,117.04207924953124L86.5001875,115.45215703847268L87.088234375,114.02122704859437L87.08974218750001,112.73339005776415L87.22846093749999,111.57433676606566L88.0095078125,110.53118880357643L88.1934609375,104.5352127794907L88.6518359375,104.19597721578309L88.746828125,98.83352235071678L88.8086484375,94.00731297227682L88.90213281250001,89.66372453177797L88.9654609375,90.81163779298434L89.44946875000001,91.84475972805144L89.9741875,92.7745694695966L90.0028359375,88.55425537951598L90.2078984375,89.81311555592096L90.218453125,90.94608971467194L90.3828046875,97.0229093149103L90.42049999999999,97.43490409772194L90.66778125,102.8628422595788L90.670796875,102.69084374790093L90.7868984375,102.53604508739201L90.8230859375,102.3967262929348L91.33574218749999,102.27133937792405L91.4714453125,102.15849115441495L91.5664375,102.05692775325709L91.744359375,107.02266354944771L91.8001484375,106.43468290877932L92.5178671875,105.90550033217951L92.58421093749999,105.42923601324124L92.9370390625,105.00059812619786L93.243125,104.61482402785975L93.3743046875,104.26762733935625L93.487390625,103.95515031970373L93.51453125,108.73106385919823L93.90053125,107.97224318755899L94.34232031250001,107.28930458308454L95.25153125,106.6746598390585L95.296765625,111.17862242660367L95.6631640625,110.17504589822455L95.761171875,109.27182702268414L95.857671875,108.45893003469855L95.9164765625,107.72732274551204L96.43516406250001,112.12601904240236L96.5648359375,105.97055999528874L96.6010234375,105.4877897100445L97.02471875,110.11043931047864L97.027734375,109.21368109371475L97.178515625,108.40659869862758L97.9067890625,102.62308168589861L98.2324765625,102.47505923159429L98.3938125,102.34183902272036L98.43,102.22194083473394L98.56871875,102.1140324655462L98.98336718750001,107.07405779042473L99.6045859375,106.48093772566749L100.1866015625,105.94712966738612L100.5695859375,110.52384527207921L100.6374375,104.52860360201058L102.1588203125,104.19002895609515L102.220640625,103.88531177477114L102.48450781250001,103.61106631157976L102.576484375,108.42138825185225L102.6051328125,107.69353514095245L103.3620546875,112.09561019828722L104.0315234375,111.00033489274388L104.4718046875,115.07172997489914L104.60298437499999,118.7359855488386L104.964859375,116.97667270824007L105.06286718749999,115.39329115170149L105.26340625,119.02539060796062L105.417203125,112.17999440430627L105.5031484375,111.07628067816121L105.875578125,110.08293832463072L107.0350859375,109.18893020645325L107.28387500000001,108.38432290009365L107.45275,107.66017632436991L107.87795312499999,107.00844440621854L107.99857812500001,106.42188567988242L108.390609375,105.8939828261799L108.6906640625,105.41887025784757L108.8293828125,104.99126894634863L108.939453125,104.60642776599943L109.06007812499999,104.26007070368519L109.1460234375,103.94834934760246L109.56971875,103.66780012712798L110.00396875,103.4153058287009L110.48043750000001,103.1880609601165L110.8830234375,108.0406834355336L111.1393515625,107.35090080626603L111.22831249999999,111.78723929706813L111.2569609375,115.77994393879001L111.34742968750001,114.31623525919676L111.7756484375,112.99889744756277L112.54915625,111.81329341709224L112.66827343749999,110.74624978966881L112.86127343749999,109.78591052498761L112.9185703125,103.86446232963165L113.05427343749999,98.53515895381133L113.39353125,98.79592877271604L113.752390625,99.03062160973008L113.909203125,99.24184516304284L114.12331250000001,99.43194636102433L114.45955468749999,99.60303743920761L114.4851875,99.75701940957254L115.332578125,104.95274604004388L116.460421875,109.62890000746813L116.647390625,108.78029572100709L117.413359375,108.0165518631921L117.437484375,112.3863252483014L117.660640625,111.26197843775707L117.69079687499999,110.25006630826715L117.7888046875,114.39648824886896L117.9727578125,113.07112513826786L119.445890625,116.93544119586964L119.49564843750001,120.41332564771128L119.58159375,118.4862787972259L119.72332812500001,121.80907948893186L119.8695859375,119.74245725432444L120.4033515625,122.9396401003205L120.543578125,125.81710466171708L120.7199921875,128.4068227669739L120.87831249999999,125.68042620456234L121.3864453125,123.22666929839193L122.0589296875,126.0754309399813L122.98020312499999,123.58217356026894L123.070671875,121.33824191852769L123.81553124999999,119.31870344096065L124.28144531250001,122.55826166829314L124.29803125,120.41672121574959L124.566421875,118.4893348084604L124.58753125,116.75468704190003L124.68855468749999,115.1935040519958L125.4183359375,113.78843936108198L125.4786484375,112.52388113925952L125.7500546875,111.38577873961931L125.9340078125,110.3614865799431L126.69394531249999,109.4396236362345L126.8477421875,108.60994698689686L126.91559375,112.92038085963576L127.07843749999999,111.7426284879579L127.57752343749999,115.73979421059067L128.5726796875,119.33724336096023L128.9134453125,117.51780473914994L128.9918515625,120.93745283666355L129.17128125,118.95799326728297L129.2135,117.17647965484042L129.499984375,115.57311740364202L130.2222265625,114.13009137756353L130.2765078125,112.83136795409297L130.60973437500002,111.66251687296946L130.69115625,115.66769375710113L130.72131249999998,119.27235295281957L131.1811953125,112.40226051468055L131.809953125,111.27632017749823L132.491484375,115.32011673117701L132.5201328125,113.90239077234509L132.750828125,117.68358026653911L133.0116796875,116.02950795417095L133.112703125,114.5408428730396L133.842484375,118.25818715716417L133.9073203125,116.5466541557335L134.2435625,115.0062744544459L134.5707578125,113.61993272328709L134.79542187500002,117.42936802238694L134.9718359375,120.85785979157681L135.1165859375,123.94350238384769L135.1738828125,121.66343785974865L135.40005468750002,119.61137978805951L136.17808593750001,117.76452752353934L136.76010156249998,121.15950334261404L136.86866406250002,119.15783872263839L137.0345234375,122.41348342180311L137.18078125,120.28642079390855L137.286328125,123.4292072859463L137.792953125,121.20057227163744L137.82763281249998,119.19480075875941L138.1141171875,117.38960639716925L138.5724921875,115.7649314717381L138.6086796875,114.30272403884999L138.7202578125,118.04388020639357L138.7564453125,121.41092075718284L138.8258046875,119.38411439575026L138.96753906249998,117.55998867046094L139.415359375,120.9754183748434L139.4304375,118.99216225164484L139.8722265625,117.20723174076608L140.2733046875,115.60079428097526L140.368296875,114.15500056716351L140.796515625,117.91092908187579L140.98951562500002,116.23412188797397L141.0633984375,114.72499541346231L141.092046875,113.36678158640186L141.20664062499998,107.08724628490451L141.60771875,106.49280737069984L141.61978125000002,105.9578123479156L141.7057265625,110.53345968455264L141.8957109375,109.59439943038309L141.93340625,108.74924520163053L142.5651796875,113.04574925289603L143.3582890625,116.912602899035L143.79103125,120.39277118056009L144.40621875,118.4677797767898L145.042515625,121.79243037053944L145.05759375,119.72747304777126L145.512953125,122.92615431442269L145.99394531250002,120.74782459726615L146.51715625,118.78732785182527L146.94688281249998,122.08002363807134L147.44898437499998,119.98630698854998L147.53040625000003,118.10196200398073L147.6676171875,116.40605151786843L148.1636875,114.87973208036733L148.32653125,113.50604458661635L148.5738125,117.32686869938333L148.9115625,120.76561040087361L149.1151171875,123.86047793221485L150.0198046875,121.58871585327907L150.0771015625,119.54412998223692L150.11178124999998,117.70400269829899L150.5867421875,116.04788814275487L150.6440390625,114.55738504276516L150.868703125,113.2159322527744L151.08884375,106.95148188463975L151.194390625,106.37061941046153L151.894015625,105.84784318370113L153.1047890625,105.37734457961673L153.60990625,104.95389583594083L153.89639062499998,104.57279196663247L153.9401171875,104.22979848425496L154.4618203125,108.97824720725806L154.85385156249998,103.1375653436751L154.9428125,102.93809452359336L155.099625,102.75857078551982L155.35595312499998,102.59699942125357L155.56553906250002,102.45158519341395L155.7464765625,102.32071238835827L155.87464062499998,102.20292686380817L156.133984375,102.09691989171314L156.3797578125,107.05865647397039L156.875828125,106.4670765408591L157.174375,105.9346546010589L157.86042968750002,105.45547485523873L157.889078125,105.02421308400062L157.946375,109.69322034702915L158.80432031249998,113.89532688375479L159.234046875,112.62007990966508L159.6004453125,111.47235763298434L159.963828125,110.43940758397164L159.972875,109.50975253986022L160.09048437500002,108.67306300015997L160.1040546875,107.92004241442976L160.3302265625,107.24232388727253L160.9122421875,111.68952006997388L161.1384140625,110.63485377726222L161.26808593750002,114.74279697096458L161.4641015625,118.43994584529668L161.5786953125,116.71023697505274L161.7716953125,115.1534989918332L162.0611953125,113.75243480693568L162.213484375,112.49147704052785L163.1377734375,111.35661505076082L163.612734375,115.39238211711336L163.97159375,113.96742961968772L164.071109375,117.7421152291475L164.4133828125,116.08218942051849L164.6033671875,114.58825619275237L164.6063828125,113.24371628776282L164.7511328125,112.03363037327232L164.7993828125,110.94455305023084L165.084359375,109.96438345949355L165.1522109375,109.08223082782993L165.434171875,108.28829345933269L165.53971875,107.57374982768519L166.2378359375,106.93066055920244L166.31021093750002,106.35188021756794L166.3856015625,110.88812076723977L166.58915625,109.9135944048015L166.6434375,109.03652067860706L166.89825781250002,108.2471543250321L167.13347656250002,107.5367246068146L167.177203125,111.95448071756174L167.43202343750002,110.87331836009126L167.51947656250002,114.95741509551073L168.184421875,118.63310215738825L168.2341796875,116.88407765593517L168.3909921875,115.30995560462739L168.5855,113.89324575845045L168.9126953125,112.61820689689111L169.06196875,111.4706719214877L169.167515625,110.43789044362468L169.306234375,109.50838711354794L169.37257812500002,108.67183411647889L169.794765625,107.91893641911672L169.82190625,107.2413284914908L170.1943359375,106.63148135662748L170.2335390625,106.08261893525044L170.3993984375,105.58864275601117L170.6104921875,110.2012070518386L170.86380468750002,109.2953720609405L171.1472734375,113.53726342627505L171.9343515625,112.29782279793329L172.0278359375,111.18232623242574L172.1092578125,115.2355221806117L172.1876640625,113.82625567683631L172.35050781249998,112.55791582343839L172.563109375,111.41640995538033L173.31098437499998,110.389054674128L173.6532578125,109.46443492100092L173.87490625,103.57513428604372L174.3981171875,103.33190657172514L174.57302343749998,103.11300162883839L174.7811015625,102.9159871802403L175.023859375,102.738674176502L175.14448437500002,102.57909247313752L175.15353125000001,102.43546894010954L175.343515625,102.30620776038437L175.4505703125,102.18987269863165L175.7144375,102.08517114305428L175.9481484375,107.04808260017741L175.9933828125,106.45756005444541L176.031078125,110.98323262042943L176.5000078125,109.99919507267226L176.5603203125,109.11356127969076L176.6326953125,108.3164908660074L176.87545312499998,102.54198463654957L177.60674218749998,107.45921474432318L178.09828906250002,106.82757898417661L178.26565625,101.20196394290174L179.0075,101.19605326289731L179.2683515625,101.1907336508933L179.33017187500002,101.1859460000897L179.541265625,101.18163711436647L179.6814921875,106.2349019743584L179.746328125,105.72569749120834L179.86393750000002,105.26741345637322L179.8684609375,104.85495782502166L180.9028203125,99.42660489966241L180.96011718749997,104.65537298112473L180.9812265625,109.36126425444083L181.1184375,108.53942354328247L181.7291015625,107.79976690324L181.81052343750002,107.13407592720176L181.8180625,106.53495404876733L181.88440624999998,105.99574435817635L182.40309375,105.51045563664444L183.1449375,110.13083864440858L184.3074609375,114.28918335139628L185.37197656249998,112.97455073054235L185.6463984375,111.7913813717739L185.7263125,110.72652894888226L185.837890625,114.82530462542263L185.979625,113.4570598771661L186.229921875,112.22563960373523L186.27515625,106.06021850050449L186.6475859375,105.56848236473981L186.7561484375,105.1259198425516L187.6879765625,99.67047071543927L187.89002343750002,99.81770935818105L188.07850000000002,99.9502241366487L188.874625,95.01234458012672L189.56067968750003,90.56825297925687L189.8803359375,91.6257133956169L190.21959375,92.5774277703409L190.2572890625,88.37682785044973L190.27990624999998,84.59628792254765L190.58146875,86.25094484457857L191.9581015625,87.74013607440645L192.33354687500002,89.08040818125153L192.44964843749997,90.2866530774121L192.47528125,81.25798776967092L193.28196093749997,83.24647470698952L193.407109375,79.9789700934334L193.6800234375,82.09535879837577L193.793109375,84.0001086328239L193.81421875,80.65724062668437L194.4550390625,77.64865942115883L194.655578125,74.94093633618581L194.88778125,77.56112841685297L195.1998984375,79.9193012894534L195.367265625,76.98451401765088L195.512015625,79.40034833017154L195.9055546875,76.51745635429722L196.07292187500002,78.97999643315323L196.1226796875,76.13913964698082L196.4664609375,78.6395113965685L196.959515625,80.88984597119737L197.20076562499997,82.91514708836337L197.5249453125,74.62363237952707L197.610890625,77.2755548558601L198.1280703125,79.66228508455981L198.581921875,76.75319943324664L198.94078125,74.13502234706482L198.94982812499998,76.83580582664408L199.176,79.2665109582654L199.263453125,81.45414557672457L199.420265625,78.36587387619494L199.565015625,75.58642934571834L200.4712109375,73.08492926828933L200.964265625,75.89072205574612L201.018546875,78.41593556445723L201.06378125,85.7457705794401L201.16329687500001,87.28547923578186L201.350265625,88.67121702648936L201.61262499999998,89.9183810381261L201.9187109375,91.0408286485992L201.99259375,92.05103149802504L202.1418671875,92.96021406250824L202.63341406249998,93.77847837054317L203.3255,89.45777339063167L203.78236718749997,90.62628176585424L204.03115624999998,91.67793930355457L204.1351953125,92.62443108748485L204.18796874999998,93.47627369302214L204.2769296875,94.24293203800568L204.3040703125,94.93292454849086L204.39303125,90.49677495078464L204.902671875,91.5613831699919L205.14542968749998,87.46238771013556L205.44246875000002,83.77329179626487L205.65356250000002,80.45310547378128L205.879734375,82.52208064068891L207.27295312500002,74.26987257661996L207.6212578125,76.95717103324372L207.8956796875,79.37573964420507L208.16859375,76.49530853692742L208.7883046875,73.90292054037755L209.37484375000003,71.5697713434826L209.52562500000002,69.46993706627721L209.7502890625,72.63722907393517L210.0518515625,75.48779188082734L211.543078125,72.99615554988746L212.0361328125,75.8108257091844L212.0542265625,73.28688599540878L212.206515625,76.07248311015364L212.900109375,73.52237765628114L213.5861640625,76.28442560493873L213.678140625,78.77026875873062L213.780671875,75.95038474000037L213.82741406250003,73.41248912314323L213.828921875,76.18552592511463L213.871140625,78.68125904688884L214.65821875,75.87027599934278L216.3695859375,78.39753411369423L216.428390625,75.61492355946767L216.4856875,73.11057406066372L217.293875,75.91380236888308L218.1186484375,73.37956498913758L218.1699140625,71.09875134736663L218.991671875,74.10316192691566L218.9946875,71.74998859136696L219.275140625,74.68927544651602L219.59630468749998,72.27749075900734L219.62796874999998,70.10688454024951L219.8827890625,73.21048180051024L221.28354687499998,76.00371933474489L221.554953125,73.46049025841333L221.66502343750003,71.1715840897149L222.2756875,74.16871139502913L222.9270625,76.86612596981196L223.05070312499998,79.29379908711648L223.50606249999998,81.47870489269054L223.54677343749998,78.38797726056428L223.575421875,80.66346524879361L224.1106953125,82.71140443819998L224.193625,79.4974068515229L224.492171875,76.60480902351348L224.82389062500002,74.00147097830505L224.926421875,76.71560959476022L224.98371875,79.15833434956996L225.2686953125,76.29964377175587L225.306390625,78.78396510886598L225.8627734375,75.9627114551223L226.548828125,78.4807260238958L226.79309375000003,80.74693913579189L226.8006328125,77.72938807935549L226.81118750000002,80.07073498570567L227.81991406249998,82.17794720142082L228.448671875,84.0744381955645L228.94021875,85.78128009029372L230.559609375,87.31743779555009L231.05718750000003,83.64283687313798L231.14464062500002,80.33569604296703L231.16725781250003,77.35926929581315L231.4326328125,79.73762808051755L232.3916015625,81.87815098675154L232.712765625,78.7474787452193L233.0037734375,80.98701658498311L233.59785156249998,77.94545778362763L233.97480468749998,75.2080548624077L234.063765625,67.68724937616692L234.1647890625,65.97566729569311L234.26279687500002,59.378100566123834L234.4542890625,58.49743336665432L234.567375,62.76197574427461L235.0091640625,61.54292102699L235.034796875,60.44577178143382L235.2202578125,64.5154803175761L235.34088281249998,68.1782180001042L235.565546875,66.41753905723662L235.64696875,64.83292800865577L235.8987734375,63.406778064933064L236.78084375,67.18038597272546L236.8547265625,60.46234737545291L236.9542421875,64.53039835219333L237.06883593749998,68.19164423125972L237.561890625,66.42962266527654L238.40324999999999,59.78666039874889L238.63696093750002,53.807994358873955L238.99280468749998,53.48433778012949L239.12096875,53.19304685925938L239.4903828125,57.98802788761914L239.8025,62.303510813142935L240.414671875,66.18744544611432L240.5398203125,64.62584375864576L240.6121953125,58.16325938278118L241.0162890625,57.404076301645915L241.67821874999998,56.72081152862414L241.916453125,56.10587323290457L242.7819375,55.55242876675695L243.291578125,49.997185890081255L243.798203125,44.99746730107316L244.10278125,45.55486342810869L244.46465625000002,46.0565199424407L244.92303125,46.50801080533947L245.239671875,46.91435258194838L246.011671875,47.28006018089641L246.096109375,47.60919701994965L246.33735937499998,42.84827731795468L246.38711718750002,43.62059244330209L246.70526562499998,44.31567605611474L246.843984375,44.9412513076461L246.9842109375,45.50426903402436L247.0535703125,51.06812784490768L248.6970859375,51.018457917559786L249.43591406250002,56.030897840089565L249.49924218750002,55.48495091322354L249.6289140625,54.99359867904403L250.0058671875,54.5513816682825L250.022453125,54.15338635859703L250.08125781249998,53.7951905798802L250.09784375,48.41567152189219L250.52606250000002,43.57410436970298L250.933171875,44.27383678987553L253.0395859375,44.90359596803086L253.3803515625,50.52752208551347L253.5175625,55.5890555912478L253.852296875,55.08729288926588L254.3136875,54.63570645748213L254.68159375,49.17213581173394L254.75246093750002,54.369207944846224L254.883640625,53.989430007504396L255.4973203125,53.64762986389677L255.56215625000002,53.34000973464998L255.60889843750002,48.00600876118497L256.5166015625,48.26255074220933L256.7518203125,48.49343852513127L257.9083125,48.70123752976099L257.983703125,48.88825663392774L258.243046875,49.05657382767782L258.5581796875,44.150916444910024L258.7783203125,44.79296765756189L260.082578125,45.370813748948564L260.08559375,45.89087523119656L260.35096875,41.301787708076915L260.739984375,47.28589465155491L261.4682578125,47.614448043542296L262.31866406250003,47.91014609633095L262.3216796875,48.1762743438407L262.380484375,48.41578976659949L262.832828125,48.63135364708242L263.2022421875,48.825361139517014L263.212796875,43.94282502556533L263.224859375,44.60568538015164L263.230890625,45.20225969927935L263.236921875,40.68203372935142L263.2399375,41.67097321355914L263.248984375,37.50387589220327L263.2535078125,38.81063116012581L263.2565234375,34.92956804411327L263.2595390625,36.49375409684478L263.2625546875,37.90152154430314L263.267078125,34.111369389872834L263.27009375,35.7573753080284L263.2746171875,37.238780634368425L263.2927109375,38.57204542807446L263.30025,39.771983742409844L263.3017578125,35.7947853681689L263.30778906250004,37.27244968849487L263.31834375,43.6594904339311L263.3349296875,49.40782710482368L263.339453125,49.52418725148419L263.34096093750003,49.62891138347862L263.345484375,49.72316310227362L263.3530234375,54.86513250633199L263.3620703125,59.492904969984494L263.363578125,58.60075733012893L263.369609375,57.797824454258944L263.372625,57.07518486597586L263.381671875,61.481952093664006L263.3831796875,60.390899741440535L263.3922265625,59.40895262443934L263.40278125,58.52520021913823L263.411828125,57.7298230543673L263.4163515625,57.01398360607345L263.4253984375,56.3697281026089L263.441984375,55.78989814949085L263.445,60.32519404882747L263.4465078125,59.34981750108766L263.454046875,58.471978608121745L263.4555546875,57.68192360445248L263.460078125,51.913731244007195L263.46309375,46.7223581196065L263.46460156250004,47.107265164788686L263.4676171875,47.45368150545269L263.47515625,52.822599069193146L263.490234375,52.5974820194167L263.49928125,52.39487667461785L263.502296875,52.212531864298924L263.5038046875,46.99127867786902L263.5098359375,47.34929366722497L263.51134375,47.67150715764532L263.517375,42.90435644188079L263.520390625,43.671063654835564L263.52943750000003,44.36110014649486L263.53094531249997,44.98213298898824L263.53546875,45.541062547232286L263.5415,46.04409914965194L263.55959375,41.43968923468674L263.5671328125,42.352863168360926L263.568640625,38.11757685152483L263.57165625,44.420104880658016L263.5852265625,45.035237249735076L263.586734375,40.531713524761585L263.59578125,41.53568502942829L263.5972890625,42.439259383628325L263.6183984375,48.309619159551175L263.6244296875,48.535800100738925L263.6274453125,48.739362947807905L263.6304609375,48.92256951016998L263.634984375,54.144598273438675L263.6395078125,53.78728130323766L263.65307812500004,53.46569603005669L263.662125,53.17626928419391L263.665140625,47.85864235577452L263.6817265625,48.12992097733991L263.683234375,48.37407173674879L263.69228125,53.65095027735964L263.7028359375,48.285855249623694L263.7390234375,53.57155543894703L263.74053125,53.2715427521952L263.743546875,53.001531334118525L263.7480703125,52.75852105784955L263.75108593749997,47.482668952064614L263.78274999999996,47.79154491400098L263.7872734375,48.06953327974372L263.7933046875,43.26257995176937L263.7948125,43.99346481373527L263.79632031250003,44.651261189504595L263.7993359375,35.12899221341124L263.8053671875,36.673235849213L263.80989062500004,38.06305512143453L263.81290625,39.31389246643391L263.815921875,40.4396460769334L263.8264765625,41.45282432638291L263.8325078125,42.36468475088748L263.83703125,43.185359132941585L263.8445703125,33.80968036250454L263.8566328125,35.48585518339695L263.8626640625,36.99441252220009L263.8656796875,38.352114127122945L263.8686953125,39.57404557155351L263.870203125,30.55949815725529L263.87925,37.61783405581545L263.88528125,33.8560506502339L263.88829687500004,35.52758844235336L263.8913125,37.0319724552609L263.8958359375,33.32877520973483L263.90940625,35.053040545904224L263.912421875,36.60487934845665L263.9139296875,43.058677127896686L263.91996093750004,43.80995227224989L263.9275,39.42895704502493L263.930515625,40.54320419766529L263.94559375,41.54602663504161L263.948609375,37.39142397153745L263.95162500000004,38.70942443152654L263.97122656249996,44.95276770265957L263.9772578125,45.51463378953645L263.9802734375,46.02031326772567L263.9953515625,46.47542479809596L264.002890625,46.885025175429234L264.0134453125,47.253665515029155L264.01796874999997,47.58544182066913L264.020984375,47.88404049574507L264.051140625,48.152779303313395L264.0526484375,53.4517870872678L264.05415625,53.163751235683876L264.057171875,57.961661826401155L264.0616953125,57.222638500903884L264.06471093749997,56.55751750795632L264.0737578125,55.958908614303596L264.0797890625,50.36301775287326L264.09034375,50.38385883472881L264.0918515625,50.40261580839879L264.093359375,50.419497084701746L264.1008984375,50.434690233374425L264.10240625,50.448364067179824L264.10843750000004,55.51781337474755L264.1250234375,55.02317489441559L264.1340703125,49.52085740497404L264.1431171875,49.62591452161951L264.147640625,49.7204659266004L264.15065625,54.86270504822603L264.159703125,49.37643454340345L264.1642265625,49.49593394620595L264.1702578125,44.54634055158539L264.1762890625,40.091706496426866L264.1793046875,41.13967870392702L264.183828125,42.08285369067718L264.18684375000004,42.931711178752295L264.192875,43.69568291801994L264.195890625,44.38325748336078L264.2004140625,45.00207459216756L264.207953125,45.55900999009364L264.213984375,41.003108991084275L264.2154921875,41.9599409491187L264.21850781250004,37.763946854206864L264.232078125,39.044695025929L264.2335859375,40.19736838047896L264.250171875,41.23477439957392L264.25318749999997,47.22558267390224L264.2546953125,47.560167263654876L264.26525000000004,42.804150537289416L264.268265625,43.58087834070329L264.2697734375,44.279933363775825L264.27128125,44.909082884541135L264.2727890625,50.532460310372684L264.2788203125,55.59349999362111L264.2818359375,55.091292851401874L264.3150078125,54.63930642340449L264.31953125,54.23251863820687L264.3331015625,53.86640963152901L264.337625,53.536911525518946L264.340640625,53.240363230109864L264.346671875,52.9734697642417L264.3481796875,52.73326564496037L264.3496875,52.51708193760719L264.352703125,52.322516600989374L264.364765625,52.1474077980333L264.3723046875,57.04695273251568L264.382859375,56.399400316406954L264.425078125,55.81660314190914L264.4356328125,55.292085684861135L264.4507109375,54.8200199735178L264.45221875,49.33801797616604L264.4597578125,49.46135903569228L264.47182031250003,49.57236598926589L264.47332812499997,49.67227224748214L264.4748359375,49.76218787987678L264.4899140625,49.84311194903195L264.491421875,49.9159436112716L264.4929296875,49.98149210728731L264.4959453125,50.04048575370143L264.4989609375,50.09358003547415L264.5019765625,55.198507746212485L264.503484375,54.73579982873413L264.50499218749997,54.319362703003534L264.5080078125,53.94456928984606L264.5351484375,53.607255218004255L264.5426875,48.24652969620385L264.55022656250003,43.42187672658349L264.55475,49.19397476821081L264.5592734375,49.3317201485326L264.5668125,49.455690990822205L264.58339843749997,44.51012189174L264.59696875,45.11625255970884L264.6014921875,50.71891301802371L264.603,50.70416457336424L264.6165703125,45.633748116027846L264.6256171875,51.18465901871079L264.648234375,51.12333597398255L264.6497421875,51.068145233727165L264.6527578125,51.01847356749734L264.6587890625,50.973769067890444L264.6648203125,45.87639216110139L264.66934375,41.288752944991245L264.678390625,42.21702050763497L264.68140625,43.052461314014295L264.6949765625,38.747215182612905L264.7010078125,39.929636521494444L264.702515625,40.99381572648784" style="fill: none;" fill="none"></path></g></g></g></g><g opacity="0.2"><g><g><g><path stroke="rgb(255, 112, 67)" stroke-width="2px" d="M31.333851562499998,101.14285714285715L31.665570312499998,151.71428571428572L31.6881875,101.14285714285715L31.7379453125,151.71428571428572L32.903484375,151.71428571428572L32.93665625,151.71428571428572L33.2578203125,151.71428571428572L33.2804375,151.71428571428572L33.3301953125,151.71428571428572L33.4327265625,151.71428571428572L33.5774765625,151.71428571428572L33.983078125,151.71428571428572L34.2891640625,151.71428571428572L34.3072578125,101.14285714285715L34.390187499999996,101.14285714285715L34.4791484375,151.71428571428572L35.061164062500005,151.71428571428572L35.493906249999995,151.71428571428572L35.6673046875,101.14285714285715L35.8241171875,151.71428571428572L36.100046875,151.71428571428572L36.136234375,151.71428571428572L36.9187890625,151.71428571428572L37.1660703125,151.71428571428572L37.523421875,151.71428571428572L37.659124999999996,101.14285714285715L38.1401171875,101.14285714285715L38.7945078125,101.14285714285715L38.952828124999996,151.71428571428572L39.2860546875,151.71428571428572L39.901242187499996,151.71428571428572L39.911796875,151.71428571428572L40.3988203125,151.71428571428572L40.58428125,151.71428571428572L40.641578125,151.71428571428572L40.819500000000005,151.71428571428572L41.196453125,101.14285714285715L41.44071875,151.71428571428572L41.9759921875,101.14285714285715L42.02575,151.71428571428572L42.132804687500006,151.71428571428572L42.3167578125,151.71428571428572L42.927421875,101.14285714285715L43.204859375,151.71428571428572L43.55165625,151.71428571428572L43.807984375000004,101.14285714285715L44.3492890625,101.14285714285715L44.6116484375,151.71428571428572L45.2177890625,101.14285714285715L45.279609375,101.14285714285715L45.5796640625,101.14285714285715L45.719890625,151.71428571428572L45.774171875,101.14285714285715L46.883921875,151.71428571428572L47.2201640625,151.71428571428572L47.25484375,151.71428571428572L47.379992187499994,101.14285714285715L47.569976562499996,151.71428571428572L47.619734375,101.14285714285715L47.722265625000006,151.71428571428572L48.418875,101.14285714285715L48.506328125,151.71428571428572L48.792812500000004,151.71428571428572L48.807890625000006,151.71428571428572L48.862171874999994,151.71428571428572L49.0566796875,101.14285714285715L49.2888828125,151.71428571428572L50.0337421875,151.71428571428572L51.0258828125,101.14285714285715L51.255070312499996,101.14285714285715L51.5898046875,101.14285714285715L51.69384375,101.14285714285715L51.717968750000004,50.57142857142857L52.7734375,101.14285714285715L52.82771875,101.14285714285715L53.53940625,101.14285714285715L54.3732265625,101.14285714285715L54.386796875,101.14285714285715L54.60090625,151.71428571428572L55.1452265625,101.14285714285715L55.418140625,151.71428571428572L55.5312265625,101.14285714285715L55.5478125,101.14285714285715L55.7091484375,151.71428571428572L56.01825,151.71428571428572L56.755570312500005,101.14285714285715L57.0149140625,151.71428571428572L57.105382812500004,151.71428571428572L57.507968749999996,101.14285714285715L57.56225,151.71428571428572L58.2483046875,151.71428571428572L58.43678125,101.14285714285715L58.827304687499996,151.71428571428572L59.6385078125,101.14285714285715L59.766671875,101.14285714285715L59.9159453125,151.71428571428572L60.030539062500004,101.14285714285715L60.80103125,101.14285714285715L61.099578125,101.14285714285715L61.3182109375,101.14285714285715L61.4810546875,101.14285714285715L61.756984375,151.71428571428572L61.853484375,151.71428571428572L62.522953125,101.14285714285715L62.71896875,151.71428571428572L63.0853671875,101.14285714285715L63.5935,101.14285714285715L63.777453125,101.14285714285715L63.8392734375,151.71428571428572L64.051875,101.14285714285715L64.1317890625,101.14285714285715L64.133296875,101.14285714285715L64.2313046875,101.14285714285715L64.54040625,101.14285714285715L64.630875,151.71428571428572L64.959578125,50.57142857142857L64.977671875,101.14285714285715L65.478265625,151.71428571428572L65.846171875,151.71428571428572L65.9894140625,151.71428571428572L66.3151015625,101.14285714285715L66.5684140625,151.71428571428572L66.89560937499999,101.14285714285715L67.4188203125,101.14285714285715L68.065671875,101.14285714285715L68.0913046875,151.71428571428572L68.198359375,101.14285714285715L68.240578125,151.71428571428572L68.39588281249999,50.57142857142857L68.51952343750001,151.71428571428572L68.67784375000001,101.14285714285715L68.8572734375,101.14285714285715L68.988453125,151.71428571428572L69.1859765625,151.71428571428572L69.3005703125,151.71428571428572L69.531265625,101.14285714285715L69.742359375,151.71428571428572L70.013765625,151.71428571428572L70.324375,101.14285714285715L70.3952421875,151.71428571428572L70.76465625,151.71428571428572L70.91392968749999,151.71428571428572L70.9531328125,151.71428571428572L71.36928906249999,101.14285714285715L71.45221875,50.57142857142857L71.95281250000001,101.14285714285715L72.12621093749999,101.14285714285715L72.23175781249999,101.14285714285715L72.66148437499999,50.57142857142857L73.10478125,101.14285714285715L73.27064062500001,101.14285714285715L73.3264296875,101.14285714285715L73.33999999999999,101.14285714285715L73.789328125,151.71428571428572L74.1225546875,101.14285714285715L74.1496953125,151.71428571428572L74.2100078125,151.71428571428572L74.42260937500001,101.14285714285715L74.67893749999999,101.14285714285715L74.96240625,101.14285714285715L75.26246093750001,101.14285714285715L75.2775390625,101.14285714285715L75.58513281249999,101.14285714285715L76.105328125,151.71428571428572L76.274203125,101.14285714285715L76.31491406250001,101.14285714285715L76.346578125,101.14285714285715L76.5742578125,101.14285714285715L76.6285390625,101.14285714285715L76.8667734375,151.71428571428572L77.37942968750001,101.14285714285715L77.402046875,101.14285714285715L77.5935390625,101.14285714285715L77.63877343749999,151.71428571428572L77.73075,101.14285714285715L77.99160156250001,101.14285714285715L78.02628125000001,0L78.119765625,101.14285714285715L78.2328515625,101.14285714285715L78.59623437500001,101.14285714285715L78.7153515625,101.14285714285715L78.7243984375,101.14285714285715L78.768125,101.14285714285715L79.4179921875,101.14285714285715L79.7798671875,101.14285714285715L79.9547734375,101.14285714285715L80.254828125,101.14285714285715L80.5895625,101.14285714285715L80.94088281249999,101.14285714285715L80.99365625,151.71428571428572L81.2213359375,151.71428571428572L82.872390625,151.71428571428572L82.956828125,151.71428571428572L83.01714062500001,151.71428571428572L83.3141796875,50.57142857142857L83.38353906249999,101.14285714285715L83.80421874999999,151.71428571428572L83.92032031250001,101.14285714285715L84.19172656250001,101.14285714285715L84.82048437499999,50.57142857142857L84.929046875,101.14285714285715L85.55478906249999,151.71428571428572L85.6181171875,151.71428571428572L85.628671875,101.14285714285715L85.65732031249999,101.14285714285715L86.02975,151.71428571428572L86.19108593749999,101.14285714285715L86.30869531249999,151.71428571428572L86.3207578125,101.14285714285715L86.5001875,101.14285714285715L87.088234375,101.14285714285715L87.08974218750001,101.14285714285715L87.22846093749999,101.14285714285715L88.0095078125,101.14285714285715L88.1934609375,50.57142857142857L88.6518359375,101.14285714285715L88.746828125,50.57142857142857L88.8086484375,50.57142857142857L88.90213281250001,50.57142857142857L88.9654609375,101.14285714285715L89.44946875000001,101.14285714285715L89.9741875,101.14285714285715L90.0028359375,50.57142857142857L90.2078984375,101.14285714285715L90.218453125,101.14285714285715L90.3828046875,151.71428571428572L90.42049999999999,101.14285714285715L90.66778125,151.71428571428572L90.670796875,101.14285714285715L90.7868984375,101.14285714285715L90.8230859375,101.14285714285715L91.33574218749999,101.14285714285715L91.4714453125,101.14285714285715L91.5664375,101.14285714285715L91.744359375,151.71428571428572L91.8001484375,101.14285714285715L92.5178671875,101.14285714285715L92.58421093749999,101.14285714285715L92.9370390625,101.14285714285715L93.243125,101.14285714285715L93.3743046875,101.14285714285715L93.487390625,101.14285714285715L93.51453125,151.71428571428572L93.90053125,101.14285714285715L94.34232031250001,101.14285714285715L95.25153125,101.14285714285715L95.296765625,151.71428571428572L95.6631640625,101.14285714285715L95.761171875,101.14285714285715L95.857671875,101.14285714285715L95.9164765625,101.14285714285715L96.43516406250001,151.71428571428572L96.5648359375,50.57142857142857L96.6010234375,101.14285714285715L97.02471875,151.71428571428572L97.027734375,101.14285714285715L97.178515625,101.14285714285715L97.9067890625,50.57142857142857L98.2324765625,101.14285714285715L98.3938125,101.14285714285715L98.43,101.14285714285715L98.56871875,101.14285714285715L98.98336718750001,151.71428571428572L99.6045859375,101.14285714285715L100.1866015625,101.14285714285715L100.5695859375,151.71428571428572L100.6374375,50.57142857142857L102.1588203125,101.14285714285715L102.220640625,101.14285714285715L102.48450781250001,101.14285714285715L102.576484375,151.71428571428572L102.6051328125,101.14285714285715L103.3620546875,151.71428571428572L104.0315234375,101.14285714285715L104.4718046875,151.71428571428572L104.60298437499999,151.71428571428572L104.964859375,101.14285714285715L105.06286718749999,101.14285714285715L105.26340625,151.71428571428572L105.417203125,50.57142857142857L105.5031484375,101.14285714285715L105.875578125,101.14285714285715L107.0350859375,101.14285714285715L107.28387500000001,101.14285714285715L107.45275,101.14285714285715L107.87795312499999,101.14285714285715L107.99857812500001,101.14285714285715L108.390609375,101.14285714285715L108.6906640625,101.14285714285715L108.8293828125,101.14285714285715L108.939453125,101.14285714285715L109.06007812499999,101.14285714285715L109.1460234375,101.14285714285715L109.56971875,101.14285714285715L110.00396875,101.14285714285715L110.48043750000001,101.14285714285715L110.8830234375,151.71428571428572L111.1393515625,101.14285714285715L111.22831249999999,151.71428571428572L111.2569609375,151.71428571428572L111.34742968750001,101.14285714285715L111.7756484375,101.14285714285715L112.54915625,101.14285714285715L112.66827343749999,101.14285714285715L112.86127343749999,101.14285714285715L112.9185703125,50.57142857142857L113.05427343749999,50.57142857142857L113.39353125,101.14285714285715L113.752390625,101.14285714285715L113.909203125,101.14285714285715L114.12331250000001,101.14285714285715L114.45955468749999,101.14285714285715L114.4851875,101.14285714285715L115.332578125,151.71428571428572L116.460421875,151.71428571428572L116.647390625,101.14285714285715L117.413359375,101.14285714285715L117.437484375,151.71428571428572L117.660640625,101.14285714285715L117.69079687499999,101.14285714285715L117.7888046875,151.71428571428572L117.9727578125,101.14285714285715L119.445890625,151.71428571428572L119.49564843750001,151.71428571428572L119.58159375,101.14285714285715L119.72332812500001,151.71428571428572L119.8695859375,101.14285714285715L120.4033515625,151.71428571428572L120.543578125,151.71428571428572L120.7199921875,151.71428571428572L120.87831249999999,101.14285714285715L121.3864453125,101.14285714285715L122.0589296875,151.71428571428572L122.98020312499999,101.14285714285715L123.070671875,101.14285714285715L123.81553124999999,101.14285714285715L124.28144531250001,151.71428571428572L124.29803125,101.14285714285715L124.566421875,101.14285714285715L124.58753125,101.14285714285715L124.68855468749999,101.14285714285715L125.4183359375,101.14285714285715L125.4786484375,101.14285714285715L125.7500546875,101.14285714285715L125.9340078125,101.14285714285715L126.69394531249999,101.14285714285715L126.8477421875,101.14285714285715L126.91559375,151.71428571428572L127.07843749999999,101.14285714285715L127.57752343749999,151.71428571428572L128.5726796875,151.71428571428572L128.9134453125,101.14285714285715L128.9918515625,151.71428571428572L129.17128125,101.14285714285715L129.2135,101.14285714285715L129.499984375,101.14285714285715L130.2222265625,101.14285714285715L130.2765078125,101.14285714285715L130.60973437500002,101.14285714285715L130.69115625,151.71428571428572L130.72131249999998,151.71428571428572L131.1811953125,50.57142857142857L131.809953125,101.14285714285715L132.491484375,151.71428571428572L132.5201328125,101.14285714285715L132.750828125,151.71428571428572L133.0116796875,101.14285714285715L133.112703125,101.14285714285715L133.842484375,151.71428571428572L133.9073203125,101.14285714285715L134.2435625,101.14285714285715L134.5707578125,101.14285714285715L134.79542187500002,151.71428571428572L134.9718359375,151.71428571428572L135.1165859375,151.71428571428572L135.1738828125,101.14285714285715L135.40005468750002,101.14285714285715L136.17808593750001,101.14285714285715L136.76010156249998,151.71428571428572L136.86866406250002,101.14285714285715L137.0345234375,151.71428571428572L137.18078125,101.14285714285715L137.286328125,151.71428571428572L137.792953125,101.14285714285715L137.82763281249998,101.14285714285715L138.1141171875,101.14285714285715L138.5724921875,101.14285714285715L138.6086796875,101.14285714285715L138.7202578125,151.71428571428572L138.7564453125,151.71428571428572L138.8258046875,101.14285714285715L138.96753906249998,101.14285714285715L139.415359375,151.71428571428572L139.4304375,101.14285714285715L139.8722265625,101.14285714285715L140.2733046875,101.14285714285715L140.368296875,101.14285714285715L140.796515625,151.71428571428572L140.98951562500002,101.14285714285715L141.0633984375,101.14285714285715L141.092046875,101.14285714285715L141.20664062499998,50.57142857142857L141.60771875,101.14285714285715L141.61978125000002,101.14285714285715L141.7057265625,151.71428571428572L141.8957109375,101.14285714285715L141.93340625,101.14285714285715L142.5651796875,151.71428571428572L143.3582890625,151.71428571428572L143.79103125,151.71428571428572L144.40621875,101.14285714285715L145.042515625,151.71428571428572L145.05759375,101.14285714285715L145.512953125,151.71428571428572L145.99394531250002,101.14285714285715L146.51715625,101.14285714285715L146.94688281249998,151.71428571428572L147.44898437499998,101.14285714285715L147.53040625000003,101.14285714285715L147.6676171875,101.14285714285715L148.1636875,101.14285714285715L148.32653125,101.14285714285715L148.5738125,151.71428571428572L148.9115625,151.71428571428572L149.1151171875,151.71428571428572L150.0198046875,101.14285714285715L150.0771015625,101.14285714285715L150.11178124999998,101.14285714285715L150.5867421875,101.14285714285715L150.6440390625,101.14285714285715L150.868703125,101.14285714285715L151.08884375,50.57142857142857L151.194390625,101.14285714285715L151.894015625,101.14285714285715L153.1047890625,101.14285714285715L153.60990625,101.14285714285715L153.89639062499998,101.14285714285715L153.9401171875,101.14285714285715L154.4618203125,151.71428571428572L154.85385156249998,50.57142857142857L154.9428125,101.14285714285715L155.099625,101.14285714285715L155.35595312499998,101.14285714285715L155.56553906250002,101.14285714285715L155.7464765625,101.14285714285715L155.87464062499998,101.14285714285715L156.133984375,101.14285714285715L156.3797578125,151.71428571428572L156.875828125,101.14285714285715L157.174375,101.14285714285715L157.86042968750002,101.14285714285715L157.889078125,101.14285714285715L157.946375,151.71428571428572L158.80432031249998,151.71428571428572L159.234046875,101.14285714285715L159.6004453125,101.14285714285715L159.963828125,101.14285714285715L159.972875,101.14285714285715L160.09048437500002,101.14285714285715L160.1040546875,101.14285714285715L160.3302265625,101.14285714285715L160.9122421875,151.71428571428572L161.1384140625,101.14285714285715L161.26808593750002,151.71428571428572L161.4641015625,151.71428571428572L161.5786953125,101.14285714285715L161.7716953125,101.14285714285715L162.0611953125,101.14285714285715L162.213484375,101.14285714285715L163.1377734375,101.14285714285715L163.612734375,151.71428571428572L163.97159375,101.14285714285715L164.071109375,151.71428571428572L164.4133828125,101.14285714285715L164.6033671875,101.14285714285715L164.6063828125,101.14285714285715L164.7511328125,101.14285714285715L164.7993828125,101.14285714285715L165.084359375,101.14285714285715L165.1522109375,101.14285714285715L165.434171875,101.14285714285715L165.53971875,101.14285714285715L166.2378359375,101.14285714285715L166.31021093750002,101.14285714285715L166.3856015625,151.71428571428572L166.58915625,101.14285714285715L166.6434375,101.14285714285715L166.89825781250002,101.14285714285715L167.13347656250002,101.14285714285715L167.177203125,151.71428571428572L167.43202343750002,101.14285714285715L167.51947656250002,151.71428571428572L168.184421875,151.71428571428572L168.2341796875,101.14285714285715L168.3909921875,101.14285714285715L168.5855,101.14285714285715L168.9126953125,101.14285714285715L169.06196875,101.14285714285715L169.167515625,101.14285714285715L169.306234375,101.14285714285715L169.37257812500002,101.14285714285715L169.794765625,101.14285714285715L169.82190625,101.14285714285715L170.1943359375,101.14285714285715L170.2335390625,101.14285714285715L170.3993984375,101.14285714285715L170.6104921875,151.71428571428572L170.86380468750002,101.14285714285715L171.1472734375,151.71428571428572L171.9343515625,101.14285714285715L172.0278359375,101.14285714285715L172.1092578125,151.71428571428572L172.1876640625,101.14285714285715L172.35050781249998,101.14285714285715L172.563109375,101.14285714285715L173.31098437499998,101.14285714285715L173.6532578125,101.14285714285715L173.87490625,50.57142857142857L174.3981171875,101.14285714285715L174.57302343749998,101.14285714285715L174.7811015625,101.14285714285715L175.023859375,101.14285714285715L175.14448437500002,101.14285714285715L175.15353125000001,101.14285714285715L175.343515625,101.14285714285715L175.4505703125,101.14285714285715L175.7144375,101.14285714285715L175.9481484375,151.71428571428572L175.9933828125,101.14285714285715L176.031078125,151.71428571428572L176.5000078125,101.14285714285715L176.5603203125,101.14285714285715L176.6326953125,101.14285714285715L176.87545312499998,50.57142857142857L177.60674218749998,151.71428571428572L178.09828906250002,101.14285714285715L178.26565625,50.57142857142857L179.0075,101.14285714285715L179.2683515625,101.14285714285715L179.33017187500002,101.14285714285715L179.541265625,101.14285714285715L179.6814921875,151.71428571428572L179.746328125,101.14285714285715L179.86393750000002,101.14285714285715L179.8684609375,101.14285714285715L180.9028203125,50.57142857142857L180.96011718749997,151.71428571428572L180.9812265625,151.71428571428572L181.1184375,101.14285714285715L181.7291015625,101.14285714285715L181.81052343750002,101.14285714285715L181.8180625,101.14285714285715L181.88440624999998,101.14285714285715L182.40309375,101.14285714285715L183.1449375,151.71428571428572L184.3074609375,151.71428571428572L185.37197656249998,101.14285714285715L185.6463984375,101.14285714285715L185.7263125,101.14285714285715L185.837890625,151.71428571428572L185.979625,101.14285714285715L186.229921875,101.14285714285715L186.27515625,50.57142857142857L186.6475859375,101.14285714285715L186.7561484375,101.14285714285715L187.6879765625,50.57142857142857L187.89002343750002,101.14285714285715L188.07850000000002,101.14285714285715L188.874625,50.57142857142857L189.56067968750003,50.57142857142857L189.8803359375,101.14285714285715L190.21959375,101.14285714285715L190.2572890625,50.57142857142857L190.27990624999998,50.57142857142857L190.58146875,101.14285714285715L191.9581015625,101.14285714285715L192.33354687500002,101.14285714285715L192.44964843749997,101.14285714285715L192.47528125,0L193.28196093749997,101.14285714285715L193.407109375,50.57142857142857L193.6800234375,101.14285714285715L193.793109375,101.14285714285715L193.81421875,50.57142857142857L194.4550390625,50.57142857142857L194.655578125,50.57142857142857L194.88778125,101.14285714285715L195.1998984375,101.14285714285715L195.367265625,50.57142857142857L195.512015625,101.14285714285715L195.9055546875,50.57142857142857L196.07292187500002,101.14285714285715L196.1226796875,50.57142857142857L196.4664609375,101.14285714285715L196.959515625,101.14285714285715L197.20076562499997,101.14285714285715L197.5249453125,0L197.610890625,101.14285714285715L198.1280703125,101.14285714285715L198.581921875,50.57142857142857L198.94078125,50.57142857142857L198.94982812499998,101.14285714285715L199.176,101.14285714285715L199.263453125,101.14285714285715L199.420265625,50.57142857142857L199.565015625,50.57142857142857L200.4712109375,50.57142857142857L200.964265625,101.14285714285715L201.018546875,101.14285714285715L201.06378125,151.71428571428572L201.16329687500001,101.14285714285715L201.350265625,101.14285714285715L201.61262499999998,101.14285714285715L201.9187109375,101.14285714285715L201.99259375,101.14285714285715L202.1418671875,101.14285714285715L202.63341406249998,101.14285714285715L203.3255,50.57142857142857L203.78236718749997,101.14285714285715L204.03115624999998,101.14285714285715L204.1351953125,101.14285714285715L204.18796874999998,101.14285714285715L204.2769296875,101.14285714285715L204.3040703125,101.14285714285715L204.39303125,50.57142857142857L204.902671875,101.14285714285715L205.14542968749998,50.57142857142857L205.44246875000002,50.57142857142857L205.65356250000002,50.57142857142857L205.879734375,101.14285714285715L207.27295312500002,0L207.6212578125,101.14285714285715L207.8956796875,101.14285714285715L208.16859375,50.57142857142857L208.7883046875,50.57142857142857L209.37484375000003,50.57142857142857L209.52562500000002,50.57142857142857L209.7502890625,101.14285714285715L210.0518515625,101.14285714285715L211.543078125,50.57142857142857L212.0361328125,101.14285714285715L212.0542265625,50.57142857142857L212.206515625,101.14285714285715L212.900109375,50.57142857142857L213.5861640625,101.14285714285715L213.678140625,101.14285714285715L213.780671875,50.57142857142857L213.82741406250003,50.57142857142857L213.828921875,101.14285714285715L213.871140625,101.14285714285715L214.65821875,50.57142857142857L216.3695859375,101.14285714285715L216.428390625,50.57142857142857L216.4856875,50.57142857142857L217.293875,101.14285714285715L218.1186484375,50.57142857142857L218.1699140625,50.57142857142857L218.991671875,101.14285714285715L218.9946875,50.57142857142857L219.275140625,101.14285714285715L219.59630468749998,50.57142857142857L219.62796874999998,50.57142857142857L219.8827890625,101.14285714285715L221.28354687499998,101.14285714285715L221.554953125,50.57142857142857L221.66502343750003,50.57142857142857L222.2756875,101.14285714285715L222.9270625,101.14285714285715L223.05070312499998,101.14285714285715L223.50606249999998,101.14285714285715L223.54677343749998,50.57142857142857L223.575421875,101.14285714285715L224.1106953125,101.14285714285715L224.193625,50.57142857142857L224.492171875,50.57142857142857L224.82389062500002,50.57142857142857L224.926421875,101.14285714285715L224.98371875,101.14285714285715L225.2686953125,50.57142857142857L225.306390625,101.14285714285715L225.8627734375,50.57142857142857L226.548828125,101.14285714285715L226.79309375000003,101.14285714285715L226.8006328125,50.57142857142857L226.81118750000002,101.14285714285715L227.81991406249998,101.14285714285715L228.448671875,101.14285714285715L228.94021875,101.14285714285715L230.559609375,101.14285714285715L231.05718750000003,50.57142857142857L231.14464062500002,50.57142857142857L231.16725781250003,50.57142857142857L231.4326328125,101.14285714285715L232.3916015625,101.14285714285715L232.712765625,50.57142857142857L233.0037734375,101.14285714285715L233.59785156249998,50.57142857142857L233.97480468749998,50.57142857142857L234.063765625,0L234.1647890625,50.57142857142857L234.26279687500002,0L234.4542890625,50.57142857142857L234.567375,101.14285714285715L235.0091640625,50.57142857142857L235.034796875,50.57142857142857L235.2202578125,101.14285714285715L235.34088281249998,101.14285714285715L235.565546875,50.57142857142857L235.64696875,50.57142857142857L235.8987734375,50.57142857142857L236.78084375,101.14285714285715L236.8547265625,0L236.9542421875,101.14285714285715L237.06883593749998,101.14285714285715L237.561890625,50.57142857142857L238.40324999999999,0L238.63696093750002,0L238.99280468749998,50.57142857142857L239.12096875,50.57142857142857L239.4903828125,101.14285714285715L239.8025,101.14285714285715L240.414671875,101.14285714285715L240.5398203125,50.57142857142857L240.6121953125,0L241.0162890625,50.57142857142857L241.67821874999998,50.57142857142857L241.916453125,50.57142857142857L242.7819375,50.57142857142857L243.291578125,0L243.798203125,0L244.10278125,50.57142857142857L244.46465625000002,50.57142857142857L244.92303125,50.57142857142857L245.239671875,50.57142857142857L246.011671875,50.57142857142857L246.096109375,50.57142857142857L246.33735937499998,0L246.38711718750002,50.57142857142857L246.70526562499998,50.57142857142857L246.843984375,50.57142857142857L246.9842109375,50.57142857142857L247.0535703125,101.14285714285715L248.6970859375,50.57142857142857L249.43591406250002,101.14285714285715L249.49924218750002,50.57142857142857L249.6289140625,50.57142857142857L250.0058671875,50.57142857142857L250.022453125,50.57142857142857L250.08125781249998,50.57142857142857L250.09784375,0L250.52606250000002,0L250.933171875,50.57142857142857L253.0395859375,50.57142857142857L253.3803515625,101.14285714285715L253.5175625,101.14285714285715L253.852296875,50.57142857142857L254.3136875,50.57142857142857L254.68159375,0L254.75246093750002,101.14285714285715L254.883640625,50.57142857142857L255.4973203125,50.57142857142857L255.56215625000002,50.57142857142857L255.60889843750002,0L256.5166015625,50.57142857142857L256.7518203125,50.57142857142857L257.9083125,50.57142857142857L257.983703125,50.57142857142857L258.243046875,50.57142857142857L258.5581796875,0L258.7783203125,50.57142857142857L260.082578125,50.57142857142857L260.08559375,50.57142857142857L260.35096875,0L260.739984375,101.14285714285715L261.4682578125,50.57142857142857L262.31866406250003,50.57142857142857L262.3216796875,50.57142857142857L262.380484375,50.57142857142857L262.832828125,50.57142857142857L263.2022421875,50.57142857142857L263.212796875,0L263.224859375,50.57142857142857L263.230890625,50.57142857142857L263.236921875,0L263.2399375,50.57142857142857L263.248984375,0L263.2535078125,50.57142857142857L263.2565234375,0L263.2595390625,50.57142857142857L263.2625546875,50.57142857142857L263.267078125,0L263.27009375,50.57142857142857L263.2746171875,50.57142857142857L263.2927109375,50.57142857142857L263.30025,50.57142857142857L263.3017578125,0L263.30778906250004,50.57142857142857L263.31834375,101.14285714285715L263.3349296875,101.14285714285715L263.339453125,50.57142857142857L263.34096093750003,50.57142857142857L263.345484375,50.57142857142857L263.3530234375,101.14285714285715L263.3620703125,101.14285714285715L263.363578125,50.57142857142857L263.369609375,50.57142857142857L263.372625,50.57142857142857L263.381671875,101.14285714285715L263.3831796875,50.57142857142857L263.3922265625,50.57142857142857L263.40278125,50.57142857142857L263.411828125,50.57142857142857L263.4163515625,50.57142857142857L263.4253984375,50.57142857142857L263.441984375,50.57142857142857L263.445,101.14285714285715L263.4465078125,50.57142857142857L263.454046875,50.57142857142857L263.4555546875,50.57142857142857L263.460078125,0L263.46309375,0L263.46460156250004,50.57142857142857L263.4676171875,50.57142857142857L263.47515625,101.14285714285715L263.490234375,50.57142857142857L263.49928125,50.57142857142857L263.502296875,50.57142857142857L263.5038046875,0L263.5098359375,50.57142857142857L263.51134375,50.57142857142857L263.517375,0L263.520390625,50.57142857142857L263.52943750000003,50.57142857142857L263.53094531249997,50.57142857142857L263.53546875,50.57142857142857L263.5415,50.57142857142857L263.55959375,0L263.5671328125,50.57142857142857L263.568640625,0L263.57165625,101.14285714285715L263.5852265625,50.57142857142857L263.586734375,0L263.59578125,50.57142857142857L263.5972890625,50.57142857142857L263.6183984375,101.14285714285715L263.6244296875,50.57142857142857L263.6274453125,50.57142857142857L263.6304609375,50.57142857142857L263.634984375,101.14285714285715L263.6395078125,50.57142857142857L263.65307812500004,50.57142857142857L263.662125,50.57142857142857L263.665140625,0L263.6817265625,50.57142857142857L263.683234375,50.57142857142857L263.69228125,101.14285714285715L263.7028359375,0L263.7390234375,101.14285714285715L263.74053125,50.57142857142857L263.743546875,50.57142857142857L263.7480703125,50.57142857142857L263.75108593749997,0L263.78274999999996,50.57142857142857L263.7872734375,50.57142857142857L263.7933046875,0L263.7948125,50.57142857142857L263.79632031250003,50.57142857142857L263.7993359375,-50.571428571428584L263.8053671875,50.57142857142857L263.80989062500004,50.57142857142857L263.81290625,50.57142857142857L263.815921875,50.57142857142857L263.8264765625,50.57142857142857L263.8325078125,50.57142857142857L263.83703125,50.57142857142857L263.8445703125,-50.571428571428584L263.8566328125,50.57142857142857L263.8626640625,50.57142857142857L263.8656796875,50.57142857142857L263.8686953125,50.57142857142857L263.870203125,-50.571428571428584L263.87925,101.14285714285715L263.88528125,0L263.88829687500004,50.57142857142857L263.8913125,50.57142857142857L263.8958359375,0L263.90940625,50.57142857142857L263.912421875,50.57142857142857L263.9139296875,101.14285714285715L263.91996093750004,50.57142857142857L263.9275,0L263.930515625,50.57142857142857L263.94559375,50.57142857142857L263.948609375,0L263.95162500000004,50.57142857142857L263.97122656249996,101.14285714285715L263.9772578125,50.57142857142857L263.9802734375,50.57142857142857L263.9953515625,50.57142857142857L264.002890625,50.57142857142857L264.0134453125,50.57142857142857L264.01796874999997,50.57142857142857L264.020984375,50.57142857142857L264.051140625,50.57142857142857L264.0526484375,101.14285714285715L264.05415625,50.57142857142857L264.057171875,101.14285714285715L264.0616953125,50.57142857142857L264.06471093749997,50.57142857142857L264.0737578125,50.57142857142857L264.0797890625,0L264.09034375,50.57142857142857L264.0918515625,50.57142857142857L264.093359375,50.57142857142857L264.1008984375,50.57142857142857L264.10240625,50.57142857142857L264.10843750000004,101.14285714285715L264.1250234375,50.57142857142857L264.1340703125,0L264.1431171875,50.57142857142857L264.147640625,50.57142857142857L264.15065625,101.14285714285715L264.159703125,0L264.1642265625,50.57142857142857L264.1702578125,0L264.1762890625,0L264.1793046875,50.57142857142857L264.183828125,50.57142857142857L264.18684375000004,50.57142857142857L264.192875,50.57142857142857L264.195890625,50.57142857142857L264.2004140625,50.57142857142857L264.207953125,50.57142857142857L264.213984375,0L264.2154921875,50.57142857142857L264.21850781250004,0L264.232078125,50.57142857142857L264.2335859375,50.57142857142857L264.250171875,50.57142857142857L264.25318749999997,101.14285714285715L264.2546953125,50.57142857142857L264.26525000000004,0L264.268265625,50.57142857142857L264.2697734375,50.57142857142857L264.27128125,50.57142857142857L264.2727890625,101.14285714285715L264.2788203125,101.14285714285715L264.2818359375,50.57142857142857L264.3150078125,50.57142857142857L264.31953125,50.57142857142857L264.3331015625,50.57142857142857L264.337625,50.57142857142857L264.340640625,50.57142857142857L264.346671875,50.57142857142857L264.3481796875,50.57142857142857L264.3496875,50.57142857142857L264.352703125,50.57142857142857L264.364765625,50.57142857142857L264.3723046875,101.14285714285715L264.382859375,50.57142857142857L264.425078125,50.57142857142857L264.4356328125,50.57142857142857L264.4507109375,50.57142857142857L264.45221875,0L264.4597578125,50.57142857142857L264.47182031250003,50.57142857142857L264.47332812499997,50.57142857142857L264.4748359375,50.57142857142857L264.4899140625,50.57142857142857L264.491421875,50.57142857142857L264.4929296875,50.57142857142857L264.4959453125,50.57142857142857L264.4989609375,50.57142857142857L264.5019765625,101.14285714285715L264.503484375,50.57142857142857L264.50499218749997,50.57142857142857L264.5080078125,50.57142857142857L264.5351484375,50.57142857142857L264.5426875,0L264.55022656250003,0L264.55475,101.14285714285715L264.5592734375,50.57142857142857L264.5668125,50.57142857142857L264.58339843749997,0L264.59696875,50.57142857142857L264.6014921875,101.14285714285715L264.603,50.57142857142857L264.6165703125,0L264.6256171875,101.14285714285715L264.648234375,50.57142857142857L264.6497421875,50.57142857142857L264.6527578125,50.57142857142857L264.6587890625,50.57142857142857L264.6648203125,0L264.66934375,0L264.678390625,50.57142857142857L264.68140625,50.57142857142857L264.6949765625,0L264.7010078125,50.57142857142857L264.702515625,50.57142857142857" style="fill: none;" fill="none"></path></g></g></g></g></g></g><g transform="translate(58, 177)" clip-path="url(#clip_1)"><clipPath id="clip_1"><rect width="271" height="23"></rect></clipPath><g><g><line x1="0" y1="0" x2="0" y2="5" style="visibility: inherit;" fill="rgb(0, 0, 0)" stroke="rgb(204, 204, 204)" stroke-width="1px"></line><line x1="30.15625" y1="0" x2="30.15625" y2="5" style="visibility: inherit;" fill="rgb(0, 0, 0)" stroke="rgb(204, 204, 204)" stroke-width="1px"></line><line x1="60.3125" y1="0" x2="60.3125" y2="5" style="visibility: inherit;" fill="rgb(0, 0, 0)" stroke="rgb(204, 204, 204)" stroke-width="1px"></line><line x1="90.46875" y1="0" x2="90.46875" y2="5" style="visibility: inherit;" fill="rgb(0, 0, 0)" stroke="rgb(204, 204, 204)" stroke-width="1px"></line><line x1="120.625" y1="0" x2="120.625" y2="5" style="visibility: inherit;" fill="rgb(0, 0, 0)" stroke="rgb(204, 204, 204)" stroke-width="1px"></line><line x1="150.78125" y1="0" x2="150.78125" y2="5" style="visibility: inherit;" fill="rgb(0, 0, 0)" stroke="rgb(204, 204, 204)" stroke-width="1px"></line><line x1="180.9375" y1="0" x2="180.9375" y2="5" style="visibility: inherit;" fill="rgb(0, 0, 0)" stroke="rgb(204, 204, 204)" stroke-width="1px"></line><line x1="211.09375" y1="0" x2="211.09375" y2="5" style="visibility: inherit;" fill="rgb(0, 0, 0)" stroke="rgb(204, 204, 204)" stroke-width="1px"></line><line x1="241.25" y1="0" x2="241.25" y2="5" style="visibility: inherit;" fill="rgb(0, 0, 0)" stroke="rgb(204, 204, 204)" stroke-width="1px"></line><line x1="271.40625" y1="0" x2="271.40625" y2="5" style="visibility: inherit;" fill="rgb(0, 0, 0)" stroke="rgb(204, 204, 204)" stroke-width="1px"></line></g><g transform="translate(0, 8)"><text x="0" y="0" dx="0em" dy="0.95em" style="text-anchor: middle; visibility: hidden; font-family: &quot;Helvetica Neue&quot;, sans-serif; font-size: 12px; font-weight: 200;" fill="rgb(50, 49, 63)" stroke="none" stroke-width="1px">-20k</text><text x="30.15625" y="0" dx="0em" dy="0.95em" style="text-anchor: middle; visibility: inherit; font-family: &quot;Helvetica Neue&quot;, sans-serif; font-size: 12px; font-weight: 200;" fill="rgb(50, 49, 63)" stroke="none" stroke-width="1px">0</text><text x="60.3125" y="0" dx="0em" dy="0.95em" style="text-anchor: middle; visibility: hidden; font-family: &quot;Helvetica Neue&quot;, sans-serif; font-size: 12px; font-weight: 200;" fill="rgb(50, 49, 63)" stroke="none" stroke-width="1px">20k</text><text x="90.46875" y="0" dx="0em" dy="0.95em" style="text-anchor: middle; visibility: inherit; font-family: &quot;Helvetica Neue&quot;, sans-serif; font-size: 12px; font-weight: 200;" fill="rgb(50, 49, 63)" stroke="none" stroke-width="1px">40k</text><text x="120.625" y="0" dx="0em" dy="0.95em" style="text-anchor: middle; visibility: hidden; font-family: &quot;Helvetica Neue&quot;, sans-serif; font-size: 12px; font-weight: 200;" fill="rgb(50, 49, 63)" stroke="none" stroke-width="1px">60k</text><text x="150.78125" y="0" dx="0em" dy="0.95em" style="text-anchor: middle; visibility: inherit; font-family: &quot;Helvetica Neue&quot;, sans-serif; font-size: 12px; font-weight: 200;" fill="rgb(50, 49, 63)" stroke="none" stroke-width="1px">80k</text><text x="180.9375" y="0" dx="0em" dy="0.95em" style="text-anchor: middle; visibility: hidden; font-family: &quot;Helvetica Neue&quot;, sans-serif; font-size: 12px; font-weight: 200;" fill="rgb(50, 49, 63)" stroke="none" stroke-width="1px">100k</text><text x="211.09375" y="0" dx="0em" dy="0.95em" style="text-anchor: middle; visibility: inherit; font-family: &quot;Helvetica Neue&quot;, sans-serif; font-size: 12px; font-weight: 200;" fill="rgb(50, 49, 63)" stroke="none" stroke-width="1px">120k</text><text x="241.25" y="0" dx="0em" dy="0.95em" style="text-anchor: middle; visibility: hidden; font-family: &quot;Helvetica Neue&quot;, sans-serif; font-size: 12px; font-weight: 200;" fill="rgb(50, 49, 63)" stroke="none" stroke-width="1px">140k</text><text x="271.40625" y="0" dx="0em" dy="0.95em" style="text-anchor: middle; visibility: hidden; font-family: &quot;Helvetica Neue&quot;, sans-serif; font-size: 12px; font-weight: 200;" fill="rgb(50, 49, 63)" stroke="none" stroke-width="1px">160k</text></g><line x1="0" y1="0" x2="271.40625" y2="0" fill="rgb(0, 0, 0)" stroke="rgb(204, 204, 204)" stroke-width="1px"></line></g></g></g></g></svg>