<svg viewBox="0 0 330 200" xmlns="http://www.w3.org/2000/svg"><g><g><g><g><g><line x1="39.15625" y1="177" x2="34.15625" y2="177" style="visibility: inherit;" fill="rgb(0, 0, 0)" stroke="rgb(204, 204, 204)" stroke-width="1px"></line><line x1="39.15625" y1="164.35714285714286" x2="34.15625" y2="164.35714285714286" style="visibility: inherit;" fill="rgb(0, 0, 0)" stroke="rgb(204, 204, 204)" stroke-width="1px"></line><line x1="39.15625" y1="151.71428571428572" x2="34.15625" y2="151.71428571428572" style="visibility: inherit;" fill="rgb(0, 0, 0)" stroke="rgb(204, 204, 204)" stroke-width="1px"></line><line x1="39.15625" y1="139.07142857142858" x2="34.15625" y2="139.07142857142858" style="visibility: inherit;" fill="rgb(0, 0, 0)" stroke="rgb(204, 204, 204)" stroke-width="1px"></line><line x1="39.15625" y1="126.42857142857143" x2="34.15625" y2="126.42857142857143" style="visibility: inherit;" fill="rgb(0, 0, 0)" stroke="rgb(204, 204, 204)" stroke-width="1px"></line><line x1="39.15625" y1="113.78571428571428" x2="34.15625" y2="113.78571428571428" style="visibility: inherit;" fill="rgb(0, 0, 0)" stroke="rgb(204, 204, 204)" stroke-width="1px"></line><line x1="39.15625" y1="101.14285714285715" x2="34.15625" y2="101.14285714285715" style="visibility: inherit;" fill="rgb(0, 0, 0)" stroke="rgb(204, 204, 204)" stroke-width="1px"></line><line x1="39.15625" y1="88.5" x2="34.15625" y2="88.5" style="visibility: inherit;" fill="rgb(0, 0, 0)" stroke="rgb(204, 204, 204)" stroke-width="1px"></line><line x1="39.15625" y1="75.85714285714286" x2="34.15625" y2="75.85714285714286" style="visibility: inherit;" fill="rgb(0, 0, 0)" stroke="rgb(204, 204, 204)" stroke-width="1px"></line><line x1="39.15625" y1="63.21428571428571" x2="34.15625" y2="63.21428571428571" style="visibility: inherit;" fill="rgb(0, 0, 0)" stroke="rgb(204, 204, 204)" stroke-width="1px"></line><line x1="39.15625" y1="50.57142857142857" x2="34.15625" y2="50.57142857142857" style="visibility: inherit;" fill="rgb(0, 0, 0)" stroke="rgb(204, 204, 204)" stroke-width="1px"></line><line x1="39.15625" y1="37.928571428571445" x2="34.15625" y2="37.928571428571445" style="visibility: inherit;" fill="rgb(0, 0, 0)" stroke="rgb(204, 204, 204)" stroke-width="1px"></line><line x1="39.15625" y1="25.285714285714306" x2="34.15625" y2="25.285714285714306" style="visibility: inherit;" fill="rgb(0, 0, 0)" stroke="rgb(204, 204, 204)" stroke-width="1px"></line><line x1="39.15625" y1="12.642857142857139" x2="34.15625" y2="12.642857142857139" style="visibility: inherit;" fill="rgb(0, 0, 0)" stroke="rgb(204, 204, 204)" stroke-width="1px"></line><line x1="39.15625" y1="0" x2="34.15625" y2="0" style="visibility: inherit;" fill="rgb(0, 0, 0)" stroke="rgb(204, 204, 204)" stroke-width="1px"></line></g><g transform="translate(29.15625, 0)"><text x="0" y="177" dx="0em" dy="0.3em" style="text-anchor: end; visibility: hidden; font-family: &quot;Helvetica Neue&quot;, sans-serif; font-size: 12px; font-weight: 200;" fill="rgb(50, 49, 63)" stroke="none" stroke-width="1px">-35</text><text x="0" y="164.35714285714286" dx="0em" dy="0.3em" style="text-anchor: end; visibility: inherit; font-family: &quot;Helvetica Neue&quot;, sans-serif; font-size: 12px; font-weight: 200;" fill="rgb(50, 49, 63)" stroke="none" stroke-width="1px">-30</text><text x="0" y="151.71428571428572" dx="0em" dy="0.3em" style="text-anchor: end; visibility: hidden; font-family: &quot;Helvetica Neue&quot;, sans-serif; font-size: 12px; font-weight: 200;" fill="rgb(50, 49, 63)" stroke="none" stroke-width="1px">-25</text><text x="0" y="139.07142857142858" dx="0em" dy="0.3em" style="text-anchor: end; visibility: inherit; font-family: &quot;Helvetica Neue&quot;, sans-serif; font-size: 12px; font-weight: 200;" fill="rgb(50, 49, 63)" stroke="none" stroke-width="1px">-20</text><text x="0" y="126.42857142857143" dx="0em" dy="0.3em" style="text-anchor: end; visibility: hidden; font-family: &quot;Helvetica Neue&quot;, sans-serif; font-size: 12px; font-weight: 200;" fill="rgb(50, 49, 63)" stroke="none" stroke-width="1px">-15</text><text x="0" y="113.78571428571428" dx="0em" dy="0.3em" style="text-anchor: end; visibility: inherit; font-family: &quot;Helvetica Neue&quot;, sans-serif; font-size: 12px; font-weight: 200;" fill="rgb(50, 49, 63)" stroke="none" stroke-width="1px">-10</text><text x="0" y="101.14285714285715" dx="0em" dy="0.3em" style="text-anchor: end; visibility: hidden; font-family: &quot;Helvetica Neue&quot;, sans-serif; font-size: 12px; font-weight: 200;" fill="rgb(50, 49, 63)" stroke="none" stroke-width="1px">-5</text><text x="0" y="88.5" dx="0em" dy="0.3em" style="text-anchor: end; visibility: inherit; font-family: &quot;Helvetica Neue&quot;, sans-serif; font-size: 12px; font-weight: 200;" fill="rgb(50, 49, 63)" stroke="none" stroke-width="1px">0</text><text x="0" y="75.85714285714286" dx="0em" dy="0.3em" style="text-anchor: end; visibility: hidden; font-family: &quot;Helvetica Neue&quot;, sans-serif; font-size: 12px; font-weight: 200;" fill="rgb(50, 49, 63)" stroke="none" stroke-width="1px">5</text><text x="0" y="63.21428571428571" dx="0em" dy="0.3em" style="text-anchor: end; visibility: inherit; font-family: &quot;Helvetica Neue&quot;, sans-serif; font-size: 12px; font-weight: 200;" fill="rgb(50, 49, 63)" stroke="none" stroke-width="1px">10</text><text x="0" y="50.57142857142857" dx="0em" dy="0.3em" style="text-anchor: end; visibility: hidden; font-family: &quot;Helvetica Neue&quot;, sans-serif; font-size: 12px; font-weight: 200;" fill="rgb(50, 49, 63)" stroke="none" stroke-width="1px">15</text><text x="0" y="37.928571428571445" dx="0em" dy="0.3em" style="text-anchor: end; visibility: inherit; font-family: &quot;Helvetica Neue&quot;, sans-serif; font-size: 12px; font-weight: 200;" fill="rgb(50, 49, 63)" stroke="none" stroke-width="1px">20</text><text x="0" y="25.285714285714306" dx="0em" dy="0.3em" style="text-anchor: end; visibility: hidden; font-family: &quot;Helvetica Neue&quot;, sans-serif; font-size: 12px; font-weight: 200;" fill="rgb(50, 49, 63)" stroke="none" stroke-width="1px">25</text><text x="0" y="12.642857142857139" dx="0em" dy="0.3em" style="text-anchor: end; visibility: inherit; font-family: &quot;Helvetica Neue&quot;, sans-serif; font-size: 12px; font-weight: 200;" fill="rgb(50, 49, 63)" stroke="none" stroke-width="1px">30</text><text x="0" y="0" dx="0em" dy="0.3em" style="text-anchor: end; visibility: hidden; font-family: &quot;Helvetica Neue&quot;, sans-serif; font-size: 12px; font-weight: 200;" fill="rgb(50, 49, 63)" stroke="none" stroke-width="1px">35</text></g><line x1="39.15625" y1="0" x2="39.15625" y2="177" fill="rgb(0, 0, 0)" stroke="rgb(204, 204, 204)" stroke-width="1px"></line></g></g><g transform="translate(39, 0)" clip-path="url(#clip_0)"><clipPath id="clip_0"><rect width="290" height="177"></rect></clipPath><g><g><g><line x1="0" y1="0" x2="0" y2="177" fill="rgb(0, 0, 0)" stroke="rgb(60, 60, 60)" stroke-width="1px" opacity="0.25"></line><line x1="32.31597222222222" y1="0" x2="32.31597222222222" y2="177" fill="rgb(0, 0, 0)" stroke="rgb(60, 60, 60)" stroke-width="1px" opacity="0.25"></line><line x1="64.63194444444444" y1="0" x2="64.63194444444444" y2="177" fill="rgb(0, 0, 0)" stroke="rgb(60, 60, 60)" stroke-width="1px" opacity="0.25"></line><line x1="96.94791666666666" y1="0" x2="96.94791666666666" y2="177" fill="rgb(0, 0, 0)" stroke="rgb(60, 60, 60)" stroke-width="1px" opacity="0.25"></line><line x1="129.26388888888889" y1="0" x2="129.26388888888889" y2="177" fill="rgb(0, 0, 0)" stroke="rgb(60, 60, 60)" stroke-width="1px" opacity="0.25"></line><line x1="161.57986111111111" y1="0" x2="161.57986111111111" y2="177" fill="rgb(0, 0, 0)" stroke="rgb(60, 60, 60)" stroke-width="1px" opacity="0.25"></line><line x1="193.89583333333331" y1="0" x2="193.89583333333331" y2="177" fill="rgb(0, 0, 0)" stroke="rgb(60, 60, 60)" stroke-width="1px" opacity="0.25"></line><line x1="226.21180555555557" y1="0" x2="226.21180555555557" y2="177" fill="rgb(0, 0, 0)" stroke="rgb(60, 60, 60)" stroke-width="1px" opacity="0.25"></line><line x1="258.52777777777777" y1="0" x2="258.52777777777777" y2="177" fill="rgb(0, 0, 0)" stroke="rgb(60, 60, 60)" stroke-width="1px" opacity="0.25"></line><line x1="290.84375" y1="0" x2="290.84375" y2="177" fill="rgb(0, 0, 0)" stroke="rgb(60, 60, 60)" stroke-width="1px" opacity="0.25"></line></g><g><line x1="0" y1="177" x2="290.84375" y2="177" fill="rgb(0, 0, 0)" stroke="rgb(60, 60, 60)" stroke-width="1px" opacity="0.25"></line><line x1="0" y1="164.35714285714286" x2="290.84375" y2="164.35714285714286" fill="rgb(0, 0, 0)" stroke="rgb(60, 60, 60)" stroke-width="1px" opacity="0.25"></line><line x1="0" y1="151.71428571428572" x2="290.84375" y2="151.71428571428572" fill="rgb(0, 0, 0)" stroke="rgb(60, 60, 60)" stroke-width="1px" opacity="0.25"></line><line x1="0" y1="139.07142857142858" x2="290.84375" y2="139.07142857142858" fill="rgb(0, 0, 0)" stroke="rgb(60, 60, 60)" stroke-width="1px" opacity="0.25"></line><line x1="0" y1="126.42857142857143" x2="290.84375" y2="126.42857142857143" fill="rgb(0, 0, 0)" stroke="rgb(60, 60, 60)" stroke-width="1px" opacity="0.25"></line><line x1="0" y1="113.78571428571428" x2="290.84375" y2="113.78571428571428" fill="rgb(0, 0, 0)" stroke="rgb(60, 60, 60)" stroke-width="1px" opacity="0.25"></line><line x1="0" y1="101.14285714285715" x2="290.84375" y2="101.14285714285715" fill="rgb(0, 0, 0)" stroke="rgb(60, 60, 60)" stroke-width="1px" opacity="0.25"></line><line x1="0" y1="88.5" x2="290.84375" y2="88.5" fill="rgb(0, 0, 0)" stroke="rgb(60, 60, 60)" stroke-width="1px" opacity="0.25"></line><line x1="0" y1="75.85714285714286" x2="290.84375" y2="75.85714285714286" fill="rgb(0, 0, 0)" stroke="rgb(60, 60, 60)" stroke-width="1px" opacity="0.25"></line><line x1="0" y1="63.21428571428571" x2="290.84375" y2="63.21428571428571" fill="rgb(0, 0, 0)" stroke="rgb(60, 60, 60)" stroke-width="1px" opacity="0.25"></line><line x1="0" y1="50.57142857142857" x2="290.84375" y2="50.57142857142857" fill="rgb(0, 0, 0)" stroke="rgb(60, 60, 60)" stroke-width="1px" opacity="0.25"></line><line x1="0" y1="37.928571428571445" x2="290.84375" y2="37.928571428571445" fill="rgb(0, 0, 0)" stroke="rgb(60, 60, 60)" stroke-width="1px" opacity="0.25"></line><line x1="0" y1="25.285714285714306" x2="290.84375" y2="25.285714285714306" fill="rgb(0, 0, 0)" stroke="rgb(60, 60, 60)" stroke-width="1px" opacity="0.25"></line><line x1="0" y1="12.642857142857139" x2="290.84375" y2="12.642857142857139" fill="rgb(0, 0, 0)" stroke="rgb(60, 60, 60)" stroke-width="1px" opacity="0.25"></line><line x1="0" y1="0" x2="290.84375" y2="0" fill="rgb(0, 0, 0)" stroke="rgb(60, 60, 60)" stroke-width="1px" opacity="0.25"></line></g></g></g><g><g><line x1="0" y1="88.5" x2="290.84375" y2="88.5" fill="rgb(0, 0, 0)" stroke="rgb(153, 153, 153)" stroke-width="1.5px"></line></g></g><g><g><line x1="32.31597222222222" y1="0" x2="32.31597222222222" y2="177" fill="rgb(0, 0, 0)" stroke="rgb(153, 153, 153)" stroke-width="1.5px"></line></g></g><g><g><g><g><g><path stroke="rgb(255, 112, 67)" stroke-width="2px" d="M33.04308159722222,146.65714285714284L33.56660034722223,146.65714285714287L33.80897013888889,146.65714285714287L34.10950868055556,146.65714285714287L34.925486979166664,146.65714285714284L34.964266145833335,146.11749439695504L35.006276909722224,146.2209341618688L35.053135069444444,146.2975247819232L35.07090885416667,146.35623031626804L35.46677951388889,146.01420895157705L35.47324270833333,146.10790522579848L35.544337847222224,146.18444650770283L36.12440954861111,146.24782648164262L36.44433767361111,146.3008995304083L36.473422048611106,146.02734407855104L36.58329635416666,146.1046486494707L36.622075520833334,146.17095632111963L37.122973090277775,145.93064899075446L37.62225486111111,146.01464499159457L41.61004583333334,145.79993376233594L46.842001736111115,144.76049136388963L47.65798003472223,144.1294410898773L48.21866215277778,142.18721590770662L65.47377552083333,130.85763075024593L68.43068697916667,119.75633657147868L71.15977083333334,110.73802224037L71.82386406250001,102.20214681982323L73.88077569444444,94.619375299428L74.21524600694445,87.60865226330488L74.35582048611111,81.628570143626L75.70016493055556,76.29657223292921L76.90393489583334,71.27595133356516L77.13660989583333,66.79119154760261L78.45994895833333,63.04208480511396L78.48741753472223,59.42886026710008L79.67987690972222,56.194538723835166L79.68957170138889,53.29778001914413L80.25348541666666,50.702063952447105L80.5782609375,48.37506942449426L80.62996649305556,46.288144459863645L81.02098975694445,44.41585186134816L81.49765034722223,42.73557814405072L82.28777586805556,41.738418529021146L82.40734496527777,40.33236975591805L82.43642934027778,39.069539414542646L82.81452621527778,37.93510285565628L83.71452604166666,36.91581513357522L84.17018125,35.999834092411305L84.48203038194445,35.17656487182316L84.88436423611111,34.43652294634151L85.7391217013889,33.77121325218971L86.27718263888889,33.17302331988097L86.56964218750001,32.63512863405367L87.0802345486111,32.151408695387886L87.27897777777778,31.71637247210694L87.77987534722222,31.325092107794347L87.86712847222222,30.97314390390656L89.39405815972222,30.909975085805627L89.61380677083334,30.599786802498073L89.74468645833333,30.320735235136056L90.18579947916666,30.069684255975204L90.50734340277778,29.843815632329353L90.63499149305555,29.640596419188L90.69800763888888,29.457749769122415L91.37825885416666,29.29322878769233L91.50752274305556,29.14519310554232L91.95186736111111,29.0119878759283L91.98418333333332,28.89212493930873L92.02134670138888,28.78426592551105L92.36551180555556,28.687207089384458L92.8227828125,28.599865698241018L93.40608611111112,28.521267809154267L94.71649878472222,28.45053729167111L94.8457626736111,28.386885966980145L95.4387607638889,28.329604748319383L95.68113055555555,28.27805567961036L95.99621128472224,28.23166478015804L96.7928,28.189915612918384L96.83481076388888,28.152343502446143L97.87538506944445,28.11853033631553L98.886875,28.088099890663784L99.00321249999999,28.060713626633685L99.04360746527777,28.036066909967815L99.439478125,28.01388561090735L99.962996875,27.993923045934423L100.2813092013889,27.975957226824647L100.34917274305555,27.959788385996774L100.47358923611111,27.94523675030095L100.95024982638888,27.93214053821643L101.2992623263889,27.920354157968177L101.7226015625,27.909746586348945L101.74845434027777,27.900199910077845L102.32852604166666,27.891608013362344L102.42708975694444,27.88387539697885L103.37233194444444,27.8769161156674L103.60015954861112,27.870652821967525L103.65348090277777,27.865015905816108L104.68436041666666,27.859942720303934L104.89441423611112,27.855376884952165L104.92511440972221,27.851267658738692L105.3452220486111,27.847569375885L105.72170312499999,27.84424093811461L106.12242118055556,27.84124535772753L106.26945885416667,27.838549346400157L106.63462934027778,27.836122945132445L106.90285190972223,27.8339391912223L107.33750173611112,27.831973818560073L107.92242083333333,27.83020498790819L108.01128975694444,27.828613044164143L108.27466493055555,27.82718029790709L108.63660381944443,27.8258908287969L108.8935157986111,27.824730308639886L108.91452118055557,27.823685842152713L109.28777065972221,27.822745823654117L109.37663958333333,27.821899808090592L109.43480833333334,27.82113839496253L109.52529305555557,27.820453123859295L109.63031996527778,27.81983638044315L109.65617274305556,27.819281311835795L110.09243836805557,27.818781750467593L110.09405416666667,27.818332145542684L110.69997864583333,27.817927501358582L111.13947586805556,27.817563321793955L111.27035555555555,27.817235560348706L111.4076984375,27.816940575179956L111.93121718750001,27.816675088634895L111.94575937500001,27.816436150830924L112.66478975694444,27.816221106877492L113.23516666666666,27.81602756737618L113.24970885416667,27.815853381871023L113.46137847222222,27.815696614953623L113.59548975694445,27.815555524758167L113.62618993055555,27.815428543606686L113.67304809027779,27.815314260590156L113.85886493055555,27.815211405891347L113.95904444444444,27.815118836675396L114.27897256944445,27.81503552439156L114.59890069444444,27.814960543344625L114.87035486111111,27.814893060409304L115.04647690972222,27.814832325773125L115.20644097222223,27.81477766460506L115.43265277777778,27.81472846955748L115.50051631944444,27.814684194017616L115.66209618055557,27.814644346034186L115.73319131944444,27.814608482851042L115.86891840277778,27.81457620598775L115.92223975694445,27.814547156812097L116.26155746527778,27.81452101255502L116.29872083333333,27.814497482724533L116.70913368055555,27.814476305877776L116.87232934027779,27.814457246716188L117.1082359375,27.814440093471262L117.28920538194444,27.814424655551164L117.45078524305556,27.814410761423375L117.6899234375,27.814398256708614L117.878971875,27.81438700246551L118.18920520833333,27.814376873646864L118.35240086805555,27.814367757710215L118.36855885416666,27.814359553367325L118.41541701388888,27.81435216945883L118.92116197916667,27.8143455239412L119.20554253472223,27.814339542975432L119.36712239583333,27.814334160106313L119.44306493055555,27.814329315524105L119.6401923611111,27.81432495540014L119.8712515625,27.814321031288614L120.1911796875,27.814317499588242L120.23965364583333,27.814314321057907L120.24288524305555,27.814311460380623L120.30751718750001,27.814308885771112L120.40769670138889,27.814306568622527L120.9489892361111,27.814304483188806L120.97484201388889,27.814302606298497L121.13157447916666,27.8143009170972L121.42726562499999,27.81429939681601L121.43696041666666,27.814298028563L121.48866597222222,27.814296797135256L121.51128715277777,27.814295688850308L122.02349531249999,27.814294691393826L122.10751684027777,27.81429379368302L122.14468020833333,27.814292985743293L122.20284895833333,27.814292258597533L122.52762447916668,27.81429160416633L122.71344131944444,27.8142910151783L122.71990451388889,27.814290485089032L122.75222048611111,27.814290008008697L122.75383628472223,27.81428957863639L123.07699600694444,27.81428919220133L123.40823472222222,27.81428884440976L123.86065833333333,27.81428853139738L123.87520052083333,27.8142882496862L123.89620590277777,27.814287996146163L124.27107118055555,27.81428776796011L124.57484131944445,27.814287562592654L124.88830625,27.814287377761957L125.14521822916667,27.814287211414353L125.37950902777779,27.81428706170152L125.66712118055555,27.81428692695991L125.76083750000001,27.81428680569249L125.98381770833333,27.814286696551818L126.3554513888889,27.814286598325197L127.55598975694444,27.81428650992126L127.60446371527779,27.814286430357726L127.63516388888888,27.814286358750536L127.9550920138889,27.814286294304026L128.12798246527777,27.814286236302195L128.2766359375,27.814286184100553L128.46245277777777,27.81428613711907L128.82116006944443,27.81428609483575L129.30913125,27.81428605678073L129.44324253472223,27.814286022531235L129.86981336805556,27.814285991706697L129.8762765625,27.81428596396458L130.0216984375,27.814285938996704L130.03300902777778,27.81428591652562L130.44180607638887,27.814285896301612L130.54521718750001,27.814285878100037L130.90392447916668,27.814285861718616L130.9249298611111,27.81428584697531L130.96370902777778,27.81428583370638L131.51146475694443,27.814285821764315L131.51631215277777,27.814285811016475L131.57609670138888,27.814285801343374L132.09799965277776,27.814285792637605L132.16586319444446,27.814285784802422L132.76370868055554,27.81428577775074L132.79925625,27.81428577140423L132.93659913194443,27.814285765692404L133.04324184027777,27.81428576055174L133.1062579861111,27.81428575592514L133.24198506944444,27.81428575176119L133.44234409722222,27.814285748013646L133.63623993055555,27.81428574464087L133.80751458333333,27.814285741605346L134.03857378472222,27.814285738873366L134.0660423611111,27.814285736414604L134.16137447916665,27.814285734201746L134.17753246527778,27.814285732210124L134.40697586805555,27.81428573041768L134.46837621527777,27.814285728804492L134.65904045138888,27.814285727352626L134.74467777777778,27.81428572604591L135.19710138888888,27.814285724869904L135.38291822916668,27.81428572381148L135.54126649305556,27.814285722858898L135.55742447916668,27.814285722001586L135.59943524305555,27.814285721229993L136.13264878472222,27.814285720535565L136.15526996527777,27.8142857199106L136.36047638888888,27.814285719348106L136.4525769097222,27.814285718841887L136.93408489583334,27.81428571838626L137.09889635416667,27.81428571797619L137.29763958333334,27.814285717607163L137.31218177083335,27.814285717275027L137.68058385416666,27.814285716976087L138.01182256944446,27.814285716707047L138.64844722222222,27.814285716464923L138.77447951388888,27.814285716246985L139.13641840277776,27.814285716050875L139.16227118055556,27.814285715874348L139.27699288194444,27.8142857157155L139.58076302083333,27.81428571557251L139.6906373263889,27.814285715443845L139.7617324652778,27.814285715328026L140.1592189236111,27.814285715223804L140.27070902777777,27.814285715129984L140.29171440972223,27.81428571504557L140.32403038194445,27.8142857149696L140.91056527777778,27.814285714901217L141.3662204861111,27.814285714839656L141.72008038194446,27.814285714784262L141.8315704861111,27.81428571473441L141.85419166666668,27.814285714689532L142.35832083333332,27.814285714649174L142.38740520833332,27.814285714612822L142.52313229166666,27.814285714580137L142.91577135416668,27.814285714550692L142.95293472222224,27.814285714524146L143.4425217013889,27.81428571450033L143.47806927083334,27.81428571447887L144.6527548611111,27.814285714459572L144.6802234375,27.81428571444218L144.95006180555555,27.814285714426546L144.95167760416666,27.81428571441245L145.04862552083333,27.8142857143998L146.12313159722223,27.814285714388376L146.41882274305556,27.814285714378116L146.90356232638888,27.81428571436888L146.9197203125,27.81428571436055L147.25419062499998,27.814285714353105L147.30912777777777,27.81428571434637L147.59673993055557,27.814285714340315L147.7340828125,27.81428571433483L147.90374166666666,27.81428571432994L148.08955850694446,27.814285714325507L148.70356197916666,27.814285714321528L149.19799635416666,27.814285714317947L149.24000711805553,27.814285714314735L149.27232309027778,27.814285714311836L149.3353392361111,27.81428571430922L149.83462100694445,27.81428571430689L149.95580590277777,27.81428571430476L150.37914513888887,27.814285714302855L150.5019458333333,27.81428571430112L150.7475472222222,27.814285714299615L150.78471059027777,27.814285714298222L150.91882187500002,27.814285714296943L150.9624484375,27.814285714295863L151.30338194444445,27.81428571429484L151.87699045138888,27.81428571429393L152.2324661458333,27.814285714293135L152.62510520833334,27.814285714292367L152.96765451388887,27.814285714291714L152.9838125,27.81428571429109L153.02259166666667,27.814285714290577L153.04198125,27.814285714290094L153.41523072916667,27.814285714289667L153.56550000000001,27.81428571428927L154.0292342013889,27.81428571428893L154.12618211805557,27.814285714288587L154.22151423611112,27.814285714288303L154.26514079861113,27.814285714288047L154.60930590277778,27.81428571428782L154.82259131944446,27.81428571428762L155.0891980902778,27.814285714287422L155.20068819444444,27.81428571428728L155.3380310763889,27.81428571428708L155.56262708333335,27.81428571428694L155.60786944444442,27.814285714286825L155.92133437500001,27.81428571428671L156.59189079861113,27.814285714286626L157.11379375,27.81428571428654L157.53713298611112,27.814285714286456L158.14144166666665,27.8142857142864L158.25293177083333,27.814285714286314L158.422590625,27.814285714286257L158.71828177083333,27.81428571428623L158.72151336805555,27.81428571428617L158.76513993055556,27.814285714286115L158.79099270833333,27.814285714286086L159.89619895833331,27.814285714286058L159.9656782986111,27.81428571428603L160.1111001736111,27.814285714286L160.40840711805555,27.814285714285973L160.56352378472224,27.814285714285916L160.8382095486111,27.814285714285916L160.93031006944446,27.814285714285887L161.10320052083333,27.814285714285887L161.1290532986111,27.81428571428586L161.4053548611111,27.81428571428586L161.62833506944443,27.81428571428583L161.66226684027777,27.81428571428583L162.59135104166668,27.81428571428583L162.99530069444447,27.81428571428583L163.14072256944445,27.81428571428583L163.69332569444444,27.814285714285802L164.06819097222223,27.814285714285802L164.15544409722222,27.814285714285802L164.43497725694445,27.814285714285802L164.50930399305554,27.814285714285802L164.6014045138889,27.814285714285802L164.95203281250002,27.814285714285802L165.05544392361114,27.814285714285802L165.11684427083333,27.814285714285802L165.24933975694444,27.814285714285802L165.43515659722223,27.814285714285802L165.55957309027778,27.814285714285802L166.02169149305556,27.814285714285802L166.25759809027778,27.814285714285802L166.27698767361113,27.814285714285802L166.50158368055554,27.814285714285802L166.82635920138887,27.814285714285802L167.62133211805556,27.814285714285802L167.89924947916668,27.814285714285802L167.93641284722221,27.814285714285802L167.9590340277778,27.814285714285802L168.10284010416666,27.814285714285802L168.41468923611112,27.814285714285802L168.78632291666668,27.814285714285802L168.82510208333335,27.814285714285802L169.26459930555558,27.814285714285802L169.48111631944445,27.814285714285802L169.6297697916667,27.814285714285802L169.78973385416666,27.814285714285802L170.32779479166666,27.814285714285802L170.73174444444444,27.814285714285802L170.86585572916667,27.814285714285802L171.19709444444445,27.814285714285802L171.48147500000002,27.814285714285802L171.6430548611111,27.814285714285802L172.00014635416667,27.814285714285802L172.02761493055556,27.814285714285802L172.39116961805556,27.814285714285802L172.49134913194445,27.814285714285802L172.79835086805556,27.814285714285802L172.90014618055557,27.814285714285802L172.99224670138886,27.814285714285802L173.1409001736111,27.814285714285802L173.43497552083335,27.814285714285802L173.84700416666666,27.814285714285802L174.20894305555558,27.814285714285802L174.32689635416668,27.814285714285802L174.5078657986111,27.814285714285802L174.6985300347222,27.814285714285802L174.71953541666667,27.814285714285802L175.18488541666667,27.814285714285802L175.19619600694443,27.814285714285802L175.70840416666667,27.814285714285802L175.79404149305554,27.814285714285802L175.82635746527777,27.814285714285802L175.85867343750002,27.814285714285802L175.97016354166666,27.814285714285802L176.13174340277777,27.814285714285802L176.25131249999998,27.814285714285802L176.70535190972222,27.814285714285802L176.7166625,27.814285714285802L177.05598020833332,27.814285714285802L177.2094810763889,27.814285714285802L177.22079166666666,27.814285714285802L177.68614166666666,27.814285714285802L177.9236640625,27.814285714285802L178.05777534722225,27.814285714285802L178.06908593749998,27.814285714285802L178.1870392361111,27.814285714285802L178.4310248263889,27.814285714285802L178.56513611111112,27.814285714285802L178.63138385416667,27.814285714285802L178.66046822916667,27.814285714285802L178.6798578125,27.814285714285802L178.99655434027778,27.814285714285802L179.73174270833334,27.814285714285802L180.4378467013889,27.814285714285802L180.7206114583333,27.814285714285802L181.17465086805555,27.814285714285802L181.1778824652778,27.814285714285802L181.68524322916667,27.814285714285802L182.08757708333334,27.814285714285802L182.56746927083336,27.814285714285802L182.5787798611111,27.814285714285802L182.68703836805554,27.814285714285802L183.13623038194444,27.814285714285802L183.1717779513889,27.814285714285802L183.40283715277778,27.814285714285802L183.96998246527778,27.814285714285802L184.0297670138889,27.814285714285802L184.1751888888889,27.814285714285802L184.4498746527778,27.814285714285802L184.61791770833335,27.814285714285802L185.2658529513889,27.814285714285802L185.48560156250002,27.814285714285802L185.51145434027777,27.814285714285802L185.92671458333334,27.814285714285802L186.0365888888889,27.814285714285802L186.05274687500003,27.814285714285802L186.10606822916668,27.814285714285802L186.15938958333334,27.814285714285802L187.01091545138888,27.814285714285802L187.44556527777777,27.814285714285802L187.6265347222222,27.814285714285802L187.9125310763889,27.814285714285802L188.18075364583333,27.814285714285802L188.5653137152778,27.814285714285802L188.60894027777778,27.814285714285802L188.85454166666665,27.814285714285802L189.15508020833332,27.814285714285802L189.1922435763889,27.814285714285802L189.31989166666668,27.814285714285802L189.66082517361113,27.814285714285802L189.75454149305557,27.814285714285802L189.83209982638888,27.814285714285802L189.98398489583334,27.814285714285802L190.20373350694445,27.814285714285802L190.28937083333332,27.814285714285802L190.44933489583335,27.814285714285802L190.80319479166667,27.814285714285802L190.9227638888889,27.814285714285802L191.75166857638888,27.814285714285802L191.84376909722224,27.814285714285802L191.8825482638889,27.814285714285802L192.69529496527778,27.814285714285802L192.81971145833333,27.814285714285802L192.95543854166667,27.814285714285802L193.28829305555556,27.814285714285802L193.31576163194444,27.814285714285802L193.4272517361111,27.814285714285802L193.4547203125,27.814285714285802L193.69547430555556,27.814285714285802L193.96046527777776,27.814285714285802L194.19960347222224,27.814285714285802L194.32401996527776,27.814285714285802L194.46621024305557,27.814285714285802L194.62779010416668,27.814285714285802L194.81522274305556,27.814285714285802L194.96226041666668,27.814285714285802L194.9994237847222,27.814285714285802L195.03981875,27.814285714285802L195.92204479166665,27.814285714285802L196.13371440972222,27.814285714285802L196.50534809027778,27.814285714285802L196.51019548611112,27.814285714285802L196.55866944444443,27.814285714285802L196.62330138888888,27.814285714285802L196.86728697916666,27.814285714285802L196.92060833333335,27.814285714285802L196.9739296875,27.814285714285802L197.0870355902778,27.814285714285802L197.42958489583333,27.814285714285802L197.57500677083334,27.814285714285802L197.6137859375,27.814285714285802L198.00642499999998,27.814285714285802L198.1486152777778,27.814285714285802L198.15184687500002,27.814285714285802L198.3974482638889,27.814285714285802L198.44430642361112,27.814285714285802L198.6592076388889,27.814285714285802L198.85310347222224,27.814285714285802L198.94035659722223,27.814285714285802L199.00660434027776,27.814285714285802L199.0114517361111,27.814285714285802L199.57213385416668,27.814285714285802L199.61899201388889,27.814285714285802L199.77410868055557,27.814285714285802L200.00032048611112,27.814285714285802L200.1021157986111,27.814285714285802L200.15220555555555,27.814285714285802L200.25723246527778,27.814285714285802L200.41234913194444,27.814285714285802L200.4802126736111,27.814285714285802L200.72258246527778,27.814285714285802L200.77590381944444,27.814285714285802L201.17500607638888,27.814285714285802L201.27033819444443,27.814285714285802L201.4642340277778,27.814285714285802L201.6435876736111,27.814285714285802L201.65005086805556,27.814285714285802L201.8891890625,27.814285714285802L202.35938645833332,27.814285714285802L202.39008663194446,27.814285714285802L202.55651388888887,27.814285714285802L202.63891961805555,27.814285714285802L202.83927864583333,27.814285714285802L202.97985312499998,27.814285714285802L203.35310260416668,27.814285714285802L203.62778836805555,27.814285714285802L203.7247362847222,27.814285714285802L204.28380260416668,27.814285714285802L204.55848836805555,27.814285714285802L204.5665673611111,27.814285714285802L204.7378420138889,27.814285714285802L204.841253125,27.814285714285802L204.93335364583334,27.814285714285802L205.06261753472222,27.814285714285802L205.190265625,27.814285714285802L205.2080394097222,27.814285714285802L205.23550798611112,27.814285714285802L205.30821892361112,27.814285714285802L205.45525659722222,27.814285714285802L205.70408958333334,27.814285714285802L205.72024756944444,27.814285714285802L205.74771614583335,27.814285714285802L205.91091180555557,27.814285714285802L206.21629774305558,27.814285714285802L206.73981649305554,27.814285714285802L207.07267100694443,27.814285714285802L207.13568715277776,27.814285714285802L207.63496892361113,27.814285714285802L208.01468159722222,27.814285714285802L208.04861336805556,27.814285714285802L208.10839791666666,27.814285714285802L208.25381979166664,27.814285714285802L208.48649479166667,27.814285714285802L208.50911597222225,27.814285714285802L208.51396336805558,27.814285714285802L209.08918767361112,27.814285714285802L209.11342465277778,27.814285714285802L209.18290399305556,27.814285714285802L209.25561493055557,27.814285714285802L209.8017548611111,27.814285714285802L209.82922343750002,27.814285714285802L209.87769739583334,27.814285714285802L209.89547118055555,27.814285714285802L210.570875,27.814285714285802L211.02653020833336,27.814285714285802L211.28990538194444,27.814285714285802L211.85543489583335,27.814285714285802L212.6956501736111,27.814285714285802L212.77482430555554,27.814285714285802L212.82006666666666,27.814285714285802L212.86530902777778,27.814285714285802L212.9283251736111,27.814285714285802L213.37751718750002,27.814285714285802L213.42114375,27.814285714285802L213.5358654513889,27.814285714285802L213.72814548611112,27.814285714285802L214.24358524305555,27.814285714285802L214.50049722222224,27.814285714285802L214.54412378472222,27.814285714285802L214.904446875,27.814285714285802L215.12581128472223,27.814285714285802L215.44089201388888,27.814285714285802L215.8787734375,27.814285714285802L215.91593680555556,27.814285714285802L215.9498685763889,27.814285714285802L215.99187934027776,27.814285714285802L216.33927604166666,27.814285714285802L217.25381805555554,27.814285714285802L217.30067621527778,27.814285714285802L217.59313576388888,27.814285714285802L217.5963673611111,27.814285714285802L218.16997586805553,27.814285714285802L218.2039076388889,27.814285714285802L218.4802092013889,27.814285714285802L218.5238357638889,27.814285714285802L218.5965467013889,27.814285714285802L219.11844965277777,27.814285714285802L219.1346076388889,27.814285714285802L219.3979828125,27.814285714285802L219.46261475694445,27.814285714285802L219.59187864583333,27.814285714285802L219.63873680555554,27.814285714285802L219.95704913194444,27.814285714285802L219.9925967013889,27.814285714285802L220.07015503472223,27.814285714285802L220.15256076388889,27.814285714285802L220.57913159722224,27.814285714285802L220.73747986111113,27.814285714285802L220.9960076388889,27.814285714285802L221.0961871527778,27.814285714285802L221.18020868055555,27.814285714285802L221.46782083333332,27.814285714285802L221.61809010416667,27.814285714285802L221.6552534722222,27.814285714285802L221.9574078125,27.814285714285802L222.09151909722223,27.814285714285802L222.14968784722222,27.814285714285802L222.40013663194443,27.814285714285802L222.91396059027778,27.814285714285802L222.96889774305555,27.814285714285802L223.01252430555556,27.814285714285802L223.0464560763889,27.814285714285802L223.1207828125,27.814285714285802L223.33245243055555,27.814285714285802L223.4584847222222,27.814285714285802L223.7622548611111,27.814285714285802L223.78164444444445,27.814285714285802L223.96746128472222,27.814285714285802L224.46512725694444,27.814285714285802L224.68002847222223,27.814285714285802L224.76889739583333,27.814285714285802L225.0387357638889,27.814285714285802L225.05974114583336,27.814285714285802L225.12922048611114,27.814285714285802L225.22616840277777,27.814285714285802L225.27464236111112,27.814285714285802L225.49762256944445,27.814285714285802L225.69959739583334,27.814285714285802L225.93550399305556,27.814285714285802L226.0583046875,27.814285714285802L226.08577326388888,27.814285714285802L226.2328109375,27.814285714285802L226.61575520833333,27.814285714285802L227.21198489583333,27.814285714285802L227.47697586805555,27.814285714285802L227.64986631944444,27.814285714285802L227.99564722222223,27.814285714285802L228.21701163194444,27.814285714285802L228.70983020833333,27.814285714285802L228.91988402777775,27.814285714285802L229.0879270833333,27.814285714285802L229.22042256944442,27.814285714285802L229.98469531249998,27.814285714285802L230.4209609375,27.814285714285802L230.44035052083333,27.814285714285802L230.54537743055556,27.814285714285802L230.7118046875,27.814285714285802L230.94771128472223,27.814285714285802L231.27571840277776,27.814285714285802L231.37428211805553,27.814285714285802L231.38559270833332,27.814285714285802L231.41306128472223,27.814285714285802L231.44052986111112,27.814285714285802L231.52131979166668,27.814285714285802L231.55040416666668,27.814285714285802L231.90587986111112,27.814285714285802L233.20175034722223,27.814285714285802L233.22275572916666,27.814285714285802L233.23891371527776,27.814285714285802L233.59600520833334,27.814285714285802L234.19546649305556,27.814285714285802L234.22131927083333,27.814285714285802L234.41359930555555,27.814285714285802L234.76422760416668,27.814285714285802L234.85471232638886,27.814285714285802L235.07284513888888,27.814285714285802L235.17625625,27.814285714285802L235.18433524305553,27.814285714285802L235.24250399305558,27.814285714285802L236.18774618055556,27.814285714285802L236.3703314236111,27.814285714285802L236.5416060763889,27.814285714285802L236.70803333333333,27.814285714285802L237.17499913194445,27.814285714285802L237.17984652777778,27.814285714285802L237.45453229166668,27.814285714285802L237.60156996527778,27.814285714285802L237.6758967013889,27.814285714285802L237.94088767361112,27.814285714285802L238.0232934027778,27.814285714285802L238.13155190972225,27.814285714285802L238.3755375,27.814285714285802L238.38361649305554,27.814285714285802L238.46602222222222,27.814285714285802L238.71808680555557,27.814285714285802L238.7843345486111,27.814285714285802L239.21090538194446,27.814285714285802L239.31108489583332,27.814285714285802L239.39833802083334,27.814285714285802L239.4387329861111,27.814285714285802L239.70533975694443,27.814285714285802L240.2046215277778,27.814285714285802L240.72167708333333,27.814285714285802L241.15632690972222,27.814285714285802L242.03208975694443,27.814285714285802L242.22113819444445,27.814285714285802L242.32131770833334,27.814285714285802L242.3326282986111,27.814285714285802L242.5798454861111,27.814285714285802L243.03711649305555,27.814285714285802L243.28918107638887,27.814285714285802L243.50085069444444,27.814285714285802L243.8450157986111,27.814285714285802L243.8870265625,27.814285714285802L243.91772673611112,27.814285714285802L244.0631486111111,27.814285714285802L244.2053388888889,27.814285714285802L244.32975538194444,27.814285714285802L244.34752916666665,27.814285714285802L244.66907309027778,27.814285714285802L244.69492586805555,27.814285714285802L244.71593125,27.814285714285802L244.8500425347222,27.814285714285802L245.00031180555555,27.814285714285802L245.1683548611111,27.814285714285802L245.1796654513889,27.814285714285802L245.24591319444443,27.814285714285802L245.50282517361111,27.814285714285802L245.58523090277777,27.814285714285802L245.69510520833333,27.814285714285802L245.69995260416667,27.814285714285802L245.98271736111113,27.814285714285802L246.0263439236111,27.814285714285802L246.24932413194446,27.814285714285802L246.72598472222222,27.814285714285802L246.8213168402778,27.814285714285802L246.87302239583335,27.814285714285802L246.93603854166665,27.814285714285802L247.13478177083334,27.814285714285802L247.2155717013889,27.814285714285802L247.63406354166668,27.814285714285802L247.80533819444446,27.814285714285802L247.9992340277778,27.814285714285802L248.118803125,27.814285714285802L248.53567916666668,27.814285714285802L248.81359652777778,27.814285714285802L248.99618177083332,27.814285714285802L249.39851562500002,27.814285714285802L249.65381180555556,27.814285714285802L249.81377586805553,27.814285714285802L250.0254454861111,27.814285714285802L250.387384375,27.814285714285802L250.52311145833332,27.814285714285802L250.53603784722222,27.814285714285802L250.86081336805555,27.814285714285802L250.90605572916667,27.814285714285802L250.9092873263889,27.814285714285802L251.00138784722222,27.814285714285802L251.10964635416664,27.814285714285802L251.40049010416666,27.814285714285802L251.52813819444447,27.814285714285802L251.56045416666666,27.814285714285802L251.74788680555557,27.814285714285802L251.99510399305555,27.814285714285802L252.4782277777778,27.814285714285802L252.79815590277778,27.814285714285802L252.98235694444446,27.814285714285802L253.03083090277778,27.814285714285802L253.31521145833332,27.814285714285802L253.32005885416666,27.814285714285802L253.45255434027777,27.814285714285802L253.5559654513889,27.814285714285802L253.72724010416664,27.814285714285802L253.9631467013889,27.814285714285802L255.13136909722223,27.814285714285802L255.31395434027777,27.814285714285802L255.36889149305554,27.814285714285802L255.64519305555555,27.814285714285802L255.7873833333333,27.814285714285802L255.84716788194444,27.814285714285802L255.9117998263889,27.814285714285802L255.98451076388886,27.814285714285802L256.3254442708333,27.814285714285802L256.4547081597222,27.814285714285802L256.65183559027776,27.814285714285802L256.96691631944446,27.814285714285802L257.25937586805554,27.814285714285802L257.2690706597222,27.814285714285802L257.6972572916667,27.814285714285802L257.7328048611111,27.814285714285802L257.87014774305555,27.814285714285802L257.9008479166667,27.814285714285802L258.15291249999996,27.814285714285802L258.24016562500003,27.814285714285802L258.63118888888886,27.814285714285802L259.13208645833333,27.814285714285802L259.14178125,27.814285714285802L259.14501284722223,27.814285714285802L259.4455513888889,27.814285714285802L259.752553125,27.814285714285802L260.0676338541667,27.814285714285802L260.0951024305555,27.814285714285802L260.1290342013889,27.814285714285802L260.1758923611111,27.814285714285802L260.4408833333333,27.814285714285802L260.60084739583334,27.814285714285802L261.0710447916667,27.814285714285802L261.53316319444446,27.814285714285802L261.6301111111111,27.814285714285802L261.9290338541667,27.814285714285802L262.00012899305557,27.814285714285802L262.3103623263889,27.814285714285802L262.49617916666665,27.814285714285802L262.5624269097222,27.814285714285802L262.6012060763889,27.814285714285802L262.6432168402778,27.814285714285802L262.92921319444446,27.814285714285802L262.99869253472224,27.814285714285802L263.15380920138887,27.814285714285802L263.42687916666665,27.814285714285802L263.79528125,27.814285714285802L263.95039791666665,27.814285714285802L264.0053350694444,27.814285714285802L264.2460890625,27.814285714285802L264.67589149305553,27.814285714285802L265.15578368055554,27.814285714285802L265.28504756944443,27.814285714285802L265.35775850694444,27.814285714285802L265.60659149305553,27.814285714285802L265.70677100694445,27.814285714285802L266.08648368055555,27.814285714285802L266.0961784722222,27.814285714285802L266.2399845486111,27.814285714285802L266.36440104166667,27.814285714285802L266.59707604166664,27.814285714285802L266.6019234375,27.814285714285802L266.78935607638886,27.814285714285802L267.00587309027776,27.814285714285802L267.3161064236111,27.814285714285802L267.58109739583335,27.814285714285802L267.6085659722222,27.814285714285802L268.04321579861113,27.814285714285802L268.42616006944445,27.814285714285802L268.60066631944443,27.814285714285802L268.6426770833333,27.814285714285802L268.7170038194444,27.814285714285802L268.9933053819444,27.814285714285802L269.0740953125,27.814285714285802L269.09186909722223,27.814285714285802L269.2227487847222,27.814285714285802L269.28738072916667,27.814285714285802L269.35847586805556,27.814285714285802L269.57499288194447,27.814285714285802L270.08558524305556,27.814285714285802L270.35703940972223,27.814285714285802L270.51054027777775,27.814285714285802L270.54285625,27.814285714285802L270.73998368055555,27.814285714285802L270.78361024305553,27.814285714285802L270.9807376736111,27.814285714285802L271.0308274305556,27.814285714285802L271.3669135416667,27.814285714285802L271.4040769097222,27.814285714285802L271.54949878472223,27.814285714285802L271.735315625,27.814285714285802L272.4963567708333,27.814285714285802L272.65955243055555,27.814285714285802L272.6951,27.814285714285802L272.77104253472226,27.814285714285802L273.20730815972223,27.814285714285802L273.28971388888885,27.814285714285802L273.5934840277778,27.814285714285802L273.61448940972224,27.814285714285802L274.4530888888889,27.814285714285802L274.54518940972224,27.814285714285802L274.585584375,27.814285714285802L274.7924065972222,27.814285714285802L274.9313652777778,27.814285714285802L274.9895340277778,27.814285714285802L275.4694262152778,27.814285714285802L275.7796595486111,27.814285714285802L275.8604494791667,27.814285714285802L276.4049736111111,27.814285714285802L276.4211315972222,27.814285714285802L276.84447083333333,27.814285714285802L277.10946180555555,27.814285714285802L278.3229265625,27.814285714285802L278.3520109375,27.814285714285802L278.47319583333336,27.814285714285802L278.61053871527776,27.814285714285802L278.715565625,27.814285714285802L279.73190295138886,27.814285714285802L279.8369298611111,27.814285714285802L279.9645779513889,27.814285714285802L279.96619375,27.814285714285802L279.9678095486111,27.814285714285802L279.97104114583334,27.814285714285802L279.9775043402778,27.814285714285802L279.9823517361111,27.814285714285802L279.98558333333335,27.814285714285802L279.9888149305555,27.814285714285802L280.0001255208333,27.814285714285802L280.00497291666665,27.814285714285802L280.0065887152778,27.814285714285802L280.0114361111111,27.814285714285802L280.01951510416666,27.814285714285802L280.03244149305556,27.814285714285802L280.0389046875,27.814285714285802L280.04213628472223,27.814285714285802L280.04536788194446,27.814285714285802L280.04698368055557,27.814285714285802L280.05667847222225,27.814285714285802L280.06314166666664,27.814285714285802L280.0663732638889,27.814285714285802L280.0696048611111,27.814285714285802L280.0744522569444,27.814285714285802L280.08899444444444,27.814285714285802L280.09222604166666,27.814285714285802L280.0938418402778,27.814285714285802L280.1003050347222,27.814285714285802L280.1083840277778,27.814285714285802L280.111615625,27.814285714285802L280.1277736111111,27.814285714285802L280.1310052083333,27.814285714285802L280.1342368055556,27.814285714285802L280.1552421875,27.814285714285802L280.16170538194444,27.814285714285802L280.16493697916667,27.814285714285802L280.1810949652778,27.814285714285802L280.18917395833336,27.814285714285802L280.2004845486111,27.814285714285802L280.2053319444444,27.814285714285802L280.20856354166665,27.814285714285802L280.2182583333333,27.814285714285802L280.2295689236111,27.814285714285802L280.2408795138889,27.814285714285802L280.2424953125,27.814285714285802L280.2441111111111,27.814285714285802L280.24734270833335,27.814285714285802L280.2521901041667,27.814285714285802L280.25542170138885,27.814285714285802L280.26511649305553,27.814285714285802L280.2715796875,27.814285714285802L280.27319548611115,27.814285714285802L280.28289027777777,27.814285714285802L280.2845060763889,27.814285714285802L280.286121875,27.814285714285802L280.29420086805555,27.814285714285802L280.29581666666667,27.814285714285802L280.3022798611111,27.814285714285802L280.32005364583335,27.814285714285802L280.3297484375,27.814285714285802L280.3362116319444,27.814285714285802L280.33944322916665,27.814285714285802L280.344290625,27.814285714285802L280.3475222222222,27.814285714285802L280.3572170138889,27.814285714285802L280.3620644097222,27.814285714285802L280.3685276041667,27.814285714285802L280.3749907986111,27.814285714285802L280.37822239583335,27.814285714285802L280.3830697916666,27.814285714285802L280.3863013888889,27.814285714285802L280.3927645833333,27.814285714285802L280.3959961805556,27.814285714285802L280.4008435763889,27.814285714285802L280.4089225694444,27.814285714285802L280.4153857638889,27.814285714285802L280.4170015625,27.814285714285802L280.4202331597222,27.814285714285802L280.4347753472222,27.814285714285802L280.43639114583334,27.814285714285802L280.4541649305556,27.814285714285802L280.45739652777775,27.814285714285802L280.4590123263889,27.814285714285802L280.4703229166667,27.814285714285802L280.47355451388887,27.814285714285802L280.4751703125,27.814285714285802L280.4767861111111,27.814285714285802L280.4784019097222,27.814285714285802L280.48324930555555,27.814285714285802" style="fill: none;" fill="none"></path></g></g></g></g><g opacity="0.2"><g><g><g><path stroke="rgb(255, 112, 67)" stroke-width="2px" d="M33.04308159722222,146.65714285714284L33.56660034722223,146.65714285714284L33.80897013888889,146.65714285714284L34.10950868055556,146.65714285714284L34.925486979166664,146.65714285714284L34.964266145833335,144.12857142857143L35.006276909722224,146.65714285714284L35.053135069444444,146.65714285714284L35.07090885416667,146.65714285714284L35.46677951388889,144.12857142857143L35.47324270833333,146.65714285714284L35.544337847222224,146.65714285714284L36.12440954861111,146.65714285714284L36.44433767361111,146.65714285714284L36.473422048611106,144.12857142857143L36.58329635416666,146.65714285714284L36.622075520833334,146.65714285714284L37.122973090277775,144.12857142857143L37.62225486111111,146.65714285714284L41.61004583333334,144.12857142857143L46.842001736111115,136.54285714285714L47.65798003472223,139.07142857142858L48.21866215277778,126.42857142857143L65.47377552083333,37.928571428571445L68.43068697916667,27.814285714285717L71.15977083333334,35.400000000000006L71.82386406250001,30.342857142857127L73.88077569444444,30.342857142857127L74.21524600694445,27.814285714285717L74.35582048611111,30.342857142857127L75.70016493055556,30.342857142857127L76.90393489583334,27.814285714285717L77.13660989583333,27.814285714285717L78.45994895833333,30.342857142857127L78.48741753472223,27.814285714285717L79.67987690972222,27.814285714285717L79.68957170138889,27.814285714285717L80.25348541666666,27.814285714285717L80.5782609375,27.814285714285717L80.62996649305556,27.814285714285717L81.02098975694445,27.814285714285717L81.49765034722223,27.814285714285717L82.28777586805556,32.87142857142857L82.40734496527777,27.814285714285717L82.43642934027778,27.814285714285717L82.81452621527778,27.814285714285717L83.71452604166666,27.814285714285717L84.17018125,27.814285714285717L84.48203038194445,27.814285714285717L84.88436423611111,27.814285714285717L85.7391217013889,27.814285714285717L86.27718263888889,27.814285714285717L86.56964218750001,27.814285714285717L87.0802345486111,27.814285714285717L87.27897777777778,27.814285714285717L87.77987534722222,27.814285714285717L87.86712847222222,27.814285714285717L89.39405815972222,30.342857142857127L89.61380677083334,27.814285714285717L89.74468645833333,27.814285714285717L90.18579947916666,27.814285714285717L90.50734340277778,27.814285714285717L90.63499149305555,27.814285714285717L90.69800763888888,27.814285714285717L91.37825885416666,27.814285714285717L91.50752274305556,27.814285714285717L91.95186736111111,27.814285714285717L91.98418333333332,27.814285714285717L92.02134670138888,27.814285714285717L92.36551180555556,27.814285714285717L92.8227828125,27.814285714285717L93.40608611111112,27.814285714285717L94.71649878472222,27.814285714285717L94.8457626736111,27.814285714285717L95.4387607638889,27.814285714285717L95.68113055555555,27.814285714285717L95.99621128472224,27.814285714285717L96.7928,27.814285714285717L96.83481076388888,27.814285714285717L97.87538506944445,27.814285714285717L98.886875,27.814285714285717L99.00321249999999,27.814285714285717L99.04360746527777,27.814285714285717L99.439478125,27.814285714285717L99.962996875,27.814285714285717L100.2813092013889,27.814285714285717L100.34917274305555,27.814285714285717L100.47358923611111,27.814285714285717L100.95024982638888,27.814285714285717L101.2992623263889,27.814285714285717L101.7226015625,27.814285714285717L101.74845434027777,27.814285714285717L102.32852604166666,27.814285714285717L102.42708975694444,27.814285714285717L103.37233194444444,27.814285714285717L103.60015954861112,27.814285714285717L103.65348090277777,27.814285714285717L104.68436041666666,27.814285714285717L104.89441423611112,27.814285714285717L104.92511440972221,27.814285714285717L105.3452220486111,27.814285714285717L105.72170312499999,27.814285714285717L106.12242118055556,27.814285714285717L106.26945885416667,27.814285714285717L106.63462934027778,27.814285714285717L106.90285190972223,27.814285714285717L107.33750173611112,27.814285714285717L107.92242083333333,27.814285714285717L108.01128975694444,27.814285714285717L108.27466493055555,27.814285714285717L108.63660381944443,27.814285714285717L108.8935157986111,27.814285714285717L108.91452118055557,27.814285714285717L109.28777065972221,27.814285714285717L109.37663958333333,27.814285714285717L109.43480833333334,27.814285714285717L109.52529305555557,27.814285714285717L109.63031996527778,27.814285714285717L109.65617274305556,27.814285714285717L110.09243836805557,27.814285714285717L110.09405416666667,27.814285714285717L110.69997864583333,27.814285714285717L111.13947586805556,27.814285714285717L111.27035555555555,27.814285714285717L111.4076984375,27.814285714285717L111.93121718750001,27.814285714285717L111.94575937500001,27.814285714285717L112.66478975694444,27.814285714285717L113.23516666666666,27.814285714285717L113.24970885416667,27.814285714285717L113.46137847222222,27.814285714285717L113.59548975694445,27.814285714285717L113.62618993055555,27.814285714285717L113.67304809027779,27.814285714285717L113.85886493055555,27.814285714285717L113.95904444444444,27.814285714285717L114.27897256944445,27.814285714285717L114.59890069444444,27.814285714285717L114.87035486111111,27.814285714285717L115.04647690972222,27.814285714285717L115.20644097222223,27.814285714285717L115.43265277777778,27.814285714285717L115.50051631944444,27.814285714285717L115.66209618055557,27.814285714285717L115.73319131944444,27.814285714285717L115.86891840277778,27.814285714285717L115.92223975694445,27.814285714285717L116.26155746527778,27.814285714285717L116.29872083333333,27.814285714285717L116.70913368055555,27.814285714285717L116.87232934027779,27.814285714285717L117.1082359375,27.814285714285717L117.28920538194444,27.814285714285717L117.45078524305556,27.814285714285717L117.6899234375,27.814285714285717L117.878971875,27.814285714285717L118.18920520833333,27.814285714285717L118.35240086805555,27.814285714285717L118.36855885416666,27.814285714285717L118.41541701388888,27.814285714285717L118.92116197916667,27.814285714285717L119.20554253472223,27.814285714285717L119.36712239583333,27.814285714285717L119.44306493055555,27.814285714285717L119.6401923611111,27.814285714285717L119.8712515625,27.814285714285717L120.1911796875,27.814285714285717L120.23965364583333,27.814285714285717L120.24288524305555,27.814285714285717L120.30751718750001,27.814285714285717L120.40769670138889,27.814285714285717L120.9489892361111,27.814285714285717L120.97484201388889,27.814285714285717L121.13157447916666,27.814285714285717L121.42726562499999,27.814285714285717L121.43696041666666,27.814285714285717L121.48866597222222,27.814285714285717L121.51128715277777,27.814285714285717L122.02349531249999,27.814285714285717L122.10751684027777,27.814285714285717L122.14468020833333,27.814285714285717L122.20284895833333,27.814285714285717L122.52762447916668,27.814285714285717L122.71344131944444,27.814285714285717L122.71990451388889,27.814285714285717L122.75222048611111,27.814285714285717L122.75383628472223,27.814285714285717L123.07699600694444,27.814285714285717L123.40823472222222,27.814285714285717L123.86065833333333,27.814285714285717L123.87520052083333,27.814285714285717L123.89620590277777,27.814285714285717L124.27107118055555,27.814285714285717L124.57484131944445,27.814285714285717L124.88830625,27.814285714285717L125.14521822916667,27.814285714285717L125.37950902777779,27.814285714285717L125.66712118055555,27.814285714285717L125.76083750000001,27.814285714285717L125.98381770833333,27.814285714285717L126.3554513888889,27.814285714285717L127.55598975694444,27.814285714285717L127.60446371527779,27.814285714285717L127.63516388888888,27.814285714285717L127.9550920138889,27.814285714285717L128.12798246527777,27.814285714285717L128.2766359375,27.814285714285717L128.46245277777777,27.814285714285717L128.82116006944443,27.814285714285717L129.30913125,27.814285714285717L129.44324253472223,27.814285714285717L129.86981336805556,27.814285714285717L129.8762765625,27.814285714285717L130.0216984375,27.814285714285717L130.03300902777778,27.814285714285717L130.44180607638887,27.814285714285717L130.54521718750001,27.814285714285717L130.90392447916668,27.814285714285717L130.9249298611111,27.814285714285717L130.96370902777778,27.814285714285717L131.51146475694443,27.814285714285717L131.51631215277777,27.814285714285717L131.57609670138888,27.814285714285717L132.09799965277776,27.814285714285717L132.16586319444446,27.814285714285717L132.76370868055554,27.814285714285717L132.79925625,27.814285714285717L132.93659913194443,27.814285714285717L133.04324184027777,27.814285714285717L133.1062579861111,27.814285714285717L133.24198506944444,27.814285714285717L133.44234409722222,27.814285714285717L133.63623993055555,27.814285714285717L133.80751458333333,27.814285714285717L134.03857378472222,27.814285714285717L134.0660423611111,27.814285714285717L134.16137447916665,27.814285714285717L134.17753246527778,27.814285714285717L134.40697586805555,27.814285714285717L134.46837621527777,27.814285714285717L134.65904045138888,27.814285714285717L134.74467777777778,27.814285714285717L135.19710138888888,27.814285714285717L135.38291822916668,27.814285714285717L135.54126649305556,27.814285714285717L135.55742447916668,27.814285714285717L135.59943524305555,27.814285714285717L136.13264878472222,27.814285714285717L136.15526996527777,27.814285714285717L136.36047638888888,27.814285714285717L136.4525769097222,27.814285714285717L136.93408489583334,27.814285714285717L137.09889635416667,27.814285714285717L137.29763958333334,27.814285714285717L137.31218177083335,27.814285714285717L137.68058385416666,27.814285714285717L138.01182256944446,27.814285714285717L138.64844722222222,27.814285714285717L138.77447951388888,27.814285714285717L139.13641840277776,27.814285714285717L139.16227118055556,27.814285714285717L139.27699288194444,27.814285714285717L139.58076302083333,27.814285714285717L139.6906373263889,27.814285714285717L139.7617324652778,27.814285714285717L140.1592189236111,27.814285714285717L140.27070902777777,27.814285714285717L140.29171440972223,27.814285714285717L140.32403038194445,27.814285714285717L140.91056527777778,27.814285714285717L141.3662204861111,27.814285714285717L141.72008038194446,27.814285714285717L141.8315704861111,27.814285714285717L141.85419166666668,27.814285714285717L142.35832083333332,27.814285714285717L142.38740520833332,27.814285714285717L142.52313229166666,27.814285714285717L142.91577135416668,27.814285714285717L142.95293472222224,27.814285714285717L143.4425217013889,27.814285714285717L143.47806927083334,27.814285714285717L144.6527548611111,27.814285714285717L144.6802234375,27.814285714285717L144.95006180555555,27.814285714285717L144.95167760416666,27.814285714285717L145.04862552083333,27.814285714285717L146.12313159722223,27.814285714285717L146.41882274305556,27.814285714285717L146.90356232638888,27.814285714285717L146.9197203125,27.814285714285717L147.25419062499998,27.814285714285717L147.30912777777777,27.814285714285717L147.59673993055557,27.814285714285717L147.7340828125,27.814285714285717L147.90374166666666,27.814285714285717L148.08955850694446,27.814285714285717L148.70356197916666,27.814285714285717L149.19799635416666,27.814285714285717L149.24000711805553,27.814285714285717L149.27232309027778,27.814285714285717L149.3353392361111,27.814285714285717L149.83462100694445,27.814285714285717L149.95580590277777,27.814285714285717L150.37914513888887,27.814285714285717L150.5019458333333,27.814285714285717L150.7475472222222,27.814285714285717L150.78471059027777,27.814285714285717L150.91882187500002,27.814285714285717L150.9624484375,27.814285714285717L151.30338194444445,27.814285714285717L151.87699045138888,27.814285714285717L152.2324661458333,27.814285714285717L152.62510520833334,27.814285714285717L152.96765451388887,27.814285714285717L152.9838125,27.814285714285717L153.02259166666667,27.814285714285717L153.04198125,27.814285714285717L153.41523072916667,27.814285714285717L153.56550000000001,27.814285714285717L154.0292342013889,27.814285714285717L154.12618211805557,27.814285714285717L154.22151423611112,27.814285714285717L154.26514079861113,27.814285714285717L154.60930590277778,27.814285714285717L154.82259131944446,27.814285714285717L155.0891980902778,27.814285714285717L155.20068819444444,27.814285714285717L155.3380310763889,27.814285714285717L155.56262708333335,27.814285714285717L155.60786944444442,27.814285714285717L155.92133437500001,27.814285714285717L156.59189079861113,27.814285714285717L157.11379375,27.814285714285717L157.53713298611112,27.814285714285717L158.14144166666665,27.814285714285717L158.25293177083333,27.814285714285717L158.422590625,27.814285714285717L158.71828177083333,27.814285714285717L158.72151336805555,27.814285714285717L158.76513993055556,27.814285714285717L158.79099270833333,27.814285714285717L159.89619895833331,27.814285714285717L159.9656782986111,27.814285714285717L160.1111001736111,27.814285714285717L160.40840711805555,27.814285714285717L160.56352378472224,27.814285714285717L160.8382095486111,27.814285714285717L160.93031006944446,27.814285714285717L161.10320052083333,27.814285714285717L161.1290532986111,27.814285714285717L161.4053548611111,27.814285714285717L161.62833506944443,27.814285714285717L161.66226684027777,27.814285714285717L162.59135104166668,27.814285714285717L162.99530069444447,27.814285714285717L163.14072256944445,27.814285714285717L163.69332569444444,27.814285714285717L164.06819097222223,27.814285714285717L164.15544409722222,27.814285714285717L164.43497725694445,27.814285714285717L164.50930399305554,27.814285714285717L164.6014045138889,27.814285714285717L164.95203281250002,27.814285714285717L165.05544392361114,27.814285714285717L165.11684427083333,27.814285714285717L165.24933975694444,27.814285714285717L165.43515659722223,27.814285714285717L165.55957309027778,27.814285714285717L166.02169149305556,27.814285714285717L166.25759809027778,27.814285714285717L166.27698767361113,27.814285714285717L166.50158368055554,27.814285714285717L166.82635920138887,27.814285714285717L167.62133211805556,27.814285714285717L167.89924947916668,27.814285714285717L167.93641284722221,27.814285714285717L167.9590340277778,27.814285714285717L168.10284010416666,27.814285714285717L168.41468923611112,27.814285714285717L168.78632291666668,27.814285714285717L168.82510208333335,27.814285714285717L169.26459930555558,27.814285714285717L169.48111631944445,27.814285714285717L169.6297697916667,27.814285714285717L169.78973385416666,27.814285714285717L170.32779479166666,27.814285714285717L170.73174444444444,27.814285714285717L170.86585572916667,27.814285714285717L171.19709444444445,27.814285714285717L171.48147500000002,27.814285714285717L171.6430548611111,27.814285714285717L172.00014635416667,27.814285714285717L172.02761493055556,27.814285714285717L172.39116961805556,27.814285714285717L172.49134913194445,27.814285714285717L172.79835086805556,27.814285714285717L172.90014618055557,27.814285714285717L172.99224670138886,27.814285714285717L173.1409001736111,27.814285714285717L173.43497552083335,27.814285714285717L173.84700416666666,27.814285714285717L174.20894305555558,27.814285714285717L174.32689635416668,27.814285714285717L174.5078657986111,27.814285714285717L174.6985300347222,27.814285714285717L174.71953541666667,27.814285714285717L175.18488541666667,27.814285714285717L175.19619600694443,27.814285714285717L175.70840416666667,27.814285714285717L175.79404149305554,27.814285714285717L175.82635746527777,27.814285714285717L175.85867343750002,27.814285714285717L175.97016354166666,27.814285714285717L176.13174340277777,27.814285714285717L176.25131249999998,27.814285714285717L176.70535190972222,27.814285714285717L176.7166625,27.814285714285717L177.05598020833332,27.814285714285717L177.2094810763889,27.814285714285717L177.22079166666666,27.814285714285717L177.68614166666666,27.814285714285717L177.9236640625,27.814285714285717L178.05777534722225,27.814285714285717L178.06908593749998,27.814285714285717L178.1870392361111,27.814285714285717L178.4310248263889,27.814285714285717L178.56513611111112,27.814285714285717L178.63138385416667,27.814285714285717L178.66046822916667,27.814285714285717L178.6798578125,27.814285714285717L178.99655434027778,27.814285714285717L179.73174270833334,27.814285714285717L180.4378467013889,27.814285714285717L180.7206114583333,27.814285714285717L181.17465086805555,27.814285714285717L181.1778824652778,27.814285714285717L181.68524322916667,27.814285714285717L182.08757708333334,27.814285714285717L182.56746927083336,27.814285714285717L182.5787798611111,27.814285714285717L182.68703836805554,27.814285714285717L183.13623038194444,27.814285714285717L183.1717779513889,27.814285714285717L183.40283715277778,27.814285714285717L183.96998246527778,27.814285714285717L184.0297670138889,27.814285714285717L184.1751888888889,27.814285714285717L184.4498746527778,27.814285714285717L184.61791770833335,27.814285714285717L185.2658529513889,27.814285714285717L185.48560156250002,27.814285714285717L185.51145434027777,27.814285714285717L185.92671458333334,27.814285714285717L186.0365888888889,27.814285714285717L186.05274687500003,27.814285714285717L186.10606822916668,27.814285714285717L186.15938958333334,27.814285714285717L187.01091545138888,27.814285714285717L187.44556527777777,27.814285714285717L187.6265347222222,27.814285714285717L187.9125310763889,27.814285714285717L188.18075364583333,27.814285714285717L188.5653137152778,27.814285714285717L188.60894027777778,27.814285714285717L188.85454166666665,27.814285714285717L189.15508020833332,27.814285714285717L189.1922435763889,27.814285714285717L189.31989166666668,27.814285714285717L189.66082517361113,27.814285714285717L189.75454149305557,27.814285714285717L189.83209982638888,27.814285714285717L189.98398489583334,27.814285714285717L190.20373350694445,27.814285714285717L190.28937083333332,27.814285714285717L190.44933489583335,27.814285714285717L190.80319479166667,27.814285714285717L190.9227638888889,27.814285714285717L191.75166857638888,27.814285714285717L191.84376909722224,27.814285714285717L191.8825482638889,27.814285714285717L192.69529496527778,27.814285714285717L192.81971145833333,27.814285714285717L192.95543854166667,27.814285714285717L193.28829305555556,27.814285714285717L193.31576163194444,27.814285714285717L193.4272517361111,27.814285714285717L193.4547203125,27.814285714285717L193.69547430555556,27.814285714285717L193.96046527777776,27.814285714285717L194.19960347222224,27.814285714285717L194.32401996527776,27.814285714285717L194.46621024305557,27.814285714285717L194.62779010416668,27.814285714285717L194.81522274305556,27.814285714285717L194.96226041666668,27.814285714285717L194.9994237847222,27.814285714285717L195.03981875,27.814285714285717L195.92204479166665,27.814285714285717L196.13371440972222,27.814285714285717L196.50534809027778,27.814285714285717L196.51019548611112,27.814285714285717L196.55866944444443,27.814285714285717L196.62330138888888,27.814285714285717L196.86728697916666,27.814285714285717L196.92060833333335,27.814285714285717L196.9739296875,27.814285714285717L197.0870355902778,27.814285714285717L197.42958489583333,27.814285714285717L197.57500677083334,27.814285714285717L197.6137859375,27.814285714285717L198.00642499999998,27.814285714285717L198.1486152777778,27.814285714285717L198.15184687500002,27.814285714285717L198.3974482638889,27.814285714285717L198.44430642361112,27.814285714285717L198.6592076388889,27.814285714285717L198.85310347222224,27.814285714285717L198.94035659722223,27.814285714285717L199.00660434027776,27.814285714285717L199.0114517361111,27.814285714285717L199.57213385416668,27.814285714285717L199.61899201388889,27.814285714285717L199.77410868055557,27.814285714285717L200.00032048611112,27.814285714285717L200.1021157986111,27.814285714285717L200.15220555555555,27.814285714285717L200.25723246527778,27.814285714285717L200.41234913194444,27.814285714285717L200.4802126736111,27.814285714285717L200.72258246527778,27.814285714285717L200.77590381944444,27.814285714285717L201.17500607638888,27.814285714285717L201.27033819444443,27.814285714285717L201.4642340277778,27.814285714285717L201.6435876736111,27.814285714285717L201.65005086805556,27.814285714285717L201.8891890625,27.814285714285717L202.35938645833332,27.814285714285717L202.39008663194446,27.814285714285717L202.55651388888887,27.814285714285717L202.63891961805555,27.814285714285717L202.83927864583333,27.814285714285717L202.97985312499998,27.814285714285717L203.35310260416668,27.814285714285717L203.62778836805555,27.814285714285717L203.7247362847222,27.814285714285717L204.28380260416668,27.814285714285717L204.55848836805555,27.814285714285717L204.5665673611111,27.814285714285717L204.7378420138889,27.814285714285717L204.841253125,27.814285714285717L204.93335364583334,27.814285714285717L205.06261753472222,27.814285714285717L205.190265625,27.814285714285717L205.2080394097222,27.814285714285717L205.23550798611112,27.814285714285717L205.30821892361112,27.814285714285717L205.45525659722222,27.814285714285717L205.70408958333334,27.814285714285717L205.72024756944444,27.814285714285717L205.74771614583335,27.814285714285717L205.91091180555557,27.814285714285717L206.21629774305558,27.814285714285717L206.73981649305554,27.814285714285717L207.07267100694443,27.814285714285717L207.13568715277776,27.814285714285717L207.63496892361113,27.814285714285717L208.01468159722222,27.814285714285717L208.04861336805556,27.814285714285717L208.10839791666666,27.814285714285717L208.25381979166664,27.814285714285717L208.48649479166667,27.814285714285717L208.50911597222225,27.814285714285717L208.51396336805558,27.814285714285717L209.08918767361112,27.814285714285717L209.11342465277778,27.814285714285717L209.18290399305556,27.814285714285717L209.25561493055557,27.814285714285717L209.8017548611111,27.814285714285717L209.82922343750002,27.814285714285717L209.87769739583334,27.814285714285717L209.89547118055555,27.814285714285717L210.570875,27.814285714285717L211.02653020833336,27.814285714285717L211.28990538194444,27.814285714285717L211.85543489583335,27.814285714285717L212.6956501736111,27.814285714285717L212.77482430555554,27.814285714285717L212.82006666666666,27.814285714285717L212.86530902777778,27.814285714285717L212.9283251736111,27.814285714285717L213.37751718750002,27.814285714285717L213.42114375,27.814285714285717L213.5358654513889,27.814285714285717L213.72814548611112,27.814285714285717L214.24358524305555,27.814285714285717L214.50049722222224,27.814285714285717L214.54412378472222,27.814285714285717L214.904446875,27.814285714285717L215.12581128472223,27.814285714285717L215.44089201388888,27.814285714285717L215.8787734375,27.814285714285717L215.91593680555556,27.814285714285717L215.9498685763889,27.814285714285717L215.99187934027776,27.814285714285717L216.33927604166666,27.814285714285717L217.25381805555554,27.814285714285717L217.30067621527778,27.814285714285717L217.59313576388888,27.814285714285717L217.5963673611111,27.814285714285717L218.16997586805553,27.814285714285717L218.2039076388889,27.814285714285717L218.4802092013889,27.814285714285717L218.5238357638889,27.814285714285717L218.5965467013889,27.814285714285717L219.11844965277777,27.814285714285717L219.1346076388889,27.814285714285717L219.3979828125,27.814285714285717L219.46261475694445,27.814285714285717L219.59187864583333,27.814285714285717L219.63873680555554,27.814285714285717L219.95704913194444,27.814285714285717L219.9925967013889,27.814285714285717L220.07015503472223,27.814285714285717L220.15256076388889,27.814285714285717L220.57913159722224,27.814285714285717L220.73747986111113,27.814285714285717L220.9960076388889,27.814285714285717L221.0961871527778,27.814285714285717L221.18020868055555,27.814285714285717L221.46782083333332,27.814285714285717L221.61809010416667,27.814285714285717L221.6552534722222,27.814285714285717L221.9574078125,27.814285714285717L222.09151909722223,27.814285714285717L222.14968784722222,27.814285714285717L222.40013663194443,27.814285714285717L222.91396059027778,27.814285714285717L222.96889774305555,27.814285714285717L223.01252430555556,27.814285714285717L223.0464560763889,27.814285714285717L223.1207828125,27.814285714285717L223.33245243055555,27.814285714285717L223.4584847222222,27.814285714285717L223.7622548611111,27.814285714285717L223.78164444444445,27.814285714285717L223.96746128472222,27.814285714285717L224.46512725694444,27.814285714285717L224.68002847222223,27.814285714285717L224.76889739583333,27.814285714285717L225.0387357638889,27.814285714285717L225.05974114583336,27.814285714285717L225.12922048611114,27.814285714285717L225.22616840277777,27.814285714285717L225.27464236111112,27.814285714285717L225.49762256944445,27.814285714285717L225.69959739583334,27.814285714285717L225.93550399305556,27.814285714285717L226.0583046875,27.814285714285717L226.08577326388888,27.814285714285717L226.2328109375,27.814285714285717L226.61575520833333,27.814285714285717L227.21198489583333,27.814285714285717L227.47697586805555,27.814285714285717L227.64986631944444,27.814285714285717L227.99564722222223,27.814285714285717L228.21701163194444,27.814285714285717L228.70983020833333,27.814285714285717L228.91988402777775,27.814285714285717L229.0879270833333,27.814285714285717L229.22042256944442,27.814285714285717L229.98469531249998,27.814285714285717L230.4209609375,27.814285714285717L230.44035052083333,27.814285714285717L230.54537743055556,27.814285714285717L230.7118046875,27.814285714285717L230.94771128472223,27.814285714285717L231.27571840277776,27.814285714285717L231.37428211805553,27.814285714285717L231.38559270833332,27.814285714285717L231.41306128472223,27.814285714285717L231.44052986111112,27.814285714285717L231.52131979166668,27.814285714285717L231.55040416666668,27.814285714285717L231.90587986111112,27.814285714285717L233.20175034722223,27.814285714285717L233.22275572916666,27.814285714285717L233.23891371527776,27.814285714285717L233.59600520833334,27.814285714285717L234.19546649305556,27.814285714285717L234.22131927083333,27.814285714285717L234.41359930555555,27.814285714285717L234.76422760416668,27.814285714285717L234.85471232638886,27.814285714285717L235.07284513888888,27.814285714285717L235.17625625,27.814285714285717L235.18433524305553,27.814285714285717L235.24250399305558,27.814285714285717L236.18774618055556,27.814285714285717L236.3703314236111,27.814285714285717L236.5416060763889,27.814285714285717L236.70803333333333,27.814285714285717L237.17499913194445,27.814285714285717L237.17984652777778,27.814285714285717L237.45453229166668,27.814285714285717L237.60156996527778,27.814285714285717L237.6758967013889,27.814285714285717L237.94088767361112,27.814285714285717L238.0232934027778,27.814285714285717L238.13155190972225,27.814285714285717L238.3755375,27.814285714285717L238.38361649305554,27.814285714285717L238.46602222222222,27.814285714285717L238.71808680555557,27.814285714285717L238.7843345486111,27.814285714285717L239.21090538194446,27.814285714285717L239.31108489583332,27.814285714285717L239.39833802083334,27.814285714285717L239.4387329861111,27.814285714285717L239.70533975694443,27.814285714285717L240.2046215277778,27.814285714285717L240.72167708333333,27.814285714285717L241.15632690972222,27.814285714285717L242.03208975694443,27.814285714285717L242.22113819444445,27.814285714285717L242.32131770833334,27.814285714285717L242.3326282986111,27.814285714285717L242.5798454861111,27.814285714285717L243.03711649305555,27.814285714285717L243.28918107638887,27.814285714285717L243.50085069444444,27.814285714285717L243.8450157986111,27.814285714285717L243.8870265625,27.814285714285717L243.91772673611112,27.814285714285717L244.0631486111111,27.814285714285717L244.2053388888889,27.814285714285717L244.32975538194444,27.814285714285717L244.34752916666665,27.814285714285717L244.66907309027778,27.814285714285717L244.69492586805555,27.814285714285717L244.71593125,27.814285714285717L244.8500425347222,27.814285714285717L245.00031180555555,27.814285714285717L245.1683548611111,27.814285714285717L245.1796654513889,27.814285714285717L245.24591319444443,27.814285714285717L245.50282517361111,27.814285714285717L245.58523090277777,27.814285714285717L245.69510520833333,27.814285714285717L245.69995260416667,27.814285714285717L245.98271736111113,27.814285714285717L246.0263439236111,27.814285714285717L246.24932413194446,27.814285714285717L246.72598472222222,27.814285714285717L246.8213168402778,27.814285714285717L246.87302239583335,27.814285714285717L246.93603854166665,27.814285714285717L247.13478177083334,27.814285714285717L247.2155717013889,27.814285714285717L247.63406354166668,27.814285714285717L247.80533819444446,27.814285714285717L247.9992340277778,27.814285714285717L248.118803125,27.814285714285717L248.53567916666668,27.814285714285717L248.81359652777778,27.814285714285717L248.99618177083332,27.814285714285717L249.39851562500002,27.814285714285717L249.65381180555556,27.814285714285717L249.81377586805553,27.814285714285717L250.0254454861111,27.814285714285717L250.387384375,27.814285714285717L250.52311145833332,27.814285714285717L250.53603784722222,27.814285714285717L250.86081336805555,27.814285714285717L250.90605572916667,27.814285714285717L250.9092873263889,27.814285714285717L251.00138784722222,27.814285714285717L251.10964635416664,27.814285714285717L251.40049010416666,27.814285714285717L251.52813819444447,27.814285714285717L251.56045416666666,27.814285714285717L251.74788680555557,27.814285714285717L251.99510399305555,27.814285714285717L252.4782277777778,27.814285714285717L252.79815590277778,27.814285714285717L252.98235694444446,27.814285714285717L253.03083090277778,27.814285714285717L253.31521145833332,27.814285714285717L253.32005885416666,27.814285714285717L253.45255434027777,27.814285714285717L253.5559654513889,27.814285714285717L253.72724010416664,27.814285714285717L253.9631467013889,27.814285714285717L255.13136909722223,27.814285714285717L255.31395434027777,27.814285714285717L255.36889149305554,27.814285714285717L255.64519305555555,27.814285714285717L255.7873833333333,27.814285714285717L255.84716788194444,27.814285714285717L255.9117998263889,27.814285714285717L255.98451076388886,27.814285714285717L256.3254442708333,27.814285714285717L256.4547081597222,27.814285714285717L256.65183559027776,27.814285714285717L256.96691631944446,27.814285714285717L257.25937586805554,27.814285714285717L257.2690706597222,27.814285714285717L257.6972572916667,27.814285714285717L257.7328048611111,27.814285714285717L257.87014774305555,27.814285714285717L257.9008479166667,27.814285714285717L258.15291249999996,27.814285714285717L258.24016562500003,27.814285714285717L258.63118888888886,27.814285714285717L259.13208645833333,27.814285714285717L259.14178125,27.814285714285717L259.14501284722223,27.814285714285717L259.4455513888889,27.814285714285717L259.752553125,27.814285714285717L260.0676338541667,27.814285714285717L260.0951024305555,27.814285714285717L260.1290342013889,27.814285714285717L260.1758923611111,27.814285714285717L260.4408833333333,27.814285714285717L260.60084739583334,27.814285714285717L261.0710447916667,27.814285714285717L261.53316319444446,27.814285714285717L261.6301111111111,27.814285714285717L261.9290338541667,27.814285714285717L262.00012899305557,27.814285714285717L262.3103623263889,27.814285714285717L262.49617916666665,27.814285714285717L262.5624269097222,27.814285714285717L262.6012060763889,27.814285714285717L262.6432168402778,27.814285714285717L262.92921319444446,27.814285714285717L262.99869253472224,27.814285714285717L263.15380920138887,27.814285714285717L263.42687916666665,27.814285714285717L263.79528125,27.814285714285717L263.95039791666665,27.814285714285717L264.0053350694444,27.814285714285717L264.2460890625,27.814285714285717L264.67589149305553,27.814285714285717L265.15578368055554,27.814285714285717L265.28504756944443,27.814285714285717L265.35775850694444,27.814285714285717L265.60659149305553,27.814285714285717L265.70677100694445,27.814285714285717L266.08648368055555,27.814285714285717L266.0961784722222,27.814285714285717L266.2399845486111,27.814285714285717L266.36440104166667,27.814285714285717L266.59707604166664,27.814285714285717L266.6019234375,27.814285714285717L266.78935607638886,27.814285714285717L267.00587309027776,27.814285714285717L267.3161064236111,27.814285714285717L267.58109739583335,27.814285714285717L267.6085659722222,27.814285714285717L268.04321579861113,27.814285714285717L268.42616006944445,27.814285714285717L268.60066631944443,27.814285714285717L268.6426770833333,27.814285714285717L268.7170038194444,27.814285714285717L268.9933053819444,27.814285714285717L269.0740953125,27.814285714285717L269.09186909722223,27.814285714285717L269.2227487847222,27.814285714285717L269.28738072916667,27.814285714285717L269.35847586805556,27.814285714285717L269.57499288194447,27.814285714285717L270.08558524305556,27.814285714285717L270.35703940972223,27.814285714285717L270.51054027777775,27.814285714285717L270.54285625,27.814285714285717L270.73998368055555,27.814285714285717L270.78361024305553,27.814285714285717L270.9807376736111,27.814285714285717L271.0308274305556,27.814285714285717L271.3669135416667,27.814285714285717L271.4040769097222,27.814285714285717L271.54949878472223,27.814285714285717L271.735315625,27.814285714285717L272.4963567708333,27.814285714285717L272.65955243055555,27.814285714285717L272.6951,27.814285714285717L272.77104253472226,27.814285714285717L273.20730815972223,27.814285714285717L273.28971388888885,27.814285714285717L273.5934840277778,27.814285714285717L273.61448940972224,27.814285714285717L274.4530888888889,27.814285714285717L274.54518940972224,27.814285714285717L274.585584375,27.814285714285717L274.7924065972222,27.814285714285717L274.9313652777778,27.814285714285717L274.9895340277778,27.814285714285717L275.4694262152778,27.814285714285717L275.7796595486111,27.814285714285717L275.8604494791667,27.814285714285717L276.4049736111111,27.814285714285717L276.4211315972222,27.814285714285717L276.84447083333333,27.814285714285717L277.10946180555555,27.814285714285717L278.3229265625,27.814285714285717L278.3520109375,27.814285714285717L278.47319583333336,27.814285714285717L278.61053871527776,27.814285714285717L278.715565625,27.814285714285717L279.73190295138886,27.814285714285717L279.8369298611111,27.814285714285717L279.9645779513889,27.814285714285717L279.96619375,27.814285714285717L279.9678095486111,27.814285714285717L279.97104114583334,27.814285714285717L279.9775043402778,27.814285714285717L279.9823517361111,27.814285714285717L279.98558333333335,27.814285714285717L279.9888149305555,27.814285714285717L280.0001255208333,27.814285714285717L280.00497291666665,27.814285714285717L280.0065887152778,27.814285714285717L280.0114361111111,27.814285714285717L280.01951510416666,27.814285714285717L280.03244149305556,27.814285714285717L280.0389046875,27.814285714285717L280.04213628472223,27.814285714285717L280.04536788194446,27.814285714285717L280.04698368055557,27.814285714285717L280.05667847222225,27.814285714285717L280.06314166666664,27.814285714285717L280.0663732638889,27.814285714285717L280.0696048611111,27.814285714285717L280.0744522569444,27.814285714285717L280.08899444444444,27.814285714285717L280.09222604166666,27.814285714285717L280.0938418402778,27.814285714285717L280.1003050347222,27.814285714285717L280.1083840277778,27.814285714285717L280.111615625,27.814285714285717L280.1277736111111,27.814285714285717L280.1310052083333,27.814285714285717L280.1342368055556,27.814285714285717L280.1552421875,27.814285714285717L280.16170538194444,27.814285714285717L280.16493697916667,27.814285714285717L280.1810949652778,27.814285714285717L280.18917395833336,27.814285714285717L280.2004845486111,27.814285714285717L280.2053319444444,27.814285714285717L280.20856354166665,27.814285714285717L280.2182583333333,27.814285714285717L280.2295689236111,27.814285714285717L280.2408795138889,27.814285714285717L280.2424953125,27.814285714285717L280.2441111111111,27.814285714285717L280.24734270833335,27.814285714285717L280.2521901041667,27.814285714285717L280.25542170138885,27.814285714285717L280.26511649305553,27.814285714285717L280.2715796875,27.814285714285717L280.27319548611115,27.814285714285717L280.28289027777777,27.814285714285717L280.2845060763889,27.814285714285717L280.286121875,27.814285714285717L280.29420086805555,27.814285714285717L280.29581666666667,27.814285714285717L280.3022798611111,27.814285714285717L280.32005364583335,27.814285714285717L280.3297484375,27.814285714285717L280.3362116319444,27.814285714285717L280.33944322916665,27.814285714285717L280.344290625,27.814285714285717L280.3475222222222,27.814285714285717L280.3572170138889,27.814285714285717L280.3620644097222,27.814285714285717L280.3685276041667,27.814285714285717L280.3749907986111,27.814285714285717L280.37822239583335,27.814285714285717L280.3830697916666,27.814285714285717L280.3863013888889,27.814285714285717L280.3927645833333,27.814285714285717L280.3959961805556,27.814285714285717L280.4008435763889,27.814285714285717L280.4089225694444,27.814285714285717L280.4153857638889,27.814285714285717L280.4170015625,27.814285714285717L280.4202331597222,27.814285714285717L280.4347753472222,27.814285714285717L280.43639114583334,27.814285714285717L280.4541649305556,27.814285714285717L280.45739652777775,27.814285714285717L280.4590123263889,27.814285714285717L280.4703229166667,27.814285714285717L280.47355451388887,27.814285714285717L280.4751703125,27.814285714285717L280.4767861111111,27.814285714285717L280.4784019097222,27.814285714285717L280.48324930555555,27.814285714285717" style="fill: none;" fill="none"></path></g></g></g></g></g></g><g transform="translate(39, 177)" clip-path="url(#clip_1)"><clipPath id="clip_1"><rect width="290" height="23"></rect></clipPath><g><g><line x1="0" y1="0" x2="0" y2="5" style="visibility: inherit;" fill="rgb(0, 0, 0)" stroke="rgb(204, 204, 204)" stroke-width="1px"></line><line x1="32.31597222222222" y1="0" x2="32.31597222222222" y2="5" style="visibility: inherit;" fill="rgb(0, 0, 0)" stroke="rgb(204, 204, 204)" stroke-width="1px"></line><line x1="64.63194444444444" y1="0" x2="64.63194444444444" y2="5" style="visibility: inherit;" fill="rgb(0, 0, 0)" stroke="rgb(204, 204, 204)" stroke-width="1px"></line><line x1="96.94791666666666" y1="0" x2="96.94791666666666" y2="5" style="visibility: inherit;" fill="rgb(0, 0, 0)" stroke="rgb(204, 204, 204)" stroke-width="1px"></line><line x1="129.26388888888889" y1="0" x2="129.26388888888889" y2="5" style="visibility: inherit;" fill="rgb(0, 0, 0)" stroke="rgb(204, 204, 204)" stroke-width="1px"></line><line x1="161.57986111111111" y1="0" x2="161.57986111111111" y2="5" style="visibility: inherit;" fill="rgb(0, 0, 0)" stroke="rgb(204, 204, 204)" stroke-width="1px"></line><line x1="193.89583333333331" y1="0" x2="193.89583333333331" y2="5" style="visibility: inherit;" fill="rgb(0, 0, 0)" stroke="rgb(204, 204, 204)" stroke-width="1px"></line><line x1="226.21180555555557" y1="0" x2="226.21180555555557" y2="5" style="visibility: inherit;" fill="rgb(0, 0, 0)" stroke="rgb(204, 204, 204)" stroke-width="1px"></line><line x1="258.52777777777777" y1="0" x2="258.52777777777777" y2="5" style="visibility: inherit;" fill="rgb(0, 0, 0)" stroke="rgb(204, 204, 204)" stroke-width="1px"></line><line x1="290.84375" y1="0" x2="290.84375" y2="5" style="visibility: inherit;" fill="rgb(0, 0, 0)" stroke="rgb(204, 204, 204)" stroke-width="1px"></line></g><g transform="translate(0, 8)"><text x="0" y="0" dx="0em" dy="0.95em" style="text-anchor: middle; visibility: hidden; font-family: &quot;Helvetica Neue&quot;, sans-serif; font-size: 12px; font-weight: 200;" fill="rgb(50, 49, 63)" stroke="none" stroke-width="1px">-20k</text><text x="32.31597222222222" y="0" dx="0em" dy="0.95em" style="text-anchor: middle; visibility: inherit; font-family: &quot;Helvetica Neue&quot;, sans-serif; font-size: 12px; font-weight: 200;" fill="rgb(50, 49, 63)" stroke="none" stroke-width="1px">0</text><text x="64.63194444444444" y="0" dx="0em" dy="0.95em" style="text-anchor: middle; visibility: inherit; font-family: &quot;Helvetica Neue&quot;, sans-serif; font-size: 12px; font-weight: 200;" fill="rgb(50, 49, 63)" stroke="none" stroke-width="1px">20k</text><text x="96.94791666666666" y="0" dx="0em" dy="0.95em" style="text-anchor: middle; visibility: inherit; font-family: &quot;Helvetica Neue&quot;, sans-serif; font-size: 12px; font-weight: 200;" fill="rgb(50, 49, 63)" stroke="none" stroke-width="1px">40k</text><text x="129.26388888888889" y="0" dx="0em" dy="0.95em" style="text-anchor: middle; visibility: inherit; font-family: &quot;Helvetica Neue&quot;, sans-serif; font-size: 12px; font-weight: 200;" fill="rgb(50, 49, 63)" stroke="none" stroke-width="1px">60k</text><text x="161.57986111111111" y="0" dx="0em" dy="0.95em" style="text-anchor: middle; visibility: inherit; font-family: &quot;Helvetica Neue&quot;, sans-serif; font-size: 12px; font-weight: 200;" fill="rgb(50, 49, 63)" stroke="none" stroke-width="1px">80k</text><text x="193.89583333333331" y="0" dx="0em" dy="0.95em" style="text-anchor: middle; visibility: inherit; font-family: &quot;Helvetica Neue&quot;, sans-serif; font-size: 12px; font-weight: 200;" fill="rgb(50, 49, 63)" stroke="none" stroke-width="1px">100k</text><text x="226.21180555555557" y="0" dx="0em" dy="0.95em" style="text-anchor: middle; visibility: inherit; font-family: &quot;Helvetica Neue&quot;, sans-serif; font-size: 12px; font-weight: 200;" fill="rgb(50, 49, 63)" stroke="none" stroke-width="1px">120k</text><text x="258.52777777777777" y="0" dx="0em" dy="0.95em" style="text-anchor: middle; visibility: inherit; font-family: &quot;Helvetica Neue&quot;, sans-serif; font-size: 12px; font-weight: 200;" fill="rgb(50, 49, 63)" stroke="none" stroke-width="1px">140k</text><text x="290.84375" y="0" dx="0em" dy="0.95em" style="text-anchor: middle; visibility: hidden; font-family: &quot;Helvetica Neue&quot;, sans-serif; font-size: 12px; font-weight: 200;" fill="rgb(50, 49, 63)" stroke="none" stroke-width="1px">160k</text></g><line x1="0" y1="0" x2="290.84375" y2="0" fill="rgb(0, 0, 0)" stroke="rgb(204, 204, 204)" stroke-width="1px"></line></g></g></g></g></svg>