<svg viewBox="0 0 330 200" xmlns="http://www.w3.org/2000/svg"><g><g><g><g><g><line x1="68.3125" y1="177" x2="63.3125" y2="177" style="visibility: inherit;" fill="rgb(0, 0, 0)" stroke="rgb(204, 204, 204)" stroke-width="1px"></line><line x1="68.3125" y1="151.71428571428572" x2="63.3125" y2="151.71428571428572" style="visibility: inherit;" fill="rgb(0, 0, 0)" stroke="rgb(204, 204, 204)" stroke-width="1px"></line><line x1="68.3125" y1="126.42857142857143" x2="63.3125" y2="126.42857142857143" style="visibility: inherit;" fill="rgb(0, 0, 0)" stroke="rgb(204, 204, 204)" stroke-width="1px"></line><line x1="68.3125" y1="101.14285714285715" x2="63.3125" y2="101.14285714285715" style="visibility: inherit;" fill="rgb(0, 0, 0)" stroke="rgb(204, 204, 204)" stroke-width="1px"></line><line x1="68.3125" y1="75.85714285714286" x2="63.3125" y2="75.85714285714286" style="visibility: inherit;" fill="rgb(0, 0, 0)" stroke="rgb(204, 204, 204)" stroke-width="1px"></line><line x1="68.3125" y1="50.57142857142857" x2="63.3125" y2="50.57142857142857" style="visibility: inherit;" fill="rgb(0, 0, 0)" stroke="rgb(204, 204, 204)" stroke-width="1px"></line><line x1="68.3125" y1="25.285714285714306" x2="63.3125" y2="25.285714285714306" style="visibility: inherit;" fill="rgb(0, 0, 0)" stroke="rgb(204, 204, 204)" stroke-width="1px"></line><line x1="68.3125" y1="0" x2="63.3125" y2="0" style="visibility: inherit;" fill="rgb(0, 0, 0)" stroke="rgb(204, 204, 204)" stroke-width="1px"></line></g><g transform="translate(58.3125, 0)"><text x="0" y="177" dx="0em" dy="0.3em" style="text-anchor: end; visibility: hidden; font-family: &quot;Helvetica Neue&quot;, sans-serif; font-size: 12px; font-weight: 200;" fill="rgb(50, 49, 63)" stroke="none" stroke-width="1px">-5e+4</text><text x="0" y="151.71428571428572" dx="0em" dy="0.3em" style="text-anchor: end; visibility: inherit; font-family: &quot;Helvetica Neue&quot;, sans-serif; font-size: 12px; font-weight: 200;" fill="rgb(50, 49, 63)" stroke="none" stroke-width="1px">0</text><text x="0" y="126.42857142857143" dx="0em" dy="0.3em" style="text-anchor: end; visibility: inherit; font-family: &quot;Helvetica Neue&quot;, sans-serif; font-size: 12px; font-weight: 200;" fill="rgb(50, 49, 63)" stroke="none" stroke-width="1px">5e+4</text><text x="0" y="101.14285714285715" dx="0em" dy="0.3em" style="text-anchor: end; visibility: inherit; font-family: &quot;Helvetica Neue&quot;, sans-serif; font-size: 12px; font-weight: 200;" fill="rgb(50, 49, 63)" stroke="none" stroke-width="1px">1e+5</text><text x="0" y="75.85714285714286" dx="0em" dy="0.3em" style="text-anchor: end; visibility: inherit; font-family: &quot;Helvetica Neue&quot;, sans-serif; font-size: 12px; font-weight: 200;" fill="rgb(50, 49, 63)" stroke="none" stroke-width="1px">1.5e+5</text><text x="0" y="50.57142857142857" dx="0em" dy="0.3em" style="text-anchor: end; visibility: inherit; font-family: &quot;Helvetica Neue&quot;, sans-serif; font-size: 12px; font-weight: 200;" fill="rgb(50, 49, 63)" stroke="none" stroke-width="1px">2e+5</text><text x="0" y="25.285714285714306" dx="0em" dy="0.3em" style="text-anchor: end; visibility: inherit; font-family: &quot;Helvetica Neue&quot;, sans-serif; font-size: 12px; font-weight: 200;" fill="rgb(50, 49, 63)" stroke="none" stroke-width="1px">2.5e+5</text><text x="0" y="0" dx="0em" dy="0.3em" style="text-anchor: end; visibility: hidden; font-family: &quot;Helvetica Neue&quot;, sans-serif; font-size: 12px; font-weight: 200;" fill="rgb(50, 49, 63)" stroke="none" stroke-width="1px">3e+5</text></g><line x1="68.3125" y1="0" x2="68.3125" y2="177" fill="rgb(0, 0, 0)" stroke="rgb(204, 204, 204)" stroke-width="1px"></line></g></g><g transform="translate(68, 0)" clip-path="url(#clip_0)"><clipPath id="clip_0"><rect width="261" height="177"></rect></clipPath><g><g><g><line x1="0" y1="0" x2="0" y2="177" fill="rgb(0, 0, 0)" stroke="rgb(60, 60, 60)" stroke-width="1px" opacity="0.25"></line><line x1="26.168750000000003" y1="0" x2="26.168750000000003" y2="177" fill="rgb(0, 0, 0)" stroke="rgb(60, 60, 60)" stroke-width="1px" opacity="0.25"></line><line x1="52.337500000000006" y1="0" x2="52.337500000000006" y2="177" fill="rgb(0, 0, 0)" stroke="rgb(60, 60, 60)" stroke-width="1px" opacity="0.25"></line><line x1="78.50625" y1="0" x2="78.50625" y2="177" fill="rgb(0, 0, 0)" stroke="rgb(60, 60, 60)" stroke-width="1px" opacity="0.25"></line><line x1="104.67500000000001" y1="0" x2="104.67500000000001" y2="177" fill="rgb(0, 0, 0)" stroke="rgb(60, 60, 60)" stroke-width="1px" opacity="0.25"></line><line x1="130.84375" y1="0" x2="130.84375" y2="177" fill="rgb(0, 0, 0)" stroke="rgb(60, 60, 60)" stroke-width="1px" opacity="0.25"></line><line x1="157.0125" y1="0" x2="157.0125" y2="177" fill="rgb(0, 0, 0)" stroke="rgb(60, 60, 60)" stroke-width="1px" opacity="0.25"></line><line x1="183.18124999999998" y1="0" x2="183.18124999999998" y2="177" fill="rgb(0, 0, 0)" stroke="rgb(60, 60, 60)" stroke-width="1px" opacity="0.25"></line><line x1="209.35000000000002" y1="0" x2="209.35000000000002" y2="177" fill="rgb(0, 0, 0)" stroke="rgb(60, 60, 60)" stroke-width="1px" opacity="0.25"></line><line x1="235.51875" y1="0" x2="235.51875" y2="177" fill="rgb(0, 0, 0)" stroke="rgb(60, 60, 60)" stroke-width="1px" opacity="0.25"></line><line x1="261.6875" y1="0" x2="261.6875" y2="177" fill="rgb(0, 0, 0)" stroke="rgb(60, 60, 60)" stroke-width="1px" opacity="0.25"></line></g><g><line x1="0" y1="177" x2="261.6875" y2="177" fill="rgb(0, 0, 0)" stroke="rgb(60, 60, 60)" stroke-width="1px" opacity="0.25"></line><line x1="0" y1="151.71428571428572" x2="261.6875" y2="151.71428571428572" fill="rgb(0, 0, 0)" stroke="rgb(60, 60, 60)" stroke-width="1px" opacity="0.25"></line><line x1="0" y1="126.42857142857143" x2="261.6875" y2="126.42857142857143" fill="rgb(0, 0, 0)" stroke="rgb(60, 60, 60)" stroke-width="1px" opacity="0.25"></line><line x1="0" y1="101.14285714285715" x2="261.6875" y2="101.14285714285715" fill="rgb(0, 0, 0)" stroke="rgb(60, 60, 60)" stroke-width="1px" opacity="0.25"></line><line x1="0" y1="75.85714285714286" x2="261.6875" y2="75.85714285714286" fill="rgb(0, 0, 0)" stroke="rgb(60, 60, 60)" stroke-width="1px" opacity="0.25"></line><line x1="0" y1="50.57142857142857" x2="261.6875" y2="50.57142857142857" fill="rgb(0, 0, 0)" stroke="rgb(60, 60, 60)" stroke-width="1px" opacity="0.25"></line><line x1="0" y1="25.285714285714306" x2="261.6875" y2="25.285714285714306" fill="rgb(0, 0, 0)" stroke="rgb(60, 60, 60)" stroke-width="1px" opacity="0.25"></line><line x1="0" y1="0" x2="261.6875" y2="0" fill="rgb(0, 0, 0)" stroke="rgb(60, 60, 60)" stroke-width="1px" opacity="0.25"></line></g></g></g><g><g><line x1="0" y1="151.71428571428572" x2="261.6875" y2="151.71428571428572" fill="rgb(0, 0, 0)" stroke="rgb(153, 153, 153)" stroke-width="1.5px"></line></g></g><g><g><line x1="26.168750000000003" y1="0" x2="26.168750000000003" y2="177" fill="rgb(0, 0, 0)" stroke="rgb(153, 153, 153)" stroke-width="1.5px"></line></g></g><g><g><g><g><g><path stroke="rgb(255, 112, 67)" stroke-width="2px" d="M27.505973124999997,149.43857142857144L28.020189062500002,148.48037593984964L28.3132790625,148.81529256721137L28.39309375,148.908299339509L28.50823625,149.0254394973784L28.5749665625,148.77902819068677L28.707118750000003,148.8957558484893L28.7764659375,149.0088236908562L28.851046875,149.06246650369465L28.9217025,149.12021139470278L28.9517965625,148.9234002662748L28.9779653125,148.76967117511637L29.07348125,148.6220337471485L29.111425937499998,148.51151974123962L29.1323609375,148.6282608739482L29.16768875,148.5166712986848L29.18862375,148.61517460059972L29.1951659375,148.5156976058662L29.2344190625,148.4060603325204L29.2422696875,148.31059021945086L29.363954375000002,148.21010795867775L29.536668125,148.1332102106229L29.5589115625,148.2653428837594L29.581155,148.1895018858866L29.64396,148.11158675732608L29.646576875,148.05881869379755L29.6753625,147.99590710341093L30.2837859375,147.94002013313744L31.165672812500002,147.89030504669907L31.1892246875,147.86186910972415L31.201000625,147.79971072959455L31.7060575,147.7913674608815L32.5002790625,147.76825946187546L32.77897625,147.91926189342539L32.8116871875,147.88836223764824L32.8352390625,147.871050289104L33.0458975,148.0155610102167L33.1021603125,147.9905193779703L33.25001375,147.94750384446567L33.417493750000006,147.91919213074993L33.493383125,147.8527895781537L33.5313278125,147.83926295839217L33.56403875,147.8066711919621L33.654320937499996,147.8131526424558L33.684415,147.94651565140796L33.688340312499996,147.9235983527686L33.776005624999996,147.8979140815281L33.8898396875,147.8392062769389L33.922550625,147.827130785662L33.96180375,147.7908593436659L34.020683437500004,147.7938156934539L34.116199375,147.75584705038037L34.1410596875,147.74708657419575L34.3530265625,147.71891121627735L34.466860624999995,147.71893445107324L34.4786365625,147.70374225277985L34.516581249999994,147.70528611889972L34.5519090625,147.7117432609525L34.727239687499996,147.71248470098863L34.9261221875,147.7131517152355L35.210053125,147.7036211298078L35.963713125,147.86217551944847L36.073621875,147.64023865423002L36.701671875,147.66332772553395L36.727840625,147.67397768239812L36.8887784375,147.6633125860814L36.950275,147.6537159362528L36.999995625,147.65014157766814L37.0274728125,147.80886649539684L37.1282225,147.8100091332383L37.22243,147.7756173971252L37.295702500000004,147.76490736462003L37.444864375,147.76032882250456L37.491968125,147.91304443567134L37.8099184375,148.04541754005712L37.8465546875,148.1746616801535L37.8674896875,148.27073859120657L38.0402034375,148.17509607809086L38.074222812500004,148.08902271887874L38.176280937499996,148.19871584071228L38.294040312499995,148.14063283595115L38.3908646875,148.10859245377935L38.401332187499996,148.0291777030371L38.66956187500001,148.00828550945155L38.744142812499994,148.14121696473853L38.758535625,148.10406238295485L38.902463749999995,148.07568175043454L38.9351746875,148.02485165216098L39.0241484375,148.14600531300079L39.0712521875,148.06791311855872L39.0738690625,148.01280374271107L39.3015371875,147.97837838712695L39.5972440625,147.93222369957846L39.9871584375,147.9159719459301L40.290715937499996,148.05812400275838L40.306417187499996,147.97870838743935L40.37838125,147.9325215801468L40.565487812499995,148.06290226898477L40.600815625,148.02852531324498L40.607357812500005,148.00770080022085L40.668854374999995,147.973787052339L40.70287375,147.9483220849474L40.746052187500005,147.92540371839266L40.77614625,148.07166589545466L40.9266165625,148.01112692783005L41.307371874999994,147.96675646586462L41.4918615625,148.09876821067206L41.584760625,148.07597684329838L41.66980906249999,148.04535027237938L41.7980359375,147.9975576596584L41.862149375,148.1416602376805L41.880467499999995,148.07917945948464L42.0440221875,148.05328991017012L42.110752500000004,148.02998934899824L42.170940625,148.16073398625187L42.2455215625,148.10646032049814L42.443095625,148.2245005256159L42.605341875,148.31556512181794L42.6694553125,148.23569403734035L42.685156562500005,148.17392443413706L42.950769375,148.29533234357376L42.959928437500004,148.40965655111012L43.033200937500006,148.4923196620266L43.267411249999995,148.58694503916465L43.3943296875,148.47993604548515L43.8130296875,148.36845653533493L43.845740625,148.27823931388605L43.979201249999996,148.23750104015352L44.14668125,148.35760822925855L44.149298125,148.2937616201577L44.218645312499994,148.39307127306523L44.225187500000004,148.11327817629206L44.297151562500005,148.04352172997602L44.32070343749999,148.16279821652225L44.4136025,148.12854694352583L44.5431378125,148.26966376218698L44.59678375,148.36632600945404L44.866321875,148.2864362269295L44.882023124999996,148.39153550722617L44.9513703125,148.30912478129187L45.2680121875,148.4068980519957L45.42895,148.4999511335305L45.562410625,148.42692742784905L45.776994375,148.35109180838714L45.81101375,148.27778261055337L45.8751271875,148.39891866048666L45.910455000000006,148.31576963596714L45.9457828125,148.25610694800162L46.05176625,148.36929627041772L46.070084375,148.3042809201902L46.113262812500004,148.25082425015663L46.1891521875,148.20271324837773L46.253265625,148.31112764864477L46.3121453125,147.86758627251527L46.582991875,147.6403419126092L46.62747875,147.82016487728748L46.6471053125,147.80500553142332L47.14038625,147.80147640664444L47.148236875,147.94495734501803L47.167863437499996,148.09431876050255L47.258145625,148.2236868900097L47.33926875,148.18840391393033L47.582638124999995,148.13642066358562L47.6205828125,148.08963573861908L47.7671278125,148.05258644942722L47.77890375,148.18612780787194L47.9581596875,148.14954359767813L48.0785359375,148.10144637977922L48.1125553125,148.04298745500597L48.1308734375,147.9954315658568L48.1910615625,147.95768840870576L48.30227875,147.92877671030257L48.422655000000006,147.89264189597677L48.44882375,148.04217770801193L48.482843124999995,148.1717027956265L48.554807187499996,148.29333251713962L48.592751875,148.39774212339964L48.7877090625,148.3298821962878L48.828270625,148.43063683445152L49.0402375,148.36960172208074L49.0677146875,148.3197272638979L49.08472437499999,148.26978310870194L49.12921125,148.19449051179893L49.2077175,148.31384146107345L49.2378115625,148.25942874335107L49.889413437500004,148.20540015456365L49.974461875,148.31354585369314L50.03595843750001,148.24904841101986L50.110539374999995,148.19605785551303L50.1275490625,148.30513778446814L50.264935,148.21113829156445L50.5881190625,148.1568816051762L50.6169046875,148.2749363019756L50.639148125,148.38118552906195L50.769991874999995,148.48186697627602L50.8785921875,148.40053742141814L50.8942934375,148.48411225078576L51.047380624999995,148.5745010257859L51.0565396875,148.49402235171567L51.135045937499996,148.4064201164823L51.138971250000004,148.49952096203603L51.1546725,148.42654029436216L51.34832125,148.51762912211564L51.3810321875,148.45295192415986L51.4804734375,148.54645673178283L51.6034665625,148.4637253442878L51.6819728125,148.55109566703138L51.79842375,148.45272895744122L51.9174915625,148.3743132045328L52.00777375,148.30879616977768L52.0823546875,148.4167165528238L52.1687115625,148.34190204038367L52.599187500000006,148.44651183636407L52.69862875,148.35860350985632L52.868725624999996,148.45648601602778L52.9877934375,148.54458027157938L52.9982609375,148.6238651015736L53.0087284375,148.690164305709L53.119945625,148.76500501800237L53.26387375,148.67559023048017L53.454905625,148.5597169217089L53.659021875,148.64760237240128L53.7466871875,148.7064707065934L53.779398125,148.58245220735566L53.7911740625,148.4910641294726L53.810800625,148.42904343080824L53.870988749999995,148.35299623058143L53.88145625,148.26938232180592L54.030618125,148.21435837533778L54.1182834375,148.12943682351576L54.203331875,148.26035028402484L54.20594875,148.21634382704985L54.262211562500006,148.31833801577568L54.3511853125,148.233132785625L54.391746875,148.34356236420732L54.4205325,148.27100612778543L54.5788534375,148.22593408643482L54.888953125,148.18536924921938L54.9897028125,148.29551803858442L55.004095625,148.39465194901274L55.083910312499995,148.3321581826823L55.12708875,148.27085665012785L55.129705625,148.21062812797175L55.259240937499996,148.3233081723182L55.2880265625,148.26794878365746L55.4659740625,148.22318247672004L55.6884084375,148.17277851476206L55.721119375,148.1324720918571L56.1018746875,148.08608202552836L56.1411278125,148.216273822976L56.2091665625,148.17667501210684L56.228793125,148.120807510896L56.362253749999994,148.07052675980626L56.661885937499996,148.0505597981113L56.668428125,148.00224667544293L56.7089896875,147.97899343647L56.7665609375,148.09966552139466L56.7927296875,148.05655611211228L56.872544375,148.02787192947244L56.877778125,148.00205616509658L57.12638125,148.15076483430138L57.1433909375,148.11771692229976L57.1460078125,148.0525738014983L57.27292625,148.01923070706275L57.354049375,148.1510504934994L57.3710590625,148.11797401557803L57.4338640625,148.06797661402018L57.4469484375,148.01286466690385L57.512370312499996,147.958206771642L57.602652500000005,148.09612895162073L57.673308125,148.0685446278872L57.715178125,148.02854730795562L57.755739687500004,147.9470354343029L57.798918125,148.07596046230123L57.9166775,148.21222155892826L57.9677065625,148.173027974464L58.097241875,148.12258231987474L58.59183125,148.0771812307444L58.8914634375,148.0363202505271L58.9202490625,147.98943108261724L59.01053125,147.94723083149836L59.0720278125,148.0862506054914L59.137449687499995,148.03942554494225L59.185861875,148.01245441901946L59.3755853125,147.98312326283178L59.3860528125,147.9466109365486L59.683068125,147.92892127146519L59.819145625,147.8674862871758L59.902885625,147.8273662298868L59.9094278125,147.97837246404097L59.93167125,147.95244950335115L60.00494375,147.92406169587318L60.1711153125,147.91368409771445L60.3647640625,147.89928711651442L60.451120937499994,147.6840441191487L60.583273125,147.66732542151954L60.6055165625,147.65227859365328L60.6918734375,147.67413644857368L60.771688125,147.6786370894306L60.774305,147.67763052334467L60.927392187500004,147.69695318529594L60.941785,147.48677215248063L60.949635625,147.5049520800897L61.149826562499996,147.5364854435093L61.255810000000004,147.4991226134441L61.30291375,147.51101035209967L61.4272153125,147.531823602604L61.510955312499995,147.51009838520073L61.7595584375,147.67260283239494L61.9846096875,147.66714254915544L61.9924603125,147.64705686566847L62.1311546875,147.8059797505302L62.4582640625,147.58489606119147L62.5812571875,147.38086359792948L62.586490937499995,147.3894058095651L62.6597634375,147.41732237146573L62.70555875,147.41210442003344L62.765746875000005,147.42257969231582L62.839019375,147.44212172308423L62.918834062500004,147.44959526506153L63.0182753125,147.4714928814125L63.0444440625,147.65808645041412L63.579595000000005,147.43156351965843L63.60053,147.23780716769258L63.870068125,147.06342645092332L63.89362,147.13911237725955L63.948574375,147.16171542524788L64.0257721875,147.19217245415166L64.0571746875,147.22969806587935L64.0938109375,147.23818540214856L64.1435315625,147.286281147648L64.215495625,147.2941673185975L64.2599825,147.33666487245202L64.29400187499999,147.34456981377826L64.330638125,147.34662711811472L64.4156865625,147.34342154916038L64.534754375,147.35065082281577L64.676065625,147.35210002624848L64.95607125,147.35340430933792L65.07121375,147.34952102126127L65.1693465625,147.371311776278L65.408790625,147.39092345579306L65.51084875000001,147.38834539592804L65.56318625,147.20396799919237L65.5788875,147.04308548498742L65.6835625,147.11069122220297L65.728049375,147.12602209998266L65.7476759375,147.16004846141297L65.7816953125,147.1957293295574L65.79085437500001,147.25312782517307L65.87982812499999,147.08732932837006L65.9387078125,147.11511068124733L66.30114499999999,147.1401138988369L66.42282968750001,147.1525025089532L66.8572309375,147.16870940091502L67.0142434375,147.19340988939496L67.0901328125,147.21058318616974L67.3256515625,147.2310962961242L67.402849375,147.2394438093689L67.5035990625,147.0750137141463L67.706406875,147.09391234273167L67.7770625,147.12609253702993L67.90790625,146.9932261404698L67.99295468749999,146.8534178121371L68.0295909375,146.7174760309234L68.0348246875,146.78729985640248L68.135574375,146.67819844219082L68.1473503125,146.38783574082888L68.18529500000001,146.2883378810317L68.4430571875,146.23418980721425L68.50455375,146.36245654077854L68.9350296875,146.28066802955783L68.94811406250001,146.3992297980306L69.00699374999999,146.33399253251326L69.25428843750001,146.40676470783336L69.26083062500001,146.48237395133575L69.3484959375,146.4088222704879L69.38774906249999,146.15045432915338L69.433544375,146.08480889623803L69.4374696875,146.1875565780428L69.52906031250001,146.1131437773814L69.94252656249999,146.06640082821468L69.96477,146.0192750311075L70.2055225,145.9869760994253L70.2264575,145.93262134662564L70.2670190625,146.06575921196307L70.323281875,146.01869757648106L71.29675937500001,145.97634210454723L71.3870415625,145.93822217980681L71.4289115625,145.73197139039755L71.5833071875,145.70817425135778L71.6382615625,145.72721396907914L71.79134875,145.68366400074268L71.940510625,145.66975474352554L71.95359499999999,145.66229355488727L72.0268675,145.6302927708271L72.2793959375,145.45989206517297L72.49659656249999,145.47341714436996L72.50313874999999,145.45524685850438L72.7059465625,145.4388936012254L72.866884375,145.40900424110285L72.992494375,145.40738953127828L73.05529937499999,145.43627914957904L73.0696921875,145.42182266319253L73.13118874999999,145.43409753973043L73.16259125,145.59685921432882L73.3104446875,145.58657329289593L73.311753125,145.59248739217776L73.3418471875,145.5725243672457L73.390259375,145.55455764480686L73.76970625,145.52321616604044L73.772323125,145.5304088351507L73.8730728125,145.70376795163563L74.290464375,145.67267687075778L74.6398171875,145.63458061225344L74.923748125,145.62052255102807L75.096461875,145.42581315306813L75.14094875,145.42757469490417L75.2678671875,145.4038743682709L75.5923596875,145.4128869314438L75.64993093749999,145.42099823829943L75.82526156249999,145.42829841446948L75.86844,145.43992571587967L75.8906834375,145.45039028714885L75.97704031250001,145.4598084012911L76.2413446875,145.463227561162L76.36302937500001,145.2893048050458L76.517425,145.33000289596978L76.66135312499999,145.34134546351567L76.66527843749999,145.35155377430695L76.80528125,145.3354555397334L76.8589271875,145.3664814143315L77.2396825,145.37923327289835L77.273701875,145.37553851703709L77.326039375,145.37221323676195L77.4660421875,145.38439191308575L77.4712759375,145.18800986463432L77.54062312500001,145.20343744959945L77.582493125,145.2426079903538L77.629596875,145.25763290560414L77.7538984375,145.45826961504372L77.7643659375,145.46184265353935L77.77745031250001,145.46000124532827L77.90960249999999,145.28640112079543L78.053530625,145.2818752944302L78.50494156250001,145.30308776498717L78.744385625,145.1502361313456L78.8608365625,145.14921251821102L79.11859875,145.18369126638993L79.4234646875,145.04783642546522L79.573935,145.0924527829187L79.6903859375,145.1073217903411L79.83823937499999,144.968989611307L79.874875625,145.01643350731916L80.042355625,144.88719015658725L80.3603059375,144.90235685521424L80.39955906249999,144.94129259826423L80.5644221875,144.9611633384378L80.6036753125,144.99421843316546L80.8548953125,145.02396801842033L80.89153156249999,144.8939712165783L81.17022875,144.79720266634905L81.188546875,144.7101109711427L81.2971471875,144.76827130259989L81.4044390625,144.66384417233988L81.4149065625,144.56985975510588L81.4201403125,144.65721663673816L81.4803284375,144.7105521159215L81.6373409375,144.61695404718648L81.7472496875,144.68443007103926L81.816596875,144.7502156353639L81.94482375,144.77907978611324L82.00893718750001,144.65334323607334L82.03903125,144.58569462675172L82.444646875,144.65629659264798L82.5166109375,144.72995264766888L82.630445,144.78107166861628L82.83586968750001,144.8321359303261L83.025593125,144.71626519443635L83.0949403125,144.64232438927843L83.768785625,144.67692052177915L83.983369375,144.73839989817264L84.025239375,144.79373133692684L84.07496,144.84858677466272L84.276459375,144.88278524005358L84.3353390625,144.91862100176252L84.4975853125,144.95593033015768L84.5446890625,144.18542301142764L84.6101109375,144.29605213885628L84.7880584375,144.3956183535421L84.87441531249999,144.30317080390216L84.87572375,144.24525372351195L84.91235999999999,144.35495692258934L84.925444375,144.45368980175897L85.0863821875,144.5476065358688L85.09554125000001,144.43490302513905L85.57442937500001,144.37392700833942L85.652935625,144.46570573607693L85.66340312499999,144.38647801961207L85.68041281250001,144.46183021765088L85.6974225,144.3779329101715L85.7641528125,144.4591967620115L85.8635940625,144.3907342286675L85.904155625,144.3190036629436L86.5256634375,144.22410329664922L86.7637990625,144.15892153841287L86.7690328125,144.0699150988573L86.9129609375,144.04038073182872L87.312034375,143.77611408721728L87.40624187499999,143.7557312499241L87.8131659375,143.70704383921742L88.115415,143.6733394552957L88.1742946875,143.6430055097661L88.17822,143.63087638736093L88.2528009375,143.59467446291055L88.26457687499999,143.58232130233378L88.3142975,143.56614631495754L88.46607625,143.5718173977475L88.5406571875,143.5111785151156L88.683276875,143.30994637788976L88.76963375000001,143.31089459724365L89.00646093750001,143.30163370894786L89.1373046875,143.3236417666245L89.23020375,143.4395347328192L89.552079375,143.4123526881087L89.583481875,143.3929459907264L89.8412440625,143.21365139165377L89.90666593750001,143.23434339534552L89.9485359375,142.823109055811L90.007415625,142.8322838645156L90.24947656249999,142.27414119234976L90.47060250000001,142.36855564454333L90.698270625,141.63427150866045L90.7519165625,141.2212157863658L90.8775265625,141.27426563630067L90.9874353125,141.4484390726706L91.04108124999999,140.8213380225464L91.954370625,141.01551850600606L92.0394190625,141.09419522683402L92.090448125,140.4924042755792L92.302415,140.42616384802125L92.394005625,140.13391889179056L92.4110153125,139.49161271689724L92.5052228125,139.72268001663608L92.7093390625,139.99132630068675L92.73027406249999,139.96002224204665L93.49047625,140.1847057321277L93.64225499999999,139.48169230177206L94.037403125,139.35975164302343L94.4783465625,139.06794790729253L94.58040468749999,139.07841025942042L94.65236875000001,138.51131209062123L94.89312125,138.10206659584483L95.021348125,137.84500279340318L95.0592928125,137.43158822834857L95.560424375,137.18088654837086L95.59706062500001,136.92491217924808L95.6624825,136.5579923898947L95.77239125000001,136.1873074366195L95.86529031250001,136.03069097867183L96.17800687500001,135.68745045223324L96.3651134375,135.62633397843848L96.560070625,135.81407200916607L96.858394375,135.77063623682088L97.11223125,135.48880118456736L97.1370915625,134.40577820896777L97.40662968749999,134.46777181664243L97.52046375,134.37185177783533L97.94701437500001,134.29058088576608L98.00327718749999,134.3034085114752L98.43637,134.4464390888991L98.46384718750001,134.29702375143776L98.69936593749999,134.02094994772256L99.18741312499999,134.0101692386646L99.731723125,133.985295171941L100.28257531249999,134.08427994046116L100.54164593750001,133.9205090892722L100.56650624999999,133.20165818034496L100.77978156249999,133.35372093373905L101.1749296875,133.47034884036515L101.2822215625,133.63599967061435L101.359419375,133.05179970355292L102.3826175,132.8901340189119L102.4035525,132.57774918844927L102.4519646875,132.38257426960436L102.78430781249999,131.90854541407248L103.128426875,132.03314801552239L103.5222665625,131.19454749968443L103.9619015625,130.72300703543027L104.0377909375,129.34282061760155L104.1738684375,129.70882427012708L104.45779937500001,129.25437041454296L105.14080375,129.10327623023153L105.36454656250001,128.49697717863694L105.933716875,127.90073660363038L105.9625025,126.81794865755306L105.9847459375,125.86366807751203L106.2464334375,125.49030126976083L106.614104375,124.46144257135617L106.7096203125,124.35978402850627L106.933363125,124.34414848279852L107.2984171875,124.38064792023295L107.6229096875,124.54498312820964L107.6569290625,124.5664562439601L108.4681603125,124.96506776242123L108.8580746875,125.16198955760768L109.016395625,125.3392191732755L109.18125875,124.75026868451937L109.4390209375,124.45789895892457L109.4573390625,125.30228049160354L109.8001496875,125.26319529958604L110.96073375,125.45053291248459L111.1242884375,125.06285104980755L111.730095,123.95536594482681L111.91720156250001,123.66157220748698L112.1173925,123.79667212959541L112.28879781250001,122.8309763452073L112.3725378125,123.16545013925801L112.4719790625,122.77870512533221L112.9403996875,121.7378060413704L113.18900281250001,121.90851115151908L113.8615396875,120.82314575065288L114.0224775,120.64534546130189L114.70940718749999,120.9354109151717L114.98417906249999,121.26221268079739L115.01689,121.36921998414621L115.778400625,121.34415512858874L116.7034659375,120.23431104430128L116.73356,119.45290851129974L117.2817953125,119.15421766016976L117.6036709375,117.72225303700993L118.1218121875,118.06694201902323L118.85322875,117.49216210283518L119.46688593750001,117.51597446398024L119.643525,116.95077701758223L119.71156375,117.06412788725257L120.28596781249999,117.0043150985273L120.88392375000001,116.17168358867457L121.6258078125,115.84205808694998L122.2486240625,114.61488084968354L122.323205,115.23996419328662L122.624145625,114.97822491681511L122.9106934375,113.19517385370503L123.53874343749999,113.8509707540488L123.788655,111.71033082150107L124.2793190625,111.15424059649382L124.293711875,110.997645108273L124.3028709375,111.76193774030284L124.4991365625,111.72662968055828L125.19260843750001,111.16385242678815L125.34307875,111.91152432696649L125.54981187499999,111.39600046569839L125.769629375,112.25194327627142L126.5272146875,112.3699203772157L126.56385093749999,112.76941405377984L126.94460624999999,112.16304407697329L127.44312093750001,112.37082538356167L127.9874309375,113.49339998806263L128.14836875,111.14577427497066L128.831373125,110.88382541890218L129.1074534375,110.90092859129767L130.7822534375,111.16917858931076L131.1145965625,111.09706073037968L131.275534375,110.688268943056L132.6716371875,109.12687062017898L132.8914546875,109.4157549867325L135.0922465625,108.51260805948783L135.093555,109.02474725353903L135.45337531250001,109.90541538532798L136.07488312499999,108.50827384679519L136.2515221875,108.07516074782995L136.34180437499998,108.30233038733266L136.373206875,109.74578306288512L136.5786315625,108.97651904231088L136.802374375,109.10849570950836L137.3872459375,108.62041756712897L137.561268125,108.75766152470179L139.2059740625,107.78883822937446L139.44541812499997,106.3302686921513L139.5147653125,106.61055610865046L139.560560625,106.99935764064256L139.6377584375,105.74616473372114L140.2645,105.24031968892045L140.32207125000002,104.76988772002842L140.7774075,104.15432751945414L141.2157340625,104.48026619608017L141.7966803125,105.425982433615L142.4953859375,105.1746699045392L143.454470625,104.74620291408529L143.4583959375,103.7638397655339L144.22644875,102.49537007469479L144.5038375,103.29063306722531L144.5875775,102.45888404621707L146.13676750000002,103.22239564159536L147.26202375,101.1584703631501L148.68037,101.4047090411208L148.792895625,101.78309527986586L150.10918375,101.90112860902214L150.12488499999998,101.49153003383421L150.1981575,101.7044627447365L150.39965687499998,101.37521647026286L150.42451718750002,97.30120910895084L151.25406656250001,97.0380596266272L151.912210625,96.62422509253591L152.24455375,96.94460258328232L152.2981996875,97.65268518209695L153.053168125,97.88033094960154L153.21803125,97.74638356892709L154.021411875,98.2276309263201L154.9988146875,98.14998211940237L155.3337746875,93.40224105031926L156.5139853125,93.93861694528735L157.517556875,93.70324096504432L157.774010625,92.90983115425416L157.83943250000002,92.01876232454303L157.9441075,88.52640037780301L159.4134828125,90.07630319716557L160.05723406250002,90.87953002030615L160.91164375,89.5391198754184L161.2060421875,87.5994650307337L161.6770796875,86.87531852766033L162.316905625,86.19830096060858L163.2079515625,87.22244229311913L163.4879571875,84.48279806380722L164.703495625,85.34471825742652L165.4663146875,86.57558928882672L167.377941875,85.79200178851546L167.82281062500002,87.40294446680677L168.4809546875,87.7250500201261L169.063209375,87.33728787525634L169.4204128125,83.62530194487357L169.445273125,84.24425746467193L169.48060093750001,83.63817457534759L169.738363125,84.19515711781283L169.9359371875,84.32726997746012L172.219160625,83.92528583685694L172.9335675,81.97555725317126L173.08534625000001,81.11085867071128L174.1360215625,81.35417280364017L175.8971784375,79.82338409470472L175.9573665625,80.37244568523427L176.840561875,78.53525825956798L176.8758896875,79.48116100503977L177.5327253125,78.99233061882151L178.18301874999997,80.23641184265364L179.2768725,78.58982780124542L179.661553125,78.7666450211209L180.1417496875,72.61446623329451L180.676900625,73.97039103853649L180.7593321875,75.58518050611141L181.236911875,77.22560531264311L183.037321875,76.59821620995025L183.06218218749999,76.08919458895521L183.3500384375,77.9573608443454L183.3605059375,75.32496761705373L184.05397781250002,75.47932799820549L186.7650603125,75.53733805552778L187.2740425,72.49457567854643L188.218734375,73.46803239640609L188.522291875,69.35274344247975L189.37801,70.01835481251749L189.7273628125,72.38740504555146L191.07897875,71.34366454099631L191.63898999999998,69.84295522975383L191.704411875,70.35840256392129L192.4593803125,69.79064802181489L192.499941875,69.88652607677625L193.60557156250002,69.5631877548129L195.5080396875,67.29484040790304L196.35721562499998,67.69592779568416L198.02547343749998,69.39199215897287L198.13014843750003,70.60996437164702L199.3914821875,69.84005364876803L200.25766781250002,70.29004828389122L200.368885,72.18690059835923L201.1761909375,71.17838196709474L201.2311453125,68.26302948467098L201.8539615625,66.73155510763245L202.4741609375,66.8197995968692L203.0943603125,66.28730535146799L203.21735343749998,68.0837748163212L204.103165625,69.28085447754623L204.3583109375,66.73225474407732L204.678878125,67.0227149839553L206.05142906249998,66.32832919984547L207.7707159375,65.06618199414665L209.19952968750002,58.86299236616054L209.30813,58.44346455811592L209.48738593750002,57.848432388018594L209.7176709375,60.45844629207389L211.69079468750002,56.450630234295076L212.38295812500002,56.378538639437L213.256994375,56.16699906120758L213.738499375,55.42538486937252L215.1817059375,55.86544638243528L215.3177834375,55.93278745847746L215.58993843750002,56.64576585548684L216.13555687500002,59.66936069850959L216.33836468750002,60.9442532000872L217.4897896875,60.068799308649886L218.57710125,61.67291937778492L219.8397434375,60.471741725720705L220.73471468749997,62.43002469600577L223.0401815625,60.829479369262344L223.1186878125,61.33598857519324L223.75458843750002,61.928389717673895L224.2884309375,60.11503646019223L224.3957228125,60.70816138560157L225.8009846875,59.795630961327134L225.9318284375,58.868153579480136L226.22884375,57.99802393581783L226.4447359375,57.720621542236046L226.85166,57.44567367372673L227.2036296875,57.74439202063978L227.2454996875,57.32040996143293L227.32923968749998,56.66574039386106L227.3711096875,54.867880640189256L227.4129796875,55.611492576170306L227.4548496875,55.299657604267566L227.49671968750002,56.343977558126525L227.53858968749998,55.92349408802815L227.5804596875,56.546373250653886L227.62232968749998,55.42799306844566L227.7060696875,53.95113661874393L227.7479396875,54.488051528298115L227.78980968750002,53.777789232611156L227.83167968749999,50.71112459506432L227.8735496875,52.795869278415026L227.9572896875,52.97799663628781L227.9991596875,54.16851125837333L228.04102968750001,52.02868870396456L228.0828996875,52.494876976425246L228.1247696875,54.583303564497L228.1666396875,51.1781732080473L228.2085096875,44.7758416015283L228.25037968750001,44.74348601280403L228.2922496875,45.498223125809346L228.3341196875,44.25071509894269L228.37598968749998,43.81572930333414L228.4178596875,45.20435637300071L228.45972968750002,45.275806449986334L228.5015996875,46.4324543764163L228.54346968750002,48.48486608163179L228.58533968749998,51.914922330611475L228.6272096875,50.26848724040747L228.6690796875,54.45575280208101L228.7109496875,52.01412037901575L228.7528196875,52.26430834111419L228.7946896875,52.17087750700276L228.8365596875,54.03884689915961L228.8784296875,53.09030506638652L228.9202996875,48.00378884546214L228.9621696875,46.05563853234452L229.0040396875,48.53007467911007L229.0459096875,49.983324354056194L229.0877796875,47.07359191865055L229.12964968749998,48.26286129821406L229.1715196875,47.618832311249804L229.2133896875,48.67772050869627L229.2552596875,49.16040560068376L229.29712968750002,51.07656504061539L229.33899968749998,49.756708536553845L229.3808696875,50.55123768289846L229.42273968749998,51.46859962889434L229.4646096875,52.5622539517192L229.50647968750002,54.117999985118686L229.5483496875,55.548514272321114L229.59021968750002,54.62600570223185L229.63208968749998,53.79069084629437L229.6739596875,52.73042176166494L229.7158296875,53.66755101406987L229.7576996875,54.67279591266288L229.7995696875,52.482544892825175L229.8414396875,49.25209040354264L229.8833096875,47.168995648902666L229.9251796875,46.1336960840124L229.9670496875,47.4017836184683L230.05078968750001,48.0221766851929L230.0926596875,46.27953044524503L230.1345296875,46.30414882929196L230.17639968749998,46.998905374934196L230.26013968750001,46.88078626601222L230.3020096875,49.71773621083955L230.34387968750002,49.81321973261274L230.38574968749998,47.56275490220861L230.4276196875,47.94959369770203L230.4694896875,50.173948613646104L230.5113596875,49.50569660942435L230.5532296875,50.50232694848192L230.5950996875,51.47515139649087L230.6788396875,53.95380768541321L230.7207096875,55.85588405972902L230.7625796875,56.606895653756126L230.8044496875,49.18126323123764L230.8463196875,48.41505119382816L230.8881896875,46.56231750301677L230.9300596875,49.6030571812865L230.9719296875,47.8590943203007L231.0137996875,49.344042031127785L231.0556696875,48.399723542300734L231.13940968749998,46.57886547378493L231.1812796875,46.78089321212073L231.22314968749998,42.335432462337224L231.2650196875,43.442232073246345L231.30688968750002,48.08455172306458L231.39062968750002,43.129439407900975L231.43249968749998,44.99126689568229L231.4743696875,45.620083063256914L231.5581096875,45.77133189978838L231.5999796875,44.40548442409528L231.6418496875,46.00822169597143L231.6837196875,48.14857095494571L231.7255896875,43.82931385945113L231.7674596875,41.524868187791725L231.8093296875,42.31320994044114L231.8511996875,45.5614032321113L231.8930696875,47.205320051757326L231.9349396875,46.44453090372443L231.97680968749998,45.1377920990663L232.0186796875,46.32341288915964L232.06054968750001,40.30541445738655L232.1024196875,40.49253015450506L232.14428968750002,38.5065914247688L232.18615968749998,42.089932282291926L232.2280296875,45.532396196919905L232.2698996875,45.26255657722791L232.3117696875,35.77018663379084L232.35363968750002,35.94051082755459L232.3955096875,33.32248831622769L232.4373796875,31.09269662746206L232.4792496875,35.19491267900156L232.5211196875,36.267307125387106L232.5629896875,38.74454784141983L232.6048596875,39.63897877156356L232.6467296875,40.42879518012151L232.6885996875,41.59982994782362L232.7304696875,40.82813266732697L232.7723396875,42.11600511487998L232.8142096875,37.77797603196342L232.8560796875,38.31897842876705L232.89794968750002,36.555452014461764L232.93981968749998,39.0139925273013L232.9816896875,39.44656470314263L233.02355968749998,42.885336804256895L233.0654296875,46.09654598097407L233.10729968750002,44.647605668590955L233.1491696875,46.23624510173187L233.19103968750002,46.7001063058444L233.23290968749998,46.930467103831376L233.2747796875,49.56522039344823L233.3166496875,49.35735549696055L233.3585196875,48.603877090121614L233.4422596875,45.017889381109455L233.4841296875,46.05367187156995L233.5678696875,46.29304754155581L233.6097396875,47.81828564454307L233.6516096875,46.33877136580304L233.6934796875,42.75172280065132L233.7353496875,42.405950520586174L233.77721968749998,43.227555468527584L233.8190896875,44.877285635960504L233.9028296875,45.79564278665018L233.94469968750002,46.328849936556566L233.98656968749998,45.85293637147237L234.0284396875,47.042899877182265L234.07030968749999,49.545038460892584L234.1121796875,49.192534614803336L234.15404968750002,46.23039543903727L234.1959196875,47.94395589513354L234.2796596875,45.11173173419161L234.3215296875,43.366815703629584L234.3633996875,42.575191276123775L234.4052696875,44.23452929136852L234.4471396875,43.882076362231686L234.4890096875,44.38412586886565L234.5308796875,44.208884710550535L234.5727496875,44.77939623949547L234.6146196875,43.63917090126023L234.6564896875,45.42473952541991L234.69835968750002,42.94052271573506L234.74022968749998,45.03869901559011L234.7820996875,45.69311482831682L234.82396968749998,43.20228905977086L234.8658396875,43.88863158236518L234.90770968750002,44.44565413841437L234.9495796875,42.691488724572906L234.99144968750002,42.65516842354421L235.03331968749998,42.56685158118978L235.0751896875,43.2054807087851L235.1170596875,42.36930406647801L235.1589296875,44.82297365983021L235.2007996875,44.29030486527574L235.2426696875,44.03341723589105L235.2845396875,45.769446940873365L235.3264096875,46.290102246786006L235.3682796875,43.314777736393154L235.4101496875,42.28561424846811L235.4520196875,39.36685282362129L235.4938896875,41.45322468411629L235.5357596875,42.09195935856184" style="fill: none;" fill="none"></path></g></g></g></g><g opacity="0.2"><g><g><g><path stroke="rgb(255, 112, 67)" stroke-width="2px" d="M27.505973124999997,149.43857142857144L28.020189062500002,147.618L28.3132790625,149.388L28.39309375,149.13514285714285L28.50823625,149.388L28.5749665625,147.87085714285715L28.707118750000003,149.388L28.7764659375,149.5397142857143L28.851046875,149.33742857142857L28.9217025,149.43857142857144L28.9517965625,147.7697142857143L28.9779653125,147.82028571428572L29.07348125,147.66857142857143L29.111425937499998,147.7697142857143L29.1323609375,149.43857142857144L29.16768875,147.71914285714286L29.18862375,149.33742857142857L29.1951659375,147.7697142857143L29.2344190625,147.56742857142856L29.2422696875,147.56742857142856L29.363954375000002,147.41571428571427L29.536668125,147.51685714285713L29.5589115625,149.33742857142857L29.581155,147.56742857142856L29.64396,147.4662857142857L29.646576875,147.618L29.6753625,147.4662857142857L30.2837859375,147.4662857142857L31.165672812500002,147.4662857142857L31.1892246875,147.618L31.201000625,147.264L31.7060575,147.71914285714286L32.5002790625,147.56742857142856L32.77897625,149.2362857142857L32.8116871875,147.618L32.8352390625,147.71914285714286L33.0458975,149.28685714285714L33.1021603125,147.7697142857143L33.25001375,147.56742857142856L33.417493750000006,147.66857142857143L33.493383125,147.264L33.5313278125,147.71914285714286L33.56403875,147.51685714285713L33.654320937499996,147.87085714285715L33.684415,149.13514285714285L33.688340312499996,147.71914285714286L33.776005624999996,147.66857142857143L33.8898396875,147.31457142857144L33.922550625,147.71914285714286L33.96180375,147.4662857142857L34.020683437500004,147.82028571428572L34.116199375,147.41571428571427L34.1410596875,147.66857142857143L34.3530265625,147.4662857142857L34.466860624999995,147.71914285714286L34.4786365625,147.56742857142856L34.516581249999994,147.71914285714286L34.5519090625,147.7697142857143L34.727239687499996,147.71914285714286L34.9261221875,147.71914285714286L35.210053125,147.618L35.963713125,149.28685714285714L36.073621875,145.6457142857143L36.701671875,147.87085714285715L36.727840625,147.7697142857143L36.8887784375,147.56742857142856L36.950275,147.56742857142856L36.999995625,147.618L37.0274728125,149.2362857142857L37.1282225,147.82028571428572L37.22243,147.4662857142857L37.295702500000004,147.66857142857143L37.444864375,147.71914285714286L37.491968125,149.28685714285714L37.8099184375,149.2362857142857L37.8465546875,149.33742857142857L37.8674896875,149.13514285714285L38.0402034375,147.31457142857144L38.074222812500004,147.31457142857144L38.176280937499996,149.18571428571428L38.294040312499995,147.618L38.3908646875,147.82028571428572L38.401332187499996,147.31457142857144L38.66956187500001,147.82028571428572L38.744142812499994,149.33742857142857L38.758535625,147.7697142857143L38.902463749999995,147.82028571428572L38.9351746875,147.56742857142856L39.0241484375,149.2362857142857L39.0712521875,147.36514285714287L39.0738690625,147.51685714285713L39.3015371875,147.66857142857143L39.5972440625,147.51685714285713L39.9871584375,147.7697142857143L40.290715937499996,149.33742857142857L40.306417187499996,147.264L40.37838125,147.51685714285713L40.565487812499995,149.2362857142857L40.600815625,147.71914285714286L40.607357812500005,147.82028571428572L40.668854374999995,147.66857142857143L40.70287375,147.71914285714286L40.746052187500005,147.71914285714286L40.77614625,149.388L40.9266165625,147.4662857142857L41.307371874999994,147.56742857142856L41.4918615625,149.28685714285714L41.584760625,147.87085714285715L41.66980906249999,147.7697142857143L41.7980359375,147.56742857142856L41.862149375,149.43857142857144L41.880467499999995,147.51685714285713L42.0440221875,147.82028571428572L42.110752500000004,147.82028571428572L42.170940625,149.33742857142857L42.2455215625,147.618L42.443095625,149.28685714285714L42.605341875,149.13514285714285L42.6694553125,147.51685714285713L42.685156562500005,147.618L42.950769375,149.388L42.959928437500004,149.43857142857144L43.033200937500006,149.2362857142857L43.267411249999995,149.43857142857144L43.3943296875,147.51685714285713L43.8130296875,147.36514285714287L43.845740625,147.4662857142857L43.979201249999996,147.87085714285715L44.14668125,149.43857142857144L44.149298125,147.71914285714286L44.218645312499994,149.28685714285714L44.225187500000004,145.59514285714286L44.297151562500005,147.41571428571427L44.32070343749999,149.2362857142857L44.4136025,147.82028571428572L44.5431378125,149.5397142857143L44.59678375,149.2362857142857L44.866321875,147.56742857142856L44.882023124999996,149.33742857142857L44.9513703125,147.56742857142856L45.2680121875,149.28685714285714L45.42895,149.33742857142857L45.562410625,147.7697142857143L45.776994375,147.66857142857143L45.81101375,147.618L45.8751271875,149.48914285714287L45.910455000000006,147.56742857142856L45.9457828125,147.71914285714286L46.05176625,149.388L46.070084375,147.71914285714286L46.113262812500004,147.7697142857143L46.1891521875,147.7697142857143L46.253265625,149.28685714285714L46.3121453125,143.87571428571428L46.582991875,145.59514285714286L46.62747875,149.43857142857144L46.6471053125,147.66857142857143L47.14038625,147.7697142857143L47.148236875,149.2362857142857L47.167863437499996,149.43857142857144L47.258145625,149.388L47.33926875,147.87085714285715L47.582638124999995,147.66857142857143L47.6205828125,147.66857142857143L47.7671278125,147.71914285714286L47.77890375,149.388L47.9581596875,147.82028571428572L48.0785359375,147.66857142857143L48.1125553125,147.51685714285713L48.1308734375,147.56742857142856L48.1910615625,147.618L48.30227875,147.66857142857143L48.422655000000006,147.56742857142856L48.44882375,149.388L48.482843124999995,149.33742857142857L48.554807187499996,149.388L48.592751875,149.33742857142857L48.7877090625,147.71914285714286L48.828270625,149.33742857142857L49.0402375,147.82028571428572L49.0677146875,147.87085714285715L49.08472437499999,147.82028571428572L49.12921125,147.51685714285713L49.2077175,149.388L49.2378115625,147.7697142857143L49.889413437500004,147.71914285714286L49.974461875,149.28685714285714L50.03595843750001,147.66857142857143L50.110539374999995,147.71914285714286L50.1275490625,149.28685714285714L50.264935,147.36514285714287L50.5881190625,147.66857142857143L50.6169046875,149.33742857142857L50.639148125,149.33742857142857L50.769991874999995,149.388L50.8785921875,147.66857142857143L50.8942934375,149.2362857142857L51.047380624999995,149.388L51.0565396875,147.7697142857143L51.135045937499996,147.618L51.138971250000004,149.33742857142857L51.1546725,147.7697142857143L51.34832125,149.33742857142857L51.3810321875,147.87085714285715L51.4804734375,149.388L51.6034665625,147.71914285714286L51.6819728125,149.33742857142857L51.79842375,147.56742857142856L51.9174915625,147.66857142857143L52.00777375,147.71914285714286L52.0823546875,149.388L52.1687115625,147.66857142857143L52.599187500000006,149.388L52.69862875,147.56742857142856L52.868725624999996,149.33742857142857L52.9877934375,149.33742857142857L52.9982609375,149.33742857142857L53.0087284375,149.28685714285714L53.119945625,149.43857142857144L53.26387375,147.87085714285715L53.454905625,147.51685714285713L53.659021875,149.43857142857144L53.7466871875,149.2362857142857L53.779398125,147.4662857142857L53.7911740625,147.66857142857143L53.810800625,147.87085714285715L53.870988749999995,147.66857142857143L53.88145625,147.51685714285713L54.030618125,147.71914285714286L54.1182834375,147.36514285714287L54.203331875,149.43857142857144L54.20594875,147.82028571428572L54.262211562500006,149.2362857142857L54.3511853125,147.4662857142857L54.391746875,149.33742857142857L54.4205325,147.618L54.5788534375,147.82028571428572L54.888953125,147.82028571428572L54.9897028125,149.28685714285714L55.004095625,149.28685714285714L55.083910312499995,147.7697142857143L55.12708875,147.71914285714286L55.129705625,147.66857142857143L55.259240937499996,149.33742857142857L55.2880265625,147.7697142857143L55.4659740625,147.82028571428572L55.6884084375,147.71914285714286L55.721119375,147.7697142857143L56.1018746875,147.66857142857143L56.1411278125,149.388L56.2091665625,147.82028571428572L56.228793125,147.618L56.362253749999994,147.618L56.661885937499996,147.87085714285715L56.668428125,147.56742857142856L56.7089896875,147.7697142857143L56.7665609375,149.18571428571428L56.7927296875,147.66857142857143L56.872544375,147.7697142857143L56.877778125,147.7697142857143L57.12638125,149.48914285714287L57.1433909375,147.82028571428572L57.1460078125,147.4662857142857L57.27292625,147.71914285714286L57.354049375,149.33742857142857L57.3710590625,147.82028571428572L57.4338640625,147.618L57.4469484375,147.51685714285713L57.512370312499996,147.4662857142857L57.602652500000005,149.33742857142857L57.673308125,147.82028571428572L57.715178125,147.66857142857143L57.755739687500004,147.21342857142858L57.798918125,149.2362857142857L57.9166775,149.43857142857144L57.9677065625,147.82028571428572L58.097241875,147.66857142857143L58.59183125,147.66857142857143L58.8914634375,147.66857142857143L58.9202490625,147.56742857142856L59.01053125,147.56742857142856L59.0720278125,149.33742857142857L59.137449687499995,147.618L59.185861875,147.7697142857143L59.3755853125,147.71914285714286L59.3860528125,147.618L59.683068125,147.7697142857143L59.819145625,147.31457142857144L59.902885625,147.4662857142857L59.9094278125,149.33742857142857L59.93167125,147.71914285714286L60.00494375,147.66857142857143L60.1711153125,147.82028571428572L60.3647640625,147.7697142857143L60.451120937499994,145.74685714285715L60.583273125,147.51685714285713L60.6055165625,147.51685714285713L60.6918734375,147.87085714285715L60.771688125,147.71914285714286L60.774305,147.66857142857143L60.927392187500004,147.87085714285715L60.941785,145.59514285714286L60.949635625,147.66857142857143L61.149826562499996,147.82028571428572L61.255810000000004,147.16285714285715L61.30291375,147.618L61.4272153125,147.71914285714286L61.510955312499995,147.31457142857144L61.7595584375,149.13514285714285L61.9846096875,147.618L61.9924603125,147.4662857142857L62.1311546875,149.2362857142857L62.4582640625,145.59514285714286L62.5812571875,145.54457142857143L62.586490937499995,147.4662857142857L62.6597634375,147.66857142857143L62.70555875,147.36514285714287L62.765746875000005,147.51685714285713L62.839019375,147.618L62.918834062500004,147.51685714285713L63.0182753125,147.66857142857143L63.0444440625,149.33742857142857L63.579595000000005,145.39285714285714L63.60053,145.494L63.870068125,145.494L63.89362,147.82028571428572L63.948574375,147.36514285714287L64.0257721875,147.4662857142857L64.0571746875,147.56742857142856L64.0938109375,147.31457142857144L64.1435315625,147.71914285714286L64.215495625,147.36514285714287L64.2599825,147.71914285714286L64.29400187499999,147.41571428571427L64.330638125,147.36514285714287L64.4156865625,147.31457142857144L64.534754375,147.41571428571427L64.676065625,147.36514285714287L64.95607125,147.36514285714287L65.07121375,147.31457142857144L65.1693465625,147.56742857142856L65.408790625,147.56742857142856L65.51084875000001,147.36514285714287L65.56318625,145.54457142857143L65.5788875,145.59514285714286L65.6835625,147.71914285714286L65.728049375,147.264L65.7476759375,147.4662857142857L65.7816953125,147.51685714285713L65.79085437500001,147.7697142857143L65.87982812499999,145.59514285714286L65.9387078125,147.36514285714287L66.30114499999999,147.36514285714287L66.42282968750001,147.264L66.8572309375,147.31457142857144L67.0142434375,147.41571428571427L67.0901328125,147.36514285714287L67.3256515625,147.41571428571427L67.402849375,147.31457142857144L67.5035990625,145.59514285714286L67.706406875,147.264L67.7770625,147.41571428571427L67.90790625,145.79742857142855L67.99295468749999,145.59514285714286L68.0295909375,145.494L68.0348246875,147.41571428571427L68.135574375,145.69628571428572L68.1473503125,143.77457142857142L68.18529500000001,145.39285714285714L68.4430571875,145.74685714285715L68.50455375,147.51685714285713L68.9350296875,145.54457142857143L68.94811406250001,147.4662857142857L69.00699374999999,145.74685714285715L69.25428843750001,147.0617142857143L69.26083062500001,147.16285714285715L69.3484959375,145.74685714285715L69.38774906249999,143.82514285714285L69.433544375,145.494L69.4374696875,147.11228571428572L69.52906031250001,145.44342857142857L69.94252656249999,145.6457142857143L69.96477,145.59514285714286L70.2055225,145.69628571428572L70.2264575,145.44342857142857L70.2670190625,147.264L70.323281875,145.59514285714286L71.29675937500001,145.59514285714286L71.3870415625,145.59514285714286L71.4289115625,143.87571428571428L71.5833071875,145.494L71.6382615625,145.89857142857142L71.79134875,145.29171428571428L71.940510625,145.54457142857143L71.95359499999999,145.59514285714286L72.0268675,145.3422857142857L72.2793959375,143.9262857142857L72.49659656249999,145.59514285714286L72.50313874999999,145.29171428571428L72.7059465625,145.29171428571428L72.866884375,145.14L72.992494375,145.39285714285714L73.05529937499999,145.69628571428572L73.0696921875,145.29171428571428L73.13118874999999,145.54457142857143L73.16259125,147.0617142857143L73.3104446875,145.494L73.311753125,145.6457142857143L73.3418471875,145.39285714285714L73.390259375,145.39285714285714L73.76970625,145.24114285714285L73.772323125,145.59514285714286L73.8730728125,147.264L74.290464375,145.39285714285714L74.6398171875,145.29171428571428L74.923748125,145.494L75.096461875,143.6734285714286L75.14094875,145.44342857142857L75.2678671875,145.19057142857142L75.5923596875,145.494L75.64993093749999,145.494L75.82526156249999,145.494L75.86844,145.54457142857143L75.8906834375,145.54457142857143L75.97704031250001,145.54457142857143L76.2413446875,145.494L76.36302937500001,143.724L76.517425,145.69628571428572L76.66135312499999,145.44342857142857L76.66527843749999,145.44342857142857L76.80528125,145.19057142857142L76.8589271875,145.6457142857143L77.2396825,145.494L77.273701875,145.3422857142857L77.326039375,145.3422857142857L77.4660421875,145.494L77.4712759375,143.42057142857144L77.54062312500001,145.3422857142857L77.582493125,145.59514285714286L77.629596875,145.39285714285714L77.7538984375,147.264L77.7643659375,145.494L77.77745031250001,145.44342857142857L77.90960249999999,143.724L78.053530625,145.24114285714285L78.50494156250001,145.494L78.744385625,143.77457142857142L78.8608365625,145.14L79.11859875,145.494L79.4234646875,143.82514285714285L79.573935,145.494L79.6903859375,145.24114285714285L79.83823937499999,143.724L79.874875625,145.44342857142857L80.042355625,143.724L80.3603059375,145.03885714285715L80.39955906249999,145.29171428571428L80.5644221875,145.14L80.6036753125,145.29171428571428L80.8548953125,145.29171428571428L80.89153156249999,143.724L81.17022875,143.9262857142857L81.188546875,143.9262857142857L81.2971471875,145.29171428571428L81.4044390625,143.724L81.4149065625,143.724L81.4201403125,145.44342857142857L81.4803284375,145.19057142857142L81.6373409375,143.77457142857142L81.7472496875,145.29171428571428L81.816596875,145.3422857142857L81.94482375,145.03885714285715L82.00893718750001,143.5217142857143L82.03903125,143.97685714285714L82.444646875,145.29171428571428L82.5166109375,145.39285714285714L82.630445,145.24114285714285L82.83586968750001,145.29171428571428L83.025593125,143.6734285714286L83.0949403125,143.97685714285714L83.768785625,144.98828571428572L83.983369375,145.29171428571428L84.025239375,145.29171428571428L84.07496,145.3422857142857L84.276459375,145.19057142857142L84.3353390625,145.24114285714285L84.4975853125,145.29171428571428L84.5446890625,137.25085714285714L84.6101109375,145.29171428571428L84.7880584375,145.29171428571428L84.87441531249999,143.47114285714287L84.87572375,143.724L84.91235999999999,145.3422857142857L84.925444375,145.3422857142857L85.0863821875,145.39285714285714L85.09554125000001,143.42057142857144L85.57442937500001,143.82514285714285L85.652935625,145.29171428571428L85.66340312499999,143.6734285714286L85.68041281250001,145.14L85.6974225,143.62285714285713L85.7641528125,145.19057142857142L85.8635940625,143.77457142857142L85.904155625,143.6734285714286L86.5256634375,143.37L86.7637990625,143.57228571428573L86.7690328125,143.26885714285714L86.9129609375,143.77457142857142L87.312034375,141.3977142857143L87.40624187499999,143.57228571428573L87.8131659375,143.26885714285714L88.115415,143.37L88.1742946875,143.37L88.17822,143.5217142857143L88.2528009375,143.26885714285714L88.26457687499999,143.47114285714287L88.3142975,143.42057142857144L88.46607625,143.62285714285713L88.5406571875,142.96542857142856L88.683276875,141.49885714285713L88.76963375000001,143.31942857142857L89.00646093750001,143.2182857142857L89.1373046875,143.5217142857143L89.23020375,144.48257142857142L89.552079375,143.16771428571428L89.583481875,143.2182857142857L89.8412440625,141.6L89.90666593750001,143.42057142857144L89.9485359375,139.122L90.007415625,142.91485714285716L90.24947656249999,137.25085714285714L90.47060250000001,143.2182857142857L90.698270625,135.0257142857143L90.7519165625,137.5037142857143L90.8775265625,141.75171428571429L90.9874353125,143.016L91.04108124999999,135.17742857142858L91.954370625,142.76314285714287L92.0394190625,141.80228571428572L92.090448125,135.07628571428572L92.302415,139.82999999999998L92.394005625,137.5037142857143L92.4110153125,133.71085714285715L92.5052228125,141.80228571428572L92.7093390625,142.40914285714285L92.73027406249999,139.67828571428572L93.49047625,142.20685714285713L93.64225499999999,133.15457142857144L94.037403125,138.26228571428572L94.4783465625,136.44171428571428L94.58040468749999,139.17257142857142L94.65236875000001,133.40742857142857L94.89312125,134.41885714285715L95.021348125,135.53142857142856L95.0592928125,133.71085714285715L95.560424375,134.92457142857143L95.59706062500001,134.62114285714284L95.6624825,133.25571428571428L95.77239125000001,132.85114285714286L95.86529031250001,134.62114285714284L96.17800687500001,132.5982857142857L96.3651134375,135.07628571428572L96.560070625,137.5037142857143L96.858394375,135.37971428571427L97.11223125,132.95228571428572L97.1370915625,124.65857142857143L97.40662968749999,135.0257142857143L97.52046375,133.50857142857143L97.94701437500001,133.55914285714286L98.00327718749999,134.41885714285715L98.43637,135.73371428571429L98.46384718750001,132.95228571428572L98.69936593749999,131.53628571428573L99.18741312499999,133.91314285714287L99.731723125,133.76142857142858L100.28257531249999,134.97514285714286L100.54164593750001,132.44657142857142L100.56650624999999,126.732L100.77978156249999,134.7222857142857L101.1749296875,134.52L101.2822215625,135.12685714285715L101.359419375,127.794L102.3826175,131.43514285714286L102.4035525,129.76628571428571L102.4519646875,130.626L102.78430781249999,127.64228571428572L103.128426875,133.15457142857144L103.5222665625,123.64714285714285L103.9619015625,126.47914285714286L104.0377909375,116.92114285714285L104.1738684375,133.00285714285712L104.45779937500001,125.16428571428571L105.14080375,127.74342857142857L105.36454656250001,123.04028571428572L105.933716875,122.53457142857143L105.9625025,117.07285714285715L105.9847459375,117.27514285714287L106.2464334375,122.13L106.614104375,115.20171428571429L106.7096203125,123.44485714285715L106.933363125,124.20342857142857L107.2984171875,124.70914285714287L107.6229096875,126.024L107.6569290625,124.75971428571428L108.4681603125,128.55257142857144L108.8580746875,126.93428571428572L109.016395625,126.93428571428572L109.18125875,119.4497142857143L109.4390209375,121.82657142857143L109.4573390625,132.9017142857143L109.8001496875,124.91142857142857L110.96073375,127.13657142857143L111.1242884375,121.57371428571429L111.730095,113.988L111.91720156250001,121.01742857142858L112.1173925,125.01257142857142L112.28879781250001,114.13971428571429L112.3725378125,126.17571428571429L112.4719790625,119.298L112.9403996875,112.36971428571428L113.18900281250001,123.44485714285715L113.8615396875,111.05485714285714L114.0224775,119.04514285714286L114.70940718749999,123.54599999999999L114.98417906249999,124.20342857142857L115.01689,122.33228571428572L115.778400625,121.11857142857143L116.7034659375,110.24571428571429L116.73356,112.42028571428571L117.2817953125,116.466L117.6036709375,104.83457142857144L118.1218121875,121.16914285714284L118.85322875,112.31914285714285L119.46688593750001,117.73028571428571L119.643525,111.864L119.71156375,118.08428571428571L120.28596781249999,116.466L120.88392375000001,108.678L121.6258078125,112.87542857142857L122.2486240625,103.57028571428572L122.323205,120.86571428571429L122.624145625,112.62257142857143L122.9106934375,97.14771428571429L123.53874343749999,119.75314285714285L123.788655,92.44457142857144L124.2793190625,106.14942857142857L124.293711875,109.58828571428572L124.3028709375,118.64057142857143L124.4991365625,111.40885714285714L125.19260843750001,106.09885714285714L125.34307875,118.64057142857143L125.54981187499999,106.75628571428571L125.769629375,119.95542857142857L126.5272146875,113.43171428571429L126.56385093749999,116.36485714285715L126.94460624999999,106.7057142857143L127.44312093750001,114.24085714285714L127.9874309375,123.59657142857142L128.14836875,90.01714285714286L128.831373125,108.52628571428572L129.1074534375,111.05485714285714L130.7822534375,113.58342857142858L131.1145965625,110.448L131.275534375,107.00914285714286L132.6716371875,95.07428571428571L132.8914546875,112.01571428571428L135.0922465625,100.38428571428571L135.093555,113.634L135.45337531250001,117.83142857142857L136.07488312499999,95.934L136.2515221875,104.17714285714285L136.34180437499998,110.34685714285715L136.373206875,122.73685714285715L136.5786315625,102.05314285714286L136.802374375,110.29628571428572L137.3872459375,104.22771428571428L137.561268125,109.99285714285715L139.2059740625,99.06942857142857L139.44541812499997,93.20314285714286L139.5147653125,109.13314285714286L139.560560625,110.49857142857142L139.6377584375,94.46742857142857L140.2645,100.68771428571428L140.32207125000002,100.536L140.7774075,98.61428571428571L141.2157340625,107.41371428571429L141.7966803125,113.93742857142857L142.4953859375,102.91285714285713L143.454470625,100.89L143.4583959375,94.92257142857143L144.22644875,91.07914285714286L144.5038375,110.448L144.5875775,94.97314285714286L146.13676750000002,110.094L147.26202375,82.58314285714285L148.68037,103.62085714285713L148.792895625,105.18857142857144L150.10918375,102.96342857142858L150.12488499999998,97.80514285714285L150.1981575,103.62085714285713L150.39965687499998,98.41199999999999L150.42451718750002,60.63514285714285L151.25406656250001,94.66971428571429L151.912210625,92.89971428571428L152.24455375,99.828L152.2981996875,104.02542857142856L153.053168125,99.92914285714285L153.21803125,96.54085714285715L154.021411875,102.55885714285714L154.9988146875,97.45114285714286L155.3337746875,50.672571428571416L156.5139853125,98.766L157.517556875,91.58485714285713L157.774010625,85.76914285714285L157.83943250000002,83.99914285714286L157.9441075,57.09514285714286L159.4134828125,104.02542857142856L160.05723406250002,98.10857142857142L160.91164375,77.47542857142858L161.2060421875,70.14257142857142L161.6770796875,80.35799999999999L162.316905625,80.10514285714287L163.2079515625,96.43971428571429L163.4879571875,59.82599999999999L164.703495625,93.102L165.4663146875,97.65342857142858L167.377941875,78.73971428571429L167.82281062500002,101.90142857142858L168.4809546875,90.624L169.063209375,83.84742857142858L169.4204128125,50.21742857142857L169.445273125,89.81485714285715L169.48060093750001,78.18342857142858L169.738363125,89.208L169.9359371875,85.5162857142857L172.219160625,80.30742857142857L172.9335675,64.428L173.08534625000001,73.32857142857142L174.1360215625,83.544L175.8971784375,66.0462857142857L175.9573665625,85.314L176.840561875,62.00057142857143L176.8758896875,87.99428571428571L177.5327253125,74.59285714285713L178.18301874999997,91.43314285714285L179.2768725,63.77057142857143L179.661553125,80.35799999999999L180.1417496875,17.244857142857143L180.676900625,86.17371428571428L180.7593321875,90.1182857142857L181.236911875,91.98942857142858L183.037321875,70.95171428571429L183.06218218749999,71.50800000000001L183.3500384375,94.77085714285714L183.3605059375,51.63342857142857L184.05397781250002,76.86857142857143L186.7650603125,76.05942857142857L187.2740425,45.10971428571429L188.218734375,82.22914285714285L188.522291875,32.31514285714286L189.37801,76.00885714285714L189.7273628125,93.70885714285714L191.07897875,61.95L191.63898999999998,56.33657142857143L191.704411875,74.99742857142857L192.4593803125,64.68085714285715L192.499941875,70.74942857142857L193.60557156250002,66.65314285714285L195.5080396875,46.8797142857143L196.35721562499998,71.30571428571427L198.02547343749998,84.65657142857144L198.13014843750003,81.57171428571428L199.3914821875,62.91085714285714L200.25766781250002,74.34L200.368885,89.25857142857143L201.1761909375,62.101714285714294L201.2311453125,42.024857142857144L201.8539615625,52.94828571428572L202.4741609375,67.614L203.0943603125,61.49485714285714L203.21735343749998,84.252L204.103165625,80.05457142857144L204.3583109375,43.794857142857154L204.678878125,69.63685714285715L206.05142906249998,60.078857142857146L207.7707159375,53.70685714285713L209.19952968750002,3.0342857142857156L209.30813,54.66771428571428L209.48738593750002,52.49314285714286L209.7176709375,83.94857142857143L211.69079468750002,20.38028571428572L212.38295812500002,55.72971428571428L213.256994375,54.26314285714287L213.738499375,48.75085714285714L215.1817059375,59.82599999999999L215.3177834375,56.53885714285714L215.58993843750002,63.06257142857143L216.13555687500002,86.8817142857143L216.33836468750002,72.41828571428572L217.4897896875,52.189714285714274L218.57710125,76.11000000000001L219.8397434375,49.66114285714286L220.73471468749997,80.05457142857144L223.0401815625,46.424571428571426L223.1186878125,65.89457142857144L223.75458843750002,67.26L224.2884309375,43.794857142857154L224.3957228125,66.0462857142857L225.8009846875,51.58285714285715L225.9318284375,50.52085714285715L226.22884375,50.166857142857154L226.4447359375,55.224000000000004L226.85166,54.971142857142866L227.2036296875,60.432857142857145L227.2454996875,53.504571428571424L227.32923968749998,50.77371428571428L227.3711096875,38.687142857142845L227.4129796875,62.304L227.4548496875,52.49314285714286L227.49671968750002,65.74285714285715L227.53858968749998,52.13914285714286L227.5804596875,62.15228571428571L227.62232968749998,45.36257142857144L227.7060696875,40.65942857142858L227.7479396875,59.32028571428572L227.78980968750002,47.38542857142858L227.83167968749999,23.111142857142852L227.8735496875,71.55857142857143L227.9572896875,54.617142857142866L227.9991596875,64.88314285714286L228.04102968750001,32.770285714285706L228.0828996875,56.69057142857143L228.1247696875,73.37914285714287L228.1666396875,20.53200000000001L228.2085096875,-12.845142857142832L228.25037968750001,44.45228571428572L228.2922496875,52.290857142857135L228.3341196875,33.02314285714286L228.37598968749998,39.90085714285715L228.4178596875,57.702L228.45972968750002,45.91885714285715L228.5015996875,56.84228571428572L228.54346968750002,66.95657142857144L228.58533968749998,82.78542857142858L228.6272096875,35.450571428571436L228.6690796875,92.14114285714285L228.7109496875,30.039428571428573L228.7528196875,54.516000000000005L228.7946896875,51.33000000000001L228.8365596875,70.85057142857143L228.8784296875,44.553428571428555L228.9202996875,2.225142857142856L228.9621696875,28.522285714285715L229.0040396875,70.8L229.0459096875,63.06257142857143L229.0877796875,20.885999999999996L229.12964968749998,58.96628571428572L229.1715196875,41.82257142857142L229.2133896875,58.20771428571429L229.2552596875,53.504571428571424L229.29712968750002,68.322L229.33899968749998,37.877999999999986L229.3808696875,57.702L229.42273968749998,59.72485714285715L229.4646096875,62.40514285714285L229.50647968750002,68.1197142857143L229.5483496875,68.42314285714285L229.59021968750002,46.323428571428565L229.63208968749998,46.272857142857134L229.6739596875,43.18799999999999L229.7158296875,62.101714285714294L229.7576996875,63.72L229.7995696875,32.770285714285706L229.8414396875,20.177999999999997L229.8833096875,28.421142857142854L229.9251796875,36.816L229.9670496875,58.814571428571426L230.05078968750001,53.605714285714285L230.0926596875,30.59571428571428L230.1345296875,46.52571428571429L230.17639968749998,53.251714285714286L230.26013968750001,45.81771428571429L230.3020096875,75.25028571428571L230.34387968750002,50.672571428571416L230.38574968749998,27.308571428571412L230.4276196875,51.43114285714286L230.4694896875,70.19314285714286L230.5113596875,43.49142857142857L230.5532296875,59.471999999999994L230.5950996875,60.23057142857144L230.6788396875,76.26171428571428L230.7207096875,72.97457142857142L230.7625796875,63.366L230.8044496875,-17.649428571428558L230.8463196875,41.51914285714284L230.8881896875,29.88771428571428L230.9300596875,76.96971428571428L230.9719296875,32.16342857142857L231.0137996875,62.70857142857143L231.0556696875,39.90085714285715L231.13940968749998,30.191142857142864L231.1812796875,48.59914285714285L231.22314968749998,2.326285714285717L231.2650196875,53.40342857142858L231.30688968750002,89.86542857142858L231.39062968750002,-1.4665714285714273L231.43249968749998,61.74771428571428L231.4743696875,51.27942857142857L231.5581096875,47.132571428571424L231.5999796875,32.11285714285714L231.6418496875,60.432857142857145L231.6837196875,67.4117142857143L231.7255896875,4.956000000000017L231.7674596875,20.784857142857135L231.8093296875,49.40828571428571L231.8511996875,74.79514285714286L231.8930696875,62.00057142857143L231.9349396875,39.597428571428566L231.97680968749998,33.37714285714287L232.0186796875,56.993999999999986L232.06054968750001,-13.856571428571442L232.1024196875,42.176571428571435L232.14428968750002,20.633142857142843L232.18615968749998,74.34L232.2280296875,76.51457142857143L232.2698996875,42.834L232.3117696875,-49.661142857142835L232.35363968750002,37.47342857142857L232.3955096875,9.760285714285715L232.4373796875,11.02457142857142L232.4792496875,72.11485714285715L232.5211196875,45.91885714285715L232.5629896875,61.03971428571428L232.6048596875,47.68885714285716L232.6467296875,47.53714285714287L232.6885996875,52.13914285714286L232.7304696875,33.88285714285715L232.7723396875,53.70685714285713L232.8142096875,-1.2642857142857054L232.8560796875,43.18799999999999L232.89794968750002,20.683714285714302L232.93981968749998,61.14085714285714L232.9816896875,43.33971428571428L233.02355968749998,73.83428571428571L233.0654296875,74.99742857142857L233.10729968750002,31.60714285714286L233.1491696875,60.53399999999999L233.19103968750002,50.87485714285715L233.23290968749998,49.00371428571428L233.2747796875,73.278L233.3166496875,47.48657142857141L233.3585196875,41.82257142857142L233.4422596875,12.744L233.4841296875,55.37571428571428L233.5678696875,48.44742857142856L233.6097396875,61.54542857142857L233.6516096875,33.02314285714286L233.6934796875,10.468285714285713L233.7353496875,39.29399999999998L233.77721968749998,50.622L233.8190896875,59.72485714285715L233.9028296875,54.06085714285713L233.94469968750002,51.127714285714276L233.98656968749998,41.5697142857143L234.0284396875,57.75257142857143L234.07030968749999,72.06428571428572L234.1121796875,46.02000000000001L234.15404968750002,19.57114285714286L234.1959196875,63.366L234.2796596875,19.62171428571429L234.3215296875,27.662571428571425L234.3633996875,35.450571428571436L234.4052696875,59.168571428571425L234.4471396875,40.71000000000001L234.4890096875,48.902571428571434L234.5308796875,42.63171428571428L234.5727496875,49.914L234.6146196875,33.37714285714287L234.6564896875,61.49485714285714L234.69835968750002,20.58257142857144L234.74022968749998,63.92228571428571L234.7820996875,51.58285714285715L234.82396968749998,20.784857142857135L234.8658396875,50.06571428571428L234.90770968750002,49.458857142857156L234.9495796875,26.903999999999996L234.99144968750002,42.3282857142857L235.03331968749998,41.77199999999999L235.0751896875,48.953142857142865L235.1170596875,34.84371428571427L235.1589296875,66.906L235.2007996875,39.49628571428573L235.2426696875,41.72142857142859L235.2845396875,61.39371428571428L235.3264096875,50.976L235.3682796875,16.536857142857144L235.4101496875,33.02314285714286L235.4520196875,13.097999999999985L235.4938896875,60.23057142857144L235.5357596875,47.84057142857142" style="fill: none;" fill="none"></path></g></g></g></g></g></g><g transform="translate(68, 177)" clip-path="url(#clip_1)"><clipPath id="clip_1"><rect width="261" height="23"></rect></clipPath><g><g><line x1="0" y1="0" x2="0" y2="5" style="visibility: inherit;" fill="rgb(0, 0, 0)" stroke="rgb(204, 204, 204)" stroke-width="1px"></line><line x1="26.168750000000003" y1="0" x2="26.168750000000003" y2="5" style="visibility: inherit;" fill="rgb(0, 0, 0)" stroke="rgb(204, 204, 204)" stroke-width="1px"></line><line x1="52.337500000000006" y1="0" x2="52.337500000000006" y2="5" style="visibility: inherit;" fill="rgb(0, 0, 0)" stroke="rgb(204, 204, 204)" stroke-width="1px"></line><line x1="78.50625" y1="0" x2="78.50625" y2="5" style="visibility: inherit;" fill="rgb(0, 0, 0)" stroke="rgb(204, 204, 204)" stroke-width="1px"></line><line x1="104.67500000000001" y1="0" x2="104.67500000000001" y2="5" style="visibility: inherit;" fill="rgb(0, 0, 0)" stroke="rgb(204, 204, 204)" stroke-width="1px"></line><line x1="130.84375" y1="0" x2="130.84375" y2="5" style="visibility: inherit;" fill="rgb(0, 0, 0)" stroke="rgb(204, 204, 204)" stroke-width="1px"></line><line x1="157.0125" y1="0" x2="157.0125" y2="5" style="visibility: inherit;" fill="rgb(0, 0, 0)" stroke="rgb(204, 204, 204)" stroke-width="1px"></line><line x1="183.18124999999998" y1="0" x2="183.18124999999998" y2="5" style="visibility: inherit;" fill="rgb(0, 0, 0)" stroke="rgb(204, 204, 204)" stroke-width="1px"></line><line x1="209.35000000000002" y1="0" x2="209.35000000000002" y2="5" style="visibility: inherit;" fill="rgb(0, 0, 0)" stroke="rgb(204, 204, 204)" stroke-width="1px"></line><line x1="235.51875" y1="0" x2="235.51875" y2="5" style="visibility: inherit;" fill="rgb(0, 0, 0)" stroke="rgb(204, 204, 204)" stroke-width="1px"></line><line x1="261.6875" y1="0" x2="261.6875" y2="5" style="visibility: inherit;" fill="rgb(0, 0, 0)" stroke="rgb(204, 204, 204)" stroke-width="1px"></line></g><g transform="translate(0, 8)"><text x="0" y="0" dx="0em" dy="0.95em" style="text-anchor: middle; visibility: hidden; font-family: &quot;Helvetica Neue&quot;, sans-serif; font-size: 12px; font-weight: 200;" fill="rgb(50, 49, 63)" stroke="none" stroke-width="1px">-20k</text><text x="26.168750000000003" y="0" dx="0em" dy="0.95em" style="text-anchor: middle; visibility: inherit; font-family: &quot;Helvetica Neue&quot;, sans-serif; font-size: 12px; font-weight: 200;" fill="rgb(50, 49, 63)" stroke="none" stroke-width="1px">0</text><text x="52.337500000000006" y="0" dx="0em" dy="0.95em" style="text-anchor: middle; visibility: hidden; font-family: &quot;Helvetica Neue&quot;, sans-serif; font-size: 12px; font-weight: 200;" fill="rgb(50, 49, 63)" stroke="none" stroke-width="1px">20k</text><text x="78.50625" y="0" dx="0em" dy="0.95em" style="text-anchor: middle; visibility: inherit; font-family: &quot;Helvetica Neue&quot;, sans-serif; font-size: 12px; font-weight: 200;" fill="rgb(50, 49, 63)" stroke="none" stroke-width="1px">40k</text><text x="104.67500000000001" y="0" dx="0em" dy="0.95em" style="text-anchor: middle; visibility: hidden; font-family: &quot;Helvetica Neue&quot;, sans-serif; font-size: 12px; font-weight: 200;" fill="rgb(50, 49, 63)" stroke="none" stroke-width="1px">60k</text><text x="130.84375" y="0" dx="0em" dy="0.95em" style="text-anchor: middle; visibility: inherit; font-family: &quot;Helvetica Neue&quot;, sans-serif; font-size: 12px; font-weight: 200;" fill="rgb(50, 49, 63)" stroke="none" stroke-width="1px">80k</text><text x="157.0125" y="0" dx="0em" dy="0.95em" style="text-anchor: middle; visibility: hidden; font-family: &quot;Helvetica Neue&quot;, sans-serif; font-size: 12px; font-weight: 200;" fill="rgb(50, 49, 63)" stroke="none" stroke-width="1px">100k</text><text x="183.18124999999998" y="0" dx="0em" dy="0.95em" style="text-anchor: middle; visibility: inherit; font-family: &quot;Helvetica Neue&quot;, sans-serif; font-size: 12px; font-weight: 200;" fill="rgb(50, 49, 63)" stroke="none" stroke-width="1px">120k</text><text x="209.35000000000002" y="0" dx="0em" dy="0.95em" style="text-anchor: middle; visibility: hidden; font-family: &quot;Helvetica Neue&quot;, sans-serif; font-size: 12px; font-weight: 200;" fill="rgb(50, 49, 63)" stroke="none" stroke-width="1px">140k</text><text x="235.51875" y="0" dx="0em" dy="0.95em" style="text-anchor: middle; visibility: inherit; font-family: &quot;Helvetica Neue&quot;, sans-serif; font-size: 12px; font-weight: 200;" fill="rgb(50, 49, 63)" stroke="none" stroke-width="1px">160k</text><text x="261.6875" y="0" dx="0em" dy="0.95em" style="text-anchor: middle; visibility: hidden; font-family: &quot;Helvetica Neue&quot;, sans-serif; font-size: 12px; font-weight: 200;" fill="rgb(50, 49, 63)" stroke="none" stroke-width="1px">180k</text></g><line x1="0" y1="0" x2="261.6875" y2="0" fill="rgb(0, 0, 0)" stroke="rgb(204, 204, 204)" stroke-width="1px"></line></g></g></g></g></svg>