<svg viewBox="0 0 330 200" xmlns="http://www.w3.org/2000/svg"><g><g><g><g><g><line x1="58.59375" y1="177" x2="53.59375" y2="177" style="visibility: inherit;" fill="rgb(0, 0, 0)" stroke="rgb(204, 204, 204)" stroke-width="1px"></line><line x1="58.59375" y1="157.33333333333334" x2="53.59375" y2="157.33333333333334" style="visibility: inherit;" fill="rgb(0, 0, 0)" stroke="rgb(204, 204, 204)" stroke-width="1px"></line><line x1="58.59375" y1="137.66666666666669" x2="53.59375" y2="137.66666666666669" style="visibility: inherit;" fill="rgb(0, 0, 0)" stroke="rgb(204, 204, 204)" stroke-width="1px"></line><line x1="58.59375" y1="118" x2="53.59375" y2="118" style="visibility: inherit;" fill="rgb(0, 0, 0)" stroke="rgb(204, 204, 204)" stroke-width="1px"></line><line x1="58.59375" y1="98.33333333333334" x2="53.59375" y2="98.33333333333334" style="visibility: inherit;" fill="rgb(0, 0, 0)" stroke="rgb(204, 204, 204)" stroke-width="1px"></line><line x1="58.59375" y1="78.66666666666666" x2="53.59375" y2="78.66666666666666" style="visibility: inherit;" fill="rgb(0, 0, 0)" stroke="rgb(204, 204, 204)" stroke-width="1px"></line><line x1="58.59375" y1="59" x2="53.59375" y2="59" style="visibility: inherit;" fill="rgb(0, 0, 0)" stroke="rgb(204, 204, 204)" stroke-width="1px"></line><line x1="58.59375" y1="39.33333333333334" x2="53.59375" y2="39.33333333333334" style="visibility: inherit;" fill="rgb(0, 0, 0)" stroke="rgb(204, 204, 204)" stroke-width="1px"></line><line x1="58.59375" y1="19.666666666666686" x2="53.59375" y2="19.666666666666686" style="visibility: inherit;" fill="rgb(0, 0, 0)" stroke="rgb(204, 204, 204)" stroke-width="1px"></line><line x1="58.59375" y1="0" x2="53.59375" y2="0" style="visibility: inherit;" fill="rgb(0, 0, 0)" stroke="rgb(204, 204, 204)" stroke-width="1px"></line></g><g transform="translate(48.59375, 0)"><text x="0" y="177" dx="0em" dy="0.3em" style="text-anchor: end; visibility: hidden; font-family: &quot;Helvetica Neue&quot;, sans-serif; font-size: 12px; font-weight: 200;" fill="rgb(50, 49, 63)" stroke="none" stroke-width="1px">-1e+4</text><text x="0" y="157.33333333333334" dx="0em" dy="0.3em" style="text-anchor: end; visibility: inherit; font-family: &quot;Helvetica Neue&quot;, sans-serif; font-size: 12px; font-weight: 200;" fill="rgb(50, 49, 63)" stroke="none" stroke-width="1px">0</text><text x="0" y="137.66666666666669" dx="0em" dy="0.3em" style="text-anchor: end; visibility: hidden; font-family: &quot;Helvetica Neue&quot;, sans-serif; font-size: 12px; font-weight: 200;" fill="rgb(50, 49, 63)" stroke="none" stroke-width="1px">1e+4</text><text x="0" y="118" dx="0em" dy="0.3em" style="text-anchor: end; visibility: inherit; font-family: &quot;Helvetica Neue&quot;, sans-serif; font-size: 12px; font-weight: 200;" fill="rgb(50, 49, 63)" stroke="none" stroke-width="1px">2e+4</text><text x="0" y="98.33333333333334" dx="0em" dy="0.3em" style="text-anchor: end; visibility: hidden; font-family: &quot;Helvetica Neue&quot;, sans-serif; font-size: 12px; font-weight: 200;" fill="rgb(50, 49, 63)" stroke="none" stroke-width="1px">3e+4</text><text x="0" y="78.66666666666666" dx="0em" dy="0.3em" style="text-anchor: end; visibility: inherit; font-family: &quot;Helvetica Neue&quot;, sans-serif; font-size: 12px; font-weight: 200;" fill="rgb(50, 49, 63)" stroke="none" stroke-width="1px">4e+4</text><text x="0" y="59" dx="0em" dy="0.3em" style="text-anchor: end; visibility: hidden; font-family: &quot;Helvetica Neue&quot;, sans-serif; font-size: 12px; font-weight: 200;" fill="rgb(50, 49, 63)" stroke="none" stroke-width="1px">5e+4</text><text x="0" y="39.33333333333334" dx="0em" dy="0.3em" style="text-anchor: end; visibility: inherit; font-family: &quot;Helvetica Neue&quot;, sans-serif; font-size: 12px; font-weight: 200;" fill="rgb(50, 49, 63)" stroke="none" stroke-width="1px">6e+4</text><text x="0" y="19.666666666666686" dx="0em" dy="0.3em" style="text-anchor: end; visibility: hidden; font-family: &quot;Helvetica Neue&quot;, sans-serif; font-size: 12px; font-weight: 200;" fill="rgb(50, 49, 63)" stroke="none" stroke-width="1px">7e+4</text><text x="0" y="0" dx="0em" dy="0.3em" style="text-anchor: end; visibility: hidden; font-family: &quot;Helvetica Neue&quot;, sans-serif; font-size: 12px; font-weight: 200;" fill="rgb(50, 49, 63)" stroke="none" stroke-width="1px">8e+4</text></g><line x1="58.59375" y1="0" x2="58.59375" y2="177" fill="rgb(0, 0, 0)" stroke="rgb(204, 204, 204)" stroke-width="1px"></line></g></g><g transform="translate(58, 0)" clip-path="url(#clip_0)"><clipPath id="clip_0"><rect width="271" height="177"></rect></clipPath><g><g><g><line x1="0" y1="0" x2="0" y2="177" fill="rgb(0, 0, 0)" stroke="rgb(60, 60, 60)" stroke-width="1px" opacity="0.25"></line><line x1="30.15625" y1="0" x2="30.15625" y2="177" fill="rgb(0, 0, 0)" stroke="rgb(60, 60, 60)" stroke-width="1px" opacity="0.25"></line><line x1="60.3125" y1="0" x2="60.3125" y2="177" fill="rgb(0, 0, 0)" stroke="rgb(60, 60, 60)" stroke-width="1px" opacity="0.25"></line><line x1="90.46875" y1="0" x2="90.46875" y2="177" fill="rgb(0, 0, 0)" stroke="rgb(60, 60, 60)" stroke-width="1px" opacity="0.25"></line><line x1="120.625" y1="0" x2="120.625" y2="177" fill="rgb(0, 0, 0)" stroke="rgb(60, 60, 60)" stroke-width="1px" opacity="0.25"></line><line x1="150.78125" y1="0" x2="150.78125" y2="177" fill="rgb(0, 0, 0)" stroke="rgb(60, 60, 60)" stroke-width="1px" opacity="0.25"></line><line x1="180.9375" y1="0" x2="180.9375" y2="177" fill="rgb(0, 0, 0)" stroke="rgb(60, 60, 60)" stroke-width="1px" opacity="0.25"></line><line x1="211.09375" y1="0" x2="211.09375" y2="177" fill="rgb(0, 0, 0)" stroke="rgb(60, 60, 60)" stroke-width="1px" opacity="0.25"></line><line x1="241.25" y1="0" x2="241.25" y2="177" fill="rgb(0, 0, 0)" stroke="rgb(60, 60, 60)" stroke-width="1px" opacity="0.25"></line><line x1="271.40625" y1="0" x2="271.40625" y2="177" fill="rgb(0, 0, 0)" stroke="rgb(60, 60, 60)" stroke-width="1px" opacity="0.25"></line></g><g><line x1="0" y1="177" x2="271.40625" y2="177" fill="rgb(0, 0, 0)" stroke="rgb(60, 60, 60)" stroke-width="1px" opacity="0.25"></line><line x1="0" y1="157.33333333333334" x2="271.40625" y2="157.33333333333334" fill="rgb(0, 0, 0)" stroke="rgb(60, 60, 60)" stroke-width="1px" opacity="0.25"></line><line x1="0" y1="137.66666666666669" x2="271.40625" y2="137.66666666666669" fill="rgb(0, 0, 0)" stroke="rgb(60, 60, 60)" stroke-width="1px" opacity="0.25"></line><line x1="0" y1="118" x2="271.40625" y2="118" fill="rgb(0, 0, 0)" stroke="rgb(60, 60, 60)" stroke-width="1px" opacity="0.25"></line><line x1="0" y1="98.33333333333334" x2="271.40625" y2="98.33333333333334" fill="rgb(0, 0, 0)" stroke="rgb(60, 60, 60)" stroke-width="1px" opacity="0.25"></line><line x1="0" y1="78.66666666666666" x2="271.40625" y2="78.66666666666666" fill="rgb(0, 0, 0)" stroke="rgb(60, 60, 60)" stroke-width="1px" opacity="0.25"></line><line x1="0" y1="59" x2="271.40625" y2="59" fill="rgb(0, 0, 0)" stroke="rgb(60, 60, 60)" stroke-width="1px" opacity="0.25"></line><line x1="0" y1="39.33333333333334" x2="271.40625" y2="39.33333333333334" fill="rgb(0, 0, 0)" stroke="rgb(60, 60, 60)" stroke-width="1px" opacity="0.25"></line><line x1="0" y1="19.666666666666686" x2="271.40625" y2="19.666666666666686" fill="rgb(0, 0, 0)" stroke="rgb(60, 60, 60)" stroke-width="1px" opacity="0.25"></line><line x1="0" y1="0" x2="271.40625" y2="0" fill="rgb(0, 0, 0)" stroke="rgb(60, 60, 60)" stroke-width="1px" opacity="0.25"></line></g></g></g><g><g><line x1="0" y1="157.33333333333334" x2="271.40625" y2="157.33333333333334" fill="rgb(0, 0, 0)" stroke="rgb(153, 153, 153)" stroke-width="1.5px"></line></g></g><g><g><line x1="30.15625" y1="0" x2="30.15625" y2="177" fill="rgb(0, 0, 0)" stroke="rgb(153, 153, 153)" stroke-width="1.5px"></line></g></g><g><g><g><g><g><path stroke="rgb(255, 112, 67)" stroke-width="2px" d="M31.059429687500003,153.99L31.246398437499998,154.30052631578948L31.4092421875,154.4762238622386L31.742468749999997,154.27765144906465L31.9791953125,154.35148323606262L32.149578125,154.27433537718835L32.4164609375,154.25753104719269L32.49034375,154.21055727291838L32.556687499999995,154.52770403109898L33.117593750000005,154.32436810928962L33.120609375,154.3616219475526L33.129656250000004,154.3920549243193L33.271390625,154.25903842160102L33.402570312499996,154.24965450757074L33.99815625,153.94453414702178L34.0991796875,154.04667414723463L35.052117187499995,153.94546047838566L35.07624218749999,153.21022640748382L35.2843203125,153.3685973300075L35.593421875000004,152.7229028942913L35.7185703125,152.84309751173527L35.907046875,152.75216646943923L35.9341875,153.08220053774284L36.3096328125,153.20222073485635L36.385023437499996,153.28709151779958L36.42271875,153.38326273369944L36.7529296875,153.51032510372974L36.823796875,153.51943608085475L36.914265625,153.23859796963313L37.0213203125,153.33760172312043L37.348515625,152.62845273518562L37.354546875,152.769448821469L37.559609375,152.93598372653685L37.6938046875,153.08485934069586L37.874742187500004,153.21804047074812L38.16575,153.3171355437372L38.168765625,153.44603550827568L38.3542265625,153.4814108195908L38.4326328125,153.49312885192532L38.8126015625,153.4637145304232L38.9000546875,153.49712080755887L39.031234375,153.5868159364285L39.1352734375,153.66733529342065L39.169953125,153.58076220097095L39.2875625,153.66172596297227L39.319226562500006,153.41730002674186L39.7564921875,153.5343978648563L39.8198203125,153.56045721917835L39.871085937500006,153.62343882284662L40.205820312499995,153.69982193528645L40.5043671875,153.72897496510387L40.508890625,153.69593956038312L40.551109374999996,153.72545650251084L40.9235390625,153.69280042927778L40.931078125,153.68315770777824L41.2658125,153.57588144844232L41.98353125,153.1047987350273L42.1931171875,152.97670134011958L42.209703125000004,153.05852792078346L42.226289062499994,153.0336303875815L42.945515625,152.814245869542L43.090265625,152.7744299941285L43.343578125,152.85676151736627L43.5411015625,152.95052925285384L43.58784375,152.7592733827876L43.8607578125,152.66592356163414L43.9029765625,152.58192567558007L43.9919375,152.09302158096577L44.3161171875,152.20413010980576L44.39,151.1824102442041L44.5724453125,151.345261054755L44.889085937500006,151.60986924555337L45.089625,151.69058585706816L45.160492187500004,151.70419953458793L45.3323828125,151.91319023861644L45.3715859375,151.53074386407553L45.466578125,151.73739807667468L45.5283984375,151.88403115244918L45.572125,152.0946791718941L45.7334609375,152.0088591718897L45.979234375000004,152.18734168252368L46.0953359375,152.1512677971465L46.16318750000001,152.15814211228962L46.2355625,152.28234570454268L46.455703125,152.04007988009928L46.479828125,152.0187360806063L46.62759375,152.13720818570175L46.835671875,152.3028362771424L46.84471875,152.15687362826426L47.107078125,151.59280996323037L47.1116015625,151.77354135778185L47.25484375,151.20848568933872L47.257859375,151.28997497910626L47.6393359375,151.2059732827944L47.933359375,151.16970765654926L48.025335937499996,151.3927459203232L48.0735859375,150.8657854616147L48.126359375,150.9618767331305L48.1700859375,150.65501333679404L48.480695312499996,150.35917081179L48.5892578125,150.34858681093104L48.7189296875,150.3980625276281L48.904390625000005,150.67859504022255L49.020492187500004,149.90838878053344L49.133578125,149.45120939863543L49.2165078125,148.76441209740062L49.2526953125,148.85430536301905L49.8950234375,149.0925442173619L50.24634375,148.4022826925377L50.593140625,148.74472426143456L50.644406249999996,148.6792512895576L50.6986875,148.69899297536517L51.2460234375,148.44142527218045L51.297289062500006,147.93427966334482L51.3500625,148.5005214603155L51.4088671875,148.42013558530093L51.4812421875,148.07245381998075L51.5928203125,148.09387519005043L52.1657890625,148.17215461858265L52.2110234375,148.06560547931767L52.29696875,148.1467118337737L52.318078125,147.51170565608416L52.4100546875,147.53020180068455L52.53821875,146.9961804891807L52.76740625,147.18422946550814L52.88803125,147.51080707941472L52.909140625,147.47039297571877L52.9408046875,147.90602095037326L53.138328125,148.23908593869226L53.3720390625,147.98817706230753L53.408226562500005,147.84102587362463L53.807796874999994,147.31525614007538L54.1048359375,147.4910640037097L54.1410234375,145.80062302119566L54.3521171875,146.06889423077575L54.546625,145.6023378618508L54.679312499999995,144.9661037330236L55.2085546875,144.96382669195089L55.3442578125,144.80444395322937L55.3683828125,144.4643327577118L55.574953125,144.04023266542205L55.609632812499996,144.42554285474444L55.942859375000005,143.80865505937962L56.2218046875,142.36845584913394L56.39369531249999,140.97394327426832L56.690734375,141.4888823876139L56.7585859375,141.55899416201808L56.7827109375,141.7400947764226L57.5004296875,140.48708510819552L57.536617187500006,139.693709822103L57.6270859375,140.53333894333696L57.7235859375,140.58100505428857L57.7929453125,140.5452378786237L58.52725,140.4343807474714L58.697632812500004,140.51160934563356L58.849921875,140.28611506133223L58.9238046875,139.45383683403912L59.5208984375,139.76678650240981L59.603828125,139.73377451708473L59.6626328125,138.8780636911989L59.852617187499995,137.47859059529378L60.030539062500004,137.30073152888798L60.0516484375,136.4523250131447L60.737703125,136.39675917675677L60.74675,137.31041661816562L60.9111015625,136.30370826414597L61.2247265625,134.86667073825765L61.6107265625,135.4810036770544L61.678578124999994,136.2305699898766L61.8067421875,136.55117966289146L62.046484375,137.98039505134318L62.11885937500001,136.9066888650679L62.366140625,135.42901996063316L62.492796874999996,134.72845129025342L62.8380859375,134.05860615464522L63.0024375,134.47841220956042L63.2361484375,134.0302376517035L63.421609375,133.70554721754033L64.006640625,133.019992491366L64.0262421875,132.0489932365947L64.23733593749999,130.89976057359982L64.45596875,131.2814511847006L64.69269531249999,131.1529727323537L64.8118125,130.44734212309842L64.8344296875,130.44160791076894L64.87815625,131.2231137887688L64.97465625,132.5164690801484L65.2566171875,132.91348883979197L65.635078125,132.03180662049724L65.8114921875,133.18529262744812L65.876328125,134.12509669974804L66.06631250000001,133.5155870287743L66.1281328125,131.47236165621635L66.19749218749999,132.2687921583187L66.54278125,132.2579129424738L66.71467187500001,130.89112164675672L66.9121953125,129.89700948111897L66.931796875,131.5589752011213L67.08408593749999,131.87474434792338L67.088609375,131.64760324630413L67.39771093750001,132.2691762554017L67.486671875,130.03592529525199L68.0370234375,130.97599943287693L68.11090625,128.71473282187588L68.37628125,127.28925953909445L68.3808046875,126.1636669180963L68.41246875,127.49096689340122L68.94472656250001,127.68253687078595L69.072890625,126.65528318342658L69.39556250000001,126.43875486503066L69.4453203125,126.51921271187874L69.58403906250001,126.96529144077974L69.591578125,125.1247622963717L69.7091875,123.95995273321321L70.16605468750001,123.65895745984815L70.2112890625,123.54539504718183L70.2173203125,125.0165222093034L70.79481249999999,126.53720332186742L71.4084921875,125.6244829895937L71.4416640625,123.8590346904829L71.6286328125,124.5514645548214L72.06740625,124.50598476600277L72.8499609375,123.71771962268653L72.8831328125,123.67694766041559L73.234453125,123.03058622767463L73.35357031250001,122.31119427154104L73.50284375000001,122.21440817771631L73.596328125,122.28463402661393L73.69584375000001,120.73517062390106L74.1044609375,119.5373202281418L74.4030078125,120.66192153869122L74.54625,117.97672938475705L75.22325781250001,119.5917231129832L75.67409375000001,118.74421746833494L75.761546875,118.86646238817025L75.8414609375,117.89481614933779L75.9439921875,117.66933453440078L76.32546875,117.76140108096187L76.5169609375,117.25426097285981L77.10953124999999,117.50583487557645L77.2799140625,115.68691805466841L77.6960703125,115.78055958253569L78.2630078125,114.68483695760712L78.44846875,113.26601992850337L78.487671875,113.24775126898624L78.584171875,113.66397614208992L78.614328125,113.21257852787869L78.82089843749999,114.18298734176184L78.8299453125,114.97768860758886L78.9234296875,112.11358641348623L79.7014609375,113.3118944388082L79.73161718749999,112.81703832825924L79.8190703125,113.66966782876891L79.8733515625,114.0437010458929L80.0663515625,114.57699760797142L80.07690625,113.8769645138396L80.9046953125,115.01693472912427L81.171578125,116.98690792288161L81.3268828125,115.259217130591L81.798828125,115.45462875086548L82.2134765625,113.80149920911039L82.293390625,113.02168262153188L82.39893749999999,110.471181026043L82.6477265625,109.51306292343791L83.0337265625,108.45408996442666L83.87056249999999,109.5463476346514L84.56717187500001,110.4507128711868L84.5867734375,111.81530825073554L84.82048437499999,111.6667774256619L84.91396875000001,112.39843301642935L84.929046875,111.24758971478597L85.321078125,109.89716407664022L85.4221015625,107.65911433564214L85.737234375,108.2802029020781L85.7598515625,108.20984927853694L85.9935625,107.71386435068312L86.66453906250001,106.16614458228116L86.816828125,105.28453012405286L87.293296875,104.3927437783141L87.71849999999999,102.27246940048236L87.96578125,102.68488912710085L88.128625,103.13473354772415L88.19496875,104.09026019295185L88.2356796875,103.73090084032329L88.3171015625,104.9021440896244L88.3532890625,104.18626301399523L88.43772656249999,104.13197004592902L88.5643828125,105.02710637466953L88.59303125,105.41972907053594L89.18258593750001,105.71408949681569L89.42232812499999,106.05768054713414L89.42534375,105.50157915908737L89.7344453125,105.7090879098453L89.8249140625,104.87317911886073L89.89276562500001,105.53686120697466L90.0812421875,106.92084175294391L90.54866406250001,108.08775757764955L90.74015625,106.73864848655124L90.9708515625,105.95711697122942L91.12615625,105.68640527410648L91.466921875,106.19009808002917L91.659921875,104.48008827202624L91.75491406249999,104.3570794448236L91.8906171875,103.61703816700789L92.23590625,103.26566768364043L92.24796875,104.24743424860974L92.30225,103.51835749041541L92.546515625,104.43552174137388L92.932515625,104.39563623390318L93.3320859375,105.52007261051286L93.3441484375,103.93606534946156L93.5160390625,105.08679214784873L93.70753125,104.33277959973054L93.74371875,102.76916830642413L93.807046875,102.65991814244839L93.843234375,101.30292632820354L94.229234375,99.64896702871653L94.446359375,99.8124036591782L94.50667187500001,99.25149662659369L94.64539062499999,99.49401363060099L95.1806640625,100.0466122675409L95.25153125,100.0129510407868L95.36914062499999,98.97965593670813L95.6330078125,99.2886903430373L95.75514062500001,101.21882130873358L95.8124375,100.65493917786021L95.8863203125,99.7344452600742L96.5965,97.35233406740011L96.689984375,97.98143399399343L96.7819609375,97.40695726126074L96.8256875,98.06992820180133L97.0684453125,98.62726871495454L97.100109375,99.40420851012576L97.82084375,101.12612099244652L97.8615546875,100.63050889320186L98.0515390625,101.06945800388168L98.357625,100.18617887016018L99.2366796875,100.11889431647748L99.3512734375,100.6286715514964L99.4930078125,97.66547106301343L99.52467187500001,98.26325729004542L99.5925234375,99.15526489437421L100.47911718750001,99.0140717382701L100.577125,99.92933123110977L100.91638281249999,100.0253981079988L100.954078125,99.44319163053225L101.493875,99.82387246747902L102.106046875,98.5931518873978L102.1799296875,98.62617003199134L102.498078125,99.59988636212555L102.5810078125,98.58823105924631L102.6021171875,99.99840795332169L102.6262421875,100.32356715798953L103.35602343750001,100.30154377552388L103.3771328125,100.71438939797152L103.5339453125,98.96195045817436L103.6304453125,96.67675541235691L103.7209140625,96.54741320445457L103.9425625,96.17533855067579L104.04057031250001,94.48347136227487L104.8909765625,92.68545755938072L105.055328125,94.76457847010931L105.14127343749999,92.62378728976506L105.2769765625,93.03740856078855L105.3764921875,91.26600103804303L105.49259375,92.14973426757206L106.14095312500001,91.01776084081486L106.33696875,92.24098475673337L106.4651328125,92.31921961439336L106.665671875,91.83896431962071L106.689796875,91.91806788765864L106.71090625000001,91.12392776555944L107.2250703125,90.5665349890035L107.558296875,90.59588149010314L107.6442421875,89.87496000775951L107.9216796875,89.87513067365023L107.9307265625,89.3246176062852L108.0000859375,88.75048917899002L108.2368125,89.25644026109102L108.2413359375,89.98712956831525L108.3468828125,89.24841661148373L108.7690703125,88.36724161700202L108.85803125,88.36085078863515L108.9228671875,89.02376570977164L109.2696640625,87.35872247212781L109.37671875000001,89.87218355824838L109.99190625,90.5806318690902L110.36584375,89.52690201551451L110.411078125,89.77821181396307L110.55130468750001,90.29939063256676L110.7654140625,91.55511823597675L110.77898437500001,93.27527307904575L111.020234375,94.17441243780783L111.53590625000001,93.66597119402705L111.5766171875,94.01470740795767L111.7756484375,92.9322366671619L111.79675781249999,92.98067966711238L111.87817968750001,92.17861170040115L112.52955468750001,90.72908386369437L113.1537890625,89.9948421439916L113.16886718750001,90.47469126292579L113.6212109375,91.20155546996655L113.6302578125,90.95106658963655L113.8051640625,89.1129599306729L113.9378515625,89.20899727093894L114.2816328125,90.41643087717839L114.2921875,91.58178778946055L114.63596875,90.46727567718116L114.7792109375,87.3402147761297L115.0415703125,89.02952663185008L115.6597734375,88.4849073019984L115.9326875,88.86008323846524L116.0608515625,89.98440824795206L116.2267109375,90.44563408982353L116.34884375,92.08007068084116L116.6730234375,91.15173027942372L116.90824218750001,90.670223918148L117.21432812500001,90.98420152633321L117.4766875,91.10944804036656L117.85665625,92.99216990299657L117.86871875,90.98928624603025L117.9335546875,91.6450242880939L118.0873515625,90.93718852595117L118.1717890625,89.88713634002272L118.912125,90.27942270602044L119.234796875,90.29814710208508L119.32225,90.84599905854324L119.64039843750001,89.92306581935557L120.151546875,91.57042590408669L120.27971093750001,92.1090499803447L120.6355546875,90.98114498231023L120.652140625,90.00536381741254L120.8014140625,89.75649410233795L120.92053125,91.0271780254375L120.97179687500001,90.75479355622707L121.17685937499999,89.82131420060436L121.27034375000001,90.14151611387726L121.40453906249999,90.41003116915621L121.713640625,91.0253613855739L121.743796875,91.97249191368319L122.2006640625,91.46790938898154L122.25946875000001,90.24678511675008L123.010359375,89.89510660507506L123.10384375000001,88.04459594456756L123.6843515625,87.8541363501108L123.77783593749999,84.59505604843305L123.81251562499999,82.60588377692308L124.00099218749999,81.75962873256412L124.23771875000001,83.63333252597437L124.30255468749999,83.66766594004359L124.35834375,83.77723267937256L124.5166640625,85.56717607810198L125.07907812500001,85.29012513695844L125.284140625,85.27677928992928L125.57364062500001,84.51743469426968L125.6927578125,83.9126912248427L125.9340078125,83.40775543569177L126.22200000000001,83.54331322545595L126.43460156249999,82.91798190291034L126.6909296875,83.25985037928596L126.9683671875,84.98353200802403L127.0301875,84.84351214055495L127.0497890625,84.75682759316612L127.27143749999999,83.81347816718285L127.4930859375,83.51513035046456L127.8745625,82.8926173154181L128.37214062500001,83.63035558387628L128.66917968750002,82.85865335882198L128.697828125,81.31845468960645L128.860671875,81.58427588731247L129.656796875,81.50884829858121L129.904078125,80.14296346872308L130.12271093750002,81.11633378851745L130.3338046875,83.11336707633237L130.87209375,83.9076970353658L130.977640625,81.86926066516257L131.0093046875,81.49000126531297L131.6848046875,80.44066780544833L131.954703125,80.59760102490351L132.1552421875,80.6601742557465L132.2698359375,82.91915683017186L132.2849140625,84.12624114715467L132.666390625,81.94795036577251L133.0508828125,80.97082199586193L133.106671875,81.70407312960906L133.245390625,81.10533248331481L133.7384453125,78.28513256831666L133.957078125,77.39895264481834L134.10635156249998,79.39405738033649L134.5586953125,82.29098497563618L134.644640625,81.79088647807255L134.738125,80.6327978302653L135.3035546875,79.8658513805721L135.3246640625,80.98493290918154L135.5267109375,78.92410628493005L135.6262265625,78.42636232310372L136.17959374999998,76.93605942412665L136.2504609375,76.735453481714L136.3469609375,76.39757480020928L136.39521093750002,77.62748398685503L136.683203125,78.53773558816953L137.03603125,78.58996202935258L137.051109375,79.63996582641732L137.370765625,80.70296924377558L137.5984453125,79.02433898606469L137.714546875,78.47723842079154L138.29807031250002,74.54318124537905L138.48654687500002,75.25052978750782L138.59058593749998,75.25781014209036L139.2495,75.55936246121466L139.3203671875,76.9124262150932L139.46059375,74.23618359358387L139.6973203125,73.59756523422548L139.78929687500002,73.8094753774696L139.91896874999998,74.90486117305598L140.1466484375,74.7107083890837L141.1795,73.82797088350867L141.279015625,73.85950712849113L141.339328125,74.59588974897535L141.4569375,73.60663410741114L141.4674921875,74.5256373633367L141.5293125,74.33007362700303L142.1324375,75.86506626430273L142.2093359375,72.93955963787243L142.25457031250002,72.39127034075187L142.8245234375,72.15347664001001L142.86221875,72.195128976009L142.89840625000002,75.08428274507477L143.1095,75.26552113723397L143.41709375,75.2713023568439L143.8438046875,76.47617212115951L143.8649140625,74.23688824237689L144.22678906250002,74.62086608480587L144.921890625,70.95444614299194L145.3063828125,69.5033348620261L145.494859375,69.61333470915682L145.7557109375,70.45966790490779L146.3377265625,70.670701114417L146.80514843749998,69.20863100297531L147.3027265625,69.54476790267776L147.931484375,69.80795777907666L147.937515625,70.63482866783568L148.1078984375,72.20501246771876L148.29335937500002,73.22484455428022L148.4185078125,75.44069343218553L148.5391328125,74.38662408896697L148.727609375,75.34562834673694L149.228203125,76.16939884539657L149.5885703125,74.47212562752357L149.6126953125,74.28191306477122L149.64737499999998,72.89138842496077L149.78609375,72.7412495824647L149.8056953125,74.31712462421824L149.9082265625,75.14541216179639L149.933859375,76.77587094561677L150.32136718750002,75.92261718438841L150.5626171875,74.95802213261624L151.15367968750002,73.85388658602128L151.1928828125,73.80416459408582L151.20946875,75.37208146801056L151.41151562500002,75.60320665454283L151.5411875,75.77188598908855L151.960359375,76.12036405684636L152.491109375,77.22066098449505L152.6283203125,77.38492821937888L152.895203125,76.58876873077432L152.913296875,75.59689185769689L152.9163125,74.62553600526053L153.0505078125,74.18398240473448L153.335484375,73.43258416426102L153.962734375,71.77299241450159L154.6367265625,71.65602650638476L154.74227343750002,73.71409052241296L155.81885156250002,73.02934813683832L155.8490078125,72.84574665648782L155.93042968749998,74.31283865750568L155.9756640625,73.11588812508845L156.0329609375,73.96596597924628L156.1445390625,73.27570271465498L156.58331249999998,73.71646577652281L157.38546875,73.83781919887053L157.4683984375,72.09837061231681L157.4895078125,72.4602002177518L157.60259375,70.89784686264329L157.61616406250002,70.78972884304562L157.99311718750002,70.65308929207438L159.45720312499998,69.2714470295336L159.674328125,70.85996899324691L159.72408593749998,69.53630542725557L160.4629140625,70.52800821786334L160.6770234375,69.98487406274367L160.75090624999999,65.91671998980264L160.80066406249998,67.56538132415571L161.194203125,68.57717652507347L161.29975000000002,68.30779220589946L161.531953125,65.88234631864285L161.63297656249998,67.45577835344521L161.78225,68.59653385143403L162.340140625,69.50521379962396L162.4954453125,68.82835908632822L162.49996875,68.06185651102872L163.27196874999998,68.59133752659251L163.32474218750002,68.10420377393326L163.398625,67.05611672987327L163.8253359375,68.15817172355261L164.4405234375,67.65535455119735L164.46615624999998,68.18615242941094L164.7179609375,69.09653718646985L165.6920078125,68.46055013448952L166.115703125,68.24216178770725L166.1835546875,67.96694560893653L166.2589453125,65.00525104804287L166.429328125,66.11572594323859L167.4561484375,66.74148668224805L167.478765625,67.32433801402324L167.7049375,67.88823754595425L167.8135,66.94041379135884L167.91301562499999,65.57603907888962L167.9220625,64.30876850433398L168.2281484375,63.52222498723391L169.0453828125,62.73566915517719L169.285125,62.06710223965948L169.30321875,64.45472534902686L169.3288515625,64.28291948079082L169.348453125,61.06029419937842L169.3529765625,60.55926477944058L169.7555625,61.01300496816319L170.76278125,60.71337113801353L170.8306328125,59.04736735754551L170.8396796875,60.478297288457625L172.12584375,61.72680089294519L172.13036718749998,62.69312080365067L172.30225781250002,61.30114205661894L172.49073437500002,62.46736118429037L172.4952578125,61.21595839919466L172.659609375,60.85669589260853L173.522078125,58.29135963668101L173.8643515625,58.1852236730129L173.92315624999998,59.26970130571161L174.07996874999998,59.10506450847376L174.82332031250002,57.934224724293045L175.39478125,57.745802251863736L175.66015625,59.18888869334404L175.6797578125,60.9596664906763L175.7853046875,59.13136650827532L176.682453125,58.705229857447804L176.72316406250002,61.193040205036354L176.86489843750002,58.790736184532705L176.93425781250002,59.22466256607943L177.104640625,59.575862976138154L177.2328046875,60.914610011857675L177.4408828125,59.72014901067189L177.490640625,60.49380077627136L177.544921875,61.70142069864421L178.238515625,64.32227862877981L178.702921875,60.09271743256849L178.74363281249998,61.61577902264497L178.8250546875,64.3435344537138L180.114234375,65.04818100834241L180.334375,64.58102957417482L180.36000781250002,63.373926616757345L180.657046875,61.89420062174828L180.73846875,59.775780559573434L180.9269453125,59.71786917028275L181.0053515625,59.19374891992115L181.1470859375,58.17137402792905L181.24509375,57.015236625136126L181.83615625,59.0033796292892L181.8859140625,58.5113749996936L182.3141328125,59.91723749972424L182.4769765625,58.97984708308515L182.59307812499998,59.78819570810995L182.7242578125,60.51570947063229L184.50196875,58.90880519023574L185.0764453125,60.94359133787883L185.1216796875,60.414898870757625L185.1246953125,59.46707565034852L185.608703125,58.65336808531367L186.2133359375,58.2160312767823L186.2314296875,58.78609481577075L186.3279296875,57.09648533419366L186.5872734375,56.04783680077429L187.1813515625,52.350719787363516L187.38038281250002,51.6979811419605L187.677421875,54.099849694431114L187.764875,55.94686472498799L187.8749453125,56.11451158582253L187.98803124999998,56.06872709390694L188.238328125,55.476854384516244L188.340859375,56.67483561273127L188.648453125,55.66835205145816L189.0902421875,55.98185017964566L189.1279375,58.38799849501443L189.4430703125,59.45219864551299L189.97834375000002,59.40697878096171L190.023578125,59.28761423619886L190.258796875,58.609852812578964L190.6945546875,58.039200864654404L190.73225,58.11561411152229L190.804625,56.925719367036734L191.024765625,54.95014743033305L191.83596875,56.043466020633076L192.4074296875,56.12278608523643L192.81303125,56.21384081004612L192.9291328125,53.87679006237485L193.527734375,55.23477772280404L193.5654296875,56.10296661719029L193.8217578125,56.90400328880459L194.0026953125,57.919936293257464L194.396234375,58.44094266393172L194.7566015625,56.86451506420521L194.857625,52.57439689111803L195.1968828125,53.55129053533956L195.2210078125,54.705828148472264L195.6899375,52.480245333625035L196.048796875,53.663220800262536L196.54788281249998,53.62656538690294L196.56145312499999,54.69490884821266L196.8765859375,52.50975129672473L196.8856328125,53.8864428337189L197.56867187499998,53.98479855034702L197.70588281250002,54.505985361978986L198.1371171875,54.42438682578107L198.37384375,56.986281476536305L198.45828125,52.801986662215995L198.5321640625,53.00878799599438L199.0237109375,49.41890919639495L199.1111640625,48.253018276755455L199.27853125000001,49.150716449079894L199.61477343750002,49.329311470838576L199.6208046875,48.703380323754715L200.141,48.80870895804591L200.27971875,48.47083806224131L200.385265625,48.83542092268385L200.8722890625,51.75954549708213L201.0713203125,52.58192428070727L202.0453671875,51.768398519303204L202.1177421875,51.862225334039536L202.5173125,52.43833613396892L202.5942109375,51.776835853905354L203.6798359375,49.72615226851481L203.7250703125,50.43720370833L203.84117187500001,48.874483337497L203.9844140625,49.63136833708063L204.50159374999998,49.643898170039236L204.59809375,49.65517501970196L204.6538828125,48.72132418439844L205.27359375,50.12285843262525L205.40025,50.164905922696065L205.52087500000002,50.43874866375978L205.8872734375,50.9998737973838L206.27628906249998,48.98755308431208L206.47381249999998,46.5077977758809L206.68490624999998,48.0913513316261L206.97591406249998,50.735882865130165L207.87155468749998,48.08129457861713L208.04947656250002,48.56349845408877L208.054,50.3741486086799L208.4173828125,52.90840041447858L208.48825,53.34056037303071L208.7159296875,51.17283766906097L208.72799218749998,51.50322056882153L209.2919140625,50.187898511939366L209.552765625,50.18410866074542L209.5874453125,50.84936446133756L210.0337578125,49.79609468187047L210.4589609375,48.33681854701675L210.891703125,50.17013669231508L211.1585859375,50.26645635641691L211.40134375,49.07481072077519L211.573234375,49.339662982031015L211.6531484375,46.66736335049458L211.6923515625,48.03829368211177L212.3437265625,47.738130980567234L212.50204687500002,48.805317882510536L212.54728125,50.11978609425947L212.8774921875,50.791474151500196L213.19262500000002,49.42932673635018L213.3253125,50.60272739604849L214.0807265625,51.462121323110296L214.4184765625,49.99357585746593L214.59790625,51.11055160505266L214.66877343750002,52.037163111214056L214.9070078125,51.455113466759315L215.00501562500003,52.54393545341671L215.5463203125,53.484541908075045L216.59425,51.00742105060087L216.910890625,49.44667894554078L217.04659375,45.977011050986704L217.0812734375,46.040309945888026L217.206421875,47.27727895129922L217.4341015625,47.525217722835976L217.743203125,47.9450292838857L218.4292578125,47.69352635549711L218.8996953125,48.41117371994741L218.979609375,48.152389681285996L219.0112734375,49.237150713157405L219.6897890625,46.968435641841666L219.7259765625,46.89325874432416L219.848109375,47.29759953655841L220.6035234375,47.50417291623589L220.6095546875,49.381422291278966L220.722640625,47.570280062151085L220.76184375,43.54091872260261L220.8688984375,43.21849351700902L221.0257109375,45.79964416530811L221.3091796875,46.39201308211065L221.42528125,44.01447844056622L222.0359453125,43.33003059650963L222.1354609375,44.20869420352534L222.61946875,44.920824783172804L224.0564140625,42.65107563818884L224.3821015625,43.28296807436996L226.171875,41.01967126693299L226.2759140625,40.1627041402397L226.7041328125,38.80143372621569L226.8488828125,39.42495702026079L226.862453125,36.64279465156804L227.7264296875,36.26284851974455L227.99029687499998,38.20223033443679L228.07774999999998,38.84634063432645L228.2451171875,38.95403990422716L228.6974609375,40.073635913804424L228.9718828125,38.20993898909063L229.00053125000002,39.679278423514916L229.5327890625,40.41168391449676L229.70920312500002,41.818182189713724L230.1525,40.60603063740905L230.191703125,41.481760907001416L230.2716171875,41.20791814963462L230.5882578125,40.60745966800448L230.87021875,40.46038036787073L231.26828125,40.60334233108367L231.3994609375,42.77734143130863L232.0357578125,43.27860728817774L232.1051171875,45.22441322602663L233.5465859375,41.0363052367573L233.8240234375,42.380341379748245L234.4482578125,43.943973908440086L234.59753125,43.266576517596064L234.920203125,43.640252199169794L235.87615625,43.85856031258615L236.8275859375,44.92037094799423L236.8637734375,41.2346671865281L237.63878906250002,41.06420046787531L237.94638281250002,40.399447087754425L237.97804687500002,41.35483571231234L238.80734375,41.68368547441443L239.17072656250002,43.51365026030632L239.534109375,42.17128523427567L239.7436953125,41.19915671084809L239.781390625,40.73724103976329L239.8040078125,40.695183602453625L240.42070312500002,38.53333190887494L240.5247421875,40.50133205132073L240.716234375,38.43753217952201L241.234921875,38.31077896156978L241.4957734375,38.35403439874614L241.58775,38.39296429220488L241.71892968749998,37.484001196317735L241.84257031250002,36.665934410019275L242.447203125,37.32600763568405L243.42728125,35.61907353878229L243.47703906249998,33.92549951823736L243.61726562500002,34.05328289974696L243.8238359375,30.39228794310563L244.1253984375,29.654059148795056L244.2791953125,30.523653233915553L244.5837734375,31.30628791052399L244.7134453125,31.10599245280494L244.901921875,32.61705987419111L245.24871875,33.78035388677196L245.2743515625,35.14198516476145L245.4100546875,35.03011998161864L245.450765625,34.083774650123445L246.16999218750001,33.80239718511109L246.657015625,31.425157466599956L246.9570703125,33.25830838660664L247.52853125,31.800810881279318L247.6506640625,35.13039645981806L247.8587421875,34.626356813836225L248.1934765625,35.07738779911929L248.87199218749998,35.797982352540686L249.4721015625,36.800517450619964L249.7314453125,37.073465705557965L250.3194921875,34.38878580166883L250.6361328125,33.40824055483529L250.9015078125,33.155083166018414L251.089984375,32.848574849416536L251.3960703125,35.14905069780821L251.7519140625,34.1711456280274L252.1047421875,34.51036439855801L252.16053125,35.95632795870219L252.468125,35.95969516283196L252.661125,36.592058979882125L253.0365703125,39.42285308189392L253.07878906250002,39.35490110703782L253.70453125,37.24841099633406L253.77841406250002,37.55523656336729L254.117671875,39.28671290703056L254.123703125,39.90104161632749L254.181,38.32993745469474L254.2367890625,38.76461037589192L255.45359374999998,39.8834826716361L255.5274765625,40.49713440447246L255.89990625,39.57442096402522L256.9176796875,38.23264553428936L257.217734375,38.441047647527085L257.3790703125,39.33660954944102L257.40470312499997,38.805281927830265L257.658015625,39.625087068380594L258.00179687499997,35.80024502820919L258.79490625,35.701220525388266L258.8054609375,34.43209847284945L258.885375,35.98422195889785L258.936640625,36.65346642967472L259.02107812500003,35.72178645337391L259.11607031249997,36.10260780803651L259.31962500000003,35.422680360566176L259.94084375,37.64274565784291L260.27708593750003,40.30947109205857L260.5846796875,40.467523982852754L260.601265625,38.60377158456748L260.7746640625,38.971727759444036L261.39588281249996,36.43155498349961L261.4773046875,39.140732818483L261.9371875,42.090326203301345L262.0020234375,40.45762691630455L262.0110703125,38.83086422467409L262.1166171875,37.30777780220669L262.11812499999996,40.047333355319324L262.1196328125,41.01826668645407L262.121140625,40.240106684475336L262.1226484375,43.00109601602779L262.12415625,43.440653081091654L262.1256640625,42.026921106315825L262.1286796875,41.34456232901758L262.13018750000003,40.57310609611582L262.13169531249997,39.05279548650424L262.133203125,40.752515937853815L262.139234375,40.55159767740179L262.14225,38.93510457632826L262.1437578125,39.28959411869545L262.145265625,39.94296804015923L262.14828125,39.980337902809936L262.151296875,40.28930411252898L262.1528046875,39.938040367942705L262.1543125,36.35723633114847L262.1558203125,36.51717936470027L262.157328125,35.363128094896894L262.1588359375,35.03248195207388L262.16034375,35.08890042353315L262.163359375,33.920343714513194L262.16486718749996,35.34664267639519L262.166375,36.49264507542233L262.1678828125,33.17771390121342L262.169390625,34.83560917775873L262.1708984375,34.32171492664955L262.17240625,31.8925434339846L262.1739140625,31.161622423919454L262.175421875,31.015126848194143L262.1799453125,34.61994749670808L262.181453125,32.3182860803706L262.18446875,29.460124139000186L262.1859765625,31.68644505843352L262.1905,31.684133885923472L262.1920078125,33.1373871639978L262.193515625,32.006648447598025L262.1950234375,30.59565026950486L262.19653124999996,28.73575190922108L262.199546875,30.601843384965605L262.2010546875,32.94999237980241L262.2040703125,34.020993141822146L262.205578125,34.21789382763993L262.20859375000003,33.883771111542615L262.2101015625,35.0777273337217L262.211609375,29.347621267016194L262.2131171875,31.270525806981226L262.2161328125,32.88313989294977L262.217640625,34.76715923698811L262.22065625,33.94544331328933L262.2221640625,34.22856564862707L262.223671875,31.887375750431033L262.2266875,34.08730484205458L262.22819531249996,34.434907691182445L262.229703125,34.236416922064194L262.2312109375,36.33910856319113L262.2342265625,37.68086437353867L262.2372421875,38.80977793618479L262.24025781250003,39.904466809232986L262.241765625,36.995686794976365L262.24478125,37.524451448812044L262.2462890625,35.6010063039308L262.247796875,36.111905673537734L262.2493046875,34.62471510618397L262.2523203125,33.73857692889891L262.25684375,32.62638590267568L262.2583515625,32.21541397907478L262.259859375,28.620205914500616L262.2613671875,30.891185323050593" style="fill: none;" fill="none"></path></g></g></g></g><g opacity="0.2"><g><g><g><path stroke="rgb(255, 112, 67)" stroke-width="2px" d="M31.059429687500003,153.99L31.246398437499998,154.57999999999998L31.4092421875,154.77666666666667L31.742468749999997,153.79333333333332L31.9791953125,154.57999999999998L32.149578125,153.99L32.4164609375,154.18666666666667L32.49034375,153.99L32.556687499999995,156.15333333333334L33.117593750000005,153.20333333333332L33.120609375,154.57999999999998L33.129656250000004,154.57999999999998L33.271390625,153.4L33.402570312499996,154.18666666666667L33.99815625,151.82666666666665L34.0991796875,154.77666666666667L35.052117187499995,153.20333333333332L35.07624218749999,147.69666666666666L35.2843203125,154.57999999999998L35.593421875000004,147.69666666666666L35.7185703125,153.79333333333332L35.907046875,152.02333333333334L35.9341875,155.76L36.3096328125,154.18666666666667L36.385023437499996,153.99L36.42271875,154.18666666666667L36.7529296875,154.57999999999998L36.823796875,153.59666666666666L36.914265625,150.84333333333333L37.0213203125,154.18666666666667L37.348515625,146.51666666666665L37.354546875,153.99L37.559609375,154.38333333333333L37.6938046875,154.38333333333333L37.874742187500004,154.38333333333333L38.16575,154.18666666666667L38.168765625,154.57999999999998L38.3542265625,153.79333333333332L38.4326328125,153.59666666666666L38.8126015625,153.20333333333332L38.9000546875,153.79333333333332L39.031234375,154.38333333333333L39.1352734375,154.38333333333333L39.169953125,152.81L39.2875625,154.38333333333333L39.319226562500006,151.23666666666668L39.7564921875,154.57999999999998L39.8198203125,153.79333333333332L39.871085937500006,154.18666666666667L40.205820312499995,154.38333333333333L40.5043671875,153.99L40.508890625,153.4L40.551109374999996,153.99L40.9235390625,153.4L40.931078125,153.59666666666666L41.2658125,152.61333333333334L41.98353125,148.87666666666667L42.1931171875,151.82666666666665L42.209703125000004,153.79333333333332L42.226289062499994,152.81L42.945515625,150.84333333333333L43.090265625,152.41666666666666L43.343578125,153.59666666666666L43.5411015625,153.79333333333332L43.58784375,151.04L43.8607578125,151.82666666666665L43.9029765625,151.82666666666665L43.9919375,147.69666666666666L44.3161171875,153.20333333333332L44.39,141.99333333333334L44.5724453125,152.81L44.889085937500006,153.99L45.089625,152.41666666666666L45.160492187500004,151.82666666666665L45.3323828125,153.79333333333332L45.3715859375,148.09L45.466578125,153.59666666666666L45.5283984375,153.20333333333332L45.572125,153.99L45.7334609375,151.23666666666668L45.979234375000004,153.79333333333332L46.0953359375,151.82666666666665L46.16318750000001,152.22L46.2355625,153.4L46.455703125,149.86L46.479828125,151.82666666666665L46.62759375,153.20333333333332L46.835671875,153.79333333333332L46.84471875,150.84333333333333L47.107078125,146.51666666666665L47.1116015625,153.4L47.25484375,146.12333333333333L47.257859375,152.02333333333334L47.6393359375,150.45L47.933359375,150.84333333333333L48.025335937499996,153.4L48.0735859375,146.12333333333333L48.126359375,151.82666666666665L48.1700859375,147.89333333333332L48.480695312499996,147.69666666666666L48.5892578125,150.25333333333333L48.7189296875,150.84333333333333L48.904390625000005,153.20333333333332L49.020492187500004,142.97666666666666L49.133578125,145.33666666666667L49.2165078125,142.58333333333334L49.2526953125,149.66333333333333L49.8950234375,151.23666666666668L50.24634375,142.19L50.593140625,151.82666666666665L50.644406249999996,148.09L50.6986875,148.87666666666667L51.2460234375,146.12333333333333L51.297289062500006,143.37L51.3500625,153.59666666666666L51.4088671875,147.69666666666666L51.4812421875,144.94333333333333L51.5928203125,148.28666666666666L52.1657890625,148.87666666666667L52.2110234375,147.10666666666665L52.29696875,148.87666666666667L52.318078125,141.79666666666668L52.4100546875,147.69666666666666L52.53821875,142.19L52.76740625,148.87666666666667L52.88803125,150.45L52.909140625,147.10666666666665L52.9408046875,151.82666666666665L53.138328125,151.23666666666668L53.3720390625,145.73L53.408226562500005,146.51666666666665L53.807796874999994,142.58333333333334L54.1048359375,149.07333333333332L54.1410234375,130.58666666666667L54.3521171875,148.48333333333332L54.546625,141.40333333333334L54.679312499999995,139.24L55.2085546875,144.94333333333333L55.3442578125,143.37L55.3683828125,141.40333333333334L55.574953125,140.22333333333333L55.609632812499996,147.89333333333332L55.942859375000005,138.25666666666666L56.2218046875,129.40666666666667L56.39369531249999,128.42333333333335L56.690734375,146.12333333333333L56.7585859375,142.19L56.7827109375,143.37L57.5004296875,129.20999999999998L57.536617187500006,132.55333333333334L57.6270859375,148.09L57.7235859375,141.01L57.7929453125,140.22333333333333L58.52725,139.43666666666667L58.697632812500004,141.20666666666668L58.849921875,138.25666666666666L58.9238046875,131.96333333333334L59.5208984375,142.58333333333334L59.603828125,139.43666666666667L59.6626328125,131.17666666666668L59.852617187499995,124.88333333333333L60.030539062500004,135.7L60.0516484375,128.81666666666666L60.737703125,135.89666666666668L60.74675,145.53333333333333L60.9111015625,127.24333333333334L61.2247265625,121.93333333333334L61.6107265625,141.01L61.678578124999994,142.97666666666666L61.8067421875,139.43666666666667L62.046484375,150.84333333333333L62.11885937500001,127.24333333333334L62.366140625,122.13L62.492796874999996,128.42333333333335L62.8380859375,128.03L63.0024375,138.25666666666666L63.2361484375,129.99666666666667L63.421609375,130.78333333333333L64.006640625,126.85L64.0262421875,123.31L64.23733593749999,120.55666666666667L64.45596875,134.71666666666667L64.69269531249999,129.99666666666667L64.8118125,124.09666666666666L64.8344296875,130.39000000000001L64.87815625,138.25666666666666L64.97465625,144.15666666666667L65.2566171875,136.48666666666668L65.635078125,124.09666666666666L65.8114921875,143.56666666666666L65.876328125,142.58333333333334L66.06631250000001,128.03L66.1281328125,113.08333333333334L66.19749218749999,139.43666666666667L66.54278125,132.16L66.71467187500001,118.59L66.9121953125,120.95L66.931796875,146.51666666666665L67.08408593749999,134.71666666666667L67.088609375,129.60333333333332L67.39771093750001,137.86333333333334L67.486671875,109.93666666666667L68.0370234375,139.43666666666667L68.11090625,108.36333333333333L68.37628125,114.46000000000001L68.3808046875,116.03333333333333L68.41246875,139.43666666666667L68.94472656250001,129.40666666666667L69.072890625,117.41L69.39556250000001,124.49L69.4453203125,127.24333333333334L69.58403906250001,130.98L69.591578125,108.56L69.7091875,113.47666666666667L70.16605468750001,120.95L70.2112890625,122.52333333333334L70.2173203125,138.25666666666666L70.79481249999999,140.22333333333333L71.4084921875,117.41L71.4416640625,107.97L71.6286328125,130.78333333333333L72.06740625,124.09666666666666L72.8499609375,116.62333333333333L72.8831328125,123.31L73.234453125,117.21333333333334L73.35357031250001,115.83666666666667L73.50284375000001,121.34333333333333L73.596328125,122.91666666666666L73.69584375000001,106.79L74.1044609375,108.75666666666667L74.4030078125,130.78333333333333L74.54625,93.81L75.22325781250001,134.12666666666667L75.67409375000001,111.11666666666666L75.761546875,119.96666666666667L75.8414609375,109.14999999999999L75.9439921875,115.64L76.32546875,118.59L76.5169609375,112.69L77.10953124999999,119.77000000000001L77.2799140625,99.31666666666666L77.6960703125,116.62333333333333L78.2630078125,104.82333333333332L78.44846875,100.49666666666667L78.487671875,113.08333333333334L78.584171875,117.41L78.614328125,109.14999999999999L78.82089843749999,122.91666666666666L78.8299453125,122.13L78.9234296875,86.33666666666666L79.7014609375,124.09666666666666L79.73161718749999,108.36333333333333L79.8190703125,121.34333333333333L79.8733515625,117.41L80.0663515625,119.37666666666667L80.07690625,107.57666666666667L80.9046953125,125.27666666666667L81.171578125,134.71666666666667L81.3268828125,99.71000000000001L81.798828125,117.21333333333334L82.2134765625,98.92333333333333L82.293390625,106.00333333333334L82.39893749999999,87.51666666666667L82.6477265625,100.89L83.0337265625,98.92333333333333L83.87056249999999,119.37666666666667L84.56717187500001,118.59L84.5867734375,124.09666666666666L84.82048437499999,110.33L84.91396875000001,118.98333333333333L84.929046875,100.89L85.321078125,97.74333333333334L85.4221015625,87.51666666666667L85.737234375,113.87L85.7598515625,107.57666666666667L85.9935625,103.25L86.66453906250001,92.23666666666666L86.816828125,97.35L87.293296875,96.36666666666667L87.71849999999999,83.19L87.96578125,106.39666666666666L88.128625,107.18333333333334L88.19496875,112.69L88.2356796875,100.49666666666667L88.3171015625,115.44333333333333L88.3532890625,97.74333333333334L88.43772656249999,103.64333333333333L88.5643828125,113.08333333333334L88.59303125,108.95333333333333L89.18258593750001,108.36333333333333L89.42232812499999,109.14999999999999L89.42534375,100.49666666666667L89.7344453125,107.57666666666667L89.8249140625,97.35L89.89276562500001,111.51L90.0812421875,119.37666666666667L90.54866406250001,118.59L90.74015625,94.59666666666666L90.9708515625,98.92333333333333L91.12615625,103.25L91.466921875,110.72333333333333L91.659921875,89.09L91.75491406249999,103.25L91.8906171875,96.95666666666666L92.23590625,100.10333333333332L92.24796875,113.08333333333334L92.30225,96.95666666666666L92.546515625,112.69L92.932515625,104.03666666666666L93.3320859375,115.64L93.3441484375,89.67999999999999L93.5160390625,115.44333333333333L93.70753125,97.54666666666667L93.74371875,88.69666666666667L93.807046875,101.67666666666666L93.843234375,89.09L94.229234375,84.76333333333334L94.446359375,101.28333333333333L94.50667187500001,94.20333333333333L94.64539062499999,101.67666666666666L95.1806640625,105.02L95.25153125,99.71000000000001L95.36914062499999,89.67999999999999L95.6330078125,102.07L95.75514062500001,118.59L95.8124375,95.58L95.8863203125,91.45L96.5965,75.91333333333333L96.689984375,103.64333333333333L96.7819609375,92.23666666666666L96.8256875,104.03666666666666L97.0684453125,103.64333333333333L97.100109375,106.39666666666666L97.82084375,116.62333333333333L97.8615546875,96.17L98.0515390625,105.02L98.357625,92.23666666666666L99.2366796875,99.51333333333334L99.3512734375,105.21666666666667L99.4930078125,70.99666666666666L99.52467187500001,103.64333333333333L99.5925234375,107.18333333333334L100.47911718750001,97.74333333333334L100.577125,108.16666666666667L100.91638281249999,100.89L100.954078125,94.20333333333333L101.493875,103.25L102.106046875,87.51666666666667L102.1799296875,98.92333333333333L102.498078125,108.36333333333333L102.5810078125,89.48333333333333L102.6021171875,112.69L102.6262421875,103.25L103.35602343750001,100.10333333333332L103.3771328125,104.43L103.5339453125,83.19L103.6304453125,76.11000000000001L103.7209140625,95.38333333333333L103.9425625,92.82666666666667L104.04057031250001,79.25666666666667L104.8909765625,76.50333333333333L105.055328125,113.47666666666667L105.14127343749999,73.35666666666665L105.2769765625,96.76L105.3764921875,75.32333333333334L105.49259375,100.10333333333332L106.14095312500001,80.83L106.33696875,103.25L106.4651328125,93.02333333333333L106.665671875,87.51666666666667L106.689796875,92.63L106.71090625000001,83.97666666666667L107.2250703125,85.55L107.558296875,90.86L107.6442421875,83.38666666666667L107.9216796875,89.87666666666667L107.9307265625,84.37L108.0000859375,83.58333333333333L108.2368125,93.81L108.2413359375,96.56333333333333L108.3468828125,82.6L108.7690703125,80.43666666666667L108.85803125,88.30333333333334L108.9228671875,94.99000000000001L109.2696640625,72.37333333333333L109.37671875000001,112.49333333333333L109.99190625,96.95666666666666L110.36584375,80.04333333333332L110.411078125,92.04L110.55130468750001,94.99000000000001L110.7654140625,102.85666666666667L110.77898437500001,108.75666666666667L111.020234375,102.26666666666667L111.53590625000001,89.09L111.5766171875,97.15333333333334L111.7756484375,83.19L111.79675781249999,93.41666666666667L111.87817968750001,84.96L112.52955468750001,77.68333333333334L113.1537890625,83.38666666666667L113.16886718750001,94.79333333333334L113.6212109375,97.74333333333334L113.6302578125,88.69666666666667L113.8051640625,72.57000000000001L113.9378515625,90.07333333333334L114.2816328125,101.28333333333333L114.2921875,102.07L114.63596875,80.43666666666667L114.7792109375,59.19666666666666L115.0415703125,104.23333333333333L115.6597734375,83.58333333333333L115.9326875,92.23666666666666L116.0608515625,100.10333333333332L116.2267109375,94.59666666666666L116.34884375,106.79L116.6730234375,82.79666666666665L116.90824218750001,86.33666666666666L117.21432812500001,93.81L117.4766875,92.23666666666666L117.85665625,109.93666666666667L117.86871875,72.96333333333334L117.9335546875,97.54666666666667L118.0873515625,84.56666666666666L118.1717890625,80.43666666666667L118.912125,93.81L119.234796875,90.46666666666667L119.32225,95.77666666666667L119.64039843750001,81.61666666666667L120.151546875,106.39666666666666L120.27971093750001,96.95666666666666L120.6355546875,80.83L120.652140625,81.22333333333333L120.8014140625,87.51666666666667L120.92053125,102.46333333333334L120.97179687500001,88.30333333333334L121.17685937499999,81.41999999999999L121.27034375000001,93.02333333333333L121.40453906249999,92.82666666666667L121.713640625,96.56333333333333L121.743796875,100.49666666666667L122.2006640625,86.92666666666668L122.25946875000001,79.25666666666667L123.010359375,86.73L123.10384375000001,71.39L123.6843515625,86.14L123.77783593749999,55.26333333333332L123.81251562499999,64.70333333333333L124.00099218749999,74.14333333333333L124.23771875000001,100.49666666666667L124.30255468749999,83.97666666666667L124.35834375,84.76333333333334L124.5166640625,101.67666666666666L125.07907812500001,82.79666666666665L125.284140625,85.15666666666668L125.57364062500001,77.68333333333334L125.6927578125,78.47L125.9340078125,78.86333333333334L126.22200000000001,84.76333333333334L126.43460156249999,77.28999999999999L126.6909296875,86.33666666666666L126.9683671875,100.49666666666667L127.0301875,83.58333333333333L127.0497890625,83.97666666666667L127.27143749999999,75.32333333333334L127.4930859375,80.83L127.8745625,77.28999999999999L128.37214062500001,90.27L128.66917968750002,75.91333333333333L128.697828125,67.45666666666666L128.860671875,83.97666666666667L129.656796875,80.83L129.904078125,67.85L130.12271093750002,89.87666666666667L130.3338046875,101.08666666666667L130.87209375,91.05666666666666L130.977640625,63.52333333333334L131.0093046875,78.07666666666667L131.6848046875,70.99666666666666L131.954703125,82.01L132.1552421875,81.22333333333333L132.2698359375,103.25L132.2849140625,94.99000000000001L132.666390625,62.343333333333334L133.0508828125,72.17666666666668L133.106671875,88.30333333333334L133.245390625,75.71666666666667L133.7384453125,52.903333333333336L133.957078125,69.42333333333333L134.10635156249998,97.35L134.5586953125,108.36333333333333L134.644640625,77.28999999999999L134.738125,70.21L135.3035546875,72.96333333333334L135.3246640625,91.05666666666666L135.5267109375,60.376666666666665L135.6262265625,73.94666666666667L136.17959374999998,63.52333333333334L136.2504609375,74.93L136.3469609375,73.35666666666665L136.39521093750002,88.69666666666667L136.683203125,86.73L137.03603125,79.06L137.051109375,89.09L137.370765625,90.27L137.5984453125,63.91666666666667L137.714546875,73.55333333333334L138.29807031250002,39.136666666666684L138.48654687500002,81.61666666666667L138.59058593749998,75.32333333333334L139.2495,78.27333333333333L139.3203671875,89.09L139.46059375,50.150000000000006L139.6973203125,67.85L139.78929687500002,75.71666666666667L139.91896874999998,84.76333333333334L140.1466484375,72.96333333333334L141.1795,65.88333333333334L141.279015625,74.14333333333333L141.339328125,81.22333333333333L141.4569375,64.70333333333333L141.4674921875,82.79666666666665L141.5293125,72.57000000000001L142.1324375,89.67999999999999L142.2093359375,46.609999999999985L142.25457031250002,67.45666666666666L142.8245234375,70.01333333333334L142.86221875,72.57000000000001L142.89840625000002,101.08666666666667L143.1095,76.89666666666666L143.41709375,75.32333333333334L143.8438046875,87.32L143.8649140625,54.08333333333334L144.22678906250002,78.07666666666667L144.921890625,37.95666666666668L145.3063828125,56.44333333333333L145.494859375,70.60333333333332L145.7557109375,78.07666666666667L146.3377265625,72.57000000000001L146.80514843749998,56.05L147.3027265625,72.57000000000001L147.931484375,72.17666666666668L147.937515625,78.07666666666667L148.1078984375,86.33666666666666L148.29335937500002,82.40333333333332L148.4185078125,95.38333333333333L148.5391328125,64.9L148.727609375,83.97666666666667L149.228203125,83.58333333333333L149.5885703125,59.19666666666666L149.6126953125,72.57000000000001L149.64737499999998,60.376666666666665L149.78609375,71.39L149.8056953125,88.5L149.9082265625,82.6L149.933859375,91.45L150.32136718750002,68.24333333333333L150.5626171875,66.27666666666667L151.15367968750002,63.91666666666667L151.1928828125,73.35666666666665L151.20946875,89.48333333333333L151.41151562500002,77.68333333333334L151.5411875,77.28999999999999L151.960359375,79.25666666666667L152.491109375,87.12333333333333L152.6283203125,78.86333333333334L152.895203125,69.42333333333333L152.913296875,66.67L152.9163125,65.88333333333334L153.0505078125,70.21L153.335484375,66.67L153.962734375,56.83666666666667L154.6367265625,70.60333333333332L154.74227343750002,92.23666666666666L155.81885156250002,66.86666666666666L155.8490078125,71.19333333333334L155.93042968749998,87.51666666666667L155.9756640625,62.343333333333334L156.0329609375,81.61666666666667L156.1445390625,67.06333333333335L156.58331249999998,77.68333333333334L157.38546875,74.93L157.4683984375,56.44333333333333L157.4895078125,75.71666666666667L157.60259375,56.83666666666667L157.61616406250002,69.81666666666668L157.99311718750002,69.42333333333333L159.45720312499998,56.83666666666667L159.674328125,85.15666666666668L159.72408593749998,57.623333333333335L160.4629140625,79.45333333333333L160.6770234375,65.09666666666666L160.75090624999999,29.30333333333334L160.80066406249998,82.40333333333332L161.194203125,77.68333333333334L161.29975000000002,65.88333333333334L161.531953125,44.05333333333334L161.63297656249998,81.61666666666667L161.78225,78.86333333333334L162.340140625,77.68333333333334L162.4954453125,62.736666666666665L162.49996875,61.16333333333333L163.27196874999998,73.35666666666665L163.32474218750002,63.72L163.398625,57.623333333333335L163.8253359375,78.07666666666667L164.4405234375,63.13000000000001L164.46615624999998,72.96333333333334L164.7179609375,77.28999999999999L165.6920078125,62.736666666666665L166.115703125,66.27666666666667L166.1835546875,65.49L166.2589453125,38.349999999999994L166.429328125,76.11000000000001L167.4561484375,72.37333333333333L167.478765625,72.57000000000001L167.7049375,72.96333333333334L167.8135,58.41L167.91301562499999,53.29666666666667L167.9220625,52.903333333333336L168.2281484375,56.44333333333333L169.0453828125,55.656666666666666L169.285125,56.05L169.30321875,85.94333333333333L169.3288515625,62.736666666666665L169.348453125,32.05666666666667L169.3529765625,56.05L169.7555625,65.09666666666666L170.76278125,58.01666666666665L170.8306328125,44.05333333333334L170.8396796875,73.35666666666665L172.12584375,72.96333333333334L172.13036718749998,71.39L172.30225781250002,48.77333333333334L172.49073437500002,72.96333333333334L172.4952578125,49.95333333333335L172.659609375,57.623333333333335L173.522078125,35.20333333333335L173.8643515625,57.230000000000004L173.92315624999998,69.03L174.07996874999998,57.623333333333335L174.82332031250002,47.396666666666675L175.39478125,56.05L175.66015625,72.17666666666668L175.6797578125,76.89666666666666L175.7853046875,42.67666666666668L176.682453125,54.870000000000005L176.72316406250002,83.58333333333333L176.86489843750002,37.16999999999999L176.93425781250002,63.13000000000001L177.104640625,62.736666666666665L177.2328046875,72.96333333333334L177.4408828125,48.97L177.490640625,67.45666666666666L177.544921875,72.57000000000001L178.238515625,87.91000000000001L178.702921875,22.02666666666667L178.74363281249998,75.32333333333334L178.8250546875,88.89333333333333L180.114234375,71.39L180.334375,60.376666666666665L180.36000781250002,52.50999999999999L180.657046875,48.57666666666668L180.73846875,40.71000000000001L180.9269453125,59.19666666666666L181.0053515625,54.476666666666674L181.1470859375,48.97L181.24509375,46.609999999999985L181.83615625,76.89666666666666L181.8859140625,54.08333333333334L182.3141328125,72.57000000000001L182.4769765625,50.54333333333334L182.59307812499998,67.06333333333335L182.7242578125,67.06333333333335L184.50196875,44.44666666666666L185.0764453125,79.25666666666667L185.1216796875,55.656666666666666L185.1246953125,50.93666666666667L185.608703125,51.33000000000001L186.2133359375,54.28L186.2314296875,63.91666666666667L186.3279296875,41.890000000000015L186.5872734375,46.609999999999985L187.1813515625,19.076666666666654L187.38038281250002,45.82333333333332L187.677421875,75.71666666666667L187.764875,72.57000000000001L187.8749453125,57.623333333333335L187.98803124999998,55.656666666666666L188.238328125,50.150000000000006L188.340859375,67.45666666666666L188.648453125,46.609999999999985L189.0902421875,58.80333333333333L189.1279375,80.04333333333332L189.4430703125,69.03L189.97834375000002,59L190.023578125,58.21333333333334L190.258796875,52.50999999999999L190.6945546875,52.903333333333336L190.73225,58.80333333333333L190.804625,46.21666666666667L191.024765625,37.16999999999999L191.83596875,65.88333333333334L192.4074296875,56.83666666666667L192.81303125,57.03333333333333L192.9291328125,32.843333333333334L193.527734375,67.45666666666666L193.5654296875,63.91666666666667L193.8217578125,64.11333333333333L194.0026953125,67.06333333333335L194.396234375,63.13000000000001L194.7566015625,42.67666666666668L194.857625,13.963333333333338L195.1968828125,62.343333333333334L195.2210078125,65.09666666666666L195.6899375,32.44999999999999L196.048796875,64.30999999999999L196.54788281249998,53.29666666666667L196.56145312499999,64.30999999999999L196.8765859375,32.843333333333334L196.8856328125,66.27666666666667L197.56867187499998,54.870000000000005L197.70588281250002,59.19666666666666L198.1371171875,53.69L198.37384375,80.04333333333332L198.45828125,15.143333333333345L198.5321640625,54.870000000000005L199.0237109375,17.110000000000014L199.1111640625,37.76000000000002L199.27853125000001,57.230000000000004L199.61477343750002,50.93666666666667L199.6208046875,43.06999999999999L200.141,49.75666666666666L200.27971875,45.43000000000001L200.385265625,52.11666666666666L200.8722890625,78.07666666666667L201.0713203125,59.983333333333334L202.0453671875,44.44666666666666L202.1177421875,52.70666666666668L202.5173125,57.623333333333335L202.5942109375,45.82333333333332L203.6798359375,31.269999999999982L203.7250703125,56.83666666666667L203.84117187500001,34.81L203.9844140625,56.44333333333333L204.50159374999998,49.75666666666666L204.59809375,49.75666666666666L204.6538828125,40.31666666666666L205.27359375,62.736666666666665L205.40025,50.54333333333334L205.52087500000002,52.903333333333336L205.8872734375,56.05L206.27628906249998,30.876666666666665L206.47381249999998,24.189999999999998L206.68490624999998,62.343333333333334L206.97591406249998,74.53666666666666L207.87155468749998,24.189999999999998L208.04947656250002,52.903333333333336L208.054,66.67L208.4173828125,75.71666666666667L208.48825,57.230000000000004L208.7159296875,31.663333333333327L208.72799218749998,54.476666666666674L209.2919140625,38.349999999999994L209.552765625,50.150000000000006L209.5874453125,56.83666666666667L210.0337578125,40.31666666666666L210.4589609375,35.20333333333335L210.891703125,66.67L211.1585859375,51.133333333333326L211.40134375,38.349999999999994L211.573234375,51.72333333333334L211.6531484375,22.616666666666674L211.6923515625,60.376666666666665L212.3437265625,45.03666666666666L212.50204687500002,58.41L212.54728125,61.95L212.8774921875,56.83666666666667L213.19262500000002,37.16999999999999L213.3253125,61.16333333333333L214.0807265625,59.19666666666666L214.4184765625,36.77666666666667L214.59790625,61.16333333333333L214.66877343750002,60.376666666666665L214.9070078125,46.21666666666667L215.00501562500003,62.343333333333334L215.5463203125,61.95L216.59425,28.71333333333334L216.910890625,35.400000000000006L217.04659375,14.75L217.0812734375,46.609999999999985L217.206421875,58.41L217.4341015625,49.75666666666666L217.743203125,51.72333333333334L218.4292578125,45.43000000000001L218.8996953125,54.870000000000005L218.979609375,45.82333333333332L219.0112734375,59L219.6897890625,26.55000000000001L219.7259765625,46.21666666666667L219.848109375,50.93666666666667L220.6035234375,49.36333333333333L220.6095546875,66.27666666666667L220.722640625,31.269999999999982L220.76184375,7.276666666666671L220.8688984375,40.31666666666666L221.0257109375,69.03L221.3091796875,51.72333333333334L221.42528125,22.616666666666674L222.0359453125,37.16999999999999L222.1354609375,52.11666666666666L222.61946875,51.33000000000001L224.0564140625,22.22333333333333L224.3821015625,48.97L226.171875,20.650000000000006L226.2759140625,32.44999999999999L226.7041328125,26.55000000000001L226.8488828125,45.03666666666666L226.862453125,11.603333333333353L227.7264296875,32.843333333333334L227.99029687499998,55.656666666666666L228.07774999999998,44.643333333333345L228.2451171875,39.92333333333332L228.6974609375,50.150000000000006L228.9718828125,21.436666666666667L229.00053125000002,52.903333333333336L229.5327890625,47.00333333333333L229.70920312500002,54.476666666666674L230.1525,29.69666666666666L230.191703125,49.36333333333333L230.2716171875,38.74333333333334L230.5882578125,35.20333333333335L230.87021875,39.136666666666684L231.26828125,41.890000000000015L231.3994609375,62.343333333333334L232.0357578125,47.78999999999999L232.1051171875,62.736666666666665L233.5465859375,3.3433333333333337L233.8240234375,54.476666666666674L234.4482578125,58.01666666666665L234.59753125,37.16999999999999L234.920203125,47.00333333333333L235.87615625,45.82333333333332L236.8275859375,54.476666666666674L236.8637734375,8.063333333333333L237.63878906250002,39.53L237.94638281250002,34.41666666666666L237.97804687500002,49.95333333333335L238.80734375,44.643333333333345L239.17072656250002,59.983333333333334L239.534109375,30.090000000000003L239.7436953125,32.44999999999999L239.781390625,36.58000000000001L239.8040078125,40.31666666666666L240.42070312500002,19.076666666666654L240.5247421875,58.21333333333334L240.716234375,19.863333333333344L241.234921875,37.16999999999999L241.4957734375,38.74333333333334L241.58775,38.74333333333334L241.71892968749998,29.30333333333334L241.84257031250002,29.30333333333334L242.447203125,43.26666666666668L243.42728125,20.25666666666666L243.47703906249998,18.683333333333337L243.61726562500002,35.20333333333335L243.8238359375,-2.556666666666672L244.1253984375,23.00999999999999L244.2791953125,38.349999999999994L244.5837734375,38.349999999999994L244.7134453125,29.30333333333334L244.901921875,46.21666666666667L245.24871875,44.25L245.2743515625,47.396666666666675L245.4100546875,34.02333333333334L245.450765625,25.566666666666663L246.16999218750001,31.269999999999982L246.657015625,10.030000000000001L246.9570703125,49.75666666666666L247.52853125,18.683333333333337L247.6506640625,65.09666666666666L247.8587421875,30.090000000000003L248.1934765625,39.136666666666684L248.87199218749998,42.28333333333333L249.4721015625,45.82333333333332L249.7314453125,39.53L250.3194921875,10.22666666666666L250.6361328125,24.583333333333314L250.9015078125,30.876666666666665L251.089984375,30.090000000000003L251.3960703125,55.85333333333334L251.7519140625,25.370000000000005L252.1047421875,37.56333333333333L252.16053125,48.97L252.468125,35.99000000000001L252.661125,42.28333333333333L253.0365703125,64.9L253.07878906250002,38.74333333333334L253.70453125,18.29000000000002L253.77841406250002,40.31666666666666L254.117671875,54.870000000000005L254.123703125,45.43000000000001L254.181,24.189999999999998L254.2367890625,42.67666666666668L255.45359374999998,49.95333333333335L255.5274765625,46.02000000000001L255.89990625,31.269999999999982L256.9176796875,26.156666666666666L257.217734375,40.31666666666666L257.3790703125,47.396666666666675L257.40470312499997,34.02333333333334L257.658015625,47.00333333333333L258.00179687499997,1.3766666666666652L258.79490625,34.81L258.8054609375,23.00999999999999L258.885375,49.95333333333335L258.936640625,42.67666666666668L259.02107812500003,27.336666666666673L259.11607031249997,39.53L259.31962500000003,29.30333333333334L259.94084375,57.623333333333335L260.27708593750003,64.30999999999999L260.5846796875,41.890000000000015L260.601265625,21.829999999999984L260.7746640625,42.28333333333333L261.39588281249996,13.569999999999993L261.4773046875,63.52333333333334L261.9371875,68.63666666666667L262.0020234375,25.76333333333332L262.0110703125,24.189999999999998L262.1166171875,23.599999999999994L262.11812499999996,64.70333333333333L262.1196328125,49.75666666666666L262.121140625,33.23666666666668L262.1226484375,67.85L262.12415625,47.396666666666675L262.1256640625,29.30333333333334L262.1286796875,35.20333333333335L262.13018750000003,33.629999999999995L262.13169531249997,25.370000000000005L262.133203125,56.05L262.139234375,38.74333333333334L262.14225,24.386666666666656L262.1437578125,42.47999999999999L262.145265625,45.82333333333332L262.14828125,40.31666666666666L262.151296875,43.06999999999999L262.1528046875,36.77666666666667L262.1543125,4.1299999999999955L262.1558203125,37.95666666666668L262.157328125,24.97666666666666L262.1588359375,32.05666666666667L262.16034375,35.596666666666664L262.163359375,23.403333333333336L262.16486718749996,48.18333333333334L262.166375,46.80666666666667L262.1678828125,3.3433333333333337L262.169390625,49.75666666666666L262.1708984375,29.69666666666666L262.17240625,10.030000000000001L262.1739140625,24.583333333333314L262.175421875,29.69666666666666L262.1799453125,67.06333333333335L262.181453125,11.603333333333353L262.18446875,3.7366666666666504L262.1859765625,51.72333333333334L262.1905,31.663333333333327L262.1920078125,46.21666666666667L262.193515625,21.829999999999984L262.1950234375,17.896666666666675L262.19653124999996,11.99666666666667L262.199546875,47.396666666666675L262.2010546875,54.08333333333334L262.2040703125,43.66L262.205578125,35.99000000000001L262.20859375000003,30.876666666666665L262.2101015625,45.82333333333332L262.211609375,-22.223333333333358L262.2131171875,48.57666666666668L262.2161328125,47.396666666666675L262.217640625,51.72333333333334L262.22065625,26.55000000000001L262.2221640625,36.77666666666667L262.223671875,10.816666666666663L262.2266875,53.886666666666656L262.22819531249996,37.56333333333333L262.229703125,32.44999999999999L262.2312109375,55.26333333333332L262.2342265625,49.75666666666666L262.2372421875,48.97L262.24025781250003,49.75666666666666L262.241765625,10.816666666666663L262.24478125,42.28333333333333L262.2462890625,18.29000000000002L262.247796875,40.71000000000001L262.2493046875,21.24000000000001L262.2523203125,25.76333333333332L262.25684375,22.616666666666674L262.2583515625,28.51666666666665L262.259859375,-3.7366666666666504L262.2613671875,51.33000000000001" style="fill: none;" fill="none"></path></g></g></g></g></g></g><g transform="translate(58, 177)" clip-path="url(#clip_1)"><clipPath id="clip_1"><rect width="271" height="23"></rect></clipPath><g><g><line x1="0" y1="0" x2="0" y2="5" style="visibility: inherit;" fill="rgb(0, 0, 0)" stroke="rgb(204, 204, 204)" stroke-width="1px"></line><line x1="30.15625" y1="0" x2="30.15625" y2="5" style="visibility: inherit;" fill="rgb(0, 0, 0)" stroke="rgb(204, 204, 204)" stroke-width="1px"></line><line x1="60.3125" y1="0" x2="60.3125" y2="5" style="visibility: inherit;" fill="rgb(0, 0, 0)" stroke="rgb(204, 204, 204)" stroke-width="1px"></line><line x1="90.46875" y1="0" x2="90.46875" y2="5" style="visibility: inherit;" fill="rgb(0, 0, 0)" stroke="rgb(204, 204, 204)" stroke-width="1px"></line><line x1="120.625" y1="0" x2="120.625" y2="5" style="visibility: inherit;" fill="rgb(0, 0, 0)" stroke="rgb(204, 204, 204)" stroke-width="1px"></line><line x1="150.78125" y1="0" x2="150.78125" y2="5" style="visibility: inherit;" fill="rgb(0, 0, 0)" stroke="rgb(204, 204, 204)" stroke-width="1px"></line><line x1="180.9375" y1="0" x2="180.9375" y2="5" style="visibility: inherit;" fill="rgb(0, 0, 0)" stroke="rgb(204, 204, 204)" stroke-width="1px"></line><line x1="211.09375" y1="0" x2="211.09375" y2="5" style="visibility: inherit;" fill="rgb(0, 0, 0)" stroke="rgb(204, 204, 204)" stroke-width="1px"></line><line x1="241.25" y1="0" x2="241.25" y2="5" style="visibility: inherit;" fill="rgb(0, 0, 0)" stroke="rgb(204, 204, 204)" stroke-width="1px"></line><line x1="271.40625" y1="0" x2="271.40625" y2="5" style="visibility: inherit;" fill="rgb(0, 0, 0)" stroke="rgb(204, 204, 204)" stroke-width="1px"></line></g><g transform="translate(0, 8)"><text x="0" y="0" dx="0em" dy="0.95em" style="text-anchor: middle; visibility: hidden; font-family: &quot;Helvetica Neue&quot;, sans-serif; font-size: 12px; font-weight: 200;" fill="rgb(50, 49, 63)" stroke="none" stroke-width="1px">-20k</text><text x="30.15625" y="0" dx="0em" dy="0.95em" style="text-anchor: middle; visibility: inherit; font-family: &quot;Helvetica Neue&quot;, sans-serif; font-size: 12px; font-weight: 200;" fill="rgb(50, 49, 63)" stroke="none" stroke-width="1px">0</text><text x="60.3125" y="0" dx="0em" dy="0.95em" style="text-anchor: middle; visibility: hidden; font-family: &quot;Helvetica Neue&quot;, sans-serif; font-size: 12px; font-weight: 200;" fill="rgb(50, 49, 63)" stroke="none" stroke-width="1px">20k</text><text x="90.46875" y="0" dx="0em" dy="0.95em" style="text-anchor: middle; visibility: inherit; font-family: &quot;Helvetica Neue&quot;, sans-serif; font-size: 12px; font-weight: 200;" fill="rgb(50, 49, 63)" stroke="none" stroke-width="1px">40k</text><text x="120.625" y="0" dx="0em" dy="0.95em" style="text-anchor: middle; visibility: hidden; font-family: &quot;Helvetica Neue&quot;, sans-serif; font-size: 12px; font-weight: 200;" fill="rgb(50, 49, 63)" stroke="none" stroke-width="1px">60k</text><text x="150.78125" y="0" dx="0em" dy="0.95em" style="text-anchor: middle; visibility: inherit; font-family: &quot;Helvetica Neue&quot;, sans-serif; font-size: 12px; font-weight: 200;" fill="rgb(50, 49, 63)" stroke="none" stroke-width="1px">80k</text><text x="180.9375" y="0" dx="0em" dy="0.95em" style="text-anchor: middle; visibility: hidden; font-family: &quot;Helvetica Neue&quot;, sans-serif; font-size: 12px; font-weight: 200;" fill="rgb(50, 49, 63)" stroke="none" stroke-width="1px">100k</text><text x="211.09375" y="0" dx="0em" dy="0.95em" style="text-anchor: middle; visibility: inherit; font-family: &quot;Helvetica Neue&quot;, sans-serif; font-size: 12px; font-weight: 200;" fill="rgb(50, 49, 63)" stroke="none" stroke-width="1px">120k</text><text x="241.25" y="0" dx="0em" dy="0.95em" style="text-anchor: middle; visibility: hidden; font-family: &quot;Helvetica Neue&quot;, sans-serif; font-size: 12px; font-weight: 200;" fill="rgb(50, 49, 63)" stroke="none" stroke-width="1px">140k</text><text x="271.40625" y="0" dx="0em" dy="0.95em" style="text-anchor: middle; visibility: hidden; font-family: &quot;Helvetica Neue&quot;, sans-serif; font-size: 12px; font-weight: 200;" fill="rgb(50, 49, 63)" stroke="none" stroke-width="1px">160k</text></g><line x1="0" y1="0" x2="271.40625" y2="0" fill="rgb(0, 0, 0)" stroke="rgb(204, 204, 204)" stroke-width="1px"></line></g></g></g></g></svg>