<svg viewBox="0 0 330 200" xmlns="http://www.w3.org/2000/svg"><g><g><g><g><g><line x1="68.3125" y1="177" x2="63.3125" y2="177" style="visibility: inherit;" fill="rgb(0, 0, 0)" stroke="rgb(204, 204, 204)" stroke-width="1px"></line><line x1="68.3125" y1="163.3846153846154" x2="63.3125" y2="163.3846153846154" style="visibility: inherit;" fill="rgb(0, 0, 0)" stroke="rgb(204, 204, 204)" stroke-width="1px"></line><line x1="68.3125" y1="149.76923076923077" x2="63.3125" y2="149.76923076923077" style="visibility: inherit;" fill="rgb(0, 0, 0)" stroke="rgb(204, 204, 204)" stroke-width="1px"></line><line x1="68.3125" y1="136.15384615384616" x2="63.3125" y2="136.15384615384616" style="visibility: inherit;" fill="rgb(0, 0, 0)" stroke="rgb(204, 204, 204)" stroke-width="1px"></line><line x1="68.3125" y1="122.53846153846153" x2="63.3125" y2="122.53846153846153" style="visibility: inherit;" fill="rgb(0, 0, 0)" stroke="rgb(204, 204, 204)" stroke-width="1px"></line><line x1="68.3125" y1="108.92307692307692" x2="63.3125" y2="108.92307692307692" style="visibility: inherit;" fill="rgb(0, 0, 0)" stroke="rgb(204, 204, 204)" stroke-width="1px"></line><line x1="68.3125" y1="95.3076923076923" x2="63.3125" y2="95.3076923076923" style="visibility: inherit;" fill="rgb(0, 0, 0)" stroke="rgb(204, 204, 204)" stroke-width="1px"></line><line x1="68.3125" y1="81.6923076923077" x2="63.3125" y2="81.6923076923077" style="visibility: inherit;" fill="rgb(0, 0, 0)" stroke="rgb(204, 204, 204)" stroke-width="1px"></line><line x1="68.3125" y1="68.07692307692307" x2="63.3125" y2="68.07692307692307" style="visibility: inherit;" fill="rgb(0, 0, 0)" stroke="rgb(204, 204, 204)" stroke-width="1px"></line><line x1="68.3125" y1="54.46153846153847" x2="63.3125" y2="54.46153846153847" style="visibility: inherit;" fill="rgb(0, 0, 0)" stroke="rgb(204, 204, 204)" stroke-width="1px"></line><line x1="68.3125" y1="40.84615384615384" x2="63.3125" y2="40.84615384615384" style="visibility: inherit;" fill="rgb(0, 0, 0)" stroke="rgb(204, 204, 204)" stroke-width="1px"></line><line x1="68.3125" y1="27.230769230769226" x2="63.3125" y2="27.230769230769226" style="visibility: inherit;" fill="rgb(0, 0, 0)" stroke="rgb(204, 204, 204)" stroke-width="1px"></line><line x1="68.3125" y1="13.615384615384613" x2="63.3125" y2="13.615384615384613" style="visibility: inherit;" fill="rgb(0, 0, 0)" stroke="rgb(204, 204, 204)" stroke-width="1px"></line><line x1="68.3125" y1="0" x2="63.3125" y2="0" style="visibility: inherit;" fill="rgb(0, 0, 0)" stroke="rgb(204, 204, 204)" stroke-width="1px"></line></g><g transform="translate(58.3125, 0)"><text x="0" y="177" dx="0em" dy="0.3em" style="text-anchor: end; visibility: hidden; font-family: &quot;Helvetica Neue&quot;, sans-serif; font-size: 12px; font-weight: 200;" fill="rgb(50, 49, 63)" stroke="none" stroke-width="1px">-1e+5</text><text x="0" y="163.3846153846154" dx="0em" dy="0.3em" style="text-anchor: end; visibility: inherit; font-family: &quot;Helvetica Neue&quot;, sans-serif; font-size: 12px; font-weight: 200;" fill="rgb(50, 49, 63)" stroke="none" stroke-width="1px">0</text><text x="0" y="149.76923076923077" dx="0em" dy="0.3em" style="text-anchor: end; visibility: hidden; font-family: &quot;Helvetica Neue&quot;, sans-serif; font-size: 12px; font-weight: 200;" fill="rgb(50, 49, 63)" stroke="none" stroke-width="1px">1e+5</text><text x="0" y="136.15384615384616" dx="0em" dy="0.3em" style="text-anchor: end; visibility: inherit; font-family: &quot;Helvetica Neue&quot;, sans-serif; font-size: 12px; font-weight: 200;" fill="rgb(50, 49, 63)" stroke="none" stroke-width="1px">2e+5</text><text x="0" y="122.53846153846153" dx="0em" dy="0.3em" style="text-anchor: end; visibility: hidden; font-family: &quot;Helvetica Neue&quot;, sans-serif; font-size: 12px; font-weight: 200;" fill="rgb(50, 49, 63)" stroke="none" stroke-width="1px">3e+5</text><text x="0" y="108.92307692307692" dx="0em" dy="0.3em" style="text-anchor: end; visibility: inherit; font-family: &quot;Helvetica Neue&quot;, sans-serif; font-size: 12px; font-weight: 200;" fill="rgb(50, 49, 63)" stroke="none" stroke-width="1px">4e+5</text><text x="0" y="95.3076923076923" dx="0em" dy="0.3em" style="text-anchor: end; visibility: hidden; font-family: &quot;Helvetica Neue&quot;, sans-serif; font-size: 12px; font-weight: 200;" fill="rgb(50, 49, 63)" stroke="none" stroke-width="1px">5e+5</text><text x="0" y="81.6923076923077" dx="0em" dy="0.3em" style="text-anchor: end; visibility: inherit; font-family: &quot;Helvetica Neue&quot;, sans-serif; font-size: 12px; font-weight: 200;" fill="rgb(50, 49, 63)" stroke="none" stroke-width="1px">6e+5</text><text x="0" y="68.07692307692307" dx="0em" dy="0.3em" style="text-anchor: end; visibility: hidden; font-family: &quot;Helvetica Neue&quot;, sans-serif; font-size: 12px; font-weight: 200;" fill="rgb(50, 49, 63)" stroke="none" stroke-width="1px">7e+5</text><text x="0" y="54.46153846153847" dx="0em" dy="0.3em" style="text-anchor: end; visibility: inherit; font-family: &quot;Helvetica Neue&quot;, sans-serif; font-size: 12px; font-weight: 200;" fill="rgb(50, 49, 63)" stroke="none" stroke-width="1px">8e+5</text><text x="0" y="40.84615384615384" dx="0em" dy="0.3em" style="text-anchor: end; visibility: hidden; font-family: &quot;Helvetica Neue&quot;, sans-serif; font-size: 12px; font-weight: 200;" fill="rgb(50, 49, 63)" stroke="none" stroke-width="1px">9e+5</text><text x="0" y="27.230769230769226" dx="0em" dy="0.3em" style="text-anchor: end; visibility: inherit; font-family: &quot;Helvetica Neue&quot;, sans-serif; font-size: 12px; font-weight: 200;" fill="rgb(50, 49, 63)" stroke="none" stroke-width="1px">1e+6</text><text x="0" y="13.615384615384613" dx="0em" dy="0.3em" style="text-anchor: end; visibility: hidden; font-family: &quot;Helvetica Neue&quot;, sans-serif; font-size: 12px; font-weight: 200;" fill="rgb(50, 49, 63)" stroke="none" stroke-width="1px">1.1e+6</text><text x="0" y="0" dx="0em" dy="0.3em" style="text-anchor: end; visibility: hidden; font-family: &quot;Helvetica Neue&quot;, sans-serif; font-size: 12px; font-weight: 200;" fill="rgb(50, 49, 63)" stroke="none" stroke-width="1px">1.2e+6</text></g><line x1="68.3125" y1="0" x2="68.3125" y2="177" fill="rgb(0, 0, 0)" stroke="rgb(204, 204, 204)" stroke-width="1px"></line></g></g><g transform="translate(68, 0)" clip-path="url(#clip_0)"><clipPath id="clip_0"><rect width="261" height="177"></rect></clipPath><g><g><g><line x1="0" y1="0" x2="0" y2="177" fill="rgb(0, 0, 0)" stroke="rgb(60, 60, 60)" stroke-width="1px" opacity="0.25"></line><line x1="29.076388888888886" y1="0" x2="29.076388888888886" y2="177" fill="rgb(0, 0, 0)" stroke="rgb(60, 60, 60)" stroke-width="1px" opacity="0.25"></line><line x1="58.15277777777777" y1="0" x2="58.15277777777777" y2="177" fill="rgb(0, 0, 0)" stroke="rgb(60, 60, 60)" stroke-width="1px" opacity="0.25"></line><line x1="87.22916666666666" y1="0" x2="87.22916666666666" y2="177" fill="rgb(0, 0, 0)" stroke="rgb(60, 60, 60)" stroke-width="1px" opacity="0.25"></line><line x1="116.30555555555554" y1="0" x2="116.30555555555554" y2="177" fill="rgb(0, 0, 0)" stroke="rgb(60, 60, 60)" stroke-width="1px" opacity="0.25"></line><line x1="145.38194444444446" y1="0" x2="145.38194444444446" y2="177" fill="rgb(0, 0, 0)" stroke="rgb(60, 60, 60)" stroke-width="1px" opacity="0.25"></line><line x1="174.45833333333331" y1="0" x2="174.45833333333331" y2="177" fill="rgb(0, 0, 0)" stroke="rgb(60, 60, 60)" stroke-width="1px" opacity="0.25"></line><line x1="203.53472222222223" y1="0" x2="203.53472222222223" y2="177" fill="rgb(0, 0, 0)" stroke="rgb(60, 60, 60)" stroke-width="1px" opacity="0.25"></line><line x1="232.6111111111111" y1="0" x2="232.6111111111111" y2="177" fill="rgb(0, 0, 0)" stroke="rgb(60, 60, 60)" stroke-width="1px" opacity="0.25"></line><line x1="261.6875" y1="0" x2="261.6875" y2="177" fill="rgb(0, 0, 0)" stroke="rgb(60, 60, 60)" stroke-width="1px" opacity="0.25"></line></g><g><line x1="0" y1="177" x2="261.6875" y2="177" fill="rgb(0, 0, 0)" stroke="rgb(60, 60, 60)" stroke-width="1px" opacity="0.25"></line><line x1="0" y1="163.3846153846154" x2="261.6875" y2="163.3846153846154" fill="rgb(0, 0, 0)" stroke="rgb(60, 60, 60)" stroke-width="1px" opacity="0.25"></line><line x1="0" y1="149.76923076923077" x2="261.6875" y2="149.76923076923077" fill="rgb(0, 0, 0)" stroke="rgb(60, 60, 60)" stroke-width="1px" opacity="0.25"></line><line x1="0" y1="136.15384615384616" x2="261.6875" y2="136.15384615384616" fill="rgb(0, 0, 0)" stroke="rgb(60, 60, 60)" stroke-width="1px" opacity="0.25"></line><line x1="0" y1="122.53846153846153" x2="261.6875" y2="122.53846153846153" fill="rgb(0, 0, 0)" stroke="rgb(60, 60, 60)" stroke-width="1px" opacity="0.25"></line><line x1="0" y1="108.92307692307692" x2="261.6875" y2="108.92307692307692" fill="rgb(0, 0, 0)" stroke="rgb(60, 60, 60)" stroke-width="1px" opacity="0.25"></line><line x1="0" y1="95.3076923076923" x2="261.6875" y2="95.3076923076923" fill="rgb(0, 0, 0)" stroke="rgb(60, 60, 60)" stroke-width="1px" opacity="0.25"></line><line x1="0" y1="81.6923076923077" x2="261.6875" y2="81.6923076923077" fill="rgb(0, 0, 0)" stroke="rgb(60, 60, 60)" stroke-width="1px" opacity="0.25"></line><line x1="0" y1="68.07692307692307" x2="261.6875" y2="68.07692307692307" fill="rgb(0, 0, 0)" stroke="rgb(60, 60, 60)" stroke-width="1px" opacity="0.25"></line><line x1="0" y1="54.46153846153847" x2="261.6875" y2="54.46153846153847" fill="rgb(0, 0, 0)" stroke="rgb(60, 60, 60)" stroke-width="1px" opacity="0.25"></line><line x1="0" y1="40.84615384615384" x2="261.6875" y2="40.84615384615384" fill="rgb(0, 0, 0)" stroke="rgb(60, 60, 60)" stroke-width="1px" opacity="0.25"></line><line x1="0" y1="27.230769230769226" x2="261.6875" y2="27.230769230769226" fill="rgb(0, 0, 0)" stroke="rgb(60, 60, 60)" stroke-width="1px" opacity="0.25"></line><line x1="0" y1="13.615384615384613" x2="261.6875" y2="13.615384615384613" fill="rgb(0, 0, 0)" stroke="rgb(60, 60, 60)" stroke-width="1px" opacity="0.25"></line><line x1="0" y1="0" x2="261.6875" y2="0" fill="rgb(0, 0, 0)" stroke="rgb(60, 60, 60)" stroke-width="1px" opacity="0.25"></line></g></g></g><g><g><line x1="0" y1="163.3846153846154" x2="261.6875" y2="163.3846153846154" fill="rgb(0, 0, 0)" stroke="rgb(153, 153, 153)" stroke-width="1.5px"></line></g></g><g><g><line x1="29.076388888888886" y1="0" x2="29.076388888888886" y2="177" fill="rgb(0, 0, 0)" stroke="rgb(153, 153, 153)" stroke-width="1.5px"></line></g></g><g><g><g><g><g><path stroke="rgb(255, 112, 67)" stroke-width="2px" d="M30.13622326388889,162.78336L30.28451284722222,162.73391465587045L30.32521979166667,162.7452268748226L30.338304166666667,162.7399245872011L30.367380555555556,162.739060709854L30.445886805555556,162.7324750647312L30.49677048611111,162.7530332380632L30.550561805555557,162.74516184559428L30.56800763888889,162.74526300680782L30.655236805555553,162.74245783341263L30.678497916666664,162.73883490642436L30.682859375,162.74373065952136L30.684313194444446,162.74526529191888L30.69012847222222,162.75142288377447L30.701759027777776,162.7447972906899L30.719204861111113,162.74030553857867L30.73810451388889,162.73758025314856L30.787534375,162.73743984574307L30.796257291666667,162.74383524651967L31.569689236111113,162.739778868717L31.61185,162.7315398627571L31.642380208333336,162.7222305877002L31.853184027777775,162.61046808771556L31.872083680555555,162.61108695117306L31.914244444444442,162.59337163060306L32.20500833333333,162.5982681429046L32.21954652777777,162.60360864673828L32.34748263888889,162.46143289384315L32.38528194444444,162.41724515105915L32.401273958333334,162.44522608797087L32.44634236111111,162.4616813582677L32.45506527777778,162.48147160302707L32.513218055555555,162.49677521888157L32.57137083333333,162.3785438864478L32.654238541666665,162.40281811960662L32.692037847222224,162.42690085308797L32.722568055555556,162.40580582348008L32.81415868055556,162.31521702251698L32.863588541666665,162.35154501926323L32.97989409722222,162.26687923615378L32.99443229166666,162.30556267967458L33.090384375,162.34014101675746L33.10783020833333,162.37321903172213L33.177613541666666,162.3360058603748L33.22268194444444,162.29177352380754L33.235766319444444,162.26643397115748L33.25611979166666,162.26145134864203L33.266296527777776,162.28533804345702L33.275019444444446,162.3155436706638L33.320087847222226,162.2367803752784L33.39568645833333,162.2708875403461L33.41894756944444,162.31395472662112L33.42767048611111,162.28606925462364L33.49454618055555,162.3100510363487L33.65592013888889,162.34650525673464L33.69662708333333,162.2390652298531L33.75332604166667,162.28105845238792L33.85363958333333,162.15905563239L33.943776388888885,162.1596461713441L33.945230208333335,162.01687668828583L33.94813784722222,162.02938956434L33.952499305555556,162.08354374124536L33.95976840277778,161.98227454855535L33.96122222222222,162.0345059062038L34.017921180555554,162.091561242564L34.02228263888889,162.1354720533493L34.07316631944444,162.14903781553974L34.08334305555555,162.19476455993842L34.20255625,162.23641602471335L34.227271180555555,162.2531884699613L34.27524722222222,162.29322550837915L34.31886180555556,162.32426878982326L34.37556076388889,162.30583679924402L34.41772152777778,162.19567344673544L34.45406701388889,162.193948309935L34.47442048611111,162.18489123225928L34.59654131944444,162.18143915139999L34.69540104166666,162.22919965676172L34.72593125,162.20045202030505L34.74628472222222,162.24339404616603L34.75791527777778,162.27533999991118L34.81025277777778,162.22333664333394L34.87858229166667,162.0153035383102L34.88294375,161.806455709536L34.893120486111115,161.71200726176306L34.944004166666666,161.63422296587788L34.97162673611111,161.64079974115006L35.009426041666664,161.6103622121962L35.08793229166667,161.43077694445668L35.105378124999994,161.38007246440128L35.130093055555555,161.33547400646196L35.16207708333333,161.15666834208406L35.17370763888889,161.30342927337716L35.21296076388889,161.28331218674214L35.220229861111115,161.3270917065874L35.23186041666666,161.2865265090813L35.26093680555555,161.3607424853381L35.308912847222224,161.27934164444315L35.31182048611111,161.28031466256135L35.32345104166667,161.22377277139657L35.332173958333335,161.35232679814345L35.38014999999999,161.329104080237L35.39614201388889,161.45862941101515L35.406318750000004,161.38903533402535L35.452840972222226,161.48601655246878L35.471740625,161.37082211731226L35.47610208333333,161.3391737342818L35.55751597222222,161.38027929238524L35.570600347222225,161.27228248258234L35.59531527777777,161.18793860702897L35.61712256944445,161.24407236806107L35.65346805555556,161.38480887932906L35.65637569444444,161.29179944036125L35.682544444444446,161.20682482613955L35.72179756944444,161.28290899038058L35.73197430555555,161.22751128022006L35.756689236111114,161.17145836543932L35.76977361111111,161.1462674284661L35.79012708333334,161.12251998502782L35.80175763888889,161.16463604560508L35.867179513888885,161.1268931775055L35.90061736111111,161.06000253094368L36.00238472222222,160.9615825076952L36.03436875,160.9710491231365L36.07216805555555,160.94600708614868L36.09252152777778,161.0058016339966L36.10124444444445,161.10627670270762L36.130320833333336,161.06453951288017L36.15358194444445,161.0813287364429L36.204465625,161.00886478120648L36.26407222222222,160.92225744608965L36.33967083333334,161.00956093495063L36.34984756944444,161.0893594454182L36.383285416666666,161.0847821128795L36.44725347222222,160.92998095251457L36.455976388888885,160.89839853067235L36.49086805555556,160.83600395169498L36.570828125000006,160.78397430053786L36.61589652777778,160.72226599741165L36.621711805555556,160.815585588154L36.65660347222222,160.88887151677196L36.69294895833333,160.88848105727828L36.740925,160.81829631607854L36.771455208333336,160.87209985217586L36.784539583333334,160.91175472230518L36.81797743055556,160.93996925596147L36.844146180555555,160.88289393503234L36.90229895833334,160.92127877878545L36.97935138888889,160.9869499108956L37.03605034722222,160.88443929038857L37.07966493055556,160.8968820551904L37.081118749999995,160.86219669197922L37.11601041666667,160.8283929424848L37.13781770833333,160.81211595446672L37.15671736111111,160.88220882622434L37.158171180555556,160.82945270899467L37.225046875,160.7507657406355L37.22940833333334,160.66194793056894L37.283199652777775,160.6800699077039L37.379151736111105,160.60556506722347L37.39078229166667,160.58922802133776L37.432943055555555,160.77676761107008L37.47365,160.68319838516877L37.48964201388889,160.78874370380333L37.53761805555556,160.7593307172094L37.57687118055556,160.68802356675658L37.60158611111111,160.63201636264847L37.79930555555555,160.6867751121241L37.82402048611111,160.66302506201097L37.83274340277777,160.5992380932098L37.84146631944444,160.68458713132108L37.844373958333335,160.7121816493302L37.86908888888889,160.6952719457305L37.89235,160.7094488282353L37.902526736111106,160.7841988692233L37.98103298611112,160.7155379047706L38.05517777777778,160.61738995966613L38.06826215277778,160.71054988744385L38.10751527777777,160.7884711299711L38.10896909722222,160.78289870924937L38.110422916666664,160.64505183760448L38.1540375,160.72591480807029L38.167121875,160.74941740428577L38.27615833333333,160.66441058661044L38.380833333333335,160.75538729749192L38.440439930555556,160.81309902945918L38.54366111111111,160.72030804933263L38.574191319444445,160.63567970572643L38.57855277777778,160.55819350421035L38.68177395833334,160.58974076923775L38.690496875,160.52530361527357L38.709396527777784,160.40199717662105L38.71230416666667,160.43390122823678L38.72102708333333,160.36255541301068L38.75446493055556,160.42971902563602L38.81843298611111,160.3608609691522L38.83006354166667,160.3288017183598L38.92310798611111,160.3544507773154L38.93037708333333,160.4567628535102L39.027782986111106,160.54663802976106L39.045228819444446,160.62869661145245L39.10338159722222,160.5325204117907L39.206602777777775,160.5676152937066L39.25603263888889,160.64776676437305L39.27493229166667,160.71257801103965L39.318546874999996,160.74684974841009L39.344715625000006,160.7301766197173L39.39559930555556,160.63516680387056L39.39850694444444,160.6108318927076L39.41159131944444,160.66800862652784L39.42176805555555,160.6277272254046L39.51772013888889,160.67180473364215L39.522081597222225,160.70434002951455L39.68781701388889,160.65793387270944L39.69072465277778,160.60884325466213L39.71253194444444,160.51718485226087L39.759054166666665,160.51087036703404L39.83029131944445,160.62537033034278L39.85791388888889,160.70162522039269L39.89135173611111,160.59770685219064L39.91461284722222,160.5271086285046L39.91897430555556,160.5034496887294L39.929151041666664,160.59504179678527L39.93642013888889,160.6666232324954L39.97858090277778,160.69235160155483L39.981488541666664,160.58266182600974L40.00329583333334,160.6363652587956L40.04545659722223,160.6428582713778L40.093432638888885,160.63529082885518L40.22863784722222,160.60499359212258L40.25189895833333,160.66961630983513L40.31586701388889,160.6134756019272L40.416180555555556,160.6789384263513L40.417634375,160.63422827602298L40.423449652777784,160.66647744842123L40.452526041666665,160.71471301127218L40.45397986111111,160.6857728639907L40.481602430555554,160.76279519297725L40.497594444444445,160.77350105829504L40.51213263888889,160.79933864477348L40.51504027777778,160.85171578029664L40.54557048611111,160.8795485868826L40.56737777777778,160.92160372819464L40.61244618055555,160.94714504768305L40.629892013888885,161.06595731214625L40.67205277777777,160.98573127323886L40.70403680555556,161.00466922283815L40.718574999999994,160.9693486082465L40.797081250000005,160.88934797819076L40.87849513888889,160.80386818037135L40.980262499999995,160.714260439257L41.07621458333333,160.71167047225438L41.093660416666665,160.76290242502907L41.16925902777778,160.70068718252602L41.18525104166666,160.75480107965814L41.23758854166667,160.7072428178461L41.24485763888889,160.7174042283692L41.26375729166667,160.64883288245525L41.279749305555555,160.67854597882513L41.28265694444445,160.73360776555808L41.28411076388889,160.6607882966945L41.30591805555556,160.65631577471734L41.44257708333333,160.6208661972456L41.4513,160.66252550059798L41.52980625,160.69180879669204L41.60249722222222,160.6995651477921L41.68100347222222,160.73866455608982L41.830746874999996,160.59600986971154L41.839469791666666,160.54047657504805L41.97031354166666,160.52966807138938L41.995028472222224,160.52432457194274L42.06045034722222,160.49954165321L42.106972569444444,160.57639787250443L42.20728611111112,160.58108600833089L42.23054722222223,160.46603456134395L42.255262152777775,160.54571048982496L42.272707986111115,160.49760344084245L42.275615625,160.51003486598896L42.33522222222222,160.581008302467L42.516949652777775,160.4168267029895L42.56637951388889,160.3766248019213L42.61290173611111,160.43449816788305L42.76991423611111,160.40531396647935L42.85714340277778,160.46524718521604L42.8644125,160.51876500515598L42.90075798611111,160.562043120025L42.94437256944445,160.5175175003302L43.01560972222222,160.45629975029718L43.04177847222222,160.45134923680592L43.11010798611111,160.48150408235608L43.278751041666666,160.4549035202743L43.396510416666665,160.42540793747767L43.419771527777776,160.38949452834527L43.531715625,160.3514676139723L43.63348298611111,160.35066916026736L43.63784444444444,160.33679809039447L43.67855138888889,160.36638566597043L43.68436666666666,160.41813486860414L43.72798125,160.45151584328218L43.748334722222225,160.4359607974155L43.75269618055556,160.4002719484432L43.81230277777778,160.42633052282963L43.823933333333336,160.5109843936236L43.89080902777778,160.43357772349202L43.924246875,160.5054300280659L43.94750798611111,160.44096879449006L44.12196631944445,160.4648774535026L44.21355694444444,160.4002915543062L44.276071180555554,160.45438224502942L44.28188645833333,160.3559496359111L44.34730833333333,160.32075982616612L44.44471423611112,160.1546915358572L44.46070625,160.19154299765611L44.58864236111111,160.16815100558279L44.71948611111111,160.21949121271683L44.72820902777778,160.204046937599L44.892490625,160.13247232076216L44.918659375,160.12552570407058L44.94628194444444,160.11027397981735L44.96518159722222,160.19102458183562L45.13237083333333,160.20409196980592L45.206515624999994,160.1766675420561L45.21523854166667,160.18614655708126L45.29229097222222,160.20163513214234L45.37079722222222,160.27662623431274L45.431857638888886,160.32312330318916L45.597593055555556,160.3330834344087L45.64556909722222,160.27111139866014L45.686276041666666,160.32385118187105L45.767689930555555,160.33979737137625L45.79967395833333,160.40777994193093L45.80403541666667,160.43703617850707L45.92615625,160.2417764068102L45.94941736111111,160.27156684305226L45.961047916666665,160.28052846643934L46.00030104166667,160.2592119274877L46.094799305555554,160.26472535012357L46.12678333333333,160.21067835357275L46.134052430555556,160.26457351821546L46.333225694444444,160.31317447408622L46.36957118055555,160.31436725744683L46.42045486111112,160.3355370701637L46.610905208333335,160.2917821323781L46.724303125,160.21082130375567L46.775186805555556,160.24393871184165L46.79408645833334,160.2262947637344L46.85950833333334,160.19392697966865L46.86823125,160.15821974324024L46.89149236111111,160.21810961507006L46.89585381944445,160.1826118843323L47.013613194444446,160.1755392343606L47.035420486111114,160.0768751570784L47.0514125,159.95836871829363L47.10084236111111,160.01517923107966L47.15754131944445,160.06749323104862L47.199702083333335,160.0939076771745L47.234593749999995,160.06946860176475L47.39160625,160.14992920312673L47.39451388888889,160.2157675135833L47.39887534722222,160.22275253145574L47.46720486111111,160.19027604754092L47.468658680555556,160.25039136586378L47.52535763888889,160.26221938312355L47.611132986111116,160.23841767558042L47.699815972222225,160.13865321571467L47.810306250000004,160.12293289414322L47.95132673611111,160.11935014319045L48.07926284722222,160.12346435964062L48.11996979166667,160.1192021544458L48.124331250000004,160.15702924669353L48.22319097222223,160.13708862971646L48.23772916666666,160.03845730520635L48.25808263888889,160.10445519007035L48.391834027777776,160.15624228644793L48.39328784722222,160.189425903957L48.409279861111116,160.24408477509974L48.45434826388889,160.27843698989744L48.58955347222222,160.22847859860002L48.64043715277778,160.29060104643233L48.659336805555554,160.25086317255833L48.67242118055555,160.2478168553025L48.84251805555556,160.14214286207994L48.87740972222222,160.08564949894887L48.948646875,160.10913185674627L48.95300833333333,160.01872874799474L48.973361805555555,159.95208418088757L49.009707291666665,160.03099460895265L49.046052777777774,160.01840191728817L49.14055104166667,160.07254487940548L49.195796180555554,160.00909639146494L49.29029444444444,160.0607115984723L49.332455208333336,160.0880356693943L49.39206180555556,160.0127176409164L49.43131493055556,160.0677694152863L49.48946770833333,160.12383778145L49.59414270833334,160.11594377253576L49.63921111111111,160.16982247220525L49.78750069444445,160.15408953267703L49.79476979166667,160.07747611787087L49.85728402777778,160.08715289069917L50.03028854166667,160.07675960162925L50.10297951388889,159.86936987223555L50.1916625,159.9238611927043L50.23673090277777,159.90666453497235L50.271622569444446,159.70923154301357L50.70776840277778,159.7808667733276L50.83425069444444,159.69409878830254L50.87059618055556,159.6608022171646L50.92147986111111,159.6974553800635L50.94474097222222,159.75443353436486L51.06395416666666,159.83088871938992L51.110476388888884,159.72199038591245L51.12356076388889,159.76921719347504L51.194797916666666,159.68012862797372L51.284934722222225,159.66072799594556L51.321280208333334,159.645895196351L51.33291076388889,159.68493767671592L51.796679166666664,159.7120836782751L51.86064722222223,159.75323477198603L52.07145104166667,159.76233198709514L52.096165972222224,159.78662648069331L52.13251145833333,159.8518837557009L52.170310763888885,159.89966853397695L52.258993749999995,159.93039375750234L52.33313854166667,159.92437561252135L52.42182152777778,159.92490920511537L52.53231180555556,159.82847513075768L52.54539618055556,159.83493623306651L52.575926388888895,159.87323753283678L52.69659340277778,159.87345239493771L52.775099652777776,159.86453707852087L53.140008333333334,159.73732421682263L53.15745416666667,159.76571248744807L53.214153125,159.76384054639556L53.23450659722223,159.76358541483293L53.34208923611111,159.78784987334964L53.365350347222225,159.83203073216853L53.400242013888885,159.85273196664397L53.48020208333333,159.79695500074882L53.56888506944445,159.5506669622124L53.685190625,159.601574112145L53.722989930555556,159.61750477785358L53.74043576388889,159.56204991545283L53.76951215277778,159.57419946236908L53.86255659722222,159.59420190074758L53.89599444444445,159.62537017221126L54.16640486111111,159.62354946268243L54.257995486111106,159.64990405487575L54.48624513888889,159.56457757246508L54.563297569444444,159.4600764306032L54.59964305555555,159.50458917215826L54.646165277777776,159.4179731010963L54.9020375,159.34822871406357L54.94274444444444,159.17491545804182L54.99508194444445,159.25415291223766L54.997989583333336,159.29922977486004L55.00089722222222,159.34297133583559L55.08812638888889,159.38018750994434L55.18698611111111,159.40086998971913L55.23205451388889,159.3692842984395L55.46321180555555,159.35497633013404L55.50682638888889,159.4056557740437L55.67837708333333,159.44605258125472L55.80340555555555,159.47369586159078L55.868827430555555,159.5120131985086L55.97931770833333,159.56584626327316L55.99676354166667,159.56627456002275L56.02438611111111,159.5420570270974L56.062185416666665,159.58387232438767L56.36457986111111,159.56035939964121L56.44453993055556,159.57510153660016L56.46053194444445,159.4408195367863L56.485246874999994,159.50557066003074L56.51286944444445,159.54980920941227L56.627721180555554,159.32872590385568L56.76147256944444,159.29289046731625L56.89522395833333,159.33606780520003L56.914123611111116,159.37087002468002L56.98826840277778,159.36025663759662L57.046421180555555,159.2936561276831L57.08858194444444,159.35427989953018L57.30520104166667,159.2630205249618L57.5189125,159.32658531861946L57.613410763888886,159.2627528636806L57.626495138888885,159.2645169619279L57.79513819444445,159.27449172727358L57.821306944444444,159.30751378531545L58.08444826388889,159.31192263755315L58.08735590277777,159.3777044507209L58.107709375,159.29082862103343L58.440634027777776,159.36269552816086L58.455172222222224,159.2280465138063L58.65289166666666,159.16082017011797L58.72558263888889,159.1193371531062L58.738667013888886,159.07730513010327L58.78955069444444,159.09773654016985L58.953832291666664,158.96713165538364L59.24168854166666,158.89438187446066L59.337640625,158.80117253316845L59.372532291666666,158.80284320292853L59.39288576388889,158.89969534417412L59.51209895833333,158.84835296360288L59.549898263888885,158.74719312878105L59.55571354166667,158.73104750821062L59.70691076388889,158.5510486804665L59.71272604166666,158.580413966266L59.95987534722222,158.51807041579323L59.99331319444444,158.62454252806006L60.09071909722222,158.53284273679253L60.36694479166666,158.48643454003636L60.48470416666667,158.5153037783404L60.63735520833333,158.36282924666023L60.638809027777775,158.29683786045572L60.67951597222222,158.32766115133325L60.683877430555555,158.47377426696914L60.75656840277778,158.44491407104147L60.80163680555555,158.35291889470653L60.824897916666664,158.4557009283128L61.012440624999996,158.45650514317384L61.090946875,158.37555024424108L61.22615208333333,158.27089891212466L61.23196736111111,158.23448279014295L61.31919652777778,158.20400928035943L61.63031388888889,158.1283982754004L61.68992048611111,158.03092552478344L61.74807326388889,157.89873220307433L61.788780208333336,157.87050475199766L61.82221805555556,157.97436450756715L61.862925,158.00606528757964L61.88037083333333,158.08038452805246L61.95887708333333,158.2342741521703L61.96033090277778,158.15112996772248L62.16677326388889,158.12645927864256L62.27580972222223,158.26582942770136L62.316516666666665,158.22171017723892L62.3339625,158.2077223133612L62.466260069444445,158.209089005102L62.60582673611111,158.28743656613025L62.71050173611111,158.2324563710557L62.85006840277778,158.2413978108732L62.861698958333335,158.34548802978588L62.98091215277778,158.35031522680728L63.079771875,158.36236601181886L63.08122569444444,158.24910748756005L63.174270138888886,158.22098381572712L63.19753125,158.13372251107748L63.376351041666666,158.0610964138159L63.41705798611111,157.9895787724343L63.560986111111106,157.88890066442164L63.63513090277778,157.8470062133641L63.710729513888886,157.77089220741232L63.78923576388889,157.71492937128644L63.838665625,157.6701451264655L63.91571805555555,157.6318135368959L64.05819236111111,157.61539633705246L64.13669861111111,157.64246093411643L64.27045,157.6529858407048L64.54667569444445,157.68760587201893L64.62808958333333,157.64846766943242L64.66734270833334,157.61901621018148L64.87669270833334,157.62322620454796L65.00753645833333,157.6444837379393L65.08313506944445,157.6865846718377L65.13111111111111,157.57843689696162L65.147103125,157.4674340534193L65.16309513888889,157.45031303269275L65.23869375,157.56672826788503L65.49747361111112,157.4837594410965L65.51346562500001,157.47768180467915L65.76643020833333,157.44990993190356L66.00194895833333,157.4553456310209L66.04120208333333,157.4365197602265L66.06155555555556,157.37107847651154L66.298528125,157.3689438596296L66.31888159722222,157.36443578135896L66.35813472222223,157.27848197245385L66.39448020833333,157.25275308290077L66.47444027777777,157.2926907746107L66.51078576388889,157.2832273894573L66.74921215277777,157.30100165051158L66.82335694444444,157.28384502392197L66.83207986111111,157.3368894446067L66.83353368055555,157.2974228847614L66.92512430555556,157.29321836551603L67.35400104166668,157.3677636058875L67.45576840277778,157.40770524529876L67.46739895833333,157.45126372076888L67.59678888888888,157.4721536563843L67.96169756944445,157.4830168292074L67.98932013888889,157.46663853090206L68.00240451388889,157.3670061393503L68.01112743055555,157.40679206387682L68.04601909722223,157.43099908825837L68.156509375,157.42780117943252L68.20012395833334,157.36509706148928L68.21902361111111,157.3913632014942L68.33096770833333,157.35087426596016L68.39348194444445,157.3406166085949L68.52141805555556,157.32260279388927L68.55194826388889,157.23247243757726L68.64208506944445,157.29234242458878L68.67406909722222,157.2242587975145L68.88051145833333,157.1086717639169L69.08986145833333,157.19308035675598L69.30066527777778,157.1985476287727L69.45622395833334,157.1078609428185L69.49256944444444,157.0812899254597L69.58852152777779,157.0077887790676L69.59869826388888,157.04620390116082L69.65394340277777,157.03758951104476L69.66412013888889,157.00972663686335L69.90545416666667,156.9386300501001L69.93743819444445,156.92597312201318L70.10317361111112,156.7731180405811L70.10608125,156.66995454421527L70.47244375,156.64301947440913L70.54222708333333,156.5476239115836L70.62364097222222,156.67540690504063L70.74866944444445,156.70756198376733L70.99000347222223,156.60703286231367L71.02925659722221,156.63885003762078L71.08740937500001,156.541148341551L71.1034013888889,156.49960443047283L71.11939340277779,156.5051578335794L71.14120069444445,156.50401535791374L71.2342451388889,156.58740251443007L71.23860659722223,156.49409672452552L71.37962708333333,156.5412512828422L71.38689618055555,156.4478224622503L71.43777986111111,156.53222690833294L72.19958125,156.40543060211505L72.26645694444444,156.4005773880574L72.30571006944444,156.41637388002087L72.48889131944445,156.4258797997111L72.51215243055555,156.42697389666307L72.62555034722222,156.35529327622754L72.89305312500001,156.23336464091247L72.9163142361111,156.11332202297507L73.01953541666667,156.05187551298525L73.49057291666666,156.00780634630212L73.5705329861111,155.9833797116719L73.70573819444444,155.91788097127395L73.86565833333333,156.01048495106963L73.94271076388888,155.9485659944242L74.02993993055556,155.892389625751L74.27708923611111,155.91314827856053L74.29453506944445,155.83559752762756L74.30180416666666,155.82305454409556L74.332334375,155.82035716660909L74.41956354166666,155.84296821917894L74.48934687500001,155.82042970495337L74.59111423611111,155.78432396522726L74.77429548611111,155.6938953379353L74.85134791666665,155.67147780414177L75.03162152777777,155.63090617757373L75.07668993055556,155.58054486750868L75.23515624999999,155.49081991921935L75.60006493055556,155.4363179272974L75.6276875,155.4003913653369L75.68729409722222,155.33540776726474L76.03475694444445,155.32431768284596L76.11326319444444,155.29502999148445L76.20194618055555,155.27202045387446L76.22811493055556,155.21632033156394L76.36768159722223,155.22521291379218L76.58139305555555,155.2307654685668L76.75875902777777,155.26099207555626L76.792196875,155.2632526372314L76.82708854166665,155.1609116042775L76.85471111111111,155.06132982846515L77.15274409722223,155.0278969225417L77.35918645833334,154.9522229995183L77.98287499999999,154.85546969956647L78.14570277777779,154.82631157576367L78.26200833333333,154.7646420335719L78.28236180555555,154.7705175994455L78.57457951388888,154.72884614719325L78.61819409722223,154.7418549170893L78.65890104166667,154.6996186561496L78.68361597222221,154.70087279053465L78.86388958333333,154.6833484345581L78.94094201388889,154.65390666802537L79.07905486111112,154.64523161660745L79.13284618055556,154.60598614725438L79.70128958333333,154.68608284022127L79.80014930555556,154.48586217158376L79.97896909722222,154.4867481851946L80.07201354166666,154.4724052897521L80.14470451388888,154.39468745308454L80.26973298611111,154.34948055392994L80.4587295138889,154.4371193446908L80.49362118055555,154.47166256406788L80.495075,154.42190330766107L80.53287430555555,154.4322758999719L80.54595868055556,154.47871315612855L80.9239517361111,154.51855968666956L81.58398576388889,154.45979464107953L81.59997777777778,154.48504479235618L81.89364930555556,154.4861759285052L82.03757743055556,154.37248433565466L82.12335277777778,154.2337952097815L82.12626041666667,154.23543468880334L82.13498333333334,154.08301552761532L82.18441319444443,154.00562343639226L82.28036527777778,153.98171824659917L82.47372326388889,153.96917611424695L82.653996875,153.89920588743763L82.76739479166667,153.87773237561697L83.7240079861111,153.79587075343989L83.80106041666666,153.8124516780959L83.85485173611112,153.76968612567092L83.91155069444446,153.74470359002692L84.11653923611111,153.79022815410113L84.13689270833333,153.85287595407564L84.17469201388889,153.7575972048219L84.20522222222222,153.7667455612628L84.23139097222221,153.85114354359806L84.80564965277777,153.84667565077672L84.99173854166666,153.7735292395452L84.99900763888888,153.76548116174453L85.25487986111112,153.7923716609547L85.35228576388889,153.61134841793614L85.42061527777778,153.51721242229638L85.73318645833334,153.50715679545135L85.74336319444444,153.49308265436775L85.85239965277778,153.47303638893098L86.02685798611111,153.40956021157635L86.38013611111111,153.34300980580332L86.41357395833333,153.30243467137683L86.41793541666667,153.27642812731608L86.50371076388888,153.29298339150756L86.52261041666667,153.25786020620293L86.64473125,153.20108810865958L86.69125347222223,153.16506545163978L86.87588854166667,153.03106067570656L87.18555208333333,153.01326614659743L87.24079722222223,152.95573776270692L87.39635590277778,152.9378100633593L87.51556909722223,152.892592672408L87.90810034722222,152.85388486670567L87.94153819444445,152.8849326877274L88.00550625,152.88196880357003L88.01422916666667,152.76900307705918L88.46782083333333,152.81903653858404L88.73532361111111,152.78923650011026L89.04644097222223,152.7900829270223L89.08569409722222,152.78371024970468L89.16565416666667,152.79924207088806L89.64977604166667,152.80288663303003L89.6904829861111,152.7629787389578L90.12662881944445,152.7395469419851L90.20804270833334,152.7229377862481L90.44646909722222,152.60592862300794L90.50898333333333,152.5906725299379L91.03090451388888,152.5503920461749L91.19809375,152.49274984155738L91.7897982638889,152.47913108817087L92.28555069444444,152.47063205627688L92.52252326388889,152.45263523526455L92.65772847222222,152.4467857886612L92.96593819444445,152.38778136364124L93.01536805555556,152.30014876573864L93.06189027777778,152.28652435070325L93.16075,152.2295222233252L93.26687881944444,152.20694877022348L93.52565868055557,152.14092581627804L93.67249444444445,152.17219723465024L93.89929027777778,152.15765728041598L94.05921041666666,152.14330509083592L94.06793333333333,152.12337619713693L94.74395937499999,152.1064477312694L94.76867430555555,152.1573148042963L95.11613715277777,152.15835501617437L95.26733437499999,152.0964289760954L95.4999454861111,152.0411040015628L95.65405034722222,152.04170206294495L95.79070937499999,152.07094154895816L96.20650173611112,152.0078448556008L96.444928125,151.85004529311766L96.46964305555555,151.86258753303665L96.75313784722222,151.78476285665607L96.889796875,151.70286164791352L97.20672951388889,151.5009344831222L97.38700312499999,151.48547111173303L97.40590277777778,151.36717853902127L97.85658680555557,151.22110806973453L97.98161527777778,151.22450503199184L98.06302916666667,151.20229214417728L98.18224236111112,151.23956685283648L98.5224361111111,151.1552865521682L98.54569722222223,151.041052512336L98.74632430555555,150.94374249187163L98.7972079861111,151.03875939653062L99.16357048611111,150.91937668764677L99.22463090277779,150.91502794195904L99.3394826388889,150.87429807084004L100.10419166666667,150.65708757144836L100.81801701388889,150.60755504507276L101.61616388888889,150.57576061748856L101.91128923611112,150.36196278650894L102.30091284722222,149.8644239693965L102.51753194444446,149.64352580322608L102.60621493055557,149.59098753059578L103.18338125,149.29776839292083L104.02805034722222,149.18113516901334L104.09783368055555,148.995616652112L104.57323263888888,148.35479375613158L104.69971493055554,148.2268570728261L105.1431298611111,148.1873883655435L105.56182986111112,147.82174791360455L105.64760520833333,147.49734158378254L105.99216041666668,147.254609117712L106.0881125,147.26871428286387L106.25675555555556,147.12597570073132L107.082525,146.70576051527357L108.03623055555556,146.30763392528468L108.35607083333333,146.2673209173716L108.43748472222222,146.02495674871136L108.85618472222222,145.64592238153253L109.95672604166667,145.33008883568698L110.79412604166667,144.9738949521183L112.957409375,144.73148637998338L113.088253125,144.46241074198502L113.50549930555555,144.1680685139404L116.77659305555555,143.78062204716173L116.95395902777777,145.35220684244555L118.93551493055556,144.9464468505087L120.37770381944445,144.1985752423809L123.06436215277778,143.31084425660435L124.29283958333333,142.48677960017469L132.72063090277777,141.25587979400336L136.51364583333333,143.17618596844918L140.68901527777777,144.95986252545043L141.50896944444443,143.38994119598232L143.76238958333334,145.131682999461L144.4515,146.70686162259182L145.72649965277776,148.01117430648648L153.49134930555556,145.78671018353015L158.02145069444444,147.26994501133098L160.85494479166667,144.78971666404402L162.87284618055557,142.3659426899473L166.47831840277777,144.16931988249104L170.82087708333336,145.58988497116502L176.9094729166667,143.0674138586639L193.9307909722222,144.02004670356675L194.32186840277777,144.80541811013313L194.6242628472222,143.70275414527367L214.19558020833333,143.5561987307463L214.69714791666667,143.42691301151783L217.98132604166665,144.1482151719045L220.1606013888889,144.6968375008679L220.62727743055555,145.11578105847343L221.16082916666664,144.69978856801072L221.54609131944443,144.26430309582503L223.4215184027778,144.32420632470405L232.19095729166665,144.1094468460798L233.7887048611111,143.859877315318L234.72932604166667,143.53927627609386L243.00446631944445,142.80526718694603L243.64269305555555,141.45322892978987L246.9515861111111,140.2163526521955L249.78944166666668,138.6489956177452L253.23353993055554,137.14981982520146L253.23499375,136.34919353498898L253.23644756944446,135.0632918737978L253.23790138888887,133.74236430180264L253.23935520833334,123.09497625623774L253.2408090277778,122.7482142459986L253.2422628472222,122.98032174447565L253.24371666666667,122.59746664695116L253.248078125,114.52954290533296L253.24953194444444,111.42597815326121L253.25243958333334,103.67000303024278L253.2582548611111,97.38878903491081L253.25970868055555,91.13894774680435L253.26261631944445,84.90436643366237L253.26407013888888,80.06704640568076L253.26552395833332,74.87726953434345L253.26843159722222,70.86108442706295L253.27133923611112,67.63244590743358L253.27279305555555,63.631272701305605L253.274246875,60.345263200405824L253.2771545138889,57.74544911113448L253.27860833333332,54.75512781540564L253.2800621527778,52.333368803095865L253.2815159722222,50.5026118458632L253.28442361111112,48.689490045892256L253.28587743055553,46.84423204130303L253.28733125,45.16807360640348L253.28878506944446,44.04396139960929L253.2902388888889,43.15008795195607L253.2931465277778,41.961103387529676L253.29460034722223,42.121044741084376L253.29605416666666,41.312772805437476L253.29896180555556,40.507243832586056L253.300415625,39.53222121855822L253.30477708333333,38.666886635163934L253.30768472222223,38.468046433186004L253.30913854166667,38.09379117448279L253.31204618055557,43.32757351857296L253.3135,42.24186755133107L253.31495381944444,41.17941818081334L253.3164076388889,39.968415439655104L253.3178614583333,38.71527812645883L253.31931527777778,38.919719929197555L253.32076909722224,38.37214932089316L253.32513055555557,37.80865831188078L253.32658437499998,37.24815771146194L253.32803819444445,37.09377232493111L253.3294920138889,36.14556786166878L253.33094583333332,35.58782830627112L253.33239965277778,35.46314501410558L253.33385347222224,35.228173743464254L253.33676111111112,34.77866183065629L253.33821493055555,34.30422695528296L253.33966875,34.023328644370054L253.34112256944445,33.85249839531764L253.3425763888889,33.566886171170495L253.34403020833332,33.83688670789962L253.34839166666666,33.65968919095582L253.35129930555556,33.25514811801409L253.352753125,32.94258176775111L253.35420694444443,33.112921590976015L253.3556607638889,32.96283581649382L253.35711458333333,32.64941069638289L253.35856840277776,32.648322395975384L253.36002222222223,32.14765831022399L253.36147604166666,32.22841463304775L253.3629298611111,31.754873323589123L253.36438368055556,32.055216683537935L253.3687451388889,31.847979707491817L253.37019895833333,32.28993896751189L253.37456041666664,32.53049907076067L253.3760142361111,32.4992031636846L253.378921875,32.15924453962381L253.38037569444444,31.768648547199888L253.3818295138889,31.773018307864504L253.38473715277777,31.860386169385777L253.38619097222224,31.46857847552414L253.38764479166667,31.19965893566402L253.39055243055557,31.264222580559135L253.39200625,31.485782553272458L253.39346006944444,31.070465528714465L253.39636770833334,31.453396052766067L253.39782152777778,31.384847447489477L253.39927534722221,30.981843241202057L253.40218298611111,30.937385455543364L253.40363680555555,30.587242217681364L253.405090625,30.572182765143992L253.40799826388889,30.931336796321915L253.40945208333335,30.578803039766626L253.41235972222222,30.676819120405327L253.41381354166668,31.360121208364802L253.4152673611111,31.663069318297573L253.41672118055556,32.08024992492935L253.41817500000002,32.25744524012873L253.41962881944443,32.209599562269716L253.42253645833335,32.707150913735035L253.42399027777776,33.460285745438455L253.4283517361111,33.129928709356136L253.431259375,32.87326291534359L253.43562083333333,32.685846546886154L253.4414361111111,32.62421596912063L253.44870520833334,32.51116898759321L253.45306666666667,32.356898550372364L253.4545204861111,31.85000407995051L253.45597430555554,31.597607748878517L253.457428125,31.62007551245219L253.45888194444444,31.711668345822346L253.46033576388888,32.36259866508627L253.46324340277778,32.85872418319303L253.4646972222222,33.361672918719876L253.4676048611111,33.24983293454022L253.46905868055555,33.171165794932335L253.47196631944445,32.86887660005448L253.47342013888888,33.17519786312596L253.47487395833335,32.96451823065951L253.47632777777778,33.74072748451664L253.47923541666668,33.368670043757305L253.48068923611112,32.97792719322774L253.48214305555555,32.811400627751084L253.483596875,32.29279487266834L253.48505069444445,32.328607154632266L253.4865045138889,31.874020131476726L253.48795833333332,32.053021964482895L253.4894121527778,31.87339861418846L253.49086597222222,31.78263290661576L253.49231979166666,31.959704154415732L253.49377361111112,32.09835927743569L253.49668125,31.793066118922894L253.49813506944446,32.054489737799855L253.50104270833333,32.154161764019875L253.50540416666666,31.88831443377171L253.50831180555554,32.01289575962531L253.51412708333334,31.910685568278154L253.5155809027778,32.465536088373426L253.5170347222222,32.36572932568993L253.51848854166667,32.4790856238902L253.52285,32.7066945999627L253.52430381944444,33.13336452458179" style="fill: none;" fill="none"></path></g></g></g></g><g opacity="0.2"><g><g><g><path stroke="rgb(255, 112, 67)" stroke-width="2px" d="M30.13622326388889,162.78336L30.28451284722222,162.68941384615385L30.32521979166667,162.76457076923077L30.338304166666667,162.7269923076923L30.367380555555556,162.73638692307694L30.445886805555556,162.70820307692307L30.49677048611111,162.8397276923077L30.550561805555557,162.70820307692307L30.56800763888889,162.74578153846153L30.655236805555553,162.7269923076923L30.678497916666664,162.7175976923077L30.682859375,162.7739653846154L30.684313194444446,162.75517615384615L30.69012847222222,162.7927546153846L30.701759027777776,162.69880846153848L30.719204861111113,162.70820307692307L30.73810451388889,162.7175976923077L30.787534375,162.73638692307694L30.796257291666667,162.7927546153846L31.569689236111113,162.70820307692307L31.61185,162.66640384615386L31.642380208333336,162.6476146153846L31.853184027777775,161.70366L31.872083680555555,162.61616307692307L31.914244444444442,162.44665153846154L32.20500833333333,162.63917307692307L32.21954652777777,162.6485676923077L32.34748263888889,161.25625846153847L32.38528194444444,162.04036846153846L32.401273958333334,162.68519307692307L32.44634236111111,162.60350076923078L32.45506527777778,162.65278846153845L32.513218055555555,162.62977846153845L32.57137083333333,161.34734538461538L32.654238541666665,162.61521L32.692037847222224,162.63822L32.722568055555556,162.2202276923077L32.81415868055556,161.51644846153846L32.863588541666665,162.67253076923078L32.97989409722222,161.51740153846154L32.99443229166666,162.6485676923077L33.090384375,162.64720615384616L33.10783020833333,162.6673569230769L33.177613541666666,162.00469615384617L33.22268194444444,161.89754307692309L33.235766319444444,162.04036846153846L33.25611979166666,162.21696L33.266296527777776,162.49879846153846L33.275019444444446,162.58566461538462L33.320087847222226,161.53197L33.39568645833333,162.57627L33.41894756944444,162.69976153846153L33.42767048611111,162.03614769230768L33.49454618055555,162.52507615384616L33.65592013888889,162.67348384615386L33.69662708333333,161.27504769230768L33.75332604166667,162.65796230769232L33.85363958333333,161.06373692307693L33.943776388888885,162.16494923076922L33.945230208333335,160.7345169230769L33.94813784722222,162.14180307692308L33.952499305555556,162.57014307692307L33.95976840277778,161.07217846153847L33.96122222222222,162.5039723076923L34.017921180555554,162.60445384615383L34.02228263888889,162.53025L34.07316631944444,162.27101307692308L34.08334305555555,162.60595153846154L34.20255625,162.61098923076923L34.227271180555555,162.40403538461538L34.27524722222222,162.65333307692308L34.31886180555556,162.60350076923078L34.37556076388889,162.1400330769231L34.41772152777778,161.20465615384614L34.45406701388889,162.17842846153846L34.47442048611111,162.10340769230768L34.59654131944444,162.15038076923076L34.69540104166666,162.6589153846154L34.72593125,161.9417930769231L34.74628472222222,162.62977846153845L34.75791527777778,162.56279076923076L34.81025277777778,161.75539846153845L34.87858229166667,160.14333692307693L34.88294375,159.92712461538463L34.893120486111115,160.8620930769231L34.944004166666666,160.93425461538462L34.97162673611111,161.69998384615386L35.009426041666664,161.33645307692308L35.08793229166667,159.81466153846154L35.105378124999994,160.92377076923077L35.130093055555555,160.93411846153845L35.16207708333333,159.54752769230768L35.17370763888889,162.62419615384616L35.21296076388889,161.10226846153847L35.220229861111115,161.7210876923077L35.23186041666666,160.92145615384615L35.26093680555555,162.02865923076922L35.308912847222224,160.54676076923076L35.31182048611111,161.28907153846154L35.32345104166667,160.71491076923076L35.332173958333335,162.5092823076923L35.38014999999999,161.1201046153846L35.39614201388889,162.6243323076923L35.406318750000004,160.76270076923078L35.452840972222226,162.3588323076923L35.471740625,160.33408846153847L35.47610208333333,161.0543423076923L35.55751597222222,161.7502246153846L35.570600347222225,160.3003223076923L35.59531527777777,160.42885153846154L35.61712256944445,161.74927153846153L35.65346805555556,162.6514269230769L35.65637569444444,160.45472076923076L35.682544444444446,160.44205846153847L35.72179756944444,161.9676623076923L35.73197430555555,160.72893461538462L35.756689236111114,160.66698461538462L35.76977361111111,160.91955000000002L35.79012708333334,160.90879384615386L35.80175763888889,161.54367923076924L35.867179513888885,160.78720846153846L35.90061736111111,160.45798846153846L36.00238472222222,160.0758046153846L36.03436875,161.05624846153847L36.07216805555555,160.72062923076922L36.09252152777778,161.54395153846153L36.10124444444445,162.01055076923078L36.130320833333336,160.6889053846154L36.15358194444445,161.23243153846153L36.204465625,160.35669000000001L36.26407222222222,160.1427923076923L36.33967083333334,161.79529153846153L36.34984756944444,161.8075453846154L36.383285416666666,161.04358615384615L36.44725347222222,159.53677153846155L36.455976388888885,160.61415692307693L36.49086805555556,160.27445307692307L36.570828125000006,160.31570769230768L36.61589652777778,160.16689153846153L36.621711805555556,161.65546153846154L36.65660347222222,161.54844461538462L36.69294895833333,160.88496692307692L36.740925,160.18663384615385L36.771455208333336,161.35633153846155L36.784539583333334,161.26864846153848L36.81797743055556,161.19389999999999L36.844146180555555,160.36921615384614L36.90229895833334,161.2667423076923L36.97935138888889,161.57799L37.03605034722222,159.96184384615384L37.07966493055556,161.00886692307694L37.081118749999995,160.55002846153846L37.11601041666667,160.52415923076921L37.13781770833333,160.66562307692308L37.15671736111111,161.51304461538462L37.158171180555556,160.35464769230768L37.225046875,160.04258307692308L37.22940833333334,159.8625876923077L37.283199652777775,160.8431676923077L37.379151736111105,159.93502153846154L37.39078229166667,160.4421946153846L37.432943055555555,162.46462384615384L37.47365,159.84107538461538L37.48964201388889,161.73865153846154L37.53761805555556,160.49461384615384L37.57687118055556,160.04625923076924L37.60158611111111,160.12795153846153L37.79930555555555,161.17960384615384L37.82402048611111,160.4492746153846L37.83274340277777,160.02515538461537L37.84146631944444,161.45272846153847L37.844373958333335,160.96053230769232L37.86908888888889,160.5430846153846L37.89235,160.83704076923078L37.902526736111106,161.45694923076923L37.98103298611112,160.09758923076924L38.05517777777778,159.73405846153847L38.06826215277778,161.54898923076922L38.10751527777777,161.4897623076923L38.10896909722222,160.73274692307692L38.110422916666664,159.40443L38.1540375,161.45368153846152L38.167121875,160.96094076923077L38.27615833333333,159.89934923076925L38.380833333333335,161.5741776923077L38.440439930555556,161.3325046153846L38.54366111111111,159.88518923076924L38.574191319444445,159.87402461538463L38.57855277777778,159.8608176923077L38.68177395833334,160.87366615384616L38.690496875,159.94536923076924L38.709396527777784,159.29223923076924L38.71230416666667,160.7210376923077L38.72102708333333,159.7204430769231L38.75446493055556,161.03419153846153L38.81843298611111,159.74113846153847L38.83006354166667,160.04026846153846L38.92310798611111,160.5852923076923L38.93037708333333,161.37757153846155L39.027782986111106,161.3555146153846L39.045228819444446,161.36722384615385L39.10338159722222,159.6669346153846L39.206602777777775,160.88346923076924L39.25603263888889,161.36913L39.27493229166667,161.29587923076923L39.318546874999996,161.0552953846154L39.344715625000006,160.58011846153846L39.39559930555556,159.78007846153847L39.39850694444444,160.39181769230768L39.41159131944444,161.18259923076923L39.42176805555555,160.26519461538462L39.51772013888889,161.0685023076923L39.522081597222225,160.9971576923077L39.68781701388889,160.24027846153845L39.69072465277778,160.1670276923077L39.71253194444444,159.69225923076922L39.759054166666665,160.45404L39.83029131944445,161.65587L39.85791388888889,161.38791923076923L39.89135173611111,159.66244153846154L39.91461284722222,159.89172461538462L39.91897430555556,160.29051923076923L39.929151041666664,161.41937076923077L39.93642013888889,161.31085615384615L39.97858090277778,160.9239069230769L39.981488541666664,159.59545384615384L40.00329583333334,161.11969615384615L40.04545659722223,160.70129538461538L40.093432638888885,160.56718384615385L40.22863784722222,160.33231846153845L40.25189895833333,161.25122076923077L40.31586701388889,160.10820923076923L40.416180555555556,161.26810384615385L40.417634375,160.2318369230769L40.423449652777784,160.95672L40.452526041666665,161.14883307692307L40.45397986111111,160.42531153846153L40.481602430555554,161.45599615384614L40.497594444444445,160.86985384615383L40.51213263888889,161.03187692307694L40.51504027777778,161.32311L40.54557048611111,161.13004384615385L40.56737777777778,161.3001L40.61244618055555,161.17701692307693L40.629892013888885,162.1352676923077L40.67205277777777,160.26369692307694L40.70403680555556,161.17511076923077L40.718574999999994,160.65146307692308L40.797081250000005,160.16934230769232L40.87849513888889,160.03455L40.980262499999995,159.90779076923076L41.07621458333333,160.68836076923077L41.093660416666665,161.22399000000001L41.16925902777778,160.14075L41.18525104166666,161.24182615384615L41.23758854166667,160.27921846153845L41.24485763888889,160.80885692307692L41.26375729166667,160.03169076923078L41.279749305555555,160.94596384615386L41.28265694444445,161.22916384615385L41.28411076388889,160.00541307692308L41.30591805555556,160.61606307692307L41.44257708333333,160.30182L41.4513,161.03745923076923L41.52980625,160.95535846153845L41.60249722222222,160.76937230769232L41.68100347222222,161.09055923076923L41.830746874999996,159.31211769230768L41.839469791666666,160.04067692307692L41.97031354166666,160.43239153846153L41.995028472222224,160.47623307692308L42.06045034722222,160.27649538461537L42.106972569444444,161.26810384615385L42.20728611111112,160.62327923076924L42.23054722222223,159.43057153846155L42.255262152777775,161.26279384615384L42.272707986111115,160.06464L42.275615625,160.6219176923077L42.33522222222222,161.21976923076923L42.516949652777775,158.9391923076923L42.56637951388889,160.0148076923077L42.61290173611111,160.95535846153845L42.76991423611111,160.14265615384616L42.85714340277778,161.00464615384615L42.8644125,161.0004253846154L42.90075798611111,160.95154615384615L42.94437256944445,160.11678692307692L43.01560972222222,159.90534L43.04177847222222,160.40679461538463L43.11010798611111,160.7528976923077L43.278751041666666,160.21549846153846L43.396510416666665,160.1599476923077L43.419771527777776,160.06627384615385L43.531715625,160.00922538461538L43.63348298611111,160.34348307692306L43.63784444444444,160.21195846153847L43.67855138888889,160.63267384615384L43.68436666666666,160.8838776923077L43.72798125,160.75194461538462L43.748334722222225,160.29596538461539L43.75269618055556,160.07907230769231L43.81230277777778,160.6608576923077L43.823933333333336,161.27286923076923L43.89080902777778,159.73691769230769L43.924246875,161.15210076923077L43.94750798611111,159.8608176923077L44.12196631944445,160.68005538461537L44.21355694444444,159.81901846153846L44.276071180555554,160.94119846153848L44.28188645833333,159.47005615384614L44.34730833333333,160.00405153846154L44.44471423611112,158.66007692307693L44.46070625,160.52320615384616L44.58864236111111,159.95762307692308L44.71948611111111,160.68155307692308L44.72820902777778,160.06504846153845L44.892490625,159.48830076923076L44.918659375,160.06300615384615L44.94628194444444,159.97300846153846L44.96518159722222,160.91778L45.13237083333333,160.32169846153846L45.206515624999994,159.9298476923077L45.21523854166667,160.2714576923077L45.29229097222222,160.3410323076923L45.37079722222222,160.95154615384615L45.431857638888886,160.7415969230769L45.597593055555556,160.42272461538462L45.64556909722222,159.7133630769231L45.686276041666666,160.79850923076924L45.767689930555555,160.48331307692308L45.79967395833333,161.01962307692307L45.80403541666667,160.70034230769232L45.92615625,158.48443846153847L45.94941736111111,160.53968076923076L45.961047916666665,160.36118307692308L46.00030104166667,160.06736307692307L46.094799305555554,160.31434615384615L46.12678333333333,159.7242553846154L46.134052430555556,160.74963L46.333225694444444,160.75058307692308L46.36957118055555,160.3251023076923L46.42045486111112,160.52606538461538L46.610905208333335,159.89798769230768L46.724303125,159.48217384615384L46.775186805555556,160.54199538461538L46.79408645833334,160.06749923076922L46.85950833333334,159.90261692307692L46.86823125,159.83685461538462L46.89149236111111,160.75711846153845L46.89585381944445,159.8631323076923L47.013613194444446,160.1118853846154L47.035420486111114,159.18889846153846L47.0514125,158.89181076923077L47.10084236111111,160.52647384615383L47.15754131944445,160.53831923076922L47.199702083333335,160.3316376923077L47.234593749999995,159.84951692307692L47.39160625,160.87407461538461L47.39451388888889,160.80831230769232L47.39887534722222,160.28561769230768L47.46720486111111,159.89798769230768L47.468658680555556,160.79142923076924L47.52535763888889,160.36867153846154L47.611132986111116,160.0242023076923L47.699815972222225,159.24077307692306L47.810306250000004,159.98145L47.95132673611111,160.08710538461537L48.07926284722222,160.16049230769232L48.11996979166667,160.0808423076923L48.124331250000004,160.4974730769231L48.22319097222223,159.95762307692308L48.23772916666666,159.15077538461537L48.25808263888889,160.69843615384616L48.391834027777776,160.62232615384616L48.39328784722222,160.48807846153846L48.409279861111116,160.73601461538462L48.45434826388889,160.58760692307692L48.58955347222222,159.77885307692307L48.64043715277778,160.84970307692308L48.659336805555554,159.8932223076923L48.67242118055555,160.2204L48.84251805555556,159.19107692307693L48.87740972222222,159.57720923076923L48.948646875,160.32047307692307L48.95300833333333,159.20510076923077L48.973361805555555,159.35228307692307L49.009707291666665,160.74118846153846L49.046052777777774,159.90506769230768L49.14055104166667,160.55983153846154L49.195796180555554,159.43806L49.29029444444444,160.52524846153847L49.332455208333336,160.3339523076923L49.39206180555556,159.3348553846154L49.43131493055556,160.56323538461538L49.48946770833333,160.62845307692308L49.59414270833334,160.0448976923077L49.63921111111111,160.65473076923078L49.78750069444445,160.01249307692308L49.79476979166667,159.3879553846154L49.85728402777778,160.17424384615384L50.03028854166667,159.98322L50.10297951388889,158.0028623076923L50.1916625,160.41428307692308L50.23673090277777,159.75189461538463L50.271622569444446,157.9323346153846L50.70776840277778,160.42558384615384L50.83425069444444,158.91318692307692L50.87059618055556,159.36113307692307L50.92147986111111,160.02733384615385L50.94474097222222,160.26723692307692L51.06395416666666,160.51898538461538L51.110476388888884,158.7419053846154L51.12356076388889,160.19425846153845L51.194797916666666,158.87833153846154L51.284934722222225,159.4861223076923L51.321280208333334,159.5124L51.33291076388889,160.03632L51.796679166666664,159.9563976923077L51.86064722222223,160.1235946153846L52.07145104166667,159.8442069230769L52.096165972222224,160.00527692307693L52.13251145833333,160.43919923076922L52.170310763888885,160.32973153846154L52.258993749999995,160.20692076923078L52.33313854166667,159.8702123076923L52.42182152777778,159.92971153846153L52.53231180555556,158.96056846153846L52.54539618055556,159.89308615384616L52.575926388888895,160.21794923076922L52.69659340277778,159.87538615384616L52.775099652777776,159.78429923076922L53.140008333333334,158.59240846153847L53.15745416666667,160.02120692307693L53.214153125,159.74699307692308L53.23450659722223,159.76128923076922L53.34208923611111,160.00623L53.365350347222225,160.22965846153846L53.400242013888885,160.03904307692306L53.48020208333333,159.29496230769232L53.56888506944445,157.33407461538462L53.685190625,160.05973846153847L53.722989930555556,159.76088076923077L53.74043576388889,159.06295615384616L53.76951215277778,159.6835453846154L53.86255659722222,159.77422384615386L53.89599444444445,159.90588461538462L54.16640486111111,159.6071630769231L54.257995486111106,159.88709538461538L54.48624513888889,158.79663923076924L54.563297569444444,158.51956615384614L54.59964305555555,159.90520384615385L54.646165277777776,158.63842846153847L54.9020375,158.72052923076922L54.94274444444444,157.61509615384614L54.99508194444445,159.96729L54.997989583333336,159.70492153846155L55.00089722222222,159.73664538461537L55.08812638888889,159.71513307692308L55.18698611111111,159.5870123076923L55.23205451388889,159.08501307692308L55.46321180555555,159.22620461538463L55.50682638888889,159.86177076923076L55.67837708333333,159.80962384615384L55.80340555555555,159.7224853846154L55.868827430555555,159.85686923076923L55.97931770833333,160.05034384615385L55.99676354166667,159.57012923076923L56.02438611111111,159.32409923076924L56.062185416666665,159.96021L56.36457986111111,159.34874307692309L56.44453993055556,159.70778076923077L56.46053194444445,158.23228153846154L56.485246874999994,160.08833076923077L56.51286944444445,159.94795615384615L56.627721180555554,157.33897615384615L56.76147256944444,158.97037153846154L56.89522395833333,159.72466384615385L56.914123611111116,159.68409L56.98826840277778,159.26473615384614L57.046421180555555,158.69425153846154L57.08858194444444,159.89989384615384L57.30520104166667,158.44168615384615L57.5189125,159.89866846153848L57.613410763888886,158.68826076923077L57.626495138888885,159.28039384615386L57.79513819444445,159.36426461538463L57.821306944444444,159.6047123076923L58.08444826388889,159.3516023076923L58.08735590277777,159.96974076923078L58.107709375,158.50894615384615L58.440634027777776,160.0094976923077L58.455172222222224,158.01620538461538L58.65289166666666,158.5557830769231L58.72558263888889,158.74599L58.738667013888886,158.69901692307693L58.78955069444444,159.28161923076922L58.953832291666664,157.7916876923077L59.24168854166666,158.23963384615385L59.337640625,157.96228846153846L59.372532291666666,158.81787923076922L59.39288576388889,159.7713646153846L59.51209895833333,158.38627153846153L59.549898263888885,157.83675461538462L59.55571354166667,158.58573692307692L59.70691076388889,156.93105923076922L59.71272604166666,158.84470153846155L59.95987534722222,157.95697846153845L59.99331319444444,159.58279153846155L60.09071909722222,157.70754461538462L60.36694479166666,158.06876076923078L60.48470416666667,158.77512692307693L60.63735520833333,156.99055846153846L60.638809027777775,157.70291538461538L60.67951597222222,158.60507076923076L60.683877430555555,159.78879230769232L60.75656840277778,158.1851723076923L60.80163680555555,157.5249623076923L60.824897916666664,159.38073923076922L61.012440624999996,158.46374307692307L61.090946875,157.64695615384616L61.22615208333333,157.32903692307693L61.23196736111111,157.9067376923077L61.31919652777778,157.9297476923077L61.63031388888889,157.44789923076922L61.68992048611111,157.15367076923076L61.74807326388889,156.7089923076923L61.788780208333336,157.61645769230768L61.82221805555556,158.9091023076923L61.862925,158.2913723076923L61.88037083333333,158.74925769230768L61.95887708333333,159.61928076923078L61.96033090277778,157.4028323076923L62.16677326388889,157.90442307692308L62.27580972222223,159.52016076923076L62.316516666666665,157.82463692307692L62.3339625,158.08183153846153L62.466260069444445,158.22138923076923L62.60582673611111,158.99256461538462L62.71050173611111,157.73763461538462L62.85006840277778,158.32187076923077L62.861698958333335,159.2823L62.98091215277778,158.39376L63.079771875,158.47082307692307L63.08122569444444,157.22978076923076L63.174270138888886,157.96787076923079L63.19753125,157.34837076923077L63.376351041666666,157.40746153846155L63.41705798611111,157.34592L63.560986111111106,156.98279769230768L63.63513090277778,157.46995615384614L63.710729513888886,157.08586615384615L63.78923576388889,157.21126384615386L63.838665625,157.26708692307693L63.91571805555555,157.28682923076923L64.05819236111111,157.46764153846155L64.13669861111111,157.88604230769232L64.27045,157.74770999999998L64.54667569444445,157.99918615384615L64.62808958333333,157.29622384615385L64.66734270833334,157.35395307692306L64.87669270833334,157.66111615384614L65.00753645833333,157.83580153846154L65.08313506944445,158.06549307692308L65.13111111111111,156.60510692307693L65.147103125,156.46840846153847L65.16309513888889,157.29622384615385L65.23869375,158.6144653846154L65.49747361111112,156.73704L65.51346562500001,157.4229830769231L65.76643020833333,157.19996307692307L66.00194895833333,157.50426692307693L66.04120208333333,157.26708692307693L66.06155555555556,156.78210692307692L66.298528125,157.3497323076923L66.31888159722222,157.3238630769231L66.35813472222223,156.50489769230768L66.39448020833333,157.02119307692308L66.47444027777777,157.65213L66.51078576388889,157.19805692307693L66.74921215277777,157.46097L66.82335694444444,157.1294353846154L66.83207986111111,157.81428923076922L66.83353368055555,156.94222384615384L66.92512430555556,157.2553776923077L67.35400104166668,158.03867076923078L67.45576840277778,157.76718L67.46739895833333,157.84329L67.59678888888888,157.66016307692308L67.96169756944445,157.58078538461538L67.98932013888889,157.31923384615385L68.00240451388889,156.4703146153846L68.01112743055555,157.76486538461538L68.04601909722223,157.6488623076923L68.156509375,157.39902L68.20012395833334,156.80076L68.21902361111111,157.62775846153846L68.33096770833333,156.98647384615384L68.39348194444445,157.2482976923077L68.52141805555556,157.16047846153847L68.55194826388889,156.42129923076922L68.64208506944445,157.8311723076923L68.67406909722222,156.61150615384616L68.88051145833333,156.06838846153846L69.08986145833333,157.9527576923077L69.30066527777778,157.24775307692306L69.45622395833334,156.29168076923077L69.49256944444444,156.84215076923078L69.58852152777779,156.34627846153847L69.59869826388888,157.39194L69.65394340277777,156.96006L69.66412013888889,156.75896076923078L69.90545416666667,156.29876076923077L69.93743819444445,156.81206076923075L70.10317361111112,155.3974223076923L70.10608125,155.7414830769231L70.47244375,156.40060384615384L70.54222708333333,155.68906384615386L70.62364097222222,157.82545384615383L70.74866944444445,156.9969576923077L70.99000347222223,155.70227076923078L71.02925659722221,156.92520461538462L71.08740937500001,155.66183307692307L71.1034013888889,156.12570923076925L71.11939340277779,156.55513846153846L71.14120069444445,156.49373307692306L71.2342451388889,157.33788692307692L71.23860659722223,155.65434461538462L71.37962708333333,156.9656423076923L71.38689618055555,155.60696307692308L71.43777986111111,157.29186692307692L72.19958125,155.26426384615385L72.26645694444444,156.35689846153846L72.30571006944444,156.5585423076923L72.48889131944445,156.51143307692308L72.51215243055555,156.43682076923076L72.62555034722222,155.7101676923077L72.89305312500001,155.13600692307693L72.9163142361111,155.03293846153846L73.01953541666667,155.49885692307691L73.49057291666666,155.61118384615384L73.5705329861111,155.76354L73.70573819444444,155.3283923076923L73.86565833333333,156.84392076923078L73.94271076388888,155.39129538461538L74.02993993055556,155.3868023076923L74.27708923611111,156.09997615384614L74.29453506944445,155.13764076923076L74.30180416666666,155.7101676923077L74.332334375,155.79608076923077L74.41956354166666,156.0464676923077L74.48934687500001,155.61758307692307L74.59111423611111,155.45937230769232L74.77429548611111,154.8800376923077L74.85134791666665,155.46972L75.03162152777777,155.26576153846153L75.07668993055556,155.12729307692308L75.23515624999999,154.68329538461538L75.60006493055556,154.9458L75.6276875,155.0770523076923L75.68729409722222,154.75055538461538L76.03475694444445,155.22450692307692L76.11326319444444,155.03144076923076L76.20194618055555,155.06493461538463L76.22811493055556,154.71501923076923L76.36768159722223,155.30524615384616L76.58139305555555,155.28073846153848L76.75875902777777,155.53303153846153L76.792196875,155.2835976923077L76.82708854166665,154.2398423076923L76.85471111111111,154.16509384615384L77.15274409722223,154.72700076923076L77.35918645833334,154.2711576923077L77.98287499999999,153.98469L78.14570277777779,154.56388846153845L78.26200833333333,154.20961615384616L78.28236180555555,154.8233976923077L78.57457951388888,154.35380307692307L78.61819409722223,154.85893384615383L78.65890104166667,154.31949230769231L78.68361597222221,154.71216L78.86388958333333,154.52562923076923L78.94094201388889,154.38893076923077L79.07905486111112,154.56715615384616L79.13284618055556,154.2527769230769L79.70128958333333,155.4069530769231L79.80014930555556,152.68387615384614L79.97896909722222,154.4947223076923L80.07201354166666,154.34331923076923L80.14470451388888,153.69522692307692L80.26973298611111,153.94261846153847L80.4587295138889,155.22586846153845L80.49362118055555,154.78255153846155L80.495075,153.97406999999998L80.53287430555555,154.52562923076923L80.54595868055556,154.89664846153846L80.9239517361111,154.87717846153845L81.58398576388889,153.93090923076923L81.59997777777778,154.71229615384615L81.89364930555556,154.49635615384614L82.03757743055556,153.34926000000002L82.12335277777778,152.98559307692307L82.12626041666667,154.25019L82.13498333333334,152.71124307692307L82.18441319444443,153.30909461538462L82.28036527777778,153.76657153846153L82.47372326388889,153.8562969230769L82.653996875,153.26947384615386L82.76739479166667,153.68447076923076L83.7240079861111,153.05911615384616L83.80106041666666,153.96168L83.85485173611112,153.38479615384617L83.91155069444446,153.51986076923077L84.11653923611111,154.19994923076922L84.13689270833333,154.41670615384615L84.17469201388889,152.90008846153847L84.20522222222222,153.84908076923077L84.23139097222221,154.6107253846154L84.80564965277777,153.8064646153846L84.99173854166666,153.11521153846155L84.99900763888888,153.69304846153847L85.25487986111112,154.03438615384616L85.35228576388889,151.98213923076923L85.42061527777778,152.66998846153845L85.73318645833334,153.41665615384616L85.74336319444444,153.36641538461538L85.85239965277778,153.29262L86.02685798611111,152.83827461538462L86.38013611111111,152.74405615384615L86.41357395833333,152.93725846153848L86.41793541666667,153.04236923076922L86.50371076388888,153.44198076923078L86.52261041666667,152.94175153846155L86.64473125,152.69013923076923L86.69125347222223,152.84086153846152L86.87588854166667,151.82501769230768L87.18555208333333,152.8531153846154L87.24079722222223,152.43798230769232L87.39635590277778,152.77646076923077L87.51556909722223,152.48563615384614L87.90810034722222,152.5055146153846L87.94153819444445,153.16436307692308L88.00550625,152.85529384615384L88.01422916666667,151.75231153846153L88.46782083333333,153.2693376923077L88.73532361111111,152.52103615384615L89.04644097222223,152.79770076923077L89.08569409722222,152.72635615384615L89.16565416666667,152.93902846153847L89.64977604166667,152.8356876923077L89.6904829861111,152.40380769230768L90.12662881944445,152.52866076923078L90.20804270833334,152.5734553846154L90.44646909722222,151.55284615384616L90.50898333333333,152.4533676923077L91.03090451388888,152.1878676923077L91.19809375,151.97397L91.7897982638889,152.35656230769231L92.28555069444444,152.39414076923077L92.52252326388889,152.29066384615385L92.65772847222222,152.39414076923077L92.96593819444445,151.85674153846153L93.01536805555556,151.51145538461537L93.06189027777778,152.1639046153846L93.16075,151.7165030769231L93.26687881944444,152.0037876923077L93.52565868055557,151.54671923076924L93.67249444444445,152.45364L93.89929027777778,152.0267976923077L94.05921041666666,152.01413538461537L94.06793333333333,151.94401615384615L94.74395937499999,151.95409153846154L94.76867430555555,152.61511846153846L95.11613715277777,152.1677169230769L95.26733437499999,151.5390946153846L95.4999454861111,151.54317923076923L95.65405034722222,152.04708461538462L95.79070937499999,152.3340969230769L96.20650173611112,151.4399746153846L96.444928125,150.42984923076924L96.46964305555555,151.9754676923077L96.75313784722222,151.08434076923078L96.889796875,150.96575076923077L97.20672951388889,149.68359L97.38700312499999,151.34630076923077L97.40590277777778,150.30254538461537L97.85658680555557,149.90647384615386L97.98161527777778,151.25507769230768L98.06302916666667,151.00237615384614L98.18224236111112,151.57503923076922L98.5224361111111,150.39676384615385L98.54569722222223,150.01294615384614L98.74632430555555,150.0679523076923L98.7972079861111,151.89391153846154L99.16357048611111,149.84493230769232L99.22463090277779,150.87588923076922L99.3394826388889,150.50772923076923L100.10419166666667,148.70219307692307L100.81801701388889,150.1617623076923L101.61616388888889,150.28961076923076L101.91128923611112,148.43778230769232L102.30091284722222,145.3865746153846L102.51753194444446,147.6554423076923L102.60621493055557,149.11814307692308L103.18338125,146.65879615384614L104.02805034722222,148.13143615384615L104.09783368055555,147.32595L104.57323263888888,142.5873876923077L104.69971493055554,147.07542692307692L105.1431298611111,147.83217L105.56182986111112,144.53098384615384L105.64760520833333,144.5776846153846L105.99216041666668,145.07001692307693L106.0881125,147.39566076923077L106.25675555555556,145.84132846153847L107.082525,142.92382384615385L108.03623055555556,142.72449461538463L108.35607083333333,145.90450384615386L108.43748472222222,143.84367923076923L108.85618472222222,142.23461307692307L109.95672604166667,142.48758692307692L110.79412604166667,141.76815L112.957409375,142.54980923076923L113.088253125,142.04073L113.50549930555555,141.51898846153847L116.77659305555555,140.29360384615384L116.95395902777777,159.49647L118.93551493055556,141.2946069230769L120.37770381944445,137.46773076923077L123.06436215277778,135.3212653846154L124.29283958333333,135.0701976923077L132.72063090277777,130.17778153846155L136.51364583333333,160.45894153846154L140.68901527777777,161.01295153846155L141.50896944444443,129.26064923076922L143.76238958333334,160.80735923076924L144.4515,160.88346923076924L145.72649965277776,159.74998846153846L153.49134930555556,125.76653307692308L158.02145069444444,160.61905846153846L160.85494479166667,122.46766153846154L162.87284618055557,120.55197692307692L166.47831840277777,160.39971461538462L170.82087708333336,158.37497076923077L176.9094729166667,120.36517384615385L193.9307909722222,152.5937423076923L194.32186840277777,151.87376076923078L194.6242628472222,133.77877846153848L214.19558020833333,142.2372L214.69714791666667,142.26334153846153L217.98132604166665,150.63993461538462L220.1606013888889,149.63443846153845L220.62727743055555,148.8862730769231L221.16082916666664,140.95585615384616L221.54609131944443,140.34493384615385L223.4215184027778,144.8633353846154L232.19095729166665,142.17661153846154L233.7887048611111,141.61375153846154L234.72932604166667,140.65386692307692L243.00446631944445,136.1991853846154L243.64269305555555,129.2848846153846L246.9515861111111,129.08446615384617L249.78944166666668,124.5427823076923L253.23353993055554,123.65723769230769L253.23499375,129.14355692307691L253.23644756944446,123.49017692307692L253.23790138888887,121.85401615384615L253.23935520833334,27.268483846153856L253.2408090277778,119.62735615384615L253.2422628472222,125.06928923076923L253.24371666666667,119.15177076923078L253.248078125,41.918229230769214L253.24953194444444,83.49389538461537L253.25243958333334,33.86622692307691L253.2582548611111,40.85786307692308L253.25970868055555,34.89037615384615L253.26261631944445,28.793134615384616L253.26407013888888,36.53116615384616L253.26552395833332,28.169277692307702L253.26843159722222,34.71541846153846L253.27133923611112,38.57469923076923L253.27279305555555,27.620713846153848L253.274246875,30.771177692307703L253.2771545138889,34.3471223076923L253.27860833333332,27.84223615384616L253.2800621527778,30.537537692307694L253.2815159722222,34.02579923076925L253.28442361111112,32.371393846153865L253.28587743055553,30.236909999999995L253.28733125,30.082647692307688L253.28878506944446,33.92695153846154L253.2902388888889,35.10522692307691L253.2931465277778,31.260242307692295L253.29460034722223,43.56051692307693L253.29605416666666,34.038325384615376L253.29896180555556,33.25748307692308L253.300415625,30.7570176923077L253.30477708333333,30.878875384615384L253.30768472222223,36.67848461538463L253.30913854166667,34.72549384615385L253.31204618055557,90.43161461538462L253.3135,32.470513846153864L253.31495381944444,31.61737384615384L253.3164076388889,29.06939076923078L253.3178614583333,27.43704230769231L253.31931527777778,40.759696153846164L253.32076909722224,33.44401384615384L253.32513055555557,32.737239230769234L253.32658437499998,32.20365230769232L253.32803819444445,35.70430384615386L253.3294920138889,27.61172769230768L253.33094583333332,30.568172307692294L253.33239965277778,34.34099538461538L253.33385347222224,33.11343230769231L253.33676111111112,30.733054615384617L253.33821493055555,30.03431307692307L253.33966875,31.49524384615384L253.34112256944445,32.31502615384616L253.3425763888889,30.996376153846143L253.34403020833332,36.26689153846152L253.34839166666666,32.06491153846153L253.35129930555556,29.614278461538447L253.352753125,30.129484615384627L253.35420694444443,34.64598000000001L253.3556607638889,31.61206384615386L253.35711458333333,29.828584615384614L253.35856840277776,32.63852769230769L253.36002222222223,27.64168153846154L253.36147604166666,32.95522153846153L253.3629298611111,27.493001538461527L253.36438368055556,34.75830692307693L253.3687451388889,29.98284692307692L253.37019895833333,36.26757230769232L253.37456041666664,34.695539999999994L253.3760142361111,32.217539999999985L253.378921875,29.099616923076923L253.38037569444444,28.253284615384615L253.3818295138889,31.812346153846164L253.38473715277777,32.646696923076945L253.38619097222224,27.94230923076924L253.38764479166667,28.779383076923068L253.39055243055557,31.845295384615383L253.39200625,33.4798223076923L253.39346006944444,27.3326123076923L253.39636770833334,34.89977076923077L253.39782152777778,30.76791L253.39927534722221,27.35480538461539L253.40218298611111,30.53726538461538L253.40363680555555,27.435953076923084L253.405090625,30.436647692307673L253.40799826388889,34.16372307692308L253.40945208333335,27.405999230769254L253.41235972222222,31.55896384615386L253.41381354166668,37.50984L253.4152673611111,34.389602307692314L253.41672118055556,35.83487538461537L253.41817500000002,33.852203076923075L253.41962881944443,31.77898846153846L253.42253645833335,37.18511307692307L253.42399027777776,40.238499230769236L253.4283517361111,30.15671538461538L253.431259375,30.56327076923077L253.43562083333333,30.999099230769247L253.4414361111111,32.06954076923077L253.44870520833334,31.49374615384616L253.45306666666667,30.96846461538462L253.4545204861111,27.28795384615384L253.45597430555554,29.326040769230758L253.457428125,31.822285384615384L253.45888194444444,32.53600384615385L253.46033576388888,38.220971538461555L253.46324340277778,37.32385384615387L253.4646972222222,37.88821153846155L253.4676048611111,32.24327307692306L253.46905868055555,32.46316153846152L253.47196631944445,30.14827384615384L253.47342013888888,35.932089230769236L253.47487395833335,31.06840153846153L253.47632777777778,40.726610769230774L253.47923541666668,30.020153076923094L253.48068923611112,29.461241538461536L253.48214305555555,31.312661538461555L253.483596875,27.625343076923087L253.48505069444445,32.6509176923077L253.4865045138889,27.782736923076925L253.48795833333332,33.66403846153847L253.4894121527778,30.256788461538463L253.49086597222222,30.965741538461543L253.49231979166666,33.55334538461537L253.49377361111112,33.346255384615404L253.49668125,29.045427692307697L253.49813506944446,34.407302307692305L253.50104270833333,33.05121L253.50540416666666,29.495688461538464L253.50831180555554,33.134127692307686L253.51412708333334,30.99079384615385L253.5155809027778,37.45919076923076L253.5170347222222,31.46746846153846L253.51848854166667,33.499292307692315L253.52285,34.7551753846154L253.52430381944444,36.97339384615384" style="fill: none;" fill="none"></path></g></g></g></g></g></g><g transform="translate(68, 177)" clip-path="url(#clip_1)"><clipPath id="clip_1"><rect width="261" height="23"></rect></clipPath><g><g><line x1="0" y1="0" x2="0" y2="5" style="visibility: inherit;" fill="rgb(0, 0, 0)" stroke="rgb(204, 204, 204)" stroke-width="1px"></line><line x1="29.076388888888886" y1="0" x2="29.076388888888886" y2="5" style="visibility: inherit;" fill="rgb(0, 0, 0)" stroke="rgb(204, 204, 204)" stroke-width="1px"></line><line x1="58.15277777777777" y1="0" x2="58.15277777777777" y2="5" style="visibility: inherit;" fill="rgb(0, 0, 0)" stroke="rgb(204, 204, 204)" stroke-width="1px"></line><line x1="87.22916666666666" y1="0" x2="87.22916666666666" y2="5" style="visibility: inherit;" fill="rgb(0, 0, 0)" stroke="rgb(204, 204, 204)" stroke-width="1px"></line><line x1="116.30555555555554" y1="0" x2="116.30555555555554" y2="5" style="visibility: inherit;" fill="rgb(0, 0, 0)" stroke="rgb(204, 204, 204)" stroke-width="1px"></line><line x1="145.38194444444446" y1="0" x2="145.38194444444446" y2="5" style="visibility: inherit;" fill="rgb(0, 0, 0)" stroke="rgb(204, 204, 204)" stroke-width="1px"></line><line x1="174.45833333333331" y1="0" x2="174.45833333333331" y2="5" style="visibility: inherit;" fill="rgb(0, 0, 0)" stroke="rgb(204, 204, 204)" stroke-width="1px"></line><line x1="203.53472222222223" y1="0" x2="203.53472222222223" y2="5" style="visibility: inherit;" fill="rgb(0, 0, 0)" stroke="rgb(204, 204, 204)" stroke-width="1px"></line><line x1="232.6111111111111" y1="0" x2="232.6111111111111" y2="5" style="visibility: inherit;" fill="rgb(0, 0, 0)" stroke="rgb(204, 204, 204)" stroke-width="1px"></line><line x1="261.6875" y1="0" x2="261.6875" y2="5" style="visibility: inherit;" fill="rgb(0, 0, 0)" stroke="rgb(204, 204, 204)" stroke-width="1px"></line></g><g transform="translate(0, 8)"><text x="0" y="0" dx="0em" dy="0.95em" style="text-anchor: middle; visibility: hidden; font-family: &quot;Helvetica Neue&quot;, sans-serif; font-size: 12px; font-weight: 200;" fill="rgb(50, 49, 63)" stroke="none" stroke-width="1px">-20k</text><text x="29.076388888888886" y="0" dx="0em" dy="0.95em" style="text-anchor: middle; visibility: inherit; font-family: &quot;Helvetica Neue&quot;, sans-serif; font-size: 12px; font-weight: 200;" fill="rgb(50, 49, 63)" stroke="none" stroke-width="1px">0</text><text x="58.15277777777777" y="0" dx="0em" dy="0.95em" style="text-anchor: middle; visibility: hidden; font-family: &quot;Helvetica Neue&quot;, sans-serif; font-size: 12px; font-weight: 200;" fill="rgb(50, 49, 63)" stroke="none" stroke-width="1px">20k</text><text x="87.22916666666666" y="0" dx="0em" dy="0.95em" style="text-anchor: middle; visibility: inherit; font-family: &quot;Helvetica Neue&quot;, sans-serif; font-size: 12px; font-weight: 200;" fill="rgb(50, 49, 63)" stroke="none" stroke-width="1px">40k</text><text x="116.30555555555554" y="0" dx="0em" dy="0.95em" style="text-anchor: middle; visibility: hidden; font-family: &quot;Helvetica Neue&quot;, sans-serif; font-size: 12px; font-weight: 200;" fill="rgb(50, 49, 63)" stroke="none" stroke-width="1px">60k</text><text x="145.38194444444446" y="0" dx="0em" dy="0.95em" style="text-anchor: middle; visibility: inherit; font-family: &quot;Helvetica Neue&quot;, sans-serif; font-size: 12px; font-weight: 200;" fill="rgb(50, 49, 63)" stroke="none" stroke-width="1px">80k</text><text x="174.45833333333331" y="0" dx="0em" dy="0.95em" style="text-anchor: middle; visibility: hidden; font-family: &quot;Helvetica Neue&quot;, sans-serif; font-size: 12px; font-weight: 200;" fill="rgb(50, 49, 63)" stroke="none" stroke-width="1px">100k</text><text x="203.53472222222223" y="0" dx="0em" dy="0.95em" style="text-anchor: middle; visibility: inherit; font-family: &quot;Helvetica Neue&quot;, sans-serif; font-size: 12px; font-weight: 200;" fill="rgb(50, 49, 63)" stroke="none" stroke-width="1px">120k</text><text x="232.6111111111111" y="0" dx="0em" dy="0.95em" style="text-anchor: middle; visibility: hidden; font-family: &quot;Helvetica Neue&quot;, sans-serif; font-size: 12px; font-weight: 200;" fill="rgb(50, 49, 63)" stroke="none" stroke-width="1px">140k</text><text x="261.6875" y="0" dx="0em" dy="0.95em" style="text-anchor: middle; visibility: hidden; font-family: &quot;Helvetica Neue&quot;, sans-serif; font-size: 12px; font-weight: 200;" fill="rgb(50, 49, 63)" stroke="none" stroke-width="1px">160k</text></g><line x1="0" y1="0" x2="261.6875" y2="0" fill="rgb(0, 0, 0)" stroke="rgb(204, 204, 204)" stroke-width="1px"></line></g></g></g></g></svg>