<svg viewBox="0 0 330 200" xmlns="http://www.w3.org/2000/svg"><g><g><g><g><g><line x1="68.3125" y1="177" x2="63.3125" y2="177" style="visibility: inherit;" fill="rgb(0, 0, 0)" stroke="rgb(204, 204, 204)" stroke-width="1px"></line><line x1="68.3125" y1="154.875" x2="63.3125" y2="154.875" style="visibility: inherit;" fill="rgb(0, 0, 0)" stroke="rgb(204, 204, 204)" stroke-width="1px"></line><line x1="68.3125" y1="132.75" x2="63.3125" y2="132.75" style="visibility: inherit;" fill="rgb(0, 0, 0)" stroke="rgb(204, 204, 204)" stroke-width="1px"></line><line x1="68.3125" y1="110.625" x2="63.3125" y2="110.625" style="visibility: inherit;" fill="rgb(0, 0, 0)" stroke="rgb(204, 204, 204)" stroke-width="1px"></line><line x1="68.3125" y1="88.5" x2="63.3125" y2="88.5" style="visibility: inherit;" fill="rgb(0, 0, 0)" stroke="rgb(204, 204, 204)" stroke-width="1px"></line><line x1="68.3125" y1="66.375" x2="63.3125" y2="66.375" style="visibility: inherit;" fill="rgb(0, 0, 0)" stroke="rgb(204, 204, 204)" stroke-width="1px"></line><line x1="68.3125" y1="44.25" x2="63.3125" y2="44.25" style="visibility: inherit;" fill="rgb(0, 0, 0)" stroke="rgb(204, 204, 204)" stroke-width="1px"></line><line x1="68.3125" y1="22.125" x2="63.3125" y2="22.125" style="visibility: inherit;" fill="rgb(0, 0, 0)" stroke="rgb(204, 204, 204)" stroke-width="1px"></line><line x1="68.3125" y1="0" x2="63.3125" y2="0" style="visibility: inherit;" fill="rgb(0, 0, 0)" stroke="rgb(204, 204, 204)" stroke-width="1px"></line></g><g transform="translate(58.3125, 0)"><text x="0" y="177" dx="0em" dy="0.3em" style="text-anchor: end; visibility: hidden; font-family: &quot;Helvetica Neue&quot;, sans-serif; font-size: 12px; font-weight: 200;" fill="rgb(50, 49, 63)" stroke="none" stroke-width="1px">-2e+4</text><text x="0" y="154.875" dx="0em" dy="0.3em" style="text-anchor: end; visibility: inherit; font-family: &quot;Helvetica Neue&quot;, sans-serif; font-size: 12px; font-weight: 200;" fill="rgb(50, 49, 63)" stroke="none" stroke-width="1px">0</text><text x="0" y="132.75" dx="0em" dy="0.3em" style="text-anchor: end; visibility: hidden; font-family: &quot;Helvetica Neue&quot;, sans-serif; font-size: 12px; font-weight: 200;" fill="rgb(50, 49, 63)" stroke="none" stroke-width="1px">2e+4</text><text x="0" y="110.625" dx="0em" dy="0.3em" style="text-anchor: end; visibility: inherit; font-family: &quot;Helvetica Neue&quot;, sans-serif; font-size: 12px; font-weight: 200;" fill="rgb(50, 49, 63)" stroke="none" stroke-width="1px">4e+4</text><text x="0" y="88.5" dx="0em" dy="0.3em" style="text-anchor: end; visibility: hidden; font-family: &quot;Helvetica Neue&quot;, sans-serif; font-size: 12px; font-weight: 200;" fill="rgb(50, 49, 63)" stroke="none" stroke-width="1px">6e+4</text><text x="0" y="66.375" dx="0em" dy="0.3em" style="text-anchor: end; visibility: inherit; font-family: &quot;Helvetica Neue&quot;, sans-serif; font-size: 12px; font-weight: 200;" fill="rgb(50, 49, 63)" stroke="none" stroke-width="1px">8e+4</text><text x="0" y="44.25" dx="0em" dy="0.3em" style="text-anchor: end; visibility: hidden; font-family: &quot;Helvetica Neue&quot;, sans-serif; font-size: 12px; font-weight: 200;" fill="rgb(50, 49, 63)" stroke="none" stroke-width="1px">1e+5</text><text x="0" y="22.125" dx="0em" dy="0.3em" style="text-anchor: end; visibility: inherit; font-family: &quot;Helvetica Neue&quot;, sans-serif; font-size: 12px; font-weight: 200;" fill="rgb(50, 49, 63)" stroke="none" stroke-width="1px">1.2e+5</text><text x="0" y="0" dx="0em" dy="0.3em" style="text-anchor: end; visibility: hidden; font-family: &quot;Helvetica Neue&quot;, sans-serif; font-size: 12px; font-weight: 200;" fill="rgb(50, 49, 63)" stroke="none" stroke-width="1px">1.4e+5</text></g><line x1="68.3125" y1="0" x2="68.3125" y2="177" fill="rgb(0, 0, 0)" stroke="rgb(204, 204, 204)" stroke-width="1px"></line></g></g><g transform="translate(68, 0)" clip-path="url(#clip_0)"><clipPath id="clip_0"><rect width="261" height="177"></rect></clipPath><g><g><g><line x1="0" y1="0" x2="0" y2="177" fill="rgb(0, 0, 0)" stroke="rgb(60, 60, 60)" stroke-width="1px" opacity="0.25"></line><line x1="29.076388888888886" y1="0" x2="29.076388888888886" y2="177" fill="rgb(0, 0, 0)" stroke="rgb(60, 60, 60)" stroke-width="1px" opacity="0.25"></line><line x1="58.15277777777777" y1="0" x2="58.15277777777777" y2="177" fill="rgb(0, 0, 0)" stroke="rgb(60, 60, 60)" stroke-width="1px" opacity="0.25"></line><line x1="87.22916666666666" y1="0" x2="87.22916666666666" y2="177" fill="rgb(0, 0, 0)" stroke="rgb(60, 60, 60)" stroke-width="1px" opacity="0.25"></line><line x1="116.30555555555554" y1="0" x2="116.30555555555554" y2="177" fill="rgb(0, 0, 0)" stroke="rgb(60, 60, 60)" stroke-width="1px" opacity="0.25"></line><line x1="145.38194444444446" y1="0" x2="145.38194444444446" y2="177" fill="rgb(0, 0, 0)" stroke="rgb(60, 60, 60)" stroke-width="1px" opacity="0.25"></line><line x1="174.45833333333331" y1="0" x2="174.45833333333331" y2="177" fill="rgb(0, 0, 0)" stroke="rgb(60, 60, 60)" stroke-width="1px" opacity="0.25"></line><line x1="203.53472222222223" y1="0" x2="203.53472222222223" y2="177" fill="rgb(0, 0, 0)" stroke="rgb(60, 60, 60)" stroke-width="1px" opacity="0.25"></line><line x1="232.6111111111111" y1="0" x2="232.6111111111111" y2="177" fill="rgb(0, 0, 0)" stroke="rgb(60, 60, 60)" stroke-width="1px" opacity="0.25"></line><line x1="261.6875" y1="0" x2="261.6875" y2="177" fill="rgb(0, 0, 0)" stroke="rgb(60, 60, 60)" stroke-width="1px" opacity="0.25"></line></g><g><line x1="0" y1="177" x2="261.6875" y2="177" fill="rgb(0, 0, 0)" stroke="rgb(60, 60, 60)" stroke-width="1px" opacity="0.25"></line><line x1="0" y1="154.875" x2="261.6875" y2="154.875" fill="rgb(0, 0, 0)" stroke="rgb(60, 60, 60)" stroke-width="1px" opacity="0.25"></line><line x1="0" y1="132.75" x2="261.6875" y2="132.75" fill="rgb(0, 0, 0)" stroke="rgb(60, 60, 60)" stroke-width="1px" opacity="0.25"></line><line x1="0" y1="110.625" x2="261.6875" y2="110.625" fill="rgb(0, 0, 0)" stroke="rgb(60, 60, 60)" stroke-width="1px" opacity="0.25"></line><line x1="0" y1="88.5" x2="261.6875" y2="88.5" fill="rgb(0, 0, 0)" stroke="rgb(60, 60, 60)" stroke-width="1px" opacity="0.25"></line><line x1="0" y1="66.375" x2="261.6875" y2="66.375" fill="rgb(0, 0, 0)" stroke="rgb(60, 60, 60)" stroke-width="1px" opacity="0.25"></line><line x1="0" y1="44.25" x2="261.6875" y2="44.25" fill="rgb(0, 0, 0)" stroke="rgb(60, 60, 60)" stroke-width="1px" opacity="0.25"></line><line x1="0" y1="22.125" x2="261.6875" y2="22.125" fill="rgb(0, 0, 0)" stroke="rgb(60, 60, 60)" stroke-width="1px" opacity="0.25"></line><line x1="0" y1="0" x2="261.6875" y2="0" fill="rgb(0, 0, 0)" stroke="rgb(60, 60, 60)" stroke-width="1px" opacity="0.25"></line></g></g></g><g><g><line x1="0" y1="154.875" x2="261.6875" y2="154.875" fill="rgb(0, 0, 0)" stroke="rgb(153, 153, 153)" stroke-width="1.5px"></line></g></g><g><g><line x1="29.076388888888886" y1="0" x2="29.076388888888886" y2="177" fill="rgb(0, 0, 0)" stroke="rgb(153, 153, 153)" stroke-width="1.5px"></line></g></g><g><g><g><g><g><path stroke="rgb(255, 112, 67)" stroke-width="2px" d="M29.913788888888888,154.100625L30.01991770833333,153.75128289473685L30.088247222222222,154.08429658671588L30.206006597222224,154.1855479427159L30.22781388888889,154.24585222277844L30.25398263888889,154.2856866464522L30.26706701388889,154.18660027980954L30.38482638888889,154.22977597127243L30.442979166666667,154.29898723627792L30.489501388888886,154.1666237019877L30.54183888888889,154.23761376613567L30.86167916666667,154.21852313001L30.87040208333333,154.0988855491524L30.892209375,154.11345502239197L31.015784027777777,153.95860156689088L31.069575347222223,153.89456230584142L31.120459027777777,153.932569624919L31.143720138888888,153.97837535709215L31.180065625,153.77507495112212L31.312363194444444,153.66101264205915L31.32108611111111,153.6482667334137L31.403953819444446,153.6370893432087L31.418492013888887,153.7000890323522L31.45192986111111,153.52722921645164L31.45919895833333,153.4698225842314L31.565327777777778,153.5727398977103L31.63074965277778,153.46435059870836L31.67000277777778,153.43810445301506L31.754324305555556,153.40314748975538L31.777585416666668,153.33735627498123L31.853184027777775,153.26719380598783L31.886621875,152.99836882553018L31.938959375000003,152.9180498327432L31.984027777777776,152.7438369958956L31.985481597222222,152.67876186457397L32.017465625,152.74500298453333L32.22826944444444,152.71399906424668L32.34602881944444,152.5848041077874L32.40418159722222,152.48023127613814L32.41435833333333,152.40890386643093L32.46524201388889,152.41218208931366L32.536479166666666,152.35914134931738L32.587362847222224,152.2444286548572L32.63679270833333,152.152595212775L32.945002430555554,152.08127571754142L33.096199652777784,151.86110617723332L33.19651319444444,151.8415447671778L33.385509722222224,151.79056592814308L33.57596006944445,151.61123239676448L33.613759375,151.505627392636L33.61957465277777,151.34400247271776L33.62829756944445,151.29866295299493L33.796940625,151.05801752825852L33.79839444444444,151.0858097518327L33.87835451388889,151.0442272305283L33.96412986111111,151.01791995375297L33.965583680555554,151.03861647602332L34.220002083333334,151.00179814580542L34.281062500000004,150.81349234515454L34.333400000000005,150.78816008831262L34.391552777777775,150.79861098180828L34.39736805555555,150.64183418271404L34.49332013888888,150.53400951191253L34.631432986111115,150.49237196929L34.720115972222224,150.22234824570225L34.85386736111111,150.1344044343568L34.90038958333333,150.1770631562827L34.94109652777777,150.1490226498082L34.945457986111116,150.04629886867383L34.993434027777774,149.97599993398796L35.11846250000001,149.9680829760513L35.195514930555554,149.80600491916672L35.210053125,149.78189341369526L35.28274409722222,149.69379285433408L35.294374652777776,149.3821107501111L35.44266423611111,149.51106761640006L35.61857638888888,149.2619486961432L35.66946006944445,149.01562488767576L35.69272118055556,148.74968534223112L35.70580555555556,148.8533644592513L35.816295833333335,148.8913479819142L35.92387847222222,148.77062932082396L35.97621597222222,148.70624363416775L36.02855347222223,148.70361889451786L36.08089097222222,148.43572244454666L36.11723645833334,148.27206869885993L36.48505277777778,148.15797490666597L36.806346875,147.91146673286485L36.83833090277778,147.78918470944475L36.85432291666667,147.67913285504187L36.92701388888889,147.4473286771329L37.12473333333333,147.30508703259068L37.3166375,147.12175564833728L37.33553715277778,147.01207460164943L37.43730451388889,146.52615778399255L37.55651770833333,146.299032810719L37.65537743055555,145.95080434180724L37.71498402777778,145.86972124876186L37.7353375,145.69718153177874L37.774590625,145.37595484637075L37.879265624999995,145.1089779795825L38.01883229166666,144.68063346590637L38.03337048611111,144.12918444146501L38.22818229166667,144.14176621658027L38.29360416666667,143.88758560829248L38.566922222222225,143.63669850598697L38.73701909722222,143.36665022463148L38.80098715277778,143.3559225795105L38.80825625,142.99226407935703L39.10338159722222,142.34415666904772L39.27783993055556,142.24761519744578L39.36216145833333,141.99478928107106L39.392691666666664,141.83362176483323L39.527896874999996,141.7328214758474L39.671825000000005,141.32128707768126L39.872452083333336,141.30490828929868L39.98585,141.16847935603056L40.07162534722222,141.46607010683954L40.347851041666665,141.10333679464992L40.468518055555556,140.93175256109723L40.60517708333334,140.85476458123568L40.93810173611111,140.56422486315049L41.255034375,139.68323780288588L41.303010416666666,139.34391330366765L41.44112326388889,139.32614693942332L41.76823263888889,138.4915308131514L41.85836944444444,138.52581528478996L41.86563854166667,138.42392111466944L42.05899652777777,137.76802818263053L42.092434374999996,137.18878721216043L42.25962361111111,137.0214708213907L42.368660069444445,136.89301112209196L42.511134375000005,136.65570981509848L42.711761458333335,136.84038897001997L42.99671006944445,136.2985997127969L43.134822916666664,135.76673942325954L43.226413541666666,135.5535653661293L43.29910451388889,134.85283348987687L43.440125,134.69786257328727L43.53316944444445,134.66901380463247L43.86464027777778,134.08992471955344L43.867547916666666,133.53555707130542L43.90680104166667,133.0919387372086L44.21501076388889,132.5046197122029L44.34149305555556,131.5888450286814L44.42726840277778,131.36202297848814L44.76600833333333,130.8149455779092L45.117832638888885,130.90888853599483L45.28938333333333,130.6062496363635L45.50164097222222,130.51087465967112L45.520540624999995,130.5024746926691L45.545255555555556,129.86435215264584L46.05263854166667,129.511291902148L46.253265625,129.22672518637498L46.27071145833334,129.70074020605355L46.318687499999996,129.01004113520003L46.34049479166667,128.7645370056057L46.708311111111115,128.77589580571447L46.89585381944445,128.86355622979204L47.122649652777774,128.30082557995308L47.12701111111111,128.54661803251653L47.54425729166667,128.12620621301082L47.62130972222222,128.46689810356446L47.6794625,128.0544582802919L47.901896875,127.81601244554216L47.928065625,127.41334869077387L48.279889930555555,127.25007631796905L48.384564930555555,126.91506867928885L48.40491840277778,126.90118681110326L48.644798611111106,126.71169312683922L48.734935416666666,126.47477381060659L48.75528888888889,126.13985892503106L49.11438229166667,125.65037302658922L49.12746666666667,125.37577322093185L49.233595486111106,125.08438339597504L49.32663993055555,125.17613255718902L50.07244930555556,124.8825817991334L50.13060208333333,125.11619862089373L50.398104861111115,124.65164125580901L50.99417083333333,124.83091463126843L51.142460416666665,124.83738566817539L51.29801909722222,124.67727210060524L51.39978645833333,124.4889198897479L51.59605208333333,124.1313403994117L51.748703125000006,124.11926885942917L51.95659930555556,123.89821697280453L52.163041666666665,123.58864527466486L52.84488298611111,123.5755307471656L52.95828090277778,123.37566517199971L53.07749409722222,123.48341115501773L53.32173576388889,123.5693200396724L53.48456354166667,123.45857553552366L53.68809826388888,123.44740548195482L53.85819513888889,123.44841493376066L54.54439791666667,123.261260940161L54.58219722222222,122.98219734584481L54.62871944444444,122.83060261111363L54.84243090277778,122.77160484995088L55.10557222222222,122.64106936485346L55.12592569444445,122.64527492837108L55.200070486111116,122.58268493549424L55.33527569444445,122.22766644174192L55.39197465277778,122.21789979756272L55.90371909722222,122.08742231774605L55.950241319444444,121.84830508587183L56.25263576388889,121.98709957733668L56.83997881944445,121.83545211955183L57.10166631944445,121.44453190747794L57.23396388888889,121.21439121666725L57.40842222222222,121.19532709499583L57.582880555555555,121.08966938547285L57.69337083333333,120.90607744688899L58.66597604166667,120.63021970215061L58.873872222222225,120.55894773192404L59.105029513888894,120.74924045875929L59.16027465277778,120.80987891289128L59.18498958333333,121.04145352162939L59.305656597222224,121.20562066948384L59.461215277777775,120.77812110249472L59.679288194444446,120.63674649223312L59.965690625,121.0847593430444L59.99622083333333,120.9459084087303L60.663523958333336,120.95369256785776L60.80890590277778,120.9275108110705L60.813267361111116,120.62738472994826L60.855428125,120.73339625695826L60.869966319444444,120.29780663124455L61.13456145833333,120.43677596812523L61.28575868055556,120.57291087131725L61.29157395833333,120.56268228418521L61.31483506944444,120.83003905577388L61.42823298611111,120.88259765019777L61.48493194444445,120.7086503851742L61.58379166666667,120.77334784665806L61.849840625,120.84263806199345L62.10135138888889,120.45143675578791L62.123158680555555,120.80735558021419L62.25109479166667,120.95068252219463L62.43427604166667,120.76992676997307L62.60582673611111,120.66255909297465L62.973643055555556,120.3999906836747L63.040518750000004,120.18580411530544L63.17717777777778,120.31384870377585L63.30511388888889,120.30740133339823L63.377804861111116,120.48966120005954L63.792143402777775,120.43244508005326L63.837211805555555,120.14863807204652L63.93752534722223,120.2914617648425L64.07563819444444,120.38681558835864L64.44926979166667,120.53900902952333L64.61209756944444,120.3883581265705L64.62954340277778,120.27489731391312L64.66443506944444,120.1617200825215L64.72404166666666,119.72798557426832L64.74730277777778,119.44824951684089L64.92466875,119.09692456515612L65.003175,118.93560710864023L65.23869375,118.52492139777556L65.55271875,118.50930425799798L65.65884756944445,118.25187383219786L65.78096840277777,118.09762394897791L65.85656701388889,118.22429905408023L66.03393298611111,118.28299414867226L66.25636736111112,118.45750723380519L66.40320312499999,118.11675651042441L66.60528402777777,117.94283085938184L66.75648125,117.33273527344329L66.85970243055556,117.381024246099L67.09812881944444,117.5572343214892L67.22751875,117.46138588934022L67.28567152777777,116.46799730040581L67.56189722222223,116.47001007036525L67.84539201388888,116.87007156332884L67.87882986111111,117.45137690699613L68.21902361111111,116.96786421629639L68.50251840277778,117.15220279466679L68.71041458333333,117.13004501520011L69.34573368055555,116.30254051367993L69.96796840277779,116.1330364623119L70.09445069444445,115.49373281608064L70.250009375,114.8962345344725L70.29507777777778,113.79429858102512L70.36776875,113.57693122292258L70.4433673611111,112.98305060063025L70.59165694444445,111.93968304056713L70.62218715277778,111.28827723651037L70.80827604166667,111.80826201285936L71.09031701388889,110.76068581157335L71.40724965277778,110.415242230416L71.42324166666666,111.09996800737443L71.79978090277778,110.98609620663697L72.04111493055555,110.79511158597327L72.39003159722222,109.7271629273759L72.4321923611111,109.86119663463832L72.58338958333333,109.60570197117447L72.85379999999999,110.58156927405706L72.91486041666667,110.92884984665135L72.94829826388889,110.88740236198622L72.99336666666666,109.86553712578757L73.31029930555555,109.7202334132088L73.41497430555555,109.39033507188792L73.61560138888889,108.6509265646991L73.64903923611112,109.29083390822922L73.78133680555555,109.00387551740629L73.835128125,109.21023796566566L73.89909618055556,109.00877666909909L73.99359444444444,108.32964900218917L74.19131388888889,108.91318410197026L74.2669125,108.85205319177322L74.51406180555556,109.78159787259591L74.61001388888889,110.04293808533632L75.2715017361111,109.19401927680268L75.54191215277778,109.0494923491224L75.57680381944444,109.58316811421017L75.60006493055556,109.99710130278915L75.66694062500001,109.75014117251024L76.01731111111111,109.59425205525922L76.19322326388888,109.17738934973329L76.40984236111112,108.48140041475995L76.530509375,109.08294787328397L76.6744375,108.61765308595557L77.31993333333332,108.46438777736002L77.37663229166667,108.96807399962401L77.44786944444445,109.29970409966161L77.55690590277777,108.94548368969544L77.71827986111111,108.4828728207259L77.72991041666666,107.4470230386533L77.8156857638889,107.26700823478797L78.29690000000001,107.06074491130917L78.31579965277777,107.45035792017825L79.08632395833334,107.34744712816043L79.17064548611111,107.54245241534437L79.18372986111112,108.10514467380995L79.26078229166667,108.53413020642896L79.29422013888889,107.83609218578604L79.60679131944444,108.01542046720743L80.02839895833334,108.2100034204867L80.0531138888889,108.61744057843802L80.22175694444445,108.09913402059422L80.23193368055556,107.7764706185348L80.23629513888889,107.93963605668131L80.6520875,107.74354745101319L80.99664270833333,107.29050520591187L81.110040625,107.15932968532069L81.26559930555555,107.0855217167886L81.89364930555556,107.05228204510975L81.93290243055556,106.92280384059876L81.97506319444445,106.39696095653889L82.08991493055555,105.81307736088499L82.12480659722222,105.3982071247965L82.17714409722223,105.67751141231685L82.60020555555556,106.09482277108516L82.63218958333333,105.85090299397663L82.78629444444445,105.21100019457897L83.16719513888889,105.00015017512106L83.66440138888889,104.25726015760897L83.66876284722223,104.52897164184807L83.99441840277778,104.98369947766325L84.12090069444444,104.95045452989693L84.22121423611111,104.94265907690723L84.33315833333333,104.97989316921651L84.53669305555556,105.30102885229486L84.6922517361111,104.99267596706537L84.70678993055556,105.14659587035884L84.80274201388889,104.68774878332296L85.09495972222223,104.71728640499066L85.16474305555555,104.14649526449159L85.39299270833332,104.92709573804244L85.68084895833334,104.23576116423818L85.94980555555556,104.53174754781436L86.12717152777778,104.43307279303292L86.12862534722223,104.63189051372964L86.30889895833333,104.30195146235667L86.61420104166667,103.861193816121L86.70143020833333,104.1503869345089L87.04889305555557,104.123035741058L87.20881319444445,103.68910716695221L87.54755312500001,104.36057145025698L88.14361909722223,104.03563930523129L88.21340243055555,103.52195037470817L88.227940625,102.89369283723735L88.44019826388889,102.7707610535136L88.64809444444444,103.06943494816225L89.07987881944445,102.69661645334601L89.2979517361111,102.65976730801141L89.49567118055555,102.59341557721028L89.56400069444445,102.94301151948923L89.72828229166666,102.36158536754031L89.99287743055555,102.51311433078628L90.24584201388889,102.77117789770764L90.71251805555555,102.22906010793689L91.11231840277777,101.8185915971432L91.16610972222223,101.47129493742888L91.30858402777778,101.579102943686L91.31294548611112,101.7093176493174L91.3289375,101.30657338438566L91.74327604166668,100.93304104594708L92.06893159722223,100.93979944135238L92.09510034722223,101.34413199721713L92.4832701388889,101.33190629749542L92.60393715277777,101.14390316774588L92.69552777777777,101.16276285097129L92.72315034722223,101.76604906587417L93.1084125,101.66738165928673L93.30613194444445,101.34626849335808L93.40208402777778,101.25639164402226L93.54165069444446,100.51175247962003L93.7989767361111,100.75976473165802L94.07665625,100.49622575849223L94.142078125,100.38072818264301L94.42848055555557,99.9891553643787L94.47500277777779,100.34473982794083L94.66690694444445,100.16695334514674L95.12195243055555,100.08438301063207L95.16702083333334,99.93263220956885L95.99279027777777,100.02836898861196L96.09746527777779,100.70084458975076L96.1599795138889,100.79719763077568L96.17887916666666,100.77329036769811L96.31989965277778,100.29821133092828L96.43765902777777,100.62289019783546L96.54088020833333,100.57216367805192L96.70225416666666,100.22782231024672L96.82582881944444,99.63029007922206L97.072978125,99.35801107129986L97.19946041666667,99.97583496416985L97.23144444444443,99.61368896775288L97.47132465277777,99.85194507097759L97.57018437500001,100.18806306387984L97.69666666666667,100.19188175749186L98.31308611111112,99.63113108174265L98.44247604166667,99.9229554735684L98.76813159722222,99.55503492621155L99.66077673611112,98.85884393359039L99.87448819444445,98.50883454023136L100.68862708333333,98.55888858620823L100.86017777777778,98.9468747275874L100.86453923611111,98.67656225482865L101.09860416666666,98.94215602934578L101.11168854166667,99.29181542641122L101.14221875,99.14188388377009L101.65687083333334,99.27244549539307L101.70630069444444,99.27932594585377L101.95490381944444,98.5222058512684L102.13808506944444,98.29436026614155L102.1628,98.1003617395274L102.59603819444445,97.85938806557463L102.777765625,97.66463675901718L103.00601527777778,97.23492308311548L103.06562187499999,96.92561827480391L103.23135729166667,96.58086894732352L103.25025694444444,96.80159455259115L103.536659375,97.21043509733205L103.55555902777778,97.98770408759886L103.98734340277778,98.24474617883898L104.08038784722223,98.00039656095507L104.14290208333334,97.96854440485957L104.27083819444445,97.48631496437362L104.51507986111112,97.47268346793624L105.36120277777778,97.20597762114262L105.66941249999999,96.62300485902834L105.88457777777778,96.6957043731255L106.12155034722223,96.82750893581297L106.24221736111112,96.65850804223166L106.32508506944444,96.6944697380085L106.52716597222222,97.02552276420765L106.755415625,96.95840798778687L106.95604270833333,97.0196921890082L107.16539270833333,96.99741047010738L107.331128125,96.81141942309664L107.44016458333334,96.14621498078697L107.68586006944444,95.97896848270828L108.56251319444443,96.53644663443745L108.72970243055556,96.4961144709937L108.99284374999999,95.98412802389433L109.28360763888888,95.6339652215049L109.29814583333334,94.8210061993544L109.48568854166666,95.29515557941895L109.72702256944444,95.30151502147706L109.76336805555556,95.50636351932934L109.90293472222223,95.1486646673964L110.00615590277778,95.46836070065679L110.25039756944444,95.71183713059109L110.7883107638889,95.69865341753199L111.28842465277778,95.21110057577879L111.29133229166668,94.2855530182009L111.96735833333334,94.63624771638082L112.01097291666666,94.05581044474273L112.86872638888889,93.86529190026846L112.96903993055555,93.3398252102416L113.16821319444443,92.75628018921745L113.30632604166667,92.83952717029571L113.61017430555556,91.52057445326614L114.07685034722223,91.09682950793952L114.422859375,90.15127155714556L114.60749444444444,89.521519401431L114.73833819444444,88.11399246128789L115.18902222222222,88.58403071515912L115.27770520833333,88.2326901436432L115.47106319444445,87.60673362927889L115.50304722222222,88.370872766351L116.15290451388888,88.68247298971589L116.3230013888889,88.2881006907443L117.11678680555556,87.57916562166986L117.21273888888888,87.28406155950287L117.52531006944444,87.0627179035526L117.63580034722223,86.02275861319734L117.79717430555556,86.0824202518776L118.87009305555556,85.27324072668985L119.211740625,84.54497915402085L119.46179756944444,84.09973123861876L119.81216805555556,83.4777581147569L119.87032083333334,83.2609198032812L120.1959763888889,83.36445282295308L120.37043472222221,82.97088254065778L120.389334375,83.579106786592L120.71789756944445,83.1972586079328L120.72080520833333,84.0040952471395L121.19184270833334,83.95587322242555L121.20783472222223,84.36603590018302L121.48406041666667,83.9718698101647L121.71085625,83.58393282914822L121.78500104166666,84.39635204623339L121.93474444444445,84.01021684161005L122.91898020833334,83.91713265744905L123.02365520833334,83.74485689170415L123.22137465277778,83.81105870253373L123.58919097222223,83.46132783228036L123.98026840277777,82.99169504905234L124.04132881944444,82.63540054414709L124.04569027777778,82.15986048973237L124.22596388888888,81.45531194075913L124.48183611111111,81.52921824668324L124.77986909722223,82.2926714220149L125.15786215277778,82.39346677981341L126.54916736111112,82.46205760183207L126.73089479166667,82.64547684164886L127.23827777777778,82.42336665748398L127.51014201388888,82.00221749173556L127.65407013888888,81.26918324256202L127.71803819444445,81.68251491830581L128.01025590277777,80.64957592647524L128.5467152777778,80.70449333382771L128.61359097222223,80.98623150044496L128.8258486111111,81.64910835040045L128.89563194444446,81.3496350153604L128.91598541666667,81.33454651382438L129.10788958333333,81.07759186244193L129.15441180555555,80.70252017619774L129.24745625,80.99551815857797L129.45244479166666,82.03359134272016L129.75920069444444,81.65141970844815L130.12410937500002,81.69465273760333L130.2186076388889,80.30649996384301L130.35381284722223,80.55059996745871L130.6867375,80.63753997071285L130.73907499999999,81.82203597364156L130.8277579861111,80.77514487627742L130.85974201388888,81.09406788864969L131.37875555555556,80.94966109978473L131.406378125,80.79756998980626L132.55634930555556,80.71600049082562L132.5665260416667,80.49877544174308L132.85728993055557,80.35858539756877L132.88055104166668,79.83416435781187L133.45190208333332,78.4771854220307L133.63217569444444,78.71615437982761L133.74848125,78.69891394184486L134.10321319444444,77.8868975476604L134.29657118055553,77.62070779289434L134.73853229166667,77.80151201360492L135.00894270833334,77.66554831224444L135.35349791666667,78.14055598102L135.37821284722224,78.05918788291798L135.4203736111111,78.87095659462621L135.5730246527778,78.15236093516359L136.20979756944445,78.19149984164723L136.30720347222223,77.9059123574825L136.3231954861111,78.11350862173427L136.64158194444445,78.03484525956083L136.6590277777778,77.87554823360473L136.718634375,78.04193091024428L136.91926145833332,78.26911281921986L137.38157604166668,78.29657653729785L137.43972881944444,78.80804388356808L137.56330347222223,78.50505199521126L137.6999625,78.76335929569014L137.75084618055556,78.97371086612112L138.09685520833332,79.21833977950902L138.55771597222224,79.13981830155812L138.74525868055554,78.9363989714023L139.09562916666667,78.70907157426208L139.14796666666666,79.01335191683587L139.3645857638889,78.78939172515229L140.16418645833332,79.12989005263707L140.31247604166666,79.20402604737336L140.37644409722222,79.18224844263602L140.69628437499998,78.47677359837242L141.0728236111111,78.17372123853518L141.21093645833332,78.34347411468167L141.26036631944444,78.1311892032135L141.415925,78.10607028289215L141.69651215277779,77.62990075460293L141.8869625,77.34516067914265L142.45685972222222,77.00039461122839L142.47721319444446,76.18123015010553L142.5048357638889,76.34004463509497L142.66766354166668,76.78166517158549L143.0936326388889,77.02424865442693L143.70569062500002,76.81113628898423L143.73331319444446,76.55296016008582L143.91067916666668,76.68566414407725L143.94266319444444,77.44672272966952L144.23197326388888,77.27986295670256L144.3526402777778,76.7978141610323L145.23656250000002,76.69584524492909L145.3703138888889,75.67482322043618L145.39939027777777,75.84002839839258L145.7672065972222,73.94215055855332L146.270228125,74.20318550269798L146.3647263888889,73.55311695242818L146.4853934027778,73.45480525718536L146.55226909722222,73.20038723146682L146.7776111111111,73.48028600832015L146.79505694444444,73.44456990748812L147.0654673611111,74.14255041673931L147.62664166666667,74.50523287506539L147.7560315972222,75.03077208755884L148.20526180555555,74.69619487880297L148.27649895833332,75.16945039092265L148.35936666666666,75.0422553518304L148.3739048611111,74.27509231664736L148.97433229166668,74.10458308498262L149.56312916666667,73.91793727648435L149.72741076388888,73.79420604883593L149.85389305555555,74.30234794395233L150.6476784722222,74.80392564955709L150.64913229166666,75.16684558460138L150.9835107638889,75.39391102614125L151.45890972222222,74.91239492352712L151.5519541666667,75.14278043117442L152.19308854166667,73.94518988805696L152.20617291666667,73.66385839925128L152.2861329861111,73.91953505932615L152.71791736111112,73.87308155339352L152.81096180555556,74.09677339805417L153.2078545138889,73.96622105824873L153.47535729166668,74.60097395242386L153.56694791666666,74.75187655718148L153.64836180555557,74.58900140146332L153.71669131944444,72.606038761317L153.9144107638889,72.5803098851853L154.53519166666666,72.82265389666675L154.958253125,72.77526350700008L156.64904513888888,73.15298715630006L156.68102916666666,72.88450094067007L157.0880986111111,73.54998834660306L157.24511111111113,73.94980201194275L157.62601180555555,74.08838431074845L157.9182295138889,74.54498337967361L158.07814965277777,72.69917254170628L158.58553263888888,73.08450528753563L158.62769340277777,73.17686725878207L158.70910729166667,72.55199303290385L158.73963750000001,73.56048122961346L159.22957465277776,73.88180810665213L159.3386111111111,73.70637729598691L159.62210590277778,73.8361145663882L159.98992222222222,73.36656560974939L160.00882187500002,73.40859654877444L160.05970555555555,73.579174393897L160.22398715277777,73.5446319545073L160.5947111111111,73.43610625905656L161.43065729166668,72.45343313315092L161.69961388888888,72.3102148198358L162.37563993055556,72.23663083785222L162.71874131944443,72.60184275406701L163.73786875000002,71.93490847866029L164.04898611111113,71.94310513079425L164.32957326388888,72.07216961771483L164.75118090277778,72.13301515594334L165.4024920138889,70.83815114034901L165.75722395833333,70.5356485263141L165.8153767361111,69.78770867368269L165.87643715277775,69.77831280631442L166.54228645833334,68.42023152568298L166.72110625,69.01220837311469L167.04966944444445,69.5781750358032L167.1761517361111,70.72917003222288L167.18778229166668,71.4442530290006L167.2183125,71.52364022610053L168.4322517361111,71.77208870349047L168.44969756944442,71.89612983314142L168.4845892361111,71.25551684982727L169.03849444444444,71.34271516484453L169.5923996527778,70.1490061483601L169.64909861111113,70.41323053352407L169.68253645833332,69.76603248017166L169.72615104166667,70.3451167321545L169.78866527777777,71.09860505893904L169.8162878472222,70.47136955304515L169.92532430555553,69.58604509774062L170.5577357638889,69.50831558796656L170.91682916666667,69.77023402916991L171.12036388888887,70.30464812625291L171.89815729166668,70.49799581362761L172.01155520833333,70.82688373226485L172.14239895833336,70.80207035903835L172.46369305555555,70.60273832313452L173.4493826388889,70.62246449082107L173.85354444444445,70.80615554173896L174.52375520833334,69.15722748756507L174.64151458333333,69.21087973880854L175.26374930555556,69.03791676492769L175.47600694444444,68.79375008843492L175.64465,68.68462507959143L176.05608090277778,68.74128757163228L176.06044236111111,67.52009631446904L176.3148607638889,66.70864918302215L176.60562465277778,65.63540926471993L177.3877795138889,65.37749333824793L177.52153090277778,64.86880650442313L177.62184444444443,63.891050853980815L178.56391944444445,63.22125826858273L178.59735729166667,62.78438244172446L180.00029305555557,58.78481919755201L180.11369097222223,58.90221227779681L180.36956319444442,60.25792855001711L180.7446486111111,60.22801069501541L181.14881041666666,60.01302212551387L181.52389583333334,59.62040741296248L181.5616951388889,60.26267917166622L182.18538368055556,60.84072375449959L182.252259375,61.305651379049635L182.65060590277778,60.46296124114468L182.8076184027778,60.003227617030205L183.04749861111114,59.755404855327185L183.08820555555553,60.760301869794475L183.16961944444444,60.89033418281501L183.6624642361111,62.2684882645335L183.71334791666666,61.418014438080164L184.38065104166668,62.84296299427214L184.48387222222223,63.00810419484492L184.55074791666667,63.488606275360425L184.9185642361111,64.4631206478244L184.94327916666666,64.96405858304195L185.4346701388889,62.759902724737756L185.75887187499998,63.43116245226399L185.8155708333333,64.33398370703758L185.86790833333333,65.16864783633382L186.50904270833334,63.65203305270042L187.03677916666666,63.07251724743038L187.06294791666667,62.73901552268734L187.2475829861111,62.5163014704186L187.32754305555554,61.24279632337674L187.37551909722222,60.81570419103906L187.9541392361111,60.81850877193513L188.55311284722222,60.732532894741624L188.65633402777777,60.52240460526747L188.6955871527778,58.596476644740704L188.75083229166668,57.703891480266634L188.7653704861111,58.83650233223996L188.794446875,58.87128959901597L188.8700454861111,60.41816063911439L189.53880243055556,58.701782075202956L189.90516493055554,58.993416367682656L189.93424131944445,60.53913723091439L190.07090034722222,60.01647350782294L190.2409972222222,59.999638657040634L190.27007361111112,60.54867479133658L191.03332881944445,60.08036981220293L191.22377916666667,60.77620783098263L191.4840128472222,61.11483704788435L191.60177222222222,61.220478343095905L191.61631041666666,60.41949300878632L191.70208576388887,60.35129370790767L192.49150972222222,60.73241433711692L193.01343090277777,59.073110403405224L193.13700555555553,60.2789868630647L193.15590520833334,60.61202567675822L193.24749583333335,60.40288560908239L194.07035763888888,59.28540954817416L194.28552291666665,59.60718109335674L194.40764375,57.507275484021065L194.73184548611113,57.962610435618956L195.10693090277778,56.02716189205705L195.24649756944444,56.50882070285134L195.54743819444445,56.40025113256621L195.88327048611112,56.39103851930959L196.2452715277778,55.741122167378634L196.29615520833332,54.69157245064076L196.71630902777775,54.28904020557668L197.0477798611111,52.953261185019L197.29347534722223,53.111747566517096L197.35308194444445,53.51988530986537L197.46066458333334,54.45139677887883L197.86046493055554,53.906944600990954L198.15849791666668,54.213437640891854L198.2021125,54.16846887680268L198.5757440972222,54.2275594891224L198.80835520833335,54.64580354021015L198.9508295138889,54.73459818618913L199.03515104166667,54.51582586757023L200.0237482638889,55.10436828081319L200.21274479166667,55.91061895273188L200.46716319444445,55.120682057458666L200.4860628472222,53.71280135171281L201.56334305555555,51.09608371654153L202.0067579861111,52.170412844887366L202.06927222222222,52.11955906039863L202.56066319444446,51.91891565435877L202.5926472222222,52.789274088922895L203.03024687500002,52.919909180030615L203.15382152777778,52.72773076202755L203.42423194444444,53.7937701858248L203.50855347222222,53.08276816724231L204.03192847222223,53.89205385051807L204.6628861111111,52.341535965466264L204.7443,51.33325736891963L204.86351319444444,53.06974413202768L205.00744131944444,52.6192072188249L205.21388368055554,51.981411496942414L205.6761982638889,50.798957847248175L206.18939652777777,50.16618706252336L206.34495520833332,50.34894335627101L206.4816142361111,51.57542402064392L206.50196770833332,50.643756618579516L207.75370625000002,49.47338095672157L208.00812465277778,49.802855361049424L208.28725798611111,49.23650732494447L209.46921319444445,48.31748159245001L209.9024513888889,48.57448343320502L210.226653125,48.086722589884516L211.1789048611111,48.59911283089605L211.19053541666668,48.98282654780644L211.3940701388889,46.88335639302579L212.07155,46.92977075372323L212.23873923611112,46.5069186783509L212.5760253472222,45.639601810515785L212.90022708333333,46.57370412946423L212.9511107638889,47.8015837165178L212.98891006944444,45.93086284486603L213.890278125,45.12115156037942L214.33950833333336,43.55166140434147L214.5677579861111,44.40693276390732L214.6942402777778,42.70973948751657L214.76693125,43.37264053876493L215.08386388888889,42.57537648488844L216.2687267361111,43.67208883639958L216.38357847222224,41.65012995275961L216.38793993055558,40.87024195748364L216.89096145833332,39.46034276173526L217.5669875,37.99230848556175L218.02930208333333,39.259702637005574L218.48725520833332,38.132544873304994L218.5584923611111,38.27966538597451L219.20544201388887,38.82138634737703L219.88292187500002,37.295560212639344L220.01231180555556,36.409066691375415L220.03557291666667,37.33697252223786L220.9980013888889,34.11215027001407L221.034346875,34.45112274301263L221.2277048611111,34.35794796871136L221.59115972222222,36.18790317184022L221.62023611111113,37.0162378546562L221.67693506944445,35.947489069190596L222.107265625,36.97686516227154L222.4532746527778,38.721928646044375L222.91122777777778,38.577798281439954L223.0595173611111,38.68039345329592L223.39244201388888,39.148854107966315L223.70792083333333,36.5393436971697L223.73699722222221,38.372409327452715L224.04084548611112,38.71679339470745L225.2111701388889,40.18830155523668L225.31584513888887,34.25565889971301L225.5818940972222,35.80821800974172L225.61387812499999,34.84920870876752L226.71732708333332,36.97297533789077L226.83944791666667,37.1364903041017L226.92667708333332,38.03590377369153L226.98628368055557,39.553375896322365L227.34683090277775,41.18460080669013L227.48058229166665,39.123765726021105L228.25110659722225,38.474826653419L228.51860937499998,38.8310939880771L229.08850659722222,39.328734589269374L229.44033090277776,40.296548630342414L229.78924756944446,40.525956267308175L230.31262256944444,39.51554814057738L231.1747375,39.51330582651963L231.66612847222223,40.05335024386767L231.7708034722222,40.79382771948087L232.09645902777777,42.50013244753279L232.27091736111112,41.5024942027795L232.65472569444447,42.275057282501564L232.7114246527778,43.64517655425141L233.0356263888889,43.50653389882626L233.6316923611111,43.76894300894364L233.6418690972222,40.10004870804926L233.74072881944446,38.01491883724432L233.83958854166664,37.64280195351992L234.71188020833335,37.54020925816792L235.0477125,37.846125832351106L235.11168055555558,37.966575749116004L235.38354479166665,37.62141817420439L235.90401215277777,35.89477635678395L235.9665263888889,38.55561122110558L236.0973701388889,38.870612598995024L236.69198229166665,39.62980133909548L236.7152434027778,40.810883705185944L236.8867940972222,41.05523283466735L237.01036875,35.655397051200595L237.25751805555555,36.93523234608054L238.201046875,37.05827161147246L238.63573888888888,37.4898194503252L238.65463854166669,36.716650005292706L238.96866354166667,37.38148500476342L239.56472951388886,38.63252400428706L239.849678125,36.959646603858374L240.09246597222221,36.27268194347255L240.30763125000001,36.65003874912526L240.39049895833332,37.08922237421274L240.95748854166666,36.98667513679146L241.06943263888888,35.69963262311231L241.21917604166666,36.97504436080109L241.9242784722222,38.067602424720974L241.93445520833333,36.141467182248874L242.62211180555556,36.38813296402398L242.9870204861111,36.0901946676216L243.60634756944444,36.297737700859415L244.54115347222222,36.50665143077347L244.5673222222222,33.320611287696124L244.6283826388889,34.1701751589265L245.11395833333333,33.51878264303386L246.89343333333335,35.222466878730444L247.11296006944443,36.83322019085742L247.80352430555556,36.73414817177169L248.10155729166667,38.16054585459452L248.11173402777777,38.20530376913507L248.57259479166666,39.27439839222154L248.57695625,38.853771052999406L248.812475,39.08364394769947L249.33439618055556,37.4762795529295L249.4114486111111,37.79965159763657L249.5640996527778,37.23887393787291L249.767634375,37.80723654408561L250.04095243055556,38.54001288967703L250.1906958333333,38.33663660070934L250.3753309027778,37.22434794063841L250.78094652777776,35.10597564657459L251.3566590277778,34.184003081917126L251.58490868055554,34.172852773725396L251.7142986111111,34.22919249635285L251.71720625,34.622835746717556L251.71866006944444,34.94392717204582L251.72156770833334,34.458534454841214L251.72592916666665,34.92880600935709L251.72883680555557,35.6839254084214L251.73029062499998,34.825845367579234L251.7331982638889,33.27919833082129L251.73610590277778,33.45809099773919L251.73755972222224,34.725344397965245L251.73901354166665,35.545059958168736L251.74192118055558,36.02836646235187L251.743375,34.96990481611667L251.74773645833332,32.424289334505005L251.75064409722222,32.34573540105447L251.75209791666666,32.86134936094902L251.76372847222223,33.56877692485412L251.76518229166666,34.636899232368705L251.76808993055556,34.28177180913181L251.76954375,34.67015712821865L251.77535902777777,34.532953915396774L251.78262812499997,36.854283523857106L251.78408194444444,37.52748017147138L251.7855357638889,37.00498215432424L251.7869895833333,33.569983938891795L251.78844340277777,34.47204804500262L251.78989722222224,33.20415574050236L251.7928048611111,33.777740166452105L251.7957125,33.762966149806886L251.80007395833334,34.4466070348262L251.80152777777778,31.85375883134361L251.8058892361111,32.91638294820922L251.80734305555555,35.0896196533883L251.81461215277778,35.65165768804948L251.81751979166668,35.23930441924452L251.82624270833335,35.86381147732007L251.82769652777776,35.02093032958808L251.82915034722222,34.649524796629265L251.8306041666667,35.03432231696635L251.8320579861111,33.9203900852697L251.83641944444443,36.833976076742715L251.83932708333333,35.52901596906847L251.84368854166667,34.3434893721616L251.8451423611111,34.46020293494544L251.84950381944444,33.60280764145088L251.85241145833334,34.59008937730579L251.8553190972222,34.1400804395752" style="fill: none;" fill="none"></path></g></g></g></g><g opacity="0.2"><g><g><g><path stroke="rgb(255, 112, 67)" stroke-width="2px" d="M29.913788888888888,154.100625L30.01991770833333,153.436875L30.088247222222222,154.65375L30.206006597222224,154.4325L30.22781388888889,154.4325L30.25398263888889,154.4325L30.26706701388889,153.76875L30.38482638888889,154.4325L30.442979166666667,154.65375L30.489501388888886,153.436875L30.54183888888889,154.65375L30.86167916666667,154.100625L30.87040208333333,153.32625L30.892209375,154.21125L31.015784027777777,152.88375L31.069575347222223,153.436875L31.120459027777777,154.21125L31.143720138888888,154.321875L31.180065625,152.22L31.312363194444444,152.773125L31.32108611111111,153.5475L31.403953819444446,153.5475L31.418492013888887,154.21125L31.45192986111111,152.109375L31.45919895833333,152.994375L31.565327777777778,154.4325L31.63074965277778,152.551875L31.67000277777778,153.215625L31.754324305555556,153.105L31.777585416666668,152.773125L31.853184027777775,152.6625L31.886621875,150.67125L31.938959375000003,152.22L31.984027777777776,151.224375L31.985481597222222,152.109375L32.017465625,153.32625L32.22826944444444,152.44125L32.34602881944444,151.445625L32.40418159722222,151.55625L32.41435833333333,151.7775L32.46524201388889,152.44125L32.536479166666666,151.888125L32.587362847222224,151.224375L32.63679270833333,151.335L32.945002430555554,151.445625L33.096199652777784,149.896875L33.19651319444444,151.666875L33.385509722222224,151.335L33.57596006944445,150.0075L33.613759375,150.560625L33.61957465277777,149.896875L33.62829756944445,150.8925L33.796940625,148.90125L33.79839444444444,151.335L33.87835451388889,150.67125L33.96412986111111,150.781875L33.965583680555554,151.224375L34.220002083333334,150.67125L34.281062500000004,149.1225L34.333400000000005,150.560625L34.391552777777775,150.8925L34.39736805555555,149.233125L34.49332013888888,149.565L34.631432986111115,150.118125L34.720115972222224,147.795L34.85386736111111,149.34375L34.90038958333333,150.560625L34.94109652777777,149.896875L34.945457986111116,149.1225L34.993434027777774,149.34375L35.11846250000001,149.896875L35.195514930555554,148.348125L35.210053125,149.565L35.28274409722222,148.90125L35.294374652777776,146.578125L35.44266423611111,150.67125L35.61857638888888,147.020625L35.66946006944445,146.799375L35.69272118055556,146.356875L35.70580555555556,149.78625L35.816295833333335,149.233125L35.92387847222222,147.684375L35.97621597222222,148.126875L36.02855347222223,148.68L36.08089097222222,146.025L36.11723645833334,146.799375L36.48505277777778,147.13125L36.806346875,145.693125L36.83833090277778,146.68875L36.85432291666667,146.68875L36.92701388888889,145.36125L37.12473333333333,146.025L37.3166375,145.471875L37.33553715277778,146.025L37.43730451388889,142.153125L37.55651770833333,144.255L37.65537743055555,142.816875L37.71498402777778,145.14L37.7353375,144.144375L37.774590625,142.485L37.879265624999995,142.70625L38.01883229166666,140.825625L38.03337048611111,139.16625L38.22818229166667,144.255L38.29360416666667,141.6L38.566922222222225,141.37875L38.73701909722222,140.93625L38.80098715277778,143.259375L38.80825625,139.719375L39.10338159722222,136.51125L39.27783993055556,141.37875L39.36216145833333,139.719375L39.392691666666664,140.383125L39.527896874999996,140.825625L39.671825000000005,137.6175L39.872452083333336,141.1575L39.98585,139.940625L40.07162534722222,144.144375L40.347851041666665,137.83875L40.468518055555556,139.3875L40.60517708333334,140.161875L40.93810173611111,137.949375L41.255034375,131.754375L41.303010416666666,136.29L41.44112326388889,139.16625L41.76823263888889,130.98L41.85836944444444,138.834375L41.86563854166667,137.506875L42.05899652777777,131.865L42.092434374999996,131.97562499999998L42.25962361111111,135.515625L42.368660069444445,135.736875L42.511134375000005,134.52L42.711761458333335,138.5025L42.99671006944445,131.4225L43.134822916666664,130.98L43.226413541666666,133.635L43.29910451388889,128.54625L43.440125,133.303125L43.53316944444445,134.409375L43.86464027777778,128.878125L43.867547916666666,128.54625L43.90680104166667,129.099375L44.21501076388889,127.21875L44.34149305555556,123.34687500000001L44.42726840277778,129.320625L44.76600833333333,125.89125L45.117832638888885,131.754375L45.28938333333333,127.8825L45.50164097222222,129.6525L45.520540624999995,130.426875L45.545255555555556,124.12125L46.05263854166667,126.33375000000001L46.253265625,126.665625L46.27071145833334,133.96687500000002L46.318687499999996,122.79374999999999L46.34049479166667,126.555L46.708311111111115,128.878125L46.89585381944445,129.6525L47.122649652777774,123.23625L47.12701111111111,130.75875000000002L47.54425729166667,124.3425L47.62130972222222,131.53312499999998L47.6794625,124.3425L47.901896875,125.67L47.928065625,123.789375L48.279889930555555,125.780625L48.384564930555555,123.9L48.40491840277778,126.77625L48.644798611111106,125.00625L48.734935416666666,124.3425L48.75528888888889,123.125625L49.11438229166667,121.245L49.12746666666667,122.904375L49.233595486111106,122.461875L49.32663993055555,126.001875L50.07244930555556,122.240625L50.13060208333333,127.21875L50.398104861111115,120.470625L50.99417083333333,126.444375L51.142460416666665,124.895625L51.29801909722222,123.23625L51.39978645833333,122.79374999999999L51.59605208333333,120.913125L51.748703125000006,124.010625L51.95659930555556,121.90875L52.163041666666665,120.80250000000001L52.84488298611111,123.45750000000001L52.95828090277778,121.576875L53.07749409722222,124.453125L53.32173576388889,124.3425L53.48456354166667,122.461875L53.68809826388888,123.34687500000001L53.85819513888889,123.45750000000001L54.54439791666667,121.576875L54.58219722222222,120.470625L54.62871944444444,121.46625L54.84243090277778,122.240625L55.10557222222222,121.46625L55.12592569444445,122.68312499999999L55.200070486111116,122.019375L55.33527569444445,119.0325L55.39197465277778,122.13L55.90371909722222,120.913125L55.950241319444444,119.69625L56.25263576388889,123.23625L56.83997881944445,120.470625L57.10166631944445,117.92625000000001L57.23396388888889,119.143125L57.40842222222222,121.02375L57.582880555555555,120.13875L57.69337083333333,119.25375L58.66597604166667,118.1475L58.873872222222225,119.91749999999999L59.105029513888894,122.461875L59.16027465277778,121.355625L59.18498958333333,123.125625L59.305656597222224,122.68312499999999L59.461215277777775,116.930625L59.679288194444446,119.364375L59.965690625,125.116875L59.99622083333333,119.69625L60.663523958333336,121.02375L60.80890590277778,120.69187500000001L60.813267361111116,117.92625000000001L60.855428125,121.6875L60.869966319444444,116.3775L61.13456145833333,121.6875L61.28575868055556,121.798125L61.29157395833333,120.470625L61.31483506944444,123.23625L61.42823298611111,121.355625L61.48493194444445,119.143125L61.58379166666667,121.355625L61.849840625,121.46625L62.10135138888889,116.930625L62.123158680555555,124.010625L62.25109479166667,122.240625L62.43427604166667,119.143125L62.60582673611111,119.69625L62.973643055555556,118.03687500000001L63.040518750000004,118.258125L63.17717777777778,121.46625L63.30511388888889,120.249375L63.377804861111116,122.13L63.792143402777775,119.91749999999999L63.837211805555555,117.594375L63.93752534722223,121.576875L64.07563819444444,121.245L64.44926979166667,121.90875L64.61209756944444,119.0325L64.62954340277778,119.25375L64.66443506944444,119.143125L64.72404166666666,115.824375L64.74730277777778,116.930625L64.92466875,115.935L65.003175,117.48375L65.23869375,114.82875L65.55271875,118.36875L65.65884756944445,115.935L65.78096840277777,116.709375L65.85656701388889,119.364375L66.03393298611111,118.81125L66.25636736111112,120.02812499999999L66.40320312499999,115.05000000000001L66.60528402777777,116.3775L66.75648125,111.841875L66.85970243055556,117.81562500000001L67.09812881944444,119.143125L67.22751875,116.59875L67.28567152777777,107.5275L67.56189722222223,116.488125L67.84539201388888,120.470625L67.87882986111111,122.68312499999999L68.21902361111111,112.61625L68.50251840277778,118.81125L68.71041458333333,116.930625L69.34573368055555,108.855L69.96796840277779,114.6075L70.09445069444445,109.74L70.250009375,109.51875L70.29507777777778,103.876875L70.36776875,111.620625L70.4433673611111,107.638125L70.59165694444445,102.549375L70.62218715277778,105.425625L70.80827604166667,116.488125L71.09031701388889,101.3325L71.40724965277778,107.30625L71.42324166666666,117.26249999999999L71.79978090277778,109.96125L72.04111493055555,109.07625L72.39003159722222,100.115625L72.4321923611111,111.0675L72.58338958333333,107.30625L72.85379999999999,119.364375L72.91486041666667,114.054375L72.94829826388889,110.514375L72.99336666666666,100.66875L73.31029930555555,108.4125L73.41497430555555,106.42125L73.61560138888889,101.99625L73.64903923611112,115.05000000000001L73.78133680555555,106.42125L73.835128125,111.0675L73.89909618055556,107.195625L73.99359444444444,102.2175L74.19131388888889,114.165L74.2669125,108.301875L74.51406180555556,118.1475L74.61001388888889,112.395L75.2715017361111,101.55375L75.54191215277778,107.74875L75.57680381944444,114.38624999999999L75.60006493055556,113.7225L75.66694062500001,107.5275L76.01731111111111,108.19125L76.19322326388888,105.425625L76.40984236111112,102.2175L76.530509375,114.49687499999999L76.6744375,104.43L77.31993333333332,107.085L77.37663229166667,113.50125L77.44786944444445,112.284375L77.55690590277777,105.7575L77.71827986111111,104.319375L77.72991041666666,98.124375L77.8156857638889,105.646875L78.29690000000001,105.204375L78.31579965277777,110.956875L79.08632395833334,106.42125L79.17064548611111,109.2975L79.18372986111112,113.169375L79.26078229166667,112.395L79.29422013888889,101.55375L79.60679131944444,109.629375L80.02839895833334,109.96125L80.0531138888889,112.284375L80.22175694444445,103.434375L80.23193368055556,104.8725L80.23629513888889,109.408125L80.6520875,105.97875L80.99664270833333,103.213125L81.110040625,105.97875L81.26559930555555,106.42125L81.89364930555556,106.753125L81.93290243055556,105.7575L81.97506319444445,101.664375L82.08991493055555,100.558125L82.12480659722222,101.664375L82.17714409722223,108.19125L82.60020555555556,109.850625L82.63218958333333,103.655625L82.78629444444445,99.451875L83.16719513888889,103.1025L83.66440138888889,97.57125L83.66876284722223,106.974375L83.99441840277778,109.07625L84.12090069444444,104.65125L84.22121423611111,104.8725L84.33315833333333,105.315L84.53669305555556,108.19125L84.6922517361111,102.2175L84.70678993055556,106.531875L84.80274201388889,100.558125L85.09495972222223,104.983125L85.16474305555555,99.009375L85.39299270833332,111.9525L85.68084895833334,98.01375L85.94980555555556,107.195625L86.12717152777778,103.545L86.12862534722223,106.42125L86.30889895833333,101.3325L86.61420104166667,99.894375L86.70143020833333,106.753125L87.04889305555557,103.876875L87.20881319444445,99.78375L87.54755312500001,110.40375L88.14361909722223,101.11125L88.21340243055555,98.89875L88.227940625,97.239375L88.44019826388889,101.664375L88.64809444444444,105.7575L89.07987881944445,99.34125L89.2979517361111,102.328125L89.49567118055555,101.99625L89.56400069444445,106.089375L89.72828229166666,97.12875L89.99287743055555,103.876875L90.24584201388889,105.09375L90.71251805555555,97.35L91.11231840277777,98.124375L91.16610972222223,98.345625L91.30858402777778,102.549375L91.31294548611112,102.88125L91.3289375,97.681875L91.74327604166668,97.57125L92.06893159722223,101.000625L92.09510034722223,104.983125L92.4832701388889,101.221875L92.60393715277777,99.451875L92.69552777777777,101.3325L92.72315034722223,107.195625L93.1084125,100.779375L93.30613194444445,98.45625L93.40208402777778,100.4475L93.54165069444446,93.81L93.7989767361111,102.991875L94.07665625,98.124375L94.142078125,99.34125L94.42848055555557,96.465L94.47500277777779,103.545L94.66690694444445,98.566875L95.12195243055555,99.34125L95.16702083333334,98.566875L95.99279027777777,100.89L96.09746527777779,106.753125L96.1599795138889,101.664375L96.17887916666666,100.558125L96.31989965277778,96.0225L96.43765902777777,103.545L96.54088020833333,100.115625L96.70225416666666,97.12875L96.82582881944444,94.2525L97.072978125,96.9075L97.19946041666667,105.53625L97.23144444444443,96.354375L97.47132465277777,101.99625L97.57018437500001,103.213125L97.69666666666667,100.22625L98.31308611111112,94.584375L98.44247604166667,102.549375L98.76813159722222,96.24375L99.66077673611112,92.593125L99.87448819444445,95.35875L100.68862708333333,99.009375L100.86017777777778,102.43875L100.86453923611111,96.24375L101.09860416666666,101.3325L101.11168854166667,102.43875L101.14221875,97.7925L101.65687083333334,100.4475L101.70630069444444,99.34125L101.95490381944444,91.708125L102.13808506944444,96.24375L102.1628,96.354375L102.59603819444445,95.690625L102.777765625,95.911875L103.00601527777778,93.3675L103.06562187499999,94.141875L103.23135729166667,93.478125L103.25025694444444,98.788125L103.536659375,100.89L103.55555902777778,104.983125L103.98734340277778,100.558125L104.08038784722223,95.80125L104.14290208333334,97.681875L104.27083819444445,93.14625L104.51507986111112,97.35L105.36120277777778,94.805625L105.66941249999999,91.37625L105.88457777777778,97.35L106.12155034722223,98.01375L106.24221736111112,95.1375L106.32508506944444,97.018125L106.52716597222222,100.005L106.755415625,96.354375L106.95604270833333,97.57125L107.16539270833333,96.796875L107.331128125,95.1375L107.44016458333334,90.159375L107.68586006944444,94.47375L108.56251319444443,101.55375L108.72970243055556,96.133125L108.99284374999999,91.37625L109.28360763888888,92.4825L109.29814583333334,87.504375L109.48568854166666,99.5625L109.72702256944444,95.35875L109.76336805555556,97.35L109.90293472222223,91.929375L110.00615590277778,98.345625L110.25039756944444,97.903125L110.7883107638889,95.58L111.28842465277778,90.823125L111.29133229166668,85.955625L111.96735833333334,97.7925L112.01097291666666,88.831875L112.86872638888889,92.150625L112.96903993055555,88.610625L113.16821319444443,87.504375L113.30632604166667,93.58875L113.61017430555556,79.64999999999999L114.07685034722223,87.28312500000001L114.422859375,81.64125000000001L114.60749444444444,83.85375L114.73833819444444,75.44625L115.18902222222222,92.814375L115.27770520833333,85.07062499999999L115.47106319444445,81.973125L115.50304722222222,95.248125L116.15290451388888,91.486875L116.3230013888889,84.73875L117.11678680555556,81.19875L117.21273888888888,84.628125L117.52531006944444,85.07062499999999L117.63580034722223,76.663125L117.79717430555556,86.619375L118.87009305555556,77.99062500000001L119.211740625,77.99062500000001L119.46179756944444,80.0925L119.81216805555556,77.88L119.87032083333334,81.309375L120.1959763888889,84.29624999999999L120.37043472222221,79.42875L120.389334375,89.053125L120.71789756944445,79.760625L120.72080520833333,91.265625L121.19184270833334,83.52187500000001L121.20783472222223,88.0575L121.48406041666667,80.424375L121.71085625,80.0925L121.78500104166666,91.708125L121.93474444444445,80.535L122.91898020833334,83.079375L123.02365520833334,82.194375L123.22137465277778,84.40687500000001L123.58919097222223,80.31375L123.98026840277777,78.76499999999999L124.04132881944444,79.42875L124.04569027777778,77.88L124.22596388888888,75.114375L124.48183611111111,82.194375L124.77986909722223,89.16375L125.15786215277778,83.300625L126.54916736111112,83.079375L126.73089479166667,84.29624999999999L127.23827777777778,80.424375L127.51014201388888,78.211875L127.65407013888888,74.671875L127.71803819444445,85.4025L128.01025590277777,71.35312499999999L128.5467152777778,81.19875L128.61359097222223,83.52187500000001L128.8258486111111,87.615L128.89563194444446,78.65437499999999L128.91598541666667,81.19875L129.10788958333333,78.76499999999999L129.15441180555555,77.326875L129.24745625,83.63250000000001L129.45244479166666,91.37625L129.75920069444444,78.211875L130.12410937500002,82.08375L130.2186076388889,67.81312500000001L130.35381284722223,82.7475L130.6867375,81.41999999999999L130.73907499999999,92.4825L130.8277579861111,71.35312499999999L130.85974201388888,83.964375L131.37875555555556,79.64999999999999L131.406378125,79.42875L132.55634930555556,79.981875L132.5665260416667,78.54375L132.85728993055557,79.096875L132.88055104166668,75.114375L133.45190208333332,66.264375L133.63217569444444,80.86687500000001L133.74848125,78.54375L134.10321319444444,70.57875000000001L134.29657118055553,75.22500000000001L134.73853229166667,79.42875L135.00894270833334,76.441875L135.35349791666667,82.41562499999999L135.37821284722224,77.326875L135.4203736111111,86.176875L135.5730246527778,71.685L136.20979756944445,78.54375L136.30720347222223,75.33562500000001L136.3231954861111,79.981875L136.64158194444445,77.326875L136.6590277777778,76.441875L136.718634375,79.53937499999999L136.91926145833332,80.31375L137.38157604166668,78.54375L137.43972881944444,83.41125L137.56330347222223,75.778125L137.6999625,81.088125L137.75084618055556,80.86687500000001L138.09685520833332,81.41999999999999L138.55771597222224,78.433125L138.74525868055554,77.105625L139.09562916666667,76.663125L139.14796666666666,81.75187500000001L139.3645857638889,76.77374999999999L140.16418645833332,82.194375L140.31247604166666,79.87125L140.37644409722222,78.98625000000001L140.69628437499998,72.1275L141.0728236111111,75.44625L141.21093645833332,79.87125L141.26036631944444,76.22062500000001L141.415925,77.88L141.69651215277779,73.34437500000001L141.8869625,74.7825L142.45685972222222,73.8975L142.47721319444446,68.80875L142.5048357638889,77.769375L142.66766354166668,80.75625000000001L143.0936326388889,79.2075L143.70569062500002,74.893125L143.73331319444446,74.229375L143.91067916666668,77.88L143.94266319444444,84.29624999999999L144.23197326388888,75.778125L144.3526402777778,72.45937500000001L145.23656250000002,75.778125L145.3703138888889,66.485625L145.39939027777777,77.326875L145.7672065972222,56.86125000000001L146.270228125,76.5525L146.3647263888889,67.70249999999999L146.4853934027778,72.57000000000001L146.55226909722222,70.910625L146.7776111111111,75.99937499999999L146.79505694444444,73.12312499999999L147.0654673611111,80.424375L147.62664166666667,77.769375L147.7560315972222,79.760625L148.20526180555555,71.685L148.27649895833332,79.42875L148.35936666666666,73.8975L148.3739048611111,67.370625L148.97433229166668,72.57000000000001L149.56312916666667,72.238125L149.72741076388888,72.680625L149.85389305555555,78.87562500000001L150.6476784722222,79.318125L150.64913229166666,78.433125L150.9835107638889,77.4375L151.45890972222222,70.57875000000001L151.5519541666667,77.21625L152.19308854166667,63.166875000000005L152.20617291666667,71.131875L152.2861329861111,76.22062500000001L152.71791736111112,73.45500000000001L152.81096180555556,76.11000000000001L153.2078545138889,72.79125L153.47535729166668,80.31375L153.56694791666666,76.11000000000001L153.64836180555557,73.12312499999999L153.71669131944444,54.75937499999999L153.9144107638889,72.34875L154.53519166666666,75.00375L154.958253125,72.34875L156.64904513888888,76.5525L156.68102916666666,70.46812499999999L157.0880986111111,79.53937499999999L157.24511111111113,77.548125L157.62601180555555,75.33562500000001L157.9182295138889,78.65437499999999L158.07814965277777,56.086875000000006L158.58553263888888,76.5525L158.62769340277777,74.00812499999999L158.70910729166667,66.92812500000001L158.73963750000001,82.636875L159.22957465277776,76.77374999999999L159.3386111111111,72.1275L159.62210590277778,75.00375L159.98992222222222,69.140625L160.00882187500002,73.786875L160.05970555555555,75.114375L160.22398715277777,73.23374999999999L160.5947111111111,72.45937500000001L161.43065729166668,63.609375L161.69961388888888,71.02125L162.37563993055556,71.574375L162.71874131944443,75.88874999999999L163.73786875000002,65.9325L164.04898611111113,72.016875L164.32957326388888,73.23374999999999L164.75118090277778,72.680625L165.4024920138889,59.184375L165.75722395833333,67.81312500000001L165.8153767361111,63.05624999999999L165.87643715277775,69.69375000000001L166.54228645833334,56.197500000000005L166.72110625,74.34L167.04966944444445,74.671875L167.1761517361111,81.088125L167.18778229166668,77.88L167.2183125,72.238125L168.4322517361111,74.00812499999999L168.44969756944442,73.0125L168.4845892361111,65.49L169.03849444444444,72.1275L169.5923996527778,59.405624999999986L169.64909861111113,72.79125L169.68253645833332,63.94125L169.72615104166667,75.556875L169.78866527777777,77.88L169.8162878472222,64.82624999999999L169.92532430555553,61.618125000000006L170.5577357638889,68.80875L170.91682916666667,72.1275L171.12036388888887,75.114375L171.89815729166668,72.238125L172.01155520833333,73.786875L172.14239895833336,70.57875000000001L172.46369305555555,68.80875L173.4493826388889,70.8L173.85354444444445,72.45937500000001L174.52375520833334,54.316874999999996L174.64151458333333,69.69375000000001L175.26374930555556,67.48125L175.47600694444444,66.59625L175.64465,67.70249999999999L176.05608090277778,69.25125L176.06044236111111,56.52937499999999L176.3148607638889,59.405624999999986L176.60562465277778,55.97625000000001L177.3877795138889,63.05624999999999L177.52153090277778,60.29062499999999L177.62184444444443,55.09125L178.56391944444445,57.193124999999995L178.59735729166667,58.852500000000006L180.00029305555557,22.788749999999993L180.11369097222223,59.958749999999995L180.36956319444442,72.45937500000001L180.7446486111111,59.958749999999995L181.14881041666666,58.078125L181.52389583333334,56.086875000000006L181.5616951388889,66.043125L182.18538368055556,66.043125L182.252259375,65.49L182.65060590277778,52.87875L182.8076184027778,55.86562500000001L183.04749861111114,57.52499999999999L183.08820555555553,69.80437500000001L183.16961944444444,62.06062499999999L183.6624642361111,74.671875L183.71334791666666,53.76374999999999L184.38065104166668,75.6675L184.48387222222223,64.494375L184.55074791666667,67.81312500000001L184.9185642361111,73.23374999999999L184.94327916666666,69.4725L185.4346701388889,42.922500000000014L185.75887187499998,69.4725L185.8155708333333,72.45937500000001L185.86790833333333,72.680625L186.50904270833334,50.0025L187.03677916666666,57.856875L187.06294791666667,59.7375L187.2475829861111,60.511875L187.32754305555554,49.78125L187.37551909722222,56.971875L187.9541392361111,60.84375L188.55311284722222,59.958749999999995L188.65633402777777,58.63125000000001L188.6955871527778,41.263125L188.75083229166668,49.670625L188.7653704861111,69.03L188.794446875,59.184375L188.8700454861111,74.34L189.53880243055556,43.25437500000001L189.90516493055554,61.618125000000006L189.93424131944445,74.450625L190.07090034722222,55.3125L190.2409972222222,59.848124999999996L190.27007361111112,65.49L191.03332881944445,55.86562500000001L191.22377916666667,67.03875000000001L191.4840128472222,64.16250000000001L191.60177222222222,62.171249999999986L191.61631041666666,53.21062500000001L191.70208576388887,59.7375L192.49150972222222,64.16250000000001L193.01343090277777,44.139375L193.13700555555553,71.131875L193.15590520833334,63.609375L193.24749583333335,58.520624999999995L194.07035763888888,49.22812499999999L194.28552291666665,62.503125L194.40764375,38.608125L194.73184548611113,62.06062499999999L195.10693090277778,38.608125L195.24649756944444,60.84375L195.54743819444445,55.423125L195.88327048611112,56.308125000000004L196.2452715277778,49.891875L196.29615520833332,45.24562499999999L196.71630902777775,50.666250000000005L197.0477798611111,40.931250000000006L197.29347534722223,54.538124999999994L197.35308194444445,57.193124999999995L197.46066458333334,62.834999999999994L197.86046493055554,49.006874999999994L198.15849791666668,56.971875L198.2021125,53.76374999999999L198.5757440972222,54.75937499999999L198.80835520833335,58.41L198.9508295138889,55.53375L199.03515104166667,52.546875L200.0237482638889,60.401250000000005L200.21274479166667,63.166875000000005L200.46716319444445,48.01124999999999L200.4860628472222,41.041875000000005L201.56334305555555,27.545625L202.0067579861111,61.839375000000004L202.06927222222222,51.661874999999995L202.56066319444446,50.113125L202.5926472222222,60.6225L203.03024687500002,54.09562500000001L203.15382152777778,50.99812499999999L203.42423194444444,63.388125L203.50855347222222,46.68375L204.03192847222223,61.175625L204.6628861111111,38.386875L204.7443,42.25874999999999L204.86351319444444,68.698125L205.00744131944444,48.56437500000001L205.21388368055554,46.24125000000001L205.6761982638889,40.156875000000014L206.18939652777777,44.47125L206.34495520833332,51.99374999999999L206.4816142361111,62.613749999999996L206.50196770833332,42.25874999999999L207.75370625000002,38.94L208.00812465277778,52.768125L208.28725798611111,44.139375L209.46921319444445,40.046249999999986L209.9024513888889,50.8875L210.226653125,43.696875000000006L211.1789048611111,53.21062500000001L211.19053541666668,52.43625L211.3940701388889,27.988124999999997L212.07155,47.3475L212.23873923611112,42.70124999999999L212.5760253472222,37.83375000000001L212.90022708333333,54.980625L212.9511107638889,58.852500000000006L212.98891006944444,29.094375000000014L213.890278125,37.83375000000001L214.33950833333336,29.42625000000001L214.5677579861111,52.104375000000005L214.6942402777778,27.435000000000002L214.76693125,49.338750000000005L215.08386388888889,35.400000000000006L216.2687267361111,53.542500000000004L216.38357847222224,23.452499999999986L216.38793993055558,33.85124999999999L216.89096145833332,26.77125000000001L217.5669875,24.78L218.02930208333333,50.666250000000005L218.48725520833332,27.988124999999997L218.5584923611111,39.60374999999999L219.20544201388887,43.696875000000006L219.88292187500002,23.563125000000014L220.01231180555556,28.430624999999992L220.03557291666667,45.688125000000014L220.9980013888889,5.0887500000000045L221.034346875,37.50187500000001L221.2277048611111,33.519375L221.59115972222222,52.6575L221.62023611111113,44.47125L221.67693506944445,26.328750000000014L222.107265625,46.24125000000001L222.4532746527778,54.427499999999995L222.91122777777778,37.280624999999986L223.0595173611111,39.60374999999999L223.39244201388888,43.36500000000001L223.70792083333333,13.053750000000008L223.73699722222221,54.870000000000005L224.04084548611112,41.81625L225.2111701388889,53.431875000000005L225.31584513888887,-19.138125000000002L225.5818940972222,49.78125L225.61387812499999,26.218124999999986L226.71732708333332,56.086875000000006L226.83944791666667,38.608125L226.92667708333332,46.13062500000001L226.98628368055557,53.21062500000001L227.34683090277775,55.86562500000001L227.48058229166665,20.576249999999987L228.25110659722225,32.634375000000006L228.51860937499998,42.037499999999994L229.08850659722222,43.807500000000005L229.44033090277776,49.006874999999994L229.78924756944446,42.59062499999999L230.31262256944444,30.421875L231.1747375,39.49312499999999L231.66612847222223,44.91374999999999L231.7708034722222,47.458124999999995L232.09645902777777,57.856875L232.27091736111112,32.52375000000001L232.65472569444447,49.22812499999999L232.7114246527778,55.97625000000001L233.0356263888889,42.25874999999999L233.6316923611111,46.13062500000001L233.6418690972222,7.0800000000000125L233.74072881944446,19.24875L233.83958854166664,34.29374999999999L234.71188020833335,36.61687499999999L235.0477125,40.59937500000001L235.11168055555558,39.050625L235.38354479166665,34.514999999999986L235.90401215277777,20.35499999999999L235.9665263888889,62.503125L236.0973701388889,41.705625L236.69198229166665,46.462500000000006L236.7152434027778,51.440625L236.8867940972222,43.25437500000001L237.01036875,-12.943125000000009L237.25751805555555,48.453750000000014L238.201046875,38.165625000000006L238.63573888888888,41.37375L238.65463854166669,29.758125000000007L238.96866354166667,43.36500000000001L239.56472951388886,49.891875L239.849678125,21.903750000000002L240.09246597222221,30.090000000000003L240.30763125000001,40.046249999999986L240.39049895833332,41.041875000000005L240.95748854166666,36.06375L241.06943263888888,24.116250000000008L241.21917604166666,48.453750000000014L241.9242784722222,47.90062499999999L241.93445520833333,18.806250000000006L242.62211180555556,38.608125L242.9870204861111,33.40875L243.60634756944444,38.165625000000006L244.54115347222222,38.386875L244.5673222222222,4.646250000000009L244.6283826388889,41.81625L245.11395833333333,27.65625L246.89343333333335,50.555625000000006L247.11296006944443,51.33000000000001L247.80352430555556,35.8425L248.10155729166667,50.99812499999999L248.11173402777777,38.608125L248.57259479166666,48.89625000000001L248.57695625,35.06812500000001L248.812475,41.1525L249.33439618055556,23.00999999999999L249.4114486111111,40.71000000000001L249.5640996527778,32.19187500000001L249.767634375,42.922500000000014L250.04095243055556,45.13499999999999L250.1906958333333,36.506249999999994L250.3753309027778,27.213750000000005L250.78094652777776,16.040625000000006L251.3566590277778,25.88624999999999L251.58490868055554,34.07249999999999L251.7142986111111,34.73625000000001L251.71720625,38.165625000000006L251.71866006944444,37.83375000000001L251.72156770833334,30.090000000000003L251.72592916666665,39.161249999999995L251.72883680555557,42.47999999999999L251.73029062499998,27.103125000000006L251.7331982638889,19.359375L251.73610590277778,35.06812500000001L251.73755972222224,46.13062500000001L251.73901354166665,42.922500000000014L251.74192118055558,40.37812500000001L251.743375,25.443749999999994L251.74773645833332,9.513749999999987L251.75064409722222,31.638749999999987L251.75209791666666,37.50187500000001L251.76372847222223,39.93562499999999L251.76518229166666,44.25L251.76808993055556,31.085624999999993L251.76954375,38.165625000000006L251.77535902777777,33.298125L251.78262812499997,57.74625L251.78408194444444,43.58625000000001L251.7855357638889,32.30250000000001L251.7869895833333,2.655000000000001L251.78844340277777,42.59062499999999L251.78989722222224,21.793125000000003L251.7928048611111,38.94L251.7957125,33.629999999999995L251.80007395833334,40.59937500000001L251.80152777777778,8.518124999999998L251.8058892361111,42.47999999999999L251.80734305555555,54.64874999999999L251.81461215277778,40.71000000000001L251.81751979166668,31.52812499999999L251.82624270833335,41.484375L251.82769652777776,27.435000000000002L251.82915034722222,31.30687499999999L251.8306041666667,38.4975L251.8320579861111,23.89500000000001L251.83641944444443,63.05624999999999L251.83932708333333,23.78437500000001L251.84368854166667,23.673750000000013L251.8451423611111,35.510625000000005L251.84950381944444,25.88624999999999L251.85241145833334,43.47562500000001L251.8553190972222,30.090000000000003" style="fill: none;" fill="none"></path></g></g></g></g></g></g><g transform="translate(68, 177)" clip-path="url(#clip_1)"><clipPath id="clip_1"><rect width="261" height="23"></rect></clipPath><g><g><line x1="0" y1="0" x2="0" y2="5" style="visibility: inherit;" fill="rgb(0, 0, 0)" stroke="rgb(204, 204, 204)" stroke-width="1px"></line><line x1="29.076388888888886" y1="0" x2="29.076388888888886" y2="5" style="visibility: inherit;" fill="rgb(0, 0, 0)" stroke="rgb(204, 204, 204)" stroke-width="1px"></line><line x1="58.15277777777777" y1="0" x2="58.15277777777777" y2="5" style="visibility: inherit;" fill="rgb(0, 0, 0)" stroke="rgb(204, 204, 204)" stroke-width="1px"></line><line x1="87.22916666666666" y1="0" x2="87.22916666666666" y2="5" style="visibility: inherit;" fill="rgb(0, 0, 0)" stroke="rgb(204, 204, 204)" stroke-width="1px"></line><line x1="116.30555555555554" y1="0" x2="116.30555555555554" y2="5" style="visibility: inherit;" fill="rgb(0, 0, 0)" stroke="rgb(204, 204, 204)" stroke-width="1px"></line><line x1="145.38194444444446" y1="0" x2="145.38194444444446" y2="5" style="visibility: inherit;" fill="rgb(0, 0, 0)" stroke="rgb(204, 204, 204)" stroke-width="1px"></line><line x1="174.45833333333331" y1="0" x2="174.45833333333331" y2="5" style="visibility: inherit;" fill="rgb(0, 0, 0)" stroke="rgb(204, 204, 204)" stroke-width="1px"></line><line x1="203.53472222222223" y1="0" x2="203.53472222222223" y2="5" style="visibility: inherit;" fill="rgb(0, 0, 0)" stroke="rgb(204, 204, 204)" stroke-width="1px"></line><line x1="232.6111111111111" y1="0" x2="232.6111111111111" y2="5" style="visibility: inherit;" fill="rgb(0, 0, 0)" stroke="rgb(204, 204, 204)" stroke-width="1px"></line><line x1="261.6875" y1="0" x2="261.6875" y2="5" style="visibility: inherit;" fill="rgb(0, 0, 0)" stroke="rgb(204, 204, 204)" stroke-width="1px"></line></g><g transform="translate(0, 8)"><text x="0" y="0" dx="0em" dy="0.95em" style="text-anchor: middle; visibility: hidden; font-family: &quot;Helvetica Neue&quot;, sans-serif; font-size: 12px; font-weight: 200;" fill="rgb(50, 49, 63)" stroke="none" stroke-width="1px">-20k</text><text x="29.076388888888886" y="0" dx="0em" dy="0.95em" style="text-anchor: middle; visibility: inherit; font-family: &quot;Helvetica Neue&quot;, sans-serif; font-size: 12px; font-weight: 200;" fill="rgb(50, 49, 63)" stroke="none" stroke-width="1px">0</text><text x="58.15277777777777" y="0" dx="0em" dy="0.95em" style="text-anchor: middle; visibility: hidden; font-family: &quot;Helvetica Neue&quot;, sans-serif; font-size: 12px; font-weight: 200;" fill="rgb(50, 49, 63)" stroke="none" stroke-width="1px">20k</text><text x="87.22916666666666" y="0" dx="0em" dy="0.95em" style="text-anchor: middle; visibility: inherit; font-family: &quot;Helvetica Neue&quot;, sans-serif; font-size: 12px; font-weight: 200;" fill="rgb(50, 49, 63)" stroke="none" stroke-width="1px">40k</text><text x="116.30555555555554" y="0" dx="0em" dy="0.95em" style="text-anchor: middle; visibility: hidden; font-family: &quot;Helvetica Neue&quot;, sans-serif; font-size: 12px; font-weight: 200;" fill="rgb(50, 49, 63)" stroke="none" stroke-width="1px">60k</text><text x="145.38194444444446" y="0" dx="0em" dy="0.95em" style="text-anchor: middle; visibility: inherit; font-family: &quot;Helvetica Neue&quot;, sans-serif; font-size: 12px; font-weight: 200;" fill="rgb(50, 49, 63)" stroke="none" stroke-width="1px">80k</text><text x="174.45833333333331" y="0" dx="0em" dy="0.95em" style="text-anchor: middle; visibility: hidden; font-family: &quot;Helvetica Neue&quot;, sans-serif; font-size: 12px; font-weight: 200;" fill="rgb(50, 49, 63)" stroke="none" stroke-width="1px">100k</text><text x="203.53472222222223" y="0" dx="0em" dy="0.95em" style="text-anchor: middle; visibility: inherit; font-family: &quot;Helvetica Neue&quot;, sans-serif; font-size: 12px; font-weight: 200;" fill="rgb(50, 49, 63)" stroke="none" stroke-width="1px">120k</text><text x="232.6111111111111" y="0" dx="0em" dy="0.95em" style="text-anchor: middle; visibility: hidden; font-family: &quot;Helvetica Neue&quot;, sans-serif; font-size: 12px; font-weight: 200;" fill="rgb(50, 49, 63)" stroke="none" stroke-width="1px">140k</text><text x="261.6875" y="0" dx="0em" dy="0.95em" style="text-anchor: middle; visibility: hidden; font-family: &quot;Helvetica Neue&quot;, sans-serif; font-size: 12px; font-weight: 200;" fill="rgb(50, 49, 63)" stroke="none" stroke-width="1px">160k</text></g><line x1="0" y1="0" x2="261.6875" y2="0" fill="rgb(0, 0, 0)" stroke="rgb(204, 204, 204)" stroke-width="1px"></line></g></g></g></g></svg>