<svg viewBox="0 0 330 200" xmlns="http://www.w3.org/2000/svg"><g><g><g><g><g><line x1="68.3125" y1="177" x2="63.3125" y2="177" style="visibility: inherit;" fill="rgb(0, 0, 0)" stroke="rgb(204, 204, 204)" stroke-width="1px"></line><line x1="68.3125" y1="162.25" x2="63.3125" y2="162.25" style="visibility: inherit;" fill="rgb(0, 0, 0)" stroke="rgb(204, 204, 204)" stroke-width="1px"></line><line x1="68.3125" y1="147.5" x2="63.3125" y2="147.5" style="visibility: inherit;" fill="rgb(0, 0, 0)" stroke="rgb(204, 204, 204)" stroke-width="1px"></line><line x1="68.3125" y1="132.75" x2="63.3125" y2="132.75" style="visibility: inherit;" fill="rgb(0, 0, 0)" stroke="rgb(204, 204, 204)" stroke-width="1px"></line><line x1="68.3125" y1="118" x2="63.3125" y2="118" style="visibility: inherit;" fill="rgb(0, 0, 0)" stroke="rgb(204, 204, 204)" stroke-width="1px"></line><line x1="68.3125" y1="103.25" x2="63.3125" y2="103.25" style="visibility: inherit;" fill="rgb(0, 0, 0)" stroke="rgb(204, 204, 204)" stroke-width="1px"></line><line x1="68.3125" y1="88.5" x2="63.3125" y2="88.5" style="visibility: inherit;" fill="rgb(0, 0, 0)" stroke="rgb(204, 204, 204)" stroke-width="1px"></line><line x1="68.3125" y1="73.75" x2="63.3125" y2="73.75" style="visibility: inherit;" fill="rgb(0, 0, 0)" stroke="rgb(204, 204, 204)" stroke-width="1px"></line><line x1="68.3125" y1="59" x2="63.3125" y2="59" style="visibility: inherit;" fill="rgb(0, 0, 0)" stroke="rgb(204, 204, 204)" stroke-width="1px"></line><line x1="68.3125" y1="44.25" x2="63.3125" y2="44.25" style="visibility: inherit;" fill="rgb(0, 0, 0)" stroke="rgb(204, 204, 204)" stroke-width="1px"></line><line x1="68.3125" y1="29.5" x2="63.3125" y2="29.5" style="visibility: inherit;" fill="rgb(0, 0, 0)" stroke="rgb(204, 204, 204)" stroke-width="1px"></line><line x1="68.3125" y1="14.75" x2="63.3125" y2="14.75" style="visibility: inherit;" fill="rgb(0, 0, 0)" stroke="rgb(204, 204, 204)" stroke-width="1px"></line><line x1="68.3125" y1="0" x2="63.3125" y2="0" style="visibility: inherit;" fill="rgb(0, 0, 0)" stroke="rgb(204, 204, 204)" stroke-width="1px"></line></g><g transform="translate(58.3125, 0)"><text x="0" y="177" dx="0em" dy="0.3em" style="text-anchor: end; visibility: hidden; font-family: &quot;Helvetica Neue&quot;, sans-serif; font-size: 12px; font-weight: 200;" fill="rgb(50, 49, 63)" stroke="none" stroke-width="1px">-5e+3</text><text x="0" y="162.25" dx="0em" dy="0.3em" style="text-anchor: end; visibility: inherit; font-family: &quot;Helvetica Neue&quot;, sans-serif; font-size: 12px; font-weight: 200;" fill="rgb(50, 49, 63)" stroke="none" stroke-width="1px">0</text><text x="0" y="147.5" dx="0em" dy="0.3em" style="text-anchor: end; visibility: hidden; font-family: &quot;Helvetica Neue&quot;, sans-serif; font-size: 12px; font-weight: 200;" fill="rgb(50, 49, 63)" stroke="none" stroke-width="1px">5e+3</text><text x="0" y="132.75" dx="0em" dy="0.3em" style="text-anchor: end; visibility: inherit; font-family: &quot;Helvetica Neue&quot;, sans-serif; font-size: 12px; font-weight: 200;" fill="rgb(50, 49, 63)" stroke="none" stroke-width="1px">1e+4</text><text x="0" y="118" dx="0em" dy="0.3em" style="text-anchor: end; visibility: hidden; font-family: &quot;Helvetica Neue&quot;, sans-serif; font-size: 12px; font-weight: 200;" fill="rgb(50, 49, 63)" stroke="none" stroke-width="1px">1.5e+4</text><text x="0" y="103.25" dx="0em" dy="0.3em" style="text-anchor: end; visibility: inherit; font-family: &quot;Helvetica Neue&quot;, sans-serif; font-size: 12px; font-weight: 200;" fill="rgb(50, 49, 63)" stroke="none" stroke-width="1px">2e+4</text><text x="0" y="88.5" dx="0em" dy="0.3em" style="text-anchor: end; visibility: hidden; font-family: &quot;Helvetica Neue&quot;, sans-serif; font-size: 12px; font-weight: 200;" fill="rgb(50, 49, 63)" stroke="none" stroke-width="1px">2.5e+4</text><text x="0" y="73.75" dx="0em" dy="0.3em" style="text-anchor: end; visibility: inherit; font-family: &quot;Helvetica Neue&quot;, sans-serif; font-size: 12px; font-weight: 200;" fill="rgb(50, 49, 63)" stroke="none" stroke-width="1px">3e+4</text><text x="0" y="59" dx="0em" dy="0.3em" style="text-anchor: end; visibility: hidden; font-family: &quot;Helvetica Neue&quot;, sans-serif; font-size: 12px; font-weight: 200;" fill="rgb(50, 49, 63)" stroke="none" stroke-width="1px">3.5e+4</text><text x="0" y="44.25" dx="0em" dy="0.3em" style="text-anchor: end; visibility: inherit; font-family: &quot;Helvetica Neue&quot;, sans-serif; font-size: 12px; font-weight: 200;" fill="rgb(50, 49, 63)" stroke="none" stroke-width="1px">4e+4</text><text x="0" y="29.5" dx="0em" dy="0.3em" style="text-anchor: end; visibility: hidden; font-family: &quot;Helvetica Neue&quot;, sans-serif; font-size: 12px; font-weight: 200;" fill="rgb(50, 49, 63)" stroke="none" stroke-width="1px">4.5e+4</text><text x="0" y="14.75" dx="0em" dy="0.3em" style="text-anchor: end; visibility: inherit; font-family: &quot;Helvetica Neue&quot;, sans-serif; font-size: 12px; font-weight: 200;" fill="rgb(50, 49, 63)" stroke="none" stroke-width="1px">5e+4</text><text x="0" y="0" dx="0em" dy="0.3em" style="text-anchor: end; visibility: hidden; font-family: &quot;Helvetica Neue&quot;, sans-serif; font-size: 12px; font-weight: 200;" fill="rgb(50, 49, 63)" stroke="none" stroke-width="1px">5.5e+4</text></g><line x1="68.3125" y1="0" x2="68.3125" y2="177" fill="rgb(0, 0, 0)" stroke="rgb(204, 204, 204)" stroke-width="1px"></line></g></g><g transform="translate(68, 0)" clip-path="url(#clip_0)"><clipPath id="clip_0"><rect width="261" height="177"></rect></clipPath><g><g><g><line x1="0" y1="0" x2="0" y2="177" fill="rgb(0, 0, 0)" stroke="rgb(60, 60, 60)" stroke-width="1px" opacity="0.25"></line><line x1="32.7109375" y1="0" x2="32.7109375" y2="177" fill="rgb(0, 0, 0)" stroke="rgb(60, 60, 60)" stroke-width="1px" opacity="0.25"></line><line x1="65.421875" y1="0" x2="65.421875" y2="177" fill="rgb(0, 0, 0)" stroke="rgb(60, 60, 60)" stroke-width="1px" opacity="0.25"></line><line x1="98.1328125" y1="0" x2="98.1328125" y2="177" fill="rgb(0, 0, 0)" stroke="rgb(60, 60, 60)" stroke-width="1px" opacity="0.25"></line><line x1="130.84375" y1="0" x2="130.84375" y2="177" fill="rgb(0, 0, 0)" stroke="rgb(60, 60, 60)" stroke-width="1px" opacity="0.25"></line><line x1="163.5546875" y1="0" x2="163.5546875" y2="177" fill="rgb(0, 0, 0)" stroke="rgb(60, 60, 60)" stroke-width="1px" opacity="0.25"></line><line x1="196.265625" y1="0" x2="196.265625" y2="177" fill="rgb(0, 0, 0)" stroke="rgb(60, 60, 60)" stroke-width="1px" opacity="0.25"></line><line x1="228.9765625" y1="0" x2="228.9765625" y2="177" fill="rgb(0, 0, 0)" stroke="rgb(60, 60, 60)" stroke-width="1px" opacity="0.25"></line><line x1="261.6875" y1="0" x2="261.6875" y2="177" fill="rgb(0, 0, 0)" stroke="rgb(60, 60, 60)" stroke-width="1px" opacity="0.25"></line></g><g><line x1="0" y1="177" x2="261.6875" y2="177" fill="rgb(0, 0, 0)" stroke="rgb(60, 60, 60)" stroke-width="1px" opacity="0.25"></line><line x1="0" y1="162.25" x2="261.6875" y2="162.25" fill="rgb(0, 0, 0)" stroke="rgb(60, 60, 60)" stroke-width="1px" opacity="0.25"></line><line x1="0" y1="147.5" x2="261.6875" y2="147.5" fill="rgb(0, 0, 0)" stroke="rgb(60, 60, 60)" stroke-width="1px" opacity="0.25"></line><line x1="0" y1="132.75" x2="261.6875" y2="132.75" fill="rgb(0, 0, 0)" stroke="rgb(60, 60, 60)" stroke-width="1px" opacity="0.25"></line><line x1="0" y1="118" x2="261.6875" y2="118" fill="rgb(0, 0, 0)" stroke="rgb(60, 60, 60)" stroke-width="1px" opacity="0.25"></line><line x1="0" y1="103.25" x2="261.6875" y2="103.25" fill="rgb(0, 0, 0)" stroke="rgb(60, 60, 60)" stroke-width="1px" opacity="0.25"></line><line x1="0" y1="88.5" x2="261.6875" y2="88.5" fill="rgb(0, 0, 0)" stroke="rgb(60, 60, 60)" stroke-width="1px" opacity="0.25"></line><line x1="0" y1="73.75" x2="261.6875" y2="73.75" fill="rgb(0, 0, 0)" stroke="rgb(60, 60, 60)" stroke-width="1px" opacity="0.25"></line><line x1="0" y1="59" x2="261.6875" y2="59" fill="rgb(0, 0, 0)" stroke="rgb(60, 60, 60)" stroke-width="1px" opacity="0.25"></line><line x1="0" y1="44.25" x2="261.6875" y2="44.25" fill="rgb(0, 0, 0)" stroke="rgb(60, 60, 60)" stroke-width="1px" opacity="0.25"></line><line x1="0" y1="29.5" x2="261.6875" y2="29.5" fill="rgb(0, 0, 0)" stroke="rgb(60, 60, 60)" stroke-width="1px" opacity="0.25"></line><line x1="0" y1="14.75" x2="261.6875" y2="14.75" fill="rgb(0, 0, 0)" stroke="rgb(60, 60, 60)" stroke-width="1px" opacity="0.25"></line><line x1="0" y1="0" x2="261.6875" y2="0" fill="rgb(0, 0, 0)" stroke="rgb(60, 60, 60)" stroke-width="1px" opacity="0.25"></line></g></g></g><g><g><line x1="0" y1="162.25" x2="261.6875" y2="162.25" fill="rgb(0, 0, 0)" stroke="rgb(153, 153, 153)" stroke-width="1.5px"></line></g></g><g><g><line x1="32.7109375" y1="0" x2="32.7109375" y2="177" fill="rgb(0, 0, 0)" stroke="rgb(153, 153, 153)" stroke-width="1.5px"></line></g></g><g><g><g><g><g><path stroke="rgb(255, 112, 67)" stroke-width="2px" d="M33.386418359375,161.129L33.432213671875,161.28426315789474L33.458382421875,161.24874169741696L33.486186718750005,161.24823524280313L33.536888671875,161.2551373348636L33.538524218750005,161.22821706764782L33.556515234375,161.24878104979632L33.559786328125,161.26400738122558L33.561421875,161.2708624291043L33.56469296875,161.27172798787632L33.569599609375004,161.27672252902317L33.57777734375,161.28080261209033L33.579412890625,161.2683594714932L33.5810484375,161.26176489729016L33.638292578125004,161.2896244404399L33.641563671875005,161.28801348266853L33.945775390624995,161.25830811651343L34.199285156250006,161.2430937030171L34.382466406249996,161.2571883043586L34.42826171875,161.27281991255288L34.65069609375,161.279858024379L34.721024609375,161.26312433711024L34.78808203125,161.26135509671806L34.806073046875,161.25658944821632L34.8109796875,161.25555633651345L34.835512890625004,161.2357189960501L34.8371484375,161.2118596837073L34.858410546875,161.2124548639539L34.871494921875,161.20679268147677L34.87967265625,161.2079108121849L34.930374609375,161.20890776682205L34.9549078125,161.1975779604102L34.9810765625,161.19658962158178L35.051405078125,161.20177487607162L35.057947265624996,161.2003620225436L35.275475,161.19909732876243L35.309821484375,161.2100088327352L35.3866921875,161.21678153780846L35.522442578125,161.09688428710805L35.77595234375,161.09116126710856L35.823383203125005,161.0920063827982L35.901889453125,161.10172206567916L35.908431640625,161.08360463906254L35.968946875,161.09712529492492L36.009835546875,161.12117264987032L36.045817578124996,161.1279082944981L36.088341796875,161.1161342265027L36.12268828125,161.1025845917889L36.176661328125,161.09930736584803L36.183203515624996,161.1171184234503L36.278065234375006,161.0916383945984L36.29605625,161.1072396836232L36.36474921875,161.0946182954164L36.40400234375,161.08622809532L36.4203578125,161.0520512770929L36.467788671875,161.02131195661497L36.632978906249996,161.01436363309483L36.968266015625,160.85437232406903L37.22831796875,160.84641921185707L37.251215625,160.8126666369466L37.3755171875,160.68774794108714L37.42458359374999,160.6787600644198L37.56196953125,160.6795350732553L37.612671484375,160.68318587028685L37.638840234374996,160.22282879071358L37.700991015625,160.13045769679022L37.7353375,160.18906229802707L37.79094609375,160.08237353870675L37.805666015625,160.13987621812151L37.920154296875,160.17981362023679L38.070624609375,160.23936584095344L38.113148828125,160.26639297390608L38.306143359375,160.19332029867792L38.5204,160.22200005901132L38.608719531249996,160.2625650616941L38.6577859375,160.18398238830883L38.701945703125,160.08375411199836L38.7101234375,160.09093063646225L38.716665625,159.73150032130647L38.73302109375,159.78571213307433L38.734656640625,159.85220399386537L38.773909765625,159.8943410512356L38.7886296875,159.84964982823433L38.930922265625,159.90974345929925L38.96199765625,160.04053598652192L38.96526875,160.111040573897L39.027419531250004,160.17154283873236L39.045410546875004,160.25844672783174L39.073214843749994,160.1566934424981L39.14517890625,160.2126283592219L39.189338671875,160.2364171542503L39.35452890625,159.80939909025128L39.379062109375006,159.88236323316482L39.410137500000005,159.91852871739772L39.482101562500006,159.95697757516302L39.686544921875,159.99158121853253L39.787948828125,160.04337498380528L39.8484640625,159.60617314876754L39.889352734374995,159.50475284070717L39.894259375,159.61408046053097L39.931876953125,159.67707392035285L39.9662234375,159.69541692296235L40.002205468750006,159.7561764071678L40.077440625,159.8108597194135L40.154311328125,159.76272299248416L40.187022265625004,159.82560158081833L40.22136875,159.9057924415L40.25735078125,160.00451432611743L40.402914453125,160.0373132310205L40.48632734375,159.97833136166454L40.690770703125,159.90459761090895L40.8036234375,159.79693704217823L40.945916015624995,159.73544292277973L40.95736484375,159.77449886782114L40.965542578125,159.85389941526128L41.101292968749995,159.76900905591492L41.112741796875,159.74865806017476L41.11437734375,159.79819245163722L41.197790234375,159.82802331350814L41.376064843749994,159.6955705544348L41.385878125000005,159.76221369267768L41.50690859375,159.79859241856536L41.52980625,159.6956329343298L41.58214375,159.75341976333027L41.688454296875,159.66972762740994L41.694996484375004,159.6091547607166L41.701538671875,159.67558938725577L41.822569140625,159.59673033890945L41.830746874999996,159.64670736754357L41.84056015625,159.52058648878108L41.856915625,159.55457787434887L41.89289765625,159.16626973276357L41.976310546875,159.2386428188933L42.00084375,159.33622860909526L42.018834765625,159.40635579481142L42.1513140625,159.34557017895702L42.316504296874996,159.34396316019587L42.327953125,159.4074168749318L42.411366015625006,159.4733752162112L42.44898359375,159.52683771557952L42.476787890625005,159.53070394538764L42.7270265625,159.47518353319302L42.903665625,159.41341516219524L42.92656328125,159.32537362329748L42.928198828125,158.9865361824161L42.94291875,159.14768259779677L43.042687109375,159.14816433810753L43.19479296875,159.0925478948975L43.2765703125,158.81239306279576L43.286383593749996,158.80805375592217L43.31909453125,158.7982483791219L43.338721093749996,158.48557350653965L43.3943296875,158.48736615606458L43.461387109375,158.33852952709043L43.474471484375,158.49367658692242L43.559519921875,158.491708928087L43.628212890625,158.49878803574182L43.641297265625,158.5140092330646L44.082894921875,158.5247583103282L44.133596875,158.54623248032036L44.149952343749995,158.27940922082612L44.243178515625,158.32836830063638L44.298787109375,158.34293147107948L44.410004296875,158.38258832521345L44.468883984375005,158.39762949311603L44.508137109375,158.3993665438485L44.514679296874995,158.0941298824952L44.558839062500006,157.86661688957105L44.563745703125,157.92440520168256L44.596456640625,157.95871468208531L44.720758203125,158.0102432146486L44.727300390625004,158.03301889349078L44.742020312499996,157.79686700127655L44.8205265625,157.85573030179165L45.070765234375,157.92640727230707L45.214693359375,157.7245165432907L45.2653953125,157.79946488955824L45.26866640625,157.8610184010434L45.353714843750005,157.93411656141038L45.41259453125,157.8288049046582L45.417501171874996,157.6160244130811L45.5270828125,157.73722197234267L45.559793750000004,157.50114977410973L45.726619531249995,157.33883479608076L45.782228124999996,157.16915131589124L45.795312499999994,157.28783618466815L45.885267578124996,157.14685256581004L45.989942578125,156.98456730882364L46.146955078124996,157.1305605782695L46.194385937499995,156.87550451992647L46.225461328125,156.6253040674782L46.235274609375004,156.5269736605692L46.26635,156.6715262947255L46.384109374999994,156.3532236648304L46.4691578125,156.28505129826593L46.56401953125,156.20009616834798L46.59673046875,156.39208655169898L46.600001562500005,156.2934778964432L46.722667578125,156.50563010696519L46.869866796875,156.2039170960558L46.873137890624996,156.07397538636772L46.8944,156.29037784785461L47.023608203125,156.21669006303125L47.067767968750005,156.15627105670015L47.08085234375,156.06944395099396L47.10702109375,156.27744955597257L47.144638671875,156.17260460033992L47.167536328125,156.10479414028535L47.246042578125,155.76056472616273L47.260762500000006,156.0112582536081L47.563338671875,156.0067824282463L47.614040625,156.27120418547437L47.72198671875,156.4560837669601L47.7645109375,156.40712539025617L47.785773046875,156.4279628512336L47.815212890625006,156.3582165661011L47.895354687499996,156.54914490951347L47.908439062499994,156.44368041855094L48.047460546875,156.35466237668737L48.07199375,156.51939613903275L48.073629296875,156.65880652514025L48.1308734375,156.813775872637L48.266623828125,156.6523482853632L48.289521484375,156.58966345682336L48.296063671875004,156.45359711113412L48.314054687500004,156.328187400015L48.479244921875,156.20941866000862L48.60518203125,155.4948267939814L48.673875,155.5331441145845L48.971544531250004,155.77707970313335L49.054957421874995,155.56887173281442L49.079490625,155.56143455953278L49.27248515625,155.5429411035791L49.3608046875,155.80064699322625L49.550528125,156.05028229390803L49.57342578125,155.79410406451316L49.60613671875,155.74349365806114L49.650296484375,155.9988442922583L49.707540625,155.75370986302963L49.907077343750004,155.7189388767263L49.9365171875,155.50474498905166L49.9757703125,155.76922049014874L50.245635546875,156.00134844113563L50.438630078124994,155.9182135970215L50.46970546875,156.15904223732082L50.47951875,156.33743801358975L50.494238671874996,156.5068442122316L50.57438046875,156.4970597910084L50.620175781250005,156.42335381190725L50.80989921875,156.29506843071607L50.870414453125,156.02916158764359L51.03233359375,156.0818954288794L51.181168359375,156.0172558859913L51.200794921875,156.23638029739269L51.253132421875,156.1415422676532L51.33327421875,156.0414380408877L51.382340625,155.99854423679884L51.47720234375,155.98353981311894L51.534446484375,155.8844858318069L51.565521875,155.81303724862613L51.57533515625,156.0466835237638L51.6636546875,155.9531151713873L51.668561328125,155.70075365424833L51.7029078125,155.87187828882367L51.75197421875,155.81644045994125L51.812489453124996,155.651496413947L51.819031640625,155.72724677255235L52.09216796875,155.07562209529675L52.093803515625,155.24140988576715L52.319508984375,155.21066889719043L52.499419140625,155.33935200747143L52.53049453125001,155.0038168067242L52.573018749999996,154.93783512605174L52.577925390625005,154.95810161344656L52.73003125,154.99994145210192L52.83143515625,155.03169730689174L53.058776171875,155.33757757620262L53.07349609375,155.14381981858233L53.353174609375,155.1169378367241L53.4038765625,155.2372940530517L53.43331640625,155.35446464774654L53.467662890625,155.20031818297187L53.55107578125,154.59548636467463L53.627946484375,154.67063772820717L53.68191953125,154.70582395538645L53.739163671875,154.80239155984782L53.81439882812499,154.80080240386303L53.827483203125006,154.88492216347674L53.860194140625,154.87802994712905L53.928887109375,155.06947695241615L54.138237109375,155.05592925717454L54.208565625,154.8962363314571L54.630536718749994,154.96491269831137L54.810446875,154.82612142848023L54.815353515625006,154.5507592856322L54.851335546875,154.63333335706898L54.870962109375,154.52770002136208L54.895495312499996,154.4237800192259L54.913486328124996,154.17980201730327L54.9347484375,154.11952181557297L55.024703515625,154.06526963401564L55.086854296875,154.03119267061408L55.103209765625,154.01527340355267L55.124471875,154.2693960631974L55.1310140625,154.35355645687767L55.211155859375005,154.2759008111899L55.234053515625,154.58066073007092L55.240595703125,154.75759465706383L55.341999609375,154.81063519135745L55.364897265625,154.8642716722217L55.391066015625,155.02464450499951L55.485927734375004,154.28693005449958L55.554620703125,154.3457370490496L55.80813046875,154.28361334414467L55.950423046875,154.4047020097302L56.055098046874996,154.32783180875717L56.223559375,154.39434862788144L56.2628125,154.4719137650933L56.267719140625005,154.82787238858398L56.3609453125,154.70278514972557L56.405105078125004,154.29225663475302L56.439451562500004,154.50983097127772L56.468891406249995,154.55519787414994L56.485246874999994,154.58127808673495L56.5441265625,154.62835027806145L56.614455078125,154.7267652502553L56.663521484375,154.90383872522978L56.688054687500006,154.9540548527068L56.753476562500005,154.8251993674361L56.758383203125,154.8390294306925L56.902311328124995,155.14942648762326L56.977546484375,155.12788383886092L57.02497734375,154.52439545497484L57.095305859374996,154.46210590947734L57.216336328125,154.5063453185296L57.3815265625,154.42226078667665L57.435499609375,154.485234708009L57.528725781249996,154.3826112372081L57.563072265624996,154.44365011348728L57.77732890625,154.69918510213856L57.813310937500006,154.7285665919247L57.82966640625,154.91135993273224L57.8394796875,154.901823939459L57.867283984375,155.2000415455131L57.88854609375,155.0377373909618L57.94088359375,154.90051365186562L58.053736328125005,154.91566228667904L58.0749984375,154.93519605801114L58.15677578125,154.80232645221002L58.22546875,154.49984380698902L58.392294531249995,154.3987094262901L58.442996484375,154.33423848366112L58.472436328125,153.79241463529502L58.757021484374995,154.1956731717655L59.064504296875,154.11020585458894L59.162637109375005,154.18373526913007L59.221516796874994,154.19091174221705L59.285303125,154.27112056799535L59.352360546875,154.3728085111958L59.555168359375,154.27257766007622L59.558439453125004,154.17351989406862L59.587879296875,154.24366790466175L59.60259921875,154.29500111419557L59.869193359375,154.21435100277603L59.92970859375,154.26861590249842L60.0507390625,154.17585431224856L60.202844921875,154.0894188810237L60.439999218749996,154.07357699292135L60.4956078125,153.56961929362922L60.516869921875,153.54380736426629L60.618273828125005,153.66807662783967L60.74257539062501,152.8949189650557L60.778557421875,152.93067706855012L60.9928140625,152.83010936169512L60.996085156250004,152.8841484255256L61.14001328125,153.21893358297305L61.19235078125,153.66774022467575L61.239781640625,153.93301620220817L61.3853453125,154.16881458198736L61.439318359375,154.23648312378862L61.4769359375,154.14693481140975L61.483478125,154.2167913302688L61.62740625,154.28556219724192L61.637219531250004,154.1822559775177L61.658481640625,154.10993037976593L61.671566015625004,154.20118734178934L61.8040453125,154.1122186076104L61.887458203125,154.04099674684937L61.983955468750004,154.26599707216442L61.99213320312499,154.31509736494797L62.04937734375,153.7663376284532L62.374851171875,153.86245386560788L62.423917578125,153.9489584790471L62.425553125,153.88521263114237L62.59565,153.82194136802815L62.603827734375,153.77089723122532L62.656165234375,153.7190575081028L62.845888671874995,153.6694517572925L62.909675,153.78410658156326L62.917852734375,153.88139592340693L62.937479296875004,153.96600633106624L63.0863140625,154.0362556979596L63.11575390625,154.25583012816367L63.213886718750004,154.16729711534728L63.48865859375,154.22036740381256L63.496836328125,153.6899306634313L63.658755468749995,153.49868759708818L63.6881953125,153.47996883737935L63.689830859375,153.31562195364143L63.69146640625,152.71635975827726L63.7797859375,152.76702378244954L63.936798437499995,152.6651214042046L64.079091015625,152.89495926378413L64.170681640625,153.1018133374057L64.23446796875,153.11098200366516L64.2377390625,153.12808380329864L64.26717890625,152.85142542296876L64.6564390625,152.73813288067188L64.968828515625,152.9311695926047L64.97209960937501,152.96330263334423L65.1013078125,152.9922223700098L65.233787109375,153.20705013300883L65.423510546875,153.35909511970794L65.46930585937501,153.49888560773715L65.51346562500001,153.40344704696344L65.521643359375,153.5299523422671L65.70646015625,153.34585710804038L65.74407773437501,153.33947139723634L65.773517578125,153.3248742575127L65.94034335937499,153.61263683176145L66.19712421874999,152.9866231485853L66.24128398437499,153.00731083372676L66.287079296875,152.7397797503541L66.2919859375,152.7969517753187L66.298528125,152.8513565977868L66.39011875,153.04192093800813L66.62890859375001,153.20162884420733L66.75321015625,153.14476595978658L66.98218671875,153.15848936380792L67.003448828125,153.39209042742712L67.019804296875,153.15688138468443L67.07050625,153.32574324621598L67.412335546875,153.31841892159437L67.428691015625,153.47112702943494L67.602058984375,153.13361432649145L67.834306640625,153.2546528938423L67.85883984375,153.39308760445806L67.96187929687501,152.95717884401228L68.025665625,152.83036095961103L68.04856328125,152.68967486364994L68.105807421875,151.85210737728494L68.279175390625,151.69419663955645L68.380579296875,151.5491269756008L68.444365625,151.88466427804073L68.52941406250001,152.11289785023666L68.53595625000001,152.22390806521298L68.563760546875,152.02881725869167L68.627546875,152.2898355328225L68.64717343749999,152.38905197954026L68.65698671875,152.18039678158624L68.697875390625,152.02800710342763L69.07895781250001,151.55455639308485L69.548359765625,152.01345075377637L69.61214609375,151.91905567839873L69.705372265625,151.60400011055884L69.93925546875,151.89275009950296L70.027575,151.79567508955267L70.04393046875,152.2304575805974L70.0864546875,152.70731182253766L70.12570781250001,152.7559306402839L70.20584960937501,152.9530875762555L70.25328046874999,152.23962881862997L70.26309375000001,152.07836593676694L70.4528171875,152.35507934309027L70.807730859375,152.28552140878125L70.96474335937499,152.3763192679031L71.139746875,151.8650873411128L71.193719921875,151.81207860700152L71.23297304687499,151.65227074630138L71.27386171875,151.53499367167123L71.36545234375001,151.4736943045041L71.4733984375,151.7931748740537L71.530642578125,152.07775738664833L71.73835703124999,152.1627816479835L71.965698046875,151.96790348318515L71.97224023437501,152.39136313486662L72.35659375,151.89337682137997L72.5201484375,151.72543913924198L72.64117890624999,151.82504522531778L72.6771609375,151.560690702786L72.731133984375,151.4643716325074L72.9519328125,151.46028446925666L73.4753078125,151.341556022331L73.522738671875,151.22880042009788L73.61269375,151.13027037808808L73.66830234375,151.1979433402793L73.70919101562501,150.50954900625135L73.90382109375,150.77499410562623L74.003589453125,151.0345446950636L74.28817460937499,151.13539022555725L74.490982421875,151.3412012030015L74.95057109375,151.22848108270136L74.965291015625,151.26568297443123L75.00945078125,150.9038646769881L75.60315429687499,150.9823782092893L75.619509765625,150.61054038836036L75.62441640625,150.42338634952432L75.652220703125,150.4348977145719L75.745446875,150.3656079431147L76.03003203125,150.33864714880323L76.2099421875,150.6300324339229L76.2622796875,150.39372919053062L76.273728515625,150.67370627147756L76.32770156250001,150.6100356443298L76.4062078125,150.8654320798968L76.646633203125,150.21913887190715L76.698970703125,150.3690749847164L76.86088984375,150.4745174862448L77.048977734375,149.4189157376203L77.28613203124999,148.50132416385827L77.564175,148.66374174747244L77.699925390625,148.5532675727252L77.788244921875,148.19719081545267L78.03684804687501,148.38707173390742L78.16605625000001,148.18036456051667L78.25764687499999,148.339478104465L78.55204531250001,148.5003802940185L78.563494140625,148.37379226461664L78.66489804687501,148.25691303815498L78.82354609375,147.75937173433948L78.8922390625,147.39123456090553L79.199721875,147.52601110481498L79.292948046875,147.7889099943335L79.377996484375,146.84256899490015L79.54809335937499,146.8522620954101L79.626599609375,147.14418588586912L79.70019921875,147.5750672972822L79.98805546875,147.614760567554L80.06001953124999,147.94253451079857L80.44600859375,146.81563105971873L80.62591875,146.98141795374684L80.81237109375,146.52587615837217L80.951392578125,146.81798854253495L81.6007046875,145.77698968828145L81.605611328125,146.19414071945332L81.916365234375,146.29522664750797L82.1764171875,145.16490398275718L82.27291445312501,145.74651358448145L82.282727734375,145.3967622260333L82.38903828125,145.73983600342999L82.78156953125,144.93350240308698L82.80119609375,145.1577021627783L82.89115117187501,145.16773194650045L83.074332421875,145.0499087518504L83.16755859375,144.93796787666537L83.1708296875,144.97292108899882L83.4456015625,145.00732898009895L83.699111328125,144.58104608208905L84.82109648437499,144.94669147388015L85.244703125,144.53532232649212L85.25288085937501,144.37159009384294L85.82368671875,142.96163108445865L86.152431640625,142.20596797601277L86.437016796875,141.6025711784115L86.737957421875,142.12151406057035L87.6653125,141.21681265451332L87.74708984375,140.27278138906198L87.77980078125,140.1813032501558L87.987515234375,140.2287729251402L88.11835898437499,140.63434563262618L88.147798828125,140.03766106936357L88.79056874999999,139.1938449624272L88.942674609375,139.26041046618448L88.972114453125,139.71561941956602L89.25342851562499,139.41435747760943L89.276326171875,139.3969217298485L89.29758828125,139.68802955686363L89.39245000000001,137.74637660117727L90.20858789062501,137.29688894105954L90.26583203125,136.7419000469536L90.738505078125,134.78806004225822L91.13757851562501,131.9882540380324L91.68548671875,132.34172863422918L92.03876484375,130.65680577080624L92.082924609375,131.03722519372565L92.75840546875,130.19370267435306L92.851631640625,130.83578240691776L92.877800390625,131.22190416622598L92.90069804687501,131.2508137496034L93.240891796875,132.07923237464306L93.443699609375,130.20815913717874L93.59089882812499,127.62739322346087L93.613796484375,128.2016039011148L93.61870312500001,128.2611435110033L93.74791132812501,128.18197915990297L93.908194921875,128.54143124391268L95.6925765625,127.94748811952141L96.263382421875,128.64898930756925L96.629744921875,125.80524037681235L96.63301601562499,127.30211633913109L97.40662968749999,127.28935470521799L97.81551640625,126.5728192346962L97.876031640625,126.21998731122656L97.90383593749999,127.4777385801039L98.432117578125,128.05511472209352L98.44356640625,127.06730324988416L98.51389492187499,127.62082292489575L98.6888984375,127.88299063240618L98.73796484374999,126.91829156916555L98.847546484375,126.988162412249L99.02255000000001,126.6999961710241L99.204095703125,127.82124655392168L99.387276953125,127.34947189852952L100.396409375,127.03697470867655L100.51089765625001,126.54037723780891L100.613937109375,125.60373951402802L100.74150976562501,125.92896556262522L101.166751953125,125.6375690063627L101.97634765625,124.19236210572643L101.99270312499999,124.65282589515377L102.65019296875,124.36219330563841L102.9544046875,121.77307397507457L103.096697265625,122.3073165775671L103.466330859375,122.62588491981039L103.476144140625,122.54679642782935L103.57754804687501,123.52876678504643L104.13363398437501,123.94349010654177L104.159802734375,123.5261410958876L104.365881640625,123.09742698629884L105.45024921875,122.96528428766895L105.481324609375,121.55425585890205L105.736469921875,121.22833027301184L105.85259375000001,120.21224724571066L105.94091328125,121.25362252113959L105.9638109375,120.04326026902562L106.106103515625,122.08978424212307L106.560785546875,121.01705581791077L106.703078125,120.17550023611969L107.73674375,120.4004502125077L108.36806484375,120.79760519125695L108.572508203125,117.51179467213126L108.71480078125,117.28626520491812L108.817840234375,116.88268868442631L109.2218203125,116.80856981598369L110.00851835937499,116.60911283438531L110.116464453125,116.30275155094678L110.37815195312501,115.00042639585209L110.46810703125,114.59238375626688L110.47464921875,112.31944538064019L110.760869921875,112.58365084257618L110.942415625,112.41138575831856L110.95877109375,109.97599718248671L110.99802421875,109.89044746423805L111.34476015625,109.24705271781424L111.39055546875,111.35249744603283L111.51322148437501,112.20604770142954L111.77654453125,111.93289293128659L112.020241015625,111.72835363815793L112.70880625000001,112.71246827434214L112.97376484375,114.28847144690793L113.0293734375,113.83362430221715L114.43267265625,112.44781187199543L114.594591796875,113.15643068479588L115.286428125,110.72913761631631L115.62662187500001,112.06392385468467L115.886673828125,113.90243146921622L116.138548046875,112.4802383222946L116.32009375,111.62801449006513L116.59813671875,111.85516304105862L116.87781523437499,112.09794673695276L117.070809765625,111.82380206325747L118.10611093749999,109.65662185693174L118.39069609375,107.45245967123857L118.634392578125,107.92016370411471L119.252629296875,106.69794733370323L119.422726171875,105.7602026003329L119.461979296875,105.31153234029962L119.586280859375,104.66582910626965L119.62716953124999,106.03759619564268L119.707311328125,105.02133657607841L120.011523046875,105.57875291847057L120.6379375,105.5317276266235L121.02719765625,105.92895486396115L121.24963203125,106.85875937756504L121.630714453125,107.53038343980853L121.80571796875,105.62439509582768L122.20806250000001,104.77925558624491L122.63657578125,105.00098002762041L122.821392578125,105.49848202485838L123.403647265625,104.91373382237254L123.691503515625,103.25466044013528L124.6155875,101.45174439612174L125.492240625,102.40446995650957L125.518409375,103.44187296085862L125.811172265625,103.34303566477276L126.13501054687501,102.07998209829547L126.20043242187499,101.01403388846593L126.512821875,99.80393049961934L126.75978945312501,99.5467374496574L127.00021484375,97.45086370469166L127.302791015625,96.35222733422248L127.551394140625,95.76170460080023L127.855605859375,95.41903414072021L128.09603125,95.91008072664819L128.37243867187502,94.70887265398338L128.549077734375,93.86378538858503L129.029928515625,91.79340684972654L129.131332421875,90.38436616475387L131.18394375,90.22837954827848L132.52018554687498,89.58059159345063L132.59869179687502,90.35163243410557L132.824397265625,92.308169190695L133.43445625,91.36095227162551L133.694508203125,90.93325704446295L133.83680078125,89.95243134001664L133.844978515625,90.98423820601498L134.116479296875,89.28146438541347L134.904812890625,87.62211794687212L135.07981640625002,88.18190615218492L135.14033164062502,89.23736553696642L135.16486484375002,90.94247898326978L135.24337109375,90.5241810849428L135.35949492187498,91.64631297644851L135.88450546874998,89.90978167880367L135.89758984374998,89.4118535109233L136.416058203125,89.39441815983096L137.48079921874998,90.00707634384786L137.5756609375,86.04496870946306L137.7065046875,84.29922183851674L138.00908085937502,85.57184965466507L139.0149421875,85.96201468919857L139.46308203125,85.2777132202787L140.037158984375,84.08659189825084L140.141833984375,86.29793270842576L140.29393984375,87.39428943758317L140.302117578125,88.81761049382486L141.028300390625,86.39339944444238L142.588612109375,85.22050949999813L142.624594140625,82.97015854999833L143.18068007812502,82.14254269499848L143.19703554687501,79.63653842549863L143.229746484375,78.74698458294877L143.4570875,77.52453612465388L143.57321132812498,76.92583251218849L144.31574960937502,79.90339926096966L144.63795234375002,78.40895933487268L144.65103671875002,78.02566340138543L144.70337421875,78.55979706124688L145.08772773437502,81.02881735512219L145.25946015625,80.70803561960996L146.67911484375,78.23928205764898L147.135432421875,77.59565385188407L148.162555859375,77.27598846669567L148.44550546875,78.36003962002607L148.54690937499998,78.77223565802349L148.55672265625,76.98381209222114L148.9328984375,77.49528088299901L149.130799609375,76.87885279469913L149.90441328125,78.23271751522918L150.128483203125,78.92904576370628L150.3198421875,76.47594118733564L150.32311328125002,76.08829706860206L150.370544140625,77.77196736174187L150.68129804687499,74.93897062556768L150.85957265625,73.7138235630109L150.96261210937502,75.78834120670982L151.132708984375,77.75275708603884L151.214486328125,77.44393137743494L151.3077125,78.37253823969144L151.44836953125,78.68613441572228L152.57526132812498,77.56712097415007L152.82549999999998,79.66635887673506L153.618740234375,79.56737298906154L155.0171328125,79.36323569015539L155.089096875,79.95241212113984L155.574854296875,79.27022090902585L155.591209765625,80.68289881812328L156.654315234375,80.83920893631095L157.701065234375,80.15978804267984L157.809011328125,78.82850923841187L157.93167734375,77.64510831457069L158.031445703125,77.3322974831136L158.152476171875,76.57286773480224L158.18355156249999,74.104630961322L158.34383515625,72.21951786518981L158.65131796875002,69.71756607867081L158.659495703125,70.20930947080375L158.805059375,70.20052852372335L158.84758359375,73.52907567135104L159.369323046875,73.6986681042159L159.702974609375,70.34670129379431L160.399717578125,70.52773116441489L160.66631171875,69.6581580479734L161.0359453125,69.72514224317605L161.34669921875,68.99777801885844L162.133397265625,69.56740021697259L162.40980468749999,69.87356019527533L162.669856640625,69.3378541757478L162.803971484375,70.33661875817303L163.47618125,68.37400688235572L164.15656875,68.09740619412014L164.181101953125,67.04901557470812L164.62760624999999,67.44476401723732L164.691392578125,67.66228761551356L165.27855390624998,68.65455885396223L165.813377734375,67.656652968566L166.08324296875,66.8558876717094L166.14539375,66.93169890453844L166.38909023437498,66.0765790140846L166.39236132812502,65.08867111267612L166.546102734375,64.69515400140853L166.65568437500002,64.65958860126767L167.337707421875,62.26167974114091L168.152209765625,61.25996176702682L168.198005078125,61.594465590324134L168.224173828125,61.98991903129172L169.07629375,61.024227128162536L169.339616796875,61.810054415346286L169.87771171875,60.26644897381168L170.199914453125,59.175154076430516L171.11418515625,59.55588866878746L171.22867343750002,59.06074980190871L171.292459765625,58.553174821717846L171.374237109375,57.63910733954607L171.758590625,57.574596605591466L171.97121171875,57.90003694503234L173.556056640625,55.87718325052913L174.223359765625,55.59946492547623L174.83341875000002,54.6533184329286L175.45819765625,55.27678658963573L175.5988546875,55.12990793067215L176.04045234375002,53.02711713760493L176.323401953125,53.85450542384446L177.00215390625002,52.675754881459994L177.70707460937498,52.429079393313984L178.05381054687498,51.17162145398257L178.43489296875,52.730309308584324L178.44143515625,52.43982837772589L178.50849257812501,52.28459553995329L178.861770703125,51.18908598595796L179.1578046875,51.09992738736216L179.201964453125,50.50048464862593L179.3606125,52.326886183763335L179.37042578125002,49.943897565387005L180.6625078125,49.7137578088483L180.67886328125002,50.86068202796346L180.70339648437502,48.89866382516712L181.35434414062502,48.86449744265039L181.589862890625,48.52694769838536L181.990571875,48.37360292854683L182.832878515625,47.08214263569212L183.127276953125,46.94937837212291L183.997387890625,46.82104053491062L185.40068710937499,47.90028648141953L186.13831875000002,49.193157833277596L187.53507578125001,47.72534204994983L187.674097265625,48.80265784495481L187.860549609375,49.45954206045934L188.00611328124998,52.0272378544134L188.560563671875,51.63301406897206L189.031601171875,52.13666266207487L189.7954015625,51.999946395867354L190.313869921875,52.69700175628063L191.17580312500002,51.81985158065255L191.39660195312499,51.65876642258729L191.803853125,52.43713978032855L192.40246328125,54.2763758022957L192.574195703125,53.27668822206614L192.9225671875,53.77821939985952L192.929109375,54.31219745987356L193.149908203125,56.39757771388621L193.46229765625,56.725669942497575L193.89408203125,57.00030294824782L194.3291375,57.39497265342307L194.40764375,56.275175388080754L194.50577656250002,55.28800784927266L194.77400624999999,54.38775706434542L194.798539453125,55.556981357910885L195.302287890625,55.163783222119804L196.72357812500002,54.79810489990781L197.150455859375,54.622394409917035L198.8825,52.886004968925334L199.74933984375,51.20820447203279L199.943969921875,49.88403402482952L200.81735195312498,50.21448062234657L200.886044921875,50.98093256011191L202.129060546875,50.5998893041007L202.21901562500003,49.982600373690644L202.34331718750002,48.45059033632157L202.34658828125,46.33723130268942L202.855243359375,46.92795817242046L202.91575859374998,48.884462355178414L204.353404296875,49.12901611966058L204.70177578125,49.36091450769453L205.0256140625,49.77612305692506L205.72889921875,48.78101075123257L205.8499296875,47.991609676109306L205.966053515625,47.788548708498354L206.080541796875,48.352143837648526L206.92611953125,47.714779453883665L207.23360234375,48.00255150849529L207.39061484375,47.32639635764576L208.0873578125,47.865406721881186L208.24764140624998,47.86671604969308L208.78573632812498,48.649644444723776L208.92312226562498,47.87043000025139L208.98690859374997,48.13673700022625L209.55935,49.03131330020362L210.11870703124998,46.703531970183235L210.72876601562498,44.59377877316493L210.777832421875,44.65675089584843L211.032977734375,44.72227580626358L211.037884375,45.329948225637224L211.317562890625,45.6290534030735L211.441864453125,46.86584806276616L211.952155078125,47.41846325648956L211.97995937500002,47.49691693084057L212.4967921875,46.80052523775652L212.74866640624998,43.96717271398086L213.152646484375,43.670955442582766L214.143787890625,42.49870989832448L214.57066562499998,41.906838908492034L214.85852187499998,41.318105017642836L215.91672070312498,43.213144515878525L215.9641515625,44.691530064290674L216.829355859375,44.73882705786161L216.845711328125,46.20919435207546L217.43614374999999,47.16377491686791L218.40929414062498,46.48594742518111L218.45345390625,44.772602682663006L218.919584765625,44.15394241439668L219.063512890625,44.32284817295704L219.07169062499997,43.58986335566132L220.542047265625,41.431577020095204L220.86588554687498,41.79601931808568L221.55281523437498,42.2921673862771L221.58879726562498,43.125150647649406L222.76148437499998,43.01048558288443L223.113126953125,43.03413702459599L223.206353125,43.810623322136394L223.662670703125,44.36196098992278L224.854984375,44.1177148909305L224.895873046875,44.09554340183743L224.948210546875,44.2732390616537L225.38163046875002,45.07036515548833L225.87883671875002,45.03257863993949L226.22720820312497,43.511770775945536L226.48726015625,42.69764369835099L226.50198007812497,43.28947932851585L226.668805859375,43.606781395664285L226.914137890625,43.50000325609787L227.92654140625,43.796252930488066L227.980514453125,43.38142763743926L228.441738671875,43.71608487369534L230.204858203125,44.4302763863258L230.77729960937498,43.901898747693195L230.806739453125,43.83640887292387L231.05207148437498,43.804017985631475L231.26305703124999,43.87221618706832L231.91564023437502,42.682794568361516L232.483175,42.64186511152536L232.66635625,43.51362860037284L233.387632421875,43.430915740335536L233.750723828125,43.725224166301984L233.930633984375,43.32930174967177L234.054935546875,43.0526215747046L234.10890859375002,42.95995941723416L234.839998046875,42.92671347551075L234.84490468750002,42.47494212795965L234.885793359375,42.41644791516367L235.47622578124998,42.51130312364731L235.520385546875,41.534672811282576L235.976703125,41.346005530154315L236.96784453125,41.77505497713889L237.11177265625003,42.323449479424994L237.37673125,41.9939545314825L237.574632421875,41.56760907833424L237.88702187500002,43.22529817050079L238.25829101562502,43.71716835345072L238.79638593750002,40.56675151810563L238.85363007812498,41.13272636629506L239.17746835937498,39.06675372966558L239.236348046875,38.39032835669897L239.3982671875,38.790445521029085L239.834958203125,38.513350968926176L240.53987890625,38.718265872033555L240.80810859375,39.0413392848302L241.784530078125,39.163955356347174L242.25066093750002,40.531009820712455L242.27355859375,41.47815883864121L242.39786015625,40.28329295477707L242.66281875,40.83631365929935L243.3497484375,38.70558229336942L243.554191796875,38.19212406403247L244.12172656250002,38.721211657629226L244.70398125,38.114740491866286L244.86917148437502,37.16771644267965L245.36801328125,36.00564479841171L245.57245664062498,38.13103031857054L246.249573046875,39.15002728671348" style="fill: none;" fill="none"></path></g></g></g></g><g opacity="0.2"><g><g><g><path stroke="rgb(255, 112, 67)" stroke-width="2px" d="M33.386418359375,161.129L33.432213671875,161.424L33.458382421875,161.188L33.486186718750005,161.247L33.536888671875,161.2765L33.538524218750005,161.129L33.556515234375,161.3355L33.559786328125,161.3355L33.561421875,161.306L33.56469296875,161.2765L33.569599609375004,161.306L33.57777734375,161.306L33.579412890625,161.188L33.5810484375,161.2175L33.638292578125004,161.483L33.641563671875005,161.2765L33.945775390624995,161.0405L34.199285156250006,161.129L34.382466406249996,161.365L34.42826171875,161.3945L34.65069609375,161.3355L34.721024609375,161.129L34.78808203125,161.247L34.806073046875,161.2175L34.8109796875,161.247L34.835512890625004,161.07L34.8371484375,161.011L34.858410546875,161.2175L34.871494921875,161.1585L34.87967265625,161.2175L34.930374609375,161.2175L34.9549078125,161.0995L34.9810765625,161.188L35.051405078125,161.247L35.057947265624996,161.188L35.275475,161.188L35.309821484375,161.306L35.3866921875,161.2765L35.522442578125,160.0375L35.77595234375,161.0405L35.823383203125005,161.0995L35.901889453125,161.188L35.908431640625,160.9225L35.968946875,161.2175L36.009835546875,161.3355L36.045817578124996,161.188L36.088341796875,161.011L36.12268828125,160.9815L36.176661328125,161.07L36.183203515624996,161.2765L36.278065234375006,160.8635L36.29605625,161.247L36.36474921875,160.9815L36.40400234375,161.011L36.4203578125,160.7455L36.467788671875,160.7455L36.632978906249996,160.952L36.968266015625,159.418L37.22831796875,160.775L37.251215625,160.5095L37.3755171875,159.5655L37.42458359374999,160.598L37.56196953125,160.6865L37.612671484375,160.716L37.638840234374996,156.0845L37.700991015625,159.3L37.7353375,160.716L37.79094609375,159.123L37.805666015625,160.657L37.920154296875,160.539L38.070624609375,160.775L38.113148828125,160.5095L38.306143359375,159.536L38.5204,160.48L38.608719531249996,160.6275L38.6577859375,159.477L38.701945703125,159.182L38.7101234375,160.1555L38.716665625,156.4975L38.73302109375,160.2735L38.734656640625,160.4505L38.773909765625,160.2735L38.7886296875,159.4475L38.930922265625,160.4505L38.96199765625,161.2175L38.96526875,160.7455L39.027419531250004,160.716L39.045410546875004,161.0405L39.073214843749994,159.24099999999999L39.14517890625,160.716L39.189338671875,160.4505L39.35452890625,155.9665L39.379062109375006,160.539L39.410137500000005,160.244L39.482101562500006,160.303L39.686544921875,160.303L39.787948828125,160.5095L39.8484640625,155.6715L39.889352734374995,158.592L39.894259375,160.598L39.931876953125,160.244L39.9662234375,159.8605L40.002205468750006,160.303L40.077440625,160.303L40.154311328125,159.3295L40.187022265625004,160.3915L40.22136875,160.6275L40.25735078125,160.893L40.402914453125,160.3325L40.48632734375,159.4475L40.690770703125,159.24099999999999L40.8036234375,158.828L40.945916015624995,159.182L40.95736484375,160.126L40.965542578125,160.5685L41.101292968749995,159.005L41.112741796875,159.5655L41.11437734375,160.244L41.197790234375,160.0965L41.376064843749994,158.5035L41.385878125000005,160.362L41.50690859375,160.126L41.52980625,158.769L41.58214375,160.2735L41.688454296875,158.91649999999998L41.694996484375004,159.064L41.701538671875,160.2735L41.822569140625,158.887L41.830746874999996,160.0965L41.84056015625,158.3855L41.856915625,159.8605L41.89289765625,155.6715L41.976310546875,159.89L42.00084375,160.2145L42.018834765625,160.0375L42.1513140625,158.7985L42.316504296874996,159.3295L42.327953125,159.9785L42.411366015625006,160.067L42.44898359375,160.008L42.476787890625005,159.5655L42.7270265625,158.9755L42.903665625,158.85750000000002L42.92656328125,158.53300000000002L42.928198828125,155.937L42.94291875,160.598L43.042687109375,159.1525L43.19479296875,158.592L43.2765703125,156.291L43.286383593749996,158.769L43.31909453125,158.71L43.338721093749996,155.6715L43.3943296875,158.5035L43.461387109375,156.999L43.474471484375,159.89L43.559519921875,158.474L43.628212890625,158.5625L43.641297265625,158.651L44.082894921875,158.6215L44.133596875,158.7395L44.149952343749995,155.878L44.243178515625,158.769L44.298787109375,158.474L44.410004296875,158.7395L44.468883984375005,158.53300000000002L44.508137109375,158.415L44.514679296874995,155.347L44.558839062500006,155.819L44.563745703125,158.4445L44.596456640625,158.26749999999998L44.720758203125,158.474L44.727300390625004,158.238L44.742020312499996,155.6715L44.8205265625,158.3855L45.070765234375,158.5625L45.214693359375,155.9075L45.2653953125,158.474L45.26866640625,158.415L45.353714843750005,158.592L45.41259453125,156.881L45.417501171874996,155.701L45.5270828125,158.828L45.559793750000004,155.3765L45.726619531249995,155.878L45.782228124999996,155.642L45.795312499999994,158.356L45.885267578124996,155.878L45.989942578125,155.524L46.146955078124996,158.4445L46.194385937499995,154.57999999999998L46.225461328125,154.3735L46.235274609375004,155.642L46.26635,157.9725L46.384109374999994,153.4885L46.4691578125,155.6715L46.56401953125,155.4355L46.59673046875,158.12L46.600001562500005,155.406L46.722667578125,158.415L46.869866796875,153.4885L46.873137890624996,154.90449999999998L46.8944,158.238L47.023608203125,155.55349999999999L47.067767968750005,155.6125L47.08085234375,155.288L47.10702109375,158.1495L47.144638671875,155.22899999999998L47.167536328125,155.49450000000002L47.246042578125,152.6625L47.260762500000006,158.26749999999998L47.563338671875,155.9665L47.614040625,158.651L47.72198671875,158.12L47.7645109375,155.9665L47.785773046875,156.6155L47.815212890625006,155.7305L47.895354687499996,158.26749999999998L47.908439062499994,155.49450000000002L48.047460546875,155.55349999999999L48.07199375,158.002L48.073629296875,157.9135L48.1308734375,158.2085L48.266623828125,155.1995L48.289521484375,156.0255L48.296063671875004,155.22899999999998L48.314054687500004,155.1995L48.479244921875,155.1405L48.60518203125,149.0635L48.673875,155.878L48.971544531250004,157.9725L49.054957421874995,153.695L49.079490625,155.49450000000002L49.27248515625,155.3765L49.3608046875,158.12L49.550528125,158.297L49.57342578125,153.4885L49.60613671875,155.288L49.650296484375,158.297L49.707540625,153.5475L49.907077343750004,155.406L49.9365171875,153.577L49.9757703125,158.1495L50.245635546875,158.0905L50.438630078124994,155.17L50.46970546875,158.3265L50.47951875,157.943L50.494238671874996,158.0315L50.57438046875,156.409L50.620175781250005,155.76L50.80989921875,155.1405L50.870414453125,153.636L51.03233359375,156.5565L51.181168359375,155.4355L51.200794921875,158.2085L51.253132421875,155.288L51.33327421875,155.1405L51.382340625,155.6125L51.47720234375,155.8485L51.534446484375,154.993L51.565521875,155.17L51.57533515625,158.1495L51.6636546875,155.111L51.668561328125,153.4295L51.7029078125,157.412L51.75197421875,155.3175L51.812489453124996,154.167L51.819031640625,156.409L52.09216796875,149.211L52.093803515625,156.7335L52.319508984375,154.934L52.499419140625,156.4975L52.53049453125001,151.984L52.573018749999996,154.344L52.577925390625005,155.1405L52.73003125,155.3765L52.83143515625,155.3175L53.058776171875,158.0905L53.07349609375,153.4L53.353174609375,154.875L53.4038765625,156.3205L53.43331640625,156.409L53.467662890625,153.813L53.55107578125,149.152L53.627946484375,155.347L53.68191953125,155.0225L53.739163671875,155.6715L53.81439882812499,154.7865L53.827483203125006,155.642L53.860194140625,154.816L53.928887109375,156.7925L54.138237109375,154.934L54.208565625,153.459L54.630536718749994,155.583L54.810446875,153.577L54.815353515625006,152.0725L54.851335546875,155.3765L54.870962109375,153.577L54.895495312499996,153.4885L54.913486328124996,151.984L54.9347484375,153.577L55.024703515625,153.577L55.086854296875,153.7245L55.103209765625,153.872L55.124471875,156.5565L55.1310140625,155.111L55.211155859375005,153.577L55.234053515625,157.3235L55.240595703125,156.35L55.341999609375,155.288L55.364897265625,155.347L55.391066015625,156.468L55.485927734375004,147.6475L55.554620703125,154.875L55.80813046875,153.7245L55.950423046875,155.49450000000002L56.055098046874996,153.636L56.223559375,154.993L56.2628125,155.17L56.267719140625005,158.0315L56.3609453125,153.577L56.405105078125004,150.5975L56.439451562500004,156.468L56.468891406249995,154.9635L56.485246874999994,154.816L56.5441265625,155.052L56.614455078125,155.6125L56.663521484375,156.4975L56.688054687500006,155.406L56.753476562500005,153.6655L56.758383203125,154.9635L56.902311328124995,157.943L56.977546484375,154.934L57.02497734375,149.093L57.095305859374996,153.9015L57.216336328125,154.90449999999998L57.3815265625,153.6655L57.435499609375,155.052L57.528725781249996,153.459L57.563072265624996,154.993L57.77732890625,156.999L57.813310937500006,154.993L57.82966640625,156.5565L57.8394796875,154.816L57.867283984375,157.88400000000001L57.88854609375,153.577L57.94088359375,153.6655L58.053736328125005,155.052L58.0749984375,155.111L58.15677578125,153.6065L58.22546875,151.7775L58.392294531249995,153.4885L58.442996484375,153.754L58.472436328125,148.916L58.757021484374995,157.825L59.064504296875,153.341L59.162637109375005,154.8455L59.221516796874994,154.25549999999998L59.285303125,154.993L59.352360546875,155.288L59.555168359375,153.3705L59.558439453125004,153.282L59.587879296875,154.875L59.60259921875,154.757L59.869193359375,153.4885L59.92970859375,154.757L60.0507390625,153.341L60.202844921875,153.3115L60.439999218749996,153.931L60.4956078125,149.034L60.516869921875,153.3115L60.618273828125005,154.7865L60.74257539062501,145.9365L60.778557421875,153.2525L60.9928140625,151.925L60.996085156250004,153.3705L61.14001328125,156.232L61.19235078125,157.707L61.239781640625,156.3205L61.3853453125,156.291L61.439318359375,154.8455L61.4769359375,153.341L61.483478125,154.8455L61.62740625,154.90449999999998L61.637219531250004,153.2525L61.658481640625,153.459L61.671566015625004,155.0225L61.8040453125,153.3115L61.887458203125,153.4L61.983955468750004,156.291L61.99213320312499,154.757L62.04937734375,148.8275L62.374851171875,154.7275L62.423917578125,154.7275L62.425553125,153.3115L62.59565,153.2525L62.603827734375,153.3115L62.656165234375,153.2525L62.845888671874995,153.223L62.909675,154.816L62.917852734375,154.757L62.937479296875004,154.7275L63.0863140625,154.6685L63.11575390625,156.232L63.213886718750004,153.3705L63.48865859375,154.698L63.496836328125,148.916L63.658755468749995,151.7775L63.6881953125,153.3115L63.689830859375,151.8365L63.69146640625,147.323L63.7797859375,153.223L63.936798437499995,151.748L64.079091015625,154.9635L64.170681640625,154.9635L64.23446796875,153.1935L64.2377390625,153.282L64.26717890625,150.3615L64.6564390625,151.7185L64.968828515625,154.6685L64.97209960937501,153.2525L65.1013078125,153.2525L65.233787109375,155.1405L65.423510546875,154.7275L65.46930585937501,154.757L65.51346562500001,152.5445L65.521643359375,154.6685L65.70646015625,151.689L65.74407773437501,153.282L65.773517578125,153.1935L65.94034335937499,156.2025L66.19712421874999,147.3525L66.24128398437499,153.1935L66.287079296875,150.332L66.2919859375,153.3115L66.298528125,153.341L66.39011875,154.757L66.62890859375001,154.639L66.75321015625,152.633L66.98218671875,153.282L67.003448828125,155.49450000000002L67.019804296875,151.04L67.07050625,154.8455L67.412335546875,153.2525L67.428691015625,154.8455L67.602058984375,150.096L67.834306640625,154.344L67.85883984375,154.639L67.96187929687501,149.034L68.025665625,151.689L68.04856328125,151.4235L68.105807421875,144.314L68.279175390625,150.273L68.380579296875,150.24349999999998L68.444365625,154.90449999999998L68.52941406250001,154.167L68.53595625000001,153.223L68.563760546875,150.273L68.627546875,154.639L68.64717343749999,153.282L68.65698671875,150.3025L68.697875390625,150.6565L69.07895781250001,147.2935L69.548359765625,156.1435L69.61214609375,151.0695L69.705372265625,148.7685L69.93925546875,154.4915L70.027575,150.922L70.04393046875,156.1435L70.0864546875,156.999L70.12570781250001,153.1935L70.20584960937501,154.7275L70.25328046874999,145.8185L70.26309375000001,150.627L70.4528171875,154.8455L70.807730859375,151.6595L70.96474335937499,153.1935L71.139746875,147.264L71.193719921875,151.335L71.23297304687499,150.214L71.27386171875,150.4795L71.36545234375001,150.922L71.4733984375,154.6685L71.530642578125,154.639L71.73835703124999,152.928L71.965698046875,150.214L71.97224023437501,156.2025L72.35659375,147.4115L72.5201484375,150.214L72.64117890624999,152.7215L72.6771609375,149.1815L72.731133984375,150.5975L72.9519328125,151.4235L73.4753078125,150.273L73.522738671875,150.214L73.61269375,150.24349999999998L73.66830234375,151.807L73.70919101562501,144.314L73.90382109375,153.164L74.003589453125,153.3705L74.28817460937499,152.043L74.490982421875,153.1935L74.95057109375,150.214L74.965291015625,151.6005L75.00945078125,147.6475L75.60315429687499,151.689L75.619509765625,147.264L75.62441640625,148.739L75.652220703125,150.5385L75.745446875,149.742L76.03003203125,150.096L76.2099421875,153.2525L76.2622796875,148.267L76.273728515625,153.1935L76.32770156250001,150.037L76.4062078125,153.164L76.646633203125,144.4025L76.698970703125,151.7185L76.86088984375,151.4235L77.048977734375,139.9185L77.28613203124999,140.243L77.564175,150.1255L77.699925390625,147.559L77.788244921875,144.9925L78.03684804687501,150.096L78.16605625000001,146.32L78.25764687499999,149.7715L78.55204531250001,149.9485L78.563494140625,147.2345L78.66489804687501,147.20499999999998L78.82354609375,143.2815L78.8922390625,144.078L79.199721875,148.739L79.292948046875,150.155L79.377996484375,138.3255L79.54809335937499,146.9395L79.626599609375,149.7715L79.70019921875,151.453L79.98805546875,147.972L80.06001953124999,150.8925L80.44600859375,136.6735L80.62591875,148.4735L80.81237109375,142.426L80.951392578125,149.447L81.6007046875,136.40800000000002L81.605611328125,149.9485L81.916365234375,147.20499999999998L82.1764171875,134.992L82.27291445312501,150.981L82.282727734375,142.249L82.38903828125,148.8275L82.78156953125,137.6765L82.80119609375,147.1755L82.89115117187501,145.258L83.074332421875,143.9895L83.16755859375,143.9305L83.1708296875,145.2875L83.4456015625,145.317L83.699111328125,140.74450000000002L84.82109648437499,148.2375L85.244703125,140.833L85.25288085937501,142.898L85.82368671875,130.272L86.152431640625,135.405L86.437016796875,136.172L86.737957421875,146.792L87.6653125,133.0745L87.74708984375,131.7765L87.77980078125,139.358L87.987515234375,140.656L88.11835898437499,144.2845L88.147798828125,134.6675L88.79056874999999,131.5995L88.942674609375,139.8595L88.972114453125,143.8125L89.25342851562499,136.703L89.276326171875,139.24L89.29758828125,142.308L89.39245000000001,120.2715L90.20858789062501,133.2515L90.26583203125,131.747L90.738505078125,117.2035L91.13757851562501,106.79L91.68548671875,135.523L92.03876484375,115.4925L92.082924609375,134.461L92.75840546875,122.602L92.851631640625,136.6145L92.877800390625,134.697L92.90069804687501,131.511L93.240891796875,139.535L93.443699609375,113.36850000000001L93.59089882812499,104.4005L93.613796484375,133.36950000000002L93.61870312500001,128.797L93.74791132812501,127.46950000000001L93.908194921875,131.7765L95.6925765625,122.602L96.263382421875,134.9625L96.629744921875,100.2115L96.63301601562499,140.774L97.40662968749999,127.1745L97.81551640625,120.124L97.876031640625,123.0445L97.90383593749999,138.7975L98.432117578125,133.2515L98.44356640625,118.177L98.51389492187499,132.6025L98.6888984375,130.2425L98.73796484374999,118.23599999999999L98.847546484375,127.61699999999999L99.02255000000001,124.1065L99.204095703125,137.9125L99.387276953125,123.1035L100.396409375,124.2245L100.51089765625001,122.071L100.613937109375,117.174L100.74150976562501,128.856L101.166751953125,123.015L101.97634765625,111.18549999999999L101.99270312499999,128.797L102.65019296875,121.7465L102.9544046875,98.471L103.096697265625,127.1155L103.466330859375,125.493L103.476144140625,121.83500000000001L103.57754804687501,132.3665L104.13363398437501,127.676L104.159802734375,119.77000000000001L104.365881640625,119.239L105.45024921875,121.77600000000001L105.481324609375,108.855L105.736469921875,118.295L105.85259375000001,111.0675L105.94091328125,130.626L105.9638109375,109.14999999999999L106.106103515625,140.5085L106.560785546875,111.3625L106.703078125,112.6015L107.73674375,122.425L108.36806484375,124.372L108.572508203125,87.93950000000001L108.71480078125,115.2565L108.817840234375,113.25049999999999L109.2218203125,116.14150000000001L110.00851835937499,114.814L110.116464453125,113.5455L110.37815195312501,103.2795L110.46810703125,110.92L110.47464921875,91.863L110.760869921875,114.9615L110.942415625,110.861L110.95877109375,88.0575L110.99802421875,109.12049999999999L111.34476015625,103.4565L111.39055546875,130.3015L111.51322148437501,119.888L111.77654453125,109.47449999999999L112.020241015625,109.8875L112.70880625000001,121.5695L112.97376484375,128.4725L113.0293734375,109.74L114.43267265625,99.9755L114.594591796875,119.53399999999999L115.286428125,88.8835L115.62662187500001,124.077L115.886673828125,130.449L116.138548046875,99.6805L116.32009375,103.958L116.59813671875,113.8995L116.87781523437499,114.283L117.070809765625,109.3565L118.10611093749999,90.152L118.39069609375,87.615L118.634392578125,112.12950000000001L119.252629296875,95.69800000000001L119.422726171875,97.3205L119.461979296875,101.2735L119.586280859375,98.8545L119.62716953124999,118.3835L119.707311328125,95.875L120.011523046875,110.5955L120.6379375,105.10849999999999L121.02719765625,109.50399999999999L121.24963203125,115.227L121.630714453125,113.575L121.80571796875,88.4705L122.20806250000001,97.173L122.63657578125,106.9965L122.821392578125,109.976L123.403647265625,99.651L123.691503515625,88.323L124.6155875,85.22550000000001L125.492240625,110.979L125.518409375,112.7785L125.811172265625,102.45349999999999L126.13501054687501,90.7125L126.20043242187499,91.4205L126.512821875,88.913L126.75978945312501,97.232L127.00021484375,78.588L127.302791015625,86.4645L127.551394140625,90.447L127.855605859375,92.335L128.09603125,100.32950000000001L128.37243867187502,83.898L128.549077734375,86.258L129.029928515625,73.16L129.131332421875,77.70299999999999L131.18394375,88.8245L132.52018554687498,83.75049999999999L132.59869179687502,97.29100000000001L132.824397265625,109.917L133.43445625,82.836L133.694508203125,87.084L133.83680078125,81.125L133.844978515625,100.2705L134.116479296875,73.95649999999999L134.904812890625,72.68799999999999L135.07981640625002,93.22L135.14033164062502,98.7365L135.16486484375002,106.2885L135.24337109375,86.75949999999999L135.35949492187498,101.74549999999999L135.88450546874998,74.28099999999999L135.89758984374998,84.9305L136.416058203125,89.2375L137.48079921874998,95.521L137.5756609375,50.385999999999996L137.7065046875,68.58749999999999L138.00908085937502,97.02550000000001L139.0149421875,89.4735L139.46308203125,79.11899999999999L140.037158984375,73.3665L140.141833984375,106.2L140.29393984375,97.2615L140.302117578125,101.6275L141.028300390625,64.5755L142.588612109375,74.66449999999999L142.624594140625,62.716999999999985L143.18068007812502,74.694L143.19703554687501,57.082499999999996L143.229746484375,70.74099999999999L143.4570875,66.52250000000001L143.57321132812498,71.5375L144.31574960937502,106.7015L144.63795234375002,64.959L144.65103671875002,74.57600000000001L144.70337421875,83.36699999999999L145.08772773437502,103.25L145.25946015625,77.821L146.67911484375,56.0205L147.135432421875,71.803L148.162555859375,74.399L148.44550546875,88.1165L148.54690937499998,82.482L148.55672265625,60.88799999999999L148.9328984375,82.0985L149.130799609375,71.331L149.90441328125,90.41749999999999L150.128483203125,85.19599999999998L150.3198421875,54.397999999999996L150.32311328125002,72.5995L150.370544140625,92.925L150.68129804687499,49.44199999999999L150.85957265625,62.6875L150.96261210937502,94.459L151.132708984375,95.4325L151.214486328125,74.66449999999999L151.3077125,86.73L151.44836953125,81.5085L152.57526132812498,67.496L152.82549999999998,98.5595L153.618740234375,78.6765L155.0171328125,77.526L155.089096875,85.25500000000001L155.574854296875,73.1305L155.591209765625,93.397L156.654315234375,82.246L157.701065234375,74.045L157.809011328125,66.84700000000001L157.93167734375,66.99449999999999L158.031445703125,74.51700000000001L158.152476171875,69.738L158.18355156249999,51.8905L158.34383515625,55.2535L158.65131796875002,47.20000000000002L158.659495703125,74.63499999999999L158.805059375,70.1215L158.84758359375,103.486L159.369323046875,75.22500000000001L159.702974609375,40.179L160.399717578125,72.157L160.66631171875,61.83200000000001L161.0359453125,70.328L161.34669921875,62.451499999999996L162.133397265625,74.694L162.40980468749999,72.629L162.669856640625,64.51650000000001L162.803971484375,79.3255L163.47618125,50.710499999999996L164.15656875,65.608L164.181101953125,57.6135L164.62760624999999,71.0065L164.691392578125,69.61999999999999L165.27855390624998,77.58500000000001L165.813377734375,58.6755L166.08324296875,59.649L166.14539375,67.614L166.38909023437498,58.3805L166.39236132812502,56.197500000000005L166.546102734375,61.15350000000001L166.65568437500002,64.3395L167.337707421875,40.680499999999995L168.152209765625,52.2445L168.198005078125,64.605L168.224173828125,65.54899999999999L169.07629375,52.333L169.339616796875,68.8825L169.87771171875,46.373999999999995L170.199914453125,49.35350000000001L171.11418515625,62.9825L171.22867343750002,54.6045L171.292459765625,53.985000000000014L171.374237109375,49.412499999999994L171.758590625,56.993999999999986L171.97121171875,60.82900000000001L173.556056640625,37.67150000000001L174.223359765625,53.10000000000001L174.83341875000002,46.138000000000005L175.45819765625,60.88799999999999L175.5988546875,53.80800000000001L176.04045234375002,34.102000000000004L176.323401953125,61.301L177.00215390625002,42.06700000000001L177.70707460937498,50.20899999999999L178.05381054687498,39.8545L178.43489296875,66.7585L178.44143515625,49.82549999999999L178.50849257812501,50.8875L178.861770703125,41.329499999999996L179.1578046875,50.2975L179.201964453125,45.105500000000006L179.3606125,68.7645L179.37042578125002,28.497000000000014L180.6625078125,47.64250000000001L180.67886328125002,61.18300000000001L180.70339648437502,31.240499999999997L181.35434414062502,48.55699999999999L181.589862890625,45.489000000000004L181.990571875,46.99349999999998L182.832878515625,35.459L183.127276953125,45.75449999999998L183.997387890625,45.666L185.40068710937499,57.6135L186.13831875000002,60.82900000000001L187.53507578125001,34.514999999999986L187.674097265625,58.49850000000001L187.860549609375,55.3715L188.00611328124998,75.1365L188.560563671875,48.08499999999998L189.031601171875,56.66950000000001L189.7954015625,50.76950000000001L190.313869921875,58.970500000000015L191.17580312500002,43.9255L191.39660195312499,50.20899999999999L191.803853125,59.442499999999995L192.40246328125,70.8295L192.574195703125,44.279499999999985L192.9225671875,58.292L192.929109375,59.117999999999995L193.149908203125,75.166L193.46229765625,59.678499999999985L193.89408203125,59.471999999999994L194.3291375,60.947L194.40764375,46.197L194.50577656250002,46.40350000000001L194.77400624999999,46.285499999999985L194.798539453125,66.08L195.302287890625,51.625L196.72357812500002,51.507000000000005L197.150455859375,53.041L198.8825,37.2585L199.74933984375,36.108000000000004L199.943969921875,37.966499999999996L200.81735195312498,53.188500000000005L200.886044921875,57.87899999999999L202.129060546875,47.170500000000004L202.21901562500003,44.42699999999999L202.34331718750002,34.662499999999994L202.34658828125,27.317000000000007L202.855243359375,52.2445L202.91575859374998,66.49300000000001L204.353404296875,51.33000000000001L204.70177578125,51.44799999999999L205.0256140625,53.513000000000005L205.72889921875,39.82499999999999L205.8499296875,40.887L205.966053515625,45.96100000000001L206.080541796875,53.424499999999995L206.92611953125,41.9785L207.23360234375,50.592500000000015L207.39061484375,41.240999999999985L208.0873578125,52.716499999999996L208.24764140624998,47.8785L208.78573632812498,55.696L208.92312226562498,40.85749999999999L208.98690859374997,50.53349999999999L209.55935,57.082499999999996L210.11870703124998,25.753500000000003L210.72876601562498,25.606000000000023L210.777832421875,45.2235L211.032977734375,45.31200000000001L211.037884375,50.79900000000001L211.317562890625,48.321L211.441864453125,57.997L211.952155078125,52.39200000000001L211.97995937500002,48.203L212.4967921875,40.53299999999999L212.74866640624998,18.466999999999985L213.152646484375,41.004999999999995L214.143787890625,31.948499999999996L214.57066562499998,36.58000000000001L214.85852187499998,36.019499999999994L215.91672070312498,60.2685L215.9641515625,57.997L216.829355859375,45.164500000000004L216.845711328125,59.442499999999995L217.43614374999999,55.754999999999995L218.40929414062498,40.38549999999998L218.45345390625,29.35250000000002L218.919584765625,38.585999999999984L219.063512890625,45.84299999999999L219.07169062499997,36.992999999999995L220.542047265625,22.007000000000005L220.86588554687498,45.07599999999999L221.55281523437498,46.75749999999999L221.58879726562498,50.622L222.76148437499998,41.9785L223.113126953125,43.246999999999986L223.206353125,50.79900000000001L223.662670703125,49.324L224.854984375,41.9195L224.895873046875,43.89599999999999L224.948210546875,45.8725L225.38163046875002,52.2445L225.87883671875002,44.692499999999995L226.22720820312497,29.8245L226.48726015625,35.37049999999999L226.50198007812497,48.615999999999985L226.668805859375,46.462500000000006L226.914137890625,42.53899999999999L227.92654140625,46.462500000000006L227.980514453125,39.647999999999996L228.441738671875,46.72800000000001L230.204858203125,50.858000000000004L230.77729960937498,39.1465L230.806739453125,43.246999999999986L231.05207148437498,43.51249999999999L231.26305703124999,44.48599999999999L231.91564023437502,31.97800000000001L232.483175,42.27350000000001L232.66635625,51.3595L233.387632421875,42.686499999999995L233.750723828125,46.373999999999995L233.930633984375,39.76599999999999L234.054935546875,40.5625L234.10890859375002,42.126000000000005L234.839998046875,42.6275L234.84490468750002,38.40899999999999L234.885793359375,41.890000000000015L235.47622578124998,43.36500000000001L235.520385546875,32.745000000000005L235.976703125,39.647999999999996L236.96784453125,45.63650000000001L237.11177265625003,47.259000000000015L237.37673125,39.02850000000001L237.574632421875,37.73049999999998L237.88702187500002,58.14450000000001L238.25829101562502,48.144000000000005L238.79638593750002,12.212999999999994L238.85363007812498,46.22649999999999L239.17746835937498,20.473000000000013L239.236348046875,32.30250000000001L239.3982671875,42.39150000000001L239.834958203125,36.019499999999994L240.53987890625,40.5625L240.80810859375,41.948999999999984L241.784530078125,40.26750000000001L242.25066093750002,52.83449999999999L242.27355859375,50.0025L242.39786015625,29.529499999999985L242.66281875,45.813500000000005L243.3497484375,19.528999999999996L243.554191796875,33.571L244.12172656250002,43.483000000000004L244.70398125,32.656499999999994L244.86917148437502,28.644500000000022L245.36801328125,25.546999999999997L245.57245664062498,57.2595L246.249573046875,48.321" style="fill: none;" fill="none"></path></g></g></g></g></g></g><g transform="translate(68, 177)" clip-path="url(#clip_1)"><clipPath id="clip_1"><rect width="261" height="23"></rect></clipPath><g><g><line x1="0" y1="0" x2="0" y2="5" style="visibility: inherit;" fill="rgb(0, 0, 0)" stroke="rgb(204, 204, 204)" stroke-width="1px"></line><line x1="32.7109375" y1="0" x2="32.7109375" y2="5" style="visibility: inherit;" fill="rgb(0, 0, 0)" stroke="rgb(204, 204, 204)" stroke-width="1px"></line><line x1="65.421875" y1="0" x2="65.421875" y2="5" style="visibility: inherit;" fill="rgb(0, 0, 0)" stroke="rgb(204, 204, 204)" stroke-width="1px"></line><line x1="98.1328125" y1="0" x2="98.1328125" y2="5" style="visibility: inherit;" fill="rgb(0, 0, 0)" stroke="rgb(204, 204, 204)" stroke-width="1px"></line><line x1="130.84375" y1="0" x2="130.84375" y2="5" style="visibility: inherit;" fill="rgb(0, 0, 0)" stroke="rgb(204, 204, 204)" stroke-width="1px"></line><line x1="163.5546875" y1="0" x2="163.5546875" y2="5" style="visibility: inherit;" fill="rgb(0, 0, 0)" stroke="rgb(204, 204, 204)" stroke-width="1px"></line><line x1="196.265625" y1="0" x2="196.265625" y2="5" style="visibility: inherit;" fill="rgb(0, 0, 0)" stroke="rgb(204, 204, 204)" stroke-width="1px"></line><line x1="228.9765625" y1="0" x2="228.9765625" y2="5" style="visibility: inherit;" fill="rgb(0, 0, 0)" stroke="rgb(204, 204, 204)" stroke-width="1px"></line><line x1="261.6875" y1="0" x2="261.6875" y2="5" style="visibility: inherit;" fill="rgb(0, 0, 0)" stroke="rgb(204, 204, 204)" stroke-width="1px"></line></g><g transform="translate(0, 8)"><text x="0" y="0" dx="0em" dy="0.95em" style="text-anchor: middle; visibility: hidden; font-family: &quot;Helvetica Neue&quot;, sans-serif; font-size: 12px; font-weight: 200;" fill="rgb(50, 49, 63)" stroke="none" stroke-width="1px">-20k</text><text x="32.7109375" y="0" dx="0em" dy="0.95em" style="text-anchor: middle; visibility: inherit; font-family: &quot;Helvetica Neue&quot;, sans-serif; font-size: 12px; font-weight: 200;" fill="rgb(50, 49, 63)" stroke="none" stroke-width="1px">0</text><text x="65.421875" y="0" dx="0em" dy="0.95em" style="text-anchor: middle; visibility: inherit; font-family: &quot;Helvetica Neue&quot;, sans-serif; font-size: 12px; font-weight: 200;" fill="rgb(50, 49, 63)" stroke="none" stroke-width="1px">20k</text><text x="98.1328125" y="0" dx="0em" dy="0.95em" style="text-anchor: middle; visibility: inherit; font-family: &quot;Helvetica Neue&quot;, sans-serif; font-size: 12px; font-weight: 200;" fill="rgb(50, 49, 63)" stroke="none" stroke-width="1px">40k</text><text x="130.84375" y="0" dx="0em" dy="0.95em" style="text-anchor: middle; visibility: inherit; font-family: &quot;Helvetica Neue&quot;, sans-serif; font-size: 12px; font-weight: 200;" fill="rgb(50, 49, 63)" stroke="none" stroke-width="1px">60k</text><text x="163.5546875" y="0" dx="0em" dy="0.95em" style="text-anchor: middle; visibility: inherit; font-family: &quot;Helvetica Neue&quot;, sans-serif; font-size: 12px; font-weight: 200;" fill="rgb(50, 49, 63)" stroke="none" stroke-width="1px">80k</text><text x="196.265625" y="0" dx="0em" dy="0.95em" style="text-anchor: middle; visibility: inherit; font-family: &quot;Helvetica Neue&quot;, sans-serif; font-size: 12px; font-weight: 200;" fill="rgb(50, 49, 63)" stroke="none" stroke-width="1px">100k</text><text x="228.9765625" y="0" dx="0em" dy="0.95em" style="text-anchor: middle; visibility: inherit; font-family: &quot;Helvetica Neue&quot;, sans-serif; font-size: 12px; font-weight: 200;" fill="rgb(50, 49, 63)" stroke="none" stroke-width="1px">120k</text><text x="261.6875" y="0" dx="0em" dy="0.95em" style="text-anchor: middle; visibility: hidden; font-family: &quot;Helvetica Neue&quot;, sans-serif; font-size: 12px; font-weight: 200;" fill="rgb(50, 49, 63)" stroke="none" stroke-width="1px">140k</text></g><line x1="0" y1="0" x2="261.6875" y2="0" fill="rgb(0, 0, 0)" stroke="rgb(204, 204, 204)" stroke-width="1px"></line></g></g></g></g></svg>