<svg viewBox="0 0 330 200" xmlns="http://www.w3.org/2000/svg"><g><g><g><g><g><line x1="58.59375" y1="177" x2="53.59375" y2="177" style="visibility: inherit;" fill="rgb(0, 0, 0)" stroke="rgb(204, 204, 204)" stroke-width="1px"></line><line x1="58.59375" y1="160.9090909090909" x2="53.59375" y2="160.9090909090909" style="visibility: inherit;" fill="rgb(0, 0, 0)" stroke="rgb(204, 204, 204)" stroke-width="1px"></line><line x1="58.59375" y1="144.8181818181818" x2="53.59375" y2="144.8181818181818" style="visibility: inherit;" fill="rgb(0, 0, 0)" stroke="rgb(204, 204, 204)" stroke-width="1px"></line><line x1="58.59375" y1="128.72727272727275" x2="53.59375" y2="128.72727272727275" style="visibility: inherit;" fill="rgb(0, 0, 0)" stroke="rgb(204, 204, 204)" stroke-width="1px"></line><line x1="58.59375" y1="112.63636363636364" x2="53.59375" y2="112.63636363636364" style="visibility: inherit;" fill="rgb(0, 0, 0)" stroke="rgb(204, 204, 204)" stroke-width="1px"></line><line x1="58.59375" y1="96.54545454545455" x2="53.59375" y2="96.54545454545455" style="visibility: inherit;" fill="rgb(0, 0, 0)" stroke="rgb(204, 204, 204)" stroke-width="1px"></line><line x1="58.59375" y1="80.45454545454547" x2="53.59375" y2="80.45454545454547" style="visibility: inherit;" fill="rgb(0, 0, 0)" stroke="rgb(204, 204, 204)" stroke-width="1px"></line><line x1="58.59375" y1="64.36363636363636" x2="53.59375" y2="64.36363636363636" style="visibility: inherit;" fill="rgb(0, 0, 0)" stroke="rgb(204, 204, 204)" stroke-width="1px"></line><line x1="58.59375" y1="48.27272727272728" x2="53.59375" y2="48.27272727272728" style="visibility: inherit;" fill="rgb(0, 0, 0)" stroke="rgb(204, 204, 204)" stroke-width="1px"></line><line x1="58.59375" y1="32.18181818181819" x2="53.59375" y2="32.18181818181819" style="visibility: inherit;" fill="rgb(0, 0, 0)" stroke="rgb(204, 204, 204)" stroke-width="1px"></line><line x1="58.59375" y1="16.090909090909093" x2="53.59375" y2="16.090909090909093" style="visibility: inherit;" fill="rgb(0, 0, 0)" stroke="rgb(204, 204, 204)" stroke-width="1px"></line><line x1="58.59375" y1="0" x2="53.59375" y2="0" style="visibility: inherit;" fill="rgb(0, 0, 0)" stroke="rgb(204, 204, 204)" stroke-width="1px"></line></g><g transform="translate(48.59375, 0)"><text x="0" y="177" dx="0em" dy="0.3em" style="text-anchor: end; visibility: hidden; font-family: &quot;Helvetica Neue&quot;, sans-serif; font-size: 12px; font-weight: 200;" fill="rgb(50, 49, 63)" stroke="none" stroke-width="1px">-1e+5</text><text x="0" y="160.9090909090909" dx="0em" dy="0.3em" style="text-anchor: end; visibility: inherit; font-family: &quot;Helvetica Neue&quot;, sans-serif; font-size: 12px; font-weight: 200;" fill="rgb(50, 49, 63)" stroke="none" stroke-width="1px">0</text><text x="0" y="144.8181818181818" dx="0em" dy="0.3em" style="text-anchor: end; visibility: hidden; font-family: &quot;Helvetica Neue&quot;, sans-serif; font-size: 12px; font-weight: 200;" fill="rgb(50, 49, 63)" stroke="none" stroke-width="1px">1e+5</text><text x="0" y="128.72727272727275" dx="0em" dy="0.3em" style="text-anchor: end; visibility: inherit; font-family: &quot;Helvetica Neue&quot;, sans-serif; font-size: 12px; font-weight: 200;" fill="rgb(50, 49, 63)" stroke="none" stroke-width="1px">2e+5</text><text x="0" y="112.63636363636364" dx="0em" dy="0.3em" style="text-anchor: end; visibility: hidden; font-family: &quot;Helvetica Neue&quot;, sans-serif; font-size: 12px; font-weight: 200;" fill="rgb(50, 49, 63)" stroke="none" stroke-width="1px">3e+5</text><text x="0" y="96.54545454545455" dx="0em" dy="0.3em" style="text-anchor: end; visibility: inherit; font-family: &quot;Helvetica Neue&quot;, sans-serif; font-size: 12px; font-weight: 200;" fill="rgb(50, 49, 63)" stroke="none" stroke-width="1px">4e+5</text><text x="0" y="80.45454545454547" dx="0em" dy="0.3em" style="text-anchor: end; visibility: hidden; font-family: &quot;Helvetica Neue&quot;, sans-serif; font-size: 12px; font-weight: 200;" fill="rgb(50, 49, 63)" stroke="none" stroke-width="1px">5e+5</text><text x="0" y="64.36363636363636" dx="0em" dy="0.3em" style="text-anchor: end; visibility: inherit; font-family: &quot;Helvetica Neue&quot;, sans-serif; font-size: 12px; font-weight: 200;" fill="rgb(50, 49, 63)" stroke="none" stroke-width="1px">6e+5</text><text x="0" y="48.27272727272728" dx="0em" dy="0.3em" style="text-anchor: end; visibility: hidden; font-family: &quot;Helvetica Neue&quot;, sans-serif; font-size: 12px; font-weight: 200;" fill="rgb(50, 49, 63)" stroke="none" stroke-width="1px">7e+5</text><text x="0" y="32.18181818181819" dx="0em" dy="0.3em" style="text-anchor: end; visibility: inherit; font-family: &quot;Helvetica Neue&quot;, sans-serif; font-size: 12px; font-weight: 200;" fill="rgb(50, 49, 63)" stroke="none" stroke-width="1px">8e+5</text><text x="0" y="16.090909090909093" dx="0em" dy="0.3em" style="text-anchor: end; visibility: hidden; font-family: &quot;Helvetica Neue&quot;, sans-serif; font-size: 12px; font-weight: 200;" fill="rgb(50, 49, 63)" stroke="none" stroke-width="1px">9e+5</text><text x="0" y="0" dx="0em" dy="0.3em" style="text-anchor: end; visibility: hidden; font-family: &quot;Helvetica Neue&quot;, sans-serif; font-size: 12px; font-weight: 200;" fill="rgb(50, 49, 63)" stroke="none" stroke-width="1px">1e+6</text></g><line x1="58.59375" y1="0" x2="58.59375" y2="177" fill="rgb(0, 0, 0)" stroke="rgb(204, 204, 204)" stroke-width="1px"></line></g></g><g transform="translate(58, 0)" clip-path="url(#clip_0)"><clipPath id="clip_0"><rect width="271" height="177"></rect></clipPath><g><g><g><line x1="0" y1="0" x2="0" y2="177" fill="rgb(0, 0, 0)" stroke="rgb(60, 60, 60)" stroke-width="1px" opacity="0.25"></line><line x1="30.15625" y1="0" x2="30.15625" y2="177" fill="rgb(0, 0, 0)" stroke="rgb(60, 60, 60)" stroke-width="1px" opacity="0.25"></line><line x1="60.3125" y1="0" x2="60.3125" y2="177" fill="rgb(0, 0, 0)" stroke="rgb(60, 60, 60)" stroke-width="1px" opacity="0.25"></line><line x1="90.46875" y1="0" x2="90.46875" y2="177" fill="rgb(0, 0, 0)" stroke="rgb(60, 60, 60)" stroke-width="1px" opacity="0.25"></line><line x1="120.625" y1="0" x2="120.625" y2="177" fill="rgb(0, 0, 0)" stroke="rgb(60, 60, 60)" stroke-width="1px" opacity="0.25"></line><line x1="150.78125" y1="0" x2="150.78125" y2="177" fill="rgb(0, 0, 0)" stroke="rgb(60, 60, 60)" stroke-width="1px" opacity="0.25"></line><line x1="180.9375" y1="0" x2="180.9375" y2="177" fill="rgb(0, 0, 0)" stroke="rgb(60, 60, 60)" stroke-width="1px" opacity="0.25"></line><line x1="211.09375" y1="0" x2="211.09375" y2="177" fill="rgb(0, 0, 0)" stroke="rgb(60, 60, 60)" stroke-width="1px" opacity="0.25"></line><line x1="241.25" y1="0" x2="241.25" y2="177" fill="rgb(0, 0, 0)" stroke="rgb(60, 60, 60)" stroke-width="1px" opacity="0.25"></line><line x1="271.40625" y1="0" x2="271.40625" y2="177" fill="rgb(0, 0, 0)" stroke="rgb(60, 60, 60)" stroke-width="1px" opacity="0.25"></line></g><g><line x1="0" y1="177" x2="271.40625" y2="177" fill="rgb(0, 0, 0)" stroke="rgb(60, 60, 60)" stroke-width="1px" opacity="0.25"></line><line x1="0" y1="160.9090909090909" x2="271.40625" y2="160.9090909090909" fill="rgb(0, 0, 0)" stroke="rgb(60, 60, 60)" stroke-width="1px" opacity="0.25"></line><line x1="0" y1="144.8181818181818" x2="271.40625" y2="144.8181818181818" fill="rgb(0, 0, 0)" stroke="rgb(60, 60, 60)" stroke-width="1px" opacity="0.25"></line><line x1="0" y1="128.72727272727275" x2="271.40625" y2="128.72727272727275" fill="rgb(0, 0, 0)" stroke="rgb(60, 60, 60)" stroke-width="1px" opacity="0.25"></line><line x1="0" y1="112.63636363636364" x2="271.40625" y2="112.63636363636364" fill="rgb(0, 0, 0)" stroke="rgb(60, 60, 60)" stroke-width="1px" opacity="0.25"></line><line x1="0" y1="96.54545454545455" x2="271.40625" y2="96.54545454545455" fill="rgb(0, 0, 0)" stroke="rgb(60, 60, 60)" stroke-width="1px" opacity="0.25"></line><line x1="0" y1="80.45454545454547" x2="271.40625" y2="80.45454545454547" fill="rgb(0, 0, 0)" stroke="rgb(60, 60, 60)" stroke-width="1px" opacity="0.25"></line><line x1="0" y1="64.36363636363636" x2="271.40625" y2="64.36363636363636" fill="rgb(0, 0, 0)" stroke="rgb(60, 60, 60)" stroke-width="1px" opacity="0.25"></line><line x1="0" y1="48.27272727272728" x2="271.40625" y2="48.27272727272728" fill="rgb(0, 0, 0)" stroke="rgb(60, 60, 60)" stroke-width="1px" opacity="0.25"></line><line x1="0" y1="32.18181818181819" x2="271.40625" y2="32.18181818181819" fill="rgb(0, 0, 0)" stroke="rgb(60, 60, 60)" stroke-width="1px" opacity="0.25"></line><line x1="0" y1="16.090909090909093" x2="271.40625" y2="16.090909090909093" fill="rgb(0, 0, 0)" stroke="rgb(60, 60, 60)" stroke-width="1px" opacity="0.25"></line><line x1="0" y1="0" x2="271.40625" y2="0" fill="rgb(0, 0, 0)" stroke="rgb(60, 60, 60)" stroke-width="1px" opacity="0.25"></line></g></g></g><g><g><line x1="0" y1="160.9090909090909" x2="271.40625" y2="160.9090909090909" fill="rgb(0, 0, 0)" stroke="rgb(153, 153, 153)" stroke-width="1.5px"></line></g></g><g><g><line x1="30.15625" y1="0" x2="30.15625" y2="177" fill="rgb(0, 0, 0)" stroke="rgb(153, 153, 153)" stroke-width="1.5px"></line></g></g><g><g><g><g><g><path stroke="rgb(255, 112, 67)" stroke-width="2px" d="M30.2452109375,160.83668181818183L30.249734375,160.82821291866028L30.2663203125,160.83430677624958L30.273859375,160.83031844616565L30.34925,160.82401372926847L30.3598046875,160.82328322997648L30.3628203125,160.82276716616823L30.3748828125,160.8266229769213L30.3778984375,160.82432490424287L30.385437500000002,160.82622211058452L30.400515625,160.8254014623114L30.424640625000002,160.8236098601734L30.432179687500003,160.8242838227688L30.4336875,160.81858901470736L30.4653515625,160.8198542504118L30.469875000000002,160.81796959489924L30.4743984375,160.817318615916L30.494,160.8158103755344L30.50003125,160.8172932947402L30.5060625,160.8167527990647L30.5467734375,160.81899055384207L30.575421875,160.8164907828276L30.581453125,160.8151750960389L30.587484375,160.8148893379861L30.5950234375,160.8172371337943L30.617640625,160.81501532187264L30.6583515625,160.81304465019082L30.6704140625,160.8078981152089L30.671921875000002,160.81007444813326L30.683984375,160.81117264820196L30.688507812500003,160.81298829019582L30.7277109375,160.81377558531028L30.742789062499998,160.81447885081067L30.7458046875,160.81345241771112L30.7578671875,160.8125341913052L30.768421875,160.8125353435883L30.775960937500003,160.8092515929848L30.812148437500003,160.80876760181366L30.822703125,160.8083337158347L30.834765625,160.81039443993657L30.8513515625,160.81305861878522L30.8543671875,160.8138209751388L30.883015625,160.81043879740446L30.8905546875,160.80902667784494L30.91015625,160.8118165417088L30.9207109375,160.812700925429L30.925234375,160.81430581525993L30.9403125,160.8149383492579L30.947851562500002,160.8138885024717L30.953882812499998,160.81294478853505L30.9659453125,160.81209637439937L30.9780078125,160.81375730698235L31.000625,160.8176735627844L31.00665625,160.81796628723112L31.027765625,160.81500154513947L31.033796875,160.8139485064289L31.048875,160.81219478735306L31.0775234375,160.8138426007068L31.0805390625,160.81210031640063L31.100140625,160.81133891651714L31.115218749999997,160.8114597657706L31.118234375,160.81237421114952L31.1408515625,160.8107801563355L31.145375,160.81095689453412L31.155929687500002,160.80950511912314L31.171007812499997,160.80658818516082L31.1830703125,160.80960013724916L31.210210937499998,160.80828456039995L31.2222734375,160.80951605263223L31.2252890625,160.80820908299506L31.2343359375,160.8086429648251L31.2494140625,160.80017891804977L31.2735390625,160.79980631059215L31.3036953125,160.8010807489069L31.3097265625,160.80383733028322L31.3127421875,160.80551324622664L31.315757812500003,160.8086310377952L31.386625,160.80499877249707L31.395671875,160.80655836474662L31.403210937500003,160.8063524832921L31.418289062499998,160.8061671985309L31.44090625,160.8027816977467L31.487648437500003,160.80536757618313L31.4966953125,160.80045284135394L31.50121875,160.80085760943646L31.505742187499997,160.80122189078818L31.51328125,160.80315899503748L31.522328124999998,160.80329310814653L31.541929687499998,160.80743687533928L31.58565625,160.8055339519366L31.588671875,160.80703975088903L31.6173203125,160.81000414053196L31.627875,160.80301697482213L31.630890625000003,160.80396987042013L31.645968749999998,160.80563204905528L31.6625546875,160.8079325736473L31.6881875,160.8059801542363L31.743976562500002,160.80180927476908L31.754531250000003,160.79886007843535L31.763578125000002,160.80103321922257L31.8088125,160.80218447027582L31.8193671875,160.80000233993664L31.8329375,160.8028657977525L31.837460937499998,160.80061554239856L31.8404765625,160.80019943617785L31.854046874999998,160.80143405544226L31.8917421875,160.80174065379313L31.89325,160.80282114622253L31.902296874999998,160.80379358706165L31.908328125,160.80305967610389L31.917375,160.80400826185476L31.944515625,160.80486198752823L31.94753125,160.80804399207707L31.9761796875,160.8092986914025L31.9776875,160.80881881963793L31.992765625,160.8051687378907L32.0003046875,160.80268821675006L32.006335937500005,160.80126029847324L32.0515703125,160.80077972144704L32.059109375,160.80195629855632L32.06815625,160.80060157385435L32.0726796875,160.8034050601656L32.113390625,160.8002963650126L32.1360078125,160.80071672940198L32.142039062500004,160.80431324513793L32.1450546875,160.80272282698564L32.155609375,160.80129145116717L32.158625,160.8000032133506L32.187273437500004,160.8028665319614L32.2083828125,160.80383442530965L32.23703125,160.80309643657625L32.2430625,160.80243224685833L32.24909375,160.80424811457212L32.255125,160.8010551189379L32.2626640625,160.80059506128367L32.27321875,160.800985555389L32.288296875,160.80214154592719L32.3259921875,160.80237739144877L32.33353125,160.80500328981302L32.338054687500005,160.80575750658235L32.3395625,160.8056317558797L32.4164609375,160.80632312596612L32.4466171875,160.8085544503718L32.451140625,160.80895355089194L32.473757812500004,160.81011728698164L32.4858203125,160.8119691950335L32.5069296875,160.81041772978426L32.538593750000004,160.80982595670582L32.553671875,160.80929336095423L32.558195312500004,160.8088140247932L32.5612109375,160.80757807670705L32.5732734375,160.808074814546L32.6034296875,160.80932642412537L32.62303125,160.8096483271963L32.626046875,160.80993803995463L32.642632812500004,160.81180787245884L32.6667578125,160.80866344864341L32.6758046875,160.81066074026043L32.680328124999996,160.81245830269336L32.68334375,160.81005338140014L32.69540625,160.81191167970357L32.7029453125,160.81117051170457L32.7240546875,160.80969891502838L32.76175,160.81078811446872L32.7783359375,160.81096384848135L32.7873828125,160.80951291814188L32.788890625,160.81062071726205L32.79190625,160.81161773646542L32.81603125,160.80929687186688L32.8220625,160.81042627560808L32.8296015625,160.81063819350499L32.85825,160.8124380105424L32.861265625,160.80681693669268L32.885390625,160.80256251570424L32.8959453125,160.8011471732108L32.90046875,160.80228700135436L32.9140390625,160.79929011937688L32.930625,160.80222474382384L32.9532421875,160.8040613603624L32.95475,160.80651886070405L32.9683203125,160.80873061100885L32.9713359375,160.8091120953643L32.9743515625,160.80945543128385L32.98490625,160.8113735245264L32.992445312499996,160.81229526298603L33.0105390625,160.81312482759907L33.0376796875,160.81387143575031L33.05125,160.80810701943363L33.0527578125,160.81096449931488L33.0633125,160.81031804938206L33.0648203125,160.8081271535308L33.117593750000005,160.80856898363297L33.129656250000004,160.81057572163627L33.137195312500005,160.81238178583868L33.1583046875,160.81239815270936L33.1733828125,160.81321742834842L33.1763984375,160.81234568551272L33.186953125,160.80753838968454L33.200523437499996,160.80803909617103L33.2216328125,160.80768518655367L33.2427421875,160.80817121335315L33.2457578125,160.80539045565263L33.277421875,160.80691050099722L33.283453125,160.80747399635231L33.289484375,160.80798114217183L33.2940078125,160.80521939159L33.3030546875,160.80595199788578L33.3543203125,160.8106340708259L33.367890625,160.81162975465267L33.3814609375,160.81252587009672L33.385984375,160.8068960103585L33.39503125,160.80907004568672L33.4116171875,160.81263576839143L33.41915625,160.81343128246152L33.422171875000004,160.81414724512456L33.434234375,160.81398706606663L33.4493125,160.8122338140052L33.4568515625,160.8138740689685L33.467406249999996,160.81213211661694L33.480976562500004,160.80975981404595L33.5216875,160.80601565082287L33.524703125,160.80827772210438L33.5473203125,160.8111181317123L33.5699375,160.81045631854104L33.5774765625,160.80825159577773L33.583507812499995,160.8094855271091L33.585015625000004,160.81059606530732L33.5955703125,160.81159554968573L33.627234375,160.81329963108084L33.63025,160.81483330433645L33.6347734375,160.81621361026646L33.6468359375,160.8150422492398L33.6664375,160.81559711522493L33.669453125000004,160.81368285824786L33.67246875,160.8135691178776L33.6785,160.81266220608984L33.7192109375,160.80943234911717L33.72675,160.81215729602366L33.753890625,160.81058702096672L33.78103125,160.8091737734155L33.799125,160.8079018506194L33.8096796875,160.8099753019211L33.8277734375,160.80379595354714L33.8398359375,160.80547544910152L33.85340625,160.80859608600957L33.8579296875,160.80738193195407L33.86546875,160.8095073751223L33.868484375,160.8114202739737L33.8715,160.81072824657633L33.8820546875,160.8133236037369L33.895624999999995,160.8140503342723L33.9001484375,160.81389984629962L33.922765625,160.80974167985147L33.9303046875,160.81163114822996L33.934828124999996,160.80930894249786L33.948398437499996,160.80963259370262L33.972523437499994,160.80751024342328L34.0056953125,160.80399103726276L34.019265625,160.79921466080918L34.0268046875,160.80054774018282L34.0388671875,160.7985293298009L34.07053125,160.8007354877299L34.0750546875,160.80191648441146L34.0931484375,160.80056574506122L34.0961640625,160.7977409887369L34.097671875,160.80002598077232L34.103703124999996,160.80127792814963L34.1323515625,160.80160013533467L34.170046875000004,160.80108557634665L34.189648437500004,160.792577018712L34.203218750000005,160.79296477138624L34.239406249999995,160.79331374879308L34.26353125,160.7912141920956L34.2650390625,160.79334731834058L34.272578124999995,160.79526713196105L34.2951953125,160.79377678240132L34.3042421875,160.79404455870664L34.3178125,160.7918719210178L34.3645546875,160.78911200164328L34.369078124999994,160.78099625602442L34.375109375,160.7785193576947L34.3796328125,160.77548560374342L34.3826484375,160.77355977064178L34.39621875,160.7710219753958L34.417328125000004,160.7743697778562L34.4399453125,160.77094643643423L34.450500000000005,160.7726927018817L34.474625,160.7694370680572L34.519859374999996,160.764897906706L34.52890625,160.76403084330815L34.539460937499996,160.76485957715914L34.556046875,160.7648008921705L34.559062499999996,160.76555262113527L34.5907265625,160.76462008629446L34.6269140625,160.76378080493774L34.638976562500005,160.76704817898943L34.64953125,160.7691842701814L34.7038125,160.77110675225416L34.741507812500004,160.77444607702876L34.7596015625,160.77021056023497L34.7626171875,160.76961677693873L34.7988046875,160.7682778265176L34.8108671875,160.76707277113857L34.824437499999995,160.76920640311562L34.83046875,160.76871303553133L34.8772109375,160.76424627743273L34.8892734375,160.76103074059856L34.9043515625,160.7565276665387L34.929984375000004,160.75891126352118L34.984265625,160.75703377353273L34.9933125,160.75614857799764L35.0008515625,160.75213372019786L35.0159296875,160.75093398454172L35.020453125,160.7450269497239L35.02346875,160.7421242547515L35.03553125,160.73951182927635L35.0943359375,160.73474700998509L35.100367187500005,160.73448139989569L35.1063984375,160.72217416899701L35.1139375,160.72075220664277L35.1244921875,160.7186678950694L35.147109375,160.71518292374427L35.172742187500006,160.71526463136985L35.187820312499994,160.71211998641468L35.201390625,160.70768071504594L35.2209921875,160.70690355263224L35.230039062500005,160.70459501555084L35.2632109375,160.70573551399576L35.288843750000005,160.71078468986892L35.297890625,160.70728349360928L35.30090625,160.71298241697565L35.306937500000004,160.71489326618718L35.309953125,160.71339484865936L35.31296875,160.7136553637934L35.3476484375,160.7106716455959L35.3566953125,160.7071817537636L35.3597109375,160.70725903293268L35.370265625,160.70893767509395L35.3793125,160.7072302712209L35.3898671875,160.7040845168261L35.4139921875,160.70286242877987L35.4320859375,160.7009580040837L35.435101562499995,160.70407129458442L35.457718750000005,160.71170052876232L35.460734375,160.710521384977L35.484859375,160.70785106466113L35.50596875,160.7030341400132L35.5677890625,160.70191708964825L35.605484374999996,160.69206174431977L35.6205625,160.68721466079688L35.6793671875,160.68848410380812L35.6914296875,160.68479932979093L35.701984374999995,160.6887239422664L35.7125390625,160.68340609349428L35.720078125,160.68103366596304L35.723093750000004,160.68211666300311L35.763804687500006,160.68309136033915L35.79546875,160.6839685879416L35.810546875,160.68395354732928L35.8376875,160.68072182895997L35.8723671875,160.67861782788216L35.901015625,160.67833331782123L35.90403125,160.67807725876636L35.9085546875,160.67623771470792L35.937203125,160.6745821250553L35.9447421875,160.6738966398225L35.991484375000006,160.67247515765843L36.003546875,160.6736094600744L36.018625,160.67543487770334L36.041242187499996,160.67546866266028L36.0502890625,160.67228088730334L36.066875,160.67182552584572L36.0804453125,160.6698066096248L36.098539062499995,160.67120776684413L36.10306249999999,160.66925062652336L36.1256796875,160.66909829114374L36.1286953125,160.66815664384757L36.1829765625,160.67052734309917L36.243289062500004,160.67185642697106L36.259875,160.66742078427396L36.2915390625,160.65779688766474L36.30209375,160.65878992617098L36.3216953125,160.6588791153721L36.326218749999995,160.65735029474396L36.3367734375,160.6567789016332L36.3428046875,160.65867828419715L36.353359375000004,160.6603877285047L36.3684375,160.6619262283815L36.3805,160.65848360554335L36.395578125,160.6497534268072L36.42875,160.64833262958103L36.43478125,160.64544482116838L36.437796875,160.63801852086974L36.446843750000006,160.6361621233282L36.4694609375,160.628859547359L36.484539062500005,160.61987359262312L36.501124999999995,160.61822259699719L36.5116796875,160.6255867009338L36.5267578125,160.62899621265862L36.55842187499999,160.63045568230186L36.5855625,160.62452829588983L36.62175,160.62643455720996L36.6262734375,160.62654110148895L36.6473828125,160.6274415367946L36.671507812499996,160.63066556493334L36.6835703125,160.63115355389453L36.68809375,160.63239728941417L36.748406249999995,160.63512574229094L36.7529296875,160.63516771351638L36.7649921875,160.63520548761932L36.769515625000004,160.62880312067554L36.786101562499994,160.628672808608L36.789117187500004,160.6285555277472L36.793640625,160.63166815679065L36.7981640625,160.6296422502025L36.8735546875,160.62781893427317L36.8765703125,160.63180976811856L36.879585937499996,160.62494242767036L36.884109375,160.62600273035787L36.89315625,160.62856609368572L36.9218046875,160.61960948431715L36.950453125,160.62281217224907L36.9851328125,160.62489004593326L36.989656249999996,160.62032376861265L36.997195312500004,160.62184593720593L37.010765625,160.6167795253035L37.013781249999994,160.6186561182277L37.036398437500004,160.61471323367766L37.0635390625,160.61277372849173L37.1178203125,160.6166599920062L37.119328125,160.6201576291692L37.12234375,160.6208918662523L37.131390625,160.6223572250816L37.1359140625,160.62448059348253L37.14948437499999,160.6231734432252L37.197734375,160.61234246253903L37.2052734375,160.6098354890124L37.2293984375,160.6124064855657L37.2384453125,160.61391583700913L37.26709375,160.61607879876277L37.2686015625,160.61802546434103L37.2716171875,160.61897291790694L37.280664062499994,160.61178017157079L37.3093125,160.61415669986826L37.3575625,160.6154910298814L37.3651015625,160.6150828359842L37.3892265625,160.61793364329486L37.4163671875,160.6172811880563L37.47215625,160.61669397834157L37.487234375,160.61857912596196L37.491757812500005,160.61947121336576L37.509851562499996,160.61946954657463L37.517390625000004,160.61946804646263L37.541515625,160.6210757872709L37.5460390625,160.60804093581655L37.5550859375,160.60515956950763L37.619921874999996,160.59693452164777L37.6425390625,160.59918652402845L37.6455546875,160.59397241708015L37.6576171875,160.59893426628122L37.674203125,160.59374538510764L37.68174218750001,160.5955117556878L37.707375,160.6003196710281L37.7676875,160.59499224937983L37.776734375000004,160.59824302444184L37.7842734375,160.59553690381586L37.788796874999996,160.5955150316161L37.8023671875,160.5898635284545L37.8264921875,160.5944317210636L37.88228125,160.58245218532085L37.891328125,160.58615242133422L37.8958515625,160.58063263374626L37.8988671875,160.58612391582616L37.924499999999995,160.58302061515263L37.926007812499996,160.58022764454648L37.948625,160.58495488009183L37.966718750000005,160.5884048466281L38.0134609375,160.5818552710562L38.017984375,160.5743515621324L38.043617187500004,160.57966640591917L38.108453125,160.57399067441816L38.119007812499994,160.57853706152179L38.162734375,160.5794106280969L38.171781249999995,160.58100138346902L38.186859375,160.57438760875849L38.2366171875,160.54510339333717L38.2456640625,160.5525385085489L38.25621875,160.55198920314857L38.272804687500006,160.5579311919246L38.2818515625,160.55281989091398L38.2984375,160.54982881091348L38.307484374999994,160.5463322934585L38.343671875,160.54238088229448L38.366289062499995,160.5396291577014L38.3843828125,160.5315207873858L38.385890625,160.53146416319265L38.4567578125,160.52980411050976L38.461281250000006,160.5242873358224L38.465804687500004,160.52495405678565L38.479375,160.52957683292524L38.4929453125,160.52730096781454L38.5019921875,160.52364359830582L38.506515625,160.52035196574798L38.58190625,160.52784858735498L38.6045234375,160.52655009225586L38.6120625,160.5213587193939L38.621109375,160.51990466563632L38.63015625,160.52422783543633L38.639203125,160.52087777916543L38.7568125,160.5178627285216L38.7703828125,160.51675827385128L38.7794296875,160.5165688101025L38.832203125,160.5091573836377L38.8337109375,160.4992689180012L38.88346875,160.4984147534738L38.904578125,160.49925509630825L38.921164062500004,160.50725231395015L38.93775,160.50720890073697L38.9483046875,160.5160198288451L38.9814765625,160.5134905732333L38.9965546875,160.5128233340918L38.9980625,160.51222281886442L39.0025859375,160.50685508243254L39.02821875,160.50041502873472L39.043296874999996,160.50105534404307L39.097578125,160.51048162782058L39.0990859375,160.5004607377658L39.12471875,160.49948739126194L39.139796875,160.50907047031757L39.157890625,160.5007997869222L39.17296875,160.48852889913906L39.1865390625,160.48874873649788L39.2498671875,160.50021022648446L39.254390625,160.50087102201783L39.2951015625,160.49502937436148L39.304148437500004,160.49620825510715L39.381046875,160.50531470232372L39.3840625,160.50385595936407L39.4338203125,160.49449763615493L39.47453125,160.49412059981216L39.492625000000004,160.49378126710369L39.5785703125,160.4822122313024L39.583093749999996,160.4830637354449L39.5876171875,160.48222099826404L39.6147578125,160.4782443529831L39.623804687500005,160.4827108267757L39.6268203125,160.48512156227994L39.6479296875,160.47602758787013L39.661500000000004,160.46301573817402L39.6720546875,160.46578689162936L39.750460937499994,160.46023547519368L39.7941875,160.44719374585614L39.798710937500005,160.4612016439978L39.8017265625,160.46254511596166L39.8047421875,160.46697242254731L39.8560078125,160.47095699847438L39.89671875,160.4729340258997L39.901242187499996,160.47471335058245L39.917828125,160.47148747006966L39.9494921875,160.48306599578996L39.954015625,160.4838321234837L39.9856796875,160.4869352747717L40.0098046875,160.4969690200218L40.038453125,160.49795393620144L40.044484375,160.497231269854L40.0520234375,160.49497177923226L40.089718749999996,160.49293823767266L40.144,160.49110805026902L40.1605859375,160.47819724524214L40.177171875,160.45531388435427L40.1801875,160.45080976864614L40.2088359375,160.45158333723606L40.213359375,160.44745227623972L40.2178828125,160.4453434122521L40.2766875,160.43379088920872L40.344539062500004,160.41534816392422L40.3535859375,160.40357698389542L40.3958046875,160.40746474005135L40.4048515625,160.41418190240984L40.412390625,160.40896371216886L40.4289765625,160.40426734095198L40.570710937499996,160.38877697049315L40.593328125,160.38770836435293L40.617453125,160.37870116428127L40.698875,160.3673765023986L40.77125,160.36683885215874L40.778789062499996,160.32934587603376L40.795375,160.30686583388493L40.834578125,160.27054288686008L40.8602109375,160.26681587090133L40.894890624999995,160.2248433747203L40.916000000000004,160.20959540088464L41.0321015625,160.18943586079618L41.0592421875,160.1777286383529L41.093921875,160.184892138154L41.1919296875,160.17042110615677L41.2039921875,160.12360626826836L41.2823984375,160.07181836871425L41.2974765625,160.04773653184284L41.30803125,160.00997196956763L41.3985,159.97598386351996L41.4120703125,159.94217638625886L41.5176171875,159.90853147490571L41.5311875,159.88468741832423L41.540234375,159.8664459492191L41.5749140625,159.83393771793354L41.66990625,159.8143348552311L41.745296875,159.7934740969807L41.8764765625,159.78435396000992L41.94734375,159.77292765491802L41.988054687500004,159.75942579851713L42.0483671875,159.75371049139267L42.0574140625,159.7453485331625L42.1418515625,159.7249500434826L42.1659765625,159.71946413004343L42.404210937500004,159.68878135340273L42.4072265625,159.67403958169882L42.41175,159.63824471443803L42.469046875,159.61246569753968L42.473570312499994,159.57961003687663L42.5097578125,159.59187630591623L42.710296875,159.53855231168825L42.7389453125,159.54848798961035L42.891234374999996,159.48019373610384L42.9017890625,159.45091072612982L42.942499999999995,159.4277741989714L42.9470234375,159.3715513245288L43.035984375,159.36922346480318L43.0495546875,159.29632839105014L43.120421875000005,159.27577737012695L43.1716875,159.2347541785688L43.403890624999995,158.82774239707555L43.57578125,158.61429543009527L43.6059375,158.5879295234494L43.625539062499996,158.56741838928627L43.7190234375,158.399312913994L43.777828125,158.09515434986733L43.7989375,157.8278480057897L44.1321640625,157.86725411430163L44.1608125,157.5969923392351L44.236203124999996,157.35375674167523L44.266359375,157.1412810675077L44.290484375,156.96292568802966L44.350796875,156.76378766468125L44.368890625,156.6103088982131L44.4065859375,156.46574164475544L44.477453125000004,156.32919475300716L44.691562499999996,156.2449207322519L44.816710937500005,156.130455931754L44.836312500000005,156.03387397494222L44.863453125,155.9340774865389L44.8845625,155.87000610152137L44.893609375000004,155.8123418550056L44.9765390625,155.73469857859595L44.9886015625,155.6583832661909L44.993125,155.6025722122991L45.269054687499995,155.52016044561464L45.36404687500001,155.48460803741682L45.3776171875,155.40111996094785L45.4017421875,155.3774716012167L45.472609375,155.3304426229132L45.5359375,155.28811654244006L45.5585546875,155.20496852455972L45.581171875,155.18806258119466L45.6565625,155.1342290503479L45.8299609375,155.06646978167674L45.9219375,155.0441046216909L46.0139140625,154.99179415952182L46.16921875,154.9318420162969L46.2853203125,154.8714487237581L46.375789062500004,154.81709476047322L46.4300703125,154.65232164806227L46.648703125,154.3769076650742L46.6698125,154.15317144402132L46.7828984375,153.9598542996192L46.8040078125,153.81000523329365L46.8643203125,153.6510047099643L46.9351875,153.65433151169512L46.9879609375,153.66376199688926L47.0633515625,153.5435221608367L47.0814453125,153.38703358111667L47.343804687500004,153.22205749573226L47.4674453125,153.0896699279772L47.5217265625,153.0027029351795L47.535296875,152.932478096207L47.559421875,152.8773211956772L47.595609375,152.99019816701858L47.907726562499995,152.864905623044L47.933359375,152.77627869710324L48.0313671875,152.71260537284746L48.121835937499995,152.90631756283543L48.15953124999999,152.9390585338246L48.26809375,152.8269254077149L48.2846796875,152.7662328669434L48.37665625,152.60701867115813L48.6133828125,152.45568044040596L48.827492187500006,152.407976032729L48.910421875,152.35699661127427L48.9270078125,152.3191605865105L48.9858125,152.2851081642231L49.1682578125,152.31560643870986L49.4999765625,152.3060457948389L49.5602890625,152.28939576080953L49.59496875,152.28245618472857L49.6326640625,152.4033287480739L49.6854375,152.58935041872107L49.7683671875,152.5604608313944L49.775906250000006,152.56342383916405L49.790984375,152.52908145524765L49.9885078125,152.74758240063198L50.164921875,152.71896052420516L50.1664296875,152.91203719905735L50.1996015625,153.02787893369708L50.2599140625,152.96318194941827L50.287054687499996,152.88081829993098L50.327765625000005,152.89680010630153L50.4529140625,152.78084736839864L50.7574921875,152.6684444497406L50.81328125,152.53510000476655L50.846453125000004,152.43922636792624L50.9022421875,152.37707645840635L51.1495234375,152.33723244892934L51.1676171875,152.30941829494552L51.232453125,152.24415828363277L51.36815625,152.26587881890586L51.5385390625,152.23715457337892L51.5717109375,152.04234820695012L51.5898046875,151.94747702261873L51.7948671875,151.84600204762958L52.010484375,151.63399275195752L52.06778125,151.13745711312544L52.1386484375,150.52966594726743L52.2019765625,150.51365389799523L52.2954609375,150.29006123546844L52.5276640625,149.33255511192158L52.866921875,149.0581177825476L52.9016015625,149.1168514588383L52.934773437500006,148.82375722204537L52.963421875,148.9220178634772L52.992070312500005,148.8575888044022L53.3720390625,148.59846628759834L53.38259375,147.2630287497476L53.52734375,146.90590769295466L53.856046875,146.8339078327501L53.892234375,145.85997159492965L53.9842109375,144.42829261725487L54.0264296875,143.54205426462028L54.1530859375,144.1363033836128L54.1561015625,144.40562759070608L54.1922890625,144.47906483163547L54.519484375,143.7647492575628L54.698914062499995,143.91031978635198L54.834617187499994,144.05742417135315L54.9085,143.28068175421782L55.0004765625,143.09652266970514L55.13165625,141.50673403909826L55.176890625000006,141.1137879079157L55.389492187500004,140.49463638985142L55.576460937499995,140.4040363872299L55.84334375,139.46163274850693L55.942859375000005,138.9191967463835L55.9896015625,138.3264134353815L56.0468984375,137.23777209184337L56.052929687500004,136.62808579174992L56.1343515625,136.30464084893856L56.487179687499996,135.3538131276811L56.524874999999994,132.5752045421857L56.835484375,129.95377499705805L56.8792109375,129.0024429518977L57.1641875,128.57265320216246L57.305921874999996,126.04575151830986L57.330046875,125.2760400028425L57.41146875,125.49243600255826L57.438609375,123.30573785684788L57.878890625000004,123.69502770752675L58.215132812499995,121.52716130041043L58.4593984375,119.72894517036937L58.5755,118.07032338060517L58.632796875,116.6258364970901L58.828812500000005,114.41666193829019L58.8906328125,113.02376847173392L59.035382812499996,111.69775526092415L59.091171875,110.44802518937718L59.3188515625,109.39567721589401L60.1843359375,108.18306403975916L60.5190703125,106.69748490851052L60.629140625,104.40305459947764L60.6638203125,103.53684004862079L60.876421875,101.15620149830417L60.9261796875,99.57680862120102L61.2699609375,98.07490048635364L61.383046875,95.75772861953645L61.809757812499996,93.06081939394645L62.0329140625,90.42441927273362L62.71896875,85.64606825455118L64.1408359375,79.23764324727787L75.8610625,71.61960619527736L76.268171875,80.45522739393145L76.35411718750001,75.27388647272011L76.563703125,83.78913418908446L76.789875,91.46814349744874L76.81400000000001,84.55796551134023L77.00549218750001,92.16330986929711L77.02509375,99.00811979145831L77.0627890625,105.16764417594884L77.2889609375,110.71604339471759L77.3975234375,115.69351178251856L77.5739375,120.18932424063033L77.703609375,124.23635999838548L77.860421875,112.64140581672876L77.8679609375,117.44001523505588L77.8860546875,121.7571546206412L77.9735078125,125.64982097675889L78.0790546875,129.15322069726483L78.1423828125,132.30949862753835L78.16499999999999,120.63936694660269L78.33689062500001,124.6413984337606L78.3776015625,128.2375949540209L78.3866484375,131.4822172768006L78.391171875,134.4031819127569L78.5766328125,137.02480917602668L78.623375,139.38427371296947L78.6671015625,141.50940088712707L78.82692968750001,143.39948807114166L78.8932734375,145.12309380948201L79.0862734375,146.67031624671563L79.105875,148.0595982584077L79.2385625,149.25604752347604L79.3637109375,150.3730791347648L79.5205234375,151.3751894031065L79.531078125,152.24168864461402L79.591390625,153.02797432560718L79.5959140625,153.72114962031918L79.7165390625,154.3820164764691L79.7225703125,154.87542391973128L79.84771875,155.33558152775814L80.00000781249999,155.76903246589143L87.37773437499999,141.85753831021137L89.20369531249999,129.03146629737205L93.94275,130.89977421308942L94.6981640625,130.40897860996228L94.7991875,131.55221711260242L95.7747421875,134.37204994679672L96.88750781249999,134.74084495211704L98.41039843749999,131.93503318417805L99.0828828125,131.24416622939663L99.8820234375,130.87984051554787L106.9476328125,128.27508373672035L108.7087578125,125.93884809032104L110.9222265625,122.23519055401621L112.238546875,118.08930786225096L118.02854687499999,114.62351343966222L118.6965078125,110.67561664115055L118.7839609375,108.86837315885367L120.96727343750001,105.75344493387739L124.35080468749999,102.93391862230784L124.9931328125,99.68029948734977L128.601328125,96.60722408406933L129.795515625,93.89777440293513L131.93057812499998,91.4673151444598L135.96246875,89.11094726637745L136.327359375,87.01435253973972L138.8770703125,84.50791728576573L139.722953125,82.74289828446187L139.8812734375,80.65556300147024L141.9258671875,78.39077942859596L148.938703125,76.65820148573636L149.849421875,75.76665406443544L152.1066171875,74.08730683981008L153.507375,72.93793979219272L156.20334375000002,71.63800944933708L162.3898984375,70.01752668622157L170.7733359375,66.95804674487214L174.1267109375,63.72983297947583L177.1302734375,61.78184968152824L177.526828125,60.382664713375405L179.97853125,58.471716423856066L180.536421875,57.162181145106814L182.39555468749998,55.404326666959776L185.2513515625,53.80616672753652L187.6517890625,51.9575046002374L190.8151796875,50.285663231122754L191.72439062499998,50.71996054437412L196.356390625,50.27410085357306L198.03760156250002,49.32573622276119L199.7112734375,48.11820805503052L200.0641015625,46.999250885891115L200.6853203125,45.60600761548383L201.82975,44.3601341266627L203.5833359375,44.316938895814616L204.31914843750002,43.167790460778605L208.696328125,41.57037505106436L212.073828125,40.47061027323065L212.3075390625,39.68195833681668L216.86565625,38.33658068495316L220.12253125,38.05901352554878L220.8885,37.35061217299389L223.539234375,37.340596410239954L224.5992265625,36.30980949648867L225.885390625,35.060283092294355L231.590953125,36.36543660124673L232.5665078125,35.54480203203116L239.0410546875,35.24068546519166L239.6291015625,34.63711691867249L241.66766406250002,34.512268863168885L241.87423437500001,33.8769510677611L243.61425,33.200574142803134L248.005,32.98606218306827L250.45971875,32.88954687385237L258.9200546875,32.553274004648955L260.9133828125,32.210401149638585L260.914890625,32.28799739831109L260.9163984375,31.95556129484362L260.91790625,32.22759607445016L260.9194140625,31.780518285186957L260.92242968749997,31.58733009303191L260.9239375,31.75136981100144L260.9254453125,31.665687375355844L260.926953125,31.934527728729336L260.9284609375,32.063847683129154L260.92996875,32.73537200572531L260.9314765625,32.55933480515279L260.932984375,31.483719506455685L260.9344921875,31.698347555810102L260.936,31.786921891138178L260.939015625,31.87468424747891L260.94052343749996,32.11457945909467L260.94203125,32.09716696773063L260.945046875,34.92154118004848L260.9465546875,34.68779615295273L260.9480625,34.630289264930184L260.9495703125,34.12798761116443L260.951078125,34.408052486411634L260.95258593750003,34.30611087413408L260.95409374999997,33.76381796853886L260.9556015625,33.99984526259408L260.957109375,33.89045164542554L260.9586171875,33.35754284451937L260.960125,33.28824310552196L260.9616328125,33.354600613151604L260.963140625,33.57523146092734L260.9646484375,33.468071951198226L260.96766406250003,33.44403748335114L260.969171875,35.570542825925116L260.9706796875,34.94203399787804L260.9721875,35.3659669617266L260.9736953125,35.35327935646305L260.975203125,34.851087784453085L260.9767109375,34.881842642371424L260.97821875,34.20956746904338L260.9797265625,34.07920163122995L260.9827421875,34.1308269226524L260.98425,35.223198775841695L260.987265625,34.99951526189389L260.9917890625,34.95910919024996L260.993296875,34.850334634861355L260.9948046875,34.77657389864794L260.9978203125,34.4044619633286L260.99932812500003,34.49597031245028L261.00083593749997,34.26455509938705L261.0038515625,34.73209958944835L261.0068671875,34.34029872141261L261.008375,34.28535975836223L261.0098828125,34.76691469161693L261.0128984375,35.03135958609158L261.01440625,34.37631453657335L261.0159140625,34.4625921738251L261.017421875,36.76078750189711L261.0204375,36.552299660798326L261.0219453125,36.29225151290029L261.023453125,35.655935452519344L261.0249609375,35.50161463454015L261.02646875,35.27422589835885L261.029484375,35.33507603579568L261.03099218750003,34.923204795852484L261.03249999999997,34.89042977081269L261.035515625,34.69197770282233L261.0370234375,37.12009811435826L261.041546875,37.48713375746789L261.0430546875,36.97269310899381L261.0445625,37.57169652536717L261.0460703125,37.330390509194075L261.0490859375,36.60635145827467L261.05059374999996,36.19607994881085L261.0521015625,37.38765377211158L261.053609375,36.94752475853679L261.0551171875,37.62145410086492L261.056625,37.90617232714206L261.0581328125,37.575100548973296L261.05964062500004,37.34954503953051L261.06265625000003,36.96149962648656L261.0641640625,36.33871330020153L261.065671875,36.027614697454084L261.0671796875,36.34298959134503L261.0686875,35.94296335948326L261.0701953125,35.55880338717131L261.071703125,35.253286684817795L261.07471875,34.986367107245115L261.0762265625,36.74141221470242L261.07773437500003,36.470498265959435" style="fill: none;" fill="none"></path></g></g></g></g><g opacity="0.2"><g><g><g><path stroke="rgb(255, 112, 67)" stroke-width="2px" d="M30.2452109375,160.83668181818183L30.249734375,160.82059090909092L30.2663203125,160.84472727272728L30.273859375,160.82059090909092L30.34925,160.8045L30.3598046875,160.82059090909092L30.3628203125,160.82059090909092L30.3748828125,160.84472727272728L30.3778984375,160.81254545454544L30.385437500000002,160.83668181818183L30.400515625,160.82059090909092L30.424640625000002,160.81254545454544L30.432179687500003,160.82863636363635L30.4336875,160.78036363636363L30.4653515625,160.82863636363635L30.469875000000002,160.8045L30.4743984375,160.81254545454544L30.494,160.8045L30.50003125,160.82863636363635L30.5060625,160.81254545454544L30.5467734375,160.83668181818183L30.575421875,160.79645454545454L30.581453125,160.8045L30.587484375,160.81254545454544L30.5950234375,160.83668181818183L30.617640625,160.79645454545454L30.6583515625,160.79645454545454L30.6704140625,160.76427272727273L30.671921875000002,160.82863636363635L30.683984375,160.82059090909092L30.688507812500003,160.82863636363635L30.7277109375,160.82059090909092L30.742789062499998,160.82059090909092L30.7458046875,160.8045L30.7578671875,160.8045L30.768421875,160.81254545454544L30.775960937500003,160.78036363636363L30.812148437500003,160.8045L30.822703125,160.8045L30.834765625,160.82863636363635L30.8513515625,160.83668181818183L30.8543671875,160.82059090909092L30.883015625,160.78036363636363L30.8905546875,160.79645454545454L30.91015625,160.83668181818183L30.9207109375,160.82059090909092L30.925234375,160.82863636363635L30.9403125,160.82059090909092L30.947851562500002,160.8045L30.953882812499998,160.8045L30.9659453125,160.8045L30.9780078125,160.82863636363635L31.000625,160.85277272727274L31.00665625,160.82059090909092L31.027765625,160.78840909090908L31.033796875,160.8045L31.048875,160.79645454545454L31.0775234375,160.82863636363635L31.0805390625,160.79645454545454L31.100140625,160.8045L31.115218749999997,160.81254545454544L31.118234375,160.82059090909092L31.1408515625,160.79645454545454L31.145375,160.81254545454544L31.155929687500002,160.79645454545454L31.171007812499997,160.78036363636363L31.1830703125,160.83668181818183L31.210210937499998,160.79645454545454L31.2222734375,160.82059090909092L31.2252890625,160.79645454545454L31.2343359375,160.81254545454544L31.2494140625,160.72404545454546L31.2735390625,160.79645454545454L31.3036953125,160.81254545454544L31.3097265625,160.82863636363635L31.3127421875,160.82059090909092L31.315757812500003,160.83668181818183L31.386625,160.77231818181818L31.395671875,160.82059090909092L31.403210937500003,160.8045L31.418289062499998,160.8045L31.44090625,160.77231818181818L31.487648437500003,160.82863636363635L31.4966953125,160.75622727272727L31.50121875,160.8045L31.505742187499997,160.8045L31.51328125,160.82059090909092L31.522328124999998,160.8045L31.541929687499998,160.84472727272728L31.58565625,160.78840909090908L31.588671875,160.82059090909092L31.6173203125,160.83668181818183L31.627875,160.74013636363637L31.630890625000003,160.81254545454544L31.645968749999998,160.82059090909092L31.6625546875,160.82863636363635L31.6881875,160.78840909090908L31.743976562500002,160.76427272727273L31.754531250000003,160.77231818181818L31.763578125000002,160.82059090909092L31.8088125,160.81254545454544L31.8193671875,160.78036363636363L31.8329375,160.82863636363635L31.837460937499998,160.78036363636363L31.8404765625,160.79645454545454L31.854046874999998,160.81254545454544L31.8917421875,160.8045L31.89325,160.81254545454544L31.902296874999998,160.81254545454544L31.908328125,160.79645454545454L31.917375,160.81254545454544L31.944515625,160.81254545454544L31.94753125,160.83668181818183L31.9761796875,160.82059090909092L31.9776875,160.8045L31.992765625,160.77231818181818L32.0003046875,160.78036363636363L32.006335937500005,160.78840909090908L32.0515703125,160.79645454545454L32.059109375,160.81254545454544L32.06815625,160.78840909090908L32.0726796875,160.82863636363635L32.113390625,160.77231818181818L32.1360078125,160.8045L32.142039062500004,160.83668181818183L32.1450546875,160.78840909090908L32.155609375,160.78840909090908L32.158625,160.78840909090908L32.187273437500004,160.82863636363635L32.2083828125,160.81254545454544L32.23703125,160.79645454545454L32.2430625,160.79645454545454L32.24909375,160.82059090909092L32.255125,160.77231818181818L32.2626640625,160.79645454545454L32.27321875,160.8045L32.288296875,160.81254545454544L32.3259921875,160.8045L32.33353125,160.82863636363635L32.338054687500005,160.81254545454544L32.3395625,160.8045L32.4164609375,160.81254545454544L32.4466171875,160.82863636363635L32.451140625,160.81254545454544L32.473757812500004,160.82059090909092L32.4858203125,160.82863636363635L32.5069296875,160.79645454545454L32.538593750000004,160.8045L32.553671875,160.8045L32.558195312500004,160.8045L32.5612109375,160.79645454545454L32.5732734375,160.81254545454544L32.6034296875,160.82059090909092L32.62303125,160.81254545454544L32.626046875,160.81254545454544L32.642632812500004,160.82863636363635L32.6667578125,160.78036363636363L32.6758046875,160.82863636363635L32.680328124999996,160.82863636363635L32.68334375,160.78840909090908L32.69540625,160.82863636363635L32.7029453125,160.8045L32.7240546875,160.79645454545454L32.76175,160.82059090909092L32.7783359375,160.81254545454544L32.7873828125,160.79645454545454L32.788890625,160.82059090909092L32.79190625,160.82059090909092L32.81603125,160.78840909090908L32.8220625,160.82059090909092L32.8296015625,160.81254545454544L32.85825,160.82863636363635L32.861265625,160.75622727272727L32.885390625,160.76427272727273L32.8959453125,160.78840909090908L32.90046875,160.81254545454544L32.9140390625,160.77231818181818L32.930625,160.82863636363635L32.9532421875,160.82059090909092L32.95475,160.82863636363635L32.9683203125,160.82863636363635L32.9713359375,160.81254545454544L32.9743515625,160.81254545454544L32.98490625,160.82863636363635L32.992445312499996,160.82059090909092L33.0105390625,160.82059090909092L33.0376796875,160.82059090909092L33.05125,160.75622727272727L33.0527578125,160.83668181818183L33.0633125,160.8045L33.0648203125,160.78840909090908L33.117593750000005,160.81254545454544L33.129656250000004,160.82863636363635L33.137195312500005,160.82863636363635L33.1583046875,160.81254545454544L33.1733828125,160.82059090909092L33.1763984375,160.8045L33.186953125,160.76427272727273L33.200523437499996,160.81254545454544L33.2216328125,160.8045L33.2427421875,160.81254545454544L33.2457578125,160.78036363636363L33.277421875,160.82059090909092L33.283453125,160.81254545454544L33.289484375,160.81254545454544L33.2940078125,160.78036363636363L33.3030546875,160.81254545454544L33.3543203125,160.85277272727274L33.367890625,160.82059090909092L33.3814609375,160.82059090909092L33.385984375,160.75622727272727L33.39503125,160.82863636363635L33.4116171875,160.84472727272728L33.41915625,160.82059090909092L33.422171875000004,160.82059090909092L33.434234375,160.81254545454544L33.4493125,160.79645454545454L33.4568515625,160.82863636363635L33.467406249999996,160.79645454545454L33.480976562500004,160.78840909090908L33.5216875,160.77231818181818L33.524703125,160.82863636363635L33.5473203125,160.83668181818183L33.5699375,160.8045L33.5774765625,160.78840909090908L33.583507812499995,160.82059090909092L33.585015625000004,160.82059090909092L33.5955703125,160.82059090909092L33.627234375,160.82863636363635L33.63025,160.82863636363635L33.6347734375,160.82863636363635L33.6468359375,160.8045L33.6664375,160.82059090909092L33.669453125000004,160.79645454545454L33.67246875,160.81254545454544L33.6785,160.8045L33.7192109375,160.78036363636363L33.72675,160.83668181818183L33.753890625,160.79645454545454L33.78103125,160.79645454545454L33.799125,160.79645454545454L33.8096796875,160.82863636363635L33.8277734375,160.74818181818182L33.8398359375,160.82059090909092L33.85340625,160.83668181818183L33.8579296875,160.79645454545454L33.86546875,160.82863636363635L33.868484375,160.82863636363635L33.8715,160.8045L33.8820546875,160.83668181818183L33.895624999999995,160.82059090909092L33.9001484375,160.81254545454544L33.922765625,160.77231818181818L33.9303046875,160.82863636363635L33.934828124999996,160.78840909090908L33.948398437499996,160.81254545454544L33.972523437499994,160.78840909090908L34.0056953125,160.77231818181818L34.019265625,160.75622727272727L34.0268046875,160.81254545454544L34.0388671875,160.78036363636363L34.07053125,160.82059090909092L34.0750546875,160.81254545454544L34.0931484375,160.78840909090908L34.0961640625,160.77231818181818L34.097671875,160.82059090909092L34.103703124999996,160.81254545454544L34.1323515625,160.8045L34.170046875000004,160.79645454545454L34.189648437500004,160.716L34.203218750000005,160.79645454545454L34.239406249999995,160.79645454545454L34.26353125,160.77231818181818L34.2650390625,160.81254545454544L34.272578124999995,160.81254545454544L34.2951953125,160.78036363636363L34.3042421875,160.79645454545454L34.3178125,160.77231818181818L34.3645546875,160.76427272727273L34.369078124999994,160.70795454545456L34.375109375,160.75622727272727L34.3796328125,160.74818181818182L34.3826484375,160.75622727272727L34.39621875,160.74818181818182L34.417328125000004,160.8045L34.4399453125,160.74013636363637L34.450500000000005,160.78840909090908L34.474625,160.74013636363637L34.519859374999996,160.72404545454546L34.52890625,160.75622727272727L34.539460937499996,160.77231818181818L34.556046875,160.76427272727273L34.559062499999996,160.77231818181818L34.5907265625,160.75622727272727L34.6269140625,160.75622727272727L34.638976562500005,160.79645454545454L34.64953125,160.78840909090908L34.7038125,160.78840909090908L34.741507812500004,160.8045L34.7596015625,160.7320909090909L34.7626171875,160.76427272727273L34.7988046875,160.75622727272727L34.8108671875,160.75622727272727L34.824437499999995,160.78840909090908L34.83046875,160.76427272727273L34.8772109375,160.72404545454546L34.8892734375,160.7320909090909L34.9043515625,160.716L34.929984375000004,160.78036363636363L34.984265625,160.74013636363637L34.9933125,160.74818181818182L35.0008515625,160.716L35.0159296875,160.74013636363637L35.020453125,160.69186363636362L35.02346875,160.716L35.03553125,160.716L35.0943359375,160.69186363636362L35.100367187500005,160.7320909090909L35.1063984375,160.6114090909091L35.1139375,160.70795454545456L35.1244921875,160.6999090909091L35.147109375,160.6838181818182L35.172742187500006,160.716L35.187820312499994,160.6838181818182L35.201390625,160.66772727272726L35.2209921875,160.6999090909091L35.230039062500005,160.6838181818182L35.2632109375,160.716L35.288843750000005,160.75622727272727L35.297890625,160.67577272727272L35.30090625,160.76427272727273L35.306937500000004,160.7320909090909L35.309953125,160.6999090909091L35.31296875,160.716L35.3476484375,160.6838181818182L35.3566953125,160.67577272727272L35.3597109375,160.70795454545456L35.370265625,160.72404545454546L35.3793125,160.69186363636362L35.3898671875,160.67577272727272L35.4139921875,160.69186363636362L35.4320859375,160.6838181818182L35.435101562499995,160.7320909090909L35.457718750000005,160.78036363636363L35.460734375,160.6999090909091L35.484859375,160.6838181818182L35.50596875,160.6596818181818L35.5677890625,160.69186363636362L35.605484374999996,160.60336363636364L35.6205625,160.6435909090909L35.6793671875,160.6999090909091L35.6914296875,160.65163636363636L35.701984374999995,160.72404545454546L35.7125390625,160.63554545454545L35.720078125,160.6596818181818L35.723093750000004,160.69186363636362L35.763804687500006,160.69186363636362L35.79546875,160.69186363636362L35.810546875,160.6838181818182L35.8376875,160.65163636363636L35.8723671875,160.6596818181818L35.901015625,160.67577272727272L35.90403125,160.67577272727272L35.9085546875,160.6596818181818L35.937203125,160.6596818181818L35.9447421875,160.66772727272726L35.991484375000006,160.6596818181818L36.003546875,160.6838181818182L36.018625,160.69186363636362L36.041242187499996,160.67577272727272L36.0502890625,160.6435909090909L36.066875,160.66772727272726L36.0804453125,160.65163636363636L36.098539062499995,160.6838181818182L36.10306249999999,160.65163636363636L36.1256796875,160.66772727272726L36.1286953125,160.6596818181818L36.1829765625,160.69186363636362L36.243289062500004,160.6838181818182L36.259875,160.6275L36.2915390625,160.57118181818183L36.30209375,160.66772727272726L36.3216953125,160.6596818181818L36.326218749999995,160.6435909090909L36.3367734375,160.65163636363636L36.3428046875,160.67577272727272L36.353359375000004,160.67577272727272L36.3684375,160.67577272727272L36.3805,160.6275L36.395578125,160.57118181818183L36.42875,160.63554545454545L36.43478125,160.61945454545454L36.437796875,160.57118181818183L36.446843750000006,160.61945454545454L36.4694609375,160.56313636363637L36.484539062500005,160.539L36.501124999999995,160.60336363636364L36.5116796875,160.69186363636362L36.5267578125,160.6596818181818L36.55842187499999,160.6435909090909L36.5855625,160.57118181818183L36.62175,160.6435909090909L36.6262734375,160.6275L36.6473828125,160.63554545454545L36.671507812499996,160.6596818181818L36.6835703125,160.63554545454545L36.68809375,160.6435909090909L36.748406249999995,160.6596818181818L36.7529296875,160.63554545454545L36.7649921875,160.63554545454545L36.769515625000004,160.57118181818183L36.786101562499994,160.6275L36.789117187500004,160.6275L36.793640625,160.6596818181818L36.7981640625,160.6114090909091L36.8735546875,160.6114090909091L36.8765703125,160.66772727272726L36.879585937499996,160.56313636363637L36.884109375,160.63554545454545L36.89315625,160.65163636363636L36.9218046875,160.539L36.950453125,160.65163636363636L36.9851328125,160.6435909090909L36.989656249999996,160.57922727272728L36.997195312500004,160.63554545454545L37.010765625,160.57118181818183L37.013781249999994,160.63554545454545L37.036398437500004,160.57922727272728L37.0635390625,160.5953181818182L37.1178203125,160.65163636363636L37.119328125,160.65163636363636L37.12234375,160.6275L37.131390625,160.63554545454545L37.1359140625,160.6435909090909L37.14948437499999,160.6114090909091L37.197734375,160.51486363636363L37.2052734375,160.58727272727273L37.2293984375,160.63554545454545L37.2384453125,160.6275L37.26709375,160.63554545454545L37.2686015625,160.63554545454545L37.2716171875,160.6275L37.280664062499994,160.54704545454547L37.3093125,160.63554545454545L37.3575625,160.6275L37.3651015625,160.6114090909091L37.3892265625,160.6435909090909L37.4163671875,160.6114090909091L37.47215625,160.6114090909091L37.487234375,160.63554545454545L37.491757812500005,160.6275L37.509851562499996,160.61945454545454L37.517390625000004,160.61945454545454L37.541515625,160.63554545454545L37.5460390625,160.49072727272727L37.5550859375,160.57922727272728L37.619921874999996,160.52290909090908L37.6425390625,160.61945454545454L37.6455546875,160.54704545454547L37.6576171875,160.6435909090909L37.674203125,160.54704545454547L37.68174218750001,160.6114090909091L37.707375,160.6435909090909L37.7676875,160.54704545454547L37.776734375000004,160.6275L37.7842734375,160.57118181818183L37.788796874999996,160.5953181818182L37.8023671875,160.539L37.8264921875,160.63554545454545L37.88228125,160.47463636363636L37.891328125,160.61945454545454L37.8958515625,160.53095454545453L37.8988671875,160.63554545454545L37.924499999999995,160.5550909090909L37.926007812499996,160.5550909090909L37.948625,160.6275L37.966718750000005,160.61945454545454L38.0134609375,160.52290909090908L38.017984375,160.50681818181818L38.043617187500004,160.6275L38.108453125,160.52290909090908L38.119007812499994,160.61945454545454L38.162734375,160.58727272727273L38.171781249999995,160.5953181818182L38.186859375,160.51486363636363L38.2366171875,160.28154545454547L38.2456640625,160.61945454545454L38.25621875,160.54704545454547L38.272804687500006,160.6114090909091L38.2818515625,160.50681818181818L38.2984375,160.52290909090908L38.307484374999994,160.51486363636363L38.343671875,160.50681818181818L38.366289062499995,160.51486363636363L38.3843828125,160.45854545454546L38.385890625,160.53095454545453L38.4567578125,160.51486363636363L38.461281250000006,160.47463636363636L38.465804687500004,160.53095454545453L38.479375,160.57118181818183L38.4929453125,160.50681818181818L38.5019921875,160.49072727272727L38.506515625,160.49072727272727L38.58190625,160.5953181818182L38.6045234375,160.51486363636363L38.6120625,160.47463636363636L38.621109375,160.50681818181818L38.63015625,160.56313636363637L38.639203125,160.49072727272727L38.7568125,160.49072727272727L38.7703828125,160.50681818181818L38.7794296875,160.51486363636363L38.832203125,160.44245454545455L38.8337109375,160.41027272727274L38.88346875,160.49072727272727L38.904578125,160.50681818181818L38.921164062500004,160.57922727272728L38.93775,160.50681818181818L38.9483046875,160.5953181818182L38.9814765625,160.49072727272727L38.9965546875,160.50681818181818L38.9980625,160.50681818181818L39.0025859375,160.45854545454546L39.02821875,160.44245454545455L39.043296874999996,160.50681818181818L39.097578125,160.5953181818182L39.0990859375,160.41027272727274L39.12471875,160.49072727272727L39.139796875,160.5953181818182L39.157890625,160.42636363636365L39.17296875,160.3780909090909L39.1865390625,160.49072727272727L39.2498671875,160.60336363636364L39.254390625,160.50681818181818L39.2951015625,160.44245454545455L39.304148437500004,160.50681818181818L39.381046875,160.58727272727273L39.3840625,160.49072727272727L39.4338203125,160.41027272727274L39.47453125,160.49072727272727L39.492625000000004,160.49072727272727L39.5785703125,160.3780909090909L39.583093749999996,160.49072727272727L39.5876171875,160.47463636363636L39.6147578125,160.44245454545455L39.623804687500005,160.52290909090908L39.6268203125,160.50681818181818L39.6479296875,160.3941818181818L39.661500000000004,160.3459090909091L39.6720546875,160.49072727272727L39.750460937499994,160.41027272727274L39.7941875,160.32981818181818L39.798710937500005,160.58727272727273L39.8017265625,160.47463636363636L39.8047421875,160.50681818181818L39.8560078125,160.50681818181818L39.89671875,160.49072727272727L39.901242187499996,160.49072727272727L39.917828125,160.44245454545455L39.9494921875,160.58727272727273L39.954015625,160.49072727272727L39.9856796875,160.51486363636363L40.0098046875,160.58727272727273L40.038453125,160.50681818181818L40.044484375,160.49072727272727L40.0520234375,160.47463636363636L40.089718749999996,160.47463636363636L40.144,160.47463636363636L40.1605859375,160.362L40.177171875,160.24936363636363L40.1801875,160.41027272727274L40.2088359375,160.45854545454546L40.213359375,160.41027272727274L40.2178828125,160.42636363636365L40.2766875,160.32981818181818L40.344539062500004,160.24936363636363L40.3535859375,160.29763636363637L40.3958046875,160.44245454545455L40.4048515625,160.47463636363636L40.412390625,160.362L40.4289765625,160.362L40.570710937499996,160.24936363636363L40.593328125,160.3780909090909L40.617453125,160.29763636363637L40.698875,160.26545454545453L40.77125,160.362L40.778789062499996,159.99190909090908L40.795375,160.10454545454544L40.834578125,159.94363636363636L40.8602109375,160.23327272727272L40.894890624999995,159.84709090909092L40.916000000000004,160.07236363636363L41.0321015625,160.008L41.0592421875,160.07236363636363L41.093921875,160.24936363636363L41.1919296875,160.04018181818182L41.2039921875,159.7022727272727L41.2823984375,159.60572727272728L41.2974765625,159.831L41.30803125,159.6700909090909L41.3985,159.6700909090909L41.4120703125,159.6379090909091L41.5176171875,159.60572727272728L41.5311875,159.6700909090909L41.540234375,159.7022727272727L41.5749140625,159.54136363636363L41.66990625,159.6379090909091L41.745296875,159.60572727272728L41.8764765625,159.7022727272727L41.94734375,159.6700909090909L41.988054687500004,159.6379090909091L42.0483671875,159.7022727272727L42.0574140625,159.6700909090909L42.1418515625,159.54136363636363L42.1659765625,159.6700909090909L42.404210937500004,159.41263636363635L42.4072265625,159.54136363636363L42.41175,159.31609090909092L42.469046875,159.38045454545454L42.473570312499994,159.2839090909091L42.5097578125,159.7022727272727L42.710296875,159.05863636363637L42.7389453125,159.6379090909091L42.891234374999996,158.86554545454544L42.9017890625,159.18736363636364L42.942499999999995,159.21954545454545L42.9470234375,158.86554545454544L43.035984375,159.34827272727273L43.0495546875,158.64027272727273L43.120421875000005,159.09081818181818L43.1716875,158.86554545454544L43.403890624999995,155.16463636363636L43.57578125,156.69327272727273L43.6059375,158.35063636363637L43.625539062499996,158.38281818181818L43.7190234375,156.88636363636363L43.777828125,155.3577272727273L43.7989375,155.4220909090909L44.1321640625,158.2219090909091L44.1608125,155.16463636363636L44.236203124999996,155.16463636363636L44.266359375,155.22899999999998L44.290484375,155.3577272727273L44.350796875,154.97154545454546L44.368890625,155.22899999999998L44.4065859375,155.16463636363636L44.477453125000004,155.10027272727274L44.691562499999996,155.48645454545454L44.816710937500005,155.10027272727274L44.836312500000005,155.16463636363636L44.863453125,155.0359090909091L44.8845625,155.29336363636364L44.893609375000004,155.29336363636364L44.9765390625,155.0359090909091L44.9886015625,154.97154545454546L44.993125,155.10027272727274L45.269054687499995,154.77845454545454L45.36404687500001,155.16463636363636L45.3776171875,154.64972727272726L45.4017421875,155.16463636363636L45.472609375,154.9071818181818L45.5359375,154.9071818181818L45.5585546875,154.45663636363636L45.581171875,155.0359090909091L45.6565625,154.64972727272726L45.8299609375,154.45663636363636L45.9219375,154.8428181818182L46.0139140625,154.52100000000002L46.16921875,154.39227272727274L46.2853203125,154.3279090909091L46.375789062500004,154.3279090909091L46.4300703125,153.16936363636364L46.648703125,151.89818181818183L46.6698125,152.13954545454544L46.7828984375,152.22L46.8040078125,152.46136363636364L46.8643203125,152.22L46.9351875,153.68427272727274L46.9879609375,153.74863636363636L47.0633515625,152.46136363636364L47.0814453125,151.97863636363635L47.343804687500004,151.73727272727274L47.4674453125,151.89818181818183L47.5217265625,152.22L47.535296875,152.30045454545456L47.559421875,152.38090909090909L47.595609375,154.00609090909091L47.907726562499995,151.73727272727274L47.933359375,151.97863636363635L48.0313671875,152.13954545454544L48.121835937499995,154.64972727272726L48.15953124999999,153.23372727272726L48.26809375,151.81772727272727L48.2846796875,152.22L48.37665625,151.17409090909092L48.6133828125,151.09363636363636L48.827492187500006,151.97863636363635L48.910421875,151.89818181818183L48.9270078125,151.97863636363635L48.9858125,151.97863636363635L49.1682578125,152.59009090909092L49.4999765625,152.22L49.5602890625,152.13954545454544L49.59496875,152.22L49.6326640625,153.49118181818181L49.6854375,154.26354545454546L49.7683671875,152.30045454545456L49.775906250000006,152.59009090909092L49.790984375,152.22L49.9885078125,154.7140909090909L50.164921875,152.46136363636364L50.1664296875,154.64972727272726L50.1996015625,154.07045454545454L50.2599140625,152.38090909090909L50.287054687499996,152.13954545454544L50.327765625000005,153.04063636363637L50.4529140625,151.73727272727274L50.7574921875,151.65681818181818L50.81328125,151.335L50.846453125000004,151.57636363636362L50.9022421875,151.81772727272727L51.1495234375,151.97863636363635L51.1676171875,152.0590909090909L51.232453125,151.65681818181818L51.36815625,152.46136363636364L51.5385390625,151.97863636363635L51.5717109375,150.2890909090909L51.5898046875,151.09363636363636L51.7948671875,150.93272727272728L52.010484375,149.72590909090908L52.06778125,146.66863636363638L52.1386484375,145.05954545454546L52.2019765625,150.36954545454546L52.2954609375,148.27772727272728L52.5276640625,140.715L52.866921875,146.58818181818182L52.9016015625,149.64545454545456L52.934773437500006,146.1859090909091L52.963421875,149.80636363636364L52.992070312500005,148.27772727272728L53.3720390625,146.26636363636362L53.38259375,135.24409090909091L53.52734375,143.69181818181818L53.856046875,146.1859090909091L53.892234375,137.09454545454545L53.9842109375,131.5431818181818L54.0264296875,135.5659090909091L54.1530859375,149.48454545454547L54.1561015625,146.82954545454547L54.1922890625,145.14L54.519484375,137.3359090909091L54.698914062499995,145.22045454545454L54.834617187499994,145.38136363636363L54.9085,136.29L55.0004765625,141.4390909090909L55.13165625,127.19863636363635L55.176890625000006,137.5772727272727L55.389492187500004,134.92227272727274L55.576460937499995,139.58863636363637L55.84334375,130.98L55.942859375000005,134.03727272727272L55.9896015625,132.99136363636364L56.0468984375,127.44L56.052929687500004,131.14090909090908L56.1343515625,133.39363636363635L56.487179687499996,126.79636363636364L56.524874999999994,107.56772727272727L56.835484375,106.36090909090909L56.8792109375,120.44045454545454L57.1641875,124.70454545454545L57.305921874999996,103.30363636363636L57.330046875,118.34863636363636L57.41146875,127.44L57.438609375,103.62545454545455L57.878890625000004,127.19863636363635L58.215132812499995,102.01636363636364L58.4593984375,103.545L58.5755,103.14272727272727L58.632796875,103.62545454545455L58.828812500000005,94.5340909090909L58.8906328125,100.48772727272727L59.035382812499996,99.76363636363637L59.091171875,99.20045454545453L59.3188515625,99.92454545454547L60.1843359375,97.26954545454545L60.5190703125,93.32727272727273L60.629140625,83.75318181818182L60.6638203125,95.74090909090908L60.876421875,79.73045454545455L60.9261796875,85.36227272727272L61.2699609375,84.55772727272728L61.383046875,74.90318181818182L61.809757812499996,68.78863636363637L62.0329140625,66.69681818181819L62.71896875,42.640909090909105L64.1408359375,21.561818181818182L75.8610625,3.0572727272727036L76.268171875,159.97581818181817L76.35411718750001,28.641818181818195L76.563703125,160.42636363636365L76.789875,160.57922727272728L76.81400000000001,22.366363636363644L77.00549218750001,160.6114090909091L77.02509375,160.6114090909091L77.0627890625,160.60336363636364L77.2889609375,160.65163636363636L77.3975234375,160.49072727272727L77.5739375,160.65163636363636L77.703609375,160.6596818181818L77.860421875,8.286818181818205L77.8679609375,160.6275L77.8860546875,160.6114090909091L77.9735078125,160.6838181818182L78.0790546875,160.6838181818182L78.1423828125,160.716L78.16499999999999,15.608181818181805L78.33689062500001,160.6596818181818L78.3776015625,160.60336363636364L78.3866484375,160.6838181818182L78.391171875,160.69186363636362L78.5766328125,160.61945454545454L78.623375,160.61945454545454L78.6671015625,160.63554545454545L78.82692968750001,160.41027272727274L78.8932734375,160.63554545454545L79.0862734375,160.5953181818182L79.105875,160.56313636363637L79.2385625,160.02409090909092L79.3637109375,160.42636363636365L79.5205234375,160.3941818181818L79.531078125,160.04018181818182L79.591390625,160.10454545454544L79.5959140625,159.95972727272726L79.7165390625,160.32981818181818L79.7225703125,159.31609090909092L79.84771875,159.477L80.00000781249999,159.6700909090909L87.37773437499999,16.65409090909091L89.20369531249999,13.596818181818179L93.94275,147.71454545454546L94.6981640625,125.99181818181818L94.7991875,141.84136363636364L95.7747421875,159.75054545454546L96.88750781249999,138.06L98.41039843749999,106.68272727272728L99.0828828125,125.02636363636364L99.8820234375,127.60090909090908L106.9476328125,104.83227272727272L108.7087578125,104.91272727272727L110.9222265625,88.90227272727273L112.238546875,80.77636363636364L118.02854687499999,83.43136363636363L118.6965078125,75.14454545454545L118.7839609375,92.60318181818182L120.96727343750001,77.71909090909091L124.35080468749999,77.55818181818182L124.9931328125,70.39772727272727L128.601328125,68.94954545454546L129.795515625,69.51272727272728L131.93057812499998,69.59318181818182L135.96246875,67.90363636363637L136.327359375,68.145L138.8770703125,61.95L139.722953125,66.85772727272726L139.8812734375,61.869545454545445L141.9258671875,58.00772727272728L148.938703125,61.065L149.849421875,67.74272727272727L152.1066171875,58.973181818181814L153.507375,62.593636363636364L156.20334375000002,59.93863636363636L162.3898984375,55.43318181818182L170.7733359375,39.422727272727286L174.1267109375,34.6759090909091L177.1302734375,44.25L177.526828125,47.78999999999999L179.97853125,41.273181818181826L180.536421875,45.376363636363635L182.39555468749998,39.58363636363637L185.2513515625,39.422727272727286L187.6517890625,35.31954545454545L190.8151796875,35.23909090909092L191.72439062499998,54.62863636363636L196.356390625,46.261363636363626L198.03760156250002,40.79045454545454L199.7112734375,37.250454545454545L200.0641015625,36.92863636363637L200.6853203125,33.06681818181818L201.82975,33.147272727272735L203.5833359375,43.92818181818183L204.31914843750002,32.825454545454534L208.696328125,27.193636363636358L212.073828125,30.572727272727263L212.3075390625,32.58409090909092L216.86565625,26.22818181818181L220.12253125,35.56090909090909L220.8885,30.974999999999994L223.539234375,37.250454545454545L224.5992265625,27.03272727272727L225.885390625,23.814545454545453L231.590953125,48.111818181818194L232.5665078125,28.159090909090907L239.0410546875,32.50363636363636L239.6291015625,29.205000000000013L241.66766406250002,33.38863636363635L241.87423437500001,28.159090909090907L243.61425,27.11318181818183L248.005,31.055454545454552L250.45971875,32.0209090909091L258.9200546875,29.526818181818186L260.9133828125,29.124545454545455L260.914890625,32.98636363636365L260.9163984375,28.96363636363637L260.91790625,34.6759090909091L260.9194140625,27.756818181818176L260.92242968749997,29.84863636363636L260.9239375,33.227727272727265L260.9254453125,30.894545454545465L260.926953125,34.3540909090909L260.9284609375,33.227727272727265L260.92996875,38.77909090909091L260.9314765625,30.974999999999994L260.932984375,21.803181818181827L260.9344921875,33.629999999999995L260.936,32.58409090909092L260.939015625,32.66454545454545L260.94052343749996,34.27363636363637L260.94203125,31.940454545454543L260.945046875,60.34090909090909L260.9465546875,32.58409090909092L260.9480625,34.112727272727284L260.9495703125,29.607272727272715L260.951078125,36.92863636363637L260.95258593750003,33.38863636363635L260.95409374999997,28.88318181818181L260.9556015625,36.12409090909091L260.957109375,32.90590909090909L260.9586171875,28.561363636363637L260.960125,32.66454545454545L260.9616328125,33.95181818181817L260.963140625,35.56090909090909L260.9646484375,32.50363636363636L260.96766406250003,33.227727272727265L260.969171875,54.709090909090904L260.9706796875,29.28545454545454L260.9721875,39.18136363636364L260.9736953125,35.23909090909092L260.975203125,30.331363636363648L260.9767109375,35.15863636363636L260.97821875,28.159090909090907L260.9797265625,32.90590909090909L260.9827421875,34.595454545454544L260.98425,45.05454545454546L260.987265625,32.98636363636365L260.9917890625,34.595454545454544L260.993296875,33.87136363636364L260.9948046875,34.112727272727284L260.9978203125,31.055454545454552L260.99932812500003,35.31954545454545L261.00083593749997,32.18181818181819L261.0038515625,38.94L261.0068671875,30.814090909090908L261.008375,33.79090909090908L261.0098828125,39.100909090909084L261.0128984375,37.41136363636363L261.01440625,28.48090909090908L261.0159140625,35.23909090909092L261.017421875,57.44454545454546L261.0204375,34.6759090909091L261.0219453125,33.95181818181817L261.023453125,29.929090909090917L261.0249609375,34.112727272727284L261.02646875,33.227727272727265L261.029484375,35.882727272727266L261.03099218750003,31.21636363636364L261.03249999999997,34.595454545454544L261.035515625,32.90590909090909L261.0370234375,58.973181818181814L261.041546875,40.79045454545454L261.0430546875,32.342727272727274L261.0445625,42.96272727272728L261.0460703125,35.15863636363636L261.0490859375,30.090000000000003L261.05059374999996,32.50363636363636L261.0521015625,48.111818181818194L261.053609375,32.98636363636365L261.0551171875,43.68681818181818L261.056625,40.468636363636364L261.0581328125,34.595454545454544L261.05964062500004,35.31954545454545L261.06265625000003,33.46909090909091L261.0641640625,30.73363636363635L261.065671875,33.227727272727265L261.0671796875,39.18136363636364L261.0686875,32.342727272727274L261.0701953125,32.10136363636363L261.071703125,32.50363636363636L261.07471875,32.58409090909092L261.0762265625,52.53681818181819L261.07773437500003,34.032272727272726" style="fill: none;" fill="none"></path></g></g></g></g></g></g><g transform="translate(58, 177)" clip-path="url(#clip_1)"><clipPath id="clip_1"><rect width="271" height="23"></rect></clipPath><g><g><line x1="0" y1="0" x2="0" y2="5" style="visibility: inherit;" fill="rgb(0, 0, 0)" stroke="rgb(204, 204, 204)" stroke-width="1px"></line><line x1="30.15625" y1="0" x2="30.15625" y2="5" style="visibility: inherit;" fill="rgb(0, 0, 0)" stroke="rgb(204, 204, 204)" stroke-width="1px"></line><line x1="60.3125" y1="0" x2="60.3125" y2="5" style="visibility: inherit;" fill="rgb(0, 0, 0)" stroke="rgb(204, 204, 204)" stroke-width="1px"></line><line x1="90.46875" y1="0" x2="90.46875" y2="5" style="visibility: inherit;" fill="rgb(0, 0, 0)" stroke="rgb(204, 204, 204)" stroke-width="1px"></line><line x1="120.625" y1="0" x2="120.625" y2="5" style="visibility: inherit;" fill="rgb(0, 0, 0)" stroke="rgb(204, 204, 204)" stroke-width="1px"></line><line x1="150.78125" y1="0" x2="150.78125" y2="5" style="visibility: inherit;" fill="rgb(0, 0, 0)" stroke="rgb(204, 204, 204)" stroke-width="1px"></line><line x1="180.9375" y1="0" x2="180.9375" y2="5" style="visibility: inherit;" fill="rgb(0, 0, 0)" stroke="rgb(204, 204, 204)" stroke-width="1px"></line><line x1="211.09375" y1="0" x2="211.09375" y2="5" style="visibility: inherit;" fill="rgb(0, 0, 0)" stroke="rgb(204, 204, 204)" stroke-width="1px"></line><line x1="241.25" y1="0" x2="241.25" y2="5" style="visibility: inherit;" fill="rgb(0, 0, 0)" stroke="rgb(204, 204, 204)" stroke-width="1px"></line><line x1="271.40625" y1="0" x2="271.40625" y2="5" style="visibility: inherit;" fill="rgb(0, 0, 0)" stroke="rgb(204, 204, 204)" stroke-width="1px"></line></g><g transform="translate(0, 8)"><text x="0" y="0" dx="0em" dy="0.95em" style="text-anchor: middle; visibility: hidden; font-family: &quot;Helvetica Neue&quot;, sans-serif; font-size: 12px; font-weight: 200;" fill="rgb(50, 49, 63)" stroke="none" stroke-width="1px">-20k</text><text x="30.15625" y="0" dx="0em" dy="0.95em" style="text-anchor: middle; visibility: inherit; font-family: &quot;Helvetica Neue&quot;, sans-serif; font-size: 12px; font-weight: 200;" fill="rgb(50, 49, 63)" stroke="none" stroke-width="1px">0</text><text x="60.3125" y="0" dx="0em" dy="0.95em" style="text-anchor: middle; visibility: hidden; font-family: &quot;Helvetica Neue&quot;, sans-serif; font-size: 12px; font-weight: 200;" fill="rgb(50, 49, 63)" stroke="none" stroke-width="1px">20k</text><text x="90.46875" y="0" dx="0em" dy="0.95em" style="text-anchor: middle; visibility: inherit; font-family: &quot;Helvetica Neue&quot;, sans-serif; font-size: 12px; font-weight: 200;" fill="rgb(50, 49, 63)" stroke="none" stroke-width="1px">40k</text><text x="120.625" y="0" dx="0em" dy="0.95em" style="text-anchor: middle; visibility: hidden; font-family: &quot;Helvetica Neue&quot;, sans-serif; font-size: 12px; font-weight: 200;" fill="rgb(50, 49, 63)" stroke="none" stroke-width="1px">60k</text><text x="150.78125" y="0" dx="0em" dy="0.95em" style="text-anchor: middle; visibility: inherit; font-family: &quot;Helvetica Neue&quot;, sans-serif; font-size: 12px; font-weight: 200;" fill="rgb(50, 49, 63)" stroke="none" stroke-width="1px">80k</text><text x="180.9375" y="0" dx="0em" dy="0.95em" style="text-anchor: middle; visibility: hidden; font-family: &quot;Helvetica Neue&quot;, sans-serif; font-size: 12px; font-weight: 200;" fill="rgb(50, 49, 63)" stroke="none" stroke-width="1px">100k</text><text x="211.09375" y="0" dx="0em" dy="0.95em" style="text-anchor: middle; visibility: inherit; font-family: &quot;Helvetica Neue&quot;, sans-serif; font-size: 12px; font-weight: 200;" fill="rgb(50, 49, 63)" stroke="none" stroke-width="1px">120k</text><text x="241.25" y="0" dx="0em" dy="0.95em" style="text-anchor: middle; visibility: hidden; font-family: &quot;Helvetica Neue&quot;, sans-serif; font-size: 12px; font-weight: 200;" fill="rgb(50, 49, 63)" stroke="none" stroke-width="1px">140k</text><text x="271.40625" y="0" dx="0em" dy="0.95em" style="text-anchor: middle; visibility: hidden; font-family: &quot;Helvetica Neue&quot;, sans-serif; font-size: 12px; font-weight: 200;" fill="rgb(50, 49, 63)" stroke="none" stroke-width="1px">160k</text></g><line x1="0" y1="0" x2="271.40625" y2="0" fill="rgb(0, 0, 0)" stroke="rgb(204, 204, 204)" stroke-width="1px"></line></g></g></g></g></svg>