<svg viewBox="0 0 330 200" xmlns="http://www.w3.org/2000/svg"><g><g><g><g><g><line x1="58.59375" y1="177" x2="53.59375" y2="177" style="visibility: inherit;" fill="rgb(0, 0, 0)" stroke="rgb(204, 204, 204)" stroke-width="1px"></line><line x1="58.59375" y1="160.9090909090909" x2="53.59375" y2="160.9090909090909" style="visibility: inherit;" fill="rgb(0, 0, 0)" stroke="rgb(204, 204, 204)" stroke-width="1px"></line><line x1="58.59375" y1="144.8181818181818" x2="53.59375" y2="144.8181818181818" style="visibility: inherit;" fill="rgb(0, 0, 0)" stroke="rgb(204, 204, 204)" stroke-width="1px"></line><line x1="58.59375" y1="128.72727272727275" x2="53.59375" y2="128.72727272727275" style="visibility: inherit;" fill="rgb(0, 0, 0)" stroke="rgb(204, 204, 204)" stroke-width="1px"></line><line x1="58.59375" y1="112.63636363636364" x2="53.59375" y2="112.63636363636364" style="visibility: inherit;" fill="rgb(0, 0, 0)" stroke="rgb(204, 204, 204)" stroke-width="1px"></line><line x1="58.59375" y1="96.54545454545455" x2="53.59375" y2="96.54545454545455" style="visibility: inherit;" fill="rgb(0, 0, 0)" stroke="rgb(204, 204, 204)" stroke-width="1px"></line><line x1="58.59375" y1="80.45454545454547" x2="53.59375" y2="80.45454545454547" style="visibility: inherit;" fill="rgb(0, 0, 0)" stroke="rgb(204, 204, 204)" stroke-width="1px"></line><line x1="58.59375" y1="64.36363636363636" x2="53.59375" y2="64.36363636363636" style="visibility: inherit;" fill="rgb(0, 0, 0)" stroke="rgb(204, 204, 204)" stroke-width="1px"></line><line x1="58.59375" y1="48.27272727272728" x2="53.59375" y2="48.27272727272728" style="visibility: inherit;" fill="rgb(0, 0, 0)" stroke="rgb(204, 204, 204)" stroke-width="1px"></line><line x1="58.59375" y1="32.18181818181819" x2="53.59375" y2="32.18181818181819" style="visibility: inherit;" fill="rgb(0, 0, 0)" stroke="rgb(204, 204, 204)" stroke-width="1px"></line><line x1="58.59375" y1="16.090909090909093" x2="53.59375" y2="16.090909090909093" style="visibility: inherit;" fill="rgb(0, 0, 0)" stroke="rgb(204, 204, 204)" stroke-width="1px"></line><line x1="58.59375" y1="0" x2="53.59375" y2="0" style="visibility: inherit;" fill="rgb(0, 0, 0)" stroke="rgb(204, 204, 204)" stroke-width="1px"></line></g><g transform="translate(48.59375, 0)"><text x="0" y="177" dx="0em" dy="0.3em" style="text-anchor: end; visibility: hidden; font-family: &quot;Helvetica Neue&quot;, sans-serif; font-size: 12px; font-weight: 200;" fill="rgb(50, 49, 63)" stroke="none" stroke-width="1px">-1e+5</text><text x="0" y="160.9090909090909" dx="0em" dy="0.3em" style="text-anchor: end; visibility: inherit; font-family: &quot;Helvetica Neue&quot;, sans-serif; font-size: 12px; font-weight: 200;" fill="rgb(50, 49, 63)" stroke="none" stroke-width="1px">0</text><text x="0" y="144.8181818181818" dx="0em" dy="0.3em" style="text-anchor: end; visibility: hidden; font-family: &quot;Helvetica Neue&quot;, sans-serif; font-size: 12px; font-weight: 200;" fill="rgb(50, 49, 63)" stroke="none" stroke-width="1px">1e+5</text><text x="0" y="128.72727272727275" dx="0em" dy="0.3em" style="text-anchor: end; visibility: inherit; font-family: &quot;Helvetica Neue&quot;, sans-serif; font-size: 12px; font-weight: 200;" fill="rgb(50, 49, 63)" stroke="none" stroke-width="1px">2e+5</text><text x="0" y="112.63636363636364" dx="0em" dy="0.3em" style="text-anchor: end; visibility: hidden; font-family: &quot;Helvetica Neue&quot;, sans-serif; font-size: 12px; font-weight: 200;" fill="rgb(50, 49, 63)" stroke="none" stroke-width="1px">3e+5</text><text x="0" y="96.54545454545455" dx="0em" dy="0.3em" style="text-anchor: end; visibility: inherit; font-family: &quot;Helvetica Neue&quot;, sans-serif; font-size: 12px; font-weight: 200;" fill="rgb(50, 49, 63)" stroke="none" stroke-width="1px">4e+5</text><text x="0" y="80.45454545454547" dx="0em" dy="0.3em" style="text-anchor: end; visibility: hidden; font-family: &quot;Helvetica Neue&quot;, sans-serif; font-size: 12px; font-weight: 200;" fill="rgb(50, 49, 63)" stroke="none" stroke-width="1px">5e+5</text><text x="0" y="64.36363636363636" dx="0em" dy="0.3em" style="text-anchor: end; visibility: inherit; font-family: &quot;Helvetica Neue&quot;, sans-serif; font-size: 12px; font-weight: 200;" fill="rgb(50, 49, 63)" stroke="none" stroke-width="1px">6e+5</text><text x="0" y="48.27272727272728" dx="0em" dy="0.3em" style="text-anchor: end; visibility: hidden; font-family: &quot;Helvetica Neue&quot;, sans-serif; font-size: 12px; font-weight: 200;" fill="rgb(50, 49, 63)" stroke="none" stroke-width="1px">7e+5</text><text x="0" y="32.18181818181819" dx="0em" dy="0.3em" style="text-anchor: end; visibility: inherit; font-family: &quot;Helvetica Neue&quot;, sans-serif; font-size: 12px; font-weight: 200;" fill="rgb(50, 49, 63)" stroke="none" stroke-width="1px">8e+5</text><text x="0" y="16.090909090909093" dx="0em" dy="0.3em" style="text-anchor: end; visibility: hidden; font-family: &quot;Helvetica Neue&quot;, sans-serif; font-size: 12px; font-weight: 200;" fill="rgb(50, 49, 63)" stroke="none" stroke-width="1px">9e+5</text><text x="0" y="0" dx="0em" dy="0.3em" style="text-anchor: end; visibility: hidden; font-family: &quot;Helvetica Neue&quot;, sans-serif; font-size: 12px; font-weight: 200;" fill="rgb(50, 49, 63)" stroke="none" stroke-width="1px">1e+6</text></g><line x1="58.59375" y1="0" x2="58.59375" y2="177" fill="rgb(0, 0, 0)" stroke="rgb(204, 204, 204)" stroke-width="1px"></line></g></g><g transform="translate(58, 0)" clip-path="url(#clip_0)"><clipPath id="clip_0"><rect width="271" height="177"></rect></clipPath><g><g><g><line x1="0" y1="0" x2="0" y2="177" fill="rgb(0, 0, 0)" stroke="rgb(60, 60, 60)" stroke-width="1px" opacity="0.25"></line><line x1="30.15625" y1="0" x2="30.15625" y2="177" fill="rgb(0, 0, 0)" stroke="rgb(60, 60, 60)" stroke-width="1px" opacity="0.25"></line><line x1="60.3125" y1="0" x2="60.3125" y2="177" fill="rgb(0, 0, 0)" stroke="rgb(60, 60, 60)" stroke-width="1px" opacity="0.25"></line><line x1="90.46875" y1="0" x2="90.46875" y2="177" fill="rgb(0, 0, 0)" stroke="rgb(60, 60, 60)" stroke-width="1px" opacity="0.25"></line><line x1="120.625" y1="0" x2="120.625" y2="177" fill="rgb(0, 0, 0)" stroke="rgb(60, 60, 60)" stroke-width="1px" opacity="0.25"></line><line x1="150.78125" y1="0" x2="150.78125" y2="177" fill="rgb(0, 0, 0)" stroke="rgb(60, 60, 60)" stroke-width="1px" opacity="0.25"></line><line x1="180.9375" y1="0" x2="180.9375" y2="177" fill="rgb(0, 0, 0)" stroke="rgb(60, 60, 60)" stroke-width="1px" opacity="0.25"></line><line x1="211.09375" y1="0" x2="211.09375" y2="177" fill="rgb(0, 0, 0)" stroke="rgb(60, 60, 60)" stroke-width="1px" opacity="0.25"></line><line x1="241.25" y1="0" x2="241.25" y2="177" fill="rgb(0, 0, 0)" stroke="rgb(60, 60, 60)" stroke-width="1px" opacity="0.25"></line><line x1="271.40625" y1="0" x2="271.40625" y2="177" fill="rgb(0, 0, 0)" stroke="rgb(60, 60, 60)" stroke-width="1px" opacity="0.25"></line></g><g><line x1="0" y1="177" x2="271.40625" y2="177" fill="rgb(0, 0, 0)" stroke="rgb(60, 60, 60)" stroke-width="1px" opacity="0.25"></line><line x1="0" y1="160.9090909090909" x2="271.40625" y2="160.9090909090909" fill="rgb(0, 0, 0)" stroke="rgb(60, 60, 60)" stroke-width="1px" opacity="0.25"></line><line x1="0" y1="144.8181818181818" x2="271.40625" y2="144.8181818181818" fill="rgb(0, 0, 0)" stroke="rgb(60, 60, 60)" stroke-width="1px" opacity="0.25"></line><line x1="0" y1="128.72727272727275" x2="271.40625" y2="128.72727272727275" fill="rgb(0, 0, 0)" stroke="rgb(60, 60, 60)" stroke-width="1px" opacity="0.25"></line><line x1="0" y1="112.63636363636364" x2="271.40625" y2="112.63636363636364" fill="rgb(0, 0, 0)" stroke="rgb(60, 60, 60)" stroke-width="1px" opacity="0.25"></line><line x1="0" y1="96.54545454545455" x2="271.40625" y2="96.54545454545455" fill="rgb(0, 0, 0)" stroke="rgb(60, 60, 60)" stroke-width="1px" opacity="0.25"></line><line x1="0" y1="80.45454545454547" x2="271.40625" y2="80.45454545454547" fill="rgb(0, 0, 0)" stroke="rgb(60, 60, 60)" stroke-width="1px" opacity="0.25"></line><line x1="0" y1="64.36363636363636" x2="271.40625" y2="64.36363636363636" fill="rgb(0, 0, 0)" stroke="rgb(60, 60, 60)" stroke-width="1px" opacity="0.25"></line><line x1="0" y1="48.27272727272728" x2="271.40625" y2="48.27272727272728" fill="rgb(0, 0, 0)" stroke="rgb(60, 60, 60)" stroke-width="1px" opacity="0.25"></line><line x1="0" y1="32.18181818181819" x2="271.40625" y2="32.18181818181819" fill="rgb(0, 0, 0)" stroke="rgb(60, 60, 60)" stroke-width="1px" opacity="0.25"></line><line x1="0" y1="16.090909090909093" x2="271.40625" y2="16.090909090909093" fill="rgb(0, 0, 0)" stroke="rgb(60, 60, 60)" stroke-width="1px" opacity="0.25"></line><line x1="0" y1="0" x2="271.40625" y2="0" fill="rgb(0, 0, 0)" stroke="rgb(60, 60, 60)" stroke-width="1px" opacity="0.25"></line></g></g></g><g><g><line x1="0" y1="160.9090909090909" x2="271.40625" y2="160.9090909090909" fill="rgb(0, 0, 0)" stroke="rgb(153, 153, 153)" stroke-width="1.5px"></line></g></g><g><g><line x1="30.15625" y1="0" x2="30.15625" y2="177" fill="rgb(0, 0, 0)" stroke="rgb(153, 153, 153)" stroke-width="1.5px"></line></g></g><g><g><g><g><g><path stroke="rgb(255, 112, 67)" stroke-width="2px" d="M30.261796875,160.70312727272727L30.34321875,160.6938114832536L30.3809140625,160.60105984568938L30.391468749999998,160.61763817705992L30.4382109375,160.63694240211694L30.566375,160.64110862968843L30.6251796875,160.63880855925004L30.629703125,160.65999028880339L30.638749999999998,160.65862655968462L30.6432734375,160.6456949196361L30.6854921875,160.64726427011954L30.6945390625,160.6519099086422L30.8061171875,160.66093472257376L30.875476562499998,160.6613981846689L30.913171875,160.64091919696725L30.9267421875,160.64815990399111L31.106171874999998,160.65861912617007L31.1318046875,160.6538216895003L31.1529140625,160.62938377525182L31.155929687500002,160.63429834980502L31.193625,160.62269426178952L31.377578125,160.63090222261874L31.4001953125,160.6217010517292L31.466539062499997,160.61918378989728L31.471062500000002,160.618692897084L31.477093749999998,160.6182582518648L31.4846328125,160.61531008230273L31.5479609375,160.6013148169933L31.59771875,160.60659570844118L31.6444609375,160.61835650976943L31.685171874999998,160.621816500884L31.787703125,160.6385682341692L31.798257812499997,160.62829390146246L31.799765625,160.63367415133953L31.802781250000002,160.63089536056964L31.890234375,160.63285264630036L31.9128515625,160.63017119557452L31.994273437500002,160.63727460820752L32.0606171875,160.6361172304456L32.0726796875,160.64781846193395L32.0817265625,160.64804232096398L32.0877578125,160.64547461975312L32.0998203125,160.6506520367198L32.149578125,160.65253876642046L32.17671875,160.65585657476146L32.18878125,160.639212905755L32.1948125,160.63868149465236L32.282265625,160.6451673398527L32.354640625,160.6440377738653L32.4074140625,160.63703792080963L32.460187499999996,160.6376962733386L32.5069296875,160.64248938238882L32.565734375,160.64792997592457L32.583828125,160.63247927892476L32.58684375,160.6331096329954L32.638109375,160.6356127984116L32.7632578125,160.6259276443295L32.888406249999996,160.6272140975696L33.013554687500005,160.63078982739412L33.024109375,160.6275586746035L33.033156250000005,160.6294868346652L33.042203125,160.63396102737306L33.2638515625,160.64056448439078L33.3513046875,160.64650595014038L33.4176484375,160.65152977690147L33.43725,160.64268198589073L33.4508203125,160.6363310559218L33.5623984375,160.6381848388763L33.603109375,160.64194624640263L33.66040625,160.64710212505364L33.6920703125,160.63821781158939L33.7146875,160.62185136034896L33.802140625,160.60712313317836L33.940859375,160.61527871806229L33.961968750000004,160.62374488773224L34.013234375,160.6152675761021L34.0237890625,160.61922745977756L34.031328125,160.619893984485L34.04942187499999,160.61582632588735L34.115765625,160.62391455127872L34.1383828125,160.6334467886284L34.176078125,160.62641450166512L34.2258359375,160.62410904795018L34.3042421875,160.60915963665343L34.3660625,160.6013381185029L34.3856640625,160.60701223818097L34.4218515625,160.6074519694038L34.426375,160.60897418834946L34.427882812499995,160.61581553039412L34.562078125,160.61553577422544L34.571125,160.61303111599358L34.61334375,160.60723673776903L34.616359374999995,160.61586081564278L34.6600859375,160.6113926925801L34.6842109375,160.61638273869323L34.6932578125,160.62666669933918L34.767140624999996,160.6257845427181L34.8711796875,160.63319724061327L34.911890625,160.6450178654101L34.9284765625,160.64632338627283L34.936015624999996,160.6391308757067L35.0068828125,160.64295605225186L35.044578125,160.642536802545L35.092828125,160.6550324309601L35.1516328125,160.65501464213054L35.157664062500004,160.6533895186139L35.219484375,160.65997246856566L35.2345625,160.6639661764633L35.2963828125,160.66176771801207L35.297890625,160.66332914249L35.563265625,160.66553897393322L35.62659375,160.65047132714295L35.754757812499996,160.61985398771412L35.774359374999996,160.61563038146022L35.8150703125,160.61279460053328L36.0050546875,160.59656506060008L36.015609375000004,160.58919943100352L36.027671875,160.5861103846789L36.06084375,160.59523756077797L36.087984375000005,160.59315379797118L36.09703125,160.57003835099314L36.148296875,160.58495637309656L36.1950390625,160.58470528065035L36.2312265625,160.59477750119814L36.3036015625,160.59434884117002L36.315664062500005,160.60104305945043L36.3443125,160.60706785372L36.356375,160.6094328898174L36.4408125,160.61494051681706L36.477,160.6187710149029L36.5056484375,160.6159430014559L36.5086640625,160.62466143653452L36.5267578125,160.6177043780796L36.606671875,160.61981030546374L36.648890625,160.6052929016288L36.709203124999995,160.6092836138539L36.8584765625,160.61335798193545L36.8856171875,160.6197603686633L36.9459296875,160.6206952412957L36.968546875,160.6141348054996L36.97759375,160.61965496326374L37.1992421875,160.60515309868933L37.221859375,160.6077096077339L37.230906250000004,160.60791864701434L37.2655859375,160.61679587528L37.303281250000005,160.62011901571807L37.35153125,160.62423620582848L37.44803125,160.6314816773792L37.469140624999994,160.63301441896533L37.535484375,160.6319802496545L37.559609375,160.63153222463387L37.5973046875,160.630968093017L37.610875,160.6325521929643L37.6938046875,160.62882879151528L37.7299921875,160.62386863923552L37.8400625,160.62101359328608L37.871726562499994,160.6171567791595L37.90942187500001,160.61336382829276L38.064726562500006,160.60866289975965L38.120515625,160.60169660945115L38.2064609375,160.58577240236744L38.2818515625,160.59718607166286L38.30446875,160.6050447374973L38.310500000000005,160.6060029910503L38.3225625,160.60686541924233L38.327085937499994,160.58076978574704L38.388906250000005,160.56693826140202L38.408507812500005,160.57524716270527L38.426601562500004,160.5791851737803L38.446203125000004,160.57709756545842L38.574367187499995,160.58406871810791L38.6196015625,160.5934000282411L38.64221875,160.58796002535098L38.6799140625,160.59497129561973L38.808078125,160.58776507507784L38.820140625,160.59656584037518L38.859343749999994,160.60159016546856L38.8698984375,160.60048023982284L38.9256875,160.5991594885593L38.9694140625,160.59233899420926L38.999570312500005,160.5926369129717L39.062898437499996,160.59531867623258L39.076468750000004,160.58807771766962L39.157890625,160.59845630957852L39.17296875,160.60860158774634L39.2227265625,160.5968141562081L39.323750000000004,160.60519274061053L39.3976328125,160.61192892111177L39.4338203125,160.60061330170242L39.441359375,160.60233651699022L39.4488984375,160.59519831982365L39.5001640625,160.6000375787583L39.524289062499996,160.60149654815734L39.563492187499996,160.61133780244558L39.623804687500005,160.61166674947415L39.681101562500004,160.6100318927068L39.7383984375,160.61515779435018L39.751968749999996,160.61349565127733L39.821328125,160.61006881341964L39.839421875,160.61551284117243L39.8439453125,160.62041246614922L39.875609375,160.61870758316968L39.987187500000005,160.62505773394687L40.008296875,160.61886559691297L40.0490078125,160.62005085540397L40.06559375,160.61548576986186L40.076148437499995,160.60542355650864L40.0836875,160.61422847358773L40.2239140625,160.62134835350363L40.2420078125,160.632744427247L40.327953125,160.63366816634067L40.3475546875,160.60939771333813L40.3927890625,160.61764430564216L40.409375,160.62168714780586L40.412390625,160.6298311602992L40.442546875000005,160.6059444079025L40.533015625,160.5976408762022L40.5435703125,160.59177678858134L40.683796875,160.58489001881347L40.69284375,160.5730601078402L40.732046875,160.58429682432978L40.7546640625,160.5829853237149L40.828546875,160.5826095186161L40.87378125,160.5653758394808L40.8903671875,160.57416280098772L40.9024296875,160.57450833907077L41.083367187499995,160.58624386880055L41.178359375,160.58666857282958L41.2009765625,160.5965444428197L41.2281171875,160.5867672712647L41.3668359375,160.57796781686525L41.5553125,160.5846910351789L41.5598359375,160.59363829529758L41.6261796875,160.59702446576787L41.663875,160.59283111010012L41.666890625,160.58744799909002L41.6895078125,160.58533865372644L41.71815625,160.58472751562653L41.793546875000004,160.5904529458821L41.8342578125,160.5965712876576L41.8704453125,160.59789415889185L41.959406249999994,160.59393565209353L42.1177265625,160.60453299597518L42.149390624999995,160.60361151455947L42.179546875,160.59312763583074L42.202164062499996,160.59077214497492L42.28358593750001,160.58318129411376L42.3755625,160.5827858919751L42.408734375,160.57277548459572L42.46603125,160.58323611795439L42.511265625,160.5847661425226L42.6409375,160.59402771008854L42.6605390625,160.59013402998875L42.7027578125,160.5753660815353L42.764578125,160.57494765519996L42.77965625,160.57087016240723L42.821875,160.57749860071198L42.87615625,160.56801692245892L42.88821875,160.5750915938494L42.897265625,160.55667879810082L42.9198828125,160.56762273647257L42.9349609375,160.5731277355526L42.971148437500005,160.58435768927006L43.039,160.58255737488852L43.090265625,160.58479891012695L43.1219296875,160.5778053827506L43.162640625,160.56507484447553L43.2214453125,160.56986917820979L43.334531250000005,160.543450442207L43.4023828125,160.54461448889538L43.41896875,160.54839758546038L43.497375,160.55502055418708L43.512453125,160.56017668058655L43.560703125,160.56208173980062L43.6134765625,160.57119811127512L43.728070312499995,160.5802073910567L43.780843749999995,160.59105119740556L43.94971875,160.5874551685741L44.0537578125,160.59837874262578L44.08994531250001,160.60660086836322L44.097484375,160.59581805425415L44.17890625,160.5944807942833L44.2346953125,160.5738072603095L44.240726562499994,160.57628017064218L44.290484375,160.57882760812342L44.2980234375,160.5627766654929L44.399046875,160.56796172621634L44.424679687499996,160.5650655535947L44.438250000000004,160.57468808914433L44.5151484375,160.5606601893208L44.5362578125,160.55205780675237L44.742828125,160.5629811169862L44.766953125,160.56573209619668L44.82425,160.5437497956679L44.833296875,160.55711299791932L44.857421875,160.56849624358193L44.8770234375,160.57037389195102L44.880039062499996,160.58332741184682L44.923765624999994,160.58677921611667L44.925273437499996,160.59664402177773L44.9313046875,160.5860523468727L44.9493984375,160.58649620309453L45.020265625,160.58689567369416L45.054945312499996,160.56424519723384L45.101687500000004,160.57781158660134L45.15596875000001,160.56347133703213L45.165015625,160.5497605669653L45.1816015625,160.55817814663237L45.2811171875,160.55626033196916L45.2946875,160.56933793513588L45.297703125,160.56791323253137L45.36404687500001,160.58143463655097L45.4047578125,160.58040935471405L45.430390625,160.58141751015174L45.4469765625,160.58039394095474L45.587203124999995,160.57223181958653L45.5887109375,160.58081591035517L45.61132812500001,160.5685888647742L45.626406249999995,160.5678827055695L45.668625000000006,160.57384443501255L45.7756796875,160.59240453696583L45.81940625,160.57580044690562L45.8601171875,160.56648858403324L45.8872578125,160.55086699835718L45.967171875,160.5448530257942L45.9943125,160.5606804504875L46.0048671875,160.5628569508933L46.039546875,160.56127580125852L46.0742265625,160.55502549385994L46.1496171875,160.53829748992848L46.1556484375,160.52292046820835L46.18278906250001,160.5205056941148L46.237070312499995,160.5258951247033L46.2461171875,160.53669924859662L46.2672265625,160.55334205100968L46.309445312499996,160.5605969368178L46.3788046875,160.57484997040876L46.3938828125,160.57206951882242L46.4119765625,160.55910802148563L46.4692734375,160.56224631024617L46.473796875,160.57021986103973L46.5868828125,160.57305151129938L46.606484375,160.573990905624L46.692429687499995,160.5849736332434L46.7406796875,160.5843989971918L46.758773437500004,160.5814681883817L46.7859140625,160.579956824089L46.8462265625,160.58374568713464L46.880906249999995,160.58763839114846L46.927648437500004,160.54866182476087L47.000023437500005,160.54206382410297L47.0663671875,160.5441710780563L47.11009375,160.52917215206887L47.186992187499996,160.51567311868016L47.253335937500005,160.5028803522667L47.3106328125,160.49522868067638L47.3211875,160.5020194489724L47.4011015625,160.51762477680242L47.499109375,160.51332593548582L47.5760078125,160.51026152375542L47.597117187500004,160.49495264410714L47.631796875,160.49646101606007L47.7629765625,160.48623309627223L47.842890625,160.48024615028137L47.8986796875,160.48612153525323L47.9725625,160.50058119990973L47.9770859375,160.50281398900967L47.9951796875,160.49355986283598L48.026843750000005,160.5037356947342L48.035890625,160.51208939798806L48.066046875000005,160.52942318546198L48.084140625,160.54051813964304L48.1338984375,160.52411450749693L48.1489765625,160.5299476022018L48.293726562500005,160.5395419328907L48.332929687500005,160.52017864869254L48.355546875,160.52849714745963L48.4233984375,160.5335701599864L48.458078125,160.52124041671505L48.4746640625,160.5101436477708L48.5349765625,160.52429291935738L48.56965625,160.51691362742162L48.5862421875,160.52105317377038L48.67821875,160.51399785639333L48.6887734375,160.50523443439036L48.7521015625,160.51585190004224L48.7671796875,160.50255852821982L48.7943203125,160.50057085721602L48.8033671875,160.51229831694897L48.850109375,160.49903848525406L48.9300234375,160.47696736400138L48.9360546875,160.49346880941943L48.93907031249999,160.48514920120476L48.9722421875,160.4940742810843L49.00390625,160.50693412570314L49.043109375,160.51979525858735L49.0657265625,160.53748482363773L49.12453125,160.5368317958194L49.1411171875,160.5481513435102L49.1531796875,160.55721257279552L49.171273437500005,160.5645631336978L49.1833359375,160.56635136578257L49.2949140625,160.5692480473861L49.408,160.57217687901115L49.441171875,160.56805464565548L49.468312499999996,160.56756281745356L49.49846875,160.57420017207187L49.501484375,160.57373742759194L49.5753671875,160.57702186665094L49.688453125,160.54908331634948L49.6929765625,160.56110862107818L49.700515625,160.56356412260672L49.7020234375,160.56352134670968L49.7563046875,160.55141466658415L49.8799453125,160.5493686544712L49.959859375,160.55348087993318L50.032234375,160.5455964283035L50.134765625,160.5529822400186L50.23277343749999,160.54997492510765L50.249359375,160.54646379623324L50.30967187500001,160.53928105297356L50.347367187500005,160.54166658403983L50.3805390625,160.51372356199948L50.445375000000006,160.50337847852683L50.4815625,160.51128517612867L50.569015625,160.52210211306127L50.633851562500006,160.50931008357333L50.6428984375,160.5195199843069L50.742414062499996,160.53144434951258L50.8057421875,160.52576355092495L50.861531250000006,160.49699719583245L50.876609374999994,160.50119747624922L50.911289062499996,160.50497772862428L50.948984375,160.51079359212548L51.0319140625,160.5039596874584L51.09675,160.52017553689439L51.182695312499995,160.5124034377504L51.223406250000004,160.51104036670262L51.226421875,160.50096360275964L51.2535625,160.50911178793822L51.3063359375,160.52481242732622L51.3244296875,160.5246220936845L51.41640625,160.53442715704332L51.4601328125,160.54952716861172L51.521953124999996,160.55410626993236L51.549093750000004,160.5377920065755L51.606390625,160.52906280591793L51.6290078125,160.5187928889625L51.710429687499996,160.51759541824808L51.7224921875,160.50847224005963L51.77225,160.4994568342355L51.835578125000005,160.4850675144483L51.8672421875,160.47919712663983L51.87478125,160.4594319594304L51.941125,160.45451603621464L52.0180234375,160.44816079622953L52.058734375,160.4524174438793L52.11,160.46509842676411L52.1235703125,160.45044403863315L52.1416640625,160.45447236204257L52.233640625,160.44812148947466L52.375375,160.45318661325447L52.379898437499996,160.46176795192903L52.4130703125,160.46064115673613L52.4854453125,160.45125976833523L52.5321875,160.4600337915017L52.553296875,160.481285866897L52.5849609375,160.47981637111639L52.6332109375,160.48412564309567L52.68296875,160.49073944242247L52.7206640625,160.48269277090748L52.723679687499995,160.47351985745308L52.7387578125,160.4784587807987L52.878984375,160.46970926635518L52.8895390625,160.4790519760833L53.0192109375,160.47024314211134L53.02071875,160.49256610062747L53.023734375,160.48160130874655L53.0493671875,160.47527299605372L53.133804687499996,160.47762296917563L53.20165625,160.4984033995308L53.239351562500005,160.5040721504868L53.258953125000005,160.48503766271085L53.308710937499995,160.47241207825795L53.317757812500005,160.45219905225034L53.436875,160.46409732884348L53.518296875,160.4447157777773L53.581625,160.43966238181775L53.58765625,160.43511432545415L53.6163046875,160.43987107472694L53.822874999999996,160.4369112399815L53.9088203125,160.44872920689244L53.94953125,160.4172071952941L53.997781249999996,160.41265193031015L54.0173828125,160.4101612827337L54.02190625,160.3981042453694L54.09277343750001,160.3949765481052L54.1651484375,160.37928889329467L54.2797421875,160.3823872766925L54.343070312500004,160.3835667308414L54.374734374999996,160.36660642139364L54.41996875,160.32833214289064L54.4636953125,160.32365347405613L54.4787734375,160.3167072175596L54.6205078125,160.30755922307637L54.625031250000006,160.3158996644051L54.629554687500004,160.30329242523732L54.7351015625,160.33008136453176L54.7743046875,160.3244232280786L54.802953125,160.34668545072526L54.8285859375,160.3651123601982L54.84215625,160.38765021508746L54.9100078125,160.39473973903327L54.9190546875,160.41238394694813L55.0999921875,160.38851918861695L55.1135625,160.39310817884615L55.146734375,160.40206554277972L55.1512578125,160.40851807941084L55.327671875,160.39614263510612L55.3472734375,160.39530291705006L55.36084375,160.39840898898143L55.362351562499995,160.40683627190145L55.387984375,160.42005264471132L55.5161484375,160.42309738024016L55.5493203125,160.4266421876707L55.5643984375,160.44624524163092L55.623203125,160.42060344474055L55.7166875,160.40701946390286L55.7423203125,160.36743933569437L55.777,160.37815903848858L55.876515624999996,160.38539313463974L55.89159375,160.4015583666303L55.897625,160.38392525723998L55.960953125,160.3957318224251L55.9654765625,160.37916409472803L55.979046875,160.38629768525524L56.0167421875,160.40237246218425L56.072531250000004,160.3875543068749L56.2187890625,160.38210251255106L56.2519609375,160.36367953402322L56.31378125,160.34388067153L56.4117890625,160.35534714983154L56.455515625000004,160.35923061666657L56.4932109375,160.3683575549999L56.61534375,160.36852634495446L56.62137499999999,160.27631643773174L56.6289140625,160.27893115759494L56.6651015625,160.28900804183544L56.69375,160.29421541947008L56.7827109375,160.28458115025035L56.8008046875,160.29457576249803L56.829453125,160.28168727715732L56.891273437500004,160.29615491307794L56.92896875,160.3123939672247L56.9470625,160.2937009341386L57.002851562500005,160.28846265890655L57.124984375000004,160.2940463930159L57.3315546875,160.2567526628052L57.343617187499994,160.2444283056156L57.4175,160.25795547505405L57.45971875,160.21622538209408L57.624070312499995,160.18751829843015L57.7054921875,160.20239192313258L57.8080234375,160.1686318217284L57.993484375,160.1886122759192L57.9980078125,160.19066468469092L58.023640625,160.22630276167638L58.0432421875,160.2178279400542L58.049273437500005,160.22098150968515L58.068875000000006,160.2186706314439L58.1910078125,160.24104902284498L58.2000546875,160.24027139328774L58.2663984375,160.24729516304987L58.2754453125,160.2463756467449L58.30409375,160.23911171843403L58.390039062499994,160.25461872840881L58.4021015625,160.2433123101134L58.4051171875,160.23555017001115L58.4533671875,160.25382697119184L58.506140625,160.20768245589085L58.512171875,160.21185057393814L58.5860546875,160.23491097108976L58.6463671875,160.20031260125353L58.696125,160.21969952294634L58.759453125,160.24519320701535L58.87103125,160.2420702499502L58.8755546875,160.23765049768244L58.884601562499995,160.24203999336873L58.8996796875,160.24164599403187L58.99165625,160.25689957644687L59.006734375,160.24938780062035L59.0323671875,160.26129265692197L59.1183125,160.25334157304795L59.1665625,160.2619546884704L59.2374296875,160.24991467416882L59.5661328125,160.24181411584286L59.5766875,160.23098361334948L59.597796875,160.24151070655998L59.614382812500004,160.24068690863126L59.658109375,160.24123276322268L59.6731875,160.2496085778095L59.7923046875,160.22673499275584L59.8827734375,160.22465331166205L59.8978515625,160.22310161685948L59.905390624999995,160.2168778188099L60.001890625,160.18488730965618L60.068234375,160.12954585141784L60.0938671875,160.11739126627606L60.1571953125,160.11739395783027L60.194890625,160.0564118347745L60.333609375,160.06331701493343L60.405984374999996,160.03622349525827L60.627632812499996,159.99285205482335L60.654773437500005,159.89943048570464L60.7603203125,159.8927483462251L60.7663515625,159.88432078432987L60.9050703125,159.8991023422605L60.980460937500006,159.86799483530717L60.995539062499994,159.84080262450374L61.03625,159.83435145296247L61.096562500000005,159.7715835803935L61.110132812500005,159.81340794962685L61.156875,159.85024533648237L61.297101562499996,159.8621589846523L61.4116953125,159.8242867225507L61.493117187500005,159.82672805029563L61.5081953125,159.79078979072062L61.563984375,159.7973853571031L61.865546875,159.80332136684734L61.876101562500004,159.8411674119808L61.909273437500005,159.87120612532817L61.925859374999995,159.8396700582499L62.0510078125,159.87146759787944L62.052515625,159.83990538354604L62.0811640625,159.81471757246416L62.096242187499996,159.86381399703595L62.179171875,159.894806233696L62.3405078125,159.8391874285082L62.4882734375,159.87022868565737L62.492796874999996,159.8812703625462L62.50184375,159.83054514447338L62.667703124999996,159.82511972093513L62.691828125,159.780814112478L62.893875,159.72018179213927L62.945140625,159.73866543110717L62.9496640625,159.67999525163282L62.98434375,159.66677572646952L63.15321875,159.71425360836804L63.1577421875,159.6385546111676L63.163773437500005,159.65554642277812L63.1758359375,159.7101008714094L63.2180546875,159.75565987517754L63.377882812500005,159.7384138876598L63.3839140625,159.62345068071198L63.3989921875,159.6158856126408L63.487953125000004,159.6708661422858L63.602546875,159.62846952805722L63.72015625,159.67816893888786L63.904109375,159.53511749954453L63.964421875000006,159.478136658681L64.19059375,159.41188935644925L64.2192421875,159.41904405716795L64.2343203125,159.26473510599664L64.4122421875,159.27292795903332L64.5585,159.24779789040272L64.6203203125,159.27297082863518L64.679125,159.28822465486257L64.79070312500001,159.31176855301268L64.929421875,159.36626624316597L65.007828125,159.3599614370312L65.1450390625,159.37037802060078L65.20384375,159.31796385490435L65.3078828125,159.3303274694139L65.547625,159.4331729042907L65.623015625,159.4494628865889L65.6667421875,159.41279387065728L65.692375,159.3580690290461L65.8295859375,159.40150030795968L65.8446640625,159.48548209534553L65.8898984375,159.45921024944732L65.8959296875,159.35495013359352L65.9140234375,159.31164148387052L65.9803671875,159.3447509718471L66.214078125,159.38179042011694L66.23518750000001,159.40724137810525L66.28946875,159.44076724029472L66.3663671875,159.38968142535617L66.4839765625,159.46245510100235L66.5246875,159.3947186818112L66.569921875,159.34743317726645L66.756890625,159.391928041358L66.9604453125,159.40671069176764L67.010203125,159.41438325895453L67.0177421875,159.32860493305907L67.088609375,159.4201980761168L67.1142421875,159.36634190486876L67.2650234375,159.34876589620006L67.27859375,159.31251203385278L67.37057031249999,159.30434173955842L67.4338984375,159.23117665651165L67.546984375,159.2255080817696L67.5846796875,159.20640727359262L67.5907109375,159.1522074553243L67.9375078125,159.04550034615548L68.101859375,158.89378940244902L68.162171875,158.7992468258405L68.1697109375,158.8383803250746L68.72609375,158.90851774711263L68.8406875,158.86125779058318L68.8994921875,158.98687382970667L69.0382109375,159.0236573558269L69.103046875,159.13464252933514L69.19351562499999,159.090354640038L69.27192187499999,159.141730994216L69.30509375,159.09850425843075L69.4332578125,159.16950110531496L69.58253124999999,159.01424008569256L69.694109375,159.0198060771233L69.71521875,158.9121791057746L69.7468828125,158.92585937701534L69.7800546875,158.93752798476834L69.862984375,158.96202882265516L69.8705234375,159.01577866766235L69.905203125,159.0701071645325L70.05296875,159.08778644807924L70.140421875,159.03547234872585L70.27160156250001,159.07865965930782L70.42539843750001,158.9971682388316L70.568640625,159.04273777858478L70.6244296875,158.92445036436266L70.671171875,158.98034896429004L70.9395625,158.93958315877012L70.951625,158.93861575198403L70.95916406250001,158.8363723586038L70.978765625,158.90944603183434L71.3089765625,158.87657506501455L71.5683203125,158.95689210396762L71.6497421875,159.04205016629814L71.6874375,159.02246878603196L71.7341796875,159.1147464528833L71.76584375,158.98410908032224L71.89853124999999,158.96967817229003L72.20009375,159.0183185368792L72.21215625,159.01108668319128L72.239296875,158.99427983305398L72.269453125,159.0412645770213L72.4066640625,158.90204539204643L72.444359375,158.99107903465998L72.48959375,158.947631131194L72.7625078125,158.9992807453473L72.9494765625,158.9974926708126L73.07613281249999,158.9208997673677L73.09271875,158.92534069972183L73.1394609375,158.95025572065873L73.276671875,158.9934365122292L73.557125,158.91724922464266L73.5948203125,158.61439702945114L73.6159296875,158.65270641741512L73.632515625,158.65677304840088L73.6400546875,158.7410484708335L73.67171875,158.7658881692047L73.6822734375,158.83764298864787L74.00946875,158.87213232614673L74.1165234375,158.95015818444114L74.1979453125,158.97822327508794L74.20246875,158.97017367485188L74.32460156249999,158.94040176191214L74.3894375,158.93613431299366L74.43467187499999,158.92714451805793L74.7347265625,158.74849006625212L74.8191640625,158.80396287780874L75.1086640625,158.8081902263915L75.50521875,158.65172938557052L75.508234375,158.6478482651953L75.604734375,158.6110470750394L75.610765625,158.33559691299L75.6936953125,158.38279903987282L75.93796093750001,158.4367054995219L75.99375,158.53622949502426L76.0193828125,158.66184472734002L76.22896874999999,158.615920254606L76.250078125,158.63895186550906L76.30134375,158.62910758804907L76.39784375,158.5893531928805L76.6436171875,158.6843933281379L76.64964843749999,158.75898763168777L76.71599218749999,158.8188815957917L76.73559375,158.5638407089398L76.792890625,158.4118620925913L76.8245546875,158.35585770151397L76.8908984375,158.3175219313626L77.0175546875,158.44215882913542L77.1638125,158.5462865825855L77.4005390625,158.54538701523603L77.438234375,158.33539558643972L77.84232812500001,158.4485905732503L77.848359375,158.38810878865254L78.023265625,158.3645697279691L78.17404687499999,158.4745254824449L78.1936484375,158.5834620251095L78.288640625,158.49436764078038L78.324828125,158.62255996761144L78.330859375,158.4251257890321L78.3595078125,158.06721684649253L78.6610703125,158.159117889116L78.74249218749999,158.13401973656804L78.78621874999999,158.15664685382032L78.86010156249999,157.90716671389285L78.937,157.94765186068537L78.9716796875,158.00854667461684L79.0108828125,158.16810382533697L79.3094296875,158.31250980643964L79.410453125,158.36089428034114L79.42553124999999,158.31883667048885L79.43005468749999,158.38026573071267L79.5597265625,158.47336552127777L79.6622578125,158.26687533278636L79.7828828125,158.0282559813259L80.10857031249999,157.9354676559206L80.35132812500001,157.938366344874L80.4010859375,157.9313206194775L80.4101328125,157.94815037571158L80.59559374999999,157.86610806541313L80.89715625,158.02784089523544L80.9227890625,157.85158226025737L81.0192890625,157.707270397868L81.4354453125,157.88488699444483L81.57265625000001,157.95769011318217L81.6163828125,157.96464201095486L81.97825781249999,157.9202123553139L82.0777734375,158.0260093016007L82.1576875,158.101434735077L82.3220390625,158.11766580702385L82.4577421875,157.85760195359418L82.4954375,157.71719357641658L82.54368749999999,157.91457512786585L82.643203125,157.97716852417017L82.68843749999999,158.04750167175314L83.0246796875,158.12930605003237L83.1181640625,158.11201635412004L83.1362578125,158.0848701732535L83.21315625,158.13365224683724L83.258390625,158.10434247669897L83.41520312499999,157.77722459266545L83.5735234375,157.8535530424898L83.84643750000001,157.77582137460445L83.9806328125,157.58550287350766L84.000234375,157.58783713161142L84.0560234375,157.50352978208664L84.247515625,157.55123134933254L84.27465625,157.505340941672L84.57169531250001,157.63975230205025L85.1476796875,157.6279725263907L85.39646875,157.68800981920617L85.9950703125,157.75201974637645L86.13077343750001,157.69087777173883L86.28909375,157.86820272183766L86.45796874999999,157.84226699510845L86.4760625,157.94298575014304L86.7489765625,157.74270899331057L86.786671875,157.71484082125224L87.0445078125,157.56376764821792L87.08974218750001,157.55218451975975L87.5390703125,157.62575424960195L87.60842968749999,157.45929246100542L87.649140625,157.26506594217759L87.703421875,157.29059389341438L87.9311015625,157.34671632225476L87.962765625,157.25723559912018L88.0034765625,156.94048840284455L88.3261484375,157.03242592619645L88.33217968749999,157.21412878812225L88.5040703125,157.03926954567368L88.608109375,157.1910025911063L88.6307265625,157.25627960472295L88.83428125,157.1323970987961L88.9141953125,157.0217073889165L89.23385156249999,157.1143730136612L89.74801562500001,157.12182298502236L90.19282031249999,157.10487432288375L90.9889453125,157.1512487087772L91.0492578125,156.8722938378995L91.0583046875,156.80241809047317L91.62071875,156.3539917359713L91.696109375,155.39124892601055L92.244953125,155.4813849425004L92.30225,154.99353281188672L92.57968749999999,154.9651058943344L92.87521875,155.01386166853734L93.173765625,155.36620459259268L93.3984296875,155.44114504242432L93.74070312500001,155.6765805381819L93.74975,155.46882157527278L93.91862499999999,155.61154123592735L93.94275,155.39693074869825L94.1402734375,155.7161158556466L94.17796874999999,155.5603997246274L94.19003124999999,155.68527247943737L94.2443125,155.9059497769482L94.2880390625,156.17745116288972L94.4780234375,156.41343513750985L94.51571875,156.5596870783043L94.6107109375,156.60780200683752L94.84140625,156.7750054425174L94.916796875,156.79692217099296L95.4008046875,156.88953904480275L95.54404687499999,156.757919685777L95.7777578125,156.4507158990175L96.20446874999999,156.72631158184302L96.2180390625,156.53265224184054L96.3085078125,155.85535701765647L96.693,155.7568385886181L97.35040625,155.55183472975628L97.45746093749999,155.62205034768976L97.46047656249999,155.37372440382987L97.52682031249999,155.61574105435596L97.57507031249999,155.4428687671022L97.679109375,155.40603461766472L97.6941875,155.36564297408006L98.3892890625,154.54485867667205L98.52499218749999,154.79719189991394L98.83710937500001,154.71164543719527L99.3271484375,154.1712354389303L99.4839609375,154.00845462230998L100.5243515625,153.69557188735172L100.53490624999999,153.538360153162L100.59521875,153.82585322875488L101.13803125,153.6863469967885L102.2779375,152.81192047892782L102.82074999999999,152.40033752194412L103.547515625,152.15252558793154L106.00525,150.9933257564111L106.05651562499999,150.17016954440635L107.27935156250001,150.6208607717839L107.5748828125,150.5715928764237L108.559484375,148.6347999524177L110.94484375,146.17193995717594L111.0126953125,146.0309323250947L111.177046875,145.50754545622158L111.3353671875,145.7041090924176L111.8600859375,141.60131727408495L112.591375,140.821420092131L113.0180859375,139.37820444655426L118.29090624999999,137.6405112746261L124.6825234375,130.19825651079987L128.2198515625,123.33980085971987L129.6341796875,117.42593259192972L129.71409375,112.26291206000947L129.91915625,107.10482449037215L136.2866484375,102.51194476860768L143.857375,98.175929382656L147.9601328125,93.76504280802675L151.35723437500002,89.6245203454059L153.2540625,85.79281558359258L156.016375,82.49778857068787L163.5599609375,79.23699607725543L165.84580468750002,76.18321010589352L167.2933046875,73.44510091348599L167.3234609375,70.97549264031923L170.3843203125,68.54961701265094L170.391859375,66.58178622047676L170.409953125,64.59737305297453L172.7877734375,62.911164838586174L175.5591328125,61.30652562745483L183.72996874999998,59.54600306470934L185.964546875,58.064192758238406L186.5465625,56.76708984605092L187.61107812499998,55.56011358871855L190.0612734375,54.88190041166487L192.62003124999998,53.738899461407456L201.660875,53.02574133344855L204.53175000000002,51.91790629101277L204.6056328125,50.94354293463877L204.8378359375,50.17152864117489L205.85108593750002,49.593213958875566L208.07510937499998,49.21931892662438L209.510546875,48.6791024885074L214.23301562499998,47.921454057838474L220.213,47.108590470236464L221.1855390625,46.565437786849174L222.8561953125,46.07418673543697L222.99039062499997,45.52811351643874L223.2210859375,45.00237398297668L224.986734375,44.539184766497186L226.964984375,44.114108108029285L231.699515625,43.63853366086269L233.14550781249997,43.38413756750373L239.83416406249998,43.05332562893517L240.40864062499998,42.913285793314344L243.86303906249998,42.59126266852837L246.60725781250002,42.2821327653119L250.94221875,41.72103767059889L252.17711718750002,41.408177539902624L259.636265625,41.09007705863965L259.9363203125,40.85672571641203L261.056625,40.57317405386175L261.0581328125,40.35209028483919L261.05964062500004,40.010710347264364L261.0611484375,39.99761022162883L261.06265625000003,39.91083647219321" style="fill: none;" fill="none"></path></g></g></g></g><g opacity="0.2"><g><g><g><path stroke="rgb(255, 112, 67)" stroke-width="2px" d="M30.261796875,160.70312727272727L30.34321875,160.68542727272728L30.3809140625,160.44245454545455L30.391468749999998,160.65807272727272L30.4382109375,160.6966909090909L30.566375,160.65646363636364L30.6251796875,160.62910909090908L30.629703125,160.75944545454547L30.638749999999998,160.65163636363636L30.6432734375,160.5744L30.6854921875,160.65646363636364L30.6945390625,160.6806L30.8061171875,160.71921818181818L30.875476562499998,160.6645090909091L30.913171875,160.49877272727272L30.9267421875,160.6999090909091L31.106171874999998,160.73530909090908L31.1318046875,160.61784545454546L31.1529140625,160.44245454545455L31.155929687500002,160.67255454545455L31.193625,160.53095454545453L31.377578125,160.6966909090909L31.4001953125,160.54704545454547L31.466539062499997,160.59853636363636L31.471062500000002,160.61462727272726L31.477093749999998,160.61462727272726L31.4846328125,160.5904909090909L31.5479609375,160.48268181818182L31.59771875,160.65163636363636L31.6444609375,160.71921818181818L31.685171874999998,160.65163636363636L31.787703125,160.78358181818183L31.798257812499997,160.539L31.799765625,160.6806L31.802781250000002,160.6065818181818L31.890234375,160.65002727272727L31.9128515625,160.6065818181818L31.994273437500002,160.6999090909091L32.0606171875,160.6258909090909L32.0726796875,160.7514L32.0817265625,160.65002727272727L32.0877578125,160.62267272727274L32.0998203125,160.6966909090909L32.149578125,160.66933636363638L32.17671875,160.68542727272728L32.18878125,160.49072727272727L32.1948125,160.63393636363637L32.282265625,160.70312727272727L32.354640625,160.63393636363637L32.4074140625,160.5744L32.460187499999996,160.6435909090909L32.5069296875,160.68542727272728L32.565734375,160.6966909090909L32.583828125,160.49394545454544L32.58684375,160.63876363636365L32.638109375,160.65807272727272L32.7632578125,160.539L32.888406249999996,160.63876363636365L33.013554687500005,160.6629L33.024109375,160.59853636363636L33.033156250000005,160.6468090909091L33.042203125,160.67416363636363L33.2638515625,160.6999090909091L33.3513046875,160.6999090909091L33.4176484375,160.6966909090909L33.43725,160.56313636363637L33.4508203125,160.57922727272728L33.5623984375,160.65485454545455L33.603109375,160.67577272727272L33.66040625,160.69347272727273L33.6920703125,160.5583090909091L33.7146875,160.47463636363636L33.802140625,160.47463636363636L33.940859375,160.68864545454545L33.961968750000004,160.6999090909091L34.013234375,160.539L34.0237890625,160.65485454545455L34.031328125,160.6258909090909L34.04942187499999,160.57922727272728L34.115765625,160.6966909090909L34.1383828125,160.71921818181818L34.176078125,160.56313636363637L34.2258359375,160.60336363636364L34.3042421875,160.47463636363636L34.3660625,160.53095454545453L34.3856640625,160.65807272727272L34.4218515625,160.6114090909091L34.426375,160.62267272727274L34.427882812499995,160.67738181818183L34.562078125,160.61301818181818L34.571125,160.5904909090909L34.61334375,160.5550909090909L34.616359374999995,160.69347272727273L34.6600859375,160.57118181818183L34.6842109375,160.6612909090909L34.6932578125,160.71921818181818L34.767140624999996,160.61784545454546L34.8711796875,160.6999090909091L34.911890625,160.7514L34.9284765625,160.65807272727272L34.936015624999996,160.5744L35.0068828125,160.67738181818183L35.044578125,160.63876363636365L35.092828125,160.7674909090909L35.1516328125,160.65485454545455L35.157664062500004,160.63876363636365L35.219484375,160.71921818181818L35.2345625,160.6999090909091L35.2963828125,160.64198181818182L35.297890625,160.67738181818183L35.563265625,160.68542727272728L35.62659375,160.51486363636363L35.754757812499996,160.3443L35.774359374999996,160.5776181818182L35.8150703125,160.58727272727273L36.0050546875,160.4505L36.015609375000004,160.52290909090908L36.027671875,160.5583090909091L36.06084375,160.67738181818183L36.087984375000005,160.5744L36.09703125,160.362L36.148296875,160.71921818181818L36.1950390625,160.58244545454545L36.2312265625,160.68542727272728L36.3036015625,160.5904909090909L36.315664062500005,160.6612909090909L36.3443125,160.6612909090909L36.356375,160.63071818181817L36.4408125,160.6645090909091L36.477,160.65324545454547L36.5056484375,160.5904909090909L36.5086640625,160.70312727272727L36.5267578125,160.5550909090909L36.606671875,160.63876363636365L36.648890625,160.47463636363636L36.709203124999995,160.6452L36.8584765625,160.65002727272727L36.8856171875,160.67738181818183L36.9459296875,160.62910909090908L36.968546875,160.5550909090909L36.97759375,160.66933636363638L37.1992421875,160.47463636363636L37.221859375,160.63071818181817L37.230906250000004,160.6098L37.2655859375,160.6966909090909L37.303281250000005,160.65002727272727L37.35153125,160.6612909090909L37.44803125,160.6966909090909L37.469140624999994,160.6468090909091L37.535484375,160.62267272727274L37.559609375,160.6275L37.5973046875,160.6258909090909L37.610875,160.6468090909091L37.6938046875,160.5953181818182L37.7299921875,160.57922727272728L37.8400625,160.5953181818182L37.871726562499994,160.58244545454545L37.90942187500001,160.57922727272728L38.064726562500006,160.56635454545454L38.120515625,160.539L38.2064609375,160.44245454545455L38.2818515625,160.6999090909091L38.30446875,160.67577272727272L38.310500000000005,160.61462727272726L38.3225625,160.61462727272726L38.327085937499994,160.3459090909091L38.388906250000005,160.44245454545455L38.408507812500005,160.65002727272727L38.426601562500004,160.61462727272726L38.446203125000004,160.5583090909091L38.574367187499995,160.6468090909091L38.6196015625,160.67738181818183L38.64221875,160.539L38.6799140625,160.65807272727272L38.808078125,160.52290909090908L38.820140625,160.67577272727272L38.859343749999994,160.6468090909091L38.8698984375,160.5904909090909L38.9256875,160.58727272727273L38.9694140625,160.53095454545453L38.999570312500005,160.5953181818182L39.062898437499996,160.61945454545454L39.076468750000004,160.52290909090908L39.157890625,160.69186363636362L39.17296875,160.6999090909091L39.2227265625,160.49072727272727L39.323750000000004,160.6806L39.3976328125,160.67255454545455L39.4338203125,160.49877272727272L39.441359375,160.61784545454546L39.4488984375,160.53095454545453L39.5001640625,160.6435909090909L39.524289062499996,160.61462727272726L39.563492187499996,160.6999090909091L39.623804687500005,160.61462727272726L39.681101562500004,160.5953181818182L39.7383984375,160.6612909090909L39.751968749999996,160.59853636363636L39.821328125,160.57922727272728L39.839421875,160.6645090909091L39.8439453125,160.6645090909091L39.875609375,160.60336363636364L39.987187500000005,160.68220909090908L40.008296875,160.56313636363637L40.0490078125,160.63071818181817L40.06559375,160.5744L40.076148437499995,160.51486363636363L40.0836875,160.69347272727273L40.2239140625,160.68542727272728L40.2420078125,160.73530909090908L40.327953125,160.64198181818182L40.3475546875,160.39096363636364L40.3927890625,160.69186363636362L40.409375,160.65807272727272L40.412390625,160.70312727272727L40.442546875000005,160.39096363636364L40.533015625,160.52290909090908L40.5435703125,160.539L40.683796875,160.52290909090908L40.69284375,160.4665909090909L40.732046875,160.68542727272728L40.7546640625,160.57118181818183L40.828546875,160.57922727272728L40.87378125,160.41027272727274L40.8903671875,160.65324545454547L40.9024296875,160.5776181818182L41.083367187499995,160.69186363636362L41.178359375,160.5904909090909L41.2009765625,160.68542727272728L41.2281171875,160.49877272727272L41.3668359375,160.49877272727272L41.5553125,160.6452L41.5598359375,160.67416363636363L41.6261796875,160.6275L41.663875,160.5550909090909L41.666890625,160.539L41.6895078125,160.56635454545454L41.71815625,160.57922727272728L41.793546875000004,160.64198181818182L41.8342578125,160.65163636363636L41.8704453125,160.6098L41.959406249999994,160.5583090909091L42.1177265625,160.6999090909091L42.149390624999995,160.5953181818182L42.179546875,160.49877272727272L42.202164062499996,160.5695727272727L42.28358593750001,160.51486363636363L42.3755625,160.57922727272728L42.408734375,160.48268181818182L42.46603125,160.67738181818183L42.511265625,160.59853636363636L42.6409375,160.67738181818183L42.6605390625,160.5550909090909L42.7027578125,160.44245454545455L42.764578125,160.57118181818183L42.77965625,160.53417272727273L42.821875,160.63715454545454L42.87615625,160.48268181818182L42.88821875,160.63876363636365L42.897265625,160.39096363636364L42.9198828125,160.66611818181818L42.9349609375,160.62267272727274L42.971148437500005,160.68542727272728L43.039,160.56635454545454L43.090265625,160.60497272727272L43.1219296875,160.51486363636363L43.162640625,160.4505L43.2214453125,160.61301818181818L43.334531250000005,160.30568181818182L43.4023828125,160.5550909090909L43.41896875,160.58244545454545L43.497375,160.61462727272726L43.512453125,160.6065818181818L43.560703125,160.57922727272728L43.6134765625,160.65324545454547L43.728070312499995,160.6612909090909L43.780843749999995,160.68864545454545L43.94971875,160.5550909090909L44.0537578125,160.6966909090909L44.08994531250001,160.6806L44.097484375,160.49877272727272L44.17890625,160.58244545454545L44.2346953125,160.38774545454547L44.240726562499994,160.59853636363636L44.290484375,160.60175454545455L44.2980234375,160.4183181818182L44.399046875,160.61462727272726L44.424679687499996,160.539L44.438250000000004,160.6612909090909L44.5151484375,160.4344090909091L44.5362578125,160.47463636363636L44.742828125,160.6612909090909L44.766953125,160.5904909090909L44.82425,160.3459090909091L44.833296875,160.67738181818183L44.857421875,160.67094545454546L44.8770234375,160.58727272727273L44.880039062499996,160.6999090909091L44.923765624999994,160.61784545454546L44.925273437499996,160.68542727272728L44.9313046875,160.49072727272727L44.9493984375,160.5904909090909L45.020265625,160.5904909090909L45.054945312499996,160.3603909090909L45.101687500000004,160.6999090909091L45.15596875000001,160.4344090909091L45.165015625,160.42636363636365L45.1816015625,160.63393636363637L45.2811171875,160.539L45.2946875,160.68703636363637L45.297703125,160.5550909090909L45.36404687500001,160.70312727272727L45.4047578125,160.57118181818183L45.430390625,160.5904909090909L45.4469765625,160.57118181818183L45.587203124999995,160.49877272727272L45.5887109375,160.65807272727272L45.61132812500001,160.45854545454546L45.626406249999995,160.56152727272726L45.668625000000006,160.6275L45.7756796875,160.75944545454547L45.81940625,160.42636363636365L45.8601171875,160.48268181818182L45.8872578125,160.41027272727274L45.967171875,160.49072727272727L45.9943125,160.70312727272727L46.0048671875,160.58244545454545L46.039546875,160.54704545454547L46.0742265625,160.49877272727272L46.1496171875,160.38774545454547L46.1556484375,160.38452727272727L46.18278906250001,160.49877272727272L46.237070312499995,160.5744L46.2461171875,160.63393636363637L46.2672265625,160.70312727272727L46.309445312499996,160.6258909090909L46.3788046875,160.70312727272727L46.3938828125,160.54704545454547L46.4119765625,160.44245454545455L46.4692734375,160.5904909090909L46.473796875,160.64198181818182L46.5868828125,160.59853636363636L46.606484375,160.58244545454545L46.692429687499995,160.6838181818182L46.7406796875,160.57922727272728L46.758773437500004,160.5550909090909L46.7859140625,160.56635454545454L46.8462265625,160.61784545454546L46.880906249999995,160.62267272727274L46.927648437500004,160.19787272727274L47.000023437500005,160.48268181818182L47.0663671875,160.56313636363637L47.11009375,160.3941818181818L47.186992187499996,160.3941818181818L47.253335937500005,160.38774545454547L47.3106328125,160.42636363636365L47.3211875,160.56313636363637L47.4011015625,160.65807272727272L47.499109375,160.47463636363636L47.5760078125,160.48268181818182L47.597117187500004,160.35717272727274L47.631796875,160.51003636363637L47.7629765625,160.3941818181818L47.842890625,160.42636363636365L47.8986796875,160.539L47.9725625,160.63071818181817L47.9770859375,160.52290909090908L47.9951796875,160.41027272727274L48.026843750000005,160.5953181818182L48.035890625,160.58727272727273L48.066046875000005,160.68542727272728L48.084140625,160.64037272727273L48.1338984375,160.37648181818182L48.1489765625,160.58244545454545L48.293726562500005,160.6258909090909L48.332929687500005,160.3459090909091L48.355546875,160.60336363636364L48.4233984375,160.57922727272728L48.458078125,160.41027272727274L48.4746640625,160.41027272727274L48.5349765625,160.65163636363636L48.56965625,160.4505L48.5862421875,160.5583090909091L48.67821875,160.4505L48.6887734375,160.42636363636365L48.7521015625,160.6114090909091L48.7671796875,160.38291818181818L48.7943203125,160.48268181818182L48.8033671875,160.61784545454546L48.850109375,160.3797L48.9300234375,160.27832727272727L48.9360546875,160.64198181818182L48.93907031249999,160.41027272727274L48.9722421875,160.5744L49.00390625,160.62267272727274L49.043109375,160.63554545454545L49.0657265625,160.6966909090909L49.12453125,160.53095454545453L49.1411171875,160.65002727272727L49.1531796875,160.63876363636365L49.171273437500005,160.63071818181817L49.1833359375,160.58244545454545L49.2949140625,160.5953181818182L49.408,160.59853636363636L49.441171875,160.53095454545453L49.468312499999996,160.56313636363637L49.49846875,160.63393636363637L49.501484375,160.5695727272727L49.5753671875,160.6065818181818L49.688453125,160.29763636363637L49.6929765625,160.66933636363638L49.700515625,160.58566363636365L49.7020234375,160.56313636363637L49.7563046875,160.44245454545455L49.8799453125,160.53095454545453L49.959859375,160.5904909090909L50.032234375,160.47463636363636L50.134765625,160.61945454545454L50.23277343749999,160.52290909090908L50.249359375,160.51486363636363L50.30967187500001,160.47463636363636L50.347367187500005,160.56313636363637L50.3805390625,160.26223636363636L50.445375000000006,160.41027272727274L50.4815625,160.58244545454545L50.569015625,160.61945454545454L50.633851562500006,160.3941818181818L50.6428984375,160.6114090909091L50.742414062499996,160.63876363636365L50.8057421875,160.47463636363636L50.861531250000006,160.2381L50.876609374999994,160.539L50.911289062499996,160.539L50.948984375,160.56313636363637L51.0319140625,160.44245454545455L51.09675,160.66611818181818L51.182695312499995,160.44245454545455L51.223406250000004,160.49877272727272L51.226421875,160.41027272727274L51.2535625,160.58244545454545L51.3063359375,160.66611818181818L51.3244296875,160.52290909090908L51.41640625,160.62267272727274L51.4601328125,160.68542727272728L51.521953124999996,160.5953181818182L51.549093750000004,160.39096363636364L51.606390625,160.4505L51.6290078125,160.42636363636365L51.710429687499996,160.50681818181818L51.7224921875,160.42636363636365L51.77225,160.4183181818182L51.835578125000005,160.35556363636363L51.8672421875,160.42636363636365L51.87478125,160.28154545454547L51.941125,160.41027272727274L52.0180234375,160.39096363636364L52.058734375,160.49072727272727L52.11,160.57922727272728L52.1235703125,160.31855454545456L52.1416640625,160.49072727272727L52.233640625,160.39096363636364L52.375375,160.49877272727272L52.379898437499996,160.539L52.4130703125,160.4505L52.4854453125,160.36682727272728L52.5321875,160.539L52.553296875,160.67255454545455L52.5849609375,160.4665909090909L52.6332109375,160.52290909090908L52.68296875,160.55026363636364L52.7206640625,160.41027272727274L52.723679687499995,160.39096363636364L52.7387578125,160.52290909090908L52.878984375,160.39096363636364L52.8895390625,160.56313636363637L53.0192109375,160.39096363636364L53.02071875,160.69347272727273L53.023734375,160.38291818181818L53.0493671875,160.4183181818182L53.133804687499996,160.49877272727272L53.20165625,160.68542727272728L53.239351562500005,160.5550909090909L53.258953125000005,160.31372727272728L53.308710937499995,160.35878181818182L53.317757812500005,160.27028181818181L53.436875,160.57118181818183L53.518296875,160.27028181818181L53.581625,160.3941818181818L53.58765625,160.3941818181818L53.6163046875,160.48268181818182L53.822874999999996,160.41027272727274L53.9088203125,160.5550909090909L53.94953125,160.1335090909091L53.997781249999996,160.37165454545453L54.0173828125,160.38774545454547L54.02190625,160.28959090909092L54.09277343750001,160.36682727272728L54.1651484375,160.2381L54.2797421875,160.41027272727274L54.343070312500004,160.3941818181818L54.374734374999996,160.21396363636364L54.41996875,159.98386363636365L54.4636953125,160.28154545454547L54.4787734375,160.2541909090909L54.6205078125,160.22522727272727L54.625031250000006,160.39096363636364L54.629554687500004,160.18982727272726L54.7351015625,160.57118181818183L54.7743046875,160.2735L54.802953125,160.54704545454547L54.8285859375,160.53095454545453L54.84215625,160.5904909090909L54.9100078125,160.45854545454546L54.9190546875,160.57118181818183L55.0999921875,160.17373636363635L55.1135625,160.4344090909091L55.146734375,160.48268181818182L55.1512578125,160.4665909090909L55.327671875,160.28476363636364L55.3472734375,160.38774545454547L55.36084375,160.42636363636365L55.362351562499995,160.48268181818182L55.387984375,160.539L55.5161484375,160.4505L55.5493203125,160.45854545454546L55.5643984375,160.62267272727274L55.623203125,160.18982727272726L55.7166875,160.28476363636364L55.7423203125,160.01121818181818L55.777,160.47463636363636L55.876515624999996,160.4505L55.89159375,160.54704545454547L55.897625,160.22522727272727L55.960953125,160.50199090909092L55.9654765625,160.23005454545455L55.979046875,160.4505L56.0167421875,160.54704545454547L56.072531250000004,160.2541909090909L56.2187890625,160.33303636363635L56.2519609375,160.19787272727274L56.31378125,160.1656909090909L56.4117890625,160.45854545454546L56.455515625000004,160.3941818181818L56.4932109375,160.4505L56.61534375,160.37004545454545L56.62137499999999,159.44642727272728L56.6289140625,160.30246363636363L56.6651015625,160.3797L56.69375,160.3410818181818L56.7827109375,160.19787272727274L56.8008046875,160.38452727272727L56.829453125,160.1656909090909L56.891273437500004,160.42636363636365L56.92896875,160.45854545454546L56.9470625,160.12546363636363L57.002851562500005,160.24131818181817L57.124984375000004,160.3443L57.3315546875,159.92110909090908L57.343617187499994,160.1335090909091L57.4175,160.3797L57.45971875,159.84065454545456L57.624070312499995,159.92915454545454L57.7054921875,160.33625454545455L57.8080234375,159.8647909090909L57.993484375,160.36843636363636L57.9980078125,160.20913636363636L58.023640625,160.54704545454547L58.0432421875,160.14155454545454L58.049273437500005,160.24936363636363L58.068875000000006,160.19787272727274L58.1910078125,160.44245454545455L58.2000546875,160.23327272727272L58.2663984375,160.31050909090908L58.2754453125,160.2381L58.30409375,160.17373636363635L58.390039062499994,160.3941818181818L58.4021015625,160.14155454545454L58.4051171875,160.1656909090909L58.4533671875,160.4183181818182L58.506140625,159.7923818181818L58.512171875,160.24936363636363L58.5860546875,160.44245454545455L58.6463671875,159.88892727272727L58.696125,160.3941818181818L58.759453125,160.47463636363636L58.87103125,160.21396363636364L58.8755546875,160.19787272727274L58.884601562499995,160.28154545454547L58.8996796875,160.2381L58.99165625,160.3941818181818L59.006734375,160.18178181818183L59.0323671875,160.36843636363636L59.1183125,160.18178181818183L59.1665625,160.33947272727272L59.2374296875,160.14155454545454L59.5661328125,160.1689090909091L59.5766875,160.1335090909091L59.597796875,160.33625454545455L59.614382812500004,160.23327272727272L59.658109375,160.24614545454546L59.6731875,160.3249909090909L59.7923046875,160.02087272727272L59.8827734375,160.2059181818182L59.8978515625,160.20913636363636L59.905390624999995,160.16086363636364L60.001890625,159.89697272727273L60.068234375,159.63147272727272L60.0938671875,160.008L60.1571953125,160.11741818181818L60.194890625,159.50757272727273L60.333609375,160.12546363636363L60.405984374999996,159.7923818181818L60.627632812499996,159.60250909090908L60.654773437500005,159.05863636363637L60.7603203125,159.8326090909091L60.7663515625,159.80847272727272L60.9050703125,160.03213636363637L60.980460937500006,159.58802727272726L60.995539062499994,159.5960727272727L61.03625,159.7762909090909L61.096562500000005,159.20667272727272L61.110132812500005,160.18982727272726L61.156875,160.18178181818183L61.297101562499996,159.96938181818183L61.4116953125,159.48343636363637L61.493117187500005,159.8487L61.5081953125,159.46734545454547L61.563984375,159.85674545454546L61.865546875,159.85674545454546L61.876101562500004,160.18178181818183L61.909273437500005,160.14155454545454L61.925859374999995,159.55584545454545L62.0510078125,160.15764545454545L62.052515625,159.55584545454545L62.0811640625,159.58802727272726L62.096242187499996,160.30568181818182L62.179171875,160.17373636363635L62.3405078125,159.3386181818182L62.4882734375,160.1496L62.492796874999996,159.98064545454545L62.50184375,159.37401818181817L62.667703124999996,159.7762909090909L62.691828125,159.38206363636363L62.893875,159.1744909090909L62.945140625,159.90501818181818L62.9496640625,159.15196363636363L62.98434375,159.5478L63.15321875,160.14155454545454L63.1577421875,158.95726363636365L63.163773437500005,159.80847272727272L63.1758359375,160.2010909090909L63.2180546875,160.1656909090909L63.377882812500005,159.5832L63.3839140625,158.58878181818181L63.3989921875,159.5478L63.487953125000004,160.1656909090909L63.602546875,159.2469L63.72015625,160.12546363636363L63.904109375,158.24765454545454L63.964421875000006,158.9653090909091L64.19059375,158.81566363636364L64.2192421875,159.48343636363637L64.2343203125,157.87595454545453L64.4122421875,159.34666363636364L64.5585,159.02162727272727L64.6203203125,159.49952727272728L64.679125,159.4255090909091L64.79070312500001,159.52366363636364L64.929421875,159.85674545454546L65.007828125,159.30321818181818L65.1450390625,159.46412727272727L65.20384375,158.84623636363636L65.3078828125,159.4416L65.547625,160.35878181818182L65.623015625,159.5960727272727L65.6667421875,159.08277272727273L65.692375,158.86554545454544L65.8295859375,159.7923818181818L65.8446640625,160.24131818181817L65.8898984375,159.22276363636362L65.8959296875,158.4166090909091L65.9140234375,158.92186363636364L65.9803671875,159.64273636363637L66.214078125,159.71514545454545L66.23518750000001,159.6363L66.28946875,159.7425L66.3663671875,158.9299090909091L66.4839765625,160.11741818181818L66.5246875,158.7850909090909L66.569921875,158.92186363636364L66.756890625,159.7923818181818L66.9604453125,159.53975454545454L67.010203125,159.48343636363637L67.0177421875,158.5566L67.088609375,160.24453636363637L67.1142421875,158.88163636363637L67.2650234375,159.1905818181818L67.27859375,158.98622727272726L67.37057031249999,159.23080909090908L67.4338984375,158.5726909090909L67.546984375,159.1744909090909L67.5846796875,159.0345L67.5907109375,158.6644090909091L67.9375078125,158.08513636363637L68.101859375,157.52839090909092L68.162171875,157.94836363636364L68.1697109375,159.1905818181818L68.72609375,159.53975454545454L68.8406875,158.43591818181818L68.8994921875,160.11741818181818L69.0382109375,159.3547090909091L69.103046875,160.1335090909091L69.19351562499999,158.69176363636365L69.27192187499999,159.6041181818182L69.30509375,158.70946363636364L69.4332578125,159.80847272727272L69.58253124999999,157.6168909090909L69.694109375,159.0699L69.71521875,157.94353636363635L69.7468828125,159.04898181818183L69.7800546875,159.04254545454546L69.862984375,159.18253636363636L69.8705234375,159.49952727272728L69.905203125,159.55906363636365L70.05296875,159.2469L70.140421875,158.56464545454546L70.27160156250001,159.46734545454547L70.42539843750001,158.26374545454544L70.568640625,159.45286363636365L70.6244296875,157.85986363636363L70.671171875,159.48343636363637L70.9395625,158.5726909090909L70.951625,158.9299090909091L70.95916406250001,157.91618181818183L70.978765625,159.5671090909091L71.3089765625,158.58073636363636L71.5683203125,159.67974545454547L71.6497421875,159.80847272727272L71.6874375,158.84623636363636L71.7341796875,159.94524545454544L71.76584375,157.80837272727274L71.89853124999999,158.8398L72.20009375,159.45608181818181L72.21215625,158.946L72.239296875,158.8430181818182L72.269453125,159.46412727272727L72.4066640625,157.64907272727274L72.444359375,159.7923818181818L72.48959375,158.5566L72.7625078125,159.46412727272727L72.9494765625,158.9814L73.07613281249999,158.23156363636363L73.09271875,158.9653090909091L73.1394609375,159.1744909090909L73.276671875,159.38206363636363L73.557125,158.23156363636363L73.5948203125,155.88872727272727L73.6159296875,158.9974909090909L73.632515625,158.69337272727273L73.6400546875,159.49952727272728L73.67171875,158.98944545454546L73.6822734375,159.48343636363637L74.00946875,159.18253636363636L74.1165234375,159.6523909090909L74.1979453125,159.23080909090908L74.20246875,158.89772727272728L74.32460156249999,158.67245454545454L74.3894375,158.89772727272728L74.43467187499999,158.84623636363636L74.7347265625,157.1406L74.8191640625,159.30321818181818L75.1086640625,158.84623636363636L75.50521875,157.2435818181818L75.508234375,158.61291818181817L75.604734375,158.27983636363638L75.610765625,155.85654545454545L75.6936953125,158.80761818181819L75.93796093750001,158.92186363636364L75.99375,159.43194545454546L76.0193828125,159.7923818181818L76.22896874999999,158.2026L76.250078125,158.84623636363636L76.30134375,158.5405090909091L76.39784375,158.23156363636363L76.6436171875,159.53975454545454L76.64964843749999,159.43033636363637L76.71599218749999,159.35792727272727L76.73559375,156.26847272727272L76.792890625,157.04405454545454L76.8245546875,157.85181818181817L76.8908984375,157.9725L77.0175546875,159.5638909090909L77.1638125,159.48343636363637L77.4005390625,158.5372909090909L77.438234375,156.44547272727272L77.84232812500001,159.46734545454547L77.848359375,157.84377272727272L78.023265625,158.1527181818182L78.17404687499999,159.46412727272727L78.1936484375,159.5638909090909L78.288640625,157.69251818181817L78.324828125,159.7762909090909L78.330859375,156.64821818181818L78.3595078125,154.84603636363636L78.6610703125,158.98622727272726L78.74249218749999,157.90813636363637L78.78621874999999,158.3602909090909L78.86010156249999,155.66184545454544L78.937,158.3120181818182L78.9716796875,158.5566L79.0108828125,159.6041181818182L79.3094296875,159.61216363636365L79.410453125,158.79635454545453L79.42553124999999,157.94031818181818L79.43005468749999,158.93312727272726L79.5597265625,159.31126363636363L79.6622578125,156.40846363636365L79.7828828125,155.8806818181818L80.10857031249999,157.1003727272727L80.35132812500001,157.96445454545454L80.4010859375,157.86790909090908L80.4101328125,158.0996181818182L80.59559374999999,157.12772727272727L80.89715625,159.48343636363637L80.9227890625,156.26525454545455L81.0192890625,156.40846363636365L81.4354453125,159.48343636363637L81.57265625000001,158.61291818181817L81.6163828125,158.02720909090908L81.97825781249999,157.52034545454546L82.0777734375,158.9781818181818L82.1576875,158.78026363636363L82.3220390625,158.26374545454544L82.4577421875,155.51702727272726L82.4954375,156.4535181818182L82.54368749999999,159.6910090909091L82.643203125,158.5405090909091L82.68843749999999,158.6805L83.0246796875,158.86554545454544L83.1181640625,157.9564090909091L83.1362578125,157.84055454545455L83.21315625,158.5726909090909L83.258390625,157.84055454545455L83.41520312499999,154.83316363636362L83.5735234375,158.5405090909091L83.84643750000001,157.07623636363635L83.9806328125,155.87263636363636L84.000234375,157.60884545454545L84.0560234375,156.74476363636364L84.247515625,157.98054545454545L84.27465625,157.0923272727273L84.57169531250001,158.84945454545453L85.1476796875,157.52195454545455L85.39646875,158.22834545454546L85.9950703125,158.3281090909091L86.13077343750001,157.1406L86.28909375,159.46412727272727L86.45796874999999,157.60884545454545L86.4760625,158.84945454545453L86.7489765625,155.94021818181818L86.786671875,157.46402727272726L87.0445078125,156.2041090909091L87.08974218750001,157.44793636363636L87.5390703125,158.2878818181818L87.60842968749999,155.96113636363637L87.649140625,155.51702727272726L87.703421875,157.52034545454546L87.9311015625,157.85181818181817L87.962765625,156.45190909090908L88.0034765625,154.08976363636364L88.3261484375,157.85986363636363L88.33217968749999,158.84945454545453L88.5040703125,155.46553636363637L88.608109375,158.5566L88.6307265625,157.84377272727272L88.83428125,156.01745454545454L88.9141953125,156.0255L89.23385156249999,157.94836363636364L89.74801562500001,157.18887272727272L90.19282031249999,156.95233636363636L90.9889453125,157.56861818181818L91.0492578125,154.36169999999998L91.0583046875,156.17353636363637L91.62071875,152.31815454545455L91.696109375,146.72656363636364L92.244953125,156.29260909090908L92.30225,150.60286363636362L92.57968749999999,154.70926363636363L92.87521875,155.45266363636364L93.173765625,158.5372909090909L93.3984296875,156.1156090909091L93.74070312500001,157.7955L93.74975,153.5989909090909L93.91862499999999,156.8960181818182L93.94275,153.46543636363637L94.1402734375,158.58878181818181L94.17796874999999,154.15895454545455L94.19003124999999,156.80912727272727L94.2443125,157.89204545454544L94.2880390625,158.62096363636363L94.4780234375,158.5372909090909L94.51571875,157.87595454545453L94.6107109375,157.04083636363637L94.84140625,158.27983636363638L94.916796875,156.9941727272727L95.4008046875,157.7230909090909L95.54404687499999,155.57334545454546L95.7777578125,153.68588181818183L96.20446874999999,159.20667272727272L96.2180390625,154.7897181818182L96.3085078125,149.7597L96.693,154.87017272727272L97.35040625,153.7068L97.45746093749999,156.2539909090909L97.46047656249999,153.13879090909091L97.52682031249999,157.79389090909092L97.57507031249999,153.88701818181818L97.679109375,155.07452727272727L97.6941875,155.0021181818182L98.3892890625,147.1578L98.52499218749999,157.0681909090909L98.83710937500001,153.94172727272726L99.3271484375,149.30754545454545L99.4839609375,152.54342727272729L100.5243515625,150.87962727272728L100.53490624999999,152.12345454545454L100.59521875,156.4132909090909L101.13803125,152.43079090909092L102.2779375,144.9420818181818L102.82074999999999,148.6960909090909L103.547515625,149.92221818181818L106.00525,140.56052727272728L106.05651562499999,142.76176363636364L107.27935156250001,154.67708181818182L107.5748828125,150.12818181818182L108.559484375,131.20366363636364L110.94484375,124.0062L111.0126953125,144.76186363636364L111.177046875,140.79706363636365L111.3353671875,147.4731818181818L111.8600859375,104.6761909090909L112.591375,133.80234545454545L113.0180859375,126.38926363636364L118.29090624999999,122.00127272727272L124.6825234375,63.217963636363635L128.2198515625,61.613699999999994L129.6341796875,64.20111818181819L129.71409375,65.79572727272726L129.91915625,60.68203636363636L136.2866484375,61.17602727272727L143.857375,59.151790909090906L147.9601328125,54.06706363636364L151.35723437500002,52.359818181818184L153.2540625,51.307472727272724L156.016375,52.84254545454546L163.5599609375,49.88986363636363L165.84580468750002,48.69913636363637L167.2933046875,48.8021181818182L167.3234609375,48.74901818181817L170.3843203125,46.71673636363636L170.391859375,48.87130909090908L170.409953125,46.73765454545455L172.7877734375,47.73529090909091L175.5591328125,46.86477272727274L183.72996874999998,43.7013L185.964546875,44.727900000000005L186.5465625,45.09316363636364L187.61107812499998,44.69732727272728L190.0612734375,48.777981818181814L192.62003124999998,43.451890909090906L201.660875,46.60731818181819L204.53175000000002,41.94739090909093L204.6056328125,42.17427272727272L204.8378359375,43.2234L205.85108593750002,44.38838181818181L208.07510937499998,45.85426363636364L209.510546875,43.81715454545454L214.23301562499998,41.10261818181817L220.213,39.79281818181818L221.1855390625,41.67706363636364L222.8561953125,41.65292727272728L222.99039062499997,40.613454545454545L223.2210859375,40.27071818181818L224.986734375,40.370481818181815L226.964984375,40.28841818181817L231.699515625,39.358363636363634L233.14550781249997,41.09457272727272L239.83416406249998,40.0760181818182L240.40864062499998,41.65292727272728L243.86303906249998,39.693054545454544L246.60725781250002,39.499963636363645L250.94221875,36.67118181818182L252.17711718750002,38.59243636363635L259.636265625,38.227172727272745L259.9363203125,38.75656363636364L261.056625,38.02120909090911L261.0581328125,38.36233636363636L261.05964062500004,36.93829090909091L261.0611484375,39.8797090909091L261.06265625000003,39.129872727272726" style="fill: none;" fill="none"></path></g></g></g></g></g></g><g transform="translate(58, 177)" clip-path="url(#clip_1)"><clipPath id="clip_1"><rect width="271" height="23"></rect></clipPath><g><g><line x1="0" y1="0" x2="0" y2="5" style="visibility: inherit;" fill="rgb(0, 0, 0)" stroke="rgb(204, 204, 204)" stroke-width="1px"></line><line x1="30.15625" y1="0" x2="30.15625" y2="5" style="visibility: inherit;" fill="rgb(0, 0, 0)" stroke="rgb(204, 204, 204)" stroke-width="1px"></line><line x1="60.3125" y1="0" x2="60.3125" y2="5" style="visibility: inherit;" fill="rgb(0, 0, 0)" stroke="rgb(204, 204, 204)" stroke-width="1px"></line><line x1="90.46875" y1="0" x2="90.46875" y2="5" style="visibility: inherit;" fill="rgb(0, 0, 0)" stroke="rgb(204, 204, 204)" stroke-width="1px"></line><line x1="120.625" y1="0" x2="120.625" y2="5" style="visibility: inherit;" fill="rgb(0, 0, 0)" stroke="rgb(204, 204, 204)" stroke-width="1px"></line><line x1="150.78125" y1="0" x2="150.78125" y2="5" style="visibility: inherit;" fill="rgb(0, 0, 0)" stroke="rgb(204, 204, 204)" stroke-width="1px"></line><line x1="180.9375" y1="0" x2="180.9375" y2="5" style="visibility: inherit;" fill="rgb(0, 0, 0)" stroke="rgb(204, 204, 204)" stroke-width="1px"></line><line x1="211.09375" y1="0" x2="211.09375" y2="5" style="visibility: inherit;" fill="rgb(0, 0, 0)" stroke="rgb(204, 204, 204)" stroke-width="1px"></line><line x1="241.25" y1="0" x2="241.25" y2="5" style="visibility: inherit;" fill="rgb(0, 0, 0)" stroke="rgb(204, 204, 204)" stroke-width="1px"></line><line x1="271.40625" y1="0" x2="271.40625" y2="5" style="visibility: inherit;" fill="rgb(0, 0, 0)" stroke="rgb(204, 204, 204)" stroke-width="1px"></line></g><g transform="translate(0, 8)"><text x="0" y="0" dx="0em" dy="0.95em" style="text-anchor: middle; visibility: hidden; font-family: &quot;Helvetica Neue&quot;, sans-serif; font-size: 12px; font-weight: 200;" fill="rgb(50, 49, 63)" stroke="none" stroke-width="1px">-20k</text><text x="30.15625" y="0" dx="0em" dy="0.95em" style="text-anchor: middle; visibility: inherit; font-family: &quot;Helvetica Neue&quot;, sans-serif; font-size: 12px; font-weight: 200;" fill="rgb(50, 49, 63)" stroke="none" stroke-width="1px">0</text><text x="60.3125" y="0" dx="0em" dy="0.95em" style="text-anchor: middle; visibility: hidden; font-family: &quot;Helvetica Neue&quot;, sans-serif; font-size: 12px; font-weight: 200;" fill="rgb(50, 49, 63)" stroke="none" stroke-width="1px">20k</text><text x="90.46875" y="0" dx="0em" dy="0.95em" style="text-anchor: middle; visibility: inherit; font-family: &quot;Helvetica Neue&quot;, sans-serif; font-size: 12px; font-weight: 200;" fill="rgb(50, 49, 63)" stroke="none" stroke-width="1px">40k</text><text x="120.625" y="0" dx="0em" dy="0.95em" style="text-anchor: middle; visibility: hidden; font-family: &quot;Helvetica Neue&quot;, sans-serif; font-size: 12px; font-weight: 200;" fill="rgb(50, 49, 63)" stroke="none" stroke-width="1px">60k</text><text x="150.78125" y="0" dx="0em" dy="0.95em" style="text-anchor: middle; visibility: inherit; font-family: &quot;Helvetica Neue&quot;, sans-serif; font-size: 12px; font-weight: 200;" fill="rgb(50, 49, 63)" stroke="none" stroke-width="1px">80k</text><text x="180.9375" y="0" dx="0em" dy="0.95em" style="text-anchor: middle; visibility: hidden; font-family: &quot;Helvetica Neue&quot;, sans-serif; font-size: 12px; font-weight: 200;" fill="rgb(50, 49, 63)" stroke="none" stroke-width="1px">100k</text><text x="211.09375" y="0" dx="0em" dy="0.95em" style="text-anchor: middle; visibility: inherit; font-family: &quot;Helvetica Neue&quot;, sans-serif; font-size: 12px; font-weight: 200;" fill="rgb(50, 49, 63)" stroke="none" stroke-width="1px">120k</text><text x="241.25" y="0" dx="0em" dy="0.95em" style="text-anchor: middle; visibility: hidden; font-family: &quot;Helvetica Neue&quot;, sans-serif; font-size: 12px; font-weight: 200;" fill="rgb(50, 49, 63)" stroke="none" stroke-width="1px">140k</text><text x="271.40625" y="0" dx="0em" dy="0.95em" style="text-anchor: middle; visibility: hidden; font-family: &quot;Helvetica Neue&quot;, sans-serif; font-size: 12px; font-weight: 200;" fill="rgb(50, 49, 63)" stroke="none" stroke-width="1px">160k</text></g><line x1="0" y1="0" x2="271.40625" y2="0" fill="rgb(0, 0, 0)" stroke="rgb(204, 204, 204)" stroke-width="1px"></line></g></g></g></g></svg>