<svg viewBox="0 0 330 200" xmlns="http://www.w3.org/2000/svg"><g><g><g><g><g><line x1="29.4375" y1="177" x2="24.4375" y2="177" style="visibility: inherit;" fill="rgb(0, 0, 0)" stroke="rgb(204, 204, 204)" stroke-width="1px"></line><line x1="29.4375" y1="157.33333333333334" x2="24.4375" y2="157.33333333333334" style="visibility: inherit;" fill="rgb(0, 0, 0)" stroke="rgb(204, 204, 204)" stroke-width="1px"></line><line x1="29.4375" y1="137.66666666666669" x2="24.4375" y2="137.66666666666669" style="visibility: inherit;" fill="rgb(0, 0, 0)" stroke="rgb(204, 204, 204)" stroke-width="1px"></line><line x1="29.4375" y1="118" x2="24.4375" y2="118" style="visibility: inherit;" fill="rgb(0, 0, 0)" stroke="rgb(204, 204, 204)" stroke-width="1px"></line><line x1="29.4375" y1="98.33333333333334" x2="24.4375" y2="98.33333333333334" style="visibility: inherit;" fill="rgb(0, 0, 0)" stroke="rgb(204, 204, 204)" stroke-width="1px"></line><line x1="29.4375" y1="78.66666666666666" x2="24.4375" y2="78.66666666666666" style="visibility: inherit;" fill="rgb(0, 0, 0)" stroke="rgb(204, 204, 204)" stroke-width="1px"></line><line x1="29.4375" y1="59" x2="24.4375" y2="59" style="visibility: inherit;" fill="rgb(0, 0, 0)" stroke="rgb(204, 204, 204)" stroke-width="1px"></line><line x1="29.4375" y1="39.33333333333334" x2="24.4375" y2="39.33333333333334" style="visibility: inherit;" fill="rgb(0, 0, 0)" stroke="rgb(204, 204, 204)" stroke-width="1px"></line><line x1="29.4375" y1="19.666666666666686" x2="24.4375" y2="19.666666666666686" style="visibility: inherit;" fill="rgb(0, 0, 0)" stroke="rgb(204, 204, 204)" stroke-width="1px"></line><line x1="29.4375" y1="0" x2="24.4375" y2="0" style="visibility: inherit;" fill="rgb(0, 0, 0)" stroke="rgb(204, 204, 204)" stroke-width="1px"></line></g><g transform="translate(19.4375, 0)"><text x="0" y="177" dx="0em" dy="0.3em" style="text-anchor: end; visibility: hidden; font-family: &quot;Helvetica Neue&quot;, sans-serif; font-size: 12px; font-weight: 200;" fill="rgb(50, 49, 63)" stroke="none" stroke-width="1px">-5</text><text x="0" y="157.33333333333334" dx="0em" dy="0.3em" style="text-anchor: end; visibility: inherit; font-family: &quot;Helvetica Neue&quot;, sans-serif; font-size: 12px; font-weight: 200;" fill="rgb(50, 49, 63)" stroke="none" stroke-width="1px">0</text><text x="0" y="137.66666666666669" dx="0em" dy="0.3em" style="text-anchor: end; visibility: hidden; font-family: &quot;Helvetica Neue&quot;, sans-serif; font-size: 12px; font-weight: 200;" fill="rgb(50, 49, 63)" stroke="none" stroke-width="1px">5</text><text x="0" y="118" dx="0em" dy="0.3em" style="text-anchor: end; visibility: inherit; font-family: &quot;Helvetica Neue&quot;, sans-serif; font-size: 12px; font-weight: 200;" fill="rgb(50, 49, 63)" stroke="none" stroke-width="1px">10</text><text x="0" y="98.33333333333334" dx="0em" dy="0.3em" style="text-anchor: end; visibility: hidden; font-family: &quot;Helvetica Neue&quot;, sans-serif; font-size: 12px; font-weight: 200;" fill="rgb(50, 49, 63)" stroke="none" stroke-width="1px">15</text><text x="0" y="78.66666666666666" dx="0em" dy="0.3em" style="text-anchor: end; visibility: inherit; font-family: &quot;Helvetica Neue&quot;, sans-serif; font-size: 12px; font-weight: 200;" fill="rgb(50, 49, 63)" stroke="none" stroke-width="1px">20</text><text x="0" y="59" dx="0em" dy="0.3em" style="text-anchor: end; visibility: hidden; font-family: &quot;Helvetica Neue&quot;, sans-serif; font-size: 12px; font-weight: 200;" fill="rgb(50, 49, 63)" stroke="none" stroke-width="1px">25</text><text x="0" y="39.33333333333334" dx="0em" dy="0.3em" style="text-anchor: end; visibility: inherit; font-family: &quot;Helvetica Neue&quot;, sans-serif; font-size: 12px; font-weight: 200;" fill="rgb(50, 49, 63)" stroke="none" stroke-width="1px">30</text><text x="0" y="19.666666666666686" dx="0em" dy="0.3em" style="text-anchor: end; visibility: hidden; font-family: &quot;Helvetica Neue&quot;, sans-serif; font-size: 12px; font-weight: 200;" fill="rgb(50, 49, 63)" stroke="none" stroke-width="1px">35</text><text x="0" y="0" dx="0em" dy="0.3em" style="text-anchor: end; visibility: hidden; font-family: &quot;Helvetica Neue&quot;, sans-serif; font-size: 12px; font-weight: 200;" fill="rgb(50, 49, 63)" stroke="none" stroke-width="1px">40</text></g><line x1="29.4375" y1="0" x2="29.4375" y2="177" fill="rgb(0, 0, 0)" stroke="rgb(204, 204, 204)" stroke-width="1px"></line></g></g><g transform="translate(29, 0)" clip-path="url(#clip_0)"><clipPath id="clip_0"><rect width="300" height="177"></rect></clipPath><g><g><g><line x1="0" y1="0" x2="0" y2="177" fill="rgb(0, 0, 0)" stroke="rgb(60, 60, 60)" stroke-width="1px" opacity="0.25"></line><line x1="33.39583333333333" y1="0" x2="33.39583333333333" y2="177" fill="rgb(0, 0, 0)" stroke="rgb(60, 60, 60)" stroke-width="1px" opacity="0.25"></line><line x1="66.79166666666666" y1="0" x2="66.79166666666666" y2="177" fill="rgb(0, 0, 0)" stroke="rgb(60, 60, 60)" stroke-width="1px" opacity="0.25"></line><line x1="100.1875" y1="0" x2="100.1875" y2="177" fill="rgb(0, 0, 0)" stroke="rgb(60, 60, 60)" stroke-width="1px" opacity="0.25"></line><line x1="133.58333333333331" y1="0" x2="133.58333333333331" y2="177" fill="rgb(0, 0, 0)" stroke="rgb(60, 60, 60)" stroke-width="1px" opacity="0.25"></line><line x1="166.97916666666669" y1="0" x2="166.97916666666669" y2="177" fill="rgb(0, 0, 0)" stroke="rgb(60, 60, 60)" stroke-width="1px" opacity="0.25"></line><line x1="200.375" y1="0" x2="200.375" y2="177" fill="rgb(0, 0, 0)" stroke="rgb(60, 60, 60)" stroke-width="1px" opacity="0.25"></line><line x1="233.77083333333334" y1="0" x2="233.77083333333334" y2="177" fill="rgb(0, 0, 0)" stroke="rgb(60, 60, 60)" stroke-width="1px" opacity="0.25"></line><line x1="267.16666666666663" y1="0" x2="267.16666666666663" y2="177" fill="rgb(0, 0, 0)" stroke="rgb(60, 60, 60)" stroke-width="1px" opacity="0.25"></line><line x1="300.5625" y1="0" x2="300.5625" y2="177" fill="rgb(0, 0, 0)" stroke="rgb(60, 60, 60)" stroke-width="1px" opacity="0.25"></line></g><g><line x1="0" y1="177" x2="300.5625" y2="177" fill="rgb(0, 0, 0)" stroke="rgb(60, 60, 60)" stroke-width="1px" opacity="0.25"></line><line x1="0" y1="157.33333333333334" x2="300.5625" y2="157.33333333333334" fill="rgb(0, 0, 0)" stroke="rgb(60, 60, 60)" stroke-width="1px" opacity="0.25"></line><line x1="0" y1="137.66666666666669" x2="300.5625" y2="137.66666666666669" fill="rgb(0, 0, 0)" stroke="rgb(60, 60, 60)" stroke-width="1px" opacity="0.25"></line><line x1="0" y1="118" x2="300.5625" y2="118" fill="rgb(0, 0, 0)" stroke="rgb(60, 60, 60)" stroke-width="1px" opacity="0.25"></line><line x1="0" y1="98.33333333333334" x2="300.5625" y2="98.33333333333334" fill="rgb(0, 0, 0)" stroke="rgb(60, 60, 60)" stroke-width="1px" opacity="0.25"></line><line x1="0" y1="78.66666666666666" x2="300.5625" y2="78.66666666666666" fill="rgb(0, 0, 0)" stroke="rgb(60, 60, 60)" stroke-width="1px" opacity="0.25"></line><line x1="0" y1="59" x2="300.5625" y2="59" fill="rgb(0, 0, 0)" stroke="rgb(60, 60, 60)" stroke-width="1px" opacity="0.25"></line><line x1="0" y1="39.33333333333334" x2="300.5625" y2="39.33333333333334" fill="rgb(0, 0, 0)" stroke="rgb(60, 60, 60)" stroke-width="1px" opacity="0.25"></line><line x1="0" y1="19.666666666666686" x2="300.5625" y2="19.666666666666686" fill="rgb(0, 0, 0)" stroke="rgb(60, 60, 60)" stroke-width="1px" opacity="0.25"></line><line x1="0" y1="0" x2="300.5625" y2="0" fill="rgb(0, 0, 0)" stroke="rgb(60, 60, 60)" stroke-width="1px" opacity="0.25"></line></g></g></g><g><g><line x1="0" y1="157.33333333333334" x2="300.5625" y2="157.33333333333334" fill="rgb(0, 0, 0)" stroke="rgb(153, 153, 153)" stroke-width="1.5px"></line></g></g><g><g><line x1="33.39583333333333" y1="0" x2="33.39583333333333" y2="177" fill="rgb(0, 0, 0)" stroke="rgb(153, 153, 153)" stroke-width="1.5px"></line></g></g><g><g><g><g><g><path stroke="rgb(255, 112, 67)" stroke-width="2px" d="M37.51687916666667,121.93333333333334L38.09796666666667,85.05833333333332L38.371812500000004,89.82448979591835L39.22507604166667,75.65882352941178L39.33194270833334,66.72745778394635L39.41209270833333,63.48520408163266L39.447158333333334,64.87674330813734L39.77109791666667,68.886731725268L39.807833333333335,71.24918040813569L40.63605,66.3197015713883L40.67278541666667,69.69740849745439L41.863346875000005,62.255579189220285L42.3192,60.951644484312396L42.414378125,61.744941684640594L42.56966875,62.2205219548197L42.85353333333333,59.358172339272585L43.673401041666665,59.214879148813196L44.438165625,57.555425621926304L45.081035416666666,56.559861374145314L45.33818333333333,59.109343370921735L45.49848333333333,66.93244430419874L45.900903125,62.186070776608815L45.9059125,67.2050154354215L46.37679375,65.49633449820436L46.628932291666665,62.89779331119517L46.68904479166667,61.3386733271433L46.770864583333335,60.403203038841156L46.9679,58.26858717911608L47.24508541666666,60.13448632830573L47.60576041666666,59.68069169666127L47.617448958333334,57.83508143985367L47.924690625000004,56.72771544244735L48.45902395833333,59.20996271733392L48.731199999999994,60.699311006405296L48.931575,55.299586511018106L49.026753125,56.77975192187792L49.60951041666667,56.094517815552734L49.881686458333334,57.25671069364711L50.1137875,56.38069308090324L50.54125416666667,54.28174917906952L50.88356145833333,51.44904950516974L50.935325,52.896096370464875L51.78357916666666,52.19099115540865L51.96892604166667,51.767928026505245L51.985623958333335,51.51409014921009L52.21605520833334,49.78845408941844L52.49991979166667,51.899739120396745L52.563371875,50.019843472195845L52.93740520833333,48.89190608330233L53.012545833333334,46.64181031662986L53.348173958333334,43.71841952329706L53.50179479166667,41.96438504730648L53.89753541666666,37.765297695043216L54.326671874999995,38.39251195035993L54.88104270833333,38.76884050354954L55.29682083333333,37.42130430212919L55.73263645833333,36.612782581277344L55.76102291666667,34.554336215432755L57.893346875,33.31926839592626L57.99019479166667,32.5782277042224L58.33250208333333,32.133603289200096L58.87685416666667,33.44016197352008L58.93696666666667,34.224097184112026L58.962013541666664,33.12112497713389L59.09392708333333,32.45934165294699L59.39448958333333,32.06227165843487L59.831975,33.39736299506092L59.957209375000005,32.62508446370319L59.960548958333334,33.73505067822191L60.65017291666666,32.827697073599836L61.429965625,32.28328491082655L61.64870833333333,31.9566376131626L62.24315416666666,31.760649234564227L62.488613541666666,31.64305620740518L62.54371666666666,31.57250039110977L62.652253125,29.956833567999183L63.068031250000004,30.560766807466166L63.36191458333334,30.923126751146384L63.42202708333333,31.14054271735452L63.492158333333336,31.270992297079374L63.85784270833333,31.349262044914298L64.14671666666668,31.396223893615257L64.57585312500001,31.424401002835793L64.716115625,31.44130726836812L65.05842291666667,31.45145102768754L65.14358229166668,31.45753728327921L65.49089895833333,31.46118903663418L65.56937916666666,29.890046755313847L65.607784375,30.52069471985496L65.89498854166666,29.32575016524629L65.90166770833333,28.60878343248112L66.158815625,29.75193672615535L66.33247395833334,28.864495369026542L66.84843958333333,28.332030554749252L66.91857083333333,29.585884999516225L67.07553125,28.76486433304305L67.34770729166667,28.27225193315917L67.69836354166667,27.976684493228817L67.73843854166667,27.799344029270628L68.21933854166666,27.692939750895704L68.59838125,29.202430517204107L68.61507916666667,28.53479164365578L68.65682395833333,28.134208319526806L68.67853125,27.893858325049422L68.72528541666667,27.74964832836298L68.99078229166666,27.663122330351115L69.45164479166667,27.611206731544L69.53346458333333,27.580057372259716L69.85406458333334,29.134701090022503L69.975959375,28.494153987346834L70.01937395833333,28.109825725741416L70.36335104166668,27.879228768778177L70.386728125,27.74087059460024L70.49860416666667,27.65785569009347L70.79749687500001,27.608046747389437L71.43201770833333,29.151494715100313L71.69584479166666,28.504230162393497L72.26691354166667,28.11587143076943L72.56413645833334,27.882856191794986L72.74614375,27.743047048410318L72.89308541666666,27.659161562379552L72.941509375,27.608830270761075L73.1569125,27.578631495789978L73.48085208333333,27.56051223080732L73.542634375,27.549640671817713L73.54931354166666,27.543117736423966L73.84987604166668,27.539203975187718L73.97511041666667,27.536855718445963L74.28903125000001,27.535446764400916L74.31073854166667,27.534601391973865L74.41092604166667,27.53409416851767L74.84340208333333,27.533789834443922L75.12225729166666,27.533607233999703L75.13227604166667,27.533497673733166L75.20407708333333,27.533431937573226L75.24749166666666,27.53339249587728L75.27086875,27.5333688308597L75.67495833333334,27.533354631849136L75.92876666666668,27.533346112442842L75.98887916666666,27.533341000799027L76.1224625,27.53333793381276L76.13248125000001,27.53333609362096L76.33953541666666,27.533334989505903L76.40131770833334,27.533334327036897L76.44974166666667,27.533333929555482L76.61338125,27.533333691066616L76.82711458333334,27.533333547973314L77.11598854166667,27.533333462117298L77.12099791666665,27.533333410603717L77.139365625,27.533333379695563L78.151259375,27.533333361150653L78.24476770833333,27.533333350023725L78.47352916666667,27.53333334334755L78.642178125,27.53333333934188L79.654071875,27.533333336938455L79.71919375,27.533333335496394L79.96131354166667,27.53333333463118L80.08320833333333,27.53333333411203L80.30696041666666,27.533333333800584L80.34703541666667,27.533333333613683L80.70938020833333,27.53333333350156L80.97821666666667,27.533333333434257L81.13517708333333,27.533333333393898L81.43406979166667,27.533333333369654L81.517559375,27.53333333335513L81.81144270833335,27.533333333346434L81.86487604166668,27.533333333341204L81.98343125,27.53333333333805L82.218871875,27.533333333336174L82.40755833333334,27.533333333335037L82.64132916666667,27.533333333334383L82.82834583333333,25.960000000000633L83.44282916666667,26.589333333333713L83.54969583333333,26.96693333333357L83.95712499999999,27.193493333333493L84.152490625,27.329429333333422L84.30277187499999,27.41099093333338L84.312790625,27.459927893333372L84.76530416666667,27.48929006933335L84.813728125,27.50690737493335L84.93061354166667,27.517477758293353L84.96233958333333,27.523819988309356L85.02245208333333,27.52762532631897L85.274590625,25.956575195791345L85.34973124999999,25.013945117474805L85.51003125,24.448367070484863L85.59185104166666,24.10902024229091L85.94751666666667,25.47874547870788L86.12284479166667,26.300580620558065L86.23472083333334,26.793681705668178L86.29483333333333,27.089542356734256L86.35160625,27.26705874737388L86.69057395833333,27.373568581757667L86.86590208333334,25.864141149054575L87.32843437499999,26.531818022766117L87.40023541666666,26.932424146992986L87.52046041666667,27.17278782152914L87.829371875,27.317006026250795L88.10321770833333,27.403536949083787L88.66927708333333,27.45545550278362L88.94312291666665,27.48660663500351L89.12179062499999,27.50529731433545L89.15518645833333,27.51651172193459L89.37559895833334,25.94990703316077L89.55927604166668,25.009944219896454L89.58933229166666,26.019299865271194L89.93163958333332,26.624913252496043L89.96169583333332,25.414947951497652L90.42255833333334,24.688968770898583L90.865053125,24.253381262539165L90.93017499999999,23.992028757523485L90.95355208333334,23.835217254514077L91.3910375,23.741130352708467L91.76841041666667,23.684678211625112L92.30274374999999,25.22414026030839L92.37955416666667,26.14781748951839L93.40313645833334,25.12869049371099L93.43486250000001,24.517214296226598L93.53838958333333,24.15032857773599L93.540059375,25.503530479974927L93.55675729166667,24.742118287984937L94.41336041666668,24.285270972790983L94.75733749999999,24.011162583674576L95.06123958333333,23.846697550204738L95.08461666666666,25.321351863456186L95.27497291666667,24.632811118073704L95.373490625,25.79302000417755L95.62228958333334,24.915812002506527L95.70911875,24.389487201503925L96.80951145833333,25.647025654235705L96.8813125,24.82821539254141L96.93474583333334,24.33692923552485L97.30376979166667,24.042157541314936L97.42900416666666,25.438627858122288L97.828084375,24.703176714873365L97.92994166666666,25.83523936225734L98.13365625,24.941143617354413L98.99693854166667,25.97801950374597L99.36262291666667,25.026811702247585L99.57468645833333,26.02942035468189L99.841853125,25.05765221280916L99.99881354166666,26.04792466101881L100.06727500000001,25.0687547966113L100.708475,24.481252877966796L100.88046354166666,24.12875172678008L100.89048229166666,23.917251036068023L100.99567916666666,23.790350621640783L101.304590625,23.714210372984496L101.39475937499999,25.24185955712403L101.51164479166665,26.158449067607734L101.58177604166667,25.13506944056462L101.81220729166667,26.094374997672134L101.84226354166667,25.09662499860329L102.59533958333334,24.497974999161954L103.29665208333334,25.712118332830528L103.78590104166666,24.86727099969829L104.07310520833335,25.933695933152308L104.10483125,26.573550893224706L104.13655729166668,26.957463869268167L104.17663229166666,27.187811654894233L105.06663125000001,25.752686992936532L105.12841354166666,26.464945529095274L105.412278125,25.318967317457123L105.462371875,26.20471372380763L105.61933229166668,26.736161567617927L105.74790625,27.055030273904094L105.86646145833332,28.819684831009113L106.07184583333334,26.73181089860546L106.26554166666666,25.479086539163262L107.37929270833332,24.727451923497938L107.42270729166665,25.849804487432124L107.957040625,24.949882692459283L108.34276249999999,24.409929615475562L108.36446979166668,25.659291102618653L108.41957291666667,26.408907994904553L108.628296875,25.285344796942724L108.67338124999999,26.184540211498955L109.13591354166667,26.72405746023273L109.3446375,25.474434476139606L110.101053125,24.724660685683745L110.10606250000001,24.27479641141025L110.20458020833333,24.004877846846142L111.12630520833333,23.842926708107683L111.35506666666666,23.74575602486462L111.37677395833333,23.687453614918752L111.49699895833334,23.65247216895125L111.75748645833333,23.631483301370764L112.14487812499999,23.618889980822416L112.17660416666666,23.611333988493442L112.61909895833334,23.60680039309608L112.67253229166667,23.60408023585765L112.98979270833334,23.6024481415146L113.04990520833333,23.60146888490877L113.45399479166666,23.600881330945242L113.78962291666666,23.600528798567154L113.85140520833333,23.600317279140313L113.99500729166667,23.600190367484203L114.40577604166667,23.600114220490525L114.81320520833334,23.6000685322943L114.94511875,23.600041119376584L115.14883333333334,23.60002467162593L115.21729479166667,23.60001480297558L115.55292291666666,23.600008881785328L115.55960208333333,23.600005329071195L115.64810104166668,23.600003197442703L115.94198437499999,23.600001918465637L116.002096875,23.60000115107937L116.41954479166667,23.600000690647647L116.83699270833334,23.600000414388575L117.10749895833334,25.17333358196646L117.25945,24.54400014917988L117.264459375,24.166400089507903L117.61678541666667,23.939840053704756L118.07931770833333,23.803904032222846L118.49008645833334,23.7223424193337L118.52348229166667,23.67340545160019L118.53851041666667,23.64404327096014L118.55019895833333,23.626425962576036L118.61532083333334,23.615855577545602L119.02441979166667,23.609513346527365L119.47192395833333,23.605708007916434L119.49363125,23.603424804749864L120.15486874999999,23.6020548828499L120.30681979166665,23.60123292970991L120.36526250000001,23.60073975782592L120.50886458333333,23.600443854695527L120.81610625,23.600266312817297L120.83781354166666,23.600159787690387L120.94468020833334,23.60009587261422L120.97139687500001,23.600057523568523L120.98809479166667,23.6000345141411L121.26695,23.600020708484635L121.86306562499999,23.600012425090796L122.28051354166668,23.60000745505448L122.61280208333334,23.60000447303267L122.96011875,23.600002683819582L123.03692916666665,23.60000161029174L123.385915625,23.60000096617506L123.68146875,23.60000057970504L124.20077395833334,23.600000347823027L124.47628958333333,23.600000208693814L124.62156145833333,23.60000012521627L124.78353125000001,23.600000075129742L125.20765833333333,23.60000004507785L125.21767708333333,23.60000002704669L125.50154166666667,23.600000016228023L125.63345520833333,23.600000009736817L125.89227291666666,23.600000005842077L126.52345416666668,23.600000003505244L126.596925,23.600000002103144L126.89915729166667,23.60000000126189L126.90583645833333,23.60000000075712L126.94758125,23.60000000045426L127.66893125,23.60000000027256L128.46375208333333,23.600000000163533L128.62405208333334,23.600000000098106L129.01144375,23.600000000058856L129.327034375,23.600000000035323L129.42555208333334,23.60000000002117L129.527409375,23.6000000000127L129.71275624999998,23.60000000000761L129.843,23.600000000004542L130.14523229166667,23.60000000000275L130.16693958333335,23.600000000001614L130.24541979166668,23.60000000000096L130.43076666666667,23.600000000000563L130.59273645833335,23.600000000000335L130.98680729166668,23.600000000000193L131.06361770833334,23.600000000000108L131.54284791666666,23.60000000000005L131.5461875,23.600000000000023L131.566225,23.599999999999994L132.30093333333335,23.599999999999994L132.42449791666667,23.599999999999994L132.688325,23.599999999999994L132.77348437499998,23.599999999999994L132.79018229166667,23.599999999999994L132.99723645833333,23.599999999999994L133.09074479166668,23.599999999999994L133.15920625,23.599999999999994L133.52489062499998,23.599999999999994L133.59836145833333,23.599999999999994L133.7102375,23.599999999999994L133.92063125,23.599999999999994L133.99243229166666,23.599999999999994L134.13436458333334,23.599999999999994L134.30134375,23.599999999999994L134.20115625,37.76000000000002L134.74550833333333,33.669333333333356L134.81396979166666,31.214933333333335L134.817309375,31.315626666666674L134.86072395833332,31.376042666666677L135.05441979166667,28.26562560000002L135.09950416666666,32.692708693333344L135.198021875,29.05562521600001L135.48522604166666,28.446708462933316L135.66556354166667,31.22802507776001L135.93773958333333,28.176815046656003L136.01788958333333,26.3460890279936L136.3551875,25.24765341679614L136.5154875,29.308592050077692L136.770965625,27.025155230046636L136.936275,25.65509313802795L137.20344166666666,24.83305588281675L137.23015833333335,29.059833529690053L137.261884375,26.875900117814012L137.79120833333332,27.13887340402175L137.993253125,27.296657375746378L138.10178958333333,25.817994425447836L138.23871250000002,26.504129988602017L138.37229583333334,25.342477993161197L138.434078125,24.645486795896716L138.474153125,25.800625410871362L138.64614166666667,24.920375246522838L138.84651666666667,24.392225147913706L138.90328958333333,24.075335088748233L139.26396458333335,25.458534386582272L139.27064375,24.71512063194936L139.55450833333333,24.269072379169586L139.67807291666665,24.001443427501755L139.69477083333334,23.840866056501085L139.886796875,23.744519633900637L140.54135520833333,23.686711780340403L140.60480729166665,23.652027068204234L140.738390625,23.631216240922527L140.77679583333332,28.33872974455352L140.96214270833332,26.443237846732103L141.06066041666665,25.305942708039254L141.589984375,24.623565624823556L141.76364270833332,24.21413937489413L142.97591145833331,23.96848362493651L143.15958854166666,23.82109017496188L143.32155833333334,23.732654104977115L143.613771875,23.67959246298625L143.78743020833335,23.64775547779172L143.87926875,23.628653286675046L143.8892875,23.617191972005003L143.92769270833332,23.610315183203L144.00617291666666,23.606189109921814L144.074634375,23.603713465953092L144.23660416666667,23.60222807957186L144.43697916666667,23.601336847743113L144.67241979166667,25.174135441979217L144.85442708333335,24.544481265187528L146.94500625,24.166688759112503L147.36412395833332,23.940013255467505L147.62962083333332,23.80400795328049L147.79326041666667,23.722404771968286L147.94855104166666,23.673442863180952L148.04038958333334,23.644065717908575L148.04539895833332,23.626439430745165L148.16395416666666,23.615863658447097L148.593090625,23.609518195068233L148.66823125,23.605710917040938L148.753390625,23.603426550224555L148.87528541666666,23.602055930134696L149.404609375,23.60123355808082L149.48141979166667,23.60074013484848L149.53652291666666,23.600444080909114L149.91222604166666,23.600266448545455L150.356390625,23.600159869127253L151.07774062500002,25.17342925480969L151.64713958333334,26.11739088621914L151.8425052083333,25.11043453173147L151.85252395833334,24.50626071903889L152.00113541666664,24.143756431423327L152.43528125,23.926253858853983L152.50875208333335,23.79575231531237L152.70745729166669,23.717451389187403L153.14995208333335,23.67047083351244L153.5674,23.642282500107456L153.57741875,23.625369500064465L154.03995104166665,23.61522170003869L154.44070104166664,23.609133020023194L154.744603125,23.605479812013925L154.76631041666664,23.603287887208353L154.84813020833332,23.60197273232501L154.904903125,23.601183639394975L155.19210729166667,23.600710183636977L155.9518625,23.600426110182184L156.25409479166666,23.60025566610929L156.29083020833332,23.600153399665572L156.79343749999998,23.600092039799335L156.958746875,23.600055223879593L156.9971520833333,23.60003313432773L157.03722708333333,23.600019880596648L157.189178125,23.600011928357986L157.66673854166666,23.6000071570148L157.80199166666665,23.600004294208873L158.09754479166665,23.600002576525327L158.281221875,23.600001545915177L158.29625,23.600000927549075L158.56007708333334,23.600000556529437L158.63020833333334,23.600000333917677L159.032628125,23.600000200350593L159.10776875,23.600000120210353L159.45007604166668,23.600000072126193L159.50016979166665,23.600000043275713L159.72225208333333,23.600000025965443L160.58887395833332,23.60000001557927L160.66735416666666,23.600000009347553L161.22005520833332,23.600000005608536L161.50558958333332,23.600000003365096L162.03324375,23.600000002019073L162.038253125,23.60000000121144L162.33380625,23.60000000072685L162.45069166666667,23.600000000436097L162.75626354166667,23.600000000261645L162.89819583333335,23.600000000156996L163.13530624999999,23.600000000094184L163.26388020833332,23.600000000056525L163.6462625,23.6000000000339L163.86333541666664,23.600000000020344L164.05703125,23.600000000012187L164.142190625,23.600000000007327L164.1472,23.6000000000044L164.53459166666667,23.600000000002638L164.81511666666668,23.600000000001558L165.06224583333332,23.60000000000096L165.25093229166666,23.600000000000563L166.065790625,23.600000000000335L166.25781666666666,23.600000000000193L166.45151249999998,23.600000000000108L166.52164375,23.60000000000005L166.83389479166667,23.600000000000023L167.32648333333336,23.599999999999994L167.54188645833332,23.599999999999994L167.74226145833333,23.599999999999994L168.60220416666667,23.599999999999994L169.1165,23.599999999999994L169.15991458333335,23.599999999999994L169.22837604166665,23.599999999999994L169.64582395833332,23.599999999999994L170.05826249999998,23.599999999999994L170.06494166666667,23.599999999999994L170.08998854166666,23.599999999999994L170.09666770833334,23.599999999999994L170.10835624999999,23.599999999999994L170.13006354166666,23.599999999999994L170.52747395833333,23.599999999999994L171.66460208333334,23.599999999999994L171.71135625000002,23.599999999999994L171.73139375,23.599999999999994L171.9818625,23.599999999999994L172.50617708333334,23.599999999999994L172.65311875,23.599999999999994L173.12566979166667,23.599999999999994L173.15405625,23.599999999999994L173.25925312500001,23.599999999999994L173.319365625,23.599999999999994L173.45294895833334,23.599999999999994L173.50638229166665,23.599999999999994L174.38302291666665,23.599999999999994L174.77041458333332,23.599999999999994L174.842215625,23.599999999999994L175.19287187499998,23.599999999999994L175.79566666666668,23.599999999999994L175.79733645833335,23.599999999999994L176.18639791666666,23.599999999999994L176.21645416666667,23.599999999999994L176.23649166666667,23.599999999999994L176.57712916666665,23.599999999999994L176.615534375,23.599999999999994L176.9695302083333,23.599999999999994L177.01962395833334,23.599999999999994L177.04300104166666,23.599999999999994L177.32686562499998,23.599999999999994L177.88123645833332,23.599999999999994L177.892925,23.599999999999994L178.02483854166667,23.599999999999994L178.09163020833333,23.599999999999994L178.56418125,23.599999999999994L178.98329895833334,23.599999999999994L179.3890583333333,23.599999999999994L180.19556770833333,23.599999999999994L180.50113958333333,23.599999999999994L180.52952604166668,23.599999999999994L180.698175,23.599999999999994L181.13065104166665,23.599999999999994L181.51804270833333,23.599999999999994L181.71507812500002,23.599999999999994L181.98725416666665,23.599999999999994L182.015640625,23.599999999999994L182.15757291666668,23.599999999999994L182.27779791666666,23.599999999999994L182.35460833333332,23.599999999999994L182.47316354166668,23.599999999999994L182.54496458333335,23.599999999999994L182.73365104166666,23.599999999999994L182.90230000000003,23.599999999999994L183.00582708333332,23.599999999999994L183.17614583333335,23.599999999999994L183.59526354166667,23.599999999999994L183.61029166666668,23.599999999999994L183.62198020833333,23.599999999999994L183.62365,23.599999999999994L184.04944687499997,23.599999999999994L184.67561875,23.599999999999994L184.82256041666668,23.599999999999994L184.88434270833335,23.599999999999994L184.96950208333334,23.599999999999994L185.1231229166667,23.599999999999994L185.55392916666668,23.599999999999994L185.712559375,23.599999999999994L186.223515625,23.599999999999994L186.50738020833333,23.599999999999994L187.325578125,23.599999999999994L187.92002395833336,23.599999999999994L188.0118625,23.599999999999994L188.26400104166666,23.599999999999994L188.26901041666667,23.599999999999994L188.45101770833332,23.599999999999994L188.53617708333334,23.599999999999994L188.713175,23.599999999999994L188.93692708333333,23.599999999999994L189.0972270833333,23.599999999999994L189.90206666666666,23.599999999999994L190.22433645833334,23.599999999999994L190.32285416666667,23.599999999999994L190.70356666666666,23.599999999999994L190.721934375,23.599999999999994L191.02917604166666,23.599999999999994L191.11767500000002,23.599999999999994L192.304896875,23.599999999999994L192.34664166666667,23.599999999999994L192.7006375,23.599999999999994L192.74906145833333,23.599999999999994L192.84757916666666,23.599999999999994L192.89433333333332,23.599999999999994L192.96279479166668,23.599999999999994L193.33682812499998,23.599999999999994L193.93461354166666,23.599999999999994L194.17339375,23.599999999999994L194.51236145833332,23.599999999999994L194.679340625,23.599999999999994L194.71440625000002,23.599999999999994L195.13686354166668,23.599999999999994L195.75969583333332,23.599999999999994L196.00515520833332,23.599999999999994L196.15376666666666,23.599999999999994L196.49774375,23.599999999999994L196.888475,23.599999999999994L196.90016354166667,23.599999999999994L196.97196458333332,25.173333333333318L197.25248958333333,24.543999999999983L197.39442187499998,24.16639999999998L197.74006875,23.939839999999975L198.165865625,23.80390399999999L198.23766666666666,23.722342400000002L198.60335104166666,23.673405439999982L198.63006770833334,23.644043263999976L199.0391666666667,23.626425958400006L199.097609375,23.61585557504L199.41486979166666,23.609513345024L199.448265625,23.605708007014385L199.52507604166667,23.603424804208657L199.84567604166665,23.60205488252518L200.32156666666668,23.601232929515106L200.680571875,23.60073975770905L200.77908958333333,23.60044385462544L201.64070208333334,23.60026631277526L201.84942604166667,23.600159787665177L201.9980375,23.60009587259907L202.16668645833334,23.600057523559457L202.52068229166667,23.60003451413567L202.67263333333332,23.600020708481395L202.76280208333336,23.600012425088835L203.07338333333334,23.600007455053287L203.07672291666668,23.600004473031987L203.30381458333332,23.600002683819184L203.67784791666668,23.600001610291514L203.85818541666666,23.600000966174917L204.04186249999998,23.600000579704954L204.27897291666667,23.600000347823L204.77657083333332,23.600000208693814L204.8617302083333,23.60000012521627L205.31925312500002,23.600000075129742L205.389384375,23.60000004507785L205.70330520833332,23.60000002704669L205.79180416666668,23.600000016228023L206.66510520833333,23.600000009736817L206.68013333333332,23.600000005842077L207.03746875,23.600000003505244L207.05416666666667,23.600000002103144L207.08589270833335,23.60000000126189L207.34638020833336,23.60000000075712L207.77885625000002,23.60000000045426L207.85065729166666,23.60000000027256L208.34825520833334,23.600000000163533L208.97776666666667,23.600000000098106L209.21821666666665,23.600000000058856L209.83436979166666,23.600000000035323L209.87444479166666,23.60000000002117L210.09151770833336,23.6000000000127L210.13326250000003,23.60000000000761L210.82956562500001,23.600000000004542L210.95313020833333,23.60000000000275L211.019921875,23.600000000001614L211.10174166666664,23.60000000000096L211.26204166666668,23.600000000000563L211.44738854166667,23.600000000000335L211.87485520833334,23.600000000000193L212.0769,23.600000000000108L212.18376666666666,23.60000000000005L212.66800625,23.600000000000023L212.77153333333334,23.599999999999994L212.95688020833333,23.599999999999994L213.35763020833335,23.599999999999994L214.5398427083333,23.599999999999994L214.69346354166666,23.599999999999994L214.94393229166667,23.599999999999994L215.77047916666666,23.599999999999994L215.90740208333332,23.599999999999994L216.01426875,23.599999999999994L216.10777708333336,23.599999999999994L216.16788958333333,23.599999999999994L216.42336770833336,23.599999999999994L216.51687604166665,23.599999999999994L216.61706354166668,23.599999999999994L217.01447395833335,23.599999999999994L217.31837604166668,23.599999999999994L217.55882604166666,23.599999999999994L217.86940729166668,23.599999999999994L218.07813125,23.599999999999994L218.1799885416667,23.599999999999994L218.764415625,23.599999999999994L218.84790520833334,23.599999999999994L218.994846875,23.599999999999994L219.52918020833334,23.599999999999994L219.78465833333334,23.599999999999994L219.93326979166667,23.599999999999994L219.956646875,23.599999999999994L220.38745312499998,23.599999999999994L220.47261250000003,23.599999999999994L220.73476979166665,23.599999999999994L221.25741458333334,23.599999999999994L222.12570625,23.599999999999994L222.51142812499998,23.599999999999994L222.60326666666666,23.599999999999994L222.93388541666664,23.599999999999994L222.9555927083333,23.599999999999994L223.84058229166666,23.599999999999994L223.86228958333334,23.599999999999994L223.8789875,23.599999999999994L224.1762104166667,23.599999999999994L224.24634166666667,23.599999999999994L224.67380833333334,23.599999999999994L225.01444583333333,23.599999999999994L225.356753125,23.599999999999994L225.3951583333333,23.599999999999994L225.527071875,23.599999999999994L225.96622708333334,23.599999999999994L226.26845937500002,23.599999999999994L226.5957385416667,23.599999999999994L226.72264270833335,23.599999999999994L227.300390625,23.599999999999994L227.53416145833333,23.599999999999994L227.92823229166666,23.599999999999994L228.06348541666665,23.599999999999994L228.22378541666666,23.599999999999994L228.49429166666667,23.599999999999994L228.56609270833334,23.599999999999994L228.64624270833335,23.599999999999994L229.16053854166665,23.599999999999994L229.23066979166666,23.599999999999994L229.75164479166668,23.599999999999994L229.81175729166665,23.599999999999994L229.82177604166665,23.599999999999994L230.175771875,23.599999999999994L230.24256354166667,23.599999999999994L230.24924270833333,23.599999999999994L230.2976666666667,23.599999999999994L230.32939270833336,23.599999999999994L230.626615625,23.599999999999994L231.53832187499998,23.599999999999994L231.62682083333334,23.599999999999994L232.31811458333334,23.599999999999994L232.49177291666666,23.599999999999994L232.49344270833333,23.599999999999994L232.650403125,23.599999999999994L232.94595625,23.599999999999994L233.20811354166665,23.599999999999994L233.57379791666668,23.599999999999994L234.87289583333336,23.599999999999994L235.68942395833332,23.599999999999994L235.78627187499998,23.599999999999994L236.18702187500003,23.599999999999994L236.24212500000002,23.599999999999994L236.778128125,23.599999999999994L236.91004166666667,23.599999999999994L236.92340000000002,23.599999999999994L237.00021041666668,23.599999999999994L237.16551979166664,23.599999999999994L237.198915625,23.599999999999994L237.349196875,23.599999999999994L238.29262916666667,23.599999999999994L238.631596875,23.599999999999994L238.68336041666666,23.599999999999994L238.89709374999998,23.599999999999994L239.11082708333336,23.599999999999994L239.55165208333332,23.599999999999994L239.97744895833333,23.599999999999994L240.03756145833336,23.599999999999994L240.04925,23.599999999999994L240.47838645833332,23.599999999999994L240.8474104166667,23.599999999999994L241.41346979166664,23.599999999999994L241.7507677083333,23.599999999999994L241.837596875,23.599999999999994L242.08472604166667,23.599999999999994L242.25003541666666,23.599999999999994L242.40699583333333,23.599999999999994L242.90626354166665,23.599999999999994L243.00645104166668,23.599999999999994L243.34541875,23.599999999999994L243.50404895833333,23.599999999999994L243.8547052083333,23.599999999999994L244.27048333333335,23.599999999999994L244.66622395833335,23.599999999999994L244.7981375,23.599999999999994L245.223934375,23.599999999999994L245.354178125,23.599999999999994L245.85344583333335,23.599999999999994L246.225809375,23.599999999999994L246.3176479166667,23.599999999999994L246.3610625,23.599999999999994L246.44956145833333,23.599999999999994L246.73676562499998,23.599999999999994L246.741775,23.599999999999994L246.74678437499998,23.599999999999994L247.23603333333332,23.599999999999994L247.61340625,23.599999999999994L247.62843437499998,23.599999999999994L247.70524479166667,23.599999999999994L248.04421250000001,23.599999999999994L248.13271145833332,23.599999999999994L248.44830208333332,23.599999999999994L248.56351770833334,23.599999999999994L248.89914583333334,23.599999999999994L249.33663125,23.599999999999994L249.7106645833333,23.599999999999994L249.77077708333334,23.599999999999994L249.85426666666666,23.599999999999994L250.243328125,23.599999999999994L250.26503541666668,23.599999999999994L251.05317708333334,23.599999999999994L251.11829895833333,23.599999999999994L251.14000625,23.599999999999994L252.15857916666667,23.599999999999994L252.22537083333333,23.599999999999994L252.387340625,23.599999999999994L252.63947916666666,23.599999999999994L252.71628958333332,23.599999999999994L253.058596875,23.599999999999994L253.14041666666665,23.599999999999994L253.18550104166667,23.599999999999994L253.870115625,23.599999999999994L253.92688854166667,23.599999999999994L253.970303125,23.599999999999994L254.39776979166666,23.599999999999994L254.67495520833333,23.599999999999994L255.18090208333334,23.599999999999994L255.24101458333334,23.599999999999994L255.25103333333334,23.599999999999994L255.36457916666666,23.599999999999994L255.99576041666668,23.599999999999994L256.5568104166667,23.599999999999994L256.905796875,23.599999999999994L257.36498958333334,23.599999999999994L257.69226875000004,23.599999999999994L257.82418229166666,23.599999999999994L258.23161145833336,23.599999999999994L258.2599979166667,23.599999999999994L258.5839375,23.599999999999994L258.8060197916667,23.599999999999994L258.94795208333335,23.599999999999994L258.99470625,23.599999999999994L259.420503125,23.599999999999994L260.35057708333335,23.599999999999994L260.5342541666667,23.599999999999994L260.75800625,23.599999999999994L261.0051354166667,23.599999999999994L261.454309375,23.599999999999994L261.6029208333333,23.599999999999994L261.90014375,23.599999999999994L262.1472729166667,23.599999999999994L262.2274229166667,23.599999999999994L262.546353125,23.599999999999994L262.7584166666667,23.599999999999994L262.78513333333336,23.599999999999994L262.8001614583333,23.599999999999994L262.86194375,23.599999999999994L262.9454333333333,23.599999999999994L263.00220625,23.599999999999994L263.2459958333333,23.599999999999994L263.2727125,23.599999999999994L263.39627708333336,23.599999999999994L263.53486979166667,23.599999999999994L263.6116802083333,23.599999999999994L263.66010416666666,23.599999999999994L263.708528125,23.599999999999994L263.778659375,23.599999999999994L263.80036666666666,23.599999999999994L264.1760697916667,23.599999999999994L264.479971875,23.599999999999994L264.580159375,23.599999999999994L264.640271875,23.599999999999994L265.28648125,23.599999999999994L265.7055989583333,23.599999999999994L265.74734374999997,23.599999999999994L265.762371875,23.599999999999994L265.912653125,23.599999999999994L266.31173333333334,23.599999999999994L266.55552291666663,23.599999999999994L266.77259583333336,23.599999999999994L267.39709791666667,23.599999999999994L267.63420833333333,23.599999999999994L267.645896875,23.599999999999994L267.8245645833333,23.599999999999994L268.106759375,23.599999999999994L268.42235,23.599999999999994L268.53589583333337,23.599999999999994L268.66446979166665,23.599999999999994L268.68617708333335,23.599999999999994L269.128671875,23.599999999999994L269.57450625,23.599999999999994L269.579515625,23.599999999999994L269.9869447916667,23.599999999999994L270.4461375,23.599999999999994L270.54799479166667,23.599999999999994L270.86525520833334,23.599999999999994L271.56656770833337,23.599999999999994L272.044128125,23.599999999999994L272.49998124999996,23.599999999999994L272.51333958333333,23.599999999999994L272.54172604166666,23.599999999999994L272.6385739583333,23.599999999999994L272.6970166666667,23.599999999999994L273.40166875,23.599999999999994L273.807428125,23.599999999999994L273.84416354166666,23.599999999999994L274.58722083333333,23.599999999999994L274.929528125,23.599999999999994L275.09316770833334,23.599999999999994L275.38538125,23.599999999999994L275.390390625,23.599999999999994L275.7226791666667,23.599999999999994L276.26870104166665,23.599999999999994L276.31044583333335,23.599999999999994L276.352190625,23.599999999999994L276.5909708333333,23.599999999999994L276.77464791666665,23.599999999999994L277.10526666666664,23.599999999999994L277.61288333333334,23.599999999999994L278.3526010416667,23.599999999999994L278.7132760416667,23.599999999999994L278.816803125,23.599999999999994L278.826821875,23.599999999999994L279.197515625,23.599999999999994L279.6116239583333,23.599999999999994L279.6850947916667,23.599999999999994L279.688434375,23.599999999999994L279.878790625,23.599999999999994L280.13426875,23.599999999999994L280.15597604166663,23.599999999999994L280.3229552083333,23.599999999999994L280.5851125,23.599999999999994L280.73873333333336,23.599999999999994L281.39329166666664,23.599999999999994L281.6036854166667,23.599999999999994L281.8040604166667,23.599999999999994L282.128,23.599999999999994L282.28996979166664,23.599999999999994L282.46529791666666,23.599999999999994L283.07811145833335,23.599999999999994L283.485540625,23.599999999999994L283.5473229166667,23.599999999999994L283.5573416666667,23.599999999999994L284.42563333333334,23.599999999999994L284.63769687499996,23.599999999999994L284.777959375,23.599999999999994L284.818034375,23.599999999999994L284.828053125,23.599999999999994L284.9215614583333,23.599999999999994L285.19707708333334,23.599999999999994L285.20709583333337,23.599999999999994L285.65626979166666,23.599999999999994L286.0236239583333,23.599999999999994L286.0987645833333,23.599999999999994L287.32606145833336,23.599999999999994L288.1826645833333,23.599999999999994L288.62181979166667,23.599999999999994L288.8221947916667,23.599999999999994L288.9040145833333,23.599999999999994L289.05262604166666,23.599999999999994L289.060975,23.599999999999994L289.0826822916667,23.599999999999994L289.5335260416667,23.599999999999994L289.57193125000003,23.599999999999994L290.26155520833333,23.599999999999994" style="fill: none;" fill="none"></path></g></g></g></g><g opacity="0.2"><g><g><g><path stroke="rgb(255, 112, 67)" stroke-width="2px" d="M37.51687916666667,121.93333333333334L38.09796666666667,62.93333333333332L38.371812500000004,94.4L39.22507604166667,59L39.33194270833334,55.06666666666666L39.41209270833333,59L39.447158333333334,66.86666666666666L39.77109791666667,74.73333333333335L39.807833333333335,74.73333333333335L40.63605,59L40.67278541666667,74.73333333333335L41.863346875000005,51.133333333333326L42.3192,59L42.414378125,62.93333333333332L42.56966875,62.93333333333332L42.85353333333333,55.06666666666666L43.673401041666665,59L44.438165625,55.06666666666666L45.081035416666666,55.06666666666666L45.33818333333333,62.93333333333332L45.49848333333333,78.66666666666666L45.900903125,55.06666666666666L45.9059125,74.73333333333335L46.37679375,62.93333333333332L46.628932291666665,59L46.68904479166667,59L46.770864583333335,59L46.9679,55.06666666666666L47.24508541666666,62.93333333333332L47.60576041666666,59L47.617448958333334,55.06666666666666L47.924690625000004,55.06666666666666L48.45902395833333,62.93333333333332L48.731199999999994,62.93333333333332L48.931575,47.20000000000002L49.026753125,59L49.60951041666667,55.06666666666666L49.881686458333334,59L50.1137875,55.06666666666666L50.54125416666667,51.133333333333326L50.88356145833333,47.20000000000002L50.935325,55.06666666666666L51.78357916666666,51.133333333333326L51.96892604166667,51.133333333333326L51.985623958333335,51.133333333333326L52.21605520833334,47.20000000000002L52.49991979166667,55.06666666666666L52.563371875,47.20000000000002L52.93740520833333,47.20000000000002L53.012545833333334,43.26666666666668L53.348173958333334,39.33333333333334L53.50179479166667,39.33333333333334L53.89753541666666,31.46666666666667L54.326671874999995,39.33333333333334L54.88104270833333,39.33333333333334L55.29682083333333,35.400000000000006L55.73263645833333,35.400000000000006L55.76102291666667,31.46666666666667L57.893346875,31.46666666666667L57.99019479166667,31.46666666666667L58.33250208333333,31.46666666666667L58.87685416666667,35.400000000000006L58.93696666666667,35.400000000000006L58.962013541666664,31.46666666666667L59.09392708333333,31.46666666666667L59.39448958333333,31.46666666666667L59.831975,35.400000000000006L59.957209375000005,31.46666666666667L59.960548958333334,35.400000000000006L60.65017291666666,31.46666666666667L61.429965625,31.46666666666667L61.64870833333333,31.46666666666667L62.24315416666666,31.46666666666667L62.488613541666666,31.46666666666667L62.54371666666666,31.46666666666667L62.652253125,27.53333333333333L63.068031250000004,31.46666666666667L63.36191458333334,31.46666666666667L63.42202708333333,31.46666666666667L63.492158333333336,31.46666666666667L63.85784270833333,31.46666666666667L64.14671666666668,31.46666666666667L64.57585312500001,31.46666666666667L64.716115625,31.46666666666667L65.05842291666667,31.46666666666667L65.14358229166668,31.46666666666667L65.49089895833333,31.46666666666667L65.56937916666666,27.53333333333333L65.607784375,31.46666666666667L65.89498854166666,27.53333333333333L65.90166770833333,27.53333333333333L66.158815625,31.46666666666667L66.33247395833334,27.53333333333333L66.84843958333333,27.53333333333333L66.91857083333333,31.46666666666667L67.07553125,27.53333333333333L67.34770729166667,27.53333333333333L67.69836354166667,27.53333333333333L67.73843854166667,27.53333333333333L68.21933854166666,27.53333333333333L68.59838125,31.46666666666667L68.61507916666667,27.53333333333333L68.65682395833333,27.53333333333333L68.67853125,27.53333333333333L68.72528541666667,27.53333333333333L68.99078229166666,27.53333333333333L69.45164479166667,27.53333333333333L69.53346458333333,27.53333333333333L69.85406458333334,31.46666666666667L69.975959375,27.53333333333333L70.01937395833333,27.53333333333333L70.36335104166668,27.53333333333333L70.386728125,27.53333333333333L70.49860416666667,27.53333333333333L70.79749687500001,27.53333333333333L71.43201770833333,31.46666666666667L71.69584479166666,27.53333333333333L72.26691354166667,27.53333333333333L72.56413645833334,27.53333333333333L72.74614375,27.53333333333333L72.89308541666666,27.53333333333333L72.941509375,27.53333333333333L73.1569125,27.53333333333333L73.48085208333333,27.53333333333333L73.542634375,27.53333333333333L73.54931354166666,27.53333333333333L73.84987604166668,27.53333333333333L73.97511041666667,27.53333333333333L74.28903125000001,27.53333333333333L74.31073854166667,27.53333333333333L74.41092604166667,27.53333333333333L74.84340208333333,27.53333333333333L75.12225729166666,27.53333333333333L75.13227604166667,27.53333333333333L75.20407708333333,27.53333333333333L75.24749166666666,27.53333333333333L75.27086875,27.53333333333333L75.67495833333334,27.53333333333333L75.92876666666668,27.53333333333333L75.98887916666666,27.53333333333333L76.1224625,27.53333333333333L76.13248125000001,27.53333333333333L76.33953541666666,27.53333333333333L76.40131770833334,27.53333333333333L76.44974166666667,27.53333333333333L76.61338125,27.53333333333333L76.82711458333334,27.53333333333333L77.11598854166667,27.53333333333333L77.12099791666665,27.53333333333333L77.139365625,27.53333333333333L78.151259375,27.53333333333333L78.24476770833333,27.53333333333333L78.47352916666667,27.53333333333333L78.642178125,27.53333333333333L79.654071875,27.53333333333333L79.71919375,27.53333333333333L79.96131354166667,27.53333333333333L80.08320833333333,27.53333333333333L80.30696041666666,27.53333333333333L80.34703541666667,27.53333333333333L80.70938020833333,27.53333333333333L80.97821666666667,27.53333333333333L81.13517708333333,27.53333333333333L81.43406979166667,27.53333333333333L81.517559375,27.53333333333333L81.81144270833335,27.53333333333333L81.86487604166668,27.53333333333333L81.98343125,27.53333333333333L82.218871875,27.53333333333333L82.40755833333334,27.53333333333333L82.64132916666667,27.53333333333333L82.82834583333333,23.599999999999994L83.44282916666667,27.53333333333333L83.54969583333333,27.53333333333333L83.95712499999999,27.53333333333333L84.152490625,27.53333333333333L84.30277187499999,27.53333333333333L84.312790625,27.53333333333333L84.76530416666667,27.53333333333333L84.813728125,27.53333333333333L84.93061354166667,27.53333333333333L84.96233958333333,27.53333333333333L85.02245208333333,27.53333333333333L85.274590625,23.599999999999994L85.34973124999999,23.599999999999994L85.51003125,23.599999999999994L85.59185104166666,23.599999999999994L85.94751666666667,27.53333333333333L86.12284479166667,27.53333333333333L86.23472083333334,27.53333333333333L86.29483333333333,27.53333333333333L86.35160625,27.53333333333333L86.69057395833333,27.53333333333333L86.86590208333334,23.599999999999994L87.32843437499999,27.53333333333333L87.40023541666666,27.53333333333333L87.52046041666667,27.53333333333333L87.829371875,27.53333333333333L88.10321770833333,27.53333333333333L88.66927708333333,27.53333333333333L88.94312291666665,27.53333333333333L89.12179062499999,27.53333333333333L89.15518645833333,27.53333333333333L89.37559895833334,23.599999999999994L89.55927604166668,23.599999999999994L89.58933229166666,27.53333333333333L89.93163958333332,27.53333333333333L89.96169583333332,23.599999999999994L90.42255833333334,23.599999999999994L90.865053125,23.599999999999994L90.93017499999999,23.599999999999994L90.95355208333334,23.599999999999994L91.3910375,23.599999999999994L91.76841041666667,23.599999999999994L92.30274374999999,27.53333333333333L92.37955416666667,27.53333333333333L93.40313645833334,23.599999999999994L93.43486250000001,23.599999999999994L93.53838958333333,23.599999999999994L93.540059375,27.53333333333333L93.55675729166667,23.599999999999994L94.41336041666668,23.599999999999994L94.75733749999999,23.599999999999994L95.06123958333333,23.599999999999994L95.08461666666666,27.53333333333333L95.27497291666667,23.599999999999994L95.373490625,27.53333333333333L95.62228958333334,23.599999999999994L95.70911875,23.599999999999994L96.80951145833333,27.53333333333333L96.8813125,23.599999999999994L96.93474583333334,23.599999999999994L97.30376979166667,23.599999999999994L97.42900416666666,27.53333333333333L97.828084375,23.599999999999994L97.92994166666666,27.53333333333333L98.13365625,23.599999999999994L98.99693854166667,27.53333333333333L99.36262291666667,23.599999999999994L99.57468645833333,27.53333333333333L99.841853125,23.599999999999994L99.99881354166666,27.53333333333333L100.06727500000001,23.599999999999994L100.708475,23.599999999999994L100.88046354166666,23.599999999999994L100.89048229166666,23.599999999999994L100.99567916666666,23.599999999999994L101.304590625,23.599999999999994L101.39475937499999,27.53333333333333L101.51164479166665,27.53333333333333L101.58177604166667,23.599999999999994L101.81220729166667,27.53333333333333L101.84226354166667,23.599999999999994L102.59533958333334,23.599999999999994L103.29665208333334,27.53333333333333L103.78590104166666,23.599999999999994L104.07310520833335,27.53333333333333L104.10483125,27.53333333333333L104.13655729166668,27.53333333333333L104.17663229166666,27.53333333333333L105.06663125000001,23.599999999999994L105.12841354166666,27.53333333333333L105.412278125,23.599999999999994L105.462371875,27.53333333333333L105.61933229166668,27.53333333333333L105.74790625,27.53333333333333L105.86646145833332,31.46666666666667L106.07184583333334,23.599999999999994L106.26554166666666,23.599999999999994L107.37929270833332,23.599999999999994L107.42270729166665,27.53333333333333L107.957040625,23.599999999999994L108.34276249999999,23.599999999999994L108.36446979166668,27.53333333333333L108.41957291666667,27.53333333333333L108.628296875,23.599999999999994L108.67338124999999,27.53333333333333L109.13591354166667,27.53333333333333L109.3446375,23.599999999999994L110.101053125,23.599999999999994L110.10606250000001,23.599999999999994L110.20458020833333,23.599999999999994L111.12630520833333,23.599999999999994L111.35506666666666,23.599999999999994L111.37677395833333,23.599999999999994L111.49699895833334,23.599999999999994L111.75748645833333,23.599999999999994L112.14487812499999,23.599999999999994L112.17660416666666,23.599999999999994L112.61909895833334,23.599999999999994L112.67253229166667,23.599999999999994L112.98979270833334,23.599999999999994L113.04990520833333,23.599999999999994L113.45399479166666,23.599999999999994L113.78962291666666,23.599999999999994L113.85140520833333,23.599999999999994L113.99500729166667,23.599999999999994L114.40577604166667,23.599999999999994L114.81320520833334,23.599999999999994L114.94511875,23.599999999999994L115.14883333333334,23.599999999999994L115.21729479166667,23.599999999999994L115.55292291666666,23.599999999999994L115.55960208333333,23.599999999999994L115.64810104166668,23.599999999999994L115.94198437499999,23.599999999999994L116.002096875,23.599999999999994L116.41954479166667,23.599999999999994L116.83699270833334,23.599999999999994L117.10749895833334,27.53333333333333L117.25945,23.599999999999994L117.264459375,23.599999999999994L117.61678541666667,23.599999999999994L118.07931770833333,23.599999999999994L118.49008645833334,23.599999999999994L118.52348229166667,23.599999999999994L118.53851041666667,23.599999999999994L118.55019895833333,23.599999999999994L118.61532083333334,23.599999999999994L119.02441979166667,23.599999999999994L119.47192395833333,23.599999999999994L119.49363125,23.599999999999994L120.15486874999999,23.599999999999994L120.30681979166665,23.599999999999994L120.36526250000001,23.599999999999994L120.50886458333333,23.599999999999994L120.81610625,23.599999999999994L120.83781354166666,23.599999999999994L120.94468020833334,23.599999999999994L120.97139687500001,23.599999999999994L120.98809479166667,23.599999999999994L121.26695,23.599999999999994L121.86306562499999,23.599999999999994L122.28051354166668,23.599999999999994L122.61280208333334,23.599999999999994L122.96011875,23.599999999999994L123.03692916666665,23.599999999999994L123.385915625,23.599999999999994L123.68146875,23.599999999999994L124.20077395833334,23.599999999999994L124.47628958333333,23.599999999999994L124.62156145833333,23.599999999999994L124.78353125000001,23.599999999999994L125.20765833333333,23.599999999999994L125.21767708333333,23.599999999999994L125.50154166666667,23.599999999999994L125.63345520833333,23.599999999999994L125.89227291666666,23.599999999999994L126.52345416666668,23.599999999999994L126.596925,23.599999999999994L126.89915729166667,23.599999999999994L126.90583645833333,23.599999999999994L126.94758125,23.599999999999994L127.66893125,23.599999999999994L128.46375208333333,23.599999999999994L128.62405208333334,23.599999999999994L129.01144375,23.599999999999994L129.327034375,23.599999999999994L129.42555208333334,23.599999999999994L129.527409375,23.599999999999994L129.71275624999998,23.599999999999994L129.843,23.599999999999994L130.14523229166667,23.599999999999994L130.16693958333335,23.599999999999994L130.24541979166668,23.599999999999994L130.43076666666667,23.599999999999994L130.59273645833335,23.599999999999994L130.98680729166668,23.599999999999994L131.06361770833334,23.599999999999994L131.54284791666666,23.599999999999994L131.5461875,23.599999999999994L131.566225,23.599999999999994L132.30093333333335,23.599999999999994L132.42449791666667,23.599999999999994L132.688325,23.599999999999994L132.77348437499998,23.599999999999994L132.79018229166667,23.599999999999994L132.99723645833333,23.599999999999994L133.09074479166668,23.599999999999994L133.15920625,23.599999999999994L133.52489062499998,23.599999999999994L133.59836145833333,23.599999999999994L133.7102375,23.599999999999994L133.92063125,23.599999999999994L133.99243229166666,23.599999999999994L134.13436458333334,23.599999999999994L134.30134375,23.599999999999994L134.20115625,59L134.74550833333333,27.53333333333333L134.81396979166666,27.53333333333333L134.817309375,31.46666666666667L134.86072395833332,31.46666666666667L135.05441979166667,23.599999999999994L135.09950416666666,39.33333333333334L135.198021875,23.599999999999994L135.48522604166666,27.53333333333333L135.66556354166667,35.400000000000006L135.93773958333333,23.599999999999994L136.01788958333333,23.599999999999994L136.3551875,23.599999999999994L136.5154875,35.400000000000006L136.770965625,23.599999999999994L136.936275,23.599999999999994L137.20344166666666,23.599999999999994L137.23015833333335,35.400000000000006L137.261884375,23.599999999999994L137.79120833333332,27.53333333333333L137.993253125,27.53333333333333L138.10178958333333,23.599999999999994L138.23871250000002,27.53333333333333L138.37229583333334,23.599999999999994L138.434078125,23.599999999999994L138.474153125,27.53333333333333L138.64614166666667,23.599999999999994L138.84651666666667,23.599999999999994L138.90328958333333,23.599999999999994L139.26396458333335,27.53333333333333L139.27064375,23.599999999999994L139.55450833333333,23.599999999999994L139.67807291666665,23.599999999999994L139.69477083333334,23.599999999999994L139.886796875,23.599999999999994L140.54135520833333,23.599999999999994L140.60480729166665,23.599999999999994L140.738390625,23.599999999999994L140.77679583333332,35.400000000000006L140.96214270833332,23.599999999999994L141.06066041666665,23.599999999999994L141.589984375,23.599999999999994L141.76364270833332,23.599999999999994L142.97591145833331,23.599999999999994L143.15958854166666,23.599999999999994L143.32155833333334,23.599999999999994L143.613771875,23.599999999999994L143.78743020833335,23.599999999999994L143.87926875,23.599999999999994L143.8892875,23.599999999999994L143.92769270833332,23.599999999999994L144.00617291666666,23.599999999999994L144.074634375,23.599999999999994L144.23660416666667,23.599999999999994L144.43697916666667,23.599999999999994L144.67241979166667,27.53333333333333L144.85442708333335,23.599999999999994L146.94500625,23.599999999999994L147.36412395833332,23.599999999999994L147.62962083333332,23.599999999999994L147.79326041666667,23.599999999999994L147.94855104166666,23.599999999999994L148.04038958333334,23.599999999999994L148.04539895833332,23.599999999999994L148.16395416666666,23.599999999999994L148.593090625,23.599999999999994L148.66823125,23.599999999999994L148.753390625,23.599999999999994L148.87528541666666,23.599999999999994L149.404609375,23.599999999999994L149.48141979166667,23.599999999999994L149.53652291666666,23.599999999999994L149.91222604166666,23.599999999999994L150.356390625,23.599999999999994L151.07774062500002,27.53333333333333L151.64713958333334,27.53333333333333L151.8425052083333,23.599999999999994L151.85252395833334,23.599999999999994L152.00113541666664,23.599999999999994L152.43528125,23.599999999999994L152.50875208333335,23.599999999999994L152.70745729166669,23.599999999999994L153.14995208333335,23.599999999999994L153.5674,23.599999999999994L153.57741875,23.599999999999994L154.03995104166665,23.599999999999994L154.44070104166664,23.599999999999994L154.744603125,23.599999999999994L154.76631041666664,23.599999999999994L154.84813020833332,23.599999999999994L154.904903125,23.599999999999994L155.19210729166667,23.599999999999994L155.9518625,23.599999999999994L156.25409479166666,23.599999999999994L156.29083020833332,23.599999999999994L156.79343749999998,23.599999999999994L156.958746875,23.599999999999994L156.9971520833333,23.599999999999994L157.03722708333333,23.599999999999994L157.189178125,23.599999999999994L157.66673854166666,23.599999999999994L157.80199166666665,23.599999999999994L158.09754479166665,23.599999999999994L158.281221875,23.599999999999994L158.29625,23.599999999999994L158.56007708333334,23.599999999999994L158.63020833333334,23.599999999999994L159.032628125,23.599999999999994L159.10776875,23.599999999999994L159.45007604166668,23.599999999999994L159.50016979166665,23.599999999999994L159.72225208333333,23.599999999999994L160.58887395833332,23.599999999999994L160.66735416666666,23.599999999999994L161.22005520833332,23.599999999999994L161.50558958333332,23.599999999999994L162.03324375,23.599999999999994L162.038253125,23.599999999999994L162.33380625,23.599999999999994L162.45069166666667,23.599999999999994L162.75626354166667,23.599999999999994L162.89819583333335,23.599999999999994L163.13530624999999,23.599999999999994L163.26388020833332,23.599999999999994L163.6462625,23.599999999999994L163.86333541666664,23.599999999999994L164.05703125,23.599999999999994L164.142190625,23.599999999999994L164.1472,23.599999999999994L164.53459166666667,23.599999999999994L164.81511666666668,23.599999999999994L165.06224583333332,23.599999999999994L165.25093229166666,23.599999999999994L166.065790625,23.599999999999994L166.25781666666666,23.599999999999994L166.45151249999998,23.599999999999994L166.52164375,23.599999999999994L166.83389479166667,23.599999999999994L167.32648333333336,23.599999999999994L167.54188645833332,23.599999999999994L167.74226145833333,23.599999999999994L168.60220416666667,23.599999999999994L169.1165,23.599999999999994L169.15991458333335,23.599999999999994L169.22837604166665,23.599999999999994L169.64582395833332,23.599999999999994L170.05826249999998,23.599999999999994L170.06494166666667,23.599999999999994L170.08998854166666,23.599999999999994L170.09666770833334,23.599999999999994L170.10835624999999,23.599999999999994L170.13006354166666,23.599999999999994L170.52747395833333,23.599999999999994L171.66460208333334,23.599999999999994L171.71135625000002,23.599999999999994L171.73139375,23.599999999999994L171.9818625,23.599999999999994L172.50617708333334,23.599999999999994L172.65311875,23.599999999999994L173.12566979166667,23.599999999999994L173.15405625,23.599999999999994L173.25925312500001,23.599999999999994L173.319365625,23.599999999999994L173.45294895833334,23.599999999999994L173.50638229166665,23.599999999999994L174.38302291666665,23.599999999999994L174.77041458333332,23.599999999999994L174.842215625,23.599999999999994L175.19287187499998,23.599999999999994L175.79566666666668,23.599999999999994L175.79733645833335,23.599999999999994L176.18639791666666,23.599999999999994L176.21645416666667,23.599999999999994L176.23649166666667,23.599999999999994L176.57712916666665,23.599999999999994L176.615534375,23.599999999999994L176.9695302083333,23.599999999999994L177.01962395833334,23.599999999999994L177.04300104166666,23.599999999999994L177.32686562499998,23.599999999999994L177.88123645833332,23.599999999999994L177.892925,23.599999999999994L178.02483854166667,23.599999999999994L178.09163020833333,23.599999999999994L178.56418125,23.599999999999994L178.98329895833334,23.599999999999994L179.3890583333333,23.599999999999994L180.19556770833333,23.599999999999994L180.50113958333333,23.599999999999994L180.52952604166668,23.599999999999994L180.698175,23.599999999999994L181.13065104166665,23.599999999999994L181.51804270833333,23.599999999999994L181.71507812500002,23.599999999999994L181.98725416666665,23.599999999999994L182.015640625,23.599999999999994L182.15757291666668,23.599999999999994L182.27779791666666,23.599999999999994L182.35460833333332,23.599999999999994L182.47316354166668,23.599999999999994L182.54496458333335,23.599999999999994L182.73365104166666,23.599999999999994L182.90230000000003,23.599999999999994L183.00582708333332,23.599999999999994L183.17614583333335,23.599999999999994L183.59526354166667,23.599999999999994L183.61029166666668,23.599999999999994L183.62198020833333,23.599999999999994L183.62365,23.599999999999994L184.04944687499997,23.599999999999994L184.67561875,23.599999999999994L184.82256041666668,23.599999999999994L184.88434270833335,23.599999999999994L184.96950208333334,23.599999999999994L185.1231229166667,23.599999999999994L185.55392916666668,23.599999999999994L185.712559375,23.599999999999994L186.223515625,23.599999999999994L186.50738020833333,23.599999999999994L187.325578125,23.599999999999994L187.92002395833336,23.599999999999994L188.0118625,23.599999999999994L188.26400104166666,23.599999999999994L188.26901041666667,23.599999999999994L188.45101770833332,23.599999999999994L188.53617708333334,23.599999999999994L188.713175,23.599999999999994L188.93692708333333,23.599999999999994L189.0972270833333,23.599999999999994L189.90206666666666,23.599999999999994L190.22433645833334,23.599999999999994L190.32285416666667,23.599999999999994L190.70356666666666,23.599999999999994L190.721934375,23.599999999999994L191.02917604166666,23.599999999999994L191.11767500000002,23.599999999999994L192.304896875,23.599999999999994L192.34664166666667,23.599999999999994L192.7006375,23.599999999999994L192.74906145833333,23.599999999999994L192.84757916666666,23.599999999999994L192.89433333333332,23.599999999999994L192.96279479166668,23.599999999999994L193.33682812499998,23.599999999999994L193.93461354166666,23.599999999999994L194.17339375,23.599999999999994L194.51236145833332,23.599999999999994L194.679340625,23.599999999999994L194.71440625000002,23.599999999999994L195.13686354166668,23.599999999999994L195.75969583333332,23.599999999999994L196.00515520833332,23.599999999999994L196.15376666666666,23.599999999999994L196.49774375,23.599999999999994L196.888475,23.599999999999994L196.90016354166667,23.599999999999994L196.97196458333332,27.53333333333333L197.25248958333333,23.599999999999994L197.39442187499998,23.599999999999994L197.74006875,23.599999999999994L198.165865625,23.599999999999994L198.23766666666666,23.599999999999994L198.60335104166666,23.599999999999994L198.63006770833334,23.599999999999994L199.0391666666667,23.599999999999994L199.097609375,23.599999999999994L199.41486979166666,23.599999999999994L199.448265625,23.599999999999994L199.52507604166667,23.599999999999994L199.84567604166665,23.599999999999994L200.32156666666668,23.599999999999994L200.680571875,23.599999999999994L200.77908958333333,23.599999999999994L201.64070208333334,23.599999999999994L201.84942604166667,23.599999999999994L201.9980375,23.599999999999994L202.16668645833334,23.599999999999994L202.52068229166667,23.599999999999994L202.67263333333332,23.599999999999994L202.76280208333336,23.599999999999994L203.07338333333334,23.599999999999994L203.07672291666668,23.599999999999994L203.30381458333332,23.599999999999994L203.67784791666668,23.599999999999994L203.85818541666666,23.599999999999994L204.04186249999998,23.599999999999994L204.27897291666667,23.599999999999994L204.77657083333332,23.599999999999994L204.8617302083333,23.599999999999994L205.31925312500002,23.599999999999994L205.389384375,23.599999999999994L205.70330520833332,23.599999999999994L205.79180416666668,23.599999999999994L206.66510520833333,23.599999999999994L206.68013333333332,23.599999999999994L207.03746875,23.599999999999994L207.05416666666667,23.599999999999994L207.08589270833335,23.599999999999994L207.34638020833336,23.599999999999994L207.77885625000002,23.599999999999994L207.85065729166666,23.599999999999994L208.34825520833334,23.599999999999994L208.97776666666667,23.599999999999994L209.21821666666665,23.599999999999994L209.83436979166666,23.599999999999994L209.87444479166666,23.599999999999994L210.09151770833336,23.599999999999994L210.13326250000003,23.599999999999994L210.82956562500001,23.599999999999994L210.95313020833333,23.599999999999994L211.019921875,23.599999999999994L211.10174166666664,23.599999999999994L211.26204166666668,23.599999999999994L211.44738854166667,23.599999999999994L211.87485520833334,23.599999999999994L212.0769,23.599999999999994L212.18376666666666,23.599999999999994L212.66800625,23.599999999999994L212.77153333333334,23.599999999999994L212.95688020833333,23.599999999999994L213.35763020833335,23.599999999999994L214.5398427083333,23.599999999999994L214.69346354166666,23.599999999999994L214.94393229166667,23.599999999999994L215.77047916666666,23.599999999999994L215.90740208333332,23.599999999999994L216.01426875,23.599999999999994L216.10777708333336,23.599999999999994L216.16788958333333,23.599999999999994L216.42336770833336,23.599999999999994L216.51687604166665,23.599999999999994L216.61706354166668,23.599999999999994L217.01447395833335,23.599999999999994L217.31837604166668,23.599999999999994L217.55882604166666,23.599999999999994L217.86940729166668,23.599999999999994L218.07813125,23.599999999999994L218.1799885416667,23.599999999999994L218.764415625,23.599999999999994L218.84790520833334,23.599999999999994L218.994846875,23.599999999999994L219.52918020833334,23.599999999999994L219.78465833333334,23.599999999999994L219.93326979166667,23.599999999999994L219.956646875,23.599999999999994L220.38745312499998,23.599999999999994L220.47261250000003,23.599999999999994L220.73476979166665,23.599999999999994L221.25741458333334,23.599999999999994L222.12570625,23.599999999999994L222.51142812499998,23.599999999999994L222.60326666666666,23.599999999999994L222.93388541666664,23.599999999999994L222.9555927083333,23.599999999999994L223.84058229166666,23.599999999999994L223.86228958333334,23.599999999999994L223.8789875,23.599999999999994L224.1762104166667,23.599999999999994L224.24634166666667,23.599999999999994L224.67380833333334,23.599999999999994L225.01444583333333,23.599999999999994L225.356753125,23.599999999999994L225.3951583333333,23.599999999999994L225.527071875,23.599999999999994L225.96622708333334,23.599999999999994L226.26845937500002,23.599999999999994L226.5957385416667,23.599999999999994L226.72264270833335,23.599999999999994L227.300390625,23.599999999999994L227.53416145833333,23.599999999999994L227.92823229166666,23.599999999999994L228.06348541666665,23.599999999999994L228.22378541666666,23.599999999999994L228.49429166666667,23.599999999999994L228.56609270833334,23.599999999999994L228.64624270833335,23.599999999999994L229.16053854166665,23.599999999999994L229.23066979166666,23.599999999999994L229.75164479166668,23.599999999999994L229.81175729166665,23.599999999999994L229.82177604166665,23.599999999999994L230.175771875,23.599999999999994L230.24256354166667,23.599999999999994L230.24924270833333,23.599999999999994L230.2976666666667,23.599999999999994L230.32939270833336,23.599999999999994L230.626615625,23.599999999999994L231.53832187499998,23.599999999999994L231.62682083333334,23.599999999999994L232.31811458333334,23.599999999999994L232.49177291666666,23.599999999999994L232.49344270833333,23.599999999999994L232.650403125,23.599999999999994L232.94595625,23.599999999999994L233.20811354166665,23.599999999999994L233.57379791666668,23.599999999999994L234.87289583333336,23.599999999999994L235.68942395833332,23.599999999999994L235.78627187499998,23.599999999999994L236.18702187500003,23.599999999999994L236.24212500000002,23.599999999999994L236.778128125,23.599999999999994L236.91004166666667,23.599999999999994L236.92340000000002,23.599999999999994L237.00021041666668,23.599999999999994L237.16551979166664,23.599999999999994L237.198915625,23.599999999999994L237.349196875,23.599999999999994L238.29262916666667,23.599999999999994L238.631596875,23.599999999999994L238.68336041666666,23.599999999999994L238.89709374999998,23.599999999999994L239.11082708333336,23.599999999999994L239.55165208333332,23.599999999999994L239.97744895833333,23.599999999999994L240.03756145833336,23.599999999999994L240.04925,23.599999999999994L240.47838645833332,23.599999999999994L240.8474104166667,23.599999999999994L241.41346979166664,23.599999999999994L241.7507677083333,23.599999999999994L241.837596875,23.599999999999994L242.08472604166667,23.599999999999994L242.25003541666666,23.599999999999994L242.40699583333333,23.599999999999994L242.90626354166665,23.599999999999994L243.00645104166668,23.599999999999994L243.34541875,23.599999999999994L243.50404895833333,23.599999999999994L243.8547052083333,23.599999999999994L244.27048333333335,23.599999999999994L244.66622395833335,23.599999999999994L244.7981375,23.599999999999994L245.223934375,23.599999999999994L245.354178125,23.599999999999994L245.85344583333335,23.599999999999994L246.225809375,23.599999999999994L246.3176479166667,23.599999999999994L246.3610625,23.599999999999994L246.44956145833333,23.599999999999994L246.73676562499998,23.599999999999994L246.741775,23.599999999999994L246.74678437499998,23.599999999999994L247.23603333333332,23.599999999999994L247.61340625,23.599999999999994L247.62843437499998,23.599999999999994L247.70524479166667,23.599999999999994L248.04421250000001,23.599999999999994L248.13271145833332,23.599999999999994L248.44830208333332,23.599999999999994L248.56351770833334,23.599999999999994L248.89914583333334,23.599999999999994L249.33663125,23.599999999999994L249.7106645833333,23.599999999999994L249.77077708333334,23.599999999999994L249.85426666666666,23.599999999999994L250.243328125,23.599999999999994L250.26503541666668,23.599999999999994L251.05317708333334,23.599999999999994L251.11829895833333,23.599999999999994L251.14000625,23.599999999999994L252.15857916666667,23.599999999999994L252.22537083333333,23.599999999999994L252.387340625,23.599999999999994L252.63947916666666,23.599999999999994L252.71628958333332,23.599999999999994L253.058596875,23.599999999999994L253.14041666666665,23.599999999999994L253.18550104166667,23.599999999999994L253.870115625,23.599999999999994L253.92688854166667,23.599999999999994L253.970303125,23.599999999999994L254.39776979166666,23.599999999999994L254.67495520833333,23.599999999999994L255.18090208333334,23.599999999999994L255.24101458333334,23.599999999999994L255.25103333333334,23.599999999999994L255.36457916666666,23.599999999999994L255.99576041666668,23.599999999999994L256.5568104166667,23.599999999999994L256.905796875,23.599999999999994L257.36498958333334,23.599999999999994L257.69226875000004,23.599999999999994L257.82418229166666,23.599999999999994L258.23161145833336,23.599999999999994L258.2599979166667,23.599999999999994L258.5839375,23.599999999999994L258.8060197916667,23.599999999999994L258.94795208333335,23.599999999999994L258.99470625,23.599999999999994L259.420503125,23.599999999999994L260.35057708333335,23.599999999999994L260.5342541666667,23.599999999999994L260.75800625,23.599999999999994L261.0051354166667,23.599999999999994L261.454309375,23.599999999999994L261.6029208333333,23.599999999999994L261.90014375,23.599999999999994L262.1472729166667,23.599999999999994L262.2274229166667,23.599999999999994L262.546353125,23.599999999999994L262.7584166666667,23.599999999999994L262.78513333333336,23.599999999999994L262.8001614583333,23.599999999999994L262.86194375,23.599999999999994L262.9454333333333,23.599999999999994L263.00220625,23.599999999999994L263.2459958333333,23.599999999999994L263.2727125,23.599999999999994L263.39627708333336,23.599999999999994L263.53486979166667,23.599999999999994L263.6116802083333,23.599999999999994L263.66010416666666,23.599999999999994L263.708528125,23.599999999999994L263.778659375,23.599999999999994L263.80036666666666,23.599999999999994L264.1760697916667,23.599999999999994L264.479971875,23.599999999999994L264.580159375,23.599999999999994L264.640271875,23.599999999999994L265.28648125,23.599999999999994L265.7055989583333,23.599999999999994L265.74734374999997,23.599999999999994L265.762371875,23.599999999999994L265.912653125,23.599999999999994L266.31173333333334,23.599999999999994L266.55552291666663,23.599999999999994L266.77259583333336,23.599999999999994L267.39709791666667,23.599999999999994L267.63420833333333,23.599999999999994L267.645896875,23.599999999999994L267.8245645833333,23.599999999999994L268.106759375,23.599999999999994L268.42235,23.599999999999994L268.53589583333337,23.599999999999994L268.66446979166665,23.599999999999994L268.68617708333335,23.599999999999994L269.128671875,23.599999999999994L269.57450625,23.599999999999994L269.579515625,23.599999999999994L269.9869447916667,23.599999999999994L270.4461375,23.599999999999994L270.54799479166667,23.599999999999994L270.86525520833334,23.599999999999994L271.56656770833337,23.599999999999994L272.044128125,23.599999999999994L272.49998124999996,23.599999999999994L272.51333958333333,23.599999999999994L272.54172604166666,23.599999999999994L272.6385739583333,23.599999999999994L272.6970166666667,23.599999999999994L273.40166875,23.599999999999994L273.807428125,23.599999999999994L273.84416354166666,23.599999999999994L274.58722083333333,23.599999999999994L274.929528125,23.599999999999994L275.09316770833334,23.599999999999994L275.38538125,23.599999999999994L275.390390625,23.599999999999994L275.7226791666667,23.599999999999994L276.26870104166665,23.599999999999994L276.31044583333335,23.599999999999994L276.352190625,23.599999999999994L276.5909708333333,23.599999999999994L276.77464791666665,23.599999999999994L277.10526666666664,23.599999999999994L277.61288333333334,23.599999999999994L278.3526010416667,23.599999999999994L278.7132760416667,23.599999999999994L278.816803125,23.599999999999994L278.826821875,23.599999999999994L279.197515625,23.599999999999994L279.6116239583333,23.599999999999994L279.6850947916667,23.599999999999994L279.688434375,23.599999999999994L279.878790625,23.599999999999994L280.13426875,23.599999999999994L280.15597604166663,23.599999999999994L280.3229552083333,23.599999999999994L280.5851125,23.599999999999994L280.73873333333336,23.599999999999994L281.39329166666664,23.599999999999994L281.6036854166667,23.599999999999994L281.8040604166667,23.599999999999994L282.128,23.599999999999994L282.28996979166664,23.599999999999994L282.46529791666666,23.599999999999994L283.07811145833335,23.599999999999994L283.485540625,23.599999999999994L283.5473229166667,23.599999999999994L283.5573416666667,23.599999999999994L284.42563333333334,23.599999999999994L284.63769687499996,23.599999999999994L284.777959375,23.599999999999994L284.818034375,23.599999999999994L284.828053125,23.599999999999994L284.9215614583333,23.599999999999994L285.19707708333334,23.599999999999994L285.20709583333337,23.599999999999994L285.65626979166666,23.599999999999994L286.0236239583333,23.599999999999994L286.0987645833333,23.599999999999994L287.32606145833336,23.599999999999994L288.1826645833333,23.599999999999994L288.62181979166667,23.599999999999994L288.8221947916667,23.599999999999994L288.9040145833333,23.599999999999994L289.05262604166666,23.599999999999994L289.060975,23.599999999999994L289.0826822916667,23.599999999999994L289.5335260416667,23.599999999999994L289.57193125000003,23.599999999999994L290.26155520833333,23.599999999999994" style="fill: none;" fill="none"></path></g></g></g></g></g></g><g transform="translate(29, 177)" clip-path="url(#clip_1)"><clipPath id="clip_1"><rect width="300" height="23"></rect></clipPath><g><g><line x1="0" y1="0" x2="0" y2="5" style="visibility: inherit;" fill="rgb(0, 0, 0)" stroke="rgb(204, 204, 204)" stroke-width="1px"></line><line x1="33.39583333333333" y1="0" x2="33.39583333333333" y2="5" style="visibility: inherit;" fill="rgb(0, 0, 0)" stroke="rgb(204, 204, 204)" stroke-width="1px"></line><line x1="66.79166666666666" y1="0" x2="66.79166666666666" y2="5" style="visibility: inherit;" fill="rgb(0, 0, 0)" stroke="rgb(204, 204, 204)" stroke-width="1px"></line><line x1="100.1875" y1="0" x2="100.1875" y2="5" style="visibility: inherit;" fill="rgb(0, 0, 0)" stroke="rgb(204, 204, 204)" stroke-width="1px"></line><line x1="133.58333333333331" y1="0" x2="133.58333333333331" y2="5" style="visibility: inherit;" fill="rgb(0, 0, 0)" stroke="rgb(204, 204, 204)" stroke-width="1px"></line><line x1="166.97916666666669" y1="0" x2="166.97916666666669" y2="5" style="visibility: inherit;" fill="rgb(0, 0, 0)" stroke="rgb(204, 204, 204)" stroke-width="1px"></line><line x1="200.375" y1="0" x2="200.375" y2="5" style="visibility: inherit;" fill="rgb(0, 0, 0)" stroke="rgb(204, 204, 204)" stroke-width="1px"></line><line x1="233.77083333333334" y1="0" x2="233.77083333333334" y2="5" style="visibility: inherit;" fill="rgb(0, 0, 0)" stroke="rgb(204, 204, 204)" stroke-width="1px"></line><line x1="267.16666666666663" y1="0" x2="267.16666666666663" y2="5" style="visibility: inherit;" fill="rgb(0, 0, 0)" stroke="rgb(204, 204, 204)" stroke-width="1px"></line><line x1="300.5625" y1="0" x2="300.5625" y2="5" style="visibility: inherit;" fill="rgb(0, 0, 0)" stroke="rgb(204, 204, 204)" stroke-width="1px"></line></g><g transform="translate(0, 8)"><text x="0" y="0" dx="0em" dy="0.95em" style="text-anchor: middle; visibility: hidden; font-family: &quot;Helvetica Neue&quot;, sans-serif; font-size: 12px; font-weight: 200;" fill="rgb(50, 49, 63)" stroke="none" stroke-width="1px">-20k</text><text x="33.39583333333333" y="0" dx="0em" dy="0.95em" style="text-anchor: middle; visibility: inherit; font-family: &quot;Helvetica Neue&quot;, sans-serif; font-size: 12px; font-weight: 200;" fill="rgb(50, 49, 63)" stroke="none" stroke-width="1px">0</text><text x="66.79166666666666" y="0" dx="0em" dy="0.95em" style="text-anchor: middle; visibility: inherit; font-family: &quot;Helvetica Neue&quot;, sans-serif; font-size: 12px; font-weight: 200;" fill="rgb(50, 49, 63)" stroke="none" stroke-width="1px">20k</text><text x="100.1875" y="0" dx="0em" dy="0.95em" style="text-anchor: middle; visibility: inherit; font-family: &quot;Helvetica Neue&quot;, sans-serif; font-size: 12px; font-weight: 200;" fill="rgb(50, 49, 63)" stroke="none" stroke-width="1px">40k</text><text x="133.58333333333331" y="0" dx="0em" dy="0.95em" style="text-anchor: middle; visibility: inherit; font-family: &quot;Helvetica Neue&quot;, sans-serif; font-size: 12px; font-weight: 200;" fill="rgb(50, 49, 63)" stroke="none" stroke-width="1px">60k</text><text x="166.97916666666669" y="0" dx="0em" dy="0.95em" style="text-anchor: middle; visibility: inherit; font-family: &quot;Helvetica Neue&quot;, sans-serif; font-size: 12px; font-weight: 200;" fill="rgb(50, 49, 63)" stroke="none" stroke-width="1px">80k</text><text x="200.375" y="0" dx="0em" dy="0.95em" style="text-anchor: middle; visibility: inherit; font-family: &quot;Helvetica Neue&quot;, sans-serif; font-size: 12px; font-weight: 200;" fill="rgb(50, 49, 63)" stroke="none" stroke-width="1px">100k</text><text x="233.77083333333334" y="0" dx="0em" dy="0.95em" style="text-anchor: middle; visibility: inherit; font-family: &quot;Helvetica Neue&quot;, sans-serif; font-size: 12px; font-weight: 200;" fill="rgb(50, 49, 63)" stroke="none" stroke-width="1px">120k</text><text x="267.16666666666663" y="0" dx="0em" dy="0.95em" style="text-anchor: middle; visibility: inherit; font-family: &quot;Helvetica Neue&quot;, sans-serif; font-size: 12px; font-weight: 200;" fill="rgb(50, 49, 63)" stroke="none" stroke-width="1px">140k</text><text x="300.5625" y="0" dx="0em" dy="0.95em" style="text-anchor: middle; visibility: hidden; font-family: &quot;Helvetica Neue&quot;, sans-serif; font-size: 12px; font-weight: 200;" fill="rgb(50, 49, 63)" stroke="none" stroke-width="1px">160k</text></g><line x1="0" y1="0" x2="300.5625" y2="0" fill="rgb(0, 0, 0)" stroke="rgb(204, 204, 204)" stroke-width="1px"></line></g></g></g></g></svg>