<svg viewBox="0 0 330 200" xmlns="http://www.w3.org/2000/svg"><g><g><g><g><g><line x1="58.59375" y1="177" x2="53.59375" y2="177" style="visibility: inherit;" fill="rgb(0, 0, 0)" stroke="rgb(204, 204, 204)" stroke-width="1px"></line><line x1="58.59375" y1="157.33333333333334" x2="53.59375" y2="157.33333333333334" style="visibility: inherit;" fill="rgb(0, 0, 0)" stroke="rgb(204, 204, 204)" stroke-width="1px"></line><line x1="58.59375" y1="137.66666666666669" x2="53.59375" y2="137.66666666666669" style="visibility: inherit;" fill="rgb(0, 0, 0)" stroke="rgb(204, 204, 204)" stroke-width="1px"></line><line x1="58.59375" y1="118" x2="53.59375" y2="118" style="visibility: inherit;" fill="rgb(0, 0, 0)" stroke="rgb(204, 204, 204)" stroke-width="1px"></line><line x1="58.59375" y1="98.33333333333334" x2="53.59375" y2="98.33333333333334" style="visibility: inherit;" fill="rgb(0, 0, 0)" stroke="rgb(204, 204, 204)" stroke-width="1px"></line><line x1="58.59375" y1="78.66666666666666" x2="53.59375" y2="78.66666666666666" style="visibility: inherit;" fill="rgb(0, 0, 0)" stroke="rgb(204, 204, 204)" stroke-width="1px"></line><line x1="58.59375" y1="59" x2="53.59375" y2="59" style="visibility: inherit;" fill="rgb(0, 0, 0)" stroke="rgb(204, 204, 204)" stroke-width="1px"></line><line x1="58.59375" y1="39.33333333333334" x2="53.59375" y2="39.33333333333334" style="visibility: inherit;" fill="rgb(0, 0, 0)" stroke="rgb(204, 204, 204)" stroke-width="1px"></line><line x1="58.59375" y1="19.666666666666686" x2="53.59375" y2="19.666666666666686" style="visibility: inherit;" fill="rgb(0, 0, 0)" stroke="rgb(204, 204, 204)" stroke-width="1px"></line><line x1="58.59375" y1="0" x2="53.59375" y2="0" style="visibility: inherit;" fill="rgb(0, 0, 0)" stroke="rgb(204, 204, 204)" stroke-width="1px"></line></g><g transform="translate(48.59375, 0)"><text x="0" y="177" dx="0em" dy="0.3em" style="text-anchor: end; visibility: hidden; font-family: &quot;Helvetica Neue&quot;, sans-serif; font-size: 12px; font-weight: 200;" fill="rgb(50, 49, 63)" stroke="none" stroke-width="1px">-1e+3</text><text x="0" y="157.33333333333334" dx="0em" dy="0.3em" style="text-anchor: end; visibility: inherit; font-family: &quot;Helvetica Neue&quot;, sans-serif; font-size: 12px; font-weight: 200;" fill="rgb(50, 49, 63)" stroke="none" stroke-width="1px">0</text><text x="0" y="137.66666666666669" dx="0em" dy="0.3em" style="text-anchor: end; visibility: hidden; font-family: &quot;Helvetica Neue&quot;, sans-serif; font-size: 12px; font-weight: 200;" fill="rgb(50, 49, 63)" stroke="none" stroke-width="1px">1e+3</text><text x="0" y="118" dx="0em" dy="0.3em" style="text-anchor: end; visibility: inherit; font-family: &quot;Helvetica Neue&quot;, sans-serif; font-size: 12px; font-weight: 200;" fill="rgb(50, 49, 63)" stroke="none" stroke-width="1px">2e+3</text><text x="0" y="98.33333333333334" dx="0em" dy="0.3em" style="text-anchor: end; visibility: hidden; font-family: &quot;Helvetica Neue&quot;, sans-serif; font-size: 12px; font-weight: 200;" fill="rgb(50, 49, 63)" stroke="none" stroke-width="1px">3e+3</text><text x="0" y="78.66666666666666" dx="0em" dy="0.3em" style="text-anchor: end; visibility: inherit; font-family: &quot;Helvetica Neue&quot;, sans-serif; font-size: 12px; font-weight: 200;" fill="rgb(50, 49, 63)" stroke="none" stroke-width="1px">4e+3</text><text x="0" y="59" dx="0em" dy="0.3em" style="text-anchor: end; visibility: hidden; font-family: &quot;Helvetica Neue&quot;, sans-serif; font-size: 12px; font-weight: 200;" fill="rgb(50, 49, 63)" stroke="none" stroke-width="1px">5e+3</text><text x="0" y="39.33333333333334" dx="0em" dy="0.3em" style="text-anchor: end; visibility: inherit; font-family: &quot;Helvetica Neue&quot;, sans-serif; font-size: 12px; font-weight: 200;" fill="rgb(50, 49, 63)" stroke="none" stroke-width="1px">6e+3</text><text x="0" y="19.666666666666686" dx="0em" dy="0.3em" style="text-anchor: end; visibility: hidden; font-family: &quot;Helvetica Neue&quot;, sans-serif; font-size: 12px; font-weight: 200;" fill="rgb(50, 49, 63)" stroke="none" stroke-width="1px">7e+3</text><text x="0" y="0" dx="0em" dy="0.3em" style="text-anchor: end; visibility: hidden; font-family: &quot;Helvetica Neue&quot;, sans-serif; font-size: 12px; font-weight: 200;" fill="rgb(50, 49, 63)" stroke="none" stroke-width="1px">8e+3</text></g><line x1="58.59375" y1="0" x2="58.59375" y2="177" fill="rgb(0, 0, 0)" stroke="rgb(204, 204, 204)" stroke-width="1px"></line></g></g><g transform="translate(58, 0)" clip-path="url(#clip_0)"><clipPath id="clip_0"><rect width="271" height="177"></rect></clipPath><g><g><g><line x1="0" y1="0" x2="0" y2="177" fill="rgb(0, 0, 0)" stroke="rgb(60, 60, 60)" stroke-width="1px" opacity="0.25"></line><line x1="27.140625" y1="0" x2="27.140625" y2="177" fill="rgb(0, 0, 0)" stroke="rgb(60, 60, 60)" stroke-width="1px" opacity="0.25"></line><line x1="54.28125" y1="0" x2="54.28125" y2="177" fill="rgb(0, 0, 0)" stroke="rgb(60, 60, 60)" stroke-width="1px" opacity="0.25"></line><line x1="81.421875" y1="0" x2="81.421875" y2="177" fill="rgb(0, 0, 0)" stroke="rgb(60, 60, 60)" stroke-width="1px" opacity="0.25"></line><line x1="108.5625" y1="0" x2="108.5625" y2="177" fill="rgb(0, 0, 0)" stroke="rgb(60, 60, 60)" stroke-width="1px" opacity="0.25"></line><line x1="135.703125" y1="0" x2="135.703125" y2="177" fill="rgb(0, 0, 0)" stroke="rgb(60, 60, 60)" stroke-width="1px" opacity="0.25"></line><line x1="162.84375" y1="0" x2="162.84375" y2="177" fill="rgb(0, 0, 0)" stroke="rgb(60, 60, 60)" stroke-width="1px" opacity="0.25"></line><line x1="189.984375" y1="0" x2="189.984375" y2="177" fill="rgb(0, 0, 0)" stroke="rgb(60, 60, 60)" stroke-width="1px" opacity="0.25"></line><line x1="217.125" y1="0" x2="217.125" y2="177" fill="rgb(0, 0, 0)" stroke="rgb(60, 60, 60)" stroke-width="1px" opacity="0.25"></line><line x1="244.265625" y1="0" x2="244.265625" y2="177" fill="rgb(0, 0, 0)" stroke="rgb(60, 60, 60)" stroke-width="1px" opacity="0.25"></line><line x1="271.40625" y1="0" x2="271.40625" y2="177" fill="rgb(0, 0, 0)" stroke="rgb(60, 60, 60)" stroke-width="1px" opacity="0.25"></line></g><g><line x1="0" y1="177" x2="271.40625" y2="177" fill="rgb(0, 0, 0)" stroke="rgb(60, 60, 60)" stroke-width="1px" opacity="0.25"></line><line x1="0" y1="157.33333333333334" x2="271.40625" y2="157.33333333333334" fill="rgb(0, 0, 0)" stroke="rgb(60, 60, 60)" stroke-width="1px" opacity="0.25"></line><line x1="0" y1="137.66666666666669" x2="271.40625" y2="137.66666666666669" fill="rgb(0, 0, 0)" stroke="rgb(60, 60, 60)" stroke-width="1px" opacity="0.25"></line><line x1="0" y1="118" x2="271.40625" y2="118" fill="rgb(0, 0, 0)" stroke="rgb(60, 60, 60)" stroke-width="1px" opacity="0.25"></line><line x1="0" y1="98.33333333333334" x2="271.40625" y2="98.33333333333334" fill="rgb(0, 0, 0)" stroke="rgb(60, 60, 60)" stroke-width="1px" opacity="0.25"></line><line x1="0" y1="78.66666666666666" x2="271.40625" y2="78.66666666666666" fill="rgb(0, 0, 0)" stroke="rgb(60, 60, 60)" stroke-width="1px" opacity="0.25"></line><line x1="0" y1="59" x2="271.40625" y2="59" fill="rgb(0, 0, 0)" stroke="rgb(60, 60, 60)" stroke-width="1px" opacity="0.25"></line><line x1="0" y1="39.33333333333334" x2="271.40625" y2="39.33333333333334" fill="rgb(0, 0, 0)" stroke="rgb(60, 60, 60)" stroke-width="1px" opacity="0.25"></line><line x1="0" y1="19.666666666666686" x2="271.40625" y2="19.666666666666686" fill="rgb(0, 0, 0)" stroke="rgb(60, 60, 60)" stroke-width="1px" opacity="0.25"></line><line x1="0" y1="0" x2="271.40625" y2="0" fill="rgb(0, 0, 0)" stroke="rgb(60, 60, 60)" stroke-width="1px" opacity="0.25"></line></g></g></g><g><g><line x1="0" y1="157.33333333333334" x2="271.40625" y2="157.33333333333334" fill="rgb(0, 0, 0)" stroke="rgb(153, 153, 153)" stroke-width="1.5px"></line></g></g><g><g><line x1="27.140625" y1="0" x2="27.140625" y2="177" fill="rgb(0, 0, 0)" stroke="rgb(153, 153, 153)" stroke-width="1.5px"></line></g></g><g><g><g><g><g><path stroke="rgb(255, 112, 67)" stroke-width="2px" d="M27.19897734375,157.33333333333334L27.36860625,154.74561403508773L27.4527421875,152.0719557195572L27.785214843749998,149.31283318794223L27.86935078125,147.6695278096587L27.927703125,146.58403068414722L27.93720234375,145.8171774009649L28.00233984375,145.76733934552448L28.01998125,145.72913924121326L28.11090234375,141.47177376332695L28.23846328125,141.63376396073784L28.51801171875,138.34018302865255L28.9509046875,138.6454180359096L29.0214703125,139.15601859607483L29.03096953125,139.58761114915876L29.09067890625,139.95532068737012L29.49507421875,140.86079645817702L29.499145312499998,141.64196619983915L29.6891296875,142.09187953309134L29.743410937500002,139.12536613884495L29.90489765625,139.51364829984863L30.272653125,139.85414824723523L30.383929687499997,140.69308814665868L30.5142046875,140.8984974335135L30.51556171875,141.08001191133175L30.7856109375,141.2407280551962L31.264642968750003,138.77316723706315L31.525192968749998,139.1752254690976L31.54690546875,139.53288235514873L31.6269703125,140.15949008021704L32.051721093750004,140.41148866628095L32.05443515625,140.63639573045958L32.12228671875,141.8519884743099L32.3271984375,141.92721522984834L32.51039765625,141.9945115722975L33.0002859375,142.55774925870594L33.11291953125,142.9618340446592L33.23776640625,143.42408581212462L33.260835937500005,143.83848295949724L33.48746015625,144.2101279039675L33.887784375,144.3442324116308L34.108980468750005,144.663633201271L34.395314062500006,145.24857275910728L34.4143125,144.78084626115887L34.908271875000004,144.559160099635L35.09961328125,145.3511318266807L35.157965624999996,144.37914705136944L35.27059921874999,145.18804578106997L35.555575781250006,145.420572749323L35.581359375,146.12380644946612L36.232734375,145.76810927289188L36.249018750000005,145.94202436422427L36.44307421875,145.60488860766742L36.59506171875,145.79504273252078L36.851540625000005,145.7687919046988L37.26543515625,145.5479745782588L37.26950625,145.34935418092704L37.72411171875,145.07213708137357L37.771607812499994,145.31540910916914L38.08779609374999,145.82979255059456L38.24249765625,146.2433154232437L38.29813593750001,146.36916706784763L38.67403359375,146.97471030178488L38.687603906250004,145.84590839332114L38.8138078125,145.51930432231705L39.18970546875,145.96363155812867L39.26705625,145.6253109475769L39.70809140625,146.1081533575017L39.99035390625,146.24743498942993L40.10705859375,146.42196751552532L40.1247,147.3169421255032L40.30247109374999,147.33525720838466L41.25375,147.4501172861958L41.3623125,146.76649118670412L41.420664843750004,146.64312975905932L41.536012500000005,146.72884532554872L41.770778906249994,145.8223557932026L41.936336718750006,146.48196479134705L41.9404078125,147.07557907841777L42.02318671875,146.6262563383481L42.096466406249995,146.71364788805596L42.20774296875,146.103841851991L42.79126640625,146.7352248925164L42.83740546875,147.10675565890085L42.9988921875,147.14608516679291L43.099312499999996,146.98479125620665L43.384289062499995,146.34791224614975L43.39107421875,145.8730763650679L43.64891015625,146.03578250025208L43.819896093749996,146.67391952848004L44.616473437500005,145.87147256017826L44.829527343749994,145.54263834722195L44.866167187500004,145.8367241773858L45.5935359375,145.51136883173405L45.62474765625,145.21855211042327L45.882583593750006,144.9550195639243L46.440323437500005,145.70121146199094L46.539386718749995,145.38941342469056L46.59909609375,145.60047831130888L46.747012500000004,145.29875579933935L47.00620546875,144.83053569314916L47.04691640625,145.097487867239L47.197546875,144.84606754553144L47.3251078125,144.61979018099098L48.1393265625,144.90781568035305L48.53422265625,145.6587113784902L49.01189765625,145.94117716248616L49.2900890625,145.6053889402317L50.017457812500005,143.63149640067192L50.30107734375,143.5266791231847L50.3431453125,143.92401452275547L50.6416921875,143.6916113270554L50.671546875000004,144.0724527656203L50.94838125,143.92353991753816L50.96737968750001,144.281187881674L52.180565625,141.6530561581554L53.08299140625,138.79607122010773L53.1549140625,139.174798941313L53.646159375,139.02398517272084L53.79407578125,136.9215798662648L53.81307421875,134.5377482847909L53.917565625,135.34230889412567L54.275821875,135.57474521856284L54.3545296875,133.8172669731228L54.366742968749996,134.30054119733592L54.61372265625,135.12882183239256L54.62457890625,135.87427413386632L54.720928125,133.59517688567522L54.87970078125,132.03565724602998L55.014046875,130.63208994105446L55.06697109375,131.82721549138864L55.339734375,129.8544921430581L55.343805468750006,128.07904147140732L55.442868749999995,126.72696965875971L55.74820078125,128.31260708046477L55.83505078125,126.78967879445297L55.95446953125,125.41904351018917L56.072531250000004,127.13547332444425L56.349365625,125.53359195988858L56.79040078125,124.58356572425188L57.3291421875,123.53187544688825L57.444489843750006,122.29035417405393L57.48248671875,121.36965182647127L58.54097109375,120.5410197637139L58.554541406249996,120.28691772843482L58.61425078125,119.566559138626L58.64953359375,118.42656967736306L58.74181171875,118.38391270241766L58.8435890625,118.14885472975652L58.933153125,116.65896905282821L59.08649765625,117.77640561854952L59.26291171875,117.79876505917383L59.2778390625,117.81888855526464L59.3049796875,116.85366627971389L59.62659609375,116.96829966100867L59.910215625,116.08813629754282L60.09341484375,115.29598928258955L60.09612890625,114.5830569789861L60.14769609375,114.9247512992091L60.5534484375,114.74060949383222L60.6864375,114.08321518287534L60.69729375,113.49156030837977L60.9334171875,113.74573761971949L60.97819921875001,113.67949718900647L61.4110921875,114.11154748228304L61.51829765625,114.00872606477988L61.5983625,114.40785346741382L62.16967265625,114.57040145734561L62.21716875,114.42169464219447L62.317589062500005,114.28785850908096L62.835975,113.67573931567088L63.5063484375,113.12483204334387L63.507705468750004,112.62901549966061L63.99080859375,112.18278061148861L63.99759375,111.78116921305961L64.4671265625,111.41971895522342L64.600115625,111.09441372377825L64.64761171875,111.04747235106412L64.9013765625,110.75939178076689L65.02486640625,110.50011926785233L65.73323671874999,110.75844067574955L65.875725,110.49926327362301L66.45517734375,111.24933694943381L66.49046015625001,110.9410699199834L66.58002421875,110.66362959370106L66.7686515625,110.90559996841051L66.8527875,110.1400399694446L67.13504999999999,109.94270263867386L67.1567625,109.76509904107385L67.325034375,109.60525580330972L67.6208671875,108.96973022182142L67.8597046875,108.88942386617433L67.8949875,109.30881481350885L68.08904296875001,109.194599998673L68.29666875,109.09180666534955L68.49072421875,108.99929266538177L68.68342265625,108.91603006542968L68.81098359375001,108.3494270583932L68.82998203125001,108.33115101920622L69.76090546875001,108.31470258394066L69.811115625,108.29989899220386L70.15444453125001,108.28657575964253L70.40413828125,108.27458485033877L70.48013203125,108.26379303196656L70.57241015625,108.25408039543252L70.8478875,108.24533902255266L71.157290625,108.2374717869614L71.30249296874999,108.23039127492977L71.4585515625,107.73235214730067L71.60103984375,107.77578359924794L71.78016796875,107.32320523922296L71.79102421875,107.40755138198413L71.97015234375,106.99179624371116L72.16963593749999,107.10928328602567L72.29176875,107.70668829084322L72.4329,107.75268612843158L72.470896875,107.79408418225995L72.9241453125,107.83134243070457L72.9404296875,107.86487485430398L72.96621328125,108.38672070225167L72.9892828125,107.87304863198686L73.0625625,108.3940771021577L73.11277265625,108.37133605860716L73.16298281249999,108.35086911941195L73.32989765625,108.33244887413649L73.77228984374999,107.33253732001059L73.8007875,107.41595025467963L73.9934859375,106.99935522919628L74.09390625,107.11608637294721L74.3436,107.22114440232228L75.08996718750001,107.31569662875927L75.11846484375,106.9091269658735L75.1496765625,107.03488093595556L75.293521875,107.14805950902888L75.4156546875,107.24992022479445L75.684346875,107.34159486898314L75.7901953125,106.93243538207896L75.9313265625,107.05585851053932L76.0453171875,107.16693932615334L76.32893671875,107.26691206020571L76.368290625,107.35688752085265L76.84867968750001,106.94619876876392L76.889390625,107.55991222522553L77.03595,107.12892100270003L77.14858359374999,107.23269556909733L77.22593437500001,107.32609267885476L77.62625859375001,107.41015007763637L78.01572656249999,107.97746840320862L78.38891015625,107.9963882295545L78.54089765625,108.01341607326579L79.30490625,107.53707446593765L79.32661875,107.10836701934261L79.68623203125,107.2141969840753L79.84907578125,106.32611061899898L80.0404171875,106.01849955709842L80.46788203125,105.74164960138805L81.01883671875,105.0008179745813L81.1260421875,104.82573617712289L81.25767421875001,104.66816255941038L81.2997421875,104.52634630346915L81.45037265625,104.3987116731221L81.82491328125,104.77550717247694L82.10174765625001,105.60628978856333L82.32294375,105.37066080970682L82.328371875,105.15859472873598L82.37315390625001,104.96773525586225L82.40029453125,104.7959617302759L82.49935781250001,104.1496988905813L82.83454453125,101.60139566818859L83.11137890625001,99.30792276803537L83.14801875,96.55546382456407L83.24301093749999,94.76658410877369L83.511703125,95.6149256978966L83.533415625,96.37843312810716L84.31913671874999,97.0655898152966L84.74795859375,95.22569750043318L84.77238515625,93.56979441705619L85.05736171874999,92.07948164201694L86.19726796875,90.73820014448168L86.31804375,91.98938013003371L86.36146875,90.65710878369681L86.459175,91.91639790532729L86.49581484375,93.04975811479468L86.50124296875,94.06978230331532L86.5867359375,91.64447073965023L86.8418578125,90.34669033235176L86.9504203125,88.98202129911648L87.12276328125,89.91715250253823L87.1322625,90.75877058561777L87.191971875,90.53289352705599L87.26389453125,91.80460417435044L87.95869453125,92.94914375691546L88.15953515624999,92.6517293812239L88.62906796875,93.71155644310154L88.64128125,92.207067465458L88.71320390625,93.8030273855789L88.896403125,94.74772464702103L89.10131484375,95.59795218231896L89.99695546874999,93.9048236307537L90.01866796875,94.83934126767834L90.12587343749999,96.1720738075772L90.24257812500001,94.42153309348612L91.33091718749999,95.30437978413751L91.7163140625,94.86977513905708L91.78823671875,93.24946429181803L91.83030468749999,94.24951786263624L91.8791578125,92.49456607637258L91.93208203125,93.57010946873534L92.11935234375001,92.07976518852844L92.207559375,93.1967886696756L92.23877109375,93.71044313604139L92.38261640625,92.00939882243725L92.5251046875,90.67512560686018L92.587528125,89.47427971284081L92.98785234375,88.39351840822341L93.42481640625,89.87916656740107L94.00562578124999,88.75791657732762L94.11283125,90.20712491959486L94.28381718749999,89.05307909430205L95.00168671875,88.01443785153849L95.06953828125,86.88299406638463L95.1957421875,86.06136132641282L95.2174546875,87.78022519377156L95.258165625,86.86886934106107L95.35722890625,85.8028157402883L95.8471171875,87.54753416625944L96.10495312500001,86.65944741630017L96.322078125,88.31850267467013L96.53241796875001,86.66498574053647L96.65862187500001,85.86515383314949L96.73325859375,86.27613844983455L97.43348671875,85.51519127151774L97.64518359375,84.83033881103265L97.7089640625,84.21397159659602L98.10386015625,83.46257443693644L98.18663906249999,85.44131699324278L98.39969296875,84.76385196058517L98.63310234375,84.15413343119332L98.93707734375,83.60538675474065L98.98185937500001,83.11151474593323L99.18948515625,85.61702993800661L99.209840625,87.38032694420593L99.69972890624999,86.508960916452L100.02270234375,85.72473149147346L100.0322015625,85.0189250089928L100.03762968749999,83.89203250809351L100.0430578125,83.07449592395082L100.23439921875,82.53537966488905L100.29410859375,82.14850836506683L100.51937578125,81.80032419522682L100.56822890625,82.47029177570414L100.588584375,82.08992926480038L100.7487140625,81.55093633832034L101.359378125,83.22917603782163L101.51679374999999,85.23125843403947L101.6932078125,84.32896592396887L101.75427421875,83.76273599823864L102.04060781250001,83.25312906508142L102.184453125,82.40114949190662L102.51556875,81.6343678760493L102.52642499999999,80.9442644217777L102.7462640625,80.51983797959994L102.81818671875,79.35118751497329L103.5930515625,81.74106876347595L103.823746875,84.8752952204617L103.8427453125,83.07443236508219L103.96080703125001,82.63365579524063L104.203715625,82.23695688238323L104.24849765625,81.68326119414492L104.49140625,81.38160174139708L104.898515625,81.11010823392405L104.9066578125,80.8657640771983L105.14956640625,79.26918766947847L105.52410703125,79.20893556919728L106.25011875,79.15470867894423L106.44688828125001,79.10590447771645L106.60430390625,79.06198069661147L106.7196515625,79.02244929361702L106.8255,78.49520436425529L106.86213984375,78.02068392782977L106.885209375,80.05194886838012L107.56508203125,78.73342064820876L107.62886250000001,77.74341191672123L107.79306328125,77.8357373917158L108.07532578124999,76.73883031921088L108.11603671875001,76.43994728728978L108.806765625,76.12178589189413L108.8149078125,75.83544063603806L108.8447625,75.92189657243426L108.9668953125,75.70470691519084L109.208446875,75.0175695570051L110.1990796875,76.11997926797125L110.29542890625,76.37464800784079L110.51526796875,75.62051654039006L110.64554296875001,74.94179821968439L110.84366953125,75.3142850643826L111.466546875,75.64952322461102L111.57510937500001,75.45957090214993L111.97814765624999,75.7802804786016L112.020215625,76.06891909740811L112.46396484374999,75.93536052100065L112.66751953125001,75.22515780223392L112.93349765625,74.38930868867719L113.21576015625,74.1287111531428L113.21711718750001,73.89417337116187L113.3311078125,72.89642270071235L113.54551875,72.98178043064112L113.8087828125,73.55026905424367L113.97569765625,72.586908815486L114.12497109375,73.19488460060406L114.2973140625,73.54539614054366L114.685425,74.05752319315597L114.6989953125,73.04343754050703L114.9242625,71.73742711978967L115.1983828125,72.43035107447737L115.6814859375,72.07064930036296L115.74526640625,71.74691770366L115.95967734375,70.96389259996067L116.0017453125,72.1275033399646L116.1645890625,71.79808633930148L116.22158437499999,71.50161103870465L116.3111484375,72.21811660150085L116.57984062499999,71.87963827468411L116.7725390625,72.06667444721572L117.11043984375,71.74334033582747L117.774028125,71.20650630224475L117.99251015624999,70.9691890053536L118.03050703125001,70.75560343815157L118.0915734375,71.05504309433643L118.66016953125,71.81620545156946L119.77700625,71.51791823974585L119.80143281250001,70.75779308243794L119.93306484374999,70.0736804408608L120.0022734375,69.94964573010806L120.22075546875,73.27968115709726L120.6807890625,72.3433797080542L120.76085390624999,71.50070840391545L121.00919062499999,70.74230423019058L121.0281890625,71.04307380717152L121.3945875,70.8220997597877L121.42308515625,73.57322311714228L121.75284375,72.60756747209471L121.86004921874999,73.70514405821858L122.018821875,73.21796298573007L122.76111796875,72.28783335382373L122.92124765625,71.94238335177471L123.02438203125,72.12314501659722L123.37585312499999,71.30249718160417L123.48577265624999,71.0555807967771L124.07201015625,70.34168938376604L124.24299609375,70.19085377872278L124.27827890625001,70.05510173418382L124.43569453125,69.68709156076545L124.64467734375,69.11004907135558L124.72067109375001,68.59071083088669L124.78987968749999,68.1233064144647L124.819734375,67.70264243968491L124.86451640625,68.79904486238307L124.8984421875,68.31080704281142L125.2512703125,67.87139300519695L125.253984375,67.47592037134393L125.3924015625,67.11999500087619L125.39647265625001,66.79966216745524L125.60545546875001,66.51136261737638L125.829365625,66.25189302230542L126.0329203125,66.51003705340818L126.21747656250001,66.25070001473404L126.448171875,66.0172966799273L126.63679921875,66.29890034526791L127.27596093749999,66.3065103107411L127.28274609374999,66.313359279667L127.3465265625,66.07369001836699L127.42794843749999,66.34965434986361L127.45916015625001,66.1063555815439L127.81605937500001,65.88738669005618L128.7849796875,65.69031468771725L129.151378125,65.51294988561219L129.5557734375,65.84498823038429L129.5802,66.14382274067918L129.6887625,65.92110713327794L130.17865078124998,65.72066308661682L130.410703125,65.5402634446218L130.57218984375,65.37790376682628L130.8612375,65.23178005681032L130.93044609375,65.10026871779596L131.12585859375,65.4735751793497L131.1896390625,65.31788432808139L131.34841171875001,65.17776256193991L131.50582734374998,65.54331963907924L131.5153265625,65.380654341838L131.90208046875,65.23425557432085L132.35261484375,65.10249668355543L132.72172734375,64.98391368186654L132.8560734375,65.17218898034658L133.17361875,65.04663674897857L133.27268203125,64.73697307408072L133.3500328125,64.6549424333393L134.04211875,64.82694819000538L134.134396875,64.7359200376715L134.23888828125,64.65399470057102L134.25788671875,65.07192856384727L134.31081093749998,64.95640237412918L134.3542359375,64.85242880338292L134.91468984375,65.25051925637797L135.15759843749998,65.11713399740685L135.67055625,64.99708726433282L135.74655,64.8890452045662L135.751978125,64.79180735077624L135.84018515625,64.70429328236528L135.9283921875,64.62553062079542L136.23372421875,64.55464422538253L136.25543671875,64.49084646951094L136.45084921875,64.43342848922653L136.48613203125,64.38175230697054L136.5363421875,63.843577076273476L137.05608515625,63.35921936864614L137.08186874999998,63.414964098448195L137.2202859375,63.465134355270024L137.5785421875,63.01862091974303L137.73188671875,63.108425494435394L137.77938281250002,63.189249611658525L138.35340703125001,63.065324650492684L139.41731953124997,63.15045885211008L139.46345859374998,63.22707963356572L139.5706640625,62.80437167020915L139.87735312499998,62.915601169854895L139.94791874999999,63.01570771953607L140.137903125,63.10580361424914L140.46766171875,62.69522325282422L140.80963359375,62.3257009275418L141.028115625,62.48479750145427L141.3565171875,63.11965108464217L141.3999421875,63.199352642844616L141.6876328125,63.271084045226814L141.9481828125,62.84397564070413L142.06353046875,62.45957807663372L142.24265859375,62.60528693563701L142.51677890625,60.278091575406634L142.56020390625,60.15028241786597L142.61041406249998,60.52692084274604L142.71897656250002,60.37422875847142L142.92388828125,60.23680588262428L143.17901015625,61.096458627695185L143.221078125,61.378479431592325L143.26586015625,59.17396482176642L143.42056171875,59.64823500625644L143.5060546875,60.07507817229747L143.8263140625,59.967570355067735L143.86566796875,58.8874799862276L144.90515390624998,58.89873198760483L144.92279531249997,59.23663624652666L145.0205015625,59.458805955207325L145.21455703125,59.90459202635324L145.73701406249998,60.30579949038459L145.81436484375,60.666886208012784L145.95821015624998,60.99186425387816L146.0464171875,60.79267782849034L146.10748359375,60.61341004564129L146.3286796875,58.48540237441051L146.7466453125,56.57019547030279L147.47537109375003,54.84650925660584L147.6667125,55.75352499761192L148.27330546875,57.06150583118405L148.388653125,55.0920219147323L148.410365625,55.974486389925715L148.92875156250003,55.78537108426649L148.95182109375003,54.14016730917318L149.12823515624999,52.46281724492252L149.23815468749999,51.14986885376359L149.322290625,52.426548635053905L149.5964109375,53.0838937715485L149.88545859375,53.675504394393656L150.73224609374998,54.69962062162095L150.75938671875002,53.16299189279219L151.03893515625,53.74669270351298L151.27505859374997,54.76369009982835L151.47861328125,53.22065442317886L151.50575390625,53.79858898086097L151.50982499999998,54.31873008277486L151.62517265625,54.78685707449739L151.62924375,55.208171367047655L152.11641796874997,53.62068756367621L152.15170078125,54.1586188073086L152.9781328125,52.479423593244405L153.05819765625,53.13148123391994L153.51687421875,51.75166644386128L153.64850625,52.77149979947515L153.98505,51.42768315286098L154.5685734375,52.184914837574865L155.21859140625,53.35809002048404L155.43028828125,54.90561435176896L155.76683203125,55.315052916592066L155.912034375,53.71688095826619L156.1373015625,52.08185952910624L156.30964453125,52.773673576195606L156.49555781249998,53.39630621857603L156.5715515625,53.956675596718426L156.61497656249998,52.297674703713255L156.71132578125,50.80457390000859L157.22699765624998,49.65744984334107L157.3477734375,50.59170485900697L157.37898515625,51.92420103977294L157.8254484375,52.63178093579563L158.14299375,53.268602842216055L158.23120078125,54.33340922466111L158.79843984375,54.800068302195L158.98571015625,53.25339480530883L159.08070234374998,53.82805532477795L159.17569453125,52.37858312563347L159.33853828124998,53.0407248130701L159.39824765625,51.47331899842976L159.58280390625,50.06265376525346L159.78093046875,48.98972172206146L159.85421015625,49.99074954985531L159.96277265625002,50.89167459486977L160.11204609375,51.70250713538279L160.319671875,50.26892308851119L160.41873515625,49.17536411299341L160.67928515625002,47.99449436836073L160.77427734375,49.09504493152464L160.840771875,50.57720710503882L161.5627125,49.256153061201616L162.17473359375,50.23053775508144L162.31857890625,51.10748397957332L162.32129296875002,51.896735581615985L162.68769140625,50.64039535678772L163.23050390625,49.509689154442256L163.61318671875,49.37705357233138L163.6443984375,50.8310148817649L163.8642375,49.68124672692174L164.00943984375002,48.646455387562895L164.08950468749998,49.68180984880662L164.10171796875002,50.61362886392595L164.19806718750002,51.452265977533344L164.29984453125002,50.24037271311333L164.412478125,50.13300210846866L164.51968359375002,49.05303523095512L164.65674375,48.08106504119294L164.683884375,49.17295853707364L164.78701875000002,48.18899601669963L164.86436953125,47.30342974836299L164.87929687500002,46.50642010686005L165.45467812500002,45.78911142950736L165.48181875,45.14353361988995L165.975778125,44.56251359123428L166.2498984375,44.03959556544419L166.2933234375,43.56896934223309L166.36660312499998,45.112072408009794L166.4887359375,44.33753183387549L166.75335703125,45.80377865048794L166.795425,45.15673411877248L166.87006171875,44.574394040228555L166.91755781249998,43.85362130287237L166.93112812500001,43.204925839251786L167.19574921875,42.817766588659936L167.54314921875,42.27265659646059L167.6177859375,41.97872427014789L168.201309375,41.71418517646643L168.64777265625,41.47609999215311L168.72648046875,44.211823326271144L169.22858203125,43.5273076603107L169.36971328125,43.10791022761296L169.38871171875,44.697119204851646L169.4144953125,43.96407395103316L169.47013359375,43.50099988926317L169.48913203125,43.084233233670176L169.5094875,42.1191432436365L169.52712890625,41.84056225260616L169.580053125,41.589839360678894L169.7564671875,41.36418875794433L169.9898765625,40.964436548816565L170.21921484375002,40.60465956060159L170.45805234375,40.08419360454141L170.58289921875001,39.812440910753935L170.68060546875,39.76453015301186L170.69960390625,41.68807713771068L171.27227109375002,43.419269423939596L171.349621875,45.46900914821231L171.51653671875002,47.31377490005772L171.75537421875,46.51573074338529L171.89107734375,47.026657669046756L172.0308515625,46.06065856880875L172.48409999999998,45.387926045261224L173.38109765625,44.78246677406841L173.43537890624998,46.007553429994886L173.48016093750002,47.3067980869954L173.7298546875,46.5094516116292L174.3106640625,45.59517311713293L174.49657734375,44.57565580541964L175.38678984375,46.01809022487765L175.38814687500002,47.316281202389916L175.46685468750002,46.517986415484245L175.7382609375,45.60285444060247L175.84546640624998,44.77923566320891L176.17386796875,44.23464543022135L176.5009125,46.202847553865865L176.6746125,45.31922946514595L176.71939453124997,44.72063985196468L176.98265859375,44.18190920010153L177.06408046874998,43.69705161342472L177.21063984375002,43.26067978541559L177.25949296875,42.867945140207354L177.2852765625,42.514483959519936L177.41555156249999,42.19636889690128L178.03571484375,41.91006534054446L178.09135312499998,44.11072547315669L178.210771875,43.43631959250769L178.51203281250002,42.63268763325692L178.71965859375,44.26941886993123L178.9761375,46.23414364960476L179.01413437500003,47.5107292846443L179.76728671875,46.69298968951321L180.03055078125,45.957024053895225L180.083475,45.294654981839045L180.35352421874998,44.69852281698843L180.92347734375,44.162003868622946L181.11481875,43.679136815093955L181.28580468750002,43.244556466917885L181.4920734375,42.65676748689276L181.81640390625,42.12775740487015L182.23979765625,41.65164833104981L182.466421875,41.419816831278155L182.47727812500003,41.21116848148367L182.95631015625,41.02338496666863L183.33085078125,40.85437980333509L183.4027734375,40.702275156334935L183.88723359375,40.56538097403478L183.90351796874998,40.4421762099646L184.23870468750002,40.13462525563483L184.24820390625,42.512829396738L184.39204921875,42.19487979039755L184.61053125,41.90872514469112L184.7326640625,41.65118596355532L185.17234218750002,41.419400700533146L185.40439453125,41.01412729714647L185.47088906250002,42.81271456743184L185.52245624999998,44.43144311068866L185.56859531249998,43.72496546628645L185.6201625,43.08913558632446L185.67308671875,42.12355536102535L185.83050234375003,41.84453315825613L185.93635078125,41.59341317576386L185.95534921875,43.334071858187485L185.97841875,45.392331339035394L186.12497812499998,44.786431538465195L186.776353125,44.241121717951984L187.03418906250002,43.75034287949015L187.19160468750002,43.30864192487445L187.49015156250002,45.36944439905366L187.52950546875,44.76583329248163L188.155096875,44.12424996323347L188.50385390625,43.64515830024345L188.54320781250001,45.67230913688579L188.62598671875,44.645078223197174L189.03852421875,43.917237067544136L189.26650546874998,43.262180027456395L189.95723437499998,42.86929535804407L189.97758984375,42.515699155573L190.380628125,42.19746257334904L191.14463671875,41.91104964934746L191.60331328125,41.65327801774603L191.6046703125,41.421283549304775L191.75530078124999,41.21248852770762L191.79329765625,40.82790634160352L191.83400859374999,40.67844904077651L191.88964687499998,40.543937470032176L192.0470625,40.22621038969561L192.47588437500002,40.136922684059385L192.53287968749999,40.056563748986775L192.97798593750002,39.78757404075478L193.02005390624998,39.742149970012605L193.4176640625,39.70126830634467L193.54386796875002,39.46780814237687L193.56015234375,39.25769399480586L193.702640625,41.23192459532527L194.14910390625,41.04206546912607L194.88325781249998,42.83785892221346L194.9158265625,42.29073969665879L194.96060859374998,41.798332393659564L195.55363125000002,41.35516582096025L195.64319531249998,41.15298257219757L195.68119218750002,40.97101764831112L196.13579765625,40.61058255014669L196.37870625,40.28619096179867L196.44520078125,40.19090519895215L196.449271875,42.07181467905693L196.46419921875003,43.76463321115122L196.52390859375,45.2881698900361L196.82924062499998,44.69268623436582L197.16442734375,44.15675094426257L198.73044140625,43.477742516502985L199.0602,45.521634931519344L199.39674375,46.86947143836741L199.46866640624998,46.11585762786402L199.61658281249998,45.43760519841092L199.79706796875,44.82717801190316L200.04676171875002,44.277793544046176L200.22046171875002,43.78334752297491L200.29238437499998,45.30501277067739L200.3493796875,44.70784482694299L200.49729609375,43.973727010915354L200.5067953125,43.31302097649046L200.5502203125,42.91505221217477L200.5936453125,42.55688032429063L200.67642421875001,42.037858958528204L200.70085078124998,41.37407306267539L200.99396953125,40.97333242307451L201.25451953125,40.80933251410039L201.39565078125,40.26839926269034L201.47978671875,40.17489266975463L201.71591015625,40.09073673611252L201.99817265624998,39.818329729167914L202.39713984375,39.57316342291779L202.45142109375,39.549180413959334L202.63054921875,39.13426237256337L202.74996796875,39.15416946864036L202.76625234374998,38.975419188443L202.77710859375,40.97787726959868L202.88024296875003,40.61675620930549L202.9385953125,40.488413921708286L203.11093828125,40.372905862870795L203.31720703125,40.26894860991703L203.4542671875,40.17538708225865L203.65239375000002,40.09118170736613L203.7799546875,39.818730203296184L203.98486640624998,40.22907972528429L204.51003749999998,40.1395050860892L204.81265546875,40.05888791081361L204.89407734375,41.952999119732226L204.92800312499998,41.59269920775901L205.579378125,41.17009595364976L205.59430546875,40.986419691618124L205.83585703125,40.82111105578963L205.86706875,40.278999950210675L205.90913671875,40.18443328852294L206.10183515625,40.09932329300398L206.12083359375,40.022724297036916L206.95676484375,39.953785200666545L207.18746015624998,39.89174001393323L207.51314765625,39.63923267920654L207.53486015625,39.41197607795257L207.90668671875,39.40411180349062L208.05867421875,39.003700623141555L208.30022578125,38.83999722749408L208.34365078125,38.889330838078024L208.44135703125002,38.73706442093686L208.79418515625,38.796691312176506L208.99366874999998,38.850355514292175L209.49441328125002,38.8986532961963L209.5120546875,38.942121299909985L209.62740234375002,38.784575836585645L210.1091484375,38.839451586260424L210.14036015624998,38.8888397609677L210.14714531250002,38.93328911820427L210.1742859375,38.97329353971716L210.31813125000002,39.009297519078785L210.78495,39.04170110050421L211.175775,38.874197657120476L211.52453203125,38.7234445580751L211.9818515625,38.7844334356009L212.07820078125002,38.83932342537415L212.18404921875,38.88872441617008L212.6115140625,38.93318530788639L212.61829921875,38.973200110431094L212.6386546875,39.00921343272131L213.086475,39.041625422782516L213.1299,39.07079621383758L213.39723515625,38.9003832591205L213.70935234375,38.94367826654175L213.82198593750002,38.98264377322093L213.84776953125,39.01771272923216L213.98754375000001,39.04927478964228L214.06489453125,39.077680644011366L214.36615546874998,39.10324591294358L214.62399140624998,38.92958798831586L215.01481640625,38.77329585615095L215.05281328125,38.8292996038692L215.16951796875,38.683036310148935L215.68654687499998,38.55139934580072L215.7164015625,38.23625941122063L216.11943984375,37.7559668034319L216.316209375,37.91370345642204L216.3786328125,38.05566644411317L217.09243125,38.18343313303518L217.1467125,38.10175648639833L217.15756875000002,38.02824750442517L217.1874234375,37.962089420649306L217.20099375,37.90254714525105L217.304128125,38.04562576405928L217.3502671875,37.97772985432002L217.46832890625,40.07995686888802L217.510396875,40.00529451533254L218.14413046875,41.90476506379929L218.38432500000002,41.6476218907527L218.46846093750003,41.416193035010735L218.78464921875002,40.81457373150968L218.79279140625,40.27311635835872L219.64093593750002,40.179138055856185L219.6897890625,39.89789091693723L219.82142109375,39.4481018252435L220.08332812499998,39.436624976052485L220.10639765624998,39.42629581178056L220.1077546875,39.41699956393586L220.51350703125001,41.17863294087559L220.56236015624998,40.600769646788024L220.85955,40.27735934877592L221.05089140625,39.98629008056497L221.44985859374998,39.527661072508465L221.66155546874998,39.50822829859095L221.8556109375,39.29407213539852L221.97231562500002,38.904664921858654L221.9858859375,38.75086509633945L222.17722734375,38.809111920038845L222.23829375,38.664867394701616L222.27221953125002,38.73171398856479L222.44320546875,38.20187592304163L222.53819765625002,38.11835499740411L222.7675359375,38.04318616433039L222.86117109375,40.630534214563994L222.9412359375,42.95914745977427L223.10272265625,42.59656604713015L223.27099453124998,41.97524277575047L224.29148203124998,41.51438516484208L224.74201640625,41.099613315024556L224.75694375,40.92298531685543L224.8763625,40.764020118503225L224.92928671875,42.58761810665288L224.984925,42.262189629320915L225.17626640625,41.96930399972217L225.69193828125,41.11570693308326L225.81,40.740802906441616L226.21303828125002,40.40338928246413L227.02725703125,40.29638368755104L227.10867890625,40.00341198546258L227.12224921875,39.93640412024965L227.29187812499998,39.482763708224695L228.0681,39.271154004068904L228.2390859375,39.27737193699531L228.37343203125,38.8896347432958L228.55798828125,38.737337935632894L228.72354609375,38.60027080873627L228.80225390625,38.476910394529284L228.89588906249998,38.36588602174302L228.90131718749998,38.265964086235385L229.03837734375,38.17603434427852L229.15508203125,38.29176424318396L229.17543750000002,38.39592115219892L229.93944609375,38.489662370312345L230.092790625,38.574029466614434L230.266490625,38.453293186619646L230.28684609375,38.34463053462434L230.38183828125,38.246834147828594L230.54196796875001,37.76548406637903L230.6111765625,36.938935659741134L230.70481171875,36.78504209376703L230.71023984375,36.64653788439031L231.42539531249997,36.71855076261795L231.45117890625,36.783362353022795L231.55974140625,36.64502611772053L231.72529921875,36.913856839281806L231.8677875,37.15580448868698L232.11069609375,37.176890706484954L232.12969453124998,37.19586830250313L232.17854765625,37.21294813891947L232.2341859375,36.83498665836086L232.361746875,36.494821325858084L232.42824140624998,36.58200585993896L232.44995390625002,36.85713860727839L232.55987343750002,37.94059141321722L232.67250703124998,37.68653227189549L232.79056875,37.654545711372606L232.8149953125,37.23242447356867L232.99819453125002,37.04918202621181L233.18275078124998,36.88426382359063L233.70792187499998,36.73583744123155L233.75813203125,36.40558703044172L234.12045937500002,36.69836166073091L234.4000078125,36.961858827991136L234.45021796875,37.19900627852536L235.52227265625,37.412438984006144L235.61319375,37.4078617522722L235.69597265625,37.40374224371163L235.8330328125,37.20336801934047L236.18450390625,37.21969788407307L236.27135390625,37.4310614289991L236.8318078125,37.22795528609919L237.02586328125,37.04515975748927L237.46554140625,37.07731044840699L237.7383046875,37.30291273689963L237.844153125,37.30928812987631L237.85636640625,37.31502598355536L238.27433203125,36.926856718533145L238.45888828124998,36.9708377133465L238.47924375,37.010420608678515L238.799503125,37.242711881143975L238.8836390625,37.25510735969624L239.2581796875,39.42959662372661L239.37081328125,39.22330362802063L239.72364140624998,39.23430659855188L239.8824140625,41.21087593869669" style="fill: none;" fill="none"></path></g></g></g></g><g opacity="0.2"><g><g><g><path stroke="rgb(255, 112, 67)" stroke-width="2px" d="M27.19897734375,157.33333333333334L27.36860625,152.41666666666666L27.4527421875,147.5L27.785214843749998,142.58333333333334L27.86935078125,142.58333333333334L27.927703125,142.58333333333334L27.93720234375,142.58333333333334L28.00233984375,145.53333333333333L28.01998125,145.53333333333333L28.11090234375,118L28.23846328125,142.58333333333334L28.51801171875,118L28.9509046875,140.61666666666667L29.0214703125,142.58333333333334L29.03096953125,142.58333333333334L29.09067890625,142.58333333333334L29.49507421875,147.5L29.499145312499998,147.5L29.6891296875,145.53333333333333L29.743410937500002,116.03333333333333L29.90489765625,142.58333333333334L30.272653125,142.58333333333334L30.383929687499997,147.5L30.5142046875,142.58333333333334L30.51556171875,142.58333333333334L30.7856109375,142.58333333333334L31.264642968750003,118L31.525192968749998,142.58333333333334L31.54690546875,142.58333333333334L31.6269703125,145.53333333333333L32.051721093750004,142.58333333333334L32.05443515625,142.58333333333334L32.12228671875,152.41666666666666L32.3271984375,142.58333333333334L32.51039765625,142.58333333333334L33.0002859375,147.5L33.11291953125,146.51666666666665L33.23776640625,147.5L33.260835937500005,147.5L33.48746015625,147.5L33.887784375,145.53333333333333L34.108980468750005,147.5L34.395314062500006,150.45L34.4143125,140.61666666666667L34.908271875000004,142.58333333333334L35.09961328125,152.41666666666666L35.157965624999996,135.7L35.27059921874999,152.41666666666666L35.555575781250006,147.5L35.581359375,152.41666666666666L36.232734375,142.58333333333334L36.249018750000005,147.5L36.44307421875,142.58333333333334L36.59506171875,147.5L36.851540625000005,145.53333333333333L37.26543515625,143.56666666666666L37.26950625,143.56666666666666L37.72411171875,142.58333333333334L37.771607812499994,147.5L38.08779609374999,150.45L38.24249765625,149.95833333333334L38.29813593750001,147.5L38.67403359375,152.41666666666666L38.687603906250004,135.7L38.8138078125,142.58333333333334L39.18970546875,149.95833333333334L39.26705625,142.58333333333334L39.70809140625,150.45L39.99035390625,147.5L40.10705859375,147.99166666666667L40.1247,155.36666666666667L40.30247109374999,147.5L41.25375,148.48333333333332L41.3623125,140.61666666666667L41.420664843750004,145.53333333333333L41.536012500000005,147.5L41.770778906249994,137.66666666666669L41.936336718750006,152.41666666666666L41.9404078125,152.41666666666666L42.02318671875,142.58333333333334L42.096466406249995,147.5L42.20774296875,140.61666666666667L42.79126640625,152.41666666666666L42.83740546875,150.45L42.9988921875,147.5L43.099312499999996,145.53333333333333L43.384289062499995,140.61666666666667L43.39107421875,141.6L43.64891015625,147.5L43.819896093749996,152.41666666666666L44.616473437500005,138.65L44.829527343749994,142.58333333333334L44.866167187500004,148.48333333333332L45.5935359375,142.58333333333334L45.62474765625,142.58333333333334L45.882583593750006,142.58333333333334L46.440323437500005,152.41666666666666L46.539386718749995,142.58333333333334L46.59909609375,147.5L46.747012500000004,142.58333333333334L47.00620546875,140.61666666666667L47.04691640625,147.5L47.197546875,142.58333333333334L47.3251078125,142.58333333333334L48.1393265625,147.5L48.53422265625,152.41666666666666L49.01189765625,148.48333333333332L49.2900890625,142.58333333333334L50.017457812500005,125.86666666666667L50.30107734375,142.58333333333334L50.3431453125,147.5L50.6416921875,141.6L50.671546875000004,147.5L50.94838125,142.58333333333334L50.96737968750001,147.5L52.180565625,118L53.08299140625,113.08333333333334L53.1549140625,142.58333333333334L53.646159375,137.66666666666669L53.79407578125,118L53.81307421875,113.08333333333334L53.917565625,142.58333333333334L54.275821875,137.66666666666669L54.3545296875,118L54.366742968749996,138.65L54.61372265625,142.58333333333334L54.62457890625,142.58333333333334L54.720928125,113.08333333333334L54.87970078125,118L55.014046875,118L55.06697109375,142.58333333333334L55.339734375,112.10000000000001L55.343805468750006,112.10000000000001L55.442868749999995,114.55833333333334L55.74820078125,142.58333333333334L55.83505078125,113.08333333333334L55.95446953125,113.08333333333334L56.072531250000004,142.58333333333334L56.349365625,111.11666666666666L56.79040078125,116.03333333333333L57.3291421875,114.06666666666666L57.444489843750006,111.11666666666666L57.48248671875,113.08333333333334L58.54097109375,113.08333333333334L58.554541406249996,118L58.61425078125,113.08333333333334L58.64953359375,108.16666666666667L58.74181171875,118L58.8435890625,116.03333333333333L58.933153125,103.25L59.08649765625,127.83333333333333L59.26291171875,118L59.2778390625,118L59.3049796875,108.16666666666667L59.62659609375,118L59.910215625,108.16666666666667L60.09341484375,108.16666666666667L60.09612890625,108.16666666666667L60.14769609375,118L60.5534484375,113.08333333333334L60.6864375,108.16666666666667L60.69729375,108.16666666666667L60.9334171875,116.03333333333333L60.97819921875001,113.08333333333334L61.4110921875,118L61.51829765625,113.08333333333334L61.5983625,118L62.16967265625,116.03333333333333L62.21716875,113.08333333333334L62.317589062500005,113.08333333333334L62.835975,108.16666666666667L63.5063484375,108.16666666666667L63.507705468750004,108.16666666666667L63.99080859375,108.16666666666667L63.99759375,108.16666666666667L64.4671265625,108.16666666666667L64.600115625,108.16666666666667L64.64761171875,110.625L64.9013765625,108.16666666666667L65.02486640625,108.16666666666667L65.73323671874999,113.08333333333334L65.875725,108.16666666666667L66.45517734375,118L66.49046015625001,108.16666666666667L66.58002421875,108.16666666666667L66.7686515625,113.08333333333334L66.8527875,103.25L67.13504999999999,108.16666666666667L67.1567625,108.16666666666667L67.325034375,108.16666666666667L67.6208671875,103.25L67.8597046875,108.16666666666667L67.8949875,113.08333333333334L68.08904296875001,108.16666666666667L68.29666875,108.16666666666667L68.49072421875,108.16666666666667L68.68342265625,108.16666666666667L68.81098359375001,103.25L68.82998203125001,108.16666666666667L69.76090546875001,108.16666666666667L69.811115625,108.16666666666667L70.15444453125001,108.16666666666667L70.40413828125,108.16666666666667L70.48013203125,108.16666666666667L70.57241015625,108.16666666666667L70.8478875,108.16666666666667L71.157290625,108.16666666666667L71.30249296874999,108.16666666666667L71.4585515625,103.25L71.60103984375,108.16666666666667L71.78016796875,103.25L71.79102421875,108.16666666666667L71.97015234375,103.25L72.16963593749999,108.16666666666667L72.29176875,113.08333333333334L72.4329,108.16666666666667L72.470896875,108.16666666666667L72.9241453125,108.16666666666667L72.9404296875,108.16666666666667L72.96621328125,113.08333333333334L72.9892828125,103.25L73.0625625,113.08333333333334L73.11277265625,108.16666666666667L73.16298281249999,108.16666666666667L73.32989765625,108.16666666666667L73.77228984374999,98.33333333333334L73.8007875,108.16666666666667L73.9934859375,103.25L74.09390625,108.16666666666667L74.3436,108.16666666666667L75.08996718750001,108.16666666666667L75.11846484375,103.25L75.1496765625,108.16666666666667L75.293521875,108.16666666666667L75.4156546875,108.16666666666667L75.684346875,108.16666666666667L75.7901953125,103.25L75.9313265625,108.16666666666667L76.0453171875,108.16666666666667L76.32893671875,108.16666666666667L76.368290625,108.16666666666667L76.84867968750001,103.25L76.889390625,113.08333333333334L77.03595,103.25L77.14858359374999,108.16666666666667L77.22593437500001,108.16666666666667L77.62625859375001,108.16666666666667L78.01572656249999,113.08333333333334L78.38891015625,108.16666666666667L78.54089765625,108.16666666666667L79.30490625,103.25L79.32661875,103.25L79.68623203125,108.16666666666667L79.84907578125,98.33333333333334L80.0404171875,103.25L80.46788203125,103.25L81.01883671875,98.33333333333334L81.1260421875,103.25L81.25767421875001,103.25L81.2997421875,103.25L81.45037265625,103.25L81.82491328125,108.16666666666667L82.10174765625001,113.08333333333334L82.32294375,103.25L82.328371875,103.25L82.37315390625001,103.25L82.40029453125,103.25L82.49935781250001,98.33333333333334L82.83454453125,78.66666666666666L83.11137890625001,78.66666666666666L83.14801875,71.78333333333333L83.24301093749999,78.66666666666666L83.511703125,103.25L83.533415625,103.25L84.31913671874999,103.25L84.74795859375,78.66666666666666L84.77238515625,78.66666666666666L85.05736171874999,78.66666666666666L86.19726796875,78.66666666666666L86.31804375,103.25L86.36146875,78.66666666666666L86.459175,103.25L86.49581484375,103.25L86.50124296875,103.25L86.5867359375,69.81666666666668L86.8418578125,78.66666666666666L86.9504203125,76.7L87.12276328125,98.33333333333334L87.1322625,98.33333333333334L87.191971875,88.5L87.26389453125,103.25L87.95869453125,103.25L88.15953515624999,89.97500000000001L88.62906796875,103.25L88.64128125,78.66666666666666L88.71320390625,108.16666666666667L88.896403125,103.25L89.10131484375,103.25L89.99695546874999,78.66666666666666L90.01866796875,103.25L90.12587343749999,108.16666666666667L90.24257812500001,78.66666666666666L91.33091718749999,103.25L91.7163140625,90.95833333333333L91.78823671875,78.66666666666666L91.83030468749999,103.25L91.8791578125,76.7L91.93208203125,103.25L92.11935234375001,78.66666666666666L92.207559375,103.25L92.23877109375,98.33333333333334L92.38261640625,76.7L92.5251046875,78.66666666666666L92.587528125,78.66666666666666L92.98785234375,78.66666666666666L93.42481640625,103.25L94.00562578124999,78.66666666666666L94.11283125,103.25L94.28381718749999,78.66666666666666L95.00168671875,78.66666666666666L95.06953828125,76.7L95.1957421875,78.66666666666666L95.2174546875,103.25L95.258165625,78.66666666666666L95.35722890625,76.20833333333334L95.8471171875,103.25L96.10495312500001,78.66666666666666L96.322078125,103.25L96.53241796875001,71.78333333333333L96.65862187500001,78.66666666666666L96.73325859375,89.97500000000001L97.43348671875,78.66666666666666L97.64518359375,78.66666666666666L97.7089640625,78.66666666666666L98.10386015625,76.7L98.18663906249999,103.25L98.39969296875,78.66666666666666L98.63310234375,78.66666666666666L98.93707734375,78.66666666666666L98.98185937500001,78.66666666666666L99.18948515625,108.16666666666667L99.209840625,103.25L99.69972890624999,78.66666666666666L100.02270234375,78.66666666666666L100.0322015625,78.66666666666666L100.03762968749999,73.75L100.0430578125,75.71666666666667L100.23439921875,77.68333333333334L100.29410859375,78.66666666666666L100.51937578125,78.66666666666666L100.56822890625,88.5L100.588584375,78.66666666666666L100.7487140625,76.7L101.359378125,98.33333333333334L101.51679374999999,103.25L101.6932078125,76.20833333333334L101.75427421875,78.66666666666666L102.04060781250001,78.66666666666666L102.184453125,74.73333333333335L102.51556875,74.73333333333335L102.52642499999999,74.73333333333335L102.7462640625,76.7L102.81818671875,68.83333333333333L103.5930515625,103.25L103.823746875,113.08333333333334L103.8427453125,66.86666666666666L103.96080703125001,78.66666666666666L104.203715625,78.66666666666666L104.24849765625,76.7L104.49140625,78.66666666666666L104.898515625,78.66666666666666L104.9066578125,78.66666666666666L105.14956640625,64.9L105.52410703125,78.66666666666666L106.25011875,78.66666666666666L106.44688828125001,78.66666666666666L106.60430390625,78.66666666666666L106.7196515625,78.66666666666666L106.8255,73.75L106.86213984375,73.75L106.885209375,98.33333333333334L107.56508203125,66.86666666666666L107.62886250000001,68.83333333333333L107.79306328125,78.66666666666666L108.07532578124999,66.86666666666666L108.11603671875001,73.75L108.806765625,73.25833333333333L108.8149078125,73.25833333333333L108.8447625,76.7L108.9668953125,73.75L109.208446875,68.83333333333333L110.1990796875,86.04166666666667L110.29542890625,78.66666666666666L110.51526796875,68.83333333333333L110.64554296875001,68.83333333333333L110.84366953125,78.66666666666666L111.466546875,78.66666666666666L111.57510937500001,73.75L111.97814765624999,78.66666666666666L112.020215625,78.66666666666666L112.46396484374999,74.73333333333335L112.66751953125001,68.83333333333333L112.93349765625,66.86666666666666L113.21576015625,71.78333333333333L113.21711718750001,71.78333333333333L113.3311078125,63.91666666666667L113.54551875,73.75L113.8087828125,78.66666666666666L113.97569765625,63.91666666666667L114.12497109375,78.66666666666666L114.2973140625,76.7L114.685425,78.66666666666666L114.6989953125,63.91666666666667L114.9242625,59.983333333333334L115.1983828125,78.66666666666666L115.6814859375,68.83333333333333L115.74526640625,68.83333333333333L115.95967734375,63.91666666666667L116.0017453125,82.6L116.1645890625,68.83333333333333L116.22158437499999,68.83333333333333L116.3111484375,78.66666666666666L116.57984062499999,68.83333333333333L116.7725390625,73.75L117.11043984375,68.83333333333333L117.774028125,66.375L117.99251015624999,68.83333333333333L118.03050703125001,68.83333333333333L118.0915734375,73.75L118.66016953125,78.66666666666666L119.77700625,68.83333333333333L119.80143281250001,63.91666666666667L119.93306484374999,63.91666666666667L120.0022734375,68.83333333333333L120.22075546875,103.25L120.6807890625,63.91666666666667L120.76085390624999,63.91666666666667L121.00919062499999,63.91666666666667L121.0281890625,73.75L121.3945875,68.83333333333333L121.42308515625,98.33333333333334L121.75284375,63.91666666666667L121.86004921874999,83.58333333333333L122.018821875,68.83333333333333L122.76111796875,63.91666666666667L122.92124765625,68.83333333333333L123.02438203125,73.75L123.37585312499999,63.91666666666667L123.48577265624999,68.83333333333333L124.07201015625,63.91666666666667L124.24299609375,68.83333333333333L124.27827890625001,68.83333333333333L124.43569453125,66.375L124.64467734375,63.91666666666667L124.72067109375001,63.91666666666667L124.78987968749999,63.91666666666667L124.819734375,63.91666666666667L124.86451640625,78.66666666666666L124.8984421875,63.91666666666667L125.2512703125,63.91666666666667L125.253984375,63.91666666666667L125.3924015625,63.91666666666667L125.39647265625001,63.91666666666667L125.60545546875001,63.91666666666667L125.829365625,63.91666666666667L126.0329203125,68.83333333333333L126.21747656250001,63.91666666666667L126.448171875,63.91666666666667L126.63679921875,68.83333333333333L127.27596093749999,66.375L127.28274609374999,66.375L127.3465265625,63.91666666666667L127.42794843749999,68.83333333333333L127.45916015625001,63.91666666666667L127.81605937500001,63.91666666666667L128.7849796875,63.91666666666667L129.151378125,63.91666666666667L129.5557734375,68.83333333333333L129.5802,68.83333333333333L129.6887625,63.91666666666667L130.17865078124998,63.91666666666667L130.410703125,63.91666666666667L130.57218984375,63.91666666666667L130.8612375,63.91666666666667L130.93044609375,63.91666666666667L131.12585859375,68.83333333333333L131.1896390625,63.91666666666667L131.34841171875001,63.91666666666667L131.50582734374998,68.83333333333333L131.5153265625,63.91666666666667L131.90208046875,63.91666666666667L132.35261484375,63.91666666666667L132.72172734375,63.91666666666667L132.8560734375,66.86666666666666L133.17361875,63.91666666666667L133.27268203125,61.95L133.3500328125,63.91666666666667L134.04211875,66.375L134.134396875,63.91666666666667L134.23888828125,63.91666666666667L134.25788671875,68.83333333333333L134.31081093749998,63.91666666666667L134.3542359375,63.91666666666667L134.91468984375,68.83333333333333L135.15759843749998,63.91666666666667L135.67055625,63.91666666666667L135.74655,63.91666666666667L135.751978125,63.91666666666667L135.84018515625,63.91666666666667L135.9283921875,63.91666666666667L136.23372421875,63.91666666666667L136.25543671875,63.91666666666667L136.45084921875,63.91666666666667L136.48613203125,63.91666666666667L136.5363421875,59L137.05608515625,59L137.08186874999998,63.91666666666667L137.2202859375,63.91666666666667L137.5785421875,59L137.73188671875,63.91666666666667L137.77938281250002,63.91666666666667L138.35340703125001,61.95L139.41731953124997,63.91666666666667L139.46345859374998,63.91666666666667L139.5706640625,59L139.87735312499998,63.91666666666667L139.94791874999999,63.91666666666667L140.137903125,63.91666666666667L140.46766171875,59L140.80963359375,59L141.028115625,63.91666666666667L141.3565171875,68.83333333333333L141.3999421875,63.91666666666667L141.6876328125,63.91666666666667L141.9481828125,59L142.06353046875,59L142.24265859375,63.91666666666667L142.51677890625,39.33333333333334L142.56020390625,59L142.61041406249998,63.91666666666667L142.71897656250002,59L142.92388828125,59L143.17901015625,68.83333333333333L143.221078125,63.91666666666667L143.26586015625,39.33333333333334L143.42056171875,63.91666666666667L143.5060546875,63.91666666666667L143.8263140625,59L143.86566796875,49.16666666666667L144.90515390624998,59L144.92279531249997,62.27777457682291L145.0205015625,61.45833333333333L145.21455703125,63.91666666666667L145.73701406249998,63.91666666666667L145.81436484375,63.91666666666667L145.95821015624998,63.91666666666667L146.0464171875,59L146.10748359375,59L146.3286796875,39.33333333333334L146.7466453125,39.33333333333334L147.47537109375003,39.33333333333334L147.6667125,63.91666666666667L148.27330546875,68.83333333333333L148.388653125,37.366666666666674L148.410365625,63.91666666666667L148.92875156250003,54.08333333333334L148.95182109375003,39.33333333333334L149.12823515624999,37.366666666666674L149.23815468749999,39.33333333333334L149.322290625,63.91666666666667L149.5964109375,59L149.88545859375,59L150.73224609374998,63.91666666666667L150.75938671875002,39.33333333333334L151.03893515625,59L151.27505859374997,63.91666666666667L151.47861328125,39.33333333333334L151.50575390625,59L151.50982499999998,59L151.62517265625,59L151.62924375,59L152.11641796874997,39.33333333333334L152.15170078125,59L152.9781328125,37.366666666666674L153.05819765625,59L153.51687421875,39.33333333333334L153.64850625,61.95L153.98505,39.33333333333334L154.5685734375,59L155.21859140625,63.91666666666667L155.43028828125,68.83333333333333L155.76683203125,59L155.912034375,39.33333333333334L156.1373015625,37.366666666666674L156.30964453125,59L156.49555781249998,59L156.5715515625,59L156.61497656249998,37.366666666666674L156.71132578125,37.366666666666674L157.22699765624998,39.33333333333334L157.3477734375,59L157.37898515625,63.91666666666667L157.8254484375,59L158.14299375,59L158.23120078125,63.91666666666667L158.79843984375,59L158.98571015625,39.33333333333334L159.08070234374998,59L159.17569453125,39.33333333333334L159.33853828124998,59L159.39824765625,37.366666666666674L159.58280390625,37.366666666666674L159.78093046875,39.33333333333334L159.85421015625,59L159.96277265625002,59L160.11204609375,59L160.319671875,37.366666666666674L160.41873515625,39.33333333333334L160.67928515625002,37.366666666666674L160.77427734375,59L160.840771875,63.91666666666667L161.5627125,37.366666666666674L162.17473359375,59L162.31857890625,59L162.32129296875002,59L162.68769140625,39.33333333333334L163.23050390625,39.33333333333334L163.61318671875,48.18333333333334L163.6443984375,63.91666666666667L163.8642375,39.33333333333334L164.00943984375002,39.33333333333334L164.08950468749998,59L164.10171796875002,59L164.19806718750002,59L164.29984453125002,39.33333333333334L164.412478125,49.16666666666667L164.51968359375002,39.33333333333334L164.65674375,39.33333333333334L164.683884375,59L164.78701875000002,39.33333333333334L164.86436953125,39.33333333333334L164.87929687500002,39.33333333333334L165.45467812500002,39.33333333333334L165.48181875,39.33333333333334L165.975778125,39.33333333333334L166.2498984375,39.33333333333334L166.2933234375,39.33333333333334L166.36660312499998,59L166.4887359375,37.366666666666674L166.75335703125,59L166.795425,39.33333333333334L166.87006171875,39.33333333333334L166.91755781249998,37.366666666666674L166.93112812500001,37.366666666666674L167.19574921875,39.33333333333334L167.54314921875,37.366666666666674L167.6177859375,39.33333333333334L168.201309375,39.33333333333334L168.64777265625,39.33333333333334L168.72648046875,68.83333333333333L169.22858203125,37.366666666666674L169.36971328125,39.33333333333334L169.38871171875,59L169.4144953125,37.366666666666674L169.47013359375,39.33333333333334L169.48913203125,39.33333333333334L169.5094875,33.43333333333334L169.52712890625,39.33333333333334L169.580053125,39.33333333333334L169.7564671875,39.33333333333334L169.9898765625,37.366666666666674L170.21921484375002,37.366666666666674L170.45805234375,35.400000000000006L170.58289921875001,37.366666666666674L170.68060546875,39.33333333333334L170.69960390625,59L171.27227109375002,59L171.349621875,63.91666666666667L171.51653671875002,63.91666666666667L171.75537421875,39.33333333333334L171.89107734375,51.625L172.0308515625,37.366666666666674L172.48409999999998,39.33333333333334L173.38109765625,39.33333333333334L173.43537890624998,57.03333333333333L173.48016093750002,59L173.7298546875,39.33333333333334L174.3106640625,37.366666666666674L174.49657734375,35.400000000000006L175.38678984375,59L175.38814687500002,59L175.46685468750002,39.33333333333334L175.7382609375,37.366666666666674L175.84546640624998,37.366666666666674L176.17386796875,39.33333333333334L176.5009125,63.91666666666667L176.6746125,37.366666666666674L176.71939453124997,39.33333333333334L176.98265859375,39.33333333333334L177.06408046874998,39.33333333333334L177.21063984375002,39.33333333333334L177.25949296875,39.33333333333334L177.2852765625,39.33333333333334L177.41555156249999,39.33333333333334L178.03571484375,39.33333333333334L178.09135312499998,63.91666666666667L178.210771875,37.366666666666674L178.51203281250002,35.400000000000006L178.71965859375,59L178.9761375,63.91666666666667L179.01413437500003,59L179.76728671875,39.33333333333334L180.03055078125,39.33333333333334L180.083475,39.33333333333334L180.35352421874998,39.33333333333334L180.92347734375,39.33333333333334L181.11481875,39.33333333333334L181.28580468750002,39.33333333333334L181.4920734375,37.366666666666674L181.81640390625,37.366666666666674L182.23979765625,37.366666666666674L182.466421875,39.33333333333334L182.47727812500003,39.33333333333334L182.95631015625,39.33333333333334L183.33085078125,39.33333333333334L183.4027734375,39.33333333333334L183.88723359375,39.33333333333334L183.90351796874998,39.33333333333334L184.23870468750002,37.366666666666674L184.24820390625,63.91666666666667L184.39204921875,39.33333333333334L184.61053125,39.33333333333334L184.7326640625,39.33333333333334L185.17234218750002,39.33333333333334L185.40439453125,37.366666666666674L185.47088906250002,59L185.52245624999998,59L185.56859531249998,37.366666666666674L185.6201625,37.366666666666674L185.67308671875,33.43333333333334L185.83050234375003,39.33333333333334L185.93635078125,39.33333333333334L185.95534921875,59L185.97841875,63.91666666666667L186.12497812499998,39.33333333333334L186.776353125,39.33333333333334L187.03418906250002,39.33333333333334L187.19160468750002,39.33333333333334L187.49015156250002,63.91666666666667L187.52950546875,39.33333333333334L188.155096875,38.349999999999994L188.50385390625,39.33333333333334L188.54320781250001,63.91666666666667L188.62598671875,35.400000000000006L189.03852421875,37.366666666666674L189.26650546874998,37.366666666666674L189.95723437499998,39.33333333333334L189.97758984375,39.33333333333334L190.380628125,39.33333333333334L191.14463671875,39.33333333333334L191.60331328125,39.33333333333334L191.6046703125,39.33333333333334L191.75530078124999,39.33333333333334L191.79329765625,37.366666666666674L191.83400859374999,39.33333333333334L191.88964687499998,39.33333333333334L192.0470625,37.366666666666674L192.47588437500002,39.33333333333334L192.53287968749999,39.33333333333334L192.97798593750002,37.366666666666674L193.02005390624998,39.33333333333334L193.4176640625,39.33333333333334L193.54386796875002,37.366666666666674L193.56015234375,37.366666666666674L193.702640625,59L194.14910390625,39.33333333333334L194.88325781249998,59L194.9158265625,37.366666666666674L194.96060859374998,37.366666666666674L195.55363125000002,37.366666666666674L195.64319531249998,39.33333333333334L195.68119218750002,39.33333333333334L196.13579765625,37.366666666666674L196.37870625,37.366666666666674L196.44520078125,39.33333333333334L196.449271875,59L196.46419921875003,59L196.52390859375,59L196.82924062499998,39.33333333333334L197.16442734375,39.33333333333334L198.73044140625,37.366666666666674L199.0602,63.91666666666667L199.39674375,59L199.46866640624998,39.33333333333334L199.61658281249998,39.33333333333334L199.79706796875,39.33333333333334L200.04676171875002,39.33333333333334L200.22046171875002,39.33333333333334L200.29238437499998,59L200.3493796875,39.33333333333334L200.49729609375,37.366666666666674L200.5067953125,37.366666666666674L200.5502203125,39.33333333333334L200.5936453125,39.33333333333334L200.67642421875001,37.366666666666674L200.70085078124998,35.400000000000006L200.99396953125,37.366666666666674L201.25451953125,39.33333333333334L201.39565078125,35.400000000000006L201.47978671875,39.33333333333334L201.71591015625,39.33333333333334L201.99817265624998,37.366666666666674L202.39713984375,37.366666666666674L202.45142109375,39.33333333333334L202.63054921875,35.400000000000006L202.74996796875,39.33333333333334L202.76625234374998,37.366666666666674L202.77710859375,59L202.88024296875003,37.366666666666674L202.9385953125,39.33333333333334L203.11093828125,39.33333333333334L203.31720703125,39.33333333333334L203.4542671875,39.33333333333334L203.65239375000002,39.33333333333334L203.7799546875,37.366666666666674L203.98486640624998,43.92222542317708L204.51003749999998,39.33333333333334L204.81265546875,39.33333333333334L204.89407734375,59L204.92800312499998,38.349999999999994L205.579378125,37.366666666666674L205.59430546875,39.33333333333334L205.83585703125,39.33333333333334L205.86706875,35.400000000000006L205.90913671875,39.33333333333334L206.10183515625,39.33333333333334L206.12083359375,39.33333333333334L206.95676484375,39.33333333333334L207.18746015624998,39.33333333333334L207.51314765625,37.366666666666674L207.53486015625,37.366666666666674L207.90668671875,39.33333333333334L208.05867421875,35.400000000000006L208.30022578125,37.366666666666674L208.34365078125,39.33333333333334L208.44135703125002,37.366666666666674L208.79418515625,39.33333333333334L208.99366874999998,39.33333333333334L209.49441328125002,39.33333333333334L209.5120546875,39.33333333333334L209.62740234375002,37.366666666666674L210.1091484375,39.33333333333334L210.14036015624998,39.33333333333334L210.14714531250002,39.33333333333334L210.1742859375,39.33333333333334L210.31813125000002,39.33333333333334L210.78495,39.33333333333334L211.175775,37.366666666666674L211.52453203125,37.366666666666674L211.9818515625,39.33333333333334L212.07820078125002,39.33333333333334L212.18404921875,39.33333333333334L212.6115140625,39.33333333333334L212.61829921875,39.33333333333334L212.6386546875,39.33333333333334L213.086475,39.33333333333334L213.1299,39.33333333333334L213.39723515625,37.366666666666674L213.70935234375,39.33333333333334L213.82198593750002,39.33333333333334L213.84776953125,39.33333333333334L213.98754375000001,39.33333333333334L214.06489453125,39.33333333333334L214.36615546874998,39.33333333333334L214.62399140624998,37.366666666666674L215.01481640625,37.366666666666674L215.05281328125,39.33333333333334L215.16951796875,37.366666666666674L215.68654687499998,37.366666666666674L215.7164015625,35.400000000000006L216.11943984375,33.43333333333334L216.316209375,39.33333333333334L216.3786328125,39.33333333333334L217.09243125,39.33333333333334L217.1467125,37.366666666666674L217.15756875000002,37.366666666666674L217.1874234375,37.366666666666674L217.20099375,37.366666666666674L217.304128125,39.33333333333334L217.3502671875,37.366666666666674L217.46832890625,59L217.510396875,39.33333333333334L218.14413046875,59L218.38432500000002,39.33333333333334L218.46846093750003,39.33333333333334L218.78464921875002,35.400000000000006L218.79279140625,35.400000000000006L219.64093593750002,39.33333333333334L219.6897890625,37.366666666666674L219.82142109375,35.400000000000006L220.08332812499998,39.33333333333334L220.10639765624998,39.33333333333334L220.1077546875,39.33333333333334L220.51350703125001,57.03333333333333L220.56236015624998,35.400000000000006L220.85955,37.366666666666674L221.05089140625,37.366666666666674L221.44985859374998,35.400000000000006L221.66155546874998,39.33333333333334L221.8556109375,37.366666666666674L221.97231562500002,35.400000000000006L221.9858859375,37.366666666666674L222.17722734375,39.33333333333334L222.23829375,37.366666666666674L222.27221953125002,39.33333333333334L222.44320546875,33.43333333333334L222.53819765625002,37.366666666666674L222.7675359375,37.366666666666674L222.86117109375,63.91666666666667L222.9412359375,63.91666666666667L223.10272265625,39.33333333333334L223.27099453124998,36.383333333333354L224.29148203124998,37.366666666666674L224.74201640625,37.366666666666674L224.75694375,39.33333333333334L224.8763625,39.33333333333334L224.92928671875,59L224.984925,39.33333333333334L225.17626640625,39.33333333333334L225.69193828125,33.43333333333334L225.81,37.366666666666674L226.21303828125002,37.366666666666674L227.02725703125,39.33333333333334L227.10867890625,37.366666666666674L227.12224921875,39.33333333333334L227.29187812499998,35.400000000000006L228.0681,37.366666666666674L228.2390859375,39.33333333333334L228.37343203125,35.400000000000006L228.55798828125,37.366666666666674L228.72354609375,37.366666666666674L228.80225390625,37.366666666666674L228.89588906249998,37.366666666666674L228.90131718749998,37.366666666666674L229.03837734375,37.366666666666674L229.15508203125,39.33333333333334L229.17543750000002,39.33333333333334L229.93944609375,39.33333333333334L230.092790625,39.33333333333334L230.266490625,37.366666666666674L230.28684609375,37.366666666666674L230.38183828125,37.366666666666674L230.54196796875001,33.43333333333334L230.6111765625,29.5L230.70481171875,35.400000000000006L230.71023984375,35.400000000000006L231.42539531249997,37.366666666666674L231.45117890625,37.366666666666674L231.55974140625,35.400000000000006L231.72529921875,39.33333333333334L231.8677875,39.33333333333334L232.11069609375,37.366666666666674L232.12969453124998,37.366666666666674L232.17854765625,37.366666666666674L232.2341859375,33.43333333333334L232.361746875,33.43333333333334L232.42824140624998,37.366666666666674L232.44995390625002,39.33333333333334L232.55987343750002,47.69166666666666L232.67250703124998,35.400000000000006L232.79056875,37.366666666666674L232.8149953125,33.43333333333334L232.99819453125002,35.400000000000006L233.18275078124998,35.400000000000006L233.70792187499998,35.400000000000006L233.75813203125,33.43333333333334L234.12045937500002,39.33333333333334L234.4000078125,39.33333333333334L234.45021796875,39.33333333333334L235.52227265625,39.33333333333334L235.61319375,37.366666666666674L235.69597265625,37.366666666666674L235.8330328125,35.400000000000006L236.18450390625,37.366666666666674L236.27135390625,39.33333333333334L236.8318078125,35.400000000000006L237.02586328125,35.400000000000006L237.46554140625,37.366666666666674L237.7383046875,39.33333333333334L237.844153125,37.366666666666674L237.85636640625,37.366666666666674L238.27433203125,33.43333333333334L238.45888828124998,37.366666666666674L238.47924375,37.366666666666674L238.799503125,39.33333333333334L238.8836390625,37.366666666666674L239.2581796875,59L239.37081328125,37.366666666666674L239.72364140624998,39.33333333333334L239.8824140625,59" style="fill: none;" fill="none"></path></g></g></g></g></g></g><g transform="translate(58, 177)" clip-path="url(#clip_1)"><clipPath id="clip_1"><rect width="271" height="23"></rect></clipPath><g><g><line x1="0" y1="0" x2="0" y2="5" style="visibility: inherit;" fill="rgb(0, 0, 0)" stroke="rgb(204, 204, 204)" stroke-width="1px"></line><line x1="27.140625" y1="0" x2="27.140625" y2="5" style="visibility: inherit;" fill="rgb(0, 0, 0)" stroke="rgb(204, 204, 204)" stroke-width="1px"></line><line x1="54.28125" y1="0" x2="54.28125" y2="5" style="visibility: inherit;" fill="rgb(0, 0, 0)" stroke="rgb(204, 204, 204)" stroke-width="1px"></line><line x1="81.421875" y1="0" x2="81.421875" y2="5" style="visibility: inherit;" fill="rgb(0, 0, 0)" stroke="rgb(204, 204, 204)" stroke-width="1px"></line><line x1="108.5625" y1="0" x2="108.5625" y2="5" style="visibility: inherit;" fill="rgb(0, 0, 0)" stroke="rgb(204, 204, 204)" stroke-width="1px"></line><line x1="135.703125" y1="0" x2="135.703125" y2="5" style="visibility: inherit;" fill="rgb(0, 0, 0)" stroke="rgb(204, 204, 204)" stroke-width="1px"></line><line x1="162.84375" y1="0" x2="162.84375" y2="5" style="visibility: inherit;" fill="rgb(0, 0, 0)" stroke="rgb(204, 204, 204)" stroke-width="1px"></line><line x1="189.984375" y1="0" x2="189.984375" y2="5" style="visibility: inherit;" fill="rgb(0, 0, 0)" stroke="rgb(204, 204, 204)" stroke-width="1px"></line><line x1="217.125" y1="0" x2="217.125" y2="5" style="visibility: inherit;" fill="rgb(0, 0, 0)" stroke="rgb(204, 204, 204)" stroke-width="1px"></line><line x1="244.265625" y1="0" x2="244.265625" y2="5" style="visibility: inherit;" fill="rgb(0, 0, 0)" stroke="rgb(204, 204, 204)" stroke-width="1px"></line><line x1="271.40625" y1="0" x2="271.40625" y2="5" style="visibility: inherit;" fill="rgb(0, 0, 0)" stroke="rgb(204, 204, 204)" stroke-width="1px"></line></g><g transform="translate(0, 8)"><text x="0" y="0" dx="0em" dy="0.95em" style="text-anchor: middle; visibility: hidden; font-family: &quot;Helvetica Neue&quot;, sans-serif; font-size: 12px; font-weight: 200;" fill="rgb(50, 49, 63)" stroke="none" stroke-width="1px">-20k</text><text x="27.140625" y="0" dx="0em" dy="0.95em" style="text-anchor: middle; visibility: inherit; font-family: &quot;Helvetica Neue&quot;, sans-serif; font-size: 12px; font-weight: 200;" fill="rgb(50, 49, 63)" stroke="none" stroke-width="1px">0</text><text x="54.28125" y="0" dx="0em" dy="0.95em" style="text-anchor: middle; visibility: hidden; font-family: &quot;Helvetica Neue&quot;, sans-serif; font-size: 12px; font-weight: 200;" fill="rgb(50, 49, 63)" stroke="none" stroke-width="1px">20k</text><text x="81.421875" y="0" dx="0em" dy="0.95em" style="text-anchor: middle; visibility: inherit; font-family: &quot;Helvetica Neue&quot;, sans-serif; font-size: 12px; font-weight: 200;" fill="rgb(50, 49, 63)" stroke="none" stroke-width="1px">40k</text><text x="108.5625" y="0" dx="0em" dy="0.95em" style="text-anchor: middle; visibility: hidden; font-family: &quot;Helvetica Neue&quot;, sans-serif; font-size: 12px; font-weight: 200;" fill="rgb(50, 49, 63)" stroke="none" stroke-width="1px">60k</text><text x="135.703125" y="0" dx="0em" dy="0.95em" style="text-anchor: middle; visibility: inherit; font-family: &quot;Helvetica Neue&quot;, sans-serif; font-size: 12px; font-weight: 200;" fill="rgb(50, 49, 63)" stroke="none" stroke-width="1px">80k</text><text x="162.84375" y="0" dx="0em" dy="0.95em" style="text-anchor: middle; visibility: hidden; font-family: &quot;Helvetica Neue&quot;, sans-serif; font-size: 12px; font-weight: 200;" fill="rgb(50, 49, 63)" stroke="none" stroke-width="1px">100k</text><text x="189.984375" y="0" dx="0em" dy="0.95em" style="text-anchor: middle; visibility: inherit; font-family: &quot;Helvetica Neue&quot;, sans-serif; font-size: 12px; font-weight: 200;" fill="rgb(50, 49, 63)" stroke="none" stroke-width="1px">120k</text><text x="217.125" y="0" dx="0em" dy="0.95em" style="text-anchor: middle; visibility: hidden; font-family: &quot;Helvetica Neue&quot;, sans-serif; font-size: 12px; font-weight: 200;" fill="rgb(50, 49, 63)" stroke="none" stroke-width="1px">140k</text><text x="244.265625" y="0" dx="0em" dy="0.95em" style="text-anchor: middle; visibility: inherit; font-family: &quot;Helvetica Neue&quot;, sans-serif; font-size: 12px; font-weight: 200;" fill="rgb(50, 49, 63)" stroke="none" stroke-width="1px">160k</text><text x="271.40625" y="0" dx="0em" dy="0.95em" style="text-anchor: middle; visibility: hidden; font-family: &quot;Helvetica Neue&quot;, sans-serif; font-size: 12px; font-weight: 200;" fill="rgb(50, 49, 63)" stroke="none" stroke-width="1px">180k</text></g><line x1="0" y1="0" x2="271.40625" y2="0" fill="rgb(0, 0, 0)" stroke="rgb(204, 204, 204)" stroke-width="1px"></line></g></g></g></g></svg>