<svg viewBox="0 0 330 200" xmlns="http://www.w3.org/2000/svg"><g><g><g><g><g><line x1="68.3125" y1="177" x2="63.3125" y2="177" style="visibility: inherit;" fill="rgb(0, 0, 0)" stroke="rgb(204, 204, 204)" stroke-width="1px"></line><line x1="68.3125" y1="160.9090909090909" x2="63.3125" y2="160.9090909090909" style="visibility: inherit;" fill="rgb(0, 0, 0)" stroke="rgb(204, 204, 204)" stroke-width="1px"></line><line x1="68.3125" y1="144.8181818181818" x2="63.3125" y2="144.8181818181818" style="visibility: inherit;" fill="rgb(0, 0, 0)" stroke="rgb(204, 204, 204)" stroke-width="1px"></line><line x1="68.3125" y1="128.72727272727275" x2="63.3125" y2="128.72727272727275" style="visibility: inherit;" fill="rgb(0, 0, 0)" stroke="rgb(204, 204, 204)" stroke-width="1px"></line><line x1="68.3125" y1="112.63636363636364" x2="63.3125" y2="112.63636363636364" style="visibility: inherit;" fill="rgb(0, 0, 0)" stroke="rgb(204, 204, 204)" stroke-width="1px"></line><line x1="68.3125" y1="96.54545454545455" x2="63.3125" y2="96.54545454545455" style="visibility: inherit;" fill="rgb(0, 0, 0)" stroke="rgb(204, 204, 204)" stroke-width="1px"></line><line x1="68.3125" y1="80.45454545454547" x2="63.3125" y2="80.45454545454547" style="visibility: inherit;" fill="rgb(0, 0, 0)" stroke="rgb(204, 204, 204)" stroke-width="1px"></line><line x1="68.3125" y1="64.36363636363636" x2="63.3125" y2="64.36363636363636" style="visibility: inherit;" fill="rgb(0, 0, 0)" stroke="rgb(204, 204, 204)" stroke-width="1px"></line><line x1="68.3125" y1="48.27272727272728" x2="63.3125" y2="48.27272727272728" style="visibility: inherit;" fill="rgb(0, 0, 0)" stroke="rgb(204, 204, 204)" stroke-width="1px"></line><line x1="68.3125" y1="32.18181818181819" x2="63.3125" y2="32.18181818181819" style="visibility: inherit;" fill="rgb(0, 0, 0)" stroke="rgb(204, 204, 204)" stroke-width="1px"></line><line x1="68.3125" y1="16.090909090909093" x2="63.3125" y2="16.090909090909093" style="visibility: inherit;" fill="rgb(0, 0, 0)" stroke="rgb(204, 204, 204)" stroke-width="1px"></line><line x1="68.3125" y1="0" x2="63.3125" y2="0" style="visibility: inherit;" fill="rgb(0, 0, 0)" stroke="rgb(204, 204, 204)" stroke-width="1px"></line></g><g transform="translate(58.3125, 0)"><text x="0" y="177" dx="0em" dy="0.3em" style="text-anchor: end; visibility: hidden; font-family: &quot;Helvetica Neue&quot;, sans-serif; font-size: 12px; font-weight: 200;" fill="rgb(50, 49, 63)" stroke="none" stroke-width="1px">-5e+3</text><text x="0" y="160.9090909090909" dx="0em" dy="0.3em" style="text-anchor: end; visibility: inherit; font-family: &quot;Helvetica Neue&quot;, sans-serif; font-size: 12px; font-weight: 200;" fill="rgb(50, 49, 63)" stroke="none" stroke-width="1px">0</text><text x="0" y="144.8181818181818" dx="0em" dy="0.3em" style="text-anchor: end; visibility: hidden; font-family: &quot;Helvetica Neue&quot;, sans-serif; font-size: 12px; font-weight: 200;" fill="rgb(50, 49, 63)" stroke="none" stroke-width="1px">5e+3</text><text x="0" y="128.72727272727275" dx="0em" dy="0.3em" style="text-anchor: end; visibility: inherit; font-family: &quot;Helvetica Neue&quot;, sans-serif; font-size: 12px; font-weight: 200;" fill="rgb(50, 49, 63)" stroke="none" stroke-width="1px">1e+4</text><text x="0" y="112.63636363636364" dx="0em" dy="0.3em" style="text-anchor: end; visibility: hidden; font-family: &quot;Helvetica Neue&quot;, sans-serif; font-size: 12px; font-weight: 200;" fill="rgb(50, 49, 63)" stroke="none" stroke-width="1px">1.5e+4</text><text x="0" y="96.54545454545455" dx="0em" dy="0.3em" style="text-anchor: end; visibility: inherit; font-family: &quot;Helvetica Neue&quot;, sans-serif; font-size: 12px; font-weight: 200;" fill="rgb(50, 49, 63)" stroke="none" stroke-width="1px">2e+4</text><text x="0" y="80.45454545454547" dx="0em" dy="0.3em" style="text-anchor: end; visibility: hidden; font-family: &quot;Helvetica Neue&quot;, sans-serif; font-size: 12px; font-weight: 200;" fill="rgb(50, 49, 63)" stroke="none" stroke-width="1px">2.5e+4</text><text x="0" y="64.36363636363636" dx="0em" dy="0.3em" style="text-anchor: end; visibility: inherit; font-family: &quot;Helvetica Neue&quot;, sans-serif; font-size: 12px; font-weight: 200;" fill="rgb(50, 49, 63)" stroke="none" stroke-width="1px">3e+4</text><text x="0" y="48.27272727272728" dx="0em" dy="0.3em" style="text-anchor: end; visibility: hidden; font-family: &quot;Helvetica Neue&quot;, sans-serif; font-size: 12px; font-weight: 200;" fill="rgb(50, 49, 63)" stroke="none" stroke-width="1px">3.5e+4</text><text x="0" y="32.18181818181819" dx="0em" dy="0.3em" style="text-anchor: end; visibility: inherit; font-family: &quot;Helvetica Neue&quot;, sans-serif; font-size: 12px; font-weight: 200;" fill="rgb(50, 49, 63)" stroke="none" stroke-width="1px">4e+4</text><text x="0" y="16.090909090909093" dx="0em" dy="0.3em" style="text-anchor: end; visibility: hidden; font-family: &quot;Helvetica Neue&quot;, sans-serif; font-size: 12px; font-weight: 200;" fill="rgb(50, 49, 63)" stroke="none" stroke-width="1px">4.5e+4</text><text x="0" y="0" dx="0em" dy="0.3em" style="text-anchor: end; visibility: hidden; font-family: &quot;Helvetica Neue&quot;, sans-serif; font-size: 12px; font-weight: 200;" fill="rgb(50, 49, 63)" stroke="none" stroke-width="1px">5e+4</text></g><line x1="68.3125" y1="0" x2="68.3125" y2="177" fill="rgb(0, 0, 0)" stroke="rgb(204, 204, 204)" stroke-width="1px"></line></g></g><g transform="translate(68, 0)" clip-path="url(#clip_0)"><clipPath id="clip_0"><rect width="261" height="177"></rect></clipPath><g><g><g><line x1="0" y1="0" x2="0" y2="177" fill="rgb(0, 0, 0)" stroke="rgb(60, 60, 60)" stroke-width="1px" opacity="0.25"></line><line x1="29.076388888888886" y1="0" x2="29.076388888888886" y2="177" fill="rgb(0, 0, 0)" stroke="rgb(60, 60, 60)" stroke-width="1px" opacity="0.25"></line><line x1="58.15277777777777" y1="0" x2="58.15277777777777" y2="177" fill="rgb(0, 0, 0)" stroke="rgb(60, 60, 60)" stroke-width="1px" opacity="0.25"></line><line x1="87.22916666666666" y1="0" x2="87.22916666666666" y2="177" fill="rgb(0, 0, 0)" stroke="rgb(60, 60, 60)" stroke-width="1px" opacity="0.25"></line><line x1="116.30555555555554" y1="0" x2="116.30555555555554" y2="177" fill="rgb(0, 0, 0)" stroke="rgb(60, 60, 60)" stroke-width="1px" opacity="0.25"></line><line x1="145.38194444444446" y1="0" x2="145.38194444444446" y2="177" fill="rgb(0, 0, 0)" stroke="rgb(60, 60, 60)" stroke-width="1px" opacity="0.25"></line><line x1="174.45833333333331" y1="0" x2="174.45833333333331" y2="177" fill="rgb(0, 0, 0)" stroke="rgb(60, 60, 60)" stroke-width="1px" opacity="0.25"></line><line x1="203.53472222222223" y1="0" x2="203.53472222222223" y2="177" fill="rgb(0, 0, 0)" stroke="rgb(60, 60, 60)" stroke-width="1px" opacity="0.25"></line><line x1="232.6111111111111" y1="0" x2="232.6111111111111" y2="177" fill="rgb(0, 0, 0)" stroke="rgb(60, 60, 60)" stroke-width="1px" opacity="0.25"></line><line x1="261.6875" y1="0" x2="261.6875" y2="177" fill="rgb(0, 0, 0)" stroke="rgb(60, 60, 60)" stroke-width="1px" opacity="0.25"></line></g><g><line x1="0" y1="177" x2="261.6875" y2="177" fill="rgb(0, 0, 0)" stroke="rgb(60, 60, 60)" stroke-width="1px" opacity="0.25"></line><line x1="0" y1="160.9090909090909" x2="261.6875" y2="160.9090909090909" fill="rgb(0, 0, 0)" stroke="rgb(60, 60, 60)" stroke-width="1px" opacity="0.25"></line><line x1="0" y1="144.8181818181818" x2="261.6875" y2="144.8181818181818" fill="rgb(0, 0, 0)" stroke="rgb(60, 60, 60)" stroke-width="1px" opacity="0.25"></line><line x1="0" y1="128.72727272727275" x2="261.6875" y2="128.72727272727275" fill="rgb(0, 0, 0)" stroke="rgb(60, 60, 60)" stroke-width="1px" opacity="0.25"></line><line x1="0" y1="112.63636363636364" x2="261.6875" y2="112.63636363636364" fill="rgb(0, 0, 0)" stroke="rgb(60, 60, 60)" stroke-width="1px" opacity="0.25"></line><line x1="0" y1="96.54545454545455" x2="261.6875" y2="96.54545454545455" fill="rgb(0, 0, 0)" stroke="rgb(60, 60, 60)" stroke-width="1px" opacity="0.25"></line><line x1="0" y1="80.45454545454547" x2="261.6875" y2="80.45454545454547" fill="rgb(0, 0, 0)" stroke="rgb(60, 60, 60)" stroke-width="1px" opacity="0.25"></line><line x1="0" y1="64.36363636363636" x2="261.6875" y2="64.36363636363636" fill="rgb(0, 0, 0)" stroke="rgb(60, 60, 60)" stroke-width="1px" opacity="0.25"></line><line x1="0" y1="48.27272727272728" x2="261.6875" y2="48.27272727272728" fill="rgb(0, 0, 0)" stroke="rgb(60, 60, 60)" stroke-width="1px" opacity="0.25"></line><line x1="0" y1="32.18181818181819" x2="261.6875" y2="32.18181818181819" fill="rgb(0, 0, 0)" stroke="rgb(60, 60, 60)" stroke-width="1px" opacity="0.25"></line><line x1="0" y1="16.090909090909093" x2="261.6875" y2="16.090909090909093" fill="rgb(0, 0, 0)" stroke="rgb(60, 60, 60)" stroke-width="1px" opacity="0.25"></line><line x1="0" y1="0" x2="261.6875" y2="0" fill="rgb(0, 0, 0)" stroke="rgb(60, 60, 60)" stroke-width="1px" opacity="0.25"></line></g></g></g><g><g><line x1="0" y1="160.9090909090909" x2="261.6875" y2="160.9090909090909" fill="rgb(0, 0, 0)" stroke="rgb(153, 153, 153)" stroke-width="1.5px"></line></g></g><g><g><line x1="29.076388888888886" y1="0" x2="29.076388888888886" y2="177" fill="rgb(0, 0, 0)" stroke="rgb(153, 153, 153)" stroke-width="1.5px"></line></g></g><g><g><g><g><g><path stroke="rgb(255, 112, 67)" stroke-width="2px" d="M29.30318472222222,152.46136363636364L29.572141319444444,152.78318181818182L29.69135451388889,152.52192720563568L30.095516319444446,152.53706904755612L30.14930763888889,152.4399960595923L30.17693020833333,152.3312301574906L30.28451284722222,152.36851134582102L30.315043055555556,152.1785689769025L30.540385069444447,152.00408685907416L30.620345138888887,151.8717132634116L30.912562847222222,151.66921356911263L31.10882847222222,151.59124404210039L31.13499722222222,151.48568894963628L31.139358680555556,151.3952129592128L31.306547916666666,151.33899966208995L31.505721180555554,149.68141946643465L31.655464583333334,148.56862144444014L31.813930902777777,148.90736679642438L31.888075694444442,147.5527506533212L31.920059722222224,146.38416669624291L32.03491145833333,146.88948713248521L32.045088194444446,147.33262256139372L32.16720902777778,147.71175334070847L32.223907986111115,148.03903896197045L32.25443819444444,147.3401335113903L32.26316111111111,147.7328094564383L32.331490625,148.03326346896822L32.42017361111111,146.93331714616735L32.521940972222225,145.93120273490467L32.55974027777778,146.4484548314526L32.59027048611111,146.87619203252268L32.731290972222226,147.31793168120598L32.802528124999995,146.30948337015104L32.881034375000006,146.77344830608396L33.049677430555555,145.8368218963015L33.15871388888889,146.35321875599575L33.267750347222226,146.05857740763423L33.33462604166667,145.2766325524965L33.47128506944444,145.33145141677971L33.511992013888886,145.8918162346058L33.914699999999996,146.39781121298057L33.97430659722222,146.85191227812481L33.983029513888894,146.19087088225152L34.12405,146.63232857108443L34.19674097222222,147.06128508535025L34.21273298611111,146.06969474158714L34.32467708333333,145.26464292335618L34.34212291666667,145.830222691724L34.481689583333335,146.37416069285769L34.58345694444444,145.4187479136047L34.70121631944445,144.57274904304015L34.86549791666667,143.79917206958373L34.906204861111114,144.52329364314716L35.09810902777778,143.74883644461488L35.75232777777778,143.06523606780942L35.756689236111114,142.4439380435425L35.868633333333335,141.86896327005348L36.00238472222222,141.39852325718564L36.01401527777778,140.92856894762036L36.076529513888886,140.51546060199718L36.112875,140.13735757772585L36.20737326388889,139.83746712408552L36.329494097222224,139.55959275418994L36.35566284722223,139.27735526101156L36.35857048611111,139.03951281088098L36.52575972222222,138.8061750547169L36.74383263888888,138.61231820114307L36.780178125,138.463644100855L37.084026388888894,138.31053673399728L37.105833680555556,138.23716435975442L37.179978472222224,138.20977793454762L37.25848472222222,138.02092247332806L37.36315972222222,137.87994765027435L37.405320486111115,137.77239958150778L37.418404861111114,137.6917115879103L37.51435694444445,137.60944030636242L37.581232638888885,137.4967716008751L37.701899652777776,137.4050333333584L37.761506250000004,137.3675390801316L37.828381944444445,137.28873159105527L37.88508090277778,137.217808122841L37.94904895833333,137.18616716578111L37.96358715277778,137.13837920175015L38.01592465277778,137.09537148043657L38.03773194444444,137.1210376435078L38.04790868055555,137.10551389493372L38.104607638888886,137.05292064603688L38.119145833333334,137.00558776632369L38.247081944444446,136.9629890204333L38.319772916666665,136.93108768823106L38.40118680555556,136.8959401460697L38.43898611111111,136.86430781599609L38.46660868055556,136.84871253197548L38.641067013888886,136.8282402555744L38.738472916666666,136.80337874806122L38.74138055555556,136.79387685221892L38.75010347222222,136.77245202273866L38.80971006944444,136.759606399233L38.819886805555555,136.74160886451813L38.944915277777774,136.73828425339636L38.998706597222224,136.7224190851594L39.043775,136.6952675015753L39.07430520833333,136.6837041638775L39.13245798611111,136.67329720249197L39.15717291666667,136.676803900879L39.19642604166666,136.6670870099929L39.244402083333334,136.65834183425648L39.298193402777784,136.63759832274434L39.42903715277778,136.6318020671876L39.5148125,136.6394582950125L39.610764583333335,136.6334760520114L39.655832986111115,136.62809204278454L39.69363229166667,136.63933745988464L39.706716666666665,136.63336731398283L39.77068472222222,136.62799418956388L39.86227534722222,136.63603117380094L39.90007465277778,136.6303916678032L39.95968125,136.6253161171517L40.04691041666666,136.62074812541L40.051271875,136.6037641671145L40.08034826388889,136.60135137975436L40.243176041666665,136.59917987246257L40.279521527777774,136.59722551697917L40.28388298611111,136.59546659791823L40.29405972222222,136.59388357147148L40.35075868055556,136.57958609887856L40.3522125,136.57959112536213L40.38274270833333,136.57959564919582L40.46415659722222,136.57959972064498L40.46561041666667,136.57960338494826L40.483056250000004,136.5667339425028L40.55574722222222,136.56802418579292L40.56010868055555,136.55631266669135L40.564470138888886,136.55864503810886L40.631345833333334,136.5607441720573L40.68804479166667,136.56263339234567L40.75055902777778,136.55146095618514L40.75637430555555,136.5542784982959L40.759281944444446,136.55681428593613L41.04859201388889,136.55909649460213L41.106744791666664,136.57402321405252L41.11110625,136.5745845291894L41.19688159722222,136.57508971277866L41.50072986111111,136.57554437798154L41.52544479166667,136.56308084638493L41.57342083333333,136.5647363984555L41.60249722222222,136.56622639525335L41.646111805555556,136.5675673923183L41.66210381944444,136.56877428963367L41.75950972222223,136.55698776814774L41.82638541666667,136.55925262797564L41.856915625,136.56129100176773L41.93832951388889,136.55025280958031L41.96449826388889,136.56606389367872L42.040096874999996,136.55454841247092L42.05899652777777,136.55705720777L42.11278784722222,136.55931512350446L42.13314131944445,136.5613472476374L42.23200104166666,136.5631761593343L42.24653923611111,136.56482217984308L42.278523263888886,136.56630359828603L42.361390972222225,136.56763687487262L42.38610590277778,136.56883682379072L42.482057986111116,136.5699167778091L42.51549583333333,136.55801600878368L42.57219479166667,136.5601780443238L42.578010069444446,136.5621238762995L42.682685069444446,136.56387512506916L42.68704652777778,136.55257852144425L42.7597375,136.55528430570848L42.778637152777776,136.5448467840722L42.78881388888889,136.54832574207552L42.82661319444444,136.5514568042696L42.8644125,136.55427476023704L42.87168159722222,136.5568109206019L42.883312152777776,136.54622073753896L42.980718055555556,136.55599866386288L43.04032465277778,136.57123516122212L43.062131944444445,136.55920255411323L43.083939236111114,136.5612459350774L43.08975451388889,136.5630849779429L43.19297569444445,136.56474011652003L43.23659027777778,136.56622974123798L43.33545,136.5675704034829L43.345626736111114,136.5687769995024L43.486647222222224,136.56986293591913L43.569514930555556,136.5579675513851L43.69308958333334,136.56013443261565L43.76287291666667,136.5620846257221L43.791949305555555,136.5638397995171L43.82538715277778,136.55254672863572L43.88353993055556,136.55525569214024L43.956230902777776,136.54482103200172L43.96640763888889,136.54830256516982L44.02456041666667,136.54499958137615L44.03473715277777,136.5484632596059L44.16703472222222,136.55158057001194L44.23972569444444,136.55438614937685L44.277525,136.55691117080477L44.292063194444445,136.55918369008953L44.44180659722222,136.5612289574455L44.494144097222225,136.51479697076533L44.664240972222224,136.5212809100558L44.71803229166667,136.52711645541655L45.00152708333333,136.51949571896262L45.01751909722222,136.4772370561414L45.052410763888886,136.43920425960533L45.075671875,136.4532474700127L45.09166388888889,136.4176136320926L45.34026701388889,136.38554317796635L45.56415520833333,136.35667976925424L45.56706284722222,136.33070270141457L45.70226805555556,136.3073233403598L45.731344444444446,136.28628191541134L45.790951041666666,136.26734463295838L46.24163506944445,136.2503010787512L46.327410416666666,136.2349618799652L46.50768402777778,136.2211566010581L46.70394965277778,136.20873185004203L46.722849305555556,136.19754957412778L46.81298611111111,136.18748552580513L46.96418333333333,136.16555515504126L47.06740451388889,136.15869054862762L47.16044895833333,136.1283760392177L47.265123958333334,136.1252293443867L47.34508402777778,136.10952459176548L47.49191979166667,136.09539031440653L47.60241006944444,136.0955421920568L47.60386388888889,136.09567888194204L47.64166319444445,136.09580190283873L47.74197673611111,136.09591262164577L47.74924583333333,136.0960122685721L47.80739861111111,136.0961019508058L47.862643750000004,136.09618266481613L47.89753541666666,136.09625530742542L47.901896875,136.0963206857738L48.15486145833333,136.0835067990144L48.35839618055556,136.0848470282039L48.52703923611111,136.07318050720156L48.59100729166667,136.05141700193573L48.61717604166667,136.04792075628757L48.64334479166667,136.05281958974976L48.647706250000006,136.02021944895637L48.99371527777778,136.00375204951516L49.046052777777774,135.98893139001808L49.099844097222224,135.97559279647075L49.15072777777778,135.96358806227818L49.18707326388889,135.95278380150484L49.24667986111111,135.94305996680887L49.307740277777775,135.9343085155825L49.396423263888884,135.9103413003878L49.764239583333335,135.89198898853078L49.778777777777776,135.8754719078595L49.90962152777777,135.87347926252806L50.03755763888889,135.85881315445704L50.05209583333333,135.8584863844659L50.082626041666664,135.85819229147384L50.13787118055556,135.857927607781L50.14368645833333,135.85768939245744L50.23818472222222,135.85747499866625L50.373389930555554,135.854063862436L50.54057916666667,135.85421202164693L50.56820173611111,135.8543453649368L50.64234652777778,135.85446537389765L50.91566458333333,135.8417006546897L50.97963263888889,135.84308513467528L50.99417083333333,135.8443311666623L51.02760868055555,135.8454525954506L51.10320729166667,135.84646188136009L51.21369756944444,135.84737023867862L51.216605208333334,135.84818776026532L51.328549305555555,135.83605080242057L51.35907951388889,135.83800026763308L51.412870833333336,135.8397547863243L51.46666215277778,135.84133385314644L51.64112048611111,135.84275501328634L51.72689583333333,135.84403405741224L51.745795486111106,135.83231246985284L51.80249444444444,135.8346357683221L51.91589236111111,135.83672673694443L52.05545902777778,135.83860860870453L52.096165972222224,135.84030229328863L52.14268819444444,135.8418266094143L52.22119444444445,135.84319849392742L52.25463229166667,135.84443318998922L52.26917048611111,135.84554441644485L52.314238888888895,135.8465445202549L52.349130555555554,135.84744461368396L52.385476041666664,135.84825469777013L52.47561284722222,135.84898377344766L52.58901076388889,135.84963994155743L52.66606319444444,135.8502304928562L52.68350902777778,135.85076198902516L52.72566979166666,135.8512403355772L52.8085375,135.851670847474L52.937927430555554,135.85205830818114L53.02951805555555,135.83631611372667L53.03242569444445,135.82536632053584L53.04260243055556,135.8283842339368L53.051325347222225,135.81822762872494L53.134193055555556,135.82195941130698L53.18216909722222,135.82531801563084L53.449671875,135.8428225777041L53.936701388888885,135.76685850175187L54.03265347222222,135.35092719703124L54.057368402777776,135.34828902278264L54.30306388888889,135.3732692114135L54.474614583333334,135.3844877448176L54.76973993055556,135.47503897033585L54.772647569444445,135.50343507330223L54.788639583333335,133.97782792960837L54.997989583333336,134.17203604573845L55.525726041666665,134.44497789571005L56.02438611111111,134.55385283341178L56.331142013888886,134.65505845916152L56.66406666666666,134.73327079506356L56.76583402777778,134.79239826101173L57.23105625,134.8697493440015L57.60323402777777,135.13084713687405L58.10625555555555,135.66834424136846L58.32432847222223,135.83027345359525L58.404288541666666,136.571373380963L58.530770833333335,136.548063315594L58.722674999999995,136.57374789312547L58.80263506944444,136.59847310381292L58.865149305555555,136.5933712479771L59.02797708333333,134.8960159413612L59.09485277777778,135.04024161995235L59.57606701388889,136.6423629125026L59.66038854166667,138.10679934852504L59.885730555555554,136.80841032276345L59.89009201388888,136.75013292685074L59.965690625,136.87468327052932L61.229059722222225,136.9014967616582L61.461670833333336,136.98194708549238L61.71027395833334,136.9014887405795L61.93997743055556,136.883785321067L62.01557604166666,136.79222497077848L62.07663645833333,136.72269338279153L62.13333541666667,134.9786149536033L62.28453263888889,133.6181261855157L62.442998958333334,132.23921356696414L62.45462951388889,132.62498311935863L62.53749722222223,131.21343935287732L62.600011458333334,131.7210954175896L62.65671041666667,130.38706769401244L62.97945833333333,129.19931547006576L63.00853472222222,128.15608392305916L63.479572222222224,127.15281189438963L63.4853875,126.1983761594961L63.57261666666667,125.29915672536467L63.98986284722223,124.5059501437373L64.13088333333333,123.84194603845447L64.309703125,123.26686961642721L64.41728576388888,122.72033720023902L64.56702916666667,122.12386711657877L64.63099722222222,121.69485313219363L64.80254791666667,121.30552236442881L65.06714305555556,120.95512467344045L65.1180267361111,120.62045766064188L65.173271875,120.31925734912313L65.21397881944445,120.061049796029L65.47566631944444,119.81579027097155L65.49020451388888,119.56287488023803L65.51782708333334,119.35134193766879L66.23892152777779,119.117516834811L66.64308333333332,118.94247424223897L66.69687465277778,118.75275409074234L66.71286666666667,118.60775140894084L66.76811180555556,118.49333990441039L66.89314027777777,118.3678422776057L66.92221666666666,118.28707623166332L67.03997604166666,118.17898679031516L67.18390416666666,118.06561538401093L67.42233055555556,117.94427202742801L67.54299756944444,117.85437209741248L67.59533506944445,117.81690761494396L67.97042048611111,117.7831895807223L68.11434861111111,117.72548880446824L68.33096770833333,117.65103083311233L68.39493576388888,117.59206411343746L68.61155486111112,117.56473952027554L68.74239861111111,117.5192292046116L68.74676006944445,117.46217901142317L69.28321944444446,117.43657929209905L69.37917152777777,117.37813954470732L69.438778125,117.3223255902366L69.45622395833334,117.30105666757657L69.63940520833333,117.26582372809163L69.65248958333333,117.24859590073703L69.79787152777779,117.22826358339057L69.80659444444446,117.23731904323334L69.99704479166667,117.24868713891001L70.01012916666667,117.2026002432008L70.14097291666667,117.16755840069892L70.18894895833333,117.11027528790176L70.19185659722223,117.12630230456614L70.31979270833334,117.06992661956407L70.52768888888889,117.03206123033493L70.55967291666667,117.00763692548327L70.56839583333333,117.01140050566221L70.57566493055556,116.98582409145962L70.69778576388889,116.94349622776821L70.73558506944445,116.9086193322641L70.91731250000001,116.89010285358314L70.98128055555556,116.84769256822483L71.26186770833333,116.84170512958416L71.33165104166667,116.8298800711712L71.35345833333334,116.79992842769045L71.44359513888888,116.75688103946686L71.50465555555556,116.77606566279289L71.52937048611112,116.75793182378634L71.57153125,116.72552045958952L71.60206145833334,116.69635023181237L71.610784375,116.69584248135841L71.67911388888889,116.6857309604953L71.69946736111112,116.65410331899122L71.93207847222222,116.66747480527391L71.95679340277778,116.67950914292834L72.15596666666667,116.63080368318097L72.53395972222224,116.61110513304469L72.75639409722221,116.59337643792205L72.83926180555555,116.59351152140255L72.91195277777777,116.59363309653503L72.93812152777777,116.553515241427L73.0108125,116.53350008092065L73.02535069444444,116.49939552737402L73.0471579861111,116.45261052009117L73.22888541666667,116.42659492262752L73.27540763888888,116.4224899758193L73.29139965277778,116.39948643278282L73.31902222222223,116.39648324404999L73.53273368055555,116.39217128328136L73.53854895833334,116.37219960949867L73.56181006944445,116.36709783036699L73.70283055555555,116.34963350187574L73.88310416666667,116.32747924259726L74.2567357638889,116.349376772883L74.52133090277778,116.33368455014013L74.64199791666667,116.3356524587625L74.64490555555557,116.31489630379534L74.6696204861111,116.2962157643249L74.83099444444444,116.28583964243786L74.85134791666665,116.27006476910316L74.98800694444445,116.25586738310193L75.25114826388888,116.25274428115537L75.58261909722222,116.24671530758528L75.58407291666667,116.25094377682674L75.94607395833333,116.26118576278044L76.16560069444445,116.24787627741149L76.3836736111111,116.25520683148852L76.40838854166667,116.24893160288511L76.60610798611111,116.23684753350571L76.61337708333333,116.23240823470059L76.76166666666667,116.22841286577598L77.2995798611111,116.32297157919837L77.51038368055555,116.309919875824L77.5409138888889,116.29817334278705L77.90000729166667,116.2876014630538L77.93199131944444,116.27808677129389L78.02503576388888,116.28561445780085L78.03230486111111,116.32618028474803L78.42774375,116.31280771081867L78.64145520833333,116.30077239428226L78.76066840277777,116.28350424576313L79.01944826388889,116.2679629120959L79.07033194444445,116.26041207543176L79.12703090277778,116.23752541334314L79.26368993055556,116.23301832655426L79.52101597222223,116.22252558480794L79.71146631944445,116.19699120814533L79.82922569444445,116.18044663278535L79.92808541666666,116.19773833314315L80.00368402777778,116.18111904528338L80.23193368055556,116.15972532257322L80.27554826388888,116.14690733577045L80.50089027777778,116.12893478401159L80.53142048611112,116.119195851065L80.90214444444445,116.11043081141302L80.91813645833332,116.10254227572628L80.94139756944445,116.08900622997183L81.03589583333333,116.09291469788374L81.16237812499999,116.08034140991353L81.30630624999999,116.06902545074037L81.38917395833333,116.06527745112088L81.85003472222222,116.04581334237241L81.92417951388889,116.05404109904427L81.98814756944445,116.02926426186713L81.99250902777777,116.02949238113496L82.21348958333333,116.02969768847599L82.51152256944445,116.07010973781021L82.63218958333333,116.06625330948374L82.85607777777778,114.77711888762627L83.38381423611112,114.88647063522728L83.48703541666667,115.02511448079545L83.50448125,115.10966666907956L83.75163055555556,115.17932727489887L83.8679361111111,113.93704909286353L84.29390520833333,114.14006236539535L84.40875694444443,114.358174310674L84.48435555555555,114.52551142506114L84.96702361111112,114.67611482800957L85.22144201388889,114.81165789066316L85.27668715277778,114.9336466470514L85.36391631944446,115.02734561870989L85.55582048611112,115.12132923865708L85.75935520833333,115.20591449660955L85.76371666666667,115.26595031967587L85.89601423611111,115.35860074225374L85.90473715277778,115.42589521348292L85.90619097222222,114.27481478304372L86.12426388888889,114.44405148655753L86.80174375,114.61889179244722L86.80755902777777,114.76015715865705L86.86280416666668,114.88729598824588L87.06343125,115.00172093487583L87.41089409722221,115.09826702320643L87.46177777777777,115.19159486634032L87.72346527777778,115.27558992516086L87.86739340277778,115.32704911446294L87.91246180555555,115.39106238483483L87.95898402777777,115.32638341907862L87.96770694444444,115.39689962262531L88.09855069444444,115.46036420581731L88.63210243055556,115.51748233069013L88.80801458333333,115.56888864307567L88.86471354166667,115.48642705149538L88.96793472222222,115.5538116190731L89.23252986111112,114.87910318443852L89.26160625,114.84470195690376L89.51893229166667,114.97304085212248L89.56400069444445,115.04831858509203L89.69193680555556,113.57938672658284L89.850403125,113.82460259937909L90.03649201388889,114.03886052125935L90.08010659722223,114.21399265095161L90.10918298611112,113.05537520403828L90.66163437499999,113.36264677454352L90.79247812499999,113.50080936981645L90.79974722222222,113.71687388738026L90.81864687500001,113.9081137713695L91.17628645833332,114.08022966695984L91.53537986111111,114.14985215480931L91.72292256944445,114.31388512114655L92.25211284722222,114.44542388175918L92.41784826388889,114.56380876631053L92.43238645833334,114.68644607149764L92.57922222222223,113.59321964616608L92.98774548611111,113.79682495427673L93.1084125,113.98006973157632L93.19273402777777,114.14499003114597L93.27269409722223,114.29341830075865L93.330846875,114.46240374341005L93.37736909722223,114.57265427815997L93.44569861111111,114.69440703216216L93.51112048611111,113.28178451076413L93.52129722222223,113.51653333241498L93.6550486111111,113.72780727190076L93.88911354166667,112.6692992719834L93.95017395833332,112.98138752660323L94.04467222222223,111.41663968303384L94.23512256944444,110.57959389654862L94.31944409722223,109.68465268871194L94.36015104166665,108.45601469256802L94.44301875,108.22397685967485L94.560778125,107.57747008279827L95.17719756944444,108.38265034724571L95.22662743055557,109.14432167615752L95.28623402777778,109.78638041763267L95.29495694444445,108.38022419405122L95.69039583333333,107.27881086555519L95.88084618055557,106.56752068809058L96.33443784722222,105.55887771019063L96.50598854166667,104.61087175735338L97.48295520833334,103.71904821798167L98.14008159722222,103.07409794163806L98.15752743055556,102.53708814747425L98.58204270833333,102.18894296909048L98.62274965277777,101.59723958127233L98.76958541666667,101.11137016859965L98.83791493055556,100.7481058790124L99.02545763888888,102.39874074565661L99.16066284722221,101.94535758018185L99.3205829861111,101.8156854585273L99.99515520833333,101.16154418540185L100.45310833333333,100.87532613049802L100.89216180555556,100.59359351744821L100.90960763888889,100.00695234752158L101.44170555555556,99.69459347640577L101.53911145833334,99.5325432196743L102.84900277777777,99.07453435225231L103.10051354166667,98.9310445533907L103.41017708333334,98.56054009805163L103.51339826388889,98.22708608824647L103.53229791666666,98.16190475214908L103.69657951388889,96.87228700420691L103.74019409722221,96.95706739469531L104.29264548611111,97.07842429158941L105.29868854166666,96.90283640788502L105.47896215277778,96.70940731255105L106.258209375,97.04862112675049L106.34543854166667,95.23474083225726L106.467559375,95.29018493084972L107.04908715277777,95.18722098321928L107.93591701388888,95.04788979398826L108.06239930555556,94.24828263277125L108.45347673611111,94.12721800585777L108.82420069444444,94.13572347799926L109.31123020833334,92.44256931201753L109.34757569444444,92.62275783536123L109.56564861111111,93.80830932455237L109.79389826388889,92.94922384664258L110.314365625,93.36677418925105L110.69090486111112,91.27583313396231L111.00347604166667,89.29904982056607L111.0703517361111,89.67129938396401L111.91211319444444,88.3698785364767L112.07348715277777,86.68690886464721L112.09820208333333,85.55680888727339L112.2406763888889,84.77786436218241L112.49509479166667,86.12840519869145L113.4517079861111,87.32780104245866L113.60435902777779,86.05798457457644L114.3545298611111,84.77837702620971L114.55224930555555,85.75233932358873L114.7528763888889,84.3729599366844L115.17448402777778,86.93058212483415L115.51031631944444,86.30550573053256L115.8854017361111,84.98022788475201L115.96100034722222,83.59277782354954L116.1863423611111,82.17190004119459L116.22704930555555,81.12964640071148L116.89871388888889,84.32698176064034L117.20401597222222,83.86411085730357L117.55438645833333,82.92296340793686L117.70122222222223,82.14351252168862L118.15917534722222,84.38825217861066L118.85410104166667,83.34802696074959L118.90789236111111,82.31688790103826L119.47778958333333,81.38725365638898L119.813621875,80.45886465438645L119.85432881944445,80.49866000712963L120.1436388888889,80.36873946096212L120.95777777777778,79.33462915122954L120.96940833333333,78.48760259974294L121.17148923611111,77.66091506704137L121.22818819444444,76.95229628760997L121.49132951388889,76.42717574975806L121.63961909722222,75.96904908387317L122.04814236111112,75.73051690275857L122.53081041666667,75.35975612157361L123.02801666666667,75.0727350548708L123.41764027777778,74.65833427665645L123.84506319444444,74.30146448535443L123.87850104166667,73.88051803681898L124.23032534722223,73.47592077859164L124.27539374999999,73.11178324618702L124.995034375,72.75509583065922L125.25526805555555,72.53705897486603L125.36721215277778,72.32151671374305L125.39047326388888,72.04385595145966L125.48206388888889,71.89050671995004L125.69286770833334,71.65594695704597L126.04614583333334,71.68942498861408L126.46048437500001,71.45244612611631L126.56952083333334,71.26812878623194L126.91116840277779,71.15373408942692L127.05218888888889,70.95262431684787L127.33568368055556,70.79576188516309L127.68896180555556,70.66102206028314L128.61940625,70.56389258152754L128.84038680555554,70.43142150519299L128.93343125,70.36207935467367L130.14155520833333,70.14519869193359L130.32764409722222,70.02402427728565L130.52536354166668,69.94393094046619L130.5660704861111,69.87506511914684L130.5849701388889,69.75676769814123L130.8539267361111,69.70340001923621L131.09962222222222,69.6199691082217L131.15341354166665,69.57384492467222L131.58229027777776,69.58382406856866L132.02134375,69.44637802534812L132.28739270833333,69.39991295008606L132.54908020833332,69.43050347325926L132.95178819444445,69.37275312593334L133.28616666666665,69.36422326788548L134.04506041666667,69.37585548655146L134.2035267361111,67.80780630153266L134.47975243055555,67.93968021683395L135.30406805555555,68.06802128605963L135.74312152777776,67.92607370290825L135.89141111111113,67.99141178716286L135.99027083333334,68.00355242662839L136.70264236111112,68.2043517294201L136.95560694444444,67.913607465569L137.0093982638889,67.61331944628482L137.97037291666666,67.73728750165634L138.71036701388888,67.86494966058163L139.10580590277777,67.56630923997798L139.3718548611111,67.55659649779837L140.80095937500002,67.48670957529124L140.84602777777778,67.56380225412575L140.9448875,67.62514021053136L141.19203680555557,67.59506255311459L141.71395798611113,67.49719266143948L142.16754965277778,67.59737339529555L142.52955069444445,65.48469060122052L142.56153472222223,65.81830335928029L142.70982430555554,66.03488211426134L143.27245243055555,66.25554844828974L143.6242767361111,64.32853905800623L144.02407708333334,62.40918515220562L144.15928229166664,60.57717572789413L145.066465625,59.003994518741095L145.38339826388886,57.39504052141244L146.03761701388888,55.97272737836208L146.13356909722222,54.69264554961681L146.6438597222222,53.616199176473316L146.93607743055554,52.53958834973507L147.23556423611112,51.65109315112521L147.28935555555557,50.835356563285416L148.29685243055553,50.019129997865946L148.37535868055556,49.34084427080664L149.07464583333334,48.93313257099871L149.20548958333333,48.46321022298977L149.2243892361111,47.964652837054416L149.73177222222222,47.596405735167195L149.76521006944444,47.29716516165047L149.8364472222222,46.93934864548544L149.91204583333334,46.58835014457327L150.13011875,46.386696948297754L150.51538090277776,48.583445435286166L152.11022083333336,50.67637361903029L153.18459340277778,52.57127262076362L153.52187951388888,52.36186354050545L153.63236979166666,52.012486277364005L153.82863541666666,53.18967401326397L154.41597847222224,53.36092479375576L154.99896006944445,52.92290504165291L158.00109722222223,52.37260544657853L159.11036145833333,52.80739035646616L159.13362256944444,53.23409677536499L159.75876493055554,53.93995073419215L159.76021875,55.31701020622749L159.87943194444446,54.12180918560473L159.90269305555555,54.674528267044266L160.28213993055556,53.52587544033986L160.34320034722222,52.5049606235786L160.39989930555555,51.608664561220735L161.3463357638889,50.747289014189576L161.57749305555555,49.98814193095242L161.60511562500002,49.31778228331173L161.85662638888888,48.66940405498056L161.9656628472222,48.1180454676643L162.55591354166665,47.58964092089789L162.92809131944443,47.13982228335357L163.02404340277778,46.74142187320004L163.03422013888888,46.3378069586073L163.4209361111111,45.99708080820113L163.59830208333332,45.722609091017375L164.22780590277776,45.441793636461114L164.53892326388888,45.07803245463319L164.71483541666666,44.83432011826079L164.7802572916667,44.627851742798356L165.1277201388889,44.41950293215487L165.20768020833333,44.10969809348484L165.70343263888887,43.86144646595454L165.94622048611112,43.75226545572275L166.263153125,43.58802981924137L166.5611861111111,43.440217746408166L166.7894357638889,43.33936869904008L167.35497152777776,43.08769546549968L167.68208090277776,42.82900773713155L167.85799305555557,42.741006963418386L168.34211493055554,42.684333539803816L169.06030173611111,42.52230018582344L169.27546701388889,42.40060653087744L169.5923996527778,42.42946405960785L169.64037569444446,42.39750856273798L169.65782152777777,42.30438497919147L169.84245659722222,42.14011920854503L169.9035170138889,42.15318910587234L170.4181690972222,42.164952013466944L170.74527847222222,42.201284084847515L170.75690902777777,42.20823749454456L170.79034687499998,42.2563319269083L171.16397847222223,42.251344188762914L171.24684618055554,42.1342188607957L171.53470243055557,42.10926061107975L171.6510079861111,42.02243454997179L171.93450277777777,42.01509109497459L172.33575694444446,41.99882744002258L172.5640065972222,41.98740833238398L172.69921180555556,41.993222044600145L172.89111597222222,41.982363476503735L173.18914895833333,42.04339076521697L173.276378125,42.04360623414982L173.6790861111111,42.02770924709847L173.8186527777778,42.01340195875227L173.91896631944445,42.01661630833155L174.61098437500002,42.003418313862056L174.64151458333333,42.00119466429405L174.7650892361111,42.00562974331919L175.08783715277778,41.993530405350896L175.10673680555556,41.9536773648158L175.44402291666665,41.92746417378876L175.57341284722222,41.92318139277353L175.62138888888887,41.92576325349617L176.08079583333333,41.911996019055636L176.16220972222223,41.931787326240965L176.5009496527778,41.927072229980496L176.67104652777778,41.92926500698246L177.14353784722223,41.94732941537512L177.24094375,41.953932837473985L177.3427111111111,41.96309409918112L177.36451840277778,41.98743014380844L177.88643958333333,42.00933258397305L178.588634375,42.04513568921212L178.90992847222225,41.88426757483637L179.56269340277777,41.91970445371638L179.74878229166666,41.98860673561745L180.03227708333333,42.00556424387386L180.43789270833332,41.99186236494103L180.49459166666665,42.105039764810556L180.75337152777777,42.086217606511326L181.08775,42.093414027678364L181.14735659722223,42.05161807945598L181.2084170138889,42.05101081696492L181.63002465277776,42.05046428072296L182.57209965277778,42.06606330719612L182.73492743055556,42.070447885567404L183.05767534722222,42.08404855155612L183.32081666666667,41.96595278730959L184.0419111111111,41.909548417669555L184.450434375,41.870048121357144L184.75719027777777,41.8634614910396L184.94618680555556,41.84626988739021L184.95636354166666,41.83079744410571L185.44339305555556,41.82652679060425L185.601859375,41.79532865699835L185.62802812500001,41.82839579129853L185.66001215277777,41.790574393986844L186.10924236111111,41.746880590951804L186.203740625,41.63192889549296L186.23281701388888,41.62340873321642L186.39855243055555,41.63344058716751L186.60354097222222,41.674651073905295L186.77509166666667,41.550831421060195L186.81725243055556,41.40399373349962L186.8346982638889,41.466539814695125L186.86958993055558,41.353876742316544L187.03968680555553,41.26213452263033L187.34644270833334,41.16991197945819L187.36243472222225,41.09656623605781L187.69826701388888,41.172155066997476L188.0457298611111,41.07283956029772L188.25944131944445,41.0092010588134L188.38883125,40.927790043841156L189.04159618055556,40.87865649400251L189.5431638888889,40.9953453900568L189.54461770833333,40.904056305596555L189.56206354166667,41.03429612958237L189.85428125,40.92141197116956L190.21482847222222,40.96141622859807L190.49686944444446,41.05052006028373L190.8821315972222,41.106577145164465L191.45639027777776,41.171510339738916L191.72680069444442,41.294313851219556L191.77332291666667,41.350127920643075L191.87945173611112,41.41966967403329L192.16294652777776,41.45329361572087L192.37084270833333,41.444936981421506L192.51622465277777,41.48568873782477L192.64561458333333,41.54167440949686L192.65579131944443,41.60815242309263L193.45975347222222,41.639018998965184L193.85664618055554,41.66036255361411L194.38292881944446,41.647389934616314L194.49051145833332,41.67755094115469L194.58500972222222,41.67895039249376L195.18834479166668,41.72204626233531L195.5299923611111,41.68681436337451L195.88617812500001,41.706596563400666L195.89053958333335,41.711527816151516L195.95014618055555,41.72883867089999L195.98649166666667,41.74441844017363L196.00539131944444,41.71338568706534L196.64507187499999,41.733728936540615L197.03614930555554,41.75847422470474L197.54207847222222,41.61018134768881L197.9171638888889,41.62475412201084L198.0552767361111,41.621778709809746L198.22682743055557,41.63519174791966L198.2646267361111,41.660136209491355L198.46089236111112,41.64718622490582L198.99589791666665,41.62587669332433L199.01915902777776,41.63887993308282L199.026428125,41.65058284886544L199.17035625,41.673988200342535L199.3767986111111,41.64999847121737L199.58178715277776,41.673462260459246L200.10225451388888,41.639870579867846L200.81171840277779,41.62894715824473L201.0486909722222,41.59337062423842L201.34963159722224,41.41975174363273L201.38016180555556,41.44693111472401L201.63748784722222,41.28473800325162L201.99803506944443,41.31576420292646L202.07072604166666,41.327596873542916L202.0750875,41.354337186188616L202.1303326388889,41.38483983120611L202.4385423611111,41.39941948444914L202.4516267361111,41.418977536004206L202.48506458333335,41.3979616005856L202.80926631944442,41.41122907689066L202.83543506944446,41.397424351019794L203.50855347222222,41.37856373409963L203.61468229166667,41.377680087962375L203.99703680555555,41.399412079166126L204.2136559027778,41.43506178034045L204.38375277777777,41.399564693215495L204.48406631944445,41.43519913298485L205.03651770833332,41.44474285605L205.27203645833333,41.45976857044502L205.52500104166666,41.43467353158232L205.56280034722224,41.4442698147877L206.327509375,41.433597378763466L206.44526875000003,41.41755582270531L206.45108402777777,41.39668205861662L206.65316493055556,41.422950216391314L206.6836951388889,41.41440974020671L206.68514895833331,41.46143240254969L206.8189003472222,41.4426073441129L206.87850694444444,41.45141024606522L207.39606666666666,41.48507831236779L207.48620347222223,41.45745229931282L207.75516006944443,41.471207069381535L208.73212673611113,41.44496818062521L209.47357465277778,41.22826227165359L209.9329815972222,41.26493604448822L210.19612291666667,40.84096062185759L210.26590625,40.938891832399065L210.31388229166666,40.86290264915917L210.3240590277778,40.897494202425065L211.12511354166665,40.94471750945527L211.22978854166666,40.552763940327935L212.56148715277777,40.44780572811331L212.65017013888888,40.38230697348379L213.72745034722223,40.114176276135424L213.79141840277777,39.84389501215824L213.89609340277775,39.578114601851524L213.916446875,39.36143950530274L215.0518798611111,39.143904645681545L215.55053993055554,38.989959635658835L216.02012361111113,38.86428185391114L216.3792170138889,38.68037185033822L217.34746076388888,38.54703466530435L217.78651423611112,38.39484938059212L217.83739791666667,38.29650080616926L218.16596111111113,38.20798708918869L218.9335777777778,38.089706562088L219.46131423611112,38.037963178606475L219.8538454861111,37.959212315291296L221.38035590277778,37.914081992853056L221.46467743055555,37.857373793567746L221.57516770833334,37.84173641421097L221.92553819444444,37.76008095460804L222.88942048611113,37.693027404601764L223.42587986111113,37.62624284595978L224.854984375,37.57900947045471L225.6763923611111,37.60729943250013L225.84648923611113,37.58126948925013L226.02676284722222,37.53209708577967L226.20122118055556,37.48784192265626L226.84962465277778,37.49950318493606L227.2654170138889,37.45207104826065L227.8469447916667,37.43190939798001L228.27872916666666,37.391236640000216L228.65962986111109,37.44152206690927L228.72650555555555,37.39988804203651L228.8297267361111,37.429999237832874L229.98260555555555,37.43618113223138L230.34460659722222,37.63644483719008L231.24161319444443,37.64290035347105L231.8129642361111,37.635837590851196L231.95543854166667,37.60051746812971L232.32470868055555,37.58160208495312L232.77975416666666,37.525960058275984L232.95857395833332,37.47588223426655L233.69711423611113,37.70757582902172L233.98351666666667,37.639336427937735L234.17251319444443,37.577920966962154L234.46182326388887,37.522647052084096L234.58539791666666,37.511518710512064L235.2149017361111,37.672066839460825L235.52601909722222,37.639560155514744L235.67140104166666,37.61030413996329L236.08573958333332,37.551791907785145L236.96384652777778,37.55705817155206" style="fill: none;" fill="none"></path></g></g></g></g><g opacity="0.2"><g><g><g><path stroke="rgb(255, 112, 67)" stroke-width="2px" d="M29.30318472222222,152.46136363636364L29.572141319444444,153.07281818181818L29.69135451388889,152.07518181818182L30.095516319444446,152.574L30.14930763888889,152.13954545454544L30.17693020833333,151.93036363636364L30.28451284722222,152.52572727272727L30.315043055555556,151.28672727272726L30.540385069444447,151.10972727272727L30.620345138888887,151.14190909090908L30.912562847222222,150.48218181818183L31.10882847222222,151.10972727272727L31.13499722222222,150.804L31.139358680555556,150.7879090909091L31.306547916666666,150.94881818181818L31.505721180555554,137.83472727272726L31.655464583333334,140.40927272727274L31.813930902777777,151.44763636363638L31.888075694444442,137.19109090909092L31.920059722222224,137.28763636363635L32.03491145833333,150.88445454545456L32.045088194444446,150.88445454545456L32.16720902777778,150.7879090909091L32.223907986111115,150.72354545454544L32.25443819444444,141.55172727272728L32.26316111111111,151.0131818181818L32.331490625,150.56263636363636L32.42017361111111,137.60945454545455L32.521940972222225,137.38418181818182L32.55974027777778,150.88445454545456L32.59027048611111,150.56263636363636L32.731290972222226,151.14190909090908L32.802528124999995,137.5450909090909L32.881034375000006,150.8200909090909L33.049677430555555,137.64163636363637L33.15871388888889,150.88445454545456L33.267750347222226,143.46654545454544L33.33462604166667,138.38181818181818L33.47128506944444,145.81581818181817L33.511992013888886,150.85227272727272L33.914699999999996,150.88445454545456L33.97430659722222,150.88445454545456L33.983029513888894,140.31272727272727L34.12405,150.56263636363636L34.19674097222222,150.88445454545456L34.21273298611111,137.22327272727273L34.32467708333333,138.0760909090909L34.34212291666667,150.88445454545456L34.481689583333335,151.23845454545454L34.58345694444444,136.86927272727274L34.70121631944445,136.998L34.86549791666667,136.86927272727274L34.906204861111114,151.0131818181818L35.09810902777778,136.8049090909091L35.75232777777778,136.93363636363637L35.756689236111114,136.86927272727274L35.868633333333335,136.70836363636363L36.00238472222222,137.175L36.01401527777778,136.70836363636363L36.076529513888886,136.8049090909091L36.112875,136.74054545454544L36.20737326388889,137.1428181818182L36.329494097222224,137.06236363636364L36.35566284722223,136.74054545454544L36.35857048611111,136.90145454545456L36.52575972222222,136.70836363636363L36.74383263888888,136.86927272727274L36.780178125,137.12672727272727L37.084026388888894,136.93363636363637L37.105833680555556,137.5772727272727L37.179978472222224,137.96345454545454L37.25848472222222,136.32218181818183L37.36315972222222,136.6118181818182L37.405320486111115,136.8049090909091L37.418404861111114,136.96581818181818L37.51435694444445,136.86927272727274L37.581232638888885,136.48309090909092L37.701899652777776,136.57963636363638L37.761506250000004,137.03018181818183L37.828381944444445,136.57963636363638L37.88508090277778,136.57963636363638L37.94904895833333,136.90145454545456L37.96358715277778,136.70836363636363L38.01592465277778,136.70836363636363L38.03773194444444,137.352L38.04790868055555,136.96581818181818L38.104607638888886,136.57963636363638L38.119145833333334,136.57963636363638L38.247081944444446,136.57963636363638L38.319772916666665,136.644L38.40118680555556,136.57963636363638L38.43898611111111,136.57963636363638L38.46660868055556,136.70836363636363L38.641067013888886,136.644L38.738472916666666,136.57963636363638L38.74138055555556,136.70836363636363L38.75010347222222,136.57963636363638L38.80971006944444,136.644L38.819886805555555,136.57963636363638L38.944915277777774,136.70836363636363L38.998706597222224,136.57963636363638L39.043775,136.45090909090908L39.07430520833333,136.57963636363638L39.13245798611111,136.57963636363638L39.15717291666667,136.70836363636363L39.19642604166666,136.57963636363638L39.244402083333334,136.57963636363638L39.298193402777784,136.45090909090908L39.42903715277778,136.57963636363638L39.5148125,136.70836363636363L39.610764583333335,136.57963636363638L39.655832986111115,136.57963636363638L39.69363229166667,136.74054545454544L39.706716666666665,136.57963636363638L39.77068472222222,136.57963636363638L39.86227534722222,136.70836363636363L39.90007465277778,136.57963636363638L39.95968125,136.57963636363638L40.04691041666666,136.57963636363638L40.051271875,136.45090909090908L40.08034826388889,136.57963636363638L40.243176041666665,136.57963636363638L40.279521527777774,136.57963636363638L40.28388298611111,136.57963636363638L40.29405972222222,136.57963636363638L40.35075868055556,136.45090909090908L40.3522125,136.57963636363638L40.38274270833333,136.57963636363638L40.46415659722222,136.57963636363638L40.46561041666667,136.57963636363638L40.483056250000004,136.45090909090908L40.55574722222222,136.57963636363638L40.56010868055555,136.45090909090908L40.564470138888886,136.57963636363638L40.631345833333334,136.57963636363638L40.68804479166667,136.57963636363638L40.75055902777778,136.45090909090908L40.75637430555555,136.57963636363638L40.759281944444446,136.57963636363638L41.04859201388889,136.57963636363638L41.106744791666664,136.70836363636363L41.11110625,136.57963636363638L41.19688159722222,136.57963636363638L41.50072986111111,136.57963636363638L41.52544479166667,136.45090909090908L41.57342083333333,136.57963636363638L41.60249722222222,136.57963636363638L41.646111805555556,136.57963636363638L41.66210381944444,136.57963636363638L41.75950972222223,136.45090909090908L41.82638541666667,136.57963636363638L41.856915625,136.57963636363638L41.93832951388889,136.45090909090908L41.96449826388889,136.70836363636363L42.040096874999996,136.45090909090908L42.05899652777777,136.57963636363638L42.11278784722222,136.57963636363638L42.13314131944445,136.57963636363638L42.23200104166666,136.57963636363638L42.24653923611111,136.57963636363638L42.278523263888886,136.57963636363638L42.361390972222225,136.57963636363638L42.38610590277778,136.57963636363638L42.482057986111116,136.57963636363638L42.51549583333333,136.45090909090908L42.57219479166667,136.57963636363638L42.578010069444446,136.57963636363638L42.682685069444446,136.57963636363638L42.68704652777778,136.45090909090908L42.7597375,136.57963636363638L42.778637152777776,136.45090909090908L42.78881388888889,136.57963636363638L42.82661319444444,136.57963636363638L42.8644125,136.57963636363638L42.87168159722222,136.57963636363638L42.883312152777776,136.45090909090908L42.980718055555556,136.644L43.04032465277778,136.70836363636363L43.062131944444445,136.45090909090908L43.083939236111114,136.57963636363638L43.08975451388889,136.57963636363638L43.19297569444445,136.57963636363638L43.23659027777778,136.57963636363638L43.33545,136.57963636363638L43.345626736111114,136.57963636363638L43.486647222222224,136.57963636363638L43.569514930555556,136.45090909090908L43.69308958333334,136.57963636363638L43.76287291666667,136.57963636363638L43.791949305555555,136.57963636363638L43.82538715277778,136.45090909090908L43.88353993055556,136.57963636363638L43.956230902777776,136.45090909090908L43.96640763888889,136.57963636363638L44.02456041666667,136.51527272727273L44.03473715277777,136.57963636363638L44.16703472222222,136.57963636363638L44.23972569444444,136.57963636363638L44.277525,136.57963636363638L44.292063194444445,136.57963636363638L44.44180659722222,136.57963636363638L44.494144097222225,136.0969090909091L44.664240972222224,136.57963636363638L44.71803229166667,136.57963636363638L45.00152708333333,136.45090909090908L45.01751909722222,136.0969090909091L45.052410763888886,136.0969090909091L45.075671875,136.57963636363638L45.09166388888889,136.0969090909091L45.34026701388889,136.0969090909091L45.56415520833333,136.0969090909091L45.56706284722222,136.0969090909091L45.70226805555556,136.0969090909091L45.731344444444446,136.0969090909091L45.790951041666666,136.0969090909091L46.24163506944445,136.0969090909091L46.327410416666666,136.0969090909091L46.50768402777778,136.0969090909091L46.70394965277778,136.0969090909091L46.722849305555556,136.0969090909091L46.81298611111111,136.0969090909091L46.96418333333333,135.96818181818182L47.06740451388889,136.0969090909091L47.16044895833333,135.85554545454545L47.265123958333334,136.0969090909091L47.34508402777778,135.96818181818182L47.49191979166667,135.96818181818182L47.60241006944444,136.0969090909091L47.60386388888889,136.0969090909091L47.64166319444445,136.0969090909091L47.74197673611111,136.0969090909091L47.74924583333333,136.0969090909091L47.80739861111111,136.0969090909091L47.862643750000004,136.0969090909091L47.89753541666666,136.0969090909091L47.901896875,136.0969090909091L48.15486145833333,135.96818181818182L48.35839618055556,136.0969090909091L48.52703923611111,135.96818181818182L48.59100729166667,135.85554545454545L48.61717604166667,136.01645454545454L48.64334479166667,136.0969090909091L48.647706250000006,135.72681818181817L48.99371527777778,135.85554545454545L49.046052777777774,135.85554545454545L49.099844097222224,135.85554545454545L49.15072777777778,135.85554545454545L49.18707326388889,135.85554545454545L49.24667986111111,135.85554545454545L49.307740277777775,135.85554545454545L49.396423263888884,135.69463636363636L49.764239583333335,135.72681818181817L49.778777777777776,135.72681818181817L49.90962152777777,135.85554545454545L50.03755763888889,135.72681818181817L50.05209583333333,135.85554545454545L50.082626041666664,135.85554545454545L50.13787118055556,135.85554545454545L50.14368645833333,135.85554545454545L50.23818472222222,135.85554545454545L50.373389930555554,135.82336363636364L50.54057916666667,135.85554545454545L50.56820173611111,135.85554545454545L50.64234652777778,135.85554545454545L50.91566458333333,135.72681818181817L50.97963263888889,135.85554545454545L50.99417083333333,135.85554545454545L51.02760868055555,135.85554545454545L51.10320729166667,135.85554545454545L51.21369756944444,135.85554545454545L51.216605208333334,135.85554545454545L51.328549305555555,135.72681818181817L51.35907951388889,135.85554545454545L51.412870833333336,135.85554545454545L51.46666215277778,135.85554545454545L51.64112048611111,135.85554545454545L51.72689583333333,135.85554545454545L51.745795486111106,135.72681818181817L51.80249444444444,135.85554545454545L51.91589236111111,135.85554545454545L52.05545902777778,135.85554545454545L52.096165972222224,135.85554545454545L52.14268819444444,135.85554545454545L52.22119444444445,135.85554545454545L52.25463229166667,135.85554545454545L52.26917048611111,135.85554545454545L52.314238888888895,135.85554545454545L52.349130555555554,135.85554545454545L52.385476041666664,135.85554545454545L52.47561284722222,135.85554545454545L52.58901076388889,135.85554545454545L52.66606319444444,135.85554545454545L52.68350902777778,135.85554545454545L52.72566979166666,135.85554545454545L52.8085375,135.85554545454545L52.937927430555554,135.85554545454545L53.02951805555555,135.69463636363636L53.03242569444445,135.72681818181817L53.04260243055556,135.85554545454545L53.051325347222225,135.72681818181817L53.134193055555556,135.85554545454545L53.18216909722222,135.85554545454545L53.449671875,136.00036363636363L53.936701388888885,135.08318181818183L54.03265347222222,131.60754545454546L54.057368402777776,135.32454545454544L54.30306388888889,135.5980909090909L54.474614583333334,135.48545454545456L54.76973993055556,136.29L54.772647569444445,135.75900000000001L54.788639583333335,120.24736363636363L54.997989583333336,135.91990909090907L55.525726041666665,136.90145454545456L56.02438611111111,135.53372727272728L56.331142013888886,135.5659090909091L56.66406666666666,135.4371818181818L56.76583402777778,135.32454545454544L57.23105625,135.5659090909091L57.60323402777777,137.48072727272728L58.10625555555555,140.50581818181817L58.32432847222223,137.28763636363635L58.404288541666666,143.24127272727273L58.530770833333335,136.33827272727274L58.722674999999995,136.8049090909091L58.80263506944444,136.821L58.865149305555555,136.54745454545454L59.02797708333333,119.61981818181818L59.09485277777778,136.33827272727274L59.57606701388889,151.06145454545455L59.66038854166667,151.28672727272726L59.885730555555554,125.1229090909091L59.89009201388888,136.22563636363637L59.965690625,137.99563636363638L61.229059722222225,137.1428181818182L61.461670833333336,137.706L61.71027395833334,136.17736363636362L61.93997743055556,136.72445454545453L62.01557604166666,135.96818181818182L62.07663645833333,136.0969090909091L62.13333541666667,119.2819090909091L62.28453263888889,121.37372727272728L62.442998958333334,119.82900000000001L62.45462951388889,136.0969090909091L62.53749722222223,118.50954545454545L62.600011458333334,136.29L62.65671041666667,118.38081818181817L62.97945833333333,118.50954545454545L63.00853472222222,118.767L63.479572222222224,118.12336363636365L63.4853875,117.60845454545455L63.57261666666667,117.20618181818182L63.98986284722223,117.3670909090909L64.13088333333333,117.86590909090908L64.309703125,118.09118181818182L64.41728576388888,117.80154545454545L64.56702916666667,116.75563636363637L64.63099722222222,117.83372727272727L64.80254791666667,117.80154545454545L65.06714305555556,117.80154545454545L65.1180267361111,117.60845454545455L65.173271875,117.60845454545455L65.21397881944445,117.73718181818182L65.47566631944444,117.60845454545455L65.49020451388888,117.28663636363636L65.51782708333334,117.44754545454546L66.23892152777779,117.01309090909092L66.64308333333332,117.3670909090909L66.69687465277778,117.04527272727273L66.71286666666667,117.30272727272728L66.76811180555556,117.46363636363637L66.89314027777777,117.23836363636363L66.92221666666666,117.56018181818183L67.03997604166666,117.20618181818182L67.18390416666666,117.04527272727273L67.42233055555556,116.85218181818182L67.54299756944444,117.04527272727273L67.59533506944445,117.47972727272727L67.97042048611111,117.47972727272727L68.11434861111111,117.20618181818182L68.33096770833333,116.98090909090908L68.39493576388888,117.06136363636364L68.61155486111112,117.31881818181819L68.74239861111111,117.10963636363635L68.74676006944445,116.94872727272727L69.28321944444446,117.20618181818182L69.37917152777777,116.85218181818182L69.438778125,116.82L69.45622395833334,117.10963636363635L69.63940520833333,116.94872727272727L69.65248958333333,117.09354545454545L69.79787152777779,117.04527272727273L69.80659444444446,117.31881818181819L69.99704479166667,117.351L70.01012916666667,116.78781818181818L70.14097291666667,116.85218181818182L70.18894895833333,116.59472727272727L70.19185659722223,117.27054545454546L70.31979270833334,116.56254545454546L70.52768888888889,116.69127272727273L70.55967291666667,116.78781818181818L70.56839583333333,117.04527272727273L70.57566493055556,116.75563636363637L70.69778576388889,116.56254545454546L70.73558506944445,116.59472727272727L70.91731250000001,116.72345454545454L70.98128055555556,116.466L71.26186770833333,116.78781818181818L71.33165104166667,116.72345454545454L71.35345833333334,116.53036363636363L71.44359513888888,116.36945454545454L71.50465555555556,116.94872727272727L71.52937048611112,116.59472727272727L71.57153125,116.43381818181818L71.60206145833334,116.43381818181818L71.610784375,116.69127272727273L71.67911388888889,116.59472727272727L71.69946736111112,116.36945454545454L71.93207847222222,116.78781818181818L71.95679340277778,116.78781818181818L72.15596666666667,116.19245454545455L72.53395972222224,116.43381818181818L72.75639409722221,116.43381818181818L72.83926180555555,116.59472727272727L72.91195277777777,116.59472727272727L72.93812152777777,116.19245454545455L73.0108125,116.35336363636364L73.02535069444444,116.19245454545455L73.0471579861111,116.03154545454545L73.22888541666667,116.19245454545455L73.27540763888888,116.38554545454545L73.29139965277778,116.19245454545455L73.31902222222223,116.36945454545454L73.53273368055555,116.35336363636364L73.53854895833334,116.19245454545455L73.56181006944445,116.32118181818183L73.70283055555555,116.19245454545455L73.88310416666667,116.12809090909091L74.2567357638889,116.54645454545454L74.52133090277778,116.19245454545455L74.64199791666667,116.35336363636364L74.64490555555557,116.12809090909091L74.6696204861111,116.12809090909091L74.83099444444444,116.19245454545455L74.85134791666665,116.12809090909091L74.98800694444445,116.12809090909091L75.25114826388888,116.22463636363636L75.58261909722222,116.19245454545455L75.58407291666667,116.28899999999999L75.94607395833333,116.35336363636364L76.16560069444445,116.12809090909091L76.3836736111111,116.32118181818183L76.40838854166667,116.19245454545455L76.60610798611111,116.12809090909091L76.61337708333333,116.19245454545455L76.76166666666667,116.19245454545455L77.2995798611111,117.174L77.51038368055555,116.19245454545455L77.5409138888889,116.19245454545455L77.90000729166667,116.19245454545455L77.93199131944444,116.19245454545455L78.02503576388888,116.35336363636364L78.03230486111111,116.69127272727273L78.42774375,116.19245454545455L78.64145520833333,116.19245454545455L78.76066840277777,116.12809090909091L79.01944826388889,116.12809090909091L79.07033194444445,116.19245454545455L79.12703090277778,116.03154545454545L79.26368993055556,116.19245454545455L79.52101597222223,116.12809090909091L79.71146631944445,115.96718181818181L79.82922569444445,116.03154545454545L79.92808541666666,116.35336363636364L80.00368402777778,116.03154545454545L80.23193368055556,115.96718181818181L80.27554826388888,116.03154545454545L80.50089027777778,115.96718181818181L80.53142048611112,116.03154545454545L80.90214444444445,116.03154545454545L80.91813645833332,116.03154545454545L80.94139756944445,115.96718181818181L81.03589583333333,116.12809090909091L81.16237812499999,115.96718181818181L81.30630624999999,115.96718181818181L81.38917395833333,116.03154545454545L81.85003472222222,115.87063636363636L81.92417951388889,116.12809090909091L81.98814756944445,115.80627272727273L81.99250902777777,116.03154545454545L82.21348958333333,116.03154545454545L82.51152256944445,116.43381818181818L82.63218958333333,116.03154545454545L82.85607777777778,103.1749090909091L83.38381423611112,115.87063636363636L83.48703541666667,116.27290909090908L83.50448125,115.87063636363636L83.75163055555556,115.80627272727273L83.8679361111111,102.75654545454545L84.29390520833333,115.96718181818181L84.40875694444443,116.32118181818183L84.48435555555555,116.03154545454545L84.96702361111112,116.03154545454545L85.22144201388889,116.03154545454545L85.27668715277778,116.03154545454545L85.36391631944446,115.87063636363636L85.55582048611112,115.96718181818181L85.75935520833333,115.96718181818181L85.76371666666667,115.80627272727273L85.89601423611111,116.19245454545455L85.90473715277778,116.03154545454545L85.90619097222222,103.9150909090909L86.12426388888889,115.96718181818181L86.80174375,116.19245454545455L86.80755902777777,116.03154545454545L86.86280416666668,116.03154545454545L87.06343125,116.03154545454545L87.41089409722221,115.96718181818181L87.46177777777777,116.03154545454545L87.72346527777778,116.03154545454545L87.86739340277778,115.79018181818182L87.91246180555555,115.96718181818181L87.95898402777777,114.74427272727273L87.96770694444444,116.03154545454545L88.09855069444444,116.03154545454545L88.63210243055556,116.03154545454545L88.80801458333333,116.03154545454545L88.86471354166667,114.74427272727273L88.96793472222222,116.16027272727273L89.23252986111112,108.80672727272727L89.26160625,114.53509090909091L89.51893229166667,116.12809090909091L89.56400069444445,115.72581818181817L89.69193680555556,100.359L89.850403125,116.03154545454545L90.03649201388889,115.96718181818181L90.08010659722223,115.79018181818182L90.10918298611112,102.62781818181818L90.66163437499999,116.12809090909091L90.79247812499999,114.74427272727273L90.79974722222222,115.66145454545455L90.81864687500001,115.62927272727273L91.17628645833332,115.62927272727273L91.53537986111111,114.77645454545454L91.72292256944445,115.79018181818182L92.25211284722222,115.62927272727273L92.41784826388889,115.62927272727273L92.43238645833334,115.79018181818182L92.57922222222223,103.75418181818182L92.98774548611111,115.62927272727273L93.1084125,115.62927272727273L93.19273402777777,115.62927272727273L93.27269409722223,115.62927272727273L93.330846875,115.98327272727272L93.37736909722223,115.56490909090908L93.44569861111111,115.79018181818182L93.51112048611111,100.56818181818181L93.52129722222223,115.62927272727273L93.6550486111111,115.62927272727273L93.88911354166667,103.14272727272727L93.95017395833332,115.79018181818182L94.04467222222223,97.33390909090909L94.23512256944444,103.04618181818182L94.31944409722223,101.63018181818182L94.36015104166665,97.39827272727273L94.44301875,106.13563636363637L94.560778125,101.7589090909091L95.17719756944444,115.62927272727273L95.22662743055557,115.99936363636364L95.28623402777778,115.56490909090908L95.29495694444445,95.72481818181818L95.69039583333333,97.3660909090909L95.88084618055557,100.1659090909091L96.33443784722222,96.48109090909091L96.50598854166667,96.07881818181818L97.48295520833334,95.69263636363637L98.14008159722222,97.26954545454545L98.15752743055556,97.704L98.58204270833333,99.05563636363637L98.62274965277777,96.27190909090909L98.76958541666667,96.73854545454546L98.83791493055556,97.47872727272727L99.02545763888888,117.25445454545455L99.16066284722221,97.8649090909091L99.3205829861111,100.64863636363637L99.99515520833333,95.27427272727273L100.45310833333333,98.29936363636364L100.89216180555556,98.05799999999999L100.90960763888889,94.72718181818182L101.44170555555556,96.88336363636364L101.53911145833334,98.07409090909091L102.84900277777777,94.95245454545454L103.10051354166667,97.63963636363637L103.41017708333334,95.226L103.51339826388889,95.226L103.53229791666666,97.57527272727272L103.69657951388889,85.26572727272728L103.74019409722221,97.72009090909091L104.29264548611111,98.17063636363636L105.29868854166666,95.32254545454545L105.47896215277778,94.96854545454545L106.258209375,100.10154545454544L106.34543854166667,78.90981818181818L106.467559375,95.78918181818182L107.04908715277777,94.26054545454545L107.93591701388888,93.79390909090908L108.06239930555556,87.05181818181818L108.45347673611111,93.03763636363637L108.82420069444444,94.21227272727273L109.31123020833334,77.20418181818182L109.34757569444444,94.24445454545454L109.56564861111111,104.47827272727272L109.79389826388889,85.21745454545454L110.314365625,97.12472727272727L110.69090486111112,72.45736363636364L111.00347604166667,71.50800000000001L111.0703517361111,93.02154545454545L111.91211319444444,76.65709090909091L112.07348715277777,71.54018181818182L112.09820208333333,75.3859090909091L112.2406763888889,77.76736363636364L112.49509479166667,98.28327272727272L113.4517079861111,98.12236363636363L113.60435902777779,74.62963636363635L114.3545298611111,73.26190909090909L114.55224930555555,94.518L114.7528763888889,71.95854545454546L115.17448402777778,109.94918181818181L115.51031631944444,80.67981818181818L115.8854017361111,73.05272727272727L115.96100034722222,71.10572727272726L116.1863423611111,69.384L116.22704930555555,71.74936363636364L116.89871388888889,113.10300000000001L117.20401597222222,79.69827272727272L117.55438645833333,74.45263636363636L117.70122222222223,75.12845454545455L118.15917534722222,104.5909090909091L118.85410104166667,73.986L118.90789236111111,73.03663636363638L119.47778958333333,73.02054545454546L119.813621875,72.10336363636364L119.85432881944445,80.85681818181817L120.1436388888889,79.19945454545454L120.95777777777778,70.02763636363638L120.96940833333333,70.86436363636363L121.17148923611111,70.22072727272727L121.22818819444444,70.57472727272727L121.49132951388889,71.70109090909091L121.63961909722222,71.84590909090909L122.04814236111112,73.58372727272727L122.53081041666667,72.02290909090908L123.02801666666667,72.48954545454545L123.41764027777778,70.92872727272727L123.84506319444444,71.08963636363637L123.87850104166667,70.092L124.23032534722223,69.83454545454545L124.27539374999999,69.83454545454545L124.995034375,69.54490909090909L125.25526805555555,70.57472727272727L125.36721215277778,70.38163636363637L125.39047326388888,69.54490909090909L125.48206388888889,70.51036363636364L125.69286770833334,69.54490909090909L126.04614583333334,71.99072727272727L126.46048437500001,69.31963636363636L126.56952083333334,69.60927272727272L126.91116840277779,70.12418181818182L127.05218888888889,69.14263636363637L127.33568368055556,69.384L127.68896180555556,69.44836363636364L128.61940625,69.68972727272727L128.84038680555554,69.23918181818182L128.93343125,69.738L130.14155520833333,68.19327272727274L130.32764409722222,68.93345454545455L130.52536354166668,69.2230909090909L130.5660704861111,69.25527272727274L130.5849701388889,68.6920909090909L130.8539267361111,69.2230909090909L131.09962222222222,68.8690909090909L131.15341354166665,69.15872727272726L131.58229027777776,69.67363636363638L132.02134375,68.20936363636363L132.28739270833333,68.98172727272727L132.54908020833332,69.70581818181819L132.95178819444445,68.85300000000001L133.28616666666665,69.28745454545455L134.04506041666667,69.48054545454545L134.2035267361111,53.69536363636364L134.47975243055555,69.12654545454545L135.30406805555555,69.2230909090909L135.74312152777776,66.64854545454546L135.89141111111113,68.57945454545455L135.99027083333334,68.11281818181818L136.70264236111112,70.01154545454546L136.95560694444444,65.2969090909091L137.0093982638889,64.91072727272726L137.97037291666666,68.85300000000001L138.71036701388888,69.01390909090908L139.10580590277777,64.87854545454545L139.3718548611111,67.46918181818182L140.80095937500002,66.85772727272726L140.84602777777778,68.25763636363637L140.9448875,68.17718181818182L141.19203680555557,67.32436363636363L141.71395798611113,66.61636363636363L142.16754965277778,68.499L142.52955069444445,46.47054545454546L142.56153472222223,68.82081818181818L142.70982430555554,67.9840909090909L143.27245243055555,68.24154545454545L143.6242767361111,46.98545454545456L144.02407708333334,45.13499999999999L144.15928229166664,44.08909090909091L145.066465625,44.84536363636363L145.38339826388886,42.91445454545456L146.03761701388888,43.17190909090911L146.13356909722222,43.17190909090911L146.6438597222222,43.92818181818183L146.93607743055554,42.85009090909091L147.23556423611112,43.65463636363637L147.28935555555557,43.493727272727256L148.29685243055553,42.67309090909092L148.37535868055556,43.236272727272734L149.07464583333334,45.263727272727266L149.20548958333333,44.233909090909094L149.2243892361111,43.47763636363638L149.73177222222222,44.28218181818181L149.76521006944444,44.60400000000001L149.8364472222222,43.718999999999994L149.91204583333334,43.42936363636363L150.13011875,44.57181818181817L150.51538090277776,68.35418181818181L152.11022083333336,69.51272727272728L153.18459340277778,69.62536363636363L153.52187951388888,50.47718181818182L153.63236979166666,48.86809090909091L153.82863541666666,63.784363636363636L154.41597847222224,54.90218181818183L154.99896006944445,48.98072727272728L158.00109722222223,47.41990909090907L159.11036145833333,56.720454545454544L159.13362256944444,57.07445454545454L159.75876493055554,60.29263636363636L159.76021875,67.71054545454545L159.87943194444446,43.36500000000001L159.90269305555555,59.649L160.28213993055556,43.18799999999999L160.34320034722222,43.31672727272726L160.39989930555555,43.542L161.3463357638889,42.99490909090909L161.57749305555555,43.15581818181818L161.60511562500002,43.28454545454545L161.85662638888888,42.834L161.9656628472222,43.15581818181818L162.55591354166665,42.834L162.92809131944443,43.09145454545455L163.02404340277778,43.15581818181818L163.03422013888888,42.70527272727273L163.4209361111111,42.93054545454544L163.59830208333332,43.25236363636364L164.22780590277776,42.91445454545456L164.53892326388888,41.8041818181818L164.71483541666666,42.640909090909105L164.7802572916667,42.76963636363638L165.1277201388889,42.54436363636364L165.20768020833333,41.32145454545454L165.70343263888887,41.62718181818181L165.94622048611112,42.76963636363638L166.263153125,42.1099090909091L166.5611861111111,42.1099090909091L166.7894357638889,42.43172727272727L167.35497152777776,40.82263636363638L167.68208090277776,40.500818181818175L167.85799305555557,41.948999999999984L168.34211493055554,42.17427272727272L169.06030173611111,41.06399999999999L169.27546701388889,41.30536363636364L169.5923996527778,42.68918181818182L169.64037569444446,42.1099090909091L169.65782152777777,41.466272727272724L169.84245659722222,40.66172727272729L169.9035170138889,42.270818181818186L170.4181690972222,42.270818181818186L170.74527847222222,42.528272727272736L170.75690902777777,42.270818181818186L170.79034687499998,42.68918181818182L171.16397847222223,42.20645454545456L171.24684618055554,41.08009090909093L171.53470243055557,41.88463636363636L171.6510079861111,41.240999999999985L171.93450277777777,41.948999999999984L172.33575694444446,41.85245454545455L172.5640065972222,41.88463636363636L172.69921180555556,42.04554545454545L172.89111597222222,41.88463636363636L173.18914895833333,42.59263636363636L173.276378125,42.04554545454545L173.6790861111111,41.88463636363636L173.8186527777778,41.88463636363636L173.91896631944445,42.04554545454545L174.61098437500002,41.88463636363636L174.64151458333333,41.981181818181824L174.7650892361111,42.04554545454545L175.08783715277778,41.88463636363636L175.10673680555556,41.595L175.44402291666665,41.691545454545434L175.57341284722222,41.88463636363636L175.62138888888887,41.948999999999984L176.08079583333333,41.788090909090926L176.16220972222223,42.1099090909091L176.5009496527778,41.88463636363636L176.67104652777778,41.948999999999984L177.14353784722223,42.1099090909091L177.24094375,42.013363636363636L177.3427111111111,42.04554545454545L177.36451840277778,42.20645454545456L177.88643958333333,42.20645454545456L178.588634375,42.36736363636362L178.90992847222225,40.43645454545455L179.56269340277777,42.238636363636374L179.74878229166666,42.608727272727265L180.03227708333333,42.158181818181816L180.43789270833332,41.868545454545455L180.49459166666665,43.123636363636365L180.75337152777777,41.91681818181817L181.08775,42.158181818181816L181.14735659722223,41.675454545454556L181.2084170138889,42.04554545454545L181.63002465277776,42.04554545454545L182.57209965277778,42.20645454545456L182.73492743055556,42.1099090909091L183.05767534722222,42.20645454545456L183.32081666666667,40.903090909090906L184.0419111111111,41.4019090909091L184.450434375,41.51454545454544L184.75719027777777,41.8041818181818L184.94618680555556,41.691545454545434L184.95636354166666,41.691545454545434L185.44339305555556,41.788090909090926L185.601859375,41.51454545454544L185.62802812500001,42.126000000000005L185.66001215277777,41.45018181818182L186.10924236111111,41.353636363636355L186.203740625,40.59736363636364L186.23281701388888,41.54672727272725L186.39855243055555,41.723727272727274L186.60354097222222,42.04554545454545L186.77509166666667,40.43645454545455L186.81725243055556,40.08245454545454L186.8346982638889,42.02945454545454L186.86958993055558,40.33990909090909L187.03968680555553,40.43645454545455L187.34644270833334,40.33990909090909L187.36243472222225,40.43645454545455L187.69826701388888,41.85245454545455L188.0457298611111,40.179L188.25944131944445,40.43645454545455L188.38883125,40.19509090909091L189.04159618055556,40.43645454545455L189.5431638888889,42.04554545454545L189.54461770833333,40.08245454545454L189.56206354166667,42.20645454545456L189.85428125,39.905454545454546L190.21482847222222,41.32145454545454L190.49686944444446,41.85245454545455L190.8821315972222,41.611090909090905L191.45639027777776,41.755909090909086L191.72680069444442,42.39954545454546L191.77332291666667,41.85245454545455L191.87945173611112,42.04554545454545L192.16294652777776,41.755909090909086L192.37084270833333,41.36972727272726L192.51622465277777,41.85245454545455L192.64561458333333,42.04554545454545L192.65579131944443,42.20645454545456L193.45975347222222,41.91681818181817L193.85664618055554,41.85245454545455L194.38292881944446,41.530636363636376L194.49051145833332,41.948999999999984L194.58500972222222,41.691545454545434L195.18834479166668,42.1099090909091L195.5299923611111,41.36972727272726L195.88617812500001,41.88463636363636L195.89053958333335,41.755909090909086L195.95014618055555,41.88463636363636L195.98649166666667,41.88463636363636L196.00539131944444,41.43409090909091L196.64507187499999,41.91681818181817L197.03614930555554,41.981181818181824L197.54207847222222,40.27554545454544L197.9171638888889,41.755909090909086L198.0552767361111,41.595L198.22682743055557,41.755909090909086L198.2646267361111,41.88463636363636L198.46089236111112,41.530636363636376L198.99589791666665,41.43409090909091L199.01915902777776,41.755909090909086L199.026428125,41.755909090909086L199.17035625,41.88463636363636L199.3767986111111,41.43409090909091L199.58178715277776,41.88463636363636L200.10225451388888,41.33754545454545L200.81171840277779,41.530636363636376L201.0486909722222,41.273181818181826L201.34963159722224,39.8571818181818L201.38016180555556,41.691545454545434L201.63748784722222,39.82499999999999L201.99803506944443,41.595L202.07072604166666,41.43409090909091L202.0750875,41.595L202.1303326388889,41.65936363636362L202.4385423611111,41.530636363636376L202.4516267361111,41.595L202.48506458333335,41.208818181818174L202.80926631944442,41.530636363636376L202.83543506944446,41.273181818181826L203.50855347222222,41.208818181818174L203.61468229166667,41.36972727272726L203.99703680555555,41.595L204.2136559027778,41.755909090909086L204.38375277777777,41.08009090909093L204.48406631944445,41.755909090909086L205.03651770833332,41.530636363636376L205.27203645833333,41.595L205.52500104166666,41.208818181818174L205.56280034722224,41.530636363636376L206.327509375,41.33754545454545L206.44526875000003,41.273181818181826L206.45108402777777,41.208818181818174L206.65316493055556,41.65936363636362L206.6836951388889,41.33754545454545L206.68514895833331,41.88463636363636L206.8189003472222,41.273181818181826L206.87850694444444,41.530636363636376L207.39606666666666,41.788090909090926L207.48620347222223,41.208818181818174L207.75516006944443,41.595L208.73212673611113,41.208818181818174L209.47357465277778,39.277909090909105L209.9329815972222,41.595L210.19612291666667,37.02518181818181L210.26590625,41.82027272727274L210.31388229166666,40.179L210.3240590277778,41.208818181818174L211.12511354166665,41.36972727272726L211.22978854166666,37.02518181818181L212.56148715277777,39.503181818181815L212.65017013888888,39.79281818181818L213.72745034722223,37.70099999999999L213.79141840277777,37.41136363636363L213.89609340277775,37.18609090909092L213.916446875,37.41136363636363L215.0518798611111,37.18609090909092L215.55053993055554,37.60445454545456L216.02012361111113,37.733181818181805L216.3792170138889,37.02518181818181L217.34746076388888,37.34699999999998L217.78651423611112,37.02518181818181L217.83739791666667,37.41136363636363L218.16596111111113,37.41136363636363L218.9335777777778,37.02518181818181L219.46131423611112,37.57227272727272L219.8538454861111,37.250454545454545L221.38035590277778,37.507909090909095L221.46467743055555,37.34699999999998L221.57516770833334,37.70099999999999L221.92553819444444,37.02518181818181L222.88942048611113,37.08954545454546L223.42587986111113,37.02518181818181L224.854984375,37.15390909090908L225.6763923611111,37.86190909090911L225.84648923611113,37.34699999999998L226.02676284722222,37.08954545454546L226.20122118055556,37.08954545454546L226.84962465277778,37.60445454545456L227.2654170138889,37.02518181818181L227.8469447916667,37.250454545454545L228.27872916666666,37.02518181818181L228.65962986111109,37.89409090909092L228.72650555555555,37.02518181818181L228.8297267361111,37.70099999999999L229.98260555555555,37.49181818181819L230.34460659722222,39.43881818181819L231.24161319444443,37.70099999999999L231.8129642361111,37.57227272727272L231.95543854166667,37.28263636363636L232.32470868055555,37.41136363636363L232.77975416666666,37.02518181818181L232.95857395833332,37.02518181818181L233.69711423611113,39.79281818181818L233.98351666666667,37.02518181818181L234.17251319444443,37.02518181818181L234.46182326388887,37.02518181818181L234.58539791666666,37.41136363636363L235.2149017361111,39.11699999999999L235.52601909722222,37.34699999999998L235.67140104166666,37.34699999999998L236.08573958333332,37.02518181818181L236.96384652777778,37.60445454545456" style="fill: none;" fill="none"></path></g></g></g></g></g></g><g transform="translate(68, 177)" clip-path="url(#clip_1)"><clipPath id="clip_1"><rect width="261" height="23"></rect></clipPath><g><g><line x1="0" y1="0" x2="0" y2="5" style="visibility: inherit;" fill="rgb(0, 0, 0)" stroke="rgb(204, 204, 204)" stroke-width="1px"></line><line x1="29.076388888888886" y1="0" x2="29.076388888888886" y2="5" style="visibility: inherit;" fill="rgb(0, 0, 0)" stroke="rgb(204, 204, 204)" stroke-width="1px"></line><line x1="58.15277777777777" y1="0" x2="58.15277777777777" y2="5" style="visibility: inherit;" fill="rgb(0, 0, 0)" stroke="rgb(204, 204, 204)" stroke-width="1px"></line><line x1="87.22916666666666" y1="0" x2="87.22916666666666" y2="5" style="visibility: inherit;" fill="rgb(0, 0, 0)" stroke="rgb(204, 204, 204)" stroke-width="1px"></line><line x1="116.30555555555554" y1="0" x2="116.30555555555554" y2="5" style="visibility: inherit;" fill="rgb(0, 0, 0)" stroke="rgb(204, 204, 204)" stroke-width="1px"></line><line x1="145.38194444444446" y1="0" x2="145.38194444444446" y2="5" style="visibility: inherit;" fill="rgb(0, 0, 0)" stroke="rgb(204, 204, 204)" stroke-width="1px"></line><line x1="174.45833333333331" y1="0" x2="174.45833333333331" y2="5" style="visibility: inherit;" fill="rgb(0, 0, 0)" stroke="rgb(204, 204, 204)" stroke-width="1px"></line><line x1="203.53472222222223" y1="0" x2="203.53472222222223" y2="5" style="visibility: inherit;" fill="rgb(0, 0, 0)" stroke="rgb(204, 204, 204)" stroke-width="1px"></line><line x1="232.6111111111111" y1="0" x2="232.6111111111111" y2="5" style="visibility: inherit;" fill="rgb(0, 0, 0)" stroke="rgb(204, 204, 204)" stroke-width="1px"></line><line x1="261.6875" y1="0" x2="261.6875" y2="5" style="visibility: inherit;" fill="rgb(0, 0, 0)" stroke="rgb(204, 204, 204)" stroke-width="1px"></line></g><g transform="translate(0, 8)"><text x="0" y="0" dx="0em" dy="0.95em" style="text-anchor: middle; visibility: hidden; font-family: &quot;Helvetica Neue&quot;, sans-serif; font-size: 12px; font-weight: 200;" fill="rgb(50, 49, 63)" stroke="none" stroke-width="1px">-20k</text><text x="29.076388888888886" y="0" dx="0em" dy="0.95em" style="text-anchor: middle; visibility: inherit; font-family: &quot;Helvetica Neue&quot;, sans-serif; font-size: 12px; font-weight: 200;" fill="rgb(50, 49, 63)" stroke="none" stroke-width="1px">0</text><text x="58.15277777777777" y="0" dx="0em" dy="0.95em" style="text-anchor: middle; visibility: hidden; font-family: &quot;Helvetica Neue&quot;, sans-serif; font-size: 12px; font-weight: 200;" fill="rgb(50, 49, 63)" stroke="none" stroke-width="1px">20k</text><text x="87.22916666666666" y="0" dx="0em" dy="0.95em" style="text-anchor: middle; visibility: inherit; font-family: &quot;Helvetica Neue&quot;, sans-serif; font-size: 12px; font-weight: 200;" fill="rgb(50, 49, 63)" stroke="none" stroke-width="1px">40k</text><text x="116.30555555555554" y="0" dx="0em" dy="0.95em" style="text-anchor: middle; visibility: hidden; font-family: &quot;Helvetica Neue&quot;, sans-serif; font-size: 12px; font-weight: 200;" fill="rgb(50, 49, 63)" stroke="none" stroke-width="1px">60k</text><text x="145.38194444444446" y="0" dx="0em" dy="0.95em" style="text-anchor: middle; visibility: inherit; font-family: &quot;Helvetica Neue&quot;, sans-serif; font-size: 12px; font-weight: 200;" fill="rgb(50, 49, 63)" stroke="none" stroke-width="1px">80k</text><text x="174.45833333333331" y="0" dx="0em" dy="0.95em" style="text-anchor: middle; visibility: hidden; font-family: &quot;Helvetica Neue&quot;, sans-serif; font-size: 12px; font-weight: 200;" fill="rgb(50, 49, 63)" stroke="none" stroke-width="1px">100k</text><text x="203.53472222222223" y="0" dx="0em" dy="0.95em" style="text-anchor: middle; visibility: inherit; font-family: &quot;Helvetica Neue&quot;, sans-serif; font-size: 12px; font-weight: 200;" fill="rgb(50, 49, 63)" stroke="none" stroke-width="1px">120k</text><text x="232.6111111111111" y="0" dx="0em" dy="0.95em" style="text-anchor: middle; visibility: hidden; font-family: &quot;Helvetica Neue&quot;, sans-serif; font-size: 12px; font-weight: 200;" fill="rgb(50, 49, 63)" stroke="none" stroke-width="1px">140k</text><text x="261.6875" y="0" dx="0em" dy="0.95em" style="text-anchor: middle; visibility: hidden; font-family: &quot;Helvetica Neue&quot;, sans-serif; font-size: 12px; font-weight: 200;" fill="rgb(50, 49, 63)" stroke="none" stroke-width="1px">160k</text></g><line x1="0" y1="0" x2="261.6875" y2="0" fill="rgb(0, 0, 0)" stroke="rgb(204, 204, 204)" stroke-width="1px"></line></g></g></g></g></svg>