<svg viewBox="0 0 330 200" xmlns="http://www.w3.org/2000/svg"><g><g><g><g><g><line x1="58.59375" y1="177" x2="53.59375" y2="177" style="visibility: inherit;" fill="rgb(0, 0, 0)" stroke="rgb(204, 204, 204)" stroke-width="1px"></line><line x1="58.59375" y1="157.33333333333334" x2="53.59375" y2="157.33333333333334" style="visibility: inherit;" fill="rgb(0, 0, 0)" stroke="rgb(204, 204, 204)" stroke-width="1px"></line><line x1="58.59375" y1="137.66666666666669" x2="53.59375" y2="137.66666666666669" style="visibility: inherit;" fill="rgb(0, 0, 0)" stroke="rgb(204, 204, 204)" stroke-width="1px"></line><line x1="58.59375" y1="118" x2="53.59375" y2="118" style="visibility: inherit;" fill="rgb(0, 0, 0)" stroke="rgb(204, 204, 204)" stroke-width="1px"></line><line x1="58.59375" y1="98.33333333333334" x2="53.59375" y2="98.33333333333334" style="visibility: inherit;" fill="rgb(0, 0, 0)" stroke="rgb(204, 204, 204)" stroke-width="1px"></line><line x1="58.59375" y1="78.66666666666666" x2="53.59375" y2="78.66666666666666" style="visibility: inherit;" fill="rgb(0, 0, 0)" stroke="rgb(204, 204, 204)" stroke-width="1px"></line><line x1="58.59375" y1="59" x2="53.59375" y2="59" style="visibility: inherit;" fill="rgb(0, 0, 0)" stroke="rgb(204, 204, 204)" stroke-width="1px"></line><line x1="58.59375" y1="39.33333333333334" x2="53.59375" y2="39.33333333333334" style="visibility: inherit;" fill="rgb(0, 0, 0)" stroke="rgb(204, 204, 204)" stroke-width="1px"></line><line x1="58.59375" y1="19.666666666666686" x2="53.59375" y2="19.666666666666686" style="visibility: inherit;" fill="rgb(0, 0, 0)" stroke="rgb(204, 204, 204)" stroke-width="1px"></line><line x1="58.59375" y1="0" x2="53.59375" y2="0" style="visibility: inherit;" fill="rgb(0, 0, 0)" stroke="rgb(204, 204, 204)" stroke-width="1px"></line></g><g transform="translate(48.59375, 0)"><text x="0" y="177" dx="0em" dy="0.3em" style="text-anchor: end; visibility: hidden; font-family: &quot;Helvetica Neue&quot;, sans-serif; font-size: 12px; font-weight: 200;" fill="rgb(50, 49, 63)" stroke="none" stroke-width="1px">-1e+5</text><text x="0" y="157.33333333333334" dx="0em" dy="0.3em" style="text-anchor: end; visibility: inherit; font-family: &quot;Helvetica Neue&quot;, sans-serif; font-size: 12px; font-weight: 200;" fill="rgb(50, 49, 63)" stroke="none" stroke-width="1px">0</text><text x="0" y="137.66666666666669" dx="0em" dy="0.3em" style="text-anchor: end; visibility: hidden; font-family: &quot;Helvetica Neue&quot;, sans-serif; font-size: 12px; font-weight: 200;" fill="rgb(50, 49, 63)" stroke="none" stroke-width="1px">1e+5</text><text x="0" y="118" dx="0em" dy="0.3em" style="text-anchor: end; visibility: inherit; font-family: &quot;Helvetica Neue&quot;, sans-serif; font-size: 12px; font-weight: 200;" fill="rgb(50, 49, 63)" stroke="none" stroke-width="1px">2e+5</text><text x="0" y="98.33333333333334" dx="0em" dy="0.3em" style="text-anchor: end; visibility: hidden; font-family: &quot;Helvetica Neue&quot;, sans-serif; font-size: 12px; font-weight: 200;" fill="rgb(50, 49, 63)" stroke="none" stroke-width="1px">3e+5</text><text x="0" y="78.66666666666666" dx="0em" dy="0.3em" style="text-anchor: end; visibility: inherit; font-family: &quot;Helvetica Neue&quot;, sans-serif; font-size: 12px; font-weight: 200;" fill="rgb(50, 49, 63)" stroke="none" stroke-width="1px">4e+5</text><text x="0" y="59" dx="0em" dy="0.3em" style="text-anchor: end; visibility: hidden; font-family: &quot;Helvetica Neue&quot;, sans-serif; font-size: 12px; font-weight: 200;" fill="rgb(50, 49, 63)" stroke="none" stroke-width="1px">5e+5</text><text x="0" y="39.33333333333334" dx="0em" dy="0.3em" style="text-anchor: end; visibility: inherit; font-family: &quot;Helvetica Neue&quot;, sans-serif; font-size: 12px; font-weight: 200;" fill="rgb(50, 49, 63)" stroke="none" stroke-width="1px">6e+5</text><text x="0" y="19.666666666666686" dx="0em" dy="0.3em" style="text-anchor: end; visibility: hidden; font-family: &quot;Helvetica Neue&quot;, sans-serif; font-size: 12px; font-weight: 200;" fill="rgb(50, 49, 63)" stroke="none" stroke-width="1px">7e+5</text><text x="0" y="0" dx="0em" dy="0.3em" style="text-anchor: end; visibility: hidden; font-family: &quot;Helvetica Neue&quot;, sans-serif; font-size: 12px; font-weight: 200;" fill="rgb(50, 49, 63)" stroke="none" stroke-width="1px">8e+5</text></g><line x1="58.59375" y1="0" x2="58.59375" y2="177" fill="rgb(0, 0, 0)" stroke="rgb(204, 204, 204)" stroke-width="1px"></line></g></g><g transform="translate(58, 0)" clip-path="url(#clip_0)"><clipPath id="clip_0"><rect width="271" height="177"></rect></clipPath><g><g><g><line x1="0" y1="0" x2="0" y2="177" fill="rgb(0, 0, 0)" stroke="rgb(60, 60, 60)" stroke-width="1px" opacity="0.25"></line><line x1="30.15625" y1="0" x2="30.15625" y2="177" fill="rgb(0, 0, 0)" stroke="rgb(60, 60, 60)" stroke-width="1px" opacity="0.25"></line><line x1="60.3125" y1="0" x2="60.3125" y2="177" fill="rgb(0, 0, 0)" stroke="rgb(60, 60, 60)" stroke-width="1px" opacity="0.25"></line><line x1="90.46875" y1="0" x2="90.46875" y2="177" fill="rgb(0, 0, 0)" stroke="rgb(60, 60, 60)" stroke-width="1px" opacity="0.25"></line><line x1="120.625" y1="0" x2="120.625" y2="177" fill="rgb(0, 0, 0)" stroke="rgb(60, 60, 60)" stroke-width="1px" opacity="0.25"></line><line x1="150.78125" y1="0" x2="150.78125" y2="177" fill="rgb(0, 0, 0)" stroke="rgb(60, 60, 60)" stroke-width="1px" opacity="0.25"></line><line x1="180.9375" y1="0" x2="180.9375" y2="177" fill="rgb(0, 0, 0)" stroke="rgb(60, 60, 60)" stroke-width="1px" opacity="0.25"></line><line x1="211.09375" y1="0" x2="211.09375" y2="177" fill="rgb(0, 0, 0)" stroke="rgb(60, 60, 60)" stroke-width="1px" opacity="0.25"></line><line x1="241.25" y1="0" x2="241.25" y2="177" fill="rgb(0, 0, 0)" stroke="rgb(60, 60, 60)" stroke-width="1px" opacity="0.25"></line><line x1="271.40625" y1="0" x2="271.40625" y2="177" fill="rgb(0, 0, 0)" stroke="rgb(60, 60, 60)" stroke-width="1px" opacity="0.25"></line></g><g><line x1="0" y1="177" x2="271.40625" y2="177" fill="rgb(0, 0, 0)" stroke="rgb(60, 60, 60)" stroke-width="1px" opacity="0.25"></line><line x1="0" y1="157.33333333333334" x2="271.40625" y2="157.33333333333334" fill="rgb(0, 0, 0)" stroke="rgb(60, 60, 60)" stroke-width="1px" opacity="0.25"></line><line x1="0" y1="137.66666666666669" x2="271.40625" y2="137.66666666666669" fill="rgb(0, 0, 0)" stroke="rgb(60, 60, 60)" stroke-width="1px" opacity="0.25"></line><line x1="0" y1="118" x2="271.40625" y2="118" fill="rgb(0, 0, 0)" stroke="rgb(60, 60, 60)" stroke-width="1px" opacity="0.25"></line><line x1="0" y1="98.33333333333334" x2="271.40625" y2="98.33333333333334" fill="rgb(0, 0, 0)" stroke="rgb(60, 60, 60)" stroke-width="1px" opacity="0.25"></line><line x1="0" y1="78.66666666666666" x2="271.40625" y2="78.66666666666666" fill="rgb(0, 0, 0)" stroke="rgb(60, 60, 60)" stroke-width="1px" opacity="0.25"></line><line x1="0" y1="59" x2="271.40625" y2="59" fill="rgb(0, 0, 0)" stroke="rgb(60, 60, 60)" stroke-width="1px" opacity="0.25"></line><line x1="0" y1="39.33333333333334" x2="271.40625" y2="39.33333333333334" fill="rgb(0, 0, 0)" stroke="rgb(60, 60, 60)" stroke-width="1px" opacity="0.25"></line><line x1="0" y1="19.666666666666686" x2="271.40625" y2="19.666666666666686" fill="rgb(0, 0, 0)" stroke="rgb(60, 60, 60)" stroke-width="1px" opacity="0.25"></line><line x1="0" y1="0" x2="271.40625" y2="0" fill="rgb(0, 0, 0)" stroke="rgb(60, 60, 60)" stroke-width="1px" opacity="0.25"></line></g></g></g><g><g><line x1="0" y1="157.33333333333334" x2="271.40625" y2="157.33333333333334" fill="rgb(0, 0, 0)" stroke="rgb(153, 153, 153)" stroke-width="1.5px"></line></g></g><g><g><line x1="30.15625" y1="0" x2="30.15625" y2="177" fill="rgb(0, 0, 0)" stroke="rgb(153, 153, 153)" stroke-width="1.5px"></line></g></g><g><g><g><g><g><path stroke="rgb(255, 112, 67)" stroke-width="2px" d="M30.7186640625,157.30383333333333L30.739773437500002,157.30383333333333L30.8061171875,157.30383333333333L30.8151640625,157.30383333333333L30.8483359375,157.30383333333333L30.8694453125,157.30383333333333L30.876984375,157.29978672074589L30.9026171875,157.30143301724019L30.907140625,157.30240291804287L30.925234375,157.30297856487533L30.928250000000002,157.30726937251566L30.9297578125,157.30589195851226L30.931265624999998,157.30900590880924L30.9388046875,157.30693525596908L30.961421875,157.3017587196518L30.9749921875,157.298654356016L30.984039062500003,157.30466029688142L30.9900703125,157.3043294778642L31.383609375000002,157.3041310079579L31.3971796875,157.30401193375454L31.443921875,157.3078739116394L31.48915625,157.30625765904358L31.4997109375,157.30135455670487L31.5208203125,157.3062794240255L31.5992265625,157.3053009849669L31.6158125,157.30471392331205L31.6474765625,157.30436168696005L31.659539062500002,157.30415034537958L31.68215625,157.30009020573175L31.697234375,157.30158745710338L31.745484375,157.30248580771453L31.7650859375,157.30695815165132L31.8193671875,157.30570822426444L31.848015625,157.30889160131653L31.866109374999997,157.3108016274894L31.870632812500002,157.31194764317215L31.87515625,157.30870191921653L31.876664062499998,157.30282115150808L32.01990625,157.29929269089698L32.1480703125,157.30110894787396L32.2566328125,157.30219870205858L32.2807578125,157.3028525545688L32.2867890625,157.29931153274026L32.3154375,157.3011202529778L32.338054687500005,157.3022054851201L32.3832890625,157.30285662440545L32.445109375,157.30324730797662L32.4843125,157.29954838478588L32.496375,157.3012623642049L32.5205,157.2983574185229L32.592875,157.29661445111373L32.6999296875,157.2995020040016L32.70746875,157.3012345357343L32.7240546875,157.3022740547739L32.7391328125,157.30289776619767L32.7572265625,157.3072053263853L32.770796875,157.3058565291645L32.8024609375,157.30504725083202L32.8175390625,157.30849501716588L32.8265859375,157.3105636769662L32.8778515625,157.30787153951306L32.951734375,157.30625625704116L33.0437109375,157.30528708755804L33.066328125,157.3007722525348L33.084421875,157.30593001818755L33.235203125,157.30115801091253L33.35884375,157.30222813988087L33.440265624999995,157.29893688392852L33.44328125,157.30089546369044L33.4734375,157.29813727821426L33.681515625,157.29648236692856L33.7146875,157.3033560868238L33.7734921875,157.3035469854276L33.779523437499996,157.29972819125658L33.784046875,157.29743691475394L33.895624999999995,157.2999954821857L34.0026796875,157.30153062264475L34.034343750000005,157.30245170692018L34.1474296875,157.30300435748543L34.180601562499994,157.3033359478246L34.252976562499995,157.3035349020281L34.3434453125,157.30365427455018L34.3555078125,157.29979256473013L34.4037578125,157.29747553883806L34.474625,157.29608532330283L34.4912109375,157.30311786064837L34.5213671875,157.31127071638903L34.5485078125,157.30829576316674L34.58921875,157.3065107912334L34.605804687500004,157.30543980807337L34.646515625,157.30479721817736L34.675164062499995,157.3004783309064L34.676671875,157.30575366521052L34.747539062499996,157.30891886579298L34.7807109375,157.30688465280912L34.8078515625,157.30959745835213L34.8229296875,157.3033584750113L34.851578125,157.29961508500676L34.89078125,157.3013023843374L35.0295,157.30231476393578L35.0370390625,157.3029221916948L35.0656875,157.30721998168355L35.0792578125,157.30193198901011L35.1063984375,157.3026925267394L35.2059140625,157.29921551604366L35.2179765625,157.30106264295952L35.261703125,157.30217091910905L35.3793125,157.29890255146543L35.397406249999996,157.29694153087925L35.4079609375,157.29576491852754L35.466765625,157.29505895111652L35.513507812499995,157.29856870400326L35.515015625000004,157.30067455573527L35.5496953125,157.3019380667745L35.62810156250001,157.2987628400647L35.662781249999995,157.30079103737216L35.7336484375,157.2980746224233L35.741187499999995,157.30037810678732L35.7849140625,157.2978268640724L35.8090390625,157.2923627851101L36.0171171875,157.2969510043994L36.1437734375,157.29577060263964L36.329234375,157.29899569491712L36.3397890625,157.29699741695026L36.341296875,157.2997317835035L36.3759765625,157.29350573676876L36.418195312499996,157.29370344206126L36.4362890625,157.28988873190343L36.473984375,157.2954665724754L36.6172265625,157.29487994348523L36.620242187500004,157.2905946327578L36.692617187500005,157.28802344632135L36.7167421875,157.28648073445947L36.76046875,157.28555510734236L36.805703124999994,157.28499973107208L36.823796875,157.28073317197658L36.825304687499994,157.2821065698526L36.8735546875,157.28293060857823L36.96553125,157.2834250318136L37.00775,157.28765501908816L37.018304687500006,157.28625967811956L37.052984374999994,157.29328914020508L37.1178203125,157.28964015078972L37.1328984375,157.2874507571405L37.1992421875,157.28613712095097L37.2082890625,157.28534893923725L37.258046875,157.27700936354233L37.322882812500005,157.27593895145873L37.3455,157.27529670420859L37.42390625,157.27884468919183L37.457078125,157.27704014684844L37.5188984375,157.28382408810904L37.5942890625,157.2839611195321L37.638015625,157.2840433383859L37.68174218750001,157.28409266969823L37.800859375,157.2841222684856L37.8566484375,157.2802066944247L37.8641875,157.28179068332147L37.9124375,157.27880774332624L37.933546875000005,157.27701797932906L37.9682265625,157.2798774542641L38.03909375,157.28159313922512L38.05115625,157.28262255020175L38.0978984375,157.2793068634544L38.1069453125,157.28518411807264L38.12353125,157.28084380417693L38.1371015625,157.27823961583948L38.1793203125,157.28061043617035L38.292406250000006,157.2820329283689L38.316531250000004,157.28681975702133L38.3481953125,157.28182518754613L38.476359375,157.27882844586102L38.527625,157.28096373418327L38.603015625,157.28224490717662L38.65126562499999,157.28301361097266L38.6844375,157.28347483325024L38.8095859375,157.28375156661681L38.823156250000004,157.27998427330343L38.8276796875,157.28165723064873L38.835218749999996,157.27872767172258L38.8487890625,157.28090326970022L38.850296875,157.27827529515346L38.8759296875,157.28063184375873L38.91965625,157.28204577292192L38.922671875,157.27896079708648L38.9573515625,157.27710981158523L39.04028125,157.27599922028446L39.049328124999995,157.27533286550403L39.106624999999994,157.27886638596908L39.1895546875,157.27311983158145L39.343351562500004,157.27753856561554L39.3704921875,157.280189806036L39.393109374999995,157.27784721695494L39.406679687499995,157.2764416635063L39.43080468749999,157.27953166477045L39.454929687500005,157.28138566552894L39.5363515625,157.28249806598402L39.5725390625,157.27923217292374L39.5755546875,157.27727263708758L39.637375,157.28003024891922L39.7233203125,157.28168481601818L39.7414140625,157.27874422294425L39.7459375,157.2769798670999L39.80021875,157.2798545869266L39.8409296875,157.2776460854893L39.871085937500006,157.28025431796024L40.0007578125,157.2818192574428L40.0037734375,157.27882488779903L40.071625,157.28096159934609L40.0731328125,157.28224362627432L40.0851953125,157.27907950909793L40.110828125,157.2771810387921L40.1319375,157.2760419566086L40.2781953125,157.27142517396516L40.3083515625,157.27258843771241L40.311367187500004,157.27721972929413L40.344539062500004,157.27999850424314L40.430484375,157.27773243587922L40.4410390625,157.27637279486086L40.480242187500004,157.27949034358318L40.5073828125,157.28136087281658L40.519445312500004,157.27854985702328L40.5420625,157.28079658088063L40.56015625,157.27427794852838L40.591820312500005,157.27430010245035L40.671734375,157.2703800614702L40.719984374999996,157.27196137021548L40.76521875,157.27291015546263L40.77125,157.2734794266109L40.8149765625,157.2777543226332L40.87378125,157.27638592691326L40.8994140625,157.2755648894813L40.943140625,157.27900560035545L40.95821875,157.27320336021327L40.986867187499996,157.27758868279463L41.033609375000005,157.27628654301012L41.0351171875,157.2755052591394L41.083367187499995,157.27503648881697L41.102968749999995,157.2747552266235L41.105984375000006,157.27458646930745L41.124078125000004,157.2744852149178L41.163281250000004,157.274424462284L41.220578125,157.27832134403707L41.280890625000005,157.27672613975557L41.3155703125,157.27970235052L41.371359375000004,157.26968807697867L41.5568203125,157.2676128461872L41.6503046875,157.27030104104566L41.657843750000005,157.27584729129407L41.7407734375,157.27524170810977L41.7528359375,157.2748783581992L41.773945312500004,157.27466034825284L41.8930625,157.2705962089517L41.953375,157.2642243920377L41.98353125,157.26826796855596L42.04384375,157.26676078113357L42.072492187499996,157.26978980201346L42.077015625,157.2716072145414L42.1207421875,157.2766309953915L42.1931171875,157.27571193056824L42.342390625,157.2790938250076L42.371039062499996,157.2771896283379L42.580625,157.27998044366942L42.662046874999994,157.27772159953497L42.73140625,157.2763662930543L42.7359296875,157.2755531091659L42.746484375,157.2750651988329L42.754023437499995,157.2787057859664L42.781164062500004,157.28089013824652L42.8052890625,157.27433408294792L42.855046875000006,157.27433378310207L42.8625859375,157.27040026986126L42.9259140625,157.26804016191676L42.969640625000004,157.26662409715004L43.097804687499995,157.26970779162338L43.213906249999994,157.26762467497403L43.2968359375,157.27030813831774L43.3692109375,157.27191821632397L43.4204765625,157.27681759646106L43.5652265625,157.2679572245433L43.66625,157.26264100139264L43.68434375,157.2633846008356L43.7099765625,157.26776409383467L43.7160078125,157.27039178963415L43.728070312499995,157.27196840711383L43.741640625,157.27291437760164L43.7733046875,157.2734819598943L43.8064765625,157.26988917593658L43.8230625,157.26773350556195L43.881867187500006,157.26250677000382L43.9512265625,157.25543739533563L44.0537578125,157.25906243720138L44.28746875,157.2455041289875L44.288976562500004,157.2531024773925L44.371906249999995,157.24979481976882L44.39603125,157.25174355852798L44.63125,157.26077946845012L44.7533828125,157.25833434773674L44.827265624999995,157.26080060864203L44.8559140625,157.26621369851856L45.008203125,157.26552821911113L45.0760546875,157.27298359813335L45.128828125,157.26172349221335L45.160492187500004,157.25890076199468L45.174062500000005,157.2493404571968L45.201203125,157.25933760765142L45.261515625,157.26140256459084L45.329367187500004,157.24690820542116L45.40325,157.23821158991936L45.442453125,157.24479362061828L45.4515,157.25267617237097L45.454515625,157.24953903675592L45.61132812500001,157.24765675538688L45.683703125,157.2386607198988L45.9460625,157.2529297652726L46.18128125,157.24182452583022L46.1858046875,157.24302804883146L46.277781250000004,157.23588349596554L46.4270546875,157.23553009757933L46.4285625,157.2353180585476L46.4361015625,157.2391241684619L46.467765625000006,157.2335411677438L46.503953124999995,157.23019136731295L46.546171875000006,157.2242481537211L46.585375,157.22461555889933L46.790437499999996,157.23270266867294L46.8824140625,157.23362160120377L46.89296875,157.2381062940556L46.9578046875,157.23293044310003L47.0090703125,157.22982493252667L47.0151015625,157.22796162618266L47.0241484375,157.2307769757096L47.025656250000004,157.22853285209243L47.0512890625,157.21931971125545L47.052796875,157.21772516008662L47.206593749999996,157.22070176271862L47.4704609375,157.22248772429785L47.571484375000004,157.22355930124536L47.72528125,157.2242022474139L47.8413828125,157.22852134844834L47.97859375,157.22717947573568L48.023828124999994,157.22244101877473L48.126359375,157.21959794459818L48.1308828125,157.21789210009223L48.1459609375,157.220801926722L48.251507812499995,157.23041448936655L48.2876953125,157.22438202695326L48.331421875000004,157.21682921617196L48.4113359375,157.22409752970316L48.4776796875,157.22452518448858L48.515375,157.21691511069315L48.759640625,157.22021573308257L48.8003515625,157.21432943984954L48.842570312499994,157.2186643305764L48.850109375,157.2212652650125L48.910421875,157.22282582567416L48.914945312499995,157.2276954954045L48.9481171875,157.22668396390935L49.067234375,157.22214371167894L49.1531796875,157.21548622700737L49.2858671875,157.21149173620444L49.3099921875,157.20909504172266L49.683929687500004,157.21159035836692L49.753289062499995,157.2052208816868L49.797015625,157.20926586234543L49.8045546875,157.21562618407393L49.8859765625,157.21157571044435L49.9101015625,157.21307875959994L49.95684375,157.2139805890933L49.9643828125,157.21845502012263L50.0035859375,157.21327301207359L50.044296875,157.21803047391083L50.0458046875,157.21695161767983L50.097070312499994,157.21237097060788L50.189046874999995,157.18995591569808L50.532828124999995,157.2040402160855L50.6609921875,157.2046241296513L50.7469375,157.1931744777908L50.7484453125,157.20597135334114L51.0409609375,157.197916145338L51.4541015625,157.20488302053616L51.4661640625,157.20119647898835L51.5717109375,157.191117887393L51.582265625,157.18900406576915L51.63353125,157.19560243946148L51.654640625,157.20349479701022L51.877796875,157.20429687820612L52.03913281249999,157.20477812692369L52.085875,156.79993354282087L52.152218749999996,156.5216267923592L52.533695312499994,156.79124274208218L52.607578124999996,156.9451456452493L52.679953125,157.04928738714958L52.7855,157.1157057656231L52.90009375,157.15162345937387L52.92421875,157.17710740895765L52.981515625,157.1923977787079L52.984531249999996,157.19370533389142L53.084046875,157.19055653366817L53.126265625,157.19653392020092L53.2272890625,157.20405368545389L53.2800625,157.20856554460568L53.5861484375,157.2073393267634L53.663046875,157.20660359605805L53.8364453125,157.21009549096817L54.0143671875,157.1964572945809L54.085234375,157.18827437674852L54.09277343750001,157.1912312927158L54.2284765625,157.2008721089628L54.2345078125,157.18698993204436L54.236015625,157.18652729255996L54.25109375,157.19411637553597L54.282757812499995,157.1986698253216L54.4094140625,157.20533522852628L54.5813046875,157.20540113711576L54.760734375000006,157.20544068226945L54.7622421875,157.18186440936168L54.8647734375,157.191318645617L54.932625,157.19305785403688L55.0396796875,157.19803471242213L55.08340625,157.19708749411993L55.1301484375,157.2043858298053L55.292992187500005,157.19303149788317L55.297515625,157.19015223206324L55.3050546875,157.1805580059046L55.371398437500005,157.18660147020944L55.574953125,157.186294215459L55.6518515625,157.19790986260873L55.7121640625,157.18521258423192L55.822234374999994,157.18546088387248L56.03634375,157.1934765303235L56.1991875,157.1982859181941L56.2157734375,157.1854382175831L56.3756015625,157.18952959721653L56.582171875,157.17625109166326L56.59121875,157.1840173216646L56.625898437500005,157.18867705966545L56.6379609375,157.18360623579926L56.68771875,157.18056374147955L56.9214296875,156.7854049115544L57.016421875,156.9377096135993L57.131015624999996,156.99369243482624L57.2139453125,157.07448212756242L57.215453125,157.11508927653745L57.289335937500006,157.15125356592247L57.325523437499996,157.17295213955347L57.327031250000005,157.18203795039875L57.4732890625,157.19142277023926L57.6451796875,157.1773869954769L57.800484374999996,157.1728988639528L57.8638125,157.178072651705L57.9618203125,157.15757692435633L58.2271953125,157.1531461546138L58.3779765625,157.16228769276827L58.49709375,157.16777261566097L58.5136796875,157.1631969027299L58.5257421875,157.1289848083046L58.874046875,157.13599088498276L58.880078125,157.13626119765632L58.926820312500006,157.14429005192713L59.2736171875,157.14517403115627L59.2917109375,157.15750441869378L59.468125,157.12950265121626L59.5028046875,157.1402349240631L59.52240625,157.1466742877712L59.6596171875,157.1426712393294L59.9008671875,157.1520694102643L60.01696875,157.13410831282525L60.047125,157.14693165436182L60.1556875,157.13102565928375L60.2521875,157.12541539557026L60.2748046875,157.13778257067548L60.29440625,157.12553620907195L60.5582734375,157.1142550587765L60.66834375,157.12321970193256L60.78896875,157.12466515449287L60.791984375,157.13733242602905L61.05434375,157.12919945561742L61.188539062500006,157.10071967337046L61.3815390625,156.7335651373556L61.601679687499995,156.90660574908003L61.6499296875,157.00256344944802L61.744921875,157.06013806966882L61.763015625,157.08288284180128L61.79467968749999,157.10439637174744L61.8218203125,157.10550448971514L62.026882812500006,157.10616936049576L62.1083046875,156.72503494963078L62.1716328125,156.90148763644513L62.231945312499995,157.0034259152004L62.287734375,157.05672221578692L62.3013046875,157.09263332947216L62.604375,157.1259799976833L62.631515625000006,157.13418799860997L62.7370625,157.127312799166L62.77325,157.13892101283292L62.8018984375,157.14195260769975L63.012992187500004,157.11623823128653L63.2120234375,157.1244096054386L63.3416953125,157.13324576326315L63.3718515625,157.14248079129123L63.475890625,157.14408847477472L63.518109375,156.73598641819817L63.5678671875,156.9001918509189L63.751820312499994,156.99871511055136L63.8422890625,157.04209573299747L64.3006640625,157.08779077313181L64.3458984375,157.0876744638791L64.3820859375,157.0915380116608L64.5720703125,157.08992280699647L64.682140625,157.11255368419788L64.7047578125,157.12613221051873L64.7077734375,157.11854599297791L64.7560234375,156.72459426245342L64.81030468750001,156.86188989080537L64.9565625,156.58240060114989L65.0455234375,156.81197369402327L65.07115625,156.93398421641396L65.3802578125,157.00325719651505L65.3893046875,157.04875431790902L65.393828125,157.05638592407874L65.80696875,157.07669822111393L66.0678203125,157.08101893266834L66.14471875,157.06394469293434L66.1673359375,157.07730014909393L66.4930234375,156.6841134227897L66.52619531250001,156.8415347203405L66.8880703125,156.9635208322043L66.91521093749999,156.62371249932258L66.9513984375,156.81316083292688L66.97401562499999,156.5531631664228L67.0086953125,156.78656456652035L67.2801015625,156.50180540657888L67.2861328125,156.743949910614L67.5062734375,156.9049699463684L67.80934375,156.5728486344877L67.91790625,156.7865758473593L67.9963125,156.5096788417489L68.2812890625,156.76440730504933L68.2993828125,156.5160443830296L68.530078125,156.74069329648444L68.54515624999999,156.46641597789065L68.55269531249999,156.3490495867344L68.67784375000001,156.6522964187073L68.7200625,156.8775111845577L68.9025078125,156.57604004406795L69.030671875,156.78062402644076L69.07892187499999,156.5179077491978L69.11812499999999,156.33274464951867L69.2131171875,156.64251345637788L69.2553359375,156.45470807382674L69.7468828125,156.3262915109627L69.77703906250001,156.24137490657762L69.9097265625,156.5837582772799L69.92932812500001,156.40372163303462L70.224859375,156.2799663131541L70.5972890625,156.2293131212258L70.66815625,156.19105453940213L70.710375,156.13269939030795L70.767671875,156.51068630085143L70.984796875,156.37167844717754L71.03003125000001,156.2764737349732L71.1566875,156.23115090765057L71.1853359375,156.59729054459035L71.2049375,156.40790766008755L71.2124765625,156.69547792938585L71.25771093750001,156.86015342429818L71.37984375,156.9510920545789L71.419046875,157.013521899414L71.551734375,156.66157980631507L71.6165703125,156.8398145504557L71.618078125,156.5691553969401L71.66632812499999,156.78435990483072L71.93773437499999,156.53981594289843L71.9633671875,156.34195623240572L72.4217421875,156.67557373944342L72.5122109375,156.84821091033274L73.2631015625,156.56632654619963L73.27516406250001,156.2949292610531L73.3415078125,156.63162422329853L73.409359375,156.42850786731245L73.4892734375,156.29090472038746L73.57220312499999,156.20047616556582L73.6430703125,156.1658856993395L73.75163281249999,156.07826475293703L73.8541640625,156.0532255184289L74.0155,156.014601977724L74.1225546875,156.0425611866344L74.139140625,156.06720337864732L74.3065078125,156.09378869385506L74.398484375,156.11760654964635L74.47387499999999,156.10829726312116L74.50101562500001,156.1105783578727L74.663859375,156.1001470147236L75.22325781250001,156.04668820883415L75.3016640625,156.0736129253005L75.52180468750001,156.02683442184696L75.81884375000001,156.06956731977485L76.105328125,156.06767372519823L76.274203125,156.08620423511894L76.690359375,156.09732254107138L76.762734375,156.4933935246428L76.901453125,156.32590278145236L76.925578125,156.25687500220474L76.9451796875,156.22332500132285L77.2799140625,156.2031950007937L77.305546875,156.17931700047623L77.6508359375,156.14532353361906L77.6809921875,156.1052607868381L77.6960703125,156.08515647210285L77.8558984375,156.06129388326173L77.90264062499999,156.0784429966237L78.1453984375,156.0808657979742L78.1574609375,156.0783861454512L78.1604765625,156.0336316872707L78.433390625,156.03431234569575L78.457515625,156.06618740741746L78.4680703125,156.09317911111714L78.801296875,156.0897074666703L78.9234296875,156.06009114666884L78.9475546875,156.47892135466796L78.99731249999999,156.2031528128008L79.271734375,156.18715835434713L79.28078124999999,156.15002834594162L79.3094296875,156.11988367423163L79.32300000000001,156.518730204539L80.00905468750001,156.36077145605674L80.19753125000001,156.2227295403007L80.2111015625,156.1753043908471L80.248796875,156.5205159678416L80.456875,156.36184291403828L80.477984375,156.2666390817563L80.6755078125,156.18198344905377L80.833828125,156.14299006943227L81.044921875,156.13139404165935L81.0615078125,156.09296975832896L81.2454609375,156.0699151883307L81.25601562499999,156.0718157796651L81.4656015625,156.08475613446572L81.6224140625,156.08465368067942L81.62844531249999,156.05705887507432L81.75359375000001,156.06410199171125L81.804859375,156.06046119502676L82.0023828125,156.05827671701604L82.015953125,156.0530326968763L82.3461640625,156.0931529514591L82.4577421875,156.04249177087547L82.600984375,156.0356950625253L82.87540625,155.99621703751518L83.08197656249999,156.01186355584244L83.46646875,156.02911813350545L83.897703125,156.03553754676994L83.91881249999999,156.00792252806195L83.9776171875,156.02282018350385L84.024359375,156.019958776769L84.19625,155.95924193272805L84.41337499999999,155.93854515963682L84.4254375,155.93399376244878L84.4450390625,155.9548629241359L84.6139140625,155.97525108781488L84.66065625,155.98355065268893L84.68176562500001,155.98853039161335L84.68628906250001,155.99545156830135L84.79032812499999,156.01927094098082L85.20346875,156.01389589792183L85.4221015625,155.98707087208643L85.6935078125,155.9591758565852L86.2242578125,155.96210551395112L86.3961484375,155.91272997503734L86.488125,155.86343798502241L86.521296875,155.8653294576801L86.5288359375,155.9333310079414L86.5725625,155.97413193809817L86.6434296875,155.95141249619223L86.714296875,155.92598083104866L86.7580234375,155.93825516529586L87.287265625,155.94168643251086L87.293296875,155.9870118595065L87.38074999999999,155.99847378237058L87.407890625,155.96601760275567L87.453125,155.9898105616534L87.56168749999999,156.0001530036587L87.71849999999999,155.97882513552855L88.03966406250001,155.99749508131714L88.2356796875,155.97723038212362L88.2959921875,155.89820489594084L88.300515625,155.88225627089784L88.3864609375,155.92382042920536L88.74381249999999,155.96842559085655L88.8599140625,155.97158868784726L89.072515625,155.9970865460417L89.1192578125,155.937651927625L89.13584375,155.92165782324167L89.289640625,155.89632802727834L89.4555,155.90866348303368L89.500734375,155.92786475648688L89.50978124999999,155.86465218722546L89.8053125,155.79919131233527L89.90784375,155.88971478740118L90.055609375,155.85749553910736L90.2471015625,155.88929732346443L90.3013828125,155.92411172741197L90.50192187500001,155.94893370311385L90.76578906249999,155.9087602218683L90.83665624999999,155.80992279978767L90.96482031250001,155.83322034653926L91.1804375,155.86293220792356L91.3689140625,155.88469265808746L92.0836171875,155.83874892818582L92.13940625000001,155.77578269024482L92.353515625,155.80880294748022L92.39121093749999,155.7499484351548L92.64150781250001,155.81296906109287L92.82546093750001,155.82718143665574L92.8375234375,155.77670886199343L92.92497656249999,155.85262531719607L92.9702109375,155.83130852365096L93.004890625,155.84211844752392L93.19638281249999,155.85253773518102L93.264234375,155.85878930777528L93.5100078125,155.7996069179985L93.773875,155.8073641507991L94.126703125,155.7923518238128L94.199078125,155.806944427621L94.22471093749999,155.7055666565726L94.4750078125,155.69193999394355L94.71173437499999,155.76636399636612L94.9454453125,155.7992183978197L94.9605234375,155.83466437202514L94.99369531250001,155.8441319565484L95.3465234375,155.84587917392906L95.42040625,155.8665941710241L95.46865625,155.7688898359478L95.706890625,155.67880056823535L95.767203125,155.74274700760787L95.7687109375,155.75358153789807L95.81545312499999,155.70894892273884L95.8410859375,155.7175693536433L95.8531484375,155.73847494551933L95.8802890625,155.71955163397826L95.9285390625,155.7435976470536L96.0491640625,155.79342525489884L96.0763046875,155.74858848627264L96.66284375000001,155.69021975843026L96.7126015625,155.17533185505815L96.8633828125,155.3895324463682L97.15439062499999,155.52985280115428L97.395640625,155.1066450140259L97.443890625,155.33652034174887L97.489125,155.47051220504932L97.7228359375,155.5312406563629L98.86877343750001,155.3788777271511L99.0044765625,155.31105996962398L99.042171875,155.47490264844106L99.0708203125,155.48667492239798L99.1658125,155.38360495343878L99.4176171875,155.48302963872993L99.554828125,155.5859511165713L99.627203125,155.5493706699428L99.9001171875,155.153755735299L99.9393203125,155.38838677451272L100.0659765625,155.3914987313743L100.0991484375,155.48776590549124L100.1308125,155.4589928766281L100.22882031249999,155.6305290593102L100.489671875,155.58791743558612L100.6178359375,155.62135046135165L100.84099218749999,155.594210276811L100.8786875,155.64479283275327L101.1923125,155.5060090329853L101.309921875,155.51320541979118L101.8240859375,155.31298991854138L101.97185156249999,155.49572728445816L102.1708828125,155.4834363706749L102.3638828125,154.99226182240494L102.651875,155.20102376010962L102.7227421875,155.09028092273243L102.7740078125,155.09463522030615L102.998671875,154.92024779885034L103.245953125,154.63468201264354L103.78122656250001,154.96680920758612L103.80384375,154.61148552455168L103.9470859375,154.53595798139767L103.9666875,154.23890812217195L104.0345390625,154.66641153996983L104.102390625,154.27784692398188L104.554734375,154.26890815438912L105.3855390625,153.93707822596681L105.519734375,154.42238026891343L105.586078125,154.68602816134805L105.63734375000001,154.32895023014217L105.97358593749999,154.32710347141864L105.98715625,154.20406208285118L106.2148359375,154.44490391637737L106.3867265625,154.2826090164931L106.840578125,154.17736540989586L106.85264062499999,154.3698859126042L107.07730468749999,153.90719821422917L107.5975,153.88525226187085L107.715109375,154.66661802378917L108.46147656250001,154.3251708142735L108.52028125,154.15963582189744L108.83842968750001,154.00524815980512L108.9288984375,153.70808222921642L109.1671328125,153.5691160041965L109.36465625000001,153.64700293585125L109.406875,153.48133509484407L109.4898046875,153.72020105690643L109.7913671875,153.67078730081053L109.982859375,153.31467238048631L109.99793749999999,153.98993676162513L110.2150625,153.6634953903084L110.43218750000001,153.67609723418505L110.5301953125,153.4673250071777L110.6839921875,153.2358616709733L111.0338046875,153.2818503359173L112.03046875000001,153.2465102015504L112.0500703125,153.41410612093023L112.727078125,152.8381303392248L113.06030468750001,151.97334487020154L113.4915390625,152.81934025545425L113.79159375,152.63467081993923L113.8986484375,152.6300691586302L114.7581015625,152.81217482851144L115.1712421875,152.99617156377354L115.5391484375,152.83123627159745L115.67183593749999,152.86207509629182L115.9372109375,153.30144505777508L116.161875,153.0380003679984L116.17996875,152.8130668874657L116.18147656250001,152.70170679914608L116.2508359375,152.1392907461543L116.261390625,152.53344111435925L116.3186875,152.8249980019489L116.918796875,152.331265467836L116.958,152.79022594736827L117.105765625,152.9790689017543L117.1585390625,152.96650800771926L117.24146875000001,152.5184381379649L118.23511718750001,152.35186288277893L118.41303906249999,152.5744510630007L118.5608046875,152.73160397113375L118.6211171875,152.76296238268026L118.6784140625,152.67951076294148L118.9407734375,152.76317312443155L119.1156796875,152.89203720799227L119.1428203125,153.2053556581287L119.3599453125,153.33828006154388L119.5800859375,153.25676803692633L119.62682812499999,153.2550608221558L119.9178359375,153.2461698266268L120.49834375,153.35883522930942L120.62650781250001,153.18650113758565L120.8858515625,153.07523401588472L120.93259375000001,153.11074040953082L120.9552109375,153.3444442457185L121.0698046875,153.43353321409776L121.10146875,153.199853261792L121.53722656250001,153.11077862374185L121.5402421875,153.2579338409118L121.60507812499999,153.03942697121374L121.743796875,153.15218951606158L121.8146640625,153.19231370963695L121.9684609375,153.19278822578218L122.24891406249999,153.29533960213595L122.352953125,153.3726037612816L122.5565078125,153.47796225676893L122.7103046875,153.54117735406138L122.732921875,153.57517307910348L122.75403125000001,153.72143718079542L122.9786953125,153.7501956418106L123.24256249999999,153.82251738508634L123.3043828125,153.85411043105182L123.6421328125,153.41679959196443L123.655703125,153.42581308851197L124.4985703125,153.2266878531072L124.560390625,153.37074604519765L124.80164062499999,153.3942476271186L124.976546875,153.56174857627116L125.21478125,153.45771581242937L125.3308828125,153.4936294874576L125.4213515625,153.44044435914122L125.5932421875,153.62879994881808L125.69577343750001,153.65527996929086L125.76211718750001,153.65543464824117L125.7892578125,153.50212745561137L125.8133828125,153.5084764733668L125.87821875,153.61061921735342L125.90535937499999,153.67583819707872L126.004875,153.52223625158058L126.044078125,153.64247508428167L126.1692265625,153.72641838390234L126.77687499999999,153.81611769700808L127.226203125,153.6811372848715L127.4086484375,153.69061570425623L127.8263125,153.60976942255374L128.1625546875,153.57306165353225L128.37515625,153.38583699211935L128.417375,153.50163552860494L128.4460234375,153.53964798382964L128.45959375,153.53885545696446L128.6269609375,153.67997994084533L128.824484375,153.6859879645072L128.899875,153.71319277870433L129.3265859375,153.79244900055593L129.44871875,153.78886940033357L129.55728125,153.7473883068668L130.0141484375,153.68709965078673L130.80575000000002,153.78465979047203L131.1314375,153.78419587428323L131.6576640625,153.70131752456993L132.1311171875,153.71059051474197L132.2607890625,153.52342097551184L132.5593359375,153.65891925197377L132.5623515625,153.65761821785094L132.6377421875,153.5860375973772L132.78550781250001,153.53522255842634L132.8910546875,153.5165335350558L132.9724765625,153.53678678770015L133.1835703125,153.52140540595343L133.293640625,153.52790991023872L133.53338281249998,153.5082126128099L133.75201562499998,153.55932756768595L133.76106249999998,153.5703298739449L133.8560546875,153.56119792436692L133.878671875,153.66978542128683L133.93596875,153.67593791943875L133.957078125,153.55376275166327L134.2661796875,153.59452431766462L134.4606875,153.37511459059877L135.05778125,153.20806875435926L135.1075390625,153.1275079192822L136.9214375,153.00443808490266L137.3330703125,152.78899618427494L138.341796875,152.4237310438983L138.7293046875,152.0511719596723L138.794140625,151.94170317580338L138.8348515625,151.59675523881538L139.59177343750002,151.2796531432892L143.7201640625,149.2328585526402L147.3660546875,146.93884846491744L147.68420312499998,145.25957574561713L150.52039843749998,143.88621211403694L150.7978359375,142.79472726842218L151.284859375,142.47810302771995L176.2044765625,135.58572848329865L179.63776562500001,127.28490375664586L187.050171875,118.65427558732084L196.27496875,117.49576535239251L196.9700703125,115.1368592114355L197.11934374999998,125.6041155268613L198.913640625,105.57833598278346L200.88133593749998,101.9369349230034L224.5555,86.52429428713539L224.6414453125,76.84797657228123L225.04403125000002,71.40011927670207L225.1028359375,72.22600489935456L225.9049921875,73.15420293961274L226.1040234375,69.77385509710099L226.20052343749998,71.00244639159394L226.28797656249998,71.4682011682897L226.7403203125,68.71898736764048L228.57382031249998,70.38525908725097L255.92403124999998,80.39235545235059L261.84671875,63.96087993807703L261.89496875,55.376394629512916L261.94321874999997,57.29390344437439L262.03971874999996,59.726675399957955L262.08796875,50.41687190664145L262.13621875,45.75532314398487L262.18446875,41.76659388639092L262.23271875,39.53855633183457L262.28096875,53.75806713243405L262.32921875,61.4323069461271L262.37746875,51.78245083434295L262.42571875,45.8116038339391L262.57046875,52.322028967030164L262.66696875,45.5964840468848L262.71521875,52.68462376146418L262.90821875,56.59137425687851L262.95646875,48.67729122079376L263.00471875,44.6840413991429L263.10121875,41.83182483948576L263.14946875,55.499828237024786L263.29421875,48.17969694221489L263.43896875,53.9198848319956L263.53546875,57.7966642325307L263.72846875,49.809531872851764L263.77671875,45.516785790377725L263.82496875,42.087604807559956L263.87321875,40.16776288453599L264.01796874999997,39.845791064054936L264.11446875,38.22874130509962L264.16271875,48.201044783059785L264.21096875,44.42189353650255L264.25921875,51.44493612190155L264.30746875,46.38789500647425L264.40396875,42.26413700388457L264.45221875,40.82828220233074L264.50046875,40.41516932139842" style="fill: none;" fill="none"></path></g></g></g></g><g opacity="0.2"><g><g><g><path stroke="rgb(255, 112, 67)" stroke-width="2px" d="M30.7186640625,157.30383333333333L30.739773437500002,157.30383333333333L30.8061171875,157.30383333333333L30.8151640625,157.30383333333333L30.8483359375,157.30383333333333L30.8694453125,157.30383333333333L30.876984375,157.294L30.9026171875,157.30383333333333L30.907140625,157.30383333333333L30.925234375,157.30383333333333L30.928250000000002,157.31366666666668L30.9297578125,157.30383333333333L30.931265624999998,157.31366666666668L30.9388046875,157.30383333333333L30.961421875,157.294L30.9749921875,157.294L30.984039062500003,157.31366666666668L30.9900703125,157.30383333333333L31.383609375000002,157.30383333333333L31.3971796875,157.30383333333333L31.443921875,157.31366666666668L31.48915625,157.30383333333333L31.4997109375,157.294L31.5208203125,157.31366666666668L31.5992265625,157.30383333333333L31.6158125,157.30383333333333L31.6474765625,157.30383333333333L31.659539062500002,157.30383333333333L31.68215625,157.294L31.697234375,157.30383333333333L31.745484375,157.30383333333333L31.7650859375,157.31366666666668L31.8193671875,157.30383333333333L31.848015625,157.31366666666668L31.866109374999997,157.31366666666668L31.870632812500002,157.31366666666668L31.87515625,157.30383333333333L31.876664062499998,157.294L32.01990625,157.294L32.1480703125,157.30383333333333L32.2566328125,157.30383333333333L32.2807578125,157.30383333333333L32.2867890625,157.294L32.3154375,157.30383333333333L32.338054687500005,157.30383333333333L32.3832890625,157.30383333333333L32.445109375,157.30383333333333L32.4843125,157.294L32.496375,157.30383333333333L32.5205,157.294L32.592875,157.294L32.6999296875,157.30383333333333L32.70746875,157.30383333333333L32.7240546875,157.30383333333333L32.7391328125,157.30383333333333L32.7572265625,157.31366666666668L32.770796875,157.30383333333333L32.8024609375,157.30383333333333L32.8175390625,157.31366666666668L32.8265859375,157.31366666666668L32.8778515625,157.30383333333333L32.951734375,157.30383333333333L33.0437109375,157.30383333333333L33.066328125,157.294L33.084421875,157.31366666666668L33.235203125,157.294L33.35884375,157.30383333333333L33.440265624999995,157.294L33.44328125,157.30383333333333L33.4734375,157.294L33.681515625,157.294L33.7146875,157.31366666666668L33.7734921875,157.30383333333333L33.779523437499996,157.294L33.784046875,157.294L33.895624999999995,157.30383333333333L34.0026796875,157.30383333333333L34.034343750000005,157.30383333333333L34.1474296875,157.30383333333333L34.180601562499994,157.30383333333333L34.252976562499995,157.30383333333333L34.3434453125,157.30383333333333L34.3555078125,157.294L34.4037578125,157.294L34.474625,157.294L34.4912109375,157.31366666666668L34.5213671875,157.3235L34.5485078125,157.30383333333333L34.58921875,157.30383333333333L34.605804687500004,157.30383333333333L34.646515625,157.30383333333333L34.675164062499995,157.294L34.676671875,157.31366666666668L34.747539062499996,157.31366666666668L34.7807109375,157.30383333333333L34.8078515625,157.31366666666668L34.8229296875,157.294L34.851578125,157.294L34.89078125,157.30383333333333L35.0295,157.30383333333333L35.0370390625,157.30383333333333L35.0656875,157.31366666666668L35.0792578125,157.294L35.1063984375,157.30383333333333L35.2059140625,157.294L35.2179765625,157.30383333333333L35.261703125,157.30383333333333L35.3793125,157.294L35.397406249999996,157.294L35.4079609375,157.294L35.466765625,157.294L35.513507812499995,157.30383333333333L35.515015625000004,157.30383333333333L35.5496953125,157.30383333333333L35.62810156250001,157.294L35.662781249999995,157.30383333333333L35.7336484375,157.294L35.741187499999995,157.30383333333333L35.7849140625,157.294L35.8090390625,157.28416666666666L36.0171171875,157.30383333333333L36.1437734375,157.294L36.329234375,157.30383333333333L36.3397890625,157.294L36.341296875,157.30383333333333L36.3759765625,157.28416666666666L36.418195312499996,157.294L36.4362890625,157.28416666666666L36.473984375,157.30383333333333L36.6172265625,157.294L36.620242187500004,157.28416666666666L36.692617187500005,157.28416666666666L36.7167421875,157.28416666666666L36.76046875,157.28416666666666L36.805703124999994,157.28416666666666L36.823796875,157.27433333333335L36.825304687499994,157.28416666666666L36.8735546875,157.28416666666666L36.96553125,157.28416666666666L37.00775,157.294L37.018304687500006,157.28416666666666L37.052984374999994,157.30383333333333L37.1178203125,157.28416666666666L37.1328984375,157.28416666666666L37.1992421875,157.28416666666666L37.2082890625,157.28416666666666L37.258046875,157.2645L37.322882812500005,157.27433333333335L37.3455,157.27433333333335L37.42390625,157.28416666666666L37.457078125,157.27433333333335L37.5188984375,157.294L37.5942890625,157.28416666666666L37.638015625,157.28416666666666L37.68174218750001,157.28416666666666L37.800859375,157.28416666666666L37.8566484375,157.27433333333335L37.8641875,157.28416666666666L37.9124375,157.27433333333335L37.933546875000005,157.27433333333335L37.9682265625,157.28416666666666L38.03909375,157.28416666666666L38.05115625,157.28416666666666L38.0978984375,157.27433333333335L38.1069453125,157.294L38.12353125,157.27433333333335L38.1371015625,157.27433333333335L38.1793203125,157.28416666666666L38.292406250000006,157.28416666666666L38.316531250000004,157.294L38.3481953125,157.27433333333335L38.476359375,157.27433333333335L38.527625,157.28416666666666L38.603015625,157.28416666666666L38.65126562499999,157.28416666666666L38.6844375,157.28416666666666L38.8095859375,157.28416666666666L38.823156250000004,157.27433333333335L38.8276796875,157.28416666666666L38.835218749999996,157.27433333333335L38.8487890625,157.28416666666666L38.850296875,157.27433333333335L38.8759296875,157.28416666666666L38.91965625,157.28416666666666L38.922671875,157.27433333333335L38.9573515625,157.27433333333335L39.04028125,157.27433333333335L39.049328124999995,157.27433333333335L39.106624999999994,157.28416666666666L39.1895546875,157.2645L39.343351562500004,157.28416666666666L39.3704921875,157.28416666666666L39.393109374999995,157.27433333333335L39.406679687499995,157.27433333333335L39.43080468749999,157.28416666666666L39.454929687500005,157.28416666666666L39.5363515625,157.28416666666666L39.5725390625,157.27433333333335L39.5755546875,157.27433333333335L39.637375,157.28416666666666L39.7233203125,157.28416666666666L39.7414140625,157.27433333333335L39.7459375,157.27433333333335L39.80021875,157.28416666666666L39.8409296875,157.27433333333335L39.871085937500006,157.28416666666666L40.0007578125,157.28416666666666L40.0037734375,157.27433333333335L40.071625,157.28416666666666L40.0731328125,157.28416666666666L40.0851953125,157.27433333333335L40.110828125,157.27433333333335L40.1319375,157.27433333333335L40.2781953125,157.2645L40.3083515625,157.27433333333335L40.311367187500004,157.28416666666666L40.344539062500004,157.28416666666666L40.430484375,157.27433333333335L40.4410390625,157.27433333333335L40.480242187500004,157.28416666666666L40.5073828125,157.28416666666666L40.519445312500004,157.27433333333335L40.5420625,157.28416666666666L40.56015625,157.2645L40.591820312500005,157.27433333333335L40.671734375,157.2645L40.719984374999996,157.27433333333335L40.76521875,157.27433333333335L40.77125,157.27433333333335L40.8149765625,157.28416666666666L40.87378125,157.27433333333335L40.8994140625,157.27433333333335L40.943140625,157.28416666666666L40.95821875,157.2645L40.986867187499996,157.28416666666666L41.033609375000005,157.27433333333335L41.0351171875,157.27433333333335L41.083367187499995,157.27433333333335L41.102968749999995,157.27433333333335L41.105984375000006,157.27433333333335L41.124078125000004,157.27433333333335L41.163281250000004,157.27433333333335L41.220578125,157.28416666666666L41.280890625000005,157.27433333333335L41.3155703125,157.28416666666666L41.371359375000004,157.25466666666665L41.5568203125,157.2645L41.6503046875,157.27433333333335L41.657843750000005,157.28416666666666L41.7407734375,157.27433333333335L41.7528359375,157.27433333333335L41.773945312500004,157.27433333333335L41.8930625,157.2645L41.953375,157.25466666666665L41.98353125,157.27433333333335L42.04384375,157.2645L42.072492187499996,157.27433333333335L42.077015625,157.27433333333335L42.1207421875,157.28416666666666L42.1931171875,157.27433333333335L42.342390625,157.28416666666666L42.371039062499996,157.27433333333335L42.580625,157.28416666666666L42.662046874999994,157.27433333333335L42.73140625,157.27433333333335L42.7359296875,157.27433333333335L42.746484375,157.27433333333335L42.754023437499995,157.28416666666666L42.781164062500004,157.28416666666666L42.8052890625,157.2645L42.855046875000006,157.27433333333335L42.8625859375,157.2645L42.9259140625,157.2645L42.969640625000004,157.2645L43.097804687499995,157.27433333333335L43.213906249999994,157.2645L43.2968359375,157.27433333333335L43.3692109375,157.27433333333335L43.4204765625,157.28416666666666L43.5652265625,157.25466666666665L43.66625,157.25466666666665L43.68434375,157.2645L43.7099765625,157.27433333333335L43.7160078125,157.27433333333335L43.728070312499995,157.27433333333335L43.741640625,157.27433333333335L43.7733046875,157.27433333333335L43.8064765625,157.2645L43.8230625,157.2645L43.881867187500006,157.25466666666665L43.9512265625,157.24483333333333L44.0537578125,157.2645L44.28746875,157.22516666666667L44.288976562500004,157.2645L44.371906249999995,157.24483333333333L44.39603125,157.25466666666665L44.63125,157.27433333333335L44.7533828125,157.25466666666665L44.827265624999995,157.2645L44.8559140625,157.27433333333335L45.008203125,157.2645L45.0760546875,157.28416666666666L45.128828125,157.24483333333333L45.160492187500004,157.25466666666665L45.174062500000005,157.235L45.201203125,157.27433333333335L45.261515625,157.2645L45.329367187500004,157.22516666666667L45.40325,157.22516666666667L45.442453125,157.25466666666665L45.4515,157.2645L45.454515625,157.24483333333333L45.61132812500001,157.24483333333333L45.683703125,157.22516666666667L45.9460625,157.27433333333335L46.18128125,157.22516666666667L46.1858046875,157.24483333333333L46.277781250000004,157.22516666666667L46.4270546875,157.235L46.4285625,157.235L46.4361015625,157.24483333333333L46.467765625000006,157.22516666666667L46.503953124999995,157.22516666666667L46.546171875000006,157.21533333333332L46.585375,157.22516666666667L46.790437499999996,157.24483333333333L46.8824140625,157.235L46.89296875,157.24483333333333L46.9578046875,157.22516666666667L47.0090703125,157.22516666666667L47.0151015625,157.22516666666667L47.0241484375,157.235L47.025656250000004,157.22516666666667L47.0512890625,157.2055L47.052796875,157.21533333333332L47.206593749999996,157.22516666666667L47.4704609375,157.22516666666667L47.571484375000004,157.22516666666667L47.72528125,157.22516666666667L47.8413828125,157.235L47.97859375,157.22516666666667L48.023828124999994,157.21533333333332L48.126359375,157.21533333333332L48.1308828125,157.21533333333332L48.1459609375,157.22516666666667L48.251507812499995,157.24483333333333L48.2876953125,157.21533333333332L48.331421875000004,157.2055L48.4113359375,157.235L48.4776796875,157.22516666666667L48.515375,157.2055L48.759640625,157.22516666666667L48.8003515625,157.2055L48.842570312499994,157.22516666666667L48.850109375,157.22516666666667L48.910421875,157.22516666666667L48.914945312499995,157.235L48.9481171875,157.22516666666667L49.067234375,157.21533333333332L49.1531796875,157.2055L49.2858671875,157.2055L49.3099921875,157.2055L49.683929687500004,157.21533333333332L49.753289062499995,157.19566666666668L49.797015625,157.21533333333332L49.8045546875,157.22516666666667L49.8859765625,157.2055L49.9101015625,157.21533333333332L49.95684375,157.21533333333332L49.9643828125,157.22516666666667L50.0035859375,157.2055L50.044296875,157.22516666666667L50.0458046875,157.21533333333332L50.097070312499994,157.2055L50.189046874999995,157.15633333333332L50.532828124999995,157.22516666666667L50.6609921875,157.2055L50.7469375,157.176L50.7484453125,157.22516666666667L51.0409609375,157.18583333333333L51.4541015625,157.21533333333332L51.4661640625,157.19566666666668L51.5717109375,157.176L51.582265625,157.18583333333333L51.63353125,157.2055L51.654640625,157.21533333333332L51.877796875,157.2055L52.03913281249999,157.2055L52.085875,156.19266666666667L52.152218749999996,156.10416666666666L52.533695312499994,157.19566666666668L52.607578124999996,157.176L52.679953125,157.2055L52.7855,157.21533333333332L52.90009375,157.2055L52.92421875,157.21533333333332L52.981515625,157.21533333333332L52.984531249999996,157.19566666666668L53.084046875,157.18583333333333L53.126265625,157.2055L53.2272890625,157.21533333333332L53.2800625,157.21533333333332L53.5861484375,157.2055L53.663046875,157.2055L53.8364453125,157.21533333333332L54.0143671875,157.176L54.085234375,157.176L54.09277343750001,157.19566666666668L54.2284765625,157.21533333333332L54.2345078125,157.16616666666667L54.236015625,157.18583333333333L54.25109375,157.2055L54.282757812499995,157.2055L54.4094140625,157.21533333333332L54.5813046875,157.2055L54.760734375000006,157.2055L54.7622421875,157.1465L54.8647734375,157.2055L54.932625,157.19566666666668L55.0396796875,157.2055L55.08340625,157.19566666666668L55.1301484375,157.21533333333332L55.292992187500005,157.176L55.297515625,157.18583333333333L55.3050546875,157.16616666666667L55.371398437500005,157.19566666666668L55.574953125,157.18583333333333L55.6518515625,157.21533333333332L55.7121640625,157.16616666666667L55.822234374999994,157.18583333333333L56.03634375,157.2055L56.1991875,157.2055L56.2157734375,157.16616666666667L56.3756015625,157.19566666666668L56.582171875,157.15633333333332L56.59121875,157.19566666666668L56.625898437500005,157.19566666666668L56.6379609375,157.176L56.68771875,157.176L56.9214296875,156.19266666666667L57.016421875,157.16616666666667L57.131015624999996,157.07766666666666L57.2139453125,157.19566666666668L57.215453125,157.176L57.289335937500006,157.2055L57.325523437499996,157.2055L57.327031250000005,157.19566666666668L57.4732890625,157.2055L57.6451796875,157.15633333333332L57.800484374999996,157.16616666666667L57.8638125,157.18583333333333L57.9618203125,157.12683333333334L58.2271953125,157.1465L58.3779765625,157.176L58.49709375,157.176L58.5136796875,157.15633333333332L58.5257421875,157.07766666666666L58.874046875,157.1465L58.880078125,157.13666666666666L58.926820312500006,157.15633333333332L59.2736171875,157.1465L59.2917109375,157.176L59.468125,157.0875L59.5028046875,157.15633333333332L59.52240625,157.15633333333332L59.6596171875,157.13666666666666L59.9008671875,157.16616666666667L60.01696875,157.10716666666667L60.047125,157.16616666666667L60.1556875,157.10716666666667L60.2521875,157.117L60.2748046875,157.15633333333332L60.29440625,157.10716666666667L60.5582734375,157.09733333333332L60.66834375,157.13666666666666L60.78896875,157.12683333333334L60.791984375,157.15633333333332L61.05434375,157.117L61.188539062500006,157.058L61.3815390625,156.18283333333335L61.601679687499995,157.16616666666667L61.6499296875,157.1465L61.744921875,157.1465L61.763015625,157.117L61.79467968749999,157.13666666666666L61.8218203125,157.10716666666667L62.026882812500006,157.10716666666667L62.1083046875,156.15333333333334L62.1716328125,157.16616666666667L62.231945312499995,157.15633333333332L62.287734375,157.13666666666666L62.3013046875,157.1465L62.604375,157.176L62.631515625000006,157.1465L62.7370625,157.117L62.77325,157.15633333333332L62.8018984375,157.1465L63.012992187500004,157.07766666666666L63.2120234375,157.13666666666666L63.3416953125,157.1465L63.3718515625,157.15633333333332L63.475890625,157.1465L63.518109375,156.12383333333332L63.5678671875,157.1465L63.751820312499994,157.1465L63.8422890625,157.10716666666667L64.3006640625,157.15633333333332L64.3458984375,157.0875L64.3820859375,157.09733333333332L64.5720703125,157.0875L64.682140625,157.1465L64.7047578125,157.1465L64.7077734375,157.10716666666667L64.7560234375,156.13366666666667L64.81030468750001,157.06783333333334L64.9565625,156.16316666666665L65.0455234375,157.15633333333332L65.07115625,157.117L65.3802578125,157.10716666666667L65.3893046875,157.117L65.393828125,157.06783333333334L65.80696875,157.10716666666667L66.0678203125,157.0875L66.14471875,157.03833333333333L66.1673359375,157.09733333333332L66.4930234375,156.09433333333334L66.52619531250001,157.07766666666666L66.8880703125,157.1465L66.91521093749999,156.114L66.9513984375,157.09733333333332L66.97401562499999,156.16316666666665L67.0086953125,157.13666666666666L67.2801015625,156.07466666666667L67.2861328125,157.10716666666667L67.5062734375,157.1465L67.80934375,156.07466666666667L67.91790625,157.10716666666667L67.9963125,156.09433333333334L68.2812890625,157.1465L68.2993828125,156.1435L68.530078125,157.07766666666666L68.54515624999999,156.055L68.55269531249999,156.173L68.67784375000001,157.10716666666667L68.7200625,157.21533333333332L68.9025078125,156.12383333333332L69.030671875,157.0875L69.07892187499999,156.12383333333332L69.11812499999999,156.055L69.2131171875,157.10716666666667L69.2553359375,156.173L69.7468828125,156.13366666666667L69.77703906250001,156.114L69.9097265625,157.09733333333332L69.92932812500001,156.13366666666667L70.224859375,156.09433333333334L70.5972890625,156.15333333333334L70.66815625,156.13366666666667L70.710375,156.04516666666666L70.767671875,157.07766666666666L70.984796875,156.16316666666665L71.03003125000001,156.13366666666667L71.1566875,156.16316666666665L71.1853359375,157.1465L71.2049375,156.12383333333332L71.2124765625,157.12683333333334L71.25771093750001,157.10716666666667L71.37984375,157.0875L71.419046875,157.10716666666667L71.551734375,156.13366666666667L71.6165703125,157.10716666666667L71.618078125,156.16316666666665L71.66632812499999,157.10716666666667L71.93773437499999,156.173L71.9633671875,156.04516666666666L72.4217421875,157.176L72.5122109375,157.10716666666667L73.2631015625,156.1435L73.27516406250001,155.88783333333333L73.3415078125,157.13666666666666L73.409359375,156.12383333333332L73.4892734375,156.0845L73.57220312499999,156.06483333333333L73.6430703125,156.114L73.75163281249999,155.94683333333333L73.8541640625,156.01566666666668L74.0155,155.95666666666668L74.1225546875,156.0845L74.139140625,156.10416666666666L74.3065078125,156.13366666666667L74.398484375,156.15333333333334L74.47387499999999,156.09433333333334L74.50101562500001,156.114L74.663859375,156.0845L75.22325781250001,155.9665L75.3016640625,156.114L75.52180468750001,155.95666666666668L75.81884375000001,156.13366666666667L76.105328125,156.06483333333333L76.274203125,156.114L76.690359375,156.114L76.762734375,157.0875L76.901453125,156.07466666666667L76.925578125,156.15333333333334L76.9451796875,156.173L77.2799140625,156.173L77.305546875,156.1435L77.6508359375,156.09433333333334L77.6809921875,156.04516666666666L77.6960703125,156.055L77.8558984375,156.0255L77.90264062499999,156.10416666666666L78.1453984375,156.0845L78.1574609375,156.07466666666667L78.1604765625,155.9665L78.433390625,156.03533333333334L78.457515625,156.114L78.4680703125,156.13366666666667L78.801296875,156.0845L78.9234296875,156.01566666666668L78.9475546875,157.10716666666667L78.99731249999999,155.7895L79.271734375,156.16316666666665L79.28078124999999,156.09433333333334L79.3094296875,156.07466666666667L79.32300000000001,157.117L80.00905468750001,156.12383333333332L80.19753125000001,156.01566666666668L80.2111015625,156.10416666666666L80.248796875,157.03833333333333L80.456875,156.12383333333332L80.477984375,156.12383333333332L80.6755078125,156.055L80.833828125,156.0845L81.044921875,156.114L81.0615078125,156.03533333333334L81.2454609375,156.03533333333334L81.25601562499999,156.07466666666667L81.4656015625,156.10416666666666L81.6224140625,156.0845L81.62844531249999,156.01566666666668L81.75359375000001,156.07466666666667L81.804859375,156.055L82.0023828125,156.055L82.015953125,156.04516666666666L82.3461640625,156.15333333333334L82.4577421875,155.9665L82.600984375,156.0255L82.87540625,155.937L83.08197656249999,156.03533333333334L83.46646875,156.055L83.897703125,156.04516666666666L83.91881249999999,155.9665L83.9776171875,156.04516666666666L84.024359375,156.01566666666668L84.19625,155.86816666666667L84.41337499999999,155.9075L84.4254375,155.92716666666666L84.4450390625,155.98616666666666L84.6139140625,156.00583333333333L84.66065625,155.996L84.68176562500001,155.996L84.68628906250001,156.00583333333333L84.79032812499999,156.055L85.20346875,156.00583333333333L85.4221015625,155.94683333333333L85.6935078125,155.91733333333332L86.2242578125,155.9665L86.3961484375,155.83866666666665L86.488125,155.7895L86.521296875,155.86816666666667L86.5288359375,156.03533333333334L86.5725625,156.03533333333334L86.6434296875,155.91733333333332L86.714296875,155.88783333333333L86.7580234375,155.95666666666668L87.287265625,155.94683333333333L87.293296875,156.055L87.38074999999999,156.01566666666668L87.407890625,155.91733333333332L87.453125,156.0255L87.56168749999999,156.01566666666668L87.71849999999999,155.94683333333333L88.03966406250001,156.0255L88.2356796875,155.94683333333333L88.2959921875,155.77966666666666L88.300515625,155.85833333333332L88.3864609375,155.98616666666666L88.74381249999999,156.03533333333334L88.8599140625,155.97633333333334L89.072515625,156.03533333333334L89.1192578125,155.8485L89.13584375,155.89766666666668L89.289640625,155.85833333333332L89.4555,155.92716666666666L89.500734375,155.95666666666668L89.50978124999999,155.76983333333334L89.8053125,155.701L89.90784375,156.0255L90.055609375,155.80916666666667L90.2471015625,155.937L90.3013828125,155.97633333333334L90.50192187500001,155.98616666666666L90.76578906249999,155.8485L90.83665624999999,155.66166666666666L90.96482031250001,155.86816666666667L91.1804375,155.9075L91.3689140625,155.91733333333332L92.0836171875,155.76983333333334L92.13940625000001,155.68133333333333L92.353515625,155.85833333333332L92.39121093749999,155.66166666666666L92.64150781250001,155.9075L92.82546093750001,155.8485L92.8375234375,155.701L92.92497656249999,155.9665L92.9702109375,155.79933333333332L93.004890625,155.85833333333332L93.19638281249999,155.86816666666667L93.264234375,155.86816666666667L93.5100078125,155.71083333333334L93.773875,155.819L94.126703125,155.76983333333334L94.199078125,155.82883333333334L94.22471093749999,155.55349999999999L94.4750078125,155.6715L94.71173437499999,155.878L94.9454453125,155.8485L94.9605234375,155.88783333333333L94.99369531250001,155.85833333333332L95.3465234375,155.8485L95.42040625,155.89766666666668L95.46865625,155.62233333333333L95.706890625,155.54366666666667L95.767203125,155.83866666666665L95.7687109375,155.76983333333334L95.81545312499999,155.642L95.8410859375,155.7305L95.8531484375,155.76983333333334L95.8802890625,155.69116666666667L95.9285390625,155.77966666666666L96.0491640625,155.86816666666667L96.0763046875,155.68133333333333L96.66284375000001,155.60266666666666L96.7126015625,154.403L96.8633828125,155.71083333333334L97.15439062499999,155.74033333333333L97.395640625,154.47183333333334L97.443890625,155.68133333333333L97.489125,155.6715L97.7228359375,155.62233333333333L98.86877343750001,155.15033333333332L99.0044765625,155.20933333333335L99.042171875,155.72066666666666L99.0708203125,155.50433333333334L99.1658125,155.22899999999998L99.4176171875,155.63216666666668L99.554828125,155.74033333333333L99.627203125,155.49450000000002L99.9001171875,154.56033333333335L99.9393203125,155.74033333333333L100.0659765625,155.39616666666666L100.0991484375,155.63216666666668L100.1308125,155.41583333333332L100.22882031249999,155.88783333333333L100.489671875,155.524L100.6178359375,155.6715L100.84099218749999,155.55349999999999L100.8786875,155.72066666666666L101.1923125,155.29783333333333L101.309921875,155.524L101.8240859375,155.01266666666666L101.97185156249999,155.76983333333334L102.1708828125,155.465L102.3638828125,154.25549999999998L102.651875,155.51416666666665L102.7227421875,154.92416666666668L102.7740078125,155.10116666666667L102.998671875,154.65866666666668L103.245953125,154.20633333333333L103.78122656250001,155.465L103.80384375,154.0785L103.9470859375,154.42266666666666L103.9666875,153.79333333333332L104.0345390625,155.30766666666668L104.102390625,153.695L104.554734375,154.25549999999998L105.3855390625,153.43933333333334L105.519734375,155.15033333333332L105.586078125,155.0815L105.63734375000001,153.79333333333332L105.97358593749999,154.32433333333333L105.98715625,154.0195L106.2148359375,154.80616666666666L106.3867265625,154.03916666666666L106.840578125,154.0195L106.85264062499999,154.65866666666668L107.07730468749999,153.21316666666667L107.5975,153.85233333333332L107.715109375,155.83866666666665L108.46147656250001,153.813L108.52028125,153.91133333333335L108.83842968750001,153.77366666666666L108.9288984375,153.26233333333334L109.1671328125,153.36066666666667L109.36465625000001,153.76383333333334L109.406875,153.23283333333333L109.4898046875,154.0785L109.7913671875,153.59666666666666L109.982859375,152.7805L109.99793749999999,155.00283333333334L110.2150625,153.17383333333333L110.43218750000001,153.695L110.5301953125,153.15416666666667L110.6839921875,152.88866666666667L111.0338046875,153.35083333333333L112.03046875000001,153.1935L112.0500703125,153.6655L112.727078125,151.97416666666666L113.06030468750001,150.67616666666666L113.4915390625,154.08833333333334L113.79159375,152.35766666666666L113.8986484375,152.62316666666666L114.7581015625,153.08533333333332L115.1712421875,153.27216666666666L115.5391484375,152.58383333333333L115.67183593749999,152.90833333333333L115.9372109375,153.9605L116.161875,152.64283333333333L116.17996875,152.47566666666665L116.18147656250001,152.53466666666668L116.2508359375,151.29566666666668L116.261390625,153.12466666666666L116.3186875,153.26233333333334L116.918796875,151.59066666666666L116.958,153.47866666666667L117.105765625,153.26233333333334L117.1585390625,152.94766666666666L117.24146875000001,151.84633333333335L118.23511718750001,152.102L118.41303906249999,152.90833333333333L118.5608046875,152.96733333333333L118.6211171875,152.81L118.6784140625,152.55433333333335L118.9407734375,152.88866666666667L119.1156796875,153.08533333333332L119.1428203125,153.67533333333333L119.3599453125,153.53766666666667L119.5800859375,153.1345L119.62682812499999,153.2525L119.9178359375,153.23283333333333L120.49834375,153.52783333333332L120.62650781250001,152.928L120.8858515625,152.90833333333333L120.93259375000001,153.164L120.9552109375,153.695L121.0698046875,153.56716666666665L121.10146875,152.84933333333333L121.53722656250001,152.97716666666668L121.5402421875,153.47866666666667L121.60507812499999,152.71166666666667L121.743796875,153.32133333333334L121.8146640625,153.2525L121.9684609375,153.1935L122.24891406249999,153.44916666666666L122.352953125,153.4885L122.5565078125,153.636L122.7103046875,153.636L122.732921875,153.62616666666668L122.75403125000001,153.94083333333333L122.9786953125,153.79333333333332L123.24256249999999,153.931L123.3043828125,153.9015L123.6421328125,152.76083333333332L123.655703125,153.43933333333334L124.4985703125,152.928L124.560390625,153.58683333333335L124.80164062499999,153.4295L124.976546875,153.813L125.21478125,153.30166666666668L125.3308828125,153.5475L125.4213515625,153.36066666666667L125.5932421875,153.91133333333335L125.69577343750001,153.695L125.76211718750001,153.65566666666666L125.7892578125,153.27216666666666L125.8133828125,153.518L125.87821875,153.76383333333334L125.90535937499999,153.77366666666666L126.004875,153.29183333333333L126.044078125,153.82283333333334L126.1692265625,153.85233333333332L126.77687499999999,153.95066666666668L127.226203125,153.47866666666667L127.4086484375,153.70483333333334L127.8263125,153.4885L128.1625546875,153.518L128.37515625,153.105L128.417375,153.67533333333333L128.4460234375,153.59666666666666L128.45959375,153.53766666666667L128.6269609375,153.89166666666665L128.824484375,153.695L128.899875,153.754L129.3265859375,153.91133333333335L129.44871875,153.7835L129.55728125,153.68516666666667L130.0141484375,153.59666666666666L130.80575000000002,153.931L131.1314375,153.7835L131.6576640625,153.577L132.1311171875,153.7245L132.2607890625,153.24266666666668L132.5593359375,153.86216666666667L132.5623515625,153.65566666666666L132.6377421875,153.47866666666667L132.78550781250001,153.459L132.8910546875,153.4885L132.9724765625,153.56716666666665L133.1835703125,153.49833333333333L133.293640625,153.53766666666667L133.53338281249998,153.47866666666667L133.75201562499998,153.636L133.76106249999998,153.58683333333335L133.8560546875,153.5475L133.878671875,153.83266666666668L133.93596875,153.68516666666667L133.957078125,153.3705L134.2661796875,153.65566666666666L134.4606875,153.046L135.05778125,152.9575L135.1075390625,153.00666666666666L136.9214375,152.81983333333335L137.3330703125,152.46583333333334L138.341796875,151.87583333333333L138.7293046875,151.49233333333333L138.794140625,151.7775L138.8348515625,151.07933333333332L139.59177343750002,150.804L143.7201640625,146.16266666666667L147.3660546875,143.49783333333335L147.68420312499998,142.74066666666667L150.52039843749998,141.82616666666667L150.7978359375,141.1575L151.284859375,142.00316666666666L176.2044765625,125.24716666666667L179.63776562500001,114.83366666666666L187.050171875,105.70833333333333L196.27496875,115.75800000000001L196.9700703125,111.5985L197.11934374999998,141.305L198.913640625,75.53966666666668L200.88133593749998,96.47483333333334L224.5555,63.40533333333333L224.6414453125,62.33349999999999L225.04403125000002,63.22833333333334L225.1028359375,73.46483333333333L225.9049921875,74.54650000000001L226.1040234375,64.70333333333333L226.20052343749998,72.84533333333333L226.28797656249998,72.16683333333333L226.7403203125,64.59516666666666L228.57382031249998,72.88466666666667L255.92403124999998,95.40299999999999L261.84671875,39.31366666666668L261.89496875,42.499666666666684L261.94321874999997,60.170166666666674L262.03971874999996,63.37583333333333L262.08796875,36.45216666666667L262.13621875,38.763000000000005L262.18446875,35.783500000000004L262.23271875,36.196500000000015L262.28096875,75.08733333333332L262.32921875,72.94366666666666L262.37746875,37.30766666666665L262.42571875,36.855333333333334L262.57046875,62.087666666666664L262.66696875,35.508166666666654L262.71521875,63.31683333333335L262.90821875,62.451499999999996L262.95646875,36.806166666666684L263.00471875,38.69416666666666L263.10121875,37.553499999999985L263.14946875,76.00183333333334L263.29421875,37.1995L263.43896875,62.53016666666667L263.53546875,63.61183333333334L263.72846875,37.828833333333336L263.77671875,39.07766666666666L263.82496875,36.943833333333345L263.87321875,37.28800000000001L264.01796874999997,39.36283333333333L264.11446875,35.80316666666667L264.16271875,63.159499999999994L264.21096875,38.75316666666669L264.25921875,61.97949999999999L264.30746875,38.80233333333334L264.40396875,36.07849999999999L264.45221875,38.674499999999995L264.50046875,39.795500000000004" style="fill: none;" fill="none"></path></g></g></g></g></g></g><g transform="translate(58, 177)" clip-path="url(#clip_1)"><clipPath id="clip_1"><rect width="271" height="23"></rect></clipPath><g><g><line x1="0" y1="0" x2="0" y2="5" style="visibility: inherit;" fill="rgb(0, 0, 0)" stroke="rgb(204, 204, 204)" stroke-width="1px"></line><line x1="30.15625" y1="0" x2="30.15625" y2="5" style="visibility: inherit;" fill="rgb(0, 0, 0)" stroke="rgb(204, 204, 204)" stroke-width="1px"></line><line x1="60.3125" y1="0" x2="60.3125" y2="5" style="visibility: inherit;" fill="rgb(0, 0, 0)" stroke="rgb(204, 204, 204)" stroke-width="1px"></line><line x1="90.46875" y1="0" x2="90.46875" y2="5" style="visibility: inherit;" fill="rgb(0, 0, 0)" stroke="rgb(204, 204, 204)" stroke-width="1px"></line><line x1="120.625" y1="0" x2="120.625" y2="5" style="visibility: inherit;" fill="rgb(0, 0, 0)" stroke="rgb(204, 204, 204)" stroke-width="1px"></line><line x1="150.78125" y1="0" x2="150.78125" y2="5" style="visibility: inherit;" fill="rgb(0, 0, 0)" stroke="rgb(204, 204, 204)" stroke-width="1px"></line><line x1="180.9375" y1="0" x2="180.9375" y2="5" style="visibility: inherit;" fill="rgb(0, 0, 0)" stroke="rgb(204, 204, 204)" stroke-width="1px"></line><line x1="211.09375" y1="0" x2="211.09375" y2="5" style="visibility: inherit;" fill="rgb(0, 0, 0)" stroke="rgb(204, 204, 204)" stroke-width="1px"></line><line x1="241.25" y1="0" x2="241.25" y2="5" style="visibility: inherit;" fill="rgb(0, 0, 0)" stroke="rgb(204, 204, 204)" stroke-width="1px"></line><line x1="271.40625" y1="0" x2="271.40625" y2="5" style="visibility: inherit;" fill="rgb(0, 0, 0)" stroke="rgb(204, 204, 204)" stroke-width="1px"></line></g><g transform="translate(0, 8)"><text x="0" y="0" dx="0em" dy="0.95em" style="text-anchor: middle; visibility: hidden; font-family: &quot;Helvetica Neue&quot;, sans-serif; font-size: 12px; font-weight: 200;" fill="rgb(50, 49, 63)" stroke="none" stroke-width="1px">-20k</text><text x="30.15625" y="0" dx="0em" dy="0.95em" style="text-anchor: middle; visibility: inherit; font-family: &quot;Helvetica Neue&quot;, sans-serif; font-size: 12px; font-weight: 200;" fill="rgb(50, 49, 63)" stroke="none" stroke-width="1px">0</text><text x="60.3125" y="0" dx="0em" dy="0.95em" style="text-anchor: middle; visibility: hidden; font-family: &quot;Helvetica Neue&quot;, sans-serif; font-size: 12px; font-weight: 200;" fill="rgb(50, 49, 63)" stroke="none" stroke-width="1px">20k</text><text x="90.46875" y="0" dx="0em" dy="0.95em" style="text-anchor: middle; visibility: inherit; font-family: &quot;Helvetica Neue&quot;, sans-serif; font-size: 12px; font-weight: 200;" fill="rgb(50, 49, 63)" stroke="none" stroke-width="1px">40k</text><text x="120.625" y="0" dx="0em" dy="0.95em" style="text-anchor: middle; visibility: hidden; font-family: &quot;Helvetica Neue&quot;, sans-serif; font-size: 12px; font-weight: 200;" fill="rgb(50, 49, 63)" stroke="none" stroke-width="1px">60k</text><text x="150.78125" y="0" dx="0em" dy="0.95em" style="text-anchor: middle; visibility: inherit; font-family: &quot;Helvetica Neue&quot;, sans-serif; font-size: 12px; font-weight: 200;" fill="rgb(50, 49, 63)" stroke="none" stroke-width="1px">80k</text><text x="180.9375" y="0" dx="0em" dy="0.95em" style="text-anchor: middle; visibility: hidden; font-family: &quot;Helvetica Neue&quot;, sans-serif; font-size: 12px; font-weight: 200;" fill="rgb(50, 49, 63)" stroke="none" stroke-width="1px">100k</text><text x="211.09375" y="0" dx="0em" dy="0.95em" style="text-anchor: middle; visibility: inherit; font-family: &quot;Helvetica Neue&quot;, sans-serif; font-size: 12px; font-weight: 200;" fill="rgb(50, 49, 63)" stroke="none" stroke-width="1px">120k</text><text x="241.25" y="0" dx="0em" dy="0.95em" style="text-anchor: middle; visibility: hidden; font-family: &quot;Helvetica Neue&quot;, sans-serif; font-size: 12px; font-weight: 200;" fill="rgb(50, 49, 63)" stroke="none" stroke-width="1px">140k</text><text x="271.40625" y="0" dx="0em" dy="0.95em" style="text-anchor: middle; visibility: hidden; font-family: &quot;Helvetica Neue&quot;, sans-serif; font-size: 12px; font-weight: 200;" fill="rgb(50, 49, 63)" stroke="none" stroke-width="1px">160k</text></g><line x1="0" y1="0" x2="271.40625" y2="0" fill="rgb(0, 0, 0)" stroke="rgb(204, 204, 204)" stroke-width="1px"></line></g></g></g></g></svg>