<svg viewBox="0 0 330 200" xmlns="http://www.w3.org/2000/svg"><g><g><g><g><g><line x1="68.3125" y1="177" x2="63.3125" y2="177" style="visibility: inherit;" fill="rgb(0, 0, 0)" stroke="rgb(204, 204, 204)" stroke-width="1px"></line><line x1="68.3125" y1="154.875" x2="63.3125" y2="154.875" style="visibility: inherit;" fill="rgb(0, 0, 0)" stroke="rgb(204, 204, 204)" stroke-width="1px"></line><line x1="68.3125" y1="132.75" x2="63.3125" y2="132.75" style="visibility: inherit;" fill="rgb(0, 0, 0)" stroke="rgb(204, 204, 204)" stroke-width="1px"></line><line x1="68.3125" y1="110.625" x2="63.3125" y2="110.625" style="visibility: inherit;" fill="rgb(0, 0, 0)" stroke="rgb(204, 204, 204)" stroke-width="1px"></line><line x1="68.3125" y1="88.5" x2="63.3125" y2="88.5" style="visibility: inherit;" fill="rgb(0, 0, 0)" stroke="rgb(204, 204, 204)" stroke-width="1px"></line><line x1="68.3125" y1="66.375" x2="63.3125" y2="66.375" style="visibility: inherit;" fill="rgb(0, 0, 0)" stroke="rgb(204, 204, 204)" stroke-width="1px"></line><line x1="68.3125" y1="44.25" x2="63.3125" y2="44.25" style="visibility: inherit;" fill="rgb(0, 0, 0)" stroke="rgb(204, 204, 204)" stroke-width="1px"></line><line x1="68.3125" y1="22.125" x2="63.3125" y2="22.125" style="visibility: inherit;" fill="rgb(0, 0, 0)" stroke="rgb(204, 204, 204)" stroke-width="1px"></line><line x1="68.3125" y1="0" x2="63.3125" y2="0" style="visibility: inherit;" fill="rgb(0, 0, 0)" stroke="rgb(204, 204, 204)" stroke-width="1px"></line></g><g transform="translate(58.3125, 0)"><text x="0" y="177" dx="0em" dy="0.3em" style="text-anchor: end; visibility: hidden; font-family: &quot;Helvetica Neue&quot;, sans-serif; font-size: 12px; font-weight: 200;" fill="rgb(50, 49, 63)" stroke="none" stroke-width="1px">-500</text><text x="0" y="154.875" dx="0em" dy="0.3em" style="text-anchor: end; visibility: inherit; font-family: &quot;Helvetica Neue&quot;, sans-serif; font-size: 12px; font-weight: 200;" fill="rgb(50, 49, 63)" stroke="none" stroke-width="1px">0</text><text x="0" y="132.75" dx="0em" dy="0.3em" style="text-anchor: end; visibility: hidden; font-family: &quot;Helvetica Neue&quot;, sans-serif; font-size: 12px; font-weight: 200;" fill="rgb(50, 49, 63)" stroke="none" stroke-width="1px">500</text><text x="0" y="110.625" dx="0em" dy="0.3em" style="text-anchor: end; visibility: inherit; font-family: &quot;Helvetica Neue&quot;, sans-serif; font-size: 12px; font-weight: 200;" fill="rgb(50, 49, 63)" stroke="none" stroke-width="1px">1e+3</text><text x="0" y="88.5" dx="0em" dy="0.3em" style="text-anchor: end; visibility: hidden; font-family: &quot;Helvetica Neue&quot;, sans-serif; font-size: 12px; font-weight: 200;" fill="rgb(50, 49, 63)" stroke="none" stroke-width="1px">1.5e+3</text><text x="0" y="66.375" dx="0em" dy="0.3em" style="text-anchor: end; visibility: inherit; font-family: &quot;Helvetica Neue&quot;, sans-serif; font-size: 12px; font-weight: 200;" fill="rgb(50, 49, 63)" stroke="none" stroke-width="1px">2e+3</text><text x="0" y="44.25" dx="0em" dy="0.3em" style="text-anchor: end; visibility: hidden; font-family: &quot;Helvetica Neue&quot;, sans-serif; font-size: 12px; font-weight: 200;" fill="rgb(50, 49, 63)" stroke="none" stroke-width="1px">2.5e+3</text><text x="0" y="22.125" dx="0em" dy="0.3em" style="text-anchor: end; visibility: inherit; font-family: &quot;Helvetica Neue&quot;, sans-serif; font-size: 12px; font-weight: 200;" fill="rgb(50, 49, 63)" stroke="none" stroke-width="1px">3e+3</text><text x="0" y="0" dx="0em" dy="0.3em" style="text-anchor: end; visibility: hidden; font-family: &quot;Helvetica Neue&quot;, sans-serif; font-size: 12px; font-weight: 200;" fill="rgb(50, 49, 63)" stroke="none" stroke-width="1px">3.5e+3</text></g><line x1="68.3125" y1="0" x2="68.3125" y2="177" fill="rgb(0, 0, 0)" stroke="rgb(204, 204, 204)" stroke-width="1px"></line></g></g><g transform="translate(68, 0)" clip-path="url(#clip_0)"><clipPath id="clip_0"><rect width="261" height="177"></rect></clipPath><g><g><g><line x1="0" y1="0" x2="0" y2="177" fill="rgb(0, 0, 0)" stroke="rgb(60, 60, 60)" stroke-width="1px" opacity="0.25"></line><line x1="32.7109375" y1="0" x2="32.7109375" y2="177" fill="rgb(0, 0, 0)" stroke="rgb(60, 60, 60)" stroke-width="1px" opacity="0.25"></line><line x1="65.421875" y1="0" x2="65.421875" y2="177" fill="rgb(0, 0, 0)" stroke="rgb(60, 60, 60)" stroke-width="1px" opacity="0.25"></line><line x1="98.1328125" y1="0" x2="98.1328125" y2="177" fill="rgb(0, 0, 0)" stroke="rgb(60, 60, 60)" stroke-width="1px" opacity="0.25"></line><line x1="130.84375" y1="0" x2="130.84375" y2="177" fill="rgb(0, 0, 0)" stroke="rgb(60, 60, 60)" stroke-width="1px" opacity="0.25"></line><line x1="163.5546875" y1="0" x2="163.5546875" y2="177" fill="rgb(0, 0, 0)" stroke="rgb(60, 60, 60)" stroke-width="1px" opacity="0.25"></line><line x1="196.265625" y1="0" x2="196.265625" y2="177" fill="rgb(0, 0, 0)" stroke="rgb(60, 60, 60)" stroke-width="1px" opacity="0.25"></line><line x1="228.9765625" y1="0" x2="228.9765625" y2="177" fill="rgb(0, 0, 0)" stroke="rgb(60, 60, 60)" stroke-width="1px" opacity="0.25"></line><line x1="261.6875" y1="0" x2="261.6875" y2="177" fill="rgb(0, 0, 0)" stroke="rgb(60, 60, 60)" stroke-width="1px" opacity="0.25"></line></g><g><line x1="0" y1="177" x2="261.6875" y2="177" fill="rgb(0, 0, 0)" stroke="rgb(60, 60, 60)" stroke-width="1px" opacity="0.25"></line><line x1="0" y1="154.875" x2="261.6875" y2="154.875" fill="rgb(0, 0, 0)" stroke="rgb(60, 60, 60)" stroke-width="1px" opacity="0.25"></line><line x1="0" y1="132.75" x2="261.6875" y2="132.75" fill="rgb(0, 0, 0)" stroke="rgb(60, 60, 60)" stroke-width="1px" opacity="0.25"></line><line x1="0" y1="110.625" x2="261.6875" y2="110.625" fill="rgb(0, 0, 0)" stroke="rgb(60, 60, 60)" stroke-width="1px" opacity="0.25"></line><line x1="0" y1="88.5" x2="261.6875" y2="88.5" fill="rgb(0, 0, 0)" stroke="rgb(60, 60, 60)" stroke-width="1px" opacity="0.25"></line><line x1="0" y1="66.375" x2="261.6875" y2="66.375" fill="rgb(0, 0, 0)" stroke="rgb(60, 60, 60)" stroke-width="1px" opacity="0.25"></line><line x1="0" y1="44.25" x2="261.6875" y2="44.25" fill="rgb(0, 0, 0)" stroke="rgb(60, 60, 60)" stroke-width="1px" opacity="0.25"></line><line x1="0" y1="22.125" x2="261.6875" y2="22.125" fill="rgb(0, 0, 0)" stroke="rgb(60, 60, 60)" stroke-width="1px" opacity="0.25"></line><line x1="0" y1="0" x2="261.6875" y2="0" fill="rgb(0, 0, 0)" stroke="rgb(60, 60, 60)" stroke-width="1px" opacity="0.25"></line></g></g></g><g><g><line x1="0" y1="154.875" x2="261.6875" y2="154.875" fill="rgb(0, 0, 0)" stroke="rgb(153, 153, 153)" stroke-width="1.5px"></line></g></g><g><g><line x1="32.7109375" y1="0" x2="32.7109375" y2="177" fill="rgb(0, 0, 0)" stroke="rgb(153, 153, 153)" stroke-width="1.5px"></line></g></g><g><g><g><g><g><path stroke="rgb(255, 112, 67)" stroke-width="2px" d="M32.781266015625,154.875L32.985709375,154.875L33.087113281250005,153.2421586715867L33.095291015624994,152.43024861878453L33.15907734375,151.94668323117872L33.487822265625,151.62726065447467L33.589226171875,151.40160344552294L33.6595546875,151.23451851867915L33.671003515625,151.10645048757598L33.749509765625,151.00566302282863L33.770771875,150.92468494015026L33.880353515624996,150.8585332568964L34.034094921875,150.80375638543057L34.371017578125006,150.75788739259545L34.89275703125,149.04743081144386L34.97780546875,147.59015080257507L34.989254296874996,146.34017498382227L35.061218359375,145.2617990416931L35.4782828125,144.3268169165494L35.548611328125006,143.51265174733751L35.55351796875,142.80102061328077L35.78249453125,142.17696319308237L35.84791640625,141.62812355639875L36.042546484375,141.14421123621688L36.309140625000005,140.7165913683299L36.4857796875,140.3379691392235L36.61989453125,141.41160379836776L36.776907031250005,142.36535791444487L36.778542578125,143.21378408765995L37.104016406250004,143.96943875552063L37.681364453125,144.6432002573874L37.995389453125,143.869824969519L38.021558203125,143.1789936042333L38.11805546875,142.56141770478263L38.629981640625,143.3705292546053L38.633252734375,144.094792828309L38.715030078125004,144.74346575199706L38.83115390625,145.32472601620947L38.950548828125,145.8458113041932L38.96199765625,146.31313767008353L39.182796484375004,146.73240128079152L39.77322890625,147.10866598762763L39.908979296875,147.44643898193723L40.059449609375,147.74973638225492L40.08725390625,148.0221402752836L40.360390234375,148.2668484715549L40.543571484375,148.4867180252978L40.842876562499995,148.68430339633167L41.109470703125,148.8618899915782L41.454571093750005,149.02152370871403L41.47746875,149.16503700960547L42.0728078125,149.29407197257126L42.303419921875,149.4101007071194L42.373748437500005,149.51444346014878L42.509498828125,149.6082846967326L42.852963671874996,149.69268739993998L42.8840390625,149.76860580144046L42.99852734375,149.83689672684744L43.464658203125005,149.89832971606756L43.669101562499996,149.95359605864766L43.688728125,150.00331686670668L43.922611328125,150.0480502930426L44.105792578125,150.08829798904551L44.4149109375,150.12451088581466L44.786180078125,150.1570943721118L44.913752734375,150.18641293427262L44.918659375,150.2127943157603L44.997165625,150.23653324753013L45.466567578125,148.92946994712534L45.52381171875,149.0816182853281L45.782228124999996,149.21853366623645L45.904894140625004,149.34174283181108L46.091346484374995,149.45261919428103L46.15840390625,149.5523982938728L46.3906515625,149.64219168700703L46.611450390624995,148.39505723545858L46.627805859375,147.27271515645987L46.77991171875,147.59052936217174L47.232958203125,147.87654585629977L47.326184375000004,148.13394750636672L47.42104609375,148.36559830454325L47.857737109375,148.57407536709584L48.197930859375,148.76169771260527L48.338587890625,148.93055214512816L48.359849999999994,149.0825165350866L48.574106640625,149.2192807607671L48.9159359375,149.34236554651835L49.519452734374994,149.4531394097173L49.720625,149.55283390703713L49.85146875,149.64255735122745L49.921797265624996,148.39571613315303L50.06081875,147.2735752796491L50.343768359375,147.5912353923943L50.543305078125,147.87712614196255L50.54821171875,148.1344251015784L50.647980078124995,148.3659919661193L50.661064453125,148.57440036294847L50.736299609375,148.7619664772936L50.870414453125,148.93077481154813L51.573699609375005,149.08270136577514L51.629308203125,149.21943449783856L51.82393828125,148.01496513421782L51.94496875,146.93094763068348L52.28843359375,147.2828590003513L52.296611328124996,147.59957806781415L52.607365234374996,147.8846242846928L52.813444140624995,148.14116511537847L53.436587499999995,148.37205124374904L53.77351015625,148.57984825769478L54.030291015625004,147.439352869356L54.07445078125,146.41290902675598L54.867691015625,145.4891111940044L54.95110390625,145.98520342399607L54.988721484375,146.43168579460018L55.299475390625,146.83351941267037L55.971685156250004,145.86766271757176L56.091080078125,146.32589847565822L56.163044140625,146.7383102722642L56.34131875,147.1094805768158L56.65370820312501,147.4435335978736L56.702774609375,147.74418111186455L56.8843203125,148.0147637084381L57.03806171875,148.25828791087957L58.019389843750005,147.14995677156122L58.0749984375,146.1524591923393L58.456080859375,145.25471173243272L58.495333984374994,145.7742413616229L59.071046484374996,146.24181787543148L59.28857421875,146.6626366143646L59.40633359375,147.0413733793738L60.20448046875,146.0547350416051L60.28298671875,145.16676072758145L60.624816015625,145.6950850884883L60.67551796875,146.17057693090808L61.03533828125,146.5985195223448L61.0713203125,146.9836678005776L61.404971875,147.3303012071983L61.427869531249996,147.642271237688L62.890048437500006,147.9230442363989L63.977687109375005,146.84823939078964L64.06437109375,145.8809151099155L64.6564390625,145.0103233220699L64.83471367187501,145.5542911455498L64.857611328125,146.0438621571012L64.98354843749999,146.48447604353723L65.171636328125,146.8810285219219L65.4153328125,147.2379257367478L65.51019453125,147.55913321735767L65.524914453125,147.84821993959247L65.64921601562499,148.10839798124937L65.822583984375,147.01505804842242L65.83566835937499,146.03105213447154L65.9517921875,145.14544683264637L66.143151171875,144.34840207779555L66.3050703125,143.63106181203122L66.306705859375,142.9854555838604L66.368856640625,142.40440998743054L66.69760156250001,141.881468957872L66.70250820312499,141.41082203712423L66.821903125,142.3147398765568L67.18990117187501,143.12826592384857L67.294576171875,143.86043935977114L67.43850429687501,143.1918954005314L67.58079687499999,142.5902058416355L67.69855625,142.04868524220933L67.9144484375,141.5613167056257L68.446001171875,141.12268502504932L69.09531328125,140.72791651443322L69.23433476562501,140.37262485641983L69.280130078125,140.0528623654561L69.466582421875,139.7650761245999L70.068463671875,139.5060685086483L70.55585664062501,140.6004616710613L70.572212109375,141.58541551471023L70.644176171875,142.4718739719508L70.686700390625,143.2696865818121L70.79791757812501,143.98771792934656L70.92058359375,144.6339461410416L71.02852968750001,145.2155515306875L71.213346484375,144.41149637295283L71.425967578125,145.01534673881127L71.44395859375,145.55881206748467L71.47666953125,144.7204308571895L71.864294140625,145.293387773652L72.2061234375,145.80904899805378L72.426922265625,144.9456440955857L72.430193359375,144.16857968387035L72.492344140625,143.46922171373632L72.52996171874999,142.83979954094764L72.98137265625,142.27331958570667L73.14165625000001,141.76348762620756L73.154740625,141.3046388628348L73.43932578124999,140.89167497594218L73.493298828125,140.52000747785456L73.614329296875,140.18550672966944L74.01503828125,139.88445605637878L74.14424648437499,139.61351045047869L74.24074375000001,139.3696594052184L74.929308984375,139.15019346452453L74.986553125,138.95267411793273L75.10758359375001,140.1024067068695L75.344737890625,141.13716603677386L75.4903015625,142.06844943357544L75.7323625,141.5791044899914L76.005498828125,141.1386940408088L76.54032265625,142.06982463707703L76.541958203125,142.9078421736521L76.59266015624999,143.66205795651595L77.104586328125,143.01335216068705L77.12421289062499,142.4295169444747L77.130755078125,141.9040652499109L77.132390625,141.4311587248256L77.320478515625,142.33304285250478L77.69828984375,141.81723856717105L77.8585734375,141.3530147103865L77.91581757812499,140.93521323929323L78.22166484375,140.55919191531967L78.37049960937499,140.22077272375185L79.224255078125,141.24369545147417L79.3959875,142.1643259064057L80.094366015625,141.66539331572662L80.136890234375,141.21635398412275L80.244836328125,140.81221858568523L80.47217734375,140.44849672709623L80.57358125,140.12114705437003L80.91377499999999,141.1540323489801L80.93994375000001,142.08362911412024L81.06097421875,141.5927662026901L81.1427515625,141.1509895824064L81.49930078125,142.08089062419356L81.78715703125,142.91780156179675L81.82968125,143.67102140563532L82.063564453125,144.34891926508655L82.1764171875,144.95902733858986L82.31380312499999,144.18062460471714L82.54768632812501,143.4800621442343L82.779933984375,144.17705592982082L82.93367539062501,144.80435033684682L82.956573046875,145.36891530316868L84.078558203125,145.87702377285711L84.1390734375,146.3343213955757L84.552866796875,145.41838925601039L84.853807421875,144.5940503304031L84.945398046875,145.1796452973668L85.056615234375,145.70668076763334L85.38863124999999,146.18101269087265L85.7615359375,146.6079114217875L85.936539453125,145.66462027960452L86.12462734374999,144.81565825164063L86.296359765625,144.0515924264738L86.512251953125,143.36393318382417L86.52533632812501,142.74503986543994L86.741228515625,143.515535878898L86.97838281249999,144.20898229100982L86.98165390625,144.8330840619102L87.128853125,144.0672756557177L87.24334140625,143.37804809014472L87.29895,142.75774328112928L87.3447453125,142.19946895301558L87.876298046875,141.69702205771338L87.89101796875,141.24481985194151L87.91064453125,140.83783786674695L87.941719921875,140.4715540800719L87.96952421875,140.14189867206446L88.05784375,139.84520880485778L88.0774703125,139.57818792437183L88.11835898437499,139.3378691319345L88.17887421875,139.1215822187409L88.380046484375,138.92692399686675L88.55177890625001,138.75173159717997L88.913234765625,138.5940584374619L88.94758125,138.45215259371568L89.17982890625001,138.32443733434408L89.300859375,138.20949360090964L89.6018,138.10604424081865L90.50135078125001,139.34043981673707L90.535697265625,140.4513958350636L90.548781640625,141.45125625155742L90.57331484375,142.35113062640184L90.7466828125,141.83351756376157L90.89388203125,141.36766580738535L91.2177203125,140.94839922664676L91.22916914062499,140.57105930398205L91.34529296875,140.2314533735838L91.51538984375,139.9258080362254L91.543194140625,139.65072723260283L91.65277578125,139.40315450934253L91.99460507812499,139.18033905840826L92.0420359375,138.97980515256742L92.62101953125,140.12682463731073L92.6700859375,139.83164217357967L92.846725,139.56597795622167L92.982475390625,139.3268801605995L93.0757015625,139.11169214453955L93.55818789062499,138.91802293008558L93.97198125,138.74372063707702L94.02758984375,138.5868485733693L94.477365234375,139.7731637160324L94.660546484375,139.51334734442915L95.177379296875,140.60701260998627L95.581359375,141.59131134898766L95.607528125,142.4771802140889L96.04094804687499,143.27446219268L96.237213671875,143.99201597341204L96.46782578125,143.3103143760708L96.983023046875,142.69678293846374L97.64705507812499,142.14460464461735L97.692850390625,141.64764418015562L97.77626328125,141.20037976214005L97.934911328125,142.12534178592605L97.98561328125,142.95780760733345L97.993791015625,143.70702684660012L98.167158984375,144.38132416194009L98.61856992187501,144.9881917457461L98.95222148437499,145.53437257117147L99.192646875,146.02593531405435L99.21881562499999,146.4683417826489L99.2253578125,146.86650760438403L99.279330859375,147.22485684394562L99.312041796875,147.54737115955106L99.43143671874999,147.83763404359595L99.835416796875,148.09887063923634L100.169068359375,147.00648357531273L100.213228125,146.02333521778144L100.32771640625,145.1385016960033L100.6515546875,145.66965152640296L100.67772343749999,146.14768637376267L101.62470507812499,145.2504177363864L102.141537890625,144.44287596274776L102.170977734375,143.71608836647297L102.514442578125,144.38947952982568L103.01001328125,143.66803157684313L103.49577070312499,143.0187284191588L103.888301953125,142.4343555772429L103.94554609375001,141.90842001951864L104.033865625,141.43507801756678L104.086203125,141.00907021581008L104.2039625,140.62566319422908L104.248122265625,140.28059687480618L104.254664453125,139.97003718732554L104.35770390625001,139.690533468593L104.66518671875,139.4389801217337L104.79603046875,139.21258210956032L105.003744921875,139.0088238986043L105.01519375,138.82544150874386L105.08715781250001,138.66039735786947L105.17384179687501,138.51185762208252L105.63343046874999,138.37817185987427L106.011241796875,138.25785467388684L106.253302734375,138.14956920649817L106.819201953125,138.05211228584835L106.833921875,137.9644010572635L106.920605859375,137.88546095153717L107.1414046875,137.81441485638345L107.388372265625,139.0779733707451L108.00170234375,138.88767603367057L108.467833203125,138.71640843030355L108.494001953125,139.2260175872732L108.62321015625,139.02091582854587L108.76386718750001,138.8363242456913L109.97744296875,138.67019182112216L110.07557578125,138.52067263900992L110.10828671875,138.38610537510894L110.54007109375,138.92874483759806L110.62675507812499,138.75337035383825L110.67745703125,138.59553331845441L110.73633671875,139.78097998660897L110.800123046875,139.52038198794807L111.025828515625,139.28584378915326L111.1321390625,140.40225941023795L111.16975664062501,141.40703346921413L111.343124609375,140.98383012229272L111.51485703125,141.93044711006345L111.5900921875,141.45490239905712L112.072578515625,141.0269121591514L112.599224609375,140.64172094323627L113.299238671875,140.29504884891264L113.428446875,141.31054396402138L113.63452578125,140.89698956761922L114.499730078125,140.5247906108573L114.581507421875,140.18981154977158L114.73361328125,139.88833039479442L114.75978203125001,139.61699735531496L114.80884843749999,139.37279761978348L114.928243359375,139.15301785780514L115.51867578125,138.95521607202463L115.8294296875,140.10469446482216L116.0911171875,139.81172501833993L116.344626953125,139.54805251650595L116.4967328125,139.31074726485537L116.586687890625,139.09717253836982L116.684820703125,138.90495528453283L117.35212382812499,138.73195975607956L117.430630078125,138.5762637804716L117.443714453125,138.43613740242444L117.685775390625,138.310023662182L117.76264609374999,138.19652129596378L117.87059218750001,138.09436916636741L118.14863515625,138.00243224973067L118.23859023437501,137.9196890247576L118.33835859375,137.84522012228183L118.595139453125,137.77819811005367L118.62457929687501,137.7178782990483L118.876453515625,137.66359046914346L119.242816015625,137.6147314222291L119.2967890625,137.5707582800062L119.547027734375,137.5311824520056L119.57156093750001,137.49556420680503L120.16199335937499,137.46350778612452L120.551253515625,137.43465700751207L120.56270234375,137.40869130676086L120.56924453125,137.38532217608477L120.57578671875001,137.3642899584763L120.80639882812501,137.34536096262866L120.878362890625,137.3283248663658L121.14986367187501,137.31299237972922L121.174396875,137.2991931417563L121.20874335937499,137.28677382758067L121.2332765625,137.2755964448226L121.42627109375,137.26553680034033L122.16226718749999,137.2564831203063L122.351990625,137.24833480827567L122.56461171875,137.2410013274481L122.63821132812501,137.2344011947033L122.98331171875,137.22846107523296L123.1566796875,137.22311496770968L123.16158632812501,137.2183034709387L123.204110546875,137.21397312384482L123.2548125,137.21007581146034L123.55575312500001,137.2065682303143L123.5688375,137.20341140728289L123.83379609375,137.2005702665546L123.920480078125,137.19801323989913L124.45203281250001,137.19571191590921L124.85437734375,137.1936407243183L125.1324203125,137.19177665188647L125.15531796875,137.19009898669782L125.29761054687499,137.18858908802804L125.59037343749999,137.18723017922525L125.644346484375,137.1860071613027L125.937109375,137.18490644517243L126.42777343750001,137.1839158006552L126.43758671875,137.1830242205897L126.730349609375,137.1822217985307L127.181760546875,137.18149961867763L128.056778125,137.18084965680987L128.293932421875,137.18026469112888L128.483655859375,137.179738222016L128.62267734375,137.1792643998144L128.75025,137.17883795983295L128.794409765625,137.17845416384966L128.8222140625,137.1781087474647L129.258905078125,137.17779787271823L129.641623046875,137.1775180854464L129.71849375,137.17726627690175L129.916394921875,137.1770396492116L130.256588671875,137.17683568429044L130.305655078125,137.17665211586137L130.41523671875,137.17648690427524L131.1381484375,137.1763382138477L131.14796171875,137.17620439246295L131.18394375,137.17608395321665L131.33114296875,137.175975557895L131.62227031249998,137.1758780021055L132.68046914062498,137.17579020189493L132.81621953125,137.17571118170545L132.932343359375,137.1756400635349L133.197301953125,137.17557605718142L133.354314453125,136.73301845146327L133.59310429687503,136.33471660631693L134.34382031250001,136.41874494568523L134.47466406249998,136.4943704511167L134.960421484375,136.56243340600506L135.0111234375,136.62369006540456L135.545947265625,136.6788210588641L135.791279296875,136.72843895297768L136.111846484375,136.7730950576799L136.337551953125,136.81328555191192L136.452040234375,136.84945699672073L136.45367578125,136.88201129704865L136.59106171875,136.76381012233037L136.84947812500002,136.80492911009733L137.16677421875,136.8419361990876L137.36794648437498,136.43274257917884L137.547856640625,136.50696832126096L137.75557109374998,136.57377148913486L138.2233375,136.19139434022136L138.23969296874998,136.28975490619922L138.51119375,135.9357794155793L138.84157421875003,136.05970147402138L139.111439453125,136.17123132661925L139.42382890624998,136.27160819395732L139.50069960937498,136.36194737456157L139.63645,136.44325263710545L139.75911601562498,136.5164273733949L139.80981796875,136.5822846360554L140.00608359375,136.64155617244987L140.07477656249998,136.69490055520487L140.18272265625,136.7429104996844L140.50656093749998,136.78611944971595L140.73880859375,136.82500750474435L141.14605976562498,136.8600067542699L141.716865625,136.89150607884292L141.9458421875,136.91985547095862L142.209165234375,136.94536992386276L142.254960546875,136.96833293147648L142.32856015624998,136.98899963832883L143.013854296875,137.00759967449596L143.069462890625,137.02433970704635L143.13324921875,137.03940573634173L144.359909375,137.05296516270755L144.38934921875,137.0651686464368L144.54799726562499,137.0761517817931L144.63141015625,137.08603660361382L144.767160546875,137.09493294325242L144.89473320312499,137.1029396489272L145.44918359375,137.11014568403448L145.54568085937498,137.116631115631L145.84498593749998,137.1224680040679L145.86788359375,137.1277212036611L146.30948125,137.132449083295L146.343827734375,137.1367041749655L146.648039453125,136.99303371245554L146.74126562499998,136.56873034120997L146.870473828125,136.62935730708898L147.0618328125,136.68392157638007L147.95647695312502,136.7330294187421L148.00717890625,136.77722647686787L148.149471484375,136.8170038291811L148.273773046875,136.85280344626295L148.6973796875,136.88502310163668L148.829858984375,136.914020791473L149.536415234375,136.9401187123257L149.742494140625,136.52110684109311L149.785018359375,136.58649615698383L149.974741796875,136.64534654128545L150.226616015625,136.69831188715688L150.318206640625,136.7459806984412L150.40161953125,136.7888826285971L150.43760156250002,136.82749436573738L150.491574609375,136.86224492916364L150.53246328125,136.8935204362473L150.92172343750002,136.92166839262254L150.95770546875,136.94700155336028L150.9609765625,136.96980139802426L151.12780234375,136.99032125822183L151.132708984375,137.00878913239964L151.384583203125,137.02541021915968L151.65444843749998,137.0403691972437L151.89978046875,137.05383227751935L152.12221484375002,137.06594904976743L152.4002578125,137.07685414479067L152.62759882812497,137.0866687303116L153.39794140625,137.09550185728045L153.406119140625,137.1034516715524L153.48298984375,137.11060650439714L153.58112265625,137.11704585395745L153.618740234375,137.1228412685617L153.7610328125,136.68555714170554L154.0488890625,136.29200142753496L154.060337890625,135.93780128478147L155.15778984374998,136.06152115630334L155.21666953125,135.730369040673L155.607565234375,135.43233213660568L155.6582671875,135.60659892294512L156.14566015625002,135.7634390306506L156.1751,135.90459512758554L156.30594375,136.031635614827L156.896376171875,136.14597205334428L157.105726171875,135.80637484800985L157.1760546875,135.94323736320888L157.37068476562501,135.623913626888L157.71905625,135.7790222641992L157.80246914062502,135.91862003777928L158.03798789062498,135.60175803400134L158.11485859375,135.75908223060122L158.16719609375,135.90067400754108L158.306217578125,135.585606606787L158.495941015625,135.74454594610827L158.50738984375,135.88759135149746L158.52538085937502,136.0163322163477L158.97352070312502,136.13219899471295L159.179599609375,135.79397909524164L159.51652226562499,135.9320811857175L159.7013390625,135.61387306714573L159.961391015625,135.32748576043116L160.12331015625,135.06973718438803L160.506028125,134.83776346594925L160.625423046875,125.77898711935431L160.71864921875,126.47608840741887L161.55277812499997,127.103479566677L161.6639953125,127.66813161000928L161.789932421875,128.17631844900836L161.812830078125,128.63368660410754L161.87661640624998,129.04531794369677L161.92895390625,129.4157861493271L162.42616015624998,129.74920753439437L162.604434765625,130.04928678095496L162.89719765625,130.31935810285947L163.248840234375,119.9424222925735L163.515434375,112.37318006331616L163.553051953125,105.56086205698453L163.607025,103.85477585128609L163.6135671875,102.31929826615747L163.719877734375,96.51236843954175L163.82618828125,91.28613159558756L164.194186328125,86.5825184360288L164.22035507812498,82.34926659242592L164.455873828125,87.38933993318334L164.498398046875,83.075405939865L164.55891328125,79.19286534587849L164.907284765625,73.92857881129066L165.185327734375,70.96072093016159L165.216403125,68.2896488371454L165.38322890625,65.88568395343088L165.81501328125,63.72211555808778L165.999830078125,61.774904002279L166.05707421875002,60.02241360205112L166.74891054687498,58.445172241845995L168.031179296875,57.02565501766141L168.086787890625,55.74808951589526L168.18655625000002,54.59828056430574L168.21599609375,53.56345250787517L168.58562968750002,52.63210725708764L168.670678125,51.79389653137888L168.8996546875,51.039506878240985L169.29709257812502,50.36055619041689L169.70925039062502,49.749500571375194L169.97257343750002,49.199550514237686L170.0510796875,48.7045954628139L170.36837578125002,48.2591359165325L170.42071328125002,47.85822232487925L170.742916015625,47.49740009239133L170.76744921875002,47.17266008315221L171.08147421875,45.11039407483699L171.220495703125,45.02435466735329L171.308815234375,44.94691920061797L171.43638789062499,44.877227280556156L171.76676835937502,44.81450455250052L171.81910585937501,44.758054097250465L171.87962109375002,44.707248687525436L172.01046484375,44.66152381877288L172.257432421875,44.620371436895596L172.564915234375,44.583334293206036L172.6156171875,44.55000086388543L172.669590234375,44.52000077749685L172.856042578125,44.49300069974717L172.95908203124998,44.46870062977246L173.34507109375,44.4468305667952L173.392501953125,44.427147510115674L174.10887148437502,44.40943275910411L174.41962539062501,44.39348948319369L174.43107421874998,44.379140534874324L174.645330859375,43.92372648138689L174.66659296875,43.51385383324819L174.74182812499998,43.14496844992337L174.78435234375002,42.81297160493105L175.01823554687502,42.95667444443794L175.64792109375,42.643506999994116L175.74114726562502,42.36165629999468L175.914515234375,42.55049066999524L176.02082578125,42.72044160299572L176.094425390625,42.87339744269613L176.36101953124998,41.241057698426516L176.79280390625001,41.54195192858387L176.86476796875002,41.37025673572549L177.252392578125,41.658231062152936L177.36197421875002,40.14740795593764L177.74305664062499,40.55766716034387L177.893526953125,40.48440044430947L177.97366875,40.41846039987854L178.148672265625,40.801614359890664L178.70475820312498,41.14645292390159L178.8437796875,40.57180763151143L178.8699484375,40.49712686836028L179.49472734375001,40.87241418152425L179.522531640625,41.210172763371816L179.70407734375,41.51415548703463L179.735152734375,41.34523993833116L179.86763203125003,41.63571594449803L179.9690359375,41.89714435004822L180.29941640625,42.13242991504339L180.64778789062498,42.34418692353904L181.668369140625,42.534768231185154L181.70108007812502,42.70629140806662L182.038002734375,41.090662267259944L182.32258789062502,41.40659604053397L182.567919921875,41.69093643648057L182.600630859375,41.94684279283254L182.6055375,42.177158513549244L182.70694140625,42.384442662194346L182.74455898437498,42.5709983959749L182.749465625,42.73889855637739L183.336626953125,42.890008700739656L183.37915117187498,43.02600783066569L183.68826953125,43.148407047599136L184.37519921875,43.25856634283923L184.471696484375,43.35770970855529L184.474967578125,43.44693873769978L184.52566953125,43.52724486392978L184.64179335937501,43.599520377536805L185.024511328125,43.22206833978311L185.183159375,42.882361505804795L185.58877500000003,43.019125355224304L186.29206015625,42.25721281970189L186.55374765625,42.456491537731694L187.07548710937502,42.635842383958504L187.14745117187502,42.797258145562665L187.33063242187498,41.17253233100638L187.736248046875,41.480279097905765L187.9112515625,41.75725118811516L188.13859257812499,42.006526069303646L188.18275234375002,42.23087346237327L188.390466796875,42.43278611613596L188.61453671875,42.172007504522355L188.70612734375,41.93730675407011L188.75846484375,42.16857607866308L188.874588671875,42.37671847079679L189.496096484375,42.12154662371711L189.64166015625,41.89189196134538L189.679277734375,41.685202765210846L190.21737265625,41.941682488689764L190.34821640625,42.1725142398208L190.600090625,42.380262815838705L190.706401171875,42.567236534254846L190.758738671875,42.73551288082936L191.390059765625,42.88696159274642L191.615765234375,43.02326543347178L191.730253515625,43.1459388901246L191.84474179687498,43.25634500111215L192.041007421875,43.35571050100094L192.112971484375,43.445139450900825L192.33540585937502,43.52562550581075L192.42863203125,43.598062955229665L192.574195703125,43.66325665970669L192.662515234375,43.72193099373604L192.79335898437498,43.77473789436243L192.973269140625,43.674764465033604L192.989624609375,43.732288018530255L193.2235078125,43.78405921667721L193.342902734375,43.83065329500951L193.65692773437502,43.87258796550853L193.771416015625,43.9103291689577L193.85155781249998,43.94429625206192L193.98567265625,43.974866626855714L194.229369140625,44.00237996417013L194.615358203125,44.02714196775315L194.72166875,44.049427770977815L195.459300390625,44.069484993880025L195.632668359375,44.087536494492014L195.635939453125,44.103782845042815L196.07753710937502,44.11840456053855L196.731755859375,42.3615641044847L197.06704296875,42.55040769403621L197.19298007812498,42.7203669246326L197.23059765624998,42.87333023216934L197.49555625000002,43.01099720895243L197.670559765625,41.36489748805718L197.76705703124998,39.88340773925145L197.78177695312502,38.55006696532632L197.89790078125,39.12006026879368L198.02056679687502,39.633054241914294L198.1563171875,40.09474881772289L198.285525390625,40.51027393595058L198.450715625,40.88424654235553L198.4834265625,41.22082188811996L198.607728125,41.52373969930798L198.70095429687498,40.026365729377176L198.7189453125,40.44872915643944L199.41241718749998,39.05885624079551L199.445128125,37.80797061671595L200.0404671875,38.009673555044344L200.3152390625,38.633706199539915L200.37084765625,39.19533557958593L200.42318515625,39.258302021627344L200.5115046875,39.7574718194646L200.65870390625,40.206724637518136L200.977635546875,40.611052173766325L201.0283375,40.97494695638969L201.118292578125,41.3024522607507L201.17553671875,41.59720703467565L201.1918921875,41.86248633120806L201.510823828125,40.33123769808725L201.69236953125,40.72311392827851L201.92952382812499,40.63330253545067L202.01947890625001,40.55247228190558L202.36621484375,40.92222505371504L202.7227640625,41.255002548343526L203.260858984375,41.112002293509164L203.355720703125,40.98330206415824L203.96087304687498,41.309971857742426L204.130969921875,41.60397467196819L204.15386757812502,41.868577204771356L204.18494296875,42.10671948429422L204.252000390625,42.32104753586478L204.274898046875,42.51394278227829L204.29943125,42.687548504050454L204.32069335937499,42.843793653645406L204.3844796875,41.214414288280864L204.4499015625,41.51797285945278L204.46462148437502,41.7911755735075L204.55784765625,42.03705801615678L204.59710078125,42.25835221454108L204.87514375,42.457516993086955L204.87841484375,42.63676529377827L205.154822265625,42.79808876440043L205.442678515625,42.94327988796039L205.59314882812498,43.07395189916434L205.710908203125,41.42155670924791L205.73380585937502,41.70440103832311L206.04946640625,41.95896093449082L206.424006640625,42.18806484104172L206.5172328125,42.39425835693754L206.718405078125,42.579832521243816L207.00626132812502,42.74684926911942L207.169816015625,42.89716434220745L207.33827734374998,43.03244790798669L207.88455,43.15420311718802L208.96564648437501,43.26378280546922L209.031068359375,43.36240452492228L209.08504140624999,43.45116407243006L209.38598203125,43.53104766518706L210.08599609375,43.602942898668346L210.310066015625,43.66764860880153L211.147466015625,43.72588374792136L211.382984765625,43.778295373129225L211.3846203125,43.82546583581632L211.47948203125,43.86791925223466L211.80659140625002,42.136127327011195L211.935799609375,40.57751459431006L212.33160195312502,40.944763134879054L212.72576875,41.27528682139115L212.93511875,41.57275813925202L212.98909179687502,41.84048232532683L213.123206640625,42.081434092794126L213.306387890625,41.855790683514726L213.404520703125,42.095211615163265L213.581159765625,40.5406904536469L213.640039453125,39.14162140828222L213.67111484375,37.88245926745398L213.82812734375,37.41296334070856L213.90009140625,38.096667006637716L214.575572265625,36.94200030597395L214.6426296875,37.672800275376545L214.7865578125,38.33052024783888L215.14964921875,37.152468223054996L215.20852890625002,37.86222140074949L215.399887890625,38.50099926067455L215.70900625000002,39.07589933460707L215.75480156249998,37.82330940114636L216.662530078125,38.46597846103174L216.979826171875,39.04438061492854L217.0436125,39.564942553435685L217.369086328125,40.03344829809211L218.056016015625,40.455103468282886L218.286628125,39.064593121454635L218.49270703125,39.583133809309146L218.74131015625,40.04982042837824L219.13220585937498,40.46983838554041L219.642496484375,40.847854546986355L219.9156328125,41.18806909228772L219.92871718749998,41.494262183058936L220.31470625,39.99983596475303L220.506065234375,40.424852368277726L220.95747617187502,40.364867131449955L221.04416015625,40.75338041830494L221.62805039062502,41.10304237647446L221.647676953125,41.41773813882702L222.05165703125,41.700964324944295L222.06310585937499,41.955867892449874L222.23647382812499,42.185281103204886L222.499796875,40.62175299288441L222.64699609375,40.98457769359595L223.0689671875,41.31111992423635L223.17691328125,41.60500793181271L223.456591796875,41.869507138631434L223.53673359375,42.10755642476829L223.598884375,42.32180078229146L223.65449296875,42.51462070406231L223.71664375,42.68815863365609L223.780430078125,41.074342770290485L223.970153515625,39.62190849326143L224.03393984375,40.08471764393528L224.09772617187502,40.501245879541756L224.120623828125,40.876121291587566L224.148428125,41.21350916242881L224.3250671875,41.517158246185915L224.35777812499998,41.79044242156732L224.41338671875,42.03639817941061L224.50824843750001,42.25775836146954L225.1101296875,42.45698252532259L225.42088359375,42.636284272790306L225.61060703125,42.79765584551129L225.97042734375,42.942890260960155L226.017858203125,43.07360123486416L226.7718453125,41.421241111377725L227.19218085937501,41.70411700023996L227.23961171875,41.95870530021597L227.339380078125,42.18783477019437L227.836586328125,42.394051293174925L228.111358203125,40.80964616385745L228.9438515625,41.15368154747168L228.968384765625,39.69331339272452L229.4541421875,40.148982053452045L230.374955078125,38.789083848106856L230.473087890625,39.33517546329617L230.927769921875,38.05665791696654L230.92940546875002,36.905992125269876L231.110951171875,35.870392912742886L231.156746484375,34.93835362146859L231.205812890625,35.86951825932175L231.2728703125,36.70756643338956L231.46259375,37.46180979005061L231.9794265625,38.14062881104556L232.04811953125,38.751565929940995L232.10699921875,37.53140933694692L232.406304296875,38.203268403252196L232.58457890625,38.80794156292697L232.63528085937497,39.35214740663429L232.749769140625,39.84193266597086L233.11449609375,40.28273939937378L233.266601953125,40.23696545943639L233.286228515625,40.19576891349277L233.4579609375,40.60119202214349L233.99605585937502,40.96607281992914L234.78438945312502,41.29446553793622L234.88088671875002,39.82001898414259L234.92013984375,38.493017085728326L234.974112890625,39.068715377155485L235.688846875,39.58684383943992L235.79679296875,40.053159455495916L235.84258828125002,40.47284350994633L235.87857031250002,40.85055915895171L236.390496484375,39.420503243056515L236.683259375,39.90345291875087L236.76340117187502,40.33810762687577L236.7683078125,40.72929686418817L236.78629882812498,41.08136717776935L236.85826289062499,41.39823045999242L237.2262609375,39.913407413993184L237.630241015625,40.347066672593854L238.565773828125,40.737360005334466L239.517662109375,39.31862400480102L239.7777140625,39.81176160432091L239.9151,40.255585443888805L240.320715625,40.655026899499916L240.407399609375,41.01452420954993L240.58567421875,41.33807178859493L240.803201953125,41.62926460973543L241.104142578125,40.12133814876191L241.31349257812502,40.5342043338857L241.4001765625,40.90578390049711L241.46886953125,41.240205510447396L241.647144140625,41.54118495940264L241.65859296874999,41.8120664634624L241.71093046875,42.05585981711613L241.76326796875,42.275273835404505L241.86303632812502,42.47274645186408L241.892476171875,42.65047180667767L242.245754296875,42.810424626009876L242.559779296875,42.954382163408894L242.729876171875,43.08394394706801L242.831280078125,43.200549552361196L243.11586523437498,43.30549459712509L243.456058984375,43.39994513741257L243.51984531250002,43.484950623671295L243.936909765625,41.79145556130416L244.002331640625,42.03731000517374L244.21822382812502,42.258579004656355L244.345796484375,42.45772110419074L244.362151953125,42.636948993771654L244.381778515625,41.0282540943945L244.394862890625,39.580428684955024L244.440658203125,40.047385816459524L244.519164453125,38.69764723481356L244.58949296875,39.25288251133222L244.797207421875,37.982594260198994L245.045810546875,38.1668348341791L245.21100078125,38.77515135076118L245.444883984375,39.322636215685066L245.449790625,39.81537259411655L245.60353203125,40.258835334704884L245.85049960937502,38.88795180123438L246.213591015625,39.42415662111094L246.48345625,39.90674095899985L246.53252265625,40.341066863099854L246.58486015625,40.73196017678987L246.84818320312502,41.08376415911087L246.94631601562497,41.400387743199786L246.9872046875,41.68534896887982L247.7722671875,41.49931407199182L247.790258203125,41.33188266479263L248.08138554687503,41.623694398313376L248.119003125,41.88632495848202L248.16970507812502,42.122692462633836L248.392139453125,42.33542321637043L248.401952734375,42.52688089473338L248.424850390625,42.699192805260026L248.45592578125002,42.854273524734026L248.92042109375,42.993846172260646" style="fill: none;" fill="none"></path></g></g></g></g><g opacity="0.2"><g><g><g><path stroke="rgb(255, 112, 67)" stroke-width="2px" d="M32.781266015625,154.875L32.985709375,154.875L33.087113281250005,150.45L33.095291015624994,150.45L33.15907734375,150.45L33.487822265625,150.45L33.589226171875,150.45L33.6595546875,150.45L33.671003515625,150.45L33.749509765625,150.45L33.770771875,150.45L33.880353515624996,150.45L34.034094921875,150.45L34.371017578125006,150.45L34.89275703125,137.175L34.97780546875,137.175L34.989254296874996,137.175L35.061218359375,137.175L35.4782828125,137.175L35.548611328125006,137.175L35.55351796875,137.175L35.78249453125,137.175L35.84791640625,137.175L36.042546484375,137.175L36.309140625000005,137.175L36.4857796875,137.175L36.61989453125,150.45L36.776907031250005,150.45L36.778542578125,150.45L37.104016406250004,150.45L37.681364453125,150.45L37.995389453125,137.175L38.021558203125,137.175L38.11805546875,137.175L38.629981640625,150.45L38.633252734375,150.45L38.715030078125004,150.45L38.83115390625,150.45L38.950548828125,150.45L38.96199765625,150.45L39.182796484375004,150.45L39.77322890625,150.45L39.908979296875,150.45L40.059449609375,150.45L40.08725390625,150.45L40.360390234375,150.45L40.543571484375,150.45L40.842876562499995,150.45L41.109470703125,150.45L41.454571093750005,150.45L41.47746875,150.45L42.0728078125,150.45L42.303419921875,150.45L42.373748437500005,150.45L42.509498828125,150.45L42.852963671874996,150.45L42.8840390625,150.45L42.99852734375,150.45L43.464658203125005,150.45L43.669101562499996,150.45L43.688728125,150.45L43.922611328125,150.45L44.105792578125,150.45L44.4149109375,150.45L44.786180078125,150.45L44.913752734375,150.45L44.918659375,150.45L44.997165625,150.45L45.466567578125,137.175L45.52381171875,150.45L45.782228124999996,150.45L45.904894140625004,150.45L46.091346484374995,150.45L46.15840390625,150.45L46.3906515625,150.45L46.611450390624995,137.175L46.627805859375,137.175L46.77991171875,150.45L47.232958203125,150.45L47.326184375000004,150.45L47.42104609375,150.45L47.857737109375,150.45L48.197930859375,150.45L48.338587890625,150.45L48.359849999999994,150.45L48.574106640625,150.45L48.9159359375,150.45L49.519452734374994,150.45L49.720625,150.45L49.85146875,150.45L49.921797265624996,137.175L50.06081875,137.175L50.343768359375,150.45L50.543305078125,150.45L50.54821171875,150.45L50.647980078124995,150.45L50.661064453125,150.45L50.736299609375,150.45L50.870414453125,150.45L51.573699609375005,150.45L51.629308203125,150.45L51.82393828125,137.175L51.94496875,137.175L52.28843359375,150.45L52.296611328124996,150.45L52.607365234374996,150.45L52.813444140624995,150.45L53.436587499999995,150.45L53.77351015625,150.45L54.030291015625004,137.175L54.07445078125,137.175L54.867691015625,137.175L54.95110390625,150.45L54.988721484375,150.45L55.299475390625,150.45L55.971685156250004,137.175L56.091080078125,150.45L56.163044140625,150.45L56.34131875,150.45L56.65370820312501,150.45L56.702774609375,150.45L56.8843203125,150.45L57.03806171875,150.45L58.019389843750005,137.175L58.0749984375,137.175L58.456080859375,137.175L58.495333984374994,150.45L59.071046484374996,150.45L59.28857421875,150.45L59.40633359375,150.45L60.20448046875,137.175L60.28298671875,137.175L60.624816015625,150.45L60.67551796875,150.45L61.03533828125,150.45L61.0713203125,150.45L61.404971875,150.45L61.427869531249996,150.45L62.890048437500006,150.45L63.977687109375005,137.175L64.06437109375,137.175L64.6564390625,137.175L64.83471367187501,150.45L64.857611328125,150.45L64.98354843749999,150.45L65.171636328125,150.45L65.4153328125,150.45L65.51019453125,150.45L65.524914453125,150.45L65.64921601562499,150.45L65.822583984375,137.175L65.83566835937499,137.175L65.9517921875,137.175L66.143151171875,137.175L66.3050703125,137.175L66.306705859375,137.175L66.368856640625,137.175L66.69760156250001,137.175L66.70250820312499,137.175L66.821903125,150.45L67.18990117187501,150.45L67.294576171875,150.45L67.43850429687501,137.175L67.58079687499999,137.175L67.69855625,137.175L67.9144484375,137.175L68.446001171875,137.175L69.09531328125,137.175L69.23433476562501,137.175L69.280130078125,137.175L69.466582421875,137.175L70.068463671875,137.175L70.55585664062501,150.45L70.572212109375,150.45L70.644176171875,150.45L70.686700390625,150.45L70.79791757812501,150.45L70.92058359375,150.45L71.02852968750001,150.45L71.213346484375,137.175L71.425967578125,150.45L71.44395859375,150.45L71.47666953125,137.175L71.864294140625,150.45L72.2061234375,150.45L72.426922265625,137.175L72.430193359375,137.175L72.492344140625,137.175L72.52996171874999,137.175L72.98137265625,137.175L73.14165625000001,137.175L73.154740625,137.175L73.43932578124999,137.175L73.493298828125,137.175L73.614329296875,137.175L74.01503828125,137.175L74.14424648437499,137.175L74.24074375000001,137.175L74.929308984375,137.175L74.986553125,137.175L75.10758359375001,150.45L75.344737890625,150.45L75.4903015625,150.45L75.7323625,137.175L76.005498828125,137.175L76.54032265625,150.45L76.541958203125,150.45L76.59266015624999,150.45L77.104586328125,137.175L77.12421289062499,137.175L77.130755078125,137.175L77.132390625,137.175L77.320478515625,150.45L77.69828984375,137.175L77.8585734375,137.175L77.91581757812499,137.175L78.22166484375,137.175L78.37049960937499,137.175L79.224255078125,150.45L79.3959875,150.45L80.094366015625,137.175L80.136890234375,137.175L80.244836328125,137.175L80.47217734375,137.175L80.57358125,137.175L80.91377499999999,150.45L80.93994375000001,150.45L81.06097421875,137.175L81.1427515625,137.175L81.49930078125,150.45L81.78715703125,150.45L81.82968125,150.45L82.063564453125,150.45L82.1764171875,150.45L82.31380312499999,137.175L82.54768632812501,137.175L82.779933984375,150.45L82.93367539062501,150.45L82.956573046875,150.45L84.078558203125,150.45L84.1390734375,150.45L84.552866796875,137.175L84.853807421875,137.175L84.945398046875,150.45L85.056615234375,150.45L85.38863124999999,150.45L85.7615359375,150.45L85.936539453125,137.175L86.12462734374999,137.175L86.296359765625,137.175L86.512251953125,137.175L86.52533632812501,137.175L86.741228515625,150.45L86.97838281249999,150.45L86.98165390625,150.45L87.128853125,137.175L87.24334140625,137.175L87.29895,137.175L87.3447453125,137.175L87.876298046875,137.175L87.89101796875,137.175L87.91064453125,137.175L87.941719921875,137.175L87.96952421875,137.175L88.05784375,137.175L88.0774703125,137.175L88.11835898437499,137.175L88.17887421875,137.175L88.380046484375,137.175L88.55177890625001,137.175L88.913234765625,137.175L88.94758125,137.175L89.17982890625001,137.175L89.300859375,137.175L89.6018,137.175L90.50135078125001,150.45L90.535697265625,150.45L90.548781640625,150.45L90.57331484375,150.45L90.7466828125,137.175L90.89388203125,137.175L91.2177203125,137.175L91.22916914062499,137.175L91.34529296875,137.175L91.51538984375,137.175L91.543194140625,137.175L91.65277578125,137.175L91.99460507812499,137.175L92.0420359375,137.175L92.62101953125,150.45L92.6700859375,137.175L92.846725,137.175L92.982475390625,137.175L93.0757015625,137.175L93.55818789062499,137.175L93.97198125,137.175L94.02758984375,137.175L94.477365234375,150.45L94.660546484375,137.175L95.177379296875,150.45L95.581359375,150.45L95.607528125,150.45L96.04094804687499,150.45L96.237213671875,150.45L96.46782578125,137.175L96.983023046875,137.175L97.64705507812499,137.175L97.692850390625,137.175L97.77626328125,137.175L97.934911328125,150.45L97.98561328125,150.45L97.993791015625,150.45L98.167158984375,150.45L98.61856992187501,150.45L98.95222148437499,150.45L99.192646875,150.45L99.21881562499999,150.45L99.2253578125,150.45L99.279330859375,150.45L99.312041796875,150.45L99.43143671874999,150.45L99.835416796875,150.45L100.169068359375,137.175L100.213228125,137.175L100.32771640625,137.175L100.6515546875,150.45L100.67772343749999,150.45L101.62470507812499,137.175L102.141537890625,137.175L102.170977734375,137.175L102.514442578125,150.45L103.01001328125,137.175L103.49577070312499,137.175L103.888301953125,137.175L103.94554609375001,137.175L104.033865625,137.175L104.086203125,137.175L104.2039625,137.175L104.248122265625,137.175L104.254664453125,137.175L104.35770390625001,137.175L104.66518671875,137.175L104.79603046875,137.175L105.003744921875,137.175L105.01519375,137.175L105.08715781250001,137.175L105.17384179687501,137.175L105.63343046874999,137.175L106.011241796875,137.175L106.253302734375,137.175L106.819201953125,137.175L106.833921875,137.175L106.920605859375,137.175L107.1414046875,137.175L107.388372265625,150.45L108.00170234375,137.175L108.467833203125,137.175L108.494001953125,143.8125L108.62321015625,137.175L108.76386718750001,137.175L109.97744296875,137.175L110.07557578125,137.175L110.10828671875,137.175L110.54007109375,143.8125L110.62675507812499,137.175L110.67745703125,137.175L110.73633671875,150.45L110.800123046875,137.175L111.025828515625,137.175L111.1321390625,150.45L111.16975664062501,150.45L111.343124609375,137.175L111.51485703125,150.45L111.5900921875,137.175L112.072578515625,137.175L112.599224609375,137.175L113.299238671875,137.175L113.428446875,150.45L113.63452578125,137.175L114.499730078125,137.175L114.581507421875,137.175L114.73361328125,137.175L114.75978203125001,137.175L114.80884843749999,137.175L114.928243359375,137.175L115.51867578125,137.175L115.8294296875,150.45L116.0911171875,137.175L116.344626953125,137.175L116.4967328125,137.175L116.586687890625,137.175L116.684820703125,137.175L117.35212382812499,137.175L117.430630078125,137.175L117.443714453125,137.175L117.685775390625,137.175L117.76264609374999,137.175L117.87059218750001,137.175L118.14863515625,137.175L118.23859023437501,137.175L118.33835859375,137.175L118.595139453125,137.175L118.62457929687501,137.175L118.876453515625,137.175L119.242816015625,137.175L119.2967890625,137.175L119.547027734375,137.175L119.57156093750001,137.175L120.16199335937499,137.175L120.551253515625,137.175L120.56270234375,137.175L120.56924453125,137.175L120.57578671875001,137.175L120.80639882812501,137.175L120.878362890625,137.175L121.14986367187501,137.175L121.174396875,137.175L121.20874335937499,137.175L121.2332765625,137.175L121.42627109375,137.175L122.16226718749999,137.175L122.351990625,137.175L122.56461171875,137.175L122.63821132812501,137.175L122.98331171875,137.175L123.1566796875,137.175L123.16158632812501,137.175L123.204110546875,137.175L123.2548125,137.175L123.55575312500001,137.175L123.5688375,137.175L123.83379609375,137.175L123.920480078125,137.175L124.45203281250001,137.175L124.85437734375,137.175L125.1324203125,137.175L125.15531796875,137.175L125.29761054687499,137.175L125.59037343749999,137.175L125.644346484375,137.175L125.937109375,137.175L126.42777343750001,137.175L126.43758671875,137.175L126.730349609375,137.175L127.181760546875,137.175L128.056778125,137.175L128.293932421875,137.175L128.483655859375,137.175L128.62267734375,137.175L128.75025,137.175L128.794409765625,137.175L128.8222140625,137.175L129.258905078125,137.175L129.641623046875,137.175L129.71849375,137.175L129.916394921875,137.175L130.256588671875,137.175L130.305655078125,137.175L130.41523671875,137.175L131.1381484375,137.175L131.14796171875,137.175L131.18394375,137.175L131.33114296875,137.175L131.62227031249998,137.175L132.68046914062498,137.175L132.81621953125,137.175L132.932343359375,137.175L133.197301953125,137.175L133.354314453125,132.75L133.59310429687503,132.75L134.34382031250001,137.175L134.47466406249998,137.175L134.960421484375,137.175L135.0111234375,137.175L135.545947265625,137.175L135.791279296875,137.175L136.111846484375,137.175L136.337551953125,137.175L136.452040234375,137.175L136.45367578125,137.175L136.59106171875,135.6999995498657L136.84947812500002,137.175L137.16677421875,137.175L137.36794648437498,132.75L137.547856640625,137.175L137.75557109374998,137.175L138.2233375,132.75L138.23969296874998,137.175L138.51119375,132.75L138.84157421875003,137.175L139.111439453125,137.175L139.42382890624998,137.175L139.50069960937498,137.175L139.63645,137.175L139.75911601562498,137.175L139.80981796875,137.175L140.00608359375,137.175L140.07477656249998,137.175L140.18272265625,137.175L140.50656093749998,137.175L140.73880859375,137.175L141.14605976562498,137.175L141.716865625,137.175L141.9458421875,137.175L142.209165234375,137.175L142.254960546875,137.175L142.32856015624998,137.175L143.013854296875,137.175L143.069462890625,137.175L143.13324921875,137.175L144.359909375,137.175L144.38934921875,137.175L144.54799726562499,137.175L144.63141015625,137.175L144.767160546875,137.175L144.89473320312499,137.175L145.44918359375,137.175L145.54568085937498,137.175L145.84498593749998,137.175L145.86788359375,137.175L146.30948125,137.175L146.343827734375,137.175L146.648039453125,135.6999995498657L146.74126562499998,132.75L146.870473828125,137.175L147.0618328125,137.175L147.95647695312502,137.175L148.00717890625,137.175L148.149471484375,137.175L148.273773046875,137.175L148.6973796875,137.175L148.829858984375,137.175L149.536415234375,137.175L149.742494140625,132.75L149.785018359375,137.175L149.974741796875,137.175L150.226616015625,137.175L150.318206640625,137.175L150.40161953125,137.175L150.43760156250002,137.175L150.491574609375,137.175L150.53246328125,137.175L150.92172343750002,137.175L150.95770546875,137.175L150.9609765625,137.175L151.12780234375,137.175L151.132708984375,137.175L151.384583203125,137.175L151.65444843749998,137.175L151.89978046875,137.175L152.12221484375002,137.175L152.4002578125,137.175L152.62759882812497,137.175L153.39794140625,137.175L153.406119140625,137.175L153.48298984375,137.175L153.58112265625,137.175L153.618740234375,137.175L153.7610328125,132.75L154.0488890625,132.75L154.060337890625,132.75L155.15778984374998,137.175L155.21666953125,132.75L155.607565234375,132.75L155.6582671875,137.175L156.14566015625002,137.175L156.1751,137.175L156.30594375,137.175L156.896376171875,137.175L157.105726171875,132.75L157.1760546875,137.175L157.37068476562501,132.75L157.71905625,137.175L157.80246914062502,137.175L158.03798789062498,132.75L158.11485859375,137.175L158.16719609375,137.175L158.306217578125,132.75L158.495941015625,137.175L158.50738984375,137.175L158.52538085937502,137.175L158.97352070312502,137.175L159.179599609375,132.75L159.51652226562499,137.175L159.7013390625,132.75L159.961391015625,132.75L160.12331015625,132.75L160.506028125,132.75L160.625423046875,44.25L160.71864921875,132.75L161.55277812499997,132.75L161.6639953125,132.75L161.789932421875,132.75L161.812830078125,132.75L161.87661640624998,132.75L161.92895390625,132.75L162.42616015624998,132.75L162.604434765625,132.75L162.89719765625,132.75L163.248840234375,26.55000000000001L163.515434375,44.25L163.553051953125,44.25L163.607025,88.5L163.6135671875,88.5L163.719877734375,44.25L163.82618828125,44.25L164.194186328125,44.25L164.22035507812498,44.25L164.455873828125,132.75L164.498398046875,44.25L164.55891328125,44.25L164.907284765625,26.55000000000001L165.185327734375,44.25L165.216403125,44.25L165.38322890625,44.25L165.81501328125,44.25L165.999830078125,44.25L166.05707421875002,44.25L166.74891054687498,44.25L168.031179296875,44.25L168.086787890625,44.25L168.18655625000002,44.25L168.21599609375,44.25L168.58562968750002,44.25L168.670678125,44.25L168.8996546875,44.25L169.29709257812502,44.25L169.70925039062502,44.25L169.97257343750002,44.25L170.0510796875,44.25L170.36837578125002,44.25L170.42071328125002,44.25L170.742916015625,44.25L170.76744921875002,44.25L171.08147421875,26.55000000000001L171.220495703125,44.25L171.308815234375,44.25L171.43638789062499,44.25L171.76676835937502,44.25L171.81910585937501,44.25L171.87962109375002,44.25L172.01046484375,44.25L172.257432421875,44.25L172.564915234375,44.25L172.6156171875,44.25L172.669590234375,44.25L172.856042578125,44.25L172.95908203124998,44.25L173.34507109375,44.25L173.392501953125,44.25L174.10887148437502,44.25L174.41962539062501,44.25L174.43107421874998,44.25L174.645330859375,39.82499999999999L174.66659296875,39.82499999999999L174.74182812499998,39.82499999999999L174.78435234375002,39.82499999999999L175.01823554687502,44.25L175.64792109375,39.82499999999999L175.74114726562502,39.82499999999999L175.914515234375,44.25L176.02082578125,44.25L176.094425390625,44.25L176.36101953124998,26.55000000000001L176.79280390625001,44.25L176.86476796875002,39.82499999999999L177.252392578125,44.25L177.36197421875002,26.55000000000001L177.74305664062499,44.25L177.893526953125,39.82499999999999L177.97366875,39.82499999999999L178.148672265625,44.25L178.70475820312498,44.25L178.8437796875,35.400000000000006L178.8699484375,39.82499999999999L179.49472734375001,44.25L179.522531640625,44.25L179.70407734375,44.25L179.735152734375,39.82499999999999L179.86763203125003,44.25L179.9690359375,44.25L180.29941640625,44.25L180.64778789062498,44.25L181.668369140625,44.25L181.70108007812502,44.25L182.038002734375,26.55000000000001L182.32258789062502,44.25L182.567919921875,44.25L182.600630859375,44.25L182.6055375,44.25L182.70694140625,44.25L182.74455898437498,44.25L182.749465625,44.25L183.336626953125,44.25L183.37915117187498,44.25L183.68826953125,44.25L184.37519921875,44.25L184.471696484375,44.25L184.474967578125,44.25L184.52566953125,44.25L184.64179335937501,44.25L185.024511328125,39.82499999999999L185.183159375,39.82499999999999L185.58877500000003,44.25L186.29206015625,35.400000000000006L186.55374765625,44.25L187.07548710937502,44.25L187.14745117187502,44.25L187.33063242187498,26.55000000000001L187.736248046875,44.25L187.9112515625,44.25L188.13859257812499,44.25L188.18275234375002,44.25L188.390466796875,44.25L188.61453671875,39.82499999999999L188.70612734375,39.82499999999999L188.75846484375,44.25L188.874588671875,44.25L189.496096484375,39.82499999999999L189.64166015625,39.82499999999999L189.679277734375,39.82499999999999L190.21737265625,44.25L190.34821640625,44.25L190.600090625,44.25L190.706401171875,44.25L190.758738671875,44.25L191.390059765625,44.25L191.615765234375,44.25L191.730253515625,44.25L191.84474179687498,44.25L192.041007421875,44.25L192.112971484375,44.25L192.33540585937502,44.25L192.42863203125,44.25L192.574195703125,44.25L192.662515234375,44.25L192.79335898437498,44.25L192.973269140625,42.77500360107422L192.989624609375,44.25L193.2235078125,44.25L193.342902734375,44.25L193.65692773437502,44.25L193.771416015625,44.25L193.85155781249998,44.25L193.98567265625,44.25L194.229369140625,44.25L194.615358203125,44.25L194.72166875,44.25L195.459300390625,44.25L195.632668359375,44.25L195.635939453125,44.25L196.07753710937502,44.25L196.731755859375,26.55000000000001L197.06704296875,44.25L197.19298007812498,44.25L197.23059765624998,44.25L197.49555625000002,44.25L197.670559765625,26.55000000000001L197.76705703124998,26.55000000000001L197.78177695312502,26.55000000000001L197.89790078125,44.25L198.02056679687502,44.25L198.1563171875,44.25L198.285525390625,44.25L198.450715625,44.25L198.4834265625,44.25L198.607728125,44.25L198.70095429687498,26.55000000000001L198.7189453125,44.25L199.41241718749998,26.55000000000001L199.445128125,26.55000000000001L200.0404671875,39.82499999999999L200.3152390625,44.25L200.37084765625,44.25L200.42318515625,39.82499999999999L200.5115046875,44.25L200.65870390625,44.25L200.977635546875,44.25L201.0283375,44.25L201.118292578125,44.25L201.17553671875,44.25L201.1918921875,44.25L201.510823828125,26.55000000000001L201.69236953125,44.25L201.92952382812499,39.82499999999999L202.01947890625001,39.82499999999999L202.36621484375,44.25L202.7227640625,44.25L203.260858984375,39.82499999999999L203.355720703125,39.82499999999999L203.96087304687498,44.25L204.130969921875,44.25L204.15386757812502,44.25L204.18494296875,44.25L204.252000390625,44.25L204.274898046875,44.25L204.29943125,44.25L204.32069335937499,44.25L204.3844796875,26.55000000000001L204.4499015625,44.25L204.46462148437502,44.25L204.55784765625,44.25L204.59710078125,44.25L204.87514375,44.25L204.87841484375,44.25L205.154822265625,44.25L205.442678515625,44.25L205.59314882812498,44.25L205.710908203125,26.55000000000001L205.73380585937502,44.25L206.04946640625,44.25L206.424006640625,44.25L206.5172328125,44.25L206.718405078125,44.25L207.00626132812502,44.25L207.169816015625,44.25L207.33827734374998,44.25L207.88455,44.25L208.96564648437501,44.25L209.031068359375,44.25L209.08504140624999,44.25L209.38598203125,44.25L210.08599609375,44.25L210.310066015625,44.25L211.147466015625,44.25L211.382984765625,44.25L211.3846203125,44.25L211.47948203125,44.25L211.80659140625002,26.55000000000001L211.935799609375,26.55000000000001L212.33160195312502,44.25L212.72576875,44.25L212.93511875,44.25L212.98909179687502,44.25L213.123206640625,44.25L213.306387890625,39.82499999999999L213.404520703125,44.25L213.581159765625,26.55000000000001L213.640039453125,26.55000000000001L213.67111484375,26.55000000000001L213.82812734375,33.1875L213.90009140625,44.25L214.575572265625,26.55000000000001L214.6426296875,44.25L214.7865578125,44.25L215.14964921875,26.55000000000001L215.20852890625002,44.25L215.399887890625,44.25L215.70900625000002,44.25L215.75480156249998,26.55000000000001L216.662530078125,44.25L216.979826171875,44.25L217.0436125,44.25L217.369086328125,44.25L218.056016015625,44.25L218.286628125,26.55000000000001L218.49270703125,44.25L218.74131015625,44.25L219.13220585937498,44.25L219.642496484375,44.25L219.9156328125,44.25L219.92871718749998,44.25L220.31470625,26.55000000000001L220.506065234375,44.25L220.95747617187502,39.82499999999999L221.04416015625,44.25L221.62805039062502,44.25L221.647676953125,44.25L222.05165703125,44.25L222.06310585937499,44.25L222.23647382812499,44.25L222.499796875,26.55000000000001L222.64699609375,44.25L223.0689671875,44.25L223.17691328125,44.25L223.456591796875,44.25L223.53673359375,44.25L223.598884375,44.25L223.65449296875,44.25L223.71664375,44.25L223.780430078125,26.55000000000001L223.970153515625,26.55000000000001L224.03393984375,44.25L224.09772617187502,44.25L224.120623828125,44.25L224.148428125,44.25L224.3250671875,44.25L224.35777812499998,44.25L224.41338671875,44.25L224.50824843750001,44.25L225.1101296875,44.25L225.42088359375,44.25L225.61060703125,44.25L225.97042734375,44.25L226.017858203125,44.25L226.7718453125,26.55000000000001L227.19218085937501,44.25L227.23961171875,44.25L227.339380078125,44.25L227.836586328125,44.25L228.111358203125,26.55000000000001L228.9438515625,44.25L228.968384765625,26.55000000000001L229.4541421875,44.25L230.374955078125,26.55000000000001L230.473087890625,44.25L230.927769921875,26.55000000000001L230.92940546875002,26.55000000000001L231.110951171875,26.55000000000001L231.156746484375,26.55000000000001L231.205812890625,44.25L231.2728703125,44.25L231.46259375,44.25L231.9794265625,44.25L232.04811953125,44.25L232.10699921875,26.55000000000001L232.406304296875,44.25L232.58457890625,44.25L232.63528085937497,44.25L232.749769140625,44.25L233.11449609375,44.25L233.266601953125,39.82499999999999L233.286228515625,39.82499999999999L233.4579609375,44.25L233.99605585937502,44.25L234.78438945312502,44.25L234.88088671875002,26.55000000000001L234.92013984375,26.55000000000001L234.974112890625,44.25L235.688846875,44.25L235.79679296875,44.25L235.84258828125002,44.25L235.87857031250002,44.25L236.390496484375,26.55000000000001L236.683259375,44.25L236.76340117187502,44.25L236.7683078125,44.25L236.78629882812498,44.25L236.85826289062499,44.25L237.2262609375,26.55000000000001L237.630241015625,44.25L238.565773828125,44.25L239.517662109375,26.55000000000001L239.7777140625,44.25L239.9151,44.25L240.320715625,44.25L240.407399609375,44.25L240.58567421875,44.25L240.803201953125,44.25L241.104142578125,26.55000000000001L241.31349257812502,44.25L241.4001765625,44.25L241.46886953125,44.25L241.647144140625,44.25L241.65859296874999,44.25L241.71093046875,44.25L241.76326796875,44.25L241.86303632812502,44.25L241.892476171875,44.25L242.245754296875,44.25L242.559779296875,44.25L242.729876171875,44.25L242.831280078125,44.25L243.11586523437498,44.25L243.456058984375,44.25L243.51984531250002,44.25L243.936909765625,26.55000000000001L244.002331640625,44.25L244.21822382812502,44.25L244.345796484375,44.25L244.362151953125,44.25L244.381778515625,26.55000000000001L244.394862890625,26.55000000000001L244.440658203125,44.25L244.519164453125,26.55000000000001L244.58949296875,44.25L244.797207421875,26.55000000000001L245.045810546875,39.82499999999999L245.21100078125,44.25L245.444883984375,44.25L245.449790625,44.25L245.60353203125,44.25L245.85049960937502,26.55000000000001L246.213591015625,44.25L246.48345625,44.25L246.53252265625,44.25L246.58486015625,44.25L246.84818320312502,44.25L246.94631601562497,44.25L246.9872046875,44.25L247.7722671875,39.82499999999999L247.790258203125,39.82499999999999L248.08138554687503,44.25L248.119003125,44.25L248.16970507812502,44.25L248.392139453125,44.25L248.401952734375,44.25L248.424850390625,44.25L248.45592578125002,44.25L248.92042109375,44.25" style="fill: none;" fill="none"></path></g></g></g></g></g></g><g transform="translate(68, 177)" clip-path="url(#clip_1)"><clipPath id="clip_1"><rect width="261" height="23"></rect></clipPath><g><g><line x1="0" y1="0" x2="0" y2="5" style="visibility: inherit;" fill="rgb(0, 0, 0)" stroke="rgb(204, 204, 204)" stroke-width="1px"></line><line x1="32.7109375" y1="0" x2="32.7109375" y2="5" style="visibility: inherit;" fill="rgb(0, 0, 0)" stroke="rgb(204, 204, 204)" stroke-width="1px"></line><line x1="65.421875" y1="0" x2="65.421875" y2="5" style="visibility: inherit;" fill="rgb(0, 0, 0)" stroke="rgb(204, 204, 204)" stroke-width="1px"></line><line x1="98.1328125" y1="0" x2="98.1328125" y2="5" style="visibility: inherit;" fill="rgb(0, 0, 0)" stroke="rgb(204, 204, 204)" stroke-width="1px"></line><line x1="130.84375" y1="0" x2="130.84375" y2="5" style="visibility: inherit;" fill="rgb(0, 0, 0)" stroke="rgb(204, 204, 204)" stroke-width="1px"></line><line x1="163.5546875" y1="0" x2="163.5546875" y2="5" style="visibility: inherit;" fill="rgb(0, 0, 0)" stroke="rgb(204, 204, 204)" stroke-width="1px"></line><line x1="196.265625" y1="0" x2="196.265625" y2="5" style="visibility: inherit;" fill="rgb(0, 0, 0)" stroke="rgb(204, 204, 204)" stroke-width="1px"></line><line x1="228.9765625" y1="0" x2="228.9765625" y2="5" style="visibility: inherit;" fill="rgb(0, 0, 0)" stroke="rgb(204, 204, 204)" stroke-width="1px"></line><line x1="261.6875" y1="0" x2="261.6875" y2="5" style="visibility: inherit;" fill="rgb(0, 0, 0)" stroke="rgb(204, 204, 204)" stroke-width="1px"></line></g><g transform="translate(0, 8)"><text x="0" y="0" dx="0em" dy="0.95em" style="text-anchor: middle; visibility: hidden; font-family: &quot;Helvetica Neue&quot;, sans-serif; font-size: 12px; font-weight: 200;" fill="rgb(50, 49, 63)" stroke="none" stroke-width="1px">-20k</text><text x="32.7109375" y="0" dx="0em" dy="0.95em" style="text-anchor: middle; visibility: inherit; font-family: &quot;Helvetica Neue&quot;, sans-serif; font-size: 12px; font-weight: 200;" fill="rgb(50, 49, 63)" stroke="none" stroke-width="1px">0</text><text x="65.421875" y="0" dx="0em" dy="0.95em" style="text-anchor: middle; visibility: inherit; font-family: &quot;Helvetica Neue&quot;, sans-serif; font-size: 12px; font-weight: 200;" fill="rgb(50, 49, 63)" stroke="none" stroke-width="1px">20k</text><text x="98.1328125" y="0" dx="0em" dy="0.95em" style="text-anchor: middle; visibility: inherit; font-family: &quot;Helvetica Neue&quot;, sans-serif; font-size: 12px; font-weight: 200;" fill="rgb(50, 49, 63)" stroke="none" stroke-width="1px">40k</text><text x="130.84375" y="0" dx="0em" dy="0.95em" style="text-anchor: middle; visibility: inherit; font-family: &quot;Helvetica Neue&quot;, sans-serif; font-size: 12px; font-weight: 200;" fill="rgb(50, 49, 63)" stroke="none" stroke-width="1px">60k</text><text x="163.5546875" y="0" dx="0em" dy="0.95em" style="text-anchor: middle; visibility: inherit; font-family: &quot;Helvetica Neue&quot;, sans-serif; font-size: 12px; font-weight: 200;" fill="rgb(50, 49, 63)" stroke="none" stroke-width="1px">80k</text><text x="196.265625" y="0" dx="0em" dy="0.95em" style="text-anchor: middle; visibility: inherit; font-family: &quot;Helvetica Neue&quot;, sans-serif; font-size: 12px; font-weight: 200;" fill="rgb(50, 49, 63)" stroke="none" stroke-width="1px">100k</text><text x="228.9765625" y="0" dx="0em" dy="0.95em" style="text-anchor: middle; visibility: inherit; font-family: &quot;Helvetica Neue&quot;, sans-serif; font-size: 12px; font-weight: 200;" fill="rgb(50, 49, 63)" stroke="none" stroke-width="1px">120k</text><text x="261.6875" y="0" dx="0em" dy="0.95em" style="text-anchor: middle; visibility: hidden; font-family: &quot;Helvetica Neue&quot;, sans-serif; font-size: 12px; font-weight: 200;" fill="rgb(50, 49, 63)" stroke="none" stroke-width="1px">140k</text></g><line x1="0" y1="0" x2="261.6875" y2="0" fill="rgb(0, 0, 0)" stroke="rgb(204, 204, 204)" stroke-width="1px"></line></g></g></g></g></svg>