<svg viewBox="0 0 330 200" xmlns="http://www.w3.org/2000/svg"><g><g><g><g><g><line x1="68.3125" y1="177" x2="63.3125" y2="177" style="visibility: inherit;" fill="rgb(0, 0, 0)" stroke="rgb(204, 204, 204)" stroke-width="1px"></line><line x1="68.3125" y1="162.25" x2="63.3125" y2="162.25" style="visibility: inherit;" fill="rgb(0, 0, 0)" stroke="rgb(204, 204, 204)" stroke-width="1px"></line><line x1="68.3125" y1="147.5" x2="63.3125" y2="147.5" style="visibility: inherit;" fill="rgb(0, 0, 0)" stroke="rgb(204, 204, 204)" stroke-width="1px"></line><line x1="68.3125" y1="132.75" x2="63.3125" y2="132.75" style="visibility: inherit;" fill="rgb(0, 0, 0)" stroke="rgb(204, 204, 204)" stroke-width="1px"></line><line x1="68.3125" y1="118" x2="63.3125" y2="118" style="visibility: inherit;" fill="rgb(0, 0, 0)" stroke="rgb(204, 204, 204)" stroke-width="1px"></line><line x1="68.3125" y1="103.25" x2="63.3125" y2="103.25" style="visibility: inherit;" fill="rgb(0, 0, 0)" stroke="rgb(204, 204, 204)" stroke-width="1px"></line><line x1="68.3125" y1="88.5" x2="63.3125" y2="88.5" style="visibility: inherit;" fill="rgb(0, 0, 0)" stroke="rgb(204, 204, 204)" stroke-width="1px"></line><line x1="68.3125" y1="73.75" x2="63.3125" y2="73.75" style="visibility: inherit;" fill="rgb(0, 0, 0)" stroke="rgb(204, 204, 204)" stroke-width="1px"></line><line x1="68.3125" y1="59" x2="63.3125" y2="59" style="visibility: inherit;" fill="rgb(0, 0, 0)" stroke="rgb(204, 204, 204)" stroke-width="1px"></line><line x1="68.3125" y1="44.25" x2="63.3125" y2="44.25" style="visibility: inherit;" fill="rgb(0, 0, 0)" stroke="rgb(204, 204, 204)" stroke-width="1px"></line><line x1="68.3125" y1="29.5" x2="63.3125" y2="29.5" style="visibility: inherit;" fill="rgb(0, 0, 0)" stroke="rgb(204, 204, 204)" stroke-width="1px"></line><line x1="68.3125" y1="14.75" x2="63.3125" y2="14.75" style="visibility: inherit;" fill="rgb(0, 0, 0)" stroke="rgb(204, 204, 204)" stroke-width="1px"></line><line x1="68.3125" y1="0" x2="63.3125" y2="0" style="visibility: inherit;" fill="rgb(0, 0, 0)" stroke="rgb(204, 204, 204)" stroke-width="1px"></line></g><g transform="translate(58.3125, 0)"><text x="0" y="177" dx="0em" dy="0.3em" style="text-anchor: end; visibility: hidden; font-family: &quot;Helvetica Neue&quot;, sans-serif; font-size: 12px; font-weight: 200;" fill="rgb(50, 49, 63)" stroke="none" stroke-width="1px">-500</text><text x="0" y="162.25" dx="0em" dy="0.3em" style="text-anchor: end; visibility: inherit; font-family: &quot;Helvetica Neue&quot;, sans-serif; font-size: 12px; font-weight: 200;" fill="rgb(50, 49, 63)" stroke="none" stroke-width="1px">0</text><text x="0" y="147.5" dx="0em" dy="0.3em" style="text-anchor: end; visibility: hidden; font-family: &quot;Helvetica Neue&quot;, sans-serif; font-size: 12px; font-weight: 200;" fill="rgb(50, 49, 63)" stroke="none" stroke-width="1px">500</text><text x="0" y="132.75" dx="0em" dy="0.3em" style="text-anchor: end; visibility: inherit; font-family: &quot;Helvetica Neue&quot;, sans-serif; font-size: 12px; font-weight: 200;" fill="rgb(50, 49, 63)" stroke="none" stroke-width="1px">1e+3</text><text x="0" y="118" dx="0em" dy="0.3em" style="text-anchor: end; visibility: hidden; font-family: &quot;Helvetica Neue&quot;, sans-serif; font-size: 12px; font-weight: 200;" fill="rgb(50, 49, 63)" stroke="none" stroke-width="1px">1.5e+3</text><text x="0" y="103.25" dx="0em" dy="0.3em" style="text-anchor: end; visibility: inherit; font-family: &quot;Helvetica Neue&quot;, sans-serif; font-size: 12px; font-weight: 200;" fill="rgb(50, 49, 63)" stroke="none" stroke-width="1px">2e+3</text><text x="0" y="88.5" dx="0em" dy="0.3em" style="text-anchor: end; visibility: hidden; font-family: &quot;Helvetica Neue&quot;, sans-serif; font-size: 12px; font-weight: 200;" fill="rgb(50, 49, 63)" stroke="none" stroke-width="1px">2.5e+3</text><text x="0" y="73.75" dx="0em" dy="0.3em" style="text-anchor: end; visibility: inherit; font-family: &quot;Helvetica Neue&quot;, sans-serif; font-size: 12px; font-weight: 200;" fill="rgb(50, 49, 63)" stroke="none" stroke-width="1px">3e+3</text><text x="0" y="59" dx="0em" dy="0.3em" style="text-anchor: end; visibility: hidden; font-family: &quot;Helvetica Neue&quot;, sans-serif; font-size: 12px; font-weight: 200;" fill="rgb(50, 49, 63)" stroke="none" stroke-width="1px">3.5e+3</text><text x="0" y="44.25" dx="0em" dy="0.3em" style="text-anchor: end; visibility: inherit; font-family: &quot;Helvetica Neue&quot;, sans-serif; font-size: 12px; font-weight: 200;" fill="rgb(50, 49, 63)" stroke="none" stroke-width="1px">4e+3</text><text x="0" y="29.5" dx="0em" dy="0.3em" style="text-anchor: end; visibility: hidden; font-family: &quot;Helvetica Neue&quot;, sans-serif; font-size: 12px; font-weight: 200;" fill="rgb(50, 49, 63)" stroke="none" stroke-width="1px">4.5e+3</text><text x="0" y="14.75" dx="0em" dy="0.3em" style="text-anchor: end; visibility: inherit; font-family: &quot;Helvetica Neue&quot;, sans-serif; font-size: 12px; font-weight: 200;" fill="rgb(50, 49, 63)" stroke="none" stroke-width="1px">5e+3</text><text x="0" y="0" dx="0em" dy="0.3em" style="text-anchor: end; visibility: hidden; font-family: &quot;Helvetica Neue&quot;, sans-serif; font-size: 12px; font-weight: 200;" fill="rgb(50, 49, 63)" stroke="none" stroke-width="1px">5.5e+3</text></g><line x1="68.3125" y1="0" x2="68.3125" y2="177" fill="rgb(0, 0, 0)" stroke="rgb(204, 204, 204)" stroke-width="1px"></line></g></g><g transform="translate(68, 0)" clip-path="url(#clip_0)"><clipPath id="clip_0"><rect width="261" height="177"></rect></clipPath><g><g><g><line x1="0" y1="0" x2="0" y2="177" fill="rgb(0, 0, 0)" stroke="rgb(60, 60, 60)" stroke-width="1px" opacity="0.25"></line><line x1="29.076388888888886" y1="0" x2="29.076388888888886" y2="177" fill="rgb(0, 0, 0)" stroke="rgb(60, 60, 60)" stroke-width="1px" opacity="0.25"></line><line x1="58.15277777777777" y1="0" x2="58.15277777777777" y2="177" fill="rgb(0, 0, 0)" stroke="rgb(60, 60, 60)" stroke-width="1px" opacity="0.25"></line><line x1="87.22916666666666" y1="0" x2="87.22916666666666" y2="177" fill="rgb(0, 0, 0)" stroke="rgb(60, 60, 60)" stroke-width="1px" opacity="0.25"></line><line x1="116.30555555555554" y1="0" x2="116.30555555555554" y2="177" fill="rgb(0, 0, 0)" stroke="rgb(60, 60, 60)" stroke-width="1px" opacity="0.25"></line><line x1="145.38194444444446" y1="0" x2="145.38194444444446" y2="177" fill="rgb(0, 0, 0)" stroke="rgb(60, 60, 60)" stroke-width="1px" opacity="0.25"></line><line x1="174.45833333333331" y1="0" x2="174.45833333333331" y2="177" fill="rgb(0, 0, 0)" stroke="rgb(60, 60, 60)" stroke-width="1px" opacity="0.25"></line><line x1="203.53472222222223" y1="0" x2="203.53472222222223" y2="177" fill="rgb(0, 0, 0)" stroke="rgb(60, 60, 60)" stroke-width="1px" opacity="0.25"></line><line x1="232.6111111111111" y1="0" x2="232.6111111111111" y2="177" fill="rgb(0, 0, 0)" stroke="rgb(60, 60, 60)" stroke-width="1px" opacity="0.25"></line><line x1="261.6875" y1="0" x2="261.6875" y2="177" fill="rgb(0, 0, 0)" stroke="rgb(60, 60, 60)" stroke-width="1px" opacity="0.25"></line></g><g><line x1="0" y1="177" x2="261.6875" y2="177" fill="rgb(0, 0, 0)" stroke="rgb(60, 60, 60)" stroke-width="1px" opacity="0.25"></line><line x1="0" y1="162.25" x2="261.6875" y2="162.25" fill="rgb(0, 0, 0)" stroke="rgb(60, 60, 60)" stroke-width="1px" opacity="0.25"></line><line x1="0" y1="147.5" x2="261.6875" y2="147.5" fill="rgb(0, 0, 0)" stroke="rgb(60, 60, 60)" stroke-width="1px" opacity="0.25"></line><line x1="0" y1="132.75" x2="261.6875" y2="132.75" fill="rgb(0, 0, 0)" stroke="rgb(60, 60, 60)" stroke-width="1px" opacity="0.25"></line><line x1="0" y1="118" x2="261.6875" y2="118" fill="rgb(0, 0, 0)" stroke="rgb(60, 60, 60)" stroke-width="1px" opacity="0.25"></line><line x1="0" y1="103.25" x2="261.6875" y2="103.25" fill="rgb(0, 0, 0)" stroke="rgb(60, 60, 60)" stroke-width="1px" opacity="0.25"></line><line x1="0" y1="88.5" x2="261.6875" y2="88.5" fill="rgb(0, 0, 0)" stroke="rgb(60, 60, 60)" stroke-width="1px" opacity="0.25"></line><line x1="0" y1="73.75" x2="261.6875" y2="73.75" fill="rgb(0, 0, 0)" stroke="rgb(60, 60, 60)" stroke-width="1px" opacity="0.25"></line><line x1="0" y1="59" x2="261.6875" y2="59" fill="rgb(0, 0, 0)" stroke="rgb(60, 60, 60)" stroke-width="1px" opacity="0.25"></line><line x1="0" y1="44.25" x2="261.6875" y2="44.25" fill="rgb(0, 0, 0)" stroke="rgb(60, 60, 60)" stroke-width="1px" opacity="0.25"></line><line x1="0" y1="29.5" x2="261.6875" y2="29.5" fill="rgb(0, 0, 0)" stroke="rgb(60, 60, 60)" stroke-width="1px" opacity="0.25"></line><line x1="0" y1="14.75" x2="261.6875" y2="14.75" fill="rgb(0, 0, 0)" stroke="rgb(60, 60, 60)" stroke-width="1px" opacity="0.25"></line><line x1="0" y1="0" x2="261.6875" y2="0" fill="rgb(0, 0, 0)" stroke="rgb(60, 60, 60)" stroke-width="1px" opacity="0.25"></line></g></g></g><g><g><line x1="0" y1="162.25" x2="261.6875" y2="162.25" fill="rgb(0, 0, 0)" stroke="rgb(153, 153, 153)" stroke-width="1.5px"></line></g></g><g><g><line x1="29.076388888888886" y1="0" x2="29.076388888888886" y2="177" fill="rgb(0, 0, 0)" stroke="rgb(153, 153, 153)" stroke-width="1.5px"></line></g></g><g><g><g><g><g><path stroke="rgb(255, 112, 67)" stroke-width="2px" d="M29.138903125000002,145.73L29.320630555555557,119.80105263157894L29.41076736111111,131.98147601476015L29.766953125,134.5210293690026L29.857089930555556,134.5928153158653L29.919604166666666,135.8994137771337L29.92978090277778,131.2809988631465L29.999564236111112,134.85392767324248L30.01846388888889,138.8927621237074L30.115869791666665,141.3692251903943L30.252528819444446,141.4458475932775L30.552015625000003,143.0706570021745L31.015784027777777,143.54588886529763L31.09138263888889,139.08602652811322L31.101559375,139.32830734748774L31.165527430555557,139.9692433475214L31.598765625,135.49156915111558L31.60312708333333,136.07144910640997L31.806661805555553,135.85796576144492L31.86481458333333,136.84746977269177L32.03781909722222,135.98988694985076L32.431804166666666,136.54673503387397L32.55101736111111,137.6191050186511L32.69058402777778,138.75695691533252L32.692037847222224,139.76244501191795L32.981347916666664,140.49503366341025L33.49454618055555,141.1134935784773L33.77367951388889,142.3477381163783L33.796940625,143.22897153277597L33.88271597222222,141.50316546116434L34.33776145833333,141.9426148050702L34.340669097222225,142.64030997057614L34.413360069444444,142.89825013834457L34.63288680555555,142.0364561881707L34.82915243055555,143.20198558255134L35.35398125,144.18493121626344L35.47464826388889,140.307827650246L35.608399652777784,141.34089632617116L35.63311458333333,141.06731358864496L35.875902430555556,131.98889519013878L36.30477916666666,133.77020203022235L36.54175173611111,134.71195700290886L36.84850763888889,135.70647752344632L36.868861111111116,136.48033443210804L37.39805138888889,132.29476953092788L37.60303993055556,132.97992458535325L37.665554166666666,132.15459735173624L37.78622118055555,124.46571568109823L38.09152326388889,125.77363379738946L38.119145833333334,127.3644692258406L38.81697916666667,129.1206682527602L38.834425,130.61082216128193L39.042321180555554,130.29254414213128L39.20514895833333,131.63432682101825L39.47992083333334,128.59489437785993L39.92333576388889,129.7214906054066L39.92769722222222,131.29672455121073L40.414726736111106,132.38847417673412L40.46561041666667,129.67571024269324L40.80435034722222,131.07715763382058L40.97008576388889,132.13114649639635L41.02969236111111,133.13849812597243L41.43240034722223,133.51313910073551L41.44693854166666,134.17510566145546L41.58214375,134.5640077657933L41.98485173611111,130.72093683745112L42.06771944444445,130.74686543945495L42.540210763888886,131.6558820689685L42.84260520833334,132.6214661003313L42.96763368055556,132.72288303599476L42.986533333333334,133.2273792283287L43.17698368055556,133.97652151677207L44.196111111111115,134.29651553065094L44.312416666666664,134.6139944926527L44.374930902777784,134.19143870261084L44.49850555555555,134.48989421494232L44.75001631944444,131.24693290819195L44.92738229166667,131.48580404607958L44.931743749999995,132.34993340839478L45.02042673611111,132.38994880990015L45.098932986111116,132.27843200168905L45.21814618055556,132.7681754686522L45.843288541666666,133.20892811954093L45.89271840277778,132.46967934283936L46.06572291666667,131.96664651379533L46.17330555555555,132.6940663204432L46.47860763888889,133.14220651711182L46.485876736111116,133.51602102120012L46.76210243055555,132.11180006371498L46.945283680555555,132.2936339089636L47.79867569444444,131.77873521681207L48.026925347222225,131.69885676633874L48.06617847222222,129.32583930824597L48.845425694444444,128.57671793636663L48.87886354166667,127.31248927524406L49.15508923611111,127.9447659446604L49.75260902777778,128.18929825982448L49.85873784722222,128.02586307449988L49.92270590277778,126.75773934133844L50.08117222222222,125.2919264731643L50.358851736111106,124.35621145733805L50.40246631944444,124.72359821583231L50.56384027777778,126.20476707450648L50.70049930555555,125.76778275175897L51.57279097222222,121.68694047167159L51.62222083333334,120.53648018481826L51.99585243055556,121.58084543419773L52.507596875,122.57977231231935L52.80562986111111,124.83581829677101L53.58487708333334,124.15223013611933L53.88872534722222,125.2775165020488L53.93379375,123.66475275333607L54.25363402777778,122.98027285670139L54.28561805555555,118.4997183454073L54.58219722222222,116.23723413789138L54.602550694444446,116.73801318887705L55.90226527777777,118.98822183772229L56.86905520833333,121.57390996237362L56.94610763888889,123.9010273159523L57.47239027777778,124.01892496507759L57.63085659722222,123.77103174811248L57.651210069444446,123.54792798973111L57.763154166666666,123.61263534308688L58.1469625,122.90387030711182L58.23128402777778,121.64648087876336L58.24436840277778,120.69183115256132L58.35485868055555,120.59964789492462L58.50896354166667,120.60518311312657L58.52059409722222,120.61016480804639L58.62381527777778,116.36664354917065L58.79391215277778,116.47097929998446L58.937840277777774,116.38788129419778L58.99453923611111,116.283593079175L59.28675694444445,115.65873330964365L59.29111840277778,114.6538593105656L59.39724722222222,111.35997140849324L59.724356597222226,110.25397367201191L59.81740104166666,109.81907609401912L59.94533715277778,108.30666782486955L60.07181944444445,109.65950157350638L60.36839861111111,108.1630508873986L60.840889930555555,111.35924681507063L61.41805625,113.26232267823545L61.541630902777776,113.16084038427152L61.58233784722222,110.75375578781735L62.71631701388889,111.50788036637937L62.73085520833333,112.4520925070454L62.79482326388889,113.30188339995709L62.83262256944444,111.67719481284357L62.93148229166666,112.60447545849603L63.040518750000004,113.85202806634783L63.136470833333334,116.44982554776226L63.300752430555555,118.25684317331536L63.48974895833334,120.35515904444301L63.50574097222222,120.53264315434528L63.53481736111111,120.6923788505315L63.87937256944444,119.95114091694596L64.18322083333334,119.93302682418394L64.37948645833333,121.24422421130433L64.38239409722223,122.4243018465003L64.43763923611111,122.98487168593124L64.87233125,120.00838440226056L65.01480555555555,121.25304600534372L65.02643611111111,122.37324143988982L65.27940069444445,122.52591730020396L65.3273767361111,116.23232541053864L65.79114513888888,115.22909284658132L65.905996875,112.70368351003444L65.99177222222222,113.6315651761894L66.60383020833333,114.62890867516904L66.65471388888889,115.26101781712019L66.76229652777776,116.50841605222396L67.31765555555556,114.20907441910455L68.03584236111111,113.40816696844871L68.03729618055554,112.68735026452006L68.55485590277777,115.1656152599875L68.56212500000001,117.1895537500997L69.06514652777778,117.40334837662141L69.20762083333334,118.05301354314815L69.2585045138889,114.80271216997187L69.53036875,109.36994092460101L69.66266631944444,110.35094683675204L70.42156006944444,110.93885215556391L70.57421111111111,111.82196694336983L71.19499201388888,112.73477025216067L71.23279131944444,116.12279323739307L71.32874340277777,116.51701391474795L71.53082430555556,116.9603125243805L71.6209611111111,115.86953126949015L71.92335555555556,116.1415781430916L71.94661666666666,116.62242032965807L72.12689027777778,117.17317829759492L72.44382291666666,116.31186046656495L72.69969513888888,117.0706744209158L72.73749444444445,116.10160697766639L72.945390625,115.70144627946945L73.16782500000001,116.63930165243015L73.37572118055556,115.77237148643202L73.58216354166667,116.43763433831032L73.71882256944444,115.29587090367377L73.73917604166667,111.84928381111796L74.73649618055555,112.78885543054308L74.7902875,113.9589698880906L75.15810381944445,114.09757289934569L75.42560659722223,113.30781560908213L75.50702048611112,112.74453404796272L75.60588020833333,112.41458064305509L75.90100555555556,108.54812257757534L76.2324763888889,104.77331031878605L76.38803506944444,101.70047928615153L76.55522430555556,102.17993135764253L76.70787534722221,101.43143822172914L76.89977951388889,101.34779439954123L76.91141006944444,103.35226495991063L77.10331423611112,107.53103846452656L77.31702569444445,105.86393461785596L77.44786944444445,106.75304115617497L77.59906666666666,104.13123704027984L77.63977361111111,104.42661333628L78.12534930555556,108.61595200301134L78.14279513888889,112.37160680300013L78.17041770833333,115.82544612294008L78.1951326388889,118.13740151079062L78.27363888888888,115.8226613595813L78.32743020833334,114.0048952235311L78.38122152777778,114.40440570119623L78.56004131944445,113.87896513105503L79.03398645833333,115.50056861800941L79.06451666666666,118.34651175630303L79.27095902777778,117.57436058064962L79.37854166666666,118.94442452262155L79.64604444444444,118.42714861697772L80.44564513888889,115.61143375521854L80.47617534722222,114.58179037967648L80.50961319444446,113.33061134168673L80.66371805555555,110.16905020746783L80.79456180555555,110.3621451867238L81.08241805555555,109.50343066804035L81.19581597222222,107.84558760121712L81.34701319444444,106.35352884107984L81.46913402777778,107.84267595698581L81.77298229166666,105.64290836126867L81.81514305555555,107.20311752515366L82.3297951388889,105.92280577262954L82.37340972222222,106.24552519536856L82.53042222222221,106.24097267583169L82.6510892361111,106.20737540824834L82.73395694444444,105.43963786742006L83.16283368055555,107.02017408068444L83.58007986111112,107.38065667261732L83.97988020833334,105.80234100535041L84.1427079861111,104.95710690481289L84.60211493055556,101.12839621432146L84.96120833333333,100.19005659288706L84.98446944444444,99.34555093359654L85.36973159722223,97.02199584023239L85.54418993055555,95.01929625620568L85.74917847222223,92.62686663058138L86.20713159722222,95.78367996752769L86.79738229166666,96.73681197077613L86.91223402777777,98.27313077370027L87.05325451388889,99.95081769633197L87.09832291666666,100.81173592669957L87.259696875,100.2000623340291L87.66095104166668,96.40455610062337L87.95753020833334,97.82660049056197L88.19450277777777,93.97344044150344L88.20031805555556,92.6885963973524L88.24829409722223,91.85673675761676L88.27737048611111,91.53581308185493L88.38349930555556,92.70723177366989L88.74259270833333,95.14800859630378L89.039171875,94.92570773667335L89.078425,95.49263696300618L89.18019236111111,95.88487326670565L89.46804861111112,96.91638594003533L89.49130972222223,94.37849734603127L90.33307118055556,95.94414761142842L90.79247812499999,95.9962328502856L90.81864687500001,96.16110956525708L91.12394895833333,98.6399986087317L92.34515729166667,97.68499874785842L92.47454722222223,94.96699887307227L92.52106944444445,94.93979898576505L92.62574444444445,94.70881908718852L92.66499756944445,90.93143717846935L92.67081284722222,87.53179346062215L92.76240347222222,90.10661411456012L93.03572152777778,89.60670270310408L93.15202708333332,92.74103243279383L93.33666215277778,89.13092918951426L93.34683888888888,89.15633627056285L93.41080694444445,92.04070264350668L93.487859375,93.19113237915604L94.23221493055556,91.98451914124041L94.44738020833333,90.92806722711634L94.9504017361111,90.06576050440468L94.96348611111111,89.2896844539642L95.04053854166668,89.47621600856779L95.23680416666667,91.11909440771105L95.45633090277778,92.36168496693995L96.41585173611111,93.89301647024597L96.43911284722222,85.56571482322126L96.55396458333334,83.82364334089911L96.67899305555557,84.28144591354749L97.84495625,84.93930132219275L98.25784097222223,86.79987118997347L98.33489340277778,89.86088407097616L98.37996180555557,94.79879566387858L98.43229930555556,96.05691609749073L98.48899826388889,98.78222448774169L98.68962534722222,99.08150203896753L98.78412361111111,101.47485183507078L98.81756145833333,103.18636665156372L98.97166631944445,102.27822998640733L99.12431736111111,103.2899069877666L99.19119305555556,102.13541628898994L99.62006979166667,98.64787466009093L100.08819965277777,97.63308719408184L100.710434375,97.63427847467365L100.82528611111111,96.33735062720629L101.00846736111112,95.81911556448567L101.77753784722222,92.40270400803709L101.85022881944445,89.94743360723339L101.98543402777779,90.12719024651005L102.00869513888888,90.22997122185903L102.05230972222222,89.20147409967313L102.15843854166667,89.75082668970583L102.68326736111112,90.24524402073523L102.95949305555555,90.39521961866171L103.19210416666667,87.81619765679554L103.41744618055556,81.689577891116L103.55265138888889,83.8751201020044L103.63261145833334,82.90685809180394L104.38278229166666,86.97667228262357L104.39441284722221,89.4300050543612L104.609578125,87.12450454892507L104.67790763888888,87.82255409403257L105.10096909722222,86.88729868462931L105.18965208333334,87.3435688161664L105.41790173611112,91.38271193454975L105.66795868055556,90.20944074109477L105.99361423611111,88.0029966669853L106.04159027777777,86.01719700028674L106.26402465277778,86.53097730025807L106.28583194444444,85.31187957023225L106.81066076388888,85.83719161320903L107.15666979166666,86.01497245188811L107.16684652777778,86.55847520669931L107.17266180555555,87.04762768602937L107.17847708333333,87.48786491742644L107.383465625,87.91357842568378L107.44743368055555,85.7597205831154L107.68876770833333,86.94824852480386L107.74110520833334,89.19792367232347L107.7629125,89.42313130509115L107.93446319444445,89.62581817458204L108.58868194444445,91.01773635712384L108.75732500000001,88.73046272141144L108.94632152777777,86.6424164492703L109.01174340277778,88.24417480434325L109.31849930555555,88.00425732390893L109.47260416666667,89.20433159151804L109.82733611111111,84.94489843236623L109.83896666666666,86.83440858912961L110.07448541666668,86.44046773021665L110.15153784722223,88.15092095719498L110.98166875,84.35082886147548L111.22881805555555,84.79524597532792L111.24917152777778,82.83522137779514L111.37565381944445,84.90619924001562L111.6358875,86.74057931601406L111.68386354166667,88.65702138441264L111.94409722222221,87.16631924597138L112.38024305555555,87.90443732137423L112.38896597222222,81.73949358923682L112.64919965277777,83.92004423031314L113.05045381944444,81.36903980728182L113.82824722222223,82.64263582655363L114.03905104166667,83.55287224389828L114.20769409722223,86.73208501950843L114.33126875,87.38087651755761L114.44466666666668,87.56653886580183L114.48391979166666,87.95488497922165L114.50863472222223,84.73489648129947L115.23699826388888,83.75440683316954L115.30532777777779,81.01346614985258L115.48123993055555,83.11911953486731L115.783634375,84.57170758138058L115.82724895833333,85.25953682324251L116.56724305555555,84.10858314091826L116.57596597222222,85.37372482682642L116.60795,84.74235234414377L116.73879375,86.59311710972939L116.99757361111111,87.69830539875645L118.05886180555557,85.7134748588808L118.1620829861111,86.87712737299273L118.39760173611111,87.33441463569346L118.53716840277778,88.39497317212411L118.74942604166667,88.6709758549117L119.41672916666666,90.12887826942054L119.53303472222223,88.52049044247848L119.96481909722222,91.20294139823062L120.0098875,92.46664725840756L120.48528645833332,90.5949825325668L120.703359375,88.3499842793101L120.98830798611111,86.29998585137909L121.29070243055556,87.99498726624118L121.29215625,89.52048853961708L121.41427708333335,87.58943968565535L121.64398055555556,86.14649571708983L121.92602152777778,84.90684614538085L122.10484131944445,83.49616153084276L122.26476145833334,86.09104537775848L122.44939652777778,87.21694083998263L122.86518888888888,89.11524675598437L122.87972708333334,90.52872208038593L123.12106111111112,91.97784987234733L123.41473263888888,91.9250648851126L123.93229236111111,89.48805839660133L124.000621875,90.3037525569412L124.23032534722223,90.71337730124706L124.27539374999999,82.85153957112236L124.44985208333334,81.94138561401012L124.5109125,81.06324705260911L124.60686458333333,83.22292234734819L124.89472083333334,85.40263011261337L125.10116319444445,83.35236710135204L125.46316423611111,82.86413039121682L126.17408194444444,76.64271735209513L126.408146875,76.11744561688563L126.44885381944444,71.10170105519705L126.51427569444445,75.46703094967737L127.12342604166668,78.27482785470961L128.31991944444445,77.85184506923866L128.34608819444443,72.72166056231478L128.48710868055556,72.49999450608331L128.5612534722222,75.57499505547496L128.79531840277778,70.52499554992747L129.28816319444445,68.22199599493472L129.37393854166666,71.10529639544124L129.6399875,69.62926675589713L129.66034097222223,71.8408400803074L130.05287222222222,75.01125607227665L130.08340243055557,77.27463046504899L130.43668055555557,77.1286674185441L130.55153229166666,77.88230067668968L130.72162916666667,77.82307060902072L131.51686840277776,73.46276354811864L131.68841909722224,75.57123719330677L131.79890937500002,76.7461134739761L132.1754486111111,78.36400212657848L132.2932079861111,80.88210191392064L132.92125798611113,79.16589172252858L133.1044392361111,79.95180255027572L133.14223854166667,80.65912229524814L133.31088159722222,79.82071006572332L133.53476979166666,80.482139059151L133.61618368055557,80.75292515323589L133.6903284722222,77.45663263791229L133.72231250000002,79.20996937412104L133.77028854166667,80.02097243670896L133.8066340277778,73.49387519303806L134.18462708333334,73.07698767373424L134.1875347222222,72.70178890636082L134.33582430555558,68.70611001572472L134.3401857638889,65.10999901415224L134.56407395833332,66.91799911273701L134.80395416666667,69.5481992014633L135.02202708333334,68.49337928131698L135.21974652777777,69.99254135318527L135.46689583333335,72.93478721786676L135.66897673611112,73.60630849608008L136.35372569444445,75.39067764647206L136.36099479166666,77.76360988182485L136.42932430555558,74.70724889364237L136.51655347222223,75.37852400427813L136.54999131944444,75.9826716038503L136.93234583333333,73.18307135020358L137.97037291666666,72.23676421518321L138.36290416666668,73.12558779366488L138.79614236111112,71.00502901429839L138.8223111111111,75.02602611286854L138.9386166666667,76.31442350158167L139.4634454861111,75.05498115142352L139.7120486111111,70.82398303628116L139.88505312499998,70.70358473265303L140.19471666666666,70.59522625938773L140.26886145833333,74.03770363344896L140.47821145833333,71.79643327010406L140.54654097222223,69.80878994309364L140.71663784722222,68.16741094878428L140.8852809027778,66.54266985390585L140.89545763888887,65.08040286851525L141.30979618055557,67.89436258166374L141.7924642361111,64.06967632349735L142.187903125,63.444708691147625L142.33183125000002,65.68473782203284L142.672025,64.27876403982957L142.77815381944444,64.8128876358466L142.86102152777778,62.93359887226195L143.60246944444444,65.34273898503575L143.70132916666668,66.95046508653218L143.81327326388887,68.83991857787893L143.8336267361111,70.54042672009105L143.89032569444444,64.75488404808193L143.93684791666666,66.92289564327373L144.53727534722222,68.96260607894637L144.79750902777778,72.74534547105172L145.34705277777778,73.08181092394655L145.42846666666665,75.09562983155189L145.43428194444445,75.7870668483967L145.52878020833333,71.04036016355703L145.6232784722222,73.87782414720132L145.95038784722223,76.37254173248118L145.9736489583333,79.23728755923305L146.18299895833334,73.99805880330976L146.2207982638889,76.56925292297876L146.27458958333332,74.10432763068088L146.83140243055556,75.70614486761278L146.859025,72.82603038085152L147.0073145833333,76.39942734276636L147.3911229166667,76.31148460848972L147.5554045138889,74.72783614764074L147.60628819444443,71.00155253287669L148.22125381944446,71.763147279589L149.3610482638889,70.95883255163011L149.410478125,69.0549492964671L149.5253298611111,67.34145436682039L149.85389305555555,66.97930893013836L149.92949166666665,66.65337803712451L150.13302638888888,65.18004023341204L150.48630451388888,63.854036210070845L150.8526670138889,63.30963258906375L151.08673194444444,66.89066933015738L151.43855625,66.57360239714163L151.48507847222223,66.28824215742748L151.79328819444444,66.03141794168472L152.07242152777778,66.39027614751623L152.19599618055554,66.71324853276461L152.38790034722223,67.00392367948815L152.681571875,65.49553131153935L152.72809409722223,61.77797818038542L152.78188541666665,60.79218036234687L152.8981909722222,57.544962326112184L153.11771770833332,60.52246609350095L153.3910357638889,60.842219484150874L153.43610416666667,59.949997535735776L153.48408020833332,59.1469977821622L153.64981562499997,60.19429800394599L153.74140625,60.54686820355137L154.08450763888888,59.68418138319623L154.12666840277777,60.677763244876616L155.24029409722223,64.52198692038895L155.25919375,69.33878822835005L155.36386875,73.55590940551504L155.57176493055556,74.78481846496354L156.13148541666666,78.54583661846716L156.214353125,77.81550295662045L156.3684579861111,79.8279526609584L156.46295625,82.67165739486258L156.528378125,77.20699165537631L156.76535069444444,72.28879248983868L157.21312708333335,67.8624132408548L157.993828125,68.03817191676931L158.1988166666667,66.4263547250924L158.84867395833334,64.97571925258315L158.9722486111111,66.62014732732483L158.9955097222222,70.46013259459235L159.55086875,68.60611933513312L159.57558368055555,69.8875074016198L159.76458020833334,68.09075666145782L159.88233958333333,67.06368099531203L159.9724763888889,67.31931289578083L160.26614791666668,67.54938160620273L160.57581145833333,63.56744344558244L161.48299479166667,63.2876991010242L161.51207118055558,64.36342919092178L161.8115579861111,64.29908627182961L162.06452256944445,63.06117764464665L162.28259548611112,63.127059880181974L162.311671875,63.186353892163766L162.31603333333334,63.2397185029474L162.4396079861111,63.28774665265266L162.44396944444443,63.330971987387386L162.96589062500001,66.90987478864865L163.00368993055554,66.59088730978377L163.88906597222223,57.5717985788054L163.97484131944444,57.00661872092486L164.46623229166664,57.67795684883238L164.60725277777777,58.28216116394913L164.96779999999998,64.48994504755422L165.5929423611111,64.9734505427988L166.28932187499998,65.43810548851893L166.51611770833333,64.08629493966701L166.87666493055556,64.02016544570031L167.0322236111111,65.7601489011303L167.2735576388889,65.55613401101725L167.45819270833334,69.50252060991555L167.65736597222224,71.69726854892399L167.7387798611111,72.72854169403158L167.78530208333333,75.36768752462841L167.88852326388889,74.77816877216557L168.44097465277778,77.80235189494901L168.57036458333334,72.29361670545411L168.60380243055553,67.89625503490869L169.0821090277778,66.09212953141781L169.4223027777778,65.85491657827605L169.51680104166667,71.06942492044844L170.12449756944446,65.31948242840359L170.32512465277776,65.15953418556323L170.42689201388887,65.60558076700691L170.528659375,65.41702269030623L170.70311770833334,64.06732042127558L170.7670857638889,60.46308837914803L170.96480520833333,59.60877954123322L171.1770628472222,58.83990158710991L171.25556909722224,54.90291142839891L171.37187465277776,55.784620285559015L171.53179479166667,56.5486582570031L171.75422916666668,57.8557924313028L171.8603579861111,57.262213188172524L172.13949131944443,56.727991869355264L172.24125868055555,57.427192682419744L172.31249583333332,61.00647341417776L173.08592777777778,61.27782607275998L173.74160034722223,61.52204346548399L173.89570520833334,60.56183911893558L173.89861284722224,59.69765520704202L174.29114409722223,63.04988968633782L174.872671875,67.21740071770402L175.2826489583333,68.63766064593361L175.31608680555556,70.13714458134025L175.55160555555557,73.44843012320621L175.7071642361111,72.9770871108856L175.79293958333332,68.65887839979703L175.80602395833333,64.77249055981733L175.90924513888888,64.66724150383558L176.01828159722223,64.54301735345202L176.1389486111111,63.28071561810681L176.2538003472222,62.115144056296145L176.4006361111111,58.706129650666526L176.4297125,55.638016685599865L176.54020277777778,57.00671501703988L176.62307048611112,56.46854351533588L176.63906250000002,57.75418916380228L177.25548194444445,58.35077024742205L177.28455833333334,59.47769322267986L177.81374861111112,54.88692390041187L178.10742013888887,55.77023151037068L178.15394236111112,55.38520835933362L178.2324486111111,55.628687523400274L178.36329236111112,57.02781877106024L178.6467871527778,57.66753689395419L178.69185555555558,57.0632832045588L178.77181562500002,58.318954884102894L178.82269930555555,57.64955939569262L178.83723750000001,57.04710345612335L179.12073229166666,55.35439311051101L179.49291006944443,56.751453799459924L179.57287013888887,56.26830841951393L180.1980125,56.98397757756253L180.6763190972222,51.462579819806265L180.76064062499998,51.50832183782565L181.29855381944444,51.54948965404307L181.44975104166667,53.35654068863877L181.47010451388888,54.98288661977489L181.49772708333333,54.67659795779737L181.55733368055556,54.40093816201764L181.57768715277777,51.79284434581588L181.59949444444445,53.575559911234265L181.61839409722222,59.310003920110844L181.67509305555555,58.54150352809977L181.8640895833333,63.18935317528978L182.1141465277778,63.2424178577608L182.3598420138889,63.29017607198472L182.6157142361111,66.28315846478624L182.749465625,66.61684261830761L182.85414062499999,65.14715835647687L182.87449409722223,63.824442520829166L183.48800590277776,60.27399826874624L183.57087361111113,59.43859844187162L183.74969340277778,58.68673859768445L184.005565625,56.535064737916L184.15094756944444,53.56605826412441L184.3006909722222,53.371952437711954L184.78626666666665,53.22675719394077L185.74724131944444,54.80708147454669L185.80539409722223,52.15837332709202L185.8533701388889,50.21703599438281L186.12087291666668,52.15733239494455L186.7431076388889,49.773599155450086L186.94228090277778,47.598739239905086L187.8959864583333,48.03086531591455L187.89744027777778,48.419778784323114L187.98176180555555,49.9203009058908L188.27252569444443,50.14977081530172L188.38737743055555,51.16754373377154L188.7392017361111,48.8532893603944L189.08957222222222,50.92996042435496L189.2756611111111,52.20896438191943L189.32363715277776,53.950067943727504L189.605678125,55.930061149354785L189.69290729166667,55.52905503441927L189.84991979166668,56.31864953097735L189.90225729166667,57.648784577879624L189.92987986111112,58.816406120091656L190.06944652777779,59.27726550808251L190.73384201388888,58.541538957274255L190.7934486111111,57.584385061546826L190.92138472222223,54.62844655539213L191.24413263888889,55.508101899852946L191.4665670138889,56.94879170986765L191.7413388888889,58.21591253888087L191.78204583333334,58.736821284992786L192.588915625,59.79563915649351L192.8709565972222,60.74857524084416L192.92765555555556,59.806717716759735L193.216965625,60.78804594508375L193.82756979166666,61.61224135057539L194.03255833333336,61.82301721551785L194.21573958333332,62.012715493966056L194.4367201388889,63.215943944569446L194.78418298611112,63.51709955011249L195.23777465277777,64.09788959510124L195.4805625,64.65010063559112L195.49219305555553,65.117590572032L196.00539131944444,65.5383315148288L196.4066454861111,65.06149836334592L196.48369791666667,64.83884852701134L197.00271145833335,63.546963674310206L197.02015729166666,62.38426730687918L197.37925069444444,62.51784057619126L197.38942743055557,61.45805651857215L197.54353229166668,62.215250866714925L197.77759722222223,62.306725780043436L197.90844097222222,61.2680532020391L198.37947847222222,60.27424788183518L198.6280815972222,59.43882309365166L198.69931875,58.65744078428649L198.7545638888889,57.954196705857825L198.80399375000002,57.350777035272046L198.85923888888888,56.80769933174484L198.9159378472222,56.31892939857036L199.08458090277776,55.879036458713315L199.19797881944444,55.48313281284197L199.21833229166666,55.126819531557786L199.24304722222223,54.80613757840199L199.4000597222222,54.48802382056181L200.09789305555557,51.8712214385056L200.37411875,49.48659929465505L200.54276180555556,47.36993936518954L200.86260208333331,47.82494542867062L200.90476284722223,48.20495088580353L201.57497361111112,48.57645579722319L201.94860520833333,48.91081021750085L201.99076597222222,49.81647919575076L202.07944895833333,49.9973312761757L202.52141006944444,51.36959814855811L202.7656517361111,51.424638333702305L203.50564583333332,51.47417450033208L203.52745312500002,51.48925705029883L203.9592375,49.17233134526897L204.77773784722223,51.18759821074207L205.26912881944446,48.90083838966788L205.27058263888887,46.8427545507011L205.4319565972222,49.120479095630955L205.47266354166666,49.42993118606786L205.51627812499999,47.31893806746106L205.57588472222224,47.72004426071496L205.7445277777778,48.081039834643434L206.20393472222221,48.43543585117911L206.26499513888888,48.488892266061214L206.31733263888887,48.77300303945509L206.74184791666667,49.08770273550955L206.78691631944446,49.37093246195862L207.21288541666667,47.26583921576275L207.348090625,47.73125529418644L207.36553645833334,48.150129764767826L207.5181875,46.167116788291054L207.99649409722224,44.382405109461956L208.78301041666666,46.906164598515744L208.81790208333334,47.40754813866417L208.865878125,47.82929332479773L209.50119722222223,48.23836399231797L209.59714930555555,48.57702759308614L209.63785625,48.91132483377754L210.1248857638889,49.18269235039979L210.38511944444443,47.096423115359784L210.45635659722222,45.189280803823806L210.46071805555556,43.472852723441434L210.47671006944447,41.957567451097276L210.540678125,43.54381070598754L210.8677875,45.531929635388764L211.22688090277776,47.350736671849916L212.90458854166667,45.44766300466492L213.25786666666664,44.90014670419839L213.61841388888888,43.2421320337786L213.69546631944445,41.74991883040073L213.8539326388889,43.94692694736065L214.047290625,44.74423425262455L214.31479340277778,43.04281082736213L214.50088229166667,45.051529744625896L214.57793472222224,45.73837677016331L214.6389951388889,43.937539093146995L214.79746145833332,42.37578518383228L214.80763819444445,45.100206665449065L214.85416041666664,47.52268599890414L214.9006826388889,49.73241739901371L214.989365625,49.87742565911236L215.015534375,50.00793309320109L215.329559375,47.83913978388102L215.60869270833334,45.887225805492875L215.75988993055554,44.130503224943624L215.85002673611112,46.67945290244924L216.10299131944444,44.84350761220432L216.4053857638889,43.19115685098387L216.83280868055556,44.0640411658855L216.89096145833332,44.79063704929695L217.082865625,46.68357334436726L217.2108017361111,48.38721600993054L217.22824756944445,46.380494408937494L217.23987812500002,48.11444496804373L217.3503684027778,49.04075047123936L217.41288263888887,49.32867542411542L217.59751770833333,47.817807881703885L217.8184982638889,48.1985270935335L217.96533402777777,46.21067438418012L218.17759166666667,47.90260694576213L218.31425069444444,45.94434625118589L218.53377743055557,46.54191162606733L219.09640555555555,44.71972046346056L219.42060729166667,43.07974841711453L219.50783645833334,43.37377357540305L219.54418194444446,41.86839621786277L220.2420152777778,42.87355659607647L220.25800729166667,41.388700936468865L220.5167871527778,42.44183084282196L220.550225,42.19489775853978L220.59529340277777,43.13790798268579L220.80173576388887,41.656117184417184L220.8220892361111,40.322505465975496L221.7176420138889,41.48225491937794L221.96479131944443,40.94286324091672L222.3137079861111,43.19107691682504L222.3369690972222,45.243969225142536L222.735315625,45.88207230262827L222.89814340277778,44.12586507236546L223.15692326388887,44.8462785651289L223.20344548611112,43.13465070861599L223.3081204861111,43.659185637754405L223.68611354166666,42.12526707397896L223.89982500000002,43.10474036658107L224.436284375,43.95676632992297L224.4551840277778,42.393089696930645L224.57875868055555,40.9857807272376L225.09486458333333,39.71920265451385L225.12830243055555,40.93928238906247L225.13557152777778,39.67735415015622L225.16464791666667,38.54161873514059L225.31875277777777,37.51945686162654L225.81886666666668,38.95951117546386L226.23756666666668,37.80706005791751L226.61119826388887,36.858354052125776L227.10113541666666,38.36451864691318L227.20435659722224,37.330566782221865L227.3177545138889,36.42951010399969L227.7757076388889,35.55955909359972L227.7829767361111,34.776603184239775L227.80478402777777,34.0719428658158L228.28454444444444,33.46724857923422L228.3310666666667,32.9525237213108L228.61746909722223,34.81977134917972L228.95184756944445,34.110794214261745L229.07251458333332,35.891714792835586L229.10013715277776,35.04604331355202L229.24988055555554,34.31443898219683L229.3327482638889,33.71499508397716L229.65549618055556,33.160745575579426L229.93172187500002,35.007171018021495L230.350421875,34.30895391621934L230.39112881944445,33.6510585245974L230.51615729166667,35.41895267213769L231.0700625,37.06905740492394L231.1020465277778,38.495151664431546L231.53383090277777,37.477636497988385L231.74463472222223,36.53237284818954L231.81151041666666,38.0711355633706L232.57621944444443,40.60652200703353L232.63437222222223,39.318869806330184L232.6460027777778,38.15998282569714L232.67798680555555,37.17598454312744L232.692525,36.2903860888147L232.80301527777777,35.40484747993324L232.8524451388889,36.997362731939916L232.97892743055556,36.10012645874593L233.02399583333332,35.29261381287134L233.70292951388888,34.53635243158422L233.96025555555556,33.855717188425785L234.0503923611111,33.27264546958321L234.38913229166667,32.747880922624915L234.39785520833334,32.27559283036243L235.3064923611111,31.850533547326194L235.3588298611111,31.467980192593586L235.4998503472222,31.12368217333423L235.7804375,34.32431395600082L235.80515243055555,33.75338256040072L235.80660625000002,33.23954430436066L236.2412982638889,32.747589873924596L236.2936357638889,33.455330886532124L236.6120222222222,35.21329779787894L236.81701076388887,34.52396801809104L237.24443368055557,35.06882121628195L237.47122951388891,34.33493909465375L237.67912569444445,36.0639451851884L237.80415416666665,35.230550666669586L237.81869236111112,34.48049560000263L238.02368090277778,33.834946040002364L238.08910277777778,33.22445143600211L238.1254482638889,32.67500629240192L238.3086295138889,32.18050566316174L238.410396875,31.70595509684557L238.6560923611111,31.337859587161034L238.75640590277777,31.03607362844491L238.84218124999998,30.70546626560042L239.01518576388887,30.393169639040394L239.195459375,30.15635267513636L240.2887315972222,29.94321740762271L240.77139965277777,32.11139566686046L240.78739166666668,31.702756100174412L240.91532777777778,33.69498049015695L240.9720267361111,33.127982441141256L241.03163333333333,32.61768419702713L241.236621875,34.48891577732442L241.7890732638889,33.84252419959199L241.91555555555556,33.26077177963279L242.34733993055556,32.707694601669516L243.21963159722222,32.268925141502564L243.3068607638889,31.844532627352322L243.32139895833333,31.4330793646171L243.5031263888889,33.48177142815541L244.33471111111112,32.96559428533985L244.51789236111114,34.86103485680587L244.6618204861111,35.70159827786358L244.85953993055557,37.26443845007719L245.0369059027778,38.670994605069495L245.12122743055556,39.99589514456255L245.22154097222221,38.739805630106304L245.22735625,37.60932506709568L245.3741920138889,38.981392560386126L245.4992204861111,37.826753304347505L245.52102777777776,39.19182797391275L246.33952812500002,38.045645176521504L246.50380972222223,37.073080658869344L246.68989861111112,38.55777259298239L246.7117059027778,37.533995333684175L246.81347326388888,36.612595800315745L246.98502395833333,38.08433622028417L247.05916875000003,39.408902598255764L247.15948229166668,40.63051233843018L247.16529756944445,41.72996110458715L247.93146041666668,40.30046499412845L247.95908298611113,42.5834184947156L248.07538854166665,43.42857664524402L248.25275451388887,45.36921898071964L248.40540555555555,42.39579708264765L248.6656392361111,43.28921737438293L248.68599270833334,44.09329563694462L248.73833020833334,44.846466073250156L248.79793680555554,45.49481946592513L248.93459583333333,43.718337519332636L249.00583298611113,42.11950376739935L249.0290940972222,40.68055339065941L249.14685347222223,39.444498051593484L249.26752048611112,38.24354824643413L249.39400277777779,39.522693421790734L249.42017152777777,38.34342407961165L249.6164371527778,37.25258167165049L249.81415659722222,38.66032350448543L250.3767847222222,37.53779115403691L250.43057604166665,37.72226203863323L250.81874583333334,39.0830358347699L251.11823263888888,37.91823225129292L251.17202395833334,36.914159026163645L252.32054131944443,38.355743123547285L252.4179472222222,39.65316881119256L252.50663020833332,40.8208519300733L252.65346597222222,43.02226673706596L253.03000520833334,41.49304006335936L253.12304965277778,40.08723605702343L253.72347708333334,38.32051245132109L253.9313732638889,37.231961206189L254.4024107638889,36.252265085570116L254.69462847222223,35.37053857701309L254.8080263888889,34.606484719311766L254.82111076388887,33.9188362473806L255.26888715277778,33.27045262264255L255.46660659722224,32.7164073603783L255.48841388888889,36.40676662434046L255.64397256944446,35.509589961906414" style="fill: none;" fill="none"></path></g></g></g></g><g opacity="0.2"><g><g><g><path stroke="rgb(255, 112, 67)" stroke-width="2px" d="M29.138903125000002,145.73L29.320630555555557,96.465L29.41076736111111,152.81L29.766953125,140.715L29.857089930555556,134.815L29.919604166666666,140.715L29.92978090277778,111.80499999999999L29.999564236111112,151.63L30.01846388888889,159.595L30.115869791666665,155.0225L30.252528819444446,141.895L30.552015625000003,153.105L31.015784027777777,146.615L31.09138263888889,109.14999999999999L31.101559375,141.01L31.165527430555557,144.55L31.598765625,102.66L31.60312708333333,140.42000000000002L31.806661805555553,134.225L31.86481458333333,144.55L32.03781909722222,129.20999999999998L32.431804166666666,141.01L32.55101736111111,146.32L32.69058402777778,148.09L32.692037847222224,148.09L32.981347916666664,146.615L33.49454618055555,146.32L33.77367951388889,152.81L33.796940625,150.745L33.88271597222222,126.7025L34.33776145833333,145.73L34.340669097222225,148.68L34.413360069444444,145.14L34.63288680555555,134.52L34.82915243055555,153.4L35.35398125,152.81L35.47464826388889,106.2L35.608399652777784,150.45L35.63311458333333,138.65L35.875902430555556,51.625L36.30477916666666,149.565L36.54175173611111,143.075L36.84850763888889,144.55L36.868861111111116,143.37L37.39805138888889,94.99000000000001L37.60303993055556,139.0925L37.665554166666666,124.785L37.78622118055555,55.754999999999995L38.09152326388889,137.47L38.119145833333334,141.6L38.81697916666667,144.845L38.834425,143.96L39.042321180555554,127.44L39.20514895833333,143.665L39.47992083333334,101.3325L39.92333576388889,139.82999999999998L39.92769722222222,145.435L40.414726736111106,142.19L40.46561041666667,105.315L40.80435034722222,143.665L40.97008576388889,141.6L41.02969236111111,142.19L41.43240034722223,136.88L41.44693854166666,140.125L41.58214375,138.06L41.98485173611111,96.17L42.06771944444445,130.98L42.540210763888886,139.82999999999998L42.84260520833334,141.305L42.96763368055556,133.635L42.986533333333334,137.765L43.17698368055556,140.715L44.196111111111115,137.175L44.312416666666664,137.47L44.374930902777784,130.39000000000001L44.49850555555555,137.175L44.75001631944444,102.07L44.92738229166667,133.635L44.931743749999995,140.125L45.02042673611111,132.75L45.098932986111116,131.275L45.21814618055556,137.175L45.843288541666666,137.175L45.89271840277778,125.8175L46.06572291666667,127.44L46.17330555555555,139.24L46.47860763888889,137.175L46.485876736111116,136.88L46.76210243055555,119.475L46.945283680555555,133.93L47.79867569444444,127.145L48.026925347222225,130.98L48.06617847222222,107.97L48.845425694444444,121.83500000000001L48.87886354166667,115.935L49.15508923611111,133.635L49.75260902777778,130.39000000000001L49.85873784722222,126.555L49.92270590277778,115.345L50.08117222222222,112.10000000000001L50.358851736111106,115.935L50.40246631944444,128.03L50.56384027777778,139.535L50.70049930555555,121.83500000000001L51.57279097222222,84.96L51.62222083333334,110.1825L51.99585243055556,130.98L52.507596875,131.57L52.80562986111111,145.14L53.58487708333334,118L53.88872534722222,135.405L53.93379375,109.14999999999999L54.25363402777778,116.82L54.28561805555555,78.175L54.58219722222222,95.875L54.602550694444446,121.245L55.90226527777777,139.24L56.86905520833333,144.845L56.94610763888889,144.845L57.47239027777778,125.08L57.63085659722222,121.53999999999999L57.651210069444446,121.53999999999999L57.763154166666666,124.195L58.1469625,116.525L58.23128402777778,110.33L58.24436840277778,112.10000000000001L58.35485868055555,119.77000000000001L58.50896354166667,120.655L58.52059409722222,120.655L58.62381527777778,78.175L58.79391215277778,117.41L58.937840277777774,115.64L58.99453923611111,115.345L59.28675694444445,110.035L59.29111840277778,105.61L59.39724722222222,81.715L59.724356597222226,100.3L59.81740104166666,105.905L59.94533715277778,94.695L60.07181944444445,121.83500000000001L60.36839861111111,94.695L60.840889930555555,140.125L61.41805625,130.39000000000001L61.541630902777776,112.2475L61.58233784722222,89.09L62.71631701388889,118.295L62.73085520833333,120.95L62.79482326388889,120.95L62.83262256944444,97.055L62.93148229166666,120.95L63.040518750000004,125.08L63.136470833333334,139.82999999999998L63.300752430555555,134.52L63.48974895833334,139.24L63.50574097222222,122.13L63.53481736111111,122.13L63.87937256944444,113.28L64.18322083333334,119.77000000000001L64.37948645833333,133.04500000000002L64.38239409722223,133.04500000000002L64.43763923611111,128.03L64.87233125,93.22L65.01480555555555,132.455L65.02643611111111,132.455L65.27940069444445,123.9L65.3273767361111,59.59L65.79114513888888,106.2L65.905996875,89.97500000000001L65.99177222222222,121.98249999999999L66.60383020833333,123.60499999999999L66.65471388888889,120.95L66.76229652777776,127.735L67.31765555555556,93.515L68.03584236111111,106.2L68.03729618055554,106.2L68.55485590277777,137.47L68.56212500000001,135.405L69.06514652777778,119.32750000000001L69.20762083333334,123.9L69.2585045138889,85.55L69.53036875,60.474999999999994L69.66266631944444,119.18L70.42156006944444,116.23L70.57421111111111,119.77000000000001L71.19499201388888,120.95L71.23279131944444,146.615L71.32874340277777,120.065L71.53082430555556,120.95L71.6209611111111,106.05250000000001L71.92335555555556,118.59L71.94661666666666,120.95L72.12689027777778,122.13L72.44382291666666,108.56L72.69969513888888,123.9L72.73749444444445,107.38000000000001L72.945390625,112.10000000000001L73.16782500000001,125.08L73.37572118055556,107.97L73.58216354166667,122.425L73.71882256944444,105.02L73.73917604166667,80.83L74.73649618055555,121.245L74.7902875,124.49L75.15810381944445,115.345L75.42560659722223,106.2L75.50702048611112,107.675L75.60588020833333,109.44500000000001L75.90100555555556,73.75L76.2324763888889,70.8L76.38803506944444,74.045L76.55522430555556,106.495L76.70787534722221,94.695L76.89977951388889,100.595L76.91141006944444,121.39250000000001L77.10331423611112,145.14L77.31702569444445,90.86L77.44786944444445,114.755L77.59906666666666,80.535L77.63977361111111,107.085L78.12534930555556,146.32L78.14279513888889,146.1725L78.17041770833333,146.91L78.1951326388889,138.945L78.27363888888888,94.99000000000001L78.32743020833334,97.64500000000001L78.38122152777778,118L78.56004131944445,109.14999999999999L79.03398645833333,130.095L79.06451666666666,143.96L79.27095902777778,110.625L79.37854166666666,131.275L79.64604444444444,113.77166546630859L80.44564513888889,90.27L80.47617534722222,105.315L80.50961319444446,102.07L80.66371805555555,81.715L80.79456180555555,112.10000000000001L81.08241805555555,101.775L81.19581597222222,92.925L81.34701319444444,92.925L81.46913402777778,121.245L81.77298229166666,85.845L81.81514305555555,121.245L82.3297951388889,94.4L82.37340972222222,109.14999999999999L82.53042222222221,106.2L82.6510892361111,105.905L82.73395694444444,98.53L83.16283368055555,121.245L83.58007986111112,110.625L83.97988020833334,91.5975L84.1427079861111,97.35L84.60211493055556,66.67L84.96120833333333,91.74499999999999L84.98446944444444,91.74499999999999L85.36973159722223,76.11000000000001L85.54418993055555,76.995L85.74917847222223,71.09499999999998L86.20713159722222,124.195L86.79738229166666,105.315L86.91223402777777,112.10000000000001L87.05325451388889,115.05000000000001L87.09832291666666,108.56L87.259696875,94.695L87.66095104166668,62.245000000000005L87.95753020833334,110.625L88.19450277777777,59.29499999999999L88.20031805555556,81.125L88.24829409722223,84.37L88.27737048611111,88.64750000000001L88.38349930555556,103.25L88.74259270833333,117.11500000000001L89.039171875,92.925L89.078425,100.595L89.18019236111111,99.41499999999999L89.46804861111112,106.2L89.49130972222223,71.5375L90.33307118055556,110.035L90.79247812499999,96.465L90.81864687500001,97.64500000000001L91.12394895833333,120.95L92.34515729166667,89.09L92.47454722222223,70.505L92.52106944444445,94.695L92.62574444444445,92.63L92.66499756944445,56.935L92.67081284722222,56.935L92.76240347222222,113.28L93.03572152777778,85.1075L93.15202708333332,120.95L93.33666215277778,56.639999999999986L93.34683888888888,89.385L93.41080694444445,118L93.487859375,103.545L94.23221493055556,81.125L94.44738020833333,81.41999999999999L94.9504017361111,82.30499999999999L94.96348611111111,82.30499999999999L95.04053854166668,91.155L95.23680416666667,105.905L95.45633090277778,103.545L96.41585173611111,107.675L96.43911284722222,10.620000000000005L96.55396458333334,68.145L96.67899305555557,88.4016690673828L97.84495625,90.86L98.25784097222223,103.545L98.33489340277778,117.41L98.37996180555557,139.24L98.43229930555556,107.38000000000001L98.48899826388889,123.31L98.68962534722222,101.775L98.78412361111111,123.015L98.81756145833333,118.59L98.97166631944445,94.105L99.12431736111111,112.395L99.19119305555556,91.74499999999999L99.62006979166667,67.26L100.08819965277777,88.5L100.710434375,97.64500000000001L100.82528611111111,84.665L101.00846736111112,91.155L101.77753784722222,61.655000000000015L101.85022881944445,67.85L101.98543402777779,91.74499999999999L102.00869513888888,91.155L102.05230972222222,79.945L102.15843854166667,94.695L102.68326736111112,94.695L102.95949305555555,91.74499999999999L103.19210416666667,64.605L103.41744618055556,26.55000000000001L103.55265138888889,103.545L103.63261145833334,74.19250000000001L104.38278229166666,123.60499999999999L104.39441284722221,111.51L104.609578125,66.375L104.67790763888888,94.105L105.10096909722222,78.47L105.18965208333334,91.45L105.41790173611112,127.735L105.66795868055556,79.64999999999999L105.99361423611111,68.145L106.04159027777777,68.145L106.26402465277778,91.155L106.28583194444444,74.34L106.81066076388888,90.565L107.15666979166666,87.615L107.16684652777778,91.45L107.17266180555555,91.45L107.17847708333333,91.45L107.383465625,91.74499999999999L107.44743368055555,66.375L107.68876770833333,97.64500000000001L107.74110520833334,109.44500000000001L107.7629125,91.45L107.93446319444445,91.45L108.58868194444445,103.545L108.75732500000001,68.145L108.94632152777777,67.85L109.01174340277778,102.66L109.31849930555555,85.845L109.47260416666667,100.005L109.82733611111111,46.609999999999985L109.83896666666666,103.84L110.07448541666668,82.89500000000001L110.15153784722223,103.545L110.98166875,50.150000000000006L111.22881805555555,88.795L111.24917152777778,65.195L111.37565381944445,103.545L111.6358875,103.25L111.68386354166667,105.905L111.94409722222221,73.75L112.38024305555555,94.5475L112.38896597222222,26.254999999999995L112.64919965277777,103.545L113.05045381944444,58.41L113.82824722222223,94.105L114.03905104166667,91.74499999999999L114.20769409722223,115.345L114.33126875,93.22L114.44466666666668,89.2375L114.48391979166666,91.45L114.50863472222223,55.754999999999995L115.23699826388888,74.93L115.30532777777779,56.345L115.48123993055555,102.07L115.783634375,97.64500000000001L115.82724895833333,91.45L116.56724305555555,73.75L116.57596597222222,96.76L116.60795,79.06L116.73879375,103.25L116.99757361111111,97.64500000000001L118.05886180555557,67.85L118.1620829861111,97.35L118.39760173611111,91.45L118.53716840277778,97.94L118.74942604166667,91.155L119.41672916666666,103.25L119.53303472222223,74.045L119.96481909722222,115.345L120.0098875,103.84L120.48528645833332,73.75L120.703359375,68.145L120.98830798611111,67.85L121.29070243055556,103.25L121.29215625,103.25L121.41427708333335,70.21L121.64398055555556,73.16L121.92602152777778,73.75L122.10484131944445,70.8L122.26476145833334,109.44500000000001L122.44939652777778,97.35L122.86518888888888,106.2L122.87972708333334,103.25L123.12106111111112,105.02L123.41473263888888,91.45L123.93229236111111,67.555L124.000621875,97.64500000000001L124.23032534722223,94.4L124.27539374999999,12.094999999999999L124.44985208333334,73.75L124.5109125,73.16L124.60686458333333,102.66L124.89472083333334,105.02L125.10116319444445,64.9L125.46316423611111,78.47L126.17408194444444,20.650000000000006L126.408146875,71.39L126.44885381944444,25.95999999999998L126.51427569444445,114.755L127.12342604166668,103.545L128.31991944444445,74.045L128.34608819444443,26.55000000000001L128.48710868055556,70.505L128.5612534722222,103.25L128.79531840277778,25.075000000000017L129.28816319444445,47.495000000000005L129.37393854166666,97.055L129.6399875,56.345L129.66034097222223,91.74499999999999L130.05287222222222,103.545L130.08340243055557,97.64500000000001L130.43668055555557,75.815L130.55153229166666,84.665L130.72162916666667,77.28999999999999L131.51686840277776,34.22L131.68841909722224,94.5475L131.79890937500002,87.32L132.1754486111111,92.925L132.2932079861111,103.545L132.92125798611113,63.72L133.1044392361111,87.025L133.14223854166667,87.025L133.31088159722222,72.275L133.53476979166666,86.43499999999999L133.61618368055557,83.19L133.6903284722222,47.78999999999999L133.72231250000002,94.99000000000001L133.77028854166667,87.32L133.8066340277778,14.75L134.18462708333334,69.325L134.1875347222222,69.325L134.33582430555558,32.745000000000005L134.3401857638889,32.745000000000005L134.56407395833332,83.19L134.80395416666667,93.22L135.02202708333334,59L135.21974652777777,83.485L135.46689583333335,99.41499999999999L135.66897673611112,79.64999999999999L136.35372569444445,91.45L136.36099479166666,99.12L136.42932430555558,47.20000000000002L136.51655347222223,81.41999999999999L136.54999131944444,81.41999999999999L136.93234583333333,47.98666906738282L137.97037291666666,63.72L138.36290416666668,81.125L138.79614236111112,51.92L138.8223111111111,111.215L138.9386166666667,87.91000000000001L139.4634454861111,63.72L139.7120486111111,32.745000000000005L139.88505312499998,69.61999999999999L140.19471666666666,69.61999999999999L140.26886145833333,105.02L140.47821145833333,51.625L140.54654097222223,51.92L140.71663784722222,53.394999999999996L140.8852809027778,51.92L140.89545763888887,51.92L141.30979618055557,93.22L141.7924642361111,29.647500000000008L142.187903125,57.81999999999999L142.33183125000002,85.845L142.672025,51.625L142.77815381944444,69.61999999999999L142.86102152777778,46.02000000000001L143.60246944444444,87.025L143.70132916666668,81.41999999999999L143.81327326388887,85.845L143.8336267361111,85.845L143.89032569444444,12.685000000000002L143.93684791666666,86.43499999999999L144.53727534722222,87.32L144.79750902777778,106.79L145.34705277777778,76.11000000000001L145.42846666666665,93.22L145.43428194444445,82.01L145.52878020833333,28.319999999999993L145.6232784722222,99.41499999999999L145.95038784722223,98.825L145.9736489583333,105.02L146.18299895833334,26.845L146.2207982638889,99.71000000000001L146.27458958333332,51.92L146.83140243055556,90.1225L146.859025,46.905L147.0073145833333,108.56L147.3911229166667,75.52L147.5554045138889,60.474999999999994L147.60628819444443,37.465L148.22125381944446,78.6175L149.3610482638889,63.72L149.410478125,51.92L149.5253298611111,51.92L149.85389305555555,63.72L149.92949166666665,63.72L150.13302638888888,51.92L150.48630451388888,51.92L150.8526670138889,58.41L151.08673194444444,99.12L151.43855625,63.72L151.48507847222223,63.72L151.79328819444444,63.72L152.07242152777778,69.61999999999999L152.19599618055554,69.61999999999999L152.38790034722223,69.61999999999999L152.681571875,51.92L152.72809409722223,28.319999999999993L152.78188541666665,51.92L152.8981909722222,28.319999999999993L153.11771770833332,87.32L153.3910357638889,63.72L153.43610416666667,51.92L153.48408020833332,51.92L153.64981562499997,69.61999999999999L153.74140625,63.72L154.08450763888888,51.92L154.12666840277777,69.61999999999999L155.24029409722223,99.12L155.25919375,112.69L155.36386875,111.51L155.57176493055556,85.845L156.13148541666666,112.395L156.214353125,71.24249999999999L156.3684579861111,97.94L156.46295625,108.265L156.528378125,28.025000000000006L156.76535069444444,28.025000000000006L157.21312708333335,28.025000000000006L157.993828125,69.61999999999999L158.1988166666667,51.92L158.84867395833334,51.92L158.9722486111111,81.41999999999999L158.9955097222222,105.02L159.55086875,51.92L159.57558368055555,81.41999999999999L159.76458020833334,51.92L159.88233958333333,57.81999999999999L159.9724763888889,69.61999999999999L160.26614791666668,69.61999999999999L160.57581145833333,27.72999999999999L161.48299479166667,60.77000000000001L161.51207118055558,74.045L161.8115579861111,63.72L162.06452256944445,51.92L162.28259548611112,63.72L162.311671875,63.72L162.31603333333334,63.72L162.4396079861111,63.72L162.44396944444443,63.72L162.96589062500001,99.12L163.00368993055554,63.72L163.88906597222223,-23.599999999999994L163.97484131944444,51.92L164.46623229166664,63.72L164.60725277777777,63.72L164.96779999999998,120.36L165.5929423611111,69.325L166.28932187499998,69.61999999999999L166.51611770833333,51.92L166.87666493055556,63.425L167.0322236111111,81.41999999999999L167.2735576388889,63.72L167.45819270833334,105.02L167.65736597222224,91.45L167.7387798611111,82.01L167.78530208333333,99.12L167.88852326388889,69.4725L168.44097465277778,105.02L168.57036458333334,22.715000000000003L168.60380243055553,28.319999999999993L169.0821090277778,49.85499999999999L169.4223027777778,63.72L169.51680104166667,118L170.12449756944446,13.569999999999993L170.32512465277776,63.72L170.42689201388887,69.61999999999999L170.528659375,63.72L170.70311770833334,51.92L170.7670857638889,28.025000000000006L170.96480520833333,51.92L171.1770628472222,51.92L171.25556909722224,19.47L171.37187465277776,63.72L171.53179479166667,63.425L171.75422916666668,69.61999999999999L171.8603579861111,51.92L172.13949131944443,51.92L172.24125868055555,63.72L172.31249583333332,93.22L173.08592777777778,63.72L173.74160034722223,63.72L173.89570520833334,51.92L173.89861284722224,51.92L174.29114409722223,93.22L174.872671875,104.725L175.2826489583333,81.41999999999999L175.31608680555556,83.63250000000001L175.55160555555557,103.25L175.7071642361111,68.735L175.79293958333332,29.794999999999987L175.80602395833333,29.794999999999987L175.90924513888888,63.72L176.01828159722223,63.425L176.1389486111111,51.92L176.2538003472222,51.625L176.4006361111111,28.025000000000006L176.4297125,28.025000000000006L176.54020277777778,69.325L176.62307048611112,51.625L176.63906250000002,69.325L177.25548194444445,63.72L177.28455833333334,69.61999999999999L177.81374861111112,13.569999999999993L178.10742013888887,63.72L178.15394236111112,51.92L178.2324486111111,57.81999999999999L178.36329236111112,69.61999999999999L178.6467871527778,63.425L178.69185555555558,51.625L178.77181562500002,69.61999999999999L178.82269930555555,51.625L178.83723750000001,51.625L179.12073229166666,40.120000000000005L179.49291006944443,69.325L179.57287013888887,51.92L180.1980125,63.425L180.6763190972222,1.7700000000000102L180.76064062499998,51.92L181.29855381944444,51.92L181.44975104166667,69.61999999999999L181.47010451388888,69.61999999999999L181.49772708333333,51.92L181.55733368055556,51.92L181.57768715277777,28.319999999999993L181.59949444444445,69.61999999999999L181.61839409722222,110.92L181.67509305555555,51.625L181.8640895833333,105.02L182.1141465277778,63.72L182.3598420138889,63.72L182.6157142361111,93.22L182.749465625,69.61999999999999L182.85414062499999,51.92L182.87449409722223,51.92L183.48800590277776,28.319999999999993L183.57087361111113,51.92L183.74969340277778,51.92L184.005565625,37.16999999999999L184.15094756944444,26.845L184.3006909722222,51.625L184.78626666666665,51.92L185.74724131944444,69.03L185.80539409722223,28.319999999999993L185.8533701388889,32.745000000000005L186.12087291666668,69.61999999999999L186.7431076388889,28.319999999999993L186.94228090277778,28.025000000000006L187.8959864583333,51.92L187.89744027777778,51.92L187.98176180555555,63.425L188.27252569444443,52.215L188.38737743055555,60.3275L188.7392017361111,28.025000000000006L189.08957222222222,69.61999999999999L189.2756611111111,63.72L189.32363715277776,69.61999999999999L189.605678125,73.75L189.69290729166667,51.92L189.84991979166668,63.425L189.90225729166667,69.61999999999999L189.92987986111112,69.325L190.06944652777779,63.425L190.73384201388888,51.92L190.7934486111111,48.97L190.92138472222223,28.025000000000006L191.24413263888889,63.425L191.4665670138889,69.915L191.7413388888889,69.61999999999999L191.78204583333334,63.425L192.588915625,69.325L192.8709565972222,69.325L192.92765555555556,51.33000000000001L193.216965625,69.61999999999999L193.82756979166666,69.03L194.03255833333336,63.72L194.21573958333332,63.72L194.4367201388889,74.045L194.78418298611112,66.22749999999999L195.23777465277777,69.325L195.4805625,69.61999999999999L195.49219305555553,69.325L196.00539131944444,69.325L196.4066454861111,60.77000000000001L196.48369791666667,62.834999999999994L197.00271145833335,51.92L197.02015729166666,51.92L197.37925069444444,63.72L197.38942743055557,51.92L197.54353229166668,69.03L197.77759722222223,63.13000000000001L197.90844097222222,51.92L198.37947847222222,51.33000000000001L198.6280815972222,51.92L198.69931875,51.625L198.7545638888889,51.625L198.80399375000002,51.92L198.85923888888888,51.92L198.9159378472222,51.92L199.08458090277776,51.92L199.19797881944444,51.92L199.21833229166666,51.92L199.24304722222223,51.92L199.4000597222222,51.625L200.09789305555557,28.319999999999993L200.37411875,28.025000000000006L200.54276180555556,28.319999999999993L200.86260208333331,51.92L200.90476284722223,51.625L201.57497361111112,51.92L201.94860520833333,51.92L201.99076597222222,57.9675L202.07944895833333,51.625L202.52141006944444,63.72L202.7656517361111,51.92L203.50564583333332,51.92L203.52745312500002,51.625L203.9592375,28.319999999999993L204.77773784722223,69.325L205.26912881944446,28.319999999999993L205.27058263888887,28.319999999999993L205.4319565972222,69.61999999999999L205.47266354166666,52.215L205.51627812499999,28.319999999999993L205.57588472222224,51.33000000000001L205.7445277777778,51.33000000000001L206.20393472222221,51.625L206.26499513888888,48.97L206.31733263888887,51.33000000000001L206.74184791666667,51.92L206.78691631944446,51.92L207.21288541666667,28.319999999999993L207.348090625,51.92L207.36553645833334,51.92L207.5181875,28.319999999999993L207.99649409722224,28.319999999999993L208.78301041666666,69.61999999999999L208.81790208333334,51.92L208.865878125,51.625L209.50119722222223,51.92L209.59714930555555,51.625L209.63785625,51.92L210.1248857638889,51.625L210.38511944444443,28.319999999999993L210.45635659722222,28.025000000000006L210.46071805555556,28.025000000000006L210.47671006944447,28.319999999999993L210.540678125,57.81999999999999L210.8677875,63.425L211.22688090277776,63.72L212.90458854166667,28.319999999999993L213.25786666666664,39.9725L213.61841388888888,28.319999999999993L213.69546631944445,28.319999999999993L213.8539326388889,63.72L214.047290625,51.92L214.31479340277778,27.72999999999999L214.50088229166667,63.13000000000001L214.57793472222224,51.92L214.6389951388889,27.72999999999999L214.79746145833332,28.319999999999993L214.80763819444445,69.61999999999999L214.85416041666664,69.325L214.9006826388889,69.61999999999999L214.989365625,51.182500000000005L215.015534375,51.182500000000005L215.329559375,28.319999999999993L215.60869270833334,28.319999999999993L215.75988993055554,28.319999999999993L215.85002673611112,69.61999999999999L216.10299131944444,28.319999999999993L216.4053857638889,28.319999999999993L216.83280868055556,51.92L216.89096145833332,51.33000000000001L217.082865625,63.72L217.2108017361111,63.72L217.22824756944445,28.319999999999993L217.23987812500002,63.72L217.3503684027778,57.37750000000001L217.41288263888887,51.92L217.59751770833333,34.22L217.8184982638889,51.625L217.96533402777777,28.319999999999993L218.17759166666667,63.13000000000001L218.31425069444444,28.319999999999993L218.53377743055557,51.92L219.09640555555555,28.319999999999993L219.42060729166667,28.319999999999993L219.50783645833334,46.02000000000001L219.54418194444446,28.319999999999993L220.2420152777778,51.92L220.25800729166667,28.025000000000006L220.5167871527778,51.92L220.550225,39.9725L220.59529340277777,51.625L220.80173576388887,28.319999999999993L220.8220892361111,28.319999999999993L221.7176420138889,51.92L221.96479131944443,36.08833813476562L222.3137079861111,63.425L222.3369690972222,63.72L222.735315625,51.625L222.89814340277778,28.319999999999993L223.15692326388887,51.33000000000001L223.20344548611112,27.72999999999999L223.3081204861111,48.379999999999995L223.68611354166666,28.319999999999993L223.89982500000002,51.92L224.436284375,51.625L224.4551840277778,28.319999999999993L224.57875868055555,28.319999999999993L225.09486458333333,28.319999999999993L225.12830243055555,51.92L225.13557152777778,28.319999999999993L225.16464791666667,28.319999999999993L225.31875277777777,28.319999999999993L225.81886666666668,51.92L226.23756666666668,27.435000000000002L226.61119826388887,28.319999999999993L227.10113541666666,51.92L227.20435659722224,28.025000000000006L227.3177545138889,28.319999999999993L227.7757076388889,27.72999999999999L227.7829767361111,27.72999999999999L227.80478402777777,27.72999999999999L228.28454444444444,28.025000000000006L228.3310666666667,28.319999999999993L228.61746909722223,51.625L228.95184756944445,27.72999999999999L229.07251458333332,51.92L229.10013715277776,27.435000000000002L229.24988055555554,27.72999999999999L229.3327482638889,28.319999999999993L229.65549618055556,28.172500000000014L229.93172187500002,51.625L230.350421875,28.025000000000006L230.39112881944445,27.72999999999999L230.51615729166667,51.33000000000001L231.0700625,51.92L231.1020465277778,51.33000000000001L231.53383090277777,28.319999999999993L231.74463472222223,28.025000000000006L231.81151041666666,51.92L232.57621944444443,63.425L232.63437222222223,27.72999999999999L232.6460027777778,27.72999999999999L232.67798680555555,28.319999999999993L232.692525,28.319999999999993L232.80301527777777,27.435000000000002L232.8524451388889,51.33000000000001L232.97892743055556,28.025000000000006L233.02399583333332,28.025000000000006L233.70292951388888,27.72999999999999L233.96025555555556,27.72999999999999L234.0503923611111,28.025000000000006L234.38913229166667,28.025000000000006L234.39785520833334,28.025000000000006L235.3064923611111,28.025000000000006L235.3588298611111,28.025000000000006L235.4998503472222,28.025000000000006L235.7804375,63.13000000000001L235.80515243055555,28.61499999999998L235.80660625000002,28.61499999999998L236.2412982638889,28.319999999999993L236.2936357638889,39.82499999999999L236.6120222222222,51.035L236.81701076388887,28.319999999999993L237.24443368055557,39.9725L237.47122951388891,27.72999999999999L237.67912569444445,51.625L237.80415416666665,27.72999999999999L237.81869236111112,27.72999999999999L238.02368090277778,28.025000000000006L238.08910277777778,27.72999999999999L238.1254482638889,27.72999999999999L238.3086295138889,27.72999999999999L238.410396875,27.435000000000002L238.6560923611111,28.025000000000006L238.75640590277777,28.319999999999993L238.84218124999998,27.72999999999999L239.01518576388887,27.58250000000001L239.195459375,28.025000000000006L240.2887315972222,28.025000000000006L240.77139965277777,51.625L240.78739166666668,28.025000000000006L240.91532777777778,51.625L240.9720267361111,28.025000000000006L241.03163333333333,28.025000000000006L241.236621875,51.33000000000001L241.7890732638889,28.025000000000006L241.91555555555556,28.025000000000006L242.34733993055556,27.72999999999999L243.21963159722222,28.319999999999993L243.3068607638889,28.025000000000006L243.32139895833333,27.72999999999999L243.5031263888889,51.92L244.33471111111112,28.319999999999993L244.51789236111114,51.92L244.6618204861111,43.26666906738279L244.85953993055557,51.33000000000001L245.0369059027778,51.33000000000001L245.12122743055556,51.92L245.22154097222221,27.435000000000002L245.22735625,27.435000000000002L245.3741920138889,51.33000000000001L245.4992204861111,27.435000000000002L245.52102777777776,51.477500000000006L246.33952812500002,27.72999999999999L246.50380972222223,28.319999999999993L246.68989861111112,51.92L246.7117059027778,28.319999999999993L246.81347326388888,28.319999999999993L246.98502395833333,51.33000000000001L247.05916875000003,51.33000000000001L247.15948229166668,51.625L247.16529756944445,51.625L247.93146041666668,27.435000000000002L247.95908298611113,63.13000000000001L248.07538854166665,51.035L248.25275451388887,62.834999999999994L248.40540555555555,15.63500000000002L248.6656392361111,51.33000000000001L248.68599270833334,51.33000000000001L248.73833020833334,51.625L248.79793680555554,51.33000000000001L248.93459583333333,27.72999999999999L249.00583298611113,27.72999999999999L249.0290940972222,27.72999999999999L249.14685347222223,28.319999999999993L249.26752048611112,27.435000000000002L249.39400277777779,51.035L249.42017152777777,27.72999999999999L249.6164371527778,27.435000000000002L249.81415659722222,51.33000000000001L250.3767847222222,27.435000000000002L250.43057604166665,39.38249999999999L250.81874583333334,51.33000000000001L251.11823263888888,27.435000000000002L251.17202395833334,27.877499999999998L252.32054131944443,51.33000000000001L252.4179472222222,51.33000000000001L252.50663020833332,51.33000000000001L252.65346597222222,62.834999999999994L253.03000520833334,27.72999999999999L253.12304965277778,27.435000000000002L253.72347708333334,22.420000000000016L253.9313732638889,27.435000000000002L254.4024107638889,27.435000000000002L254.69462847222223,27.435000000000002L254.8080263888889,27.72999999999999L254.82111076388887,27.72999999999999L255.26888715277778,27.435000000000002L255.46660659722224,27.72999999999999L255.48841388888889,69.61999999999999L255.64397256944446,27.435000000000002" style="fill: none;" fill="none"></path></g></g></g></g></g></g><g transform="translate(68, 177)" clip-path="url(#clip_1)"><clipPath id="clip_1"><rect width="261" height="23"></rect></clipPath><g><g><line x1="0" y1="0" x2="0" y2="5" style="visibility: inherit;" fill="rgb(0, 0, 0)" stroke="rgb(204, 204, 204)" stroke-width="1px"></line><line x1="29.076388888888886" y1="0" x2="29.076388888888886" y2="5" style="visibility: inherit;" fill="rgb(0, 0, 0)" stroke="rgb(204, 204, 204)" stroke-width="1px"></line><line x1="58.15277777777777" y1="0" x2="58.15277777777777" y2="5" style="visibility: inherit;" fill="rgb(0, 0, 0)" stroke="rgb(204, 204, 204)" stroke-width="1px"></line><line x1="87.22916666666666" y1="0" x2="87.22916666666666" y2="5" style="visibility: inherit;" fill="rgb(0, 0, 0)" stroke="rgb(204, 204, 204)" stroke-width="1px"></line><line x1="116.30555555555554" y1="0" x2="116.30555555555554" y2="5" style="visibility: inherit;" fill="rgb(0, 0, 0)" stroke="rgb(204, 204, 204)" stroke-width="1px"></line><line x1="145.38194444444446" y1="0" x2="145.38194444444446" y2="5" style="visibility: inherit;" fill="rgb(0, 0, 0)" stroke="rgb(204, 204, 204)" stroke-width="1px"></line><line x1="174.45833333333331" y1="0" x2="174.45833333333331" y2="5" style="visibility: inherit;" fill="rgb(0, 0, 0)" stroke="rgb(204, 204, 204)" stroke-width="1px"></line><line x1="203.53472222222223" y1="0" x2="203.53472222222223" y2="5" style="visibility: inherit;" fill="rgb(0, 0, 0)" stroke="rgb(204, 204, 204)" stroke-width="1px"></line><line x1="232.6111111111111" y1="0" x2="232.6111111111111" y2="5" style="visibility: inherit;" fill="rgb(0, 0, 0)" stroke="rgb(204, 204, 204)" stroke-width="1px"></line><line x1="261.6875" y1="0" x2="261.6875" y2="5" style="visibility: inherit;" fill="rgb(0, 0, 0)" stroke="rgb(204, 204, 204)" stroke-width="1px"></line></g><g transform="translate(0, 8)"><text x="0" y="0" dx="0em" dy="0.95em" style="text-anchor: middle; visibility: hidden; font-family: &quot;Helvetica Neue&quot;, sans-serif; font-size: 12px; font-weight: 200;" fill="rgb(50, 49, 63)" stroke="none" stroke-width="1px">-20k</text><text x="29.076388888888886" y="0" dx="0em" dy="0.95em" style="text-anchor: middle; visibility: inherit; font-family: &quot;Helvetica Neue&quot;, sans-serif; font-size: 12px; font-weight: 200;" fill="rgb(50, 49, 63)" stroke="none" stroke-width="1px">0</text><text x="58.15277777777777" y="0" dx="0em" dy="0.95em" style="text-anchor: middle; visibility: hidden; font-family: &quot;Helvetica Neue&quot;, sans-serif; font-size: 12px; font-weight: 200;" fill="rgb(50, 49, 63)" stroke="none" stroke-width="1px">20k</text><text x="87.22916666666666" y="0" dx="0em" dy="0.95em" style="text-anchor: middle; visibility: inherit; font-family: &quot;Helvetica Neue&quot;, sans-serif; font-size: 12px; font-weight: 200;" fill="rgb(50, 49, 63)" stroke="none" stroke-width="1px">40k</text><text x="116.30555555555554" y="0" dx="0em" dy="0.95em" style="text-anchor: middle; visibility: hidden; font-family: &quot;Helvetica Neue&quot;, sans-serif; font-size: 12px; font-weight: 200;" fill="rgb(50, 49, 63)" stroke="none" stroke-width="1px">60k</text><text x="145.38194444444446" y="0" dx="0em" dy="0.95em" style="text-anchor: middle; visibility: inherit; font-family: &quot;Helvetica Neue&quot;, sans-serif; font-size: 12px; font-weight: 200;" fill="rgb(50, 49, 63)" stroke="none" stroke-width="1px">80k</text><text x="174.45833333333331" y="0" dx="0em" dy="0.95em" style="text-anchor: middle; visibility: hidden; font-family: &quot;Helvetica Neue&quot;, sans-serif; font-size: 12px; font-weight: 200;" fill="rgb(50, 49, 63)" stroke="none" stroke-width="1px">100k</text><text x="203.53472222222223" y="0" dx="0em" dy="0.95em" style="text-anchor: middle; visibility: inherit; font-family: &quot;Helvetica Neue&quot;, sans-serif; font-size: 12px; font-weight: 200;" fill="rgb(50, 49, 63)" stroke="none" stroke-width="1px">120k</text><text x="232.6111111111111" y="0" dx="0em" dy="0.95em" style="text-anchor: middle; visibility: hidden; font-family: &quot;Helvetica Neue&quot;, sans-serif; font-size: 12px; font-weight: 200;" fill="rgb(50, 49, 63)" stroke="none" stroke-width="1px">140k</text><text x="261.6875" y="0" dx="0em" dy="0.95em" style="text-anchor: middle; visibility: hidden; font-family: &quot;Helvetica Neue&quot;, sans-serif; font-size: 12px; font-weight: 200;" fill="rgb(50, 49, 63)" stroke="none" stroke-width="1px">160k</text></g><line x1="0" y1="0" x2="261.6875" y2="0" fill="rgb(0, 0, 0)" stroke="rgb(204, 204, 204)" stroke-width="1px"></line></g></g></g></g></svg>