<svg viewBox="0 0 330 200" xmlns="http://www.w3.org/2000/svg"><g><g><g><g><g><line x1="68.3125" y1="177" x2="63.3125" y2="177" style="visibility: inherit;" fill="rgb(0, 0, 0)" stroke="rgb(204, 204, 204)" stroke-width="1px"></line><line x1="68.3125" y1="157.33333333333334" x2="63.3125" y2="157.33333333333334" style="visibility: inherit;" fill="rgb(0, 0, 0)" stroke="rgb(204, 204, 204)" stroke-width="1px"></line><line x1="68.3125" y1="137.66666666666669" x2="63.3125" y2="137.66666666666669" style="visibility: inherit;" fill="rgb(0, 0, 0)" stroke="rgb(204, 204, 204)" stroke-width="1px"></line><line x1="68.3125" y1="118" x2="63.3125" y2="118" style="visibility: inherit;" fill="rgb(0, 0, 0)" stroke="rgb(204, 204, 204)" stroke-width="1px"></line><line x1="68.3125" y1="98.33333333333334" x2="63.3125" y2="98.33333333333334" style="visibility: inherit;" fill="rgb(0, 0, 0)" stroke="rgb(204, 204, 204)" stroke-width="1px"></line><line x1="68.3125" y1="78.66666666666666" x2="63.3125" y2="78.66666666666666" style="visibility: inherit;" fill="rgb(0, 0, 0)" stroke="rgb(204, 204, 204)" stroke-width="1px"></line><line x1="68.3125" y1="59" x2="63.3125" y2="59" style="visibility: inherit;" fill="rgb(0, 0, 0)" stroke="rgb(204, 204, 204)" stroke-width="1px"></line><line x1="68.3125" y1="39.33333333333334" x2="63.3125" y2="39.33333333333334" style="visibility: inherit;" fill="rgb(0, 0, 0)" stroke="rgb(204, 204, 204)" stroke-width="1px"></line><line x1="68.3125" y1="19.666666666666686" x2="63.3125" y2="19.666666666666686" style="visibility: inherit;" fill="rgb(0, 0, 0)" stroke="rgb(204, 204, 204)" stroke-width="1px"></line><line x1="68.3125" y1="0" x2="63.3125" y2="0" style="visibility: inherit;" fill="rgb(0, 0, 0)" stroke="rgb(204, 204, 204)" stroke-width="1px"></line></g><g transform="translate(58.3125, 0)"><text x="0" y="177" dx="0em" dy="0.3em" style="text-anchor: end; visibility: hidden; font-family: &quot;Helvetica Neue&quot;, sans-serif; font-size: 12px; font-weight: 200;" fill="rgb(50, 49, 63)" stroke="none" stroke-width="1px">-5e+3</text><text x="0" y="157.33333333333334" dx="0em" dy="0.3em" style="text-anchor: end; visibility: inherit; font-family: &quot;Helvetica Neue&quot;, sans-serif; font-size: 12px; font-weight: 200;" fill="rgb(50, 49, 63)" stroke="none" stroke-width="1px">0</text><text x="0" y="137.66666666666669" dx="0em" dy="0.3em" style="text-anchor: end; visibility: hidden; font-family: &quot;Helvetica Neue&quot;, sans-serif; font-size: 12px; font-weight: 200;" fill="rgb(50, 49, 63)" stroke="none" stroke-width="1px">5e+3</text><text x="0" y="118" dx="0em" dy="0.3em" style="text-anchor: end; visibility: inherit; font-family: &quot;Helvetica Neue&quot;, sans-serif; font-size: 12px; font-weight: 200;" fill="rgb(50, 49, 63)" stroke="none" stroke-width="1px">1e+4</text><text x="0" y="98.33333333333334" dx="0em" dy="0.3em" style="text-anchor: end; visibility: hidden; font-family: &quot;Helvetica Neue&quot;, sans-serif; font-size: 12px; font-weight: 200;" fill="rgb(50, 49, 63)" stroke="none" stroke-width="1px">1.5e+4</text><text x="0" y="78.66666666666666" dx="0em" dy="0.3em" style="text-anchor: end; visibility: inherit; font-family: &quot;Helvetica Neue&quot;, sans-serif; font-size: 12px; font-weight: 200;" fill="rgb(50, 49, 63)" stroke="none" stroke-width="1px">2e+4</text><text x="0" y="59" dx="0em" dy="0.3em" style="text-anchor: end; visibility: hidden; font-family: &quot;Helvetica Neue&quot;, sans-serif; font-size: 12px; font-weight: 200;" fill="rgb(50, 49, 63)" stroke="none" stroke-width="1px">2.5e+4</text><text x="0" y="39.33333333333334" dx="0em" dy="0.3em" style="text-anchor: end; visibility: inherit; font-family: &quot;Helvetica Neue&quot;, sans-serif; font-size: 12px; font-weight: 200;" fill="rgb(50, 49, 63)" stroke="none" stroke-width="1px">3e+4</text><text x="0" y="19.666666666666686" dx="0em" dy="0.3em" style="text-anchor: end; visibility: hidden; font-family: &quot;Helvetica Neue&quot;, sans-serif; font-size: 12px; font-weight: 200;" fill="rgb(50, 49, 63)" stroke="none" stroke-width="1px">3.5e+4</text><text x="0" y="0" dx="0em" dy="0.3em" style="text-anchor: end; visibility: hidden; font-family: &quot;Helvetica Neue&quot;, sans-serif; font-size: 12px; font-weight: 200;" fill="rgb(50, 49, 63)" stroke="none" stroke-width="1px">4e+4</text></g><line x1="68.3125" y1="0" x2="68.3125" y2="177" fill="rgb(0, 0, 0)" stroke="rgb(204, 204, 204)" stroke-width="1px"></line></g></g><g transform="translate(68, 0)" clip-path="url(#clip_0)"><clipPath id="clip_0"><rect width="261" height="177"></rect></clipPath><g><g><g><line x1="0" y1="0" x2="0" y2="177" fill="rgb(0, 0, 0)" stroke="rgb(60, 60, 60)" stroke-width="1px" opacity="0.25"></line><line x1="29.076388888888886" y1="0" x2="29.076388888888886" y2="177" fill="rgb(0, 0, 0)" stroke="rgb(60, 60, 60)" stroke-width="1px" opacity="0.25"></line><line x1="58.15277777777777" y1="0" x2="58.15277777777777" y2="177" fill="rgb(0, 0, 0)" stroke="rgb(60, 60, 60)" stroke-width="1px" opacity="0.25"></line><line x1="87.22916666666666" y1="0" x2="87.22916666666666" y2="177" fill="rgb(0, 0, 0)" stroke="rgb(60, 60, 60)" stroke-width="1px" opacity="0.25"></line><line x1="116.30555555555554" y1="0" x2="116.30555555555554" y2="177" fill="rgb(0, 0, 0)" stroke="rgb(60, 60, 60)" stroke-width="1px" opacity="0.25"></line><line x1="145.38194444444446" y1="0" x2="145.38194444444446" y2="177" fill="rgb(0, 0, 0)" stroke="rgb(60, 60, 60)" stroke-width="1px" opacity="0.25"></line><line x1="174.45833333333331" y1="0" x2="174.45833333333331" y2="177" fill="rgb(0, 0, 0)" stroke="rgb(60, 60, 60)" stroke-width="1px" opacity="0.25"></line><line x1="203.53472222222223" y1="0" x2="203.53472222222223" y2="177" fill="rgb(0, 0, 0)" stroke="rgb(60, 60, 60)" stroke-width="1px" opacity="0.25"></line><line x1="232.6111111111111" y1="0" x2="232.6111111111111" y2="177" fill="rgb(0, 0, 0)" stroke="rgb(60, 60, 60)" stroke-width="1px" opacity="0.25"></line><line x1="261.6875" y1="0" x2="261.6875" y2="177" fill="rgb(0, 0, 0)" stroke="rgb(60, 60, 60)" stroke-width="1px" opacity="0.25"></line></g><g><line x1="0" y1="177" x2="261.6875" y2="177" fill="rgb(0, 0, 0)" stroke="rgb(60, 60, 60)" stroke-width="1px" opacity="0.25"></line><line x1="0" y1="157.33333333333334" x2="261.6875" y2="157.33333333333334" fill="rgb(0, 0, 0)" stroke="rgb(60, 60, 60)" stroke-width="1px" opacity="0.25"></line><line x1="0" y1="137.66666666666669" x2="261.6875" y2="137.66666666666669" fill="rgb(0, 0, 0)" stroke="rgb(60, 60, 60)" stroke-width="1px" opacity="0.25"></line><line x1="0" y1="118" x2="261.6875" y2="118" fill="rgb(0, 0, 0)" stroke="rgb(60, 60, 60)" stroke-width="1px" opacity="0.25"></line><line x1="0" y1="98.33333333333334" x2="261.6875" y2="98.33333333333334" fill="rgb(0, 0, 0)" stroke="rgb(60, 60, 60)" stroke-width="1px" opacity="0.25"></line><line x1="0" y1="78.66666666666666" x2="261.6875" y2="78.66666666666666" fill="rgb(0, 0, 0)" stroke="rgb(60, 60, 60)" stroke-width="1px" opacity="0.25"></line><line x1="0" y1="59" x2="261.6875" y2="59" fill="rgb(0, 0, 0)" stroke="rgb(60, 60, 60)" stroke-width="1px" opacity="0.25"></line><line x1="0" y1="39.33333333333334" x2="261.6875" y2="39.33333333333334" fill="rgb(0, 0, 0)" stroke="rgb(60, 60, 60)" stroke-width="1px" opacity="0.25"></line><line x1="0" y1="19.666666666666686" x2="261.6875" y2="19.666666666666686" fill="rgb(0, 0, 0)" stroke="rgb(60, 60, 60)" stroke-width="1px" opacity="0.25"></line><line x1="0" y1="0" x2="261.6875" y2="0" fill="rgb(0, 0, 0)" stroke="rgb(60, 60, 60)" stroke-width="1px" opacity="0.25"></line></g></g></g><g><g><line x1="0" y1="157.33333333333334" x2="261.6875" y2="157.33333333333334" fill="rgb(0, 0, 0)" stroke="rgb(153, 153, 153)" stroke-width="1.5px"></line></g></g><g><g><line x1="29.076388888888886" y1="0" x2="29.076388888888886" y2="177" fill="rgb(0, 0, 0)" stroke="rgb(153, 153, 153)" stroke-width="1.5px"></line></g></g><g><g><g><g><g><path stroke="rgb(255, 112, 67)" stroke-width="2px" d="M29.138903125000002,150.76466666666667L29.320630555555557,147.59729824561404L29.41076736111111,148.9112103321033L29.766953125,148.03192071338566L29.857089930555556,146.0962934075684L29.919604166666666,146.80720493114706L29.92978090277778,147.3094308911205L29.999564236111112,147.3981414595754L30.01846388888889,147.46613674828683L30.115869791666665,146.95802059101908L30.252528819444446,147.5643613552366L30.552015625000003,146.79895062075602L31.015784027777777,146.3761079613411L31.09138263888889,146.1699303382939L31.101559375,146.09471852593842L31.165527430555557,145.69750975234558L31.53625138888889,144.97443734450135L31.598765625,145.6927403747411L31.60312708333333,146.31552920697777L31.806661805555553,146.66530028365494L31.86481458333333,146.97102201846826L32.03781909722222,146.71992593864894L32.431804166666666,146.494778682822L32.55101736111111,146.91176209842445L32.69058402777778,146.89462207652565L32.692037847222224,146.87944599658738L32.981347916666664,146.81169502933452L33.49454618055555,146.58548698177486L33.77367951388889,146.60303131073724L33.796940625,146.5200783753153L33.88271597222222,146.66694028631275L34.33776145833333,146.29701071242303L34.340669097222225,145.96656447681318L34.413360069444444,146.11620324132232L34.63288680555555,145.36251697799935L34.82915243055555,145.17074496363836L35.35398125,144.93876698392313L35.47464826388889,145.29981196906408L35.608399652777784,144.59573422694893L35.63311458333333,143.9642942302449L35.875902430555556,143.93595447595538L36.03873020833333,144.57534750443426L36.30477916666666,144.25469092816923L36.54175173611111,144.60623097840923L36.84850763888889,144.35851246911068L36.868861111111116,144.135979857996L37.39805138888889,144.39555027767443L37.60303993055556,144.95736993163982L37.665554166666666,145.12210964005908L37.78622118055555,145.35717682615558L38.09152326388889,145.6001193408716L38.119145833333334,145.7198070500585L38.81697916666667,145.6774003520909L38.834425,145.63926469862488L39.042321180555554,145.56945912609712L39.20514895833333,145.15564647733123L39.47992083333334,145.85594141425466L39.80993784722222,145.4845900849729L39.92333576388889,145.2175311791373L39.92769722222222,144.97727966010262L40.414726736111106,144.80053250594818L40.46561041666667,144.49576898150082L40.80435034722222,144.15461182714853L40.97008576388889,143.63894266096864L41.02969236111111,143.17495605097216L41.43240034722223,142.76927301656863L41.44693854166666,142.40423196049755L41.58214375,141.3868884609707L41.98485173611111,140.50685360249585L42.06771944444445,140.0612890609736L42.540210763888886,138.81419022314373L42.84260520833334,138.6521556302758L42.96763368055556,138.8211505934092L42.986533333333334,138.58367124003917L43.17698368055556,138.39750190219064L44.196111111111115,137.94273361217734L44.312416666666664,137.58068508172522L44.374930902777784,135.78733286771416L44.49850555555555,135.10976843588628L44.75001631944444,135.31436962577374L44.92738229166667,135.49850220197504L44.931743749999995,135.66421464030407L45.02042673611111,134.8298602903994L45.098932986111116,134.9050850441599L45.21814618055556,132.92522112342363L45.843288541666666,131.88491155791274L45.89271840277778,130.94865590078672L46.06572291666667,131.37663056005937L46.17330555555555,130.69184287593148L46.47860763888889,129.93000055321056L46.485876736111116,129.24435349019205L46.76210243055555,127.84449843167023L46.945283680555555,127.80011279028932L47.79867569444444,126.07661537093168L48.026925347222225,125.85894404255504L48.06617847222222,126.87849091339649L48.845425694444444,126.58063096941379L48.87886354166667,125.85627745291353L49.15508923611111,125.12962826226774L49.75260902777778,123.78336301068595L49.85873784722222,123.91302980933575L49.92270590277778,123.34531461416128L50.08117222222222,124.36053614407672L50.358851736111106,122.9653248820814L50.40246631944444,121.7096393660664L50.56384027777778,120.65819392078225L50.70049930555555,119.71189584004438L51.57279097222222,121.1337225129378L51.62222083333334,122.41336342969947L51.99585243055556,120.70941130576927L52.507596875,118.66058643106138L52.80562986111111,119.16879826708661L53.58487708333334,116.79416907461399L53.88872534722222,116.22641538392296L53.93379375,115.7154377177849L54.25363402777778,114.66948879797044L54.28561805555555,113.72813574826861L54.58219722222222,112.88091879582204L54.602550694444446,113.49902913405134L55.90226527777777,113.11525831468916L56.86905520833333,112.18772978752422L56.94610763888889,111.75415567467664L57.47239027777778,110.70313763298601L57.63085659722222,110.51242346561972L57.651210069444446,110.44698099426958L57.763154166666666,109.37328105220847L58.1469625,109.22115271201955L58.23128402777778,109.08423725049354L58.24436840277778,109.31894715241746L58.35485868055555,109.41611921325506L58.50896354166667,108.36683956195266L58.52059409722222,107.42248807780965L58.62381527777778,106.57257190572446L58.79391215277778,106.66118144727879L58.937840277777774,108.12153094016469L58.99453923611111,109.43584529928195L59.28675694444445,109.14372727870108L59.29111840277778,108.88082109006898L59.39724722222222,108.64420554451154L59.724356597222226,108.87571841428588L59.81740104166666,108.76547986723885L59.94533715277778,109.82659888462464L60.07181944444445,108.94473874376845L60.36839861111111,108.31626470750582L60.840889930555555,108.00237149731969L61.41805625,107.73560095859423L61.541630902777776,107.33030745329555L61.58233784722222,105.88387646351651L62.71631701388889,106.00202216846836L62.73085520833333,106.10835329951068L62.79482326388889,106.20405131468317L62.83262256944444,106.29017952609824L62.93148229166666,104.37349471554833L63.040518750000004,102.64847842239536L63.136470833333334,102.1028972027215L63.300752430555555,102.17827415459966L63.48974895833334,102.18711340638512L63.50574097222222,102.19506873288206L63.53481736111111,102.20222852664024L63.87937256944444,103.40833906487853L64.18322083333334,102.63337179176631L64.37948645833333,103.34796797355087L64.38239409722223,103.99110453190768L64.43763923611111,104.18052741798228L64.87233125,103.62727466059076L65.01480555555555,101.86674714987367L65.02643611111111,101.42293909142099L65.27940069444445,101.79444518991211L65.3273767361111,102.1288006771038L65.79114513888888,100.96258725665103L65.905996875,100.19619518617316L65.99177222222222,99.26650898835639L66.60383020833333,98.74052474980584L66.65471388888889,98.26713893632287L66.76229652777776,96.59815835962215L67.31765555555556,96.75594252505549L68.03584236111111,96.45741493684025L68.03729618055554,96.18874010789806L68.55485590277777,95.83286609481367L68.56212500000001,95.51257948347367L69.06514652777778,97.78885488034793L69.20762083333334,97.94950272640158L69.2585045138889,98.09408578770639L69.53036875,97.61847720712495L69.66266631944444,95.93176281396607L70.42156006944444,93.9102531930019L70.57421111111111,94.70262787590099L71.19499201388888,93.16589841780548L71.23279131944444,91.78284190624889L71.32874340277777,90.53809104643872L71.53082430555556,90.00781527416252L71.6209611111111,91.41463374905196L71.92335555555556,88.35017036962655L71.94661666666666,85.59215332900254L72.12689027777778,87.88107133217038L72.44382291666666,89.94109753450184L72.69969513888888,87.86178777903937L72.73749444444445,87.13107566716566L72.945390625,87.41350143400379L73.16782500000001,86.35001795651979L73.37572118055556,86.91901616122911L73.58216354166667,87.29344787865352L73.71882256944444,88.05130309117793L73.73917604166667,88.73337278237587L74.73649618055555,86.0983021697072L74.7902875,83.72673861851396L75.15810381944445,83.34659808986761L75.42560659722223,83.10280494747346L75.50702048611112,82.88339111933283L75.60588020833333,81.15191867364027L75.90100555555556,79.2238601391827L76.2324763888889,78.2713407917413L76.38803506944444,76.91847337899121L76.55522430555556,78.450292708006L76.70787534722221,78.81413010392491L76.89977951388889,78.38638376014316L76.91141006944444,78.00141205075022L77.10331423611112,75.42080417873527L77.31702569444445,74.35299042742666L77.44786944444445,73.39195805126822L77.59906666666666,74.87129557958893L77.63977361111111,76.20269935505587L78.12534930555556,75.47756275283827L78.14279513888889,74.82493981085103L78.17041770833333,76.19244582983521L78.1951326388889,77.42320124690778L78.27363888888888,76.38328112217434L78.32743020833334,78.87328634338218L78.38122152777778,76.93315770897948L78.56004131944445,76.64630860473962L78.71269236111111,76.8640777442715L79.03398645833333,76.30880330316423L79.06451666666666,75.80905630617025L79.27095902777778,74.24221734218914L79.37854166666666,73.93339560796475L79.64604444444444,73.03005604715392L80.44564513888889,72.56318377576518L80.47617534722222,72.14299873151657L80.50961319444446,71.76483219169387L80.66371805555555,71.70374897252387L80.79456180555555,72.9231740752829L81.08241805555555,72.8917900010877L81.19581597222222,72.86354433431204L81.34701319444444,72.50772323421174L81.371728125,72.1874842441219L81.46913402777778,71.22666915303773L81.77298229166666,70.3422689043962L81.81514305555555,69.54630868061969L82.3297951388889,70.52914447922835L82.37340972222222,71.4136966979754L82.53042222222221,71.21859369484389L82.6510892361111,71.04300099202564L82.73395694444444,72.10430089282588L83.16283368055555,71.50973747020855L83.58007986111112,69.81429705651738L83.97988020833334,69.8420673508657L84.1427079861111,69.8985272824459L84.60211493055556,69.1272745542001L84.96120833333333,70.28181376544835L84.98446944444444,71.32089905557153L85.36973159722223,70.59620915001354L85.54418993055555,70.47105490167871L85.74917847222223,71.41648274484506L86.20713159722222,71.47676780369392L86.79738229166666,72.41602435665855L86.91223402777777,73.2613552543266L87.05325451388889,72.51568639556015L87.09832291666666,71.687251089337L87.259696875,71.68112598040331L87.66095104166668,70.70014671569587L87.95753020833334,69.18793204412567L88.19450277777777,69.01087217304638L88.20031805555556,68.85151828907502L88.24829409722223,68.7080997935008L88.27737048611111,68.88582314748412L88.38349930555556,69.04577416606907L88.74259270833333,68.62333008279542L89.039171875,69.91873040784945L89.078425,71.08459070039802L89.18019236111111,69.69519829702469L89.46804861111112,68.44474513398872L89.49130972222223,67.31933728725635L90.33307118055556,67.04987022519735L90.79247812499999,67.09448320267762L90.81864687500001,67.13463488240986L91.12394895833333,67.11963806083553L92.34515729166667,67.22020758808533L92.47454722222223,67.31072016261012L92.52106944444445,67.39218147968246L92.62574444444445,67.56382999838088L92.66499756944445,67.71831366520946L92.67081284722222,67.8573489653552L92.76240347222222,66.43668073548629L93.03572152777778,66.91234599527101L93.15202708333332,66.67964472907722L93.33666215277778,67.21754692283618L93.34683888888888,67.70165889721925L93.41080694444445,68.13735967416399L93.487859375,68.52949037341426L94.23221493055556,68.28454133607283L94.44738020833333,66.53008720246551L94.9504017361111,67.00821181555231L94.96348611111111,67.43852396733041L95.04053854166668,66.13447157059734L95.23680416666667,64.96082441353758L95.45633090277778,66.61067530551719L96.41585173611111,67.43867444163216L96.43911284722222,68.1838736641356L96.55396458333334,67.82008629772204L96.67899305555557,68.14561100128317L97.84495625,67.08551656782151L98.25784097222223,67.10296491103935L98.33489340277778,67.11866841993543L98.37996180555557,67.13280157794188L98.43229930555556,67.1455214201477L98.48899826388889,67.4873692781329L98.68962534722222,67.79503235031964L98.78412361111111,66.72672911528765L98.81756145833333,65.7652562037589L98.97166631944445,65.135930583383L99.12431736111111,64.86847085837803L99.19119305555556,64.62775710587357L99.62006979166667,64.69824806195285L100.08819965277777,64.28968992242426L100.710434375,64.15012093018181L100.82528611111111,63.75704217049697L101.00846736111112,62.93520462011395L101.77753784722222,62.33715082476921L101.85022881944445,61.79890240895895L101.98543402777779,62.38434550139641L102.00869513888888,62.9112442845901L102.05230972222222,63.385453189464414L102.15843854166667,63.8122412038513L102.68326736111112,63.551283750132825L102.95949305555555,63.88675537511956L103.19210416666667,64.1414798376076L103.41744618055556,64.37073185384685L103.55265138888889,63.28299200179549L103.63261145833334,62.30402613494927L104.38278229166666,62.988423521454365L104.39441284722221,62.200181169308905L104.609578125,61.49076305237803L104.67790763888888,60.82082008047354L105.10096909722222,61.00847140575951L105.18965208333334,61.28355759851689L105.41790173611112,62.455468505331865L105.66795868055556,62.102054988132L105.99361423611111,62.96398282265214L106.04159027777777,63.73971787372025L106.26402465277778,63.31294608634822L106.28583194444444,62.92885147771341L106.81066076388888,62.18589966327539L107.15666979166666,61.74930969694785L107.16684652777778,61.35637872725306L107.17266180555555,61.92314085452776L107.17847708333333,62.43322676907498L107.383465625,62.89230409216748L107.44743368055555,63.30547368295073L107.68876770833333,62.43439298132233L107.74110520833334,61.22168701652342L107.7629125,60.13025164820442L107.93446319444445,61.40962648338396L108.58868194444445,60.692730501712234L108.75732500000001,60.047524118207676L108.94632152777777,59.46683837305358L109.01174340277778,58.94422120241488L109.31849930555555,58.52106574884006L109.47260416666667,57.94355917395603L109.82733611111111,58.71000325656044L109.83896666666666,59.39980293090437L110.07448541666668,59.01762263781393L110.15153784722223,58.67366037403255L110.98166875,58.29329433662929L111.22881805555555,58.98936490296636L111.24917152777778,59.61582841266973L111.37565381944445,60.179645571402745L111.6358875,60.66348101426249L111.68386354166667,61.09893291283622L111.94409722222221,61.49083962155261L112.38024305555555,61.95368899273066L112.38896597222222,62.37025342679094L112.64919965277777,62.745161417445175L113.05045381944444,62.74234527570064L113.82824722222223,61.78204408146392L114.03905104166667,61.22850633998419L114.20769409722223,60.83652237265244L114.33126875,60.483736802053855L114.44466666666668,60.58709645518181L114.48391979166666,60.680120142996955L114.50863472222223,60.61044146203059L115.23699826388888,59.926263982494206L115.30532777777779,59.31050425091145L115.48123993055555,59.9520538258203L115.783634375,60.529448443238266L115.82724895833333,61.04910359891444L116.56724305555555,61.678059905689665L116.57596597222222,62.24412058178737L116.60795,62.753575190275285L116.73879375,61.737084337914425L116.99757361111111,60.82224257078964L118.05886180555557,60.82881831371067L118.1620829861111,60.83473648233962L118.39760173611111,60.187129500772315L118.53716840277778,59.60428321736174L118.74942604166667,58.73358822895891L119.41672916666666,59.71209607272968L119.53303472222223,60.59275313212336L119.96481909722222,61.03134448557769L120.0098875,61.701410037019926L120.48528645833332,60.695735699984596L120.703359375,59.79456212998613L120.98830798611111,60.00617258365418L121.18893506944444,60.14942199195542L121.29070243055556,60.278346459426544L121.29215625,60.39437848015055L121.41427708333335,60.49880729880216L121.64398055555556,60.238793235588616L121.92602152777778,58.70678057869641L122.10484131944445,57.32796918749344L122.26476145833334,56.08703893541076L122.44939652777778,54.97020170853635L122.86518888888888,55.71538153768272L122.87972708333334,56.40177671724777L123.12106111111112,57.01953237885631L123.41473263888888,55.518379140970694L123.93229236111111,56.19300789354028L124.000621875,55.368440437519595L124.23032534722223,56.77392972710096L124.27539374999999,58.038870087724206L124.44985208333334,59.17731641228512L124.5109125,60.20191810438993L124.60686458333333,61.124059627284254L124.89472083333334,60.797586997889184L125.10116319444445,61.55002829810026L125.46316423611111,61.4562921349569L126.17408194444444,61.35226292146122L126.408146875,60.605703295981755L126.44885381944444,59.93379963305024L126.51427569444445,59.32908633641189L127.12342604166668,58.51344436943735L128.31991944444445,59.053766599160284L128.34608819444443,59.54005660591092L128.48710868055556,59.67091761198651L128.5612534722222,59.78869251745451L128.79531840277778,58.79728993237572L129.28816319444445,58.892294272471474L129.37393854166666,59.08006484522434L129.6399875,57.7150583607019L129.66034097222223,56.486552524631705L130.05287222222222,57.36723060550186L130.08340243055557,58.15984087828501L130.43668055555557,58.25565679045651L130.55153229166666,57.480491111410856L130.72162916666667,56.841842000269764L131.51686840277776,56.34965780024278L131.68841909722224,57.25975868688518L131.79890937500002,58.078849484863326L132.1754486111111,57.561297869710316L132.2932079861111,57.34330141607262L132.92125798611113,55.98283794113203L133.1044392361111,56.50875414701882L133.14223854166667,56.982078732316936L133.31088159722222,57.40807085908524L133.53476979166666,57.791463773176716L133.61618368055557,58.136517395859045L133.6903284722222,58.44706565627315L133.72231250000002,58.726559090645836L133.77028854166667,57.65256984824791L133.8066340277778,56.68597953008978L134.18462708333334,56.036314910414134L134.1875347222222,55.45161675270606L134.33582430555558,54.925388410768775L134.3401857638889,54.45178290302523L134.56407395833332,55.736537946056046L134.80395416666667,56.89281748478376L135.02202708333334,57.74466906963872L135.21974652777777,58.14160216267483L135.46689583333335,59.604108613074004L135.66897673611112,59.85443108509993L136.35372569444445,59.56445464325661L136.36099479166666,59.3034758455976L136.42932430555558,59.06859492770451L136.51655347222223,58.24753543493405L136.54999131944444,57.50858189144064L136.93234583333333,56.84352370229658L136.94252256944446,56.244971332066925L137.97037291666666,56.82727419886021L138.36290416666668,55.96288011230753L138.79614236111112,55.04332543441012L138.8223111111111,54.21572622430244L138.9386166666667,53.47088693520553L139.4634454861111,53.319731575018295L139.7120486111111,53.7028917508498L139.88505312499998,54.77146924243148L140.19471666666666,55.73318898485502L140.26886145833333,58.085536753036166L140.47821145833333,57.99998307773255L140.54654097222223,57.922984769959285L140.71663784722222,57.64521962629668L140.8852809027778,55.90843099700034L140.89545763888887,54.345321230633644L141.30979618055557,54.43712244090361L141.7924642361111,54.519743530146584L142.187903125,54.641302510465266L142.33183125000002,56.076238926085395L142.672025,55.42854836681019L142.77815381944444,54.8456268634625L142.86102152777778,54.32099751044956L143.60246944444444,53.71116442607128L143.70132916666668,53.162314650130824L143.81327326388887,52.66834985178441L143.8336267361111,52.22378153327263L143.89032569444444,53.003670046612044L143.93684791666666,53.70556970861749L144.37880902777778,54.25074607108907L144.53727534722222,55.5202047973135L144.79750902777778,55.50238431758214L145.34705277777778,56.81187921915726L145.42846666666665,57.99042463057485L145.43428194444445,59.051115500850685L145.52878020833333,58.98700395076561L145.6232784722222,58.74837022235573L145.95038784722223,57.44013320012016L145.9736489583333,56.262719880108136L146.18299895833334,55.59244789209731L146.2207982638889,54.9892031028876L146.27458958333332,54.44628279259882L146.83140243055556,53.78852118000562L146.859025,52.850402395338364L147.0073145833333,51.573428822471215L147.3911229166667,52.331819273557414L147.5554045138889,51.12243734620168L147.60628819444443,50.03399361158151L148.22125381944446,51.430127583756686L149.3610482638889,51.41224815871435L149.410478125,51.17982334284291L149.5253298611111,50.970641008558616L149.85389305555555,50.78237690770277L149.92949166666665,50.61293921693249L150.13302638888888,51.42017862857256L150.48630451388888,51.43869409904865L150.8526670138889,51.34522468914378L151.08673194444444,51.587568886896065L151.43855625,52.72607866487313L151.48507847222223,53.75073746505248L151.79328819444444,53.30019705188057L152.07242152777778,51.1089773466925L152.19599618055554,50.30507961202325L152.38790034722223,49.58157165082092L152.681571875,49.58728115240548L152.72809409722223,49.592419703831595L152.78188541666665,49.597044400115095L152.8981909722222,49.675939960103605L153.11771770833332,50.958412630759895L153.3910357638889,51.56197136768391L153.43610416666667,53.10030756424884L153.48408020833332,54.48481014115728L153.64981562499997,54.507595793708234L153.74140625,54.528102881004074L154.08450763888888,55.03822592623699L154.12666840277777,55.49733666694664L155.24029409722223,54.93506966691862L155.25919375,55.31796270022676L155.36386875,55.662566430204095L155.57176493055556,56.12610978718368L156.13148541666666,56.5078988084653L156.214353125,56.94590892761876L156.3684579861111,56.66358470152355L156.46295625,56.40949289803787L156.528378125,55.37054360823406L156.76535069444444,54.43548924741067L157.21312708333335,52.35494032266959L157.993828125,52.29964629040262L158.1988166666667,52.741548328029026L158.84867395833334,53.35559349522613L158.9722486111111,54.76176747903685L158.9955097222222,56.0273240644665L159.55086875,56.25379165801985L159.57558368055555,56.45367915888451L159.76458020833334,55.74464457632939L159.88233958333333,54.516513452029784L159.9724763888889,53.41119544016013L160.26614791666668,51.370142562810784L160.57581145833333,49.53319497319639L161.48299479166667,50.011808809210066L161.51207118055558,50.44256126162239L161.8115579861111,51.01117180212681L162.06452256944445,50.063654621914125L162.28259548611112,49.210889159722726L162.311671875,48.44340024375046L162.31603333333334,47.7526602193754L162.4396079861111,47.13099419743787L162.44396944444443,46.571494777694056L162.96589062500001,46.05614529992465L163.00368993055554,45.592330769932204L163.88906597222223,45.7098310262723L163.97484131944444,46.00044792364508L164.46623229166664,46.80086979794723L164.60725277777777,47.52124948481918L164.96779999999998,48.169591203003904L165.5929423611111,49.13069874937018L166.28932187499998,49.33489554109984L166.51611770833333,49.51867265365652L166.87666493055556,48.56700538829088L167.0322236111111,47.710504849461785L167.2735576388889,45.854054364515605L167.45819270833334,47.2197822613974L167.65736597222224,48.448937368590975L167.7387798611111,49.5551769650652L167.78530208333333,50.55079260189201L167.88852326388889,51.44684667503613L168.44097465277778,51.9858286741992L168.57036458333334,52.87211247344594L168.60380243055553,53.66976789276801L169.0821090277778,54.057257770157875L169.4223027777778,52.993931993142084L169.51680104166667,54.64473879382787L170.12449756944446,53.4852982477784L170.32512465277776,53.320901756333896L170.42689201388887,53.17294491403385L170.528659375,53.03978375596381L170.70311770833334,53.600405380367405L170.7670857638889,54.10496484233067L170.96480520833333,53.9926683580976L171.1770628472222,53.39600152228785L171.25556909722224,52.85900137005906L171.37187465277776,52.37570123305315L171.53179479166667,51.94073110974783L171.75422916666668,51.48632466543971L171.8603579861111,52.536625532229095L172.13949131944443,52.5378963123395L172.24125868055555,52.53904001443888L172.31249583333332,51.954002679661656L173.08592777777778,52.66646907836217L173.74160034722223,53.50828883719261L173.89570520833334,53.652326620140016L173.89861284722224,53.781960624792674L174.29114409722223,53.2063645623134L174.872671875,53.53399477274874L175.2826489583333,56.27539529547386L175.31608680555556,58.74265576592647L175.55160555555557,55.92065685600048L175.7071642361111,53.3808578370671L175.79293958333332,51.09503872002705L175.80602395833333,49.03780151469101L175.90924513888888,47.41048802988857L176.01828159722223,48.60090589356639L176.1389486111111,49.67228197087641L176.2538003472222,50.63652044045544L176.4006361111111,51.50433506307655L176.4297125,52.28536822343557L176.54020277777778,53.896898067758684L176.62307048611112,53.56940826098281L176.63906250000002,53.274667434884535L177.25548194444445,52.70653402472939L177.28455833333334,53.54434728892312L177.81374861111112,52.21764589336415L178.10742013888887,53.39934797069439L178.15394236111112,54.462879840291635L178.2324486111111,55.420058522929125L178.36329236111112,54.775052670636214L178.6467871527778,53.47081407023926L178.69185555555558,52.296999329881984L178.77181562500002,51.24056606356045L178.82269930555555,50.832576123871064L178.83723750000001,50.465385178150626L179.12073229166666,47.20457999366889L179.49291006944443,48.26612199430201L179.57287013888887,49.22150979487182L180.1980125,49.28289214871796L180.6763190972222,49.37746960051284L180.76064062499998,49.46258930712821L181.29855381944444,49.8263303764154L181.44975104166667,50.15369733877385L181.47010451388888,50.44832760489646L181.49772708333333,50.7842948444068L181.55733368055556,51.08666535996613L181.57768715277777,51.35879882396951L181.59949444444445,51.603718941572566L181.61839409722222,51.82414704741531L181.67509305555555,52.022532342673784L181.8640895833333,52.39381244173974L182.1141465277778,51.74463119756577L182.3598420138889,51.76216807780919L182.6157142361111,50.5664846033616L182.749465625,49.490369476358765L182.85414062499999,48.52186586205622L182.87449409722223,47.65021260918391L183.48800590277776,48.439058014932215L183.57087361111113,49.322085546772314L183.74969340277778,48.748010325428424L184.005565625,48.88820929288559L184.15094756944444,49.014388363597035L184.3006909722222,48.31768286057067L184.78626666666665,48.82344790784694L185.74724131944444,49.5539697837289L185.80539409722223,50.21143947202266L185.8533701388889,50.083362191487055L186.12087291666668,49.96809263900502L186.7431076388889,50.25768337510452L186.94228090277778,48.50444837092738L187.8959864583333,49.67987020050131L187.89744027777778,50.73774984711784L187.98176180555555,51.68984152907272L188.27252569444443,50.76885737616547L188.38737743055555,49.93997163854891L188.7392017361111,49.14480780802735L189.08957222222222,49.072260360557934L189.2756611111111,49.00696765783549L189.32363715277776,48.94820422538527L189.605678125,48.80091713618006L189.69290729166667,49.09709208922871L189.84991979166668,49.36364954697251L189.90225729166667,49.603551258941934L189.92987986111112,49.8194627997144L190.06944652777779,49.75024985307627L190.73384201388888,49.90035820110198L190.7934486111111,47.45912238099177L190.92138472222223,44.793943476225934L191.24413263888889,46.77701579526999L191.4665670138889,47.17724754907633L191.7413388888889,47.51385612750204L191.78204583333334,47.81680384808513L192.588915625,47.43259012994332L192.8709565972222,47.51553111694898L192.92765555555556,47.43284467192072L193.216965625,47.86189353806196L193.82756979166666,48.110370850922465L194.03255833333336,47.83053376583021L194.21573958333332,48.47941372258052L194.4367201388889,48.80773901698913L194.78418298611112,49.29596511529023L195.23777465277777,49.97530193709453L195.4805625,49.7253050767184L195.49219305555553,49.50030790237987L196.00539131944444,50.06874377880857L196.4066454861111,50.2184694009277L196.48369791666667,50.35322246083493L197.00271145833335,50.90323354808477L197.02015729166666,51.39824352660962L197.37925069444444,50.935152507281984L197.38942743055557,50.51837058988714L197.54353229166668,50.12753353089842L197.77759722222223,49.77578017780856L197.90844097222222,49.459202160027715L198.37947847222222,50.46441527735827L198.6280815972222,51.45957374962245L198.69931875,51.938283041326855L198.7545638888889,51.82238807052752L198.80399375000002,51.71808259680809L198.85923888888888,51.451141003793936L198.9159378472222,50.40062690341455L199.08458090277776,48.54656421307308L199.19797881944444,46.87790779176578L199.21833229166666,45.37611701258916L199.24304722222223,44.024505311330245L199.4000597222222,44.82585478019726L199.47856597222224,45.65720263551083L200.09789305555557,45.512549038626446L200.37411875,46.719694134763785L200.54276180555556,47.38525805462075L200.86260208333331,47.66959891582536L200.90476284722223,47.92550569090946L201.57497361111112,49.15095512181853L201.94860520833333,48.357992942969986L201.99076597222222,49.34746031533966L202.07944895833333,46.694047617139006L202.52141006944444,47.38970952209178L202.7656517361111,48.015805236549284L203.50564583333332,48.65402471289434L203.52745312500002,49.2284222416049L203.9592375,50.394380017444405L204.77773784722223,50.57840868236663L204.8649670138889,50.74403448079663L205.26912881944446,51.038631032716964L205.27058263888887,51.30376792944527L205.4319565972222,50.657391136500735L205.47266354166666,50.07565202285066L205.51627812499999,49.552086820565606L205.57588472222224,49.60401147184237L205.7445277777778,48.805076991324796L206.20393472222221,49.55316929219231L206.26499513888888,50.22645236297308L206.31733263888887,50.83240712667575L206.74184791666667,50.09943308067484L206.78691631944446,49.43975643927402L207.21288541666667,48.846047462013274L207.348090625,48.311709382478625L207.36553645833334,47.830805110897415L207.5181875,47.39799126647432L207.99649409722224,47.12645880649359L208.78301041666666,47.84181292584421L208.81790208333334,47.282031633259805L208.865878125,46.77036180326715L209.50119722222223,44.93712562294044L209.59714930555555,44.53407972731304L209.63785625,44.17133842124841L210.1248857638889,42.114204579123566L210.38511944444443,42.73685078787787L210.45635659722222,43.56076570909008L210.46071805555556,44.52255580484771L210.47671006944447,45.38816689102961L210.540678125,45.848616868593325L210.8677875,47.10868851506734L211.22688090277776,48.2427529968939L212.90458854166667,49.26341103053785L213.25786666666664,50.32753659415074L213.61841388888888,50.439582934735654L213.69546631944445,50.54042464126209L213.8539326388889,50.347982177135876L214.047290625,50.1747839594223L214.31479340277778,50.801638896813415L214.50088229166667,51.365808340465406L214.57793472222224,51.19309417308551L214.6389951388889,51.037651422443645L214.79746145833332,50.2684196135326L214.80763819444445,49.576110985512656L214.85416041666664,48.95303322029474L214.9006826388889,48.39226323159858L214.989365625,47.88757024177204L215.015534375,47.43334655092818L215.329559375,45.050011895835354L215.60869270833334,46.02021070625182L215.75988993055554,46.89338963562665L215.85002673611112,47.67925067206397L216.10299131944444,48.94899227152422L216.4053857638889,50.09175971103848L216.83280868055556,49.34238373993463L216.89096145833332,48.667945365941165L217.082865625,48.37561749601372L217.2108017361111,48.49012241307901L217.22824756944445,48.593176838437785L217.23987812500002,48.68592582126064L217.28058506944444,48.76939990580124L217.3503684027778,48.844526581887806L217.41288263888887,47.264073923699044L217.59751770833333,48.39439986466243L217.8184982638889,48.39295987819622L217.96533402777777,48.33659722370993L218.17759166666667,48.687070834672255L218.31425069444444,49.00249708453835L218.53377743055557,49.42798070941785L219.09640555555555,49.240582638476056L219.1400201388889,49.07192437462844L219.42060729166667,47.13833193716562L219.50783645833334,45.398098743449026L219.54418194444446,43.83188886910415L220.2420152777778,44.274899982193716L220.25800729166667,44.67360998397433L220.5167871527778,45.71684898557689L220.550225,46.65576408701918L220.59529340277777,47.500787678317295L220.80173576388887,48.26130891048555L220.8220892361111,48.94577801943697L221.7176420138889,49.77420021749329L221.96479131944443,51.294646862410616L222.3137079861111,49.7563155095029L222.3369690972222,49.724883958552596L222.53323472222223,49.01219556269736L222.735315625,50.396442673094285L222.89814340277778,51.64226507245151L223.15692326388887,52.763505231873026L223.20344548611112,53.77262137535239L223.3081204861111,54.6808259044838L223.68611354166666,53.26800998070209L223.89982500000002,50.918742315965204L224.436284375,49.82313475103537L224.4551840277778,48.83708794259849L224.57875868055555,47.94964581500531L224.82736180555557,47.15094790017142L225.09486458333333,45.256053110154284L225.12830243055555,44.793581132472184L225.13557152777778,44.37735635255828L225.16464791666667,44.002754050635815L225.31875277777777,43.61054531223891L225.81886666666668,41.959557447681675L226.23756666666668,40.72146836958021L226.61119826388887,39.3829881992888L227.10113541666666,40.05455604602659L227.20435659722224,40.65896710809062L227.3177545138889,41.20293706394821L227.7757076388889,42.75451002422005L227.7829767361111,44.150925688464724L227.80478402777777,45.40769978628492L228.28454444444444,46.656796474323045L228.3310666666667,47.780983493557414L228.61746909722223,48.79275181086837L228.95184756944445,49.56960996311484L229.07251458333332,49.59224896680338L229.10013715277776,49.61262407012303L229.24988055555554,49.65456166311073L229.3327482638889,47.43457216346633L229.65549618055556,48.46131494711969L229.93172187500002,48.14441678574104L230.350421875,47.859208440500254L230.39112881944445,47.602520929783594L230.51615729166667,47.37150217013854L231.0700625,44.44761861979137L231.1020465277778,41.81612342447892L231.53383090277777,40.285577748697705L231.74463472222223,38.90808664049456L231.81151041666666,37.668344643111766L232.57621944444443,39.05024351213393L232.63437222222223,40.29395249425389L232.6460027777778,41.41329057816182L232.67798680555555,42.42069485367895L232.692525,43.327358701644386L232.80301527777777,44.1433561648133L232.8524451388889,44.877753881665285L232.97892743055556,41.621111826832106L233.02399583333332,38.69013397748222L233.70292951388888,40.00132057973403L233.96025555555556,40.7329885217606L234.0503923611111,41.65502300291786L234.38913229166667,41.698187369292754L234.39785520833334,41.73703529903014L235.3064923611111,40.54873176912713L235.3588298611111,39.47925859221439L235.4998503472222,41.21893273299298L235.7804375,41.860306126360314L235.80515243055555,42.43754218039095L235.80660625000002,42.95705462901853L236.2412982638889,43.97921583278335L236.2936357638889,44.52549424950499L236.6120222222222,44.98567815788783L236.81701076388887,45.39984367543238L237.24443368055557,44.80105930788915L237.47122951388891,44.71055337710021L237.67912569444445,45.443298039390214L237.80415416666665,46.57476823545119L237.81869236111112,47.59309141190607L238.02368090277778,47.1368489373821L238.08910277777778,46.98583071031058L238.1254482638889,46.849914305946186L238.3086295138889,45.142456208684905L238.410396875,45.61174392114975L238.6560923611111,45.35756952903475L238.75640590277777,45.29794590946463L238.84218124999998,46.652417985184826L239.01518576388887,47.87144285333301L239.195459375,48.96856523466636L239.22598958333333,49.955975377866395L240.2887315972222,51.068844506746416L240.77139965277777,50.603293389405124L240.78739166666668,50.18429738379794L240.91532777777778,50.8141343120848L240.9720267361111,51.380987547542986L241.03163333333333,51.891155459455334L241.236621875,52.35030658017649L241.7890732638889,51.658275922158836L241.91555555555556,51.180981663276285L242.34733993055556,50.28728349694863L243.21963159722222,49.939221813920454L243.3068607638889,50.212032965861724L243.32139895833333,50.45756300260888L243.5031263888889,50.67854003568134L244.33471111111112,50.035686032113205L244.51789236111114,49.97238409556854L244.6618204861111,49.82101235267835L244.85953993055557,49.299311117410525L245.0369059027778,48.80224667233611L245.12122743055556,48.27228867176919L245.22154097222221,47.79532647125893L245.22735625,47.3660604907997L245.3741920138889,44.718054441719715L245.4992204861111,46.1147823308811L245.52102777777776,46.89197076445964L246.33952812500002,47.41050702134703L246.50380972222223,45.16712298587896L246.68989861111112,44.359544020624384L246.7117059027778,43.63272295189529L246.81347326388888,42.978583990039084L246.98502395833333,42.3898589243685L247.05916875000003,41.86000636526501L247.15948229166668,42.20913906207184L247.16529756944445,42.52335848919799L247.93146041666668,41.154155973611495L247.95908298611113,39.92187370958368L248.07538854166665,41.259353005291985L248.25275451388887,40.01655103809611L248.40540555555555,38.89802926761982L248.6656392361111,39.88162634085782L248.68599270833334,40.76686370677206L248.73833020833334,41.15057733609484L248.79793680555554,41.495919602485344L248.93459583333333,41.80672764223681L249.00583298611113,40.6075215446798L249.0290940972222,39.528236056878455L249.14685347222223,41.18434578452397L249.26752048611112,39.55571120607158L249.39400277777779,41.25627341879775L249.42017152777777,42.78677941025131L249.6164371527778,44.12490146922619L249.81415659722222,44.204277988970205L250.3767847222222,42.42311685673985L250.43057604166665,40.82007183773251L250.81874583333334,42.72066465395929L251.11823263888888,42.95619818856335L251.17202395833334,40.973378369707035L251.2098232638889,39.18884053273632" style="fill: none;" fill="none"></path></g></g></g></g><g opacity="0.2"><g><g><g><path stroke="rgb(255, 112, 67)" stroke-width="2px" d="M29.138903125000002,150.76466666666667L29.320630555555557,144.74666666666667L29.41076736111111,151.15800000000002L29.766953125,145.88733333333334L29.857089930555556,140.10533333333333L29.919604166666666,149.42733333333334L29.92978090277778,149.42733333333334L29.999564236111112,147.81466666666665L30.01846388888889,147.81466666666665L30.115869791666665,144.15666666666667L30.252528819444446,151.11866666666666L30.552015625000003,142.072L31.015784027777777,143.64533333333333L31.09138263888889,144.786L31.101559375,145.57266666666666L31.165527430555557,142.85866666666666L31.53625138888889,139.67266666666666L31.598765625,151.07933333333332L31.60312708333333,151.07933333333332L31.806661805555553,149.388L31.86481458333333,149.388L32.03781909722222,144.70733333333334L32.431804166666666,144.668L32.55101736111111,150.332L32.69058402777778,146.75266666666667L32.692037847222224,146.75266666666667L32.981347916666664,146.24133333333333L33.49454618055555,144.668L33.77367951388889,146.75266666666667L33.796940625,145.80866666666668L33.88271597222222,147.93266666666668L34.33776145833333,143.09466666666668L34.340669097222225,143.09466666666668L34.413360069444444,147.42133333333334L34.63288680555555,138.768L34.82915243055555,143.488L35.35398125,142.898L35.47464826388889,148.48333333333332L35.608399652777784,138.37466666666666L35.63311458333333,138.37466666666666L35.875902430555556,143.68466666666666L36.03873020833333,150.25333333333333L36.30477916666666,141.40333333333334L36.54175173611111,147.736L36.84850763888889,142.15066666666667L36.868861111111116,142.15066666666667L37.39805138888889,146.71333333333334L37.60303993055556,149.978L37.665554166666666,146.59533333333334L37.78622118055555,147.46066666666667L38.09152326388889,147.77533333333332L38.119145833333334,146.792L38.81697916666667,145.29733333333334L38.834425,145.29733333333334L39.042321180555554,144.94333333333333L39.20514895833333,141.44266666666667L39.47992083333334,152.14133333333334L39.80993784722222,142.15066666666667L39.92333576388889,142.81933333333333L39.92769722222222,142.81933333333333L40.414726736111106,143.21266666666668L40.46561041666667,141.75733333333335L40.80435034722222,141.08866666666665L40.97008576388889,139.004L41.02969236111111,139.004L41.43240034722223,139.122L41.44693854166666,139.122L41.58214375,132.23866666666666L41.98485173611111,132.59266666666667L42.06771944444445,136.054L42.540210763888886,127.59733333333334L42.84260520833334,137.19466666666668L42.96763368055556,140.34133333333332L42.986533333333334,136.44733333333335L43.17698368055556,136.72266666666667L44.196111111111115,133.85133333333334L44.312416666666664,134.32333333333332L44.374930902777784,119.652L44.49850555555555,129.01333333333332L44.75001631944444,137.15533333333332L44.92738229166667,137.15533333333332L44.931743749999995,137.15533333333332L45.02042673611111,127.322L45.098932986111116,135.582L45.21814618055556,115.109L45.843288541666666,122.52333333333334L45.89271840277778,122.52333333333334L46.06572291666667,135.228L46.17330555555555,124.52933333333334L46.47860763888889,123.07400000000001L46.485876736111116,123.07400000000001L46.76210243055555,115.24666666666667L46.945283680555555,127.40066666666667L47.79867569444444,110.566L48.026925347222225,123.9L48.06617847222222,136.054L48.845425694444444,123.9L48.87886354166667,119.33733333333333L49.15508923611111,118.59L49.75260902777778,111.66733333333333L49.85873784722222,125.08L49.92270590277778,118.23599999999999L50.08117222222222,133.49733333333333L50.358851736111106,110.40866666666666L50.40246631944444,110.40866666666666L50.56384027777778,111.19533333333334L50.70049930555555,111.19533333333334L51.57279097222222,133.93L51.62222083333334,133.93L51.99585243055556,105.374L52.507596875,100.22133333333333L52.80562986111111,123.74266666666668L53.58487708333334,95.42266666666666L53.88872534722222,111.11666666666666L53.93379375,111.11666666666666L54.25363402777778,105.256L54.28561805555555,105.256L54.58219722222222,105.256L54.602550694444446,119.06200000000001L55.90226527777777,109.66133333333333L56.86905520833333,103.84L56.94610763888889,107.852L57.47239027777778,101.244L57.63085659722222,108.79599999999999L57.651210069444446,109.85799999999999L57.763154166666666,99.71000000000001L58.1469625,107.852L58.23128402777778,107.852L58.24436840277778,111.43133333333333L58.35485868055555,110.29066666666667L58.50896354166667,98.92333333333333L58.52059409722222,98.92333333333333L58.62381527777778,98.92333333333333L58.79391215277778,107.45866666666666L58.937840277777774,121.26466666666667L58.99453923611111,121.26466666666667L59.28675694444445,106.51466666666667L59.29111840277778,106.51466666666667L59.39724722222222,106.51466666666667L59.724356597222226,110.95933333333333L59.81740104166666,107.77333333333333L59.94533715277778,119.37666666666667L60.07181944444445,101.008L60.36839861111111,102.66L60.840889930555555,105.17733333333334L61.41805625,105.33466666666666L61.541630902777776,103.68266666666666L61.58233784722222,92.866L62.71631701388889,107.06533333333333L62.73085520833333,107.06533333333333L62.79482326388889,107.06533333333333L62.83262256944444,107.06533333333333L62.93148229166666,87.12333333333333L63.040518750000004,87.12333333333333L63.136470833333334,97.19266666666667L63.300752430555555,102.85666666666667L63.48974895833334,102.26666666666667L63.50574097222222,102.26666666666667L63.53481736111111,102.26666666666667L63.87937256944444,114.26333333333334L64.18322083333334,95.65866666666666L64.37948645833333,109.77933333333334L64.38239409722223,109.77933333333334L64.43763923611111,105.88533333333334L64.87233125,98.648L65.01480555555555,86.02199999999999L65.02643611111111,97.42866666666667L65.27940069444445,105.13799999999999L65.3273767361111,105.13799999999999L65.79114513888888,90.46666666666667L65.905996875,93.29866666666666L65.99177222222222,90.89933333333333L66.60383020833333,94.00666666666666L66.65471388888889,94.00666666666666L66.76229652777776,81.57733333333334L67.31765555555556,98.176L68.03584236111111,93.77066666666667L68.03729618055554,93.77066666666667L68.55485590277777,92.63L68.56212500000001,92.63L69.06514652777778,118.27533333333334L69.20762083333334,99.39533333333333L69.2585045138889,99.39533333333333L69.53036875,93.338L69.66266631944444,80.75133333333333L70.42156006944444,75.71666666666667L70.57421111111111,101.83399999999999L71.19499201388888,79.33533333333332L71.23279131944444,79.33533333333332L71.32874340277777,79.33533333333332L71.53082430555556,85.23533333333333L71.6209611111111,104.07600000000001L71.92335555555556,60.77000000000001L71.94661666666666,60.77000000000001L72.12689027777778,108.48133333333332L72.44382291666666,108.48133333333332L72.69969513888888,69.14800000000001L72.73749444444445,80.55466666666668L72.945390625,89.95533333333334L73.16782500000001,76.77866666666668L73.37572118055556,92.04L73.58216354166667,90.66333333333334L73.71882256944444,94.872L73.73917604166667,94.872L74.73649618055555,62.382666666666665L74.7902875,62.382666666666665L75.15810381944445,79.92533333333334L75.42560659722223,80.90866666666668L75.50702048611112,80.90866666666668L75.60588020833333,65.56866666666667L75.90100555555556,61.871333333333325L76.2324763888889,69.69866666666667L76.38803506944444,64.74266666666666L76.55522430555556,92.23666666666666L76.70787534722221,82.08866666666665L76.89977951388889,74.53666666666666L76.91141006944444,74.53666666666666L77.10331423611112,52.19533333333332L77.31702569444445,64.74266666666666L77.44786944444445,64.74266666666666L77.59906666666666,88.18533333333333L77.63977361111111,88.18533333333333L78.12534930555556,68.95133333333334L78.14279513888889,68.95133333333334L78.17041770833333,88.5L78.1951326388889,88.5L78.27363888888888,67.024L78.32743020833334,101.28333333333333L78.38122152777778,59.471999999999994L78.56004131944445,74.06466666666665L78.71269236111111,78.824L79.03398645833333,71.31133333333332L79.06451666666666,71.31133333333332L79.27095902777778,60.14066666666666L79.37854166666666,71.15400000000001L79.64604444444444,64.9L80.44564513888889,68.36133333333333L80.47617534722222,68.36133333333333L80.50961319444446,68.36133333333333L80.66371805555555,71.15400000000001L80.79456180555555,83.898L81.08241805555555,72.60933333333334L81.19581597222222,72.60933333333334L81.34701319444444,69.30533333333334L81.371728125,69.30533333333334L81.46913402777778,62.579333333333324L81.77298229166666,62.382666666666665L81.81514305555555,62.382666666666665L82.3297951388889,79.37466666666667L82.37340972222222,79.37466666666667L82.53042222222221,69.46266666666668L82.6510892361111,69.46266666666668L82.73395694444444,81.656L83.16283368055555,66.15866666666666L83.58007986111112,54.55533333333332L83.97988020833334,70.092L84.1427079861111,70.40666666666667L84.60211493055556,62.18600000000001L84.96120833333333,80.67266666666666L84.98446944444444,80.67266666666666L85.36973159722223,64.074L85.54418993055555,69.34466666666667L85.74917847222223,79.92533333333334L86.20713159722222,72.01933333333332L86.79738229166666,80.86933333333333L86.91223402777777,80.86933333333333L87.05325451388889,65.80466666666666L87.09832291666666,64.23133333333334L87.259696875,71.62599999999999L87.66095104166668,61.871333333333325L87.95753020833334,55.57799999999999L88.19450277777777,67.41733333333335L88.20031805555556,67.41733333333335L88.24829409722223,67.41733333333335L88.27737048611111,70.48533333333334L88.38349930555556,70.48533333333334L88.74259270833333,64.82133333333333L89.039171875,81.57733333333334L89.078425,81.57733333333334L89.18019236111111,57.19066666666667L89.46804861111112,57.19066666666667L89.49130972222223,57.19066666666667L90.33307118055556,64.62466666666667L90.79247812499999,67.496L90.81864687500001,67.496L91.12394895833333,66.98466666666667L92.34515729166667,68.12533333333333L92.47454722222223,68.12533333333333L92.52106944444445,68.12533333333333L92.62574444444445,69.10866666666668L92.66499756944445,69.10866666666668L92.67081284722222,69.10866666666668L92.76240347222222,53.650666666666666L93.03572152777778,71.19333333333334L93.15202708333332,64.58533333333334L93.33666215277778,72.05866666666667L93.34683888888888,72.05866666666667L93.41080694444445,72.05866666666667L93.487859375,72.05866666666667L94.23221493055556,66.08L94.44738020833333,50.739999999999995L94.9504017361111,71.31133333333332L94.96348611111111,71.31133333333332L95.04053854166668,54.397999999999996L95.23680416666667,54.397999999999996L95.45633090277778,81.45933333333333L96.41585173611111,74.89066666666666L96.43911284722222,74.89066666666666L96.55396458333334,64.546L96.67899305555557,71.07533333333333L97.84495625,57.54466666666667L98.25784097222223,67.26L98.33489340277778,67.26L98.37996180555557,67.26L98.43229930555556,67.26L98.48899826388889,70.564L98.68962534722222,70.564L98.78412361111111,57.111999999999995L98.81756145833333,57.111999999999995L98.97166631944445,59.471999999999994L99.12431736111111,62.46133333333334L99.19119305555556,62.46133333333334L99.62006979166667,65.33266666666665L100.08819965277777,60.61266666666667L100.710434375,62.89399999999999L100.82528611111111,60.219333333333324L101.00846736111112,55.53866666666667L101.77753784722222,56.95466666666668L101.85022881944445,56.95466666666668L101.98543402777779,67.65333333333334L102.00869513888888,67.65333333333334L102.05230972222222,67.65333333333334L102.15843854166667,67.65333333333334L102.68326736111112,61.20266666666666L102.95949305555555,66.906L103.19210416666667,66.434L103.41744618055556,66.434L103.55265138888889,53.493333333333325L103.63261145833334,53.493333333333325L104.38278229166666,69.14800000000001L104.39441284722221,55.10600000000001L104.609578125,55.10600000000001L104.67790763888888,54.79133333333334L105.10096909722222,62.69733333333333L105.18965208333334,63.75933333333333L105.41790173611112,73.00266666666666L105.66795868055556,58.92133333333334L105.99361423611111,70.72133333333333L106.04159027777777,70.72133333333333L106.26402465277778,59.471999999999994L106.28583194444444,59.471999999999994L106.81066076388888,55.49933333333334L107.15666979166666,57.81999999999999L107.16684652777778,57.81999999999999L107.17266180555555,67.024L107.17847708333333,67.024L107.383465625,67.024L107.44743368055555,67.024L107.68876770833333,54.594666666666654L107.74110520833334,50.30733333333335L107.7629125,50.30733333333335L107.93446319444445,72.924L108.58868194444445,54.240666666666655L108.75732500000001,54.240666666666655L108.94632152777777,54.240666666666655L109.01174340277778,54.240666666666655L109.31849930555555,54.712666666666664L109.47260416666667,52.74600000000001L109.82733611111111,65.608L109.83896666666666,65.608L110.07448541666668,55.57799999999999L110.15153784722223,55.57799999999999L110.98166875,54.870000000000005L111.22881805555555,65.254L111.24917152777778,65.254L111.37565381944445,65.254L111.6358875,65.01799999999999L111.68386354166667,65.01799999999999L111.94409722222221,65.01799999999999L112.38024305555555,66.11933333333333L112.38896597222222,66.11933333333333L112.64919965277777,66.11933333333333L113.05045381944444,62.716999999999985L113.82824722222223,53.139333333333326L114.03905104166667,56.24666666666667L114.20769409722223,57.30866666666668L114.33126875,57.30866666666668L114.44466666666668,61.517333333333326L114.48391979166666,61.517333333333326L114.50863472222223,59.983333333333334L115.23699826388888,53.768666666666675L115.30532777777779,53.768666666666675L115.48123993055555,65.726L115.783634375,65.726L115.82724895833333,65.726L116.56724305555555,67.33866666666667L116.57596597222222,67.33866666666667L116.60795,67.33866666666667L116.73879375,52.58866666666667L116.99757361111111,52.58866666666667L118.05886180555557,60.88799999999999L118.1620829861111,60.88799999999999L118.39760173611111,54.358666666666664L118.53716840277778,54.358666666666664L118.74942604166667,50.897333333333336L119.41672916666666,68.51866666666666L119.53303472222223,68.51866666666666L119.96481909722222,64.97866666666668L120.0098875,67.73200000000001L120.48528645833332,51.644666666666666L120.703359375,51.68400000000001L120.98830798611111,61.91066666666666L121.18893506944444,61.43866666666668L121.29070243055556,61.43866666666668L121.29215625,61.43866666666668L121.41427708333335,61.43866666666668L121.64398055555556,57.89866666666667L121.92602152777778,44.91866666666667L122.10484131944445,44.91866666666667L122.26476145833334,44.91866666666667L122.44939652777778,44.91866666666667L122.86518888888888,62.422L122.87972708333334,62.579333333333324L123.12106111111112,62.579333333333324L123.41473263888888,42.00799999999998L123.93229236111111,62.264666666666656L124.000621875,47.94733333333332L124.23032534722223,69.42333333333333L124.27539374999999,69.42333333333333L124.44985208333334,69.42333333333333L124.5109125,69.42333333333333L124.60686458333333,69.42333333333333L124.89472083333334,57.85933333333334L125.10116319444445,68.322L125.46316423611111,60.61266666666667L126.17408194444444,60.41600000000001L126.408146875,53.886666666666656L126.44885381944444,53.886666666666656L126.51427569444445,53.886666666666656L127.12342604166668,51.17266666666666L128.31991944444445,63.91666666666667L128.34608819444443,63.91666666666667L128.48710868055556,60.84866666666666L128.5612534722222,60.84866666666666L128.79531840277778,49.87466666666667L129.28816319444445,59.747333333333344L129.37393854166666,60.77000000000001L129.6399875,45.43000000000001L129.66034097222223,45.43000000000001L130.05287222222222,65.29333333333334L130.08340243055557,65.29333333333334L130.43668055555557,59.117999999999995L130.55153229166666,50.504000000000005L130.72162916666667,51.093999999999994L131.51686840277776,51.92L131.68841909722224,65.45066666666666L131.79890937500002,65.45066666666666L132.1754486111111,52.903333333333336L132.2932079861111,55.38133333333333L132.92125798611113,43.73866666666666L133.1044392361111,61.24199999999999L133.14223854166667,61.24199999999999L133.31088159722222,61.24199999999999L133.53476979166666,61.24199999999999L133.61618368055557,61.24199999999999L133.6903284722222,61.24199999999999L133.72231250000002,61.24199999999999L133.77028854166667,47.98666666666665L133.8066340277778,47.98666666666665L134.18462708333334,50.18933333333334L134.1875347222222,50.18933333333334L134.33582430555558,50.18933333333334L134.3401857638889,50.18933333333334L134.56407395833332,67.29933333333334L134.80395416666667,67.29933333333334L135.02202708333334,65.41133333333333L135.21974652777777,61.714L135.46689583333335,72.76666666666667L135.66897673611112,62.107333333333344L136.35372569444445,56.95466666666668L136.36099479166666,56.95466666666668L136.42932430555558,56.95466666666668L136.51655347222223,50.858000000000004L136.54999131944444,50.858000000000004L136.93234583333333,50.858000000000004L136.94252256944446,50.858000000000004L137.97037291666666,62.068L138.36290416666668,48.18333333333334L138.79614236111112,46.76733333333334L138.8223111111111,46.76733333333334L138.9386166666667,46.76733333333334L139.4634454861111,51.95933333333333L139.7120486111111,57.15133333333334L139.88505312499998,64.38866666666667L140.19471666666666,64.38866666666667L140.26886145833333,79.25666666666667L140.47821145833333,57.230000000000004L140.54654097222223,57.230000000000004L140.71663784722222,55.14533333333334L140.8852809027778,40.27733333333333L140.89545763888887,40.27733333333333L141.30979618055557,55.26333333333332L141.7924642361111,55.26333333333332L142.187903125,55.73533333333333L142.33183125000002,68.99066666666667L142.672025,49.599333333333334L142.77815381944444,49.599333333333334L142.86102152777778,49.599333333333334L143.60246944444444,48.22266666666667L143.70132916666668,48.22266666666667L143.81327326388887,48.22266666666667L143.8336267361111,48.22266666666667L143.89032569444444,60.022666666666666L143.93684791666666,60.022666666666666L144.37880902777778,59.15733333333333L144.53727534722222,66.94533333333334L144.79750902777778,55.342L145.34705277777778,68.59733333333332L145.42846666666665,68.59733333333332L145.43428194444445,68.59733333333332L145.52878020833333,58.41L145.6232784722222,56.60066666666667L145.95038784722223,45.666L145.9736489583333,45.666L146.18299895833334,49.56L146.2207982638889,49.56L146.27458958333332,49.56L146.83140243055556,47.868666666666684L146.859025,44.407333333333355L147.0073145833333,40.08066666666667L147.3911229166667,59.15733333333333L147.5554045138889,40.238L147.60628819444443,40.238L148.22125381944446,63.99533333333332L149.3610482638889,51.251333333333335L149.410478125,49.087999999999994L149.5253298611111,49.087999999999994L149.85389305555555,49.087999999999994L149.92949166666665,49.087999999999994L150.13302638888888,58.68533333333335L150.48630451388888,51.605333333333334L150.8526670138889,50.504000000000005L151.08673194444444,53.768666666666675L151.43855625,62.972666666666655L151.48507847222223,62.972666666666655L151.79328819444444,49.245333333333335L152.07242152777778,31.388000000000005L152.19599618055554,43.06999999999999L152.38790034722223,43.06999999999999L152.681571875,49.63866666666668L152.72809409722223,49.63866666666668L152.78188541666665,49.63866666666668L152.8981909722222,50.385999999999996L153.11771770833332,62.500666666666675L153.3910357638889,56.993999999999986L153.43610416666667,66.94533333333334L153.48408020833332,66.94533333333334L153.64981562499997,54.712666666666664L153.74140625,54.712666666666664L154.08450763888888,59.629333333333335L154.12666840277777,59.629333333333335L155.24029409722223,49.87466666666667L155.25919375,58.763999999999996L155.36386875,58.763999999999996L155.57176493055556,60.298L156.13148541666666,59.944L156.214353125,60.88799999999999L156.3684579861111,54.122666666666674L156.46295625,54.122666666666674L156.528378125,46.02000000000001L156.76535069444444,46.02000000000001L157.21312708333335,33.629999999999995L157.993828125,51.80199999999999L158.1988166666667,56.718666666666664L158.84867395833334,58.882000000000005L158.9722486111111,67.41733333333335L158.9955097222222,67.41733333333335L159.55086875,58.292L159.57558368055555,58.25266666666667L159.76458020833334,49.36333333333333L159.88233958333333,43.46333333333334L159.9724763888889,43.46333333333334L160.26614791666668,33.00066666666666L160.57581145833333,33.00066666666666L161.48299479166667,54.31933333333333L161.51207118055558,54.31933333333333L161.8115579861111,56.128666666666675L162.06452256944445,41.536L162.28259548611112,41.536L162.311671875,41.536L162.31603333333334,41.536L162.4396079861111,41.536L162.44396944444443,41.536L162.96589062500001,41.418000000000006L163.00368993055554,41.418000000000006L163.88906597222223,46.76733333333334L163.97484131944444,48.615999999999985L164.46623229166664,54.004666666666665L164.60725277777777,54.004666666666665L164.96779999999998,54.004666666666665L165.5929423611111,57.78066666666666L166.28932187499998,51.17266666666666L166.51611770833333,51.17266666666666L166.87666493055556,40.00200000000001L167.0322236111111,40.00200000000001L167.2735576388889,29.145999999999987L167.45819270833334,59.511333333333326L167.65736597222224,59.511333333333326L167.7387798611111,59.511333333333326L167.78530208333333,59.511333333333326L167.88852326388889,59.511333333333326L168.44097465277778,56.83666666666667L168.57036458333334,60.84866666666666L168.60380243055553,60.84866666666666L169.0821090277778,57.54466666666667L169.4223027777778,43.42400000000001L169.51680104166667,69.50200000000001L170.12449756944446,43.05033333333333L170.32512465277776,51.841333333333324L170.42689201388887,51.841333333333324L170.528659375,51.841333333333324L170.70311770833334,58.646L170.7670857638889,58.646L170.96480520833333,52.982L171.1770628472222,48.02600000000001L171.25556909722224,48.02600000000001L171.37187465277776,48.02600000000001L171.53179479166667,48.02600000000001L171.75422916666668,47.396666666666675L171.8603579861111,61.989333333333335L172.13949131944443,52.54933333333334L172.24125868055555,52.54933333333334L172.31249583333332,46.68866666666668L173.08592777777778,59.07866666666666L173.74160034722223,61.08466666666668L173.89570520833334,54.94866666666667L173.89861284722224,54.94866666666667L174.29114409722223,48.02600000000001L174.872671875,56.482666666666674L175.2826489583333,80.94800000000001L175.31608680555556,80.94800000000001L175.55160555555557,30.52266666666665L175.7071642361111,30.52266666666665L175.79293958333332,30.52266666666665L175.80602395833333,30.52266666666665L175.90924513888888,32.76466666666667L176.01828159722223,59.31466666666667L176.1389486111111,59.31466666666667L176.2538003472222,59.31466666666667L176.4006361111111,59.31466666666667L176.4297125,59.31466666666667L176.54020277777778,68.40066666666667L176.62307048611112,50.622L176.63906250000002,50.622L177.25548194444445,47.593333333333334L177.28455833333334,61.08466666666668L177.81374861111112,40.27733333333333L178.10742013888887,64.03466666666667L178.15394236111112,64.03466666666667L178.2324486111111,64.03466666666667L178.36329236111112,48.97L178.6467871527778,41.73266666666666L178.69185555555558,41.73266666666666L178.77181562500002,41.73266666666666L178.82269930555555,47.160666666666685L178.83723750000001,47.160666666666685L179.12073229166666,17.857333333333344L179.49291006944443,57.81999999999999L179.57287013888887,57.81999999999999L180.1980125,49.83533333333334L180.6763190972222,50.22866666666667L180.76064062499998,50.22866666666667L181.29855381944444,53.10000000000001L181.44975104166667,53.10000000000001L181.47010451388888,53.10000000000001L181.49772708333333,53.80800000000001L181.55733368055556,53.80800000000001L181.57768715277777,53.80800000000001L181.59949444444445,53.80800000000001L181.61839409722222,53.80800000000001L181.67509305555555,53.80800000000001L181.8640895833333,55.73533333333333L182.1141465277778,45.90199999999999L182.3598420138889,51.92L182.6157142361111,39.80533333333335L182.749465625,39.80533333333335L182.85414062499999,39.80533333333335L182.87449409722223,39.80533333333335L183.48800590277776,55.53866666666667L183.57087361111113,57.269333333333336L183.74969340277778,43.58133333333333L184.005565625,50.150000000000006L184.15094756944444,50.150000000000006L184.3006909722222,42.04733333333331L184.78626666666665,53.37533333333333L185.74724131944444,56.128666666666675L185.80539409722223,56.128666666666675L185.8533701388889,48.93066666666667L186.12087291666668,48.93066666666667L186.7431076388889,52.86399999999999L186.94228090277778,32.72533333333334L187.8959864583333,60.25866666666667L187.89744027777778,60.25866666666667L187.98176180555555,60.25866666666667L188.27252569444443,42.47999999999999L188.38737743055555,42.47999999999999L188.7392017361111,41.988333333333344L189.08957222222222,48.41933333333333L189.2756611111111,48.41933333333333L189.32363715277776,48.41933333333333L189.605678125,47.47533333333334L189.69290729166667,51.76266666666666L189.84991979166668,51.76266666666666L189.90225729166667,51.76266666666666L189.92987986111112,51.76266666666666L190.06944652777779,49.12733333333334L190.73384201388888,51.251333333333335L190.7934486111111,25.488L190.92138472222223,20.807333333333332L191.24413263888889,64.62466666666667L191.4665670138889,50.77933333333333L191.7413388888889,50.54333333333334L191.78204583333334,50.54333333333334L192.588915625,43.97466666666668L192.8709565972222,48.262L192.92765555555556,46.68866666666668L193.216965625,51.72333333333334L193.82756979166666,50.34666666666668L194.03255833333336,45.31200000000001L194.21573958333332,54.31933333333333L194.4367201388889,51.76266666666666L194.78418298611112,53.69L195.23777465277777,56.08933333333333L195.4805625,47.47533333333334L195.49219305555553,47.47533333333334L196.00539131944444,55.18466666666667L196.4066454861111,51.566L196.48369791666667,51.566L197.00271145833335,55.85333333333334L197.02015729166666,55.85333333333334L197.37925069444444,46.76733333333334L197.38942743055557,46.76733333333334L197.54353229166668,46.609999999999985L197.77759722222223,46.609999999999985L197.90844097222222,46.609999999999985L198.37947847222222,59.511333333333326L198.6280815972222,60.41600000000001L198.69931875,56.24666666666667L198.7545638888889,50.77933333333333L198.80399375000002,50.77933333333333L198.85923888888888,49.04866666666666L198.9159378472222,40.946L199.08458090277776,31.860000000000014L199.19797881944444,31.860000000000014L199.21833229166666,31.860000000000014L199.24304722222223,31.860000000000014L199.4000597222222,52.03800000000001L199.47856597222224,53.139333333333326L200.09789305555557,44.21066666666667L200.37411875,57.584L200.54276180555556,53.37533333333333L200.86260208333331,50.22866666666667L200.90476284722223,50.22866666666667L201.57497361111112,60.17999999999999L201.94860520833333,41.22133333333335L201.99076597222222,58.25266666666667L202.07944895833333,22.813333333333333L202.52141006944444,53.650666666666666L202.7656517361111,53.650666666666666L203.50564583333332,54.397999999999996L203.52745312500002,54.397999999999996L203.9592375,60.88799999999999L204.77773784722223,52.23466666666667L204.8649670138889,52.23466666666667L205.26912881944446,53.69L205.27058263888887,53.69L205.4319565972222,44.84L205.47266354166666,44.84L205.51627812499999,44.84L205.57588472222224,50.07133333333333L205.7445277777778,41.614666666666665L206.20393472222221,56.28599999999999L206.26499513888888,56.28599999999999L206.31733263888887,56.28599999999999L206.74184791666667,43.50266666666667L206.78691631944446,43.50266666666667L207.21288541666667,43.50266666666667L207.348090625,43.50266666666667L207.36553645833334,43.50266666666667L207.5181875,43.50266666666667L207.99649409722224,44.68266666666668L208.78301041666666,54.28L208.81790208333334,42.244L208.865878125,42.165333333333336L209.50119722222223,28.437999999999988L209.59714930555555,40.906666666666666L209.63785625,40.906666666666666L210.1248857638889,23.599999999999994L210.38511944444443,48.340666666666664L210.45635659722222,50.976L210.46071805555556,53.17866666666666L210.47671006944447,53.17866666666666L210.540678125,49.99266666666668L210.8677875,58.44933333333333L211.22688090277776,58.44933333333333L212.90458854166667,58.44933333333333L213.25786666666664,59.90466666666667L213.61841388888888,51.44799999999999L213.69546631944445,51.44799999999999L213.8539326388889,48.615999999999985L214.047290625,48.615999999999985L214.31479340277778,56.44333333333333L214.50088229166667,56.44333333333333L214.57793472222224,49.63866666666668L214.6389951388889,49.63866666666668L214.79746145833332,43.34533333333334L214.80763819444445,43.34533333333334L214.85416041666664,43.34533333333334L214.9006826388889,43.34533333333334L214.989365625,43.34533333333334L215.015534375,43.34533333333334L215.329559375,23.599999999999994L215.60869270833334,54.75200000000001L215.75988993055554,54.75200000000001L215.85002673611112,54.75200000000001L216.10299131944444,60.376666666666665L216.4053857638889,60.376666666666665L216.83280868055556,42.59800000000001L216.89096145833332,42.59800000000001L217.082865625,45.74466666666666L217.2108017361111,49.52066666666667L217.22824756944445,49.52066666666667L217.23987812500002,49.52066666666667L217.28058506944444,49.52066666666667L217.3503684027778,49.52066666666667L217.41288263888887,33.03999999999999L217.59751770833333,58.56733333333334L217.8184982638889,48.379999999999995L217.96533402777777,47.82933333333335L218.17759166666667,51.841333333333324L218.31425069444444,51.841333333333324L218.53377743055557,53.257333333333335L219.09640555555555,47.554L219.1400201388889,47.554L219.42060729166667,29.73600000000002L219.50783645833334,29.73600000000002L219.54418194444446,29.73600000000002L220.2420152777778,48.262L220.25800729166667,48.262L220.5167871527778,55.10600000000001L220.550225,55.10600000000001L220.59529340277777,55.10600000000001L220.80173576388887,55.10600000000001L220.8220892361111,55.10600000000001L221.7176420138889,57.230000000000004L221.96479131944443,64.97866666666668L222.3137079861111,35.911333333333346L222.3369690972222,49.44199999999999L222.53323472222223,42.59800000000001L222.735315625,62.854666666666674L222.89814340277778,62.854666666666674L223.15692326388887,62.854666666666674L223.20344548611112,62.854666666666674L223.3081204861111,62.854666666666674L223.68611354166666,40.55266666666668L223.89982500000002,29.77533333333335L224.436284375,39.96266666666665L224.4551840277778,39.96266666666665L224.57875868055555,39.96266666666665L224.82736180555557,39.96266666666665L225.09486458333333,28.201999999999998L225.12830243055555,40.631333333333316L225.13557152777778,40.631333333333316L225.16464791666667,40.631333333333316L225.31875277777777,40.08066666666667L225.81886666666668,27.100666666666655L226.23756666666668,29.578666666666663L226.61119826388887,27.336666666666673L227.10113541666666,46.098666666666674L227.20435659722224,46.098666666666674L227.3177545138889,46.098666666666674L227.7757076388889,56.718666666666664L227.7829767361111,56.718666666666664L227.80478402777777,56.718666666666664L228.28454444444444,57.89866666666667L228.3310666666667,57.89866666666667L228.61746909722223,57.89866666666667L228.95184756944445,56.56133333333334L229.07251458333332,49.79599999999999L229.10013715277776,49.79599999999999L229.24988055555554,50.032L229.3327482638889,27.454666666666668L229.65549618055556,57.702L229.93172187500002,45.292333333333346L230.350421875,45.292333333333346L230.39112881944445,45.292333333333346L230.51615729166667,45.292333333333346L231.0700625,18.132666666666665L231.1020465277778,18.132666666666665L231.53383090277777,26.51066666666668L231.74463472222223,26.51066666666668L231.81151041666666,26.51066666666668L232.57621944444443,51.487333333333325L232.63437222222223,51.487333333333325L232.6460027777778,51.487333333333325L232.67798680555555,51.487333333333325L232.692525,51.487333333333325L232.80301527777777,51.487333333333325L232.8524451388889,51.487333333333325L232.97892743055556,12.311333333333351L233.02399583333332,12.311333333333351L233.70292951388888,51.80199999999999L233.96025555555556,47.317999999999984L234.0503923611111,49.95333333333335L234.38913229166667,42.08666666666667L234.39785520833334,42.08666666666667L235.3064923611111,29.853999999999985L235.3588298611111,29.853999999999985L235.4998503472222,56.876000000000005L235.7804375,47.632666666666665L235.80515243055555,47.632666666666665L235.80660625000002,47.632666666666665L236.2412982638889,53.17866666666666L236.2936357638889,49.44199999999999L236.6120222222222,49.12733333333334L236.81701076388887,49.12733333333334L237.24443368055557,39.412000000000006L237.47122951388891,43.89599999999999L237.67912569444445,52.03800000000001L237.80415416666665,56.757999999999996L237.81869236111112,56.757999999999996L238.02368090277778,43.03066666666666L238.08910277777778,45.626666666666665L238.1254482638889,45.626666666666665L238.3086295138889,29.77533333333335L238.410396875,49.83533333333334L238.6560923611111,43.06999999999999L238.75640590277777,44.76133333333334L238.84218124999998,58.84266666666666L239.01518576388887,58.84266666666666L239.195459375,58.84266666666666L239.22598958333333,58.84266666666666L240.2887315972222,61.08466666666668L240.77139965277777,46.41333333333333L240.78739166666668,46.41333333333333L240.91532777777778,56.482666666666674L240.9720267361111,56.482666666666674L241.03163333333333,56.482666666666674L241.236621875,56.482666666666674L241.7890732638889,45.43000000000001L241.91555555555556,46.885333333333335L242.34733993055556,42.244L243.21963159722222,46.80666666666667L243.3068607638889,52.66733333333333L243.32139895833333,52.66733333333333L243.5031263888889,52.66733333333333L244.33471111111112,44.25L244.51789236111114,49.40266666666666L244.6618204861111,48.45866666666666L244.85953993055557,44.60400000000001L245.0369059027778,44.32866666666666L245.12122743055556,43.50266666666667L245.22154097222221,43.50266666666667L245.22735625,43.50266666666667L245.3741920138889,20.885999999999996L245.4992204861111,58.68533333333335L245.52102777777776,53.886666666666656L246.33952812500002,52.07733333333334L246.50380972222223,24.97666666666666L246.68989861111112,37.09133333333335L246.7117059027778,37.09133333333335L246.81347326388888,37.09133333333335L246.98502395833333,37.09133333333335L247.05916875000003,37.09133333333335L247.15948229166668,45.35133333333334L247.16529756944445,45.35133333333334L247.93146041666668,28.831333333333333L247.95908298611113,28.831333333333333L248.07538854166665,53.29666666666667L248.25275451388887,28.831333333333333L248.40540555555555,28.831333333333333L248.6656392361111,48.73400000000001L248.68599270833334,48.73400000000001L248.73833020833334,44.60400000000001L248.79793680555554,44.60400000000001L248.93459583333333,44.60400000000001L249.00583298611113,29.814666666666653L249.0290940972222,29.814666666666653L249.14685347222223,56.08933333333333L249.26752048611112,24.897999999999996L249.39400277777779,56.56133333333334L249.42017152777777,56.56133333333334L249.6164371527778,56.168000000000006L249.81415659722222,44.91866666666667L250.3767847222222,26.392666666666656L250.43057604166665,26.392666666666656L250.81874583333334,59.82599999999999L251.11823263888888,45.07599999999999L251.17202395833334,23.128000000000014L251.2098232638889,23.128000000000014" style="fill: none;" fill="none"></path></g></g></g></g></g></g><g transform="translate(68, 177)" clip-path="url(#clip_1)"><clipPath id="clip_1"><rect width="261" height="23"></rect></clipPath><g><g><line x1="0" y1="0" x2="0" y2="5" style="visibility: inherit;" fill="rgb(0, 0, 0)" stroke="rgb(204, 204, 204)" stroke-width="1px"></line><line x1="29.076388888888886" y1="0" x2="29.076388888888886" y2="5" style="visibility: inherit;" fill="rgb(0, 0, 0)" stroke="rgb(204, 204, 204)" stroke-width="1px"></line><line x1="58.15277777777777" y1="0" x2="58.15277777777777" y2="5" style="visibility: inherit;" fill="rgb(0, 0, 0)" stroke="rgb(204, 204, 204)" stroke-width="1px"></line><line x1="87.22916666666666" y1="0" x2="87.22916666666666" y2="5" style="visibility: inherit;" fill="rgb(0, 0, 0)" stroke="rgb(204, 204, 204)" stroke-width="1px"></line><line x1="116.30555555555554" y1="0" x2="116.30555555555554" y2="5" style="visibility: inherit;" fill="rgb(0, 0, 0)" stroke="rgb(204, 204, 204)" stroke-width="1px"></line><line x1="145.38194444444446" y1="0" x2="145.38194444444446" y2="5" style="visibility: inherit;" fill="rgb(0, 0, 0)" stroke="rgb(204, 204, 204)" stroke-width="1px"></line><line x1="174.45833333333331" y1="0" x2="174.45833333333331" y2="5" style="visibility: inherit;" fill="rgb(0, 0, 0)" stroke="rgb(204, 204, 204)" stroke-width="1px"></line><line x1="203.53472222222223" y1="0" x2="203.53472222222223" y2="5" style="visibility: inherit;" fill="rgb(0, 0, 0)" stroke="rgb(204, 204, 204)" stroke-width="1px"></line><line x1="232.6111111111111" y1="0" x2="232.6111111111111" y2="5" style="visibility: inherit;" fill="rgb(0, 0, 0)" stroke="rgb(204, 204, 204)" stroke-width="1px"></line><line x1="261.6875" y1="0" x2="261.6875" y2="5" style="visibility: inherit;" fill="rgb(0, 0, 0)" stroke="rgb(204, 204, 204)" stroke-width="1px"></line></g><g transform="translate(0, 8)"><text x="0" y="0" dx="0em" dy="0.95em" style="text-anchor: middle; visibility: hidden; font-family: &quot;Helvetica Neue&quot;, sans-serif; font-size: 12px; font-weight: 200;" fill="rgb(50, 49, 63)" stroke="none" stroke-width="1px">-20k</text><text x="29.076388888888886" y="0" dx="0em" dy="0.95em" style="text-anchor: middle; visibility: inherit; font-family: &quot;Helvetica Neue&quot;, sans-serif; font-size: 12px; font-weight: 200;" fill="rgb(50, 49, 63)" stroke="none" stroke-width="1px">0</text><text x="58.15277777777777" y="0" dx="0em" dy="0.95em" style="text-anchor: middle; visibility: hidden; font-family: &quot;Helvetica Neue&quot;, sans-serif; font-size: 12px; font-weight: 200;" fill="rgb(50, 49, 63)" stroke="none" stroke-width="1px">20k</text><text x="87.22916666666666" y="0" dx="0em" dy="0.95em" style="text-anchor: middle; visibility: inherit; font-family: &quot;Helvetica Neue&quot;, sans-serif; font-size: 12px; font-weight: 200;" fill="rgb(50, 49, 63)" stroke="none" stroke-width="1px">40k</text><text x="116.30555555555554" y="0" dx="0em" dy="0.95em" style="text-anchor: middle; visibility: hidden; font-family: &quot;Helvetica Neue&quot;, sans-serif; font-size: 12px; font-weight: 200;" fill="rgb(50, 49, 63)" stroke="none" stroke-width="1px">60k</text><text x="145.38194444444446" y="0" dx="0em" dy="0.95em" style="text-anchor: middle; visibility: inherit; font-family: &quot;Helvetica Neue&quot;, sans-serif; font-size: 12px; font-weight: 200;" fill="rgb(50, 49, 63)" stroke="none" stroke-width="1px">80k</text><text x="174.45833333333331" y="0" dx="0em" dy="0.95em" style="text-anchor: middle; visibility: hidden; font-family: &quot;Helvetica Neue&quot;, sans-serif; font-size: 12px; font-weight: 200;" fill="rgb(50, 49, 63)" stroke="none" stroke-width="1px">100k</text><text x="203.53472222222223" y="0" dx="0em" dy="0.95em" style="text-anchor: middle; visibility: inherit; font-family: &quot;Helvetica Neue&quot;, sans-serif; font-size: 12px; font-weight: 200;" fill="rgb(50, 49, 63)" stroke="none" stroke-width="1px">120k</text><text x="232.6111111111111" y="0" dx="0em" dy="0.95em" style="text-anchor: middle; visibility: hidden; font-family: &quot;Helvetica Neue&quot;, sans-serif; font-size: 12px; font-weight: 200;" fill="rgb(50, 49, 63)" stroke="none" stroke-width="1px">140k</text><text x="261.6875" y="0" dx="0em" dy="0.95em" style="text-anchor: middle; visibility: hidden; font-family: &quot;Helvetica Neue&quot;, sans-serif; font-size: 12px; font-weight: 200;" fill="rgb(50, 49, 63)" stroke="none" stroke-width="1px">160k</text></g><line x1="0" y1="0" x2="261.6875" y2="0" fill="rgb(0, 0, 0)" stroke="rgb(204, 204, 204)" stroke-width="1px"></line></g></g></g></g></svg>