<svg viewBox="0 0 330 200" xmlns="http://www.w3.org/2000/svg"><g><g><g><g><g><line x1="68.3125" y1="177" x2="63.3125" y2="177" style="visibility: inherit;" fill="rgb(0, 0, 0)" stroke="rgb(204, 204, 204)" stroke-width="1px"></line><line x1="68.3125" y1="163.3846153846154" x2="63.3125" y2="163.3846153846154" style="visibility: inherit;" fill="rgb(0, 0, 0)" stroke="rgb(204, 204, 204)" stroke-width="1px"></line><line x1="68.3125" y1="149.76923076923077" x2="63.3125" y2="149.76923076923077" style="visibility: inherit;" fill="rgb(0, 0, 0)" stroke="rgb(204, 204, 204)" stroke-width="1px"></line><line x1="68.3125" y1="136.15384615384616" x2="63.3125" y2="136.15384615384616" style="visibility: inherit;" fill="rgb(0, 0, 0)" stroke="rgb(204, 204, 204)" stroke-width="1px"></line><line x1="68.3125" y1="122.53846153846153" x2="63.3125" y2="122.53846153846153" style="visibility: inherit;" fill="rgb(0, 0, 0)" stroke="rgb(204, 204, 204)" stroke-width="1px"></line><line x1="68.3125" y1="108.92307692307692" x2="63.3125" y2="108.92307692307692" style="visibility: inherit;" fill="rgb(0, 0, 0)" stroke="rgb(204, 204, 204)" stroke-width="1px"></line><line x1="68.3125" y1="95.3076923076923" x2="63.3125" y2="95.3076923076923" style="visibility: inherit;" fill="rgb(0, 0, 0)" stroke="rgb(204, 204, 204)" stroke-width="1px"></line><line x1="68.3125" y1="81.6923076923077" x2="63.3125" y2="81.6923076923077" style="visibility: inherit;" fill="rgb(0, 0, 0)" stroke="rgb(204, 204, 204)" stroke-width="1px"></line><line x1="68.3125" y1="68.07692307692307" x2="63.3125" y2="68.07692307692307" style="visibility: inherit;" fill="rgb(0, 0, 0)" stroke="rgb(204, 204, 204)" stroke-width="1px"></line><line x1="68.3125" y1="54.46153846153847" x2="63.3125" y2="54.46153846153847" style="visibility: inherit;" fill="rgb(0, 0, 0)" stroke="rgb(204, 204, 204)" stroke-width="1px"></line><line x1="68.3125" y1="40.84615384615384" x2="63.3125" y2="40.84615384615384" style="visibility: inherit;" fill="rgb(0, 0, 0)" stroke="rgb(204, 204, 204)" stroke-width="1px"></line><line x1="68.3125" y1="27.230769230769226" x2="63.3125" y2="27.230769230769226" style="visibility: inherit;" fill="rgb(0, 0, 0)" stroke="rgb(204, 204, 204)" stroke-width="1px"></line><line x1="68.3125" y1="13.615384615384613" x2="63.3125" y2="13.615384615384613" style="visibility: inherit;" fill="rgb(0, 0, 0)" stroke="rgb(204, 204, 204)" stroke-width="1px"></line><line x1="68.3125" y1="0" x2="63.3125" y2="0" style="visibility: inherit;" fill="rgb(0, 0, 0)" stroke="rgb(204, 204, 204)" stroke-width="1px"></line></g><g transform="translate(58.3125, 0)"><text x="0" y="177" dx="0em" dy="0.3em" style="text-anchor: end; visibility: hidden; font-family: &quot;Helvetica Neue&quot;, sans-serif; font-size: 12px; font-weight: 200;" fill="rgb(50, 49, 63)" stroke="none" stroke-width="1px">-1e+5</text><text x="0" y="163.3846153846154" dx="0em" dy="0.3em" style="text-anchor: end; visibility: inherit; font-family: &quot;Helvetica Neue&quot;, sans-serif; font-size: 12px; font-weight: 200;" fill="rgb(50, 49, 63)" stroke="none" stroke-width="1px">0</text><text x="0" y="149.76923076923077" dx="0em" dy="0.3em" style="text-anchor: end; visibility: hidden; font-family: &quot;Helvetica Neue&quot;, sans-serif; font-size: 12px; font-weight: 200;" fill="rgb(50, 49, 63)" stroke="none" stroke-width="1px">1e+5</text><text x="0" y="136.15384615384616" dx="0em" dy="0.3em" style="text-anchor: end; visibility: inherit; font-family: &quot;Helvetica Neue&quot;, sans-serif; font-size: 12px; font-weight: 200;" fill="rgb(50, 49, 63)" stroke="none" stroke-width="1px">2e+5</text><text x="0" y="122.53846153846153" dx="0em" dy="0.3em" style="text-anchor: end; visibility: hidden; font-family: &quot;Helvetica Neue&quot;, sans-serif; font-size: 12px; font-weight: 200;" fill="rgb(50, 49, 63)" stroke="none" stroke-width="1px">3e+5</text><text x="0" y="108.92307692307692" dx="0em" dy="0.3em" style="text-anchor: end; visibility: inherit; font-family: &quot;Helvetica Neue&quot;, sans-serif; font-size: 12px; font-weight: 200;" fill="rgb(50, 49, 63)" stroke="none" stroke-width="1px">4e+5</text><text x="0" y="95.3076923076923" dx="0em" dy="0.3em" style="text-anchor: end; visibility: hidden; font-family: &quot;Helvetica Neue&quot;, sans-serif; font-size: 12px; font-weight: 200;" fill="rgb(50, 49, 63)" stroke="none" stroke-width="1px">5e+5</text><text x="0" y="81.6923076923077" dx="0em" dy="0.3em" style="text-anchor: end; visibility: inherit; font-family: &quot;Helvetica Neue&quot;, sans-serif; font-size: 12px; font-weight: 200;" fill="rgb(50, 49, 63)" stroke="none" stroke-width="1px">6e+5</text><text x="0" y="68.07692307692307" dx="0em" dy="0.3em" style="text-anchor: end; visibility: hidden; font-family: &quot;Helvetica Neue&quot;, sans-serif; font-size: 12px; font-weight: 200;" fill="rgb(50, 49, 63)" stroke="none" stroke-width="1px">7e+5</text><text x="0" y="54.46153846153847" dx="0em" dy="0.3em" style="text-anchor: end; visibility: inherit; font-family: &quot;Helvetica Neue&quot;, sans-serif; font-size: 12px; font-weight: 200;" fill="rgb(50, 49, 63)" stroke="none" stroke-width="1px">8e+5</text><text x="0" y="40.84615384615384" dx="0em" dy="0.3em" style="text-anchor: end; visibility: hidden; font-family: &quot;Helvetica Neue&quot;, sans-serif; font-size: 12px; font-weight: 200;" fill="rgb(50, 49, 63)" stroke="none" stroke-width="1px">9e+5</text><text x="0" y="27.230769230769226" dx="0em" dy="0.3em" style="text-anchor: end; visibility: inherit; font-family: &quot;Helvetica Neue&quot;, sans-serif; font-size: 12px; font-weight: 200;" fill="rgb(50, 49, 63)" stroke="none" stroke-width="1px">1e+6</text><text x="0" y="13.615384615384613" dx="0em" dy="0.3em" style="text-anchor: end; visibility: hidden; font-family: &quot;Helvetica Neue&quot;, sans-serif; font-size: 12px; font-weight: 200;" fill="rgb(50, 49, 63)" stroke="none" stroke-width="1px">1.1e+6</text><text x="0" y="0" dx="0em" dy="0.3em" style="text-anchor: end; visibility: hidden; font-family: &quot;Helvetica Neue&quot;, sans-serif; font-size: 12px; font-weight: 200;" fill="rgb(50, 49, 63)" stroke="none" stroke-width="1px">1.2e+6</text></g><line x1="68.3125" y1="0" x2="68.3125" y2="177" fill="rgb(0, 0, 0)" stroke="rgb(204, 204, 204)" stroke-width="1px"></line></g></g><g transform="translate(68, 0)" clip-path="url(#clip_0)"><clipPath id="clip_0"><rect width="261" height="177"></rect></clipPath><g><g><g><line x1="0" y1="0" x2="0" y2="177" fill="rgb(0, 0, 0)" stroke="rgb(60, 60, 60)" stroke-width="1px" opacity="0.25"></line><line x1="29.076388888888886" y1="0" x2="29.076388888888886" y2="177" fill="rgb(0, 0, 0)" stroke="rgb(60, 60, 60)" stroke-width="1px" opacity="0.25"></line><line x1="58.15277777777777" y1="0" x2="58.15277777777777" y2="177" fill="rgb(0, 0, 0)" stroke="rgb(60, 60, 60)" stroke-width="1px" opacity="0.25"></line><line x1="87.22916666666666" y1="0" x2="87.22916666666666" y2="177" fill="rgb(0, 0, 0)" stroke="rgb(60, 60, 60)" stroke-width="1px" opacity="0.25"></line><line x1="116.30555555555554" y1="0" x2="116.30555555555554" y2="177" fill="rgb(0, 0, 0)" stroke="rgb(60, 60, 60)" stroke-width="1px" opacity="0.25"></line><line x1="145.38194444444446" y1="0" x2="145.38194444444446" y2="177" fill="rgb(0, 0, 0)" stroke="rgb(60, 60, 60)" stroke-width="1px" opacity="0.25"></line><line x1="174.45833333333331" y1="0" x2="174.45833333333331" y2="177" fill="rgb(0, 0, 0)" stroke="rgb(60, 60, 60)" stroke-width="1px" opacity="0.25"></line><line x1="203.53472222222223" y1="0" x2="203.53472222222223" y2="177" fill="rgb(0, 0, 0)" stroke="rgb(60, 60, 60)" stroke-width="1px" opacity="0.25"></line><line x1="232.6111111111111" y1="0" x2="232.6111111111111" y2="177" fill="rgb(0, 0, 0)" stroke="rgb(60, 60, 60)" stroke-width="1px" opacity="0.25"></line><line x1="261.6875" y1="0" x2="261.6875" y2="177" fill="rgb(0, 0, 0)" stroke="rgb(60, 60, 60)" stroke-width="1px" opacity="0.25"></line></g><g><line x1="0" y1="177" x2="261.6875" y2="177" fill="rgb(0, 0, 0)" stroke="rgb(60, 60, 60)" stroke-width="1px" opacity="0.25"></line><line x1="0" y1="163.3846153846154" x2="261.6875" y2="163.3846153846154" fill="rgb(0, 0, 0)" stroke="rgb(60, 60, 60)" stroke-width="1px" opacity="0.25"></line><line x1="0" y1="149.76923076923077" x2="261.6875" y2="149.76923076923077" fill="rgb(0, 0, 0)" stroke="rgb(60, 60, 60)" stroke-width="1px" opacity="0.25"></line><line x1="0" y1="136.15384615384616" x2="261.6875" y2="136.15384615384616" fill="rgb(0, 0, 0)" stroke="rgb(60, 60, 60)" stroke-width="1px" opacity="0.25"></line><line x1="0" y1="122.53846153846153" x2="261.6875" y2="122.53846153846153" fill="rgb(0, 0, 0)" stroke="rgb(60, 60, 60)" stroke-width="1px" opacity="0.25"></line><line x1="0" y1="108.92307692307692" x2="261.6875" y2="108.92307692307692" fill="rgb(0, 0, 0)" stroke="rgb(60, 60, 60)" stroke-width="1px" opacity="0.25"></line><line x1="0" y1="95.3076923076923" x2="261.6875" y2="95.3076923076923" fill="rgb(0, 0, 0)" stroke="rgb(60, 60, 60)" stroke-width="1px" opacity="0.25"></line><line x1="0" y1="81.6923076923077" x2="261.6875" y2="81.6923076923077" fill="rgb(0, 0, 0)" stroke="rgb(60, 60, 60)" stroke-width="1px" opacity="0.25"></line><line x1="0" y1="68.07692307692307" x2="261.6875" y2="68.07692307692307" fill="rgb(0, 0, 0)" stroke="rgb(60, 60, 60)" stroke-width="1px" opacity="0.25"></line><line x1="0" y1="54.46153846153847" x2="261.6875" y2="54.46153846153847" fill="rgb(0, 0, 0)" stroke="rgb(60, 60, 60)" stroke-width="1px" opacity="0.25"></line><line x1="0" y1="40.84615384615384" x2="261.6875" y2="40.84615384615384" fill="rgb(0, 0, 0)" stroke="rgb(60, 60, 60)" stroke-width="1px" opacity="0.25"></line><line x1="0" y1="27.230769230769226" x2="261.6875" y2="27.230769230769226" fill="rgb(0, 0, 0)" stroke="rgb(60, 60, 60)" stroke-width="1px" opacity="0.25"></line><line x1="0" y1="13.615384615384613" x2="261.6875" y2="13.615384615384613" fill="rgb(0, 0, 0)" stroke="rgb(60, 60, 60)" stroke-width="1px" opacity="0.25"></line><line x1="0" y1="0" x2="261.6875" y2="0" fill="rgb(0, 0, 0)" stroke="rgb(60, 60, 60)" stroke-width="1px" opacity="0.25"></line></g></g></g><g><g><line x1="0" y1="163.3846153846154" x2="261.6875" y2="163.3846153846154" fill="rgb(0, 0, 0)" stroke="rgb(153, 153, 153)" stroke-width="1.5px"></line></g></g><g><g><line x1="29.076388888888886" y1="0" x2="29.076388888888886" y2="177" fill="rgb(0, 0, 0)" stroke="rgb(153, 153, 153)" stroke-width="1.5px"></line></g></g><g><g><g><g><g><path stroke="rgb(255, 112, 67)" stroke-width="2px" d="M29.138903125000002,163.3573846153846L29.320630555555557,163.3416194331984L29.41076736111111,163.29317627022425L29.766953125,163.16219249781915L29.857089930555556,163.15965283086916L29.919604166666666,163.09811576803315L29.92978090277778,163.0546426923666L29.999564236111112,163.07433015204782L30.01846388888889,163.11535098716723L30.115869791666665,163.12868053879689L30.252528819444446,163.12629448526766L30.552015625000003,163.11713507057044L31.015784027777777,163.11703547959218L31.09138263888889,163.11059661921593L31.101559375,163.0940952385861L31.165527430555557,163.09683208949565L31.53625138888889,163.10653284741701L31.598765625,163.13092174361734L31.60312708333333,163.15238243683964L31.806661805555553,163.17540995570954L31.86481458333333,163.1646552702503L32.03781909722222,163.15794253915325L32.431804166666666,163.1519890980867L32.55101736111111,163.14871268675378L32.69058402777778,163.16107257836376L32.692037847222224,163.1720162460095L32.981347916666664,163.1814337874267L33.49454618055555,163.16695578265424L33.77367951388889,163.14721823269159L33.796940625,163.15352531229365L33.88271597222222,163.13296129887448L34.33776145833333,163.14351206429689L34.340669097222225,163.15012681292686L34.413360069444444,163.115706022503L34.63288680555555,163.1203848461774L34.82915243055555,163.1390593765331L35.35398125,163.08449244849407L35.47464826388889,163.04752320412376L35.608399652777784,163.05023386295073L35.63311458333333,163.0308298216386L35.875902430555556,163.0383975108908L36.03873020833333,163.00481258686585L36.30477916666666,162.91107512850405L36.54175173611111,162.80958182176587L36.84850763888889,162.7949319297113L36.868861111111116,162.7883586409191L37.39805138888889,162.78149269855285L37.60303993055556,162.77175996390702L37.665554166666666,162.76164295639043L37.78622118055555,162.7929221745025L38.09152326388889,162.77973262482942L38.119145833333334,162.76787370274323L38.81697916666667,162.7570734471132L38.834425,162.75364527965493L39.042321180555554,162.66916673906388L39.20514895833333,162.6310032303837L39.47992083333334,162.63898797463239L39.80993784722222,162.55447167511886L39.92333576388889,162.48540044073903L39.92769722222222,162.423262580444L40.414726736111106,162.28035288553295L40.46561041666667,162.23931632659165L40.80435034722222,162.0289799181545L40.97008576388889,161.9290156050303L41.02969236111111,162.0093069352993L41.43240034722223,161.98261074677717L41.44693854166666,162.04512109232766L41.58214375,162.0506817460994L41.98485173611111,161.95363523861516L42.06771944444445,162.03483413071535L42.540210763888886,162.01458545283785L42.84260520833334,162.01924927457785L42.96763368055556,162.02290139993832L42.986533333333334,161.91858222065935L43.17698368055556,161.91051178185475L44.196111111111115,161.86157199953664L44.312416666666664,161.84803689708517L44.374930902777784,161.83585607579212L44.49850555555555,161.8383764646513L44.75001631944444,161.7895077570043L44.92738229166667,161.74191916256044L44.931743749999995,161.6990912057446L45.02042673611111,161.73925694382177L45.098932986111116,161.69465408678536L45.21814618055556,161.54816285663463L45.843288541666666,161.5497706037946L45.89271840277778,161.50315021024713L46.06572291666667,161.48679211234543L46.17330555555555,161.35660188161475L46.47860763888889,161.2132892378146L46.485876736111116,161.08430993280032L46.76210243055555,161.1749245307719L46.945283680555555,161.23019745487414L47.79867569444444,161.20464566307848L48.026925347222225,161.10703362906673L48.06617847222222,161.0076781669537L48.845425694444444,160.74554156844005L48.87886354166667,160.5096204445366L49.15508923611111,160.5780504196339L49.75260902777778,160.62016649633242L49.85873784722222,160.717571405958L49.92270590277778,160.80523538219848L50.08117222222222,160.68221253877843L50.358851736111106,160.57149243231171L50.40246631944444,160.60786452878L50.56384027777778,160.54583489261074L50.70049930555555,160.43881388988356L51.57279097222222,160.31431107735355L51.62222083333334,160.36918514968062L51.99585243055556,160.4451219533773L52.507596875,160.47711156314247L52.80562986111111,160.53953241355373L53.58487708333334,160.25709418837914L53.88872534722222,160.3830439964006L53.93379375,160.42818522824234L54.25363402777778,160.4472998764212L54.28561805555555,160.46450304190688L54.58219722222222,160.42035025399895L54.602550694444446,160.38061277832665L55.90226527777777,160.45336404311803L56.86905520833333,160.22883160162738L56.94610763888889,160.2006214445987L57.47239027777778,160.18401426104353L57.63085659722222,160.2972569210212L57.651210069444446,160.39917526941466L57.763154166666666,160.43167472132416L58.1469625,160.19678534793456L58.23128402777778,160.21398760628446L58.24436840277778,160.229469634256L58.35485868055555,159.94631542893075L58.50896354166667,159.86793226814487L58.52059409722222,159.79738743852954L58.62381527777778,159.8673279828552L58.79391215277778,159.8815313489085L58.937840277777774,159.85197050205576L58.99453923611111,159.86321653550272L59.28675694444445,159.99056648899796L59.29111840277778,160.08571142467574L59.39724722222222,160.18591032591726L59.724356597222226,160.27064317274557L59.81740104166666,160.34690272857048L59.94533715277778,160.12266930748262L60.07181944444445,160.20011086043706L60.36839861111111,160.0885193610336L60.840889930555555,159.85009506196477L61.41805625,159.99890789450956L61.541630902777776,160.09716712350968L61.58233784722222,160.18560042610412L62.71631701388889,159.9435949620689L62.73085520833333,159.95915777568473L62.79482326388889,159.9731643075342L62.83262256944444,159.98577018587085L62.93148229166666,159.75993545243915L63.040518750000004,159.55668419663263L63.136470833333334,159.75063194649292L63.300752430555555,159.3258356440167L63.48974895833334,159.3202566946344L63.50574097222222,159.3152356402597L63.53481736111111,159.32160899964865L63.87937256944444,159.16933847703112L64.18322083333334,158.84229230758646L64.37948645833333,158.7362515342665L64.38239409722223,158.6408148390575L64.43763923611111,158.78366028270207L64.87233125,158.75972886914198L65.01480555555555,158.67882751863715L65.02643611111111,158.60601630357272L65.27940069444445,158.57520544181315L65.3273767361111,158.54747566634984L65.79114513888888,158.8441142584979L65.905996875,158.99862591188554L65.99177222222222,158.81268716434425L66.60383020833333,158.54295459848342L66.65471388888889,158.52239836917985L66.76229652777776,158.50389776284928L67.31765555555556,158.66111568026258L68.03584236111111,158.73480718974602L68.03729618055554,158.80112954816963L68.55485590277777,158.54079005321253L68.56212500000001,158.30648450807007L69.06514652777778,158.1317583640428L69.20762083333334,158.23809868198452L69.2585045138889,158.1301188133293L69.53036875,158.21524693232047L69.66266631944444,158.1493091619394L70.42156006944444,157.84883670635728L70.57421111111111,158.14467534423497L71.19499201388888,157.67515473171554L71.23279131944444,157.80169464344385L71.32874340277777,157.92266056395962L71.53082430555556,157.53878912224923L71.6209611111111,157.674472517939L71.92335555555556,157.9140883434216L71.94661666666666,158.1297425862888L72.12689027777778,158.25752448165875L72.44382291666666,158.43502280291452L72.69969513888888,158.04076129147228L72.73749444444445,158.04278516232682L72.945390625,157.50393972259482L73.16782500000001,157.3667157502385L73.37572118055556,157.5062634060725L73.58216354166667,157.45458398851264L73.71882256944444,157.35796789730398L73.73917604166667,157.43657649222536L74.73649618055555,156.91532730432414L74.7902875,156.30160765058469L75.15810381944445,155.90365842385347L75.42560659722223,155.9818771968765L75.50702048611112,156.0522740925927L75.60588020833333,155.6923289909372L75.90100555555556,155.13746147633603L76.2324763888889,155.52090225185574L76.38803506944444,155.66095125746452L76.55522430555556,154.3078199776535L76.70787534722221,153.0900018258651L76.89977951388889,153.72597856643867L76.91141006944444,154.29835763293906L77.10331423611112,154.81349879277664L77.31702569444445,154.75538429810882L77.44786944444445,154.43485817596275L77.59906666666666,154.4700223583692L77.63977361111111,154.50167012253448L78.12534930555556,154.71151003337107L78.14279513888889,154.5590282607946L78.17041770833333,154.42179466547742L78.1951326388889,154.2982844296933L78.27363888888888,153.70160060208408L78.32743020833334,153.11448054185402L78.38122152777778,152.58607248765105L78.56004131944445,153.24711754659802L78.71269236111111,153.56607425348528L79.03398645833333,153.28918605889925L79.06451666666666,153.03998668377312L79.27095902777778,153.50328416925106L79.37854166666666,153.4299619061708L79.64604444444444,153.0378834078552L80.44564513888889,152.32066506705942L80.47617534722222,151.67516856034516L80.50961319444446,151.09422170430392L80.66371805555555,150.22404107232597L80.79456180555555,150.18114696509298L81.08241805555555,150.2047645762762L81.19581597222222,150.6402004263442L81.34701319444444,150.3650749990925L81.371728125,150.10997365302785L81.46913402777778,149.14855551848896L81.77298229166666,149.54923765894975L81.81514305555555,149.9098515853641L82.3297951388889,149.3777241191332L82.37340972222222,148.89880939952585L82.53042222222221,149.6623999980373L82.6510892361111,150.34963153669713L82.73395694444444,151.18285453687577L83.16283368055555,151.88169754472833L83.58007986111112,152.4952708671799L83.97988020833334,153.04312993430912L84.1427079861111,153.5362030947252L84.60211493055556,152.6580512467898L84.96120833333333,153.19507842980386L84.98446944444444,153.13201750990032L85.36973159722223,151.90229729737044L85.54418993055555,152.61647064455718L85.74917847222223,153.25922665702515L86.20713159722222,151.90350552978305L86.79738229166666,152.2951457460358L86.91223402777777,152.94784117143266L87.05325451388889,152.68444166967384L87.09832291666666,152.44738211809096L87.259696875,152.7917146755128L87.66095104166668,152.07712436180736L87.95753020833334,152.12735654101124L88.19450277777777,152.56087627152567L88.20031805555556,152.9510440289886L88.24829409722223,153.47551885685914L88.27737048611111,153.94754620194257L88.38349930555556,150.31988773559362L88.74259270833333,151.3526912697268L89.039171875,150.66756598890782L89.078425,150.41856862078623L89.18019236111111,150.1944709894768L89.46804861111112,149.66683081360597L89.49130972222223,149.19195465532223L90.33307118055556,149.6217907282516L90.79247812499999,148.64873857850327L90.81864687500001,148.81878933603755L91.12394895833333,149.83368886397236L92.34515729166667,148.6491038237289L92.47454722222223,147.58297728750978L92.52106944444445,146.62346340491257L92.62574444444445,147.75142321826752L92.66499756944445,148.76658705028697L92.67081284722222,149.68023449910447L92.76240347222222,150.33749874150175L93.03572152777778,150.06173655965927L93.15202708333332,150.95397521138565L93.33666215277778,151.58720615178558L93.34683888888888,152.1571139981455L93.41080694444445,152.67003105986942L93.487859375,153.074199492344L94.23221493055556,152.82893492772502L94.44738020833333,152.5650360503371L94.9504017361111,152.97167090684187L94.96348611111111,153.33764227769615L95.04053854166668,153.40069958838808L95.23680416666667,152.8680411680108L95.45633090277778,152.19748858967125L96.41585173611111,152.4649674230118L96.43911284722222,151.71422606532602L96.55396458333334,151.027258074178L96.67899305555557,149.49961534368327L97.84495625,149.32901765546882L98.25784097222223,148.0428158899219L98.33489340277778,146.8852343009297L98.37996180555557,145.84341087083675L98.43229930555556,144.90576978375307L98.48899826388889,144.06189280537777L98.68962534722222,143.30240352483997L98.78412361111111,142.618863172356L98.81756145833333,142.2230207012742L98.97166631944445,141.86676247730065L99.12431736111111,142.67797699880134L99.19119305555556,141.91310083738276L99.62006979166667,140.90161921518293L100.08819965277777,141.40497113981849L100.710434375,142.38027402583663L100.82528611111111,143.43477431556067L101.00846736111112,143.78297765323538L101.77753784722222,143.53390911868107L101.85022881944445,143.3097474375822L101.98543402777779,143.1080019245932L102.00869513888888,142.9264309629031L102.05230972222222,142.76301709738203L102.15843854166667,142.61594461841307L102.68326736111112,142.63770554118713L102.95949305555555,143.17630883322227L103.19210416666667,144.51841256528465L103.41744618055556,144.92027515491003L103.55265138888889,145.28195148557288L103.63261145833334,145.60746018316942L104.38278229166666,146.58690570331402L104.39441284722221,147.46840667144417L104.609578125,147.9829144658382L104.67790763888888,146.1973907115621L105.10096909722222,146.4358485634828L105.18965208333334,145.12485678405758L105.41790173611112,145.9161995671903L105.66795868055556,145.52733191816358L105.99361423611111,146.12157795711644L106.04159027777777,144.82798939217403L106.26402465277778,144.92617814526432L106.28583194444444,145.0145480230456L106.81066076388888,141.66028091304872L107.15666979166666,139.06242820635921L107.16684652777778,136.7243607703387L107.17266180555555,134.6201000779202L107.17847708333333,132.72626545474355L107.383465625,131.02181429388457L107.44743368055555,130.4764213260346L107.68876770833333,129.9855676549696L107.74110520833334,127.90532396639571L107.7629125,128.00134464667923L107.93446319444445,125.73475248970361L108.58868194444445,126.444038009964L108.75732500000001,127.08239497819838L108.94632152777777,127.65691624960931L109.01174340277778,130.08640231695608L109.31849930555555,129.2175113160297L109.47260416666667,122.14030018442674L109.82733611111111,123.6908793967533L109.83896666666666,125.08640068784719L110.07448541666668,122.9306948498317L110.15153784722223,124.53893305715623L110.98166875,125.42294282836367L111.22881805555555,126.21855162245039L111.24917152777778,126.93459953712843L111.37565381944445,128.1615088141848L111.6358875,125.91511716353557L111.68386354166667,123.89336467795124L111.94409722222221,122.07378744092534L112.38024305555555,118.25171561990973L112.38896597222222,114.81185098099567L112.64919965277777,117.41387511366534L113.05045381944444,120.95248914076033L113.82824722222223,122.42687714976122L114.03905104166667,121.6585548194005L114.20769409722223,119.42947933746045L114.33126875,117.4233114037144L114.44466666666668,115.61776026334296L114.48391979166666,113.99276423700866L114.50863472222223,112.53026781330779L115.23699826388888,114.45856718582317L115.30532777777779,116.194036621087L115.48123993055555,116.3155875743629L115.783634375,117.54934189384969L115.82724895833333,118.6597207813878L116.56724305555555,114.48657716478749L116.57596597222222,110.7307479098472L116.60795,107.35050158040093L116.73879375,104.3082798838993L116.99757361111111,108.50745497243246L118.05886180555557,110.63625562903536L118.1620829861111,113.32539391228568L118.39760173611111,115.74561836721095L118.53716840277778,118.7397903766437L118.74942604166667,121.63727826205624L119.41672916666666,123.15142966661986L119.53303472222223,124.5141659307271L119.96481909722222,123.10496241457747L120.0098875,121.83667925004278L120.48528645833332,118.95395286350004L120.703359375,121.3410960386885L120.98830798611111,121.03889181943504L121.18893506944444,117.87037109903L121.29070243055556,115.01870245066546L121.29215625,112.45220066713738L121.41427708333335,116.13243752350056L121.64398055555556,112.5370214634582L121.92602152777778,113.01610470172776L122.10484131944445,116.72368577001652L122.26476145833334,120.0605087314764L122.44939652777778,123.0636493967903L122.86518888888888,121.5412136878805L122.87972708333334,120.17102154986168L123.12106111111112,121.2953524717986L123.41473263888888,118.22522184000334L123.93229236111111,121.17607273292609L124.000621875,123.83183853655655L124.23032534722223,126.22202775982397L124.27539374999999,128.37319806076465L124.44985208333334,130.30925133161125L124.5109125,132.0516992753732L124.60686458333333,133.61990242475898L124.89472083333334,128.54682218228308L125.10116319444445,123.52847457943938L125.46316423611111,121.40132558303391L126.17408194444444,119.48689148626897L126.408146875,120.78597156841131L126.44885381944444,121.95514364233941L126.51427569444445,117.89495773964393L127.12342604166668,114.240790427218L128.31991944444445,117.15616215372697L128.34608819444443,119.77999670758504L128.48710868055556,122.1414478060573L128.5612534722222,124.26675379468233L128.79531840277778,126.17952918444487L129.28816319444445,127.90102703523115L129.37393854166666,129.4503751009388L129.6399875,130.8447883600757L129.66034097222223,132.09976029329889L130.05287222222222,127.56387349473823L130.08340243055557,123.48157537603365L130.43668055555557,123.46718629996874L130.55153229166666,123.45423613151033L130.72162916666667,123.44258097989777L131.51686840277776,119.02342980498491L131.68841909722224,115.04619374756334L131.79890937500002,111.46668129588393L132.1754486111111,113.28703316629554L132.2932079861111,111.55635908043523L132.92125798611113,110.07173086469939L133.1044392361111,108.73556547053714L133.14223854166667,107.53301661579111L133.31088159722222,106.45072264651971L133.53476979166666,101.09223192032928L133.61618368055557,96.26959026675789L133.6903284722222,91.92921277854363L133.72231250000002,91.44741457761235L133.77028854166667,91.0137961967742L133.8066340277778,96.582380807866L134.18462708333334,97.70235349631017L134.1875347222222,98.71032891590994L134.33582430555558,99.6175067935497L134.3401857638889,100.43396688342551L134.56407395833332,101.16878096431371L134.80395416666667,100.64761748326697L135.02202708333334,100.17857035032489L135.21974652777777,99.75642793067699L135.46689583333335,99.37649975299392L135.66897673611112,103.56304131615606L136.35372569444445,102.0088110306943L136.36099479166666,100.6100037737787L136.42932430555558,99.35107724255468L136.51655347222223,98.21804336445307L136.54999131944444,97.1983128741616L136.93234583333333,96.28055543289929L136.94252256944446,95.4545737357632L137.97037291666666,89.9824309775715L138.36290416666668,93.37677480289125L138.79614236111112,88.78024655337137L138.8223111111111,84.64337112880345L138.9386166666667,80.92018324669235L139.4634454861111,78.3502926143308L139.7120486111111,76.64994719905157L139.88505312499998,75.11963632530025L140.19471666666666,72.1507180773856L140.26886145833333,69.47869165426242L140.47821145833333,67.07386787345155L140.54654097222223,64.90952647072177L140.71663784722222,62.96161920826498L140.8852809027778,61.208502672053854L140.89545763888887,59.63069778946385L141.30979618055557,62.01971339513287L141.7924642361111,64.16982744023495L142.187903125,67.38246161928838L142.33183125000002,71.42855314966722L142.672025,72.97490014239278L142.77815381944444,74.36661243584582L142.86102152777778,75.61915349995355L143.60246944444444,81.17498045765049L143.70132916666668,86.17522471957776L143.81327326388887,90.67544455531228L143.8336267361111,88.41763471516566L143.89032569444444,86.3856058590337L143.93684791666666,90.31921911928418L144.37880902777778,85.65729105350961L144.53727534722222,86.06900194815864L144.79750902777778,86.43954175334278L145.34705277777778,84.67217373185467L145.42846666666665,83.08154251251536L145.43428194444445,81.64997441510997L145.52878020833333,76.42304081975281L145.6232784722222,71.71880058393137L145.95038784722223,67.4849843716921L145.9736489583333,63.67454978067673L146.18299895833334,60.24515864876288L146.2207982638889,57.15870663004044L146.27458958333332,54.38089981319024L146.83140243055556,61.29986060110197L146.859025,67.52692531022254L147.0073145833333,73.13128354843106L147.3911229166667,78.17520596281872L147.5554045138889,78.00040921269067L147.60628819444443,77.84309213757545L148.22125381944446,81.591286000741L149.3610482638889,89.63255893912842L149.410478125,96.8697045836771L149.5253298611111,103.38313566377094L149.85389305555555,101.57771978970153L149.92949166666665,99.95284550303909L150.13302638888888,98.49045864504286L150.48630451388888,97.17431047284627L150.8526670138889,94.84962481017703L151.08673194444444,94.31487155992855L151.43855625,90.01869901932031L151.48507847222223,86.1521437327729L151.79328819444444,82.67224397488023L152.07242152777778,78.94221034662297L152.19599618055554,75.58518008119145L152.38790034722223,71.34731822691845L152.681571875,73.66683717345737L152.72809409722223,75.75440422534241L152.78188541666665,77.63321457203894L152.8981909722222,82.9730669609889L153.11771770833332,77.65412564950537L153.3910357638889,79.65965769993947L153.43610416666667,81.46463654533014L153.48408020833332,83.08911750618174L153.64981562499997,84.55115037094816L153.74140625,85.86697994923796L154.08450763888888,87.0512265696988L154.12666840277777,88.11704852811354L155.24029409722223,89.78006752145603L155.25919375,91.27678461546427L155.36386875,91.77055384622554L155.57176493055556,89.6952830769876L156.13148541666666,87.82753938467346L156.214353125,92.19806390774455L156.3684579861111,96.13153597850858L156.46295625,99.67166084219619L156.528378125,102.85777321951501L156.76535069444444,101.03014512833275L157.21312708333335,99.3852798462687L157.993828125,99.8568026308726L158.1988166666667,100.28117313701611L158.84867395833334,103.20686890023757L158.9722486111111,105.83999508713688L158.9955097222222,108.20980865534627L159.55086875,108.77850548211934L159.57558368055555,109.2903326262151L159.76458020833334,108.62158090205513L159.88233958333333,111.0760858887727L159.9724763888889,113.2851403768185L160.26614791666668,115.83124787759819L160.57581145833333,118.1227446282999L161.48299479166667,116.39239016546992L161.51207118055558,114.83507114892292L161.8115579861111,116.03279711095371L162.06452256944445,113.36107355370449L162.28259548611112,110.9565223521802L162.311671875,108.79242627080832L162.31603333333334,106.84473979757364L162.4396079861111,105.09182197166243L162.44396944444443,103.51419592834235L162.96589062500001,106.0536863355081L163.00368993055554,108.3392277019573L163.88906597222223,101.32673493176156L163.97484131944444,95.0154914385854L164.46623229166664,93.23944767934225L164.60725277777777,91.6410082960234L164.96779999999998,90.20241285103644L165.5929423611111,92.75769925824049L166.28932187499998,93.75065240933952L166.51611770833333,94.64431024532864L166.87666493055556,89.86534152848809L167.0322236111111,85.56426968333159L167.2735576388889,81.69330502269075L167.45819270833334,86.91593067426781L167.65736597222224,86.39207068376413L167.7387798611111,85.9205966923108L167.78530208333333,85.4962701000028L167.88852326388889,85.11437616692561L168.44097465277778,84.77067162715613L168.57036458333334,80.3195375413636L168.60380243055553,76.3135168641503L169.0821090277778,72.70809825465835L169.4223027777778,71.0393384291925L169.51680104166667,72.0590238170425L170.12449756944446,69.30970912764593L170.32512465277776,66.83532590718903L170.42689201388887,64.6083810087778L170.528659375,62.60413060020771L170.70311770833334,60.80030523249462L170.7670857638889,59.17686240155285L170.96480520833333,57.715763853705255L171.1770628472222,56.400775160642425L171.25556909722224,55.217285336885894L171.37187465277776,54.152144495505L171.53179479166667,56.835088507492955L171.75422916666668,59.24973811828211L171.8603579861111,62.257137383376985L172.13949131944443,62.032132106577734L172.24125868055555,61.829627357458406L172.31249583333332,61.647373083251026L173.08592777777778,60.210850390310554L173.74160034722223,58.91797996666409L173.89570520833334,57.75439658538231L173.89861284722224,56.70717154222869L174.29114409722223,55.76466900339044L174.872671875,56.90494364151293L175.2826489583333,54.59310696966932L175.31608680555556,52.51245396501007L175.55160555555557,50.639866260816746L175.7071642361111,48.95453732704277L175.79293958333332,47.4377412866462L175.80602395833333,46.07262485028926L175.90924513888888,44.84402005756803L176.01828159722223,44.88019805181122L176.1389486111111,44.91275824663009L176.2538003472222,50.850458575813235L176.4006361111111,56.19438887207808L176.4297125,61.90989383102409L176.54020277777778,62.905376755614L176.62307048611112,65.15440831082182L176.63906250000002,67.17853671050887L177.25548194444445,65.94482380868875L177.28455833333334,64.83448219705065L177.81374861111112,63.83517474657634L178.10742013888887,62.93579804114947L178.15394236111112,62.12635900626529L178.2324486111111,61.39786387486953L178.36329236111112,63.18686056430565L178.6467871527778,63.99705373864431L178.69185555555558,64.7262275955491L178.77181562500002,65.38248406676342L178.82269930555555,65.97311489085631L178.83723750000001,66.5046826325399L179.12073229166666,66.98309360005514L179.49291006944443,67.41366347081888L179.57287013888887,67.80117635450621L180.1980125,68.1499379498248L180.6763190972222,64.39255107791925L180.76064062499998,61.981952123973485L181.29855381944444,59.81241306542228L181.44975104166667,57.85982791272622L181.47010451388888,56.102501275299744L181.49772708333333,54.52090730161592L181.55733368055556,57.60103349453125L181.57768715277777,60.37314706815506L181.59949444444445,62.86804928441646L181.61839409722222,65.11346127905175L181.67509305555555,67.13433207422348L181.8640895833333,68.95311578987805L182.1141465277778,70.59002113396718L182.3598420138889,72.37053517441662L182.6157142361111,73.97299781082113L182.749465625,75.41521418358515L182.85414062499999,76.7132089190728L182.87449409722223,77.88140418101167L183.48800590277776,80.3542260706028L183.57087361111113,82.57976577123483L183.74969340277778,84.58275150180364L184.005565625,86.38543865931558L184.15094756944444,88.00785710107634L184.3006909722222,89.46803369866102L184.78626666666665,83.58850417494875L185.74724131944444,83.16592529591541L185.80539409722223,82.78560430478541L185.8533701388889,82.44331541276841L186.12087291666668,82.1352554099531L186.7431076388889,78.79780756126549L186.94228090277778,75.79410449744663L187.8959864583333,74.06903712462504L187.89744027777778,72.5164764890856L187.98176180555555,71.11917191710013L188.27252569444443,69.8615978023132L188.38737743055555,68.72978109900495L188.7392017361111,73.66174991218136L189.08957222222222,78.10052184404016L189.2756611111111,82.09541658271304L189.32363715277776,85.69082184751866L189.605678125,82.48647350892065L189.69290729166667,79.60256000418242L189.84991979166668,77.00703784991802L189.90225729166667,74.67106791108007L189.92987986111112,72.56869496612589L190.06944652777779,70.08633239259024L190.73384201388888,67.85220607640812L190.7934486111111,65.84149239184423L190.92138472222223,64.03185007573674L191.24413263888889,62.40317199123999L191.4665670138889,59.61054248442369L191.7413388888889,57.097175928289005L191.78204583333334,54.835146027767806L192.588915625,52.79931911729871L192.8709565972222,50.96707489787654L192.92765555555556,49.31805510039656L193.216965625,47.83393728266461L193.82756979166666,47.461928169782766L194.03255833333336,46.741804583573696L194.21573958333332,51.150991817524016L194.4367201388889,55.11926032807932L194.78418298611112,61.204374295271364L195.23777465277777,66.68097686574424L195.4805625,68.96281610224675L195.49219305555553,71.01647141509898L196.00539131944444,72.59708273512753L196.4066454861111,74.01963292315325L196.48369791666667,75.29992809237638L197.00271145833335,78.49395682160028L197.02015729166666,81.36858267790177L197.37925069444444,83.95574594857312L197.38942743055557,86.28419289217733L197.54353229166668,84.97649360295961L197.77759722222223,82.58738655035596L197.90844097222222,80.43719020301266L198.37947847222222,79.6265081057883L198.6280815972222,78.8968942182864L198.69931875,78.2402417195347L198.7545638888889,77.64925447065814L198.80399375000002,77.11736594666925L198.85923888888888,76.63866627507925L198.9159378472222,77.96217887834055L199.08458090277776,79.15334022127573L199.19797881944444,80.22538542991737L199.21833229166666,81.19022611769488L199.24304722222223,82.05858273669462L199.4000597222222,78.86522830917897L199.47856597222224,75.99120932441494L200.09789305555557,72.82226223812728L200.37411875,69.9702098604684L200.54276180555556,67.4033627205754L200.86260208333331,65.0932002946717L200.90476284722223,63.01405411135838L201.57497361111112,61.14282254637638L201.94860520833333,59.4587141378926L201.99076597222222,57.94301657025717L202.07944895833333,56.57888875938531L202.52141006944444,55.29112988344677L202.7656517361111,60.950731510486705L203.50564583333332,57.7756137440534L203.52745312500002,54.91800775426344L203.9592375,52.34616236345249L204.77773784722223,50.03150151172261L204.8649670138889,47.94830674516572L205.26912881944446,46.07343145526454L205.27058263888887,44.386043694353475L205.4319565972222,42.8673947095335L205.47266354166666,41.50061062319554L205.51627812499999,40.27050494549135L205.57588472222224,39.163409835557616L205.7445277777778,38.16702423661724L206.20393472222221,37.27027719757089L206.26499513888888,36.463204862429194L206.31733263888887,35.736839760801644L206.74184791666667,35.08311116933686L206.78691631944446,34.49475543701857L207.21288541666667,39.75190989331671L207.348090625,44.483348903985046L207.36553645833334,48.74164401358652L207.5181875,52.57410961222787L207.99649409722224,56.02332865100509L208.78301041666666,56.94188001667381L208.81790208333334,57.76857624577565L208.865878125,58.51260285196733L209.50119722222223,58.37803410523213L209.59714930555555,58.25692223317044L209.63785625,58.45031924062263L210.1248857638889,58.61470962425267L210.38511944444443,58.762660969519715L210.45635659722222,58.89581718026005L210.46071805555556,59.01565776992635L210.47671006944447,59.12351430062601L210.540678125,59.22058517825572L210.8677875,62.14825435273784L211.22688090277776,62.136598148233276L212.90458854166667,63.06325448725612L213.25786666666664,62.087488269299726L213.61841388888888,63.16269790390821L213.69546631944445,64.13038657505584L213.8539326388889,65.0013063790887L214.047290625,65.7851342027183L214.31479340277778,65.95685616706184L214.50088229166667,66.11140593497103L214.57793472222224,66.25050072608931L214.6389951388889,64.90576911501883L214.79746145833332,63.69551066505542L214.80763819444445,62.60627806008834L214.85416041666664,59.365951023310274L214.9006826388889,56.44965669021002L214.989365625,53.82499179041979L215.015534375,51.462793380608574L215.329559375,49.336814811778495L215.60869270833334,50.297369484446776L215.75988993055554,51.16186868984825L215.85002673611112,51.93991797470959L216.10299131944444,52.959851561853995L216.4053857638889,53.87779179028398L216.83280868055556,54.70393799587097L216.89096145833332,55.447469580899266L217.082865625,56.11664800742473L217.2108017361111,56.71890859129762L217.22824756944445,57.26094311678324L217.23987812500002,57.748774189720294L217.28058506944444,58.18782215536365L217.3503684027778,58.06027070905806L217.41288263888887,57.94547440738302L217.59751770833333,57.842157735875475L217.8184982638889,57.74917273151871L217.96533402777777,57.6654862275976L218.17759166666667,57.59016837406861L218.31425069444444,57.52238230589252L218.53377743055557,59.10447945991865L219.09640555555555,60.528366898542174L219.1400201388889,61.809865593303314L219.42060729166667,62.96321441858838L219.50783645833334,64.00122836134493L219.54418194444446,64.93544090982581L220.2420152777778,64.295967588074L220.25800729166667,63.72044159849737L220.5167871527778,63.2024682078784L220.550225,62.73629215632134L220.59529340277777,62.31673370991997L220.80173576388887,61.93913110815873L220.8220892361111,61.59928876657362L221.7176420138889,61.03678065914701L221.96479131944443,60.530523362463086L222.3137079861111,60.07489179544754L222.3369690972222,59.66482338513356L222.53323472222223,59.295761815850966L222.735315625,58.96360640349664L222.89814340277778,58.66466653237774L223.15692326388887,58.39562064837074L223.20344548611112,58.153479352764435L223.3081204861111,57.93555218671875L223.68611354166666,57.73941773727765L223.89982500000002,57.56289673278063L224.436284375,57.404027828733334L224.4551840277778,57.26104581509077L224.57875868055555,57.13236200281247L224.82736180555557,57.01654657176198L225.09486458333333,56.91231268381654L225.12830243055555,56.81850218466566L225.13557152777778,56.73407273542986L225.16464791666667,56.658086231117636L225.31875277777777,56.383289146467405L225.81886666666668,58.940332539512966L226.23756666666668,61.24167159325398L226.61119826388887,63.3128767416209L227.10113541666666,65.1769613751511L227.20435659722224,66.85463754532829L227.3177545138889,68.36454609848776L227.7757076388889,67.16744764248513L227.7829767361111,66.09005903208278L227.80478402777777,65.12040928272066L228.28454444444444,64.24772450829474L228.3310666666667,63.46230821131144L228.61746909722223,62.75543354402643L228.95184756944445,61.766744035777634L229.07251458333332,60.38595270912296L229.10013715277776,59.143240515133726L229.24988055555554,58.65029030977419L229.3327482638889,58.20663512495061L229.65549618055556,58.55088161245554L229.93172187500002,58.15188652813306L230.350421875,57.59618479839668L230.39112881944445,57.096053241633925L230.51615729166667,56.645934840547454L231.0700625,56.24082827956963L231.1020465277778,55.87623237468959L231.53383090277777,55.54809606029754L231.74463472222223,54.58929568503703L231.81151041666666,53.72637534730255L232.57621944444443,52.94974704334152L232.63437222222223,52.25078156977659L232.6460027777778,51.62171264356816L232.67798680555555,51.055550609980585L232.692525,50.54600477975174L232.80301527777777,50.08741353254581L232.8524451388889,49.67468141006046L232.97892743055556,49.30322249982363L233.02399583333332,48.968909480610506L233.70292951388888,49.88401776331868L233.96025555555556,50.70761521775604L234.0503923611111,51.448852926749666L234.38913229166667,52.11596686484393L234.39785520833334,52.716369409128774L235.3064923611111,58.99616092975435L235.3588298611111,64.64797329831738L235.4998503472222,69.7346044300241L235.7804375,67.45409475625245L235.80515243055555,65.40163604985798L235.80660625000002,63.554423214102954L236.2412982638889,63.14863166192342L236.2936357638889,62.783419264961836L236.6120222222222,62.454728107696425L236.81701076388887,62.15890606615754L237.24443368055557,61.892666228772555L237.47122951388891,61.65305037512607L237.67912569444445,61.43739610684423L237.80415416666665,61.243307265390584L237.81869236111112,61.0686273080823L238.02368090277778,60.57280073112021L238.08910277777778,58.94501373493128L238.1254482638889,63.82559159220739L238.3086295138889,68.21811166375588L238.410396875,71.67496280507258L238.6560923611111,76.19218960148841L238.75640590277777,80.25769371826264L238.84218124999998,83.91664742335945L239.01518576388887,87.20970575794658L239.195459375,90.17345825907499L239.22598958333333,92.84083551009059L240.2887315972222,95.24147503600459L240.77139965277777,97.4020506093272L240.78739166666668,99.34656862531756L240.91532777777778,96.99513637817041L240.9720267361111,94.878847355738L241.03163333333333,92.9741872355488L241.236621875,91.25999312737854L241.7890732638889,89.7172184300253L241.91555555555556,88.32872120240738L242.34733993055556,82.82576369755127L243.21963159722222,85.28381963548844L243.3068607638889,87.49606997963193L243.32139895833333,89.48709528936102L243.5031263888889,91.27901806811724L244.33471111111112,92.89174856899781L244.51789236111114,94.34320601979034L244.6618204861111,95.64951772550361L244.85953993055557,96.82519826064556L245.0369059027778,97.88331074227331L245.12122743055556,98.83561197573827L245.22154097222221,99.69268308585676L245.22735625,100.4640470849634L245.3741920138889,95.70817237646703L245.4992204861111,91.42788513882034L245.52102777777776,87.57562662493831L246.33952812500002,84.10859396244447L246.50380972222223,80.98826456620003L246.68989861111112,78.17996810958005L246.7117059027778,75.65250129862203L246.81347326388888,73.37778116875981L246.98502395833333,71.33053305188382L247.05916875000003,69.48800974669545L247.15948229166668,67.8297387720259L247.16529756944445,66.3372948948233L247.93146041666668,64.99409540534097L247.95908298611113,63.78521586480686L248.07538854166665,62.697224278326175L248.25275451388887,61.718031850493546L248.40540555555555,60.83675866544421L248.6656392361111,64.8393597219767L248.68599270833334,68.44170067285594L248.73833020833334,71.68380752864728L248.79793680555554,74.60170369885947L248.93459583333333,77.22781025205045L249.00583298611113,79.5913061499223L249.0290940972222,81.718452458007L249.14685347222223,83.63288413528322L249.26752048611112,85.3558726448318L249.39400277777779,86.90656230342556L249.42017152777777,88.30218299615993L249.6164371527778,89.55824161962084L249.81415659722222,90.6886943807357L250.3767847222222,87.76322263496982L250.43057604166665,85.13029806378053L250.81874583333334,84.22649825740247L251.11823263888888,83.41307843166223L251.17202395833334,82.681000588496L251.18510833333332,82.02213052964639" style="fill: none;" fill="none"></path></g></g></g></g><g opacity="0.2"><g><g><g><path stroke="rgb(255, 112, 67)" stroke-width="2px" d="M29.138903125000002,163.3573846153846L29.320630555555557,163.32743076923077L29.41076736111111,163.21033846153847L29.766953125,162.84272307692308L29.857089930555556,163.15179230769232L29.919604166666666,162.87131538461537L29.92978090277778,162.87131538461537L29.999564236111112,163.16676923076923L30.01846388888889,163.32561538323034L30.115869791666665,163.20216923076924L30.252528819444446,163.1123076923077L30.552015625000003,163.06056923076923L31.015784027777777,163.1163923076923L31.09138263888889,163.06737692307692L31.101559375,162.9795576923077L31.165527430555557,163.1163923076923L31.53625138888889,163.17766153846154L31.598765625,163.3138153846154L31.60312708333333,163.31653846153847L31.806661805555553,163.35466153846153L31.86481458333333,163.07963076923076L32.03781909722222,163.10413846153847L32.431804166666666,163.10368462646485L32.55101736111111,163.12183846153846L32.69058402777778,163.26343846153847L32.692037847222224,163.26343846153847L32.981347916666664,163.2607153846154L33.49454618055555,163.04423076923078L33.77367951388889,162.9788769230769L33.796940625,163.2076153846154L33.88271597222222,162.95573076923077L34.33776145833333,163.23484615384615L34.340669097222225,163.2076153846154L34.413360069444444,162.8154923076923L34.63288680555555,163.16132307692308L34.82915243055555,163.30292307692307L35.35398125,162.60445384615383L35.47464826388889,162.72154615384616L35.608399652777784,163.0741846153846L35.63311458333333,162.85906153846153L35.875902430555556,163.1055L36.03873020833333,162.70656923076922L36.30477916666666,162.07753846153847L36.54175173611111,161.90598461538463L36.84850763888889,162.66436153846155L36.868861111111116,162.7297153846154L37.39805138888889,162.72018461538462L37.60303993055556,162.68478461538461L37.665554166666666,162.67116923076924L37.78622118055555,163.07282307692307L38.09152326388889,162.66163846153847L38.119145833333334,162.66163846153847L38.81697916666667,162.66027692307694L38.834425,162.7229076923077L39.042321180555554,161.91143076923078L39.20514895833333,162.28857692307693L39.47992083333334,162.71065384615383L39.80993784722222,161.7957L39.92333576388889,161.86513846153846L39.92769722222222,161.86513846153846L40.414726736111106,160.99647692307693L40.46561041666667,161.87058461538462L40.80435034722222,160.1387076923077L40.97008576388889,161.0305153846154L41.02969236111111,162.73107692307693L41.43240034722223,161.7426L41.44693854166666,162.60717692307693L41.58214375,162.1006846153846L41.98485173611111,161.0808923076923L42.06771944444445,162.7651153846154L42.540210763888886,161.83246153846153L42.84260520833334,162.06119999999999L42.96763368055556,162.05575384615383L42.986533333333334,160.98013846153847L43.17698368055556,161.83790769230768L44.196111111111115,161.42127692307693L44.312416666666664,161.72626153846153L44.374930902777784,161.72626153846153L44.49850555555555,161.86105384615385L44.75001631944444,161.34979615384614L44.92738229166667,161.3137153846154L44.931743749999995,161.3137153846154L45.02042673611111,162.1006846153846L45.098932986111116,161.2932923076923L45.21814618055556,160.22993076923078L45.843288541666666,161.56423846153845L45.89271840277778,161.08361538461537L46.06572291666667,161.3395846153846L46.17330555555555,160.185L46.47860763888889,159.9235846153846L46.485876736111116,159.9235846153846L46.76210243055555,161.9904L46.945283680555555,161.72762307692307L47.79867569444444,160.9746923076923L48.026925347222225,160.22856923076924L48.06617847222222,160.11351923076924L48.845425694444444,158.3864076923077L48.87886354166667,158.3864076923077L49.15508923611111,161.19389999999999L49.75260902777778,160.9992L49.85873784722222,161.5941923076923L49.92270590277778,161.5941923076923L50.08117222222222,159.57503076923078L50.358851736111106,159.57503076923078L50.40246631944444,160.9352076923077L50.56384027777778,159.98757692307692L50.70049930555555,159.47563846153847L51.57279097222222,159.1938L51.62222083333334,160.86304615384614L51.99585243055556,161.12854615384614L52.507596875,160.7650153846154L52.80562986111111,161.1013153846154L53.58487708333334,157.71516923076922L53.88872534722222,161.5165846153846L53.93379375,160.83445384615385L54.25363402777778,160.61933076923077L54.28561805555555,160.61933076923077L54.58219722222222,160.02297692307693L54.602550694444446,160.02297692307693L55.90226527777777,161.10812307692308L56.86905520833333,158.20804615384617L56.94610763888889,159.94673076923078L57.47239027777778,160.03455L57.63085659722222,161.31643846153847L57.651210069444446,161.31643846153847L57.763154166666666,160.72416923076923L58.1469625,158.0827846153846L58.23128402777778,160.36880769230768L58.24436840277778,160.36880769230768L58.35485868055555,157.39793076923075L58.50896354166667,159.1624846153846L58.52059409722222,159.1624846153846L58.62381527777778,160.49679230769232L58.79391215277778,160.00936153846155L58.937840277777774,159.58592307692308L58.99453923611111,159.96443076923077L59.28675694444445,161.1367153846154L59.29111840277778,160.9420153846154L59.39724722222222,161.0877L59.724356597222226,161.03323846153847L59.81740104166666,161.03323846153847L59.94533715277778,158.10456923076924L60.07181944444445,160.8970846153846L60.36839861111111,159.08419615384616L60.840889930555555,157.70427692307692L61.41805625,161.33822307692307L61.541630902777776,160.9815L61.58233784722222,160.9815L62.71631701388889,157.76554615384615L62.73085520833333,160.09922307692307L62.79482326388889,160.09922307692307L62.83262256944444,160.09922307692307L62.93148229166666,157.7274230769231L63.040518750000004,157.7274230769231L63.136470833333334,161.49616153846154L63.300752430555555,155.50266923076924L63.48974895833334,159.27004615384615L63.50574097222222,159.27004615384615L63.53481736111111,159.37896923076923L63.87937256944444,157.79890384615385L64.18322083333334,155.89887692307693L64.37948645833333,157.78188461538463L64.38239409722223,157.78188461538463L64.43763923611111,160.06926923076924L64.87233125,158.54434615384616L65.01480555555555,157.9507153846154L65.02643611111111,157.9507153846154L65.27940069444445,158.2979076923077L65.3273767361111,158.2979076923077L65.79114513888888,161.51386153846153L65.905996875,160.38923076923078L65.99177222222222,157.13923846153847L66.60383020833333,156.11536153846154L66.65471388888889,158.3373923076923L66.76229652777776,158.3373923076923L67.31765555555556,160.07607692307693L68.03584236111111,159.39803076923076L68.03729618055554,159.39803076923076L68.55485590277777,156.1977346153846L68.56212500000001,156.1977346153846L69.06514652777778,156.55922307692308L69.20762083333334,159.19516153846155L69.2585045138889,157.1583L69.53036875,158.9814L69.66266631944444,157.55586923076925L70.42156006944444,155.14458461538462L70.57421111111111,160.80722307692307L71.19499201388888,153.44946923076924L71.23279131944444,158.94055384615385L71.32874340277777,159.01135384615384L71.53082430555556,154.08394615384614L71.6209611111111,158.89562307692307L71.92335555555556,160.07063076923077L71.94661666666666,160.07063076923077L72.12689027777778,159.40756153846155L72.44382291666666,160.0325076923077L72.69969513888888,154.4924076923077L72.73749444444445,158.061L72.945390625,152.65433076923077L73.16782500000001,156.1317L73.37572118055556,158.76219230769232L73.58216354166667,156.98946923076923L73.71882256944444,156.48842307692308L73.73917604166667,158.14405384615384L74.73649618055555,152.2240846153846L74.7902875,150.77813076923076L75.15810381944445,152.3221153846154L75.42560659722223,156.68584615384614L75.50702048611112,156.68584615384614L75.60588020833333,152.45282307692307L75.90100555555556,150.14365384615385L76.2324763888889,158.97186923076924L76.38803506944444,156.92139230769232L76.55522430555556,142.12963846153846L76.70787534722221,142.12963846153846L76.89977951388889,159.44976923076922L76.91141006944444,159.44976923076922L77.10331423611112,159.44976923076922L77.31702569444445,154.23235384615384L77.44786944444445,151.5501230769231L77.59906666666666,154.7865L77.63977361111111,154.7865L78.12534930555556,156.60006923076924L78.14279513888889,153.1866923076923L78.17041770833333,153.1866923076923L78.1951326388889,153.1866923076923L78.27363888888888,148.33144615384614L78.32743020833334,147.8304L78.38122152777778,147.8304L78.56004131944445,159.19652307692309L78.71269236111111,156.43668461538462L79.03398645833333,150.7971923076923L79.06451666666666,150.7971923076923L79.27095902777778,157.67296153846155L79.37854166666666,152.77006153846153L79.64604444444444,149.50917692307692L80.44564513888889,145.8657L80.47617534722222,145.8657L80.50961319444446,145.8657L80.66371805555555,142.3924153846154L80.79456180555555,149.7951L81.08241805555555,150.41732307692308L81.19581597222222,154.55912307692307L81.34701319444444,147.88894615384615L81.371728125,147.81406153846154L81.46913402777778,140.4957923076923L81.77298229166666,153.15537692307691L81.81514305555555,153.15537692307691L82.3297951388889,144.58857692307691L82.37340972222222,144.58857692307691L82.53042222222221,156.5347153846154L82.6510892361111,156.5347153846154L82.73395694444444,158.68186153846153L83.16283368055555,158.17128461538462L83.58007986111112,158.01743076923077L83.97988020833334,157.97386153846153L84.1427079861111,157.97386153846153L84.60211493055556,144.75468461538463L84.96120833333333,158.02832307692307L84.98446944444444,152.56446923076922L85.36973159722223,140.83481538461538L85.54418993055555,159.04403076923077L85.74917847222223,159.04403076923077L86.20713159722222,139.70201538461538L86.79738229166666,155.8199076923077L86.91223402777777,158.8221L87.05325451388889,150.31384615384616L87.09832291666666,150.31384615384616L87.259696875,155.8907076923077L87.66095104166668,145.64581153846154L87.95753020833334,152.57944615384616L88.19450277777777,156.46255384615384L88.20031805555556,156.46255384615384L88.24829409722223,158.1957923076923L88.27737048611111,158.1957923076923L88.38349930555556,117.67096153846154L88.74259270833333,160.64792307692306L89.039171875,144.50143846153847L89.078425,148.1775923076923L89.18019236111111,148.1775923076923L89.46804861111112,144.91806923076922L89.49130972222223,144.91806923076922L90.33307118055556,153.49031538461537L90.79247812499999,139.89126923076924L90.81864687500001,150.34924615384617L91.12394895833333,158.96778461538463L92.34515729166667,137.98783846153844L92.47454722222223,137.98783846153844L92.52106944444445,137.98783846153844L92.62574444444445,157.90306153846154L92.66499756944445,157.90306153846154L92.67081284722222,157.90306153846154L92.76240347222222,156.25287692307694L93.03572152777778,147.5798769230769L93.15202708333332,158.98412307692308L93.33666215277778,157.2862846153846L93.34683888888888,157.2862846153846L93.41080694444445,157.2862846153846L93.487859375,156.7117153846154L94.23221493055556,150.62155384615386L94.44738020833333,150.18994615384617L94.9504017361111,156.6313846153846L94.96348611111111,156.6313846153846L95.04053854166668,153.96821538461538L95.23680416666667,148.0741153846154L95.45633090277778,146.16251538461538L96.41585173611111,154.87227692307692L96.43911284722222,144.95755384615384L96.55396458333334,144.84454615384615L96.67899305555557,135.75083076923076L97.84495625,147.79363846153848L98.25784097222223,136.46699999999998L98.33489340277778,136.46699999999998L98.37996180555557,136.46699999999998L98.43229930555556,136.46699999999998L98.48899826388889,136.46699999999998L98.68962534722222,136.46699999999998L98.78412361111111,136.46699999999998L98.81756145833333,138.66043846153846L98.97166631944445,138.66043846153846L99.12431736111111,149.9789076923077L99.19119305555556,135.02921538461538L99.62006979166667,131.7982846153846L100.08819965277777,145.93513846153846L100.710434375,151.15800000000002L100.82528611111111,152.92527692307692L101.00846736111112,146.91680769230769L101.77753784722222,141.29229230769232L101.85022881944445,141.29229230769232L101.98543402777779,141.29229230769232L102.00869513888888,141.29229230769232L102.05230972222222,141.29229230769232L102.15843854166667,141.29229230769232L102.68326736111112,142.83355384615385L102.95949305555555,148.02373846153847L103.19210416666667,156.59734615384616L103.41744618055556,148.53703846153846L103.55265138888889,148.53703846153846L103.63261145833334,148.53703846153846L104.38278229166666,155.4019153846154L104.39441284722221,155.4019153846154L104.609578125,152.6134846153846L104.67790763888888,130.12767692307693L105.10096909722222,148.58196923076923L105.18965208333334,133.32593076923078L105.41790173611112,153.0382846153846L105.66795868055556,142.02752307692307L105.99361423611111,151.4697923076923L106.04159027777777,133.1856923076923L106.26402465277778,145.80987692307693L106.28583194444444,145.80987692307693L106.81066076388888,111.47187692307692L107.15666979166666,115.68175384615385L107.16684652777778,115.68175384615385L107.17266180555555,115.68175384615385L107.17847708333333,115.68175384615385L107.383465625,115.68175384615385L107.44743368055555,125.56788461538461L107.68876770833333,125.56788461538461L107.74110520833334,109.18313076923077L107.7629125,128.86553076923076L107.93446319444445,105.33542307692308L108.58868194444445,132.82760769230768L108.75732500000001,132.82760769230768L108.94632152777777,132.82760769230768L109.01174340277778,151.95177692307692L109.31849930555555,121.39749230769232L109.47260416666667,58.44540000000001L109.82733611111111,137.6460923076923L109.83896666666666,137.6460923076923L110.07448541666668,103.52934230769232L110.15153784722223,139.01307692307694L110.98166875,133.37903076923078L111.22881805555555,133.37903076923078L111.24917152777778,133.37903076923078L111.37565381944445,139.2036923076923L111.6358875,105.6975923076923L111.68386354166667,105.6975923076923L111.94409722222221,105.6975923076923L112.38024305555555,83.85306923076922L112.38896597222222,83.85306923076922L112.64919965277777,140.8320923076923L113.05045381944444,152.8000153846154L113.82824722222223,135.69636923076922L114.03905104166667,114.74365384615385L114.20769409722223,99.3678L114.33126875,99.3678L114.44466666666668,99.3678L114.48391979166666,99.3678L114.50863472222223,99.3678L115.23699826388888,131.81326153846155L115.30532777777779,131.81326153846155L115.48123993055555,117.40954615384615L115.783634375,128.65313076923076L115.82724895833333,128.65313076923076L116.56724305555555,76.92828461538461L116.57596597222222,76.92828461538461L116.60795,76.92828461538461L116.73879375,76.92828461538461L116.99757361111111,146.30003076923077L118.05886180555557,129.79546153846155L118.1620829861111,137.52763846153846L118.39760173611111,137.52763846153846L118.53716840277778,145.68733846153845L118.74942604166667,147.71466923076923L119.41672916666666,136.7787923076923L119.53303472222223,136.7787923076923L119.96481909722222,110.42213076923076L120.0098875,110.42213076923076L120.48528645833332,93.00941538461538L120.703359375,142.82538461538462L120.98830798611111,118.31905384615385L121.18893506944444,89.35368461538462L121.29070243055556,89.35368461538462L121.29215625,89.35368461538462L121.41427708333335,149.25456923076922L121.64398055555556,80.17827692307694L121.92602152777778,117.32785384615384L122.10484131944445,150.0919153846154L122.26476145833334,150.0919153846154L122.44939652777778,150.0919153846154L122.86518888888888,107.8392923076923L122.87972708333334,107.8392923076923L123.12106111111112,131.41433076923076L123.41473263888888,90.59404615384616L123.93229236111111,147.73373076923076L124.000621875,147.73373076923076L124.23032534722223,147.73373076923076L124.27539374999999,147.73373076923076L124.44985208333334,147.73373076923076L124.5109125,147.73373076923076L124.60686458333333,147.73373076923076L124.89472083333334,82.88910000000001L125.10116319444445,78.36334615384617L125.46316423611111,102.25698461538462L126.17408194444444,102.25698461538462L126.408146875,132.4776923076923L126.44885381944444,132.4776923076923L126.51427569444445,81.35328461538461L127.12342604166668,81.35328461538461L128.31991944444445,143.39450769230768L128.34608819444443,143.39450769230768L128.48710868055556,143.39450769230768L128.5612534722222,143.39450769230768L128.79531840277778,143.39450769230768L129.28816319444445,143.39450769230768L129.37393854166666,143.39450769230768L129.6399875,143.39450769230768L129.66034097222223,143.39450769230768L130.05287222222222,86.7408923076923L130.08340243055557,86.7408923076923L130.43668055555557,123.33768461538462L130.55153229166666,123.33768461538462L130.72162916666667,123.33768461538462L131.51686840277776,79.25106923076922L131.68841909722224,79.25106923076922L131.79890937500002,79.25106923076922L132.1754486111111,129.6702L132.2932079861111,95.98029230769231L132.92125798611113,96.71007692307691L133.1044392361111,96.71007692307691L133.14223854166667,96.71007692307691L133.31088159722222,96.71007692307691L133.53476979166666,52.86581538461539L133.61618368055557,52.86581538461539L133.6903284722222,52.86581538461539L133.72231250000002,87.11123076923077L133.77028854166667,87.11123076923077L133.8066340277778,146.6996423076923L134.18462708333334,107.78210769230769L134.1875347222222,107.78210769230769L134.33582430555558,107.78210769230769L134.3401857638889,107.78210769230769L134.56407395833332,107.78210769230769L134.80395416666667,95.95714615384615L135.02202708333334,95.95714615384615L135.21974652777777,95.95714615384615L135.46689583333335,95.95714615384615L135.66897673611112,141.2419153846154L136.35372569444445,88.02073846153846L136.36099479166666,88.02073846153846L136.42932430555558,88.02073846153846L136.51655347222223,88.02073846153846L136.54999131944444,88.02073846153846L136.93234583333333,88.02073846153846L136.94252256944446,88.02073846153846L137.97037291666666,40.73314615384615L138.36290416666668,123.92586923076924L138.79614236111112,47.4114923076923L138.8223111111111,47.4114923076923L138.9386166666667,47.4114923076923L139.4634454861111,55.22127692307693L139.7120486111111,61.346838461538454L139.88505312499998,61.346838461538454L140.19471666666666,45.43045384615385L140.26886145833333,45.43045384615385L140.47821145833333,45.43045384615385L140.54654097222223,45.43045384615385L140.71663784722222,45.43045384615385L140.8852809027778,45.43045384615385L140.89545763888887,45.43045384615385L141.30979618055557,83.52085384615386L141.7924642361111,83.52085384615386L142.187903125,96.29616923076924L142.33183125000002,107.84337692307692L142.672025,86.89202307692308L142.77815381944444,86.89202307692308L142.86102152777778,86.89202307692308L143.60246944444444,131.17742307692308L143.70132916666668,131.17742307692308L143.81327326388887,131.17742307692308L143.8336267361111,68.09734615384615L143.89032569444444,68.09734615384615L143.93684791666666,125.72173846153845L144.37880902777778,43.699938461538466L144.53727534722222,89.7744L144.79750902777778,89.7744L145.34705277777778,68.76586153846154L145.42846666666665,68.76586153846154L145.43428194444445,68.76586153846154L145.52878020833333,29.380638461538467L145.6232784722222,29.380638461538467L145.95038784722223,29.380638461538467L145.9736489583333,29.380638461538467L146.18299895833334,29.380638461538467L146.2207982638889,29.380638461538467L146.27458958333332,29.380638461538467L146.83140243055556,123.5705076923077L146.859025,123.5705076923077L147.0073145833333,123.5705076923077L147.3911229166667,123.5705076923077L147.5554045138889,76.42723846153847L147.60628819444443,76.42723846153847L148.22125381944446,115.32503076923078L149.3610482638889,162.00401538461537L149.410478125,162.00401538461537L149.5253298611111,162.00401538461537L149.85389305555555,85.32897692307691L149.92949166666665,85.32897692307691L150.13302638888888,85.32897692307691L150.48630451388888,85.32897692307691L150.8526670138889,73.92745384615385L151.08673194444444,89.50209230769231L151.43855625,51.35314615384614L151.48507847222223,51.35314615384614L151.79328819444444,51.35314615384614L152.07242152777778,45.3719076923077L152.19599618055554,45.3719076923077L152.38790034722223,33.20656153846153L152.681571875,94.5425076923077L152.72809409722223,94.5425076923077L152.78188541666665,94.5425076923077L152.8981909722222,131.03173846153845L153.11771770833332,29.78365384615384L153.3910357638889,97.70944615384614L153.43610416666667,97.70944615384614L153.48408020833332,97.70944615384614L153.64981562499997,97.70944615384614L153.74140625,97.70944615384614L154.08450763888888,97.70944615384614L154.12666840277777,97.70944615384614L155.24029409722223,104.74723846153846L155.25919375,104.74723846153846L155.36386875,96.21447692307693L155.57176493055556,71.01784615384616L156.13148541666666,71.01784615384616L156.214353125,131.53278461538463L156.3684579861111,131.53278461538463L156.46295625,131.53278461538463L156.528378125,131.53278461538463L156.76535069444444,84.5814923076923L157.21312708333335,84.5814923076923L157.993828125,104.1005076923077L158.1988166666667,104.1005076923077L158.84867395833334,129.53813076923078L158.9722486111111,129.53813076923078L158.9955097222222,129.53813076923078L159.55086875,113.89677692307691L159.57558368055555,113.89677692307691L159.76458020833334,102.60281538461538L159.88233958333333,133.16663076923078L159.9724763888889,133.16663076923078L160.26614791666668,138.74621538461537L160.57581145833333,138.74621538461537L161.48299479166667,100.8192L161.51207118055558,100.8192L161.8115579861111,126.81233076923077L162.06452256944445,89.31556153846154L162.28259548611112,89.31556153846154L162.311671875,89.31556153846154L162.31603333333334,89.31556153846154L162.4396079861111,89.31556153846154L162.44396944444443,89.31556153846154L162.96589062500001,128.9091L163.00368993055554,128.9091L163.88906597222223,38.21430000000001L163.97484131944444,38.21430000000001L164.46623229166664,77.25505384615384L164.60725277777777,77.25505384615384L164.96779999999998,77.25505384615384L165.5929423611111,115.75527692307692L166.28932187499998,102.68723076923077L166.51611770833333,102.68723076923077L166.87666493055556,46.854623076923076L167.0322236111111,46.854623076923076L167.2735576388889,46.854623076923076L167.45819270833334,133.91956153846155L167.65736597222224,81.67733076923076L167.7387798611111,81.67733076923076L167.78530208333333,81.67733076923076L167.88852326388889,81.67733076923076L168.44097465277778,81.67733076923076L168.57036458333334,40.25933076923076L168.60380243055553,40.25933076923076L169.0821090277778,40.25933076923076L169.4223027777778,56.0205L169.51680104166667,81.2361923076923L170.12449756944446,44.56587692307693L170.32512465277776,44.56587692307693L170.42689201388887,44.56587692307693L170.528659375,44.56587692307693L170.70311770833334,44.56587692307693L170.7670857638889,44.56587692307693L170.96480520833333,44.56587692307693L171.1770628472222,44.56587692307693L171.25556909722224,44.56587692307693L171.37187465277776,44.56587692307693L171.53179479166667,80.98158461538462L171.75422916666668,80.98158461538462L171.8603579861111,89.32373076923078L172.13949131944443,60.0070846153846L172.24125868055555,60.0070846153846L172.31249583333332,60.0070846153846L173.08592777777778,47.282146153846156L173.74160034722223,47.282146153846156L173.89570520833334,47.282146153846156L173.89861284722224,47.282146153846156L174.29114409722223,47.282146153846156L174.872671875,67.16741538461538L175.2826489583333,33.78657692307692L175.31608680555556,33.78657692307692L175.55160555555557,33.78657692307692L175.7071642361111,33.78657692307692L175.79293958333332,33.78657692307692L175.80602395833333,33.78657692307692L175.90924513888888,33.78657692307692L176.01828159722223,45.20579999999998L176.1389486111111,45.20579999999998L176.2538003472222,104.28976153846155L176.4006361111111,104.28976153846155L176.4297125,113.34943846153845L176.54020277777778,71.86472307692308L176.62307048611112,85.39569230769231L176.63906250000002,85.39569230769231L177.25548194444445,54.84140769230768L177.28455833333334,54.84140769230768L177.81374861111112,54.84140769230768L178.10742013888887,54.84140769230768L178.15394236111112,54.84140769230768L178.2324486111111,54.84140769230768L178.36329236111112,79.28783076923077L178.6467871527778,71.28879230769232L178.69185555555558,71.28879230769232L178.77181562500002,71.28879230769232L178.82269930555555,71.28879230769232L178.83723750000001,71.28879230769232L179.12073229166666,71.28879230769232L179.49291006944443,71.28879230769232L179.57287013888887,71.28879230769232L180.1980125,71.28879230769232L180.6763190972222,30.576069230769235L180.76064062499998,40.28656153846154L181.29855381944444,40.28656153846154L181.44975104166667,40.28656153846154L181.47010451388888,40.28656153846154L181.49772708333333,40.28656153846154L181.55733368055556,85.32216923076922L181.57768715277777,85.32216923076922L181.59949444444445,85.32216923076922L181.61839409722222,85.32216923076922L181.67509305555555,85.32216923076922L181.8640895833333,85.32216923076922L182.1141465277778,85.32216923076922L182.3598420138889,88.39516153846154L182.6157142361111,88.39516153846154L182.749465625,88.39516153846154L182.85414062499999,88.39516153846154L182.87449409722223,88.39516153846154L183.48800590277776,102.60962307692309L183.57087361111113,102.60962307692309L183.74969340277778,102.60962307692309L184.005565625,102.60962307692309L184.15094756944444,102.60962307692309L184.3006909722222,102.60962307692309L184.78626666666665,30.672738461538472L185.74724131944444,79.3627153846154L185.80539409722223,79.3627153846154L185.8533701388889,79.3627153846154L186.12087291666668,79.3627153846154L186.7431076388889,48.760776923076946L186.94228090277778,48.760776923076946L187.8959864583333,58.54343076923077L187.89744027777778,58.54343076923077L187.98176180555555,58.54343076923077L188.27252569444443,58.54343076923077L188.38737743055555,58.54343076923077L188.7392017361111,118.04946923076923L189.08957222222222,118.04946923076923L189.2756611111111,118.04946923076923L189.32363715277776,118.04946923076923L189.605678125,53.64733846153845L189.69290729166667,53.64733846153845L189.84991979166668,53.64733846153845L189.90225729166667,53.64733846153845L189.92987986111112,53.64733846153845L190.06944652777779,47.745069230769246L190.73384201388888,47.745069230769246L190.7934486111111,47.745069230769246L190.92138472222223,47.745069230769246L191.24413263888889,47.745069230769246L191.4665670138889,34.4768769230769L191.7413388888889,34.4768769230769L191.78204583333334,34.4768769230769L192.588915625,34.4768769230769L192.8709565972222,34.4768769230769L192.92765555555556,34.4768769230769L193.216965625,34.4768769230769L193.82756979166666,44.11384615384617L194.03255833333336,40.260692307692324L194.21573958333332,90.83367692307692L194.4367201388889,90.83367692307692L194.78418298611112,115.9704L195.23777465277777,115.9704L195.4805625,89.49936923076923L195.49219305555553,89.49936923076923L196.00539131944444,86.82258461538461L196.4066454861111,86.82258461538461L196.48369791666667,86.82258461538461L197.00271145833335,107.24021538461538L197.02015729166666,107.24021538461538L197.37925069444444,107.24021538461538L197.38942743055557,107.24021538461538L197.54353229166668,73.2072L197.77759722222223,61.08542307692308L197.90844097222222,61.08542307692308L198.37947847222222,72.33036923076924L198.6280815972222,72.33036923076924L198.69931875,72.33036923076924L198.7545638888889,72.33036923076924L198.80399375000002,72.33036923076924L198.85923888888888,72.33036923076924L198.9159378472222,89.87379230769231L199.08458090277776,89.87379230769231L199.19797881944444,89.87379230769231L199.21833229166666,89.87379230769231L199.24304722222223,89.87379230769231L199.4000597222222,50.125038461538466L199.47856597222224,50.125038461538466L200.09789305555557,44.30173846153846L200.37411875,44.30173846153846L200.54276180555556,44.30173846153846L200.86260208333331,44.30173846153846L200.90476284722223,44.30173846153846L201.57497361111112,44.30173846153846L201.94860520833333,44.30173846153846L201.99076597222222,44.30173846153846L202.07944895833333,44.30173846153846L202.52141006944444,43.7013L202.7656517361111,111.88714615384615L203.50564583333332,29.199553846153833L203.52745312500002,29.199553846153833L203.9592375,29.199553846153833L204.77773784722223,29.199553846153833L204.8649670138889,29.199553846153833L205.26912881944446,29.199553846153833L205.27058263888887,29.199553846153833L205.4319565972222,29.199553846153833L205.47266354166666,29.199553846153833L205.51627812499999,29.199553846153833L205.57588472222224,29.199553846153833L205.7445277777778,29.199553846153833L206.20393472222221,29.199553846153833L206.26499513888888,29.199553846153833L206.31733263888887,29.199553846153833L206.74184791666667,29.199553846153833L206.78691631944446,29.199553846153833L207.21288541666667,87.0663L207.348090625,87.0663L207.36553645833334,87.0663L207.5181875,87.0663L207.99649409722224,87.0663L208.78301041666666,65.20884230769232L208.81790208333334,65.20884230769232L208.865878125,65.20884230769232L209.50119722222223,57.16691538461538L209.59714930555555,57.16691538461538L209.63785625,60.190892307692295L210.1248857638889,60.094223076923086L210.38511944444443,60.094223076923086L210.45635659722222,60.094223076923086L210.46071805555556,60.094223076923086L210.47671006944447,60.094223076923086L210.540678125,60.094223076923086L210.8677875,88.49727692307692L211.22688090277776,62.03169230769231L212.90458854166667,71.40316153846155L213.25786666666664,53.30559230769231L213.61841388888888,72.83958461538461L213.69546631944445,72.83958461538461L213.8539326388889,72.83958461538461L214.047290625,72.83958461538461L214.31479340277778,67.50235384615385L214.50088229166667,67.50235384615385L214.57793472222224,67.50235384615385L214.6389951388889,52.80318461538461L214.79746145833332,52.80318461538461L214.80763819444445,52.80318461538461L214.85416041666664,30.203007692307693L214.9006826388889,30.203007692307693L214.989365625,30.203007692307693L215.015534375,30.203007692307693L215.329559375,30.203007692307693L215.60869270833334,58.94236153846154L215.75988993055554,58.94236153846154L215.85002673611112,58.94236153846154L216.10299131944444,62.13925384615385L216.4053857638889,62.13925384615385L216.83280868055556,62.13925384615385L216.89096145833332,62.13925384615385L217.082865625,62.13925384615385L217.2108017361111,62.13925384615385L217.22824756944445,62.13925384615385L217.23987812500002,62.13925384615385L217.28058506944444,62.13925384615385L217.3503684027778,56.91230769230769L217.41288263888887,56.91230769230769L217.59751770833333,56.91230769230769L217.8184982638889,56.91230769230769L217.96533402777777,56.91230769230769L218.17759166666667,56.91230769230769L218.31425069444444,56.91230769230769L218.53377743055557,73.34335384615386L219.09640555555555,73.34335384615386L219.1400201388889,73.34335384615386L219.42060729166667,73.34335384615386L219.50783645833334,73.34335384615386L219.54418194444446,73.34335384615386L220.2420152777778,58.54070769230769L220.25800729166667,58.54070769230769L220.5167871527778,58.54070769230769L220.550225,58.54070769230769L220.59529340277777,58.54070769230769L220.80173576388887,58.54070769230769L220.8220892361111,58.54070769230769L221.7176420138889,55.9742076923077L221.96479131944443,55.9742076923077L222.3137079861111,55.9742076923077L222.3369690972222,55.9742076923077L222.53323472222223,55.9742076923077L222.735315625,55.9742076923077L222.89814340277778,55.9742076923077L223.15692326388887,55.9742076923077L223.20344548611112,55.9742076923077L223.3081204861111,55.9742076923077L223.68611354166666,55.9742076923077L223.89982500000002,55.9742076923077L224.436284375,55.9742076923077L224.4551840277778,55.9742076923077L224.57875868055555,55.9742076923077L224.82736180555557,55.9742076923077L225.09486458333333,55.9742076923077L225.12830243055555,55.9742076923077L225.13557152777778,55.9742076923077L225.16464791666667,55.9742076923077L225.31875277777777,53.91011538461538L225.81886666666668,81.95372307692307L226.23756666666668,81.95372307692307L226.61119826388887,81.95372307692307L227.10113541666666,81.95372307692307L227.20435659722224,81.95372307692307L227.3177545138889,81.95372307692307L227.7757076388889,56.393561538461526L227.7829767361111,56.393561538461526L227.80478402777777,56.393561538461526L228.28454444444444,56.393561538461526L228.3310666666667,56.393561538461526L228.61746909722223,56.393561538461526L228.95184756944445,52.86853846153846L229.07251458333332,47.95883076923076L229.10013715277776,47.95883076923076L229.24988055555554,54.213738461538455L229.3327482638889,54.213738461538455L229.65549618055556,61.649100000000004L229.93172187500002,54.560930769230765L230.350421875,52.594869230769234L230.39112881944445,52.594869230769234L230.51615729166667,52.594869230769234L231.0700625,52.594869230769234L231.1020465277778,52.594869230769234L231.53383090277777,52.594869230769234L231.74463472222223,45.96009230769232L231.81151041666666,45.96009230769232L232.57621944444443,45.96009230769232L232.63437222222223,45.96009230769232L232.6460027777778,45.96009230769232L232.67798680555555,45.96009230769232L232.692525,45.96009230769232L232.80301527777777,45.96009230769232L232.8524451388889,45.96009230769232L232.97892743055556,45.96009230769232L233.02399583333332,45.96009230769232L233.70292951388888,58.119992307692314L233.96025555555556,58.119992307692314L234.0503923611111,58.119992307692314L234.38913229166667,58.119992307692314L234.39785520833334,58.119992307692314L235.3064923611111,115.51428461538461L235.3588298611111,115.51428461538461L235.4998503472222,115.51428461538461L235.7804375,46.92950769230768L235.80515243055555,46.92950769230768L235.80660625000002,46.92950769230768L236.2412982638889,59.49650769230769L236.2936357638889,59.49650769230769L236.6120222222222,59.49650769230769L236.81701076388887,59.49650769230769L237.24443368055557,59.49650769230769L237.47122951388891,59.49650769230769L237.67912569444445,59.49650769230769L237.80415416666665,59.49650769230769L237.81869236111112,59.49650769230769L238.02368090277778,56.11036153846155L238.08910277777778,44.294930769230774L238.1254482638889,107.75079230769231L238.3086295138889,107.75079230769231L238.410396875,102.78662307692308L238.6560923611111,116.84723076923078L238.75640590277777,116.84723076923078L238.84218124999998,116.84723076923078L239.01518576388887,116.84723076923078L239.195459375,116.84723076923078L239.22598958333333,116.84723076923078L240.2887315972222,116.84723076923078L240.77139965277777,116.84723076923078L240.78739166666668,116.84723076923078L240.91532777777778,75.83224615384616L240.9720267361111,75.83224615384616L241.03163333333333,75.83224615384616L241.236621875,75.83224615384616L241.7890732638889,75.83224615384616L241.91555555555556,75.83224615384616L242.34733993055556,33.29914615384615L243.21963159722222,107.40632307692307L243.3068607638889,107.40632307692307L243.32139895833333,107.40632307692307L243.5031263888889,107.40632307692307L244.33471111111112,107.40632307692307L244.51789236111114,107.40632307692307L244.6618204861111,107.40632307692307L244.85953993055557,107.40632307692307L245.0369059027778,107.40632307692307L245.12122743055556,107.40632307692307L245.22154097222221,107.40632307692307L245.22735625,107.40632307692307L245.3741920138889,52.90530000000001L245.4992204861111,52.90530000000001L245.52102777777776,52.90530000000001L246.33952812500002,52.90530000000001L246.50380972222223,52.90530000000001L246.68989861111112,52.90530000000001L246.7117059027778,52.90530000000001L246.81347326388888,52.90530000000001L246.98502395833333,52.90530000000001L247.05916875000003,52.90530000000001L247.15948229166668,52.90530000000001L247.16529756944445,52.90530000000001L247.93146041666668,52.90530000000001L247.95908298611113,52.90530000000001L248.07538854166665,52.90530000000001L248.25275451388887,52.90530000000001L248.40540555555555,52.90530000000001L248.6656392361111,100.86276923076923L248.68599270833334,100.86276923076923L248.73833020833334,100.86276923076923L248.79793680555554,100.86276923076923L248.93459583333333,100.86276923076923L249.00583298611113,100.86276923076923L249.0290940972222,100.86276923076923L249.14685347222223,100.86276923076923L249.26752048611112,100.86276923076923L249.39400277777779,100.86276923076923L249.42017152777777,100.86276923076923L249.6164371527778,100.86276923076923L249.81415659722222,100.86276923076923L250.3767847222222,61.433976923076926L250.43057604166665,61.433976923076926L250.81874583333334,76.0923L251.11823263888888,76.0923L251.17202395833334,76.0923L251.18510833333332,76.0923" style="fill: none;" fill="none"></path></g></g></g></g></g></g><g transform="translate(68, 177)" clip-path="url(#clip_1)"><clipPath id="clip_1"><rect width="261" height="23"></rect></clipPath><g><g><line x1="0" y1="0" x2="0" y2="5" style="visibility: inherit;" fill="rgb(0, 0, 0)" stroke="rgb(204, 204, 204)" stroke-width="1px"></line><line x1="29.076388888888886" y1="0" x2="29.076388888888886" y2="5" style="visibility: inherit;" fill="rgb(0, 0, 0)" stroke="rgb(204, 204, 204)" stroke-width="1px"></line><line x1="58.15277777777777" y1="0" x2="58.15277777777777" y2="5" style="visibility: inherit;" fill="rgb(0, 0, 0)" stroke="rgb(204, 204, 204)" stroke-width="1px"></line><line x1="87.22916666666666" y1="0" x2="87.22916666666666" y2="5" style="visibility: inherit;" fill="rgb(0, 0, 0)" stroke="rgb(204, 204, 204)" stroke-width="1px"></line><line x1="116.30555555555554" y1="0" x2="116.30555555555554" y2="5" style="visibility: inherit;" fill="rgb(0, 0, 0)" stroke="rgb(204, 204, 204)" stroke-width="1px"></line><line x1="145.38194444444446" y1="0" x2="145.38194444444446" y2="5" style="visibility: inherit;" fill="rgb(0, 0, 0)" stroke="rgb(204, 204, 204)" stroke-width="1px"></line><line x1="174.45833333333331" y1="0" x2="174.45833333333331" y2="5" style="visibility: inherit;" fill="rgb(0, 0, 0)" stroke="rgb(204, 204, 204)" stroke-width="1px"></line><line x1="203.53472222222223" y1="0" x2="203.53472222222223" y2="5" style="visibility: inherit;" fill="rgb(0, 0, 0)" stroke="rgb(204, 204, 204)" stroke-width="1px"></line><line x1="232.6111111111111" y1="0" x2="232.6111111111111" y2="5" style="visibility: inherit;" fill="rgb(0, 0, 0)" stroke="rgb(204, 204, 204)" stroke-width="1px"></line><line x1="261.6875" y1="0" x2="261.6875" y2="5" style="visibility: inherit;" fill="rgb(0, 0, 0)" stroke="rgb(204, 204, 204)" stroke-width="1px"></line></g><g transform="translate(0, 8)"><text x="0" y="0" dx="0em" dy="0.95em" style="text-anchor: middle; visibility: hidden; font-family: &quot;Helvetica Neue&quot;, sans-serif; font-size: 12px; font-weight: 200;" fill="rgb(50, 49, 63)" stroke="none" stroke-width="1px">-20k</text><text x="29.076388888888886" y="0" dx="0em" dy="0.95em" style="text-anchor: middle; visibility: inherit; font-family: &quot;Helvetica Neue&quot;, sans-serif; font-size: 12px; font-weight: 200;" fill="rgb(50, 49, 63)" stroke="none" stroke-width="1px">0</text><text x="58.15277777777777" y="0" dx="0em" dy="0.95em" style="text-anchor: middle; visibility: hidden; font-family: &quot;Helvetica Neue&quot;, sans-serif; font-size: 12px; font-weight: 200;" fill="rgb(50, 49, 63)" stroke="none" stroke-width="1px">20k</text><text x="87.22916666666666" y="0" dx="0em" dy="0.95em" style="text-anchor: middle; visibility: inherit; font-family: &quot;Helvetica Neue&quot;, sans-serif; font-size: 12px; font-weight: 200;" fill="rgb(50, 49, 63)" stroke="none" stroke-width="1px">40k</text><text x="116.30555555555554" y="0" dx="0em" dy="0.95em" style="text-anchor: middle; visibility: hidden; font-family: &quot;Helvetica Neue&quot;, sans-serif; font-size: 12px; font-weight: 200;" fill="rgb(50, 49, 63)" stroke="none" stroke-width="1px">60k</text><text x="145.38194444444446" y="0" dx="0em" dy="0.95em" style="text-anchor: middle; visibility: inherit; font-family: &quot;Helvetica Neue&quot;, sans-serif; font-size: 12px; font-weight: 200;" fill="rgb(50, 49, 63)" stroke="none" stroke-width="1px">80k</text><text x="174.45833333333331" y="0" dx="0em" dy="0.95em" style="text-anchor: middle; visibility: hidden; font-family: &quot;Helvetica Neue&quot;, sans-serif; font-size: 12px; font-weight: 200;" fill="rgb(50, 49, 63)" stroke="none" stroke-width="1px">100k</text><text x="203.53472222222223" y="0" dx="0em" dy="0.95em" style="text-anchor: middle; visibility: inherit; font-family: &quot;Helvetica Neue&quot;, sans-serif; font-size: 12px; font-weight: 200;" fill="rgb(50, 49, 63)" stroke="none" stroke-width="1px">120k</text><text x="232.6111111111111" y="0" dx="0em" dy="0.95em" style="text-anchor: middle; visibility: hidden; font-family: &quot;Helvetica Neue&quot;, sans-serif; font-size: 12px; font-weight: 200;" fill="rgb(50, 49, 63)" stroke="none" stroke-width="1px">140k</text><text x="261.6875" y="0" dx="0em" dy="0.95em" style="text-anchor: middle; visibility: hidden; font-family: &quot;Helvetica Neue&quot;, sans-serif; font-size: 12px; font-weight: 200;" fill="rgb(50, 49, 63)" stroke="none" stroke-width="1px">160k</text></g><line x1="0" y1="0" x2="261.6875" y2="0" fill="rgb(0, 0, 0)" stroke="rgb(204, 204, 204)" stroke-width="1px"></line></g></g></g></g></svg>