<svg viewBox="0 0 330 200" xmlns="http://www.w3.org/2000/svg"><g><g><g><g><g><line x1="39.15625" y1="177" x2="34.15625" y2="177" style="visibility: inherit;" fill="rgb(0, 0, 0)" stroke="rgb(204, 204, 204)" stroke-width="1px"></line><line x1="39.15625" y1="162.25" x2="34.15625" y2="162.25" style="visibility: inherit;" fill="rgb(0, 0, 0)" stroke="rgb(204, 204, 204)" stroke-width="1px"></line><line x1="39.15625" y1="147.5" x2="34.15625" y2="147.5" style="visibility: inherit;" fill="rgb(0, 0, 0)" stroke="rgb(204, 204, 204)" stroke-width="1px"></line><line x1="39.15625" y1="132.75" x2="34.15625" y2="132.75" style="visibility: inherit;" fill="rgb(0, 0, 0)" stroke="rgb(204, 204, 204)" stroke-width="1px"></line><line x1="39.15625" y1="118" x2="34.15625" y2="118" style="visibility: inherit;" fill="rgb(0, 0, 0)" stroke="rgb(204, 204, 204)" stroke-width="1px"></line><line x1="39.15625" y1="103.25" x2="34.15625" y2="103.25" style="visibility: inherit;" fill="rgb(0, 0, 0)" stroke="rgb(204, 204, 204)" stroke-width="1px"></line><line x1="39.15625" y1="88.5" x2="34.15625" y2="88.5" style="visibility: inherit;" fill="rgb(0, 0, 0)" stroke="rgb(204, 204, 204)" stroke-width="1px"></line><line x1="39.15625" y1="73.75" x2="34.15625" y2="73.75" style="visibility: inherit;" fill="rgb(0, 0, 0)" stroke="rgb(204, 204, 204)" stroke-width="1px"></line><line x1="39.15625" y1="59" x2="34.15625" y2="59" style="visibility: inherit;" fill="rgb(0, 0, 0)" stroke="rgb(204, 204, 204)" stroke-width="1px"></line><line x1="39.15625" y1="44.25" x2="34.15625" y2="44.25" style="visibility: inherit;" fill="rgb(0, 0, 0)" stroke="rgb(204, 204, 204)" stroke-width="1px"></line><line x1="39.15625" y1="29.5" x2="34.15625" y2="29.5" style="visibility: inherit;" fill="rgb(0, 0, 0)" stroke="rgb(204, 204, 204)" stroke-width="1px"></line><line x1="39.15625" y1="14.75" x2="34.15625" y2="14.75" style="visibility: inherit;" fill="rgb(0, 0, 0)" stroke="rgb(204, 204, 204)" stroke-width="1px"></line><line x1="39.15625" y1="0" x2="34.15625" y2="0" style="visibility: inherit;" fill="rgb(0, 0, 0)" stroke="rgb(204, 204, 204)" stroke-width="1px"></line></g><g transform="translate(29.15625, 0)"><text x="0" y="177" dx="0em" dy="0.3em" style="text-anchor: end; visibility: hidden; font-family: &quot;Helvetica Neue&quot;, sans-serif; font-size: 12px; font-weight: 200;" fill="rgb(50, 49, 63)" stroke="none" stroke-width="1px">-30</text><text x="0" y="162.25" dx="0em" dy="0.3em" style="text-anchor: end; visibility: inherit; font-family: &quot;Helvetica Neue&quot;, sans-serif; font-size: 12px; font-weight: 200;" fill="rgb(50, 49, 63)" stroke="none" stroke-width="1px">-25</text><text x="0" y="147.5" dx="0em" dy="0.3em" style="text-anchor: end; visibility: hidden; font-family: &quot;Helvetica Neue&quot;, sans-serif; font-size: 12px; font-weight: 200;" fill="rgb(50, 49, 63)" stroke="none" stroke-width="1px">-20</text><text x="0" y="132.75" dx="0em" dy="0.3em" style="text-anchor: end; visibility: inherit; font-family: &quot;Helvetica Neue&quot;, sans-serif; font-size: 12px; font-weight: 200;" fill="rgb(50, 49, 63)" stroke="none" stroke-width="1px">-15</text><text x="0" y="118" dx="0em" dy="0.3em" style="text-anchor: end; visibility: hidden; font-family: &quot;Helvetica Neue&quot;, sans-serif; font-size: 12px; font-weight: 200;" fill="rgb(50, 49, 63)" stroke="none" stroke-width="1px">-10</text><text x="0" y="103.25" dx="0em" dy="0.3em" style="text-anchor: end; visibility: inherit; font-family: &quot;Helvetica Neue&quot;, sans-serif; font-size: 12px; font-weight: 200;" fill="rgb(50, 49, 63)" stroke="none" stroke-width="1px">-5</text><text x="0" y="88.5" dx="0em" dy="0.3em" style="text-anchor: end; visibility: hidden; font-family: &quot;Helvetica Neue&quot;, sans-serif; font-size: 12px; font-weight: 200;" fill="rgb(50, 49, 63)" stroke="none" stroke-width="1px">0</text><text x="0" y="73.75" dx="0em" dy="0.3em" style="text-anchor: end; visibility: inherit; font-family: &quot;Helvetica Neue&quot;, sans-serif; font-size: 12px; font-weight: 200;" fill="rgb(50, 49, 63)" stroke="none" stroke-width="1px">5</text><text x="0" y="59" dx="0em" dy="0.3em" style="text-anchor: end; visibility: hidden; font-family: &quot;Helvetica Neue&quot;, sans-serif; font-size: 12px; font-weight: 200;" fill="rgb(50, 49, 63)" stroke="none" stroke-width="1px">10</text><text x="0" y="44.25" dx="0em" dy="0.3em" style="text-anchor: end; visibility: inherit; font-family: &quot;Helvetica Neue&quot;, sans-serif; font-size: 12px; font-weight: 200;" fill="rgb(50, 49, 63)" stroke="none" stroke-width="1px">15</text><text x="0" y="29.5" dx="0em" dy="0.3em" style="text-anchor: end; visibility: hidden; font-family: &quot;Helvetica Neue&quot;, sans-serif; font-size: 12px; font-weight: 200;" fill="rgb(50, 49, 63)" stroke="none" stroke-width="1px">20</text><text x="0" y="14.75" dx="0em" dy="0.3em" style="text-anchor: end; visibility: inherit; font-family: &quot;Helvetica Neue&quot;, sans-serif; font-size: 12px; font-weight: 200;" fill="rgb(50, 49, 63)" stroke="none" stroke-width="1px">25</text><text x="0" y="0" dx="0em" dy="0.3em" style="text-anchor: end; visibility: hidden; font-family: &quot;Helvetica Neue&quot;, sans-serif; font-size: 12px; font-weight: 200;" fill="rgb(50, 49, 63)" stroke="none" stroke-width="1px">30</text></g><line x1="39.15625" y1="0" x2="39.15625" y2="177" fill="rgb(0, 0, 0)" stroke="rgb(204, 204, 204)" stroke-width="1px"></line></g></g><g transform="translate(39, 0)" clip-path="url(#clip_0)"><clipPath id="clip_0"><rect width="290" height="177"></rect></clipPath><g><g><g><line x1="0" y1="0" x2="0" y2="177" fill="rgb(0, 0, 0)" stroke="rgb(60, 60, 60)" stroke-width="1px" opacity="0.25"></line><line x1="32.31597222222222" y1="0" x2="32.31597222222222" y2="177" fill="rgb(0, 0, 0)" stroke="rgb(60, 60, 60)" stroke-width="1px" opacity="0.25"></line><line x1="64.63194444444444" y1="0" x2="64.63194444444444" y2="177" fill="rgb(0, 0, 0)" stroke="rgb(60, 60, 60)" stroke-width="1px" opacity="0.25"></line><line x1="96.94791666666666" y1="0" x2="96.94791666666666" y2="177" fill="rgb(0, 0, 0)" stroke="rgb(60, 60, 60)" stroke-width="1px" opacity="0.25"></line><line x1="129.26388888888889" y1="0" x2="129.26388888888889" y2="177" fill="rgb(0, 0, 0)" stroke="rgb(60, 60, 60)" stroke-width="1px" opacity="0.25"></line><line x1="161.57986111111111" y1="0" x2="161.57986111111111" y2="177" fill="rgb(0, 0, 0)" stroke="rgb(60, 60, 60)" stroke-width="1px" opacity="0.25"></line><line x1="193.89583333333331" y1="0" x2="193.89583333333331" y2="177" fill="rgb(0, 0, 0)" stroke="rgb(60, 60, 60)" stroke-width="1px" opacity="0.25"></line><line x1="226.21180555555557" y1="0" x2="226.21180555555557" y2="177" fill="rgb(0, 0, 0)" stroke="rgb(60, 60, 60)" stroke-width="1px" opacity="0.25"></line><line x1="258.52777777777777" y1="0" x2="258.52777777777777" y2="177" fill="rgb(0, 0, 0)" stroke="rgb(60, 60, 60)" stroke-width="1px" opacity="0.25"></line><line x1="290.84375" y1="0" x2="290.84375" y2="177" fill="rgb(0, 0, 0)" stroke="rgb(60, 60, 60)" stroke-width="1px" opacity="0.25"></line></g><g><line x1="0" y1="177" x2="290.84375" y2="177" fill="rgb(0, 0, 0)" stroke="rgb(60, 60, 60)" stroke-width="1px" opacity="0.25"></line><line x1="0" y1="162.25" x2="290.84375" y2="162.25" fill="rgb(0, 0, 0)" stroke="rgb(60, 60, 60)" stroke-width="1px" opacity="0.25"></line><line x1="0" y1="147.5" x2="290.84375" y2="147.5" fill="rgb(0, 0, 0)" stroke="rgb(60, 60, 60)" stroke-width="1px" opacity="0.25"></line><line x1="0" y1="132.75" x2="290.84375" y2="132.75" fill="rgb(0, 0, 0)" stroke="rgb(60, 60, 60)" stroke-width="1px" opacity="0.25"></line><line x1="0" y1="118" x2="290.84375" y2="118" fill="rgb(0, 0, 0)" stroke="rgb(60, 60, 60)" stroke-width="1px" opacity="0.25"></line><line x1="0" y1="103.25" x2="290.84375" y2="103.25" fill="rgb(0, 0, 0)" stroke="rgb(60, 60, 60)" stroke-width="1px" opacity="0.25"></line><line x1="0" y1="88.5" x2="290.84375" y2="88.5" fill="rgb(0, 0, 0)" stroke="rgb(60, 60, 60)" stroke-width="1px" opacity="0.25"></line><line x1="0" y1="73.75" x2="290.84375" y2="73.75" fill="rgb(0, 0, 0)" stroke="rgb(60, 60, 60)" stroke-width="1px" opacity="0.25"></line><line x1="0" y1="59" x2="290.84375" y2="59" fill="rgb(0, 0, 0)" stroke="rgb(60, 60, 60)" stroke-width="1px" opacity="0.25"></line><line x1="0" y1="44.25" x2="290.84375" y2="44.25" fill="rgb(0, 0, 0)" stroke="rgb(60, 60, 60)" stroke-width="1px" opacity="0.25"></line><line x1="0" y1="29.5" x2="290.84375" y2="29.5" fill="rgb(0, 0, 0)" stroke="rgb(60, 60, 60)" stroke-width="1px" opacity="0.25"></line><line x1="0" y1="14.75" x2="290.84375" y2="14.75" fill="rgb(0, 0, 0)" stroke="rgb(60, 60, 60)" stroke-width="1px" opacity="0.25"></line><line x1="0" y1="0" x2="290.84375" y2="0" fill="rgb(0, 0, 0)" stroke="rgb(60, 60, 60)" stroke-width="1px" opacity="0.25"></line></g></g></g><g><g><line x1="0" y1="88.5" x2="290.84375" y2="88.5" fill="rgb(0, 0, 0)" stroke="rgb(153, 153, 153)" stroke-width="1.5px"></line></g></g><g><g><line x1="32.31597222222222" y1="0" x2="32.31597222222222" y2="177" fill="rgb(0, 0, 0)" stroke="rgb(153, 153, 153)" stroke-width="1.5px"></line></g></g><g><g><g><g><g><path stroke="rgb(255, 112, 67)" stroke-width="2px" d="M32.3854515625,147.5L32.587426388888886,142.8421052631579L32.687605902777776,142.38376383763838L33.0834765625,143.01366676359407L33.183656076388885,144.82957681131109L33.253135416666666,144.1403195755497L33.264446006944446,145.34975851207324L33.342004340277775,146.24527174282625L33.36300972222222,146.93166888502085L33.47126822916667,146.56600175043582L33.623153298611115,146.70211551789453L33.956007812500005,146.81330801015412L34.47144756944444,146.50983961470058L34.55546909722222,145.87321676523814L34.5667796875,146.44955880343173L34.63787482638889,146.94059244894223L35.1193828125,146.29964047949582L35.12423020833333,145.74668003534825L35.35044201388889,144.92617380702413L35.41507395833333,144.54752109652793L35.607353993055554,144.87904387406758L36.04523541666667,145.49699335327514L36.177730902777775,145.60887664387L36.332847569444446,145.49381056788266L36.33446336805555,145.39212987458376L36.65600729166667,145.617476732126L37.22638420138889,145.19092519947128L37.53661753472222,145.4345845330748L37.5624703125,145.34175362450276L37.657802430555556,145.56713232627098L38.163547395833334,145.76808588224128L38.16677899305556,145.9474355961245L38.247568923611105,145.19442152646508L38.491554513888886,144.52125675031652L38.70968732638889,144.52420487133853L39.292990625,143.9232457367096L39.42710190972222,140.976167502687L39.57575538194445,138.936327749189L39.60322395833333,137.10766243205723L39.87306232638888,134.5693781053463L40.054031770833326,128.40544272827128L40.349722916666664,125.85941611313928L40.61309809027778,121.78456692745735L40.95403159722222,116.93407140335432L40.97665277777778,112.57764150154901L41.564803472222216,106.58278676503144L41.79263107638889,100.60222762567739L41.86211041666667,97.30603220851775L41.99622170138888,93.45336702063551L42.33553940972222,95.03116191880036L42.36623958333333,91.70762986352382L43.14182291666667,86.94197236392236L43.1612125,82.36056230204593L43.392271701388886,77.05657119921685L43.57324114583333,73.46999923439998L43.878627083333335,72.61064560371167L44.37144565972223,68.28892785911503L44.37629305555556,64.9927223383004L44.917585590277774,68.23492373703472L44.97413854166667,71.15167279142425L45.35061961805555,69.3435812691019L45.53482065972223,66.53513522895838L45.60106840277778,64.59908544113476L46.04864461805556,61.380381986237865L46.064802604166665,58.48427067579236L46.21507187500001,57.9453289161645L46.66264809027778,55.393602804585385L46.75474861111111,53.097466338555705L47.27988315972222,51.031281229501005L47.61596927083334,48.58161819975618L47.75492795138889,48.1482119729626L47.775933333333334,47.75819282972401L47.98760295138889,45.93153917537106L49.12027777777778,43.992588158334684L49.249541666666666,42.542792934962904L49.319021006944446,41.238079185309346L49.45636388888889,40.359007817288614L49.73589704861111,38.97773447629646L49.93302447916666,38.32480252979914L49.937871875,37.73719389931719L50.036435590277776,37.50342854479331L50.12368871527778,37.58810067426194L50.25618420138889,37.07420876034419L50.95097760416667,36.9067638825735L51.00591475694445,36.756068053498126L51.19819479166667,36.03037699083902L51.317763888888884,35.377271045007575L51.65708159722222,35.0845164080724L51.66516059027778,34.8210424664361L51.97216232638888,33.99387520838437L52.17575295138889,33.544456875598854L53.124226736111105,33.13998623072308L53.37790711805556,33.36600015894706L53.421533680555555,32.68436607500945L54.28760173611111,32.955941683512236L54.324765104166666,32.610333523641145L54.63176684027778,32.299288838242774L55.295860069444444,32.31436044864449L55.41381336805555,32.32792480410035L55.48490850694445,32.63514048376851L55.661030555555556,32.32161894057796L55.96964809027777,32.03945097575169L56.01812204861111,31.785500960876448L56.19747569444444,31.556946881791987L56.34936076388889,31.351248967397225L57.318839930555555,31.166121457431558L57.37377708333334,30.999507194981703L57.78903732638889,30.55455138794281L58.3577984375,30.74409819966675L58.68903715277777,30.324684495347384L59.55510520833334,30.242215358411897L59.89280711805555,29.87299105275204L59.942896875,29.540689703927256L60.29837256944444,29.241618916261956L60.333920138888885,28.972455552646892L60.66354305555556,29.02521025703456L60.68616423611111,29.072689441649317L62.13068819444444,28.820419491753853L63.20519427083333,28.8883777864163L63.29083159722222,28.94954020528317L63.87575069444444,28.70958548736931L64.05187274305555,28.49362637375043L64.07449392361112,28.299263278821286L64.19891041666666,28.41933720534078L64.62548125,28.23240312835381L64.71919756944445,28.35916303305791L64.73373975694444,28.473246905959L64.85654045138888,28.428422153052935L65.02781510416666,28.53558007181033L65.04074149305556,28.632022173220065L65.15546319444445,29.308820641746422L65.34451163194444,29.32793859500802L65.50447569444444,29.050144507485214L65.56749184027778,28.800129872038895L65.89226736111111,28.870116931367534L65.89711475694445,28.63810509939819L66.01506805555556,28.42929447700402L66.37862274305556,28.83136522418428L66.48203385416667,28.603228602247356L66.62422413194444,28.54540571932128L66.76479861111112,28.49336512900112L67.09442152777778,28.299028554300634L67.61955607638889,28.419125733243135L68.261028125,28.527213187760594L68.39837100694444,28.624491891536337L68.44361336805555,28.41704265909962L69.70393628472222,28.230338358130354L69.72009427083333,28.0623044939193L69.79118940972222,27.911074021524968L69.8332001736111,28.06996664112353L69.94307447916667,28.212969994629532L70.064259375,28.636673042147635L70.17090208333333,28.42800571710916L70.35348732638889,28.240205128531016L70.56354114583334,28.07118460201545L70.58131493055555,27.919066130747325L70.61363090277777,27.782159508708673L70.9965751736111,27.95394356796055L71.33427708333333,28.108549219363965L71.55240989583334,28.247694304069086L71.55564149305556,28.372924879041847L71.61704184027778,28.485632395495173L72.100165625,28.587069159475277L72.25851388888888,28.678362246386712L72.27144027777778,28.76052602406378L72.55258923611112,28.53947341605013L72.60591059027777,28.340526069903234L73.12135034722222,28.456473465295232L73.2489984375,28.26582611524026L73.34433055555556,28.094243500860614L74.02458177083334,28.234819152880164L74.08113472222222,28.36133723929771L74.20070381944444,28.475203516749445L74.81793888888889,28.57768316619351L75.61614340277778,28.374914847581465L75.61775920138888,28.19242336120925L76.19298350694444,28.02818102378089L76.2010625,27.880362920343828L76.76012881944445,27.747326627451656L76.91847708333334,27.922593965723536L76.97503003472222,27.785334568434365L77.277184375,27.956801112396874L77.4242220486111,27.81612100056202L78.26766892361111,27.98450890114691L78.43732777777777,27.841058010540706L79.12727378472222,28.006952209998218L79.1692845486111,28.15625698941284L79.27592725694444,28.290631290807198L79.5005232638889,28.116568161335152L79.60070277777777,27.95991134488466L79.93678888888888,27.818920210139424L79.96264166666666,27.98702818940103L80.16300069444443,27.843325370248948L80.51524479166666,28.008992833443983L80.79962534722222,28.158093550277727L80.84163611111111,28.292284195394245L81.0726953125,28.1180557756862L81.3199125,27.96125019798103L81.55097170138889,27.967625178187888L81.78041510416666,27.82586266026911L81.93230017361111,27.698276394161184L81.95492135416667,27.583448754679438L83.06335920138888,27.48010387915832L83.12314375,27.387093491199465L83.5319407986111,27.30338414204462L83.82924774305556,27.228045727811946L83.91973246527778,27.160241155007867L84.02960677083333,27.099217039488536L84.35761388888889,27.04429533552471L84.72601597222223,26.99486580196006L84.89890642361111,27.24537922181952L85.08472326388889,27.175841299623727L85.25438211805555,27.408257169703006L85.46766753472222,27.617431452766482L85.48059392361111,27.805688307517187L85.69387934027777,27.975119476787597L85.93140173611111,27.832607529092087L86.07682361111112,27.999346776200525L86.24486666666667,27.854412098566655L86.29010902777777,27.7239708886988L86.82978576388889,27.90157379984265L86.84917534722221,27.76641641984898L86.87987552083334,27.644774777856497L86.90734409722224,27.83029730008124L86.99459722222223,27.99726757008159L87.05438177083333,28.14754081308027L87.11416631944445,27.98778673176571L87.31290954861112,27.844008058583825L87.83965989583334,27.714607252721123L87.87359166666666,27.59814652744555L88.10303506944445,27.493331874698157L88.22260416666667,27.398998687226083L88.51991111111111,27.314098818501606L89.40860034722223,27.23768893664996L89.44253211805555,27.168920042983757L89.47969548611111,27.107028038684405L89.65097013888888,27.051325234815152L89.79639201388889,27.2961927113368L90.11632013888888,27.221573440202263L90.24235243055556,27.449416096184393L90.41039548611111,27.35947448656512L90.4378640625,27.278527037907935L90.54612256944445,27.205674334116594L90.88382447916666,27.4351069007065L90.9306826388889,27.64159621063712L91.50267534722222,27.532436589572796L91.55114930555555,27.43419293061504L91.72565555555555,27.935773637555798L91.85976684027777,27.797196273799642L91.95186736111111,27.672476646419227L92.42852795138889,27.56022898177696L92.89226215277777,27.459206083598957L93.33660677083334,27.36828547523882L93.51757621527777,27.286456927714738L94.0281685763889,27.212811234943103L94.42727083333332,27.14653011144864L94.45312361111111,27.086877100303695L94.88131024305555,27.033189390273236L95.07520607638888,27.574870451246653L95.30303368055556,27.472383406121878L95.81201024305555,27.380145065509595L96.46802447916667,27.592130558958843L96.59567256944445,27.487917503062874L96.75240503472223,27.689125752756752L96.80249479166666,27.87021317748119L96.9818484375,28.033191859733193L97.42780885416667,27.884872673759787L97.75743177083334,27.75138540638372L98.02080694444444,27.63124686574531L98.02727013888888,27.523122179170713L98.08059149305556,27.720809961253707L98.11290746527779,27.60372896512831L98.2308607638889,27.498356068615436L98.62996302083333,27.99352046175406L98.9595859375,27.849168415578617L99.00321249999999,27.719251574020717L99.11631840277776,27.897326416618682L99.43624652777778,27.762593774956798L99.46209930555555,27.641334397461065L100.3976467013889,27.532200957714963L100.90823906249999,27.43398086194344L100.93732343750001,27.34558277574908L101.27664114583334,27.266024498174176L102.63391197916667,27.194422048356728L102.77771805555555,27.129979843521028L102.82942361111111,27.071981859168943L102.94576111111112,27.01978367325202L102.98938767361112,26.972805305926812L102.99585086805556,26.930524775334135L103.09764618055556,26.89247229780071L103.40141631944445,27.153225068020674L103.53068020833332,27.09290256121858L103.73588663194444,27.038612305096706L103.74719722222221,26.989751074587048L103.81829236111112,27.240775967128343L103.90392968750001,27.1716983704155L104.73121857638888,27.404528533373934L104.97035677083333,27.614075680036535L105.52942309027777,27.50766811203289L105.54396527777777,27.411901300829612L105.62960260416668,27.62071117074663L105.84773541666667,27.513640053671992L106.09172100694444,27.417276048304757L107.15814809027778,27.625548443474287L107.18400086805556,27.517993599126868L107.31164895833334,27.71619423921419L107.4506076388889,27.747074815292763L108.746478125,27.627367333763488L109.20536493055556,27.51963060038713L109.29100225694445,27.422667540348385L109.3410920138889,27.335400786313585L109.39926076388889,27.256860707682222L109.46227690972222,27.18617463691399L109.68525711805556,27.12255717322259L109.79028402777777,27.06530145590031L109.82744739583333,27.01377131031029L109.99872204861111,26.967394179279268L110.16838090277778,26.925654761351325L110.24270763888889,26.88808928521621L110.71936822916666,26.854280356694574L111.23965538194444,26.82385232102513L111.93121718750001,26.79646708892261L112.05886527777778,26.771820380030334L112.26245590277777,26.749638342027282L113.11721336805554,26.72967450782457L113.19800329861111,26.711707057042105L113.34827256944445,26.695536351337864L113.37412534722222,26.680982716204085L113.42259930555555,26.667884444583677L113.54055260416668,26.656096000125302L114.12385590277778,26.64548640011276L114.43085763888888,26.635937760101484L114.68938541666667,26.62734398409134L114.93983420138889,26.619609585682184L115.09010347222222,26.61264862711397L115.17897239583334,26.901383764402567L116.01272447916666,26.866245387962323L116.02565086805555,26.834620849166072L116.2647890625,26.80615876424946L116.34073159722222,26.780542887824538L116.81092899305554,26.75748859904209L116.90949270833335,26.736739739137874L117.16317309027778,26.718065765224082L117.44109045138889,26.70125918870164L117.80302934027777,26.68613326983146L117.85635069444444,26.67251994284831L118.10356788194444,26.660267948563472L118.1278048611111,26.649241153707123L118.71110815972222,26.6393170383364L119.09566822916666,26.630385334502762L119.10697881944445,26.62234680105246L119.11344201388889,26.615112120947202L119.11990520833334,26.60860090885248L119.3477328125,26.897740817967247L119.41882795138888,26.862966736170506L119.68705052083332,27.42167006255346L119.74521927083333,27.334503056298132L119.76945625,27.256052750668317L119.96012048611112,27.185447475601478L120.68722986111112,27.121902728041334L120.87466250000001,27.064712455237213L121.08471631944444,27.0132412097135L121.15742725694444,26.96691708874212L121.49836076388888,26.925225379867925L121.66963541666667,26.887702841881122L122.06389027777777,26.853932557693014L122.07681666666667,26.823539301923716L122.33857604166667,27.091185371731342L122.42421336805556,27.33206683455819L123.346834375,27.253860151102373L123.62152013888888,27.183474135992128L123.64414131944444,27.12012672239291L123.78471579861112,27.063114050153615L124.07394375,27.011802645138232L124.12726510416667,26.96562238062444L124.41649305555555,26.924060142561984L124.9012326388889,26.886654128305793L124.91092743055556,26.85298871547522L125.20015538194444,26.82268984392769L125.6461157986111,26.795420859534914L126.51056805555557,26.770878773581416L126.74485885416668,27.04379089622327L126.93229149305556,26.994411806600965L127.069634375,26.949970625940864L127.19566666666667,26.909973563346767L127.23929322916666,26.873976207012078L127.26676180555556,26.841578586310874L128.07627690972222,26.81242072767978L128.15221944444446,26.786178654911794L128.3477310763889,26.762560789420604L128.6838171875,26.741304710478545L128.73229114583333,26.7221742394307L129.55473263888888,26.704956815487634L129.56442743055555,26.689461133938863L129.599975,26.675515020544964L129.745396875,26.66296351849047L130.03300902777778,26.65166716664143L131.2125420138889,26.641500449977286L131.32726371527778,26.632350404979547L131.58902309027778,26.624115364481582L131.74413975694443,26.616703828033422L131.98004635416666,26.6100334452301L132.72169791666667,26.604030100707092L132.85096180555556,26.59862709063637L133.33085399305554,26.88876438157274L133.38094375,26.854887943415463L133.90930989583333,26.824399149073912L134.1516796875,26.796959234166508L134.46837621527777,26.772263310749878L134.6913564236111,26.75003697967489L134.8044623263889,26.730033281707392L134.806078125,26.71202995353667L134.94180520833334,26.695826958183005L135.19710138888888,26.681244262364686L135.51056631944445,26.668119836128227L135.70930954861112,26.656307852515397L135.88704739583332,26.645677067263847L136.09225381944444,26.931109360537477L136.5543722222222,26.89299842448372L136.57053020833334,26.858698582035345L136.83875277777778,26.8278287238318L137.16514409722222,26.80004585144863L137.7403684027778,26.77504126630376L137.8163109375,26.752537139673365L138.07160711805557,26.732283425706044L138.121696875,26.714055083135435L138.31559270833336,26.697649574821867L138.38345625,26.68288461733968L138.49009895833333,26.669596155605717L138.81002708333332,26.952636540045177L139.03947048611113,26.912372886040657L139.4418043402778,26.876135597436587L140.2319298611111,26.843522037692935L140.49207343749998,26.814169833923614L140.5373157986111,26.787752850531263L140.6100267361111,26.763977565478143L141.28704635416668,26.742579808930316L142.6168486111111,26.723321828037314L142.6459329861111,26.705989645233586L142.8026654513889,26.69039068071021L142.88507118055554,26.676351612639195L143.14521475694445,26.66371645137525L143.6929704861111,26.65234480623772L143.78830260416666,26.64211032561397L144.08399375,26.63289929305253L144.10661493055557,26.624609363747282L144.54288055555557,26.61714842737254L144.5768123263889,26.610433584635302L144.9694513888889,26.604390226171773L145.09709947916667,27.18895120355461L145.28614791666666,27.125056083199155L146.16998975694443,27.067550474879226L146.36065399305556,27.01579542739131L146.4834546875,26.969215884652186L146.9019465277778,26.927294296186943L147.03282621527777,26.889564866568264L147.7308512152778,26.855608379911416L147.93444184027777,26.82504754192027L147.97645260416667,26.797542787728247L148.16388524305557,26.772788508955443L148.41271822916667,26.750509658059883L148.5032029513889,26.730458692253876L148.58560868055554,26.71241282302853L148.62115625,26.696171540725658L148.67447760416667,26.68155438665309L148.71487256944445,26.668398947987782L149.13498020833333,26.656559053189L149.13821180555556,26.645903147870115L149.3030232638889,26.636312833083082L149.30787065972223,26.627681549774763L149.55670364583332,26.619913394797294L149.82331041666666,26.61292205531754L150.06568020833333,26.606629849785804L150.28542881944443,26.60096686480719L150.56011458333336,26.595870178326464L150.78471059027777,26.591283160493845L151.54575173611113,26.587154844444456L151.55383072916666,26.58343936L151.6297732638889,26.580095424000007L151.72672118055556,26.577085881600027L151.7638845486111,26.574377293439994L152.18883958333333,26.571939564096L152.20015017361112,26.5697456076864L153.34251979166666,26.567771046917755L153.7787854166667,26.565993942225987L154.2602934027778,26.564394548003378L154.2893777777778,26.562955093203044L154.41864166666667,26.561659583882744L155.00194496527777,26.560493625494473L155.27824652777778,26.55944426294502L155.4705265625,26.558499836650526L155.81469166666665,26.557649852985463L155.89709739583336,26.85188486768692L156.12977239583336,26.821696380918212L156.20571493055556,26.794526742826406L156.39476336805555,26.77007406854375L156.58219600694446,26.748066661689364L156.59350659722222,26.72825999552046L157.05400920138888,26.7104339959684L157.59045434027777,26.694390596371534L158.0299515625,26.679951536734393L158.18991562500003,26.66695638306095L158.5680125,26.655260744754855L158.6859657986111,26.644734670279348L158.77806631944443,26.635261203251417L159.6021236111111,26.626735082926274L159.71199791666666,26.619061574633633L159.8364144097222,26.61215541717027L159.85903559027778,26.60593987545326L159.92205173611111,26.600345887907935L159.9737572916667,26.595311299117128L160.64108211805555,26.59078016920543L160.93031006944446,26.586702152284886L161.54108194444444,26.583031937056404L161.63156666666666,26.579728743350756L161.6380298611111,26.5767558690157L161.74305677083333,26.574080282114124L161.84808368055553,26.571672253902705L162.21163836805556,26.569505028512452L162.23749114583333,26.567554525661194L162.47016614583333,26.565799073095064L162.51217690972223,26.564219165785545L162.5719614583333,26.562797249206994L163.19081232638888,26.561517524286273L163.22151250000002,26.560365771857647L163.38632395833332,26.559329194671903L163.81289479166668,26.5583962752047L163.99548003472222,26.55755664768421L164.0520329861111,26.556800982915775L164.73551579861112,26.55612088462422L166.00230190972223,26.555508796161774L166.05723906249997,26.554957916545618L166.18488715277778,26.554462124891046L166.5500576388889,26.55401591240195L166.63407916666665,26.553614321161746L166.8602909722222,26.55325288904558L167.25293003472223,26.552927600141032L167.6601112847222,26.552634840126927L167.9202548611111,26.552371356114236L168.311278125,26.552134220502808L168.36298368055557,26.551920798452556L168.7055329861111,26.551728718607308L169.01576631944445,26.551555846746567L169.15310920138887,26.551400262071894L169.36639461805555,26.551260235864703L169.69278593750002,26.551134212278214L169.74449149305553,26.551020791050405L169.80427604166667,26.550918711945343L169.93353993055555,26.55082684075083L170.1775255208333,26.550744156675762L170.48129565972224,26.550669741008164L170.53138541666667,26.55060276690736L170.58470677083335,26.5505424902166L170.76890781249998,26.550488241194927L170.870703125,26.550439417075438L171.2520315972222,26.550395475367907L171.29888975694445,26.550355927831077L172.53659149305557,26.550320335047985L172.557596875,26.55028830154319L172.673934375,26.55025947138887L172.90499357638888,26.55023352424999L173.52707604166667,26.550210171825L173.6191765625,26.55018915464248L173.79045121527776,26.550170239178243L173.89547812499998,26.845153215260382L173.9681890625,26.815637893734362L174.23156423611113,26.789074104360935L174.72923020833335,26.76516669392481L175.5969140625,26.743650024532343L175.82474166666668,26.7242850220791L176.5470036458333,26.706856519871195L176.68434652777776,26.69117086788407L176.71019930555556,26.67705378109565L177.327434375,26.664348402986093L177.35490295138888,26.652913562687473L177.56495677083333,26.642622206418736L177.69583645833333,26.63335998577685L177.79601597222222,26.62502398719917L178.1224072916667,26.617521588479235L178.46657239583334,26.61076942963129L179.47483072916665,26.60469248666817L179.5071467013889,26.599223238001343L179.84000121527777,26.5943009142012L180.1211501736111,26.58987082278108L180.3635199652778,26.585883740502965L180.39583593749998,26.582295366452655L180.40068333333332,26.579065829807405L180.53802621527777,26.576159246826677L180.5428736111111,26.57354332214402L181.1229453125,26.571188989929624L181.16495607638888,26.569070090936634L182.14897743055556,26.567163081842978L182.2443095486111,26.565446773658692L182.79044947916665,26.56390209629282L182.94718194444445,26.562511886663543L183.34789999999998,26.56126069799717L184.04269340277776,26.56013462819743L184.8166609375,26.55912116537769L185.06872552083334,26.558209048839927L185.4694435763889,26.557388143955933L185.6423340277778,26.556649329560344L185.9105565972222,26.555984396604288L186.11576302083333,26.555385956943837L186.33712743055557,26.55484736124947L186.42761215277778,26.554362625124526L186.47931770833333,26.55392636261206L186.59403940972223,26.55353372635085L187.20804288194444,26.55318035371576L187.35184895833333,26.552862318344182L187.38901232638887,26.55257608650976L187.92061006944445,26.55231847785879L188.29870694444446,26.552086630072893L188.4037338541667,26.55187796706562L189.07913767361111,26.551690170359052L189.30211788194444,26.551521153323137L189.4152237847222,26.55136903799081L189.5283296875,26.551232134191736L189.72222552083332,26.55110892077255L189.79332065972224,26.55099802869529L190.01306927083334,26.55089822582576L190.24897586805554,26.550808403243195L190.33622899305558,26.84572756291888L190.46549288194444,26.816154806626997L190.64323072916665,27.0845393259643L190.89044791666666,27.031085393367846L191.0084012152778,27.277976854031067L191.3186345486111,27.20517916862795L191.4317404513889,27.139661251765176L191.51091458333332,27.375695126588653L192.37051944444445,27.29312561392979L193.09924461805556,27.218813052536802L193.27051927083332,27.15193174728313L193.27375086805557,27.091738572554817L193.71001649305555,27.03756471529934L194.3563359375,26.988808243769398L194.81199114583333,26.944927419392457L194.8491545138889,26.90543467745323L195.1109138888889,27.164891209707918L195.28380434027778,27.103402088737113L195.37913645833333,27.04806187986341L195.39367864583332,26.998255691877063L195.50840034722222,26.953430122689355L195.62958524305557,26.913087110420435L195.76369652777777,26.876778399378395L195.89134461805554,26.844100559440562L196.05454027777776,26.814690503496507L196.08685625,26.78822145314686L196.20965694444445,26.76439930783218L196.30175746527777,26.742959377048948L196.31953125,26.72366343934405L197.0046298611111,26.70629709540964L197.03694583333333,26.690667385868693L197.6250965277778,26.676600647281816L197.9514878472222,26.663940582553636L198.00319340277778,26.65254652429826L198.09044652777777,26.64229187186845L198.23586840277778,26.63306268468159L198.55094913194444,26.624756416213444L198.6010388888889,26.617280774592075L198.6899078125,26.610552697132874L198.74646076388888,26.604497427419602L198.76261875,26.59904768467763L199.07769947916665,26.594142916209847L199.4913439236111,26.589728624588872L199.5802128472222,26.585755762129992L200.27500625,26.582180185916997L200.80660399305555,26.578962167325273L200.90032031249999,26.576065950592778L201.49816579861113,26.573459355533487L201.66620885416668,26.57111341998015L201.6888300347222,26.569002077982134L201.71953020833334,26.567101870183905L201.7857779513889,26.56539168316553L201.80839913194444,26.563852514848975L201.8326361111111,26.562467263364084L201.85364149305556,26.56122053702768L201.9166576388889,26.560098483324907L202.12671145833332,26.559088634992406L202.40462881944444,26.558179771493144L202.67769878472222,26.557361794343848L202.96207934027777,26.55662561490948L203.1107328125,26.555963053418537L203.2270703125,26.555366748076665L203.24969149305556,26.554830073269017L203.93155850694444,26.554347065942096L204.0236590277778,26.55391235934789L204.22240225694443,26.553521123413105L204.5067828125,26.553169011071788L204.6683626736111,26.55285210996459L204.83478993055556,26.552566898968138L205.37446666666665,26.552310209071322L206.44250954861113,26.552079188164214L206.50714149305557,27.141871269347803L206.56046284722223,27.082684142412973L206.85776979166667,27.0294157281717L207.54933159722222,26.981474155354505L207.77069600694443,26.938326739819047L208.83065989583332,26.899494065837132L208.83227569444443,26.864544659253454L208.9259920138889,26.833090193328076L209.2491517361111,26.80478117399528L209.37679982638886,26.779303056595722L209.76782309027777,26.75637275093615L210.15723055555554,26.735735475842517L210.36405277777777,26.717161928258264L210.41737413194443,26.700445735432453L210.7308390625,26.68540116188919L210.82778697916666,26.67186104570027L211.00229322916667,26.65967494113025L211.06046197916666,26.648707447017216L211.0911621527778,26.6388367023155L211.24627881944443,26.629953032083932L211.9846987847222,26.621957728875543L212.05094652777777,26.614761955987973L212.19313680555555,26.60828576038918L212.55184409722222,26.60245718435027L212.79906128472223,26.597211465915223L213.1044472222222,26.59249031932373L213.14968958333333,26.588241287391355L214.0464578125,26.58441715865223L214.35992274305553,26.875975442786995L214.4229388888889,26.843377898508294L214.7444828125,26.81404010865748L215.42311822916668,26.787636097791705L215.65094583333334,26.763872488012538L215.8545364583333,26.742485239211277L216.10013784722221,26.72323671529017L216.4863137152778,26.705913043761143L216.99044288194446,26.690321739385013L217.26028125,26.676289565446496L217.27320763888886,26.663660608901864L217.84358454861112,26.652294548011668L218.28954496527777,26.93706509321052L218.37518229166668,26.89835858388946L218.95202239583335,26.863522725500502L218.97141197916667,26.832170452950436L219.37051423611112,26.8039534076554L219.3818248263889,26.77855806688987L219.55309947916666,26.755702260200877L219.81324305555555,26.735132034180793L219.95866493055556,26.716618830762712L220.48218368055555,26.699956947686445L220.75848524305556,26.684961252917788L220.837659375,26.67146512762602L220.89905972222223,26.659318614863423L220.953996875,26.648386753377082L221.01539722222222,26.63854807803935L221.07841336805555,26.629693270235407L221.26584600694443,26.62172394321189L221.39187829861112,26.762051548890696L221.41449947916666,26.740846394001608L221.44196805555558,26.72176175460146L221.61647430555556,26.70458557914131L222.3920576388889,26.689127021227165L222.69905937500002,26.67521431910447L222.8864920138889,26.662692887193998L223.2419677083333,26.651423598474594L223.28882586805557,26.64128123862713L224.03370902777777,26.632153114764435L224.44896927083335,26.623937803287987L224.49582743055555,26.616544022959175L224.59439114583333,26.609889620663267L225.0855939236111,26.603900658596928L225.35704809027777,26.893510592737215L226.17948958333332,26.859159533463497L226.2037265625,26.828243580117146L226.68361875,26.80041922210546L227.59331336805556,26.7753772998949L227.69026128472223,26.752839569905404L228.13945329861113,26.732555612914837L228.1410690972222,26.714300051623354L228.32042274305556,26.69787004646102L228.36566510416668,26.68308304181491L228.4141390625,26.669774737633418L228.48038680555555,26.657797263870066L228.66781944444446,26.647017537483038L229.17841180555556,26.63731578373475L229.24627534722222,26.62858420536128L229.30444409722222,26.62072578482514L229.77625729166667,26.61365320634266L229.82634704861113,26.607287885708388L230.29977604166666,26.60155909713754L230.4500453125,26.59640318742379L230.46943489583333,26.5917628686814L230.63909375,26.58758658181327L231.17069149305556,26.58382792363193L232.04483854166665,26.58044513126876L232.08361770833335,26.577400618141866L232.1369390625,26.5746605563277L232.84304305555557,26.572194500694906L232.94968576388888,26.569975050625402L232.994928125,26.567977545562883L233.53622065972223,26.56617979100656L233.8254486111111,26.564561811905918L233.90462274305554,26.56310563071534L233.90947013888888,26.5617950676438L233.92724392361112,26.560615560879427L233.9983390625,26.559554004791465L234.36189374999998,26.558598604312323L234.76099600694442,26.55773874388109L236.62562760416665,26.556964869492987L237.01826666666665,26.556268382543664L237.4189847222222,26.5556415442893L237.5046220486111,26.555077389860372L237.68074409722223,26.849569650874344L237.8956453125,26.819612685786893L238.19295225694444,26.79265141720822L238.39977447916667,26.768386275487387L238.48541180555557,26.746547647938655L238.5532753472222,26.726892883144785L238.72939739583333,27.0042035948303L238.74070798611112,27.25378323534727L238.79241354166666,27.183404911812545L238.84411909722223,27.12006442063131L238.9426828125,27.358057978568155L238.9717671875,27.57225218071133L239.3207796875,27.47002696264022L239.63101302083334,27.3780242663762L239.7990560763889,27.295221839738588L239.89923559027778,27.22069965576472L240.1803845486111,27.15362969018824L240.51647065972224,27.093266721169414L240.9915154513889,27.333940049052472L241.05614739583334,27.255546044147223L241.2694328125,27.1849914397325L241.41162309027777,27.121492295759253L241.4310126736111,27.06434306618334L241.44393906250002,27.012908759564993L241.48918142361111,26.966617883608507L241.56673975694446,26.924956095247637L241.6362190972222,26.88746048572287L241.84142552083333,27.148714437150602L242.08702690972223,27.08884299343552L242.25022256944445,27.034958694091955L242.48612916666667,26.986462824682775L242.6380142361111,26.9428165422145L242.8819998263889,26.903534887993032L243.5073138888889,26.86818139919376L243.55578784722223,26.83636325927438L243.86763697916666,26.807726933346913L243.96458489583333,26.781954240012226L244.0049798611111,26.75875881601101L244.78056319444445,26.737882934409896L244.79833697916666,26.719094640968876L245.08594913194446,26.702185176872007L245.1231125,26.686966659184804L245.17320225694445,26.67326999326633L245.40264565972222,26.66094299393967L245.42526684027777,26.64984869454571L246.42059878472222,26.63986382509114L246.6952845486111,26.630877442582033L247.08307621527777,26.622789698323857L247.10892899305554,26.615510728491444L247.32706180555556,26.60895965564231L247.5516578125,26.603063690078073L247.73262725694445,26.597757321070276L248.02023940972222,26.592981588963227L248.0719449652778,26.588683430066936L248.18828246527778,26.584815087060207L248.60839010416666,26.58133357835419L248.8459125,26.578200220518767L249.4421421875,26.57538019846689L249.46314756944446,26.572842178620192L249.6004904513889,26.57055796075818L250.17409895833333,26.56850216468237L250.2112623263889,26.566651948214144L250.21934131944445,26.56498675339273L250.25165729166667,26.56348807805344L250.42293194444446,26.56213927024811L250.97876666666667,26.56092534322329L251.44411666666667,26.55983280890098L251.85937690972222,26.55884952801088L252.40390104166667,26.55796457520978L252.51862274305557,26.557168117688803L252.64465503472223,26.556451305919893L253.15363159722222,26.555806175327916L253.16171059027778,26.555225557795126L253.18594756944444,26.55470300201563L253.7191611111111,26.554232701814044L253.77086666666668,26.55380943163263L254.08917899305555,26.553428488469365L254.46081267361112,26.553085639622424L254.5949239583333,26.552777075660202L254.62562413194445,26.552499368094175L254.79205138888886,26.552249431284764L254.88415190972222,26.847024488156308L255.24285920138888,26.817322039340667L255.5498609375,26.790589835406593L256.0152109375,26.766530851865923L256.0604532986111,26.744877766679338L256.19941197916665,26.725389990011422L256.81503125,26.707850991010275L256.8505788194445,26.692065891909266L257.33047100694444,26.677859302718332L257.5647618055556,26.6650733724465L257.6390885416667,26.653566035201834L258.4889986111111,26.64320943168164L258.55363055555557,26.63388848851349L258.56655694444447,26.625499639662138L258.6021045138889,26.61794967569591L258.6182625,26.61115470812635L258.74106319444445,26.60503923731369L258.7960003472222,26.59953531358235L258.9365748263889,26.594581782224083L258.9866645833333,26.59012360400169L259.74124253472223,26.586111243601522L260.02723888888886,26.58250011924136L260.1274184027778,26.874250107317238L260.5038994791667,26.841825096585495L260.5135942708333,26.812642586926955L261.5234684027778,26.786378328234264L261.5816371527778,26.76274049541081L261.7383696180556,26.741466445869747L262.05021875,26.722319801282765L262.07768732638885,26.70508782115448L262.079303125,26.689579039039046L262.5624269097222,26.675621135135117L262.6205956597222,26.663059021621592L262.97445555555555,26.94675311945946L263.20228315972224,26.907077807513502L263.6773279513889,26.87137002676215L263.92939253472224,26.839233024085928L264.1604517361111,26.810309721677328L264.29941041666666,26.784278749509582L264.3155684027778,26.760850874558628L264.5433960069444,27.03476578710277L264.6161069444444,27.28128920839245L264.65650190972224,27.503160287553214L264.86009253472224,27.407844258797894L264.9731984375,27.322059832918114L265.2462684027778,27.24485384962631L265.35775850694444,27.175368464663677L265.45309062499996,27.112831618197276L265.64537065972223,27.056548456377556L265.8457296875,27.005893610739804L265.8796614583333,26.960304249665825L267.0608102430555,27.50927382469925L267.5972553819444,27.41334644222931L267.61502916666666,27.327011798006367L267.75721944444444,27.249310618205755L267.8202355902778,27.179379556385186L267.88648333333333,27.11644160074664L268.11431093749997,27.059797440671986L268.7283144097222,27.00881769660478L268.8688888888889,26.96293592694431L269.3487810763889,26.921642334249896L270.31826024305553,26.88447810082488L270.4152081597222,26.851030290742386L270.4313661458333,26.820927261668146L270.6333409722222,27.08883453550132L271.5575777777778,27.03495108195122L271.7611684027778,26.98645597375608L271.92113246527776,26.942810376380464L272.1408810763889,26.903529338742402L272.33800850694445,26.868176404868166L272.4317248263889,26.836358764381345L272.54321493055556,26.807722887943214L272.549678125,26.781950599148928L272.7128737847222,26.758755539234016L272.85183246527777,26.737879985310627L272.87606944444445,26.719091986779546L273.7857640625,26.702182788101595L273.96834930555553,26.686964509291414L274.17517152777776,26.9682680583623L274.19940850694445,26.926441252526047L274.3125144097222,26.88879712727345L274.5031786458333,26.854917414546122L274.585584375,26.824425673091497L274.69707447916664,26.796983105782346L274.70353767361115,26.772284795204115L275.5550635416667,26.750056315683707L275.5857637152778,26.730050684115326L275.71502760416666,26.712045615703772L275.9121550347222,26.695841054133382L276.0818138888889,26.681256948720062L276.37104184027777,26.66813125384806L276.39366302083334,26.656318128463255L276.45183177083334,26.645686315616928L276.5180795138889,26.636117684055222L276.66996458333335,26.62750591564972L276.7491387152778,26.619755324084764L276.77499149305555,26.612779791676274L276.90587118055555,26.606501812508668L277.0399824652778,26.60085163125777L277.18055694444445,26.595766468132013L277.2096413194444,26.591189821318807L277.42777413194443,26.587070839186936L277.64752274305556,26.583363755268238L278.2728368055555,26.58002737974141L278.33262135416663,26.577024641767252L278.76403958333333,26.574322177590545L279.0968940972222,26.57188995983148L279.1566786458333,26.569700963848305L280.4331595486111,26.567730867463467L280.54141805555554,26.565957780717127L280.63998177083334,26.564362002645424L280.80317743055554,26.562925802380875L281.22166927083333,26.561633222142802L281.3250803819444,26.560469899928506L281.3719385416667,26.559422909935677" style="fill: none;" fill="none"></path></g></g></g></g><g opacity="0.2"><g><g><g><path stroke="rgb(255, 112, 67)" stroke-width="2px" d="M32.3854515625,147.5L32.587426388888886,138.65L32.687605902777776,141.6L33.0834765625,144.55L33.183656076388885,150.45L33.253135416666666,141.6L33.264446006944446,150.45L33.342004340277775,150.45L33.36300972222222,150.45L33.47126822916667,144.55L33.623153298611115,147.5L33.956007812500005,147.5L34.47144756944444,144.55L34.55546909722222,141.6L34.5667796875,150.45L34.63787482638889,150.45L35.1193828125,141.6L35.12423020833333,141.6L35.35044201388889,138.65L35.41507395833333,141.6L35.607353993055554,147.5L36.04523541666667,150.45L36.177730902777775,146.5166647911072L36.332847569444446,144.55L36.33446336805555,144.55L36.65600729166667,147.5L37.22638420138889,141.6L37.53661753472222,147.5L37.5624703125,144.55L37.657802430555556,147.5L38.163547395833334,147.5L38.16677899305556,147.5L38.247568923611105,138.65L38.491554513888886,138.65L38.70968732638889,144.55L39.292990625,138.65L39.42710190972222,115.05000000000001L39.57575538194445,120.95L39.60322395833333,120.95L39.87306232638888,112.10000000000001L40.054031770833326,73.75L40.349722916666664,103.25L40.61309809027778,85.55L40.95403159722222,73.75L40.97665277777778,73.75L41.564803472222216,53.10000000000001L41.79263107638889,47.20000000000002L41.86211041666667,67.85L41.99622170138888,59L42.33553940972222,109.14999999999999L42.36623958333333,61.95L43.14182291666667,44.25L43.1612125,41.29999999999998L43.392271701388886,29.5L43.57324114583333,41.29999999999998L43.878627083333335,64.9L44.37144565972223,29.5L44.37629305555556,35.400000000000006L44.917585590277774,97.35L44.97413854166667,97.35L45.35061961805555,53.10000000000001L45.53482065972223,41.29999999999998L45.60106840277778,47.20000000000002L46.04864461805556,32.44999999999999L46.064802604166665,32.44999999999999L46.21507187500001,53.10000000000001L46.66264809027778,32.44999999999999L46.75474861111111,32.44999999999999L47.27988315972222,32.44999999999999L47.61596927083334,26.55000000000001L47.75492795138889,44.25L47.775933333333334,44.25L47.98760295138889,29.5L49.12027777777778,26.55000000000001L49.249541666666666,29.5L49.319021006944446,29.5L49.45636388888889,32.44999999999999L49.73589704861111,26.55000000000001L49.93302447916666,32.44999999999999L49.937871875,32.44999999999999L50.036435590277776,35.400000000000006L50.12368871527778,38.349999999999994L50.25618420138889,32.44999999999999L50.95097760416667,35.400000000000006L51.00591475694445,35.400000000000006L51.19819479166667,29.5L51.317763888888884,29.5L51.65708159722222,32.44999999999999L51.66516059027778,32.44999999999999L51.97216232638888,26.55000000000001L52.17575295138889,29.5L53.124226736111105,29.5L53.37790711805556,35.400000000000006L53.421533680555555,26.55000000000001L54.28760173611111,35.400000000000006L54.324765104166666,29.5L54.63176684027778,29.5L55.295860069444444,32.44999999999999L55.41381336805555,32.44999999999999L55.48490850694445,35.400000000000006L55.661030555555556,29.5L55.96964809027777,29.5L56.01812204861111,29.5L56.19747569444444,29.5L56.34936076388889,29.5L57.318839930555555,29.5L57.37377708333334,29.5L57.78903732638889,26.55000000000001L58.3577984375,32.44999999999999L58.68903715277777,26.55000000000001L59.55510520833334,29.5L59.89280711805555,26.55000000000001L59.942896875,26.55000000000001L60.29837256944444,26.55000000000001L60.333920138888885,26.55000000000001L60.66354305555556,29.5L60.68616423611111,29.5L62.13068819444444,26.55000000000001L63.20519427083333,29.5L63.29083159722222,29.5L63.87575069444444,26.55000000000001L64.05187274305555,26.55000000000001L64.07449392361112,26.55000000000001L64.19891041666666,29.5L64.62548125,26.55000000000001L64.71919756944445,29.5L64.73373975694444,29.5L64.85654045138888,28.025000000000006L65.02781510416666,29.5L65.04074149305556,29.5L65.15546319444445,35.400000000000006L65.34451163194444,29.5L65.50447569444444,26.55000000000001L65.56749184027778,26.55000000000001L65.89226736111111,29.5L65.89711475694445,26.55000000000001L66.01506805555556,26.55000000000001L66.37862274305556,32.44999999999999L66.48203385416667,26.55000000000001L66.62422413194444,28.025000000000006L66.76479861111112,28.025000000000006L67.09442152777778,26.55000000000001L67.61955607638889,29.5L68.261028125,29.5L68.39837100694444,29.5L68.44361336805555,26.55000000000001L69.70393628472222,26.55000000000001L69.72009427083333,26.55000000000001L69.79118940972222,26.55000000000001L69.8332001736111,29.5L69.94307447916667,29.5L70.064259375,32.44999999999999L70.17090208333333,26.55000000000001L70.35348732638889,26.55000000000001L70.56354114583334,26.55000000000001L70.58131493055555,26.55000000000001L70.61363090277777,26.55000000000001L70.9965751736111,29.5L71.33427708333333,29.5L71.55240989583334,29.5L71.55564149305556,29.5L71.61704184027778,29.5L72.100165625,29.5L72.25851388888888,29.5L72.27144027777778,29.5L72.55258923611112,26.55000000000001L72.60591059027777,26.55000000000001L73.12135034722222,29.5L73.2489984375,26.55000000000001L73.34433055555556,26.55000000000001L74.02458177083334,29.5L74.08113472222222,29.5L74.20070381944444,29.5L74.81793888888889,29.5L75.61614340277778,26.55000000000001L75.61775920138888,26.55000000000001L76.19298350694444,26.55000000000001L76.2010625,26.55000000000001L76.76012881944445,26.55000000000001L76.91847708333334,29.5L76.97503003472222,26.55000000000001L77.277184375,29.5L77.4242220486111,26.55000000000001L78.26766892361111,29.5L78.43732777777777,26.55000000000001L79.12727378472222,29.5L79.1692845486111,29.5L79.27592725694444,29.5L79.5005232638889,26.55000000000001L79.60070277777777,26.55000000000001L79.93678888888888,26.55000000000001L79.96264166666666,29.5L80.16300069444443,26.55000000000001L80.51524479166666,29.5L80.79962534722222,29.5L80.84163611111111,29.5L81.0726953125,26.55000000000001L81.3199125,26.55000000000001L81.55097170138889,28.025000000000006L81.78041510416666,26.55000000000001L81.93230017361111,26.55000000000001L81.95492135416667,26.55000000000001L83.06335920138888,26.55000000000001L83.12314375,26.55000000000001L83.5319407986111,26.55000000000001L83.82924774305556,26.55000000000001L83.91973246527778,26.55000000000001L84.02960677083333,26.55000000000001L84.35761388888889,26.55000000000001L84.72601597222223,26.55000000000001L84.89890642361111,29.5L85.08472326388889,26.55000000000001L85.25438211805555,29.5L85.46766753472222,29.5L85.48059392361111,29.5L85.69387934027777,29.5L85.93140173611111,26.55000000000001L86.07682361111112,29.5L86.24486666666667,26.55000000000001L86.29010902777777,26.55000000000001L86.82978576388889,29.5L86.84917534722221,26.55000000000001L86.87987552083334,26.55000000000001L86.90734409722224,29.5L86.99459722222223,29.5L87.05438177083333,29.5L87.11416631944445,26.55000000000001L87.31290954861112,26.55000000000001L87.83965989583334,26.55000000000001L87.87359166666666,26.55000000000001L88.10303506944445,26.55000000000001L88.22260416666667,26.55000000000001L88.51991111111111,26.55000000000001L89.40860034722223,26.55000000000001L89.44253211805555,26.55000000000001L89.47969548611111,26.55000000000001L89.65097013888888,26.55000000000001L89.79639201388889,29.5L90.11632013888888,26.55000000000001L90.24235243055556,29.5L90.41039548611111,26.55000000000001L90.4378640625,26.55000000000001L90.54612256944445,26.55000000000001L90.88382447916666,29.5L90.9306826388889,29.5L91.50267534722222,26.55000000000001L91.55114930555555,26.55000000000001L91.72565555555555,32.44999999999999L91.85976684027777,26.55000000000001L91.95186736111111,26.55000000000001L92.42852795138889,26.55000000000001L92.89226215277777,26.55000000000001L93.33660677083334,26.55000000000001L93.51757621527777,26.55000000000001L94.0281685763889,26.55000000000001L94.42727083333332,26.55000000000001L94.45312361111111,26.55000000000001L94.88131024305555,26.55000000000001L95.07520607638888,32.44999999999999L95.30303368055556,26.55000000000001L95.81201024305555,26.55000000000001L96.46802447916667,29.5L96.59567256944445,26.55000000000001L96.75240503472223,29.5L96.80249479166666,29.5L96.9818484375,29.5L97.42780885416667,26.55000000000001L97.75743177083334,26.55000000000001L98.02080694444444,26.55000000000001L98.02727013888888,26.55000000000001L98.08059149305556,29.5L98.11290746527779,26.55000000000001L98.2308607638889,26.55000000000001L98.62996302083333,32.44999999999999L98.9595859375,26.55000000000001L99.00321249999999,26.55000000000001L99.11631840277776,29.5L99.43624652777778,26.55000000000001L99.46209930555555,26.55000000000001L100.3976467013889,26.55000000000001L100.90823906249999,26.55000000000001L100.93732343750001,26.55000000000001L101.27664114583334,26.55000000000001L102.63391197916667,26.55000000000001L102.77771805555555,26.55000000000001L102.82942361111111,26.55000000000001L102.94576111111112,26.55000000000001L102.98938767361112,26.55000000000001L102.99585086805556,26.55000000000001L103.09764618055556,26.55000000000001L103.40141631944445,29.5L103.53068020833332,26.55000000000001L103.73588663194444,26.55000000000001L103.74719722222221,26.55000000000001L103.81829236111112,29.5L103.90392968750001,26.55000000000001L104.73121857638888,29.5L104.97035677083333,29.5L105.52942309027777,26.55000000000001L105.54396527777777,26.55000000000001L105.62960260416668,29.5L105.84773541666667,26.55000000000001L106.09172100694444,26.55000000000001L107.15814809027778,29.5L107.18400086805556,26.55000000000001L107.31164895833334,29.5L107.4506076388889,28.025000000000006L108.746478125,26.55000000000001L109.20536493055556,26.55000000000001L109.29100225694445,26.55000000000001L109.3410920138889,26.55000000000001L109.39926076388889,26.55000000000001L109.46227690972222,26.55000000000001L109.68525711805556,26.55000000000001L109.79028402777777,26.55000000000001L109.82744739583333,26.55000000000001L109.99872204861111,26.55000000000001L110.16838090277778,26.55000000000001L110.24270763888889,26.55000000000001L110.71936822916666,26.55000000000001L111.23965538194444,26.55000000000001L111.93121718750001,26.55000000000001L112.05886527777778,26.55000000000001L112.26245590277777,26.55000000000001L113.11721336805554,26.55000000000001L113.19800329861111,26.55000000000001L113.34827256944445,26.55000000000001L113.37412534722222,26.55000000000001L113.42259930555555,26.55000000000001L113.54055260416668,26.55000000000001L114.12385590277778,26.55000000000001L114.43085763888888,26.55000000000001L114.68938541666667,26.55000000000001L114.93983420138889,26.55000000000001L115.09010347222222,26.55000000000001L115.17897239583334,29.5L116.01272447916666,26.55000000000001L116.02565086805555,26.55000000000001L116.2647890625,26.55000000000001L116.34073159722222,26.55000000000001L116.81092899305554,26.55000000000001L116.90949270833335,26.55000000000001L117.16317309027778,26.55000000000001L117.44109045138889,26.55000000000001L117.80302934027777,26.55000000000001L117.85635069444444,26.55000000000001L118.10356788194444,26.55000000000001L118.1278048611111,26.55000000000001L118.71110815972222,26.55000000000001L119.09566822916666,26.55000000000001L119.10697881944445,26.55000000000001L119.11344201388889,26.55000000000001L119.11990520833334,26.55000000000001L119.3477328125,29.5L119.41882795138888,26.55000000000001L119.68705052083332,32.44999999999999L119.74521927083333,26.55000000000001L119.76945625,26.55000000000001L119.96012048611112,26.55000000000001L120.68722986111112,26.55000000000001L120.87466250000001,26.55000000000001L121.08471631944444,26.55000000000001L121.15742725694444,26.55000000000001L121.49836076388888,26.55000000000001L121.66963541666667,26.55000000000001L122.06389027777777,26.55000000000001L122.07681666666667,26.55000000000001L122.33857604166667,29.5L122.42421336805556,29.5L123.346834375,26.55000000000001L123.62152013888888,26.55000000000001L123.64414131944444,26.55000000000001L123.78471579861112,26.55000000000001L124.07394375,26.55000000000001L124.12726510416667,26.55000000000001L124.41649305555555,26.55000000000001L124.9012326388889,26.55000000000001L124.91092743055556,26.55000000000001L125.20015538194444,26.55000000000001L125.6461157986111,26.55000000000001L126.51056805555557,26.55000000000001L126.74485885416668,29.5L126.93229149305556,26.55000000000001L127.069634375,26.55000000000001L127.19566666666667,26.55000000000001L127.23929322916666,26.55000000000001L127.26676180555556,26.55000000000001L128.07627690972222,26.55000000000001L128.15221944444446,26.55000000000001L128.3477310763889,26.55000000000001L128.6838171875,26.55000000000001L128.73229114583333,26.55000000000001L129.55473263888888,26.55000000000001L129.56442743055555,26.55000000000001L129.599975,26.55000000000001L129.745396875,26.55000000000001L130.03300902777778,26.55000000000001L131.2125420138889,26.55000000000001L131.32726371527778,26.55000000000001L131.58902309027778,26.55000000000001L131.74413975694443,26.55000000000001L131.98004635416666,26.55000000000001L132.72169791666667,26.55000000000001L132.85096180555556,26.55000000000001L133.33085399305554,29.5L133.38094375,26.55000000000001L133.90930989583333,26.55000000000001L134.1516796875,26.55000000000001L134.46837621527777,26.55000000000001L134.6913564236111,26.55000000000001L134.8044623263889,26.55000000000001L134.806078125,26.55000000000001L134.94180520833334,26.55000000000001L135.19710138888888,26.55000000000001L135.51056631944445,26.55000000000001L135.70930954861112,26.55000000000001L135.88704739583332,26.55000000000001L136.09225381944444,29.5L136.5543722222222,26.55000000000001L136.57053020833334,26.55000000000001L136.83875277777778,26.55000000000001L137.16514409722222,26.55000000000001L137.7403684027778,26.55000000000001L137.8163109375,26.55000000000001L138.07160711805557,26.55000000000001L138.121696875,26.55000000000001L138.31559270833336,26.55000000000001L138.38345625,26.55000000000001L138.49009895833333,26.55000000000001L138.81002708333332,29.5L139.03947048611113,26.55000000000001L139.4418043402778,26.55000000000001L140.2319298611111,26.55000000000001L140.49207343749998,26.55000000000001L140.5373157986111,26.55000000000001L140.6100267361111,26.55000000000001L141.28704635416668,26.55000000000001L142.6168486111111,26.55000000000001L142.6459329861111,26.55000000000001L142.8026654513889,26.55000000000001L142.88507118055554,26.55000000000001L143.14521475694445,26.55000000000001L143.6929704861111,26.55000000000001L143.78830260416666,26.55000000000001L144.08399375,26.55000000000001L144.10661493055557,26.55000000000001L144.54288055555557,26.55000000000001L144.5768123263889,26.55000000000001L144.9694513888889,26.55000000000001L145.09709947916667,32.44999999999999L145.28614791666666,26.55000000000001L146.16998975694443,26.55000000000001L146.36065399305556,26.55000000000001L146.4834546875,26.55000000000001L146.9019465277778,26.55000000000001L147.03282621527777,26.55000000000001L147.7308512152778,26.55000000000001L147.93444184027777,26.55000000000001L147.97645260416667,26.55000000000001L148.16388524305557,26.55000000000001L148.41271822916667,26.55000000000001L148.5032029513889,26.55000000000001L148.58560868055554,26.55000000000001L148.62115625,26.55000000000001L148.67447760416667,26.55000000000001L148.71487256944445,26.55000000000001L149.13498020833333,26.55000000000001L149.13821180555556,26.55000000000001L149.3030232638889,26.55000000000001L149.30787065972223,26.55000000000001L149.55670364583332,26.55000000000001L149.82331041666666,26.55000000000001L150.06568020833333,26.55000000000001L150.28542881944443,26.55000000000001L150.56011458333336,26.55000000000001L150.78471059027777,26.55000000000001L151.54575173611113,26.55000000000001L151.55383072916666,26.55000000000001L151.6297732638889,26.55000000000001L151.72672118055556,26.55000000000001L151.7638845486111,26.55000000000001L152.18883958333333,26.55000000000001L152.20015017361112,26.55000000000001L153.34251979166666,26.55000000000001L153.7787854166667,26.55000000000001L154.2602934027778,26.55000000000001L154.2893777777778,26.55000000000001L154.41864166666667,26.55000000000001L155.00194496527777,26.55000000000001L155.27824652777778,26.55000000000001L155.4705265625,26.55000000000001L155.81469166666665,26.55000000000001L155.89709739583336,29.5L156.12977239583336,26.55000000000001L156.20571493055556,26.55000000000001L156.39476336805555,26.55000000000001L156.58219600694446,26.55000000000001L156.59350659722222,26.55000000000001L157.05400920138888,26.55000000000001L157.59045434027777,26.55000000000001L158.0299515625,26.55000000000001L158.18991562500003,26.55000000000001L158.5680125,26.55000000000001L158.6859657986111,26.55000000000001L158.77806631944443,26.55000000000001L159.6021236111111,26.55000000000001L159.71199791666666,26.55000000000001L159.8364144097222,26.55000000000001L159.85903559027778,26.55000000000001L159.92205173611111,26.55000000000001L159.9737572916667,26.55000000000001L160.64108211805555,26.55000000000001L160.93031006944446,26.55000000000001L161.54108194444444,26.55000000000001L161.63156666666666,26.55000000000001L161.6380298611111,26.55000000000001L161.74305677083333,26.55000000000001L161.84808368055553,26.55000000000001L162.21163836805556,26.55000000000001L162.23749114583333,26.55000000000001L162.47016614583333,26.55000000000001L162.51217690972223,26.55000000000001L162.5719614583333,26.55000000000001L163.19081232638888,26.55000000000001L163.22151250000002,26.55000000000001L163.38632395833332,26.55000000000001L163.81289479166668,26.55000000000001L163.99548003472222,26.55000000000001L164.0520329861111,26.55000000000001L164.73551579861112,26.55000000000001L166.00230190972223,26.55000000000001L166.05723906249997,26.55000000000001L166.18488715277778,26.55000000000001L166.5500576388889,26.55000000000001L166.63407916666665,26.55000000000001L166.8602909722222,26.55000000000001L167.25293003472223,26.55000000000001L167.6601112847222,26.55000000000001L167.9202548611111,26.55000000000001L168.311278125,26.55000000000001L168.36298368055557,26.55000000000001L168.7055329861111,26.55000000000001L169.01576631944445,26.55000000000001L169.15310920138887,26.55000000000001L169.36639461805555,26.55000000000001L169.69278593750002,26.55000000000001L169.74449149305553,26.55000000000001L169.80427604166667,26.55000000000001L169.93353993055555,26.55000000000001L170.1775255208333,26.55000000000001L170.48129565972224,26.55000000000001L170.53138541666667,26.55000000000001L170.58470677083335,26.55000000000001L170.76890781249998,26.55000000000001L170.870703125,26.55000000000001L171.2520315972222,26.55000000000001L171.29888975694445,26.55000000000001L172.53659149305557,26.55000000000001L172.557596875,26.55000000000001L172.673934375,26.55000000000001L172.90499357638888,26.55000000000001L173.52707604166667,26.55000000000001L173.6191765625,26.55000000000001L173.79045121527776,26.55000000000001L173.89547812499998,29.5L173.9681890625,26.55000000000001L174.23156423611113,26.55000000000001L174.72923020833335,26.55000000000001L175.5969140625,26.55000000000001L175.82474166666668,26.55000000000001L176.5470036458333,26.55000000000001L176.68434652777776,26.55000000000001L176.71019930555556,26.55000000000001L177.327434375,26.55000000000001L177.35490295138888,26.55000000000001L177.56495677083333,26.55000000000001L177.69583645833333,26.55000000000001L177.79601597222222,26.55000000000001L178.1224072916667,26.55000000000001L178.46657239583334,26.55000000000001L179.47483072916665,26.55000000000001L179.5071467013889,26.55000000000001L179.84000121527777,26.55000000000001L180.1211501736111,26.55000000000001L180.3635199652778,26.55000000000001L180.39583593749998,26.55000000000001L180.40068333333332,26.55000000000001L180.53802621527777,26.55000000000001L180.5428736111111,26.55000000000001L181.1229453125,26.55000000000001L181.16495607638888,26.55000000000001L182.14897743055556,26.55000000000001L182.2443095486111,26.55000000000001L182.79044947916665,26.55000000000001L182.94718194444445,26.55000000000001L183.34789999999998,26.55000000000001L184.04269340277776,26.55000000000001L184.8166609375,26.55000000000001L185.06872552083334,26.55000000000001L185.4694435763889,26.55000000000001L185.6423340277778,26.55000000000001L185.9105565972222,26.55000000000001L186.11576302083333,26.55000000000001L186.33712743055557,26.55000000000001L186.42761215277778,26.55000000000001L186.47931770833333,26.55000000000001L186.59403940972223,26.55000000000001L187.20804288194444,26.55000000000001L187.35184895833333,26.55000000000001L187.38901232638887,26.55000000000001L187.92061006944445,26.55000000000001L188.29870694444446,26.55000000000001L188.4037338541667,26.55000000000001L189.07913767361111,26.55000000000001L189.30211788194444,26.55000000000001L189.4152237847222,26.55000000000001L189.5283296875,26.55000000000001L189.72222552083332,26.55000000000001L189.79332065972224,26.55000000000001L190.01306927083334,26.55000000000001L190.24897586805554,26.55000000000001L190.33622899305558,29.5L190.46549288194444,26.55000000000001L190.64323072916665,29.5L190.89044791666666,26.55000000000001L191.0084012152778,29.5L191.3186345486111,26.55000000000001L191.4317404513889,26.55000000000001L191.51091458333332,29.5L192.37051944444445,26.55000000000001L193.09924461805556,26.55000000000001L193.27051927083332,26.55000000000001L193.27375086805557,26.55000000000001L193.71001649305555,26.55000000000001L194.3563359375,26.55000000000001L194.81199114583333,26.55000000000001L194.8491545138889,26.55000000000001L195.1109138888889,29.5L195.28380434027778,26.55000000000001L195.37913645833333,26.55000000000001L195.39367864583332,26.55000000000001L195.50840034722222,26.55000000000001L195.62958524305557,26.55000000000001L195.76369652777777,26.55000000000001L195.89134461805554,26.55000000000001L196.05454027777776,26.55000000000001L196.08685625,26.55000000000001L196.20965694444445,26.55000000000001L196.30175746527777,26.55000000000001L196.31953125,26.55000000000001L197.0046298611111,26.55000000000001L197.03694583333333,26.55000000000001L197.6250965277778,26.55000000000001L197.9514878472222,26.55000000000001L198.00319340277778,26.55000000000001L198.09044652777777,26.55000000000001L198.23586840277778,26.55000000000001L198.55094913194444,26.55000000000001L198.6010388888889,26.55000000000001L198.6899078125,26.55000000000001L198.74646076388888,26.55000000000001L198.76261875,26.55000000000001L199.07769947916665,26.55000000000001L199.4913439236111,26.55000000000001L199.5802128472222,26.55000000000001L200.27500625,26.55000000000001L200.80660399305555,26.55000000000001L200.90032031249999,26.55000000000001L201.49816579861113,26.55000000000001L201.66620885416668,26.55000000000001L201.6888300347222,26.55000000000001L201.71953020833334,26.55000000000001L201.7857779513889,26.55000000000001L201.80839913194444,26.55000000000001L201.8326361111111,26.55000000000001L201.85364149305556,26.55000000000001L201.9166576388889,26.55000000000001L202.12671145833332,26.55000000000001L202.40462881944444,26.55000000000001L202.67769878472222,26.55000000000001L202.96207934027777,26.55000000000001L203.1107328125,26.55000000000001L203.2270703125,26.55000000000001L203.24969149305556,26.55000000000001L203.93155850694444,26.55000000000001L204.0236590277778,26.55000000000001L204.22240225694443,26.55000000000001L204.5067828125,26.55000000000001L204.6683626736111,26.55000000000001L204.83478993055556,26.55000000000001L205.37446666666665,26.55000000000001L206.44250954861113,26.55000000000001L206.50714149305557,32.44999999999999L206.56046284722223,26.55000000000001L206.85776979166667,26.55000000000001L207.54933159722222,26.55000000000001L207.77069600694443,26.55000000000001L208.83065989583332,26.55000000000001L208.83227569444443,26.55000000000001L208.9259920138889,26.55000000000001L209.2491517361111,26.55000000000001L209.37679982638886,26.55000000000001L209.76782309027777,26.55000000000001L210.15723055555554,26.55000000000001L210.36405277777777,26.55000000000001L210.41737413194443,26.55000000000001L210.7308390625,26.55000000000001L210.82778697916666,26.55000000000001L211.00229322916667,26.55000000000001L211.06046197916666,26.55000000000001L211.0911621527778,26.55000000000001L211.24627881944443,26.55000000000001L211.9846987847222,26.55000000000001L212.05094652777777,26.55000000000001L212.19313680555555,26.55000000000001L212.55184409722222,26.55000000000001L212.79906128472223,26.55000000000001L213.1044472222222,26.55000000000001L213.14968958333333,26.55000000000001L214.0464578125,26.55000000000001L214.35992274305553,29.5L214.4229388888889,26.55000000000001L214.7444828125,26.55000000000001L215.42311822916668,26.55000000000001L215.65094583333334,26.55000000000001L215.8545364583333,26.55000000000001L216.10013784722221,26.55000000000001L216.4863137152778,26.55000000000001L216.99044288194446,26.55000000000001L217.26028125,26.55000000000001L217.27320763888886,26.55000000000001L217.84358454861112,26.55000000000001L218.28954496527777,29.5L218.37518229166668,26.55000000000001L218.95202239583335,26.55000000000001L218.97141197916667,26.55000000000001L219.37051423611112,26.55000000000001L219.3818248263889,26.55000000000001L219.55309947916666,26.55000000000001L219.81324305555555,26.55000000000001L219.95866493055556,26.55000000000001L220.48218368055555,26.55000000000001L220.75848524305556,26.55000000000001L220.837659375,26.55000000000001L220.89905972222223,26.55000000000001L220.953996875,26.55000000000001L221.01539722222222,26.55000000000001L221.07841336805555,26.55000000000001L221.26584600694443,26.55000000000001L221.39187829861112,28.025000000000006L221.41449947916666,26.55000000000001L221.44196805555558,26.55000000000001L221.61647430555556,26.55000000000001L222.3920576388889,26.55000000000001L222.69905937500002,26.55000000000001L222.8864920138889,26.55000000000001L223.2419677083333,26.55000000000001L223.28882586805557,26.55000000000001L224.03370902777777,26.55000000000001L224.44896927083335,26.55000000000001L224.49582743055555,26.55000000000001L224.59439114583333,26.55000000000001L225.0855939236111,26.55000000000001L225.35704809027777,29.5L226.17948958333332,26.55000000000001L226.2037265625,26.55000000000001L226.68361875,26.55000000000001L227.59331336805556,26.55000000000001L227.69026128472223,26.55000000000001L228.13945329861113,26.55000000000001L228.1410690972222,26.55000000000001L228.32042274305556,26.55000000000001L228.36566510416668,26.55000000000001L228.4141390625,26.55000000000001L228.48038680555555,26.55000000000001L228.66781944444446,26.55000000000001L229.17841180555556,26.55000000000001L229.24627534722222,26.55000000000001L229.30444409722222,26.55000000000001L229.77625729166667,26.55000000000001L229.82634704861113,26.55000000000001L230.29977604166666,26.55000000000001L230.4500453125,26.55000000000001L230.46943489583333,26.55000000000001L230.63909375,26.55000000000001L231.17069149305556,26.55000000000001L232.04483854166665,26.55000000000001L232.08361770833335,26.55000000000001L232.1369390625,26.55000000000001L232.84304305555557,26.55000000000001L232.94968576388888,26.55000000000001L232.994928125,26.55000000000001L233.53622065972223,26.55000000000001L233.8254486111111,26.55000000000001L233.90462274305554,26.55000000000001L233.90947013888888,26.55000000000001L233.92724392361112,26.55000000000001L233.9983390625,26.55000000000001L234.36189374999998,26.55000000000001L234.76099600694442,26.55000000000001L236.62562760416665,26.55000000000001L237.01826666666665,26.55000000000001L237.4189847222222,26.55000000000001L237.5046220486111,26.55000000000001L237.68074409722223,29.5L237.8956453125,26.55000000000001L238.19295225694444,26.55000000000001L238.39977447916667,26.55000000000001L238.48541180555557,26.55000000000001L238.5532753472222,26.55000000000001L238.72939739583333,29.5L238.74070798611112,29.5L238.79241354166666,26.55000000000001L238.84411909722223,26.55000000000001L238.9426828125,29.5L238.9717671875,29.5L239.3207796875,26.55000000000001L239.63101302083334,26.55000000000001L239.7990560763889,26.55000000000001L239.89923559027778,26.55000000000001L240.1803845486111,26.55000000000001L240.51647065972224,26.55000000000001L240.9915154513889,29.5L241.05614739583334,26.55000000000001L241.2694328125,26.55000000000001L241.41162309027777,26.55000000000001L241.4310126736111,26.55000000000001L241.44393906250002,26.55000000000001L241.48918142361111,26.55000000000001L241.56673975694446,26.55000000000001L241.6362190972222,26.55000000000001L241.84142552083333,29.5L242.08702690972223,26.55000000000001L242.25022256944445,26.55000000000001L242.48612916666667,26.55000000000001L242.6380142361111,26.55000000000001L242.8819998263889,26.55000000000001L243.5073138888889,26.55000000000001L243.55578784722223,26.55000000000001L243.86763697916666,26.55000000000001L243.96458489583333,26.55000000000001L244.0049798611111,26.55000000000001L244.78056319444445,26.55000000000001L244.79833697916666,26.55000000000001L245.08594913194446,26.55000000000001L245.1231125,26.55000000000001L245.17320225694445,26.55000000000001L245.40264565972222,26.55000000000001L245.42526684027777,26.55000000000001L246.42059878472222,26.55000000000001L246.6952845486111,26.55000000000001L247.08307621527777,26.55000000000001L247.10892899305554,26.55000000000001L247.32706180555556,26.55000000000001L247.5516578125,26.55000000000001L247.73262725694445,26.55000000000001L248.02023940972222,26.55000000000001L248.0719449652778,26.55000000000001L248.18828246527778,26.55000000000001L248.60839010416666,26.55000000000001L248.8459125,26.55000000000001L249.4421421875,26.55000000000001L249.46314756944446,26.55000000000001L249.6004904513889,26.55000000000001L250.17409895833333,26.55000000000001L250.2112623263889,26.55000000000001L250.21934131944445,26.55000000000001L250.25165729166667,26.55000000000001L250.42293194444446,26.55000000000001L250.97876666666667,26.55000000000001L251.44411666666667,26.55000000000001L251.85937690972222,26.55000000000001L252.40390104166667,26.55000000000001L252.51862274305557,26.55000000000001L252.64465503472223,26.55000000000001L253.15363159722222,26.55000000000001L253.16171059027778,26.55000000000001L253.18594756944444,26.55000000000001L253.7191611111111,26.55000000000001L253.77086666666668,26.55000000000001L254.08917899305555,26.55000000000001L254.46081267361112,26.55000000000001L254.5949239583333,26.55000000000001L254.62562413194445,26.55000000000001L254.79205138888886,26.55000000000001L254.88415190972222,29.5L255.24285920138888,26.55000000000001L255.5498609375,26.55000000000001L256.0152109375,26.55000000000001L256.0604532986111,26.55000000000001L256.19941197916665,26.55000000000001L256.81503125,26.55000000000001L256.8505788194445,26.55000000000001L257.33047100694444,26.55000000000001L257.5647618055556,26.55000000000001L257.6390885416667,26.55000000000001L258.4889986111111,26.55000000000001L258.55363055555557,26.55000000000001L258.56655694444447,26.55000000000001L258.6021045138889,26.55000000000001L258.6182625,26.55000000000001L258.74106319444445,26.55000000000001L258.7960003472222,26.55000000000001L258.9365748263889,26.55000000000001L258.9866645833333,26.55000000000001L259.74124253472223,26.55000000000001L260.02723888888886,26.55000000000001L260.1274184027778,29.5L260.5038994791667,26.55000000000001L260.5135942708333,26.55000000000001L261.5234684027778,26.55000000000001L261.5816371527778,26.55000000000001L261.7383696180556,26.55000000000001L262.05021875,26.55000000000001L262.07768732638885,26.55000000000001L262.079303125,26.55000000000001L262.5624269097222,26.55000000000001L262.6205956597222,26.55000000000001L262.97445555555555,29.5L263.20228315972224,26.55000000000001L263.6773279513889,26.55000000000001L263.92939253472224,26.55000000000001L264.1604517361111,26.55000000000001L264.29941041666666,26.55000000000001L264.3155684027778,26.55000000000001L264.5433960069444,29.5L264.6161069444444,29.5L264.65650190972224,29.5L264.86009253472224,26.55000000000001L264.9731984375,26.55000000000001L265.2462684027778,26.55000000000001L265.35775850694444,26.55000000000001L265.45309062499996,26.55000000000001L265.64537065972223,26.55000000000001L265.8457296875,26.55000000000001L265.8796614583333,26.55000000000001L267.0608102430555,32.44999999999999L267.5972553819444,26.55000000000001L267.61502916666666,26.55000000000001L267.75721944444444,26.55000000000001L267.8202355902778,26.55000000000001L267.88648333333333,26.55000000000001L268.11431093749997,26.55000000000001L268.7283144097222,26.55000000000001L268.8688888888889,26.55000000000001L269.3487810763889,26.55000000000001L270.31826024305553,26.55000000000001L270.4152081597222,26.55000000000001L270.4313661458333,26.55000000000001L270.6333409722222,29.5L271.5575777777778,26.55000000000001L271.7611684027778,26.55000000000001L271.92113246527776,26.55000000000001L272.1408810763889,26.55000000000001L272.33800850694445,26.55000000000001L272.4317248263889,26.55000000000001L272.54321493055556,26.55000000000001L272.549678125,26.55000000000001L272.7128737847222,26.55000000000001L272.85183246527777,26.55000000000001L272.87606944444445,26.55000000000001L273.7857640625,26.55000000000001L273.96834930555553,26.55000000000001L274.17517152777776,29.5L274.19940850694445,26.55000000000001L274.3125144097222,26.55000000000001L274.5031786458333,26.55000000000001L274.585584375,26.55000000000001L274.69707447916664,26.55000000000001L274.70353767361115,26.55000000000001L275.5550635416667,26.55000000000001L275.5857637152778,26.55000000000001L275.71502760416666,26.55000000000001L275.9121550347222,26.55000000000001L276.0818138888889,26.55000000000001L276.37104184027777,26.55000000000001L276.39366302083334,26.55000000000001L276.45183177083334,26.55000000000001L276.5180795138889,26.55000000000001L276.66996458333335,26.55000000000001L276.7491387152778,26.55000000000001L276.77499149305555,26.55000000000001L276.90587118055555,26.55000000000001L277.0399824652778,26.55000000000001L277.18055694444445,26.55000000000001L277.2096413194444,26.55000000000001L277.42777413194443,26.55000000000001L277.64752274305556,26.55000000000001L278.2728368055555,26.55000000000001L278.33262135416663,26.55000000000001L278.76403958333333,26.55000000000001L279.0968940972222,26.55000000000001L279.1566786458333,26.55000000000001L280.4331595486111,26.55000000000001L280.54141805555554,26.55000000000001L280.63998177083334,26.55000000000001L280.80317743055554,26.55000000000001L281.22166927083333,26.55000000000001L281.3250803819444,26.55000000000001L281.3719385416667,26.55000000000001" style="fill: none;" fill="none"></path></g></g></g></g></g></g><g transform="translate(39, 177)" clip-path="url(#clip_1)"><clipPath id="clip_1"><rect width="290" height="23"></rect></clipPath><g><g><line x1="0" y1="0" x2="0" y2="5" style="visibility: inherit;" fill="rgb(0, 0, 0)" stroke="rgb(204, 204, 204)" stroke-width="1px"></line><line x1="32.31597222222222" y1="0" x2="32.31597222222222" y2="5" style="visibility: inherit;" fill="rgb(0, 0, 0)" stroke="rgb(204, 204, 204)" stroke-width="1px"></line><line x1="64.63194444444444" y1="0" x2="64.63194444444444" y2="5" style="visibility: inherit;" fill="rgb(0, 0, 0)" stroke="rgb(204, 204, 204)" stroke-width="1px"></line><line x1="96.94791666666666" y1="0" x2="96.94791666666666" y2="5" style="visibility: inherit;" fill="rgb(0, 0, 0)" stroke="rgb(204, 204, 204)" stroke-width="1px"></line><line x1="129.26388888888889" y1="0" x2="129.26388888888889" y2="5" style="visibility: inherit;" fill="rgb(0, 0, 0)" stroke="rgb(204, 204, 204)" stroke-width="1px"></line><line x1="161.57986111111111" y1="0" x2="161.57986111111111" y2="5" style="visibility: inherit;" fill="rgb(0, 0, 0)" stroke="rgb(204, 204, 204)" stroke-width="1px"></line><line x1="193.89583333333331" y1="0" x2="193.89583333333331" y2="5" style="visibility: inherit;" fill="rgb(0, 0, 0)" stroke="rgb(204, 204, 204)" stroke-width="1px"></line><line x1="226.21180555555557" y1="0" x2="226.21180555555557" y2="5" style="visibility: inherit;" fill="rgb(0, 0, 0)" stroke="rgb(204, 204, 204)" stroke-width="1px"></line><line x1="258.52777777777777" y1="0" x2="258.52777777777777" y2="5" style="visibility: inherit;" fill="rgb(0, 0, 0)" stroke="rgb(204, 204, 204)" stroke-width="1px"></line><line x1="290.84375" y1="0" x2="290.84375" y2="5" style="visibility: inherit;" fill="rgb(0, 0, 0)" stroke="rgb(204, 204, 204)" stroke-width="1px"></line></g><g transform="translate(0, 8)"><text x="0" y="0" dx="0em" dy="0.95em" style="text-anchor: middle; visibility: hidden; font-family: &quot;Helvetica Neue&quot;, sans-serif; font-size: 12px; font-weight: 200;" fill="rgb(50, 49, 63)" stroke="none" stroke-width="1px">-20k</text><text x="32.31597222222222" y="0" dx="0em" dy="0.95em" style="text-anchor: middle; visibility: inherit; font-family: &quot;Helvetica Neue&quot;, sans-serif; font-size: 12px; font-weight: 200;" fill="rgb(50, 49, 63)" stroke="none" stroke-width="1px">0</text><text x="64.63194444444444" y="0" dx="0em" dy="0.95em" style="text-anchor: middle; visibility: inherit; font-family: &quot;Helvetica Neue&quot;, sans-serif; font-size: 12px; font-weight: 200;" fill="rgb(50, 49, 63)" stroke="none" stroke-width="1px">20k</text><text x="96.94791666666666" y="0" dx="0em" dy="0.95em" style="text-anchor: middle; visibility: inherit; font-family: &quot;Helvetica Neue&quot;, sans-serif; font-size: 12px; font-weight: 200;" fill="rgb(50, 49, 63)" stroke="none" stroke-width="1px">40k</text><text x="129.26388888888889" y="0" dx="0em" dy="0.95em" style="text-anchor: middle; visibility: inherit; font-family: &quot;Helvetica Neue&quot;, sans-serif; font-size: 12px; font-weight: 200;" fill="rgb(50, 49, 63)" stroke="none" stroke-width="1px">60k</text><text x="161.57986111111111" y="0" dx="0em" dy="0.95em" style="text-anchor: middle; visibility: inherit; font-family: &quot;Helvetica Neue&quot;, sans-serif; font-size: 12px; font-weight: 200;" fill="rgb(50, 49, 63)" stroke="none" stroke-width="1px">80k</text><text x="193.89583333333331" y="0" dx="0em" dy="0.95em" style="text-anchor: middle; visibility: inherit; font-family: &quot;Helvetica Neue&quot;, sans-serif; font-size: 12px; font-weight: 200;" fill="rgb(50, 49, 63)" stroke="none" stroke-width="1px">100k</text><text x="226.21180555555557" y="0" dx="0em" dy="0.95em" style="text-anchor: middle; visibility: inherit; font-family: &quot;Helvetica Neue&quot;, sans-serif; font-size: 12px; font-weight: 200;" fill="rgb(50, 49, 63)" stroke="none" stroke-width="1px">120k</text><text x="258.52777777777777" y="0" dx="0em" dy="0.95em" style="text-anchor: middle; visibility: inherit; font-family: &quot;Helvetica Neue&quot;, sans-serif; font-size: 12px; font-weight: 200;" fill="rgb(50, 49, 63)" stroke="none" stroke-width="1px">140k</text><text x="290.84375" y="0" dx="0em" dy="0.95em" style="text-anchor: middle; visibility: hidden; font-family: &quot;Helvetica Neue&quot;, sans-serif; font-size: 12px; font-weight: 200;" fill="rgb(50, 49, 63)" stroke="none" stroke-width="1px">160k</text></g><line x1="0" y1="0" x2="290.84375" y2="0" fill="rgb(0, 0, 0)" stroke="rgb(204, 204, 204)" stroke-width="1px"></line></g></g></g></g></svg>