<svg viewBox="0 0 330 200" xmlns="http://www.w3.org/2000/svg"><g><g><g><g><g><line x1="68.3125" y1="177" x2="63.3125" y2="177" style="visibility: inherit;" fill="rgb(0, 0, 0)" stroke="rgb(204, 204, 204)" stroke-width="1px"></line><line x1="68.3125" y1="163.3846153846154" x2="63.3125" y2="163.3846153846154" style="visibility: inherit;" fill="rgb(0, 0, 0)" stroke="rgb(204, 204, 204)" stroke-width="1px"></line><line x1="68.3125" y1="149.76923076923077" x2="63.3125" y2="149.76923076923077" style="visibility: inherit;" fill="rgb(0, 0, 0)" stroke="rgb(204, 204, 204)" stroke-width="1px"></line><line x1="68.3125" y1="136.15384615384616" x2="63.3125" y2="136.15384615384616" style="visibility: inherit;" fill="rgb(0, 0, 0)" stroke="rgb(204, 204, 204)" stroke-width="1px"></line><line x1="68.3125" y1="122.53846153846153" x2="63.3125" y2="122.53846153846153" style="visibility: inherit;" fill="rgb(0, 0, 0)" stroke="rgb(204, 204, 204)" stroke-width="1px"></line><line x1="68.3125" y1="108.92307692307692" x2="63.3125" y2="108.92307692307692" style="visibility: inherit;" fill="rgb(0, 0, 0)" stroke="rgb(204, 204, 204)" stroke-width="1px"></line><line x1="68.3125" y1="95.3076923076923" x2="63.3125" y2="95.3076923076923" style="visibility: inherit;" fill="rgb(0, 0, 0)" stroke="rgb(204, 204, 204)" stroke-width="1px"></line><line x1="68.3125" y1="81.6923076923077" x2="63.3125" y2="81.6923076923077" style="visibility: inherit;" fill="rgb(0, 0, 0)" stroke="rgb(204, 204, 204)" stroke-width="1px"></line><line x1="68.3125" y1="68.07692307692307" x2="63.3125" y2="68.07692307692307" style="visibility: inherit;" fill="rgb(0, 0, 0)" stroke="rgb(204, 204, 204)" stroke-width="1px"></line><line x1="68.3125" y1="54.46153846153847" x2="63.3125" y2="54.46153846153847" style="visibility: inherit;" fill="rgb(0, 0, 0)" stroke="rgb(204, 204, 204)" stroke-width="1px"></line><line x1="68.3125" y1="40.84615384615384" x2="63.3125" y2="40.84615384615384" style="visibility: inherit;" fill="rgb(0, 0, 0)" stroke="rgb(204, 204, 204)" stroke-width="1px"></line><line x1="68.3125" y1="27.230769230769226" x2="63.3125" y2="27.230769230769226" style="visibility: inherit;" fill="rgb(0, 0, 0)" stroke="rgb(204, 204, 204)" stroke-width="1px"></line><line x1="68.3125" y1="13.615384615384613" x2="63.3125" y2="13.615384615384613" style="visibility: inherit;" fill="rgb(0, 0, 0)" stroke="rgb(204, 204, 204)" stroke-width="1px"></line><line x1="68.3125" y1="0" x2="63.3125" y2="0" style="visibility: inherit;" fill="rgb(0, 0, 0)" stroke="rgb(204, 204, 204)" stroke-width="1px"></line></g><g transform="translate(58.3125, 0)"><text x="0" y="177" dx="0em" dy="0.3em" style="text-anchor: end; visibility: hidden; font-family: &quot;Helvetica Neue&quot;, sans-serif; font-size: 12px; font-weight: 200;" fill="rgb(50, 49, 63)" stroke="none" stroke-width="1px">-6e+3</text><text x="0" y="163.3846153846154" dx="0em" dy="0.3em" style="text-anchor: end; visibility: inherit; font-family: &quot;Helvetica Neue&quot;, sans-serif; font-size: 12px; font-weight: 200;" fill="rgb(50, 49, 63)" stroke="none" stroke-width="1px">-4e+3</text><text x="0" y="149.76923076923077" dx="0em" dy="0.3em" style="text-anchor: end; visibility: hidden; font-family: &quot;Helvetica Neue&quot;, sans-serif; font-size: 12px; font-weight: 200;" fill="rgb(50, 49, 63)" stroke="none" stroke-width="1px">-2e+3</text><text x="0" y="136.15384615384616" dx="0em" dy="0.3em" style="text-anchor: end; visibility: inherit; font-family: &quot;Helvetica Neue&quot;, sans-serif; font-size: 12px; font-weight: 200;" fill="rgb(50, 49, 63)" stroke="none" stroke-width="1px">0</text><text x="0" y="122.53846153846153" dx="0em" dy="0.3em" style="text-anchor: end; visibility: hidden; font-family: &quot;Helvetica Neue&quot;, sans-serif; font-size: 12px; font-weight: 200;" fill="rgb(50, 49, 63)" stroke="none" stroke-width="1px">2e+3</text><text x="0" y="108.92307692307692" dx="0em" dy="0.3em" style="text-anchor: end; visibility: inherit; font-family: &quot;Helvetica Neue&quot;, sans-serif; font-size: 12px; font-weight: 200;" fill="rgb(50, 49, 63)" stroke="none" stroke-width="1px">4e+3</text><text x="0" y="95.3076923076923" dx="0em" dy="0.3em" style="text-anchor: end; visibility: hidden; font-family: &quot;Helvetica Neue&quot;, sans-serif; font-size: 12px; font-weight: 200;" fill="rgb(50, 49, 63)" stroke="none" stroke-width="1px">6e+3</text><text x="0" y="81.6923076923077" dx="0em" dy="0.3em" style="text-anchor: end; visibility: inherit; font-family: &quot;Helvetica Neue&quot;, sans-serif; font-size: 12px; font-weight: 200;" fill="rgb(50, 49, 63)" stroke="none" stroke-width="1px">8e+3</text><text x="0" y="68.07692307692307" dx="0em" dy="0.3em" style="text-anchor: end; visibility: hidden; font-family: &quot;Helvetica Neue&quot;, sans-serif; font-size: 12px; font-weight: 200;" fill="rgb(50, 49, 63)" stroke="none" stroke-width="1px">1e+4</text><text x="0" y="54.46153846153847" dx="0em" dy="0.3em" style="text-anchor: end; visibility: inherit; font-family: &quot;Helvetica Neue&quot;, sans-serif; font-size: 12px; font-weight: 200;" fill="rgb(50, 49, 63)" stroke="none" stroke-width="1px">1.2e+4</text><text x="0" y="40.84615384615384" dx="0em" dy="0.3em" style="text-anchor: end; visibility: hidden; font-family: &quot;Helvetica Neue&quot;, sans-serif; font-size: 12px; font-weight: 200;" fill="rgb(50, 49, 63)" stroke="none" stroke-width="1px">1.4e+4</text><text x="0" y="27.230769230769226" dx="0em" dy="0.3em" style="text-anchor: end; visibility: inherit; font-family: &quot;Helvetica Neue&quot;, sans-serif; font-size: 12px; font-weight: 200;" fill="rgb(50, 49, 63)" stroke="none" stroke-width="1px">1.6e+4</text><text x="0" y="13.615384615384613" dx="0em" dy="0.3em" style="text-anchor: end; visibility: hidden; font-family: &quot;Helvetica Neue&quot;, sans-serif; font-size: 12px; font-weight: 200;" fill="rgb(50, 49, 63)" stroke="none" stroke-width="1px">1.8e+4</text><text x="0" y="0" dx="0em" dy="0.3em" style="text-anchor: end; visibility: hidden; font-family: &quot;Helvetica Neue&quot;, sans-serif; font-size: 12px; font-weight: 200;" fill="rgb(50, 49, 63)" stroke="none" stroke-width="1px">2e+4</text></g><line x1="68.3125" y1="0" x2="68.3125" y2="177" fill="rgb(0, 0, 0)" stroke="rgb(204, 204, 204)" stroke-width="1px"></line></g></g><g transform="translate(68, 0)" clip-path="url(#clip_0)"><clipPath id="clip_0"><rect width="261" height="177"></rect></clipPath><g><g><g><line x1="0" y1="0" x2="0" y2="177" fill="rgb(0, 0, 0)" stroke="rgb(60, 60, 60)" stroke-width="1px" opacity="0.25"></line><line x1="18.691964285714285" y1="0" x2="18.691964285714285" y2="177" fill="rgb(0, 0, 0)" stroke="rgb(60, 60, 60)" stroke-width="1px" opacity="0.25"></line><line x1="37.38392857142857" y1="0" x2="37.38392857142857" y2="177" fill="rgb(0, 0, 0)" stroke="rgb(60, 60, 60)" stroke-width="1px" opacity="0.25"></line><line x1="56.075892857142854" y1="0" x2="56.075892857142854" y2="177" fill="rgb(0, 0, 0)" stroke="rgb(60, 60, 60)" stroke-width="1px" opacity="0.25"></line><line x1="74.76785714285714" y1="0" x2="74.76785714285714" y2="177" fill="rgb(0, 0, 0)" stroke="rgb(60, 60, 60)" stroke-width="1px" opacity="0.25"></line><line x1="93.45982142857143" y1="0" x2="93.45982142857143" y2="177" fill="rgb(0, 0, 0)" stroke="rgb(60, 60, 60)" stroke-width="1px" opacity="0.25"></line><line x1="112.15178571428571" y1="0" x2="112.15178571428571" y2="177" fill="rgb(0, 0, 0)" stroke="rgb(60, 60, 60)" stroke-width="1px" opacity="0.25"></line><line x1="130.84375" y1="0" x2="130.84375" y2="177" fill="rgb(0, 0, 0)" stroke="rgb(60, 60, 60)" stroke-width="1px" opacity="0.25"></line><line x1="149.53571428571428" y1="0" x2="149.53571428571428" y2="177" fill="rgb(0, 0, 0)" stroke="rgb(60, 60, 60)" stroke-width="1px" opacity="0.25"></line><line x1="168.22767857142858" y1="0" x2="168.22767857142858" y2="177" fill="rgb(0, 0, 0)" stroke="rgb(60, 60, 60)" stroke-width="1px" opacity="0.25"></line><line x1="186.91964285714286" y1="0" x2="186.91964285714286" y2="177" fill="rgb(0, 0, 0)" stroke="rgb(60, 60, 60)" stroke-width="1px" opacity="0.25"></line><line x1="205.61160714285714" y1="0" x2="205.61160714285714" y2="177" fill="rgb(0, 0, 0)" stroke="rgb(60, 60, 60)" stroke-width="1px" opacity="0.25"></line><line x1="224.30357142857142" y1="0" x2="224.30357142857142" y2="177" fill="rgb(0, 0, 0)" stroke="rgb(60, 60, 60)" stroke-width="1px" opacity="0.25"></line><line x1="242.99553571428572" y1="0" x2="242.99553571428572" y2="177" fill="rgb(0, 0, 0)" stroke="rgb(60, 60, 60)" stroke-width="1px" opacity="0.25"></line><line x1="261.6875" y1="0" x2="261.6875" y2="177" fill="rgb(0, 0, 0)" stroke="rgb(60, 60, 60)" stroke-width="1px" opacity="0.25"></line></g><g><line x1="0" y1="177" x2="261.6875" y2="177" fill="rgb(0, 0, 0)" stroke="rgb(60, 60, 60)" stroke-width="1px" opacity="0.25"></line><line x1="0" y1="163.3846153846154" x2="261.6875" y2="163.3846153846154" fill="rgb(0, 0, 0)" stroke="rgb(60, 60, 60)" stroke-width="1px" opacity="0.25"></line><line x1="0" y1="149.76923076923077" x2="261.6875" y2="149.76923076923077" fill="rgb(0, 0, 0)" stroke="rgb(60, 60, 60)" stroke-width="1px" opacity="0.25"></line><line x1="0" y1="136.15384615384616" x2="261.6875" y2="136.15384615384616" fill="rgb(0, 0, 0)" stroke="rgb(60, 60, 60)" stroke-width="1px" opacity="0.25"></line><line x1="0" y1="122.53846153846153" x2="261.6875" y2="122.53846153846153" fill="rgb(0, 0, 0)" stroke="rgb(60, 60, 60)" stroke-width="1px" opacity="0.25"></line><line x1="0" y1="108.92307692307692" x2="261.6875" y2="108.92307692307692" fill="rgb(0, 0, 0)" stroke="rgb(60, 60, 60)" stroke-width="1px" opacity="0.25"></line><line x1="0" y1="95.3076923076923" x2="261.6875" y2="95.3076923076923" fill="rgb(0, 0, 0)" stroke="rgb(60, 60, 60)" stroke-width="1px" opacity="0.25"></line><line x1="0" y1="81.6923076923077" x2="261.6875" y2="81.6923076923077" fill="rgb(0, 0, 0)" stroke="rgb(60, 60, 60)" stroke-width="1px" opacity="0.25"></line><line x1="0" y1="68.07692307692307" x2="261.6875" y2="68.07692307692307" fill="rgb(0, 0, 0)" stroke="rgb(60, 60, 60)" stroke-width="1px" opacity="0.25"></line><line x1="0" y1="54.46153846153847" x2="261.6875" y2="54.46153846153847" fill="rgb(0, 0, 0)" stroke="rgb(60, 60, 60)" stroke-width="1px" opacity="0.25"></line><line x1="0" y1="40.84615384615384" x2="261.6875" y2="40.84615384615384" fill="rgb(0, 0, 0)" stroke="rgb(60, 60, 60)" stroke-width="1px" opacity="0.25"></line><line x1="0" y1="27.230769230769226" x2="261.6875" y2="27.230769230769226" fill="rgb(0, 0, 0)" stroke="rgb(60, 60, 60)" stroke-width="1px" opacity="0.25"></line><line x1="0" y1="13.615384615384613" x2="261.6875" y2="13.615384615384613" fill="rgb(0, 0, 0)" stroke="rgb(60, 60, 60)" stroke-width="1px" opacity="0.25"></line><line x1="0" y1="0" x2="261.6875" y2="0" fill="rgb(0, 0, 0)" stroke="rgb(60, 60, 60)" stroke-width="1px" opacity="0.25"></line></g></g></g><g><g><line x1="0" y1="136.15384615384616" x2="261.6875" y2="136.15384615384616" fill="rgb(0, 0, 0)" stroke="rgb(153, 153, 153)" stroke-width="1.5px"></line></g></g><g><g><line x1="18.691964285714285" y1="0" x2="18.691964285714285" y2="177" fill="rgb(0, 0, 0)" stroke="rgb(153, 153, 153)" stroke-width="1.5px"></line></g></g><g><g><g><g><g><path stroke="rgb(255, 112, 67)" stroke-width="2px" d="M18.772339732142857,142.53265384615383L19.005989285714286,142.53265384615383L19.121879464285712,139.9276439114391L19.131225446428573,138.6323351041224L19.204124107142857,138.5258221354602L19.57983258928571,137.98763052834494L19.69572276785714,137.60742316418165L19.776098214285714,137.23266928195045L19.789182589285716,136.94542618496845L19.878904017857145,137.86910392680363L19.90320357142857,138.61123642050254L20.028439732142857,138.1739052235026L20.204144196428572,137.81177332318302L20.589198660714285,137.50853173423064L21.18547232142857,137.2522123687861L21.19294910714286,137.03383261494474L21.282670535714285,124.91793622023872L21.295754910714283,114.46534106330455L21.377999553571428,117.20905778641115L21.854644642857142,119.28823967884514L21.935020089285715,121.10557432293871L21.94062767857143,122.69926677869873L22.20231517857143,124.10087111845118L22.277083035714284,125.38253300080393L22.499517410714287,127.27639340412901L22.80419642857143,128.73491330586074L23.006069642857142,129.45033101947644L23.159343749999998,130.08586619269758L23.338786607142858,120.27356122755727L23.34065580357143,111.53418674399637L23.363086160714285,114.67064177347835L23.712625892857144,116.82485412956387L24.372452232142855,118.74914300511304L24.73133794642857,120.46938110204539L24.761245089285712,122.00827150395986L24.87152767857143,123.38578522536605L25.456586160714284,124.61952924553748L25.46032455357143,125.72505770055317L25.553784375,126.82203316616528L25.686497321428572,127.70011638715879L25.82294866071429,128.48789205873774L25.836033035714287,129.1948749080691L26.088374553571427,129.82953372566635L26.763154464285712,130.3994146004219L26.918297767857144,131.32330606216792L27.090263839285715,131.74156867098932L27.12204017857143,132.1173763249632L27.434195982142857,132.45509518363988L27.643545982142857,132.75863153326492L27.98560892857143,133.0314822836789L28.290287946428574,133.2767795338163L28.684688392857144,133.49732997332592L28.71085714285714,133.69564977605347L29.391244642857142,133.8739955477059L29.550126339285715,123.99653638846081L29.654801339285715,125.14734241614121L29.735176785714284,126.1824674860561L29.890320089285716,127.11359416337504L30.282851339285713,127.95121489833207L30.31836607142857,128.70475522052692L30.44920982142857,129.3826838109756L30.98193080357143,129.99261091887476L31.21558035714286,130.54137641334717L31.238010714285714,131.03512860727034L31.50530580357143,131.47939485714892L31.71465580357143,131.87914482694194L32.06793392857143,132.23884720234983L32.492241517857146,132.5625205532411L32.63803883928571,132.8537789639251L32.64364642857143,133.11587298238229L32.73336785714285,133.35172637910523L33.26982723214286,133.56396915281968L33.33524910714286,133.75496717313945L33.63058214285714,133.92684880838414L33.770771875,124.07051719834531L33.98386026785714,125.21115299071639L34.06049732142857,126.23765301643587L34.325923214285716,127.161444573642L34.35209196428571,127.99280962198961L34.578264732142856,128.74099981257652L34.59695669642857,129.41433992050594L34.77079196428572,130.02032085778296L35.288559375,130.5656833230529L35.39510357142857,131.0564930362692L35.503516964285716,131.49820840932853L36.002592410714286,131.8957414167928L36.391385267857146,132.25351235293715L36.552136160714284,132.57549909155094L36.576435714285715,132.86528140231238L36.82130044642857,133.12608082139695L37.09233392857143,133.3607965235827L37.2119625,133.57203759787785L37.90169598214286,133.76215208808026L37.91478035714286,133.93325312320246L38.13160714285714,134.0872424299311L38.28114285714286,134.22583148985277L38.36151830357143,134.35056057772806L38.5204,134.46281589332247L38.84377098214286,134.5638449779355L39.07181294642857,134.65477058756102L39.07742053571428,134.73660317734186L39.19144151785714,134.81025213645307L39.206395089285714,134.87653589858516L39.292378125,134.93619104064055L39.445652232142855,134.98988047096213L40.0381875,135.03820079825448L40.13725491071428,135.08168896322059L40.24940669642857,135.12082820671694L40.312959375,135.15605344083573L40.535393750000004,135.1877560826703L40.67371428571428,135.21628840453496L41.06624553571428,135.24196744902625L41.07559151785715,135.26507855246712L41.430738839285716,135.28587851591692L41.66625758928571,135.3045984590077L42.37842142857143,135.32144638833813L42.76347589285714,135.33660950898L42.87936607142857,135.35025630479566L43.05693973214286,135.36253841069262L43.107408035714286,135.37359229762677L43.74480401785714,135.38354078908532L44.01396830357143,135.3924944259044L44.10929732142857,125.39322144382197L44.15228883928572,116.39388023246075L44.50743616071429,118.30180353962203L45.01211919642857,120.01893382482709L45.27567589285714,121.56435052160742L45.41212723214286,122.9552250951876L45.494371875,124.20701184405698L45.69811428571429,125.3336196204838L46.05513080357143,126.34756637824798L46.111206696428575,127.26011826500964L46.146721428571425,128.08141480496204L46.318687499999996,128.82058156283142L46.37476339285714,119.47851719526079L46.49439196428571,121.07797412513474L46.52990669642857,122.51748518017365L47.615909821428566,123.8130449824121L47.6794625,124.97904868511651L48.114985267857136,126.02845192090923L48.159845982142855,126.97291475484329L48.817803125,127.82293124197764L49.06640625,128.58794602903944L49.20098839285714,129.2764592957942L50.11315625,129.8961212021768L50.20287767857143,130.4538168906268L50.59353973214286,121.35689503180741L50.65148482142857,113.16966568343152L51.015978125000004,115.40000714663466L51.06270803571429,117.40731439906213L51.103830357142854,119.21389087403804L51.485146428571426,120.83980965922721L51.51131517857143,122.30313653164328L51.565521875,123.6201306890718L53.18237678571428,124.8054254082833L54.42539241071429,125.87219063736956L54.52445982142857,116.82497098126797L55.20110892857143,109.09093496585692L55.40485133928571,111.72914930149547L55.43102008928572,114.10354217698601L55.57494821428571,106.23318762119276L55.78990580357143,99.14986858521681L56.06841607142857,102.78218954539297L56.17682946428571,106.05127838553739L56.19365223214285,108.99345832221591L56.33571116071428,111.64142024947094L56.53384598214286,114.02458597123834L56.54879955357143,116.16943511049173L56.6815125,118.09979932744656L56.90020848214286,119.83712711592361L57.08525892857143,121.4007221200593L57.087128125,122.80795761933153L57.158157589285715,124.07446956507218L57.53386607142857,125.21433031331917L57.539473660714286,126.24020498437665L57.63106428571429,127.16349218641284L57.67592500000001,127.99445066669384L58.096494196428566,128.74231329768998L58.216122767857144,119.40808190773606L58.33762053571429,121.01458141859264L58.38061205357143,122.46043097659229L58.54323214285714,123.76169557735724L58.677814285714284,119.92917984956237L58.924548214285714,111.47626183242299L59.53203705357143,113.87594334971115L60.274108035714285,116.03565671370816L60.36196026785714,117.97939874004001L60.43298973214285,119.7287665627136L60.48532723214286,121.30319760228957L60.698415624999996,122.72018553723541L61.386279910714286,123.9954746781419L61.94330044642857,115.13592719580748L61.96199241071428,117.16964217153424L62.04423705357143,118.99998564911837L62.092836160714285,120.6472947784824L62.21994151785714,122.12987299453607L62.36013125,123.46419338868148L62.48349821428572,124.665081743167L62.69471741071428,115.9877351005097L62.937712946428576,108.13319235414804L62.958274107142856,110.8671808127769L62.995658035714285,113.32777042521303L63.43865758928571,115.54230107613839L63.70221428571429,117.5353786617548L63.82931964285714,109.29324848445339L64.08166116071428,111.91123132929731L64.08539955357142,114.26741588947034L64.15642901785715,116.38798199347502L64.19942053571428,118.29649148695687L64.71531875,120.0141500309914L64.8985,111.75696579529493L64.91345357142858,104.32549998351543L65.23869375,107.44025767803015L65.30037723214285,110.24353960298728L65.43869776785715,112.76649333536272L65.89665089285714,105.64253630858742L66.04431741071429,108.62559037038737L66.1546,111.3103390259406L66.94153169642857,113.72661281588452L67.00695357142858,105.68972076437596L67.14527410714287,108.66805638047596L67.41630758928571,111.3485584349223L67.58266607142858,113.76101028388861L67.85930714285715,115.93221694792962L68.17146294642858,117.88630294554332L68.78269017857143,109.637672650613L68.78455937499999,102.21390538524714L68.84250446428571,105.53982253915291L69.42756294642857,108.53314797764479L69.44999330357143,101.21983317966159L69.45747008928572,94.63784986151825L69.45933928571428,88.71406487522293L69.674296875,93.38996608011028L70.10608125,97.59827716448952L70.2892625,101.38575714041514L70.3210388392857,104.7944891187355L70.35468437499999,107.86234789921352L70.70422410714286,110.62342080163542L70.87432098214286,113.10838641380836L70.97151919642857,115.34485546475852L71.85004151785714,117.35767761060927L71.87434107142857,119.16921754187132L72.04630714285715,120.79960348000428L72.10051383928571,122.26695082432158L72.84445401785715,123.58756343420525L72.89305312500001,124.776114783099L73.01642008928572,115.83850330474453L73.27623839285714,107.79465297423397L73.39212857142857,110.56249536912944L73.78092142857143,113.05355352453326L73.81082857142857,115.29550586439495L73.94914910714286,107.30595527793194L74.04260892857144,110.1226674424539L74.45009375,112.65770839052225L74.77907232142857,114.93924524378262L74.82767142857143,116.99262841171601L74.94169241071428,108.83336557053022L75.09496651785715,111.49733670578905L75.22394107142857,113.89491072752122L75.38095357142856,116.05272734707954L75.6276875,107.98745461236238L75.64824866071427,100.72870915111868L75.91367455357143,104.20314592831771L76.08937901785714,107.33013902779625L76.11554776785715,110.1444328173264L77.39781651785714,103.07845107405056L77.46697678571428,96.71906750510318L77.93988348214285,100.59446844690267L78.14923348214286,104.0823292945218L78.283815625,107.2214040573787L78.38849062499999,110.04657134394965L78.40531339285714,112.5892219018633L78.51559598214286,106.09568432705949L78.833359375,109.03342358666208L78.89504285714285,111.67738892030425L79.32121964285714,114.05695772058206L79.52122366071428,116.198569640832L79.73618125,118.12602036905687L79.932446875,119.86072602445918L80.17918080357143,121.42196111432119L80.194134375,122.82707269519696L80.44086830357142,114.08436542567617L80.66143348214285,106.21592888310768L80.71190178571429,99.13433599479617L80.71564017857142,92.760902395316L80.88386785714286,87.0248121557839L81.01471160714286,81.86233094020515L81.0782642857143,77.21609784618434L81.13060178571429,73.03448806156564L81.738090625,69.2710392554089L81.75491339285713,65.88393532986782L81.77734375,62.835541796880904L81.81285848214286,60.091987617192686L81.84463482142857,57.62278885547332L81.94557142857144,55.400509969925935L81.96800178571428,53.400458972933265L82.01473169642858,51.600413075639906L82.08389196428571,49.98037176807587L82.27828839285714,48.522334591268276L82.31380312499999,47.2101011321414L82.51006875,46.02909101892723L82.92316116071429,44.966181917034504L82.96241428571429,44.00956372533105L83.06522008928572,43.14860735279794L83.22784017857143,42.373746617518094L83.36616071428571,41.676371955766314L83.71009285714285,41.04873476018969L84.73815089285715,40.48386128417067L84.77740401785714,39.97547515575363L84.79235758928571,39.313696870947496L84.82039553571428,38.718096414621954L85.01853035714285,38.38628677315975L85.18675803571429,37.88342732661303L85.55685892857143,37.63508459395172L85.56994330357143,37.411576134556526L85.70265625,37.210418521100905L85.89705267857144,37.02937666899078L85.92882901785714,36.86643900209171L86.05406517857143,36.71979510188254L86.44472723214285,36.38358482246349L86.49893392857143,36.28522634021718L87.16062946428572,36.19670370619545L87.21670535714286,36.11703333557591L87.41857857142857,35.84109923278754L87.51577678571428,35.59275854027803L87.573721875,35.369251917019454L87.68026607142856,35.37232672531749L88.23167901785713,35.37509405278573L88.70458571428571,35.37758464750718L88.76813839285714,35.37982618275646L89.2821674107143,35.38184356448082L89.49151741071428,35.99635151572505L90.08218348214287,36.14094713338332L90.543875,35.86262165081419L90.57378214285714,35.61212871650201L90.59434330357142,35.386685075621045L91.06911919642857,35.38801656805893L91.29342276785715,35.38921491125305L91.5569794642857,35.39029342012773L91.60184017857144,35.39126407811497L92.14577633928572,35.187906901072694L92.90467008928572,35.00488544173464L92.95700758928571,34.840166128330395L93.05233660714286,34.89614951549734L93.2336486607143,34.74230379471686L93.29159374999999,34.60384264601444L93.30093973214287,34.4792276121822L93.49907455357143,34.57130485096397L94.01497276785715,34.449943596636814L94.39628883928572,34.54494923697311L94.67106071428572,34.42622354404506L94.70096785714286,34.31937042040977L94.70844464285713,34.22320260913801L94.77012812500001,34.13665157899345L94.80751205357143,34.05875565186335L94.94396339285714,33.98864931744626L95.40565491071429,33.925553616470836L95.78697098214286,33.86876748559297L95.83743928571428,33.81765996780291L95.96828303571428,33.771663201791824L96.33838392857143,33.73026611238191L96.36829107142857,33.6930087319129L97.22438303571428,33.863707858721625L97.45055580357143,33.813106303618696L97.65616741071429,33.767564904026045L98.04122187499999,33.72657764439268L98.07486741071428,33.68968911072264L98.46739866071428,33.65648943041961L99.03376517857143,33.83084048737763L99.58891651785714,33.7835256694091L100.03752366071429,33.7409423332374L100.10294553571428,33.702617330682926L100.20388214285714,33.66812482838387L100.26369642857142,33.6370815763147L100.39827857142858,33.60914264945245L100.44874687500001,33.78822838450719L100.45622366071427,33.94940554605648L100.57398303571428,33.890234222220045L100.92539196428571,33.83698003076728L101.07492767857144,33.993282027690555L101.08240446428572,34.13395382492149L101.312315625,34.05632767319858L101.3254,33.98646413664795L101.40764464285714,33.92358695375236L101.50671205357143,33.86699748914637L102.03195625000001,33.816066971000964L102.437571875,33.77022950467011L102.463740625,33.728975784972306L102.74038169642857,33.69184743724429L103.00206919642858,33.65843192428912L103.3871236607143,33.62835796262942L103.40394642857143,33.601291397135725L103.50301383928571,33.57693148819138L103.75535535714286,33.55500757014147L104.03760401785713,33.535276043896545L104.73855267857142,33.517517670276135L104.845096875,33.50153513401776L104.99276339285714,33.48715085138522L105.06005446428571,33.4742049970159L105.27127366071429,33.46255372808355L105.30118080357144,33.45206758604442L105.44884732142857,33.442630058209204L105.60959821428571,33.4341362831575L106.99654196428571,33.42649188561097L107.10869375,33.41961192781912L107.14607767857143,33.41341996580644L107.46010267857143,33.40784719999502L107.63954553571429,33.40283171076476L107.73861294642857,33.39831777045748L107.79655803571428,33.39425522418097L107.86384910714285,33.3905989325321L107.93674776785714,33.38730827004812L108.19469687499999,33.38434667381256L108.31619464285714,33.381681237200496L108.35918616071427,33.58351311348045L108.55732098214287,33.76516180213241L108.75358660714285,33.92864562191917L108.83956964285714,34.075781059727234L109.39098258928571,34.00397218452375L109.99286383928572,33.93934419684061L110.25081294642858,33.881179007925766L110.79287991071429,33.82883033790242L110.89381651785715,33.78171653488141L110.94054642857142,33.7393141121625L111.17606517857142,33.701151931715486L111.32747008928571,33.666805969313174L111.44149107142857,33.63589460315109L112.16487008928573,33.608074373605206L112.25832991071428,33.78726693624466L112.43216517857144,33.9485402426202L112.46207232142856,34.09368621835816L112.51814821428572,34.224317596522326L112.65459955357143,34.13765506763934L113.32937946428571,34.05965879164464L113.68452678571428,33.98946214324937L113.9835982142857,33.92628515969369L114.27332366071428,34.07365664372429L114.44715892857143,34.0020602101211L114.54996473214285,33.93762341987821L114.66211651785714,33.879630308659614L115.42474866071429,33.8274365085629L115.51447008928571,33.78046208847587L115.52942366071429,33.73818511039747L115.80606473214286,33.70013583012698L115.89391696428572,33.66589147788349L116.01728392857143,33.63507156086436L116.33504732142858,33.60733363554715L116.437853125,33.58236950276168L116.55187410714285,33.5599017832547L116.84533794642857,33.539680835698476L116.87898348214286,33.52148198289785L117.16683973214286,33.5051030153773L117.39114330357143,33.49036194460879L117.58553973214286,33.47709498091717L117.64722321428572,33.46515471359467L117.7668517857143,33.45440847300446L117.93321026785715,33.44473685647324L117.9612482142857,33.43603240159513L118.636028125,33.632429161435596L119.08089687500001,33.604955476061264L119.09398125,33.58022915922436L119.10145803571429,33.557975474071156L119.10893482142858,33.53794715743328L119.37249151785714,33.51992167245919L119.45473616071429,33.50369873598248L119.76502276785713,33.489098093153444L119.79306071428572,33.47595751460733L119.83231383928572,33.46413099391583L119.86035178571429,33.45348712529349L120.08091696428572,33.44390764353335L120.8398107142857,33.43528610994926L120.92205535714285,33.427526729723525L121.13888214285714,33.42054328752042L121.38187767857144,33.41425818953758L121.46599151785713,33.40860160135304L121.86039196428571,33.403510671986965L122.05852678571428,33.39892883555751L122.064134375,33.394805182770995L122.11273348214286,33.59532466449389L122.17067857142857,33.57156142881374L122.50526473214285,33.55017451670159L122.51461071428571,33.53092629580067L122.52956428571429,33.51360289698982L122.83237410714285,33.49801183806005L122.93144151785714,33.483979885023274L123.30528080357142,33.471351127290205L123.53893035714286,33.45998524533039L123.93706919642857,33.65398672079735L123.99875267857142,33.624357279486844L124.31651607142857,33.59769078230741L124.34268482142856,33.5736909348459L124.50530491071429,33.55209107213054L124.83989107142857,33.532651195686725L124.90157455357142,33.515155306887266L125.23616071428572,33.49940900696777L125.79691964285713,33.48523733704022L125.80813482142858,33.47248283410545L126.14272098214286,33.461003781464115L126.65861919642857,33.65490340331769L127.65863928571429,33.62518229375516L127.92967276785714,33.59843329514885L128.14649955357143,33.57435919640318L128.30538125,33.5526925075321L128.45117857142858,33.7374232567789L128.501646875,33.69945016187026L128.53342321428573,33.66527437645246L129.03249866071428,33.634516169576415L129.469890625,33.606833783388L129.55774285714287,33.58191963581842L129.783915625,33.55949690300582L130.17270848214284,33.53931644347446L130.228784375,33.52115402989625L130.35402053571428,33.70903862690662L131.0063700892857,33.67390399498518L131.18020535714288,33.642282826255894L131.1914205357143,33.61382377439955L131.23254285714287,33.588210627728785L131.4007705357143,33.565158795725154L131.7334875,33.5444121469219L132.94285758928572,33.525740162998915L133.09800089285713,33.50893537746825L133.23071383928573,33.493811070490665L133.41202589285712,33.4801991942108L133.5335236607143,33.46794850555895L133.71296651785715,33.456922885772315L133.98586919642858,33.446999827964305L134.84383035714285,33.642299845167855L134.9933660714286,33.61383909142029L135.54851741071428,33.5882244130475L135.6064625,33.565171202511976L135.62141607142857,33.74865408226077L136.21768973214287,33.709557904803916L136.49806919642856,33.674371345092766L136.86443169642857,33.64270344135272L137.12238080357142,33.614202327986675L137.2532245535714,33.79278209518799L137.25509375,33.95350388566922L137.41210625,33.89392272787151L137.7074392857143,33.84029968585358L137.91305089285714,33.79203894803746L138.07006339285715,33.748604284002965L138.29997455357142,33.709513086371885L138.50558616071427,33.67433100850394L138.74297410714286,33.64266713842278L139.27756428571428,33.61416965534971L139.29625625,33.588521920583986L139.60654285714287,33.565438959294795L139.98412053571428,33.54466429413455L140.1916013392857,33.52596709549033L140.29253794642858,33.50913961671054L140.64955446428573,33.698225655039465L140.73740669642856,33.86840308953552L140.89255,33.8173320113512L141.03273973214286,33.771368040985294L141.09068482142857,33.73000046765597L141.17666785714283,33.69276965165963L141.31498839285712,33.65926191726291L141.39349464285715,33.62910495630584L141.51686160714286,33.601963691444496L141.8869625,33.57753655306928L142.15238839285715,33.55555212853156L142.61781830357143,33.535766146447656L143.27016785714284,33.51795876257211L143.53185535714286,33.501932117084124L143.83279598214287,33.48750813614495L143.88513348214286,33.47452655329971L143.96924732142858,33.46284312873897L144.75244062500002,33.45232804663431L144.81599330357142,33.4428644727401L144.88889196428573,33.43434725623533L146.29078928571428,33.42668176138099L146.32443482142858,33.419782816012145L146.505746875,33.41357376518016L146.60107589285712,33.40798561943137L146.75621919642856,33.40295628825746L146.90201651785716,33.39842989020096L147.53567410714288,33.394356131950076L147.64595669642858,33.59492051875506L147.98801964285715,33.571197697648785L148.01418839285714,33.54984715865314L148.51887142857143,33.53063167355708L148.55812455357142,33.513337736970584L148.9057950892857,33.497773194042736L149.0123392857143,33.483765105407684L149.16000580357144,33.47115782563617L149.3787017857143,33.45981127384178L150.39367544642857,33.44959937722683L150.40115223214283,33.44040867027337L150.45909732142857,33.432137034015255L150.62171741071427,33.42469256138298L150.7637763392857,33.62222330524466L151.24789821428573,33.59577020548943L151.399303125,33.57196241570975L151.99370758928572,33.550535404908004L152.20679598214284,33.531251095186406L152.44231473214285,33.51389521643702L152.49091383928572,33.498274925562555L152.707740625,33.48421666377553L152.995596875,33.47156422816721L153.10027187499998,33.46017703611969L153.19560089285713,33.449928563276956L153.2367232142857,33.44070493771849L153.29840669642857,33.43240367471586L153.34513660714288,33.42493253801351L153.64420803571429,33.41820851498139L153.79000535714286,33.41215689425249L153.83112767857142,33.406710435596466L153.83486607142856,33.401808622806044L154.02552410714284,33.39739699129467L154.0311316964286,33.39342652293445L154.31898794642856,33.38985310141024L154.62740535714283,33.38663702203843L154.90778482142858,33.38374255060381L155.16199553571428,33.38113752631267L155.47975892857144,33.58302377368136L155.73957723214286,33.764721396313234L156.61996875,33.92824925668194L156.62931473214286,33.871193561782974L156.71716696428572,34.02407420560468L156.82931875000003,33.95743601581344L156.87231026785713,33.89746164500133L157.03493035714288,33.843484711270406L157.36390892857145,33.794905470912596L157.37699330357142,33.75118415459056L158.63122410714286,33.711834969900735L158.69851517857143,33.67642070367992L159.14525312499998,33.64454786408115L159.20319821428572,33.615862308442274L159.76021875,33.59004530836728L159.79386428571428,33.771040777530544L159.9434,33.729705930546714L160.05929017857144,33.692504568261256L160.1863955357143,33.659023342204364L160.61817991071428,33.62889023875317L160.62191830357142,33.60177044564705L160.85743705357143,33.5773626318516L160.9378125,33.75962636866643L161.160246875,33.719432962569016L161.55838571428572,33.683258897081345L161.65371473214284,33.65070223814246L161.92287901785716,33.82563201432819L162.01073125,33.77883804366462L162.0705455357143,33.736723470067375L162.22942723214285,33.903051123060635L162.44625401785714,33.84851524152381L162.45933839285715,33.79943294814066L162.4798995535714,33.75525888409581L162.992059375,33.71550222645547L163.227578125,33.67972123457915L163.4817888392857,33.647518341890475L163.6126325892857,33.618535738470655L163.82385178571428,33.79668216462355L164.12105401785715,33.75278317893046L164.3061044642857,33.713274091806625L164.74349642857143,33.67771591339519L164.87994776785715,33.6457135528249L164.9864919642857,33.61691142831165L165.93978214285715,33.59098951624969L166.0668875,33.56765979539398L166.210815625,33.54666304662379L166.236984375,33.527765972730634L166.30988303571428,33.5107586062268L166.3696973214286,33.495451976373346L166.93793303571428,33.481676009505264L167.14167544642856,33.469277639323934L167.47626160714285,33.45811910616078L167.519253125,33.44807642631392L167.87813883928573,33.43903801445177L167.92486875,33.430903443775804L168.16973348214287,33.42358233016748L168.18281785714285,33.416993327919954L168.225809375,33.41106322589715L168.28749285714284,33.4057261340767L168.29496964285715,33.40092275143823L168.4164674107143,33.39659970706364L168.53796517857143,33.39270896712651L168.8856357142857,33.38920730118309L168.958534375,33.386055801834004L168.98844151785713,33.38321945241984L169.25760580357144,33.38066673794708L169.30620491071429,33.37836929492161L169.37536517857143,33.37630159619869L169.77350401785714,33.37444066734801L169.85014107142857,33.57699660061323L169.9978075892857,33.5550661713211L170.09126741071427,33.53532878495824L170.12678214285717,33.51756513723166L170.31744017857145,33.50157785427774L170.81090803571428,33.48718929961916L171.02212723214288,33.4742396004265L171.08754910714285,33.46258487115307L171.87821919642855,33.45209561480701L172.1174763392857,33.44265528409554L173.34366919642858,33.4341589864552L173.40722187499998,33.426512318578915L173.52124285714285,33.41963031749026L173.55488839285715,33.41343651651047L173.69507812499998,33.407862095628644L173.9773267857143,33.40284511683501L174.074525,33.39832983592072L174.33621250000002,33.394266083097904L174.79042723214286,33.39060870555733L175.26146473214285,33.59154783500159L175.56240535714286,33.77239305150144L175.65212678571427,33.73092297712054L176.01475089285714,33.69359991017771L176.07456517857145,33.66000914992915L176.08951875000002,33.62977746570547L176.442796875,33.60256894990414L176.47083482142858,33.57808128568297L176.5942017857143,33.556042387883906L176.8297205357143,33.53620737986475L176.98860223214285,33.518355872647476L177.08953883928572,33.50228951615196L177.23533616071427,33.487829795306L177.6129138392857,33.576931431160034L177.67272812500002,33.555007518813255L177.74188839285713,33.53527599770118L177.89142410714288,33.51751762870026L178.17367276785714,33.5015350965995L178.52508169642857,33.487150817708766L178.58302678571428,33.474204966707106L178.64471026785714,33.462553700805614L178.83723750000001,33.656298330725065L178.85779866071428,33.83066849765254L178.9755580357143,33.78337087865651L179.41668839285714,33.74080302156011L179.4708950892857,33.70249195017331L180.28960312499999,33.668011985925204L180.6447504464286,33.63698001810192L180.6578348214286,33.60905124706093L180.90269955357144,33.5839153531241L180.92699910714285,33.56129304858092L181.01298214285714,33.54093297449205L181.06158125,33.52260890781207L181.16251785714286,33.71034801703087L181.32887633928573,33.67508244609701L182.0485169642857,33.64334343225656L182.1550611607143,33.61477831980011L182.35319598214286,33.58906971858934L182.47469375,33.565931977499616L182.55880758928572,33.545108010518874L182.86348660714285,33.52636644023622L183.35695446428574,33.509499026981814L183.41489955357142,33.49431835505288L183.43919910714285,33.48065575031683L183.88219866071427,33.46835940605436L184.00743482142855,33.45729269621816L184.44295758928573,33.65156342659634L184.61492366071428,33.62217631470594L184.7065142857143,33.595727914004584L184.90651830357143,33.57192435337333L185.34951785714287,33.55050114880524L185.54204508928572,33.53122026469396L185.70092678571427,33.513867468993766L185.73083392857143,33.49824995286363L186.4448669642857,33.48419418834649L186.47664330357142,33.47154400028106L186.68412410714285,33.664389600252946L186.7196388392857,33.63371987099691L186.87104374999998,33.60611711466643L186.98693392857143,33.78550540319981L187.36451160714287,33.74272409364906L187.5177857142857,33.704220915053355L187.76265044642858,33.66956805431724L188.64117276785714,33.63838047965476L188.92902901785715,33.610311662458486L188.96641294642856,33.58504972698188L189.3514674107143,33.562313985052924L189.6767075892857,33.541851817316854L189.95708705357143,33.52343586635442L189.99447098214287,33.50686151048822L190.00007857142856,33.49194459020862L190.11596875,33.478519361956984L190.15896026785717,33.46643665653053L190.16456785714286,33.45556222164669L190.67672767857144,33.44577523025123L190.835609375,33.43696693799535L190.88420848214287,33.42903947496504L191.11972723214285,33.42190475823776L191.23748660714284,33.415483513183204L192.02254910714285,33.409704392634126L192.13283169642855,33.60873395337072L192.13657008928573,33.78786055803363L192.19451517857144,33.949074502230246L192.327228125,33.88993628277649L192.7646200892857,33.83671188526807L192.94593214285715,33.7888099275105L193.40949285714285,33.745698165528665L194.21324732142858,33.70689757974503L194.51231875,33.67197705253977L195.1085924107143,33.64054857805499L195.1908370535714,33.61226295101872L195.40018705357144,33.58680588668611L195.47121651785716,33.563894528786705L195.86374776785715,33.54327430667729L196.0637517857143,33.524716106778754L196.3235700892857,33.71224449610091L196.37403839285713,33.88102004649079L196.6114263392857,33.82868727261098L196.86750625,33.781587776119096L196.97218125,33.73919822927641L197.0319955357143,33.701047637117995L197.16470848214286,33.66671210417542L197.23386875,33.6358101245271L197.875003125,33.60799834284364L198.04136160714285,33.58296773932847L198.084353125,33.560440196164876L198.19650491071428,33.5401654073176L198.69931875,33.52191809735507L198.8488544642857,33.505495518388784L199.00586696428573,33.49071519731916L199.0806348214286,33.477412908356456L199.1367107142857,33.46544084829006L199.25820848214286,33.454665994230254L199.31802276785714,33.44496862557648L200.03953258928573,33.43624099378806L200.29748169642858,33.42838612517846L200.42832544642857,33.421316743429855L200.55916919642857,33.414954299856106L200.78347276785715,33.40922810063972L200.8657174107143,33.40407452134497L201.119928125,33.3994362999797L201.2264723214286,33.39526190075094L201.39283080357143,33.39150494144508L201.49376741071427,33.3881236780698L201.643303125,33.38508054103207L201.84891473214284,33.38234171769807L201.86760669642857,33.3798767766975L202.1349017857143,33.377658329796986L202.27135312500002,33.375661727586504L202.6302388392857,33.37386478559711L202.7610825892857,33.3722475378066L202.85267321428572,33.37079201479517L202.88631875,33.36948204408489L203.00594732142855,33.36830307044562L203.28445758928572,33.367241994170286L203.72558794642856,33.57051779475327L203.8470857142857,33.75346601527795L204.24896294642858,33.713888644519386L204.69009330357142,33.67826901083666L204.72934642857143,33.64621134052223L204.888228125,33.61735943723923L204.89196651785713,33.59139272428453L205.39664955357142,33.568022682625326L206.144328125,33.546989645132015L206.21722678571427,33.52805991138803L206.52751339285714,33.51102315101846L206.67144151785715,33.495690066685825L206.71443303571428,33.48189029078648L207.01724285714286,33.469470492477086L207.217246875,33.66252344322936L207.27706116071428,33.83627109890645L207.32752946428573,33.99264398901579L207.34435223214285,33.92914882088343L207.47706517857145,33.87200316956432L207.61725491071428,33.8205720833771L207.77239821428572,33.978514875039394L207.92006473214283,33.9164326183047L208.10885357142857,33.860558587243474L208.1462375,33.81027195928834L208.28829642857144,33.76501399412871L208.394840625,33.724281825485065L208.41540178571427,33.89185364293658L208.77428749999999,33.83843750941213L209.20794107142856,33.79036298924015L209.245325,33.74709592108536L209.912628125,33.708155559746075L209.9257125,33.6731092345407L210.2397375,33.641567541855835L210.30329017857142,33.61318001843949L210.36310446428573,33.58763124736478L210.46404107142857,33.56463735339753L210.63226874999998,33.543942848827044L210.99676205357142,33.525317794713544L211.05470714285715,33.50855524601141L211.15751294642857,33.493468952179484L211.2229348214286,33.479891287730794L211.2416267857143,33.467671389726945L211.60612008928572,33.45667348152347L211.81360089285715,33.446775364140336L212.084634375,33.64209782772633L212.18744017857142,33.613657275722915L212.58370982142858,33.58806077891984L212.99119464285715,33.66713931641249L213.60616026785712,33.63619461554043L213.7145736607143,33.60834438475564L214.4061763392857,33.58327917704929L214.60057276785713,33.560720490113596L214.62674151785714,33.54041767187147L214.66225625,33.52214513545354L214.73889330357142,33.505699852677424L214.76506205357143,33.490899098178915L214.79309999999998,33.47757841913025L214.81739955357142,33.46558980798645L214.8902982142857,33.454800057957044L214.96506607142857,33.44508928293055L214.98188883928572,33.43634958540673L215.0884330357143,33.428483857635285L215.13329375,33.421404702640984L215.45105714285714,33.4150334631461L215.45479553571428,33.40929934760072L215.77068973214284,33.40413864360988L216.0996683035714,33.60372477924889L216.271634375,33.57912153209321L216.40621651785713,33.55697860965316L216.43238526785714,33.537049979457066L216.79314017857143,33.519114212280584L217.2211861607143,33.50297202182176L217.32773035714285,33.488444050408816L217.55764151785712,33.47536887613717L217.8866200892857,33.463601219292684L218.07353973214285,33.45301032813265L218.26606696428573,33.44347852608857L218.89037857142858,33.434899904248965L220.1259174107143,33.42717914459331L220.20068526785712,33.420230460903184L220.26236875,33.413976645582096L220.60630089285715,33.40834821179314L221.4063169642857,33.40328262138303L221.66239687499998,33.39872359001396L222.17455669642857,33.39462046178181L222.61942544642858,33.39092764637286L222.88858973214286,33.38760411250482L222.89045892857143,33.38461293202354L222.99887232142856,33.3819208695904L223.36523482142857,33.37949801340062L223.37271160714286,33.377317442829764L223.52037812499998,33.37535492931602L223.97272366071428,33.57781943638443L224.4232,33.760037492745965L224.66245714285714,33.719802974240594L224.724140625,33.683591907585765L224.87741473214285,33.65100194759643L225.08676473214288,33.62167098360604L225.19891651785713,33.595273116014624L225.28863794642857,33.571515035182415L225.40078973214287,33.55013276243338L225.46808080357144,33.530888716959254L225.50359553571428,33.51356907603258L225.68303839285713,33.49798139919855L225.74659107142858,33.483952490047926L225.76528303571428,33.47132647181235L226.09239241071427,33.45996305540035L226.53726116071428,33.449735980629555L226.6138982142857,33.64476238256657L226.7783875,33.616055375079156L227.19334910714286,33.590219068340474L227.26064017857144,33.566966392275646L227.4793361607143,33.54603898381731L227.83261428571427,33.52720431620483L227.88495178571426,33.51025311535355L228.675621875,33.49499703458741L228.92235580357143,33.48126656189791L229.2849799107143,33.46890913647735L229.35787857142856,33.457787453598854L229.72984866071428,33.447777939008205L230.5149111607143,33.4387693758766L230.77846785714286,33.43066166905817L231.01398660714287,33.423364732921556L231.2981044642857,33.416797490398665L231.74484241071428,33.410886972128026L232.32803169642858,33.405567505684445L232.33924687500001,33.40077998588521L232.6401875,33.396471218065926L232.65514107142857,33.39259332702855L233.09627142857144,33.389103225094914L233.3149674107143,33.38596213335467L233.830865625,33.38313515078843L233.92993303571427,33.380590866478855L234.5972361607143,33.37830101060018L234.61966651785713,33.37624014030936L235.07201205357143,33.37438535704766L235.0813580357143,33.37271605211214L235.0944424107143,33.37121367767014L235.29257723214286,33.574092309903136L235.59351785714284,33.55245230968205L235.76174553571428,33.53297630948305L236.10941607142857,33.515447909304015L236.2439982142857,33.49967234914283L236.36736517857142,33.68970511422856L236.68699776785715,33.6565038335749L236.77858839285713,33.62662268098663L236.84961785714285,33.59972964365721L236.9131705357143,33.57552591006072L236.9842,33.55374254982388L237.05709866071427,33.5341375256107L237.1748580357143,33.51649300381885L237.27392544642856,33.5006129342062L237.34682410714285,33.486320871554824L237.41972276785714,33.473458015168575L237.44589151785715,33.46188144442098L237.47766785714288,33.451462530748074L237.6795410714286,33.44208550844249L237.716925,33.433646188367476L237.78047767857143,33.426050800299976L237.8888910714286,33.41921495103921L238.57675535714287,33.41306268670451L238.672084375,33.4075256488033L238.81788169642857,33.4025423146922" style="fill: none;" fill="none"></path></g></g></g></g><g opacity="0.2"><g><g><g><path stroke="rgb(255, 112, 67)" stroke-width="2px" d="M18.772339732142857,142.53265384615383L19.005989285714286,142.53265384615383L19.121879464285712,135.47307692307692L19.131225446428573,135.47307692307692L19.204124107142857,138.19615384615383L19.57983258928571,136.00407692307692L19.69572276785714,136.00407692307692L19.776098214285714,135.47307692307692L19.789182589285716,135.47307692307692L19.878904017857145,142.96153846153845L19.90320357142857,142.96153846153845L20.028439732142857,135.47307692307692L20.204144196428572,135.47307692307692L20.589198660714285,135.47307692307692L21.18547232142857,135.47307692307692L21.19294910714286,135.47307692307692L21.282670535714285,36.08076923076925L21.295754910714283,36.08076923076925L21.377999553571428,138.19615384615383L21.854644642857142,135.47307692307692L21.935020089285715,135.47307692307692L21.94062767857143,135.47307692307692L22.20231517857143,135.47307692307692L22.277083035714284,135.89515384615385L22.499517410714287,142.96153846153845L22.80419642857143,140.91923076923078L23.006069642857142,135.47307692307692L23.159343749999998,135.47307692307692L23.338786607142858,36.58453846153847L23.34065580357143,36.58453846153847L23.363086160714285,141.70211538461538L23.712625892857144,135.47307692307692L24.372452232142855,135.47307692307692L24.73133794642857,135.47307692307692L24.761245089285712,135.47307692307692L24.87152767857143,135.47307692307692L25.456586160714284,135.47307692307692L25.46032455357143,135.47307692307692L25.553784375,136.51465384615386L25.686497321428572,135.47307692307692L25.82294866071429,135.47307692307692L25.836033035714287,135.47307692307692L26.088374553571427,135.47307692307692L26.763154464285712,135.47307692307692L26.918297767857144,139.55769230769232L27.090263839285715,135.47307692307692L27.12204017857143,135.47307692307692L27.434195982142857,135.47307692307692L27.643545982142857,135.47307692307692L27.98560892857143,135.47307692307692L28.290287946428574,135.47307692307692L28.684688392857144,135.47307692307692L28.71085714285714,135.47307692307692L29.391244642857142,135.47307692307692L29.550126339285715,35.400000000000006L29.654801339285715,135.47307692307692L29.735176785714284,135.47307692307692L29.890320089285716,135.47307692307692L30.282851339285713,135.47307692307692L30.31836607142857,135.47307692307692L30.44920982142857,135.47307692307692L30.98193080357143,135.47307692307692L31.21558035714286,135.47307692307692L31.238010714285714,135.47307692307692L31.50530580357143,135.47307692307692L31.71465580357143,135.47307692307692L32.06793392857143,135.47307692307692L32.492241517857146,135.47307692307692L32.63803883928571,135.47307692307692L32.64364642857143,135.47307692307692L32.73336785714285,135.47307692307692L33.26982723214286,135.47307692307692L33.33524910714286,135.47307692307692L33.63058214285714,135.47307692307692L33.770771875,35.400000000000006L33.98386026785714,135.47307692307692L34.06049732142857,135.47307692307692L34.325923214285716,135.47307692307692L34.35209196428571,135.47307692307692L34.578264732142856,135.47307692307692L34.59695669642857,135.47307692307692L34.77079196428572,135.47307692307692L35.288559375,135.47307692307692L35.39510357142857,135.47307692307692L35.503516964285716,135.47307692307692L36.002592410714286,135.47307692307692L36.391385267857146,135.47307692307692L36.552136160714284,135.47307692307692L36.576435714285715,135.47307692307692L36.82130044642857,135.47307692307692L37.09233392857143,135.47307692307692L37.2119625,135.47307692307692L37.90169598214286,135.47307692307692L37.91478035714286,135.47307692307692L38.13160714285714,135.47307692307692L38.28114285714286,135.47307692307692L38.36151830357143,135.47307692307692L38.5204,135.47307692307692L38.84377098214286,135.47307692307692L39.07181294642857,135.47307692307692L39.07742053571428,135.47307692307692L39.19144151785714,135.47307692307692L39.206395089285714,135.47307692307692L39.292378125,135.47307692307692L39.445652232142855,135.47307692307692L40.0381875,135.47307692307692L40.13725491071428,135.47307692307692L40.24940669642857,135.47307692307692L40.312959375,135.47307692307692L40.535393750000004,135.47307692307692L40.67371428571428,135.47307692307692L41.06624553571428,135.47307692307692L41.07559151785715,135.47307692307692L41.430738839285716,135.47307692307692L41.66625758928571,135.47307692307692L42.37842142857143,135.47307692307692L42.76347589285714,135.47307692307692L42.87936607142857,135.47307692307692L43.05693973214286,135.47307692307692L43.107408035714286,135.47307692307692L43.74480401785714,135.47307692307692L44.01396830357143,135.47307692307692L44.10929732142857,35.400000000000006L44.15228883928572,35.400000000000006L44.50743616071429,135.47307692307692L45.01211919642857,135.47307692307692L45.27567589285714,135.47307692307692L45.41212723214286,135.47307692307692L45.494371875,135.47307692307692L45.69811428571429,135.47307692307692L46.05513080357143,135.47307692307692L46.111206696428575,135.47307692307692L46.146721428571425,135.47307692307692L46.318687499999996,135.47307692307692L46.37476339285714,35.400000000000006L46.49439196428571,135.47307692307692L46.52990669642857,135.47307692307692L47.615909821428566,135.47307692307692L47.6794625,135.47307692307692L48.114985267857136,135.47307692307692L48.159845982142855,135.47307692307692L48.817803125,135.47307692307692L49.06640625,135.47307692307692L49.20098839285714,135.47307692307692L50.11315625,135.47307692307692L50.20287767857143,135.47307692307692L50.59353973214286,39.48461538461538L50.65148482142857,39.48461538461538L51.015978125000004,135.47307692307692L51.06270803571429,135.47307692307692L51.103830357142854,135.47307692307692L51.485146428571426,135.47307692307692L51.51131517857143,135.47307692307692L51.565521875,135.47307692307692L53.18237678571428,135.47307692307692L54.42539241071429,135.47307692307692L54.52445982142857,35.400000000000006L55.20110892857143,39.48461538461538L55.40485133928571,135.47307692307692L55.43102008928572,135.47307692307692L55.57494821428571,35.400000000000006L55.78990580357143,35.400000000000006L56.06841607142857,135.47307692307692L56.17682946428571,135.47307692307692L56.19365223214285,135.47307692307692L56.33571116071428,135.47307692307692L56.53384598214286,135.47307692307692L56.54879955357143,135.47307692307692L56.6815125,135.47307692307692L56.90020848214286,135.47307692307692L57.08525892857143,135.47307692307692L57.087128125,135.47307692307692L57.158157589285715,135.47307692307692L57.53386607142857,135.47307692307692L57.539473660714286,135.47307692307692L57.63106428571429,135.47307692307692L57.67592500000001,135.47307692307692L58.096494196428566,135.47307692307692L58.216122767857144,35.400000000000006L58.33762053571429,135.47307692307692L58.38061205357143,135.47307692307692L58.54323214285714,135.47307692307692L58.677814285714284,85.43653846153845L58.924548214285714,35.400000000000006L59.53203705357143,135.47307692307692L60.274108035714285,135.47307692307692L60.36196026785714,135.47307692307692L60.43298973214285,135.47307692307692L60.48532723214286,135.47307692307692L60.698415624999996,135.47307692307692L61.386279910714286,135.47307692307692L61.94330044642857,35.400000000000006L61.96199241071428,135.47307692307692L62.04423705357143,135.47307692307692L62.092836160714285,135.47307692307692L62.21994151785714,135.47307692307692L62.36013125,135.47307692307692L62.48349821428572,135.47307692307692L62.69471741071428,37.89161538461539L62.937712946428576,37.44230769230771L62.958274107142856,135.47307692307692L62.995658035714285,135.47307692307692L63.43865758928571,135.47307692307692L63.70221428571429,135.47307692307692L63.82931964285714,35.11407692307694L64.08166116071428,135.47307692307692L64.08539955357142,135.47307692307692L64.15642901785715,135.47307692307692L64.19942053571428,135.47307692307692L64.71531875,135.47307692307692L64.8985,37.44230769230771L64.91345357142858,37.44230769230771L65.23869375,135.47307692307692L65.30037723214285,135.47307692307692L65.43869776785715,135.47307692307692L65.89665089285714,41.52692307692308L66.04431741071429,135.47307692307692L66.1546,135.47307692307692L66.94153169642857,135.47307692307692L67.00695357142858,33.357692307692304L67.14527410714287,135.47307692307692L67.41630758928571,135.47307692307692L67.58266607142858,135.47307692307692L67.85930714285715,135.47307692307692L68.17146294642858,135.47307692307692L68.78269017857143,35.400000000000006L68.78455937499999,35.400000000000006L68.84250446428571,135.47307692307692L69.42756294642857,135.47307692307692L69.44999330357143,35.400000000000006L69.45747008928572,35.400000000000006L69.45933928571428,35.400000000000006L69.674296875,135.47307692307692L70.10608125,135.47307692307692L70.2892625,135.47307692307692L70.3210388392857,135.47307692307692L70.35468437499999,135.47307692307692L70.70422410714286,135.47307692307692L70.87432098214286,135.47307692307692L70.97151919642857,135.47307692307692L71.85004151785714,135.47307692307692L71.87434107142857,135.47307692307692L72.04630714285715,135.47307692307692L72.10051383928571,135.47307692307692L72.84445401785715,135.47307692307692L72.89305312500001,135.47307692307692L73.01642008928572,35.400000000000006L73.27623839285714,35.400000000000006L73.39212857142857,135.47307692307692L73.78092142857143,135.47307692307692L73.81082857142857,135.47307692307692L73.94914910714286,35.400000000000006L74.04260892857144,135.47307692307692L74.45009375,135.47307692307692L74.77907232142857,135.47307692307692L74.82767142857143,135.47307692307692L74.94169241071428,35.400000000000006L75.09496651785715,135.47307692307692L75.22394107142857,135.47307692307692L75.38095357142856,135.47307692307692L75.6276875,35.400000000000006L75.64824866071427,35.400000000000006L75.91367455357143,135.47307692307692L76.08937901785714,135.47307692307692L76.11554776785715,135.47307692307692L77.39781651785714,39.48461538461538L77.46697678571428,39.48461538461538L77.93988348214285,135.47307692307692L78.14923348214286,135.47307692307692L78.283815625,135.47307692307692L78.38849062499999,135.47307692307692L78.40531339285714,135.47307692307692L78.51559598214286,47.65384615384616L78.833359375,135.47307692307692L78.89504285714285,135.47307692307692L79.32121964285714,135.47307692307692L79.52122366071428,135.47307692307692L79.73618125,135.47307692307692L79.932446875,135.47307692307692L80.17918080357143,135.47307692307692L80.194134375,135.47307692307692L80.44086830357142,35.400000000000006L80.66143348214285,35.400000000000006L80.71190178571429,35.400000000000006L80.71564017857142,35.400000000000006L80.88386785714286,35.400000000000006L81.01471160714286,35.400000000000006L81.0782642857143,35.400000000000006L81.13060178571429,35.400000000000006L81.738090625,35.400000000000006L81.75491339285713,35.400000000000006L81.77734375,35.400000000000006L81.81285848214286,35.400000000000006L81.84463482142857,35.400000000000006L81.94557142857144,35.400000000000006L81.96800178571428,35.400000000000006L82.01473169642858,35.400000000000006L82.08389196428571,35.400000000000006L82.27828839285714,35.400000000000006L82.31380312499999,35.400000000000006L82.51006875,35.400000000000006L82.92316116071429,35.400000000000006L82.96241428571429,35.400000000000006L83.06522008928572,35.400000000000006L83.22784017857143,35.400000000000006L83.36616071428571,35.400000000000006L83.71009285714285,35.400000000000006L84.73815089285715,35.400000000000006L84.77740401785714,35.400000000000006L84.79235758928571,33.357692307692304L84.82039553571428,33.357692307692304L85.01853035714285,35.400000000000006L85.18675803571429,33.357692307692304L85.55685892857143,35.400000000000006L85.56994330357143,35.400000000000006L85.70265625,35.400000000000006L85.89705267857144,35.400000000000006L85.92882901785714,35.400000000000006L86.05406517857143,35.400000000000006L86.44472723214285,33.357692307692304L86.49893392857143,35.400000000000006L87.16062946428572,35.400000000000006L87.21670535714286,35.400000000000006L87.41857857142857,33.357692307692304L87.51577678571428,33.357692307692304L87.573721875,33.357692307692304L87.68026607142856,35.400000000000006L88.23167901785713,35.400000000000006L88.70458571428571,35.400000000000006L88.76813839285714,35.400000000000006L89.2821674107143,35.400000000000006L89.49151741071428,41.52692307692308L90.08218348214287,37.44230769230771L90.543875,33.357692307692304L90.57378214285714,33.357692307692304L90.59434330357142,33.357692307692304L91.06911919642857,35.400000000000006L91.29342276785715,35.400000000000006L91.5569794642857,35.400000000000006L91.60184017857144,35.400000000000006L92.14577633928572,33.357692307692304L92.90467008928572,33.357692307692304L92.95700758928571,33.357692307692304L93.05233660714286,35.400000000000006L93.2336486607143,33.357692307692304L93.29159374999999,33.357692307692304L93.30093973214287,33.357692307692304L93.49907455357143,35.400000000000006L94.01497276785715,33.357692307692304L94.39628883928572,35.400000000000006L94.67106071428572,33.357692307692304L94.70096785714286,33.357692307692304L94.70844464285713,33.357692307692304L94.77012812500001,33.357692307692304L94.80751205357143,33.357692307692304L94.94396339285714,33.357692307692304L95.40565491071429,33.357692307692304L95.78697098214286,33.357692307692304L95.83743928571428,33.357692307692304L95.96828303571428,33.357692307692304L96.33838392857143,33.357692307692304L96.36829107142857,33.357692307692304L97.22438303571428,35.400000000000006L97.45055580357143,33.357692307692304L97.65616741071429,33.357692307692304L98.04122187499999,33.357692307692304L98.07486741071428,33.357692307692304L98.46739866071428,33.357692307692304L99.03376517857143,35.400000000000006L99.58891651785714,33.357692307692304L100.03752366071429,33.357692307692304L100.10294553571428,33.357692307692304L100.20388214285714,33.357692307692304L100.26369642857142,33.357692307692304L100.39827857142858,33.357692307692304L100.44874687500001,35.400000000000006L100.45622366071427,35.400000000000006L100.57398303571428,33.357692307692304L100.92539196428571,33.357692307692304L101.07492767857144,35.400000000000006L101.08240446428572,35.400000000000006L101.312315625,33.357692307692304L101.3254,33.357692307692304L101.40764464285714,33.357692307692304L101.50671205357143,33.357692307692304L102.03195625000001,33.357692307692304L102.437571875,33.357692307692304L102.463740625,33.357692307692304L102.74038169642857,33.357692307692304L103.00206919642858,33.357692307692304L103.3871236607143,33.357692307692304L103.40394642857143,33.357692307692304L103.50301383928571,33.357692307692304L103.75535535714286,33.357692307692304L104.03760401785713,33.357692307692304L104.73855267857142,33.357692307692304L104.845096875,33.357692307692304L104.99276339285714,33.357692307692304L105.06005446428571,33.357692307692304L105.27127366071429,33.357692307692304L105.30118080357144,33.357692307692304L105.44884732142857,33.357692307692304L105.60959821428571,33.357692307692304L106.99654196428571,33.357692307692304L107.10869375,33.357692307692304L107.14607767857143,33.357692307692304L107.46010267857143,33.357692307692304L107.63954553571429,33.357692307692304L107.73861294642857,33.357692307692304L107.79655803571428,33.357692307692304L107.86384910714285,33.357692307692304L107.93674776785714,33.357692307692304L108.19469687499999,33.357692307692304L108.31619464285714,33.357692307692304L108.35918616071427,35.400000000000006L108.55732098214287,35.400000000000006L108.75358660714285,35.400000000000006L108.83956964285714,35.400000000000006L109.39098258928571,33.357692307692304L109.99286383928572,33.357692307692304L110.25081294642858,33.357692307692304L110.79287991071429,33.357692307692304L110.89381651785715,33.357692307692304L110.94054642857142,33.357692307692304L111.17606517857142,33.357692307692304L111.32747008928571,33.357692307692304L111.44149107142857,33.357692307692304L112.16487008928573,33.357692307692304L112.25832991071428,35.400000000000006L112.43216517857144,35.400000000000006L112.46207232142856,35.400000000000006L112.51814821428572,35.400000000000006L112.65459955357143,33.357692307692304L113.32937946428571,33.357692307692304L113.68452678571428,33.357692307692304L113.9835982142857,33.357692307692304L114.27332366071428,35.400000000000006L114.44715892857143,33.357692307692304L114.54996473214285,33.357692307692304L114.66211651785714,33.357692307692304L115.42474866071429,33.357692307692304L115.51447008928571,33.357692307692304L115.52942366071429,33.357692307692304L115.80606473214286,33.357692307692304L115.89391696428572,33.357692307692304L116.01728392857143,33.357692307692304L116.33504732142858,33.357692307692304L116.437853125,33.357692307692304L116.55187410714285,33.357692307692304L116.84533794642857,33.357692307692304L116.87898348214286,33.357692307692304L117.16683973214286,33.357692307692304L117.39114330357143,33.357692307692304L117.58553973214286,33.357692307692304L117.64722321428572,33.357692307692304L117.7668517857143,33.357692307692304L117.93321026785715,33.357692307692304L117.9612482142857,33.357692307692304L118.636028125,35.400000000000006L119.08089687500001,33.357692307692304L119.09398125,33.357692307692304L119.10145803571429,33.357692307692304L119.10893482142858,33.357692307692304L119.37249151785714,33.357692307692304L119.45473616071429,33.357692307692304L119.76502276785713,33.357692307692304L119.79306071428572,33.357692307692304L119.83231383928572,33.357692307692304L119.86035178571429,33.357692307692304L120.08091696428572,33.357692307692304L120.8398107142857,33.357692307692304L120.92205535714285,33.357692307692304L121.13888214285714,33.357692307692304L121.38187767857144,33.357692307692304L121.46599151785713,33.357692307692304L121.86039196428571,33.357692307692304L122.05852678571428,33.357692307692304L122.064134375,33.357692307692304L122.11273348214286,35.400000000000006L122.17067857142857,33.357692307692304L122.50526473214285,33.357692307692304L122.51461071428571,33.357692307692304L122.52956428571429,33.357692307692304L122.83237410714285,33.357692307692304L122.93144151785714,33.357692307692304L123.30528080357142,33.357692307692304L123.53893035714286,33.357692307692304L123.93706919642857,35.400000000000006L123.99875267857142,33.357692307692304L124.31651607142857,33.357692307692304L124.34268482142856,33.357692307692304L124.50530491071429,33.357692307692304L124.83989107142857,33.357692307692304L124.90157455357142,33.357692307692304L125.23616071428572,33.357692307692304L125.79691964285713,33.357692307692304L125.80813482142858,33.357692307692304L126.14272098214286,33.357692307692304L126.65861919642857,35.400000000000006L127.65863928571429,33.357692307692304L127.92967276785714,33.357692307692304L128.14649955357143,33.357692307692304L128.30538125,33.357692307692304L128.45117857142858,35.400000000000006L128.501646875,33.357692307692304L128.53342321428573,33.357692307692304L129.03249866071428,33.357692307692304L129.469890625,33.357692307692304L129.55774285714287,33.357692307692304L129.783915625,33.357692307692304L130.17270848214284,33.357692307692304L130.228784375,33.357692307692304L130.35402053571428,35.400000000000006L131.0063700892857,33.357692307692304L131.18020535714288,33.357692307692304L131.1914205357143,33.357692307692304L131.23254285714287,33.357692307692304L131.4007705357143,33.357692307692304L131.7334875,33.357692307692304L132.94285758928572,33.357692307692304L133.09800089285713,33.357692307692304L133.23071383928573,33.357692307692304L133.41202589285712,33.357692307692304L133.5335236607143,33.357692307692304L133.71296651785715,33.357692307692304L133.98586919642858,33.357692307692304L134.84383035714285,35.400000000000006L134.9933660714286,33.357692307692304L135.54851741071428,33.357692307692304L135.6064625,33.357692307692304L135.62141607142857,35.400000000000006L136.21768973214287,33.357692307692304L136.49806919642856,33.357692307692304L136.86443169642857,33.357692307692304L137.12238080357142,33.357692307692304L137.2532245535714,35.400000000000006L137.25509375,35.400000000000006L137.41210625,33.357692307692304L137.7074392857143,33.357692307692304L137.91305089285714,33.357692307692304L138.07006339285715,33.357692307692304L138.29997455357142,33.357692307692304L138.50558616071427,33.357692307692304L138.74297410714286,33.357692307692304L139.27756428571428,33.357692307692304L139.29625625,33.357692307692304L139.60654285714287,33.357692307692304L139.98412053571428,33.357692307692304L140.1916013392857,33.357692307692304L140.29253794642858,33.357692307692304L140.64955446428573,35.400000000000006L140.73740669642856,35.400000000000006L140.89255,33.357692307692304L141.03273973214286,33.357692307692304L141.09068482142857,33.357692307692304L141.17666785714283,33.357692307692304L141.31498839285712,33.357692307692304L141.39349464285715,33.357692307692304L141.51686160714286,33.357692307692304L141.8869625,33.357692307692304L142.15238839285715,33.357692307692304L142.61781830357143,33.357692307692304L143.27016785714284,33.357692307692304L143.53185535714286,33.357692307692304L143.83279598214287,33.357692307692304L143.88513348214286,33.357692307692304L143.96924732142858,33.357692307692304L144.75244062500002,33.357692307692304L144.81599330357142,33.357692307692304L144.88889196428573,33.357692307692304L146.29078928571428,33.357692307692304L146.32443482142858,33.357692307692304L146.505746875,33.357692307692304L146.60107589285712,33.357692307692304L146.75621919642856,33.357692307692304L146.90201651785716,33.357692307692304L147.53567410714288,33.357692307692304L147.64595669642858,35.400000000000006L147.98801964285715,33.357692307692304L148.01418839285714,33.357692307692304L148.51887142857143,33.357692307692304L148.55812455357142,33.357692307692304L148.9057950892857,33.357692307692304L149.0123392857143,33.357692307692304L149.16000580357144,33.357692307692304L149.3787017857143,33.357692307692304L150.39367544642857,33.357692307692304L150.40115223214283,33.357692307692304L150.45909732142857,33.357692307692304L150.62171741071427,33.357692307692304L150.7637763392857,35.400000000000006L151.24789821428573,33.357692307692304L151.399303125,33.357692307692304L151.99370758928572,33.357692307692304L152.20679598214284,33.357692307692304L152.44231473214285,33.357692307692304L152.49091383928572,33.357692307692304L152.707740625,33.357692307692304L152.995596875,33.357692307692304L153.10027187499998,33.357692307692304L153.19560089285713,33.357692307692304L153.2367232142857,33.357692307692304L153.29840669642857,33.357692307692304L153.34513660714288,33.357692307692304L153.64420803571429,33.357692307692304L153.79000535714286,33.357692307692304L153.83112767857142,33.357692307692304L153.83486607142856,33.357692307692304L154.02552410714284,33.357692307692304L154.0311316964286,33.357692307692304L154.31898794642856,33.357692307692304L154.62740535714283,33.357692307692304L154.90778482142858,33.357692307692304L155.16199553571428,33.357692307692304L155.47975892857144,35.400000000000006L155.73957723214286,35.400000000000006L156.61996875,35.400000000000006L156.62931473214286,33.357692307692304L156.71716696428572,35.400000000000006L156.82931875000003,33.357692307692304L156.87231026785713,33.357692307692304L157.03493035714288,33.357692307692304L157.36390892857145,33.357692307692304L157.37699330357142,33.357692307692304L158.63122410714286,33.357692307692304L158.69851517857143,33.357692307692304L159.14525312499998,33.357692307692304L159.20319821428572,33.357692307692304L159.76021875,33.357692307692304L159.79386428571428,35.400000000000006L159.9434,33.357692307692304L160.05929017857144,33.357692307692304L160.1863955357143,33.357692307692304L160.61817991071428,33.357692307692304L160.62191830357142,33.357692307692304L160.85743705357143,33.357692307692304L160.9378125,35.400000000000006L161.160246875,33.357692307692304L161.55838571428572,33.357692307692304L161.65371473214284,33.357692307692304L161.92287901785716,35.400000000000006L162.01073125,33.357692307692304L162.0705455357143,33.357692307692304L162.22942723214285,35.400000000000006L162.44625401785714,33.357692307692304L162.45933839285715,33.357692307692304L162.4798995535714,33.357692307692304L162.992059375,33.357692307692304L163.227578125,33.357692307692304L163.4817888392857,33.357692307692304L163.6126325892857,33.357692307692304L163.82385178571428,35.400000000000006L164.12105401785715,33.357692307692304L164.3061044642857,33.357692307692304L164.74349642857143,33.357692307692304L164.87994776785715,33.357692307692304L164.9864919642857,33.357692307692304L165.93978214285715,33.357692307692304L166.0668875,33.357692307692304L166.210815625,33.357692307692304L166.236984375,33.357692307692304L166.30988303571428,33.357692307692304L166.3696973214286,33.357692307692304L166.93793303571428,33.357692307692304L167.14167544642856,33.357692307692304L167.47626160714285,33.357692307692304L167.519253125,33.357692307692304L167.87813883928573,33.357692307692304L167.92486875,33.357692307692304L168.16973348214287,33.357692307692304L168.18281785714285,33.357692307692304L168.225809375,33.357692307692304L168.28749285714284,33.357692307692304L168.29496964285715,33.357692307692304L168.4164674107143,33.357692307692304L168.53796517857143,33.357692307692304L168.8856357142857,33.357692307692304L168.958534375,33.357692307692304L168.98844151785713,33.357692307692304L169.25760580357144,33.357692307692304L169.30620491071429,33.357692307692304L169.37536517857143,33.357692307692304L169.77350401785714,33.357692307692304L169.85014107142857,35.400000000000006L169.9978075892857,33.357692307692304L170.09126741071427,33.357692307692304L170.12678214285717,33.357692307692304L170.31744017857145,33.357692307692304L170.81090803571428,33.357692307692304L171.02212723214288,33.357692307692304L171.08754910714285,33.357692307692304L171.87821919642855,33.357692307692304L172.1174763392857,33.357692307692304L173.34366919642858,33.357692307692304L173.40722187499998,33.357692307692304L173.52124285714285,33.357692307692304L173.55488839285715,33.357692307692304L173.69507812499998,33.357692307692304L173.9773267857143,33.357692307692304L174.074525,33.357692307692304L174.33621250000002,33.357692307692304L174.79042723214286,33.357692307692304L175.26146473214285,35.400000000000006L175.56240535714286,35.400000000000006L175.65212678571427,33.357692307692304L176.01475089285714,33.357692307692304L176.07456517857145,33.357692307692304L176.08951875000002,33.357692307692304L176.442796875,33.357692307692304L176.47083482142858,33.357692307692304L176.5942017857143,33.357692307692304L176.8297205357143,33.357692307692304L176.98860223214285,33.357692307692304L177.08953883928572,33.357692307692304L177.23533616071427,33.357692307692304L177.6129138392857,34.378846153846155L177.67272812500002,33.357692307692304L177.74188839285713,33.357692307692304L177.89142410714288,33.357692307692304L178.17367276785714,33.357692307692304L178.52508169642857,33.357692307692304L178.58302678571428,33.357692307692304L178.64471026785714,33.357692307692304L178.83723750000001,35.400000000000006L178.85779866071428,35.400000000000006L178.9755580357143,33.357692307692304L179.41668839285714,33.357692307692304L179.4708950892857,33.357692307692304L180.28960312499999,33.357692307692304L180.6447504464286,33.357692307692304L180.6578348214286,33.357692307692304L180.90269955357144,33.357692307692304L180.92699910714285,33.357692307692304L181.01298214285714,33.357692307692304L181.06158125,33.357692307692304L181.16251785714286,35.400000000000006L181.32887633928573,33.357692307692304L182.0485169642857,33.357692307692304L182.1550611607143,33.357692307692304L182.35319598214286,33.357692307692304L182.47469375,33.357692307692304L182.55880758928572,33.357692307692304L182.86348660714285,33.357692307692304L183.35695446428574,33.357692307692304L183.41489955357142,33.357692307692304L183.43919910714285,33.357692307692304L183.88219866071427,33.357692307692304L184.00743482142855,33.357692307692304L184.44295758928573,35.400000000000006L184.61492366071428,33.357692307692304L184.7065142857143,33.357692307692304L184.90651830357143,33.357692307692304L185.34951785714287,33.357692307692304L185.54204508928572,33.357692307692304L185.70092678571427,33.357692307692304L185.73083392857143,33.357692307692304L186.4448669642857,33.357692307692304L186.47664330357142,33.357692307692304L186.68412410714285,35.400000000000006L186.7196388392857,33.357692307692304L186.87104374999998,33.357692307692304L186.98693392857143,35.400000000000006L187.36451160714287,33.357692307692304L187.5177857142857,33.357692307692304L187.76265044642858,33.357692307692304L188.64117276785714,33.357692307692304L188.92902901785715,33.357692307692304L188.96641294642856,33.357692307692304L189.3514674107143,33.357692307692304L189.6767075892857,33.357692307692304L189.95708705357143,33.357692307692304L189.99447098214287,33.357692307692304L190.00007857142856,33.357692307692304L190.11596875,33.357692307692304L190.15896026785717,33.357692307692304L190.16456785714286,33.357692307692304L190.67672767857144,33.357692307692304L190.835609375,33.357692307692304L190.88420848214287,33.357692307692304L191.11972723214285,33.357692307692304L191.23748660714284,33.357692307692304L192.02254910714285,33.357692307692304L192.13283169642855,35.400000000000006L192.13657008928573,35.400000000000006L192.19451517857144,35.400000000000006L192.327228125,33.357692307692304L192.7646200892857,33.357692307692304L192.94593214285715,33.357692307692304L193.40949285714285,33.357692307692304L194.21324732142858,33.357692307692304L194.51231875,33.357692307692304L195.1085924107143,33.357692307692304L195.1908370535714,33.357692307692304L195.40018705357144,33.357692307692304L195.47121651785716,33.357692307692304L195.86374776785715,33.357692307692304L196.0637517857143,33.357692307692304L196.3235700892857,35.400000000000006L196.37403839285713,35.400000000000006L196.6114263392857,33.357692307692304L196.86750625,33.357692307692304L196.97218125,33.357692307692304L197.0319955357143,33.357692307692304L197.16470848214286,33.357692307692304L197.23386875,33.357692307692304L197.875003125,33.357692307692304L198.04136160714285,33.357692307692304L198.084353125,33.357692307692304L198.19650491071428,33.357692307692304L198.69931875,33.357692307692304L198.8488544642857,33.357692307692304L199.00586696428573,33.357692307692304L199.0806348214286,33.357692307692304L199.1367107142857,33.357692307692304L199.25820848214286,33.357692307692304L199.31802276785714,33.357692307692304L200.03953258928573,33.357692307692304L200.29748169642858,33.357692307692304L200.42832544642857,33.357692307692304L200.55916919642857,33.357692307692304L200.78347276785715,33.357692307692304L200.8657174107143,33.357692307692304L201.119928125,33.357692307692304L201.2264723214286,33.357692307692304L201.39283080357143,33.357692307692304L201.49376741071427,33.357692307692304L201.643303125,33.357692307692304L201.84891473214284,33.357692307692304L201.86760669642857,33.357692307692304L202.1349017857143,33.357692307692304L202.27135312500002,33.357692307692304L202.6302388392857,33.357692307692304L202.7610825892857,33.357692307692304L202.85267321428572,33.357692307692304L202.88631875,33.357692307692304L203.00594732142855,33.357692307692304L203.28445758928572,33.357692307692304L203.72558794642856,35.400000000000006L203.8470857142857,35.400000000000006L204.24896294642858,33.357692307692304L204.69009330357142,33.357692307692304L204.72934642857143,33.357692307692304L204.888228125,33.357692307692304L204.89196651785713,33.357692307692304L205.39664955357142,33.357692307692304L206.144328125,33.357692307692304L206.21722678571427,33.357692307692304L206.52751339285714,33.357692307692304L206.67144151785715,33.357692307692304L206.71443303571428,33.357692307692304L207.01724285714286,33.357692307692304L207.217246875,35.400000000000006L207.27706116071428,35.400000000000006L207.32752946428573,35.400000000000006L207.34435223214285,33.357692307692304L207.47706517857145,33.357692307692304L207.61725491071428,33.357692307692304L207.77239821428572,35.400000000000006L207.92006473214283,33.357692307692304L208.10885357142857,33.357692307692304L208.1462375,33.357692307692304L208.28829642857144,33.357692307692304L208.394840625,33.357692307692304L208.41540178571427,35.400000000000006L208.77428749999999,33.357692307692304L209.20794107142856,33.357692307692304L209.245325,33.357692307692304L209.912628125,33.357692307692304L209.9257125,33.357692307692304L210.2397375,33.357692307692304L210.30329017857142,33.357692307692304L210.36310446428573,33.357692307692304L210.46404107142857,33.357692307692304L210.63226874999998,33.357692307692304L210.99676205357142,33.357692307692304L211.05470714285715,33.357692307692304L211.15751294642857,33.357692307692304L211.2229348214286,33.357692307692304L211.2416267857143,33.357692307692304L211.60612008928572,33.357692307692304L211.81360089285715,33.357692307692304L212.084634375,35.400000000000006L212.18744017857142,33.357692307692304L212.58370982142858,33.357692307692304L212.99119464285715,34.378846153846155L213.60616026785712,33.357692307692304L213.7145736607143,33.357692307692304L214.4061763392857,33.357692307692304L214.60057276785713,33.357692307692304L214.62674151785714,33.357692307692304L214.66225625,33.357692307692304L214.73889330357142,33.357692307692304L214.76506205357143,33.357692307692304L214.79309999999998,33.357692307692304L214.81739955357142,33.357692307692304L214.8902982142857,33.357692307692304L214.96506607142857,33.357692307692304L214.98188883928572,33.357692307692304L215.0884330357143,33.357692307692304L215.13329375,33.357692307692304L215.45105714285714,33.357692307692304L215.45479553571428,33.357692307692304L215.77068973214284,33.357692307692304L216.0996683035714,35.400000000000006L216.271634375,33.357692307692304L216.40621651785713,33.357692307692304L216.43238526785714,33.357692307692304L216.79314017857143,33.357692307692304L217.2211861607143,33.357692307692304L217.32773035714285,33.357692307692304L217.55764151785712,33.357692307692304L217.8866200892857,33.357692307692304L218.07353973214285,33.357692307692304L218.26606696428573,33.357692307692304L218.89037857142858,33.357692307692304L220.1259174107143,33.357692307692304L220.20068526785712,33.357692307692304L220.26236875,33.357692307692304L220.60630089285715,33.357692307692304L221.4063169642857,33.357692307692304L221.66239687499998,33.357692307692304L222.17455669642857,33.357692307692304L222.61942544642858,33.357692307692304L222.88858973214286,33.357692307692304L222.89045892857143,33.357692307692304L222.99887232142856,33.357692307692304L223.36523482142857,33.357692307692304L223.37271160714286,33.357692307692304L223.52037812499998,33.357692307692304L223.97272366071428,35.400000000000006L224.4232,35.400000000000006L224.66245714285714,33.357692307692304L224.724140625,33.357692307692304L224.87741473214285,33.357692307692304L225.08676473214288,33.357692307692304L225.19891651785713,33.357692307692304L225.28863794642857,33.357692307692304L225.40078973214287,33.357692307692304L225.46808080357144,33.357692307692304L225.50359553571428,33.357692307692304L225.68303839285713,33.357692307692304L225.74659107142858,33.357692307692304L225.76528303571428,33.357692307692304L226.09239241071427,33.357692307692304L226.53726116071428,33.357692307692304L226.6138982142857,35.400000000000006L226.7783875,33.357692307692304L227.19334910714286,33.357692307692304L227.26064017857144,33.357692307692304L227.4793361607143,33.357692307692304L227.83261428571427,33.357692307692304L227.88495178571426,33.357692307692304L228.675621875,33.357692307692304L228.92235580357143,33.357692307692304L229.2849799107143,33.357692307692304L229.35787857142856,33.357692307692304L229.72984866071428,33.357692307692304L230.5149111607143,33.357692307692304L230.77846785714286,33.357692307692304L231.01398660714287,33.357692307692304L231.2981044642857,33.357692307692304L231.74484241071428,33.357692307692304L232.32803169642858,33.357692307692304L232.33924687500001,33.357692307692304L232.6401875,33.357692307692304L232.65514107142857,33.357692307692304L233.09627142857144,33.357692307692304L233.3149674107143,33.357692307692304L233.830865625,33.357692307692304L233.92993303571427,33.357692307692304L234.5972361607143,33.357692307692304L234.61966651785713,33.357692307692304L235.07201205357143,33.357692307692304L235.0813580357143,33.357692307692304L235.0944424107143,33.357692307692304L235.29257723214286,35.400000000000006L235.59351785714284,33.357692307692304L235.76174553571428,33.357692307692304L236.10941607142857,33.357692307692304L236.2439982142857,33.357692307692304L236.36736517857142,35.400000000000006L236.68699776785715,33.357692307692304L236.77858839285713,33.357692307692304L236.84961785714285,33.357692307692304L236.9131705357143,33.357692307692304L236.9842,33.357692307692304L237.05709866071427,33.357692307692304L237.1748580357143,33.357692307692304L237.27392544642856,33.357692307692304L237.34682410714285,33.357692307692304L237.41972276785714,33.357692307692304L237.44589151785715,33.357692307692304L237.47766785714288,33.357692307692304L237.6795410714286,33.357692307692304L237.716925,33.357692307692304L237.78047767857143,33.357692307692304L237.8888910714286,33.357692307692304L238.57675535714287,33.357692307692304L238.672084375,33.357692307692304L238.81788169642857,33.357692307692304" style="fill: none;" fill="none"></path></g></g></g></g></g></g><g transform="translate(68, 177)" clip-path="url(#clip_1)"><clipPath id="clip_1"><rect width="261" height="23"></rect></clipPath><g><g><line x1="0" y1="0" x2="0" y2="5" style="visibility: inherit;" fill="rgb(0, 0, 0)" stroke="rgb(204, 204, 204)" stroke-width="1px"></line><line x1="18.691964285714285" y1="0" x2="18.691964285714285" y2="5" style="visibility: inherit;" fill="rgb(0, 0, 0)" stroke="rgb(204, 204, 204)" stroke-width="1px"></line><line x1="37.38392857142857" y1="0" x2="37.38392857142857" y2="5" style="visibility: inherit;" fill="rgb(0, 0, 0)" stroke="rgb(204, 204, 204)" stroke-width="1px"></line><line x1="56.075892857142854" y1="0" x2="56.075892857142854" y2="5" style="visibility: inherit;" fill="rgb(0, 0, 0)" stroke="rgb(204, 204, 204)" stroke-width="1px"></line><line x1="74.76785714285714" y1="0" x2="74.76785714285714" y2="5" style="visibility: inherit;" fill="rgb(0, 0, 0)" stroke="rgb(204, 204, 204)" stroke-width="1px"></line><line x1="93.45982142857143" y1="0" x2="93.45982142857143" y2="5" style="visibility: inherit;" fill="rgb(0, 0, 0)" stroke="rgb(204, 204, 204)" stroke-width="1px"></line><line x1="112.15178571428571" y1="0" x2="112.15178571428571" y2="5" style="visibility: inherit;" fill="rgb(0, 0, 0)" stroke="rgb(204, 204, 204)" stroke-width="1px"></line><line x1="130.84375" y1="0" x2="130.84375" y2="5" style="visibility: inherit;" fill="rgb(0, 0, 0)" stroke="rgb(204, 204, 204)" stroke-width="1px"></line><line x1="149.53571428571428" y1="0" x2="149.53571428571428" y2="5" style="visibility: inherit;" fill="rgb(0, 0, 0)" stroke="rgb(204, 204, 204)" stroke-width="1px"></line><line x1="168.22767857142858" y1="0" x2="168.22767857142858" y2="5" style="visibility: inherit;" fill="rgb(0, 0, 0)" stroke="rgb(204, 204, 204)" stroke-width="1px"></line><line x1="186.91964285714286" y1="0" x2="186.91964285714286" y2="5" style="visibility: inherit;" fill="rgb(0, 0, 0)" stroke="rgb(204, 204, 204)" stroke-width="1px"></line><line x1="205.61160714285714" y1="0" x2="205.61160714285714" y2="5" style="visibility: inherit;" fill="rgb(0, 0, 0)" stroke="rgb(204, 204, 204)" stroke-width="1px"></line><line x1="224.30357142857142" y1="0" x2="224.30357142857142" y2="5" style="visibility: inherit;" fill="rgb(0, 0, 0)" stroke="rgb(204, 204, 204)" stroke-width="1px"></line><line x1="242.99553571428572" y1="0" x2="242.99553571428572" y2="5" style="visibility: inherit;" fill="rgb(0, 0, 0)" stroke="rgb(204, 204, 204)" stroke-width="1px"></line><line x1="261.6875" y1="0" x2="261.6875" y2="5" style="visibility: inherit;" fill="rgb(0, 0, 0)" stroke="rgb(204, 204, 204)" stroke-width="1px"></line></g><g transform="translate(0, 8)"><text x="0" y="0" dx="0em" dy="0.95em" style="text-anchor: middle; visibility: hidden; font-family: &quot;Helvetica Neue&quot;, sans-serif; font-size: 12px; font-weight: 200;" fill="rgb(50, 49, 63)" stroke="none" stroke-width="1px">-10k</text><text x="18.691964285714285" y="0" dx="0em" dy="0.95em" style="text-anchor: middle; visibility: inherit; font-family: &quot;Helvetica Neue&quot;, sans-serif; font-size: 12px; font-weight: 200;" fill="rgb(50, 49, 63)" stroke="none" stroke-width="1px">0</text><text x="37.38392857142857" y="0" dx="0em" dy="0.95em" style="text-anchor: middle; visibility: hidden; font-family: &quot;Helvetica Neue&quot;, sans-serif; font-size: 12px; font-weight: 200;" fill="rgb(50, 49, 63)" stroke="none" stroke-width="1px">10k</text><text x="56.075892857142854" y="0" dx="0em" dy="0.95em" style="text-anchor: middle; visibility: inherit; font-family: &quot;Helvetica Neue&quot;, sans-serif; font-size: 12px; font-weight: 200;" fill="rgb(50, 49, 63)" stroke="none" stroke-width="1px">20k</text><text x="74.76785714285714" y="0" dx="0em" dy="0.95em" style="text-anchor: middle; visibility: hidden; font-family: &quot;Helvetica Neue&quot;, sans-serif; font-size: 12px; font-weight: 200;" fill="rgb(50, 49, 63)" stroke="none" stroke-width="1px">30k</text><text x="93.45982142857143" y="0" dx="0em" dy="0.95em" style="text-anchor: middle; visibility: inherit; font-family: &quot;Helvetica Neue&quot;, sans-serif; font-size: 12px; font-weight: 200;" fill="rgb(50, 49, 63)" stroke="none" stroke-width="1px">40k</text><text x="112.15178571428571" y="0" dx="0em" dy="0.95em" style="text-anchor: middle; visibility: hidden; font-family: &quot;Helvetica Neue&quot;, sans-serif; font-size: 12px; font-weight: 200;" fill="rgb(50, 49, 63)" stroke="none" stroke-width="1px">50k</text><text x="130.84375" y="0" dx="0em" dy="0.95em" style="text-anchor: middle; visibility: inherit; font-family: &quot;Helvetica Neue&quot;, sans-serif; font-size: 12px; font-weight: 200;" fill="rgb(50, 49, 63)" stroke="none" stroke-width="1px">60k</text><text x="149.53571428571428" y="0" dx="0em" dy="0.95em" style="text-anchor: middle; visibility: hidden; font-family: &quot;Helvetica Neue&quot;, sans-serif; font-size: 12px; font-weight: 200;" fill="rgb(50, 49, 63)" stroke="none" stroke-width="1px">70k</text><text x="168.22767857142858" y="0" dx="0em" dy="0.95em" style="text-anchor: middle; visibility: inherit; font-family: &quot;Helvetica Neue&quot;, sans-serif; font-size: 12px; font-weight: 200;" fill="rgb(50, 49, 63)" stroke="none" stroke-width="1px">80k</text><text x="186.91964285714286" y="0" dx="0em" dy="0.95em" style="text-anchor: middle; visibility: hidden; font-family: &quot;Helvetica Neue&quot;, sans-serif; font-size: 12px; font-weight: 200;" fill="rgb(50, 49, 63)" stroke="none" stroke-width="1px">90k</text><text x="205.61160714285714" y="0" dx="0em" dy="0.95em" style="text-anchor: middle; visibility: inherit; font-family: &quot;Helvetica Neue&quot;, sans-serif; font-size: 12px; font-weight: 200;" fill="rgb(50, 49, 63)" stroke="none" stroke-width="1px">100k</text><text x="224.30357142857142" y="0" dx="0em" dy="0.95em" style="text-anchor: middle; visibility: hidden; font-family: &quot;Helvetica Neue&quot;, sans-serif; font-size: 12px; font-weight: 200;" fill="rgb(50, 49, 63)" stroke="none" stroke-width="1px">110k</text><text x="242.99553571428572" y="0" dx="0em" dy="0.95em" style="text-anchor: middle; visibility: inherit; font-family: &quot;Helvetica Neue&quot;, sans-serif; font-size: 12px; font-weight: 200;" fill="rgb(50, 49, 63)" stroke="none" stroke-width="1px">120k</text><text x="261.6875" y="0" dx="0em" dy="0.95em" style="text-anchor: middle; visibility: hidden; font-family: &quot;Helvetica Neue&quot;, sans-serif; font-size: 12px; font-weight: 200;" fill="rgb(50, 49, 63)" stroke="none" stroke-width="1px">130k</text></g><line x1="0" y1="0" x2="261.6875" y2="0" fill="rgb(0, 0, 0)" stroke="rgb(204, 204, 204)" stroke-width="1px"></line></g></g></g></g></svg>