<svg viewBox="0 0 330 200" xmlns="http://www.w3.org/2000/svg"><g><g><g><g><g><line x1="68.3125" y1="177" x2="63.3125" y2="177" style="visibility: inherit;" fill="rgb(0, 0, 0)" stroke="rgb(204, 204, 204)" stroke-width="1px"></line><line x1="68.3125" y1="163.3846153846154" x2="63.3125" y2="163.3846153846154" style="visibility: inherit;" fill="rgb(0, 0, 0)" stroke="rgb(204, 204, 204)" stroke-width="1px"></line><line x1="68.3125" y1="149.76923076923077" x2="63.3125" y2="149.76923076923077" style="visibility: inherit;" fill="rgb(0, 0, 0)" stroke="rgb(204, 204, 204)" stroke-width="1px"></line><line x1="68.3125" y1="136.15384615384616" x2="63.3125" y2="136.15384615384616" style="visibility: inherit;" fill="rgb(0, 0, 0)" stroke="rgb(204, 204, 204)" stroke-width="1px"></line><line x1="68.3125" y1="122.53846153846153" x2="63.3125" y2="122.53846153846153" style="visibility: inherit;" fill="rgb(0, 0, 0)" stroke="rgb(204, 204, 204)" stroke-width="1px"></line><line x1="68.3125" y1="108.92307692307692" x2="63.3125" y2="108.92307692307692" style="visibility: inherit;" fill="rgb(0, 0, 0)" stroke="rgb(204, 204, 204)" stroke-width="1px"></line><line x1="68.3125" y1="95.3076923076923" x2="63.3125" y2="95.3076923076923" style="visibility: inherit;" fill="rgb(0, 0, 0)" stroke="rgb(204, 204, 204)" stroke-width="1px"></line><line x1="68.3125" y1="81.6923076923077" x2="63.3125" y2="81.6923076923077" style="visibility: inherit;" fill="rgb(0, 0, 0)" stroke="rgb(204, 204, 204)" stroke-width="1px"></line><line x1="68.3125" y1="68.07692307692307" x2="63.3125" y2="68.07692307692307" style="visibility: inherit;" fill="rgb(0, 0, 0)" stroke="rgb(204, 204, 204)" stroke-width="1px"></line><line x1="68.3125" y1="54.46153846153847" x2="63.3125" y2="54.46153846153847" style="visibility: inherit;" fill="rgb(0, 0, 0)" stroke="rgb(204, 204, 204)" stroke-width="1px"></line><line x1="68.3125" y1="40.84615384615384" x2="63.3125" y2="40.84615384615384" style="visibility: inherit;" fill="rgb(0, 0, 0)" stroke="rgb(204, 204, 204)" stroke-width="1px"></line><line x1="68.3125" y1="27.230769230769226" x2="63.3125" y2="27.230769230769226" style="visibility: inherit;" fill="rgb(0, 0, 0)" stroke="rgb(204, 204, 204)" stroke-width="1px"></line><line x1="68.3125" y1="13.615384615384613" x2="63.3125" y2="13.615384615384613" style="visibility: inherit;" fill="rgb(0, 0, 0)" stroke="rgb(204, 204, 204)" stroke-width="1px"></line><line x1="68.3125" y1="0" x2="63.3125" y2="0" style="visibility: inherit;" fill="rgb(0, 0, 0)" stroke="rgb(204, 204, 204)" stroke-width="1px"></line></g><g transform="translate(58.3125, 0)"><text x="0" y="177" dx="0em" dy="0.3em" style="text-anchor: end; visibility: hidden; font-family: &quot;Helvetica Neue&quot;, sans-serif; font-size: 12px; font-weight: 200;" fill="rgb(50, 49, 63)" stroke="none" stroke-width="1px">-2e+3</text><text x="0" y="163.3846153846154" dx="0em" dy="0.3em" style="text-anchor: end; visibility: inherit; font-family: &quot;Helvetica Neue&quot;, sans-serif; font-size: 12px; font-weight: 200;" fill="rgb(50, 49, 63)" stroke="none" stroke-width="1px">0</text><text x="0" y="149.76923076923077" dx="0em" dy="0.3em" style="text-anchor: end; visibility: hidden; font-family: &quot;Helvetica Neue&quot;, sans-serif; font-size: 12px; font-weight: 200;" fill="rgb(50, 49, 63)" stroke="none" stroke-width="1px">2e+3</text><text x="0" y="136.15384615384616" dx="0em" dy="0.3em" style="text-anchor: end; visibility: inherit; font-family: &quot;Helvetica Neue&quot;, sans-serif; font-size: 12px; font-weight: 200;" fill="rgb(50, 49, 63)" stroke="none" stroke-width="1px">4e+3</text><text x="0" y="122.53846153846153" dx="0em" dy="0.3em" style="text-anchor: end; visibility: hidden; font-family: &quot;Helvetica Neue&quot;, sans-serif; font-size: 12px; font-weight: 200;" fill="rgb(50, 49, 63)" stroke="none" stroke-width="1px">6e+3</text><text x="0" y="108.92307692307692" dx="0em" dy="0.3em" style="text-anchor: end; visibility: inherit; font-family: &quot;Helvetica Neue&quot;, sans-serif; font-size: 12px; font-weight: 200;" fill="rgb(50, 49, 63)" stroke="none" stroke-width="1px">8e+3</text><text x="0" y="95.3076923076923" dx="0em" dy="0.3em" style="text-anchor: end; visibility: hidden; font-family: &quot;Helvetica Neue&quot;, sans-serif; font-size: 12px; font-weight: 200;" fill="rgb(50, 49, 63)" stroke="none" stroke-width="1px">1e+4</text><text x="0" y="81.6923076923077" dx="0em" dy="0.3em" style="text-anchor: end; visibility: inherit; font-family: &quot;Helvetica Neue&quot;, sans-serif; font-size: 12px; font-weight: 200;" fill="rgb(50, 49, 63)" stroke="none" stroke-width="1px">1.2e+4</text><text x="0" y="68.07692307692307" dx="0em" dy="0.3em" style="text-anchor: end; visibility: hidden; font-family: &quot;Helvetica Neue&quot;, sans-serif; font-size: 12px; font-weight: 200;" fill="rgb(50, 49, 63)" stroke="none" stroke-width="1px">1.4e+4</text><text x="0" y="54.46153846153847" dx="0em" dy="0.3em" style="text-anchor: end; visibility: inherit; font-family: &quot;Helvetica Neue&quot;, sans-serif; font-size: 12px; font-weight: 200;" fill="rgb(50, 49, 63)" stroke="none" stroke-width="1px">1.6e+4</text><text x="0" y="40.84615384615384" dx="0em" dy="0.3em" style="text-anchor: end; visibility: hidden; font-family: &quot;Helvetica Neue&quot;, sans-serif; font-size: 12px; font-weight: 200;" fill="rgb(50, 49, 63)" stroke="none" stroke-width="1px">1.8e+4</text><text x="0" y="27.230769230769226" dx="0em" dy="0.3em" style="text-anchor: end; visibility: inherit; font-family: &quot;Helvetica Neue&quot;, sans-serif; font-size: 12px; font-weight: 200;" fill="rgb(50, 49, 63)" stroke="none" stroke-width="1px">2e+4</text><text x="0" y="13.615384615384613" dx="0em" dy="0.3em" style="text-anchor: end; visibility: hidden; font-family: &quot;Helvetica Neue&quot;, sans-serif; font-size: 12px; font-weight: 200;" fill="rgb(50, 49, 63)" stroke="none" stroke-width="1px">2.2e+4</text><text x="0" y="0" dx="0em" dy="0.3em" style="text-anchor: end; visibility: hidden; font-family: &quot;Helvetica Neue&quot;, sans-serif; font-size: 12px; font-weight: 200;" fill="rgb(50, 49, 63)" stroke="none" stroke-width="1px">2.4e+4</text></g><line x1="68.3125" y1="0" x2="68.3125" y2="177" fill="rgb(0, 0, 0)" stroke="rgb(204, 204, 204)" stroke-width="1px"></line></g></g><g transform="translate(68, 0)" clip-path="url(#clip_0)"><clipPath id="clip_0"><rect width="261" height="177"></rect></clipPath><g><g><g><line x1="0" y1="0" x2="0" y2="177" fill="rgb(0, 0, 0)" stroke="rgb(60, 60, 60)" stroke-width="1px" opacity="0.25"></line><line x1="29.076388888888886" y1="0" x2="29.076388888888886" y2="177" fill="rgb(0, 0, 0)" stroke="rgb(60, 60, 60)" stroke-width="1px" opacity="0.25"></line><line x1="58.15277777777777" y1="0" x2="58.15277777777777" y2="177" fill="rgb(0, 0, 0)" stroke="rgb(60, 60, 60)" stroke-width="1px" opacity="0.25"></line><line x1="87.22916666666666" y1="0" x2="87.22916666666666" y2="177" fill="rgb(0, 0, 0)" stroke="rgb(60, 60, 60)" stroke-width="1px" opacity="0.25"></line><line x1="116.30555555555554" y1="0" x2="116.30555555555554" y2="177" fill="rgb(0, 0, 0)" stroke="rgb(60, 60, 60)" stroke-width="1px" opacity="0.25"></line><line x1="145.38194444444446" y1="0" x2="145.38194444444446" y2="177" fill="rgb(0, 0, 0)" stroke="rgb(60, 60, 60)" stroke-width="1px" opacity="0.25"></line><line x1="174.45833333333331" y1="0" x2="174.45833333333331" y2="177" fill="rgb(0, 0, 0)" stroke="rgb(60, 60, 60)" stroke-width="1px" opacity="0.25"></line><line x1="203.53472222222223" y1="0" x2="203.53472222222223" y2="177" fill="rgb(0, 0, 0)" stroke="rgb(60, 60, 60)" stroke-width="1px" opacity="0.25"></line><line x1="232.6111111111111" y1="0" x2="232.6111111111111" y2="177" fill="rgb(0, 0, 0)" stroke="rgb(60, 60, 60)" stroke-width="1px" opacity="0.25"></line><line x1="261.6875" y1="0" x2="261.6875" y2="177" fill="rgb(0, 0, 0)" stroke="rgb(60, 60, 60)" stroke-width="1px" opacity="0.25"></line></g><g><line x1="0" y1="177" x2="261.6875" y2="177" fill="rgb(0, 0, 0)" stroke="rgb(60, 60, 60)" stroke-width="1px" opacity="0.25"></line><line x1="0" y1="163.3846153846154" x2="261.6875" y2="163.3846153846154" fill="rgb(0, 0, 0)" stroke="rgb(60, 60, 60)" stroke-width="1px" opacity="0.25"></line><line x1="0" y1="149.76923076923077" x2="261.6875" y2="149.76923076923077" fill="rgb(0, 0, 0)" stroke="rgb(60, 60, 60)" stroke-width="1px" opacity="0.25"></line><line x1="0" y1="136.15384615384616" x2="261.6875" y2="136.15384615384616" fill="rgb(0, 0, 0)" stroke="rgb(60, 60, 60)" stroke-width="1px" opacity="0.25"></line><line x1="0" y1="122.53846153846153" x2="261.6875" y2="122.53846153846153" fill="rgb(0, 0, 0)" stroke="rgb(60, 60, 60)" stroke-width="1px" opacity="0.25"></line><line x1="0" y1="108.92307692307692" x2="261.6875" y2="108.92307692307692" fill="rgb(0, 0, 0)" stroke="rgb(60, 60, 60)" stroke-width="1px" opacity="0.25"></line><line x1="0" y1="95.3076923076923" x2="261.6875" y2="95.3076923076923" fill="rgb(0, 0, 0)" stroke="rgb(60, 60, 60)" stroke-width="1px" opacity="0.25"></line><line x1="0" y1="81.6923076923077" x2="261.6875" y2="81.6923076923077" fill="rgb(0, 0, 0)" stroke="rgb(60, 60, 60)" stroke-width="1px" opacity="0.25"></line><line x1="0" y1="68.07692307692307" x2="261.6875" y2="68.07692307692307" fill="rgb(0, 0, 0)" stroke="rgb(60, 60, 60)" stroke-width="1px" opacity="0.25"></line><line x1="0" y1="54.46153846153847" x2="261.6875" y2="54.46153846153847" fill="rgb(0, 0, 0)" stroke="rgb(60, 60, 60)" stroke-width="1px" opacity="0.25"></line><line x1="0" y1="40.84615384615384" x2="261.6875" y2="40.84615384615384" fill="rgb(0, 0, 0)" stroke="rgb(60, 60, 60)" stroke-width="1px" opacity="0.25"></line><line x1="0" y1="27.230769230769226" x2="261.6875" y2="27.230769230769226" fill="rgb(0, 0, 0)" stroke="rgb(60, 60, 60)" stroke-width="1px" opacity="0.25"></line><line x1="0" y1="13.615384615384613" x2="261.6875" y2="13.615384615384613" fill="rgb(0, 0, 0)" stroke="rgb(60, 60, 60)" stroke-width="1px" opacity="0.25"></line><line x1="0" y1="0" x2="261.6875" y2="0" fill="rgb(0, 0, 0)" stroke="rgb(60, 60, 60)" stroke-width="1px" opacity="0.25"></line></g></g></g><g><g><line x1="0" y1="163.3846153846154" x2="261.6875" y2="163.3846153846154" fill="rgb(0, 0, 0)" stroke="rgb(153, 153, 153)" stroke-width="1.5px"></line></g></g><g><g><line x1="29.076388888888886" y1="0" x2="29.076388888888886" y2="177" fill="rgb(0, 0, 0)" stroke="rgb(153, 153, 153)" stroke-width="1.5px"></line></g></g><g><g><g><g><g><path stroke="rgb(255, 112, 67)" stroke-width="2px" d="M29.138903125000002,162.36346153846154L29.320630555555557,162.81133603238865L29.41076736111111,162.58326710190178L29.766953125,161.82650703469255L29.857089930555556,161.2926684423974L29.919604166666666,161.3759074507816L29.92978090277778,161.07586504587644L29.999564236111112,161.15253050953194L30.01846388888889,160.90568159163738L30.115869791666665,160.9465882358177L30.252528819444446,160.6322194701966L30.552015625000003,160.70745889849903L31.015784027777777,160.76976087315126L31.09138263888889,160.60125536011225L31.101559375,160.65171037113205L31.165527430555557,160.71558741827673L31.598765625,160.77037768769526L31.60312708333333,160.81764620882765L31.806661805555553,160.80943596764263L31.86481458333333,160.87009825849017L32.03781909722222,160.7893490946014L32.431804166666666,160.88844177470946L32.55101736111111,160.9382421422256L32.69058402777778,160.945162226178L32.692037847222224,160.9512773120357L32.981347916666664,161.01127615522307L33.49454618055555,161.1548430719998L33.77367951388889,161.19258392332054L33.796940625,161.19043589452951L33.88271597222222,161.18852274282125L34.33776145833333,161.00987388032308L34.340669097222225,160.85043095720636L34.413360069444444,160.58507204958119L34.63288680555555,160.52291294657925L34.82915243055555,160.38002573197377L35.35398125,160.06059615234938L35.47464826388889,159.87873379136158L35.608399652777784,159.7677779982012L35.63311458333333,159.97977025179156L35.875902430555556,160.06624446881477L36.30477916666666,159.95408958703382L36.54175173611111,160.04291719514018L36.84850763888889,160.13986239339062L36.868861111111116,160.10661138683275L37.39805138888889,160.19693086092113L37.60303993055556,159.98644979548055L37.665554166666666,160.0372989168328L37.78622118055555,159.6719172937389L38.09152326388889,159.85703562912872L38.119145833333334,160.0918692690842L38.81697916666667,160.23459435789755L38.834425,160.27746774570218L39.042321180555554,160.33310307567154L39.20514895833333,160.51975082035588L39.47992083333334,160.55104404844494L39.92333576388889,160.54505786325814L39.92769722222222,160.6591024315202L40.414726736111106,160.7275748658332L40.46561041666667,160.550425206865L40.80435034722222,160.61270614412575L40.97008576388889,160.63464408707475L41.02969236111111,160.63733744491446L41.43240034722223,160.4693451655533L41.44693854166666,160.3181939774188L41.58214375,160.3866395160673L41.98485173611111,160.35737068257762L42.06771944444445,160.25154265465832L42.540210763888886,160.27554156903355L42.84260520833334,160.33119923784488L42.96763368055556,160.36425387154526L42.986533333333334,159.98530709608644L43.17698368055556,159.67835136683993L44.196111111111115,159.9469850894145L44.312416666666664,160.00144358365299L44.374930902777784,159.82912008296134L44.49850555555555,159.99751414814375L44.75001631944444,159.72344982957858L44.92738229166667,159.5959743098727L44.931743749999995,159.31101924466304L45.02042673611111,159.24182528000296L45.098932986111116,158.9412374944668L45.21814618055556,158.874986636365L45.843288541666666,158.7813192083591L45.89271840277778,158.71404302869564L46.06572291666667,158.34711061974315L46.17330555555555,158.32326217342919L46.47860763888889,158.40392515424978L46.485876736111116,158.35737441475504L46.76210243055555,158.55376898102517L46.945283680555555,158.76456198672867L47.79867569444444,158.95427264069872L48.026925347222225,158.86970554314547L48.06617847222222,158.7595557949303L48.845425694444444,156.49887184193275L48.87886354166667,156.77048726014934L49.15508923611111,156.87026949677204L49.75260902777778,156.97709259308212L49.85873784722222,156.93707432919328L49.92270590277778,157.05423573863482L50.08117222222222,157.00650320462077L50.358851736111106,157.1337405411848L50.40246631944444,157.41844953558126L50.56384027777778,157.54703976425682L50.70049930555555,157.55214356908252L51.57279097222222,157.7950099444258L51.62222083333334,155.22239571235616L51.99585243055556,155.13659735881043L52.507596875,153.35743651110926L52.80562986111111,153.78150491615233L53.58487708333334,154.16316565155262L53.88872534722222,154.50665964181277L53.93379375,154.83282304749613L54.25363402777778,152.6585645246672L54.28561805555555,153.35675077619516L54.58219722222222,151.0918325430586L54.602550694444446,150.55961782310146L55.90226527777777,149.0509570501953L56.86905520833333,147.69316362433653L56.94610763888889,148.68365850815687L57.47239027777778,147.27749965496983L57.63085659722222,146.0970539510259L57.651210069444446,145.03465346932148L57.763154166666666,144.07849356378154L58.1469625,143.20093080964233L58.23128402777778,142.37708615774022L58.24436840277778,141.63562626950707L58.35485868055555,140.91725484069644L58.50896354166667,140.28774002000952L58.52059409722222,139.65309983941003L58.62381527777778,139.1840393273217L58.79391215277778,138.65976947869393L58.937840277777774,138.23047483160073L58.99453923611111,137.9547348144124L59.28675694444445,137.62147262523595L59.29111840277778,137.32153670175455L59.39724722222222,137.051594408511L59.724356597222226,136.89374257495695L59.81740104166666,136.581483550727L59.94533715277778,136.2834312194831L60.07181944444445,136.0322033835179L60.36839861111111,135.82311758667217L60.840889930555555,135.92426739863282L61.41805625,135.72597521740173L61.541630902777776,135.5475122650767L61.58233784722222,135.33583791257414L62.71631701388889,135.19638870760608L62.73085520833333,135.0198267267676L62.79482326388889,134.92899788489444L62.83262256944444,134.74513652997786L62.93148229166666,134.71581518065852L63.040518750000004,134.67240673416774L63.136470833333334,134.6503583659985L63.300752430555555,134.63051483511072L63.48974895833334,134.47650179930548L63.50574097222222,134.337890069709L63.53481736111111,134.213139515201L63.87937256944444,134.13490248163527L64.18322083333334,134.09852761594365L64.37948645833333,134.06579023722844L64.38239409722223,134.03632659671467L64.43763923611111,133.9927900890191L64.87233125,134.00466492673016L65.01480555555555,133.94727535513715L65.02643611111111,133.89562474108283L65.27940069444445,133.83211995749238L65.3273767361111,133.8770810398067L65.79114513888888,133.88350755135738L65.905996875,132.48520484441426L65.99177222222222,132.61379974696618L66.60383020833333,132.74655438986358L66.65471388888889,132.81497587497898L66.76229652777776,132.91059367338548L67.31765555555556,132.96261122975497L68.03584236111111,133.02644626132266L68.03729618055554,133.08389778960114L68.55485590277777,135.58637341738998L68.56212500000001,137.83860147819456L69.06514652777778,137.49993363564113L69.20762083333334,137.07599796165127L69.2585045138889,136.71147508644776L69.53036875,136.29830834487592L69.66266631944444,135.89241981617278L70.42156006944444,135.81644706500333L70.57421111111111,135.49278312650148L71.19499201388888,133.0740817286403L71.23279131944444,132.7353274008854L71.32874340277777,132.90698696896564L71.53082430555556,132.99340365690034L71.6209611111111,133.00310175277056L71.92335555555556,130.76529157296557L71.94661666666666,128.75126241200138L72.12689027777778,129.33834771022498L72.44382291666666,129.69653217050003L72.69969513888888,130.03591741543903L72.73749444444445,130.34136413579856L72.945390625,130.6332854148403L73.16782500000001,130.6066876425613L73.37572118055556,130.83803810927589L73.58216354166667,130.97817660615047L73.71882256944444,131.27449356112908L73.73917604166667,131.45608266666994L74.73649618055555,131.6195128616348L74.7902875,131.76660003708542L75.15810381944445,131.8309015718682L75.42560659722223,131.9738691070486L75.50702048611112,131.9493668117192L75.60588020833333,132.06346859212422L75.90100555555556,132.16616019448145L76.2324763888889,132.24156340582314L76.38803506944444,132.360483988347L76.55522430555556,132.48453174338593L76.70787534722221,130.17944395320342L76.89977951388889,130.48755725024603L76.91141006944444,130.5095707559942L77.10331423611112,127.97649829541145L77.31702569444445,128.19856000436087L77.44786944444445,128.67072323474957L77.59906666666666,129.11268937285988L77.63977361111111,129.51045889715024L78.12534930555556,129.8514322382337L78.14279513888889,130.15830824520324L78.17041770833333,130.48555434378258L78.1951326388889,130.78007583249968L78.27363888888888,130.73879901847815L78.32743020833334,130.9909768089508L78.38122152777778,128.95437912796288L78.56004131944445,129.3509604459521L79.03398645833333,127.35922978589872L79.06451666666666,125.54965296109488L79.27095902777778,123.71680304954596L79.37854166666666,122.20339197531985L79.64604444444444,120.89237970083303L80.44564513888889,122.11218019231478L80.47617534722222,120.79326986536512L80.50961319444446,119.62326980188485L80.66371805555555,118.16180820628853L80.79456180555555,116.99966584718152L81.08241805555555,118.60873772402252L81.19581597222222,120.10796010548381L81.34701319444444,121.50831794110388L81.46913402777778,123.02392845470003L81.77298229166666,121.63086253229517L81.81514305555555,120.29200704828625L82.3297951388889,121.58886403577418L82.37340972222222,122.72199686297297L82.53042222222221,121.35912409974506L82.6510892361111,122.53225015131486L82.73395694444444,123.57104436695727L83.16283368055555,122.07220916102472L83.58007986111112,123.2250843987726L83.97988020833334,121.77786442042905L84.1427079861111,120.49238567069006L84.60211493055556,119.33545479592567L84.96120833333333,118.2942170086383L84.98446944444444,117.35710300008017L85.36973159722223,116.4626427000704L85.54418993055555,118.10839766083546L85.74917847222223,122.38073097168169L86.20713159722222,121.1881386437426L86.79738229166666,122.36134401013906L86.91223402777777,123.40871922451096L87.05325451388889,124.34284730206082L87.09832291666666,122.88596641800724L87.259696875,121.35352362235909L87.66095104166668,119.94028664473751L87.95753020833334,119.07683490334011L88.19450277777777,118.29972833608252L88.20031805555556,117.60033242555082L88.24829409722223,116.97087610607235L88.27737048611111,116.4043654185418L88.38349930555556,115.80940964591815L88.74259270833333,117.55452637363464L89.039171875,119.4655160439641L89.078425,120.93011828572197L89.18019236111111,122.14614491868855L89.46804861111112,123.24056888835841L89.49130972222223,124.61699276875363L90.33307118055556,125.36221656880147L90.79247812499999,126.22012952730609L90.81864687500001,126.9922511899602L91.12394895833333,127.46591068634888L92.34515729166667,128.2155696177141L92.47454722222223,128.89026265594276L92.52106944444445,129.5145056211178L92.62574444444445,129.99122813592913L92.66499756944445,130.50537455310547L92.67081284722222,130.96810632856418L92.76240347222222,131.16331492647703L93.03572152777778,131.18582958767547L93.15202708333332,131.29118893660024L93.33666215277778,132.76457004294028L93.34683888888888,134.09061303864632L93.41080694444445,134.19482096555092L93.487859375,134.28860809976504L94.23221493055556,134.39003575132702L94.44738020833333,134.44728217619434L94.9504017361111,133.9031308816518L94.96348611111111,133.41339471656352L95.04053854166668,133.56830524490718L95.23680416666667,133.7247439511857L95.45633090277778,133.5591926329902L96.41585173611111,133.73356183122965L96.43911284722222,133.75434026349131L96.55396458333334,133.84111777560372L96.67899305555557,133.97027522881257L97.84495625,133.899305398239L98.25784097222223,133.5631248584151L98.33489340277778,136.00065852641976L98.37996180555557,136.46273209685472L98.43229930555556,136.3297281179385L98.48899826388889,138.52463992152926L98.68962534722222,138.01525285245324L98.78412361111111,137.45468910566944L98.81756145833333,139.46902788741022L98.97166631944445,139.05241356020764L99.12431736111111,138.40515297341764L99.19119305555556,135.18463767607588L99.62006979166667,134.95819313923752L100.08819965277777,134.754393056083L100.710434375,137.0387614427824L100.82528611111111,139.09469299081184L101.00846736111112,138.71551215326912L101.77753784722222,137.8977109379422L101.85022881944445,140.14005522876337L101.98543402777779,139.7754727828101L102.00869513888888,139.3962908891445L102.05230972222222,139.02098872330697L102.15843854166667,138.6321590817455L102.68326736111112,136.86110663510942L102.95949305555555,136.4670152023677L103.19210416666667,138.59714060520787L103.41744618055556,138.09752269853323L103.55265138888889,137.57978965944915L103.63261145833334,134.6630606935042L104.38278229166666,134.65896616261534L104.39441284722221,132.22153108481533L104.609578125,129.82360874556457L104.67790763888888,127.5633632556235L105.10096909722222,128.3883730839073L105.18965208333334,126.10145885243966L105.41790173611112,126.78333219796492L105.66795868055556,124.92922974739919L105.99361423611111,123.32861446496696L106.04159027777777,121.9050799415472L106.26402465277778,120.53880271662325L106.28583194444444,119.4282878295763L106.81066076388888,118.32670904661866L107.15666979166666,119.78605737272602L107.16684652777778,121.09947086622266L107.17266180555555,122.28154301036962L107.17847708333333,121.01377332471728L107.383465625,119.70258829993784L107.44743368055555,118.55656023917483L107.68876770833333,119.99292344602658L107.74110520833334,118.52853494757777L107.7629125,117.17654683743538L107.93446319444445,116.26610369215337L108.58868194444445,115.53180101524572L108.75732500000001,116.0027074521827L108.94632152777777,117.72849439927212L109.01174340277778,116.76285649780644L109.31849930555555,115.99589777110272L109.47260416666667,115.20351953245398L109.82733611111111,114.5924945022855L109.83896666666666,114.04257197513388L110.07448541666668,113.46254554685126L110.15153784722223,113.05965637678153L110.98166875,112.64599843141106L111.22881805555555,112.23966781903918L111.24917152777778,111.87397026790448L111.37565381944445,111.32359247188327L111.6358875,108.3434447631565L111.68386354166667,108.3843887483793L111.94409722222221,110.87200756584906L112.38024305555555,110.67711450157185L112.38896597222222,110.50171074372236L112.64919965277777,110.42894351550397L113.05045381944444,110.27835685626125L113.82824722222223,112.55955963217359L114.03905104166667,112.11081520741777L114.20769409722223,111.79204137898368L114.33126875,113.92187570262378L114.44466666666668,115.60045736313063L114.48391979166666,117.34945008835604L114.50863472222223,118.9235435410589L115.23699826388888,119.55166984538148L115.30532777777779,118.43775286084335L115.48123993055555,119.98811219014362L115.783634375,121.29833943266772L115.82724895833333,120.14590933555479L116.56724305555555,121.44035686353777L116.57596597222222,122.60535963872246L116.60795,121.2881890594656L116.73879375,120.00062015351904L116.99757361111111,121.39469275355174L118.05886180555557,120.14753117050427L118.1620829861111,119.1101818996077L118.39760173611111,118.27868294041613L118.53716840277778,117.32610310791299L118.74942604166667,116.45176202789092L119.41672916666666,115.66485505587107L119.53303472222223,114.99067724259164L119.96481909722222,114.3498787491017L120.0098875,113.77316010496077L120.48528645833332,113.27113255600317L120.703359375,115.25305776194128L120.98830798611111,117.0708289088241L121.29070243055556,116.20499601794168L121.29215625,115.47680410845521L121.41427708333335,114.77037369760968L121.64398055555556,114.23670171246408L121.92602152777778,116.1561084642946L122.10484131944445,115.39876684863438L122.26476145833334,112.23235170223246L122.44939652777778,109.46767422431692L122.86518888888888,106.911387571116L122.87972708333334,109.54630650631209L123.12106111111112,110.98734904340625L123.41473263888888,113.19765260060409L123.93229236111111,115.18692580208213L124.000621875,109.84621399110469L124.23032534722223,107.45630413045576L124.27539374999999,105.30538525587174L124.44985208333334,100.9868659610538L124.5109125,99.31269859571765L124.60686458333333,95.34666912076126L124.89472083333334,92.02402143945436L125.10116319444445,93.66286929550891L125.46316423611111,92.89129390441956L126.17408194444444,92.02668374474683L126.408146875,89.01901537027216L126.44885381944444,86.31211383324494L126.51427569444445,83.9099409114589L127.12342604166668,81.64586989723608L128.31991944444445,79.64224444597401L128.34608819444443,77.85600077060738L128.48710868055556,76.24838146277742L128.5612534722222,74.80152408573042L128.79531840277778,78.19666013869585L129.28816319444445,81.25228258636473L129.37393854166666,84.0534004815744L129.6399875,86.6254642795708L129.66034097222223,88.94032169776756L130.05287222222222,91.02369337414466L130.08340243055557,92.89872788288403L130.43668055555557,94.58625894074947L130.55153229166666,96.05397920052069L130.72162916666667,99.79165820354552L131.51686840277776,100.84095392165251L131.68841909722224,101.7853200679488L131.79890937500002,102.601211138077L132.1754486111111,103.30147463965392L132.2932079861111,101.5320002526116L132.92125798611113,97.3865886888889L133.1044392361111,93.84292982000001L133.14223854166667,90.58555991492308L133.31088159722222,92.35123469266154L133.53476979166666,94.00841891570307L133.61618368055557,92.96401933182507L133.6903284722222,91.78579047556563L133.72231250000002,88.35971142800905L133.77028854166667,88.01633643905431L133.8066340277778,90.22614510284119L134.18462708333334,87.33045366948015L134.1875347222222,84.72433137945521L134.33582430555558,82.36180208766353L134.3401857638889,85.01792957120487L134.56407395833332,87.40844430639206L134.80395416666667,89.59394602959901L135.02202708333334,91.50983988817757L135.21974652777777,88.55385589935982L135.46689583333335,90.57375877096229L135.66897673611112,87.69436366309682L136.35372569444445,85.13694652755639L136.36099479166666,82.83527110556997L136.42932430555558,80.74674399501298L136.51655347222223,83.54735805705013L136.54999131944444,86.05089148211435L136.93234583333333,88.3381100262106L136.94252256944446,90.39660671589724L137.97037291666666,94.66598450584597L138.36290416666668,96.17678990141522L138.79614236111112,97.41738014204292L138.8223111111111,98.55093058937709L138.9386166666667,99.656222145824L139.4634454861111,101.86785954662622L139.7120486111111,105.02415051504052L139.88505312499998,107.84779315584416L140.19471666666666,110.35503307102898L140.26886145833333,110.18630861007993L140.47821145833333,110.04296621061039L140.54654097222223,109.91395805108782L140.71663784722222,110.0191007075175L140.8852809027778,112.3262290983042L140.89545763888887,114.40264465001225L141.30979618055557,116.27141864654948L141.7924642361111,112.69437293574067L142.187903125,109.64522410370508L142.33183125000002,107.24137477025765L142.672025,109.84329498553959L142.77815381944444,104.44127317929332L142.86102152777778,102.64291509213322L143.60246944444444,98.19920050599683L143.70132916666668,96.54851122462792L143.81327326388887,95.31817933293435L143.8336267361111,91.94732293810245L143.89032569444444,91.22816756736913L143.93684791666666,92.9466008106322L144.53727534722222,89.52357534495361L144.79750902777778,91.48054473353517L145.34705277777778,90.89316333710472L145.42846666666665,90.36452008031733L145.43428194444445,89.88874114920867L145.52878020833333,89.54563626505703L145.6232784722222,89.21982263855132L145.95038784722223,88.80745575931158L145.9736489583333,88.43632556799581L146.18299895833334,88.17038531888853L146.2207982638889,87.89700063315352L146.27458958333332,87.68499287753048L146.83140243055556,87.46014743593128L146.859025,84.90913269233813L147.0073145833333,85.06398865387355L147.3911229166667,85.20335901925543L147.5554045138889,82.8269654250222L147.60628819444443,83.08792272867382L148.22125381944446,83.3908612250372L149.3610482638889,83.15292894868732L149.410478125,80.96455913074166L149.5253298611111,83.74339167920597L149.85389305555555,81.3087640497469L149.92949166666665,79.38990687554144L150.13302638888888,79.85841618798729L150.48630451388888,78.06757456918855L150.8526670138889,76.38774018919277L151.08673194444444,74.87588924719658L151.43855625,73.60031955324614L151.48507847222223,74.66480682869076L151.79328819444444,73.41034537659091L152.07242152777778,72.28133006970106L152.19599618055554,71.26521629350019L152.38790034722223,70.33369466415016L152.681571875,69.52936365927361L152.72809409722223,68.78844652411547L152.78188541666665,68.0875826409347L152.8981909722222,67.43978591530276L153.11771770833332,69.08628809300325L153.3910357638889,70.82342851447216L153.43610416666667,72.16560489379418L153.48408020833332,73.47567901979937L153.64981562499997,74.5696495793579L153.74140625,75.5201846214221L154.08450763888888,76.3926853900491L154.12666840277777,77.17793608181343L155.24029409722223,78.01230593517056L155.25919375,78.75472918780734L155.36386875,77.12531396133429L155.57176493055556,75.5737441036624L156.13148541666666,74.21136969329618L156.214353125,72.98523272396655L156.3684579861111,71.8306517592622L156.46295625,70.75749042948982L156.528378125,72.2934721557716L156.76535069444444,70.91874032480983L157.21312708333335,72.23436629232884L157.993828125,70.88256427848056L158.1988166666667,70.00632708140175L158.84867395833334,69.14963668095388L158.9722486111111,68.48073070516618L158.9955097222222,67.87871532695726L159.55086875,67.30286302503076L159.57558368055555,66.78459595329691L159.76458020833334,66.31815558873645L159.88233958333333,65.89835926063202L159.9724763888889,65.50352333456883L160.26614791666668,64.73970946265042L160.57581145833333,64.44371928561614L161.48299479166667,64.21136658782376L161.51207118055558,64.0022491598106L161.8115579861111,63.865101166906484L162.06452256944445,63.248110280985074L162.28259548611112,63.13531848365578L162.311671875,62.64236355836714L162.31603333333334,62.19870412560735L162.4396079861111,62.00364140535427L162.44396944444443,61.828084957126535L162.96589062500001,61.39777646141391L163.00368993055554,61.45299881527251L163.88906597222223,61.485679702976014L163.97484131944444,61.532111732678416L164.46623229166664,61.573900559410575L164.60725277777777,61.59449127270027L164.96779999999998,61.63004214543027L165.5929423611111,61.18549946934877L166.28932187499998,61.27896875318312L166.51611770833333,61.329052647095565L166.87666493055556,61.39114738238604L167.0322236111111,61.395974951839705L167.2735576388889,61.4343582258865L167.45819270833334,61.12851855714402L167.65736597222224,61.17662823989116L167.7387798611111,61.185888492825114L167.78530208333333,61.245280412773354L167.88852326388889,61.332771602265254L168.44097465277778,60.93497521126952L168.57036458333334,61.03647769014256L168.60380243055553,61.07677222882059L169.0821090277778,65.82736423670777L169.4223027777778,65.43962781303698L169.51680104166667,65.12470349327175L170.12449756944446,64.82425237471382L170.32512465277776,64.17942329108855L170.42689201388887,63.939461731210486L170.528659375,63.706477096550955L170.70311770833334,63.56486784843433L170.7670857638889,62.99491952512939L170.96480520833333,62.66066795723181L171.1770628472222,62.60662039227783L171.25556909722224,62.55797758381928L171.37187465277776,62.54823751774505L171.53179479166667,62.09697145827822L171.75422916666668,61.69083200475811L171.8603579861111,61.274248804282294L172.13949131944443,61.29076623154637L172.24125868055555,60.86313191608406L172.31249583333332,60.1719148783218L173.08592777777778,59.90722339048958L173.74160034722223,59.73707797451755L173.89570520833334,59.89029325398889L173.89861284722224,60.13030239012848L174.29114409722223,60.22717599726947L174.872671875,59.93993916677327L175.2826489583333,59.69844525009594L175.31608680555556,59.872543032778665L175.55160555555557,59.62076949873155L175.7071642361111,59.785615625781475L175.79293958333332,59.5425348324341L175.80602395833333,59.323762118421485L175.90924513888888,58.68436667581008L176.01828159722223,58.108910777459855L176.1389486111111,57.98244277663696L176.2538003472222,58.39621772974249L176.4006361111111,57.93467287984515L176.4297125,57.51928251493756L176.54020277777778,57.17946964805917L176.62307048611112,57.65652268325326L176.63906250000002,58.085870414927925L177.25548194444445,58.33612952728129L177.28455833333334,58.5613627283993L177.81374861111112,58.38964953248244L178.10742013888887,57.92876150231112L178.15394236111112,57.51396227515693L178.2324486111111,57.85545066302588L178.36329236111112,58.2819248274925L178.6467871527778,58.58065542166632L178.69185555555558,58.968647571807395L178.77181562500002,58.858321276165114L178.82269930555555,58.818594917779336L178.83723750000001,58.782841195232194L179.12073229166666,58.64003784493974L179.49291006944443,58.868918675830386L179.57287013888887,58.717507577478116L180.1980125,58.54719912742263L180.6763190972222,57.96844075314186L180.76064062499998,57.87303898552L181.29855381944444,57.85525431773722L181.44975104166667,57.72011350134812L181.47010451388888,57.59848676659793L181.49772708333333,57.48902270532275L181.55733368055556,57.5096396655597L181.57768715277777,57.52819492977298L181.59949444444445,57.885279282949526L181.61839409722222,57.83223212388535L181.67509305555555,57.78448968072759L181.8640895833333,58.2010407126548L182.1141465277778,58.57593664138932L182.3598420138889,58.52190066955809L182.6157142361111,58.37115291029461L182.749465625,58.33759531157284L182.85414062499999,57.81383578041553L182.87449409722223,57.34245220237399L183.48800590277776,57.73513005905964L183.57087361111113,58.08854013007675L183.74969340277778,58.440647655530626L184.005565625,58.74052519766987L184.15094756944444,58.60195344713367L184.3006909722222,58.85166194857412L184.78626666666665,58.736014984485934L185.74724131944444,58.6319327168066L185.80539409722223,58.98075867589516L185.8533701388889,59.29470203907485L186.12087291666668,59.06667414285968L186.7431076388889,58.963564420881426L186.94228090277778,58.70057336340865L187.8959864583333,58.99147756552932L187.89744027777778,59.25329134743792L187.98176180555555,59.48892375115567L188.27252569444443,59.70099291450161L188.38737743055555,59.90887439228223L188.7392017361111,59.95981387613094L189.08957222222222,60.12479402697937L189.2756611111111,60.27327616274299L189.32363715277776,60.0154677772379L189.605678125,60.03872869182183L189.69290729166667,62.27216351494731L189.84991979166668,64.48648562499105L189.90225729166667,64.18177937018426L189.92987986111112,63.78840912547351L190.06944652777779,63.28120282831077L190.73384201388888,63.13106331471046L190.7934486111111,62.96189929093171L190.92138472222223,62.367151669530855L191.24413263888889,62.291398041039315L191.4665670138889,62.20620054462768L191.7413388888889,62.061445874780276L191.78204583333334,61.93116667191765L192.588915625,61.813915389341275L192.8709565972222,61.67435077348405L192.92765555555556,61.59980031152028L193.216965625,61.515685664983636L193.82756979166666,61.4570017138699L194.03255833333336,61.47226308094443L194.21573958333332,61.383882926696145L194.4367201388889,61.372417710949605L194.78418298611112,61.328060555239276L195.23777465277777,61.27111988433073L195.4805625,61.253911742051486L195.49219305555553,61.23842441400018L196.00539131944444,61.12237043413862L196.4066454861111,60.67753723687862L196.48369791666667,60.736706590113826L197.00271145833335,60.85803593110245L197.02015729166666,60.967232337992215L197.37925069444444,60.878297565731444L197.38942743055557,60.79825627069674L197.54353229166668,60.402853720550155L197.77759722222223,60.40439527157204L197.90844097222222,60.45684035979946L198.37947847222222,60.01048324689643L198.6280815972222,59.625781076052945L198.69931875,59.636952968447645L198.7545638888889,59.62998844083366L198.80399375000002,59.69179728905799L198.85923888888888,59.79848294476757L198.9159378472222,59.82642311182926L199.08458090277776,59.51118464680016L199.19797881944444,59.550835412889384L199.21833229166666,59.5865211023697L199.24304722222223,59.618638222901936L199.4000597222222,59.273120554457904L200.09789305555557,59.353596960550576L200.37411875,58.94948726449552L200.54276180555556,59.079346230353664L200.86260208333331,58.87285391501058L200.90476284722223,58.687010831201846L201.57497361111112,58.41763667115856L201.94860520833333,58.14116146558115L201.99076597222222,57.943391472869195L202.07944895833333,57.6803023255823L202.52141006944444,57.51159901610097L202.7656517361111,57.37678526833703L203.50564583333332,57.272472126118714L203.52745312500002,57.17859029812222L203.9592375,57.0600581913869L204.77773784722223,56.970398526094385L205.26912881944446,56.889704827331116L205.27058263888887,56.817080498444156L205.4319565972222,56.75171860244586L205.47266354166666,56.69289289604744L205.51627812499999,56.63994976028886L205.57588472222224,56.626339399644564L205.7445277777778,56.5970708442955L206.20393472222221,56.553709913712126L206.26499513888888,56.497665845417814L206.31733263888887,56.464245414722186L206.74184791666667,56.43416702709614L206.78691631944446,56.35603878592498L207.21288541666667,56.319761830409405L207.348090625,56.2530741089069L207.36553645833334,56.19305515955469L207.5181875,56.22413425898384L207.99649409722224,56.20104775616234L208.78301041666666,56.07815451900768L208.81790208333334,55.967550605568434L208.865878125,55.95310323731927L209.50119722222223,55.95711983666426L209.59714930555555,55.96073477607479L209.63785625,55.96398822154421L210.1248857638889,55.949897091697466L210.38511944444443,55.9882727671431L210.45635659722222,55.93771472119802L210.46071805555556,55.89221247984747L210.47671006944447,55.85126046263194L210.540678125,55.899499800984145L210.8677875,55.94291520550108L211.22688090277776,55.879873684950994L212.90458854166667,55.874194008763595L213.25786666666664,55.86908230019492L213.61841388888888,55.881500993252345L213.69546631944445,55.89267781700407L213.8539326388889,55.919756189149794L214.047290625,55.9100882625425L214.31479340277778,55.935425590134415L214.50088229166667,55.890152261890194L214.57793472222224,55.88344472800887L214.6389951388889,55.87740794751565L214.79746145833332,55.871974845071776L214.80763819444445,55.85006582210306L214.85416041666664,55.84736693220046L214.9006826388889,55.84493793128807L214.989365625,55.79169413815927L215.015534375,55.74377472434334L215.329559375,55.76872417498595L215.60869270833334,55.791178680564286L215.75988993055554,55.78585888943094L215.85002673611112,55.80659992356473L216.10299131944444,55.8252668542852L216.4053857638889,55.77399016885667L216.83280868055556,55.7788988442787L216.89096145833332,55.85139357523545L217.082865625,55.81452344848111L217.2108017361111,55.8153787959407L217.22824756944445,55.816148608654345L217.23987812500002,55.13607220932735L217.28058506944444,55.23881114224078L217.3503684027778,55.297237720324375L217.41288263888887,55.34982164059964L217.59751770833333,55.41416639961659L217.8184982638889,55.45505745196262L217.96533402777777,55.49185939907406L218.17759166666667,55.507961920705114L218.31425069444444,55.539473420942315L218.53377743055557,55.56783377115573L219.09640555555555,55.6103773171171L219.42060729166667,55.631647277713085L219.50783645833334,55.68482870378794L219.54418194444446,55.341249679563006L220.2420152777778,55.38943240391437L220.25800729166667,55.43279685583062L220.5167871527778,55.471824862555266L220.550225,55.50695006860741L220.59529340277777,55.53856275405438L220.80173576388887,55.53297570941818L220.8220892361111,55.52794736924558L221.7176420138889,53.41303724770563L221.96479131944443,53.705098907550436L222.3137079861111,53.91689670910307L222.3369690972222,54.056457038192775L222.735315625,54.25013825745043L222.89814340277778,54.40743212401307L223.15692326388887,54.53197737315021L223.20344548611112,54.661087328142884L223.3081204861111,54.76877667225166L223.68611354166666,54.58487977425729L223.89982500000002,54.72571871990847L224.436284375,54.81843530945609L224.4551840277778,54.90188024004895L224.57875868055555,54.6536152929671L225.09486458333333,54.787580686747305L225.12830243055555,52.64459184884183L225.13557152777778,52.96244035626533L225.16464791666667,53.28254247448497L225.31875277777777,53.53659591934414L225.81886666666668,53.6971670966405L226.23756666666668,53.92677731005338L226.61119826388887,51.86986880981725L227.10113541666666,52.26518962114322L227.20435659722224,52.637997582105825L227.3177545138889,52.9394862854337L227.7757076388889,53.24486457996724L227.7829767361111,53.519705045047445L227.80478402777777,53.767061463619626L228.28454444444444,53.989682240334574L228.3310666666667,54.15600247783958L228.61746909722223,54.322709922363316L228.95184756944445,54.455727391665434L229.07251458333332,54.57544311403737L229.10013715277776,54.68318726417209L229.24988055555554,54.729099306985646L229.3327482638889,54.82147783782551L229.65549618055556,54.93865697711992L229.93172187500002,52.79757974094639L230.350421875,50.9216679206979L230.39112881944445,51.39478959016655L230.51615729166667,51.837618323457605L231.0700625,52.219144952650296L231.1020465277778,52.56251891892374L231.53383090277777,52.90559395010827L231.74463472222223,53.11224609355898L231.81151041666666,53.36630994574155L232.57621944444443,51.399486643475115L232.63437222222223,50.74410528681992L232.6460027777778,50.15426206583024L232.67798680555555,48.304412782324135L232.692525,46.63954842716865L232.80301527777777,45.37943973829792L232.8524451388889,46.40678422600661L232.97892743055556,44.778509649559794L233.02399583333332,43.31306253075766L233.70292951388888,44.547044739220354L233.96025555555556,43.53022488068294L234.0503923611111,42.18960623876848L234.38913229166667,41.34045330719931L234.39785520833334,40.576215668787086L235.3064923611111,42.032824871139155L235.3588298611111,41.18233084556371L235.4998503472222,40.46794391485349L235.7804375,41.95239952336814L235.80515243055555,43.28840957103134L235.80660625000002,44.490818613928184L236.2412982638889,43.41154444484306L236.2936357638889,42.44019769266646L236.6120222222222,43.72742792339983L236.81701076388887,42.75853128490601L237.24443368055557,41.86950507949234L237.47122951388891,40.83111226385083L237.67912569444445,42.304779883619574L237.80415416666665,43.60555189525763L237.81869236111112,44.776246705731864L238.02368090277778,43.73650665054328L238.08910277777778,44.94516367779664L238.1254482638889,46.049974233093906L238.3086295138889,47.027284502092215L238.410396875,45.677344513421446L238.6560923611111,46.67489852361777L238.75640590277777,47.52163944048678L238.84218124999998,46.20736011182271L239.01518576388887,47.185951023717394L239.195459375,45.90524053673025L239.22598958333333,46.8800049445957L240.2887315972222,45.57883137321306L240.77139965277777,44.356717466660996L240.78739166666668,45.46931495076413L240.91532777777778,44.019883455687705L240.9720267361111,42.71539511011895L241.03163333333333,41.76260559910705L241.236621875,43.10057580842712L241.7890732638889,44.304748996815164L241.91555555555556,45.456581789441344L242.34733993055556,46.40813514895876L243.21963159722222,47.33261009560135L243.3068607638889,48.16463754757967L243.32139895833333,48.87942379282171L243.5031263888889,46.88475064430875L244.33471111111112,45.1916601952625L244.51789236111114,44.04230186804395L244.6618204861111,42.5313409120088L244.85953993055557,41.426764513115614L245.0369059027778,40.63687652334252L245.12122743055556,39.960015794085194L245.22154097222221,39.12959113775361L245.22735625,38.382208947055176L245.3741920138889,37.913795744657364L245.4992204861111,37.50924309326854L245.52102777777776,36.92389570701857L246.33952812500002,36.39708305939365L246.50380972222223,35.871893984223505L246.68989861111112,35.48431997041655L246.7117059027778,35.135503357990245L246.81347326388888,34.82156840680662L246.98502395833333,34.52200771997212L247.05916875000003,34.47365310182104L247.15948229166668,34.22590317625432L247.16529756944445,34.00292824324427L247.93146041666668,34.006481572766006L247.95908298611113,33.941602646258616L248.07538854166665,33.74705776624813L248.25275451388887,33.79321737423871L248.40540555555555,33.61351102143021L248.6656392361111,33.63898684236412L248.68599270833334,33.661915081204626L248.73833020833334,33.49533895769957L248.79793680555554,33.345420446545006L248.93459583333333,33.21049378650588L249.00583298611113,32.66357902323992L249.0290940972222,32.24794227476207L249.14685347222223,32.205744201132035L249.26752048611112,32.184785165634196L249.39400277777779,32.319095110609226L249.42017152777777,32.43997406108676L249.6164371527778,32.59982280882423L249.81415659722222,32.52243668178795L250.3767847222222,32.67403916745528L250.43057604166665,32.725385250709735L250.81874583333334,32.652462110254135L251.11823263888888,34.969523591536415L251.17202395833334,34.84237892469048L252.32054131944443,34.69391026299064L252.4179472222222,34.52625000592235L252.50663020833332,34.35833654379164L252.65346597222222,36.60692596633558L253.03000520833334,36.350079523548175L253.12304965277778,36.08487926350105L253.72347708333334,35.267545183304804L253.9313732638889,34.974444511128155L254.4024107638889,34.62555775232303L254.69462847222223,34.22646351555227L254.8080263888889,34.0544902409201L254.82111076388887,33.559329678366566L255.05081423611114,33.42003132591452" style="fill: none;" fill="none"></path></g></g></g></g><g opacity="0.2"><g><g><g><path stroke="rgb(255, 112, 67)" stroke-width="2px" d="M29.138903125000002,162.36346153846154L29.320630555555557,163.21442307692308L29.41076736111111,162.19326923076923L29.766953125,159.98076923076923L29.857089930555556,159.64038461538462L29.919604166666666,161.68269230769232L29.92978090277778,159.81057692307692L29.999564236111112,161.5125L30.01846388888889,159.64038461538462L30.115869791666665,161.17211538461538L30.252528819444446,158.78942307692307L30.552015625000003,161.17211538461538L31.015784027777777,161.17211538461538L31.09138263888889,159.47019230769232L31.101559375,161.00192307692308L31.165527430555557,161.17211538461538L31.598765625,161.17211538461538L31.60312708333333,161.17211538461538L31.806661805555553,160.7466346153846L31.86481458333333,161.34230769230768L32.03781909722222,160.15096153846153L32.431804166666666,161.68269230769232L32.55101736111111,161.34230769230768L32.69058402777778,161.00192307692308L32.692037847222224,161.00192307692308L32.981347916666664,161.5125L33.49454618055555,162.36346153846154L33.77367951388889,161.5125L33.796940625,161.17211538461538L33.88271597222222,161.17211538461538L34.33776145833333,159.47019230769232L34.340669097222225,159.47019230769232L34.413360069444444,158.27884615384616L34.63288680555555,159.98076923076923L34.82915243055555,159.12980769230768L35.35398125,157.2576923076923L35.47464826388889,158.27884615384616L35.608399652777784,158.78942307692307L35.63311458333333,161.85288461538462L35.875902430555556,160.83173076923077L36.30477916666666,158.95961538461538L36.54175173611111,160.83173076923077L36.84850763888889,161.00192307692308L36.868861111111116,159.81057692307692L37.39805138888889,161.00192307692308L37.60303993055556,158.10865384615386L37.665554166666666,160.49134615384617L37.78622118055555,156.40673076923076L38.09152326388889,161.5125L38.119145833333334,162.19326923076923L38.81697916666667,161.5125L38.834425,160.66153846153847L39.042321180555554,160.83173076923077L39.20514895833333,162.19326923076923L39.47992083333334,160.83173076923077L39.92333576388889,160.49134615384617L39.92769722222222,161.68269230769232L40.414726736111106,161.34230769230768L40.46561041666667,158.95961538461538L40.80435034722222,161.17211538461538L40.97008576388889,160.83173076923077L41.02969236111111,160.66153846153847L41.43240034722223,158.95961538461538L41.44693854166666,158.95961538461538L41.58214375,161.00192307692308L41.98485173611111,160.09423069997933L42.06771944444445,159.3L42.540210763888886,160.49134615384617L42.84260520833334,160.83173076923077L42.96763368055556,160.66153846153847L42.986533333333334,156.57692307692307L43.17698368055556,156.9173076923077L44.196111111111115,162.36346153846154L44.312416666666664,160.49134615384617L44.374930902777784,158.27884615384616L44.49850555555555,161.5125L44.75001631944444,157.2576923076923L44.92738229166667,158.44903846153846L44.931743749999995,156.74711538461537L45.02042673611111,158.61923076923077L45.098932986111116,156.23653846153846L45.21814618055556,158.27884615384616L45.843288541666666,157.93846153846152L45.89271840277778,158.10865384615386L46.06572291666667,155.0451923076923L46.17330555555555,158.10865384615386L46.47860763888889,159.12980769230768L46.485876736111116,157.93846153846152L46.76210243055555,160.32115384615383L46.945283680555555,160.66153846153847L47.79867569444444,160.66153846153847L48.026925347222225,158.10865384615386L48.06617847222222,157.76826923076922L48.845425694444444,136.15384615384616L48.87886354166667,159.21490384615385L49.15508923611111,157.76826923076922L49.75260902777778,157.93846153846152L49.85873784722222,156.57692307692307L49.92270590277778,158.10865384615386L50.08117222222222,156.57692307692307L50.358851736111106,158.27884615384616L50.40246631944444,159.98076923076923L50.56384027777778,158.70432692307693L50.70049930555555,157.59807692307692L51.57279097222222,159.98076923076923L51.62222083333334,132.06923076923078L51.99585243055556,154.3644230769231L52.507596875,137.34519230769232L52.80562986111111,157.59807692307692L53.58487708333334,157.59807692307692L53.88872534722222,157.59807692307692L53.93379375,157.76826923076922L54.25363402777778,133.0903846153846L54.28561805555555,159.64038461538462L54.58219722222222,130.7076923076923L54.602550694444446,145.76971153846154L55.90226527777777,135.47307692307692L56.86905520833333,135.47307692307692L56.94610763888889,157.59807692307692L57.47239027777778,134.62211538461537L57.63085659722222,135.47307692307692L57.651210069444446,135.47307692307692L57.763154166666666,135.47307692307692L58.1469625,135.3028846153846L58.23128402777778,134.9625L58.24436840277778,134.9625L58.35485868055555,134.45192307692307L58.50896354166667,134.62211538461537L58.52059409722222,133.94134615384615L58.62381527777778,134.9625L58.79391215277778,133.94134615384615L58.937840277777774,134.36682692307693L58.99453923611111,135.47307692307692L59.28675694444445,134.62211538461537L59.29111840277778,134.62211538461537L59.39724722222222,134.62211538461537L59.724356597222226,135.47307692307692L59.81740104166666,133.77115384615385L59.94533715277778,133.60096153846155L60.07181944444445,133.77115384615385L60.36839861111111,133.94134615384615L60.840889930555555,136.83461538461538L61.41805625,133.94134615384615L61.541630902777776,133.94134615384615L61.58233784722222,133.43076923076922L62.71631701388889,133.94134615384615L62.73085520833333,133.43076923076922L62.79482326388889,134.11153846153846L62.83262256944444,133.0903846153846L62.93148229166666,134.45192307692307L63.040518750000004,134.28173076923076L63.136470833333334,134.45192307692307L63.300752430555555,134.45192307692307L63.48974895833334,133.0903846153846L63.50574097222222,133.0903846153846L63.53481736111111,133.0903846153846L63.87937256944444,133.43076923076922L64.18322083333334,133.77115384615385L64.37948645833333,133.77115384615385L64.38239409722223,133.77115384615385L64.43763923611111,133.60096153846155L64.87233125,134.11153846153846L65.01480555555555,133.43076923076922L65.02643611111111,133.43076923076922L65.27940069444445,133.2605769230769L65.3273767361111,134.28173076923076L65.79114513888888,133.94134615384615L65.905996875,119.90048076923077L65.99177222222222,133.77115384615385L66.60383020833333,133.94134615384615L66.65471388888889,133.43076923076922L66.76229652777776,133.77115384615385L67.31765555555556,133.43076923076922L68.03584236111111,133.60096153846155L68.03729618055554,133.60096153846155L68.55485590277777,158.10865384615386L68.56212500000001,158.10865384615386L69.06514652777778,134.45192307692307L69.20762083333334,133.2605769230769L69.2585045138889,133.43076923076922L69.53036875,132.5798076923077L69.66266631944444,132.2394230769231L70.42156006944444,135.1326923076923L70.57421111111111,132.5798076923077L71.19499201388888,111.30576923076923L71.23279131944444,129.68653846153848L71.32874340277777,134.45192307692307L71.53082430555556,133.77115384615385L71.6209611111111,133.0903846153846L71.92335555555556,110.625L71.94661666666666,110.625L72.12689027777778,134.62211538461537L72.44382291666666,132.9201923076923L72.69969513888888,133.0903846153846L72.73749444444445,133.0903846153846L72.945390625,133.2605769230769L73.16782500000001,130.3673076923077L73.37572118055556,132.9201923076923L73.58216354166667,132.2394230769231L73.71882256944444,133.94134615384615L73.73917604166667,133.0903846153846L74.73649618055555,133.0903846153846L74.7902875,133.0903846153846L75.15810381944445,132.4096153846154L75.42560659722223,133.2605769230769L75.50702048611112,131.72884615384615L75.60588020833333,133.0903846153846L75.90100555555556,133.0903846153846L76.2324763888889,132.9201923076923L76.38803506944444,133.43076923076922L76.55522430555556,133.60096153846155L76.70787534722221,109.43365384615385L76.89977951388889,133.2605769230769L76.91141006944444,130.7076923076923L77.10331423611112,105.17884615384615L77.31702569444445,130.1971153846154L77.44786944444445,132.9201923076923L77.59906666666666,133.0903846153846L77.63977361111111,133.0903846153846L78.12534930555556,132.9201923076923L78.14279513888889,132.9201923076923L78.17041770833333,133.43076923076922L78.1951326388889,133.43076923076922L78.27363888888888,130.3673076923077L78.32743020833334,133.2605769230769L78.38122152777778,110.625L78.56004131944445,132.9201923076923L79.03398645833333,109.43365384615385L79.06451666666666,109.26346153846154L79.27095902777778,107.22115384615385L79.37854166666666,108.5826923076923L79.64604444444444,109.09326923076922L80.44564513888889,133.0903846153846L80.47617534722222,108.92307692307692L80.50961319444446,109.09326923076922L80.66371805555555,105.00865384615385L80.79456180555555,106.54038461538462L81.08241805555555,133.0903846153846L81.19581597222222,133.60096153846155L81.34701319444444,134.11153846153846L81.46913402777778,136.66442307692307L81.77298229166666,109.09326923076922L81.81514305555555,108.24230769230769L82.3297951388889,133.2605769230769L82.37340972222222,132.9201923076923L82.53042222222221,109.09326923076922L82.6510892361111,133.0903846153846L82.73395694444444,132.9201923076923L83.16283368055555,108.5826923076923L83.58007986111112,133.60096153846155L83.97988020833334,108.75288461538462L84.1427079861111,108.92307692307692L84.60211493055556,108.92307692307692L84.96120833333333,108.92307692307692L84.98446944444444,108.92307692307692L85.36973159722223,108.4125L85.54418993055555,132.9201923076923L85.74917847222223,160.83173076923077L86.20713159722222,110.4548076923077L86.79738229166666,132.9201923076923L86.91223402777777,132.83509615384617L87.05325451388889,132.75L87.09832291666666,109.77403846153847L87.259696875,107.56153846153846L87.66095104166668,107.22115384615385L87.95753020833334,111.30576923076923L88.19450277777777,111.30576923076923L88.20031805555556,111.30576923076923L88.24829409722223,111.30576923076923L88.27737048611111,111.30576923076923L88.38349930555556,110.4548076923077L88.74259270833333,133.2605769230769L89.039171875,136.66442307692307L89.078425,134.11153846153846L89.18019236111111,133.0903846153846L89.46804861111112,133.0903846153846L89.49130972222223,137.00480769230768L90.33307118055556,132.06923076923078L90.79247812499999,133.94134615384615L90.81864687500001,133.94134615384615L91.12394895833333,131.72884615384615L92.34515729166667,134.9625L92.47454722222223,134.9625L92.52106944444445,135.1326923076923L92.62574444444445,134.28173076923076L92.66499756944445,135.1326923076923L92.67081284722222,135.1326923076923L92.76240347222222,132.9201923076923L93.03572152777778,131.38846153846154L93.15202708333332,132.2394230769231L93.33666215277778,146.025L93.34683888888888,146.025L93.41080694444445,135.1326923076923L93.487859375,135.1326923076923L94.23221493055556,135.3028846153846L94.44738020833333,134.9625L94.9504017361111,129.00576923076923L94.96348611111111,129.00576923076923L95.04053854166668,134.9625L95.23680416666667,135.1326923076923L95.45633090277778,132.06923076923078L96.41585173611111,135.3028846153846L96.43911284722222,133.94134615384615L96.55396458333334,134.62211538461537L96.67899305555557,135.1326923076923L97.84495625,133.2605769230769L98.25784097222223,130.5375L98.33489340277778,157.93846153846152L98.37996180555557,140.62139423076923L98.43229930555556,135.1326923076923L98.48899826388889,158.27884615384616L98.68962534722222,133.43076923076922L98.78412361111111,132.4096153846154L98.81756145833333,157.59807692307692L98.97166631944445,135.3028846153846L99.12431736111111,132.5798076923077L99.19119305555556,106.2L99.62006979166667,132.9201923076923L100.08819965277777,132.9201923076923L100.710434375,157.59807692307692L100.82528611111111,157.59807692307692L101.00846736111112,135.3028846153846L101.77753784722222,130.5375L101.85022881944445,160.32115384615383L101.98543402777779,136.49423076923077L102.00869513888888,135.98365384615386L102.05230972222222,135.64326923076922L102.15843854166667,135.1326923076923L102.68326736111112,120.92163461538462L102.95949305555555,132.9201923076923L103.19210416666667,157.76826923076922L103.41744618055556,133.60096153846155L103.55265138888889,132.9201923076923L103.63261145833334,108.4125L104.38278229166666,134.62211538461537L104.39441284722221,110.28461538461539L104.609578125,108.24230769230769L104.67790763888888,107.22115384615385L105.10096909722222,135.81346153846152L105.18965208333334,105.51923076923077L105.41790173611112,132.9201923076923L105.66795868055556,108.24230769230769L105.99361423611111,108.92307692307692L106.04159027777777,109.09326923076922L106.26402465277778,108.24230769230769L106.28583194444444,109.43365384615385L106.81066076388888,108.4125L107.15666979166666,132.9201923076923L107.16684652777778,132.9201923076923L107.17266180555555,132.9201923076923L107.17847708333333,109.60384615384616L107.383465625,107.90192307692308L107.44743368055555,108.24230769230769L107.68876770833333,132.9201923076923L107.74110520833334,105.34903846153846L107.7629125,105.00865384615385L107.93446319444445,108.07211538461539L108.58868194444445,108.92307692307692L108.75732500000001,120.24086538461538L108.94632152777777,133.2605769230769L109.01174340277778,108.07211538461539L109.31849930555555,109.09326923076922L109.47260416666667,108.07211538461539L109.82733611111111,109.09326923076922L109.83896666666666,109.09326923076922L110.07448541666668,108.24230769230769L110.15153784722223,109.43365384615385L110.98166875,108.92307692307692L111.22881805555555,108.5826923076923L111.24917152777778,108.5826923076923L111.37565381944445,106.3701923076923L111.6358875,81.52211538461539L111.68386354166667,108.75288461538462L111.94409722222221,133.2605769230769L112.38024305555555,108.92307692307692L112.38896597222222,108.92307692307692L112.64919965277777,109.77403846153847L113.05045381944444,108.92307692307692L113.82824722222223,133.0903846153846L114.03905104166667,108.07211538461539L114.20769409722223,108.92307692307692L114.33126875,133.0903846153846L114.44466666666668,130.7076923076923L114.48391979166666,133.0903846153846L114.50863472222223,133.0903846153846L115.23699826388888,125.20480658428485L115.30532777777779,108.4125L115.48123993055555,133.94134615384615L115.783634375,133.0903846153846L115.82724895833333,109.77403846153847L116.56724305555555,133.0903846153846L116.57596597222222,133.0903846153846L116.60795,109.43365384615385L116.73879375,108.4125L116.99757361111111,133.94134615384615L118.05886180555557,108.92307692307692L118.1620829861111,109.77403846153847L118.39760173611111,110.7951923076923L118.53716840277778,108.75288461538462L118.74942604166667,108.5826923076923L119.41672916666666,108.5826923076923L119.53303472222223,108.92307692307692L119.96481909722222,108.5826923076923L120.0098875,108.5826923076923L120.48528645833332,108.75288461538462L120.703359375,133.0903846153846L120.98830798611111,133.43076923076922L121.29070243055556,108.4125L121.29215625,108.92307692307692L121.41427708333335,108.4125L121.64398055555556,109.43365384615385L121.92602152777778,133.43076923076922L122.10484131944445,108.5826923076923L122.26476145833334,83.73461538461538L122.44939652777778,84.58557692307691L122.86518888888888,83.90480769230768L122.87972708333334,133.2605769230769L123.12106111111112,123.9567318772536L123.41473263888888,133.0903846153846L123.93229236111111,133.0903846153846L124.000621875,61.779807692307685L124.23032534722223,85.94711538461539L124.27539374999999,85.94711538461539L124.44985208333334,62.12019230769231L124.5109125,84.2451923076923L124.60686458333333,59.652403846153845L124.89472083333334,62.12019230769231L125.10116319444445,108.4125L125.46316423611111,85.94711538461539L126.17408194444444,84.2451923076923L126.408146875,61.95L126.44885381944444,61.95L126.51427569444445,62.29038461538461L127.12342604166668,61.269230769230774L128.31991944444445,61.60961538461538L128.34608819444443,61.779807692307685L128.48710868055556,61.779807692307685L128.5612534722222,61.779807692307685L128.79531840277778,108.75288461538462L129.28816319444445,108.75288461538462L129.37393854166666,109.26346153846154L129.6399875,109.77403846153847L129.66034097222223,109.77403846153847L130.05287222222222,109.77403846153847L130.08340243055557,109.77403846153847L130.43668055555557,109.77403846153847L130.55153229166666,109.26346153846154L130.72162916666667,133.43076923076922L131.51686840277776,110.28461538461539L131.68841909722224,110.28461538461539L131.79890937500002,109.94423076923077L132.1754486111111,109.60384615384616L132.2932079861111,85.60673076923077L132.92125798611113,60.07788461538462L133.1044392361111,61.95L133.14223854166667,61.269230769230774L133.31088159722222,108.24230769230769L133.53476979166666,108.92307692307692L133.61618368055557,83.56442307692308L133.6903284722222,81.18173076923078L133.72231250000002,57.52499999999999L133.77028854166667,84.92596153846154L133.8066340277778,110.11442307692307L134.18462708333334,61.269230769230774L134.1875347222222,61.269230769230774L134.33582430555558,61.099038461538456L134.3401857638889,108.92307692307692L134.56407395833332,108.92307692307692L134.80395416666667,109.26346153846154L135.02202708333334,108.75288461538462L135.21974652777777,61.95L135.46689583333335,108.75288461538462L135.66897673611112,61.779807692307685L136.35372569444445,62.12019230769231L136.36099479166666,62.12019230769231L136.42932430555558,61.95L136.51655347222223,108.75288461538462L136.54999131944444,108.5826923076923L136.93234583333333,108.92307692307692L136.94252256944446,108.92307692307692L137.97037291666666,133.0903846153846L138.36290416666668,109.77403846153847L138.79614236111112,108.5826923076923L138.8223111111111,108.75288461538462L138.9386166666667,109.60384615384616L139.4634454861111,121.77259615384615L139.7120486111111,133.43076923076922L139.88505312499998,133.2605769230769L140.19471666666666,132.9201923076923L140.26886145833333,108.66778846153846L140.47821145833333,108.75288461538462L140.54654097222223,108.75288461538462L140.71663784722222,110.96538461538461L140.8852809027778,133.0903846153846L140.89545763888887,133.0903846153846L141.30979618055557,133.0903846153846L141.7924642361111,80.50096153846155L142.187903125,82.20288461538462L142.33183125000002,85.60673076923077L142.672025,133.2605769230769L142.77815381944444,55.823076923076925L142.86102152777778,86.45769230769231L143.60246944444444,58.205769230769235L143.70132916666668,81.6923076923077L143.81327326388887,84.2451923076923L143.8336267361111,61.60961538461538L143.89032569444444,84.75576923076922L143.93684791666666,108.4125L144.53727534722222,58.71634615384616L144.79750902777778,109.09326923076922L145.34705277777778,85.60673076923077L145.42846666666665,85.60673076923077L145.43428194444445,85.60673076923077L145.52878020833333,86.45769230769231L145.6232784722222,86.28750000000001L145.95038784722223,85.09615384615384L145.9736489583333,85.09615384615384L146.18299895833334,85.77692307692308L146.2207982638889,85.43653846153845L146.27458958333332,85.77692307692308L146.83140243055556,85.43653846153845L146.859025,61.95L147.0073145833333,86.45769230769231L147.3911229166667,86.45769230769231L147.5554045138889,61.43942307692308L147.60628819444443,85.43653846153845L148.22125381944446,86.1173076923077L149.3610482638889,81.01153846153846L149.410478125,61.269230769230774L149.5253298611111,108.75288461538462L149.85389305555555,59.39711538461539L149.92949166666665,62.12019230769231L150.13302638888888,84.075L150.48630451388888,61.95L150.8526670138889,61.269230769230774L151.08673194444444,61.269230769230774L151.43855625,62.12019230769231L151.48507847222223,84.2451923076923L151.79328819444444,62.12019230769231L152.07242152777778,62.12019230769231L152.19599618055554,62.12019230769231L152.38790034722223,61.95L152.681571875,62.29038461538461L152.72809409722223,62.12019230769231L152.78188541666665,61.779807692307685L152.8981909722222,61.60961538461538L153.11771770833332,83.90480769230768L153.3910357638889,86.45769230769231L153.43610416666667,84.2451923076923L153.48408020833332,85.26634615384614L153.64981562499997,84.41538461538461L153.74140625,84.075L154.08450763888888,84.2451923076923L154.12666840277777,84.2451923076923L155.24029409722223,85.52163461538461L155.25919375,85.43653846153845L155.36386875,62.460576923076914L155.57176493055556,61.60961538461538L156.13148541666666,61.95L156.214353125,61.95L156.3684579861111,61.43942307692308L156.46295625,61.099038461538456L156.528378125,86.1173076923077L156.76535069444444,58.54615384615386L157.21312708333335,84.075L157.993828125,58.71634615384616L158.1988166666667,62.12019230769231L158.84867395833334,61.43942307692308L158.9722486111111,62.460576923076914L158.9955097222222,62.460576923076914L159.55086875,62.12019230769231L159.57558368055555,62.12019230769231L159.76458020833334,62.12019230769231L159.88233958333333,62.12019230769231L159.9724763888889,61.95L160.26614791666668,57.86538461538461L160.57581145833333,61.779807692307685L161.48299479166667,62.12019230769231L161.51207118055558,62.12019230769231L161.8115579861111,62.63076923076922L162.06452256944445,57.695192307692295L162.28259548611112,62.12019230769231L162.311671875,58.205769230769235L162.31603333333334,58.205769230769235L162.4396079861111,60.24807692307692L162.44396944444443,60.24807692307692L162.96589062500001,57.52499999999999L163.00368993055554,61.95L163.88906597222223,61.779807692307685L163.97484131944444,61.95L164.46623229166664,61.95L164.60725277777777,61.779807692307685L164.96779999999998,61.95L165.5929423611111,57.184615384615384L166.28932187499998,62.12019230769231L166.51611770833333,61.779807692307685L166.87666493055556,61.95L167.0322236111111,61.43942307692308L167.2735576388889,61.779807692307685L167.45819270833334,58.37596153846155L167.65736597222224,61.60961538461538L167.7387798611111,61.269230769230774L167.78530208333333,61.779807692307685L167.88852326388889,62.12019230769231L168.44097465277778,57.35480769230769L168.57036458333334,61.95L168.60380243055553,61.43942307692308L169.0821090277778,108.5826923076923L169.4223027777778,61.95L169.51680104166667,62.29038461538461L170.12449756944446,62.12019230769231L170.32512465277776,58.37596153846155L170.42689201388887,61.779807692307685L170.528659375,61.60961538461538L170.70311770833334,62.29038461538461L170.7670857638889,57.86538461538461L170.96480520833333,59.652403846153845L171.1770628472222,62.12019230769231L171.25556909722224,62.12019230769231L171.37187465277776,62.460576923076914L171.53179479166667,58.03557692307692L171.75422916666668,58.03557692307692L171.8603579861111,57.52499999999999L172.13949131944443,61.43942307692308L172.24125868055555,57.014423076923066L172.31249583333332,53.95096153846154L173.08592777777778,57.52499999999999L173.74160034722223,58.205769230769235L173.89570520833334,61.269230769230774L173.89861284722224,62.29038461538461L174.29114409722223,61.099038461538456L174.872671875,57.35480769230769L175.2826489583333,57.52499999999999L175.31608680555556,61.43942307692308L175.55160555555557,57.35480769230769L175.7071642361111,61.269230769230774L175.79293958333332,57.35480769230769L175.80602395833333,57.35480769230769L175.90924513888888,52.929807692307705L176.01828159722223,52.929807692307705L176.1389486111111,56.84423076923076L176.2538003472222,62.12019230769231L176.4006361111111,53.78076923076924L176.4297125,53.78076923076924L176.54020277777778,54.121153846153845L176.62307048611112,61.95L176.63906250000002,61.95L177.25548194444445,60.588461538461544L177.28455833333334,60.588461538461544L177.81374861111112,56.84423076923076L178.10742013888887,53.78076923076924L178.15394236111112,53.78076923076924L178.2324486111111,60.92884615384615L178.36329236111112,62.12019230769231L178.6467871527778,61.269230769230774L178.69185555555558,62.460576923076914L178.77181562500002,57.86538461538461L178.82269930555555,58.461057692307705L178.83723750000001,58.461057692307705L179.12073229166666,57.35480769230769L179.49291006944443,60.92884615384615L179.57287013888887,57.35480769230769L180.1980125,57.014423076923066L180.6763190972222,52.75961538461539L180.76064062499998,57.014423076923066L181.29855381944444,57.695192307692295L181.44975104166667,56.503846153846155L181.47010451388888,56.503846153846155L181.49772708333333,56.503846153846155L181.55733368055556,57.695192307692295L181.57768715277777,57.695192307692295L181.59949444444445,61.099038461538456L181.61839409722222,57.35480769230769L181.67509305555555,57.35480769230769L181.8640895833333,61.95L182.1141465277778,61.95L182.3598420138889,58.03557692307692L182.6157142361111,57.014423076923066L182.749465625,58.03557692307692L182.85414062499999,53.10000000000001L182.87449409722223,53.10000000000001L183.48800590277776,61.269230769230774L183.57087361111113,61.269230769230774L183.74969340277778,61.60961538461538L184.005565625,61.43942307692308L184.15094756944444,57.35480769230769L184.3006909722222,61.099038461538456L184.78626666666665,57.695192307692295L185.74724131944444,57.695192307692295L185.80539409722223,62.12019230769231L185.8533701388889,62.12019230769231L186.12087291666668,57.014423076923066L186.7431076388889,58.03557692307692L186.94228090277778,56.33365384615384L187.8959864583333,61.60961538461538L187.89744027777778,61.60961538461538L187.98176180555555,61.60961538461538L188.27252569444443,61.60961538461538L188.38737743055555,61.779807692307685L188.7392017361111,60.418269230769226L189.08957222222222,61.60961538461538L189.2756611111111,61.60961538461538L189.32363715277776,57.695192307692295L189.605678125,60.24807692307692L189.69290729166667,82.37307692307692L189.84991979166668,84.41538461538461L189.90225729166667,61.43942307692308L189.92987986111112,60.24807692307692L190.06944652777779,58.71634615384616L190.73384201388888,61.779807692307685L190.7934486111111,61.43942307692308L190.92138472222223,57.014423076923066L191.24413263888889,61.60961538461538L191.4665670138889,61.43942307692308L191.7413388888889,60.75865384615385L191.78204583333334,60.75865384615385L192.588915625,60.75865384615385L192.8709565972222,60.418269230769226L192.92765555555556,60.92884615384615L193.216965625,60.75865384615385L193.82756979166666,60.92884615384615L194.03255833333336,61.60961538461538L194.21573958333332,60.588461538461544L194.4367201388889,61.269230769230774L194.78418298611112,60.92884615384615L195.23777465277777,60.75865384615385L195.4805625,61.099038461538456L195.49219305555553,61.099038461538456L196.00539131944444,60.07788461538462L196.4066454861111,56.67403846153846L196.48369791666667,61.269230769230774L197.00271145833335,61.95L197.02015729166666,61.95L197.37925069444444,60.07788461538462L197.38942743055557,60.07788461538462L197.54353229166668,56.84423076923076L197.77759722222223,60.418269230769226L197.90844097222222,60.92884615384615L198.37947847222222,55.99326923076923L198.6280815972222,56.16346153846153L198.69931875,59.7375L198.7545638888889,59.56730769230769L198.80399375000002,60.24807692307692L198.85923888888888,60.75865384615385L198.9159378472222,60.07788461538462L199.08458090277776,56.67403846153846L199.19797881944444,59.907692307692315L199.21833229166666,59.907692307692315L199.24304722222223,59.907692307692315L199.4000597222222,56.16346153846153L200.09789305555557,60.07788461538462L200.37411875,55.3125L200.54276180555556,60.24807692307692L200.86260208333331,57.014423076923066L200.90476284722223,57.014423076923066L201.57497361111112,55.99326923076923L201.94860520833333,55.65288461538461L201.99076597222222,56.16346153846153L202.07944895833333,55.3125L202.52141006944444,55.99326923076923L202.7656517361111,56.16346153846153L203.50564583333332,56.33365384615384L203.52745312500002,56.33365384615384L203.9592375,55.99326923076923L204.77773784722223,56.16346153846153L205.26912881944446,56.16346153846153L205.27058263888887,56.16346153846153L205.4319565972222,56.16346153846153L205.47266354166666,56.16346153846153L205.51627812499999,56.16346153846153L205.57588472222224,56.503846153846155L205.7445277777778,56.33365384615384L206.20393472222221,56.16346153846153L206.26499513888888,55.99326923076923L206.31733263888887,56.16346153846153L206.74184791666667,56.16346153846153L206.78691631944446,55.65288461538461L207.21288541666667,55.99326923076923L207.348090625,55.65288461538461L207.36553645833334,55.65288461538461L207.5181875,56.503846153846155L207.99649409722224,55.99326923076923L208.78301041666666,54.97211538461539L208.81790208333334,54.97211538461539L208.865878125,55.823076923076925L209.50119722222223,55.99326923076923L209.59714930555555,55.99326923076923L209.63785625,55.99326923076923L210.1248857638889,55.823076923076925L210.38511944444443,56.33365384615384L210.45635659722222,55.482692307692304L210.46071805555556,55.482692307692304L210.47671006944447,55.482692307692304L210.540678125,56.33365384615384L210.8677875,56.33365384615384L211.22688090277776,55.3125L212.90458854166667,55.823076923076925L213.25786666666664,55.823076923076925L213.61841388888888,55.99326923076923L213.69546631944445,55.99326923076923L213.8539326388889,56.16346153846153L214.047290625,55.823076923076925L214.31479340277778,56.16346153846153L214.50088229166667,55.482692307692304L214.57793472222224,55.823076923076925L214.6389951388889,55.823076923076925L214.79746145833332,55.823076923076925L214.80763819444445,55.65288461538461L214.85416041666664,55.823076923076925L214.9006826388889,55.823076923076925L214.989365625,55.3125L215.015534375,55.3125L215.329559375,55.99326923076923L215.60869270833334,55.99326923076923L215.75988993055554,55.737980769230774L215.85002673611112,55.99326923076923L216.10299131944444,55.99326923076923L216.4053857638889,55.3125L216.83280868055556,55.823076923076925L216.89096145833332,56.503846153846155L217.082865625,55.482692307692304L217.2108017361111,55.823076923076925L217.22824756944445,55.823076923076925L217.23987812500002,49.01538461538462L217.28058506944444,56.16346153846153L217.3503684027778,55.823076923076925L217.41288263888887,55.823076923076925L217.59751770833333,55.99326923076923L217.8184982638889,55.823076923076925L217.96533402777777,55.823076923076925L218.17759166666667,55.65288461538461L218.31425069444444,55.823076923076925L218.53377743055557,55.823076923076925L219.09640555555555,55.99326923076923L219.42060729166667,55.823076923076925L219.50783645833334,56.16346153846153L219.54418194444446,52.24903846153845L220.2420152777778,55.823076923076925L220.25800729166667,55.823076923076925L220.5167871527778,55.823076923076925L220.550225,55.823076923076925L220.59529340277777,55.823076923076925L220.80173576388887,55.482692307692304L220.8220892361111,55.482692307692304L221.7176420138889,34.378846153846155L221.96479131944443,56.33365384615384L222.3137079861111,55.823076923076925L222.3369690972222,55.3125L222.735315625,55.99326923076923L222.89814340277778,55.823076923076925L223.15692326388887,55.65288461538461L223.20344548611112,55.823076923076925L223.3081204861111,55.737980769230774L223.68611354166666,52.929807692307705L223.89982500000002,55.99326923076923L224.436284375,55.65288461538461L224.4551840277778,55.65288461538461L224.57875868055555,52.419230769230765L225.09486458333333,55.99326923076923L225.12830243055555,33.357692307692304L225.13557152777778,55.823076923076925L225.16464791666667,56.16346153846153L225.31875277777777,55.823076923076925L225.81886666666668,55.142307692307696L226.23756666666668,55.99326923076923L226.61119826388887,33.357692307692304L227.10113541666666,55.823076923076925L227.20435659722224,55.99326923076923L227.3177545138889,55.65288461538461L227.7757076388889,55.99326923076923L227.7829767361111,55.99326923076923L227.80478402777777,55.99326923076923L228.28454444444444,55.99326923076923L228.3310666666667,55.65288461538461L228.61746909722223,55.823076923076925L228.95184756944445,55.65288461538461L229.07251458333332,55.65288461538461L229.10013715277776,55.65288461538461L229.24988055555554,55.142307692307696L229.3327482638889,55.65288461538461L229.65549618055556,55.99326923076923L229.93172187500002,33.52788461538461L230.350421875,34.03846153846155L230.39112881944445,55.65288461538461L230.51615729166667,55.823076923076925L231.0700625,55.65288461538461L231.1020465277778,55.65288461538461L231.53383090277777,55.99326923076923L231.74463472222223,54.97211538461539L231.81151041666666,55.65288461538461L232.57621944444443,33.69807692307691L232.63437222222223,44.84567307692308L232.6460027777778,44.84567307692308L232.67798680555555,31.655769230769238L232.692525,31.655769230769238L232.80301527777777,34.03846153846155L232.8524451388889,55.65288461538461L232.97892743055556,30.124038461538447L233.02399583333332,30.124038461538447L233.70292951388888,55.65288461538461L233.96025555555556,34.378846153846155L234.0503923611111,30.124038461538447L234.38913229166667,33.69807692307691L234.39785520833334,33.69807692307691L235.3064923611111,55.142307692307696L235.3588298611111,33.52788461538461L235.4998503472222,34.03846153846155L235.7804375,55.3125L235.80515243055555,55.3125L235.80660625000002,55.3125L236.2412982638889,33.69807692307691L236.2936357638889,33.69807692307691L236.6120222222222,55.3125L236.81701076388887,34.03846153846155L237.24443368055557,33.868269230769215L237.47122951388891,31.485576923076934L237.67912569444445,55.567788461538456L237.80415416666665,55.3125L237.81869236111112,55.3125L238.02368090277778,34.378846153846155L238.08910277777778,55.823076923076925L238.1254482638889,55.99326923076923L238.3086295138889,55.823076923076925L238.410396875,33.52788461538461L238.6560923611111,55.65288461538461L238.75640590277777,55.142307692307696L238.84218124999998,34.378846153846155L239.01518576388887,55.99326923076923L239.195459375,34.378846153846155L239.22598958333333,55.65288461538461L240.2887315972222,33.868269230769215L240.77139965277777,33.357692307692304L240.78739166666668,55.482692307692304L240.91532777777778,30.974999999999994L240.9720267361111,30.974999999999994L241.03163333333333,33.1875L241.236621875,55.142307692307696L241.7890732638889,55.142307692307696L241.91555555555556,55.823076923076925L242.34733993055556,54.97211538461539L243.21963159722222,55.65288461538461L243.3068607638889,55.65288461538461L243.32139895833333,55.3125L243.5031263888889,28.932692307692292L244.33471111111112,29.953846153846143L244.51789236111114,33.69807692307691L244.6618204861111,28.932692307692292L244.85953993055557,31.485576923076934L245.0369059027778,33.52788461538461L245.12122743055556,33.868269230769215L245.22154097222221,31.655769230769238L245.22735625,31.655769230769238L245.3741920138889,33.69807692307691L245.4992204861111,33.868269230769215L245.52102777777776,31.655769230769238L246.33952812500002,31.655769230769238L246.50380972222223,31.145192307692326L246.68989861111112,31.996153846153845L246.7117059027778,31.996153846153845L246.81347326388888,31.996153846153845L246.98502395833333,31.82596153846154L247.05916875000003,34.03846153846155L247.15948229166668,31.996153846153845L247.16529756944445,31.996153846153845L247.93146041666668,34.03846153846155L247.95908298611113,33.357692307692304L248.07538854166665,31.996153846153845L248.25275451388887,34.20865384615385L248.40540555555555,31.996153846153845L248.6656392361111,33.868269230769215L248.68599270833334,33.868269230769215L248.73833020833334,31.996153846153845L248.79793680555554,31.996153846153845L248.93459583333333,31.996153846153845L249.00583298611113,27.741346153846166L249.0290940972222,28.507211538461547L249.14685347222223,31.82596153846154L249.26752048611112,31.996153846153845L249.39400277777779,33.52788461538461L249.42017152777777,33.52788461538461L249.6164371527778,34.03846153846155L249.81415659722222,31.82596153846154L250.3767847222222,34.03846153846155L250.43057604166665,33.1875L250.81874583333334,31.996153846153845L251.11823263888888,55.823076923076925L251.17202395833334,33.69807692307691L252.32054131944443,33.357692307692304L252.4179472222222,33.017307692307696L252.50663020833332,32.84711538461539L252.65346597222222,56.84423076923076L253.03000520833334,34.03846153846155L253.12304965277778,33.69807692307691L253.72347708333334,27.91153846153847L253.9313732638889,32.33653846153845L254.4024107638889,31.485576923076934L254.69462847222223,30.634615384615387L254.8080263888889,32.506730769230785L254.82111076388887,29.102884615384596L255.05081423611114,32.16634615384615" style="fill: none;" fill="none"></path></g></g></g></g></g></g><g transform="translate(68, 177)" clip-path="url(#clip_1)"><clipPath id="clip_1"><rect width="261" height="23"></rect></clipPath><g><g><line x1="0" y1="0" x2="0" y2="5" style="visibility: inherit;" fill="rgb(0, 0, 0)" stroke="rgb(204, 204, 204)" stroke-width="1px"></line><line x1="29.076388888888886" y1="0" x2="29.076388888888886" y2="5" style="visibility: inherit;" fill="rgb(0, 0, 0)" stroke="rgb(204, 204, 204)" stroke-width="1px"></line><line x1="58.15277777777777" y1="0" x2="58.15277777777777" y2="5" style="visibility: inherit;" fill="rgb(0, 0, 0)" stroke="rgb(204, 204, 204)" stroke-width="1px"></line><line x1="87.22916666666666" y1="0" x2="87.22916666666666" y2="5" style="visibility: inherit;" fill="rgb(0, 0, 0)" stroke="rgb(204, 204, 204)" stroke-width="1px"></line><line x1="116.30555555555554" y1="0" x2="116.30555555555554" y2="5" style="visibility: inherit;" fill="rgb(0, 0, 0)" stroke="rgb(204, 204, 204)" stroke-width="1px"></line><line x1="145.38194444444446" y1="0" x2="145.38194444444446" y2="5" style="visibility: inherit;" fill="rgb(0, 0, 0)" stroke="rgb(204, 204, 204)" stroke-width="1px"></line><line x1="174.45833333333331" y1="0" x2="174.45833333333331" y2="5" style="visibility: inherit;" fill="rgb(0, 0, 0)" stroke="rgb(204, 204, 204)" stroke-width="1px"></line><line x1="203.53472222222223" y1="0" x2="203.53472222222223" y2="5" style="visibility: inherit;" fill="rgb(0, 0, 0)" stroke="rgb(204, 204, 204)" stroke-width="1px"></line><line x1="232.6111111111111" y1="0" x2="232.6111111111111" y2="5" style="visibility: inherit;" fill="rgb(0, 0, 0)" stroke="rgb(204, 204, 204)" stroke-width="1px"></line><line x1="261.6875" y1="0" x2="261.6875" y2="5" style="visibility: inherit;" fill="rgb(0, 0, 0)" stroke="rgb(204, 204, 204)" stroke-width="1px"></line></g><g transform="translate(0, 8)"><text x="0" y="0" dx="0em" dy="0.95em" style="text-anchor: middle; visibility: hidden; font-family: &quot;Helvetica Neue&quot;, sans-serif; font-size: 12px; font-weight: 200;" fill="rgb(50, 49, 63)" stroke="none" stroke-width="1px">-20k</text><text x="29.076388888888886" y="0" dx="0em" dy="0.95em" style="text-anchor: middle; visibility: inherit; font-family: &quot;Helvetica Neue&quot;, sans-serif; font-size: 12px; font-weight: 200;" fill="rgb(50, 49, 63)" stroke="none" stroke-width="1px">0</text><text x="58.15277777777777" y="0" dx="0em" dy="0.95em" style="text-anchor: middle; visibility: hidden; font-family: &quot;Helvetica Neue&quot;, sans-serif; font-size: 12px; font-weight: 200;" fill="rgb(50, 49, 63)" stroke="none" stroke-width="1px">20k</text><text x="87.22916666666666" y="0" dx="0em" dy="0.95em" style="text-anchor: middle; visibility: inherit; font-family: &quot;Helvetica Neue&quot;, sans-serif; font-size: 12px; font-weight: 200;" fill="rgb(50, 49, 63)" stroke="none" stroke-width="1px">40k</text><text x="116.30555555555554" y="0" dx="0em" dy="0.95em" style="text-anchor: middle; visibility: hidden; font-family: &quot;Helvetica Neue&quot;, sans-serif; font-size: 12px; font-weight: 200;" fill="rgb(50, 49, 63)" stroke="none" stroke-width="1px">60k</text><text x="145.38194444444446" y="0" dx="0em" dy="0.95em" style="text-anchor: middle; visibility: inherit; font-family: &quot;Helvetica Neue&quot;, sans-serif; font-size: 12px; font-weight: 200;" fill="rgb(50, 49, 63)" stroke="none" stroke-width="1px">80k</text><text x="174.45833333333331" y="0" dx="0em" dy="0.95em" style="text-anchor: middle; visibility: hidden; font-family: &quot;Helvetica Neue&quot;, sans-serif; font-size: 12px; font-weight: 200;" fill="rgb(50, 49, 63)" stroke="none" stroke-width="1px">100k</text><text x="203.53472222222223" y="0" dx="0em" dy="0.95em" style="text-anchor: middle; visibility: inherit; font-family: &quot;Helvetica Neue&quot;, sans-serif; font-size: 12px; font-weight: 200;" fill="rgb(50, 49, 63)" stroke="none" stroke-width="1px">120k</text><text x="232.6111111111111" y="0" dx="0em" dy="0.95em" style="text-anchor: middle; visibility: hidden; font-family: &quot;Helvetica Neue&quot;, sans-serif; font-size: 12px; font-weight: 200;" fill="rgb(50, 49, 63)" stroke="none" stroke-width="1px">140k</text><text x="261.6875" y="0" dx="0em" dy="0.95em" style="text-anchor: middle; visibility: hidden; font-family: &quot;Helvetica Neue&quot;, sans-serif; font-size: 12px; font-weight: 200;" fill="rgb(50, 49, 63)" stroke="none" stroke-width="1px">160k</text></g><line x1="0" y1="0" x2="261.6875" y2="0" fill="rgb(0, 0, 0)" stroke="rgb(204, 204, 204)" stroke-width="1px"></line></g></g></g></g></svg>