<svg viewBox="0 0 330 200" xmlns="http://www.w3.org/2000/svg"><g><g><g><g><g><line x1="58.59375" y1="177" x2="53.59375" y2="177" style="visibility: inherit;" fill="rgb(0, 0, 0)" stroke="rgb(204, 204, 204)" stroke-width="1px"></line><line x1="58.59375" y1="157.33333333333334" x2="53.59375" y2="157.33333333333334" style="visibility: inherit;" fill="rgb(0, 0, 0)" stroke="rgb(204, 204, 204)" stroke-width="1px"></line><line x1="58.59375" y1="137.66666666666669" x2="53.59375" y2="137.66666666666669" style="visibility: inherit;" fill="rgb(0, 0, 0)" stroke="rgb(204, 204, 204)" stroke-width="1px"></line><line x1="58.59375" y1="118" x2="53.59375" y2="118" style="visibility: inherit;" fill="rgb(0, 0, 0)" stroke="rgb(204, 204, 204)" stroke-width="1px"></line><line x1="58.59375" y1="98.33333333333334" x2="53.59375" y2="98.33333333333334" style="visibility: inherit;" fill="rgb(0, 0, 0)" stroke="rgb(204, 204, 204)" stroke-width="1px"></line><line x1="58.59375" y1="78.66666666666666" x2="53.59375" y2="78.66666666666666" style="visibility: inherit;" fill="rgb(0, 0, 0)" stroke="rgb(204, 204, 204)" stroke-width="1px"></line><line x1="58.59375" y1="59" x2="53.59375" y2="59" style="visibility: inherit;" fill="rgb(0, 0, 0)" stroke="rgb(204, 204, 204)" stroke-width="1px"></line><line x1="58.59375" y1="39.33333333333334" x2="53.59375" y2="39.33333333333334" style="visibility: inherit;" fill="rgb(0, 0, 0)" stroke="rgb(204, 204, 204)" stroke-width="1px"></line><line x1="58.59375" y1="19.666666666666686" x2="53.59375" y2="19.666666666666686" style="visibility: inherit;" fill="rgb(0, 0, 0)" stroke="rgb(204, 204, 204)" stroke-width="1px"></line><line x1="58.59375" y1="0" x2="53.59375" y2="0" style="visibility: inherit;" fill="rgb(0, 0, 0)" stroke="rgb(204, 204, 204)" stroke-width="1px"></line></g><g transform="translate(48.59375, 0)"><text x="0" y="177" dx="0em" dy="0.3em" style="text-anchor: end; visibility: hidden; font-family: &quot;Helvetica Neue&quot;, sans-serif; font-size: 12px; font-weight: 200;" fill="rgb(50, 49, 63)" stroke="none" stroke-width="1px">-1e+4</text><text x="0" y="157.33333333333334" dx="0em" dy="0.3em" style="text-anchor: end; visibility: inherit; font-family: &quot;Helvetica Neue&quot;, sans-serif; font-size: 12px; font-weight: 200;" fill="rgb(50, 49, 63)" stroke="none" stroke-width="1px">0</text><text x="0" y="137.66666666666669" dx="0em" dy="0.3em" style="text-anchor: end; visibility: hidden; font-family: &quot;Helvetica Neue&quot;, sans-serif; font-size: 12px; font-weight: 200;" fill="rgb(50, 49, 63)" stroke="none" stroke-width="1px">1e+4</text><text x="0" y="118" dx="0em" dy="0.3em" style="text-anchor: end; visibility: inherit; font-family: &quot;Helvetica Neue&quot;, sans-serif; font-size: 12px; font-weight: 200;" fill="rgb(50, 49, 63)" stroke="none" stroke-width="1px">2e+4</text><text x="0" y="98.33333333333334" dx="0em" dy="0.3em" style="text-anchor: end; visibility: hidden; font-family: &quot;Helvetica Neue&quot;, sans-serif; font-size: 12px; font-weight: 200;" fill="rgb(50, 49, 63)" stroke="none" stroke-width="1px">3e+4</text><text x="0" y="78.66666666666666" dx="0em" dy="0.3em" style="text-anchor: end; visibility: inherit; font-family: &quot;Helvetica Neue&quot;, sans-serif; font-size: 12px; font-weight: 200;" fill="rgb(50, 49, 63)" stroke="none" stroke-width="1px">4e+4</text><text x="0" y="59" dx="0em" dy="0.3em" style="text-anchor: end; visibility: hidden; font-family: &quot;Helvetica Neue&quot;, sans-serif; font-size: 12px; font-weight: 200;" fill="rgb(50, 49, 63)" stroke="none" stroke-width="1px">5e+4</text><text x="0" y="39.33333333333334" dx="0em" dy="0.3em" style="text-anchor: end; visibility: inherit; font-family: &quot;Helvetica Neue&quot;, sans-serif; font-size: 12px; font-weight: 200;" fill="rgb(50, 49, 63)" stroke="none" stroke-width="1px">6e+4</text><text x="0" y="19.666666666666686" dx="0em" dy="0.3em" style="text-anchor: end; visibility: hidden; font-family: &quot;Helvetica Neue&quot;, sans-serif; font-size: 12px; font-weight: 200;" fill="rgb(50, 49, 63)" stroke="none" stroke-width="1px">7e+4</text><text x="0" y="0" dx="0em" dy="0.3em" style="text-anchor: end; visibility: hidden; font-family: &quot;Helvetica Neue&quot;, sans-serif; font-size: 12px; font-weight: 200;" fill="rgb(50, 49, 63)" stroke="none" stroke-width="1px">8e+4</text></g><line x1="58.59375" y1="0" x2="58.59375" y2="177" fill="rgb(0, 0, 0)" stroke="rgb(204, 204, 204)" stroke-width="1px"></line></g></g><g transform="translate(58, 0)" clip-path="url(#clip_0)"><clipPath id="clip_0"><rect width="271" height="177"></rect></clipPath><g><g><g><line x1="0" y1="0" x2="0" y2="177" fill="rgb(0, 0, 0)" stroke="rgb(60, 60, 60)" stroke-width="1px" opacity="0.25"></line><line x1="30.15625" y1="0" x2="30.15625" y2="177" fill="rgb(0, 0, 0)" stroke="rgb(60, 60, 60)" stroke-width="1px" opacity="0.25"></line><line x1="60.3125" y1="0" x2="60.3125" y2="177" fill="rgb(0, 0, 0)" stroke="rgb(60, 60, 60)" stroke-width="1px" opacity="0.25"></line><line x1="90.46875" y1="0" x2="90.46875" y2="177" fill="rgb(0, 0, 0)" stroke="rgb(60, 60, 60)" stroke-width="1px" opacity="0.25"></line><line x1="120.625" y1="0" x2="120.625" y2="177" fill="rgb(0, 0, 0)" stroke="rgb(60, 60, 60)" stroke-width="1px" opacity="0.25"></line><line x1="150.78125" y1="0" x2="150.78125" y2="177" fill="rgb(0, 0, 0)" stroke="rgb(60, 60, 60)" stroke-width="1px" opacity="0.25"></line><line x1="180.9375" y1="0" x2="180.9375" y2="177" fill="rgb(0, 0, 0)" stroke="rgb(60, 60, 60)" stroke-width="1px" opacity="0.25"></line><line x1="211.09375" y1="0" x2="211.09375" y2="177" fill="rgb(0, 0, 0)" stroke="rgb(60, 60, 60)" stroke-width="1px" opacity="0.25"></line><line x1="241.25" y1="0" x2="241.25" y2="177" fill="rgb(0, 0, 0)" stroke="rgb(60, 60, 60)" stroke-width="1px" opacity="0.25"></line><line x1="271.40625" y1="0" x2="271.40625" y2="177" fill="rgb(0, 0, 0)" stroke="rgb(60, 60, 60)" stroke-width="1px" opacity="0.25"></line></g><g><line x1="0" y1="177" x2="271.40625" y2="177" fill="rgb(0, 0, 0)" stroke="rgb(60, 60, 60)" stroke-width="1px" opacity="0.25"></line><line x1="0" y1="157.33333333333334" x2="271.40625" y2="157.33333333333334" fill="rgb(0, 0, 0)" stroke="rgb(60, 60, 60)" stroke-width="1px" opacity="0.25"></line><line x1="0" y1="137.66666666666669" x2="271.40625" y2="137.66666666666669" fill="rgb(0, 0, 0)" stroke="rgb(60, 60, 60)" stroke-width="1px" opacity="0.25"></line><line x1="0" y1="118" x2="271.40625" y2="118" fill="rgb(0, 0, 0)" stroke="rgb(60, 60, 60)" stroke-width="1px" opacity="0.25"></line><line x1="0" y1="98.33333333333334" x2="271.40625" y2="98.33333333333334" fill="rgb(0, 0, 0)" stroke="rgb(60, 60, 60)" stroke-width="1px" opacity="0.25"></line><line x1="0" y1="78.66666666666666" x2="271.40625" y2="78.66666666666666" fill="rgb(0, 0, 0)" stroke="rgb(60, 60, 60)" stroke-width="1px" opacity="0.25"></line><line x1="0" y1="59" x2="271.40625" y2="59" fill="rgb(0, 0, 0)" stroke="rgb(60, 60, 60)" stroke-width="1px" opacity="0.25"></line><line x1="0" y1="39.33333333333334" x2="271.40625" y2="39.33333333333334" fill="rgb(0, 0, 0)" stroke="rgb(60, 60, 60)" stroke-width="1px" opacity="0.25"></line><line x1="0" y1="19.666666666666686" x2="271.40625" y2="19.666666666666686" fill="rgb(0, 0, 0)" stroke="rgb(60, 60, 60)" stroke-width="1px" opacity="0.25"></line><line x1="0" y1="0" x2="271.40625" y2="0" fill="rgb(0, 0, 0)" stroke="rgb(60, 60, 60)" stroke-width="1px" opacity="0.25"></line></g></g></g><g><g><line x1="0" y1="157.33333333333334" x2="271.40625" y2="157.33333333333334" fill="rgb(0, 0, 0)" stroke="rgb(153, 153, 153)" stroke-width="1.5px"></line></g></g><g><g><line x1="30.15625" y1="0" x2="30.15625" y2="177" fill="rgb(0, 0, 0)" stroke="rgb(153, 153, 153)" stroke-width="1.5px"></line></g></g><g><g><g><g><g><path stroke="rgb(255, 112, 67)" stroke-width="2px" d="M30.2210859375,157.13666666666666L30.4095625,155.6875438596491L30.503046875,156.14970479704797L30.8724609375,155.69326257633034L30.9659453125,155.8536340992894L31.03078125,154.57447094175973L31.0413359375,153.70849865309725L31.1137109375,153.67159729755565L31.1333125,153.5630512853321L31.2343359375,154.08152770659265L31.3760703125,154.18283194651724L31.686679687500003,153.79966419464236L32.167671875,153.5878599875469L32.246078125000004,153.86950543275023L32.2566328125,154.1075703434515L32.3229765625,153.7069019871053L32.7723046875,152.89117081937093L32.776828125,152.1874253121919L32.987921875,151.62273479938864L33.048234375,151.1310127284045L33.2276640625,150.06081107217227L33.63628125,149.95127666898352L33.759921874999996,149.40178086208283L33.904671875,149.10963247121794L33.9061796875,148.85146905794073L34.206234375,148.28648471794492L34.7384921875,147.6391966130878L35.0279921875,147.37547515150945L35.052117187499995,147.42982071570677L35.141078125,147.0058667442298L35.613023437500004,146.1575829782252L35.6160390625,145.68561892714308L35.6914296875,145.3452037998629L35.919109375,145.32409636210986L36.12266406249999,145.20435610779805L36.666984375,143.74913673352918L36.7921328125,142.66660750768253L36.9308515625,141.71661122122927L36.956484374999995,141.36483954808088L37.2082890625,140.47046934533302L37.65309375,139.52855903807273L37.8988671875,137.84724018544227L38.217015625,136.09934884349872L38.238125000000004,134.52986013664446L38.78696875,133.39799524746323L38.999570312500005,131.98476119962916L39.06440625,130.4574877904605L39.1895546875,130.86634041203735L39.5061953125,130.3239336569596L39.53484375,129.08515590921996L40.25859375,128.8605987328104L40.2766875,128.6586960048979L40.492304687499995,127.62828839110489L40.661179687499995,127.41206173827236L40.94615625,125.91563489270715L41.4060390625,125.06273537353132L41.410562500000005,123.80268911174636L41.915679687499996,123.25069558569294L41.968453125,122.88222364058967L42.3197734375,122.07788921261239L42.4916640625,121.29516772196189L42.553484375000004,120.39400590480784L42.971148437500005,119.50443996470173L42.98622656249999,118.70405229639726L43.126453125000005,118.04294555541236L43.5441171875,117.6055666341693L43.6300625,116.483712398705L44.1201015625,115.7104096340465L44.433726562500006,115.68368339720627L44.5633984375,115.12830039963558L44.583,114.62852185745334L44.7805234375,114.23780470483916L45.8375,113.25657603273814L45.958125,113.92786106027583L46.0229609375,112.52522266085846L46.151125,111.71543074245605L46.4119765625,112.1276778814996L46.595929687499996,111.31835846908497L46.600453124999994,110.59001248325927L46.692429687499995,109.89519276787641L46.773851562500006,109.76164723242404L46.8974921875,107.67444648240046L47.5458515625,105.61900780206918L47.597117187500004,105.5000899760479L47.776546875,105.23571353869666L47.888124999999995,105.43049813388035L48.204765625,105.23209425481144L48.2123046875,105.13220876882237L48.498789062499995,104.92430362787093L48.6887734375,105.46491444738237L49.573859375,105.26307583133337L49.8105859375,103.76367572973807L49.851296874999996,103.33861788523843L50.659484375,102.1300290248274L50.6941640625,101.92735033879299L50.9806484375,100.8992403498161L51.600359375,99.89527973513854L51.710429687499996,100.5454397482413L51.776773437500005,97.05945955951681L51.941125,97.65886285788855L52.229117187499995,96.44794762485743L52.2743515625,93.41108752513719L52.44171875,91.739946413884L52.583453125,88.64289780043441L53.488140625,88.72694267190428L53.53940625,89.33359030137375L53.9269140625,89.66323545912584L54.4576640625,89.46824301703982L54.766765625,88.18157214160573L55.574953125,87.95774618783969L55.8900859375,86.14362311455592L55.936828125,84.51091522164371L56.268546875,84.36898940792659L56.30171875,82.97274864968873L56.6093125,82.83713970977422L56.630421875,83.06909354711262L57.97840625,84.61519104113822L58.9811015625,84.2366704279674L59.061015625,84.4466708053294L59.606843749999996,83.02299912741036L59.7711953125,82.84303202496041L59.7923046875,81.48139192750364L59.90840625,83.16659003524576L60.30646875,81.51692753656754L60.393921875000004,83.10023780202614L60.407492187500004,82.53887972511345L60.5220859375,82.36799148865866L60.6819140625,81.40785767179229L60.693976562500005,80.1307369735046L60.80103125,78.98132864862326L60.9774453125,78.77286223917366L61.126718749999995,79.11624299509802L61.185523437499995,77.98961777081931L61.48859375,79.19799021975334L61.493117187500005,78.53519075710044L61.6031875,77.27000425765408L61.9424453125,77.78333744167617L62.0389453125,77.43900353061248L62.1716328125,77.16843639285688L62.3028125,77.84925968752974L62.61040625,74.58766589965582L63.1004453125,74.73989935810151L63.699046875,72.85124221507954L63.8272109375,72.03645111702657L63.8694296875,70.02480553897031L65.0455234375,72.2853254567177L65.0606015625,74.89012673350834L65.1269453125,76.64444768997429L65.1661484375,76.80733627908582L65.2686796875,77.01293601265543L65.381765625,75.25097552764555L65.48128125,75.61221134826893L65.6516640625,75.13099016541909L65.8476796875,74.83555778900974L65.864265625,74.5696686552828L65.894421875,73.97636841325875L66.25177343749999,75.19273165157398L66.56690625,74.63545845357797L66.7704609375,74.23224592016932L66.77347656250001,73.8693546441645L66.8307734375,74.17208585941945L67.281609375,73.71687725587815L67.429375,74.42818955504113L67.4414375,72.76737054752618L67.70379687500001,71.58730012618024L67.7535546875,72.98357014898039L68.23454687499999,73.74854648487981L68.3536640625,72.15569180366394L68.442625,70.25012258805975L69.0774140625,71.58344368477731L69.1301875,73.17676600683185L69.241765625,72.44742272964996L69.81775,72.7546804604128L70.562609375,72.362545743423L70.56411718749999,72.00962449894573L71.10089843749999,70.35466203441356L71.10843750000001,68.86519581911573L71.630140625,69.35367624070372L71.77790625,71.15030862821763L71.83067968750001,71.23327776587733L72.112640625,71.22928332260206L72.2498515625,70.98968832254899L73.03692968749999,71.58038615945964L73.19524999999999,69.89951420378068L73.83908593749999,68.77022944619966L73.87828906249999,69.20920650293345L73.9778046875,67.59828584816894L74.187390625,70.41612393705765L74.280875,73.01117821585274L74.5945,73.41939372842675L74.618625,72.8427876878674L74.80559375,71.9501755842844L75.13429687499999,71.48115802516413L75.399671875,72.55370889073824L75.43887500000001,71.7686713340598L75.6544921875,70.66880419947111L75.8851875,70.7212571129081L76.1008046875,71.86979806928434L76.31491406250001,73.0804849299716L76.4566484375,74.38643643789582L76.4777578125,73.39845946014557L77.5121171875,70.68028017924435L77.56790625,70.79058549470999L77.94938281249999,72.52219361270718L78.22682031250001,69.08530758333801L78.3112578125,68.74544349154341L78.4137890625,68.42973247561588L78.719875,69.57142589506769L79.06365625000001,70.55961663916435L79.22499218749999,68.79398830814691L79.398390625,68.18825614386476L79.5567109375,67.05309719591878L79.7557421875,67.99812080982969L79.76780468749999,67.76697539547608L79.96683593750001,67.49994452255635L80.188484375,66.84661673688194L80.32418750000001,66.85845506319515L80.481,68.19660955701734L80.52321875,68.71261526803144L81.026828125,68.5870204078842L81.044921875,69.10331836713563L81.07357031250001,69.58765319712238L81.099203125,68.21422121065758L81.18062499999999,68.07946575625093L81.2364140625,68.74485251399287L81.292203125,65.11536726242812L81.4776640625,63.81549720279865L81.9692109375,63.235614149164036L82.000875,62.61538606756035L82.214984375,62.39151412746429L82.32656250000001,61.06902938134894L82.604,61.31445977655332L83.43329687500001,61.220680465562594L83.46496093750001,61.962279085687555L83.499640625,60.28938451042258L83.65946875,60.98644605939141L83.795171875,59.60780145343253L84.09371875,60.21568797476377L84.211328125,60.782452510627294L84.368140625,61.213873926235735L84.494796875,60.874486533608945L84.8099296875,59.70370454690482L84.85365625,58.846667425541156L85.387421875,60.828667349667256L85.43265625,59.26913394802426L85.5955,58.06222055321514L85.7206484375,61.24366516457617L85.80659375,60.763631981449734L86.2513984375,62.19993544997723L86.684140625,61.09327523830882L87.0987890625,60.982281047810915L87.26766406249999,62.927719609702194L87.7441328125,61.63028098206186L88.1165625,60.285586217185795L88.1406875,59.05569426213124L88.5402578125,59.73845816925278L88.7211953125,59.25161235232666L88.933796875,58.243117783759075L89.4087578125,57.25680600538176L90.0209296875,58.001458738177874L90.140046875,57.78664619769317L90.2863046875,56.92464824458962L90.333046875,55.263850086795784L90.50041406250001,55.8931317447834L90.9165703125,54.728818570304185L91.22416406250001,55.863936713274526L91.4699375,56.964209708614405L91.47596874999999,57.95445540442017L91.5257265625,57.862343197311446L91.5558828125,56.59944221091307L91.665953125,55.26616465648789L92.0383828125,56.13121485750608L92.3459765625,57.95209337175605L92.3866875,59.4728840345809L92.492234375,57.97026229778909L92.79078125000001,58.643569401343655L92.81490624999999,57.695879127875756L93.6879296875,58.61295788175502L94.1643984375,60.71666209357987L94.19153906250001,62.62966255088885L94.5081796875,61.755362962466535L95.7747421875,63.564493332886755L95.90893750000001,63.34404399959806L95.9571875,61.23797293297139L96.06575000000001,62.980842306341074L96.1064609375,60.891424742373445L96.1124921875,59.01094893480261L96.207484375,59.58018737465572L96.490953125,58.1455019705234L96.611578125,60.0992851068045L96.8030703125,60.48102326279073L96.81362499999999,59.91992093651163L96.87996875,61.20459550952718L96.9598828125,62.71480262524119L97.7318828125,60.67165569605034L97.95503906249999,61.19282345977865L98.4767421875,61.52420778046745L98.4903125,61.822453669087395L98.57022656250001,60.14387496884525L98.77378125,57.76782080529402L99.0014609375,56.61270539143126L99.9966171875,59.09343485228817L100.0207421875,61.03109136705939L100.139859375,61.044315563686766L100.26953125,62.76721734065144L101.478796875,62.292162273252984L101.907015625,61.805612712594325L101.98692968750001,60.51221810800155L102.03367187500001,58.099329630534726L102.087953125,57.40273000081456L102.1467578125,56.27429033406645L102.3548359375,56.33052796732645L102.45284375,56.20414183726048L102.4875234375,57.8013943202011L102.6473515625,59.35692155484766L102.805671875,59.30156273269624L102.87503125,58.86823979275995L103.3198359375,58.52741581348394L103.8053515625,58.181340898802205L104.4506953125,58.341873475588656L104.5698125,56.83435279469646L104.75979687499999,57.817917515226796L105.55742968749999,57.71979243037079L105.6328203125,59.73581318733372L105.773046875,58.560898535267L105.797171875,57.81814201507363L105.84240625,56.24499448023293L105.95247656250001,54.829161698876305L106.496796875,54.459578862322005L106.78328125,55.09062097608978L107.02453125,53.51489221181414L107.2582421875,57.03306965729939L107.39846875,57.701762691569456L107.4813984375,56.592586422412495L108.25942968749999,54.76832778017126L108.2714921875,55.0931616688208L108.4946484375,55.159345501938716L108.56551562499999,56.40874428507817L109.00428906249999,57.434869856570344L109.096265625,55.133049537579964L109.33299218750001,56.46374458382196L109.5923359375,56.20603679210643L109.9300859375,55.87576644622912L109.97984375,56.168523134939534L110.2105390625,55.468337488112255L110.23315625,54.42517040596768L110.7774765625,56.77065336537092L111.1363359375,58.66525469550048L111.146890625,59.03306255928375L111.15292187499999,60.20975630335538L111.15895312500001,61.26878067301983L111.3715546875,60.94356927238452L111.4378984375,61.26054567847939L111.6881953125,60.660824443964785L111.7424765625,61.9697419995683L111.76509375,61.67276779961149L111.943015625,58.92749101965033L112.62153125,57.6367419176853L112.79643750000001,55.314734392583446L112.992453125,54.50326095332508L113.06030468750001,52.67160152465924L113.378453125,50.03977470552665L113.53828125,50.28679723497399L113.9061875,52.141450844809924L113.91825,53.81063909366226L114.16251562500001,54.427908517629376L114.2424296875,55.760284332533104L115.10339062499999,57.598589232613136L115.35971875,56.32273030935181L115.38082812500001,55.17445727841664L115.5120078125,55.89134488390829L115.78190624999999,53.54721039551748L115.83166406250001,54.26948935596572L116.1015625,53.28720708703581L116.55390625000001,52.36381971166557L116.562953125,51.532771073832336L116.8328515625,53.42016063311577L117.2490078125,54.15514456980419L118.0556875,52.9679634461571L118.27432031250001,54.00383376820804L118.4492265625,53.12678372472058L118.577390625,52.92743868558185L118.69500000000001,52.944694817023645L118.7357109375,51.09189200198796L118.76134375000001,51.56803613512248L119.51675781249999,53.47156585494358L119.587625,53.690075936115875L119.7700703125,53.72940167583762L120.0836953125,52.683128174920526L120.1289296875,55.20281535742846L120.89640625,56.86086715501895L120.905453125,58.35311377285038L120.938625,58.77180239556536L121.074328125,58.833955489342145L121.34271874999999,58.35889327374126L122.443421875,60.016003946367135L122.5504765625,57.04307021839709L122.7947421875,56.74709652989071L122.9394921875,55.871053543568294L123.15963281249999,56.341281522544804L123.85171874999999,55.230486703623654L123.97234375000001,54.07343803326128L124.42016406249999,52.59942756326848L124.46690625000001,53.829484806941636L124.9599609375,52.30120299291413L125.18613281249999,51.00441602695605L125.4816640625,50.033974424260435L125.79528906249999,49.25891031516774L125.79679687500001,48.561352616984294L125.92345312500001,52.20121735528586L126.1616875,55.89009561975729L126.454203125,54.70641939111489L126.6396640625,55.27344411867006L126.8055234375,53.561433040136365L126.997015625,52.41395640278941L127.42824999999999,52.659560762510466L127.44332812500001,52.97893801959276L127.693625,54.957710884300155L127.99820312499999,55.56843979587015L128.534984375,56.34426248294977L128.6058515625,53.36483623465479L128.8440859375,54.91168594452266L128.89082812499998,54.14051735007038L129.071765625,52.75813228173L129.13509375,52.792319053556994L129.234609375,52.62642048153464L129.53315625,52.26077843338116L129.747265625,52.40370059004303L130.12271093750002,53.55499719770542L130.86003125,53.68649747793488L131.1027890625,55.08318106347471L131.1450078125,52.81986295712724L131.212859375,53.772209994747854L131.8446328125,54.196655661939715L133.0855625,52.80865676241241L133.112703125,53.40812441950452L133.2589609375,54.91131197755408L133.33585937499998,55.57584744646533L133.57861718750002,54.81692936848546L134.089765625,55.68756976497025L134.1787265625,54.819146121806554L134.45465625,56.04356484295923L134.475765625,56.76204169199663L134.882875,56.218837522796974L134.9145390625,58.03095377051726L135.2809375,56.63319172679887L135.40005468750002,55.49320588745232L135.57646875,57.987551965373754L136.4012421875,56.79079676883637L136.5791640625,57.11988375861941L136.69375781250002,54.82989538275744L137.08428125,52.49357251114836L137.2064140625,50.58754859336686L137.85778906250002,48.77379373403019L138.04777343749998,47.14141436062715L138.0869765625,48.77960625789777L138.2618828125,46.94997896544132L138.4940859375,45.30331440223054L138.5785234375,44.7063162953408L138.655421875,49.83301799914004L138.68859375,50.35638286589271L138.7383515625,50.68974457930344L138.776046875,50.9897701213731L139.16807812500002,52.715126442569115L139.17109375,54.26794713164553L139.32489062500002,52.282819085147636L139.3294140625,50.496203843299526L139.5616171875,51.83825012563625L139.81040625,52.23975844640596L140.036578125,51.4211159350987L140.241640625,52.257671008255485L140.49796875,51.555237240763276L140.7075546875,52.41771351668693L141.417734375,53.29227549835157L141.4252734375,54.07938128184975L141.496140625,53.27344315366476L141.586609375,54.33776550496496L141.62128906249998,52.83732228780178L142.01784375,51.58525672568828L142.02839843750002,51.520397719786104L143.094421875,51.481691281140826L143.50153125000003,50.758522153026746L143.950859375,49.71433660439071L143.978,48.7745696106183L144.098625,49.620112649556475L144.6429453125,49.26010138460083L144.90078125,52.49575791280739L145.0802109375,52.75284878819333L145.40137499999997,53.770897242707335L145.4782734375,53.330140851769926L145.69539843750002,54.703460099926275L145.766265625,55.48711408993364L145.9426796875,54.658402680940284L146.1175859375,56.74456241284625L146.128140625,56.16377283822828L146.5578671875,55.444395554405446L147.0584609375,54.84612266563157L147.4685859375,53.86517706573507L147.61785937500002,52.70699269249489L147.9706875,51.861293423245414L148.0807578125,51.27716408092087L148.166703125,51.341447672828764L148.9356875,51.300969572212566L149.03821875,49.553539281657976L149.15432031249998,51.7765186868255L149.1754296875,51.51553348480962L149.234234375,49.01898013632865L149.28248437500002,48.6404154560291L149.9052109375,47.9063739104262L150.175109375,47.2457365193836L150.74506250000002,46.63149620077854L150.8295,47.927346580700686L150.83553125,49.09361192263063L150.93353906250002,49.86791739703423L151.03154687499998,48.32279232399745L151.3708046875,48.997179758264394L151.3949296875,49.564795115771275L151.6120546875,50.193648937527485L151.6512578125,50.75961737710807L151.70704687499997,51.83932230606392L152.2845390625,51.847390075457525L152.3131875,52.03165106791177L152.46698437499998,49.68015262778725L152.86504687500002,49.707470698341865L153.0354296875,49.456723628507675L153.088203125,50.214384598990236L153.7260078125,48.41827947242453L154.9081328125,48.29645152518208L154.9593984375,49.48480637266388L155.078515625,50.239659068730816L155.41928124999998,49.54235982852441L155.49768749999998,48.02979051233865L155.70878125,49.20547812777143L156.0751796875,48.21826364832762L156.4551484375,47.3297706168282L156.69790625,49.755460221812015L157.062796875,48.90991419963083L157.111046875,50.41058944633441L157.430703125,52.154530501700975L157.72020312499998,52.05241078486422L157.8483671875,50.28883637304445L158.0473984375,51.53361940240667L158.3519765625,50.805257462166L158.4002265625,50.1497317159494L158.456015625,49.46142521102112L158.576640625,49.018949356585665L158.80432031249998,49.132054420927076L159.0877890625,49.017515645501035L159.13453125,48.91443074761759L159.1842890625,49.72632100618917L159.35617968749997,49.670355572236915L159.451171875,49.501986681679895L159.807015625,50.078121346845236L159.8507421875,49.08230921216071L161.0057265625,50.36907829094464L161.02532812500002,50.42583712851685L161.133890625,50.201586748998494L161.3495078125,48.72142807409864L161.930015625,47.290951933355444L162.01596093749998,48.77652340668658L162.17578906249997,49.09087106601791L162.273796875,50.80945062608278L162.3416484375,49.465172230141164L162.587421875,48.982988340460395L163.05182812500001,49.591356173080996L163.8615234375,47.857553889106214L164.074125,47.55579850019561L164.7481171875,46.34021865017607L164.87628125,44.55786345182511L164.90040625,43.93707710664262L165.476390625,42.59170272931169L165.5020234375,43.05253245638053L165.69803906250002,42.28727921074244L165.820171875,42.97521795633489L165.91365625,44.086029494034705L166.218234375,42.52909321129789L166.5393984375,41.69818389016808L167.4802734375,40.57669883448463L167.51042968750002,40.8456956177028L167.8210390625,42.54312605593253L168.0833984375,42.49748011700595L168.3095703125,43.36106543863869L168.3397265625,42.76162556144146L168.34425,42.222129671963955L168.47241406249998,42.70025003810093L168.4769375,42.24555836762414L169.0182421875,42.151002530861746L169.0574453125,40.39423561110891L169.97570312500002,39.89481204999802L170.0646640625,43.49666417833154L170.5743046875,43.67033109383172L170.7205625,45.38029798444853L171.09449999999998,44.48060151933703L171.742859375,44.26087470073665L172.4651015625,46.305120563996326L172.7003203125,47.45660850759671L173.0742578125,48.296280990170345L173.23559375,48.04898622448664L173.485890625,47.216754268704676L173.6773828125,49.437412175167495L173.883953125,48.50567095765075L173.968390625,47.45077052855234L174.016640625,46.521026809030445L174.12369531250002,44.917257461460736L174.6966640625,43.47386504864798L174.830859375,44.02347854378317L174.86553906249998,43.751130689404874L175.361609375,45.96435095379772L175.7144375,44.9865825250846L175.81244531250002,47.25325760590951L176.4427109375,47.24793184531853L176.6507890625,48.42313866078669L176.75633593749998,47.887824794708024L176.8618828125,47.22904231523722L177.0428203125,45.357804750380154L177.1091640625,44.06702427534216L177.3142265625,44.61632184780794L177.53436718749998,45.268022996360486L177.61578906250003,43.396220696724384L177.7364140625,44.34693196038529L177.90227343749999,43.747238764346775L178.13296875,43.895848221245444L178.2430390625,44.32459673245421L178.5325390625,44.100803725875465L178.6380859375,42.44405668662125L178.71196874999998,43.155651017959116L179.514125,44.64175258282987L180.1941484375,45.36957732454687L180.35397656249998,44.45128625875884L180.35699218750003,44.41149096621629L180.7641015625,45.359008536261314L181.3672265625,44.992441015968524L181.79242968749998,44.721530247705005L181.827109375,45.5003772229345L182.07137500000002,46.457006167307725L182.2327109375,45.05630555057692L182.321671875,44.936341662185896L182.3352421875,44.82837416263399L182.44229687499998,46.737203413037264L182.5553828125,44.915149738400174L182.68053125,44.75030143122683L182.7996484375,43.126937954770796L182.95193749999999,45.24524415929372L182.98209375000002,47.15171974336437L183.0966875,46.86154776902791L183.1826328125,48.29172632545843L183.19921875,50.54255369291259L183.83853125000002,48.929964990288L183.8686875,49.26830182459254L184.41753125,48.864804975466626L184.72210937499997,48.58032447791996L184.770359375,46.57395869679462L184.85178125,45.55489616044849L184.987484375,44.224739877736994L185.2815078125,43.047265889963256L185.32825,43.16753930096692L185.4111796875,43.27578537087024L185.463953125,43.707540167116576L185.47903125,44.09611948373825L185.7730546875,42.73484086869772L186.1590546875,40.723023448494644L186.241984375,40.46605443697851L186.89034375,39.16294899328065L187.3864140625,37.11498742728588L187.4738671875,38.00548868455729L188.0317578125,37.58760648276825L188.18857031250002,39.06017916782474L188.2096796875,40.38549458437561L188.238328125,40.18194512593803L188.3001484375,40.29375061334426L188.3212578125,40.39437555200982L188.343875,40.48493799680884L188.3634765625,39.681444197127945L188.42228125,39.15496644408182L188.618296875,38.46480313300697L188.877640625,38.35498948637294L189.1324609375,39.416490537735655L189.3978359375,37.736508150628765L189.5365546875,38.17152400223253L189.6451171875,38.16970493534262L189.66622656250001,38.95473444180837L190.30252343749999,38.10759433096089L190.38846875000002,38.1121682311981L190.5739296875,40.86961807474498L190.8393046875,40.02765626727046L190.9900859375,38.48322397387676L191.145390625,40.849568243155744L191.64899999999997,39.61627808550682L192.6456640625,39.27331694362283L192.7059765625,39.82998524926052L192.755734375,40.84232005766779L193.03317187500002,41.871421385234356L193.678515625,40.71294591337761L193.88508593749998,40.673317988706486L194.87421093749998,40.38198618983586L194.87571875,40.11978757085225L194.963171875,40.04114214710037L195.264734375,40.54069459905702L195.38385156249998,39.14162513915127L195.7487421875,39.593462625236185L196.112125,37.50244969604586L196.305125,37.587204726441286L196.3548828125,37.11281758713048L196.64739843750002,36.82353582841745L196.7378671875,36.3861822455757L196.9007109375,36.68089735435146L196.9549921875,37.33947428558298L196.98364062500002,37.047193523691334L197.128390625,35.99747417132221L197.8174609375,38.2780600875233L197.87928125,37.79358741210433L198.01196875,36.47256200422723L198.346703125,35.08697247047115L198.5773984375,34.03660855675736L198.862375,35.2546143677483L198.90459375,36.35081959764014L199.7414296875,35.17407097120943L200.03394531249998,36.425830540755186L200.09275000000002,36.20524748667964L200.3928046875,38.66172273801169L201.0260859375,37.45055046421052L201.23868750000003,37.44216208445613L201.428671875,36.35294587601052L201.657859375,34.782651288409426L202.0182265625,33.95938615956851L202.4886640625,33.21844754361163L202.74046875,32.15826945591712L202.75253124999998,32.95444251032538L203.2847890625,32.70733159262619L203.70094531249998,32.878265100030234L203.780859375,34.507105256693876L204.31914843750002,33.12139473102448L204.3372421875,33.25092192458871L204.709671875,33.957496398796536L204.72022656250002,34.59341342558349L204.8800546875,33.78907208302516L205.1228125,34.73683154138931L205.258515625,36.63214838725037L205.747046875,36.70560021519199L206.0048828125,37.06670686033948L206.078765625,37.39170284097219L206.1360625,35.91419922354163L206.18732812500002,34.387779301187464L206.24462499999998,32.81733470440204L206.3034296875,31.40393456729518L206.4783359375,30.918541110565656L206.5959453125,29.89168699950909L206.6170546875,31.425851632891494L206.64268750000002,32.80659980293569L206.80553125,36.782939822642135L207.52928125,39.27997917371124L207.815765625,38.931314589673434L207.990671875,37.1031831307061L208.322390625,37.031198150968834L208.3661171875,35.58974500253859L209.06121875,38.10777050228475L209.4487265625,37.34532678538963L209.492453125,37.05246077351734L209.5844296875,37.260881362832265L210.0428046875,36.779793226549L210.2961171875,37.78248057056078L211.06359375,38.86189918017138L211.08621093750003,39.695709262154224L211.53403125,40.52480500260546L212.38292968750002,43.296657835678246L212.8925703125,41.425325385443756L212.894078125,39.7411261802327L213.06144531249998,39.01201356220943L213.1036640625,37.96247887265517L213.1488984375,39.06323098538965L213.21071875,40.56524122018399L213.385625,40.57971709816562L213.86209375,38.586745388349044L213.92542187499998,40.333070849514144L213.979703125,40.508430431229385L214.419984375,40.292587388106455L214.4667265625,40.9833286492958L214.90851562499998,39.736662451032885L215.0487421875,38.614662872596256L215.0668359375,37.99819658533664L215.22515625,36.46004359346966L215.7212265625,36.94403923412267L216.536953125,37.2616353107104L216.573140625,38.334138446306014L216.6228984375,37.84405793500878L217.2818125,37.08831880817456L217.381328125,35.64115359402376L217.423546875,35.125371567954716L217.9286640625,34.66116774449259L218.1985625,34.735050970043346L218.2724453125,35.98154587303901L218.27696875,35.038391285735116L218.2935546875,35.86121882382824L218.3598984375,36.169096941445446L218.69915625,36.19052058063423L219.07158593749998,35.423135189237485L220.8116015625,35.42082167031373L221.178,34.907406169948985L221.5519375,35.05499888628745L221.6318515625,34.00783233099202L221.796203125,33.8520490978928L221.9967421875,33.22017752143688L222.2741796875,34.32315976929317L222.4671796875,36.29917712569721L222.54709375000002,35.71759274646081L222.61042187500001,37.53450013848138L222.7747734375,37.596383457966596L222.785328125,37.65207844550329L222.83357812499997,38.213537267619614L222.881828125,38.6008502075243L222.9738046875,38.75276518677188L223.0009453125,38.102822001427995L223.32663281249998,36.55420646795187L223.61613281249998,35.35711915449002L223.77294531249998,35.53840723904102L223.86642968750002,36.19323318180358L224.1287890625,34.442243196956554L224.4424140625,35.69835221059424L224.8857109375,36.592850322868145L224.9460234375,35.58856529058133L225.1450546875,36.19904209485654L225.2777421875,36.90580455203755L225.2958359375,37.62055743016714L225.30789843750003,36.51350168715041L225.3501171875,36.19565151843537L225.4224921875,37.099419699925164L225.48732812499998,36.43781106326597L225.6788203125,35.842363290272715L225.9080078125,34.91312696124544L226.060296875,34.64714759845424L226.2804375,32.85409950527546L226.422171875,32.99068955474792L226.6498515625,34.647620599273154L227.233375,34.801525206012485L227.5696171875,34.17303935207789L227.66008593749999,32.82073541687012L227.69778125,35.02566187518309L228.42153125000002,34.74842902099812L228.4381171875,34.12525278556495L228.7065078125,33.95772750700846L228.7411875,34.200288089640935L228.7879296875,40.003925947343504L229.0020390625,38.36353335260915L229.0231484375,37.772180017348234L229.95196093750002,38.950962015613385L230.2082890625,40.24786581405206L230.5701640625,41.769079232646845L230.5942890625,40.05050464271548L231.00742968749998,39.48712084511061L231.17630468750002,39.17674209393289L231.4446953125,38.87773455120626L231.4929453125,38.215294429418975L231.6015078125,37.83543165314373L231.9935390625,36.51022182116267L232.2151875,37.264532972379754L232.77157031250002,36.95024634180842L232.791171875,36.66738837429426L232.91933593750002,36.33414953686483L233.454609375,35.945734583178364L233.4892890625,34.80949445819385L233.496828125,33.786878345707805L233.526984375,34.79385717780369L233.6868125,36.42780479335664L234.2055,37.682024314020964L234.63975000000002,38.4371552159522L235.02725781249998,39.7657730276903L235.535390625,41.47286239158797L235.6424453125,40.57057615242914L235.7600546875,42.51185187051959L236.23501562500002,43.354333350134254L236.2425546875,44.11256668178751L236.265171875,42.552976680275435L236.76275,43.116012345581225L236.811,45.2747444443564L237.1080390625,43.99226999992078L237.4548359375,41.65804299992868L237.57998437499998,40.147238699935826L237.6086328125,38.394181496608894L237.7639375,37.40643001361468L237.8498828125,36.71412034558654L238.1846171875,35.50104164436121L238.47110156250002,34.409270813258445L238.9053515625,33.99701039859926L238.9475703125,34.60930935873935L239.07724218750002,33.606711756198706L239.65171875000001,32.114373913912175L239.684890625,34.80293652252095L240.13271093749998,35.13797620360219L240.35134375,33.88584524990864L240.42070312500002,34.03726072491776L241.2138125,32.69853465242599L241.274125,32.0836811871834L241.2861875,31.72697973513172L241.31935937499998,31.4059484282852L241.3344375,34.893020252123364L241.44903125,35.1403848935777L241.500296875,34.67467973755328L241.6314765625,34.058878430464574L241.67821874999998,33.11132392075146L242.3823671875,32.65185819534295L242.64925,32.02200570914201L242.742734375,31.67147180489448L243.0940546875,30.765991291071686L243.1031015625,29.164392161964543L244.045484375,29.483119612434763L244.099765625,28.206474317857953L244.24602343749999,28.611160219405463L244.53703125,28.208377530798288L244.5626640625,27.845873111051787L244.564171875,27.519619133279946L245.01500781250002,28.30765721995195L245.0692890625,28.72189149795676L245.3995,29.48803568149441L245.6121015625,28.997565446678294L246.0553984375,28.949475568677144L246.2906171875,28.709528011809425L246.50623437500002,29.634241877295153L246.63590624999998,28.932484356232322L246.650984375,29.087569253942405L246.8635859375,28.637145661881505L246.9314375,29.215097762360017L246.9691328125,29.489421319457335L247.15911718750002,28.21214585417829L247.2646640625,29.0882646020938L247.519484375,29.71943814188441L247.6235234375,31.762494327695947L247.71248437499997,31.044578228259695L247.89191406249998,30.201787072100387L248.0788828125,31.74427503155698L248.110546875,31.61818086173463L249.2127578125,31.701362775561165L249.71335156249998,32.169559831338375L249.7299375,31.607603848204576L249.862625,30.70851013005074L249.9214296875,31.66932578371234L249.98325,31.157393205341123L250.1958515625,31.266987218140343L250.7688203125,30.20528849632629L250.89999999999998,32.33742631336034L251.3478203125,33.037017015357634L252.2525078125,33.6666486471552L252.3429765625,32.758317115772996L252.3580546875,31.940818737529014L252.54653125,31.205070197109478L253.409,30.719896510731814L253.59898437500001,30.49957352632532L253.7482578125,29.90794950702613L253.9533203125,30.55548788965683L254.13727343750003,30.351605767357825L254.22472656250002,29.1847785239554L254.328765625,30.081634004893175L254.33479687500002,30.88880393773718L254.48708593749998,29.864923543963442L254.6167578125,29.730097856233783L254.639375,31.781921403943727L255.4882734375,31.829062596882665L255.65865625,31.301156337194385L255.85165625000002,31.789707370141656L255.8742734375,32.229403299794114L255.9798203125,31.464796303148063L256.1577421875,30.383316672833217L256.234640625,29.80331833888326L256.3386796875,29.47798650499493L256.3447109375,29.18518785449541L257.139328125,29.80666906904588L257.16797656250003,30.366002162141285L257.2886015625,29.39440194592717L257.4725546875,29.109961751334453L257.630875,28.83429890953434L257.9007734375,28.21253568524756L257.92188281250003,27.84961545005615L257.9761640625,29.155320571717198L258.037984375,31.235121847878787L258.17971875,30.83216573079929L258.2536015625,32.66561582438601L258.2777265625,33.21438757528074L258.399859375,34.02294881775265L258.5250078125,32.88232060264406L258.6561875,33.350421875712954L258.683328125,33.55537968814167L258.8868828125,33.97584171932752L259.0919453125,34.70825754739474L259.67546875,33.6957651259886L259.73125781249996,37.189855280056435L260.13384375,35.9292030853841L260.444453125,34.79461611017905L260.5002421875,33.18348783249445L261.6914140625,31.536805715911697L261.7924375,31.628125144320506L261.8844140625,31.316979296555104L262.036703125,31.23361470023292L262.4272265625,34.855919896876316L262.5237265625,39.138661240522L263.146453125,39.55146178313649L263.3620703125,42.83364893815616L263.8506015625,42.82778404434055L264.153671875,43.65833897323981L264.27128125,44.14033840924915L264.28485156249997,44.57413790165759L264.2908828125,45.03339077815849" style="fill: none;" fill="none"></path></g></g></g></g><g opacity="0.2"><g><g><g><path stroke="rgb(255, 112, 67)" stroke-width="2px" d="M30.2210859375,157.13666666666666L30.4095625,154.38333333333333L30.503046875,156.94L30.8724609375,154.57999999999998L30.9659453125,156.35L31.03078125,149.86L31.0413359375,150.05666666666667L31.1137109375,153.49833333333333L31.1333125,153.00666666666666L31.2343359375,156.94L31.3760703125,154.77666666666667L31.686679687500003,151.43333333333334L32.167671875,152.22L32.246078125000004,155.76L32.2566328125,155.76L32.3229765625,150.84333333333333L32.7723046875,146.91L32.776828125,146.91L32.987921875,147.30333333333334L33.048234375,147.30333333333334L33.2276640625,141.6L33.63628125,149.07333333333332L33.759921874999996,144.94333333333333L33.904671875,146.71333333333334L33.9061796875,146.71333333333334L34.206234375,143.56666666666666L34.7384921875,142.19L35.0279921875,145.14L35.052117187499995,147.89333333333332L35.141078125,143.37L35.613023437500004,138.84666666666666L35.6160390625,141.6L35.6914296875,142.38666666666666L35.919109375,145.14L36.12266406249999,144.15666666666667L36.666984375,130.98L36.7921328125,133.14333333333332L36.9308515625,133.34L36.956484374999995,138.25666666666666L37.2082890625,132.55333333333334L37.65309375,131.17666666666668L37.8988671875,122.91666666666666L38.217015625,120.55666666666667L38.238125000000004,120.55666666666667L38.78696875,123.31L38.999570312500005,119.37666666666667L39.06440625,116.82L39.1895546875,134.52L39.5061953125,125.47333333333333L39.53484375,118L40.25859375,126.85L40.2766875,126.85L40.492304687499995,118.39333333333333L40.661179687499995,125.47333333333333L40.94615625,112.49333333333333L41.4060390625,117.41L41.410562500000005,112.49333333333333L41.915679687499996,118.295L41.968453125,119.57333333333334L42.3197734375,114.85333333333334L42.4916640625,114.26333333333334L42.553484375000004,112.29666666666667L42.971148437500005,111.51L42.98622656249999,111.51L43.126453125000005,112.10000000000001L43.5441171875,113.67333333333335L43.6300625,106.39666666666666L44.1201015625,108.75666666666667L44.433726562500006,115.44333333333333L44.5633984375,110.13333333333334L44.583,110.13333333333334L44.7805234375,110.72333333333333L45.8375,104.43L45.958125,119.96666666666667L46.0229609375,99.90666666666667L46.151125,104.43L46.4119765625,115.83666666666667L46.595929687499996,104.03666666666666L46.600453124999994,104.03666666666666L46.692429687499995,103.64333333333333L46.773851562500006,108.56L46.8974921875,88.89333333333333L47.5458515625,87.12333333333333L47.597117187500004,104.43L47.776546875,102.85666666666667L47.888124999999995,107.18333333333334L48.204765625,103.44666666666666L48.2123046875,104.23333333333333L48.498789062499995,103.05333333333333L48.6887734375,110.33L49.573859375,103.44666666666666L49.8105859375,90.27L49.851296874999996,99.51333333333334L50.659484375,91.25333333333333L50.6941640625,100.10333333333332L50.9806484375,91.64666666666666L51.600359375,90.86L51.710429687499996,106.39666666666666L51.776773437500005,65.68666666666665L51.941125,103.05333333333333L52.229117187499995,85.55L52.2743515625,66.08L52.44171875,76.7L52.583453125,60.77000000000001L53.488140625,89.48333333333333L53.53940625,94.79333333333334L53.9269140625,92.63L54.4576640625,87.71333333333332L54.766765625,76.60166666666667L55.574953125,85.94333333333333L55.8900859375,69.81666666666668L55.936828125,69.81666666666668L56.268546875,83.09166666666667L56.30171875,70.40666666666667L56.6093125,81.61666666666667L56.630421875,85.15666666666668L57.97840625,98.53L58.9811015625,80.83L59.061015625,86.33666666666666L59.606843749999996,70.21L59.7711953125,81.22333333333333L59.7923046875,69.22666666666666L59.90840625,98.33333333333334L60.30646875,66.67L60.393921875000004,97.35L60.407492187500004,77.48666666666668L60.5220859375,80.83L60.6819140625,72.76666666666667L60.693976562500005,68.63666666666667L60.80103125,68.63666666666667L60.9774453125,76.89666666666666L61.126718749999995,82.20666666666666L61.185523437499995,67.85L61.48859375,90.07333333333334L61.493117187500005,72.57000000000001L61.6031875,65.88333333333334L61.9424453125,82.40333333333332L62.0389453125,74.34L62.1716328125,74.73333333333335L62.3028125,83.97666666666667L62.61040625,45.23333333333332L63.1004453125,76.11000000000001L63.699046875,55.85333333333334L63.8272109375,64.70333333333333L63.8694296875,51.92L65.0455234375,92.63L65.0606015625,98.33333333333334L65.1269453125,92.43333333333332L65.1661484375,78.27333333333333L65.2686796875,78.86333333333334L65.381765625,59.393333333333345L65.48128125,78.86333333333334L65.6516640625,70.8L65.8476796875,72.17666666666668L65.864265625,72.17666666666668L65.894421875,68.63666666666667L66.25177343749999,86.14L66.56690625,69.61999999999999L66.7704609375,70.60333333333332L66.77347656250001,70.60333333333332L66.8307734375,76.89666666666666L67.281609375,69.61999999999999L67.429375,80.83L67.4414375,57.81999999999999L67.70379687500001,60.96666666666667L67.7535546875,85.55L68.23454687499999,80.63333333333334L68.3536640625,57.81999999999999L68.442625,53.10000000000001L69.0774140625,83.58333333333333L69.1301875,87.51666666666667L69.241765625,65.88333333333334L69.81775,75.52L70.562609375,68.83333333333333L70.56411718749999,68.83333333333333L71.10089843749999,55.46000000000001L71.10843750000001,55.46000000000001L71.630140625,73.75L71.77790625,87.32L71.83067968750001,71.97999999999999L72.112640625,71.19333333333334L72.2498515625,68.83333333333333L73.03692968749999,76.89666666666666L73.19524999999999,54.77166666666666L73.83908593749999,58.60666666666667L73.87828906249999,73.16L73.9778046875,53.10000000000001L74.187390625,95.77666666666667L74.280875,96.36666666666667L74.5945,77.09333333333333L74.618625,67.65333333333334L74.80559375,63.91666666666667L75.13429687499999,67.26L75.399671875,82.20666666666666L75.43887500000001,64.70333333333333L75.6544921875,60.77000000000001L75.8851875,71.19333333333334L76.1008046875,82.20666666666666L76.31491406250001,83.97666666666667L76.4566484375,86.14L76.4777578125,64.50666666666667L77.5121171875,46.21666666666667L77.56790625,71.78333333333333L77.94938281249999,88.10666666666667L78.22682031250001,38.153333333333336L78.3112578125,65.68666666666665L78.4137890625,65.58833333333332L78.719875,79.84666666666666L79.06365625000001,79.45333333333333L79.22499218749999,52.903333333333336L79.398390625,62.736666666666665L79.5567109375,56.83666666666667L79.7557421875,76.50333333333333L79.76780468749999,65.68666666666665L79.96683593750001,65.09666666666666L80.188484375,60.96666666666667L80.32418750000001,66.96499999999999L80.481,80.24000000000001L80.52321875,73.35666666666665L81.026828125,67.45666666666666L81.044921875,73.75L81.07357031250001,73.94666666666667L81.099203125,55.85333333333334L81.18062499999999,66.86666666666666L81.2364140625,74.73333333333335L81.292203125,32.44999999999999L81.4776640625,52.11666666666666L81.9692109375,58.01666666666665L82.000875,57.03333333333333L82.214984375,60.376666666666665L82.32656250000001,49.16666666666667L82.604,63.52333333333334L83.43329687500001,60.376666666666665L83.46496093750001,68.63666666666667L83.499640625,45.23333333333332L83.65946875,67.26L83.795171875,47.20000000000002L84.09371875,65.68666666666665L84.211328125,65.88333333333334L84.368140625,65.09666666666666L84.494796875,57.81999999999999L84.8099296875,49.16666666666667L84.85365625,51.133333333333326L85.387421875,78.66666666666666L85.43265625,45.23333333333332L85.5955,47.20000000000002L85.7206484375,89.87666666666667L85.80659375,56.44333333333333L86.2513984375,75.12666666666667L86.684140625,51.133333333333326L87.0987890625,59.983333333333334L87.26766406249999,80.43666666666667L87.7441328125,49.95333333333335L88.1165625,48.18333333333334L88.1406875,47.98666666666665L88.5402578125,65.88333333333334L88.7211953125,54.870000000000005L88.933796875,49.16666666666667L89.4087578125,48.379999999999995L90.0209296875,64.70333333333333L90.140046875,55.85333333333334L90.2863046875,49.16666666666667L90.333046875,40.31666666666666L90.50041406250001,61.55666666666666L90.9165703125,44.25L91.22416406250001,66.08L91.4699375,66.86666666666666L91.47596874999999,66.86666666666666L91.5257265625,57.03333333333333L91.5558828125,45.23333333333332L91.665953125,43.26666666666668L92.0383828125,63.91666666666667L92.3459765625,74.34L92.3866875,73.16L92.492234375,44.44666666666666L92.79078125000001,64.70333333333333L92.81490624999999,49.16666666666667L93.6879296875,66.86666666666666L94.1643984375,79.64999999999999L94.19153906250001,79.84666666666666L94.5081796875,53.886666666666656L95.7747421875,79.84666666666666L95.90893750000001,61.36L95.9571875,42.28333333333333L96.06575000000001,78.66666666666666L96.1064609375,42.08666666666667L96.1124921875,42.08666666666667L96.207484375,64.70333333333333L96.490953125,45.23333333333332L96.611578125,77.68333333333334L96.8030703125,63.91666666666667L96.81362499999999,54.870000000000005L96.87996875,72.76666666666667L96.9598828125,76.30666666666667L97.7318828125,42.28333333333333L97.95503906249999,65.88333333333334L98.4767421875,64.50666666666667L98.4903125,64.50666666666667L98.57022656250001,45.03666666666666L98.77378125,36.383333333333354L99.0014609375,46.21666666666667L99.9966171875,81.41999999999999L100.0207421875,78.47L100.139859375,61.16333333333333L100.26953125,78.27333333333333L101.478796875,58.01666666666665L101.907015625,57.42666666666666L101.98692968750001,48.87166666666667L102.03367187500001,36.383333333333354L102.087953125,51.133333333333326L102.1467578125,46.11833333333334L102.3548359375,56.83666666666667L102.45284375,55.06666666666666L102.4875234375,72.17666666666668L102.6473515625,73.35666666666665L102.805671875,58.80333333333333L102.87503125,54.968333333333334L103.3198359375,55.46000000000001L103.8053515625,55.06666666666666L104.4506953125,59.78666666666666L104.5698125,43.26666666666668L104.75979687499999,66.67L105.55742968749999,56.83666666666667L105.6328203125,77.88L105.773046875,47.98666666666665L105.797171875,51.133333333333326L105.84240625,42.08666666666667L105.95247656250001,42.08666666666667L106.496796875,51.133333333333326L106.78328125,60.77000000000001L107.02453125,39.33333333333334L107.2582421875,88.69666666666667L107.39846875,63.72L107.4813984375,46.609999999999985L108.25942968749999,38.349999999999994L108.2714921875,58.01666666666665L108.4946484375,55.754999999999995L108.56551562499999,67.65333333333334L109.00428906249999,66.67L109.096265625,34.41666666666666L109.33299218750001,68.44000000000001L109.5923359375,53.886666666666656L109.9300859375,52.903333333333336L109.97984375,58.80333333333333L110.2105390625,49.16666666666667L110.23315625,45.03666666666666L110.7774765625,77.88L111.1363359375,75.71666666666667L111.146890625,62.343333333333334L111.15292187499999,70.8L111.15895312500001,70.8L111.3715546875,58.01666666666665L111.4378984375,64.11333333333333L111.6881953125,55.26333333333332L111.7424765625,73.75L111.76509375,59L111.943015625,34.22L112.62153125,46.02000000000001L112.79643750000001,34.41666666666666L112.992453125,47.20000000000002L113.06030468750001,36.18666666666667L113.378453125,26.353333333333325L113.53828125,52.50999999999999L113.9061875,68.83333333333333L113.91825,68.83333333333333L114.16251562500001,59.983333333333334L114.2424296875,67.75166666666667L115.10339062499999,74.14333333333333L115.35971875,44.84L115.38082812500001,44.84L115.5120078125,62.343333333333334L115.78190624999999,32.44999999999999L115.83166406250001,60.77000000000001L116.1015625,44.44666666666666L116.55390625000001,44.05333333333334L116.562953125,44.05333333333334L116.8328515625,70.40666666666667L117.2490078125,60.77000000000001L118.0556875,42.28333333333333L118.27432031250001,63.32666666666667L118.4492265625,45.23333333333332L118.577390625,51.133333333333326L118.69500000000001,53.10000000000001L118.7357109375,34.41666666666666L118.76134375000001,55.85333333333334L119.51675781249999,70.60333333333332L119.587625,55.656666666666666L119.7700703125,54.08333333333334L120.0836953125,43.26666666666668L120.1289296875,77.88L120.89640625,71.78333333333333L120.905453125,71.78333333333333L120.938625,62.540000000000006L121.074328125,59.393333333333345L121.34271874999999,54.08333333333334L122.443421875,74.93L122.5504765625,30.28666666666666L122.7947421875,54.08333333333334L122.9394921875,47.98666666666665L123.15963281249999,60.57333333333332L123.85171874999999,45.23333333333332L123.97234375000001,43.66L124.42016406249999,39.33333333333334L124.46690625000001,64.9L124.9599609375,38.54666666666665L125.18613281249999,39.33333333333334L125.4816640625,41.29999999999998L125.79528906249999,42.28333333333333L125.79679687500001,42.28333333333333L125.92345312500001,84.96L126.1616875,89.09L126.454203125,44.05333333333334L126.6396640625,60.376666666666665L126.8055234375,38.153333333333336L126.997015625,42.08666666666667L127.42824999999999,54.870000000000005L127.44332812500001,55.85333333333334L127.693625,72.76666666666667L127.99820312499999,61.065L128.534984375,63.32666666666667L128.6058515625,26.55000000000001L128.8440859375,68.83333333333333L128.89082812499998,47.20000000000002L129.071765625,40.31666666666666L129.13509375,53.10000000000001L129.234609375,51.133333333333326L129.53315625,48.97L129.747265625,53.69L130.12271093750002,63.91666666666667L130.86003125,54.870000000000005L131.1027890625,67.65333333333334L131.1450078125,32.44999999999999L131.212859375,62.343333333333334L131.8446328125,58.01666666666665L133.0855625,40.31666666666666L133.112703125,58.80333333333333L133.2589609375,68.44000000000001L133.33585937499998,61.55666666666666L133.57861718750002,47.98666666666665L134.089765625,63.52333333333334L134.1787265625,47.00333333333333L134.45465625,67.06333333333335L134.475765625,63.22833333333334L134.882875,51.33000000000001L134.9145390625,74.34L135.2809375,44.05333333333334L135.40005468750002,45.23333333333332L135.57646875,80.43666666666667L136.4012421875,46.02000000000001L136.5791640625,60.08166666666666L136.69375781250002,34.22L137.08428125,31.46666666666667L137.2064140625,33.43333333333334L137.85778906250002,32.44999999999999L138.04777343749998,32.44999999999999L138.0869765625,63.52333333333334L138.2618828125,30.48333333333335L138.4940859375,30.48333333333335L138.5785234375,39.33333333333334L138.655421875,95.97333333333333L138.68859375,55.06666666666666L138.7383515625,53.69L138.776046875,53.69L139.16807812500002,68.24333333333333L139.17109375,68.24333333333333L139.32489062500002,34.41666666666666L139.3294140625,34.41666666666666L139.5616171875,63.91666666666667L139.81040625,55.85333333333334L140.036578125,44.05333333333334L140.241640625,59.78666666666666L140.49796875,45.23333333333332L140.7075546875,60.17999999999999L141.417734375,61.16333333333333L141.4252734375,61.16333333333333L141.496140625,46.02000000000001L141.586609375,63.91666666666667L141.62128906249998,39.33333333333334L142.01784375,40.31666666666666L142.02839843750002,50.93666666666667L143.094421875,51.133333333333326L143.50153125000003,44.25L143.950859375,40.31666666666666L143.978,40.31666666666666L144.098625,57.230000000000004L144.6429453125,46.02000000000001L144.90078125,81.61666666666667L145.0802109375,55.06666666666666L145.40137499999997,62.93333333333332L145.4782734375,49.36333333333333L145.69539843750002,67.06333333333335L145.766265625,62.540000000000006L145.9426796875,47.20000000000002L146.1175859375,75.52L146.128140625,50.93666666666667L146.5578671875,48.97L147.0584609375,49.46166666666667L147.4685859375,45.03666666666666L147.61785937500002,42.28333333333333L147.9706875,44.25L148.0807578125,46.02000000000001L148.166703125,51.92L148.9356875,50.93666666666667L149.03821875,33.82666666666668L149.15432031249998,71.78333333333333L149.1754296875,49.16666666666667L149.234234375,26.55000000000001L149.28248437500002,45.23333333333332L149.9052109375,41.29999999999998L150.175109375,41.29999999999998L150.74506250000002,41.103333333333325L150.8295,59.59L150.83553125,59.59L150.93353906250002,56.83666666666667L151.03154687499998,34.41666666666666L151.3708046875,55.06666666666666L151.3949296875,54.67333333333333L151.6120546875,55.85333333333334L151.6512578125,55.85333333333334L151.70704687499997,61.55666666666666L152.2845390625,51.92L152.3131875,53.69L152.46698437499998,28.51666666666665L152.86504687500002,49.95333333333335L153.0354296875,47.20000000000002L153.088203125,57.03333333333333L153.7260078125,32.25333333333333L154.9081328125,47.20000000000002L154.9593984375,60.17999999999999L155.078515625,57.03333333333333L155.41928124999998,43.26666666666668L155.49768749999998,34.41666666666666L155.70878125,59.78666666666666L156.0751796875,39.33333333333334L156.4551484375,39.33333333333334L156.69790625,71.58666666666667L157.062796875,41.29999999999998L157.111046875,63.91666666666667L157.430703125,67.85L157.72020312499998,51.133333333333326L157.8483671875,34.41666666666666L158.0473984375,62.736666666666665L158.3519765625,44.25L158.4002265625,44.25L158.456015625,43.26666666666668L158.576640625,45.03666666666666L158.80432031249998,50.150000000000006L159.0877890625,47.98666666666665L159.13453125,47.98666666666665L159.1842890625,57.03333333333333L159.35617968749997,49.16666666666667L159.451171875,47.98666666666665L159.807015625,55.26333333333332L159.8507421875,40.120000000000005L161.0057265625,61.95L161.02532812500002,50.93666666666667L161.133890625,48.18333333333334L161.3495078125,35.400000000000006L161.930015625,34.41666666666666L162.01596093749998,62.146666666666675L162.17578906249997,51.92L162.273796875,66.27666666666667L162.3416484375,37.366666666666674L162.587421875,44.643333333333345L163.05182812500001,55.06666666666666L163.8615234375,32.25333333333333L164.074125,44.84L164.7481171875,35.400000000000006L164.87628125,28.51666666666665L164.90040625,38.349999999999994L165.476390625,30.48333333333335L165.5020234375,47.20000000000002L165.69803906250002,35.400000000000006L165.820171875,49.16666666666667L165.91365625,54.08333333333334L166.218234375,28.51666666666665L166.5393984375,34.22L167.4802734375,30.48333333333335L167.51042968750002,43.26666666666668L167.8210390625,57.81999999999999L168.0833984375,42.08666666666667L168.3095703125,51.133333333333326L168.3397265625,37.366666666666674L168.34425,37.366666666666674L168.47241406249998,47.00333333333333L168.4769375,38.153333333333336L169.0182421875,41.29999999999998L169.0574453125,24.583333333333314L169.97570312500002,35.400000000000006L170.0646640625,75.91333333333333L170.5743046875,45.23333333333332L170.7205625,60.77000000000001L171.09449999999998,36.383333333333354L171.742859375,42.28333333333333L172.4651015625,64.70333333333333L172.7003203125,57.81999999999999L173.0742578125,55.85333333333334L173.23559375,45.82333333333332L173.485890625,39.72666666666666L173.6773828125,69.42333333333333L173.883953125,40.120000000000005L173.968390625,37.95666666666668L174.016640625,38.153333333333336L174.12369531250002,30.48333333333335L174.6966640625,30.48333333333335L174.830859375,48.97L174.86553906249998,41.29999999999998L175.361609375,65.88333333333334L175.7144375,36.18666666666667L175.81244531250002,67.65333333333334L176.4427109375,47.20000000000002L176.6507890625,59L176.75633593749998,43.06999999999999L176.8618828125,41.29999999999998L177.0428203125,28.51666666666665L177.1091640625,32.44999999999999L177.3142265625,49.56L177.53436718749998,51.133333333333326L177.61578906250003,26.55000000000001L177.7364140625,52.903333333333336L177.90227343749999,38.349999999999994L178.13296875,45.23333333333332L178.2430390625,48.18333333333334L178.5325390625,42.08666666666667L178.6380859375,27.53333333333333L178.71196874999998,49.56L179.514125,58.01666666666665L180.1941484375,51.92L180.35397656249998,36.18666666666667L180.35699218750003,44.05333333333334L180.7641015625,53.886666666666656L181.3672265625,41.69333333333333L181.79242968749998,42.28333333333333L181.827109375,52.50999999999999L182.07137500000002,55.06666666666666L182.2327109375,32.44999999999999L182.321671875,43.856666666666655L182.3352421875,43.856666666666655L182.44229687499998,63.91666666666667L182.5553828125,28.51666666666665L182.68053125,43.26666666666668L182.7996484375,28.51666666666665L182.95193749999999,64.30999999999999L182.98209375000002,64.30999999999999L183.0966875,44.25L183.1826328125,61.16333333333333L183.19921875,70.8L183.83853125000002,34.41666666666666L183.8686875,52.31333333333333L184.41753125,45.23333333333332L184.72210937499997,46.02000000000001L184.770359375,28.51666666666665L184.85178125,36.383333333333354L184.987484375,32.25333333333333L185.2815078125,32.44999999999999L185.32825,44.25L185.4111796875,44.25L185.463953125,47.593333333333334L185.47903125,47.593333333333334L185.7730546875,30.48333333333335L186.1590546875,22.616666666666674L186.241984375,38.153333333333336L186.89034375,27.435000000000002L187.3864140625,18.683333333333337L187.4738671875,46.02000000000001L188.0317578125,33.82666666666668L188.18857031250002,52.31333333333333L188.2096796875,52.31333333333333L188.238328125,38.349999999999994L188.3001484375,41.29999999999998L188.3212578125,41.29999999999998L188.343875,41.29999999999998L188.3634765625,32.44999999999999L188.42228125,34.41666666666666L188.618296875,32.25333333333333L188.877640625,37.366666666666674L189.1324609375,48.97L189.3978359375,22.616666666666674L189.5365546875,42.08666666666667L189.6451171875,38.153333333333336L189.66622656250001,46.02000000000001L190.30252343749999,30.48333333333335L190.38846875000002,38.153333333333336L190.5739296875,65.68666666666665L190.8393046875,32.44999999999999L190.9900859375,24.583333333333314L191.145390625,62.146666666666675L191.64899999999997,28.51666666666665L192.6456640625,36.18666666666667L192.7059765625,44.84L192.755734375,49.95333333333335L193.03317187500002,51.133333333333326L193.678515625,30.28666666666666L193.88508593749998,40.31666666666666L194.87421093749998,37.76000000000002L194.87571875,37.76000000000002L194.963171875,39.33333333333334L195.264734375,45.03666666666666L195.38385156249998,26.55000000000001L195.7487421875,43.66L196.112125,18.683333333333337L196.305125,38.349999999999994L196.3548828125,32.843333333333334L196.64739843750002,34.22L196.7378671875,32.44999999999999L196.9007109375,39.33333333333334L196.9549921875,43.26666666666668L196.98364062500002,34.41666666666666L197.128390625,26.55000000000001L197.8174609375,58.80333333333333L197.87928125,33.43333333333334L198.01196875,24.583333333333314L198.346703125,22.616666666666674L198.5773984375,24.583333333333314L198.862375,46.21666666666667L198.90459375,46.21666666666667L199.7414296875,24.583333333333314L200.03394531249998,47.69166666666666L200.09275000000002,34.22L200.3928046875,60.77000000000001L201.0260859375,26.55000000000001L201.23868750000003,37.366666666666674L201.428671875,26.55000000000001L201.657859375,20.650000000000006L202.0182265625,26.55000000000001L202.4886640625,26.55000000000001L202.74046875,22.616666666666674L202.75253124999998,40.120000000000005L203.2847890625,30.48333333333335L203.70094531249998,34.41666666666666L203.780859375,49.16666666666667L204.31914843750002,20.650000000000006L204.3372421875,34.41666666666666L204.709671875,40.31666666666666L204.72022656250002,40.31666666666666L204.8800546875,26.55000000000001L205.1228125,43.26666666666668L205.258515625,53.69L205.747046875,37.366666666666674L206.0048828125,40.31666666666666L206.078765625,40.31666666666666L206.1360625,22.616666666666674L206.18732812500002,20.650000000000006L206.24462499999998,18.683333333333337L206.3034296875,18.683333333333337L206.4783359375,26.55000000000001L206.5959453125,20.650000000000006L206.6170546875,45.23333333333332L206.64268750000002,45.23333333333332L206.80553125,72.57000000000001L207.52928125,61.753333333333345L207.815765625,35.79333333333332L207.990671875,20.650000000000006L208.322390625,36.383333333333354L208.3661171875,22.616666666666674L209.06121875,60.77000000000001L209.4487265625,30.48333333333335L209.492453125,34.41666666666666L209.5844296875,39.136666666666684L210.0428046875,32.44999999999999L210.2961171875,46.80666666666667L211.06359375,48.57666666666668L211.08621093750003,47.20000000000002L211.53403125,47.98666666666665L212.38292968750002,68.24333333333333L212.8925703125,24.583333333333314L212.894078125,24.583333333333314L213.06144531249998,32.44999999999999L213.1036640625,28.51666666666665L213.1488984375,48.97L213.21071875,54.08333333333334L213.385625,40.71000000000001L213.86209375,20.650000000000006L213.92542187499998,56.05L213.979703125,42.08666666666667L214.419984375,38.349999999999994L214.4667265625,47.20000000000002L214.90851562499998,28.51666666666665L215.0487421875,28.51666666666665L215.0668359375,32.44999999999999L215.22515625,22.616666666666674L215.7212265625,41.29999999999998L216.536953125,40.120000000000005L216.573140625,47.98666666666665L216.6228984375,33.43333333333334L217.2818125,30.28666666666666L217.381328125,22.616666666666674L217.423546875,30.48333333333335L217.9286640625,30.48333333333335L218.1985625,35.400000000000006L218.2724453125,47.20000000000002L218.27696875,26.55000000000001L218.2935546875,43.26666666666668L218.3598984375,38.94L218.69915625,36.383333333333354L219.07158593749998,28.51666666666665L220.8116015625,35.400000000000006L221.178,30.28666666666666L221.5519375,36.383333333333354L221.6318515625,24.583333333333314L221.796203125,32.44999999999999L221.9967421875,27.53333333333333L222.2741796875,44.25L222.4671796875,54.08333333333334L222.54709375000002,30.48333333333335L222.61042187500001,53.886666666666656L222.7747734375,38.153333333333336L222.785328125,38.153333333333336L222.83357812499997,43.26666666666668L222.881828125,42.08666666666667L222.9738046875,40.120000000000005L223.0009453125,32.25333333333333L223.32663281249998,22.616666666666674L223.61613281249998,24.583333333333314L223.77294531249998,37.16999999999999L223.86642968750002,42.08666666666667L224.1287890625,18.683333333333337L224.4424140625,47.00333333333333L224.8857109375,44.643333333333345L224.9460234375,26.55000000000001L225.1450546875,41.69333333333333L225.2777421875,43.26666666666668L225.2958359375,44.05333333333334L225.30789843750003,26.55000000000001L225.3501171875,33.33500000000001L225.4224921875,45.23333333333332L225.48732812499998,30.48333333333335L225.6788203125,30.48333333333335L225.9080078125,26.55000000000001L226.060296875,32.25333333333333L226.2804375,16.71666666666667L226.422171875,34.22L226.6498515625,49.56L227.233375,36.18666666666667L227.5696171875,28.51666666666665L227.66008593749999,20.650000000000006L227.69778125,54.870000000000005L228.42153125000002,32.25333333333333L228.4381171875,28.51666666666665L228.7065078125,32.44999999999999L228.7411875,36.383333333333354L228.7879296875,92.23666666666666L229.0020390625,23.599999999999994L229.0231484375,32.44999999999999L229.95196093750002,49.56L230.2082890625,51.92L230.5701640625,55.46000000000001L230.5942890625,24.583333333333314L231.00742968749998,34.41666666666666L231.17630468750002,36.383333333333354L231.4446953125,36.18666666666667L231.4929453125,32.25333333333333L231.6015078125,34.41666666666666L231.9935390625,24.583333333333314L232.2151875,44.05333333333334L232.77157031250002,34.12166666666667L232.791171875,34.12166666666667L232.91933593750002,33.33500000000001L233.454609375,32.44999999999999L233.4892890625,24.583333333333314L233.496828125,24.583333333333314L233.526984375,43.856666666666655L233.6868125,51.133333333333326L234.2055,48.97L234.63975000000002,45.23333333333332L235.02725781249998,51.72333333333334L235.535390625,56.83666666666667L235.6424453125,32.44999999999999L235.7600546875,59.983333333333334L236.23501562500002,50.93666666666667L236.2425546875,50.93666666666667L236.265171875,28.51666666666665L236.76275,48.18333333333334L236.811,64.70333333333333L237.1080390625,32.44999999999999L237.4548359375,20.650000000000006L237.57998437499998,26.55000000000001L237.6086328125,22.616666666666674L237.7639375,28.51666666666665L237.8498828125,30.48333333333335L238.1846171875,24.583333333333314L238.47110156250002,24.583333333333314L238.9053515625,30.28666666666666L238.9475703125,40.120000000000005L239.07724218750002,24.583333333333314L239.65171875000001,18.683333333333337L239.684890625,59L240.13271093749998,38.153333333333336L240.35134375,22.616666666666674L240.42070312500002,35.400000000000006L241.2138125,20.650000000000006L241.274125,26.55000000000001L241.2861875,28.51666666666665L241.31935937499998,28.51666666666665L241.3344375,66.27666666666667L241.44903125,37.366666666666674L241.500296875,30.48333333333335L241.6314765625,28.51666666666665L241.67821874999998,24.583333333333314L242.3823671875,28.51666666666665L242.64925,26.353333333333325L242.742734375,28.51666666666665L243.0940546875,22.616666666666674L243.1031015625,14.75L244.045484375,32.35166666666666L244.099765625,16.71666666666667L244.24602343749999,32.25333333333333L244.53703125,24.583333333333314L244.5626640625,24.583333333333314L244.564171875,24.583333333333314L245.01500781250002,35.400000000000006L245.0692890625,32.44999999999999L245.3995,36.383333333333354L245.6121015625,24.583333333333314L246.0553984375,28.51666666666665L246.2906171875,26.55000000000001L246.50623437500002,37.95666666666668L246.63590624999998,22.616666666666674L246.650984375,30.48333333333335L246.8635859375,24.583333333333314L246.9314375,34.41666666666666L246.9691328125,31.958333333333343L247.15911718750002,16.71666666666667L247.2646640625,36.97333333333333L247.519484375,35.400000000000006L247.6235234375,50.150000000000006L247.71248437499997,24.583333333333314L247.89191406249998,22.616666666666674L248.0788828125,45.626666666666665L248.110546875,30.48333333333335L249.2127578125,32.44999999999999L249.71335156249998,36.383333333333354L249.7299375,26.55000000000001L249.862625,22.616666666666674L249.9214296875,40.31666666666666L249.98325,26.55000000000001L250.1958515625,32.25333333333333L250.7688203125,20.650000000000006L250.89999999999998,51.52666666666667L251.3478203125,39.33333333333334L252.2525078125,39.33333333333334L252.3429765625,24.583333333333314L252.3580546875,24.583333333333314L252.54653125,24.583333333333314L253.409,26.353333333333325L253.59898437500001,28.51666666666665L253.7482578125,24.583333333333314L253.9533203125,36.383333333333354L254.13727343750003,28.51666666666665L254.22472656250002,18.683333333333337L254.328765625,38.153333333333336L254.33479687500002,38.153333333333336L254.48708593749998,20.650000000000006L254.6167578125,28.51666666666665L254.639375,50.248333333333335L255.4882734375,32.25333333333333L255.65865625,26.55000000000001L255.85165625000002,36.18666666666667L255.8742734375,36.18666666666667L255.9798203125,24.583333333333314L256.1577421875,20.650000000000006L256.234640625,24.583333333333314L256.3386796875,26.55000000000001L256.3447109375,26.55000000000001L257.139328125,35.400000000000006L257.16797656250003,35.400000000000006L257.2886015625,20.650000000000006L257.4725546875,26.55000000000001L257.630875,26.353333333333325L257.9007734375,22.616666666666674L257.92188281250003,24.583333333333314L257.9761640625,40.906666666666666L258.037984375,49.95333333333335L258.17971875,27.205560677083326L258.2536015625,49.16666666666667L258.2777265625,38.153333333333336L258.399859375,41.29999999999998L258.5250078125,22.616666666666674L258.6561875,37.56333333333333L258.683328125,35.400000000000006L258.8868828125,37.76000000000002L259.0919453125,41.29999999999998L259.67546875,24.583333333333314L259.73125781249996,68.63666666666667L260.13384375,24.583333333333314L260.444453125,24.583333333333314L260.5002421875,18.683333333333337L261.6914140625,16.71666666666667L261.7924375,32.44999999999999L261.8844140625,28.51666666666665L262.036703125,30.48333333333335L262.4272265625,67.45666666666666L262.5237265625,77.68333333333334L263.146453125,43.26666666666668L263.3620703125,72.37333333333333L263.8506015625,42.775000000000006L264.153671875,51.133333333333326L264.27128125,48.478333333333325L264.28485156249997,48.478333333333325L264.2908828125,49.16666666666667" style="fill: none;" fill="none"></path></g></g></g></g></g></g><g transform="translate(58, 177)" clip-path="url(#clip_1)"><clipPath id="clip_1"><rect width="271" height="23"></rect></clipPath><g><g><line x1="0" y1="0" x2="0" y2="5" style="visibility: inherit;" fill="rgb(0, 0, 0)" stroke="rgb(204, 204, 204)" stroke-width="1px"></line><line x1="30.15625" y1="0" x2="30.15625" y2="5" style="visibility: inherit;" fill="rgb(0, 0, 0)" stroke="rgb(204, 204, 204)" stroke-width="1px"></line><line x1="60.3125" y1="0" x2="60.3125" y2="5" style="visibility: inherit;" fill="rgb(0, 0, 0)" stroke="rgb(204, 204, 204)" stroke-width="1px"></line><line x1="90.46875" y1="0" x2="90.46875" y2="5" style="visibility: inherit;" fill="rgb(0, 0, 0)" stroke="rgb(204, 204, 204)" stroke-width="1px"></line><line x1="120.625" y1="0" x2="120.625" y2="5" style="visibility: inherit;" fill="rgb(0, 0, 0)" stroke="rgb(204, 204, 204)" stroke-width="1px"></line><line x1="150.78125" y1="0" x2="150.78125" y2="5" style="visibility: inherit;" fill="rgb(0, 0, 0)" stroke="rgb(204, 204, 204)" stroke-width="1px"></line><line x1="180.9375" y1="0" x2="180.9375" y2="5" style="visibility: inherit;" fill="rgb(0, 0, 0)" stroke="rgb(204, 204, 204)" stroke-width="1px"></line><line x1="211.09375" y1="0" x2="211.09375" y2="5" style="visibility: inherit;" fill="rgb(0, 0, 0)" stroke="rgb(204, 204, 204)" stroke-width="1px"></line><line x1="241.25" y1="0" x2="241.25" y2="5" style="visibility: inherit;" fill="rgb(0, 0, 0)" stroke="rgb(204, 204, 204)" stroke-width="1px"></line><line x1="271.40625" y1="0" x2="271.40625" y2="5" style="visibility: inherit;" fill="rgb(0, 0, 0)" stroke="rgb(204, 204, 204)" stroke-width="1px"></line></g><g transform="translate(0, 8)"><text x="0" y="0" dx="0em" dy="0.95em" style="text-anchor: middle; visibility: hidden; font-family: &quot;Helvetica Neue&quot;, sans-serif; font-size: 12px; font-weight: 200;" fill="rgb(50, 49, 63)" stroke="none" stroke-width="1px">-20k</text><text x="30.15625" y="0" dx="0em" dy="0.95em" style="text-anchor: middle; visibility: inherit; font-family: &quot;Helvetica Neue&quot;, sans-serif; font-size: 12px; font-weight: 200;" fill="rgb(50, 49, 63)" stroke="none" stroke-width="1px">0</text><text x="60.3125" y="0" dx="0em" dy="0.95em" style="text-anchor: middle; visibility: hidden; font-family: &quot;Helvetica Neue&quot;, sans-serif; font-size: 12px; font-weight: 200;" fill="rgb(50, 49, 63)" stroke="none" stroke-width="1px">20k</text><text x="90.46875" y="0" dx="0em" dy="0.95em" style="text-anchor: middle; visibility: inherit; font-family: &quot;Helvetica Neue&quot;, sans-serif; font-size: 12px; font-weight: 200;" fill="rgb(50, 49, 63)" stroke="none" stroke-width="1px">40k</text><text x="120.625" y="0" dx="0em" dy="0.95em" style="text-anchor: middle; visibility: hidden; font-family: &quot;Helvetica Neue&quot;, sans-serif; font-size: 12px; font-weight: 200;" fill="rgb(50, 49, 63)" stroke="none" stroke-width="1px">60k</text><text x="150.78125" y="0" dx="0em" dy="0.95em" style="text-anchor: middle; visibility: inherit; font-family: &quot;Helvetica Neue&quot;, sans-serif; font-size: 12px; font-weight: 200;" fill="rgb(50, 49, 63)" stroke="none" stroke-width="1px">80k</text><text x="180.9375" y="0" dx="0em" dy="0.95em" style="text-anchor: middle; visibility: hidden; font-family: &quot;Helvetica Neue&quot;, sans-serif; font-size: 12px; font-weight: 200;" fill="rgb(50, 49, 63)" stroke="none" stroke-width="1px">100k</text><text x="211.09375" y="0" dx="0em" dy="0.95em" style="text-anchor: middle; visibility: inherit; font-family: &quot;Helvetica Neue&quot;, sans-serif; font-size: 12px; font-weight: 200;" fill="rgb(50, 49, 63)" stroke="none" stroke-width="1px">120k</text><text x="241.25" y="0" dx="0em" dy="0.95em" style="text-anchor: middle; visibility: hidden; font-family: &quot;Helvetica Neue&quot;, sans-serif; font-size: 12px; font-weight: 200;" fill="rgb(50, 49, 63)" stroke="none" stroke-width="1px">140k</text><text x="271.40625" y="0" dx="0em" dy="0.95em" style="text-anchor: middle; visibility: hidden; font-family: &quot;Helvetica Neue&quot;, sans-serif; font-size: 12px; font-weight: 200;" fill="rgb(50, 49, 63)" stroke="none" stroke-width="1px">160k</text></g><line x1="0" y1="0" x2="271.40625" y2="0" fill="rgb(0, 0, 0)" stroke="rgb(204, 204, 204)" stroke-width="1px"></line></g></g></g></g></svg>