<svg viewBox="0 0 330 200" xmlns="http://www.w3.org/2000/svg"><g><g><g><g><g><line x1="39.15625" y1="177" x2="34.15625" y2="177" style="visibility: inherit;" fill="rgb(0, 0, 0)" stroke="rgb(204, 204, 204)" stroke-width="1px"></line><line x1="39.15625" y1="160.9090909090909" x2="34.15625" y2="160.9090909090909" style="visibility: inherit;" fill="rgb(0, 0, 0)" stroke="rgb(204, 204, 204)" stroke-width="1px"></line><line x1="39.15625" y1="144.8181818181818" x2="34.15625" y2="144.8181818181818" style="visibility: inherit;" fill="rgb(0, 0, 0)" stroke="rgb(204, 204, 204)" stroke-width="1px"></line><line x1="39.15625" y1="128.72727272727275" x2="34.15625" y2="128.72727272727275" style="visibility: inherit;" fill="rgb(0, 0, 0)" stroke="rgb(204, 204, 204)" stroke-width="1px"></line><line x1="39.15625" y1="112.63636363636364" x2="34.15625" y2="112.63636363636364" style="visibility: inherit;" fill="rgb(0, 0, 0)" stroke="rgb(204, 204, 204)" stroke-width="1px"></line><line x1="39.15625" y1="96.54545454545455" x2="34.15625" y2="96.54545454545455" style="visibility: inherit;" fill="rgb(0, 0, 0)" stroke="rgb(204, 204, 204)" stroke-width="1px"></line><line x1="39.15625" y1="80.45454545454547" x2="34.15625" y2="80.45454545454547" style="visibility: inherit;" fill="rgb(0, 0, 0)" stroke="rgb(204, 204, 204)" stroke-width="1px"></line><line x1="39.15625" y1="64.36363636363636" x2="34.15625" y2="64.36363636363636" style="visibility: inherit;" fill="rgb(0, 0, 0)" stroke="rgb(204, 204, 204)" stroke-width="1px"></line><line x1="39.15625" y1="48.27272727272728" x2="34.15625" y2="48.27272727272728" style="visibility: inherit;" fill="rgb(0, 0, 0)" stroke="rgb(204, 204, 204)" stroke-width="1px"></line><line x1="39.15625" y1="32.18181818181819" x2="34.15625" y2="32.18181818181819" style="visibility: inherit;" fill="rgb(0, 0, 0)" stroke="rgb(204, 204, 204)" stroke-width="1px"></line><line x1="39.15625" y1="16.090909090909093" x2="34.15625" y2="16.090909090909093" style="visibility: inherit;" fill="rgb(0, 0, 0)" stroke="rgb(204, 204, 204)" stroke-width="1px"></line><line x1="39.15625" y1="0" x2="34.15625" y2="0" style="visibility: inherit;" fill="rgb(0, 0, 0)" stroke="rgb(204, 204, 204)" stroke-width="1px"></line></g><g transform="translate(29.15625, 0)"><text x="0" y="177" dx="0em" dy="0.3em" style="text-anchor: end; visibility: hidden; font-family: &quot;Helvetica Neue&quot;, sans-serif; font-size: 12px; font-weight: 200;" fill="rgb(50, 49, 63)" stroke="none" stroke-width="1px">-10</text><text x="0" y="160.9090909090909" dx="0em" dy="0.3em" style="text-anchor: end; visibility: inherit; font-family: &quot;Helvetica Neue&quot;, sans-serif; font-size: 12px; font-weight: 200;" fill="rgb(50, 49, 63)" stroke="none" stroke-width="1px">0</text><text x="0" y="144.8181818181818" dx="0em" dy="0.3em" style="text-anchor: end; visibility: hidden; font-family: &quot;Helvetica Neue&quot;, sans-serif; font-size: 12px; font-weight: 200;" fill="rgb(50, 49, 63)" stroke="none" stroke-width="1px">10</text><text x="0" y="128.72727272727275" dx="0em" dy="0.3em" style="text-anchor: end; visibility: inherit; font-family: &quot;Helvetica Neue&quot;, sans-serif; font-size: 12px; font-weight: 200;" fill="rgb(50, 49, 63)" stroke="none" stroke-width="1px">20</text><text x="0" y="112.63636363636364" dx="0em" dy="0.3em" style="text-anchor: end; visibility: hidden; font-family: &quot;Helvetica Neue&quot;, sans-serif; font-size: 12px; font-weight: 200;" fill="rgb(50, 49, 63)" stroke="none" stroke-width="1px">30</text><text x="0" y="96.54545454545455" dx="0em" dy="0.3em" style="text-anchor: end; visibility: inherit; font-family: &quot;Helvetica Neue&quot;, sans-serif; font-size: 12px; font-weight: 200;" fill="rgb(50, 49, 63)" stroke="none" stroke-width="1px">40</text><text x="0" y="80.45454545454547" dx="0em" dy="0.3em" style="text-anchor: end; visibility: hidden; font-family: &quot;Helvetica Neue&quot;, sans-serif; font-size: 12px; font-weight: 200;" fill="rgb(50, 49, 63)" stroke="none" stroke-width="1px">50</text><text x="0" y="64.36363636363636" dx="0em" dy="0.3em" style="text-anchor: end; visibility: inherit; font-family: &quot;Helvetica Neue&quot;, sans-serif; font-size: 12px; font-weight: 200;" fill="rgb(50, 49, 63)" stroke="none" stroke-width="1px">60</text><text x="0" y="48.27272727272728" dx="0em" dy="0.3em" style="text-anchor: end; visibility: hidden; font-family: &quot;Helvetica Neue&quot;, sans-serif; font-size: 12px; font-weight: 200;" fill="rgb(50, 49, 63)" stroke="none" stroke-width="1px">70</text><text x="0" y="32.18181818181819" dx="0em" dy="0.3em" style="text-anchor: end; visibility: inherit; font-family: &quot;Helvetica Neue&quot;, sans-serif; font-size: 12px; font-weight: 200;" fill="rgb(50, 49, 63)" stroke="none" stroke-width="1px">80</text><text x="0" y="16.090909090909093" dx="0em" dy="0.3em" style="text-anchor: end; visibility: hidden; font-family: &quot;Helvetica Neue&quot;, sans-serif; font-size: 12px; font-weight: 200;" fill="rgb(50, 49, 63)" stroke="none" stroke-width="1px">90</text><text x="0" y="0" dx="0em" dy="0.3em" style="text-anchor: end; visibility: hidden; font-family: &quot;Helvetica Neue&quot;, sans-serif; font-size: 12px; font-weight: 200;" fill="rgb(50, 49, 63)" stroke="none" stroke-width="1px">100</text></g><line x1="39.15625" y1="0" x2="39.15625" y2="177" fill="rgb(0, 0, 0)" stroke="rgb(204, 204, 204)" stroke-width="1px"></line></g></g><g transform="translate(39, 0)" clip-path="url(#clip_0)"><clipPath id="clip_0"><rect width="290" height="177"></rect></clipPath><g><g><g><line x1="0" y1="0" x2="0" y2="177" fill="rgb(0, 0, 0)" stroke="rgb(60, 60, 60)" stroke-width="1px" opacity="0.25"></line><line x1="32.31597222222222" y1="0" x2="32.31597222222222" y2="177" fill="rgb(0, 0, 0)" stroke="rgb(60, 60, 60)" stroke-width="1px" opacity="0.25"></line><line x1="64.63194444444444" y1="0" x2="64.63194444444444" y2="177" fill="rgb(0, 0, 0)" stroke="rgb(60, 60, 60)" stroke-width="1px" opacity="0.25"></line><line x1="96.94791666666666" y1="0" x2="96.94791666666666" y2="177" fill="rgb(0, 0, 0)" stroke="rgb(60, 60, 60)" stroke-width="1px" opacity="0.25"></line><line x1="129.26388888888889" y1="0" x2="129.26388888888889" y2="177" fill="rgb(0, 0, 0)" stroke="rgb(60, 60, 60)" stroke-width="1px" opacity="0.25"></line><line x1="161.57986111111111" y1="0" x2="161.57986111111111" y2="177" fill="rgb(0, 0, 0)" stroke="rgb(60, 60, 60)" stroke-width="1px" opacity="0.25"></line><line x1="193.89583333333331" y1="0" x2="193.89583333333331" y2="177" fill="rgb(0, 0, 0)" stroke="rgb(60, 60, 60)" stroke-width="1px" opacity="0.25"></line><line x1="226.21180555555557" y1="0" x2="226.21180555555557" y2="177" fill="rgb(0, 0, 0)" stroke="rgb(60, 60, 60)" stroke-width="1px" opacity="0.25"></line><line x1="258.52777777777777" y1="0" x2="258.52777777777777" y2="177" fill="rgb(0, 0, 0)" stroke="rgb(60, 60, 60)" stroke-width="1px" opacity="0.25"></line><line x1="290.84375" y1="0" x2="290.84375" y2="177" fill="rgb(0, 0, 0)" stroke="rgb(60, 60, 60)" stroke-width="1px" opacity="0.25"></line></g><g><line x1="0" y1="177" x2="290.84375" y2="177" fill="rgb(0, 0, 0)" stroke="rgb(60, 60, 60)" stroke-width="1px" opacity="0.25"></line><line x1="0" y1="160.9090909090909" x2="290.84375" y2="160.9090909090909" fill="rgb(0, 0, 0)" stroke="rgb(60, 60, 60)" stroke-width="1px" opacity="0.25"></line><line x1="0" y1="144.8181818181818" x2="290.84375" y2="144.8181818181818" fill="rgb(0, 0, 0)" stroke="rgb(60, 60, 60)" stroke-width="1px" opacity="0.25"></line><line x1="0" y1="128.72727272727275" x2="290.84375" y2="128.72727272727275" fill="rgb(0, 0, 0)" stroke="rgb(60, 60, 60)" stroke-width="1px" opacity="0.25"></line><line x1="0" y1="112.63636363636364" x2="290.84375" y2="112.63636363636364" fill="rgb(0, 0, 0)" stroke="rgb(60, 60, 60)" stroke-width="1px" opacity="0.25"></line><line x1="0" y1="96.54545454545455" x2="290.84375" y2="96.54545454545455" fill="rgb(0, 0, 0)" stroke="rgb(60, 60, 60)" stroke-width="1px" opacity="0.25"></line><line x1="0" y1="80.45454545454547" x2="290.84375" y2="80.45454545454547" fill="rgb(0, 0, 0)" stroke="rgb(60, 60, 60)" stroke-width="1px" opacity="0.25"></line><line x1="0" y1="64.36363636363636" x2="290.84375" y2="64.36363636363636" fill="rgb(0, 0, 0)" stroke="rgb(60, 60, 60)" stroke-width="1px" opacity="0.25"></line><line x1="0" y1="48.27272727272728" x2="290.84375" y2="48.27272727272728" fill="rgb(0, 0, 0)" stroke="rgb(60, 60, 60)" stroke-width="1px" opacity="0.25"></line><line x1="0" y1="32.18181818181819" x2="290.84375" y2="32.18181818181819" fill="rgb(0, 0, 0)" stroke="rgb(60, 60, 60)" stroke-width="1px" opacity="0.25"></line><line x1="0" y1="16.090909090909093" x2="290.84375" y2="16.090909090909093" fill="rgb(0, 0, 0)" stroke="rgb(60, 60, 60)" stroke-width="1px" opacity="0.25"></line><line x1="0" y1="0" x2="290.84375" y2="0" fill="rgb(0, 0, 0)" stroke="rgb(60, 60, 60)" stroke-width="1px" opacity="0.25"></line></g></g></g><g><g><line x1="0" y1="160.9090909090909" x2="290.84375" y2="160.9090909090909" fill="rgb(0, 0, 0)" stroke="rgb(153, 153, 153)" stroke-width="1.5px"></line></g></g><g><g><line x1="32.31597222222222" y1="0" x2="32.31597222222222" y2="177" fill="rgb(0, 0, 0)" stroke="rgb(153, 153, 153)" stroke-width="1.5px"></line></g></g><g><g><g><g><g><path stroke="rgb(255, 112, 67)" stroke-width="2px" d="M32.3854515625,156.0818181818182L32.587426388888886,152.69425837320574L32.687605902777776,151.56923851056692L33.0834765625,152.413521372492L33.183656076388885,152.916367676669L33.253135416666666,153.93535171373586L33.264446006944446,154.65521659036267L33.342004340277775,155.18823111627722L33.36300972222222,155.5967785668027L33.47126822916667,154.93009817733056L33.623153298611115,155.56693427502736L33.956007812500005,156.08717109005255L34.47144756944444,156.30220315624254L34.55546909722222,156.06498845242632L34.5667796875,155.86447927238166L34.63787482638889,155.4961411914846L35.04990347222222,155.95266185246425L35.1193828125,155.39988073199672L35.12423020833333,154.92060402842563L35.35044201388889,155.05279702619384L35.41507395833333,155.52969951142248L35.607353993055554,155.94791411780344L36.04523541666667,155.78604946969654L36.177730902777775,155.993046878874L36.332847569444446,156.34931888673827L36.33446336805555,156.66476845285013L36.65600729166667,155.74865628985822L37.22638420138889,155.10463121559528L37.53661753472222,154.7005918661436L37.5624703125,154.3407323638659L37.657802430555556,154.6890386321007L38.163547395833334,154.83326900194578L38.16677899305556,154.96210537010845L38.247568923611105,154.91176752190546L38.491554513888886,154.5366556825118L38.70968732638889,155.02396849193465L39.292990625,155.46042096078168L39.42710190972222,155.6876156228122L39.57575538194445,155.56409823666382L39.60322395833333,155.45332379623326L39.87306232638888,155.0277851082842L40.054031770833326,154.32017104092733L40.349722916666664,154.33559283803737L40.61309809027778,154.83689505140572L40.95403159722222,153.82620243979062L40.97665277777778,152.9182684039615L41.564803472222216,153.56098534772184L41.79263107638889,153.81468282839822L41.86211041666667,153.23352294542102L41.99622170138888,153.0345999921487L42.33553940972222,153.3407418186555L42.36623958333333,153.6159985300558L43.14182291666667,154.02502634541588L43.1612125,154.3928584043147L43.392271701388886,153.91666885328124L43.57324114583333,153.97242741387802L43.878627083333335,153.53866087746957L44.24541336805556,153.95480893628016L44.37144565972223,154.1679354057905L44.37629305555556,154.35966822925187L44.917585590277774,153.88748319163366L44.97413854166667,154.26838020700768L45.35061961805555,154.61108204182977L45.53482065972223,154.43613120374314L45.60106840277778,154.27871468244672L46.04864461805556,154.29813448748473L46.064802604166665,154.31560878524576L46.21507187500001,153.84823181994088L46.66264809027778,154.07174606643613L46.75474861111111,154.43388928012496L47.27988315972222,154.59877515287965L47.61596927083334,154.26418236757607L47.75492795138889,154.28504638827317L47.775933333333334,154.62577273056255L47.98760295138889,154.61046252017746L49.12027777777778,154.75764709728037L49.249541666666666,154.40723191684566L49.319021006944446,154.252830716185L49.45636388888889,153.7919812281545L49.73589704861111,153.86007070842697L49.93302447916666,153.7604076775001L49.937871875,153.67071467365L50.036435590277776,154.0727981543719L50.12368871527778,154.43466111786802L50.25618420138889,154.7603279284729L50.95097760416667,154.57063674764677L51.00591475694445,154.88269659087737L51.19819479166667,154.68077157789156L51.317763888888884,154.82088809795636L51.65708159722222,155.107912061976L51.66516059027778,155.36622947501127L51.97216232638888,155.43779276140808L52.17575295138889,155.66311690734858L53.124226736111105,155.70498912756733L53.37790711805556,155.42084106963702L53.421533680555555,155.32602585146896L54.28760173611111,154.9188629766387L54.324765104166666,155.03516231082702L54.63176684027778,155.46165866678857L55.295860069444444,155.04093617058624L55.41381336805555,153.21407160912983L55.48490850694445,152.69628967191304L55.661030555555556,152.23028804504753L55.96964809027777,152.13271208554752L56.01812204861111,151.6426150083742L56.19747569444444,150.79925069367005L56.34936076388889,150.44250291027728L57.318839930555555,149.23642064731442L57.37377708333334,148.79459221779655L57.78903732638889,148.8796792385862L58.3577984375,148.31261567902104L58.68903715277777,148.44590056553076L59.55510520833334,148.40494659611122L59.89280711805555,148.0462679388447L59.942896875,147.24072764874745L60.29837256944444,147.15938175622517L60.333920138888885,146.9252607253366L60.66354305555556,146.7145519945837L60.68616423611111,146.0421852917301L62.13068819444444,145.43705571753574L63.20519427083333,144.57062035491526L63.29083159722222,145.0781051013916L63.87575069444444,145.53484112100944L64.05187274305555,145.6240844707164L64.07449392361112,145.06076585857863L64.19891041666666,143.1055950082561L64.62548125,143.92049131152362L64.71919756944445,144.0102604869762L64.73373975694444,144.09105272117398L64.85654045138888,144.00285644065946L65.02781510416666,143.60166129912466L65.04074149305556,143.24058574898976L65.15546319444445,142.75470859344955L65.34451163194444,141.51287318033764L65.50447569444444,138.1424927123376L65.56749184027778,137.20097015043737L65.89226736111111,136.5145091293383L65.89711475694445,135.89669428059062L66.01506805555556,134.69702432920764L66.37862274305556,134.74368555096976L66.48203385416667,135.5902263858993L66.62422413194444,137.63938621713785L66.76479861111112,137.71362943485474L67.09442152777778,138.90681225326128L67.61955607638889,137.88885806467323L68.261028125,138.58179058460047L68.39837100694444,139.5272480673146L68.44361336805555,140.37815976802514L69.70393628472222,140.82216204057428L69.72009427083333,141.22176407303715L69.79118940972222,139.81140567379217L69.8332001736111,136.61117384247362L69.94307447916667,135.17914722440966L70.064259375,135.17759613819302L70.17090208333333,134.69347284887692L70.35348732638889,134.9013983063885L70.56354114583334,135.410349418164L70.58131493055555,135.38567811125742L70.61363090277777,134.23711023921788L70.9965751736111,133.6861264617243L71.33427708333333,132.86842287133408L71.55240989583334,131.97158054952675L71.55564149305556,131.16442246648822L71.61704184027778,131.24252567683075L72.100165625,131.31281856567432L72.25851388888888,131.0542639752756L72.27144027777778,130.82156484516287L72.55258923611112,132.0603174770079L72.60591059027777,133.09474029389025L73.12135034722222,133.30162990430807L73.2489984375,134.2923760196263L73.34433055555556,134.3795020552018L74.02458177083334,131.4006427226312L74.08113472222222,131.2942148128423L74.20070381944444,132.48570243417643L74.81793888888889,132.10985946016186L75.61614340277778,129.19705530914098L75.61775920138888,126.57553157762763L76.19298350694444,127.11252387787272L76.2010625,127.59581694743545L76.76012881944445,128.8353261682564L76.91847708333334,129.46815719076892L76.97503003472222,130.03770511046508L77.277184375,130.3893891462121L77.4242220486111,131.99317750981373L78.26766892361111,130.3793142993098L78.43732777777777,128.12229195402344L79.12727378472222,128.02188094018845L79.1692845486111,129.2187837579514L79.27592725694444,129.0087235635494L79.5005232638889,128.49785120626416L79.60070277777777,129.00352063192102L79.93678888888888,128.17135038568327L79.96264166666666,127.42239716430248L80.16300069444443,126.10470290084334L80.51524479166666,123.30968715320806L80.79962534722222,124.33417298433326L80.84163611111111,122.19893750222198L81.0726953125,123.17358920730925L81.3199125,120.993503012313L81.55097170138889,120.47960725620993L81.78041510416666,120.98255562178545L81.93230017361111,122.23975460570804L81.95492135416667,124.01487005504983L83.06335920138888,124.96883759539679L83.12314375,123.25286292612282L83.5319407986111,123.47848572449577L83.82924774305556,123.84245533397491L83.91973246527778,124.49184616439128L84.02960677083333,125.23720700268096L84.35761388888889,125.42530448427269L84.72601597222223,125.43368312675616L84.89890642361111,125.03895117764614L85.08472326388889,125.89051060547351L85.25438211805555,126.01327772676218L85.46766753472222,126.92831359056922L85.48059392361111,127.75184586797283L85.69387934027777,128.1712067357654L85.93140173611111,126.93954060752603L86.07682361111112,125.18740472844132L86.24486666666667,124.25411880097968L86.29010902777777,124.21870692087924L86.82978576388889,123.22138168327443L86.84917534722221,122.32378896944194L86.87987552083334,121.51595552700229L86.90734409722224,120.78890542881436L86.99459722222223,120.13456034045154L87.05438177083333,121.47655885191048L87.11416631944445,121.87981205764191L87.31290954861112,119.02455812451961L87.48256840277777,117.25937503929288L87.83965989583334,116.95798298990174L87.87359166666666,117.81309378183929L88.10303506944445,118.42178440366732L88.22260416666667,118.96960596331024L88.51991111111111,119.78446354881035L89.40860034722223,118.82828992118837L89.44253211805555,117.96773365633119L89.47969548611111,117.1932330179618L89.65097013888888,114.9675460797788L89.79639201388889,114.57351874452449L90.11632013888888,112.60980323369184L90.24235243055556,111.1642774557662L90.41039548611111,113.08148607383906L90.4378640625,112.87606473918117L90.54612256944445,114.13936735617915L90.88382447916666,112.86270334782759L90.9306826388889,111.71370574031239L91.50267534722222,113.25415334810558L91.55114930555555,112.30737437692792L91.72565555555555,112.42072784832642L91.85976684027777,112.76410960894933L91.95186736111111,111.30315319350508L92.42852795138889,110.31011060142492L92.89226215277777,111.99091772310422L93.33660677083334,110.28546231442687L93.51757621527777,112.93418881026152L94.0281685763889,112.26076992923431L94.42727083333332,112.62014748176594L94.45312361111111,112.9435872790443L94.88131024305555,112.75195582386692L95.07520607638888,113.06221478693509L95.30303368055556,115.27235694460725L95.81201024305555,116.29603034105646L96.46802447916667,115.12551821604086L96.59567256944445,115.35933003080055L96.75240503472223,113.7997606640832L96.80249479166666,112.39614823403775L96.9818484375,111.77653341063368L97.42780885416667,111.54069825138838L97.75743177083334,110.68481024443102L98.02080694444444,109.59269285635116L98.02727013888888,108.77069629798851L98.08059149305556,108.03089939546217L98.11290746527779,108.33053672864332L98.2308607638889,110.85293760123412L98.62996302083333,110.38764384111062L98.9595859375,110.9343340024542L99.00321249999999,111.90908242039076L99.11631840277776,112.94726508744276L99.43624652777778,114.04253857869863L99.46209930555555,115.02828472082888L100.3976467013889,116.88091079420076L100.90823906249999,114.68645607841682L100.93732343750001,113.99871956148417L101.27664114583334,111.44884760533553L102.63391197916667,111.40669011752927L102.77771805555555,109.59874837850349L102.82942361111111,107.9716008133803L102.94576111111112,106.82898618658768L102.98938767361112,105.80063302247433L102.99585086805556,104.8751151747723L103.09764618055556,104.04214911184049L103.40141631944445,106.1888432915656L103.53068020833332,105.38541350786357L103.73588663194444,104.66232670253174L103.74719722222221,104.01154857773308L103.81829236111112,102.62130281086884L103.90392968750001,103.62280889341832L104.73121857638888,102.27143709498557L104.97035677083333,103.62974793094158L105.52942309027777,105.01313677421109L105.54396527777777,106.25818673315362L105.62960260416668,108.82691351438375L105.84773541666667,106.79422216294535L106.09172100694444,105.28661812846897L107.15814809027778,104.73431995198573L107.18400086805556,105.8463425022417L107.31164895833334,104.51398097929024L107.4506076388889,106.45258288136124L108.746478125,106.42732459322511L109.20536493055556,105.76095577026622L109.29100225694445,106.93122382960324L109.3410920138889,107.98446508300657L109.39926076388889,107.16238221106954L109.46227690972222,106.42250762632624L109.68525711805556,105.75662050005724L109.79028402777777,105.47914026823334L109.82744739583333,106.99940805959181L109.99872204861111,106.27583088999627L110.16838090277778,105.94642961917845L110.24270763888889,105.64996847544242L110.71936822916666,104.73951708244364L111.23965538194444,105.85101991965384L111.93121718750001,105.40319065496118L112.05886527777778,104.83923522582869L112.26245590277777,103.84894806688217L113.11721336805554,103.11859871473942L113.19800329861111,102.62219338872002L113.34827256944445,101.31724698172725L113.37412534722222,100.14279521543374L113.42259930555555,99.08578862576957L113.54055260416668,97.06175521773808L114.12385590277778,96.68830696869153L114.43085763888888,97.96129445364056L114.68938541666667,97.65880137191286L114.93983420138889,96.58201214381246L115.09010347222222,96.41744729306758L115.17897239583334,96.26933892739717L116.01272447916666,95.81422321647565L116.02565086805555,95.40461907664627L116.2647890625,95.357793532618L116.34073159722222,94.18928690662894L116.81092899305554,91.36763094323877L116.90949270833335,91.08086784891489L117.16317309027778,91.30550833675069L117.44109045138889,89.57677568489379L117.80302934027777,87.8600072073135L117.85635069444444,86.31491557749122L118.10356788194444,84.44160583792392L118.1278048611111,84.68653616322243L118.71110815972222,82.65424618326382L119.09566822916666,82.59518520130108L119.10697881944445,82.54203031753461L119.11344201388889,82.4941909221448L119.11990520833334,82.45113546629396L119.3477328125,81.28602191966456L119.41882795138888,80.2374197276981L119.68705052083332,81.22458684583736L119.74521927083333,82.11303725216273L119.76945625,84.36082443603738L119.96012048611112,86.70565108334273L120.68722986111112,87.04599506591755L120.87466250000001,86.38685010478034L121.08471631944444,87.08089236702956L121.15742725694444,87.70553040305387L121.49836076388888,88.75043190820304L121.66963541666667,88.08175235374637L122.06389027777777,89.08903166382628L122.07681666666667,89.9955830428982L122.33857604166667,91.2942065567902L122.42421336805556,92.46296771929298L123.346834375,90.61848912918187L123.62152013888888,89.7630038526273L123.64414131944444,89.63670346736458L123.78471579861112,89.84485130244632L124.07394375,90.67582071765624L124.12726510416667,90.61914773679969L124.41649305555555,88.9590511449379L124.9012326388889,88.75223693953502L124.91092743055556,88.56610415467243L125.20015538194444,88.237675557387L125.6461157986111,86.3329989107392L126.51056805555557,84.86015356511983L126.74485885416668,85.54595639042603L126.93229149305556,86.32408802411071L127.069634375,87.02440649442691L127.19566666666667,87.65469311771149L127.23929322916666,88.22195107866762L127.26676180555556,88.73248324352814L128.07627690972222,87.58287128281168L128.15221944444446,88.96185688180323L128.3477310763889,89.55930755725926L128.6838171875,86.07428589244243L128.73229114583333,87.12140275774364L129.55473263888888,86.9374443001511L129.56442743055555,86.77188168831779L129.599975,84.53105715584965L129.745396875,84.76704234935559L130.03300902777778,86.26670175078365L131.2125420138889,85.20275884843257L131.32726371527778,81.83157387268024L131.58902309027778,81.53296193995766L131.74413975694443,80.62057483687099L131.98004635416666,80.44306280772935L132.72169791666667,78.83512016332004L132.85096180555556,77.70978996516985L133.33085399305554,76.85790187774377L133.38094375,76.09120259906031L133.90930989583333,75.72299143006337L134.1516796875,74.42614683251158L134.46837621527777,73.41989578562406L134.6913564236111,78.46790620706166L134.8044623263889,77.5402064954464L134.806078125,76.70527675499268L134.94180520833334,77.08020362494796L135.19710138888888,75.48672871699863L135.51056631944445,74.85714675438969L135.70930954861112,74.29052298804163L135.88704739583332,75.87237978014655L136.09225381944444,75.0433236203137L136.5543722222222,73.81444580373689L136.57053020833334,72.70845576881774L136.83875277777778,74.12670110102687L137.16514409722222,74.43766735456055L137.7403684027778,73.10844607364996L137.8163109375,71.91214692083041L138.07160711805557,72.28365950147463L138.121696875,72.61802082405445L138.31559270833336,71.47076419619445L138.38345625,69.9555059583932L138.49009895833333,70.20086445346298L138.81002708333332,69.13441437175307L139.03947048611113,67.69188202548683L139.4418043402778,67.03723927748361L140.2319298611111,66.28715171337161L140.49207343749998,64.80752745112535L140.5373157986111,63.47586561510376L140.6100267361111,62.27736996268429L141.28704635416668,64.57781478459768L142.6168486111111,64.71730603341062L142.6459329861111,65.96921179370592L142.8026654513889,67.0959269779717L142.88507118055554,65.85724337108361L143.14521475694445,64.90333721579344L143.6929704861111,64.68845803966862L143.78830260416666,64.01233950842904L144.08399375,62.27746919394977L144.10661493055557,61.681540456372986L144.54288055555557,61.788840956190214L144.5768123263889,61.88541140602574L144.9694513888889,60.363233901786785L145.09709947916667,59.476001420699035L145.28614791666666,60.76931036953822L146.16998975694443,63.220561150766216L146.36065399305556,63.978505035689594L146.4834546875,62.890654532120635L146.9019465277778,63.68158907890856L147.03282621527777,64.39343017101773L147.7308512152778,63.424996244825024L147.93444184027777,62.87522389306983L147.97645260416667,62.05861059467192L148.16388524305557,61.645476807932L148.41271822916667,61.59547458168426L148.5032029513889,64.12501803260673L148.58560868055554,66.40160713843697L148.62115625,68.45053733368418L148.67447760416667,70.29457450940669L148.71487256944445,69.21875342210237L149.13498020833333,70.98596898898305L149.13821180555556,72.57646299917562L149.3030232638889,70.62881669925808L149.30787065972223,68.87593502933227L149.55670364583332,69.8728869809445L149.82331041666666,72.86196191921368L150.06568020833333,71.20758390911051L150.28542881944443,67.94864370001764L150.56011458333336,68.71650660274315L150.78471059027777,69.89031048792339L151.54575173611113,68.05037034822196L151.55383072916666,67.03806058612702L151.6297732638889,66.1269818002416L151.72672118055556,65.3070108929447L151.7638845486111,64.56903707637753L152.18883958333333,64.22667882328521L152.20015017361112,63.918556395502165L153.34251979166666,63.31942802867921L153.7787854166667,62.61930340762949L154.2602934027778,59.414645794139275L154.2893777777778,59.26590848745262L154.41864166666667,59.13204491143465L155.00194496527777,63.517022238472975L155.27824652777778,62.63622910553478L155.4705265625,61.84351528589036L155.81469166666665,60.96916375730132L155.89709739583336,61.95224738157118L156.12977239583336,63.15884082523226L156.20571493055556,62.7965931063454L156.39476336805555,61.5051156138927L156.58219600694446,60.986422234321594L156.59350659722222,60.51959819270762L157.05400920138888,62.6740020098005L157.59045434027777,64.45205635427502L158.0299515625,65.73048708248386L158.18991562500003,66.88107473787183L158.5680125,66.6293309004483L158.6859657986111,65.27639781040348L158.77806631944443,64.05875802936313L159.6021236111111,63.123791317335915L159.71199791666666,62.28232127651141L159.8364144097222,61.52499823976936L159.85903559027778,60.84340750670151L159.92205173611111,63.28724857421318L159.9737572916667,63.07306917133734L160.46496006944446,64.16758043602175L160.64108211805555,65.15264057423776L160.93031006944446,65.87828560772309L161.54108194444444,64.60045704695078L161.63156666666666,63.450411342255705L161.6380298611111,62.415370208030154L161.74305677083333,65.3456513690453L161.84808368055553,67.98290441395896L162.21163836805556,67.78188669983578L162.23749114583333,67.60097075712495L162.47016614583333,69.52996459050335L162.51217690972223,67.40424085872576L162.5719614583333,64.36472586376226L163.19081232638888,63.077344186476935L163.22151250000002,62.240518858738355L163.38632395833332,62.131012427409985L163.81289479166668,61.71063845739624L163.99548003472222,62.458665520747545L164.0520329861111,61.52279896867279L164.73551579861112,59.71506452635096L166.00230190972223,60.179921710079526L166.05723906249997,60.4373840845261L166.18488715277778,60.508191130618954L166.5500576388889,60.893735653920686L166.63407916666665,59.63163481580135L166.8602909722222,63.323016788766665L167.25293003472223,62.46162420079909L167.6601112847222,62.00818905344644L167.9202548611111,62.08282469355635L168.311278125,61.667269496927986L168.36298368055557,60.1669061835988L168.7055329861111,59.78203374705711L169.01576631944445,57.34383037235139L169.15310920138887,55.47126551693444L169.36639461805555,55.71686623796826L169.69278593750002,55.77699779598963L169.74449149305553,55.831116198208846L169.80427604166667,55.87982276020614L169.93353993055555,55.44093139327644L170.1775255208333,55.04592916303969L170.48129565972224,55.01224533764481L170.53138541666667,54.98192989478943L170.58470677083335,54.95464599621958L170.76890781249998,54.93009048750672L170.870703125,54.42526325693785L171.2520315972222,55.4191005676077L171.29888975694445,56.31355414721058L172.53659149305557,55.348562368853166L172.557596875,53.83643340469513L172.673934375,54.084608246043786L172.90499357638888,53.66432923962124L173.52707604166667,54.41244177020455L173.6191765625,52.350288502275006L173.79045121527776,53.06889601568385L173.89547812499998,51.62382459593364L173.9681890625,51.6105330454312L174.23156423611113,52.24220701361537L174.72923020833335,52.649804494072015L175.5969140625,51.89027859011935L175.82474166666668,50.884887094743775L176.5470036458333,51.42821656708759L176.68434652777776,51.112667637651555L176.71019930555556,50.66776451025004L177.327434375,51.55462442286138L177.35490295138888,52.35279834421161L177.56495677083333,55.16297305524499L177.69583645833333,57.69213029517503L177.79601597222222,56.106553629293884L178.1224072916667,54.357716448182686L178.46657239583334,54.231944803364414L179.47483072916665,53.95784123211887L179.5071467013889,53.7111480179979L179.84000121527777,53.8109423071072L180.1211501736111,53.90075716730557L180.3635199652778,56.87795417784774L180.39583593749998,59.557431487335705L180.40068333333332,61.968961065874865L180.53802621527777,61.72570132292374L180.5428736111111,61.506767554267725L181.1229453125,63.723363526113715L181.16495607638888,62.50011808259323L182.14897743055556,62.52556081978847L182.2443095486111,62.548459283264165L182.79044947916665,62.086340627664995L182.94718194444445,60.544070201262144L183.34789999999998,59.960572272045L184.04269340277776,61.849060499385956L184.8166609375,61.9396089949019L185.06872552083334,60.73382991359355L185.4694435763889,59.97044692223419L185.6423340277778,59.28340223001078L185.9105565972222,57.216880188827886L186.11576302083333,53.265192169945095L186.33712743055557,52.765945680223325L186.42761215277778,51.19026020311007L186.47931770833333,49.77214327370817L186.59403940972223,50.42674712815554L187.20804288194444,49.72861786988544L187.35184895833333,49.743937901078695L187.38901232638887,49.757725929152656L187.92061006944445,49.44831697260105L188.29870694444446,49.33075800261366L188.4037338541667,47.937682202352306L189.07913767361111,47.32755034575342L189.30211788194444,47.42206803845082L189.4152237847222,46.380770325514845L189.5283296875,48.179056929326975L189.72222552083332,46.41842396366701L189.79332065972224,44.83385429457303L190.01306927083334,45.338650683297544L190.24897586805554,46.43660379678596L190.33622899305558,47.42476159892553L190.46549288194444,47.34864907539662L190.64323072916665,49.21105689512967L190.89044791666666,49.27813302379853L191.0084012152778,49.338501539600486L191.3186345486111,49.39283320382228L191.4317404513889,51.21173170162187L191.51091458333332,54.45783125873241L192.37051944444445,55.12659358740463L193.09924461805556,54.28029786502782L193.27051927083332,53.67954080579776L193.27375086805557,53.13885945249072L193.71001649305555,50.8822462345144L194.3563359375,49.65583979288115L194.81199114583333,50.643892177229404L194.8491545138889,51.53313932314282L195.1109138888889,51.36800720901036L195.28380434027778,52.506661033563844L195.37913645833333,50.313267657480196L195.39367864583332,48.33921361900491L195.50840034722222,52.19438316619534L195.62958524305557,51.64130848593945L195.76369652777777,52.26990491007278L195.89134461805554,50.904732600883676L196.05454027777776,50.15880479534077L196.08685625,49.48746977035215L196.20965694444445,49.365995520589664L196.30175746527777,50.06121415034889L196.31953125,50.68691091713217L197.0046298611111,53.02003800723712L197.03694583333333,55.11985238833158L197.6250965277778,54.27423078586206L197.9514878472222,52.547716798184965L198.00319340277778,51.47658148200283L198.09044652777777,50.02983242471166L198.23586840277778,51.30230372769503L198.55094913194444,51.64298244583463L198.6010388888889,51.949593292160245L198.6899078125,52.225543053853315L198.74646076388888,52.47389783937706L198.76261875,52.69741714634847L199.07769947916665,52.41585724989544L199.4913439236111,51.51881697945133L199.5802128472222,50.71148073605167L200.27500625,49.18033266244649L200.80660399305555,50.69866303256548L200.90032031249999,50.29516036567257L201.49816579861113,51.058371601832576L201.66620885416668,51.74526171437658L201.6888300347222,52.36346281566621L201.71953020833334,52.91984380682686L201.7857779513889,52.45513215341691L201.80839913194444,49.94507348352974L201.8326361111111,47.686020680631316L201.85364149305556,45.65287315802274L201.9166576388889,46.39758584222045L202.12671145833332,46.58509998527114L202.40462881944444,45.466589986744026L202.67769878472222,46.069021897160496L202.96207934027777,50.31211970744447L203.1107328125,49.142725918518195L203.2270703125,48.09027150848456L203.24969149305556,47.14306253945429L203.93155850694444,47.41693810369068L204.0236590277778,47.66342611150344L204.22240225694443,45.63253804580762L204.5067828125,48.95382969577233L204.6683626736111,47.43753763528602L204.83478993055556,48.32560205357561L205.37446666666665,48.803041848218044L206.44250954861113,48.91091948157805L206.50714149305557,49.00800935160204L206.56046284722223,49.095390234623665L206.85776979166667,49.17403302934312L207.54933159722222,52.78481154459064L207.77069600694443,52.81633039013157L208.83065989583332,52.84469735111843L208.83227569444443,52.870227616006574L208.9259920138889,52.89320485440592L209.2491517361111,52.59206618714717L209.37679982638886,51.355586841159734L209.76782309027777,52.17366452068012L210.15723055555554,50.979025341339394L210.36405277777777,47.812031898114526L210.41737413194443,49.14537416284854L210.7308390625,48.89720038292731L210.82778697916666,46.421116708270944L211.00229322916667,46.606277764716566L211.06046197916666,46.77292271551764L211.0911621527778,46.92290317123863L211.24627881944443,46.57515830866021L211.9846987847222,46.423097023248744L212.05094652777777,46.447150957287505L212.19313680555555,46.62970858883148L212.55184409722222,46.63310136631196L212.79906128472223,47.92342759331714L213.1044472222222,45.383812106712696L213.14968958333333,43.09815816876869L214.0464578125,43.61561507916454L214.35992274305553,43.59859902579356L214.4229388888889,43.583284577759656L214.7444828125,44.695865210892805L215.42311822916668,46.34082414434897L215.65094583333334,46.69492354809586L215.8545364583333,44.760885738740825L216.10013784722221,46.39934261941218L216.4863137152778,46.908499266561876L216.99044288194446,46.88401297626933L217.26028125,46.218338951369674L217.27320763888886,45.61923232895995L217.84358454861112,46.52821818697308L218.28954496527777,47.34630545918486L218.37518229166668,47.5998567314482L218.95202239583335,46.70168924012157L218.97141197916667,45.89333849792757L219.37051423611112,45.97036828449845L219.3818248263889,46.03969509241227L219.55309947916666,47.711180128625585L219.81324305555555,47.76733484303577L219.95866493055556,48.62241954055037L220.48218368055555,47.621995768313525L220.75848524305556,47.20434164602764L220.837659375,47.472089299606694L220.89905972222223,47.71306218782783L220.953996875,48.89539233268138L221.01539722222222,49.95948946304962L221.07841336805555,48.503540516744664L221.26584600694443,49.60682282870657L221.39187829861112,48.82977690947229L221.41449947916666,48.130435582161425L221.44196805555558,48.94921020576348L221.61647430555556,49.04247100336893L221.70372743055557,47.03458753939569L222.3920576388889,46.514765149092455L222.69905937500002,46.52965227054685L222.8864920138889,46.54305067985578L223.2419677083333,47.68147288459747L223.28882586805557,47.25787105068318L224.03370902777777,48.00299303652395L224.44896927083335,46.58178464196246L224.49582743055555,46.91178799594803L224.59439114583333,47.20879101453505L225.0855939236111,46.99336645853609L225.35704809027777,45.67312072177336L226.17948958333332,45.933081376868756L226.2037265625,46.16704596645462L226.68361875,45.09034136980915L227.59331336805556,45.56948905101004L227.69026128472223,46.805267418636305L228.13945329861113,46.14746794949994L228.1410690972222,45.55544842727721L228.32042274305556,46.1489944936404L228.36566510416668,46.68318595336726L228.4141390625,48.29032190348508L228.48038680555555,49.73674425859113L228.66781944444446,48.785797105459295L229.17841180555556,49.86085375854971L229.24627534722222,50.02385929178567L229.30444409722222,48.883291544425276L229.77625729166667,48.339507844528214L229.82634704861113,47.85010251462083L230.29977604166666,51.754183172249654L230.4500453125,49.87740121866105L230.46943489583333,48.1882974604313L230.63909375,49.16219498711547L231.17069149305556,47.46415730658575L232.04483854166665,47.06228703047262L232.08361770833335,46.70060378197081L232.1369390625,46.053270676501L232.84304305555557,46.11430724521455L232.94968576388888,46.330149247965835L232.994928125,47.3289525049874L233.53622065972223,45.97514816357955L233.8254486111111,44.434906074494336L233.90462274305554,45.62323364886308L233.90947013888888,46.69272846579494L233.92724392361112,47.655273801033644L233.9983390625,48.52156460274847L234.36189374999998,48.818499051564544L234.76099600694442,50.21210369186262L236.62562760416665,48.89180241358545L237.01826666666665,48.50807671768143L237.4189847222222,44.94454177318602L237.5046220486111,46.24281486859468L237.68074409722223,46.60671519991703L237.8956453125,45.4860436799253L238.19295225694444,45.764712039205506L238.39977447916667,46.33733174437586L238.48541180555557,45.726325842665545L238.5532753472222,46.14187507658082L238.72939739583333,46.35496029619546L238.74070798611112,46.54673699384867L238.79241354166666,47.68479056719107L238.84411909722223,48.70903878319925L238.9426828125,48.02177126851569L238.9717671875,47.403230505300485L239.3207796875,47.329271091134075L239.63101302083334,48.54998034565705L239.7990560763889,48.361345947454964L239.89923559027778,48.19157498907313L240.1803845486111,46.590599308347606L240.51647065972224,45.149721195694696L240.9915154513889,45.30111271248887L241.05614739583334,41.33418325942182L241.2694328125,41.86712856984329L241.41162309027777,40.73768844013168L241.4310126736111,39.72119232339125L241.44393906250002,38.80634581832484L241.48918142361111,37.98298396376509L241.56673975694446,38.85104920375221L241.6362190972222,39.63230791974064L241.84142552083333,40.65725894594843L242.08702690972223,41.096987596808134L242.25022256944445,40.36637974621823L242.48612916666667,41.961559953414564L242.6380142361111,43.5581312308004L242.8819998263889,44.51231810772032L243.5073138888889,44.88835902422102L243.55578784722223,43.61770493998074L243.86763697916666,43.27866171870994L243.96458489583333,44.09988645592986L244.0049798611111,44.83898871942776L244.78056319444445,43.895089847484996L244.79833697916666,46.74648995364558L245.08594913194446,46.89911368555374L245.1231125,47.84102049881656L245.17320225694445,48.688736630753084L245.40264565972222,47.681681149495944L245.42526684027777,46.77533121636452L246.42059878472222,45.959616276546285L246.6952845486111,46.35183646707347L247.08307621527777,44.77392554763884L247.10892899305554,43.353805720147705L247.32706180555556,42.39751605722381L247.5516578125,41.53685536059234L247.73262725694445,40.279533460896715L248.02023940972222,41.883398296625245L248.0719449652778,43.32687664878088L248.18828246527778,41.40782534753916L248.60839010416666,41.4506791764216L248.8459125,41.81106580423398L249.4421421875,43.10086831471966L249.46314756944446,44.26169057415677L249.6004904513889,45.95006697128656L249.8767920138889,44.25142391052157L250.17409895833333,44.49264515583303L250.2112623263889,44.22701700388612L250.21934131944445,43.98795166713384L250.25165729166667,43.77279286405681L250.42293194444446,44.70551357765112L250.97876666666667,45.06223494715874L251.44411666666667,45.38328417971559L251.85937690972222,45.028592125380385L252.40390104166667,45.192096549205985L252.51862274305557,44.53470507610356L252.64465503472223,45.39123456849319L253.15363159722222,47.127565657098444L253.16171059027778,48.69026363684313L253.18594756944444,48.64851000043154L253.7191611111111,48.610931727661125L253.77086666666668,48.898929463985894L254.08917899305555,48.83630924486005L254.46081267361112,49.26267832037405L254.5949239583333,51.73822867015481L254.62562413194445,50.748042166775704L254.79205138888886,48.891419768279945L254.88415190972222,49.15136870054286L255.24285920138888,49.70714092139767L255.5498609375,49.72460864743971L256.0152109375,48.93578414633211L256.0604532986111,48.22584209533528L256.19941197916665,47.5868942494381L256.81503125,46.20729573358523L256.8505788194445,47.37929343295394L257.33047100694444,47.62954590784037L257.5647618055556,44.958409498874516L257.6390885416667,46.41620491262344L258.4889986111111,46.76276623954291L258.55363055555557,46.752853251952246L258.56655694444447,47.22665883584796L258.6021045138889,47.65308386135405L258.6182625,48.03686638430955L258.74106319444445,49.02590701860589L258.7960003472222,47.180589044018035L258.9365748263889,44.232530139616244L258.9866645833333,46.24564076201824L259.74124253472223,47.413803958543696L260.02723888888886,45.40787810814385L260.1274184027778,45.21163575187492L260.5038994791667,45.67865399486925L260.5135942708333,46.09897041356413L261.5234684027778,46.47725519038954L261.5816371527778,46.81771148953243L261.7383696180556,46.319576704215564L262.05021875,44.58398267015764L262.07768732638885,43.0219480395055L262.079303125,41.61611687191859L262.5624269097222,41.316323366544935L262.6205956597222,42.01196375716316L262.97445555555555,43.120767381446825L263.20228315972224,43.796872461483986L263.6773279513889,44.405367033517365L263.92939253472224,43.34392123925656L264.1604517361111,43.51498366078545L264.29941041666666,44.1516671128887L264.3155684027778,44.72468221978167L264.5433960069444,45.07948672507621L264.6161069444444,45.39881077984131L264.65650190972224,44.88165697458447L264.86009253472224,44.17485491348961L264.9731984375,46.19373305850428L265.2462684027778,47.36708702538115L265.35775850694444,47.45765105011577L265.45309062499996,47.53915867237694L265.64537065972223,47.45160644150289L265.8457296875,48.49917307007988L265.8796614583333,49.44198303579914L267.0608102430555,47.394148368582876L267.5972553819444,48.12564262263368L267.61502916666666,49.58853290582486L267.75721944444444,49.77877052433327L267.8202355902778,48.662711653718134L267.88648333333333,47.01462230652814L268.11431093749997,47.46225098496623L268.7283144097222,48.186934977378684L268.8688888888889,48.83915057054992L269.3487810763889,46.85159914985857L270.31826024305553,44.90189378032727L270.4152081597222,44.43443167502181L270.4313661458333,44.01371578024688L270.6333409722222,44.27870783858583L271.5575777777778,46.126291600181816L271.7611684027778,46.019116985618155L271.92113246527776,45.6008416506927L272.1408810763889,45.9484847583507L272.33800850694445,47.46818173706106L272.4317248263889,48.51409083608223L272.54321493055556,49.294499934292205L272.549678125,49.996868122681164L272.7128737847222,49.502635855867595L272.85183246527777,50.50600863391719L272.87606944444445,51.40904413416183L273.7857640625,50.12995790256383L273.96834930555553,48.33514393048927L274.17517152777776,47.68526590107672L274.19940850694445,47.1003756746054L274.3125144097222,46.57397447078125L274.5031786458333,45.29566793279403L274.585584375,44.145192048605566L274.69707447916664,45.040672843745L274.70353767361115,45.84660555937049L275.5550635416667,45.767399548887965L275.5857637152778,45.374295957635525L275.71502760416666,45.181411816417466L275.9121550347222,46.45599790750296L276.0818138888889,48.24676175311632L276.37104184027777,48.892994668713754L276.39366302083334,49.47460429275148L276.45183177083334,48.06714386347633L276.5180795138889,47.12224765894686L276.66996458333335,47.237295620324886L276.7491387152778,47.340838785565154L276.77499149305555,45.50311854337227L276.90587118055555,45.780079416307785L277.0399824652778,46.83388965649516L277.18055694444445,47.78231887266381L277.2096413194444,48.95772334903381L277.42777413194443,49.37195101413042L277.64752274305556,49.74475591271738L278.2728368055555,49.436643957809295L278.33262135416663,49.15934319839201L278.76403958333333,49.23159069673463L279.0968940972222,49.135704354333896L279.1566786458333,49.37122482799141L279.63657083333334,48.77864779973774" style="fill: none;" fill="none"></path></g></g></g></g><g opacity="0.2"><g><g><g><path stroke="rgb(255, 112, 67)" stroke-width="2px" d="M32.3854515625,156.0818181818182L32.587426388888886,149.64545454545456L32.687605902777776,149.64545454545456L33.0834765625,154.47272727272727L33.183656076388885,154.47272727272727L33.253135416666666,157.6909090909091L33.264446006944446,157.6909090909091L33.342004340277775,157.6909090909091L33.36300972222222,157.6909090909091L33.47126822916667,151.25454545454545L33.623153298611115,159.3L33.956007812500005,159.3L34.47144756944444,157.6909090909091L34.55546909722222,154.47272727272727L34.5667796875,154.47272727272727L34.63787482638889,152.86363636363637L35.04990347222222,159.3L35.1193828125,151.25454545454545L35.12423020833333,151.25454545454545L35.35044201388889,156.0818181818182L35.41507395833333,159.3L35.607353993055554,159.3L36.04523541666667,154.47272727272727L36.177730902777775,157.6909090909091L36.332847569444446,159.3L36.33446336805555,159.3L36.65600729166667,148.03636363636363L37.22638420138889,149.64545454545456L37.53661753472222,151.25454545454545L37.5624703125,151.25454545454545L37.657802430555556,157.6909090909091L38.163547395833334,156.0818181818182L38.16677899305556,156.0818181818182L38.247568923611105,154.47272727272727L38.491554513888886,151.25454545454545L38.70968732638889,159.3L39.292990625,159.3L39.42710190972222,157.6909090909091L39.57575538194445,154.47272727272727L39.60322395833333,154.47272727272727L39.87306232638888,151.25454545454545L40.054031770833326,148.03636363636363L40.349722916666664,154.47272727272727L40.61309809027778,159.3L40.95403159722222,144.8181818181818L40.97665277777778,144.8181818181818L41.564803472222216,159.3L41.79263107638889,156.0818181818182L41.86211041666667,148.03636363636363L41.99622170138888,151.25454545454545L42.33553940972222,156.0818181818182L42.36623958333333,156.0818181818182L43.14182291666667,157.6909090909091L43.1612125,157.6909090909091L43.392271701388886,149.64545454545456L43.57324114583333,154.47272727272727L43.878627083333335,149.64545454545456L44.24541336805556,157.6909090909091L44.37144565972223,156.0818181818182L44.37629305555556,156.0818181818182L44.917585590277774,149.64545454545456L44.97413854166667,157.6909090909091L45.35061961805555,157.6909090909091L45.53482065972223,152.86363636363637L45.60106840277778,152.86363636363637L46.04864461805556,154.47272727272727L46.064802604166665,154.47272727272727L46.21507187500001,149.64545454545456L46.66264809027778,156.0818181818182L46.75474861111111,157.6909090909091L47.27988315972222,156.0818181818182L47.61596927083334,151.25454545454545L47.75492795138889,154.47272727272727L47.775933333333334,157.6909090909091L47.98760295138889,154.47272727272727L49.12027777777778,156.0818181818182L49.249541666666666,151.25454545454545L49.319021006944446,152.86363636363637L49.45636388888889,149.64545454545456L49.73589704861111,154.47272727272727L49.93302447916666,152.86363636363637L49.937871875,152.86363636363637L50.036435590277776,157.6909090909091L50.12368871527778,157.6909090909091L50.25618420138889,157.6909090909091L50.95097760416667,152.86363636363637L51.00591475694445,157.6909090909091L51.19819479166667,152.86363636363637L51.317763888888884,156.0818181818182L51.65708159722222,157.6909090909091L51.66516059027778,157.6909090909091L51.97216232638888,156.0818181818182L52.17575295138889,157.6909090909091L53.124226736111105,156.0818181818182L53.37790711805556,152.86363636363637L53.421533680555555,154.47272727272727L54.28760173611111,151.25454545454545L54.324765104166666,156.0818181818182L54.63176684027778,159.3L55.295860069444444,151.25454545454545L55.41381336805555,136.77272727272728L55.48490850694445,148.03636363636363L55.661030555555556,148.03636363636363L55.96964809027777,151.25454545454545L56.01812204861111,147.23181818181817L56.19747569444444,143.20909090909092L56.34936076388889,147.23181818181817L57.318839930555555,138.38181818181818L57.37377708333334,144.8181818181818L57.78903732638889,149.64545454545456L58.3577984375,143.20909090909092L58.68903715277777,149.64545454545456L59.55510520833334,148.03636363636363L59.89280711805555,144.8181818181818L59.942896875,139.9909090909091L60.29837256944444,146.42727272727274L60.333920138888885,144.8181818181818L60.66354305555556,144.8181818181818L60.68616423611111,139.9909090909091L62.13068819444444,139.9909090909091L63.20519427083333,136.77272727272728L63.29083159722222,149.64545454545456L63.87575069444444,149.64545454545456L64.05187274305555,146.42727272727274L64.07449392361112,139.9909090909091L64.19891041666666,125.50909090909092L64.62548125,151.25454545454545L64.71919756944445,144.8181818181818L64.73373975694444,144.8181818181818L64.85654045138888,143.20909090909092L65.02781510416666,139.9909090909091L65.04074149305556,139.9909090909091L65.15546319444445,138.38181818181818L65.34451163194444,130.33636363636364L65.50447569444444,107.80909090909091L65.56749184027778,128.72727272727275L65.89226736111111,130.33636363636364L65.89711475694445,130.33636363636364L66.01506805555556,123.9L66.37862274305556,135.16363636363636L66.48203385416667,143.20909090909092L66.62422413194444,156.0818181818182L66.76479861111112,138.38181818181818L67.09442152777778,149.64545454545456L67.61955607638889,128.72727272727275L68.261028125,144.8181818181818L68.39837100694444,148.03636363636363L68.44361336805555,148.03636363636363L69.70393628472222,144.8181818181818L69.72009427083333,144.8181818181818L69.79118940972222,127.11818181818182L69.8332001736111,107.80909090909091L69.94307447916667,122.29090909090908L70.064259375,135.16363636363636L70.17090208333333,130.33636363636364L70.35348732638889,136.77272727272728L70.56354114583334,139.9909090909091L70.58131493055555,135.16363636363636L70.61363090277777,123.9L70.9965751736111,128.72727272727275L71.33427708333333,125.50909090909092L71.55240989583334,123.9L71.55564149305556,123.9L71.61704184027778,131.94545454545454L72.100165625,131.94545454545454L72.25851388888888,128.72727272727275L72.27144027777778,128.72727272727275L72.55258923611112,143.20909090909092L72.60591059027777,142.40454545454546L73.12135034722222,135.16363636363636L73.2489984375,143.20909090909092L73.34433055555556,135.16363636363636L74.02458177083334,104.5909090909091L74.08113472222222,130.33636363636364L74.20070381944444,143.20909090909092L74.81793888888889,128.72727272727275L75.61614340277778,102.98181818181818L75.61775920138888,102.98181818181818L76.19298350694444,131.94545454545454L76.2010625,131.94545454545454L76.76012881944445,139.9909090909091L76.91847708333334,135.16363636363636L76.97503003472222,135.16363636363636L77.277184375,133.55454545454546L77.4242220486111,146.42727272727274L78.26766892361111,115.85454545454544L78.43732777777777,107.80909090909091L79.12727378472222,127.11818181818182L79.1692845486111,139.9909090909091L79.27592725694444,127.11818181818182L79.5005232638889,123.9L79.60070277777777,133.55454545454546L79.93678888888888,120.68181818181819L79.96264166666666,120.68181818181819L80.16300069444443,114.24545454545455L80.51524479166666,98.15454545454546L80.79962534722222,133.55454545454546L80.84163611111111,102.98181818181818L81.0726953125,131.94545454545454L81.3199125,101.37272727272727L81.55097170138889,115.85454545454544L81.78041510416666,125.50909090909092L81.93230017361111,133.55454545454546L81.95492135416667,139.9909090909091L83.06335920138888,133.55454545454546L83.12314375,107.80909090909091L83.5319407986111,125.50909090909092L83.82924774305556,127.11818181818182L83.91973246527778,130.33636363636364L84.02960677083333,131.94545454545454L84.35761388888889,127.11818181818182L84.72601597222223,125.50909090909092L84.89890642361111,121.48636363636363L85.08472326388889,133.55454545454546L85.25438211805555,127.11818181818182L85.46766753472222,135.16363636363636L85.48059392361111,135.16363636363636L85.69387934027777,131.94545454545454L85.93140173611111,115.85454545454544L86.07682361111112,109.41818181818182L86.24486666666667,115.85454545454544L86.29010902777777,123.9L86.82978576388889,114.24545454545455L86.84917534722221,114.24545454545455L86.87987552083334,114.24545454545455L86.90734409722224,114.24545454545455L86.99459722222223,114.24545454545455L87.05438177083333,133.55454545454546L87.11416631944445,125.50909090909092L87.31290954861112,93.32727272727273L87.48256840277777,101.37272727272727L87.83965989583334,114.24545454545455L87.87359166666666,125.50909090909092L88.10303506944445,123.9L88.22260416666667,123.9L88.51991111111111,127.11818181818182L89.40860034722223,110.22272727272727L89.44253211805555,110.22272727272727L89.47969548611111,110.22272727272727L89.65097013888888,94.93636363636364L89.79639201388889,111.02727272727273L90.11632013888888,94.93636363636364L90.24235243055556,98.15454545454546L90.41039548611111,130.33636363636364L90.4378640625,111.02727272727273L90.54612256944445,125.50909090909092L90.88382447916666,101.37272727272727L90.9306826388889,101.37272727272727L91.50267534722222,127.11818181818182L91.55114930555555,103.78636363636363L91.72565555555555,113.44090909090909L91.85976684027777,115.85454545454544L91.95186736111111,98.15454545454546L92.42852795138889,101.37272727272727L92.89226215277777,127.11818181818182L93.33660677083334,94.93636363636364L93.51757621527777,136.77272727272728L94.0281685763889,106.2L94.42727083333332,115.85454545454544L94.45312361111111,115.85454545454544L94.88131024305555,111.02727272727273L95.07520607638888,115.85454545454544L95.30303368055556,135.16363636363636L95.81201024305555,125.50909090909092L96.46802447916667,104.5909090909091L96.59567256944445,117.46363636363637L96.75240503472223,99.76363636363637L96.80249479166666,99.76363636363637L96.9818484375,106.2L97.42780885416667,109.41818181818182L97.75743177083334,102.98181818181818L98.02080694444444,99.76363636363637L98.02727013888888,101.37272727272727L98.08059149305556,101.37272727272727L98.11290746527779,111.02727272727273L98.2308607638889,133.55454545454546L98.62996302083333,106.2L98.9595859375,115.85454545454544L99.00321249999999,120.68181818181819L99.11631840277776,122.29090909090908L99.43624652777778,123.9L99.46209930555555,123.9L100.3976467013889,133.55454545454546L100.90823906249999,94.93636363636364L100.93732343750001,107.80909090909091L101.27664114583334,88.5L102.63391197916667,111.02727272727273L102.77771805555555,93.32727272727273L102.82942361111111,93.32727272727273L102.94576111111112,96.54545454545455L102.98938767361112,96.54545454545455L102.99585086805556,96.54545454545455L103.09764618055556,96.54545454545455L103.40141631944445,125.50909090909092L103.53068020833332,98.15454545454546L103.73588663194444,98.15454545454546L103.74719722222221,98.15454545454546L103.81829236111112,90.10909090909091L103.90392968750001,112.63636363636364L104.73121857638888,90.10909090909091L104.97035677083333,115.85454545454544L105.52942309027777,117.46363636363637L105.54396527777777,117.46363636363637L105.62960260416668,131.94545454545454L105.84773541666667,88.5L106.09172100694444,91.71818181818182L107.15814809027778,99.76363636363637L107.18400086805556,115.85454545454544L107.31164895833334,92.52272727272727L107.4506076388889,123.9L108.746478125,106.2L109.20536493055556,99.76363636363637L109.29100225694445,117.46363636363637L109.3410920138889,117.46363636363637L109.39926076388889,99.76363636363637L109.46227690972222,99.76363636363637L109.68525711805556,99.76363636363637L109.79028402777777,102.98181818181818L109.82744739583333,120.68181818181819L109.99872204861111,99.76363636363637L110.16838090277778,102.98181818181818L110.24270763888889,102.98181818181818L110.71936822916666,96.54545454545455L111.23965538194444,115.85454545454544L111.93121718750001,101.37272727272727L112.05886527777778,99.76363636363637L112.26245590277777,94.93636363636364L113.11721336805554,96.54545454545455L113.19800329861111,98.15454545454546L113.34827256944445,89.57272931879217L113.37412534722222,89.57272931879217L113.42259930555555,89.57272931879217L113.54055260416668,78.84545454545454L114.12385590277778,93.32727272727273L114.43085763888888,109.41818181818182L114.68938541666667,94.93636363636364L114.93983420138889,86.8909090909091L115.09010347222222,94.93636363636364L115.17897239583334,94.93636363636364L116.01272447916666,91.71818181818182L116.02565086805555,91.71818181818182L116.2647890625,94.93636363636364L116.34073159722222,83.67272727272729L116.81092899305554,65.97272727272727L116.90949270833335,88.5L117.16317309027778,93.32727272727273L117.44109045138889,74.01818181818183L117.80302934027777,72.4090909090909L117.85635069444444,72.4090909090909L118.10356788194444,67.58181818181818L118.1278048611111,86.8909090909091L118.71110815972222,64.36363636363636L119.09566822916666,82.06363636363636L119.10697881944445,82.06363636363636L119.11344201388889,82.06363636363636L119.11990520833334,82.06363636363636L119.3477328125,70.8L119.41882795138888,70.8L119.68705052083332,90.10909090909091L119.74521927083333,90.10909090909091L119.76945625,104.5909090909091L119.96012048611112,107.80909090909091L120.68722986111112,90.10909090909091L120.87466250000001,80.45454545454547L121.08471631944444,93.32727272727273L121.15742725694444,93.32727272727273L121.49836076388888,98.15454545454546L121.66963541666667,82.06363636363636L122.06389027777777,98.15454545454546L122.07681666666667,98.15454545454546L122.33857604166667,102.98181818181818L122.42421336805556,102.98181818181818L123.346834375,74.01818181818183L123.62152013888888,82.06363636363636L123.64414131944444,88.5L123.78471579861112,91.71818181818182L124.07394375,98.15454545454546L124.12726510416667,90.10909090909091L124.41649305555555,74.01818181818183L124.9012326388889,86.8909090909091L124.91092743055556,86.8909090909091L125.20015538194444,85.28181818181818L125.6461157986111,69.19090909090909L126.51056805555557,71.60454545454546L126.74485885416668,91.71818181818182L126.93229149305556,93.32727272727273L127.069634375,93.32727272727273L127.19566666666667,93.32727272727273L127.23929322916666,93.32727272727273L127.26676180555556,93.32727272727273L128.07627690972222,77.23636363636365L128.15221944444446,101.37272727272727L128.3477310763889,94.93636363636364L128.6838171875,54.709090909090904L128.73229114583333,96.54545454545455L129.55473263888888,85.28181818181818L129.56442743055555,85.28181818181818L129.599975,64.36363636363636L129.745396875,86.8909090909091L130.03300902777778,99.76363636363637L131.2125420138889,75.62727272727273L131.32726371527778,51.490909090909085L131.58902309027778,78.84545454545454L131.74413975694443,72.4090909090909L131.98004635416666,78.84545454545454L132.72169791666667,64.36363636363636L132.85096180555556,67.58181818181818L133.33085399305554,69.19090909090909L133.38094375,69.19090909090909L133.90930989583333,72.4090909090909L134.1516796875,62.75454545454545L134.46837621527777,64.36363636363636L134.6913564236111,123.9L134.8044623263889,69.19090909090909L134.806078125,69.19090909090909L134.94180520833334,80.45454545454547L135.19710138888888,61.14545454545454L135.51056631944445,69.19090909090909L135.70930954861112,69.19090909090909L135.88704739583332,90.10909090909091L136.09225381944444,67.58181818181818L136.5543722222222,62.75454545454545L136.57053020833334,62.75454545454545L136.83875277777778,86.8909090909091L137.16514409722222,77.23636363636365L137.7403684027778,61.14545454545454L137.8163109375,61.14545454545454L138.07160711805557,75.62727272727273L138.121696875,75.62727272727273L138.31559270833336,61.14545454545454L138.38345625,56.31818181818183L138.49009895833333,72.4090909090909L138.81002708333332,59.53636363636363L139.03947048611113,54.709090909090904L139.4418043402778,61.14545454545454L140.2319298611111,59.53636363636363L140.49207343749998,51.490909090909085L140.5373157986111,51.490909090909085L140.6100267361111,51.490909090909085L141.28704635416668,85.28181818181818L142.6168486111111,65.97272727272727L142.6459329861111,77.23636363636365L142.8026654513889,77.23636363636365L142.88507118055554,54.709090909090904L143.14521475694445,56.31818181818183L143.6929704861111,62.75454545454545L143.78830260416666,57.92727272727272L144.08399375,46.66363636363636L144.10661493055557,56.31818181818183L144.54288055555557,62.75454545454545L144.5768123263889,62.75454545454545L144.9694513888889,46.66363636363636L145.09709947916667,51.490909090909085L145.28614791666666,72.4090909090909L146.16998975694443,85.28181818181818L146.36065399305556,70.8L146.4834546875,53.10000000000001L146.9019465277778,70.8L147.03282621527777,70.8L147.7308512152778,54.709090909090904L147.93444184027777,57.92727272727272L147.97645260416667,54.709090909090904L148.16388524305557,57.92727272727272L148.41271822916667,61.14545454545454L148.5032029513889,86.8909090909091L148.58560868055554,86.8909090909091L148.62115625,86.8909090909091L148.67447760416667,86.8909090909091L148.71487256944445,59.53636363636363L149.13498020833333,86.8909090909091L149.13821180555556,86.8909090909091L149.3030232638889,53.10000000000001L149.30787065972223,53.10000000000001L149.55670364583332,78.84545454545454L149.82331041666666,99.76363636363637L150.06568020833333,56.31818181818183L150.28542881944443,38.618181818181824L150.56011458333336,75.62727272727273L150.78471059027777,80.45454545454547L151.54575173611113,51.490909090909085L151.55383072916666,57.92727272727272L151.6297732638889,57.92727272727272L151.72672118055556,57.92727272727272L151.7638845486111,57.92727272727272L152.18883958333333,61.14545454545454L152.20015017361112,61.14545454545454L153.34251979166666,57.92727272727272L153.7787854166667,56.31818181818183L154.2602934027778,30.572727272727263L154.2893777777778,57.92727272727272L154.41864166666667,57.92727272727272L155.00194496527777,102.98181818181818L155.27824652777778,54.709090909090904L155.4705265625,54.709090909090904L155.81469166666665,53.10000000000001L155.89709739583336,70.8L156.12977239583336,74.01818181818183L156.20571493055556,59.53636363636363L156.39476336805555,49.88181818181819L156.58219600694446,56.31818181818183L156.59350659722222,56.31818181818183L157.05400920138888,82.06363636363636L157.59045434027777,80.45454545454547L158.0299515625,77.23636363636365L158.18991562500003,77.23636363636365L158.5680125,64.36363636363636L158.6859657986111,53.10000000000001L158.77806631944443,53.10000000000001L159.6021236111111,54.709090909090904L159.71199791666666,54.709090909090904L159.8364144097222,54.709090909090904L159.85903559027778,54.709090909090904L159.92205173611111,85.28181818181818L159.9737572916667,61.14545454545454L160.46496006944446,74.01818181818183L160.64108211805555,74.01818181818183L160.93031006944446,72.4090909090909L161.54108194444444,53.10000000000001L161.63156666666666,53.10000000000001L161.6380298611111,53.10000000000001L161.74305677083333,91.71818181818182L161.84808368055553,91.71818181818182L162.21163836805556,65.97272727272727L162.23749114583333,65.97272727272727L162.47016614583333,86.8909090909091L162.51217690972223,48.27272727272728L162.5719614583333,37.0090909090909L163.19081232638888,51.490909090909085L163.22151250000002,54.709090909090904L163.38632395833332,61.14545454545454L163.81289479166668,57.92727272727272L163.99548003472222,69.19090909090909L164.0520329861111,53.10000000000001L164.73551579861112,43.44545454545454L166.00230190972223,64.36363636363636L166.05723906249997,62.75454545454545L166.18488715277778,61.14545454545454L166.5500576388889,64.36363636363636L166.63407916666665,48.27272727272728L166.8602909722222,96.54545454545455L167.25293003472223,54.709090909090904L167.6601112847222,57.92727272727272L167.9202548611111,62.75454545454545L168.311278125,57.92727272727272L168.36298368055557,46.66363636363636L168.7055329861111,56.31818181818183L169.01576631944445,35.400000000000006L169.15310920138887,38.618181818181824L169.36639461805555,57.92727272727272L169.69278593750002,56.31818181818183L169.74449149305553,56.31818181818183L169.80427604166667,56.31818181818183L169.93353993055555,51.490909090909085L170.1775255208333,51.490909090909085L170.48129565972224,54.709090909090904L170.53138541666667,54.709090909090904L170.58470677083335,54.709090909090904L170.76890781249998,54.709090909090904L170.870703125,49.88181818181819L171.2520315972222,64.36363636363636L171.29888975694445,64.36363636363636L172.53659149305557,46.66363636363636L172.557596875,40.22727272727272L172.673934375,56.31818181818183L172.90499357638888,49.88181818181819L173.52707604166667,61.14545454545454L173.6191765625,33.79090909090908L173.79045121527776,59.53636363636363L173.89547812499998,38.618181818181824L173.9681890625,51.490909090909085L174.23156423611113,57.92727272727272L174.72923020833335,56.31818181818183L175.5969140625,45.05454545454546L175.82474166666668,41.83636363636364L176.5470036458333,56.31818181818183L176.68434652777776,48.27272727272728L176.71019930555556,46.66363636363636L177.327434375,59.53636363636363L177.35490295138888,59.53636363636363L177.56495677083333,80.45454545454547L177.69583645833333,80.45454545454547L177.79601597222222,41.83636363636364L178.1224072916667,38.618181818181824L178.46657239583334,53.10000000000001L179.47483072916665,51.490909090909085L179.5071467013889,51.490909090909085L179.84000121527777,54.709090909090904L180.1211501736111,54.709090909090904L180.3635199652778,83.67272727272729L180.39583593749998,83.67272727272729L180.40068333333332,83.67272727272729L180.53802621527777,59.53636363636363L180.5428736111111,59.53636363636363L181.1229453125,83.67272727272729L181.16495607638888,51.490909090909085L182.14897743055556,62.75454545454545L182.2443095486111,62.75454545454545L182.79044947916665,57.92727272727272L182.94718194444445,46.66363636363636L183.34789999999998,54.709090909090904L184.04269340277776,78.84545454545454L184.8166609375,62.75454545454545L185.06872552083334,49.88181818181819L185.4694435763889,53.10000000000001L185.6423340277778,53.10000000000001L185.9105565972222,38.618181818181824L186.11576302083333,17.69999999999999L186.33712743055557,48.27272727272728L186.42761215277778,37.0090909090909L186.47931770833333,37.0090909090909L186.59403940972223,56.31818181818183L187.20804288194444,43.44545454545454L187.35184895833333,49.88181818181819L187.38901232638887,49.88181818181819L187.92061006944445,46.66363636363636L188.29870694444446,48.27272727272728L188.4037338541667,35.400000000000006L189.07913767361111,41.83636363636364L189.30211788194444,48.27272727272728L189.4152237847222,37.0090909090909L189.5283296875,64.36363636363636L189.72222552083332,30.572727272727263L189.79332065972224,30.572727272727263L190.01306927083334,49.88181818181819L190.24897586805554,56.31818181818183L190.33622899305558,56.31818181818183L190.46549288194444,46.66363636363636L190.64323072916665,65.97272727272727L190.89044791666666,49.88181818181819L191.0084012152778,49.88181818181819L191.3186345486111,49.88181818181819L191.4317404513889,67.58181818181818L191.51091458333332,83.67272727272729L192.37051944444445,61.14545454545454L193.09924461805556,46.66363636363636L193.27051927083332,48.27272727272728L193.27375086805557,48.27272727272728L193.71001649305555,30.572727272727263L194.3563359375,38.618181818181824L194.81199114583333,59.53636363636363L194.8491545138889,59.53636363636363L195.1109138888889,49.88181818181819L195.28380434027778,62.75454545454545L195.37913645833333,30.572727272727263L195.39367864583332,30.572727272727263L195.50840034722222,86.8909090909091L195.62958524305557,46.66363636363636L195.76369652777777,57.92727272727272L195.89134461805554,38.618181818181824L196.05454027777776,43.44545454545454L196.08685625,43.44545454545454L196.20965694444445,48.27272727272728L196.30175746527777,56.31818181818183L196.31953125,56.31818181818183L197.0046298611111,74.01818181818183L197.03694583333333,74.01818181818183L197.6250965277778,46.66363636363636L197.9514878472222,37.0090909090909L198.00319340277778,41.83636363636364L198.09044652777777,37.0090909090909L198.23586840277778,62.75454545454545L198.55094913194444,54.709090909090904L198.6010388888889,54.709090909090904L198.6899078125,54.709090909090904L198.74646076388888,54.709090909090904L198.76261875,54.709090909090904L199.07769947916665,49.88181818181819L199.4913439236111,43.44545454545454L199.5802128472222,43.44545454545454L200.27500625,35.400000000000006L200.80660399305555,64.36363636363636L200.90032031249999,46.66363636363636L201.49816579861113,57.92727272727272L201.66620885416668,57.92727272727272L201.6888300347222,57.92727272727272L201.71953020833334,57.92727272727272L201.7857779513889,48.27272727272728L201.80839913194444,27.354545454545445L201.8326361111111,27.354545454545445L201.85364149305556,27.354545454545445L201.9166576388889,53.10000000000001L202.12671145833332,48.27272727272728L202.40462881944444,35.400000000000006L202.67769878472222,51.490909090909085L202.96207934027777,88.5L203.1107328125,38.618181818181824L203.2270703125,38.618181818181824L203.24969149305556,38.618181818181824L203.93155850694444,49.88181818181819L204.0236590277778,49.88181818181819L204.22240225694443,27.354545454545445L204.5067828125,78.84545454545454L204.6683626736111,33.79090909090908L204.83478993055556,56.31818181818183L205.37446666666665,53.10000000000001L206.44250954861113,49.88181818181819L206.50714149305557,49.88181818181819L206.56046284722223,49.88181818181819L206.85776979166667,49.88181818181819L207.54933159722222,85.28181818181818L207.77069600694443,53.10000000000001L208.83065989583332,53.10000000000001L208.83227569444443,53.10000000000001L208.9259920138889,53.10000000000001L209.2491517361111,49.88181818181819L209.37679982638886,40.22727272727272L209.76782309027777,59.53636363636363L210.15723055555554,40.22727272727272L210.36405277777777,19.309090909090912L210.41737413194443,61.14545454545454L210.7308390625,46.66363636363636L210.82778697916666,24.136363636363626L211.00229322916667,48.27272727272728L211.06046197916666,48.27272727272728L211.0911621527778,48.27272727272728L211.24627881944443,43.44545454545454L211.9846987847222,45.05454545454546L212.05094652777777,46.66363636363636L212.19313680555555,48.27272727272728L212.55184409722222,46.66363636363636L212.79906128472223,59.53636363636363L213.1044472222222,22.52727272727273L213.14968958333333,22.52727272727273L214.0464578125,48.27272727272728L214.35992274305553,43.44545454545454L214.4229388888889,43.44545454545454L214.7444828125,54.709090909090904L215.42311822916668,61.14545454545454L215.65094583333334,49.88181818181819L215.8545364583333,27.354545454545445L216.10013784722221,61.14545454545454L216.4863137152778,51.490909090909085L216.99044288194446,46.66363636363636L217.26028125,40.22727272727272L217.27320763888886,40.22727272727272L217.84358454861112,54.709090909090904L218.28954496527777,54.709090909090904L218.37518229166668,49.88181818181819L218.95202239583335,38.618181818181824L218.97141197916667,38.618181818181824L219.37051423611112,46.66363636363636L219.3818248263889,46.66363636363636L219.55309947916666,62.75454545454545L219.81324305555555,48.27272727272728L219.95866493055556,56.31818181818183L220.48218368055555,38.618181818181824L220.75848524305556,43.44545454545454L220.837659375,49.88181818181819L220.89905972222223,49.88181818181819L220.953996875,59.53636363636363L221.01539722222222,59.53636363636363L221.07841336805555,35.400000000000006L221.26584600694443,59.53636363636363L221.39187829861112,41.83636363636364L221.41449947916666,41.83636363636364L221.44196805555558,56.31818181818183L221.61647430555556,49.88181818181819L221.70372743055557,28.96363636363637L222.3920576388889,41.83636363636364L222.69905937500002,46.66363636363636L222.8864920138889,46.66363636363636L223.2419677083333,57.92727272727272L223.28882586805557,43.44545454545454L224.03370902777777,54.709090909090904L224.44896927083335,33.79090909090908L224.49582743055555,49.88181818181819L224.59439114583333,49.88181818181819L225.0855939236111,45.05454545454546L225.35704809027777,33.79090909090908L226.17948958333332,48.27272727272728L226.2037265625,48.27272727272728L226.68361875,35.400000000000006L227.59331336805556,49.88181818181819L227.69026128472223,57.92727272727272L228.13945329861113,40.22727272727272L228.1410690972222,40.22727272727272L228.32042274305556,51.490909090909085L228.36566510416668,51.490909090909085L228.4141390625,62.75454545454545L228.48038680555555,62.75454545454545L228.66781944444446,40.22727272727272L229.17841180555556,59.53636363636363L229.24627534722222,51.490909090909085L229.30444409722222,38.618181818181824L229.77625729166667,43.44545454545454L229.82634704861113,43.44545454545454L230.29977604166666,86.8909090909091L230.4500453125,32.98636363636365L230.46943489583333,32.98636363636365L230.63909375,57.92727272727272L231.17069149305556,32.18181818181819L232.04483854166665,43.44545454545454L232.08361770833335,43.44545454545454L232.1369390625,40.22727272727272L232.84304305555557,46.66363636363636L232.94968576388888,48.27272727272728L232.994928125,56.31818181818183L233.53622065972223,33.79090909090908L233.8254486111111,30.572727272727263L233.90462274305554,56.31818181818183L233.90947013888888,56.31818181818183L233.92724392361112,56.31818181818183L233.9983390625,56.31818181818183L234.36189374999998,51.490909090909085L234.76099600694442,62.75454545454545L236.62562760416665,37.0090909090909L237.01826666666665,45.05454545454546L237.4189847222222,12.872727272727275L237.5046220486111,57.92727272727272L237.68074409722223,49.88181818181819L237.8956453125,35.400000000000006L238.19295225694444,48.27272727272728L238.39977447916667,51.490909090909085L238.48541180555557,40.22727272727272L238.5532753472222,49.88181818181819L238.72939739583333,48.27272727272728L238.74070798611112,48.27272727272728L238.79241354166666,57.92727272727272L238.84411909722223,57.92727272727272L238.9426828125,41.83636363636364L238.9717671875,41.83636363636364L239.3207796875,46.66363636363636L239.63101302083334,59.53636363636363L239.7990560763889,46.66363636363636L239.89923559027778,46.66363636363636L240.1803845486111,32.18181818181819L240.51647065972224,32.18181818181819L240.9915154513889,46.66363636363636L241.05614739583334,5.631818181818176L241.2694328125,46.66363636363636L241.41162309027777,30.572727272727263L241.4310126736111,30.572727272727263L241.44393906250002,30.572727272727263L241.48918142361111,30.572727272727263L241.56673975694446,46.66363636363636L241.6362190972222,46.66363636363636L241.84142552083333,49.88181818181819L242.08702690972223,45.05454545454546L242.25022256944445,33.79090909090908L242.48612916666667,56.31818181818183L242.6380142361111,57.92727272727272L242.8819998263889,53.10000000000001L243.5073138888889,48.27272727272728L243.55578784722223,32.18181818181819L243.86763697916666,40.22727272727272L243.96458489583333,51.490909090909085L244.0049798611111,51.490909090909085L244.78056319444445,35.400000000000006L244.79833697916666,72.4090909090909L245.08594913194446,48.27272727272728L245.1231125,56.31818181818183L245.17320225694445,56.31818181818183L245.40264565972222,38.618181818181824L245.42526684027777,38.618181818181824L246.42059878472222,38.618181818181824L246.6952845486111,49.88181818181819L247.08307621527777,30.572727272727263L247.10892899305554,30.572727272727263L247.32706180555556,33.79090909090908L247.5516578125,33.79090909090908L247.73262725694445,28.96363636363637L248.02023940972222,56.31818181818183L248.0719449652778,56.31818181818183L248.18828246527778,24.136363636363626L248.60839010416666,41.83636363636364L248.8459125,45.05454545454546L249.4421421875,54.709090909090904L249.46314756944446,54.709090909090904L249.6004904513889,61.14545454545454L249.8767920138889,28.96363636363637L250.17409895833333,46.66363636363636L250.2112623263889,41.83636363636364L250.21934131944445,41.83636363636364L250.25165729166667,41.83636363636364L250.42293194444446,53.10000000000001L250.97876666666667,48.27272727272728L251.44411666666667,48.27272727272728L251.85937690972222,41.83636363636364L252.40390104166667,46.66363636363636L252.51862274305557,38.618181818181824L252.64465503472223,53.10000000000001L253.15363159722222,62.75454545454545L253.16171059027778,62.75454545454545L253.18594756944444,48.27272727272728L253.7191611111111,48.27272727272728L253.77086666666668,51.490909090909085L254.08917899305555,48.27272727272728L254.46081267361112,53.10000000000001L254.5949239583333,74.01818181818183L254.62562413194445,41.83636363636364L254.79205138888886,32.18181818181819L254.88415190972222,51.490909090909085L255.24285920138888,54.709090909090904L255.5498609375,49.88181818181819L256.0152109375,41.83636363636364L256.0604532986111,41.83636363636364L256.19941197916665,41.83636363636364L256.81503125,33.79090909090908L256.8505788194445,57.92727272727272L257.33047100694444,49.88181818181819L257.5647618055556,20.918181818181807L257.6390885416667,59.53636363636363L258.4889986111111,49.88181818181819L258.55363055555557,46.66363636363636L258.56655694444447,51.490909090909085L258.6021045138889,51.490909090909085L258.6182625,51.490909090909085L258.74106319444445,57.92727272727272L258.7960003472222,30.572727272727263L258.9365748263889,17.69999999999999L258.9866645833333,64.36363636363636L259.74124253472223,57.92727272727272L260.02723888888886,27.354545454545445L260.1274184027778,43.44545454545454L260.5038994791667,49.88181818181819L260.5135942708333,49.88181818181819L261.5234684027778,49.88181818181819L261.5816371527778,49.88181818181819L261.7383696180556,41.83636363636364L262.05021875,28.96363636363637L262.07768732638885,28.96363636363637L262.079303125,28.96363636363637L262.5624269097222,38.618181818181824L262.6205956597222,48.27272727272728L262.97445555555555,53.10000000000001L263.20228315972224,49.88181818181819L263.6773279513889,49.88181818181819L263.92939253472224,33.79090909090908L264.1604517361111,45.05454545454546L264.29941041666666,49.88181818181819L264.3155684027778,49.88181818181819L264.5433960069444,48.27272727272728L264.6161069444444,48.27272727272728L264.65650190972224,40.22727272727272L264.86009253472224,37.81363636363636L264.9731984375,64.36363636363636L265.2462684027778,57.92727272727272L265.35775850694444,48.27272727272728L265.45309062499996,48.27272727272728L265.64537065972223,46.66363636363636L265.8457296875,57.92727272727272L265.8796614583333,57.92727272727272L267.0608102430555,28.96363636363637L267.5972553819444,54.709090909090904L267.61502916666666,62.75454545454545L267.75721944444444,51.490909090909085L267.8202355902778,38.618181818181824L267.88648333333333,32.18181818181819L268.11431093749997,51.490909090909085L268.7283144097222,54.709090909090904L268.8688888888889,54.709090909090904L269.3487810763889,28.96363636363637L270.31826024305553,27.354545454545445L270.4152081597222,40.22727272727272L270.4313661458333,40.22727272727272L270.6333409722222,46.66363636363636L271.5575777777778,62.75454545454545L271.7611684027778,45.05454545454546L271.92113246527776,41.83636363636364L272.1408810763889,49.077272727272714L272.33800850694445,61.14545454545454L272.4317248263889,57.92727272727272L272.54321493055556,56.31818181818183L272.549678125,56.31818181818183L272.7128737847222,45.05454545454546L272.85183246527777,59.53636363636363L272.87606944444445,59.53636363636363L273.7857640625,38.618181818181824L273.96834930555553,32.18181818181819L274.17517152777776,41.83636363636364L274.19940850694445,41.83636363636364L274.3125144097222,41.83636363636364L274.5031786458333,33.79090909090908L274.585584375,33.79090909090908L274.69707447916664,53.10000000000001L274.70353767361115,53.10000000000001L275.5550635416667,45.05454545454546L275.5857637152778,41.83636363636364L275.71502760416666,43.44545454545454L275.9121550347222,57.92727272727272L276.0818138888889,64.36363636363636L276.37104184027777,54.709090909090904L276.39366302083334,54.709090909090904L276.45183177083334,35.400000000000006L276.5180795138889,38.618181818181824L276.66996458333335,48.27272727272728L276.7491387152778,48.27272727272728L276.77499149305555,28.96363636363637L276.90587118055555,48.27272727272728L277.0399824652778,56.31818181818183L277.18055694444445,56.31818181818183L277.2096413194444,59.53636363636363L277.42777413194443,53.10000000000001L277.64752274305556,53.10000000000001L278.2728368055555,46.66363636363636L278.33262135416663,46.66363636363636L278.76403958333333,49.88181818181819L279.0968940972222,48.27272727272728L279.1566786458333,51.490909090909085L279.63657083333334,43.44545454545454" style="fill: none;" fill="none"></path></g></g></g></g></g></g><g transform="translate(39, 177)" clip-path="url(#clip_1)"><clipPath id="clip_1"><rect width="290" height="23"></rect></clipPath><g><g><line x1="0" y1="0" x2="0" y2="5" style="visibility: inherit;" fill="rgb(0, 0, 0)" stroke="rgb(204, 204, 204)" stroke-width="1px"></line><line x1="32.31597222222222" y1="0" x2="32.31597222222222" y2="5" style="visibility: inherit;" fill="rgb(0, 0, 0)" stroke="rgb(204, 204, 204)" stroke-width="1px"></line><line x1="64.63194444444444" y1="0" x2="64.63194444444444" y2="5" style="visibility: inherit;" fill="rgb(0, 0, 0)" stroke="rgb(204, 204, 204)" stroke-width="1px"></line><line x1="96.94791666666666" y1="0" x2="96.94791666666666" y2="5" style="visibility: inherit;" fill="rgb(0, 0, 0)" stroke="rgb(204, 204, 204)" stroke-width="1px"></line><line x1="129.26388888888889" y1="0" x2="129.26388888888889" y2="5" style="visibility: inherit;" fill="rgb(0, 0, 0)" stroke="rgb(204, 204, 204)" stroke-width="1px"></line><line x1="161.57986111111111" y1="0" x2="161.57986111111111" y2="5" style="visibility: inherit;" fill="rgb(0, 0, 0)" stroke="rgb(204, 204, 204)" stroke-width="1px"></line><line x1="193.89583333333331" y1="0" x2="193.89583333333331" y2="5" style="visibility: inherit;" fill="rgb(0, 0, 0)" stroke="rgb(204, 204, 204)" stroke-width="1px"></line><line x1="226.21180555555557" y1="0" x2="226.21180555555557" y2="5" style="visibility: inherit;" fill="rgb(0, 0, 0)" stroke="rgb(204, 204, 204)" stroke-width="1px"></line><line x1="258.52777777777777" y1="0" x2="258.52777777777777" y2="5" style="visibility: inherit;" fill="rgb(0, 0, 0)" stroke="rgb(204, 204, 204)" stroke-width="1px"></line><line x1="290.84375" y1="0" x2="290.84375" y2="5" style="visibility: inherit;" fill="rgb(0, 0, 0)" stroke="rgb(204, 204, 204)" stroke-width="1px"></line></g><g transform="translate(0, 8)"><text x="0" y="0" dx="0em" dy="0.95em" style="text-anchor: middle; visibility: hidden; font-family: &quot;Helvetica Neue&quot;, sans-serif; font-size: 12px; font-weight: 200;" fill="rgb(50, 49, 63)" stroke="none" stroke-width="1px">-20k</text><text x="32.31597222222222" y="0" dx="0em" dy="0.95em" style="text-anchor: middle; visibility: inherit; font-family: &quot;Helvetica Neue&quot;, sans-serif; font-size: 12px; font-weight: 200;" fill="rgb(50, 49, 63)" stroke="none" stroke-width="1px">0</text><text x="64.63194444444444" y="0" dx="0em" dy="0.95em" style="text-anchor: middle; visibility: inherit; font-family: &quot;Helvetica Neue&quot;, sans-serif; font-size: 12px; font-weight: 200;" fill="rgb(50, 49, 63)" stroke="none" stroke-width="1px">20k</text><text x="96.94791666666666" y="0" dx="0em" dy="0.95em" style="text-anchor: middle; visibility: inherit; font-family: &quot;Helvetica Neue&quot;, sans-serif; font-size: 12px; font-weight: 200;" fill="rgb(50, 49, 63)" stroke="none" stroke-width="1px">40k</text><text x="129.26388888888889" y="0" dx="0em" dy="0.95em" style="text-anchor: middle; visibility: inherit; font-family: &quot;Helvetica Neue&quot;, sans-serif; font-size: 12px; font-weight: 200;" fill="rgb(50, 49, 63)" stroke="none" stroke-width="1px">60k</text><text x="161.57986111111111" y="0" dx="0em" dy="0.95em" style="text-anchor: middle; visibility: inherit; font-family: &quot;Helvetica Neue&quot;, sans-serif; font-size: 12px; font-weight: 200;" fill="rgb(50, 49, 63)" stroke="none" stroke-width="1px">80k</text><text x="193.89583333333331" y="0" dx="0em" dy="0.95em" style="text-anchor: middle; visibility: inherit; font-family: &quot;Helvetica Neue&quot;, sans-serif; font-size: 12px; font-weight: 200;" fill="rgb(50, 49, 63)" stroke="none" stroke-width="1px">100k</text><text x="226.21180555555557" y="0" dx="0em" dy="0.95em" style="text-anchor: middle; visibility: inherit; font-family: &quot;Helvetica Neue&quot;, sans-serif; font-size: 12px; font-weight: 200;" fill="rgb(50, 49, 63)" stroke="none" stroke-width="1px">120k</text><text x="258.52777777777777" y="0" dx="0em" dy="0.95em" style="text-anchor: middle; visibility: inherit; font-family: &quot;Helvetica Neue&quot;, sans-serif; font-size: 12px; font-weight: 200;" fill="rgb(50, 49, 63)" stroke="none" stroke-width="1px">140k</text><text x="290.84375" y="0" dx="0em" dy="0.95em" style="text-anchor: middle; visibility: hidden; font-family: &quot;Helvetica Neue&quot;, sans-serif; font-size: 12px; font-weight: 200;" fill="rgb(50, 49, 63)" stroke="none" stroke-width="1px">160k</text></g><line x1="0" y1="0" x2="290.84375" y2="0" fill="rgb(0, 0, 0)" stroke="rgb(204, 204, 204)" stroke-width="1px"></line></g></g></g></g></svg>