<svg viewBox="0 0 330 200" xmlns="http://www.w3.org/2000/svg"><g><g><g><g><g><line x1="68.3125" y1="177" x2="63.3125" y2="177" style="visibility: inherit;" fill="rgb(0, 0, 0)" stroke="rgb(204, 204, 204)" stroke-width="1px"></line><line x1="68.3125" y1="154.875" x2="63.3125" y2="154.875" style="visibility: inherit;" fill="rgb(0, 0, 0)" stroke="rgb(204, 204, 204)" stroke-width="1px"></line><line x1="68.3125" y1="132.75" x2="63.3125" y2="132.75" style="visibility: inherit;" fill="rgb(0, 0, 0)" stroke="rgb(204, 204, 204)" stroke-width="1px"></line><line x1="68.3125" y1="110.625" x2="63.3125" y2="110.625" style="visibility: inherit;" fill="rgb(0, 0, 0)" stroke="rgb(204, 204, 204)" stroke-width="1px"></line><line x1="68.3125" y1="88.5" x2="63.3125" y2="88.5" style="visibility: inherit;" fill="rgb(0, 0, 0)" stroke="rgb(204, 204, 204)" stroke-width="1px"></line><line x1="68.3125" y1="66.375" x2="63.3125" y2="66.375" style="visibility: inherit;" fill="rgb(0, 0, 0)" stroke="rgb(204, 204, 204)" stroke-width="1px"></line><line x1="68.3125" y1="44.25" x2="63.3125" y2="44.25" style="visibility: inherit;" fill="rgb(0, 0, 0)" stroke="rgb(204, 204, 204)" stroke-width="1px"></line><line x1="68.3125" y1="22.125" x2="63.3125" y2="22.125" style="visibility: inherit;" fill="rgb(0, 0, 0)" stroke="rgb(204, 204, 204)" stroke-width="1px"></line><line x1="68.3125" y1="0" x2="63.3125" y2="0" style="visibility: inherit;" fill="rgb(0, 0, 0)" stroke="rgb(204, 204, 204)" stroke-width="1px"></line></g><g transform="translate(58.3125, 0)"><text x="0" y="177" dx="0em" dy="0.3em" style="text-anchor: end; visibility: hidden; font-family: &quot;Helvetica Neue&quot;, sans-serif; font-size: 12px; font-weight: 200;" fill="rgb(50, 49, 63)" stroke="none" stroke-width="1px">-500</text><text x="0" y="154.875" dx="0em" dy="0.3em" style="text-anchor: end; visibility: inherit; font-family: &quot;Helvetica Neue&quot;, sans-serif; font-size: 12px; font-weight: 200;" fill="rgb(50, 49, 63)" stroke="none" stroke-width="1px">0</text><text x="0" y="132.75" dx="0em" dy="0.3em" style="text-anchor: end; visibility: hidden; font-family: &quot;Helvetica Neue&quot;, sans-serif; font-size: 12px; font-weight: 200;" fill="rgb(50, 49, 63)" stroke="none" stroke-width="1px">500</text><text x="0" y="110.625" dx="0em" dy="0.3em" style="text-anchor: end; visibility: inherit; font-family: &quot;Helvetica Neue&quot;, sans-serif; font-size: 12px; font-weight: 200;" fill="rgb(50, 49, 63)" stroke="none" stroke-width="1px">1e+3</text><text x="0" y="88.5" dx="0em" dy="0.3em" style="text-anchor: end; visibility: hidden; font-family: &quot;Helvetica Neue&quot;, sans-serif; font-size: 12px; font-weight: 200;" fill="rgb(50, 49, 63)" stroke="none" stroke-width="1px">1.5e+3</text><text x="0" y="66.375" dx="0em" dy="0.3em" style="text-anchor: end; visibility: inherit; font-family: &quot;Helvetica Neue&quot;, sans-serif; font-size: 12px; font-weight: 200;" fill="rgb(50, 49, 63)" stroke="none" stroke-width="1px">2e+3</text><text x="0" y="44.25" dx="0em" dy="0.3em" style="text-anchor: end; visibility: hidden; font-family: &quot;Helvetica Neue&quot;, sans-serif; font-size: 12px; font-weight: 200;" fill="rgb(50, 49, 63)" stroke="none" stroke-width="1px">2.5e+3</text><text x="0" y="22.125" dx="0em" dy="0.3em" style="text-anchor: end; visibility: inherit; font-family: &quot;Helvetica Neue&quot;, sans-serif; font-size: 12px; font-weight: 200;" fill="rgb(50, 49, 63)" stroke="none" stroke-width="1px">3e+3</text><text x="0" y="0" dx="0em" dy="0.3em" style="text-anchor: end; visibility: hidden; font-family: &quot;Helvetica Neue&quot;, sans-serif; font-size: 12px; font-weight: 200;" fill="rgb(50, 49, 63)" stroke="none" stroke-width="1px">3.5e+3</text></g><line x1="68.3125" y1="0" x2="68.3125" y2="177" fill="rgb(0, 0, 0)" stroke="rgb(204, 204, 204)" stroke-width="1px"></line></g></g><g transform="translate(68, 0)" clip-path="url(#clip_0)"><clipPath id="clip_0"><rect width="261" height="177"></rect></clipPath><g><g><g><line x1="0" y1="0" x2="0" y2="177" fill="rgb(0, 0, 0)" stroke="rgb(60, 60, 60)" stroke-width="1px" opacity="0.25"></line><line x1="29.076388888888886" y1="0" x2="29.076388888888886" y2="177" fill="rgb(0, 0, 0)" stroke="rgb(60, 60, 60)" stroke-width="1px" opacity="0.25"></line><line x1="58.15277777777777" y1="0" x2="58.15277777777777" y2="177" fill="rgb(0, 0, 0)" stroke="rgb(60, 60, 60)" stroke-width="1px" opacity="0.25"></line><line x1="87.22916666666666" y1="0" x2="87.22916666666666" y2="177" fill="rgb(0, 0, 0)" stroke="rgb(60, 60, 60)" stroke-width="1px" opacity="0.25"></line><line x1="116.30555555555554" y1="0" x2="116.30555555555554" y2="177" fill="rgb(0, 0, 0)" stroke="rgb(60, 60, 60)" stroke-width="1px" opacity="0.25"></line><line x1="145.38194444444446" y1="0" x2="145.38194444444446" y2="177" fill="rgb(0, 0, 0)" stroke="rgb(60, 60, 60)" stroke-width="1px" opacity="0.25"></line><line x1="174.45833333333331" y1="0" x2="174.45833333333331" y2="177" fill="rgb(0, 0, 0)" stroke="rgb(60, 60, 60)" stroke-width="1px" opacity="0.25"></line><line x1="203.53472222222223" y1="0" x2="203.53472222222223" y2="177" fill="rgb(0, 0, 0)" stroke="rgb(60, 60, 60)" stroke-width="1px" opacity="0.25"></line><line x1="232.6111111111111" y1="0" x2="232.6111111111111" y2="177" fill="rgb(0, 0, 0)" stroke="rgb(60, 60, 60)" stroke-width="1px" opacity="0.25"></line><line x1="261.6875" y1="0" x2="261.6875" y2="177" fill="rgb(0, 0, 0)" stroke="rgb(60, 60, 60)" stroke-width="1px" opacity="0.25"></line></g><g><line x1="0" y1="177" x2="261.6875" y2="177" fill="rgb(0, 0, 0)" stroke="rgb(60, 60, 60)" stroke-width="1px" opacity="0.25"></line><line x1="0" y1="154.875" x2="261.6875" y2="154.875" fill="rgb(0, 0, 0)" stroke="rgb(60, 60, 60)" stroke-width="1px" opacity="0.25"></line><line x1="0" y1="132.75" x2="261.6875" y2="132.75" fill="rgb(0, 0, 0)" stroke="rgb(60, 60, 60)" stroke-width="1px" opacity="0.25"></line><line x1="0" y1="110.625" x2="261.6875" y2="110.625" fill="rgb(0, 0, 0)" stroke="rgb(60, 60, 60)" stroke-width="1px" opacity="0.25"></line><line x1="0" y1="88.5" x2="261.6875" y2="88.5" fill="rgb(0, 0, 0)" stroke="rgb(60, 60, 60)" stroke-width="1px" opacity="0.25"></line><line x1="0" y1="66.375" x2="261.6875" y2="66.375" fill="rgb(0, 0, 0)" stroke="rgb(60, 60, 60)" stroke-width="1px" opacity="0.25"></line><line x1="0" y1="44.25" x2="261.6875" y2="44.25" fill="rgb(0, 0, 0)" stroke="rgb(60, 60, 60)" stroke-width="1px" opacity="0.25"></line><line x1="0" y1="22.125" x2="261.6875" y2="22.125" fill="rgb(0, 0, 0)" stroke="rgb(60, 60, 60)" stroke-width="1px" opacity="0.25"></line><line x1="0" y1="0" x2="261.6875" y2="0" fill="rgb(0, 0, 0)" stroke="rgb(60, 60, 60)" stroke-width="1px" opacity="0.25"></line></g></g></g><g><g><line x1="0" y1="154.875" x2="261.6875" y2="154.875" fill="rgb(0, 0, 0)" stroke="rgb(153, 153, 153)" stroke-width="1.5px"></line></g></g><g><g><line x1="29.076388888888886" y1="0" x2="29.076388888888886" y2="177" fill="rgb(0, 0, 0)" stroke="rgb(153, 153, 153)" stroke-width="1.5px"></line></g></g><g><g><g><g><g><path stroke="rgb(255, 112, 67)" stroke-width="2px" d="M29.138903125000002,153.99L29.320630555555557,152.59263157894736L29.41076736111111,151.14885608856088L29.766953125,148.62956091887176L29.857089930555556,147.1290942834119L29.919604166666666,145.0046885450925L29.92978090277778,143.5038945982878L29.999564236111112,142.39265136358523L30.01846388888889,143.70796610913746L30.115869791666665,144.0637095749638L30.252528819444446,143.44672109469298L30.552015625000003,143.43602930920383L31.015784027777777,143.07118882141273L31.09138263888889,142.30667331316323L31.101559375,142.10623816157482L31.165527430555557,140.30603262510033L31.598765625,138.01842005822868L31.60312708333333,136.04485679403044L31.806661805555553,135.2546221291911L31.86481458333333,134.26425431000064L32.03781909722222,133.49798440005213L32.431804166666666,134.20035319525908L32.55101736111111,133.3614679999807L32.69058402777778,132.1409661050559L32.692037847222224,131.0624425021283L32.981347916666664,130.06019202805015L33.49454618055555,129.59406782545338L33.77367951388889,130.76757633287784L33.796940625,130.97561771650228L33.88271597222222,130.23673379979178L34.33776145833333,130.1299878435593L34.340669097222225,130.03471778667455L34.413360069444444,130.49754895092914L34.63288680555555,129.63685573401364L34.82915243055555,129.41152990471193L35.35398125,129.3456425782247L35.47464826388889,130.6867704382465L35.608399652777784,131.07721828820578L35.63311458333333,131.51722274196828L35.875902430555556,130.74407262641733L36.03873020833333,131.21644929357498L36.30477916666666,130.6550834025644L36.54175173611111,130.50900098575005L36.84850763888889,131.27149535728125L36.868861111111116,130.52785535873807L37.39805138888889,129.85982231157615L37.60303993055556,128.99220633873085L37.665554166666666,128.6578583538018L37.78622118055555,127.55626433180036L38.09152326388889,126.47707600457545L38.119145833333334,125.86251783894417L38.81697916666667,125.13221737345908L38.834425,124.47552838853171L39.042321180555554,123.61857786410495L39.20514895833333,122.93664478298902L39.47992083333334,122.0570712165046L39.92333576388889,121.70950733783103L39.92769722222222,120.68728878024947L40.414726736111106,119.50169264837953L40.46561041666667,119.23304061306703L40.80435034722222,116.06611465304803L40.97008576388889,116.85064513331967L41.02969236111111,117.3792731335094L41.43240034722223,114.2221234824459L41.44693854166666,111.38139679191985L41.58214375,109.26823903660971L41.98485173611111,106.83532403166163L42.06771944444445,104.29182409391882L42.540210763888886,101.91448658546011L42.84260520833334,100.48364138972246L42.96763368055556,100.43575024393346L42.986533333333334,98.71029950362048L43.17698368055556,96.53777719741056L44.196111111111115,94.58269574697619L44.312416666666664,93.00034071913903L44.374930902777784,91.31074402903741L44.49850555555555,89.87874046802291L44.75001631944444,88.50149494834776L44.92738229166667,87.43908755470777L44.931743749999995,86.48296991191253L45.02042673611111,86.06509075437506L45.098932986111116,85.15792114226097L45.21814618055556,84.25298490073018L45.843288541666666,83.52708235897398L45.89271840277778,82.69676700657742L46.06572291666667,82.03801382051999L46.17330555555555,81.44515048681296L46.47860763888889,80.9115852583982L46.485876736111116,80.43138608778132L46.76210243055555,80.08772129953101L46.945283680555555,79.77842796454648L47.79867569444444,79.6770789144853L48.026925347222225,79.32035121277504L48.06617847222222,79.22056110399208L48.845425694444444,78.90949100104925L48.87886354166667,78.62953056709163L49.15508923611111,78.55457477933915L49.75260902777778,78.39861218710323L49.85873784722222,78.25824682583696L49.92270590277778,78.13191878780385L50.08117222222222,77.92972207545867L50.358851736111106,77.83624785683995L50.40246631944444,78.10612829692103L50.56384027777778,77.99501353083924L50.70049930555555,77.80650922120842L51.57279097222222,77.72535715355987L51.62222083333334,77.65232051032922L51.99585243055556,77.67508871962372L52.507596875,77.69558005852605L52.80562986111111,77.71402222347346L53.58487708333334,77.46511792644698L53.88872534722222,77.59510710894519L53.93379375,77.71209718791518L54.25363402777778,77.55188649562004L54.28561805555555,77.49619754150868L54.58219722222222,77.35757710508454L54.602550694444446,77.49832001802397L55.90226527777777,77.44798781556098L56.86905520833333,77.40268887146996L56.94610763888889,77.27341956688059L57.47239027777778,77.15707727206444L57.63085659722222,77.05236927097437L57.651210069444446,76.95813212203133L57.763154166666666,76.78481854262726L58.1469625,76.89433689719827L58.23128402777778,76.81590307287392L58.24436840277778,76.74531265655693L58.35485868055555,76.68178130258725L58.50896354166667,76.62460310079426L58.52059409722222,76.57314273277208L58.62381527777778,76.52682841256127L58.79391215277778,76.57364561400404L58.937840277777774,76.52728101454612L58.99453923611111,76.48555288226493L59.28675694444445,76.44799756906892L59.29111840277778,76.41419779193672L59.39724722222222,76.20677790103765L59.724356597222226,76.10860006334781L59.81740104166666,76.0202400184683L59.94533715277778,76.02921602014545L60.07181944444445,76.2142944835267L60.36839861111111,76.20386503185738L60.840889930555555,76.37147857664368L61.41805625,76.52233075783664L61.541630902777776,76.74659773404406L61.58233784722222,76.68293794735742L62.71631701388889,76.80264417510007L62.73085520833333,76.91037977579761L62.79482326388889,76.65334175912193L62.83262256944444,76.59900757577186L62.93148229166666,76.63860682307339L63.040518750000004,76.6742461447178L63.136470833333334,76.70632153344694L63.300752430555555,76.8236893906436L63.48974895833334,76.75232044581027L63.50574097222222,76.7765884029947L63.53481736111111,76.79842956412529L63.87937256944444,76.72958660365605L64.18322083333334,76.6676279400045L64.37948645833333,76.6118651433424L64.38239409722223,76.56167862685224L64.43763923611111,76.42801075899911L64.87233125,76.39620968199266L65.01480555555555,76.27908871012559L65.02643611111111,76.17367983614209L65.27940069444445,75.99031184787654L65.3273767361111,75.8252806593213L65.79114513888888,75.85375259397418L65.905996875,75.96787733668715L65.99177222222222,75.98208960325495L66.60383020833333,75.99488064312104L66.65471388888889,75.9178925777711L66.76229652777776,75.84860331915333L67.31765555555556,75.78624298655708L68.03584236111111,75.73011868734979L68.03729618055554,75.67960681816804L68.55485590277777,75.63414613598937L68.56212500000001,75.59323152209731L69.06514652777778,75.55640836965016L69.20762083333334,75.6117675330064L69.2585045138889,75.57309077950374L69.53036875,75.53828170138976L69.66266631944444,75.59545353149265L70.42156006944444,75.46990817786538L70.57421111111111,75.53391736029819L71.19499201388888,75.50302562417309L71.23279131944444,75.56372306192425L71.32874340277777,75.61835075586826L71.53082430555556,75.667515680392L71.6209611111111,75.88876411280046L71.92335555555556,75.82238770139953L71.94661666666666,75.76264893116166L72.12689027777778,75.70888403796619L72.44382291666666,75.66049563410535L72.69969513888888,75.70544607074852L72.73749444444445,75.65740146362198L72.945390625,75.61416131721795L73.16782500000001,75.48674518538515L73.37572118055556,75.46057066682613L73.58216354166667,75.43701360012692L73.71882256944444,75.41581224010076L73.73917604166667,75.39673101607978L74.73649618055555,75.37955791446295L74.7902875,75.3641021230095L75.15810381944445,75.35019191070276L75.42560659722223,75.24917271959461L75.50702048611112,75.24675544763433L75.60588020833333,75.24457990287021L75.90100555555556,75.06562191253428L76.2324763888889,75.17005972130654L76.38803506944444,75.26405374919668L76.55522430555556,74.81764837418808L76.70787534722221,74.41588353669722L76.89977951388889,73.87729518294057L76.91141006944444,73.39256566457611L77.10331423611112,72.69080909802673L77.31702569444445,72.23622818817059L77.44786944444445,72.00410536932893L77.59906666666666,70.99869483230022L77.63977361111111,70.71332534904573L78.12534930555556,69.3059928140325L78.14279513888889,68.1278935325474L78.17041770833333,67.06760417922638L78.1951326388889,66.37884376126497L78.27363888888888,66.90945938516533L78.32743020833334,65.52851344658586L78.38122152777778,63.93166210186175L78.56004131944445,62.14049589160945L78.71269236111111,61.324946302421424L79.03398645833333,60.325451672149384L79.06451666666666,58.629406504888806L79.27095902777778,57.8109658543801L79.37854166666666,56.27786926890866L79.64604444444444,55.960082342011574L80.44564513888889,54.25807410778036L80.47617534722222,52.72626669697797L80.50961319444446,51.25914002725919L80.66371805555555,50.204226024519684L80.79456180555555,49.34330342205773L81.08241805555555,48.65697307984479L81.19581597222222,47.68527577185117L81.34701319444444,46.899248194659435L81.371728125,46.28032337518877L81.46913402777778,45.72329103766609L81.77298229166666,45.48746193389803L81.81514305555555,45.009715740505584L82.3297951388889,44.22574416645111L82.37340972222222,43.52016974980282L82.53042222222221,43.150652774821054L82.6510892361111,42.464087497336436L82.73395694444444,41.934678747601055L83.16283368055555,41.63521087284008L83.58007986111112,41.36568978555539L83.97988020833334,41.12312080699925L84.1427079861111,40.72780872629846L84.60211493055556,40.549027853668235L84.96120833333333,40.211125068300845L84.98446944444444,39.90701256147028L85.36973159722223,39.89881130532325L85.54418993055555,39.891430174790884L85.74917847222223,39.7077871573116L86.20713159722222,39.36550844158006L86.79738229166666,39.14595759742184L86.91223402777777,38.85986183767943L87.05325451388889,38.69087565391135L87.09832291666666,38.45028808852007L87.259696875,38.322259279667975L87.66095104166668,38.207033351701114L87.95753020833334,38.368830016531064L88.19450277777777,38.16044701487789L88.20031805555556,37.972902313389994L88.24829409722223,37.89261208205096L88.27737048611111,37.820350873845825L88.38349930555556,37.75531578646124L88.74259270833333,37.785284207815124L89.039171875,37.72375578703358L89.078425,37.71263020833021L89.18019236111111,37.83536718749721L89.46804861111112,37.68033046874746L89.49130972222223,37.540797421872696L90.33307118055556,37.50371767968542L90.79247812499999,37.38184591171688L90.81864687500001,37.40491132054515L91.12394895833333,37.38142018849061L92.34515729166667,37.27177816964155L92.47454722222223,37.3501003526774L92.52106944444445,37.33209031740964L92.62574444444445,37.492881285668716L92.66499756944445,37.46059315710184L92.67081284722222,37.431533841391655L92.76240347222222,37.44963045725248L93.03572152777778,37.59866741152723L93.15202708333332,37.55580067037451L93.33666215277778,37.51722060333705L93.34683888888888,37.482498543003345L93.41080694444445,37.362748688702965L93.487859375,37.60897381983267L94.23221493055556,37.56507643784943L94.44738020833333,37.70256879406449L94.9504017361111,37.91481191465803L94.96348611111111,37.92883072319225L95.04053854166668,37.764447650872995L95.23680416666667,37.61650288578568L95.45633090277778,37.66035259720712L96.41585173611111,37.788317337486404L96.43911284722222,37.90348560373778L96.55396458333334,37.830137043364005L96.67899305555557,37.675623339027595L97.84495625,37.62506100512485L98.25784097222223,37.57955490461234L98.33489340277778,37.804099414151096L98.37996180555557,37.740689472735994L98.43229930555556,37.772120525462384L98.48899826388889,37.977408472916125L98.68962534722222,37.98516762562451L98.78412361111111,37.99215086306208L98.81756145833333,38.175435776755876L98.97166631944445,38.074892199080296L99.12431736111111,38.07290297917223L99.19119305555556,37.982612681255006L99.62006979166667,37.901351413129504L100.08819965277777,38.00521627181655L100.710434375,38.01019464463488L100.82528611111111,38.014675180171395L101.00846736111112,37.84170766215425L101.77753784722222,37.68603689593883L101.85022881944445,37.545933206344955L101.98543402777779,37.508339885710456L102.00869513888888,37.47450589713938L102.05230972222222,37.44405530742546L102.15843854166667,37.32814977668292L102.68326736111112,37.4008347990146L102.95949305555555,37.28925131911316L103.19210416666667,37.719826187201846L103.41744618055556,37.57634356848163L103.55265138888889,37.447209211633464L103.63261145833334,37.41948829047013L104.38278229166666,37.306039461423126L104.39441284722221,37.38093551528081L104.609578125,37.53684196375275L104.67790763888888,37.67715776737745L105.10096909722222,37.626441990639705L105.18965208333334,37.49229779157574L105.41790173611112,37.28306801241817L105.66795868055556,37.27176121117634L105.99361423611111,37.35008509005871L106.04159027777777,37.42057658105284L106.26402465277778,37.30701892294755L106.28583194444444,37.20481703065278L106.81066076388888,37.64383532758751L107.15666979166666,37.596451794828766L107.16684652777778,37.55380661534588L107.17266180555555,37.5154259538113L107.17847708333333,37.48088335843016L107.383465625,37.538295022587135L107.44743368055555,37.41296552032844L107.68876770833333,37.388668968295605L107.74110520833334,37.455302071466036L107.7629125,37.51527186431943L107.93446319444445,37.480744677887486L108.58868194444445,37.715170210098734L108.75732500000001,37.57215318908885L108.94632152777777,37.44343787017996L109.01174340277778,37.327594083161955L109.31849930555555,37.22333467484577L109.47260416666667,37.12950120736119L109.82733611111111,37.310551086625054L109.83896666666666,37.296495977962536L110.07448541666668,37.283846380166295L110.15153784722223,37.18396174214968L110.98166875,37.094065567934706L111.22881805555555,37.10165901114121L111.24917152777778,37.1084931100271L111.37565381944445,37.02614379902437L111.6358875,36.95202941912194L111.68386354166667,36.88532647720973L111.94409722222221,36.91379382948878L112.38024305555555,36.85091444653986L112.38896597222222,36.794323001885886L112.64919965277777,36.74339070169728L113.05045381944444,36.697551631527574L113.82824722222223,36.65629646837482L114.03905104166667,36.619166821537334L114.20769409722223,36.58575013938358L114.33126875,36.73267512544524L114.44466666666668,36.7764076129007L114.48391979166666,36.9042668516106L114.50863472222223,36.93084016644954L115.23699826388888,36.999006149804586L115.30532777777779,37.016105534824106L115.48123993055555,36.94299498134171L115.783634375,36.877195483207544L115.82724895833333,36.81797593488676L116.56724305555555,36.720428341398076L116.57596597222222,36.588385507258266L116.60795,36.46954695653244L116.73879375,36.45109226087919L116.99757361111111,36.43448303479127L118.05886180555557,36.331034731312144L118.1620829861111,36.326431258180946L118.39760173611111,36.23378813236283L118.53716840277778,36.41590931912654L118.74942604166667,36.31431838721389L119.41672916666666,36.22288654849251L119.53303472222223,36.40609789364325L119.96481909722222,36.305488104278936L120.0098875,36.214939293851046L120.48528645833332,36.39894536446593L120.703359375,36.47605082801934L120.98830798611111,36.45694574521741L121.18893506944444,36.439751170695644L121.29070243055556,36.42427605362607L121.29215625,36.41034844826348L121.41427708333335,36.39781360343713L121.64398055555556,36.38653224309343L121.92602152777778,36.553379018784085L122.10484131944445,36.703541116905654L122.26476145833334,36.75018700521508L122.44939652777778,36.880668304693586L122.86518888888888,36.99810147422423L122.87972708333334,37.1037913268018L123.12106111111112,37.37591219412161L123.41473263888888,37.178320974709436L123.93229236111111,38.41648887723849L124.000621875,38.20333998951463L124.23032534722223,37.923005990563155L124.27539374999999,37.67070539150683L124.44985208333334,37.443634852356155L124.5109125,37.504771367120526L124.60686458333333,37.47129423040849L124.89472083333334,37.97216480736765L125.10116319444445,38.157448326630856L125.46316423611111,38.058703493967755L126.17408194444444,38.05833314457098L126.408146875,37.88099983011389L126.44885381944444,37.98689984710251L126.51427569444445,38.08220986239223L127.12342604166668,37.81398887615302L128.31991944444445,37.749589988537736L128.34608819444443,37.691630989683944L128.48710868055556,37.462467890715544L128.5612534722222,37.433221101643994L128.79531840277778,37.31839899147957L129.28816319444445,37.215059092331614L129.37393854166666,37.12205318309847L129.6399875,37.03834786478862L129.66034097222223,36.96301307830976L130.05287222222222,37.24921177047878L130.08340243055557,37.10854059343089L130.43668055555557,36.849186534087806L130.55153229166666,36.704267880679026L130.72162916666667,36.573841092611104L131.51686840277776,36.456456983349995L131.68841909722224,36.43931128501498L131.79890937500002,36.42388015651346L132.1754486111111,36.32149214086212L132.2932079861111,36.31784292677588L132.92125798611113,36.27030863409831L133.1044392361111,36.3602777706885L133.14223854166667,36.44124999361961L133.31088159722222,36.51412499425766L133.53476979166666,36.4912124948319L133.61618368055557,36.382091245348704L133.6903284722222,36.283882120813814L133.72231250000002,36.28399390873244L133.77028854166667,36.195594517859206L133.8066340277778,36.20453506607328L134.18462708333334,36.124081559465964L134.1875347222222,36.051673403519345L134.33582430555558,36.07500606316742L134.3401857638889,36.09600545685066L134.56407395833332,35.93790491116559L134.80395416666667,35.97261442004904L135.02202708333334,36.00385297804414L135.21974652777777,36.03196768023972L135.46689583333335,36.10152091221573L135.66897673611112,36.031368820994174L136.35372569444445,35.968231938894746L136.36099479166666,35.911408745005275L136.42932430555558,35.86026787050474L136.51655347222223,35.81424108345425L136.54999131944444,35.77281697510884L136.93234583333333,35.912535277597954L136.94252256944446,36.03828174983815L137.97037291666666,35.97445357485432L138.36290416666668,36.005508217368885L138.79614236111112,35.944957395632L138.8223111111111,35.801961656068784L138.9386166666667,35.85026549046191L139.4634454861111,36.070738941415726L139.7120486111111,36.003665047274126L139.88505312499998,35.94329854254673L140.19471666666666,35.88896868829204L140.26886145833333,36.10557181946285L140.47821145833333,36.035014637516554L140.54654097222223,35.97151317376492L140.71663784722222,36.00286185638842L140.8852809027778,35.94257567074956L140.89545763888887,35.88831810367461L141.30979618055557,35.750986293307136L141.7924642361111,35.715887663976446L142.187903125,35.77279889757878L142.33183125000002,35.82401900782091L142.672025,35.78161710703881L142.77815381944444,35.74345539633492L142.86102152777778,35.709109856701446L143.60246944444444,35.67819887103127L143.70132916666668,35.91587898392814L143.81327326388887,35.864291085535314L143.8336267361111,35.81786197698179L143.89032569444444,35.77607577928359L143.93684791666666,35.73846820135523L144.53727534722222,35.70462138121968L144.79750902777778,36.02815924309772L145.34705277777778,35.965343318787944L145.42846666666665,35.90880898690915L145.43428194444445,35.857928088218216L145.52878020833333,35.9006352793964L145.6232784722222,35.93907175145674L145.95038784722223,35.97366457631108L145.9736489583333,36.00479811867996L146.18299895833334,35.85581830681198L146.2207982638889,35.72173647613076L146.27458958333332,35.601062828517684L146.83140243055556,35.58095654566594L146.859025,35.56286089109932L147.0073145833333,35.63507480198939L147.3911229166667,35.61156732179046L147.5554045138889,35.59041058961142L147.60628819444443,35.57136953065026L148.22125381944446,35.55423257758525L149.3610482638889,35.627309319826736L149.410478125,35.60457838784404L149.5253298611111,35.49562054905965L149.85389305555555,35.66305849415366L149.92949166666665,35.636752644738294L150.13302638888888,35.61307738026446L150.48630451388888,35.68026964223802L150.8526670138889,35.8292426780142L151.08673194444444,35.96331841021279L151.43855625,35.72998656919151L151.48507847222223,35.696987912272334L151.79328819444444,35.84428912104511L152.07242152777778,35.88836020894058L152.19599618055554,35.83952418804651L152.38790034722223,35.97257176924185L152.681571875,35.91531459231766L152.72809409722223,35.86378313308589L152.78188541666665,35.81740481977732L152.8981909722222,35.86416433779959L153.11771770833332,35.90624790401961L153.3910357638889,35.85562311361767L153.43610416666667,35.8985608022559L153.48408020833332,35.848704722030305L153.64981562499997,35.84808424982728L153.74140625,35.80327582484455L154.08450763888888,35.762948242360096L154.12666840277777,35.72665341812407L155.24029409722223,35.782488076311665L155.25919375,35.832739268680484L155.36386875,35.789465341812445L155.57176493055556,35.75051880763118L156.13148541666666,35.71546692686806L156.214353125,35.683920234181244L156.3684579861111,35.65552821076312L156.46295625,35.7184753896868L156.528378125,35.77512785071812L156.76535069444444,35.82611506564632L157.21312708333335,35.7392535590817L157.993828125,35.705328203173536L158.1988166666667,35.67479538285616L158.84867395833334,35.558815844570546L158.9722486111111,35.5429342601135L158.9955097222222,35.52864083410216L159.55086875,35.51577675069194L159.57558368055555,35.50419907562275L159.76458020833334,35.493779168060456L159.88233958333333,35.3959012512544L159.9724763888889,35.30781112612897L160.26614791666668,35.317030013516046L160.57581145833333,35.41382701216443L161.48299479166667,35.50094431094797L161.51207118055558,35.49084987985319L161.8115579861111,35.48176489186787L162.06452256944445,35.47358840268109L162.28259548611112,35.55472956241297L162.311671875,35.62775660617166L162.31603333333334,35.693480945554484L162.4396079861111,35.66413285099904L162.44396944444443,35.63771956589912L162.96589062500001,35.61394760930921L163.00368993055554,35.6810528483783L163.88906597222223,35.47594756354047L163.97484131944444,35.2913528071864L164.46623229166664,35.302217526467786L164.60725277777777,35.311995773820996L164.96779999999998,35.32079619643889L165.5929423611111,35.417216576795L166.28932187499998,35.50399491911551L166.51611770833333,35.405095427203946L166.87666493055556,35.316085884483556L167.0322236111111,35.412977296035194L167.2735576388889,35.41167956643167L167.45819270833334,35.4105116097885L167.65736597222224,35.32096044880964L167.7387798611111,35.06336440392869L167.78530208333333,35.09702796353582L167.88852326388889,35.12732516718222L168.44097465277778,35.066092650464014L168.57036458333334,35.099483385417614L168.60380243055553,35.04103504687586L169.0821090277778,34.988431542188266L169.4223027777778,35.118088387969436L169.51680104166667,35.23477954917249L170.12449756944446,35.07430159425522L170.32512465277776,35.106871434829685L170.42689201388887,35.04768429134671L170.528659375,35.08291586221205L170.70311770833334,35.02612427599084L170.7670857638889,35.063511848391755L170.96480520833333,35.097160663552586L171.1770628472222,35.30444459719732L171.25556909722224,35.31400013747759L171.37187465277776,35.23410012372983L171.53179479166667,35.51619011135682L171.75422916666668,35.59307110022115L171.8603579861111,35.48526399019903L172.13949131944443,35.47673759117913L172.24125868055555,35.55756383206119L172.31249583333332,35.54180744885508L173.08592777777778,35.52762670396956L173.74160034722223,35.3378640335726L173.89570520833334,34.99007763021535L173.89861284722224,34.67706986719381L174.29114409722223,34.57236288047443L174.872671875,34.56662659242701L175.2826489583333,34.4729639331843L175.31608680555556,34.65416753986585L175.55160555555557,34.64025078587926L175.7071642361111,34.80472570729134L175.79293958333332,34.59875313656221L175.80602395833333,34.41337782290597L175.90924513888888,34.512040040615375L176.01828159722223,34.51233603655385L176.1389486111111,34.60110243289847L176.2538003472222,34.503992189608596L176.4006361111111,34.593592970647734L176.4297125,34.58573367358298L176.54020277777778,34.57866030622469L176.62307048611112,34.48379427560221L176.63906250000002,34.398414848041995L177.25548194444445,34.410073363237785L177.28455833333334,34.42056602691403L177.81374861111112,34.5185094242226L178.10742013888887,34.60665848180034L178.15394236111112,34.685992633620316L178.2324486111111,34.845893370258295L178.36329236111112,34.81280403323245L178.6467871527778,34.69452362990921L178.69185555555558,34.49957126691831L178.77181562500002,34.63386414022645L178.82269930555555,34.710477726203806L178.83723750000001,34.77942995358342L179.12073229166666,34.75298695822508L179.49291006944443,34.817688262402555L179.57287013888887,34.87591943616229L180.1980125,34.83982749254608L180.6763190972222,34.71884474329147L180.76064062499998,34.60996026896234L181.29855381944444,34.77746424206609L181.44975104166667,34.83971781785948L181.47010451388888,34.80724603607351L181.49772708333333,34.86652143246616L181.55733368055556,34.831369289219566L181.57768715277777,34.88823236029759L181.59949444444445,34.58540912426781L181.61839409722222,34.666868211841035L181.67509305555555,34.74018139065694L181.8640895833333,34.62916325159125L182.1141465277778,34.61774692643212L182.3598420138889,34.34197223378891L182.6157142361111,34.182275010410024L182.749465625,34.30404750936901L182.85414062499999,34.325142758432094L182.87449409722223,34.3441284825889L183.48800590277776,34.449715634330005L183.57087361111113,34.544744070896996L183.74969340277778,34.71876966380728L184.005565625,34.786892697426566L184.15094756944444,34.75970342768389L184.3006909722222,34.73523308491551L184.78626666666665,34.53620977642396L185.74724131944444,34.53408879878157L185.80539409722223,34.53217991890341L185.8533701388889,34.53046192701305L186.12087291666668,34.48466573431176L186.7431076388889,34.48769916088057L186.94228090277778,34.667429244792515L187.8959864583333,34.56368632031325L187.89744027777778,34.47031768828191L187.98176180555555,34.56328591945373L188.27252569444443,34.646957327508346L188.38737743055555,34.545261594757534L188.7392017361111,34.27673543528178L189.08957222222222,34.21206189175359L189.2756611111111,34.065355702578216L189.32363715277776,33.84482013232039L189.605678125,33.911838119088344L189.69290729166667,33.972154307179494L189.84991979166668,33.937938876461544L189.90225729166667,34.08414498881538L189.92987986111112,34.21573048993386L190.06944652777779,33.980157440940474L190.73384201388888,33.945141696846406L190.7934486111111,33.913627527161765L190.92138472222223,33.973764774445584L191.24413263888889,34.02788829700103L191.4665670138889,34.07659946730092L191.7413388888889,34.03193952057083L191.78204583333334,34.08024556851373L192.588915625,34.123721011662354L192.8709565972222,34.25134891049612L192.92765555555556,34.189214019446524L193.216965625,34.31029261750183L193.82756979166666,34.153763355751664L194.03255833333336,34.189887020176485L194.21573958333332,34.22239831815884L194.4367201388889,34.07465848634294L194.78418298611112,34.11869263770865L195.23777465277777,34.069823373937766L195.4805625,34.114341036544005L195.49219305555553,34.1544069328896L196.00539131944444,34.05771623960064L196.4066454861111,34.10344461564057L196.48369791666667,34.14460015407653L197.00271145833335,34.09314013866884L197.02015729166666,34.13532612480196L197.37925069444444,34.17329351232178L197.38942743055557,34.207464161089575L197.54353229166668,34.06121774498064L197.77759722222223,34.19509597048258L197.90844097222222,34.05008637343428L198.37947847222222,33.91957773609087L198.6280815972222,33.802119962481754L198.69931875,33.8734079662336L198.7545638888889,33.760567169610226L198.80399375000002,33.6590104526492L198.85923888888888,33.833109407384256L198.9159378472222,33.90129846664584L199.08458090277776,34.05116861998127L199.19797881944444,34.18605175798314L199.21833229166666,34.30744658218481L199.24304722222223,34.416701923966315L199.4000597222222,34.338031731569686L200.09789305555557,34.17872855841273L200.37411875,34.12385570257143L200.54276180555556,34.251470132314296L200.86260208333331,34.18932311908284L200.90476284722223,34.13339080717458L201.57497361111112,34.171551726457096L201.94860520833333,34.205896553811385L201.99076597222222,34.32530689843023L202.07944895833333,34.255776208587235L202.52141006944444,34.19319858772846L202.7656517361111,34.402378728955625L203.50564583333332,34.325140856060074L203.52745312500002,34.25562677045406L203.9592375,34.547064093408636L204.77773784722223,34.543857684067774L204.8649670138889,34.36397191566098L205.26912881944446,34.73307472409488L205.27058263888887,35.065267251685384L205.4319565972222,34.833240526516846L205.47266354166666,34.801416473865174L205.51627812499999,34.68427482647863L205.57588472222224,34.93284734383079L205.7445277777778,34.89106260944769L206.20393472222221,35.03045634850292L206.26499513888888,34.89041071365264L206.31733263888887,34.76436964228739L206.74184791666667,34.65093267805864L206.78691631944446,34.548839410252754L207.21288541666667,34.368455469227484L207.348090625,34.47160992230474L207.36553645833334,34.56444893007426L207.5181875,34.47100403706682L207.99649409722224,34.56390363336013L208.78301041666666,34.4705132700241L208.81790208333334,34.297961943021704L208.865878125,34.14266574871954L209.50119722222223,33.914399173847585L209.59714930555555,33.97445925646281L209.63785625,34.02851333081654L210.1248857638889,33.98866199773491L210.38511944444443,33.864295797961375L210.45635659722222,33.929366218165256L210.46071805555556,33.98792959634872L210.47671006944447,34.04063663671383L210.540678125,33.91107297304242L210.8677875,33.794465675738195L211.22688090277776,33.77801910816436L212.90458854166667,33.76321719734793L213.25786666666664,33.66139547761313L213.61841388888888,33.746755929851815L213.69546631944445,33.646580336866634L213.8539326388889,33.64492230317995L214.047290625,33.731930072861985L214.31479340277778,33.63323706557577L214.50088229166667,33.632913359018204L214.57793472222224,33.54412202311639L214.6389951388889,33.64120982080473L214.79746145833332,33.55158883872426L214.80763819444445,33.47092995485184L214.85416041666664,33.486836959366656L214.9006826388889,33.501153263429984L214.989365625,33.51403793708698L215.015534375,33.525634143378284L215.329559375,33.44757072904045L215.60869270833334,33.5543136561364L215.75988993055554,33.56188229052276L215.85002673611112,33.56869406147047L216.10299131944444,33.574824655323425L216.4053857638889,33.757342189791075L216.83280868055556,33.833107970811966L216.89096145833332,33.812797173730786L217.082865625,33.88301745635769L217.2108017361111,33.85771571072192L217.22824756944445,33.834944139649735L217.23987812500002,33.81444972568474L217.28058506944444,34.06150475311625L217.3503684027778,33.92985427780465L217.41288263888887,33.98836885002419L217.59751770833333,33.952531965021734L217.8184982638889,33.92027876851955L217.96533402777777,33.97975089166761L218.17759166666667,34.03327580250084L218.31425069444444,34.16994822225075L218.53377743055557,34.38145340002569L219.09640555555555,34.39480806002308L219.1400201388889,34.31832725402077L219.42060729166667,34.33799452861871L219.50783645833334,34.79819507575684L219.54418194444446,34.59287556818114L220.2420152777778,34.58508801136304L220.25800729166667,34.57807921022672L220.5167871527778,34.483271289204055L220.550225,34.48644416028364L220.59529340277777,34.48929974425528L220.80173576388887,34.40336976982974L220.8220892361111,34.326032792846746L221.7176420138889,34.43342951356206L221.96479131944443,34.264586562205864L222.3137079861111,34.28962790598527L222.3369690972222,34.31216511538673L222.53323472222223,34.24394860384808L222.735315625,34.09405374346326L222.89814340277778,34.22464836911695L223.15692326388887,34.16518353220525L223.20344548611112,34.11166517898471L223.3081204861111,34.15199866108625L223.68611354166666,34.18829879497761L223.89982500000002,34.04396891547984L224.436284375,34.179572023931854L224.4551840277778,34.03611482153869L224.57875868055555,34.08400333938482L224.82736180555557,34.03860300544633L225.09486458333333,34.08624270490168L225.12830243055555,33.95211843441152L225.13557152777778,33.831406590970374L225.16464791666667,33.72276593187334L225.31875277777777,33.801989338685985L225.81886666666668,33.873290404817396L226.23756666666668,33.93746136433566L226.61119826388887,34.172215227902086L227.10113541666666,34.20649370511188L227.20435659722224,34.14884433460068L227.3177545138889,34.14120990114063L227.7757076388889,34.00158891102657L227.7829767361111,33.875930019923885L227.80478402777777,33.7628370179315L228.28454444444444,33.74955331613836L228.3310666666667,33.73759798452451L228.61746909722223,33.63833818607205L228.95184756944445,33.549004367464875L229.07251458333332,33.46860393071839L229.10013715277776,33.39624353764654L229.24988055555554,33.5966191838819L229.3327482638889,33.86545726549369L229.65549618055556,33.841911538944345L229.93172187500002,33.99772038504992L230.350421875,34.04944834654489L230.39112881944445,34.096003511890416L230.51615729166667,34.1379031607014L231.0700625,34.087112844631235L231.1020465277778,34.04140156016811L231.53383090277777,34.0002614041513L231.74463472222223,34.05173526373616L231.81151041666666,34.09806173736254L232.57621944444443,34.051255563626285L232.63437222222223,33.83213000726366L232.6460027777778,33.63491700653731L232.67798680555555,33.811425305883546L232.692525,33.9702827752952L232.80301527777777,33.936254497765674L232.8524451388889,33.72862904798913L232.97892743055556,33.80726614319019L233.02399583333332,33.8780395288712L233.70292951388888,33.85323557598406L233.96025555555556,33.653912018385654L234.0503923611111,33.65152081654708L234.38913229166667,33.47236873489237L234.39785520833334,33.31113186140314L235.3064923611111,33.16601867526282L235.3588298611111,33.30091680773654L235.4998503472222,33.422325126962846L235.7804375,33.44309261426659L235.80515243055555,33.461783352839916L235.80660625000002,33.478605017555935L236.2412982638889,33.49374451580033L236.2936357638889,33.59587006422032L236.6120222222222,33.68778305779827L236.81701076388887,33.77050475201841L237.24443368055557,33.66795427681657L237.47122951388891,33.75265884913492L237.67912569444445,33.74039296422143L237.80415416666665,33.7293536677993L237.81869236111112,33.719418301019346L238.02368090277778,33.71047647091743L238.08910277777778,33.52542882382568L238.1254482638889,33.447385941443116L238.3086295138889,33.3771473472988L238.410396875,33.40243261256893L238.6560923611111,33.336689351312L238.75640590277777,33.277520416180806L238.84218124999998,33.13576837456273L239.01518576388887,33.53919153710643L239.195459375,33.636772383395794L239.22598958333333,33.72459514505621L240.2887315972222,33.80363563055059L240.77139965277777,33.7862720674955L240.78739166666668,33.77064486074596L240.91532777777778,33.668080374671376L240.9720267361111,33.57577233720423L241.03163333333333,33.669695103483775L241.236621875,33.636225233028L241.7890732638889,33.7241027097252L241.91555555555556,33.62619243875267L242.34733993055556,33.89207319487738L243.21963159722222,33.688865875389666L243.3068607638889,33.682979287850685L243.32139895833333,33.677681359065616L243.5031263888889,33.76141322315905L244.33471111111112,33.83677190084316L244.51789236111114,33.90459471075883L244.6618204861111,33.87713523968296L244.85953993055557,33.76392171571467L245.0369059027778,33.83902954414319L245.12122743055556,33.729626589728866L245.22154097222221,33.719663930755985L245.22735625,33.710697537680375L245.3741920138889,33.61412778391232L245.4992204861111,33.5272150055211L245.52102777777776,33.448993504968996L246.33952812500002,33.3785941544721L246.50380972222223,33.84623473902488L246.68989861111112,33.82461126512237L246.7117059027778,33.89365013861013L246.81347326388888,33.867285124749145L246.98502395833333,34.02055661227419L247.05916875000003,33.89300095104679L247.15948229166668,33.95520085594211L247.16529756944445,34.01118077034789L247.93146041666668,33.884562693313114L247.95908298611113,33.859106423981814L248.07538854166665,33.747695781583616L248.25275451388887,33.647426203425226L248.40540555555555,33.73418358308271L248.6656392361111,33.90076522477443L248.68599270833334,34.05068870229701L248.73833020833334,34.18561983206729L248.79793680555554,34.30705784886055L248.93459583333333,34.32785206397449L249.00583298611113,34.346566857577045L249.0290940972222,34.27491017181933L249.14685347222223,34.6529191546374L249.26752048611112,34.63912723917366L249.39400277777779,34.71521451525629L249.42017152777777,34.78369306373068L249.6164371527778,34.579823757357616L249.81415659722222,34.48484138162186L250.3767847222222,34.31085724345965L250.43057604166665,34.24277151911369L250.81874583333334,34.09299436720232L251.11823263888888,34.04669493048206L251.17202395833334,34.00502543743386L252.32054131944443,34.144522893690464L252.4179472222222,34.00457060432143L252.50663020833332,33.87861354388929L252.65346597222222,33.94225218950035L252.96458333333334,34.17652697055033" style="fill: none;" fill="none"></path></g></g></g></g><g opacity="0.2"><g><g><g><path stroke="rgb(255, 112, 67)" stroke-width="2px" d="M29.138903125000002,153.99L29.320630555555557,151.335L29.41076736111111,148.68L29.766953125,142.485L29.857089930555556,142.485L29.919604166666666,137.175L29.92978090277778,137.175L29.999564236111112,137.175L30.01846388888889,150.45L30.115869791666665,146.025L30.252528819444446,139.82999999999998L30.552015625000003,143.37L31.015784027777777,140.715L31.09138263888889,137.175L31.101559375,140.715L31.165527430555557,127.44L31.598765625,121.245L31.60312708333333,121.245L31.806661805555553,129.20999999999998L31.86481458333333,126.555L32.03781909722222,127.44L32.431804166666666,139.82999999999998L32.55101736111111,126.555L32.69058402777778,122.13L32.692037847222224,122.13L32.981347916666664,121.6875L33.49454618055555,125.67L33.77367951388889,140.715L33.796940625,132.75L33.88271597222222,123.9L34.33776145833333,129.20999999999998L34.340669097222225,129.20999999999998L34.413360069444444,134.52L34.63288680555555,122.13L34.82915243055555,127.44L35.35398125,128.76749999999998L35.47464826388889,142.485L35.608399652777784,134.52L35.63311458333333,135.405L35.875902430555556,123.9L36.03873020833333,135.405L36.30477916666666,125.67L36.54175173611111,129.20999999999998L36.84850763888889,138.06L36.868861111111116,123.9L37.39805138888889,123.9L37.60303993055556,121.245L37.665554166666666,125.67L37.78622118055555,117.705L38.09152326388889,116.82L38.119145833333334,120.36L38.81697916666667,118.59L38.834425,118.59L39.042321180555554,115.935L39.20514895833333,116.82L39.47992083333334,114.165L39.92333576388889,118.59L39.92769722222222,111.51L40.414726736111106,108.855L40.46561041666667,116.82L40.80435034722222,87.615L40.97008576388889,123.9L41.02969236111111,122.13L41.43240034722223,85.845L41.44693854166666,85.845L41.58214375,90.27L41.98485173611111,84.96L42.06771944444445,81.41999999999999L42.540210763888886,80.535L42.84260520833334,87.615L42.96763368055556,100.005L42.986533333333334,83.19L43.17698368055556,76.995L44.196111111111115,76.995L44.312416666666664,78.76499999999999L44.374930902777784,76.11000000000001L44.49850555555555,76.995L44.75001631944444,76.11000000000001L44.92738229166667,77.88L44.931743749999995,77.88L45.02042673611111,82.30499999999999L45.098932986111116,76.995L45.21814618055556,76.11000000000001L45.843288541666666,76.995L45.89271840277778,75.22500000000001L46.06572291666667,76.11000000000001L46.17330555555555,76.11000000000001L46.47860763888889,76.11000000000001L46.485876736111116,76.11000000000001L46.76210243055555,76.995L46.945283680555555,76.995L47.79867569444444,78.76499999999999L48.026925347222225,76.11000000000001L48.06617847222222,78.3225L48.845425694444444,76.11000000000001L48.87886354166667,76.11000000000001L49.15508923611111,77.88L49.75260902777778,76.995L49.85873784722222,76.995L49.92270590277778,76.995L50.08117222222222,76.11000000000001L50.358851736111106,76.995L50.40246631944444,80.535L50.56384027777778,76.995L50.70049930555555,76.11000000000001L51.57279097222222,76.995L51.62222083333334,76.995L51.99585243055556,77.88L52.507596875,77.88L52.80562986111111,77.88L53.58487708333334,75.22500000000001L53.88872534722222,78.76499999999999L53.93379375,78.76499999999999L54.25363402777778,76.11000000000001L54.28561805555555,76.995L54.58219722222222,76.11000000000001L54.602550694444446,78.76499999999999L55.90226527777777,76.995L56.86905520833333,76.995L56.94610763888889,76.11000000000001L57.47239027777778,76.11000000000001L57.63085659722222,76.11000000000001L57.651210069444446,76.11000000000001L57.763154166666666,75.22500000000001L58.1469625,77.88L58.23128402777778,76.11000000000001L58.24436840277778,76.11000000000001L58.35485868055555,76.11000000000001L58.50896354166667,76.11000000000001L58.52059409722222,76.11000000000001L58.62381527777778,76.11000000000001L58.79391215277778,76.995L58.937840277777774,76.11000000000001L58.99453923611111,76.11000000000001L59.28675694444445,76.11000000000001L59.29111840277778,76.11000000000001L59.39724722222222,74.34L59.724356597222226,75.22500000000001L59.81740104166666,75.22500000000001L59.94533715277778,76.11000000000001L60.07181944444445,77.88L60.36839861111111,76.11000000000001L60.840889930555555,77.88L61.41805625,77.88L61.541630902777776,78.76499999999999L61.58233784722222,76.11000000000001L62.71631701388889,77.88L62.73085520833333,77.88L62.79482326388889,74.34L62.83262256944444,76.11000000000001L62.93148229166666,76.995L63.040518750000004,76.995L63.136470833333334,76.995L63.300752430555555,77.88L63.48974895833334,76.11000000000001L63.50574097222222,76.995L63.53481736111111,76.995L63.87937256944444,76.11000000000001L64.18322083333334,76.11000000000001L64.37948645833333,76.11000000000001L64.38239409722223,76.11000000000001L64.43763923611111,75.22500000000001L64.87233125,76.11000000000001L65.01480555555555,75.22500000000001L65.02643611111111,75.22500000000001L65.27940069444445,74.34L65.3273767361111,74.34L65.79114513888888,76.11000000000001L65.905996875,76.995L65.99177222222222,76.11000000000001L66.60383020833333,76.11000000000001L66.65471388888889,75.22500000000001L66.76229652777776,75.22500000000001L67.31765555555556,75.22500000000001L68.03584236111111,75.22500000000001L68.03729618055554,75.22500000000001L68.55485590277777,75.22500000000001L68.56212500000001,75.22500000000001L69.06514652777778,75.22500000000001L69.20762083333334,76.11000000000001L69.2585045138889,75.22500000000001L69.53036875,75.22500000000001L69.66266631944444,76.11000000000001L70.42156006944444,74.34L70.57421111111111,76.11000000000001L71.19499201388888,75.22500000000001L71.23279131944444,76.11000000000001L71.32874340277777,76.11000000000001L71.53082430555556,76.11000000000001L71.6209611111111,77.88L71.92335555555556,75.22500000000001L71.94661666666666,75.22500000000001L72.12689027777778,75.22500000000001L72.44382291666666,75.22500000000001L72.69969513888888,76.11000000000001L72.73749444444445,75.22500000000001L72.945390625,75.22500000000001L73.16782500000001,74.34L73.37572118055556,75.22500000000001L73.58216354166667,75.22500000000001L73.71882256944444,75.22500000000001L73.73917604166667,75.22500000000001L74.73649618055555,75.22500000000001L74.7902875,75.22500000000001L75.15810381944445,75.22500000000001L75.42560659722223,74.34L75.50702048611112,75.22500000000001L75.60588020833333,75.22500000000001L75.90100555555556,73.45500000000001L76.2324763888889,76.11000000000001L76.38803506944444,76.11000000000001L76.55522430555556,70.8L76.70787534722221,70.8L76.89977951388889,69.03L76.91141006944444,69.03L77.10331423611112,66.375L77.31702569444445,68.145L77.44786944444445,69.915L77.59906666666666,61.95L77.63977361111111,68.145L78.12534930555556,56.639999999999986L78.14279513888889,57.52499999999999L78.17041770833333,57.52499999999999L78.1951326388889,60.17999999999999L78.27363888888888,71.685L78.32743020833334,53.10000000000001L78.38122152777778,49.56L78.56004131944445,46.02000000000001L78.71269236111111,53.985000000000014L79.03398645833333,51.33000000000001L79.06451666666666,43.36500000000001L79.27095902777778,50.44500000000001L79.37854166666666,42.47999999999999L79.64604444444444,53.10000000000001L80.44564513888889,38.94L80.47617534722222,38.94L80.50961319444446,38.05500000000001L80.66371805555555,40.71000000000001L80.79456180555555,41.595L81.08241805555555,42.47999999999999L81.19581597222222,38.94L81.34701319444444,39.82499999999999L81.371728125,40.71000000000001L81.46913402777778,40.71000000000001L81.77298229166666,43.36500000000001L81.81514305555555,40.71000000000001L82.3297951388889,37.16999999999999L82.37340972222222,37.16999999999999L82.53042222222221,39.82499999999999L82.6510892361111,36.285L82.73395694444444,37.16999999999999L83.16283368055555,38.94L83.58007986111112,38.94L83.97988020833334,38.94L84.1427079861111,37.16999999999999L84.60211493055556,38.94L84.96120833333333,37.16999999999999L84.98446944444444,37.16999999999999L85.36973159722223,39.82499999999999L85.54418993055555,39.82499999999999L85.74917847222223,38.05500000000001L86.20713159722222,36.285L86.79738229166666,37.16999999999999L86.91223402777777,36.285L87.05325451388889,37.16999999999999L87.09832291666666,36.285L87.259696875,37.16999999999999L87.66095104166668,37.16999999999999L87.95753020833334,39.82499999999999L88.19450277777777,36.285L88.20031805555556,36.285L88.24829409722223,37.16999999999999L88.27737048611111,37.16999999999999L88.38349930555556,37.16999999999999L88.74259270833333,38.05500000000001L89.039171875,37.16999999999999L89.078425,37.61250000000001L89.18019236111111,38.94L89.46804861111112,36.285L89.49130972222223,36.285L90.33307118055556,37.16999999999999L90.79247812499999,36.285L90.81864687500001,37.61250000000001L91.12394895833333,37.16999999999999L92.34515729166667,36.285L92.47454722222223,38.05500000000001L92.52106944444445,37.16999999999999L92.62574444444445,38.94L92.66499756944445,37.16999999999999L92.67081284722222,37.16999999999999L92.76240347222222,37.61250000000001L93.03572152777778,38.94L93.15202708333332,37.16999999999999L93.33666215277778,37.16999999999999L93.34683888888888,37.16999999999999L93.41080694444445,36.285L93.487859375,39.82499999999999L94.23221493055556,37.16999999999999L94.44738020833333,38.94L94.9504017361111,39.82499999999999L94.96348611111111,38.05500000000001L95.04053854166668,36.285L95.23680416666667,36.285L95.45633090277778,38.05500000000001L96.41585173611111,38.94L96.43911284722222,38.94L96.55396458333334,37.16999999999999L96.67899305555557,36.285L97.84495625,37.16999999999999L98.25784097222223,37.16999999999999L98.33489340277778,39.82499999999999L98.37996180555557,37.16999999999999L98.43229930555556,38.05500000000001L98.48899826388889,39.82499999999999L98.68962534722222,38.05500000000001L98.78412361111111,38.05500000000001L98.81756145833333,39.82499999999999L98.97166631944445,37.16999999999999L99.12431736111111,38.05500000000001L99.19119305555556,37.16999999999999L99.62006979166667,37.16999999999999L100.08819965277777,38.94L100.710434375,38.05500000000001L100.82528611111111,38.05500000000001L101.00846736111112,36.285L101.77753784722222,36.285L101.85022881944445,36.285L101.98543402777779,37.16999999999999L102.00869513888888,37.16999999999999L102.05230972222222,37.16999999999999L102.15843854166667,36.285L102.68326736111112,38.05500000000001L102.95949305555555,36.285L103.19210416666667,41.595L103.41744618055556,36.285L103.55265138888889,36.285L103.63261145833334,37.16999999999999L104.38278229166666,36.285L104.39441284722221,38.05500000000001L104.609578125,38.94L104.67790763888888,38.94L105.10096909722222,37.16999999999999L105.18965208333334,36.285L105.41790173611112,35.400000000000006L105.66795868055556,37.16999999999999L105.99361423611111,38.05500000000001L106.04159027777777,38.05500000000001L106.26402465277778,36.285L106.28583194444444,36.285L106.81066076388888,41.595L107.15666979166666,37.16999999999999L107.16684652777778,37.16999999999999L107.17266180555555,37.16999999999999L107.17847708333333,37.16999999999999L107.383465625,38.05500000000001L107.44743368055555,36.285L107.68876770833333,37.16999999999999L107.74110520833334,38.05500000000001L107.7629125,38.05500000000001L107.93446319444445,37.16999999999999L108.58868194444445,39.82499999999999L108.75732500000001,36.285L108.94632152777777,36.285L109.01174340277778,36.285L109.31849930555555,36.285L109.47260416666667,36.285L109.82733611111111,38.94L109.83896666666666,37.16999999999999L110.07448541666668,37.16999999999999L110.15153784722223,36.285L110.98166875,36.285L111.22881805555555,37.16999999999999L111.24917152777778,37.16999999999999L111.37565381944445,36.285L111.6358875,36.285L111.68386354166667,36.285L111.94409722222221,37.16999999999999L112.38024305555555,36.285L112.38896597222222,36.285L112.64919965277777,36.285L113.05045381944444,36.285L113.82824722222223,36.285L114.03905104166667,36.285L114.20769409722223,36.285L114.33126875,38.05500000000001L114.44466666666668,37.16999999999999L114.48391979166666,38.05500000000001L114.50863472222223,37.16999999999999L115.23699826388888,37.61250000000001L115.30532777777779,37.16999999999999L115.48123993055555,36.285L115.783634375,36.285L115.82724895833333,36.285L116.56724305555555,35.8425L116.57596597222222,35.400000000000006L116.60795,35.400000000000006L116.73879375,36.285L116.99757361111111,36.285L118.05886180555557,35.400000000000006L118.1620829861111,36.285L118.39760173611111,35.400000000000006L118.53716840277778,38.05500000000001L118.74942604166667,35.400000000000006L119.41672916666666,35.400000000000006L119.53303472222223,38.05500000000001L119.96481909722222,35.400000000000006L120.0098875,35.400000000000006L120.48528645833332,38.05500000000001L120.703359375,37.16999999999999L120.98830798611111,36.285L121.18893506944444,36.285L121.29070243055556,36.285L121.29215625,36.285L121.41427708333335,36.285L121.64398055555556,36.285L121.92602152777778,38.05500000000001L122.10484131944445,38.05500000000001L122.26476145833334,37.16999999999999L122.44939652777778,38.05500000000001L122.86518888888888,38.05500000000001L122.87972708333334,38.05500000000001L123.12106111111112,39.82499999999999L123.41473263888888,35.400000000000006L123.93229236111111,49.56L124.000621875,36.285L124.23032534722223,35.400000000000006L124.27539374999999,35.400000000000006L124.44985208333334,35.400000000000006L124.5109125,38.05500000000001L124.60686458333333,37.16999999999999L124.89472083333334,42.47999999999999L125.10116319444445,39.82499999999999L125.46316423611111,37.16999999999999L126.17408194444444,38.05500000000001L126.408146875,36.285L126.44885381944444,38.94L126.51427569444445,38.94L127.12342604166668,35.400000000000006L128.31991944444445,37.16999999999999L128.34608819444443,37.16999999999999L128.48710868055556,35.400000000000006L128.5612534722222,37.16999999999999L128.79531840277778,36.285L129.28816319444445,36.285L129.37393854166666,36.285L129.6399875,36.285L129.66034097222223,36.285L130.05287222222222,39.82499999999999L130.08340243055557,35.8425L130.43668055555557,34.514999999999986L130.55153229166666,35.400000000000006L130.72162916666667,35.400000000000006L131.51686840277776,35.400000000000006L131.68841909722224,36.285L131.79890937500002,36.285L132.1754486111111,35.400000000000006L132.2932079861111,36.285L132.92125798611113,35.8425L133.1044392361111,37.16999999999999L133.14223854166667,37.16999999999999L133.31088159722222,37.16999999999999L133.53476979166666,36.285L133.61618368055557,35.400000000000006L133.6903284722222,35.400000000000006L133.72231250000002,36.285L133.77028854166667,35.400000000000006L133.8066340277778,36.285L134.18462708333334,35.400000000000006L134.1875347222222,35.400000000000006L134.33582430555558,36.285L134.3401857638889,36.285L134.56407395833332,34.514999999999986L134.80395416666667,36.285L135.02202708333334,36.285L135.21974652777777,36.285L135.46689583333335,36.72749999999999L135.66897673611112,35.400000000000006L136.35372569444445,35.400000000000006L136.36099479166666,35.400000000000006L136.42932430555558,35.400000000000006L136.51655347222223,35.400000000000006L136.54999131944444,35.400000000000006L136.93234583333333,37.16999999999999L136.94252256944446,37.16999999999999L137.97037291666666,35.400000000000006L138.36290416666668,36.285L138.79614236111112,35.400000000000006L138.8223111111111,34.514999999999986L138.9386166666667,36.285L139.4634454861111,38.05500000000001L139.7120486111111,35.400000000000006L139.88505312499998,35.400000000000006L140.19471666666666,35.400000000000006L140.26886145833333,38.05500000000001L140.47821145833333,35.400000000000006L140.54654097222223,35.400000000000006L140.71663784722222,36.285L140.8852809027778,35.400000000000006L140.89545763888887,35.400000000000006L141.30979618055557,34.514999999999986L141.7924642361111,35.400000000000006L142.187903125,36.285L142.33183125000002,36.285L142.672025,35.400000000000006L142.77815381944444,35.400000000000006L142.86102152777778,35.400000000000006L143.60246944444444,35.400000000000006L143.70132916666668,38.05500000000001L143.81327326388887,35.400000000000006L143.8336267361111,35.400000000000006L143.89032569444444,35.400000000000006L143.93684791666666,35.400000000000006L144.53727534722222,35.400000000000006L144.79750902777778,38.94L145.34705277777778,35.400000000000006L145.42846666666665,35.400000000000006L145.43428194444445,35.400000000000006L145.52878020833333,36.285L145.6232784722222,36.285L145.95038784722223,36.285L145.9736489583333,36.285L146.18299895833334,34.514999999999986L146.2207982638889,34.514999999999986L146.27458958333332,34.514999999999986L146.83140243055556,35.400000000000006L146.859025,35.400000000000006L147.0073145833333,36.285L147.3911229166667,35.400000000000006L147.5554045138889,35.400000000000006L147.60628819444443,35.400000000000006L148.22125381944446,35.400000000000006L149.3610482638889,36.285L149.410478125,35.400000000000006L149.5253298611111,34.514999999999986L149.85389305555555,37.16999999999999L149.92949166666665,35.400000000000006L150.13302638888888,35.400000000000006L150.48630451388888,36.285L150.8526670138889,37.16999999999999L151.08673194444444,37.16999999999999L151.43855625,33.629999999999995L151.48507847222223,35.400000000000006L151.79328819444444,37.16999999999999L152.07242152777778,36.285L152.19599618055554,35.400000000000006L152.38790034722223,37.16999999999999L152.681571875,35.400000000000006L152.72809409722223,35.400000000000006L152.78188541666665,35.400000000000006L152.8981909722222,36.285L153.11771770833332,36.285L153.3910357638889,35.400000000000006L153.43610416666667,36.285L153.48408020833332,35.400000000000006L153.64981562499997,35.8425L153.74140625,35.400000000000006L154.08450763888888,35.400000000000006L154.12666840277777,35.400000000000006L155.24029409722223,36.285L155.25919375,36.285L155.36386875,35.400000000000006L155.57176493055556,35.400000000000006L156.13148541666666,35.400000000000006L156.214353125,35.400000000000006L156.3684579861111,35.400000000000006L156.46295625,36.285L156.528378125,36.285L156.76535069444444,36.285L157.21312708333335,34.95750000000001L157.993828125,35.400000000000006L158.1988166666667,35.400000000000006L158.84867395833334,34.514999999999986L158.9722486111111,35.400000000000006L158.9955097222222,35.400000000000006L159.55086875,35.400000000000006L159.57558368055555,35.400000000000006L159.76458020833334,35.400000000000006L159.88233958333333,34.514999999999986L159.9724763888889,34.514999999999986L160.26614791666668,35.400000000000006L160.57581145833333,36.285L161.48299479166667,36.285L161.51207118055558,35.400000000000006L161.8115579861111,35.400000000000006L162.06452256944445,35.400000000000006L162.28259548611112,36.285L162.311671875,36.285L162.31603333333334,36.285L162.4396079861111,35.400000000000006L162.44396944444443,35.400000000000006L162.96589062500001,35.400000000000006L163.00368993055554,36.285L163.88906597222223,33.629999999999995L163.97484131944444,33.629999999999995L164.46623229166664,35.400000000000006L164.60725277777777,35.400000000000006L164.96779999999998,35.400000000000006L165.5929423611111,36.285L166.28932187499998,36.285L166.51611770833333,34.514999999999986L166.87666493055556,34.514999999999986L167.0322236111111,36.285L167.2735576388889,35.400000000000006L167.45819270833334,35.400000000000006L167.65736597222224,34.514999999999986L167.7387798611111,32.745000000000005L167.78530208333333,35.400000000000006L167.88852326388889,35.400000000000006L168.44097465277778,34.514999999999986L168.57036458333334,35.400000000000006L168.60380243055553,34.514999999999986L169.0821090277778,34.514999999999986L169.4223027777778,36.285L169.51680104166667,36.285L170.12449756944446,33.629999999999995L170.32512465277776,35.400000000000006L170.42689201388887,34.514999999999986L170.528659375,35.400000000000006L170.70311770833334,34.514999999999986L170.7670857638889,35.400000000000006L170.96480520833333,35.400000000000006L171.1770628472222,37.16999999999999L171.25556909722224,35.400000000000006L171.37187465277776,34.514999999999986L171.53179479166667,38.05500000000001L171.75422916666668,36.285L171.8603579861111,34.514999999999986L172.13949131944443,35.400000000000006L172.24125868055555,36.285L172.31249583333332,35.400000000000006L173.08592777777778,35.400000000000006L173.74160034722223,33.629999999999995L173.89570520833334,31.860000000000014L173.89861284722224,31.860000000000014L174.29114409722223,33.629999999999995L174.872671875,34.514999999999986L175.2826489583333,33.629999999999995L175.31608680555556,36.285L175.55160555555557,34.514999999999986L175.7071642361111,36.285L175.79293958333332,32.745000000000005L175.80602395833333,32.745000000000005L175.90924513888888,35.400000000000006L176.01828159722223,34.514999999999986L176.1389486111111,35.400000000000006L176.2538003472222,33.629999999999995L176.4006361111111,35.400000000000006L176.4297125,34.514999999999986L176.54020277777778,34.514999999999986L176.62307048611112,33.629999999999995L176.63906250000002,33.629999999999995L177.25548194444445,34.514999999999986L177.28455833333334,34.514999999999986L177.81374861111112,35.400000000000006L178.10742013888887,35.400000000000006L178.15394236111112,35.400000000000006L178.2324486111111,36.285L178.36329236111112,34.514999999999986L178.6467871527778,33.629999999999995L178.69185555555558,32.745000000000005L178.77181562500002,35.8425L178.82269930555555,35.400000000000006L178.83723750000001,35.400000000000006L179.12073229166666,34.514999999999986L179.49291006944443,35.400000000000006L179.57287013888887,35.400000000000006L180.1980125,34.514999999999986L180.6763190972222,33.629999999999995L180.76064062499998,33.629999999999995L181.29855381944444,36.285L181.44975104166667,35.400000000000006L181.47010451388888,34.514999999999986L181.49772708333333,35.400000000000006L181.55733368055556,34.514999999999986L181.57768715277777,35.400000000000006L181.59949444444445,31.860000000000014L181.61839409722222,35.400000000000006L181.67509305555555,35.400000000000006L181.8640895833333,33.629999999999995L182.1141465277778,34.514999999999986L182.3598420138889,31.860000000000014L182.6157142361111,32.745000000000005L182.749465625,35.400000000000006L182.85414062499999,34.514999999999986L182.87449409722223,34.514999999999986L183.48800590277776,35.400000000000006L183.57087361111113,35.400000000000006L183.74969340277778,36.285L184.005565625,35.400000000000006L184.15094756944444,34.514999999999986L184.3006909722222,34.514999999999986L184.78626666666665,32.745000000000005L185.74724131944444,34.514999999999986L185.80539409722223,34.514999999999986L185.8533701388889,34.514999999999986L186.12087291666668,34.07249999999999L186.7431076388889,34.514999999999986L186.94228090277778,36.285L187.8959864583333,33.629999999999995L187.89744027777778,33.629999999999995L187.98176180555555,35.400000000000006L188.27252569444443,35.400000000000006L188.38737743055555,33.629999999999995L188.7392017361111,31.860000000000014L189.08957222222222,33.629999999999995L189.2756611111111,32.745000000000005L189.32363715277776,31.860000000000014L189.605678125,34.514999999999986L189.69290729166667,34.514999999999986L189.84991979166668,33.629999999999995L189.90225729166667,35.400000000000006L189.92987986111112,35.400000000000006L190.06944652777779,31.860000000000014L190.73384201388888,33.629999999999995L190.7934486111111,33.629999999999995L190.92138472222223,34.514999999999986L191.24413263888889,34.514999999999986L191.4665670138889,34.514999999999986L191.7413388888889,33.629999999999995L191.78204583333334,34.514999999999986L192.588915625,34.514999999999986L192.8709565972222,35.400000000000006L192.92765555555556,33.629999999999995L193.216965625,35.400000000000006L193.82756979166666,32.745000000000005L194.03255833333336,34.514999999999986L194.21573958333332,34.514999999999986L194.4367201388889,32.745000000000005L194.78418298611112,34.514999999999986L195.23777465277777,33.629999999999995L195.4805625,34.514999999999986L195.49219305555553,34.514999999999986L196.00539131944444,33.1875L196.4066454861111,34.514999999999986L196.48369791666667,34.514999999999986L197.00271145833335,33.629999999999995L197.02015729166666,34.514999999999986L197.37925069444444,34.514999999999986L197.38942743055557,34.514999999999986L197.54353229166668,32.745000000000005L197.77759722222223,35.400000000000006L197.90844097222222,32.745000000000005L198.37947847222222,32.745000000000005L198.6280815972222,32.745000000000005L198.69931875,34.514999999999986L198.7545638888889,32.745000000000005L198.80399375000002,32.745000000000005L198.85923888888888,35.400000000000006L198.9159378472222,34.514999999999986L199.08458090277776,35.400000000000006L199.19797881944444,35.400000000000006L199.21833229166666,35.400000000000006L199.24304722222223,35.400000000000006L199.4000597222222,33.629999999999995L200.09789305555557,32.745000000000005L200.37411875,33.629999999999995L200.54276180555556,35.400000000000006L200.86260208333331,33.629999999999995L200.90476284722223,33.629999999999995L201.57497361111112,34.514999999999986L201.94860520833333,34.514999999999986L201.99076597222222,35.400000000000006L202.07944895833333,33.629999999999995L202.52141006944444,33.629999999999995L202.7656517361111,36.285L203.50564583333332,33.629999999999995L203.52745312500002,33.629999999999995L203.9592375,37.16999999999999L204.77773784722223,34.514999999999986L204.8649670138889,32.745000000000005L205.26912881944446,38.05500000000001L205.27058263888887,38.05500000000001L205.4319565972222,32.745000000000005L205.47266354166666,34.514999999999986L205.51627812499999,33.629999999999995L205.57588472222224,37.16999999999999L205.7445277777778,34.514999999999986L206.20393472222221,36.285L206.26499513888888,33.629999999999995L206.31733263888887,33.629999999999995L206.74184791666667,33.629999999999995L206.78691631944446,33.629999999999995L207.21288541666667,32.745000000000005L207.348090625,35.400000000000006L207.36553645833334,35.400000000000006L207.5181875,33.629999999999995L207.99649409722224,35.400000000000006L208.78301041666666,33.629999999999995L208.81790208333334,32.745000000000005L208.865878125,32.745000000000005L209.50119722222223,31.860000000000014L209.59714930555555,34.514999999999986L209.63785625,34.514999999999986L210.1248857638889,33.629999999999995L210.38511944444443,32.745000000000005L210.45635659722222,34.514999999999986L210.46071805555556,34.514999999999986L210.47671006944447,34.514999999999986L210.540678125,32.745000000000005L210.8677875,32.745000000000005L211.22688090277776,33.629999999999995L212.90458854166667,33.629999999999995L213.25786666666664,32.745000000000005L213.61841388888888,34.514999999999986L213.69546631944445,32.745000000000005L213.8539326388889,33.629999999999995L214.047290625,34.514999999999986L214.31479340277778,32.745000000000005L214.50088229166667,33.629999999999995L214.57793472222224,32.745000000000005L214.6389951388889,34.514999999999986L214.79746145833332,32.745000000000005L214.80763819444445,32.745000000000005L214.85416041666664,33.629999999999995L214.9006826388889,33.629999999999995L214.989365625,33.629999999999995L215.015534375,33.629999999999995L215.329559375,32.745000000000005L215.60869270833334,34.514999999999986L215.75988993055554,33.629999999999995L215.85002673611112,33.629999999999995L216.10299131944444,33.629999999999995L216.4053857638889,35.400000000000006L216.83280868055556,34.514999999999986L216.89096145833332,33.629999999999995L217.082865625,34.514999999999986L217.2108017361111,33.629999999999995L217.22824756944445,33.629999999999995L217.23987812500002,33.629999999999995L217.28058506944444,36.285L217.3503684027778,32.745000000000005L217.41288263888887,34.514999999999986L217.59751770833333,33.629999999999995L217.8184982638889,33.629999999999995L217.96533402777777,34.514999999999986L218.17759166666667,34.514999999999986L218.31425069444444,35.400000000000006L218.53377743055557,36.285L219.09640555555555,34.514999999999986L219.1400201388889,33.629999999999995L219.42060729166667,34.514999999999986L219.50783645833334,38.94L219.54418194444446,32.745000000000005L220.2420152777778,34.514999999999986L220.25800729166667,34.514999999999986L220.5167871527778,33.629999999999995L220.550225,34.514999999999986L220.59529340277777,34.514999999999986L220.80173576388887,33.629999999999995L220.8220892361111,33.629999999999995L221.7176420138889,35.400000000000006L221.96479131944443,32.745000000000005L222.3137079861111,34.514999999999986L222.3369690972222,34.514999999999986L222.53323472222223,33.629999999999995L222.735315625,32.745000000000005L222.89814340277778,35.400000000000006L223.15692326388887,33.629999999999995L223.20344548611112,33.629999999999995L223.3081204861111,34.514999999999986L223.68611354166666,34.514999999999986L223.89982500000002,32.745000000000005L224.436284375,35.400000000000006L224.4551840277778,32.745000000000005L224.57875868055555,34.514999999999986L224.82736180555557,33.629999999999995L225.09486458333333,34.514999999999986L225.12830243055555,32.745000000000005L225.13557152777778,32.745000000000005L225.16464791666667,32.745000000000005L225.31875277777777,34.514999999999986L225.81886666666668,34.514999999999986L226.23756666666668,34.514999999999986L226.61119826388887,36.285L227.10113541666666,34.514999999999986L227.20435659722224,33.629999999999995L227.3177545138889,34.07249999999999L227.7757076388889,32.745000000000005L227.7829767361111,32.745000000000005L227.80478402777777,32.745000000000005L228.28454444444444,33.629999999999995L228.3310666666667,33.629999999999995L228.61746909722223,32.745000000000005L228.95184756944445,32.745000000000005L229.07251458333332,32.745000000000005L229.10013715277776,32.745000000000005L229.24988055555554,35.400000000000006L229.3327482638889,36.285L229.65549618055556,33.629999999999995L229.93172187500002,35.400000000000006L230.350421875,34.514999999999986L230.39112881944445,34.514999999999986L230.51615729166667,34.514999999999986L231.0700625,33.629999999999995L231.1020465277778,33.629999999999995L231.53383090277777,33.629999999999995L231.74463472222223,34.514999999999986L231.81151041666666,34.514999999999986L232.57621944444443,33.629999999999995L232.63437222222223,31.860000000000014L232.6460027777778,31.860000000000014L232.67798680555555,35.400000000000006L232.692525,35.400000000000006L232.80301527777777,33.629999999999995L232.8524451388889,31.860000000000014L232.97892743055556,34.514999999999986L233.02399583333332,34.514999999999986L233.70292951388888,33.629999999999995L233.96025555555556,31.860000000000014L234.0503923611111,33.629999999999995L234.38913229166667,31.860000000000014L234.39785520833334,31.860000000000014L235.3064923611111,31.860000000000014L235.3588298611111,34.514999999999986L235.4998503472222,34.514999999999986L235.7804375,33.629999999999995L235.80515243055555,33.629999999999995L235.80660625000002,33.629999999999995L236.2412982638889,33.629999999999995L236.2936357638889,34.514999999999986L236.6120222222222,34.514999999999986L236.81701076388887,34.514999999999986L237.24443368055557,32.745000000000005L237.47122951388891,34.514999999999986L237.67912569444445,33.629999999999995L237.80415416666665,33.629999999999995L237.81869236111112,33.629999999999995L238.02368090277778,33.629999999999995L238.08910277777778,31.860000000000014L238.1254482638889,32.745000000000005L238.3086295138889,32.745000000000005L238.410396875,33.629999999999995L238.6560923611111,32.745000000000005L238.75640590277777,32.745000000000005L238.84218124999998,31.860000000000014L239.01518576388887,37.16999999999999L239.195459375,34.514999999999986L239.22598958333333,34.514999999999986L240.2887315972222,34.514999999999986L240.77139965277777,33.629999999999995L240.78739166666668,33.629999999999995L240.91532777777778,32.745000000000005L240.9720267361111,32.745000000000005L241.03163333333333,34.514999999999986L241.236621875,33.334996398925796L241.7890732638889,34.514999999999986L241.91555555555556,32.745000000000005L242.34733993055556,36.285L243.21963159722222,31.860000000000014L243.3068607638889,33.629999999999995L243.32139895833333,33.629999999999995L243.5031263888889,34.514999999999986L244.33471111111112,34.514999999999986L244.51789236111114,34.514999999999986L244.6618204861111,33.629999999999995L244.85953993055557,32.745000000000005L245.0369059027778,34.514999999999986L245.12122743055556,32.745000000000005L245.22154097222221,33.629999999999995L245.22735625,33.629999999999995L245.3741920138889,32.745000000000005L245.4992204861111,32.745000000000005L245.52102777777776,32.745000000000005L246.33952812500002,32.745000000000005L246.50380972222223,38.05500000000001L246.68989861111112,33.629999999999995L246.7117059027778,34.514999999999986L246.81347326388888,33.629999999999995L246.98502395833333,35.400000000000006L247.05916875000003,32.745000000000005L247.15948229166668,34.514999999999986L247.16529756944445,34.514999999999986L247.93146041666668,32.745000000000005L247.95908298611113,33.629999999999995L248.07538854166665,32.745000000000005L248.25275451388887,32.745000000000005L248.40540555555555,34.514999999999986L248.6656392361111,35.400000000000006L248.68599270833334,35.400000000000006L248.73833020833334,35.400000000000006L248.79793680555554,35.400000000000006L248.93459583333333,34.514999999999986L249.00583298611113,34.514999999999986L249.0290940972222,33.629999999999995L249.14685347222223,38.05500000000001L249.26752048611112,34.514999999999986L249.39400277777779,35.400000000000006L249.42017152777777,35.400000000000006L249.6164371527778,32.745000000000005L249.81415659722222,33.629999999999995L250.3767847222222,32.745000000000005L250.43057604166665,33.629999999999995L250.81874583333334,32.745000000000005L251.11823263888888,33.629999999999995L251.17202395833334,33.629999999999995L252.32054131944443,35.400000000000006L252.4179472222222,32.745000000000005L252.50663020833332,32.745000000000005L252.65346597222222,34.514999999999986L252.96458333333334,36.285" style="fill: none;" fill="none"></path></g></g></g></g></g></g><g transform="translate(68, 177)" clip-path="url(#clip_1)"><clipPath id="clip_1"><rect width="261" height="23"></rect></clipPath><g><g><line x1="0" y1="0" x2="0" y2="5" style="visibility: inherit;" fill="rgb(0, 0, 0)" stroke="rgb(204, 204, 204)" stroke-width="1px"></line><line x1="29.076388888888886" y1="0" x2="29.076388888888886" y2="5" style="visibility: inherit;" fill="rgb(0, 0, 0)" stroke="rgb(204, 204, 204)" stroke-width="1px"></line><line x1="58.15277777777777" y1="0" x2="58.15277777777777" y2="5" style="visibility: inherit;" fill="rgb(0, 0, 0)" stroke="rgb(204, 204, 204)" stroke-width="1px"></line><line x1="87.22916666666666" y1="0" x2="87.22916666666666" y2="5" style="visibility: inherit;" fill="rgb(0, 0, 0)" stroke="rgb(204, 204, 204)" stroke-width="1px"></line><line x1="116.30555555555554" y1="0" x2="116.30555555555554" y2="5" style="visibility: inherit;" fill="rgb(0, 0, 0)" stroke="rgb(204, 204, 204)" stroke-width="1px"></line><line x1="145.38194444444446" y1="0" x2="145.38194444444446" y2="5" style="visibility: inherit;" fill="rgb(0, 0, 0)" stroke="rgb(204, 204, 204)" stroke-width="1px"></line><line x1="174.45833333333331" y1="0" x2="174.45833333333331" y2="5" style="visibility: inherit;" fill="rgb(0, 0, 0)" stroke="rgb(204, 204, 204)" stroke-width="1px"></line><line x1="203.53472222222223" y1="0" x2="203.53472222222223" y2="5" style="visibility: inherit;" fill="rgb(0, 0, 0)" stroke="rgb(204, 204, 204)" stroke-width="1px"></line><line x1="232.6111111111111" y1="0" x2="232.6111111111111" y2="5" style="visibility: inherit;" fill="rgb(0, 0, 0)" stroke="rgb(204, 204, 204)" stroke-width="1px"></line><line x1="261.6875" y1="0" x2="261.6875" y2="5" style="visibility: inherit;" fill="rgb(0, 0, 0)" stroke="rgb(204, 204, 204)" stroke-width="1px"></line></g><g transform="translate(0, 8)"><text x="0" y="0" dx="0em" dy="0.95em" style="text-anchor: middle; visibility: hidden; font-family: &quot;Helvetica Neue&quot;, sans-serif; font-size: 12px; font-weight: 200;" fill="rgb(50, 49, 63)" stroke="none" stroke-width="1px">-20k</text><text x="29.076388888888886" y="0" dx="0em" dy="0.95em" style="text-anchor: middle; visibility: inherit; font-family: &quot;Helvetica Neue&quot;, sans-serif; font-size: 12px; font-weight: 200;" fill="rgb(50, 49, 63)" stroke="none" stroke-width="1px">0</text><text x="58.15277777777777" y="0" dx="0em" dy="0.95em" style="text-anchor: middle; visibility: hidden; font-family: &quot;Helvetica Neue&quot;, sans-serif; font-size: 12px; font-weight: 200;" fill="rgb(50, 49, 63)" stroke="none" stroke-width="1px">20k</text><text x="87.22916666666666" y="0" dx="0em" dy="0.95em" style="text-anchor: middle; visibility: inherit; font-family: &quot;Helvetica Neue&quot;, sans-serif; font-size: 12px; font-weight: 200;" fill="rgb(50, 49, 63)" stroke="none" stroke-width="1px">40k</text><text x="116.30555555555554" y="0" dx="0em" dy="0.95em" style="text-anchor: middle; visibility: hidden; font-family: &quot;Helvetica Neue&quot;, sans-serif; font-size: 12px; font-weight: 200;" fill="rgb(50, 49, 63)" stroke="none" stroke-width="1px">60k</text><text x="145.38194444444446" y="0" dx="0em" dy="0.95em" style="text-anchor: middle; visibility: inherit; font-family: &quot;Helvetica Neue&quot;, sans-serif; font-size: 12px; font-weight: 200;" fill="rgb(50, 49, 63)" stroke="none" stroke-width="1px">80k</text><text x="174.45833333333331" y="0" dx="0em" dy="0.95em" style="text-anchor: middle; visibility: hidden; font-family: &quot;Helvetica Neue&quot;, sans-serif; font-size: 12px; font-weight: 200;" fill="rgb(50, 49, 63)" stroke="none" stroke-width="1px">100k</text><text x="203.53472222222223" y="0" dx="0em" dy="0.95em" style="text-anchor: middle; visibility: inherit; font-family: &quot;Helvetica Neue&quot;, sans-serif; font-size: 12px; font-weight: 200;" fill="rgb(50, 49, 63)" stroke="none" stroke-width="1px">120k</text><text x="232.6111111111111" y="0" dx="0em" dy="0.95em" style="text-anchor: middle; visibility: hidden; font-family: &quot;Helvetica Neue&quot;, sans-serif; font-size: 12px; font-weight: 200;" fill="rgb(50, 49, 63)" stroke="none" stroke-width="1px">140k</text><text x="261.6875" y="0" dx="0em" dy="0.95em" style="text-anchor: middle; visibility: hidden; font-family: &quot;Helvetica Neue&quot;, sans-serif; font-size: 12px; font-weight: 200;" fill="rgb(50, 49, 63)" stroke="none" stroke-width="1px">160k</text></g><line x1="0" y1="0" x2="261.6875" y2="0" fill="rgb(0, 0, 0)" stroke="rgb(204, 204, 204)" stroke-width="1px"></line></g></g></g></g></svg>