<svg viewBox="0 0 330 200" xmlns="http://www.w3.org/2000/svg"><g><g><g><g><g><line x1="78.03125" y1="177" x2="73.03125" y2="177" style="visibility: inherit;" fill="rgb(0, 0, 0)" stroke="rgb(204, 204, 204)" stroke-width="1px"></line><line x1="78.03125" y1="154.875" x2="73.03125" y2="154.875" style="visibility: inherit;" fill="rgb(0, 0, 0)" stroke="rgb(204, 204, 204)" stroke-width="1px"></line><line x1="78.03125" y1="132.75" x2="73.03125" y2="132.75" style="visibility: inherit;" fill="rgb(0, 0, 0)" stroke="rgb(204, 204, 204)" stroke-width="1px"></line><line x1="78.03125" y1="110.625" x2="73.03125" y2="110.625" style="visibility: inherit;" fill="rgb(0, 0, 0)" stroke="rgb(204, 204, 204)" stroke-width="1px"></line><line x1="78.03125" y1="88.5" x2="73.03125" y2="88.5" style="visibility: inherit;" fill="rgb(0, 0, 0)" stroke="rgb(204, 204, 204)" stroke-width="1px"></line><line x1="78.03125" y1="66.375" x2="73.03125" y2="66.375" style="visibility: inherit;" fill="rgb(0, 0, 0)" stroke="rgb(204, 204, 204)" stroke-width="1px"></line><line x1="78.03125" y1="44.25" x2="73.03125" y2="44.25" style="visibility: inherit;" fill="rgb(0, 0, 0)" stroke="rgb(204, 204, 204)" stroke-width="1px"></line><line x1="78.03125" y1="22.125" x2="73.03125" y2="22.125" style="visibility: inherit;" fill="rgb(0, 0, 0)" stroke="rgb(204, 204, 204)" stroke-width="1px"></line><line x1="78.03125" y1="0" x2="73.03125" y2="0" style="visibility: inherit;" fill="rgb(0, 0, 0)" stroke="rgb(204, 204, 204)" stroke-width="1px"></line></g><g transform="translate(68.03125, 0)"><text x="0" y="177" dx="0em" dy="0.3em" style="text-anchor: end; visibility: hidden; font-family: &quot;Helvetica Neue&quot;, sans-serif; font-size: 12px; font-weight: 200;" fill="rgb(50, 49, 63)" stroke="none" stroke-width="1px">-2.2e+4</text><text x="0" y="154.875" dx="0em" dy="0.3em" style="text-anchor: end; visibility: inherit; font-family: &quot;Helvetica Neue&quot;, sans-serif; font-size: 12px; font-weight: 200;" fill="rgb(50, 49, 63)" stroke="none" stroke-width="1px">-2e+4</text><text x="0" y="132.75" dx="0em" dy="0.3em" style="text-anchor: end; visibility: hidden; font-family: &quot;Helvetica Neue&quot;, sans-serif; font-size: 12px; font-weight: 200;" fill="rgb(50, 49, 63)" stroke="none" stroke-width="1px">-1.8e+4</text><text x="0" y="110.625" dx="0em" dy="0.3em" style="text-anchor: end; visibility: inherit; font-family: &quot;Helvetica Neue&quot;, sans-serif; font-size: 12px; font-weight: 200;" fill="rgb(50, 49, 63)" stroke="none" stroke-width="1px">-1.6e+4</text><text x="0" y="88.5" dx="0em" dy="0.3em" style="text-anchor: end; visibility: hidden; font-family: &quot;Helvetica Neue&quot;, sans-serif; font-size: 12px; font-weight: 200;" fill="rgb(50, 49, 63)" stroke="none" stroke-width="1px">-1.4e+4</text><text x="0" y="66.375" dx="0em" dy="0.3em" style="text-anchor: end; visibility: inherit; font-family: &quot;Helvetica Neue&quot;, sans-serif; font-size: 12px; font-weight: 200;" fill="rgb(50, 49, 63)" stroke="none" stroke-width="1px">-1.2e+4</text><text x="0" y="44.25" dx="0em" dy="0.3em" style="text-anchor: end; visibility: hidden; font-family: &quot;Helvetica Neue&quot;, sans-serif; font-size: 12px; font-weight: 200;" fill="rgb(50, 49, 63)" stroke="none" stroke-width="1px">-1e+4</text><text x="0" y="22.125" dx="0em" dy="0.3em" style="text-anchor: end; visibility: inherit; font-family: &quot;Helvetica Neue&quot;, sans-serif; font-size: 12px; font-weight: 200;" fill="rgb(50, 49, 63)" stroke="none" stroke-width="1px">-8e+3</text><text x="0" y="0" dx="0em" dy="0.3em" style="text-anchor: end; visibility: hidden; font-family: &quot;Helvetica Neue&quot;, sans-serif; font-size: 12px; font-weight: 200;" fill="rgb(50, 49, 63)" stroke="none" stroke-width="1px">-6e+3</text></g><line x1="78.03125" y1="0" x2="78.03125" y2="177" fill="rgb(0, 0, 0)" stroke="rgb(204, 204, 204)" stroke-width="1px"></line></g></g><g transform="translate(78, 0)" clip-path="url(#clip_0)"><clipPath id="clip_0"><rect width="251" height="177"></rect></clipPath><g><g><g><line x1="0" y1="0" x2="0" y2="177" fill="rgb(0, 0, 0)" stroke="rgb(60, 60, 60)" stroke-width="1px" opacity="0.25"></line><line x1="25.196875000000002" y1="0" x2="25.196875000000002" y2="177" fill="rgb(0, 0, 0)" stroke="rgb(60, 60, 60)" stroke-width="1px" opacity="0.25"></line><line x1="50.393750000000004" y1="0" x2="50.393750000000004" y2="177" fill="rgb(0, 0, 0)" stroke="rgb(60, 60, 60)" stroke-width="1px" opacity="0.25"></line><line x1="75.590625" y1="0" x2="75.590625" y2="177" fill="rgb(0, 0, 0)" stroke="rgb(60, 60, 60)" stroke-width="1px" opacity="0.25"></line><line x1="100.78750000000001" y1="0" x2="100.78750000000001" y2="177" fill="rgb(0, 0, 0)" stroke="rgb(60, 60, 60)" stroke-width="1px" opacity="0.25"></line><line x1="125.984375" y1="0" x2="125.984375" y2="177" fill="rgb(0, 0, 0)" stroke="rgb(60, 60, 60)" stroke-width="1px" opacity="0.25"></line><line x1="151.18125" y1="0" x2="151.18125" y2="177" fill="rgb(0, 0, 0)" stroke="rgb(60, 60, 60)" stroke-width="1px" opacity="0.25"></line><line x1="176.37812499999998" y1="0" x2="176.37812499999998" y2="177" fill="rgb(0, 0, 0)" stroke="rgb(60, 60, 60)" stroke-width="1px" opacity="0.25"></line><line x1="201.57500000000002" y1="0" x2="201.57500000000002" y2="177" fill="rgb(0, 0, 0)" stroke="rgb(60, 60, 60)" stroke-width="1px" opacity="0.25"></line><line x1="226.771875" y1="0" x2="226.771875" y2="177" fill="rgb(0, 0, 0)" stroke="rgb(60, 60, 60)" stroke-width="1px" opacity="0.25"></line><line x1="251.96875" y1="0" x2="251.96875" y2="177" fill="rgb(0, 0, 0)" stroke="rgb(60, 60, 60)" stroke-width="1px" opacity="0.25"></line></g><g><line x1="0" y1="177" x2="251.96875" y2="177" fill="rgb(0, 0, 0)" stroke="rgb(60, 60, 60)" stroke-width="1px" opacity="0.25"></line><line x1="0" y1="154.875" x2="251.96875" y2="154.875" fill="rgb(0, 0, 0)" stroke="rgb(60, 60, 60)" stroke-width="1px" opacity="0.25"></line><line x1="0" y1="132.75" x2="251.96875" y2="132.75" fill="rgb(0, 0, 0)" stroke="rgb(60, 60, 60)" stroke-width="1px" opacity="0.25"></line><line x1="0" y1="110.625" x2="251.96875" y2="110.625" fill="rgb(0, 0, 0)" stroke="rgb(60, 60, 60)" stroke-width="1px" opacity="0.25"></line><line x1="0" y1="88.5" x2="251.96875" y2="88.5" fill="rgb(0, 0, 0)" stroke="rgb(60, 60, 60)" stroke-width="1px" opacity="0.25"></line><line x1="0" y1="66.375" x2="251.96875" y2="66.375" fill="rgb(0, 0, 0)" stroke="rgb(60, 60, 60)" stroke-width="1px" opacity="0.25"></line><line x1="0" y1="44.25" x2="251.96875" y2="44.25" fill="rgb(0, 0, 0)" stroke="rgb(60, 60, 60)" stroke-width="1px" opacity="0.25"></line><line x1="0" y1="22.125" x2="251.96875" y2="22.125" fill="rgb(0, 0, 0)" stroke="rgb(60, 60, 60)" stroke-width="1px" opacity="0.25"></line><line x1="0" y1="0" x2="251.96875" y2="0" fill="rgb(0, 0, 0)" stroke="rgb(60, 60, 60)" stroke-width="1px" opacity="0.25"></line></g></g></g><g><g><line x1="0" y1="-66.375" x2="251.96875" y2="-66.375" fill="rgb(0, 0, 0)" stroke="rgb(153, 153, 153)" stroke-width="1.5px"></line></g></g><g><g><line x1="25.196875000000002" y1="0" x2="25.196875000000002" y2="177" fill="rgb(0, 0, 0)" stroke="rgb(153, 153, 153)" stroke-width="1.5px"></line></g></g><g><g><g><g><g><path stroke="rgb(255, 112, 67)" stroke-width="2px" d="M25.25104828125,54.10668750000001L25.40852875,43.06747697368422L25.4866390625,39.303348016605185L25.79530078125,37.438115240622295L25.87341109375,50.26912297166125L25.927584375000002,58.74473693454293L25.93640328125,64.73236439266175L25.99687578125,99.96422709319884L26.01325375,126.96890892409365L26.09766328125,112.57537012607082L26.21608859375,100.9511750173203L26.47561640625,92.54522527664746L26.8775065625,115.68043017531363L26.9430184375,116.46506038161729L26.95183734375,117.12828048042752L27.00727046875,116.99674793643356L27.382703906249997,116.7511596956401L27.386483437499997,116.53928643651915L27.5628615625,117.82263113141371L27.6132553125,119.77006131504717L27.76317671875,122.47093870760419L28.104594375,119.96544206824814L28.2079015625,110.45588412550555L28.3288465625,108.34527084919269L28.33010640625,106.48018055755004L28.5808153125,111.04960286921639L29.025540156250003,104.88746594051399L29.267430156249997,121.78083612653343L29.28758765625,117.78440286391103L29.361918437499998,115.09715320176696L29.756249531250003,110.51128384939913L29.75876921875,106.41842591373475L29.82176140625,122.80875881024483L30.0119978125,124.29444791089824L30.18207671875,122.59059041715662L30.6368803125,120.96242005294881L30.74144734375,120.61977446665054L30.85735296875,135.35117186317282L30.878770312500002,133.78878274274666L31.460818125,123.5754803412297L31.66617265625,123.43795280655458L31.931999687500003,123.26414536365014L31.949637499999998,127.86928049756278L32.408220625000006,127.4047917075431L32.58585859375,117.86216231510784L32.640031875,111.65244899715042L32.74459890625,106.0730408821202L33.009166093750004,109.36347277702092L33.033103125,112.32086073569641L33.637828125,114.63122551283507L33.65294625000001,116.70828092054963L33.83310390625,117.50711887379752L33.974206406250005,120.26195092176232L34.212316875000006,117.88084186668203L34.596569218750005,116.80018145728117L34.60034875,115.82821366227887L35.02239640625,112.70382181170741L35.0664909375,111.00093672678706L35.360034531249994,111.03310102586026L35.50365671875,110.5090241517335L35.555310312500005,111.0037468561761L35.90428703125,109.9632013250185L35.91688546875,111.9158829955519L36.38302765625,114.30965449678034L36.45483875,114.17889404501474L36.86428796875,113.28612078763254L37.12633546875,116.22291414584618L37.234682031249996,116.70558360215504L37.25106,111.02916082429677L37.41609953125,108.36747698734037L38.29925,110.72242917029816L38.4000375,109.10282363183552L38.45421078125,110.93516573838042L38.5612975,106.50719758428778L38.77925046875,109.59724610823108L38.932951406250005,108.3920326738245L38.9367309375,107.30741685719813L39.01358140625,106.64890380628094L39.08161296875,105.54174466338534L39.184920156249994,105.24244230711402L39.72665296875,101.9480002999878L39.76948765625,101.80566883239403L39.919409062499994,100.70392022595573L40.0126375,101.66906342306676L40.277204687499996,104.21219141209248L40.28350390625,106.50094425952405L40.52287421875,108.25762714933833L40.68161453125,109.32636494503541L41.4211428125,110.75619322333898L41.618938281249996,113.08407623295935L41.6529540625,114.72664997388381L42.3282303125,115.8287967329754L42.35720671875,115.38914889458843L42.59657703125,118.8909840267026L43.1143728125,119.22043169323481L43.20634140625,120.99272902318175L43.26177453125,121.72045138571124L43.3990975,119.94156666421833L43.639727656249995,119.8805269463517L43.67752296875,119.82559154255537L43.817365625,120.36800785490232L43.9357909375,121.04977798751452L44.6916971875,118.26158370023272L45.058311718750005,117.3397155148736L45.50177671875,117.41938896300377L45.7600446875,117.48998856327438L46.4353209375,119.15650462875826L46.69862828125,118.95272058585414L46.737683437499996,119.33572121850997L47.0148490625,117.90376708477743L47.042565625,116.36499630026296L47.29957375,114.59844591806397L47.317211562500006,113.00855309201474L48.443511875,114.65636404556531L49.28130796875,116.48675640097888L49.3480796875,116.13731654097964L49.804143125,113.49415442848561L49.941466093749995,112.17067745930032L49.95910390625,110.97954918954113L50.056111875,110.8655501524561L50.388710624999995,107.70416094919734L50.4617815625,107.07473695790001L50.47312015625,107.62888956665194L50.70241171875,106.52798577749275L50.71249046875,102.56467339235087L50.801939374999996,102.12728030248198L50.94934109375,104.56120603152543L51.074065624999996,101.84661915486768L51.123199531249995,103.42692796646747L51.376428125,104.95651189208397L51.38020765625,105.70810521451891L51.47217625,107.5947776637773L51.75564109375,106.68534915091244L51.83627109375,110.10712301364947L51.94713734374999,113.4876192098856L52.05674375,110.81959944239183L52.313751875,109.87199523782306L52.72320109375,111.39648395294903L53.2233590625,109.21635335663045L53.33044578125,109.66143694570765L53.36572140625,107.98004890703382L54.34839953125,114.17847098747052L54.36099796875,119.75705048534681L54.41643109375,113.99736270320027L54.53485640625,108.81364398115467L54.6293446875,107.88631688955778L54.712494375,104.76842211512431L54.85485671875,107.79114916445825L55.018636406249996,102.9304710086953L55.0324946875,98.5558608089789L55.057691562500004,94.99594303949087L55.35627453125,91.88604839071016L55.619581874999994,89.32941204650247L55.78966078125,83.37781405731242L55.792180468750004,78.02137596860395L55.840054531250004,78.5415571595866L56.2167478125,73.99287614580409L56.3402125,69.88578828920411L56.35029125,66.21374676553857L56.569504062499995,62.90890943124117L56.61107890625,59.89583710868149L57.0129690625,57.19015641820579L57.1868275,53.16480938631935L57.71722171875,55.1794472607786L57.76131625,59.69850891206933L57.8545446875,57.014220452771994L58.335805,54.61827335279621L58.9581678125,52.442008472801575L58.95942765625,50.48337008930227L59.407932031250006,49.07459555692607L59.41423125,47.80669848224224L59.850137187499996,46.35915986450422L59.973601875,45.02097511181813L60.017696406249996,43.837627587714934L60.2532871875,42.76487106840102L60.36793296875,41.80492145307048L61.02557140625,40.93211680081572L61.157855,40.14216761507481L61.695808281249995,39.455550849140195L61.72856421875,38.840914510659445L61.81171390625,38.25455430653113L61.9868321875,37.99122387464027L62.0649425,38.12592648774611L62.32699,37.62434008706174L62.3471475,36.826656075622225L62.503368125,36.454996716913826L62.778014062500006,36.12714079431248L62.99974656249999,35.80441421407508L63.0325025,35.155535291208736L63.21266015625,35.13351926204331L63.405416249999995,36.9876923392155L63.58557390625,36.753698104910455L63.764471718749995,36.5608032941349L63.88289703125,36.199135464241266L63.90053484375001,35.8741875424289L64.76478765625001,35.60662503789834L64.811401875,35.32710003383798L65.36195359375,35.07220878023216L65.43250484375,34.87599415205514L65.51817421875,34.679488486710966L65.7739225,35.24713963840031L66.06116687500001,35.04006942444195L66.19597015625,35.583278107277124L66.3408521875,36.1003752967888L66.47313578125001,36.542531517294066L66.63943515625,36.582047115579485L66.64951390625,36.24425177890757L66.81581328125,35.945214100925995L67.0010103125,36.98809269111845L67.24542,36.585908421907675L67.28069562499999,36.22394257963677L67.7014834375,35.91697957161193L67.7166015625,36.94055661463432L67.74053859375,37.859563453319225L67.7619559375,38.68666960810742L67.8299875,39.530627647407016L67.87660171875,40.67737738280124L67.92321593749999,41.27027089458389L68.07817671875,41.79613130517561L68.48888578124999,41.684199424648455L68.6942403125,41.66532323218212L68.78746875,41.61072215896016L69.01928,41.844228068078735L69.7121940625,42.09144276128475L69.73865078125,42.5473547351794L69.76762718750001,42.552788011661704L69.901170625,43.05051233551595L70.264005625,43.402773601977344L70.3622734375,42.766221241758444L70.4932971875,43.126999117593414L70.5991240625,43.65414295584824L70.86243140625,44.32659116027972L70.898966875,44.58664454425741L71.3449515625,44.786398839835584L71.382746875,44.977240205855395L71.51881,45.11580993527207L71.62337703125,44.68629144173869L71.695188125,44.818002922566535L72.06684203125,45.01232138031216L72.4284171875,45.16397674228253L72.77487421875,44.71526031805007L72.91597671875,45.23402803624947L73.62526875,45.34249398262534L73.64542625,45.42130708436338L73.97928484375,45.54533887592777L74.13046609375,44.64419561333L74.3081040625,45.39242605200073L74.70495484375,45.12164907179948L75.21645140624999,43.898365414614545L75.3159790625,42.46387574814787L75.43818390625,41.15624129832881L75.47723906249999,39.98987966849248L75.61708171875,38.9584073266405L75.96479859375,38.016254093974226L76.22180671875,37.16610368457498L76.42716125,36.39211831611601L76.432200625,35.695531484503164L76.47377546875,35.105109586051896L76.49897234375,34.575942377445955L76.59094093750001,34.05654813970071L76.90212234375,33.59019957573011L77.15913046875,33.15997649315665L77.19314625000001,32.794347593840655L77.28133531249999,32.64615345945646L77.530784375,32.32305686351057L77.550941875,32.03226992715932L78.28039140624999,31.781624184443217L78.67850203125,32.653996140999396L78.70117921875,33.4374715268998L78.96574640624999,33.39698687420983L80.02401515625,33.003231936788666L80.13614125,32.651064993109685L80.17645625,32.325264743798584L80.267165,32.37276951941874L80.30118078125,32.468070692476886L80.30622015625,32.55384174822922L80.3855903125,32.591763823406325L80.62244093749999,32.63253119106568L80.7232284375,33.41483432195926L80.88322859374999,34.11337588976346L80.8920475,34.786313300787185L80.947480625,35.93512572070861L81.01425234375,36.44248189863782L81.65929234375,35.74196495877396L81.84574921874999,35.10818096289651L82.28165515625,34.5344566166068L82.35976546875,34.040229704946086L82.529844375,33.56776923445145L82.72008078125,33.5242110610063L83.55157765624999,33.480583704905655L83.57173515625,33.435787834415066L83.67126281249999,33.42755280097359L83.779609375,33.392485020876194L84.79000406249999,33.017986518788575L85.1477996875,32.66987536690971L85.21457140625,32.36542533021873L85.2536265625,32.07372029719684L85.2989809375,31.793485767477137L85.34811484375,31.54238094072946L85.52197328125001,31.327449096656494L85.60386312499999,31.143966686990836L85.63283953125,30.970535643291754L85.76638296875,30.80836332896257L85.8986665625,30.6447082460663L85.956619375,30.502949921459674L86.32827328125,30.3731549293137L87.27315609374999,30.264083186382322L87.37268375000001,30.186937367744093L87.5314240625,30.119165505969704L88.19788140624999,30.064255205372717L88.26087359375,30.00045468483546L88.37803906250001,29.930865466351918L88.39819656249999,29.880957044716723L88.435991875,29.832167590245064L88.52796046875001,29.766132081220576L88.98276406250001,29.7354626230985L89.22213437500001,29.71560386078866L89.423709375,29.688512584817204L89.61898515625,29.67113632633547L89.73615062500001,29.63779769370194L90.45552140625,29.60004917433173L90.65205703125001,29.938881756898553L90.71126968749999,30.2349810812087L91.07788421875,30.511426723087823L91.1547346875,31.52022155077904L91.35253015625,32.44251814570114L91.56922328125,33.23607883113104L91.85142828125,33.98568344801794L91.893003125,34.64926510321612L92.08575921875,35.28188859289452L92.10465687499999,34.854518483605034L92.55946046874999,35.406879135244566L92.85930328125,35.91727872172012L92.8681221875,36.42199459954813L92.87316156249999,36.82313888959331L92.8782009375,37.21293125063397L93.05583890625,37.12235062557059L93.11127203125,37.488859313013535L93.32040609375,37.79714525671221L93.384658125,38.31576510604097L93.5333196875,38.52310734543687L94.100249375,38.74456223589317L94.24639125,38.92672476230388L94.41017093750001,39.1116897860735L94.46686390625,39.33125830746613L94.73269093750001,39.47245122671953L94.866234375,39.60837485404761L95.17363625,39.70083736864285L95.18371499999999,39.77741613177858L95.38780968750001,39.86514326860072L95.45458140625,39.92086644174066L96.17395218749999,40.014161047566574L96.388125625,40.048344942809905L96.4057634375,40.11893544852893L96.51536984375001,40.14319502867605L96.740881875,40.16668802580844L96.78245671875,40.215487973227596L97.00796875,40.27710792590486L97.38592187500001,39.548234633314365L97.3934809375,38.8845049199829L97.61899296875,38.295998177984615L97.96670984375,38.54292961018615L98.64072625,38.77623039916753L98.82340359375,38.95190735925078L98.96954546875,39.146522873325694L99.0766321875,39.291808085993125L99.17490000000001,39.40375852739382L99.20891578125,39.54655142465441L99.230333125,39.62970878218897L99.86151484375,39.70233790397009L99.92072750000001,39.79480723857307L100.07316859375,39.121907764715786L100.33521609374999,39.258591988244206L100.37301140625,39.36169528941977L101.01427187499999,39.48214451047778L101.0218309375,39.59386755943001L101.0495475,39.66565580348703L101.1629334375,39.75349647313831L101.387185625,39.80932182582447L102.3068715625,39.71243339324204L102.39632046875,39.805920943810406L102.60041515625,39.87973509942938L102.72136015625,39.95944283948646L102.90529734375001,40.0333923055378L103.483565625,40.064546824984035L103.584353125,40.09147964248561L103.95852671875,40.16660667823706L103.997581875,40.204352260413344L104.40955078125,40.22726078437202L104.59852734375,40.2556222059348L104.84545671875,40.281147485341336L105.1087640625,40.299326846914624L105.2145909375,40.32656603722316L105.41364625,40.34831568350086L105.6580559375,39.61342786515078L105.81301671875,39.728616328635695L105.95159953125,39.784717195772146L106.1115996875,39.838526726194914L106.471915,39.13249280357542L106.4845134375,39.29798727321787L106.6936475,39.44250729589609L106.9481359375,39.56372531630646L107.3966403125,39.66618403467581L107.45585296875,39.73184688120824L107.65490828125,39.811962193087425L107.6939634375,39.91172222377867L107.8451446875,39.9727437514008L107.89805812499999,40.02987562626075L107.9812078125,40.09346306363466L108.4095546875,40.1385230072712L108.72325578125,40.168014456544086L109.339319375,40.20119426088968L109.54215421875,40.238799834800716L109.57742984375001,40.29476985132064L109.6341228125,40.31361474118856L110.16199734375,40.377590767069734L111.19884875,40.344825080255305L111.2215259375,40.34483632222981L111.34373078125,40.34484644000685L111.4079828125,41.20773054600616L111.61081765624999,41.15795749140554L112.0379046875,41.10043986726498L112.11223546875,41.06913963053847L112.342786875,41.04096941748463L112.3604246875,40.99127872573615L112.7005825,39.68321960316251L112.72703921875,39.780366392846304L113.03318125,39.102273503561634L113.13270890624999,39.23207115320548L113.28011062499999,39.356632787884934L113.96924515625001,39.46984450909645L114.11790671875,39.5617788081868L114.21365484374999,39.6660915523681L114.539954375,39.76937614713131L114.64200171875,39.82693228241817L115.18625421875001,39.90362342917635L115.34499453125,39.9875798362587L115.37775046875001,40.03990935263283L115.52389234374999,40.10581216736955L115.71790828125,40.17839970063261L115.78845953125001,40.21275348056932L115.85271156249999,40.24035313251238L115.880428125,40.27625531926117L115.92200296875001,40.316311037335055L115.9534990625,40.31364243360153L116.28105843750001,40.361021940241386L116.283578125,40.403663496217234L116.41208218749999,40.39557839659551L116.41586171875001,40.40489555693594L116.60987765625,40.409962251242376L116.817751875,40.40677852611813L117.0067284375,40.43931317350632L117.1780671875,40.433194356155695L117.392240625,40.43321867054013L117.56735890624999,40.41885930348613L118.1607453125,40.45461087313751L118.16704453125,40.486787285823794L118.22625718750001,40.46707105724141L118.3018478125,40.502426451517294L118.33082421875001,40.513227556365564L118.662163125,40.494186050728985L119.5616915625,40.506917445656114L119.901849375,40.54603195109047L120.2772828125,40.52039125598145L120.29996,40.5305021303833L120.4007475,40.517476917344965L120.85555109375,40.52787922561049L121.070984375,40.535028803049414L121.22090578125,40.543675922744484L121.48925249999999,40.564733330470034L121.55350453125,40.57040999742301L121.73492203125,40.56666899768072L121.7941346875,40.54560209791265L121.94153640625001,40.540470013121364L122.08767828124999,40.53916988680925L122.0964971875,40.52195914812833L122.45555265625,40.54850698331552L122.87382078125,40.55248753498395L123.3412228125,40.55385753148556L123.63602625,40.56172802833697L123.72799484375,40.536730225503305L123.7998059375,40.53746345295295L124.44232625,40.52927335765767L124.527995625,40.538496021891916L124.62500359375001,40.531308919702724L124.64264140625,40.518203027732454L124.6917753125,40.54733897495922L124.7320903125,40.5359488274633L125.25240578125,40.594285194716974L125.4779178125,40.596453550245286L125.95413875,40.570195695220775L126.02469,40.59800425069869L126.02972937499999,40.59592882562882L126.11161921875,40.60512344306591L126.1935090625,40.57910484875933L126.47697390625001,40.59440686388339L126.49713140625,40.59711617749505L126.67854890624999,40.58074830974553L126.71130484375,40.577079728771025L126.75791906250001,40.5693530058939L127.24043921875,40.55133645530452L127.26437625,40.58158405977406L127.3928803125,40.58115065379667L127.7254790625,40.57522933841699L127.86784140625001,40.54998765457529L127.9119359375,40.54386388911777L128.44484984375,40.55494625020597L129.43256734374998,40.56492037518538L129.47540203124998,40.59270333766685L129.5749296875,40.630983003900155L129.859654375,40.64441595351013L129.92516625,40.631061858159114L130.101544375,40.658868172343205L130.40768640625,40.703806355108895L130.72516703125,40.674556969598L130.928001875,40.65265752263818L131.2328840625,40.650648020374376L131.2731990625,39.99393946833695L131.54028593750002,40.066651771503246L131.7821759375,40.11439284435295L131.88926265625,40.162891059917655L132.05556203125,40.192158203925885L132.31005046875,40.243942383533295L132.35036546875,38.735160645179974L132.3969796875,38.94702583066194L132.49776718750002,39.12940762259575L132.68800359375,39.28746686033617L132.92485421875,39.39985142430257L132.963909375,39.50099753187229L133.00548421875,39.600879028685085L133.14910640624998,39.700728625816566L133.22847656250002,39.76846826323492L133.56233515625,39.86151518691145L134.52737546875,39.9220261682203L134.5437534375,39.96210480139828L134.6344621875,40.04242557125846L134.81461984375,40.111395514132596L135.2996596875,40.17346846271937L135.37147078125,40.19946536644744L135.50501421874998,40.22839382980271L135.5869040625,39.71457944682243L135.64359703125,39.791996502140194L135.8489515625,39.899284351926184L136.2369834375,39.944955916733534L136.91351953125002,39.98495407506019L137.0911575,40.04197116755418L137.65430765625,40.094392800798744L137.761394375,40.15927227071887L137.781551875,40.18447629364698L138.2628121875,40.19830991428228L138.28422953125002,39.45961642285408L138.44800921875,39.62558603056863L138.5500565625,39.70526492751179L138.628166875,39.8223321847606L138.8826553125,39.87459271628455L139.15100203125002,39.958133444656085L139.93714453125,40.031107600190495L139.96234140625,40.112271840171445L140.22186921875002,40.48013528115433L140.63005859375,40.55843425303891L140.65525546875,40.63885957773502L140.659035,40.7112423699615L140.76612171875,40.708905632965354L140.76990124999998,40.70680256966881L141.22218515625,40.700484812701944L141.25494109375,40.72356133143174L142.02218593749998,40.69952707328858L142.09651671875,40.68398061595974L142.52234390625,40.69764505436376L142.64454874999998,40.68615867392742L142.95699,40.81023030653469L143.49872281249998,40.782507275881215L144.10218796875,40.74428154829312L144.29872359375,40.88798464346377L144.61116484375,40.84695492911743L144.745968125,40.80560318620567L144.9551021875,40.7717053675851L145.11510234375,39.73561608082659L145.28770093749998,37.71016072274392L145.3582521875,38.00461340046954L145.3985671875,39.036252060422584L145.48801609375,39.18979872938033L145.96675671875,39.3539876064423L146.07888281249998,39.46857009579807L146.10785921874998,39.56284433621826L146.5223478125,39.65709427759643L146.81715125,39.73251609983677L146.89904109375,39.80039573985309L147.42565578125001,39.88582491586777L147.59951421875,39.999217424281L147.68770328124998,40.09297380685288L147.77589234375,38.71433892616761L147.92707359374998,38.534461283550854L147.98250671875,38.84051515519576L148.15384546875,38.89471363967618L148.33778265625,39.04747977570858L148.40581421874998,39.181650548137725L148.50660171875,39.76813549332394L148.64518453125,40.35902819399155L148.837940625,40.39965662459241L148.92990921875,40.41630971213317L149.17179921875,40.432403740919824L149.25998828125,40.441357116827845L149.321720625,40.44277765514505L149.9919575,40.53587488963055L150.56014703125,40.7369249006675L150.69369046875,40.81830741060077L150.69621015625,41.347326669540706L151.03636796875,41.301294002586616L151.89558140625,41.23110210232795L151.92455781249998,41.13695439209516L152.1286525,41.08319645288566L152.26345578125,41.0204330575971L152.33778656249999,40.986071001837416L152.4385740625,40.94850765165367L152.53306234375,40.92410376148831L152.637629375,40.89163088533951L152.73715703125,40.861299046805584L152.86440125,40.804131642125014L152.889598125,40.75268097791252L152.98534625000002,40.75670975512128L153.05715734375,40.74318877960914L153.071015625,40.70778865164823L153.605189375,40.70469103648341L153.63038625000002,40.69637193283506L154.088969375,40.68501286455157L154.34345781250002,40.71590568820386L154.38377281249998,40.67991511938345L154.451804375,40.68624235744511L154.56519031250002,40.69636187170059L154.81085984375,40.67006943453055L154.849915,40.69839999107751L154.91920640625,39.79464749196973L154.96330093749998,39.86405774277276L154.975899375,39.9375894684955L155.22156890625,40.01261802164592L155.54408890624998,40.07129371948133L155.6133803125,40.18273309753323L156.15511312499999,39.84605978777989L156.56960171875,39.93079443400191L156.64267265625,39.99101499060171L157.10881484375,40.045213491541546L157.23983859375,40.08569526738739L157.25747640625,40.12212886564865L157.28141343750002,40.185340979083776L157.33306703125,40.26656938117543L157.35070484374998,40.272193693057886L157.3696025,40.277255573752086L157.38598046875,40.36699251637688L157.435114375,40.39465576473921L157.5988940625,40.40295893826527L157.8155871875,40.41153804443874L158.02850078125002,40.412621739994876L158.25023328125002,40.592071705887975L158.36613890625,40.576208285299174L158.45684765624998,40.58626870676926L158.47448546875,40.56158246109234L159.00613953125,40.60961171498312L159.077950625,40.5776130434848L159.23291140625003,40.57647048913631L159.45464390625,39.76677344022269L159.58062828125,39.86441484620042L159.71039218750002,39.92850773658034L160.13118,39.964619462922315L160.96393671875,38.67349189163011L161.01433046875,38.88267395246709L161.05590531250002,39.19483780722038L161.28771656249998,38.27107902649834L161.82692968749998,38.9176461238485L161.99952828125,38.32582526146368L162.82598578124998,38.5222052353173L162.82724562500002,38.698947211785594L162.9003165625,39.06377749060701L163.1522853125,39.232824741546295L163.25181296875,39.39713601739169L163.55669515625,39.186591165652516L163.8603175,39.30574454908728L164.0215775,39.42293884417856L164.06315234374998,39.483057459760715L164.30756203125,39.65885171378463L164.38315265625,39.804897792406166L164.51921578125,38.92412051316555L164.56457015625,39.08832721184899L164.5885071875,39.32461324066409L164.7094521875,39.509614416597714L165.28520078124998,39.63297172493793L165.336854375,39.74067455244415L165.447720625,39.80884459719974L165.7274059375,39.87683513747976L165.92016203125002,39.99555162373176L166.1582725,40.03270271135858L166.193548125,40.08605119022272L166.89276140625,40.10640857120046L167.13717109375003,40.15459896408041L167.186305,40.17031406767239L167.43701390625,40.235345160905155L167.96614828124999,40.25515439481464L168.30252656250002,40.30948895533314L168.49402281250002,40.337371309799835L168.79512546875,38.373427928819865L169.18819671875,38.58496013593788L169.398590625,38.83397037234408L169.40866937500002,39.03816708510968L169.85339421875,39.18543787659871L170.20111109375,39.323512838938825L170.26788281249998,39.45828968004494L170.71764703125,39.57848258704044L170.73276515625,39.69937807833642L171.04394656250003,39.805971520502794L171.05276546875,39.88752436845252L171.18630890625,39.94211568160725L171.38914375000002,39.98682286344655L171.5025296875,40.05471557710189L171.91071906250002,40.111394019391696L172.1878846875,40.145810867452525L172.23575874999997,40.20222978070731L172.3264675,40.25521930263656L172.37560140625,40.30290987237288L172.52174328125002,40.3203876351356L172.62001109375,40.33943637162207L172.63764890624998,40.33666773445984L172.65906625,40.34081346101385L172.795129375,40.37883836491247L173.399854375,40.383745153421216L173.63922468750002,40.40752063807909L173.7853665625,39.92889357427117L174.0625321875,39.995941716844044L174.09906765624999,40.155847545159645L174.679855625,40.201306540643685L175.00363546875,40.23226338657935L175.0401709375,40.26344329792141L175.11702140625002,40.27380521812927L175.50001390625,40.28091844631635L175.71166765625,40.29617035168471L176.352928125,40.30879081651622L176.745999375,40.340799594972026L177.45529140624998,40.36665713547481L177.88111859375,40.38439767192733L177.8823784375,40.4003641547346L178.05749671875,40.475577739261155L178.09529203124998,40.48131996533505L178.146945625,40.47100046880155L178.2930875,40.50153792192137L178.691198125,40.501365379729265L178.7441115625,40.50563509175632L179.15734031250003,40.51390283258067L179.19639546874998,40.53351254932264L179.5655296875,40.52239879439037L179.68269515625002,40.54281828995133L179.69781328125,40.56119583595617L179.830096875,40.59598875236057L180.24458546875,40.62619612712453L180.9261609375,41.27011713941209L180.9563971875,39.75606792547089L180.99797203125,40.78956113292378L181.54852375000002,40.78271126963139L181.63167343749998,40.75939951766824L181.6669490625,40.76220331590142L182.08899671875,40.264701734311274L182.37624109375,40.286000310880155L182.38002062500001,40.305169029792125L182.39387890625002,40.32242087681291L182.44931203125,39.943016289131634L182.73277687499998,38.89355216021849L183.04395828124999,38.25491256919662L184.49781796875,38.46391506227698L184.80396,38.708436056049266L185.11640125,38.547954950444336L185.18317296875,38.725440705399905L185.3204959375,37.16827788485992L185.48805515625,37.539043846373914L185.71986640625002,37.82737696173652L185.88112640625,38.082451765562865L185.947898125,38.08855658900657L186.0008115625,38.42813843010592L186.13813453125002,38.41903396209531L186.1469534375,36.715511815885776L186.1872684375,37.0873043842972L186.22758343750002,37.426342695867476L186.30443390625,37.20213655128072L186.32711109374998,37.569516646152636L186.59923734375002,38.00857123153739L186.84112734375,38.293095358383624L186.97215109375,38.54584832254528L187.05026140625,39.08031036529076L187.53152171874999,39.221154328761685L187.90191578125,38.64987014588553L187.95230953125,35.59687063129698L188.11860890625,36.781336693167304L188.22947515625,37.02485927385058L188.24459328125,37.38673584646551L188.25467203125,37.71242476181894L188.35042015625,38.028776035637065L188.4045934375,38.25817968207335L188.56459359374998,38.46464296386603L188.8833340625,38.68475366747941L189.06727125,38.88838455073147L189.1856965625,36.72750859565835L189.37593296875,37.13682023609249L189.86349249999998,38.323825712483256L190.14443765624998,38.54474314123493L190.22002828125,37.89507507711144L190.856249375,37.631186319400314L190.87010765625,37.937961437460274L191.09435984375,38.194146543714254L191.12333625,38.486663139342824L191.16239140625,38.69793432540854L191.34128921875,38.87701589286769L191.35892703125,39.04040180358092L192.34916421875,39.25382412322284L192.65152671874998,40.021154210900534L192.67168421875002,40.08008253981049L193.01688140625,40.137543035829424L193.15798390625,40.181145342353915L193.38223609374998,40.202502683118496L193.42255109375,39.96286178980668L193.51325984375,40.00106936082602L193.84081921875,40.0332436747434L194.02601625,40.099813057269074L194.49089859375002,40.12432550154219L194.5072765625,40.15357732638796L194.61436328125,39.691494593749184L195.0616078125,39.25681388437425L195.09058421875,38.844582495936834L195.0968834375,38.48906174634317L195.1220803125,38.14696807170884L195.25562375,38.36897751453796L196.051845,38.430504763084144L196.37562484375,38.64683866177572L196.80019218750002,38.83877354559817L196.88964109375001,39.01483369103835L196.98790890625,39.17328782193451L197.3847596875,39.31589653974106L197.39105890624998,39.44424438576695L197.4099565625,39.53541994719026L197.825705,39.66836545247122L197.86602,39.77584765722409L198.11420921875,39.832756641501675L198.40397328125,39.88176222735149L198.5085403125,39.94246100461635L198.53247734375,39.98934615415473L198.66224125,40.05145528873925L198.73405234375,37.840647259865335L199.01373765625,38.08665128387881L199.25310796875,38.3412424054909L199.61594296874998,38.58586191494183L199.65121859375,38.79385072344763L199.75956515625,39.055159401102856L200.23956562499998,39.192987210992584L200.2672821875,39.64669473989329L200.64145578125,40.329381515903975L200.82413312499997,40.380718364313594L200.8820859375,40.37492777788222L201.54476375000002,40.41507250009403L201.5951575,40.4722215000846L201.60523625000002,40.523655600076154L201.6329528125,40.51408066506855L201.64555125,40.50712259856169L201.741299375,40.524091588705545L201.78413406250002,40.540469929834984L201.89374046875,40.55963543685152L201.932795625,40.561396893166375L202.52114265625,40.03972595384971L202.744135,40.10454085846476L202.8222453125,40.15955552261829L203.11578890625,40.216812470356444L203.12334796875,40.2694499733208L203.9107503125,40.29691122598874L203.9561046875,40.32494510338984L204.07830953125,40.41876309305087L204.34287671874998,40.486605533745774L204.34413656249998,40.5476637303712L204.72082984375,40.53955985733407L205.04209,40.53447887160067L205.21972796875,40.56641223444058L205.59012203125,40.566389760996515L205.78665765625,40.92700703489689L205.9668153125,40.61878758140719L206.07516187500002,40.62569632326645L206.0877603125,40.62859544093982L206.26539828125,40.44461678673841L206.32209125,40.44571135806456L206.35358734375,40.467715222258136L206.51232765625,40.474243700032304L206.60051671875001,40.45910058002906L206.8134303125,40.380203022026166L206.90035953125,37.95398896982354L206.9746903125,36.4219775728412L207.12461171875,33.48446106555707L207.28083234374998,34.22748058400134L208.22823484375,35.09808877560121L208.64650296875,35.661492398041105L208.66036125,35.608793158237006L208.77122749999998,35.581276342413304L208.82036140625002,36.07644870817197L208.872015,35.98336008735478L209.52839359375,34.412780328619306L209.63799999999998,34.74160229575736L210.01217359375002,35.35448269118163L210.85626890625,35.864590672063514L211.013749375,36.74461597985717L211.73438,36.420985631871446L211.8931203125,37.118705818684305L212.01784484375,36.93245398681589L212.18918359375002,37.326802338134314L212.34288453125,37.65074085432087L212.41595546875,35.94992926888881L212.5028846875,36.34407384199994L212.5079240625,36.863635207799916L212.63516828124997,35.59553418701995L212.74351484375,36.342612018317965L212.7624125,36.77050081648616L213.47170453125003,37.38016948483755L213.614066875,36.686552536353815L213.775326875,37.07562228271843L213.79422453125,37.43131630444657L213.88241359375,37.78684092400189L214.03107515625,37.665419331601726L214.09532718749998,36.19877114844155L214.18225640625,36.72733153359741L214.18729578125001,37.20303588023765L214.85123343749999,38.20641979221389L214.87517046875,39.40815281299251L214.97595796874998,38.809318781693264L215.12965890625,35.01578065352393L215.2619425,35.15708383817153L215.48745453125,35.70131295435439L215.50509234375,34.03835665891893L215.55044671875,35.123130368027034L215.6021003125,33.69941733122434L215.720525625,34.305338098101885L215.78225796874997,34.90929803829172L215.80241546875,34.53578073446252L215.90446281250001,35.15984016101632L216.00902984375,35.69826239491468L216.11863625,33.75572990542321L216.1413134375,34.44783816488089L216.31139234375001,33.6536293483928L216.48273109374998,33.36806641355352L216.970290625,30.554516022198186L217.01690484374998,31.053445669978373L217.35328312500002,30.58540110298054L217.6128109375,32.83796724268248L217.65942515625,33.80548926841422L218.65470171875,34.55899659157282L218.73911125,35.151971932415535L218.81596171875,32.647887239174L218.94320593749998,33.53596101525659L219.26950546875,34.26110866373094L219.35013546875,32.87547592235785L219.8704509375,33.44320958012207L220.05060859375,32.49170737210986L220.45879796875,36.40882413489885L220.7120265625,35.31784797140898L220.810294375,35.8227694242681L220.82163296874998,37.513986231841244L221.20966484374998,37.84133135865716L221.38100359375,35.77409822279142L221.39990125,36.22896965051228L221.697224375,36.661585185461064L221.7753346875,37.02770791691495L222.1230515625,35.757580875223454L222.22761859375,36.3319196627011L222.55517796875,38.349452696431L222.77439078125,39.00035117678789L222.866359375,37.0030660591091L222.896595625,36.20076606330562L222.9545484375,35.72022695697507L223.0502965625,35.798276136277565L223.07423359375,34.9342922726498L223.15738328125,35.770725545384835L223.36021812500002,36.95937799084635L223.47486390625,37.14748394176172L223.53533640625,37.586704297585555L223.77848625000001,38.74863386782701L224.0128171875,37.021001731044294L224.16147875,37.40649530793988L224.216911875,37.75454577714592L224.247148125,38.03570994943129L224.3051009375,38.269951454488165L224.92116453124999,38.50510630903935L225.0988025,38.56740192813544L225.13281828125,38.43761798532188L225.32935390625002,38.33298118678968L225.49313359375,37.785245568110724L225.69344875,38.09763351129965L226.02730734374998,37.726095160169706L226.17092953125,38.93492939415273L226.1847878125,39.08699270473744L226.494709375,37.3022934342637L226.535024375,37.71939534083734L227.02762328125002,39.19993080675363L227.09061546875,39.29451897607825L227.30730859374998,38.579829578470424L227.35392281249997,38.767402870623414L227.66510421875,39.81236883356104L227.97502578125,39.98620695020497L228.03297859375,40.131598755184456L228.23329375,38.153938879666015L228.25345125,36.8043762416994" style="fill: none;" fill="none"></path></g></g></g></g><g opacity="0.2"><g><g><g><path stroke="rgb(255, 112, 67)" stroke-width="2px" d="M25.25104828125,54.10668750000001L25.40852875,33.132187499999986L25.4866390625,32.86668750000001L25.79530078125,32.8888125L25.87341109375,89.982375L25.927584375000002,89.982375L25.93640328125,89.982375L25.99687578125,265.389375L26.01325375,265.389375L26.09766328125,33.2206875L26.21608859375,32.811375L26.47561640625,40.632562500000006L26.8775065625,265.0906875L26.9430184375,121.73175L26.95183734375,121.73175L27.00727046875,116.0566875L27.382703906249997,114.95043749999999L27.386483437499997,114.95043749999999L27.5628615625,127.639125L27.6132553125,134.9293125L27.76317671875,143.8235625L28.104594375,99.8833125L28.2079015625,33.298125L28.3288465625,91.03331250000001L28.33010640625,91.03331250000001L28.5808153125,149.2220625L29.025540156250003,53.0115L29.267430156249997,264.98006250000003L29.28758765625,83.698875L29.361918437499998,92.0510625L29.756249531250003,70.9880625L29.75876921875,70.9880625L29.82176140625,265.256625L30.0119978125,137.25243749999998L30.18207671875,107.682375L30.6368803125,106.6756875L30.74144734375,117.6054375L30.85735296875,265.2455625L30.878770312500002,119.983875L31.460818125,33.16537499999998L31.66617265625,122.2185L31.931999687500003,121.7206875L31.949637499999998,168.81928125L32.408220625000006,123.2694375L32.58585859375,32.811375L32.640031875,56.252812500000005L32.74459890625,56.252812500000005L33.009166093750004,138.768L33.033103125,138.768L33.637828125,135.30543749999998L33.65294625000001,135.30543749999998L33.83310390625,124.6633125L33.974206406250005,144.95193749999999L34.212316875000006,96.531375L34.596569218750005,107.10712500000001L34.60034875,107.10712500000001L35.02239640625,84.66131250000001L35.0664909375,95.71275L35.360034531249994,111.32193749999999L35.50365671875,105.80175L35.555310312500005,115.44825L35.90428703125,100.6134375L35.91688546875,129.4644375L36.38302765625,135.825375L36.45483875,113.00343749999999L36.86428796875,105.2596875L37.12633546875,142.62881249999998L37.234682031249996,121.045875L37.25106,59.98087500000001L37.41609953125,84.429L38.29925,131.90371875L38.4000375,94.53459375L38.45421078125,127.417875L38.5612975,66.67368749999999L38.77925046875,137.39625L38.932951406250005,97.54912499999999L38.9367309375,97.54912499999999L39.01358140625,100.7240625L39.08161296875,95.58L39.184920156249994,102.549375L39.72665296875,72.30449999999999L39.76948765625,100.5249375L39.919409062499994,90.7899375L40.0126375,110.35396875L40.277204687499996,127.09706249999999L40.28350390625,127.09706249999999L40.52287421875,124.06593749999999L40.68161453125,118.94399999999999L41.4211428125,123.6234375L41.618938281249996,134.03325L41.6529540625,129.5086875L42.3282303125,125.74743749999999L42.35720671875,111.4325625L42.59657703125,150.40575L43.1143728125,122.18531250000001L43.20634140625,136.9426875L43.26177453125,128.2696875L43.3990975,103.9321875L43.639727656249995,119.3311875L43.67752296875,119.3311875L43.817365625,125.24962500000001L43.9357909375,127.1855625L44.6916971875,93.168375L45.058311718750005,109.0430625L45.50177671875,118.1364375L45.7600446875,118.12537499999999L46.4353209375,134.1549375L46.69862828125,117.1186875L46.737683437499996,122.78268750000001L47.0148490625,105.0163125L47.042565625,102.5161875L47.29957375,98.699625L47.317211562500006,98.699625L48.443511875,129.4865625L49.28130796875,132.96018750000002L49.3480796875,112.99237500000001L49.804143125,89.7058125L49.941466093749995,100.25943749999999L49.95910390625,100.25943749999999L50.056111875,109.8395625L50.388710624999995,79.25175L50.4617815625,101.4099375L50.47312015625,112.61625L50.70241171875,96.619875L50.71249046875,66.89493750000001L50.801939374999996,98.19075000000001L50.94934109375,126.4665L51.074065624999996,77.415375L51.123199531249995,117.6496875L51.376428125,118.72275L51.38020765625,112.4724375L51.47217625,124.57481250000001L51.75564109375,98.5005L51.83627109375,140.9030625L51.94713734374999,143.9120625L52.05674375,86.80743749999999L52.313751875,101.34356249999999L52.72320109375,125.116875L53.2233590625,89.59518750000001L53.33044578125,113.66718750000001L53.36572140625,92.8475625L54.34839953125,169.96425L54.36099796875,169.96425L54.41643109375,62.16018749999999L54.53485640625,62.16018749999999L54.6293446875,99.540375L54.712494375,76.707375L54.85485671875,134.9956875L55.018636406249996,59.184375L55.0324946875,59.184375L55.057691562500004,62.9566875L55.35627453125,63.89699999999999L55.619581874999994,66.31968749999999L55.78966078125,29.813437499999992L55.792180468750004,29.813437499999992L55.840054531250004,83.2231875L56.2167478125,33.054749999999984L56.3402125,32.922L56.35029125,33.16537499999998L56.569504062499995,33.16537499999998L56.61107890625,32.7781875L57.0129690625,32.839031250000005L57.1868275,16.936687500000005L57.71722171875,73.3111875L57.76131625,100.3700625L57.8545446875,32.855625L58.335805,33.054749999999984L58.9581678125,32.855625L58.95942765625,32.855625L59.407932031250006,36.395624999999995L59.41423125,36.395624999999995L59.850137187499996,33.331312499999996L59.973601875,32.97731250000001L60.017696406249996,33.1875L60.2532871875,33.1100625L60.36793296875,33.16537499999998L61.02557140625,33.076875L61.157855,33.032624999999996L61.695808281249995,33.27599999999998L61.72856421875,33.30918749999998L61.81171390625,32.97731250000001L61.9868321875,35.62125L62.0649425,39.33824999999999L62.32699,33.1100625L62.3471475,29.647500000000008L62.503368125,33.1100625L62.778014062500006,33.17643750000002L62.99974656249999,32.89987500000001L63.0325025,29.31562500000001L63.21266015625,34.93537499999999L63.405416249999995,53.675250000000005L63.58557390625,34.64775L63.764471718749995,34.824749999999995L63.88289703125,32.944124999999985L63.90053484375001,32.949656250000004L64.76478765625001,33.19856249999998L64.811401875,32.811375L65.36195359375,32.7781875L65.43250484375,33.1100625L65.51817421875,32.91093749999999L65.7739225,40.355999999999995L66.06116687500001,33.17643750000002L66.19597015625,40.47215625000001L66.3408521875,40.754249999999985L66.47313578125001,40.52193750000001L66.63943515625,36.93768750000001L66.64951390625,33.20409375L66.81581328125,33.253874999999994L67.0010103125,46.373999999999995L67.24542,32.96625L67.28069562499999,32.96625L67.7014834375,33.1543125L67.7166015625,46.15275L67.74053859375,46.13062500000001L67.7619559375,46.13062500000001L67.8299875,47.12625L67.87660171875,50.99812499999999L67.92321593749999,46.6063125L68.07817671875,46.528875L68.48888578124999,40.67681249999998L68.6942403125,41.49543749999998L68.78746875,41.11931250000001L69.01928,43.94578125000001L69.7121940625,44.316374999999994L69.73865078125,46.65056250000001L69.76762718750001,42.6016875L69.901170625,47.53003125000001L70.264005625,46.573125000000005L70.3622734375,37.03725L70.4932971875,46.373999999999995L70.5991240625,48.3984375L70.86243140625,50.378625L70.898966875,46.92712500000002L71.3449515625,46.58418750000001L71.382746875,46.69481250000001L71.51881,46.362937500000015L71.62337703125,40.82062500000001L71.695188125,46.00340625000001L72.06684203125,46.761187500000005L72.4284171875,46.528875L72.77487421875,40.67681249999998L72.91597671875,49.90293749999999L73.62526875,46.31868749999998L73.64542625,46.13062500000001L73.97928484375,46.66162499999999L74.13046609375,36.53390625L74.3081040625,52.12649999999999L74.70495484375,42.68465624999999L75.21645140624999,32.8888125L75.3159790625,29.553468750000008L75.43818390625,29.387531249999995L75.47723906249999,29.492625000000004L75.61708171875,29.675156249999986L75.96479859375,29.53687500000001L76.22180671875,29.514749999999992L76.42716125,29.42625000000001L76.432200625,29.42625000000001L76.47377546875,29.791312500000004L76.49897234375,29.813437499999992L76.59094093750001,29.382000000000005L76.90212234375,29.393062500000013L77.15913046875,29.287968750000005L77.19314625000001,29.503687499999984L77.28133531249999,31.31240625000001L77.530784375,29.415187500000002L77.550941875,29.415187500000002L78.28039140624999,29.5258125L78.67850203125,40.50534375000001L78.70117921875,40.48875000000001L78.96574640624999,33.032624999999996L80.02401515625,29.459437500000007L80.13614125,29.481562499999995L80.17645625,29.393062500000013L80.267165,32.80031249999999L80.30118078125,33.325781250000006L80.30622015625,33.325781250000006L80.3855903125,32.933062500000005L80.62244093749999,32.9994375L80.7232284375,40.45556250000001L80.88322859374999,40.40025L80.8920475,40.842749999999995L80.947480625,46.274437500000005L81.01425234375,41.00868750000001L81.65929234375,29.43731249999999L81.84574921874999,29.404124999999993L82.28165515625,29.370937499999997L82.35976546875,29.592187499999994L82.529844375,29.31562500000001L82.72008078125,33.132187499999986L83.55157765624999,33.08793750000001L83.57173515625,33.032624999999996L83.67126281249999,33.35343750000001L83.779609375,33.076875L84.79000406249999,29.647500000000008L85.1477996875,29.53687500000001L85.21457140625,29.62537500000002L85.2536265625,29.448375L85.2989809375,29.271375000000006L85.34811484375,29.282437500000015L85.52197328125001,29.393062500000013L85.60386312499999,29.492625000000004L85.63283953125,29.409656250000012L85.76638296875,29.348812500000008L85.8986665625,29.171812500000016L85.956619375,29.227125L86.32827328125,29.205000000000013L87.27315609374999,29.282437500000015L87.37268375000001,29.492625000000004L87.5314240625,29.509218750000002L88.19788140624999,29.570062500000006L88.26087359375,29.42625000000001L88.37803906250001,29.304562500000003L88.39819656249999,29.43178125L88.435991875,29.393062500000013L88.52796046875001,29.171812500000016L88.98276406250001,29.459437500000007L89.22213437500001,29.53687500000001L89.423709375,29.444691101074227L89.61898515625,29.514749999999992L89.73615062500001,29.33775L90.45552140625,29.260312499999998L90.65205703125001,32.98837499999999L90.71126968749999,32.89987500000001L91.07788421875,32.9994375L91.1547346875,40.59937500000001L91.35253015625,40.743187500000005L91.56922328125,40.37812500000001L91.85142828125,40.732124999999996L91.893003125,40.6215L92.08575921875,40.97550000000001L92.10465687499999,31.00818750000002L92.55946046874999,40.37812500000001L92.85930328125,40.510875L92.8681221875,40.9644375L92.87316156249999,40.4334375L92.8782009375,40.72106249999999L93.05583890625,36.30712500000001L93.11127203125,40.78743749999998L93.32040609375,40.57171875L93.384658125,42.98334375000002L93.5333196875,40.38918749999999L94.100249375,40.737656249999986L94.24639125,40.566187499999984L94.41017093750001,40.776375L94.46686390625,41.30737500000001L94.73269093750001,40.743187500000005L94.866234375,40.831687500000015L95.17363625,40.53299999999999L95.18371499999999,40.46662499999999L95.38780968750001,40.654687499999994L95.45458140625,40.42237499999999L96.17395218749999,40.853812500000004L96.388125625,40.355999999999995L96.4057634375,40.754249999999985L96.51536984375001,40.36153125000001L96.740881875,40.37812500000001L96.78245671875,40.654687499999994L97.00796875,40.831687500000015L97.38592187500001,32.98837499999999L97.3934809375,32.91093749999999L97.61899296875,32.9994375L97.96670984375,40.76531249999999L98.64072625,40.87593749999999L98.82340359375,40.53299999999999L98.96954546875,40.89806249999998L99.0766321875,40.59937500000001L99.17490000000001,40.41131250000001L99.20891578125,40.831687500000015L99.230333125,40.37812500000001L99.86151484375,40.355999999999995L99.92072750000001,40.62703124999999L100.07316859375,33.06581250000002L100.33521609374999,40.48875000000001L100.37301140625,40.289625L101.01427187499999,40.566187499999984L101.0218309375,40.59937500000001L101.0495475,40.31174999999999L101.1629334375,40.544062499999995L101.387185625,40.31174999999999L102.3068715625,38.84043749999998L102.39632046875,40.647308898925786L102.60041515625,40.544062499999995L102.72136015625,40.67681249999998L102.90529734375001,40.6989375L103.483565625,40.344937500000015L103.584353125,40.333875000000006L103.95852671875,40.842749999999995L103.997581875,40.544062499999995L104.40955078125,40.4334375L104.59852734375,40.510875L104.84545671875,40.510875L105.1087640625,40.46294110107422L105.2145909375,40.57171875L105.41364625,40.544062499999995L105.6580559375,32.9994375L105.81301671875,40.76531249999999L105.95159953125,40.289625L106.1115996875,40.3228125L106.471915,32.7781875L106.4845134375,40.78743749999998L106.6936475,40.743187500000005L106.9481359375,40.654687499999994L107.3966403125,40.5883125L107.45585296875,40.3228125L107.65490828125,40.53299999999999L107.6939634375,40.8095625L107.8451446875,40.52193750000001L107.89805812499999,40.544062499999995L107.9812078125,40.66575L108.4095546875,40.544062499999995L108.72325578125,40.4334375L109.339319375,40.49981249999999L109.54215421875,40.57724999999999L109.57742984375001,40.79850000000002L109.6341228125,40.48321874999999L110.16199734375,40.953374999999994L111.19884875,40.04993389892579L111.2215259375,40.344937500000015L111.34373078125,40.344937500000015L111.4079828125,48.97368749999998L111.61081765624999,40.71000000000001L112.0379046875,40.58278125000001L112.11223546875,40.78743749999998L112.342786875,40.78743749999998L112.3604246875,40.544062499999995L112.7005825,27.910687499999995L112.72703921875,40.654687499999994L113.03318125,32.9994375L113.13270890624999,40.40025L113.28011062499999,40.4776875L113.96924515625001,40.48875000000001L114.11790671875,40.38918749999999L114.21365484374999,40.60490625L114.539954375,40.6989375L114.64200171875,40.344937500000015L115.18625421875001,40.59384374999999L115.34499453125,40.743187500000005L115.37775046875001,40.510875L115.52389234374999,40.6989375L115.71790828125,40.831687500000015L115.78845953125001,40.52193750000001L115.85271156249999,40.48875000000001L115.880428125,40.59937500000001L115.92200296875001,40.67681249999998L115.9534990625,40.289625L116.28105843750001,40.78743749999998L116.283578125,40.78743749999998L116.41208218749999,40.3228125L116.41586171875001,40.48875000000001L116.60987765625,40.45556250000001L116.817751875,40.37812500000001L117.0067284375,40.732124999999996L117.1780671875,40.37812500000001L117.392240625,40.4334375L117.56735890624999,40.289625L118.1607453125,40.776375L118.16704453125,40.776375L118.22625718750001,40.289625L118.3018478125,40.82062500000001L118.33082421875001,40.61043749999999L118.662163125,40.3228125L119.5616915625,40.6215L119.901849375,40.89806249999998L120.2772828125,40.289625L120.29996,40.6215L120.4007475,40.40025L120.85555109375,40.6215L121.070984375,40.59937500000001L121.22090578125,40.6215L121.48925249999999,40.754249999999985L121.55350453125,40.6215L121.73492203125,40.53299999999999L121.7941346875,40.355999999999995L121.94153640625001,40.49428125L122.08767828124999,40.52746875L122.0964971875,40.3670625L122.45555265625,40.78743749999998L122.87382078125,40.5883125L123.3412228125,40.566187499999984L123.63602625,40.632562500000006L123.72799484375,40.31174999999999L123.7998059375,40.544062499999995L124.44232625,40.45556250000001L124.527995625,40.6215L124.62500359375001,40.46662499999999L124.64264140625,40.40025L124.6917753125,40.8095625L124.7320903125,40.4334375L125.25240578125,41.11931250000001L125.4779178125,40.61596875000001L125.95413875,40.333875000000006L126.02469,40.848281250000014L126.02972937499999,40.57724999999999L126.11161921875,40.68787500000002L126.1935090625,40.344937500000015L126.47697390625001,40.732124999999996L126.49713140625,40.6215L126.67854890624999,40.4334375L126.71130484375,40.544062499999995L126.75791906250001,40.49981249999999L127.24043921875,40.38918749999999L127.26437625,40.853812500000004L127.3928803125,40.57724999999999L127.7254790625,40.52193750000001L127.86784140625001,40.3228125L127.9119359375,40.48875000000001L128.44484984375,40.654687499999994L129.43256734374998,40.654687499999994L129.47540203124998,40.842749999999995L129.5749296875,40.97550000000001L129.859654375,40.76531249999999L129.92516625,40.510875L130.101544375,40.90912500000002L130.40768640625,41.10825L130.72516703125,40.41131250000001L130.928001875,40.45556250000001L131.2328840625,40.632562500000006L131.2731990625,34.0835625L131.54028593750002,40.72106249999999L131.7821759375,40.544062499999995L131.88926265625,40.59937500000001L132.05556203125,40.45556250000001L132.31005046875,40.71000000000001L132.35036546875,25.156125000000003L132.3969796875,40.853812500000004L132.49776718750002,40.77084374999998L132.68800359375,40.71000000000001L132.92485421875,40.41131250000001L132.963909375,40.41131250000001L133.00548421875,40.49981249999999L133.14910640624998,40.59937500000001L133.22847656250002,40.37812500000001L133.56233515625,40.6989375L134.52737546875,40.46662499999999L134.5437534375,40.3228125L134.6344621875,40.76531249999999L134.81461984375,40.732124999999996L135.2996596875,40.732124999999996L135.37147078125,40.4334375L135.50501421874998,40.48875000000001L135.5869040625,35.09025L135.64359703125,40.48875000000001L135.8489515625,40.86487500000001L136.2369834375,40.355999999999995L136.91351953125002,40.344937500000015L137.0911575,40.555125000000004L137.65430765625,40.566187499999984L137.761394375,40.743187500000005L137.781551875,40.41131250000001L138.2628121875,40.3228125L138.28422953125002,32.811375L138.44800921875,41.11931250000001L138.5500565625,40.42237499999999L138.628166875,40.87593749999999L138.8826553125,40.344937500000015L139.15100203125002,40.71000000000001L139.93714453125,40.68787500000002L139.96234140625,40.842749999999995L140.22186921875002,43.790906250000006L140.63005859375,41.263125L140.65525546875,41.36268750000002L140.659035,41.36268750000002L140.76612171875,40.68787500000002L140.76990124999998,40.68787500000002L141.22218515625,40.643624999999986L141.25494109375,40.931250000000006L142.02218593749998,40.48321874999999L142.09651671875,40.544062499999995L142.52234390625,40.82062500000001L142.64454874999998,40.58278125000001L142.95699,41.926874999999995L143.49872281249998,40.53299999999999L144.10218796875,40.40025L144.29872359375,42.18131250000002L144.61116484375,40.4776875L144.745968125,40.4334375L144.9551021875,40.46662499999999L145.11510234375,30.41081250000002L145.28770093749998,19.48106249999998L145.3582521875,40.654687499999994L145.3985671875,48.321L145.48801609375,40.57171875L145.96675671875,40.831687500000015L146.07888281249998,40.49981249999999L146.10785921874998,40.41131250000001L146.5223478125,40.50534375000001L146.81715125,40.41131250000001L146.89904109375,40.41131250000001L147.42565578125001,40.654687499999994L147.59951421875,41.019750000000016L147.68770328124998,40.936781249999996L147.77589234375,26.306624999999997L147.92707359374998,36.91556249999999L147.98250671875,41.595L148.15384546875,39.38249999999999L148.33778265625,40.42237499999999L148.40581421874998,40.38918749999999L148.50660171875,45.04649999999998L148.64518453125,45.677062500000005L148.837940625,40.76531249999999L148.92990921875,40.566187499999984L149.17179921875,40.57724999999999L149.25998828125,40.52193750000001L149.321720625,40.45556250000001L149.9919575,41.37375L150.56014703125,42.54637500000001L150.69369046875,41.550749999999994L150.69621015625,46.10849999999999L151.03636796875,40.887L151.89558140625,40.59937500000001L151.92455781249998,40.289625L152.1286525,40.59937500000001L152.26345578125,40.45556250000001L152.33778656249999,40.67681249999998L152.4385740625,40.61043749999999L152.53306234375,40.70446875000002L152.637629375,40.59937500000001L152.73715703125,40.5883125L152.86440125,40.289625L152.889598125,40.289625L152.98534625000002,40.79296875L153.05715734375,40.6215L153.071015625,40.38918749999999L153.605189375,40.67681249999998L153.63038625000002,40.6215L154.088969375,40.58278125000001L154.34345781250002,40.9939411010742L154.38377281249998,40.355999999999995L154.451804375,40.743187500000005L154.56519031250002,40.78743749999998L154.81085984375,40.4334375L154.849915,40.953374999999994L154.91920640625,31.660875000000004L154.96330093749998,40.48875000000001L154.975899375,40.59937500000001L155.22156890625,40.68787500000002L155.54408890624998,40.59937500000001L155.6133803125,41.1856875L156.15511312499999,36.816L156.56960171875,40.69340625000001L156.64267265625,40.53299999999999L157.10881484375,40.53299999999999L157.23983859375,40.450031249999995L157.25747640625,40.450031249999995L157.28141343750002,40.754249999999985L157.33306703125,40.997625L157.35070484374998,40.3228125L157.3696025,40.3228125L157.38598046875,41.17462499999999L157.435114375,40.643624999999986L157.5988940625,40.4776875L157.8155871875,40.48875000000001L158.02850078125002,40.42237499999999L158.25023328125002,42.20712139892578L158.36613890625,40.4334375L158.45684765624998,40.67681249999998L158.47448546875,40.339406249999996L159.00613953125,41.041875000000005L159.077950625,40.289625L159.23291140625003,40.566187499999984L159.45464390625,32.4795L159.58062828125,40.743187500000005L159.71039218750002,40.50534375000001L160.13118,40.289625L160.96393671875,27.053343749999982L161.01433046875,40.76531249999999L161.05590531250002,42.0043125L161.28771656249998,29.957250000000016L161.82692968749998,44.73675L161.99952828125,32.9994375L162.82598578124998,40.289625L162.82724562500002,40.289625L162.9003165625,42.34725L163.1522853125,40.754249999999985L163.25181296875,40.87593749999999L163.55669515625,37.291687499999995L163.8603175,40.37812500000001L164.0215775,40.4776875L164.06315234374998,40.024125L164.30756203125,41.240999999999985L164.38315265625,41.11931250000001L164.51921578125,30.997124999999983L164.56457015625,40.566187499999984L164.5885071875,41.4511875L164.7094521875,41.17462499999999L165.28520078124998,40.743187500000005L165.336854375,40.71000000000001L165.447720625,40.42237499999999L165.7274059375,40.48875000000001L165.92016203125002,41.06399999999999L166.1582725,40.3670625L166.193548125,40.566187499999984L166.89276140625,40.289625L167.13717109375003,40.5883125L167.186305,40.31174999999999L167.43701390625,40.82062500000001L167.96614828124999,40.4334375L168.30252656250002,40.79850000000002L168.49402281250002,40.5883125L168.79512546875,20.697937499999995L169.18819671875,40.48875000000001L169.398590625,41.0750625L169.40866937500002,40.87593749999999L169.85339421875,40.510875L170.20111109375,40.566187499999984L170.26788281249998,40.67128125000002L170.71764703125,40.660218749999984L170.73276515625,40.78743749999998L171.04394656250003,40.76531249999999L171.05276546875,40.6215L171.18630890625,40.4334375L171.38914375000002,40.38918749999999L171.5025296875,40.66575L171.91071906250002,40.6215L172.1878846875,40.45556250000001L172.23575874999997,40.71000000000001L172.3264675,40.732124999999996L172.37560140625,40.732124999999996L172.52174328125002,40.4776875L172.62001109375,40.510875L172.63764890624998,40.31174999999999L172.65906625,40.37812500000001L172.795129375,40.72106249999999L173.399854375,40.42790625000001L173.63922468750002,40.6215L173.7853665625,35.62125L174.0625321875,40.59937500000001L174.09906765624999,41.595L174.679855625,40.61043749999999L175.00363546875,40.510875L175.0401709375,40.544062499999995L175.11702140625002,40.3670625L175.50001390625,40.344937500000015L175.71166765625,40.4334375L176.352928125,40.42237499999999L176.745999375,40.628878601074206L177.45529140624998,40.59937500000001L177.88111859375,40.544062499999995L177.8823784375,40.544062499999995L178.05749671875,41.1525L178.09529203124998,40.53299999999999L178.146945625,40.37812500000001L178.2930875,40.776375L178.691198125,40.49981249999999L178.7441115625,40.544062499999995L179.15734031250003,40.5883125L179.19639546874998,40.71000000000001L179.5655296875,40.42237499999999L179.68269515625002,40.726593750000006L179.69781328125,40.726593750000006L179.830096875,40.90912500000002L180.24458546875,40.89806249999998L180.9261609375,47.065406249999995L180.9563971875,26.129625000000004L180.99797203125,50.09100000000001L181.54852375000002,40.72106249999999L181.63167343749998,40.549593749999985L181.6669490625,40.78743749999998L182.08899671875,35.78718749999999L182.37624109375,40.4776875L182.38002062500001,40.4776875L182.39387890625002,40.4776875L182.44931203125,36.52837499999998L182.73277687499998,29.448375L183.04395828124999,32.50715624999998L184.49781796875,40.344937500000015L184.80396,40.90912500000002L185.11640125,37.103624999999994L185.18317296875,40.3228125L185.3204959375,23.153812499999987L185.48805515625,40.87593749999999L185.71986640625002,40.42237499999999L185.88112640625,40.37812500000001L185.947898125,38.14350000000002L186.0008115625,41.484375L186.13813453125002,38.33709375000001L186.1469534375,21.383812500000005L186.1872684375,40.4334375L186.22758343750002,40.4776875L186.30443390625,35.18428125L186.32711109374998,40.87593749999999L186.59923734375002,41.96006249999999L186.84112734375,40.853812500000004L186.97215109375,40.82062500000001L187.05026140625,43.89046875L187.53152171874999,40.48875000000001L187.90191578125,33.50831249999999L187.95230953125,8.119875000000008L188.11860890625,47.44153125L188.22947515625,39.21656250000001L188.24459328125,40.643624999999986L188.25467203125,40.643624999999986L188.35042015625,40.87593749999999L188.4045934375,40.3228125L188.56459359374998,40.3228125L188.8833340625,40.66575L189.06727125,40.72106249999999L189.1856965625,17.27962499999998L189.37593296875,40.82062500000001L189.86349249999998,49.006874999999994L190.14443765624998,40.53299999999999L190.22002828125,32.048062500000015L190.856249375,35.25618749999998L190.87010765625,40.6989375L191.09435984375,40.49981249999999L191.12333625,41.11931250000001L191.16239140625,40.59937500000001L191.34128921875,40.48875000000001L191.35892703125,40.510875L192.34916421875,41.17462499999999L192.65152671874998,46.92712500000002L192.67168421875002,40.61043749999999L193.01688140625,40.654687499999994L193.15798390625,40.57356610107422L193.38223609374998,40.39471875000001L193.42255109375,37.80609375L193.51325984375,40.344937500000015L193.84081921875,40.3228125L194.02601625,40.6989375L194.49089859375002,40.344937500000015L194.5072765625,40.41684375L194.61436328125,35.53274999999999L195.0616078125,35.34468749999999L195.09058421875,35.1345L195.0968834375,35.28937500000001L195.1220803125,35.06812500000001L195.25562375,40.3670625L196.051845,38.98425L196.37562484375,40.59384374999999L196.80019218750002,40.566187499999984L196.88964109375001,40.59937500000001L196.98790890625,40.59937500000001L197.3847596875,40.59937500000001L197.39105890624998,40.59937500000001L197.4099565625,40.355999999999995L197.825705,40.86487500000001L197.86602,40.743187500000005L198.11420921875,40.344937500000015L198.40397328125,40.3228125L198.5085403125,40.48875000000001L198.53247734375,40.41131250000001L198.66224125,40.61043749999999L198.73405234375,17.943375000000003L199.01373765625,40.30068750000001L199.25310796875,40.632562500000006L199.61594296874998,40.78743749999998L199.65121859375,40.66575L199.75956515625,41.4069375L200.23956562499998,40.4334375L200.2672821875,43.7300625L200.64145578125,46.473562500000014L200.82413312499997,40.842749999999995L200.8820859375,40.3228125L201.54476375000002,40.776375L201.5951575,40.98656249999999L201.60523625000002,40.98656249999999L201.6329528125,40.42790625000001L201.64555125,40.444500000000005L201.741299375,40.67681249999998L201.78413406250002,40.68787500000002L201.89374046875,40.732124999999996L201.932795625,40.57724999999999L202.52114265625,35.34468749999999L202.744135,40.68787500000002L202.8222453125,40.654687499999994L203.11578890625,40.732124999999996L203.12334796875,40.743187500000005L203.9107503125,40.544062499999995L203.9561046875,40.57724999999999L204.07830953125,41.263125L204.34287671874998,41.09718749999999L204.34413656249998,41.09718749999999L204.72082984375,40.46662499999999L205.04209,40.48875000000001L205.21972796875,40.853812500000004L205.59012203125,40.566187499999984L205.78665765625,44.1725625L205.9668153125,37.84481249999999L206.07516187500002,40.68787500000002L206.0877603125,40.654687499999994L206.26539828125,38.788808898925794L206.32209125,40.45556250000001L206.35358734375,40.66575L206.51232765625,40.53299999999999L206.60051671875001,40.3228125L206.8134303125,39.67012500000001L206.90035953125,16.118062500000008L206.9746903125,22.63387499999999L207.12461171875,7.046812500000016L207.28083234374998,40.91465624999998L208.22823484375,42.933562499999994L208.64650296875,40.732124999999996L208.66036125,35.1345L208.77122749999998,35.33362500000001L208.82036140625002,40.53299999999999L208.872015,35.14556249999998L209.52839359375,20.277562500000016L209.63799999999998,37.70099999999999L210.01217359375002,40.87040625L210.85626890625,40.45556250000001L211.013749375,44.66484374999999L211.73438,33.50831249999999L211.8931203125,43.398187500000006L212.01784484375,35.25618749999998L212.18918359375002,40.87593749999999L212.34288453125,40.566187499999984L212.41595546875,20.64262500000001L212.5028846875,39.89137500000001L212.5079240625,41.539687500000014L212.63516828124997,24.182625L212.74351484375,43.06631250000001L212.7624125,40.6215L213.47170453125003,42.8671875L213.614066875,30.444000000000017L213.775326875,40.57724999999999L213.79422453125,40.632562500000006L213.88241359375,40.98656249999999L214.03107515625,36.57262499999999L214.09532718749998,22.99893750000001L214.18225640625,41.484375L214.18729578125001,41.484375L214.85123343749999,47.236875L214.87517046875,50.223749999999995L214.97595796874998,33.419812500000006L215.12965890625,0.8739375000000109L215.2619425,36.42881249999999L215.48745453125,40.59937500000001L215.50509234375,19.07175000000001L215.55044671875,44.886093749999986L215.6021003125,20.885999999999996L215.720525625,39.758624999999995L215.78225796874997,40.344937500000015L215.80241546875,31.174125000000004L215.90446281250001,40.776375L216.00902984375,40.544062499999995L216.11863625,16.272937500000012L216.1413134375,40.67681249999998L216.31139234375001,26.505750000000006L216.48273109374998,30.798000000000002L216.970290625,5.2325625L217.01690484374998,35.5438125L217.35328312500002,26.37299999999999L217.6128109375,53.1110625L217.65942515625,42.51318749999999L218.65470171875,41.340562500000004L218.73911125,40.48875000000001L218.81596171875,10.111124999999987L218.94320593749998,41.528625000000005L219.26950546875,40.78743749999998L219.35013546875,20.404781250000013L219.8704509375,38.55281249999999L220.05060859375,23.928187500000007L220.45879796875,71.662875L220.7120265625,25.499062500000008L220.810294375,40.3670625L220.82163296874998,52.7349375L221.20966484374998,40.78743749999998L221.38100359375,17.168999999999983L221.39990125,40.3228125L221.697224375,40.555125000000004L221.7753346875,40.3228125L222.1230515625,24.326437499999997L222.22761859375,41.50096875L222.55517796875,56.50725L222.77439078125,44.85843750000001L222.866359375,19.027500000000003L222.896595625,28.980066101074215L222.9545484375,31.395375L223.0502965625,36.500718750000004L223.07423359375,27.15843749999999L223.15738328125,43.29862499999999L223.36021812500002,47.657250000000005L223.47486390625,38.84043749999998L223.53533640625,41.539687500000014L223.77848625000001,49.206L224.0128171875,21.472312500000015L224.16147875,40.87593749999999L224.216911875,40.887L224.247148125,40.566187499999984L224.3051009375,40.37812500000001L224.92116453124999,40.6215L225.0988025,39.1280625L225.13281828125,37.269562500000006L225.32935390625002,37.391250000000014L225.49313359375,32.855625L225.69344875,40.90912500000002L226.02730734374998,34.38225L226.17092953125,49.8144375L226.1847878125,40.45556250000001L226.494709375,21.24000000000001L226.535024375,41.47331250000002L227.02762328125002,52.52475L227.09061546875,40.145812500000005L227.30730859374998,32.147625000000005L227.35392281249997,40.45556250000001L227.66510421875,49.2170625L227.97502578125,41.550749999999994L228.03297859375,41.440124999999995L228.23329375,20.35499999999999L228.25345125,24.658312499999994" style="fill: none;" fill="none"></path></g></g></g></g></g></g><g transform="translate(78, 177)" clip-path="url(#clip_1)"><clipPath id="clip_1"><rect width="251" height="23"></rect></clipPath><g><g><line x1="0" y1="0" x2="0" y2="5" style="visibility: inherit;" fill="rgb(0, 0, 0)" stroke="rgb(204, 204, 204)" stroke-width="1px"></line><line x1="25.196875000000002" y1="0" x2="25.196875000000002" y2="5" style="visibility: inherit;" fill="rgb(0, 0, 0)" stroke="rgb(204, 204, 204)" stroke-width="1px"></line><line x1="50.393750000000004" y1="0" x2="50.393750000000004" y2="5" style="visibility: inherit;" fill="rgb(0, 0, 0)" stroke="rgb(204, 204, 204)" stroke-width="1px"></line><line x1="75.590625" y1="0" x2="75.590625" y2="5" style="visibility: inherit;" fill="rgb(0, 0, 0)" stroke="rgb(204, 204, 204)" stroke-width="1px"></line><line x1="100.78750000000001" y1="0" x2="100.78750000000001" y2="5" style="visibility: inherit;" fill="rgb(0, 0, 0)" stroke="rgb(204, 204, 204)" stroke-width="1px"></line><line x1="125.984375" y1="0" x2="125.984375" y2="5" style="visibility: inherit;" fill="rgb(0, 0, 0)" stroke="rgb(204, 204, 204)" stroke-width="1px"></line><line x1="151.18125" y1="0" x2="151.18125" y2="5" style="visibility: inherit;" fill="rgb(0, 0, 0)" stroke="rgb(204, 204, 204)" stroke-width="1px"></line><line x1="176.37812499999998" y1="0" x2="176.37812499999998" y2="5" style="visibility: inherit;" fill="rgb(0, 0, 0)" stroke="rgb(204, 204, 204)" stroke-width="1px"></line><line x1="201.57500000000002" y1="0" x2="201.57500000000002" y2="5" style="visibility: inherit;" fill="rgb(0, 0, 0)" stroke="rgb(204, 204, 204)" stroke-width="1px"></line><line x1="226.771875" y1="0" x2="226.771875" y2="5" style="visibility: inherit;" fill="rgb(0, 0, 0)" stroke="rgb(204, 204, 204)" stroke-width="1px"></line><line x1="251.96875" y1="0" x2="251.96875" y2="5" style="visibility: inherit;" fill="rgb(0, 0, 0)" stroke="rgb(204, 204, 204)" stroke-width="1px"></line></g><g transform="translate(0, 8)"><text x="0" y="0" dx="0em" dy="0.95em" style="text-anchor: middle; visibility: hidden; font-family: &quot;Helvetica Neue&quot;, sans-serif; font-size: 12px; font-weight: 200;" fill="rgb(50, 49, 63)" stroke="none" stroke-width="1px">-20k</text><text x="25.196875000000002" y="0" dx="0em" dy="0.95em" style="text-anchor: middle; visibility: inherit; font-family: &quot;Helvetica Neue&quot;, sans-serif; font-size: 12px; font-weight: 200;" fill="rgb(50, 49, 63)" stroke="none" stroke-width="1px">0</text><text x="50.393750000000004" y="0" dx="0em" dy="0.95em" style="text-anchor: middle; visibility: hidden; font-family: &quot;Helvetica Neue&quot;, sans-serif; font-size: 12px; font-weight: 200;" fill="rgb(50, 49, 63)" stroke="none" stroke-width="1px">20k</text><text x="75.590625" y="0" dx="0em" dy="0.95em" style="text-anchor: middle; visibility: inherit; font-family: &quot;Helvetica Neue&quot;, sans-serif; font-size: 12px; font-weight: 200;" fill="rgb(50, 49, 63)" stroke="none" stroke-width="1px">40k</text><text x="100.78750000000001" y="0" dx="0em" dy="0.95em" style="text-anchor: middle; visibility: hidden; font-family: &quot;Helvetica Neue&quot;, sans-serif; font-size: 12px; font-weight: 200;" fill="rgb(50, 49, 63)" stroke="none" stroke-width="1px">60k</text><text x="125.984375" y="0" dx="0em" dy="0.95em" style="text-anchor: middle; visibility: inherit; font-family: &quot;Helvetica Neue&quot;, sans-serif; font-size: 12px; font-weight: 200;" fill="rgb(50, 49, 63)" stroke="none" stroke-width="1px">80k</text><text x="151.18125" y="0" dx="0em" dy="0.95em" style="text-anchor: middle; visibility: hidden; font-family: &quot;Helvetica Neue&quot;, sans-serif; font-size: 12px; font-weight: 200;" fill="rgb(50, 49, 63)" stroke="none" stroke-width="1px">100k</text><text x="176.37812499999998" y="0" dx="0em" dy="0.95em" style="text-anchor: middle; visibility: inherit; font-family: &quot;Helvetica Neue&quot;, sans-serif; font-size: 12px; font-weight: 200;" fill="rgb(50, 49, 63)" stroke="none" stroke-width="1px">120k</text><text x="201.57500000000002" y="0" dx="0em" dy="0.95em" style="text-anchor: middle; visibility: hidden; font-family: &quot;Helvetica Neue&quot;, sans-serif; font-size: 12px; font-weight: 200;" fill="rgb(50, 49, 63)" stroke="none" stroke-width="1px">140k</text><text x="226.771875" y="0" dx="0em" dy="0.95em" style="text-anchor: middle; visibility: inherit; font-family: &quot;Helvetica Neue&quot;, sans-serif; font-size: 12px; font-weight: 200;" fill="rgb(50, 49, 63)" stroke="none" stroke-width="1px">160k</text><text x="251.96875" y="0" dx="0em" dy="0.95em" style="text-anchor: middle; visibility: hidden; font-family: &quot;Helvetica Neue&quot;, sans-serif; font-size: 12px; font-weight: 200;" fill="rgb(50, 49, 63)" stroke="none" stroke-width="1px">180k</text></g><line x1="0" y1="0" x2="251.96875" y2="0" fill="rgb(0, 0, 0)" stroke="rgb(204, 204, 204)" stroke-width="1px"></line></g></g></g></g></svg>