<svg viewBox="0 0 330 200" xmlns="http://www.w3.org/2000/svg"><g><g><g><g><g><line x1="58.59375" y1="177" x2="53.59375" y2="177" style="visibility: inherit;" fill="rgb(0, 0, 0)" stroke="rgb(204, 204, 204)" stroke-width="1px"></line><line x1="58.59375" y1="157.33333333333334" x2="53.59375" y2="157.33333333333334" style="visibility: inherit;" fill="rgb(0, 0, 0)" stroke="rgb(204, 204, 204)" stroke-width="1px"></line><line x1="58.59375" y1="137.66666666666669" x2="53.59375" y2="137.66666666666669" style="visibility: inherit;" fill="rgb(0, 0, 0)" stroke="rgb(204, 204, 204)" stroke-width="1px"></line><line x1="58.59375" y1="118" x2="53.59375" y2="118" style="visibility: inherit;" fill="rgb(0, 0, 0)" stroke="rgb(204, 204, 204)" stroke-width="1px"></line><line x1="58.59375" y1="98.33333333333334" x2="53.59375" y2="98.33333333333334" style="visibility: inherit;" fill="rgb(0, 0, 0)" stroke="rgb(204, 204, 204)" stroke-width="1px"></line><line x1="58.59375" y1="78.66666666666666" x2="53.59375" y2="78.66666666666666" style="visibility: inherit;" fill="rgb(0, 0, 0)" stroke="rgb(204, 204, 204)" stroke-width="1px"></line><line x1="58.59375" y1="59" x2="53.59375" y2="59" style="visibility: inherit;" fill="rgb(0, 0, 0)" stroke="rgb(204, 204, 204)" stroke-width="1px"></line><line x1="58.59375" y1="39.33333333333334" x2="53.59375" y2="39.33333333333334" style="visibility: inherit;" fill="rgb(0, 0, 0)" stroke="rgb(204, 204, 204)" stroke-width="1px"></line><line x1="58.59375" y1="19.666666666666686" x2="53.59375" y2="19.666666666666686" style="visibility: inherit;" fill="rgb(0, 0, 0)" stroke="rgb(204, 204, 204)" stroke-width="1px"></line><line x1="58.59375" y1="0" x2="53.59375" y2="0" style="visibility: inherit;" fill="rgb(0, 0, 0)" stroke="rgb(204, 204, 204)" stroke-width="1px"></line></g><g transform="translate(48.59375, 0)"><text x="0" y="177" dx="0em" dy="0.3em" style="text-anchor: end; visibility: hidden; font-family: &quot;Helvetica Neue&quot;, sans-serif; font-size: 12px; font-weight: 200;" fill="rgb(50, 49, 63)" stroke="none" stroke-width="1px">-1e+3</text><text x="0" y="157.33333333333334" dx="0em" dy="0.3em" style="text-anchor: end; visibility: inherit; font-family: &quot;Helvetica Neue&quot;, sans-serif; font-size: 12px; font-weight: 200;" fill="rgb(50, 49, 63)" stroke="none" stroke-width="1px">0</text><text x="0" y="137.66666666666669" dx="0em" dy="0.3em" style="text-anchor: end; visibility: hidden; font-family: &quot;Helvetica Neue&quot;, sans-serif; font-size: 12px; font-weight: 200;" fill="rgb(50, 49, 63)" stroke="none" stroke-width="1px">1e+3</text><text x="0" y="118" dx="0em" dy="0.3em" style="text-anchor: end; visibility: inherit; font-family: &quot;Helvetica Neue&quot;, sans-serif; font-size: 12px; font-weight: 200;" fill="rgb(50, 49, 63)" stroke="none" stroke-width="1px">2e+3</text><text x="0" y="98.33333333333334" dx="0em" dy="0.3em" style="text-anchor: end; visibility: hidden; font-family: &quot;Helvetica Neue&quot;, sans-serif; font-size: 12px; font-weight: 200;" fill="rgb(50, 49, 63)" stroke="none" stroke-width="1px">3e+3</text><text x="0" y="78.66666666666666" dx="0em" dy="0.3em" style="text-anchor: end; visibility: inherit; font-family: &quot;Helvetica Neue&quot;, sans-serif; font-size: 12px; font-weight: 200;" fill="rgb(50, 49, 63)" stroke="none" stroke-width="1px">4e+3</text><text x="0" y="59" dx="0em" dy="0.3em" style="text-anchor: end; visibility: hidden; font-family: &quot;Helvetica Neue&quot;, sans-serif; font-size: 12px; font-weight: 200;" fill="rgb(50, 49, 63)" stroke="none" stroke-width="1px">5e+3</text><text x="0" y="39.33333333333334" dx="0em" dy="0.3em" style="text-anchor: end; visibility: inherit; font-family: &quot;Helvetica Neue&quot;, sans-serif; font-size: 12px; font-weight: 200;" fill="rgb(50, 49, 63)" stroke="none" stroke-width="1px">6e+3</text><text x="0" y="19.666666666666686" dx="0em" dy="0.3em" style="text-anchor: end; visibility: hidden; font-family: &quot;Helvetica Neue&quot;, sans-serif; font-size: 12px; font-weight: 200;" fill="rgb(50, 49, 63)" stroke="none" stroke-width="1px">7e+3</text><text x="0" y="0" dx="0em" dy="0.3em" style="text-anchor: end; visibility: hidden; font-family: &quot;Helvetica Neue&quot;, sans-serif; font-size: 12px; font-weight: 200;" fill="rgb(50, 49, 63)" stroke="none" stroke-width="1px">8e+3</text></g><line x1="58.59375" y1="0" x2="58.59375" y2="177" fill="rgb(0, 0, 0)" stroke="rgb(204, 204, 204)" stroke-width="1px"></line></g></g><g transform="translate(58, 0)" clip-path="url(#clip_0)"><clipPath id="clip_0"><rect width="271" height="177"></rect></clipPath><g><g><g><line x1="0" y1="0" x2="0" y2="177" fill="rgb(0, 0, 0)" stroke="rgb(60, 60, 60)" stroke-width="1px" opacity="0.25"></line><line x1="30.15625" y1="0" x2="30.15625" y2="177" fill="rgb(0, 0, 0)" stroke="rgb(60, 60, 60)" stroke-width="1px" opacity="0.25"></line><line x1="60.3125" y1="0" x2="60.3125" y2="177" fill="rgb(0, 0, 0)" stroke="rgb(60, 60, 60)" stroke-width="1px" opacity="0.25"></line><line x1="90.46875" y1="0" x2="90.46875" y2="177" fill="rgb(0, 0, 0)" stroke="rgb(60, 60, 60)" stroke-width="1px" opacity="0.25"></line><line x1="120.625" y1="0" x2="120.625" y2="177" fill="rgb(0, 0, 0)" stroke="rgb(60, 60, 60)" stroke-width="1px" opacity="0.25"></line><line x1="150.78125" y1="0" x2="150.78125" y2="177" fill="rgb(0, 0, 0)" stroke="rgb(60, 60, 60)" stroke-width="1px" opacity="0.25"></line><line x1="180.9375" y1="0" x2="180.9375" y2="177" fill="rgb(0, 0, 0)" stroke="rgb(60, 60, 60)" stroke-width="1px" opacity="0.25"></line><line x1="211.09375" y1="0" x2="211.09375" y2="177" fill="rgb(0, 0, 0)" stroke="rgb(60, 60, 60)" stroke-width="1px" opacity="0.25"></line><line x1="241.25" y1="0" x2="241.25" y2="177" fill="rgb(0, 0, 0)" stroke="rgb(60, 60, 60)" stroke-width="1px" opacity="0.25"></line><line x1="271.40625" y1="0" x2="271.40625" y2="177" fill="rgb(0, 0, 0)" stroke="rgb(60, 60, 60)" stroke-width="1px" opacity="0.25"></line></g><g><line x1="0" y1="177" x2="271.40625" y2="177" fill="rgb(0, 0, 0)" stroke="rgb(60, 60, 60)" stroke-width="1px" opacity="0.25"></line><line x1="0" y1="157.33333333333334" x2="271.40625" y2="157.33333333333334" fill="rgb(0, 0, 0)" stroke="rgb(60, 60, 60)" stroke-width="1px" opacity="0.25"></line><line x1="0" y1="137.66666666666669" x2="271.40625" y2="137.66666666666669" fill="rgb(0, 0, 0)" stroke="rgb(60, 60, 60)" stroke-width="1px" opacity="0.25"></line><line x1="0" y1="118" x2="271.40625" y2="118" fill="rgb(0, 0, 0)" stroke="rgb(60, 60, 60)" stroke-width="1px" opacity="0.25"></line><line x1="0" y1="98.33333333333334" x2="271.40625" y2="98.33333333333334" fill="rgb(0, 0, 0)" stroke="rgb(60, 60, 60)" stroke-width="1px" opacity="0.25"></line><line x1="0" y1="78.66666666666666" x2="271.40625" y2="78.66666666666666" fill="rgb(0, 0, 0)" stroke="rgb(60, 60, 60)" stroke-width="1px" opacity="0.25"></line><line x1="0" y1="59" x2="271.40625" y2="59" fill="rgb(0, 0, 0)" stroke="rgb(60, 60, 60)" stroke-width="1px" opacity="0.25"></line><line x1="0" y1="39.33333333333334" x2="271.40625" y2="39.33333333333334" fill="rgb(0, 0, 0)" stroke="rgb(60, 60, 60)" stroke-width="1px" opacity="0.25"></line><line x1="0" y1="19.666666666666686" x2="271.40625" y2="19.666666666666686" fill="rgb(0, 0, 0)" stroke="rgb(60, 60, 60)" stroke-width="1px" opacity="0.25"></line><line x1="0" y1="0" x2="271.40625" y2="0" fill="rgb(0, 0, 0)" stroke="rgb(60, 60, 60)" stroke-width="1px" opacity="0.25"></line></g></g></g><g><g><line x1="0" y1="157.33333333333334" x2="271.40625" y2="157.33333333333334" fill="rgb(0, 0, 0)" stroke="rgb(153, 153, 153)" stroke-width="1.5px"></line></g></g><g><g><line x1="30.15625" y1="0" x2="30.15625" y2="177" fill="rgb(0, 0, 0)" stroke="rgb(153, 153, 153)" stroke-width="1.5px"></line></g></g><g><g><g><g><g><path stroke="rgb(255, 112, 67)" stroke-width="2px" d="M30.2210859375,157.33333333333334L30.4095625,157.33333333333334L30.503046875,157.33333333333334L30.8724609375,137.203450615489L30.9659453125,125.21429676116986L31.03078125,117.29477540003856L31.0413359375,111.70000152704989L31.1137109375,107.55742444024455L31.1333125,104.38220270587317L31.2343359375,101.88335466502137L31.3760703125,99.87564543490892L31.686679687500003,79.48893970975487L32.167671875,62.60773723403169L32.246078125000004,48.4717755646862L32.2566328125,36.523148275294346L32.3229765625,47.63444601872334L32.70746875,54.94643512615768L32.7723046875,61.25461567195029L32.776828125,66.7239847686404L32.987921875,71.48661038076597L33.048234375,75.64944219132526L33.2276640625,79.29999365835853L33.63628125,83.11476146971863L33.759921874999996,86.47824511624395L33.904671875,69.78824915295667L33.9061796875,55.01063017416327L34.206234375,61.0302745613822L34.7384921875,68.28702755553961L35.0279921875,77.5079767053843L35.052117187499995,85.72065741604881L35.141078125,93.04329873001701L35.613023437500004,94.65014280192992L35.6160390625,96.08548512720688L35.6914296875,81.14472499248609L35.919109375,67.7790214834021L36.12266406249999,70.50247436982913L36.666984375,74.34684026939708L36.7921328125,81.15709648935662L36.9308515625,83.98313274156781L36.956484374999995,70.42846957787796L37.2082890625,70.22694173660197L37.37716406249999,74.42517767309812L37.65309375,60.539706964466475L37.8988671875,63.124805878174016L38.217015625,68.58128255332073L38.238125000000004,77.36817682173488L38.78696875,82.45062359521805L38.999570312500005,79.33842596782918L39.06440625,67.36334238339846L39.1895546875,73.08583391336319L39.5061953125,77.32156419021068L39.53484375,81.12997286042521L40.25859375,85.62051366144036L40.2766875,89.65878393641542L40.492304687499995,91.43631501907994L40.661179687499995,83.07611887981244L40.94615625,87.36574774251582L41.2884296875,89.88409332994244L41.4060390625,93.33190149337246L41.410562500000005,96.43361849476744L41.915679687499996,79.52557778097473L41.968453125,64.31354436314902L42.3197734375,67.32613648429697L42.4916640625,72.202605616316L42.553484375000004,72.21969652346323L42.971148437500005,77.70763454576455L42.98622656249999,82.6457821176958L43.126453125000005,85.51475654593352L43.5441171875,90.06444838046735L43.6300625,89.04202958319715L44.1201015625,93.67110372307607L44.433726562500006,94.57044979478849L44.5633984375,89.2016191294772L44.583,84.37013766930066L44.7805234375,89.42632796789258L45.8375,90.5140573737228L45.958125,90.5880071317366L46.0229609375,77.15958448284555L46.151125,81.20527479030456L46.4119765625,82.09227443141101L46.595929687499996,80.72677849483144L46.600453124999994,79.49788317469238L46.692429687499995,77.76248513066876L46.773851562500006,65.42180102345624L46.8974921875,69.81485432243856L47.5458515625,70.7001383439198L47.597117187500004,71.49687443167083L47.776546875,77.17038722697147L47.888124999999995,72.12758834089001L48.204765625,75.77110706039463L48.2123046875,79.05022116915023L48.498789062499995,82.23739571254382L48.6887734375,83.41438817021576L49.573859375,88.56454009090447L49.8105859375,91.4688833915414L49.851296874999996,92.07668632520569L50.659484375,89.47692296929482L50.6941640625,87.13715394700941L50.9806484375,90.61687458147269L51.600359375,97.13136015717534L51.710429687499996,102.9943642980903L51.776773437500005,104.29828925521203L51.941125,106.06182781087936L52.229117187499995,106.70498957146218L52.2743515625,107.28383302636921L52.44171875,107.8047904108044L52.583453125,109.21766265251793L53.488140625,109.42723211677716L53.53940625,112.56587453641336L53.9269140625,97.6118152541065L54.4576640625,99.57198340051762L54.766765625,101.61146702677493L55.574953125,85.70754628129528L55.8900859375,87.2061340925122L55.936828125,73.09677685595543L56.268546875,55.83568087996899L56.30171875,43.290057218713855L56.6093125,49.9350779887028L56.630421875,55.91559164822132L57.97840625,59.92137875240458L58.9811015625,64.78525501315185L59.061015625,69.1627409619797L59.606843749999996,76.09181651099281L59.7711953125,80.5579776557196L59.7923046875,84.57752088809669L59.90840625,88.19510834095655L60.30646875,90.5856011990688L60.393921875000004,91.55704242954734L60.407492187500004,94.39800840752385L60.5220859375,98.44954546200773L60.6819140625,100.9159267485011L60.693976562500005,103.13566943146611L60.80103125,104.03210322414016L60.9774453125,106.05822773185471L61.126718749999995,107.88173950440654L61.185523437499995,109.326233084997L61.48859375,107.2042753003895L61.493117187500005,105.29451351136998L61.6031875,103.57572807712548L61.9424453125,88.65548274504411L62.0389453125,89.4659347569055L62.1716328125,87.1273405375262L62.3028125,90.057273989005L62.61040625,91.23888022780243L63.1004453125,95.01632641406924L63.699046875,98.69136120610378L63.8272109375,101.25155889958016L63.8694296875,103.55573673236573L65.0455234375,106.49483017283679L65.0606015625,109.14001418432291L65.1269453125,111.52067972586083L65.1661484375,105.20661105315756L65.2686796875,99.52394938074691L65.381765625,94.40955398332535L65.48128125,96.45393208357946L65.6516640625,96.01253884311026L65.8476796875,97.42461838458814L65.864265625,98.6954899543517L65.894421875,100.46860771961973L66.25177343749999,103.08708040597368L66.56690625,102.3363723331274L66.7704609375,103.7454018209575L66.77347656250001,105.01352834965411L66.8307734375,106.1548422170972L67.281609375,104.07469127009229L67.429375,105.07388883509564L67.4414375,105.97316663878291L67.70379687500001,107.56918334103081L67.7535546875,109.4382650414908L68.23454687499999,110.13710521563905L68.3536640625,92.27939442659292L68.442625,76.20745476727306L69.0774140625,81.8813760260519L69.1301875,85.17857179278325L69.241765625,86.37604795860634L69.81775,88.55510984868546L70.562609375,91.49959888725564L70.56411718749999,94.14963901751544L71.10089843749999,96.33800846320732L71.10843750000001,98.30754096164911L71.630140625,101.53545354900925L71.77790625,99.64190818520784L71.83067968750001,97.9377173594777L72.112640625,99.35394562892199L72.2498515625,103.26388441276094L73.03692968749999,105.79949597930454L73.19524999999999,103.04687970706739L73.83908593749999,101.19885839841096L73.87828906249999,99.53563922149728L73.9778046875,100.83140863530272L74.187390625,104.16093444450232L74.280875,107.15750767162993L74.5945,108.04509023910948L74.618625,108.84391454959234L74.80559375,109.56285642882543L75.13429687499999,110.28857078672324L75.399671875,111.4137137091398L75.43887500000001,112.42634233910782L75.6544921875,112.70837477208477L75.8851875,112.68687062819447L76.1008046875,113.17885023235408L76.31491406250001,97.21963186666525L76.4566484375,93.4370020113866L76.4777578125,90.03263514200546L77.5121171875,91.33470496168067L77.56790625,94.82723446682206L77.94938281249999,96.08251102056344L78.22682031250001,96.18959325187295L78.3112578125,96.28596726004535L78.4137890625,95.82203720059333L78.719875,97.25316681418418L79.06365625000001,97.32185013277945L79.22499218749999,97.61966511955491L79.398390625,98.35969860771885L79.5567109375,100.36306208057131L79.7557421875,96.8954225387275L79.76780468749999,93.7745469511542L79.96683593750001,95.13509225618287L80.188484375,98.79824969758036L80.32418750000001,101.42642472804776L80.481,104.77511558883482L80.52321875,99.96160402961692L81.026828125,103.57477696021448L81.044921875,106.82663259770938L81.07357031250001,109.75330267142L81.099203125,109.08330573758079L81.18062499999999,111.70564183059695L81.2364140625,114.06574431429107L81.292203125,116.18983654959922L81.4776640625,115.15151956127491L81.63598437499999,115.2790342718175L81.9692109375,112.08979751122519L82.000875,109.21948442670674L82.214984375,109.23220265070299L82.32656250000001,92.80231571867587L82.604,94.8894174801748L83.43329687500001,97.98714239886829L83.46496093750001,100.65709482568249L83.499640625,103.06005200980876L83.65946875,102.19404680881885L83.795171875,102.3979754612722L84.09371875,99.51351124845395L84.211328125,101.4801601236235L84.368140625,101.20481077792594L84.3937734375,100.95699636679848L84.494796875,100.73396339678405L84.8099296875,101.87056705711132L84.85365625,103.71951035140847L85.387421875,102.51222598292942L85.43265625,105.00500338464555L85.5955,106.02916971285102L85.7206484375,105.10225274156316L85.80659375,104.26802746740462L86.2513984375,105.05122472066604L86.684140625,106.22810224860196L87.0987890625,106.30395869040858L87.26766406249999,106.3722294880345L87.7441328125,105.01767320589559L88.1165625,105.60790588530688L88.1406875,106.13911529677685L88.5402578125,108.4658704337685L88.7211953125,107.05928339039019L88.933796875,107.76002171801849L89.4087578125,109.88535287955175L90.0209296875,111.20815092493089L90.140046875,111.39566916577125L90.2863046875,110.12876891586004L90.333046875,110.52255869094091L90.50041406250001,108.98896948851274L90.9165703125,106.5074058729937L91.22416406250001,108.04999861902827L91.4699375,108.2189987571255L91.47596874999999,108.371098881413L91.5257265625,107.95732232660492L91.5558828125,107.58492342727766L91.665953125,108.01676441788332L92.0383828125,108.77908797609516L92.3459765625,111.39251251181946L92.3866875,108.43459459397035L92.492234375,109.35180180124011L92.79078125000001,109.5872882877828L92.81490624999999,109.7992261256712L93.6879296875,111.75997017977097L94.1643984375,113.52463982846072L94.19153906250001,115.11284251228145L94.5081796875,110.17022492771957L95.7747421875,114.09986910161459L95.90893750000001,111.10721552478624L95.9571875,108.4138273056408L96.06575000000001,105.98977790840993L96.1064609375,103.80813345090216L96.1124921875,101.84465343914519L96.207484375,98.07152142856386L96.490953125,99.21870261904085L96.611578125,98.85483235713674L96.8030703125,92.66668245475624L96.81362499999999,87.09734754261379L96.87996875,82.08494612168563L96.9598828125,83.00178484285041L97.7318828125,85.95093969189877L97.95503906249999,88.91984572270896L98.4767421875,92.49652781710476L98.4903125,95.71554170206099L98.57022656250001,99.35998753185493L98.77378125,101.34198877866946L99.0014609375,100.25445656746916L99.9966171875,102.34367757738893L100.0207421875,103.79130981965004L100.139859375,108.20151217101841L100.26953125,107.84402762058323L101.478796875,108.70229152519157L101.907015625,93.38739570600566L101.98692968750001,96.79265613540511L102.03367187500001,99.85739052186462L102.087953125,101.98631813634483L102.1467578125,101.46368632271033L102.3548359375,104.57265102377265L102.45284375,90.81138592139536L102.4875234375,78.42624732925577L102.6473515625,67.27962259633016L102.805671875,73.05966033669716L102.87503125,78.26169430302745L103.3198359375,83.21885820605806L103.8053515625,82.17363905211892L104.4506953125,85.99227514690703L104.5698125,89.035714298883L104.75979687499999,91.89280953566137L105.55742968749999,91.08152858209522L105.6328203125,93.0653757238857L105.773046875,96.22750481816381L105.797171875,99.07342100301409L105.84240625,101.63474556937935L105.95247656250001,100.59660434577474L106.496796875,82.86694391119727L106.78328125,85.67224952007753L107.02453125,89.41635790140313L107.2582421875,93.37605544459615L107.39846875,95.36644990013654L107.4813984375,93.53913824345621L108.25942968749999,94.29389108577725L108.2714921875,94.97316864386619L108.4946484375,96.33185177947955L108.56551562499999,97.55466660153162L109.00428906249999,98.06519994137845L109.096265625,99.15401328057393L109.33299218750001,99.54394528584987L109.5923359375,99.06888409059822L109.9300859375,101.11932901487172L109.97984375,102.96472944671788L110.2105390625,101.8722565020461L110.23315625,100.88903085184148L110.7774765625,103.81946109999066L111.1363359375,88.6781816566583L111.146890625,75.05103015765911L111.15292187499999,79.3459271418932L111.15895312500001,83.21133442770389L111.3715546875,88.77486765160015L111.4378984375,93.78204755310682L111.6881953125,96.91184279779613L111.7424765625,99.72865851801652L111.76509375,102.26379266621485L111.943015625,99.43208006626004L112.62153125,100.50220539296737L112.79643750000001,103.15665152033729L112.992453125,100.35365303497022L113.06030468750001,101.84295439813987L113.378453125,103.06532562499254L113.53828125,104.95212639582662L113.9061875,105.98158042291062L113.91825,106.12142238061955L114.16251562500001,106.67994680922428L114.2424296875,107.85128546163517L115.10339062499999,111.38349024880499L115.35971875,110.19647455725783L115.38082812500001,109.12816043486538L115.5120078125,108.16667772471217L115.78190624999999,106.27867661890762L115.83166406250001,107.41147562368353L116.1015625,106.77899472798184L116.55390625000001,107.38976192185032L116.562953125,107.93945239633196L116.8328515625,109.88950715669877L117.2490078125,110.70055644102888L118.0556875,111.74516746359267L118.27432031250001,110.0106507172334L118.4492265625,110.73091897884339L118.577390625,112.36249374762572L118.69500000000001,95.69824437286314L118.7357109375,80.70041993557683L118.76134375000001,67.20237794201915L119.51675781249999,71.88880681448391L119.587625,76.10659279970218L119.7700703125,80.76793351973198L120.0836953125,84.2944735010921L120.1289296875,87.46835948431621L120.89640625,90.7575235358846L120.905453125,93.71777118229613L120.938625,95.67399406406652L121.074328125,95.62526132432654L121.34271874999999,97.7840685252272L122.443421875,99.01899500603783L122.5504765625,101.03509550543404L122.7947421875,101.55158595489063L122.9394921875,100.12842735940157L123.15963281249999,104.59025129012807L123.85171874999999,106.00989282778193L123.97234375000001,106.77623687833707L124.42016406249999,108.80327985717003L124.46690625000001,106.57628520478636L124.9599609375,89.46799001764107L125.18613281249999,91.88852434921029L125.4816640625,94.0670052476226L125.6897421875,95.79163805619366L125.79528906249999,97.65847425057429L125.79679687500001,99.33862682551685L125.92345312500001,100.85076414296518L126.1616875,97.01968772866864L126.454203125,98.33105228913513L126.6396640625,100.45528039355494L126.8055234375,101.97375235419945L126.997015625,105.30704378544617L127.42824999999999,110.35233940690154L127.44332812500001,114.89310546621138L127.693625,115.91179491959025L127.99820312499999,110.69261542763122L128.534984375,113.46868721820144L128.6058515625,115.96715182971462L128.8440859375,96.30710331340983L128.89082812499998,78.61305964873551L129.071765625,79.9950870171953L129.13509375,81.2389116488091L129.234609375,84.16768715059486L129.53315625,87.78691843553537L129.747265625,89.74622659198182L130.12271093750002,89.2282705994503L130.86003125,91.67277687283861L131.1027890625,90.76549918555475L131.1450078125,94.94428260033258L131.212859375,98.54785434029934L131.8446328125,98.40840223960274L133.0855625,100.44622868230914L133.112703125,102.28027248074488L133.2589609375,102.67224523267039L133.33585937499998,105.34568737607002L133.57861718750002,104.76245197179635L134.089765625,106.47954010795004L134.1787265625,108.02491943048837L134.45465625,109.37642748743953L134.475765625,110.59278473869558L134.882875,111.56950626482602L134.9145390625,112.44855563834342L135.2809375,112.05970007450907L135.40005468750002,112.96839673372483L135.57646875,112.96022372701901L136.4012421875,113.18886802098379L136.5791640625,114.9679812188854L136.69375781250002,115.97918309699686L137.08428125,119.01326478729717L137.2064140625,119.1872716419008L137.85778906250002,116.9445444777107L138.04777343749998,114.61142336327299L138.0869765625,115.57961436027902L138.2618828125,115.03498625758445L138.4940859375,116.43282096515935L138.5785234375,116.47153886864342L138.655421875,120.04638498177907L138.68859375,123.26374648360115L138.7383515625,126.15937183524105L138.776046875,124.67476798505027L139.16807812500002,122.47329118654525L139.17109375,120.49196206789071L139.32489062500002,121.06876586110165L139.3294140625,121.58788927499148L139.5616171875,120.83576701415899L139.81040625,119.1361903127431L140.036578125,119.33723794813545L140.241640625,117.0795141533219L140.49796875,117.99756273798971L140.7075546875,118.98113979752408L141.417734375,117.58502581777168L141.4252734375,116.32852323599451L141.496140625,115.19767091239504L141.586609375,117.83790382115555L141.62128906249998,120.21411343903998L142.01784375,120.54336876180264L142.02839843750002,120.83969855228906L143.094421875,120.00506203039347L143.50153125000003,116.26455582735413L143.950859375,93.82143357795205L143.978,73.6226235534902L144.098625,76.40836119814118L144.6429453125,80.80352507832706L144.90078125,88.29917257049435L145.0802109375,90.16792198011159L145.40137499999997,93.3837964487671L145.4782734375,95.84541680389039L145.69539843750002,97.313541790168L145.766265625,100.5621876111512L145.9426796875,99.51330218336942L146.1175859375,101.59797196503247L146.128140625,103.47417476852922L146.5578671875,100.60009062500963L147.0584609375,99.19341489584201L147.4685859375,101.11340673959113L147.61785937500002,104.80806606563202L147.9706875,106.52059279240216L148.0807578125,108.61253351316194L148.166703125,107.8599468285124L148.9356875,108.28395214566116L149.03821875,108.66555693109504L149.15432031249998,111.17233457131887L149.1754296875,113.42843444752032L149.234234375,112.78425766943495L149.28248437500002,112.20449856915812L149.740859375,110.93538204557565L149.9052109375,111.79917717435141L150.175109375,111.51459279024961L150.74506250000002,113.57913351122463L150.8295,112.09388682676884L150.83553125,110.75716481075862L150.93353906250002,112.77944832968277L151.03154687499998,113.18350349671448L151.3708046875,111.58048648037638L151.3949296875,110.13777116567206L151.6120546875,106.79399404910487L151.6512578125,103.78459464419439L151.70704687499997,104.8128018464416L152.2845390625,96.92752166179744L152.3131875,89.83076949561772L152.46698437499998,83.44369254605591L152.86504687500002,87.05665662478366L153.0354296875,90.9769909623053L153.088203125,90.09995853274144L153.7260078125,90.33329601280062L154.9081328125,92.94263307818723L154.9593984375,94.6223697703685L155.078515625,97.03879945999832L155.41928124999998,99.05625284733182L155.49768749999998,97.05662756259863L155.70878125,97.06629813967211L156.0751796875,98.53033499237155L156.4551484375,97.13396815980107L156.69790625,92.76990467715429L157.062796875,94.5062475427722L157.111046875,96.06895612182831L157.430703125,97.20006050964548L157.72020312499998,98.69005445868093L157.8483671875,100.81771567947949L158.0473984375,102.77194411153155L158.3519765625,105.43541636704505L158.4002265625,107.83254139700722L158.456015625,110.46195392397317L158.576640625,112.82842519824251L158.80432031249998,112.24424934508492L159.0877890625,111.79715774390976L159.13453125,112.29944196951878L159.1842890625,112.7514977725669L159.35617968749997,112.29301466197688L159.451171875,112.31304652911253L159.807015625,110.9150752095346L159.8507421875,108.00490102191448L161.0057265625,103.96974425305636L161.02532812500002,100.33810316108406L161.133890625,97.06962617830898L161.3495078125,97.54999689381143L161.930015625,100.53899720443029L162.01596093749998,103.22909748398725L162.17578906249997,103.9588544022552L162.273796875,103.86830229536301L162.3416484375,103.78680539916004L162.587421875,103.79212485924404L163.05182812500001,106.74691237331963L163.8615234375,108.383554469321L164.074125,106.8671990223889L164.7481171875,106.01381245348334L164.87628125,107.920431208135L164.90040625,107.59105475398816L165.476390625,107.96328261192268L165.5020234375,108.29828768406375L165.69803906250002,102.50312558232403L165.820171875,104.09214635742497L165.91365625,105.0502650550158L166.218234375,104.53590521618088L166.5393984375,86.92364802789614L167.4802734375,90.03128322510652L167.51042968750002,92.82815490259587L167.8210390625,73.9086727456696L168.0833984375,76.03647213776934L168.3095703125,79.24949159065908L168.3397265625,83.47854243159317L168.34425,87.28468818843385L168.47241406249998,89.45155270292379L168.4769375,91.40173076596474L169.0182421875,94.33689102270161L169.0574453125,96.97853525376478L169.97570312500002,99.04134839505497L170.0646640625,101.60588022221613L170.5743046875,102.45862553332785L170.7205625,105.54676297999507L171.09449999999998,108.05075334866221L171.742859375,109.39967801379599L172.4651015625,110.22037687908305L172.7003203125,111.31300585784142L173.0742578125,111.19503860539061L173.23559375,108.92553474485153L173.485890625,110.38364793703305L173.6773828125,108.23461647666308L173.883953125,107.44115482899677L173.968390625,106.72703934609709L174.016640625,108.2083354114874L174.12369531250002,110.05283520367198L174.6966640625,106.59955168330478L174.830859375,106.75626318164097L174.86553906249998,106.89730353014355L175.361609375,103.87757317712918L175.7144375,105.2111491927496L175.81244531250002,106.7457009401413L176.4427109375,108.06779751279385L176.6507890625,108.82501776151445L176.75633593749998,106.35984931869635L176.8618828125,104.8688643868267L177.0428203125,106.41797794814403L177.1091640625,105.01951348666296L177.3142265625,106.63222880466334L177.53436718749998,107.297005924197L177.61578906250003,105.41730533177729L177.7364140625,103.21424146526623L177.90227343749999,104.5748173187396L178.13296875,105.76000225353232L178.2430390625,103.44400202817909L178.5325390625,104.07360182536118L178.6380859375,104.56157497615838L178.71196874999998,105.00075081187588L179.514125,104.57000906402162L180.1941484375,106.0703414909528L180.35397656249998,105.61130734185753L180.35699218750003,105.19817660767177L180.7641015625,104.98369228023792L181.3672265625,103.80732305221413L181.79242968749998,102.7485907469927L181.827109375,101.79573167229343L182.07137500000002,105.06815850506409L182.2327109375,106.75467598789102L182.321671875,109.13787505576859L182.3352421875,111.2827542168584L182.44229687499998,110.69581212850588L182.5553828125,110.16756424898863L182.68053125,111.06880782408976L182.7996484375,106.21592704168079L182.95193749999999,105.3883343375127L182.98209375000002,104.64350090376143L183.0966875,103.34381748005195L183.1826328125,102.17410239871343L183.19921875,101.12135882550875L183.83853125000002,101.11788960962454L183.8686875,101.11476731532876L184.41753125,104.49462391712922L184.72210937499997,105.92382819208295L184.770359375,106.97411203954132L184.85178125,107.91936750225386L184.987484375,110.89409741869513L185.2815078125,106.64868767682563L185.32825,105.93515224247639L185.4111796875,106.15830368489543L185.463953125,106.35913998307255L185.47903125,106.53989265143196L185.7730546875,107.1352367196221L186.1590546875,106.4517130476599L186.241984375,105.8365417428939L186.89034375,104.85022090193783L187.3864140625,105.61453214507739L187.4738671875,106.30241226390298L188.0317578125,108.45550437084601L188.18857031250002,110.39328726709475L188.2096796875,112.1372918737186L188.238328125,113.70689601968007L188.3001484375,115.11953975104541L188.3212578125,114.81758577594087L188.343875,114.54582719834679L188.3634765625,114.3012444785121L188.42228125,110.69845336399423L188.618296875,112.33327469426146L188.877640625,109.83194722483533L189.1324609375,93.02741916901847L189.3978359375,94.73801058544996L189.5365546875,96.90687619357162L189.6451171875,98.30818857421447L189.66622656250001,99.56936971679302L190.30252343749999,101.37309941178039L190.38846875000002,97.88312280393568L190.5739296875,98.28214385687544L190.8393046875,103.51859613785456L190.9900859375,86.28340319073578L191.145390625,89.16006287166219L191.64899999999997,91.29672325116266L192.6456640625,91.33171759271303L192.7059765625,91.36321250010842L192.755734375,91.39155791676424L193.03317187500002,93.26573545842115L193.678515625,96.32916191257902L193.88508593749998,99.91224572132113L194.87421093749998,101.64235448252235L194.87571875,103.19945236760344L194.963171875,104.60084046417643L195.264734375,107.39608975109212L195.38385156249998,110.30514744264957L195.7487421875,107.80996603171795L196.112125,106.62630276187949L196.305125,106.62300581902487L196.3548828125,106.62003857045572L196.64739843750002,106.1847013800768L196.7378671875,105.7928979087358L196.9007109375,106.93494145119554L196.9549921875,107.96278063940932L196.98364062500002,108.8878359088017L197.128390625,110.54638565125488L197.8174609375,110.2297470861294L197.87928125,111.83277237751645L198.01196875,112.25282847309813L198.346703125,110.78221229245499L198.5773984375,112.76265772987615L198.862375,110.51339195688853L198.90459375,110.593386094533L199.7414296875,112.6320474850797L200.03394531249998,113.09017606990506L200.09275000000002,112.99115846291456L200.3928046875,111.99737594995644L201.0260859375,113.62030502162746L201.23868750000003,112.91760785279804L201.428671875,113.26851373418492L201.657859375,113.82032902743309L202.0182265625,95.8302961246898L202.4886640625,81.36993317888748L202.74046875,85.46560652766539L202.75253124999998,89.15171254156552L203.2847890625,71.97654128740899L203.70094531249998,77.48355382533477L203.780859375,82.43986510946793L204.31914843750002,84.85521193185448L204.3372421875,87.02902407200237L204.709671875,89.06412166480213L204.72022656250002,91.05304283165525L204.8800546875,94.00340521515639L205.1228125,94.71173136030741L205.258515625,95.62455822427665L205.747046875,97.90143573518232L206.0048828125,100.81595882833075L206.078765625,101.35436294549768L206.1360625,101.83892665094791L206.18732812500002,102.27503398585313L206.24462499999998,104.75219725393447L206.3034296875,106.98164419520769L206.4783359375,106.94281310902025L206.5959453125,106.90786513145156L206.6170546875,106.87641195163974L206.64268750000002,106.8481040898091L206.80553125,108.59262701416152L206.88695312500002,110.1626976460787L207.52928125,107.83909454813748L207.815765625,109.36651842665707L207.990671875,106.33586658399136L208.322390625,108.72161325892556L208.3661171875,109.13811859969967L209.06121875,110.41764007306303L209.4487265625,111.41187606575673L209.492453125,112.30668845918105L209.5844296875,107.21201961326295L210.0428046875,108.17281765193665L210.2961171875,109.31286922007632L211.06359375,113.48558229806869L211.08621093750003,117.24102406826181L211.53403125,111.41692166143564L212.38292968750002,111.72122949529208L212.4733984375,111.99510654576287L212.8925703125,110.43226255785325L212.894078125,109.02570296873458L213.06144531249998,106.34379933852779L213.1036640625,103.93008607134168L213.1488984375,101.75774413087417L213.21071875,99.80263638445342L213.385625,102.05503941267474L213.86209375,101.4468688047406L213.92542187499998,100.89951525759987L213.979703125,102.25556373183989L214.419984375,102.33534069198923L214.4667265625,102.40713995612363L214.90851562499998,106.16909262717793L215.0487421875,107.23418336446014L215.0668359375,108.19276502801412L215.22515625,108.78015519187937L215.7212265625,104.78547300602477L216.536953125,104.02225903875562L216.573140625,103.3353664682134L216.6228984375,102.71716315472538L217.2818125,104.12744683925284L217.381328125,104.84603548866089L217.423546875,105.84676527312813L217.9286640625,103.01075541248198L218.1985625,104.78501320456711L218.2724453125,106.38184521744373L218.27696875,107.8189940290327L218.2935546875,109.11242795946275L218.3598984375,110.2765184968498L218.69915625,111.20619998049817L219.07158593749998,112.55424664911502L220.8116015625,111.05348865087018L221.178,108.60147311911649L221.5519375,104.34932580720485L221.6318515625,105.32105989315103L221.796203125,106.94295390383593L221.9967421875,108.79599184678567L222.2741796875,91.0723926621071L222.4671796875,90.42182006256306L222.54709375000002,88.69563805630676L222.61042187500001,92.17674091734276L222.7747734375,94.16906682560847L222.785328125,95.96216014304764L222.83357812499997,98.71661079540952L222.881828125,100.88094971586857L222.9738046875,79.70085474428171L223.0009453125,82.07543593652021L223.32663281249998,85.47122567620151L223.61613281249998,89.19610310858135L223.77294531249998,90.22782613105656L223.86642968750002,92.96571018461756L224.1287890625,91.88980583282247L224.4424140625,94.61882524954022L224.8857109375,97.07494272458621L224.9460234375,99.28544845212758L225.1450546875,101.62890360691482L225.2777421875,101.53534657955667L225.2958359375,101.45114525493433L225.30789843750003,101.37536406277422L225.3501171875,101.30716098983014L225.4224921875,101.24577822418046L225.48732812499998,100.12853373509574L225.6788203125,98.69034702825283L225.9080078125,100.38531232542753L226.060296875,103.01211442621812L226.2804375,104.66823631692964L226.422171875,104.54607935190334L226.6498515625,89.60747141671303L227.233375,93.11539094170838L227.278609375,96.27251851420421L227.5696171875,98.05193332945045L227.66008593749999,99.65340666317208L227.69778125,101.09473266352154L228.42153125000002,99.00925939716937L228.4381171875,97.13233345745245L228.7065078125,101.26443344504052L228.7411875,104.9833234338698L228.7879296875,108.33032442381615L229.0020390625,93.05262531476788L229.0231484375,79.30269611662442L229.95196093750002,82.07109317162865L230.2082890625,85.46731718779911L230.5701640625,88.16991880235256L230.5942890625,92.29359358878395L230.79784375,91.44223422990555L231.00742968749998,93.862010806915L231.17630468750002,94.54514305955684L231.4446953125,94.8059620869345L231.4929453125,97.04669921157438L231.6015078125,98.70936262375027L231.9935390625,100.08775969470858L232.2151875,102.11498372523772L232.77157031250002,103.1921520193806L232.791171875,104.16160348410921L232.91933593750002,100.51077646903163L233.177171875,100.09636548879512L233.454609375,100.86406227324895L233.4892890625,101.55498937925738L233.496828125,102.17682377466497L233.526984375,102.73647473053181L233.6868125,103.24016059081197L234.2055,103.06414453173076L234.63975000000002,103.02373007855769L235.02725781249998,103.7740237373686L235.535390625,103.22995469696507L235.6424453125,102.7402925606019L235.7600546875,104.18759663787505L236.23501562500002,105.68683697408754L236.2425546875,107.03615327667877L236.265171875,108.25053794901089L236.76275,104.85948415410981L236.811,101.80753573869883L237.1080390625,102.48278216482895L237.4548359375,103.12983728167939L237.57998437499998,103.71218688684478L237.6086328125,104.23630153149362L237.7639375,104.43267137834427L237.8498828125,101.8560709071765L238.1846171875,100.95313048312552L238.47110156250002,103.71981743481295L238.9053515625,105.38383569133165L238.9475703125,106.17345212219848L239.07724218750002,106.9627735766453L239.65171875000001,107.98782955231412L239.684890625,108.91037993041603L240.13271093749998,107.73467527070777L240.35134375,109.11520774363699L240.42070312500002,110.59368696927329L241.2138125,108.22698493901262L241.274125,110.81695311177802L241.2861875,113.14792446726689L241.31935937499998,111.23379868720687L241.3344375,109.51108548515285L241.44903125,108.90464360330422L241.500296875,108.35884590964046L241.6314765625,106.33362798534309L241.67821874999998,104.51093185347544L242.3823671875,105.19117200146123L242.64925,105.4100548013151L242.742734375,106.03971598785026L243.0940546875,105.70174438906523L243.1031015625,105.39756995015871L244.045484375,106.42181295514284L244.099765625,107.46163165962855L244.24602343749999,108.35813516033237L244.53703125,109.1649883109658L244.5626640625,106.46915614653587L244.564171875,104.04290719854896L245.01500781250002,106.93328314536072L245.0692890625,108.70862149749132L245.3995,105.78309268107553L245.6121015625,106.21811674630129L246.0553984375,106.09830507167116L246.2906171875,105.51847456450405L246.50623437500002,107.51396044138697L246.63590624999998,108.20856439724827L246.650984375,106.59170795752345L246.8635859375,108.75520382843777L246.9314375,108.49968344559399L246.9691328125,108.26971510103459L247.15911718750002,108.4954102575978L247.2646640625,108.10853589850468L247.519484375,107.70134897532088L247.6235234375,107.82654741112214L247.71248437499997,109.15855933667659L247.89191406249998,107.84003673634227L248.0788828125,106.06336639604136L248.110546875,104.46436308977056L249.2127578125,107.03726011412684L249.71335156249998,108.84153410271416L249.7299375,110.46538069244274L249.862625,110.51084262319846L249.9214296875,107.6017583608786L249.98325,104.98358252479075L250.1958515625,94.68189093897834L250.7688203125,91.03503517841385L250.89999999999998,91.13553166057245L251.3478203125,92.44531182784854L252.2525078125,94.686113978397L252.3429765625,93.79216924722398L252.3580546875,92.98761898916824L252.54653125,93.99419042358477L253.409,95.17543804789295L253.59898437500001,98.67722757643698L253.7482578125,83.53883815212662L253.9533203125,88.71562100358064L254.13727343750003,91.13272556988923L254.22472656250002,92.0494530129003L254.328765625,94.56584104494361L254.33479687500002,99.26925694044924L254.48708593749998,99.41166457973765L254.6167578125,100.73949812176387L254.639375,101.93454830958748L255.4882734375,103.34442681196207L255.65865625,104.18065079743253L255.85165625000002,107.1359190510226L255.8742734375,109.79566047925367L255.9798203125,112.18942776466164L256.1577421875,112.5738183215288L256.234640625,112.25110315604259L256.3386796875,111.96065950710499L256.3447109375,111.69926022306116L257.139328125,111.42466753408837L257.16797656250003,112.31820078067953L257.2886015625,114.81371403594491L257.4725546875,114.62100929901709L257.630875,114.44757503578205L257.9007734375,111.97081753220384L257.92188281250003,113.9110691123168L257.9761640625,111.05529553441845L258.037984375,112.10376598097659L258.17971875,113.87338938287894L258.2536015625,108.66138377792439L258.2777265625,103.97057873346527L258.399859375,106.23885419345207L258.5250078125,108.90963544077354L258.6561875,111.31333856336285L258.683328125,108.79600470702657L258.8868828125,111.52573756965724L259.0919453125,110.87516381269151L259.67546875,109.93564743142235L259.73125781249996,95.16608268828011L260.13384375,96.58414108611878L260.444453125,97.97839364417356L260.5002421875,99.23322094642286L260.7565703125,85.49456551844725" style="fill: none;" fill="none"></path></g></g></g></g><g opacity="0.2"><g><g><g><path stroke="rgb(255, 112, 67)" stroke-width="2px" d="M30.2210859375,157.33333333333334L30.4095625,157.33333333333334L30.503046875,157.33333333333334L30.8724609375,88.10666666666667L30.9659453125,88.10666666666667L31.03078125,88.10666666666667L31.0413359375,88.10666666666667L31.1137109375,88.10666666666667L31.1333125,88.10666666666667L31.2343359375,88.10666666666667L31.3760703125,88.10666666666667L31.686679687500003,-46.41333333333333L32.2566328125,-46.41333333333333L32.3229765625,127.04666666666667L32.70746875,108.56L32.7723046875,108.56L32.776828125,108.56L32.987921875,108.56L33.048234375,108.56L33.2276640625,108.56L33.63628125,114.06666666666666L33.759921874999996,114.06666666666666L33.904671875,-68.44L33.9061796875,-68.44L34.206234375,111.70666666666666L34.7384921875,129.8L35.0279921875,156.15333333333334L35.052117187499995,156.15333333333334L35.141078125,156.15333333333334L35.613023437500004,108.56L35.6160390625,108.56L35.6914296875,-49.16666666666666L35.919109375,-49.16666666666666L36.12266406249999,94.4L36.666984375,108.16666666666667L36.7921328125,141.20666666666668L36.9308515625,108.95333333333333L36.956484374999995,-49.56L37.2082890625,68.44000000000001L37.37716406249999,111.70666666666666L37.65309375,-62.93333333333334L37.8988671875,86.14L38.217015625,117.21333333333334L38.238125000000004,155.76L38.78696875,127.83333333333333L38.999570312500005,51.52666666666667L39.06440625,-39.72666666666666L39.1895546875,124.29333333333334L39.5061953125,115.24666666666667L39.53484375,115.24666666666667L40.25859375,125.86666666666667L40.2766875,125.86666666666667L40.492304687499995,107.38000000000001L40.661179687499995,8.063333333333333L40.94615625,125.86666666666667L41.2884296875,112.49333333333333L41.4060390625,124.29333333333334L41.410562500000005,124.29333333333334L41.915679687499996,-72.37333333333333L41.968453125,-72.37333333333333L42.3197734375,94.4L42.4916640625,116.03333333333333L42.553484375000004,72.37333333333333L42.971148437500005,127.04666666666667L42.98622656249999,127.04666666666667L43.126453125000005,111.31333333333333L43.5441171875,130.98L43.6300625,79.84666666666666L44.1201015625,135.30666666666667L44.433726562500006,102.66L44.5633984375,40.906666666666666L44.583,40.906666666666666L44.7805234375,134.91333333333333L45.8375,100.3L45.958125,91.25333333333333L46.0229609375,-43.66L46.151125,117.60666666666667L46.4119765625,90.07333333333334L46.595929687499996,68.44000000000001L46.600453124999994,68.44000000000001L46.692429687499995,62.146666666666675L46.773851562500006,-45.626666666666694L46.8974921875,109.34666666666666L47.5458515625,78.66666666666666L47.597117187500004,78.66666666666666L47.776546875,128.22666666666666L47.888124999999995,26.74666666666667L48.204765625,108.56L48.2123046875,108.56L48.498789062499995,110.92L48.6887734375,94.00666666666666L49.573859375,134.91333333333333L49.8105859375,117.60666666666667L49.851296874999996,97.54666666666667L50.659484375,66.08L50.6941640625,66.08L50.9806484375,121.93333333333334L51.600359375,155.76L51.710429687499996,155.76L51.776773437500005,116.03333333333333L51.941125,121.93333333333334L52.229117187499995,112.49333333333333L52.2743515625,112.49333333333333L52.44171875,112.49333333333333L52.583453125,121.93333333333334L53.488140625,111.31333333333333L53.53940625,140.81333333333333L53.9269140625,-36.97333333333333L54.4576640625,117.21333333333334L54.766765625,119.96666666666667L55.574953125,-57.42666666666668L55.8900859375,100.69333333333333L55.936828125,-53.886666666666684L56.30171875,-69.62L56.6093125,109.74L56.630421875,109.74L57.97840625,95.97333333333333L58.9811015625,108.56L59.061015625,108.56L59.606843749999996,138.45333333333332L59.7711953125,120.75333333333333L59.7923046875,120.75333333333333L59.90840625,120.75333333333333L60.30646875,112.10000000000001L60.393921875000004,100.3L60.407492187500004,119.96666666666667L60.5220859375,134.91333333333333L60.6819140625,123.11333333333333L60.693976562500005,123.11333333333333L60.80103125,112.10000000000001L60.9774453125,124.29333333333334L61.126718749999995,124.29333333333334L61.185523437499995,122.32666666666667L61.48859375,88.10666666666667L61.493117187500005,88.10666666666667L61.6031875,88.10666666666667L61.9424453125,-45.626666666666694L62.0389453125,96.76L62.1716328125,66.08L62.3028125,116.42666666666668L62.61040625,101.87333333333333L63.1004453125,129.01333333333332L63.699046875,131.76666666666668L63.8272109375,124.29333333333334L63.8694296875,124.29333333333334L65.0455234375,132.94666666666666L65.0606015625,132.94666666666666L65.1269453125,132.94666666666666L65.1661484375,48.379999999999995L65.2686796875,48.379999999999995L65.381765625,48.379999999999995L65.48128125,114.85333333333334L65.6516640625,92.04L65.8476796875,110.13333333333334L65.864265625,110.13333333333334L65.894421875,116.42666666666668L66.25177343749999,126.65333333333334L66.56690625,95.58L66.7704609375,116.42666666666668L66.77347656250001,116.42666666666668L66.8307734375,116.42666666666668L67.281609375,85.35333333333334L67.429375,114.06666666666666L67.4414375,114.06666666666666L67.70379687500001,121.93333333333334L67.7535546875,126.25999999999999L68.23454687499999,116.42666666666668L68.3536640625,-68.44L68.442625,-68.44L69.0774140625,132.94666666666666L69.1301875,114.85333333333334L69.241765625,97.15333333333334L69.81775,108.16666666666667L70.562609375,118L70.56411718749999,118L71.10089843749999,116.03333333333333L71.10843750000001,116.03333333333333L71.630140625,130.58666666666667L71.77790625,82.6L71.83067968750001,82.6L72.112640625,112.10000000000001L72.2498515625,138.45333333333332L73.03692968749999,128.62L73.19524999999999,78.27333333333333L73.83908593749999,84.56666666666666L73.87828906249999,84.56666666666666L73.9778046875,112.49333333333333L74.187390625,134.12666666666667L74.280875,134.12666666666667L74.5945,116.03333333333333L74.618625,116.03333333333333L74.80559375,116.03333333333333L75.13429687499999,116.82L75.399671875,121.53999999999999L75.43887500000001,121.53999999999999L75.6544921875,115.24666666666667L75.8851875,112.49333333333333L76.1008046875,117.60666666666667L76.31491406250001,-46.41333333333333L76.4566484375,59.393333333333345L76.4777578125,59.393333333333345L77.5121171875,103.05333333333333L77.56790625,126.25999999999999L77.94938281249999,107.38000000000001L78.22682031250001,97.15333333333334L78.3112578125,97.15333333333334L78.4137890625,91.64666666666666L78.719875,110.13333333333334L79.06365625000001,97.94L79.22499218749999,100.3L79.398390625,105.02L79.5567109375,118.39333333333333L79.7557421875,65.68666666666665L79.76780468749999,65.68666666666665L79.96683593750001,107.38000000000001L80.188484375,131.76666666666668L80.32418750000001,125.08L80.481,134.91333333333333L80.52321875,56.639999999999986L81.026828125,136.09333333333333L81.044921875,136.09333333333333L81.07357031250001,136.09333333333333L81.099203125,103.05333333333333L81.18062499999999,135.30666666666667L81.2364140625,135.30666666666667L81.292203125,135.30666666666667L81.4776640625,105.80666666666667L81.63598437499999,116.42666666666668L81.9692109375,83.38666666666667L82.000875,83.38666666666667L82.214984375,109.34666666666666L82.32656250000001,-55.06666666666666L82.604,113.67333333333335L83.43329687500001,125.86666666666667L83.46496093750001,124.68666666666667L83.499640625,124.68666666666667L83.65946875,94.4L83.795171875,104.23333333333333L84.09371875,73.55333333333334L84.211328125,119.18L84.368140625,98.72666666666666L84.3937734375,98.72666666666666L84.494796875,98.72666666666666L84.8099296875,112.10000000000001L84.85365625,120.36L85.387421875,91.64666666666666L85.43265625,127.44L85.5955,115.24666666666667L85.7206484375,96.76L85.80659375,96.76L86.2513984375,112.10000000000001L86.684140625,116.82L87.0987890625,106.98666666666666L87.26766406249999,106.98666666666666L87.7441328125,92.82666666666667L88.1165625,110.92L88.1406875,110.92L88.5402578125,129.40666666666667L88.7211953125,94.4L88.933796875,114.06666666666666L89.4087578125,129.01333333333332L90.0209296875,123.11333333333333L90.140046875,113.08333333333334L90.2863046875,98.72666666666666L90.333046875,114.06666666666666L90.50041406250001,95.18666666666667L90.9165703125,84.17333333333333L91.22416406250001,121.93333333333334L91.4699375,109.74L91.47596874999999,109.74L91.5257265625,104.23333333333333L91.5558828125,104.23333333333333L91.665953125,111.90333333333334L92.0383828125,115.64L92.3459765625,134.91333333333333L92.3866875,81.81333333333333L92.492234375,117.60666666666667L92.79078125000001,111.70666666666666L92.81490624999999,111.70666666666666L93.6879296875,129.40666666666667L94.1643984375,129.40666666666667L94.19153906250001,129.40666666666667L94.5081796875,65.68666666666665L95.7747421875,149.46666666666667L95.90893750000001,84.17333333333333L95.9571875,84.17333333333333L96.06575000000001,84.17333333333333L96.1064609375,84.17333333333333L96.1124921875,84.17333333333333L96.207484375,64.11333333333333L96.490953125,109.54333333333334L96.611578125,95.58L96.8030703125,36.97333333333333L96.81362499999999,36.97333333333333L96.87996875,36.97333333333333L96.9598828125,91.25333333333333L97.7318828125,112.49333333333333L97.95503906249999,115.64L98.4767421875,124.68666666666667L98.4903125,124.68666666666667L98.57022656250001,132.16L98.77378125,119.18L99.0014609375,90.46666666666667L99.9966171875,121.14666666666668L100.0207421875,116.82L100.139859375,147.89333333333332L100.26953125,104.62666666666667L101.478796875,116.42666666666668L101.907015625,-44.44666666666666L101.98692968750001,127.44L102.03367187500001,127.44L102.087953125,121.14666666666668L102.1467578125,96.76L102.3548359375,132.55333333333334L102.45284375,-33.04000000000002L102.6473515625,-33.04000000000002L102.805671875,125.08L102.87503125,125.08L103.3198359375,127.83333333333333L103.8053515625,72.76666666666667L104.4506953125,120.36L104.5698125,116.42666666666668L104.75979687499999,117.60666666666667L105.55742968749999,83.78000000000002L105.6328203125,110.92L105.773046875,124.68666666666667L105.797171875,124.68666666666667L105.84240625,124.68666666666667L105.95247656250001,91.25333333333333L106.496796875,-76.69999999999999L106.78328125,110.92L107.02453125,123.11333333333333L107.2582421875,129.01333333333332L107.39846875,113.28L107.4813984375,77.09333333333333L108.25942968749999,101.08666666666667L108.2714921875,101.08666666666667L108.4946484375,108.56L108.56551562499999,108.56L109.00428906249999,102.66L109.096265625,108.95333333333333L109.33299218750001,103.05333333333333L109.5923359375,94.79333333333334L109.9300859375,119.57333333333334L109.97984375,119.57333333333334L110.2105390625,92.04L110.23315625,92.04L110.7774765625,130.19333333333333L111.1363359375,-47.593333333333334L111.146890625,-47.593333333333334L111.15292187499999,118L111.15895312500001,118L111.3715546875,138.84666666666666L111.4378984375,138.84666666666666L111.6881953125,125.08L111.7424765625,125.08L111.76509375,125.08L111.943015625,73.94666666666667L112.62153125,110.13333333333334L112.79643750000001,127.04666666666667L112.992453125,75.12666666666667L113.06030468750001,115.24666666666667L113.378453125,114.06666666666666L113.53828125,121.93333333333334L113.9061875,115.24666666666667L113.91825,107.38000000000001L114.16251562500001,111.70666666666666L114.2424296875,118.39333333333333L115.10339062499999,143.17333333333335L115.35971875,99.51333333333334L115.38082812500001,99.51333333333334L115.5120078125,99.51333333333334L115.78190624999999,89.28666666666666L115.83166406250001,117.60666666666667L116.1015625,101.08666666666667L116.55390625000001,112.88666666666667L116.562953125,112.88666666666667L116.8328515625,127.44L117.2490078125,118L118.0556875,121.14666666666668L118.27432031250001,94.4L118.4492265625,117.21333333333334L118.577390625,127.04666666666667L118.69500000000001,-54.28L118.76134375000001,-54.28L119.51675781249999,114.06666666666666L119.587625,114.06666666666666L119.7700703125,122.72L120.0836953125,116.03333333333333L120.1289296875,116.03333333333333L120.89640625,120.36L120.905453125,120.36L120.938625,113.28L121.074328125,95.18666666666667L121.34271874999999,117.21333333333334L122.443421875,110.13333333333334L122.5504765625,119.18L122.7947421875,106.2L122.9394921875,87.32L123.15963281249999,144.74666666666667L123.85171874999999,118.78666666666666L123.97234375000001,113.67333333333335L124.42016406249999,127.04666666666667L124.46690625000001,86.53333333333335L124.9599609375,-64.50666666666666L125.18613281249999,113.67333333333335L125.4816640625,113.67333333333335L125.6897421875,111.31333333333333L125.79528906249999,114.46000000000001L125.79679687500001,114.46000000000001L125.92345312500001,114.46000000000001L126.1616875,62.540000000000006L126.454203125,110.13333333333334L126.6396640625,119.57333333333334L126.8055234375,115.64L126.997015625,135.30666666666667L127.42824999999999,155.76L127.44332812500001,155.76L127.693625,125.08L127.99820312499999,63.72L128.534984375,138.45333333333332L128.6058515625,138.45333333333332L128.8440859375,-80.63333333333333L128.89082812499998,-80.63333333333333L129.071765625,92.43333333333332L129.13509375,92.43333333333332L129.234609375,110.52666666666667L129.53315625,120.36L129.747265625,107.38000000000001L130.12271093750002,84.56666666666666L130.86003125,113.67333333333335L131.1027890625,82.6L131.1450078125,132.55333333333334L131.212859375,130.98L131.8446328125,97.15333333333334L133.0855625,118.78666666666666L133.112703125,118.78666666666666L133.2589609375,106.2L133.33585937499998,129.40666666666667L133.57861718750002,99.51333333333334L134.089765625,121.93333333333334L134.1787265625,121.93333333333334L134.45465625,121.53999999999999L134.475765625,121.53999999999999L134.882875,120.36L134.9145390625,120.36L135.2809375,108.56L135.40005468750002,121.14666666666668L135.57646875,112.88666666666667L136.4012421875,115.24666666666667L136.5791640625,130.98L136.69375781250002,125.08L137.08428125,146.32L137.2064140625,120.75333333333333L137.85778906250002,96.76L138.04777343749998,93.61333333333333L138.0869765625,124.29333333333334L138.2618828125,110.13333333333334L138.4940859375,129.01333333333332L138.5785234375,116.82L138.655421875,152.22L138.68859375,152.22L138.7383515625,152.22L138.776046875,111.31333333333333L139.16807812500002,102.66L139.17109375,102.66L139.32489062500002,126.25999999999999L139.3294140625,126.25999999999999L139.5616171875,114.06666666666666L139.81040625,103.84L140.036578125,121.14666666666668L140.241640625,96.76L140.49796875,126.25999999999999L140.7075546875,127.83333333333333L141.417734375,105.02L141.4252734375,105.02L141.496140625,105.02L141.586609375,141.6L141.62128906249998,141.6L142.01784375,123.50666666666666L142.02839843750002,123.50666666666666L143.094421875,112.49333333333333L143.50153125000003,82.6L143.950859375,-108.16666666666669L143.978,-108.16666666666669L144.098625,101.47999999999999L144.6429453125,120.36L144.90078125,155.76L145.0802109375,106.98666666666666L145.40137499999997,122.32666666666667L145.4782734375,118L145.69539843750002,110.52666666666667L145.766265625,129.8L145.9426796875,90.07333333333334L146.1175859375,120.36L146.128140625,120.36L146.5578671875,74.73333333333335L147.0584609375,86.53333333333335L147.4685859375,118.39333333333333L147.61785937500002,138.06L147.9706875,121.93333333333334L148.0807578125,127.44L148.166703125,101.08666666666667L148.9356875,112.10000000000001L149.03821875,112.10000000000001L149.15432031249998,133.73333333333335L149.1754296875,133.73333333333335L149.234234375,106.98666666666666L149.28248437500002,106.98666666666666L149.740859375,99.51333333333334L149.9052109375,119.57333333333334L150.175109375,108.95333333333333L150.74506250000002,132.16L150.8295,98.72666666666666L150.83553125,98.72666666666666L150.93353906250002,130.98L151.03154687499998,116.82L151.3708046875,97.15333333333334L151.3949296875,97.15333333333334L151.6120546875,76.7L151.6512578125,76.7L151.70704687499997,114.06666666666666L152.2845390625,25.95999999999998L152.3131875,25.95999999999998L152.46698437499998,25.95999999999998L152.86504687500002,119.57333333333334L153.0354296875,126.25999999999999L153.088203125,82.20666666666666L153.7260078125,92.43333333333332L154.9081328125,116.42666666666668L154.9593984375,109.74L155.078515625,118.78666666666666L155.41928124999998,117.21333333333334L155.49768749999998,79.06L155.70878125,97.15333333333334L156.0751796875,111.70666666666666L156.4551484375,84.56666666666666L156.69790625,53.493333333333325L157.062796875,110.13333333333334L157.111046875,110.13333333333334L157.430703125,107.38000000000001L157.72020312499998,112.10000000000001L157.8483671875,119.96666666666667L158.0473984375,120.36L158.3519765625,129.40666666666667L158.4002265625,129.40666666666667L158.456015625,134.12666666666667L158.576640625,134.12666666666667L158.80432031249998,106.98666666666666L159.0877890625,107.77333333333333L159.13453125,116.82L159.1842890625,116.82L159.35617968749997,108.16666666666667L159.451171875,112.49333333333333L159.807015625,98.33333333333334L159.8507421875,81.81333333333333L161.0057265625,67.65333333333334L161.02532812500002,67.65333333333334L161.133890625,67.65333333333334L161.3495078125,101.87333333333333L161.930015625,127.44L162.01596093749998,127.44L162.17578906249997,110.52666666666667L162.273796875,103.05333333333333L162.3416484375,103.05333333333333L162.587421875,103.84L163.05182812500001,133.34L163.8615234375,123.11333333333333L164.074125,93.22L164.7481171875,98.33333333333334L164.87628125,125.08L164.90040625,104.62666666666667L165.476390625,111.31333333333333L165.5020234375,111.31333333333333L165.69803906250002,50.34666666666668L165.820171875,118.39333333333333L165.91365625,113.67333333333335L166.218234375,99.90666666666667L166.5393984375,-71.58666666666664L167.4802734375,118L167.51042968750002,118L167.8210390625,-96.36666666666667L168.0833984375,95.18666666666667L168.3095703125,108.16666666666667L168.3397265625,121.53999999999999L168.34425,121.53999999999999L168.47241406249998,108.95333333333333L168.4769375,108.95333333333333L169.0182421875,120.75333333333333L169.0574453125,120.75333333333333L169.97570312500002,117.60666666666667L170.0646640625,124.68666666666667L170.5743046875,110.13333333333334L170.7205625,133.34L171.09449999999998,130.58666666666667L171.742859375,121.53999999999999L172.4651015625,117.60666666666667L172.7003203125,121.14666666666668L173.0742578125,110.13333333333334L173.23559375,88.5L173.485890625,123.50666666666666L173.6773828125,88.89333333333333L173.883953125,100.3L173.968390625,100.3L174.016640625,121.53999999999999L174.12369531250002,126.65333333333334L174.6966640625,75.52L174.830859375,108.16666666666667L174.86553906249998,108.16666666666667L175.361609375,76.7L175.7144375,117.21333333333334L175.81244531250002,120.55666666666667L176.4427109375,119.96666666666667L176.6507890625,115.64L176.75633593749998,84.17333333333333L176.8618828125,91.45L177.0428203125,120.36L177.1091640625,92.43333333333332L177.3142265625,121.14666666666668L177.53436718749998,113.28L177.61578906250003,88.5L177.7364140625,83.38666666666667L177.90227343749999,116.82L178.13296875,116.42666666666668L178.2430390625,82.6L178.5325390625,109.74L178.6380859375,108.95333333333333L178.71196874999998,108.95333333333333L179.514125,100.69333333333333L180.1941484375,119.57333333333334L180.35397656249998,101.47999999999999L180.35699218750003,101.47999999999999L180.7641015625,103.05333333333333L181.3672265625,93.22L181.79242968749998,93.22L181.827109375,93.22L182.07137500000002,134.52L182.2327109375,121.93333333333334L182.321671875,130.58666666666667L182.3352421875,130.58666666666667L182.44229687499998,105.41333333333334L182.5553828125,105.41333333333334L182.68053125,119.18L182.7996484375,62.540000000000006L182.95193749999999,97.94L182.98209375000002,97.94L183.0966875,91.64666666666666L183.1826328125,91.64666666666666L183.19921875,91.64666666666666L183.83853125000002,101.08666666666667L183.8686875,101.08666666666667L184.41753125,134.91333333333333L184.72210937499997,118.78666666666666L184.770359375,116.42666666666668L184.85178125,116.42666666666668L184.987484375,137.66666666666669L185.2815078125,68.44000000000001L185.32825,99.51333333333334L185.4111796875,108.16666666666667L185.463953125,108.16666666666667L185.47903125,108.16666666666667L185.7730546875,112.49333333333333L186.1590546875,100.3L186.241984375,100.3L186.89034375,95.97333333333333L187.3864140625,112.49333333333333L187.4738671875,112.49333333333333L188.0317578125,127.83333333333333L188.18857031250002,127.83333333333333L188.2096796875,127.83333333333333L188.238328125,127.83333333333333L188.3001484375,127.83333333333333L188.3212578125,112.10000000000001L188.343875,112.10000000000001L188.3634765625,112.10000000000001L188.42228125,78.27333333333333L188.618296875,127.04666666666667L188.877640625,87.32L189.1324609375,-58.21333333333331L189.3978359375,110.13333333333334L189.5365546875,116.42666666666668L189.6451171875,110.92L189.66622656250001,110.92L190.30252343749999,117.60666666666667L190.38846875000002,66.47333333333333L190.5739296875,101.87333333333333L190.8393046875,150.64666666666668L190.9900859375,-68.83333333333331L191.145390625,115.05000000000001L191.64899999999997,110.52666666666667L192.6456640625,91.64666666666666L192.7059765625,91.64666666666666L192.755734375,91.64666666666666L193.03317187500002,110.13333333333334L193.678515625,123.9L193.88508593749998,132.16L194.87421093749998,117.21333333333334L194.87571875,117.21333333333334L194.963171875,117.21333333333334L195.264734375,132.55333333333334L195.38385156249998,136.48666666666668L195.7487421875,85.35333333333334L196.112125,95.97333333333333L196.305125,106.59333333333333L196.3548828125,106.59333333333333L196.64739843750002,102.26666666666667L196.7378671875,102.26666666666667L196.9007109375,117.21333333333334L196.9549921875,117.21333333333334L196.98364062500002,117.21333333333334L197.128390625,125.47333333333333L197.8174609375,107.38000000000001L197.87928125,126.25999999999999L198.01196875,116.03333333333333L198.346703125,97.54666666666667L198.5773984375,130.58666666666667L198.862375,90.27L198.90459375,111.31333333333333L199.7414296875,130.98L200.03394531249998,117.21333333333334L200.09275000000002,112.10000000000001L200.3928046875,103.05333333333333L201.0260859375,128.22666666666666L201.23868750000003,106.59333333333333L201.428671875,116.42666666666668L201.657859375,118.78666666666666L202.0182265625,-66.07999999999998L202.4886640625,-48.77333333333334L202.74046875,122.32666666666667L202.75253124999998,122.32666666666667L203.2847890625,-82.59999999999997L203.70094531249998,127.04666666666667L203.780859375,127.04666666666667L204.31914843750002,106.59333333333333L204.3372421875,106.59333333333333L204.709671875,107.38000000000001L204.72022656250002,108.95333333333333L204.8800546875,120.55666666666667L205.1228125,101.08666666666667L205.258515625,103.84L205.747046875,118.39333333333333L206.0048828125,127.04666666666667L206.078765625,106.2L206.1360625,106.2L206.18732812500002,106.2L206.24462499999998,127.04666666666667L206.3034296875,127.04666666666667L206.4783359375,106.59333333333333L206.5959453125,106.59333333333333L206.6170546875,106.59333333333333L206.64268750000002,106.59333333333333L206.80553125,124.29333333333334L206.88695312500002,124.29333333333334L207.52928125,86.92666666666668L207.815765625,123.11333333333333L207.990671875,79.06L208.322390625,130.19333333333333L208.3661171875,112.88666666666667L209.06121875,121.93333333333334L209.4487265625,120.36L209.492453125,120.36L209.5844296875,61.36L210.0428046875,116.82L210.2961171875,119.57333333333334L211.06359375,151.04L211.08621093750003,151.04L211.53403125,59L212.38292968750002,114.46000000000001L212.4733984375,114.46000000000001L212.8925703125,96.36666666666667L212.894078125,96.36666666666667L213.06144531249998,82.20666666666666L213.1036640625,82.20666666666666L213.1488984375,82.20666666666666L213.21071875,82.20666666666666L213.385625,122.32666666666667L213.86209375,95.97333333333333L213.92542187499998,95.97333333333333L213.979703125,114.46000000000001L214.419984375,103.05333333333333L214.4667265625,103.05333333333333L214.90851562499998,140.02666666666667L215.0487421875,116.82L215.0668359375,116.82L215.22515625,114.06666666666666L215.7212265625,68.83333333333333L216.536953125,97.15333333333334L216.573140625,97.15333333333334L216.6228984375,97.15333333333334L217.2818125,116.82L217.381328125,111.31333333333333L217.423546875,114.85333333333334L217.9286640625,77.48666666666668L218.1985625,120.75333333333333L218.2724453125,120.75333333333333L218.27696875,120.75333333333333L218.2935546875,120.75333333333333L218.3598984375,120.75333333333333L218.69915625,119.57333333333334L219.07158593749998,124.68666666666667L220.8116015625,97.54666666666667L221.178,86.53333333333335L221.5519375,66.08L221.6318515625,114.06666666666666L221.796203125,121.53999999999999L221.9967421875,125.47333333333333L222.2741796875,-68.44L222.4671796875,84.56666666666666L222.54709375000002,73.16L222.61042187500001,123.50666666666666L222.7747734375,112.10000000000001L222.785328125,112.10000000000001L222.83357812499997,123.50666666666666L222.881828125,120.36L222.9738046875,-110.92000000000002L223.0009453125,103.44666666666666L223.32663281249998,116.03333333333333L223.61613281249998,122.72L223.77294531249998,99.51333333333334L223.86642968750002,117.60666666666667L224.1287890625,82.20666666666666L224.4424140625,119.18L224.8857109375,119.18L224.9460234375,119.18L225.1450546875,122.72L225.2777421875,100.69333333333333L225.2958359375,100.69333333333333L225.30789843750003,100.69333333333333L225.3501171875,100.69333333333333L225.4224921875,100.69333333333333L225.48732812499998,90.07333333333334L225.6788203125,85.74666666666667L225.9080078125,115.64L226.060296875,126.65333333333334L226.2804375,119.57333333333334L226.422171875,103.44666666666666L226.6498515625,-44.84L227.233375,124.68666666666667L227.278609375,124.68666666666667L227.5696171875,114.06666666666666L227.66008593749999,114.06666666666666L227.69778125,114.06666666666666L228.42153125000002,80.24000000000001L228.4381171875,80.24000000000001L228.7065078125,138.45333333333332L228.7411875,138.45333333333332L228.7879296875,138.45333333333332L229.0020390625,-44.44666666666666L229.0231484375,-44.44666666666666L229.95196093750002,106.98666666666666L230.2082890625,116.03333333333333L230.5701640625,112.49333333333333L230.5942890625,129.40666666666667L230.79784375,83.78000000000002L231.00742968749998,115.64L231.17630468750002,100.69333333333333L231.4446953125,97.15333333333334L231.4929453125,117.21333333333334L231.6015078125,113.67333333333335L231.9935390625,112.49333333333333L232.2151875,120.36L232.77157031250002,112.88666666666667L232.791171875,112.88666666666667L232.91933593750002,67.65333333333334L233.177171875,96.36666666666667L233.454609375,107.77333333333333L233.4892890625,107.77333333333333L233.496828125,107.77333333333333L233.526984375,107.77333333333333L233.6868125,107.77333333333333L234.2055,101.47999999999999L234.63975000000002,102.66L235.02725781249998,110.52666666666667L235.535390625,98.33333333333334L235.6424453125,98.33333333333334L235.7600546875,117.21333333333334L236.23501562500002,119.18L236.2425546875,119.18L236.265171875,119.18L236.76275,74.34L236.811,74.34L237.1080390625,108.56L237.4548359375,108.95333333333333L237.57998437499998,108.95333333333333L237.6086328125,108.95333333333333L237.7639375,106.2L237.8498828125,78.66666666666666L238.1846171875,92.82666666666667L238.47110156250002,128.62L238.9053515625,120.36L238.9475703125,113.28L239.07724218750002,114.06666666666666L239.65171875000001,117.21333333333334L239.684890625,117.21333333333334L240.13271093749998,97.15333333333334L240.35134375,121.53999999999999L240.42070312500002,123.9L241.2138125,86.92666666666668L241.274125,134.12666666666667L241.2861875,134.12666666666667L241.31935937499998,94.00666666666666L241.3344375,94.00666666666666L241.44903125,103.44666666666666L241.500296875,103.44666666666666L241.6314765625,88.10666666666667L241.67821874999998,88.10666666666667L242.3823671875,111.31333333333333L242.64925,107.38000000000001L242.742734375,111.70666666666666L243.0940546875,102.66L243.1031015625,102.66L244.045484375,115.64L244.099765625,116.82L244.24602343749999,116.42666666666668L244.53703125,116.42666666666668L244.5626640625,82.20666666666666L244.564171875,82.20666666666666L245.01500781250002,132.94666666666666L245.0692890625,124.68666666666667L245.3995,79.45333333333333L245.6121015625,110.13333333333334L246.0553984375,105.02L246.2906171875,100.3L246.50623437500002,125.47333333333333L246.63590624999998,114.46000000000001L246.650984375,92.04L246.8635859375,128.22666666666666L246.9314375,106.2L246.9691328125,106.2L247.15911718750002,110.52666666666667L247.2646640625,104.62666666666667L247.519484375,104.03666666666666L247.6235234375,108.95333333333333L247.71248437499997,121.14666666666668L247.89191406249998,95.97333333333333L248.0788828125,90.07333333333334L248.110546875,90.07333333333334L249.2127578125,130.19333333333333L249.71335156249998,125.08L249.7299375,125.08L249.862625,110.92L249.9214296875,81.41999999999999L249.98325,81.41999999999999L250.1958515625,1.9666666666666686L250.7688203125,58.21333333333334L250.89999999999998,92.04L251.3478203125,104.23333333333333L252.2525078125,114.85333333333334L252.3429765625,85.74666666666667L252.3580546875,85.74666666666667L252.54653125,103.05333333333333L253.409,105.80666666666667L253.59898437500001,130.19333333333333L253.7482578125,-52.70666666666665L253.9533203125,135.30666666666667L254.13727343750003,112.88666666666667L254.22472656250002,100.3L254.328765625,117.21333333333334L254.33479687500002,141.6L254.48708593749998,100.69333333333333L254.6167578125,112.69L254.639375,112.69L255.4882734375,116.03333333333333L255.65865625,111.70666666666666L255.85165625000002,133.73333333333335L255.8742734375,133.73333333333335L255.9798203125,133.73333333333335L256.1577421875,116.03333333333333L256.234640625,109.34666666666666L256.3386796875,109.34666666666666L256.3447109375,109.34666666666666L257.139328125,108.95333333333333L257.16797656250003,120.36L257.2886015625,137.27333333333334L257.4725546875,112.88666666666667L257.630875,112.88666666666667L257.9007734375,89.67999999999999L257.92188281250003,131.37333333333333L257.9761640625,85.35333333333334L258.037984375,121.53999999999999L258.17971875,129.8L258.2536015625,61.753333333333345L258.2777265625,61.753333333333345L258.399859375,126.65333333333334L258.5250078125,132.94666666666666L258.6561875,132.94666666666666L258.683328125,86.14L258.8868828125,136.09333333333333L259.0919453125,105.02L259.67546875,101.47999999999999L259.73125781249996,-37.76000000000002L260.13384375,109.34666666666666L260.444453125,110.52666666666667L260.5002421875,110.52666666666667L260.7565703125,-38.153333333333336" style="fill: none;" fill="none"></path></g></g></g></g></g></g><g transform="translate(58, 177)" clip-path="url(#clip_1)"><clipPath id="clip_1"><rect width="271" height="23"></rect></clipPath><g><g><line x1="0" y1="0" x2="0" y2="5" style="visibility: inherit;" fill="rgb(0, 0, 0)" stroke="rgb(204, 204, 204)" stroke-width="1px"></line><line x1="30.15625" y1="0" x2="30.15625" y2="5" style="visibility: inherit;" fill="rgb(0, 0, 0)" stroke="rgb(204, 204, 204)" stroke-width="1px"></line><line x1="60.3125" y1="0" x2="60.3125" y2="5" style="visibility: inherit;" fill="rgb(0, 0, 0)" stroke="rgb(204, 204, 204)" stroke-width="1px"></line><line x1="90.46875" y1="0" x2="90.46875" y2="5" style="visibility: inherit;" fill="rgb(0, 0, 0)" stroke="rgb(204, 204, 204)" stroke-width="1px"></line><line x1="120.625" y1="0" x2="120.625" y2="5" style="visibility: inherit;" fill="rgb(0, 0, 0)" stroke="rgb(204, 204, 204)" stroke-width="1px"></line><line x1="150.78125" y1="0" x2="150.78125" y2="5" style="visibility: inherit;" fill="rgb(0, 0, 0)" stroke="rgb(204, 204, 204)" stroke-width="1px"></line><line x1="180.9375" y1="0" x2="180.9375" y2="5" style="visibility: inherit;" fill="rgb(0, 0, 0)" stroke="rgb(204, 204, 204)" stroke-width="1px"></line><line x1="211.09375" y1="0" x2="211.09375" y2="5" style="visibility: inherit;" fill="rgb(0, 0, 0)" stroke="rgb(204, 204, 204)" stroke-width="1px"></line><line x1="241.25" y1="0" x2="241.25" y2="5" style="visibility: inherit;" fill="rgb(0, 0, 0)" stroke="rgb(204, 204, 204)" stroke-width="1px"></line><line x1="271.40625" y1="0" x2="271.40625" y2="5" style="visibility: inherit;" fill="rgb(0, 0, 0)" stroke="rgb(204, 204, 204)" stroke-width="1px"></line></g><g transform="translate(0, 8)"><text x="0" y="0" dx="0em" dy="0.95em" style="text-anchor: middle; visibility: hidden; font-family: &quot;Helvetica Neue&quot;, sans-serif; font-size: 12px; font-weight: 200;" fill="rgb(50, 49, 63)" stroke="none" stroke-width="1px">-20k</text><text x="30.15625" y="0" dx="0em" dy="0.95em" style="text-anchor: middle; visibility: inherit; font-family: &quot;Helvetica Neue&quot;, sans-serif; font-size: 12px; font-weight: 200;" fill="rgb(50, 49, 63)" stroke="none" stroke-width="1px">0</text><text x="60.3125" y="0" dx="0em" dy="0.95em" style="text-anchor: middle; visibility: hidden; font-family: &quot;Helvetica Neue&quot;, sans-serif; font-size: 12px; font-weight: 200;" fill="rgb(50, 49, 63)" stroke="none" stroke-width="1px">20k</text><text x="90.46875" y="0" dx="0em" dy="0.95em" style="text-anchor: middle; visibility: inherit; font-family: &quot;Helvetica Neue&quot;, sans-serif; font-size: 12px; font-weight: 200;" fill="rgb(50, 49, 63)" stroke="none" stroke-width="1px">40k</text><text x="120.625" y="0" dx="0em" dy="0.95em" style="text-anchor: middle; visibility: hidden; font-family: &quot;Helvetica Neue&quot;, sans-serif; font-size: 12px; font-weight: 200;" fill="rgb(50, 49, 63)" stroke="none" stroke-width="1px">60k</text><text x="150.78125" y="0" dx="0em" dy="0.95em" style="text-anchor: middle; visibility: inherit; font-family: &quot;Helvetica Neue&quot;, sans-serif; font-size: 12px; font-weight: 200;" fill="rgb(50, 49, 63)" stroke="none" stroke-width="1px">80k</text><text x="180.9375" y="0" dx="0em" dy="0.95em" style="text-anchor: middle; visibility: hidden; font-family: &quot;Helvetica Neue&quot;, sans-serif; font-size: 12px; font-weight: 200;" fill="rgb(50, 49, 63)" stroke="none" stroke-width="1px">100k</text><text x="211.09375" y="0" dx="0em" dy="0.95em" style="text-anchor: middle; visibility: inherit; font-family: &quot;Helvetica Neue&quot;, sans-serif; font-size: 12px; font-weight: 200;" fill="rgb(50, 49, 63)" stroke="none" stroke-width="1px">120k</text><text x="241.25" y="0" dx="0em" dy="0.95em" style="text-anchor: middle; visibility: hidden; font-family: &quot;Helvetica Neue&quot;, sans-serif; font-size: 12px; font-weight: 200;" fill="rgb(50, 49, 63)" stroke="none" stroke-width="1px">140k</text><text x="271.40625" y="0" dx="0em" dy="0.95em" style="text-anchor: middle; visibility: hidden; font-family: &quot;Helvetica Neue&quot;, sans-serif; font-size: 12px; font-weight: 200;" fill="rgb(50, 49, 63)" stroke="none" stroke-width="1px">160k</text></g><line x1="0" y1="0" x2="271.40625" y2="0" fill="rgb(0, 0, 0)" stroke="rgb(204, 204, 204)" stroke-width="1px"></line></g></g></g></g></svg>