<svg viewBox="0 0 330 200" xmlns="http://www.w3.org/2000/svg"><g><g><g><g><g><line x1="68.3125" y1="177" x2="63.3125" y2="177" style="visibility: inherit;" fill="rgb(0, 0, 0)" stroke="rgb(204, 204, 204)" stroke-width="1px"></line><line x1="68.3125" y1="159.3" x2="63.3125" y2="159.3" style="visibility: inherit;" fill="rgb(0, 0, 0)" stroke="rgb(204, 204, 204)" stroke-width="1px"></line><line x1="68.3125" y1="141.6" x2="63.3125" y2="141.6" style="visibility: inherit;" fill="rgb(0, 0, 0)" stroke="rgb(204, 204, 204)" stroke-width="1px"></line><line x1="68.3125" y1="123.9" x2="63.3125" y2="123.9" style="visibility: inherit;" fill="rgb(0, 0, 0)" stroke="rgb(204, 204, 204)" stroke-width="1px"></line><line x1="68.3125" y1="106.2" x2="63.3125" y2="106.2" style="visibility: inherit;" fill="rgb(0, 0, 0)" stroke="rgb(204, 204, 204)" stroke-width="1px"></line><line x1="68.3125" y1="88.5" x2="63.3125" y2="88.5" style="visibility: inherit;" fill="rgb(0, 0, 0)" stroke="rgb(204, 204, 204)" stroke-width="1px"></line><line x1="68.3125" y1="70.8" x2="63.3125" y2="70.8" style="visibility: inherit;" fill="rgb(0, 0, 0)" stroke="rgb(204, 204, 204)" stroke-width="1px"></line><line x1="68.3125" y1="53.10000000000001" x2="63.3125" y2="53.10000000000001" style="visibility: inherit;" fill="rgb(0, 0, 0)" stroke="rgb(204, 204, 204)" stroke-width="1px"></line><line x1="68.3125" y1="35.400000000000006" x2="63.3125" y2="35.400000000000006" style="visibility: inherit;" fill="rgb(0, 0, 0)" stroke="rgb(204, 204, 204)" stroke-width="1px"></line><line x1="68.3125" y1="17.69999999999999" x2="63.3125" y2="17.69999999999999" style="visibility: inherit;" fill="rgb(0, 0, 0)" stroke="rgb(204, 204, 204)" stroke-width="1px"></line><line x1="68.3125" y1="0" x2="63.3125" y2="0" style="visibility: inherit;" fill="rgb(0, 0, 0)" stroke="rgb(204, 204, 204)" stroke-width="1px"></line></g><g transform="translate(58.3125, 0)"><text x="0" y="177" dx="0em" dy="0.3em" style="text-anchor: end; visibility: hidden; font-family: &quot;Helvetica Neue&quot;, sans-serif; font-size: 12px; font-weight: 200;" fill="rgb(50, 49, 63)" stroke="none" stroke-width="1px">-5e+4</text><text x="0" y="159.3" dx="0em" dy="0.3em" style="text-anchor: end; visibility: inherit; font-family: &quot;Helvetica Neue&quot;, sans-serif; font-size: 12px; font-weight: 200;" fill="rgb(50, 49, 63)" stroke="none" stroke-width="1px">0</text><text x="0" y="141.6" dx="0em" dy="0.3em" style="text-anchor: end; visibility: hidden; font-family: &quot;Helvetica Neue&quot;, sans-serif; font-size: 12px; font-weight: 200;" fill="rgb(50, 49, 63)" stroke="none" stroke-width="1px">5e+4</text><text x="0" y="123.9" dx="0em" dy="0.3em" style="text-anchor: end; visibility: inherit; font-family: &quot;Helvetica Neue&quot;, sans-serif; font-size: 12px; font-weight: 200;" fill="rgb(50, 49, 63)" stroke="none" stroke-width="1px">1e+5</text><text x="0" y="106.2" dx="0em" dy="0.3em" style="text-anchor: end; visibility: hidden; font-family: &quot;Helvetica Neue&quot;, sans-serif; font-size: 12px; font-weight: 200;" fill="rgb(50, 49, 63)" stroke="none" stroke-width="1px">1.5e+5</text><text x="0" y="88.5" dx="0em" dy="0.3em" style="text-anchor: end; visibility: inherit; font-family: &quot;Helvetica Neue&quot;, sans-serif; font-size: 12px; font-weight: 200;" fill="rgb(50, 49, 63)" stroke="none" stroke-width="1px">2e+5</text><text x="0" y="70.8" dx="0em" dy="0.3em" style="text-anchor: end; visibility: hidden; font-family: &quot;Helvetica Neue&quot;, sans-serif; font-size: 12px; font-weight: 200;" fill="rgb(50, 49, 63)" stroke="none" stroke-width="1px">2.5e+5</text><text x="0" y="53.10000000000001" dx="0em" dy="0.3em" style="text-anchor: end; visibility: inherit; font-family: &quot;Helvetica Neue&quot;, sans-serif; font-size: 12px; font-weight: 200;" fill="rgb(50, 49, 63)" stroke="none" stroke-width="1px">3e+5</text><text x="0" y="35.400000000000006" dx="0em" dy="0.3em" style="text-anchor: end; visibility: hidden; font-family: &quot;Helvetica Neue&quot;, sans-serif; font-size: 12px; font-weight: 200;" fill="rgb(50, 49, 63)" stroke="none" stroke-width="1px">3.5e+5</text><text x="0" y="17.69999999999999" dx="0em" dy="0.3em" style="text-anchor: end; visibility: inherit; font-family: &quot;Helvetica Neue&quot;, sans-serif; font-size: 12px; font-weight: 200;" fill="rgb(50, 49, 63)" stroke="none" stroke-width="1px">4e+5</text><text x="0" y="0" dx="0em" dy="0.3em" style="text-anchor: end; visibility: hidden; font-family: &quot;Helvetica Neue&quot;, sans-serif; font-size: 12px; font-weight: 200;" fill="rgb(50, 49, 63)" stroke="none" stroke-width="1px">4.5e+5</text></g><line x1="68.3125" y1="0" x2="68.3125" y2="177" fill="rgb(0, 0, 0)" stroke="rgb(204, 204, 204)" stroke-width="1px"></line></g></g><g transform="translate(68, 0)" clip-path="url(#clip_0)"><clipPath id="clip_0"><rect width="261" height="177"></rect></clipPath><g><g><g><line x1="0" y1="0" x2="0" y2="177" fill="rgb(0, 0, 0)" stroke="rgb(60, 60, 60)" stroke-width="1px" opacity="0.25"></line><line x1="29.076388888888886" y1="0" x2="29.076388888888886" y2="177" fill="rgb(0, 0, 0)" stroke="rgb(60, 60, 60)" stroke-width="1px" opacity="0.25"></line><line x1="58.15277777777777" y1="0" x2="58.15277777777777" y2="177" fill="rgb(0, 0, 0)" stroke="rgb(60, 60, 60)" stroke-width="1px" opacity="0.25"></line><line x1="87.22916666666666" y1="0" x2="87.22916666666666" y2="177" fill="rgb(0, 0, 0)" stroke="rgb(60, 60, 60)" stroke-width="1px" opacity="0.25"></line><line x1="116.30555555555554" y1="0" x2="116.30555555555554" y2="177" fill="rgb(0, 0, 0)" stroke="rgb(60, 60, 60)" stroke-width="1px" opacity="0.25"></line><line x1="145.38194444444446" y1="0" x2="145.38194444444446" y2="177" fill="rgb(0, 0, 0)" stroke="rgb(60, 60, 60)" stroke-width="1px" opacity="0.25"></line><line x1="174.45833333333331" y1="0" x2="174.45833333333331" y2="177" fill="rgb(0, 0, 0)" stroke="rgb(60, 60, 60)" stroke-width="1px" opacity="0.25"></line><line x1="203.53472222222223" y1="0" x2="203.53472222222223" y2="177" fill="rgb(0, 0, 0)" stroke="rgb(60, 60, 60)" stroke-width="1px" opacity="0.25"></line><line x1="232.6111111111111" y1="0" x2="232.6111111111111" y2="177" fill="rgb(0, 0, 0)" stroke="rgb(60, 60, 60)" stroke-width="1px" opacity="0.25"></line><line x1="261.6875" y1="0" x2="261.6875" y2="177" fill="rgb(0, 0, 0)" stroke="rgb(60, 60, 60)" stroke-width="1px" opacity="0.25"></line></g><g><line x1="0" y1="177" x2="261.6875" y2="177" fill="rgb(0, 0, 0)" stroke="rgb(60, 60, 60)" stroke-width="1px" opacity="0.25"></line><line x1="0" y1="159.3" x2="261.6875" y2="159.3" fill="rgb(0, 0, 0)" stroke="rgb(60, 60, 60)" stroke-width="1px" opacity="0.25"></line><line x1="0" y1="141.6" x2="261.6875" y2="141.6" fill="rgb(0, 0, 0)" stroke="rgb(60, 60, 60)" stroke-width="1px" opacity="0.25"></line><line x1="0" y1="123.9" x2="261.6875" y2="123.9" fill="rgb(0, 0, 0)" stroke="rgb(60, 60, 60)" stroke-width="1px" opacity="0.25"></line><line x1="0" y1="106.2" x2="261.6875" y2="106.2" fill="rgb(0, 0, 0)" stroke="rgb(60, 60, 60)" stroke-width="1px" opacity="0.25"></line><line x1="0" y1="88.5" x2="261.6875" y2="88.5" fill="rgb(0, 0, 0)" stroke="rgb(60, 60, 60)" stroke-width="1px" opacity="0.25"></line><line x1="0" y1="70.8" x2="261.6875" y2="70.8" fill="rgb(0, 0, 0)" stroke="rgb(60, 60, 60)" stroke-width="1px" opacity="0.25"></line><line x1="0" y1="53.10000000000001" x2="261.6875" y2="53.10000000000001" fill="rgb(0, 0, 0)" stroke="rgb(60, 60, 60)" stroke-width="1px" opacity="0.25"></line><line x1="0" y1="35.400000000000006" x2="261.6875" y2="35.400000000000006" fill="rgb(0, 0, 0)" stroke="rgb(60, 60, 60)" stroke-width="1px" opacity="0.25"></line><line x1="0" y1="17.69999999999999" x2="261.6875" y2="17.69999999999999" fill="rgb(0, 0, 0)" stroke="rgb(60, 60, 60)" stroke-width="1px" opacity="0.25"></line><line x1="0" y1="0" x2="261.6875" y2="0" fill="rgb(0, 0, 0)" stroke="rgb(60, 60, 60)" stroke-width="1px" opacity="0.25"></line></g></g></g><g><g><line x1="0" y1="159.3" x2="261.6875" y2="159.3" fill="rgb(0, 0, 0)" stroke="rgb(153, 153, 153)" stroke-width="1.5px"></line></g></g><g><g><line x1="29.076388888888886" y1="0" x2="29.076388888888886" y2="177" fill="rgb(0, 0, 0)" stroke="rgb(153, 153, 153)" stroke-width="1.5px"></line></g></g><g><g><g><g><g><path stroke="rgb(255, 112, 67)" stroke-width="2px" d="M29.138903125000002,159.0876L29.320630555555557,159.0317052631579L29.41076736111111,159.01314243542436L29.766953125,159.03479337016574L29.857089930555556,159.02175501452956L29.919604166666666,158.99803227853909L29.92978090277778,158.9812732678031L29.999564236111112,158.98129551976103L30.01846388888889,158.98131257554516L30.115869791666665,158.95958558472253L30.252528819444446,158.98340035282394L30.552015625000003,158.97325495853514L31.015784027777777,158.950614582987L31.09138263888889,158.94772121486898L31.101559375,158.94527555336663L31.165527430555557,158.9279838014988L31.53625138888889,158.92589748206632L31.598765625,158.92409757790034L31.60312708333333,158.9225370106098L31.806661805555553,158.90505830727022L31.86481458333333,158.89375576364512L32.03781909722222,158.89169749497066L32.431804166666666,158.88211879085517L32.55101736111111,158.88521378874245L32.69058402777778,158.86887979580192L32.692037847222224,158.85441738822502L32.981347916666664,158.86038252026165L33.49454618055555,158.8619460976901L33.77367951388889,158.84661958966848L33.796940625,158.83112061104572L33.88271597222222,158.83938380777346L34.33776145833333,158.8064340360144L34.340669097222225,158.80987703184465L34.413360069444444,158.80203111133673L34.63288680555555,158.75144166776124L34.82915243055555,158.73513002579773L35.35398125,158.74400700902027L35.47464826388889,158.73934116579412L35.608399652777784,158.70276637397416L35.63311458333333,158.70948910446924L35.875902430555556,158.726283607852L36.03873020833333,158.71448397579283L36.30477916666666,158.70925928074686L36.54175173611111,158.72959051968635L36.84850763888889,158.72285265992318L36.868861111111116,158.68111957355922L37.39805138888889,158.64718772992836L37.60303993055556,158.6095696046374L37.665554166666666,158.58466000140078L37.78622118055555,158.6067478370002L38.09152326388889,158.5732577127855L38.119145833333334,158.50404300068251L38.81697916666667,158.54129867398362L38.834425,158.4611377510888L39.042321180555554,158.43165425023568L39.20514895833333,158.4157853614771L39.47992083333334,158.3837679011786L39.80993784722222,158.28400979458536L39.92333576388889,158.20845796243734L39.92769722222222,158.14049002711377L40.414726736111106,158.1325281475808L40.46561041666667,158.02255525866732L40.80435034722222,157.81727080595743L40.97008576388889,157.64674266954128L41.02969236111111,157.68821240681427L41.43240034722223,157.56607452384992L41.44693854166666,157.5872652850186L41.58214375,157.6913592788431L41.98485173611111,157.6964669068823L42.06771944444445,157.43539663511L42.540210763888886,157.54403823686596L42.84260520833334,157.47533954661648L42.96763368055556,157.39226764671238L42.986533333333334,157.34584179645225L43.17698368055556,157.23323595394194L44.196111111111115,157.34082818564588L44.312416666666664,157.1047946300262L44.374930902777784,156.81801781712113L44.49850555555555,156.5953419809734L44.75001631944444,156.65342047154525L44.92738229166667,156.24893889237086L44.931743749999995,155.88492058487225L45.02042673611111,155.61750593581252L45.098932986111116,155.44765099503385L45.21814618055556,155.51429449300875L45.843288541666666,155.29811994447937L45.89271840277778,155.5921386737174L46.06572291666667,155.33278041471064L46.17330555555555,155.08874171743872L46.47860763888889,155.32580560459309L46.485876736111116,154.58683438055246L46.76210243055555,154.72893971091506L46.945283680555555,154.577157310848L47.79867569444444,154.72022873046674L48.026925347222225,154.59941042277552L48.06617847222222,154.43934290036185L48.845425694444444,154.4687496817732L48.87886354166667,153.39423947841794L49.15508923611111,152.9829833933129L49.75260902777778,152.30840713629257L49.85873784722222,151.03221591498163L49.92270590277778,149.88718968854982L50.08117222222222,149.59300502332076L50.358851736111106,148.64500800030729L50.40246631944444,147.93164601173564L50.56384027777778,148.13746431585545L50.70049930555555,147.38104827458295L51.57279097222222,146.72859598710832L51.62222083333334,146.64053548221702L51.99585243055556,146.28515864271284L52.507596875,145.72459810603021L52.80562986111111,145.22363453733698L53.58487708333334,144.70550758544263L53.88872534722222,144.95781836003857L53.93379375,144.7176152104222L54.25363402777778,144.22177124889507L54.28561805555555,143.77551214721484L54.58219722222222,143.39511941597274L54.602550694444446,143.37490740185373L55.90226527777777,142.92837521970608L56.86905520833333,142.6397768589759L56.94610763888889,142.3163183270113L57.47239027777778,141.89776550898645L57.63085659722222,141.5635482499789L57.651210069444446,141.05389245315024L57.763154166666666,140.89610293704416L58.1469625,140.54877210687394L58.23128402777778,140.37777465848563L58.24436840277778,140.2238770000994L58.35485868055555,140.08536914413398L58.50896354166667,139.69875183793357L58.52059409722222,139.35079633679283L58.62381527777778,139.12259651580004L58.79391215277778,138.79331662096521L58.937840277777774,138.67042487716128L58.99453923611111,139.06958262829548L59.28675694444445,138.88720426724657L59.29111840277778,138.72306376096424L59.39724722222222,138.5399373049838L59.724356597222226,138.18750343611956L59.81740104166666,137.8738529816821L59.94533715277778,137.69776762751752L60.07181944444445,137.40123077989514L60.36839861111111,137.54852773984717L60.840889930555555,137.48285495063774L61.41805625,136.95292934500804L61.541630902777776,136.48661632294306L61.58233784722222,136.0669346197218L62.71631701388889,136.1104811643731L62.73085520833333,135.96382302785955L62.79482326388889,135.83183070881182L62.83262256944444,135.9059676461511L62.93148229166666,135.79569087053105L63.040518750000004,135.69644177456394L63.136470833333334,135.62481759131794L63.300752430555555,135.98161585814313L63.48974895833334,136.01245427434796L63.50574097222222,136.04020884854867L63.53481736111111,136.06518796501854L63.87937256944444,135.77614915472054L64.18322083333334,135.50185422746534L64.37948645833333,135.240828794627L64.38239409722223,135.0059059069899L64.43763923611111,134.5714553026855L64.87233125,134.37160976678436L65.01480555555555,134.49264879317624L65.02643611111111,134.60158391634556L65.27940069444445,134.4164255209066L65.3273767361111,134.2497829657344L65.79114513888888,133.5050846567671L65.905996875,133.07911618471002L65.99177222222222,132.35944455653734L66.60383020833333,132.0657400973202L66.65471388888889,132.52002609254868L66.76229652777776,132.11468347931037L67.31765555555556,132.53221513507225L68.03584236111111,132.8902936244154L68.03729618055554,133.21256426428266L68.55485590277777,133.21232783785288L68.56212500000001,133.21211505406635L69.06514652777778,133.13758354827047L69.20762083333334,132.64570519113138L69.2585045138889,132.67383467213725L69.53036875,132.34161120365863L69.66266631944444,131.53639008053358L70.42156006944444,131.30375107176278L70.57421111111111,131.09437596400537L71.19499201388888,131.13957836771775L71.23279131944444,131.18026053103745L71.32874340277777,131.26997447811522L71.53082430555556,131.0144170298383L71.6209611111111,130.7631753264427L71.92335555555556,131.36187779468156L71.94661666666666,131.90071001592872L72.12689027777778,132.33609901485605L72.44382291666666,131.88896911288964L72.69969513888888,131.50779220123178L72.73749444444445,131.1824329808252L72.945390625,130.96748968257418L73.16782500000001,130.41296071392554L73.37572118055556,129.70148464208123L73.58216354166667,130.26829617819703L73.71882256944444,130.12352656030285L73.73917604166667,129.99323390421227L74.73649618055555,128.6688305132393L74.7902875,127.47686746146846L75.15810381944445,127.57230071535382L75.42560659722223,127.32897064374453L75.50702048611112,127.78434357949453L75.60588020833333,127.97646922159235L75.90100555555556,127.78122229938988L76.2324763888889,127.64798006942434L76.38803506944444,128.54758206264324L76.55522430555556,127.8137838562605L76.70787534722221,127.9498654706542L76.89977951388889,128.07233892360478L76.91141006944444,127.50642503117771L77.10331423611112,127.94228252810609L77.31702569444445,127.54867427525798L77.44786944444445,127.27584684770879L77.59906666666666,127.75600216297497L77.63977361111111,128.20938194670896L78.12534930555556,127.98376375202396L78.14279513888889,127.41608737678962L78.17041770833333,126.9051786390848L78.1951326388889,126.06658077513808L78.27363888888888,125.02510269758153L78.32743020833334,124.08777242778879L78.38122152777778,123.87429518500281L78.56004131944445,123.68216566649677L78.71269236111111,124.9004690998799L79.03398645833333,124.50306218988229L79.06451666666666,124.14539597088626L79.27095902777778,125.36339637382153L79.37854166666666,125.02235673643335L79.64604444444444,125.09420106279116L80.44564513888889,125.371260956516L80.47617534722222,125.62061486086762L80.50961319444446,125.84503337478344L80.66371805555555,125.4133500373006L80.79456180555555,125.04253503356706L81.08241805555555,125.37078153021312L81.19581597222222,125.66620337719405L81.34701319444444,125.29842303947213L81.371728125,124.96742073552288L81.46913402777778,123.957978661965L81.77298229166666,123.17338079576457L81.81514305555555,122.46724271618496L82.3297951388889,122.41935844456626L82.37340972222222,122.62052260011038L82.53042222222221,121.94489034009713L82.6510892361111,121.92446130608735L82.73395694444444,121.78925517547826L83.16283368055555,121.74544965793032L83.58007986111112,121.36264469213648L83.97988020833334,120.7278402229216L84.1427079861111,120.06447620062829L84.60211493055556,120.33828858056589L84.96120833333333,120.4147997225094L84.98446944444444,119.86061975025775L85.36973159722223,120.16897777523235L85.54418993055555,120.77217999770971L85.74917847222223,121.31506199793924L86.20713159722222,121.22663579814525L86.79738229166666,120.85677221833043L86.91223402777777,120.84249499649738L87.05325451388889,121.51640549684805L87.09832291666666,122.02734494716353L87.259696875,122.22877045244728L87.66095104166668,122.19411340720254L87.95753020833334,122.53108206648241L88.19450277777777,121.4466738598338L88.20031805555556,120.47070647385009L88.24829409722223,119.59233582646482L88.27737048611111,118.80180224381814L88.38349930555556,118.06554201943615L88.74259270833333,118.3622478174926L89.039171875,117.62038303574319L89.078425,117.68194473216889L89.18019236111111,116.99041025895188L89.46804861111112,116.30430923305661L89.49130972222223,115.68681830975086L90.33307118055556,115.14523647877573L90.79247812499999,115.91097283089822L90.81864687500001,115.82841554780839L91.12394895833333,115.3470139930275L92.34515729166667,114.83941259372472L92.47454722222223,114.94897133435225L92.52106944444445,115.26705420091704L92.62574444444445,115.05772878082533L92.66499756944445,115.35077590274281L92.67081284722222,115.61451831246853L92.76240347222222,115.54390648122168L93.03572152777778,114.74757583309948L93.15202708333332,114.03087824978951L93.33666215277778,113.97349042481056L93.34683888888888,113.92184138232949L93.41080694444445,113.87535724409656L93.487859375,113.8335215196869L94.23221493055556,114.69148936771822L94.44738020833333,114.09014043094638L94.9504017361111,114.51888638785175L94.96348611111111,114.90475774906659L95.04053854166668,115.25204197415994L95.23680416666667,114.87783777674392L95.45633090277778,114.46671399906953L96.41585173611111,114.07192259916256L96.43911284722222,113.71661033924633L96.55396458333334,113.20566930532166L96.67899305555557,114.73176237478953L97.84495625,114.28568613731056L98.25784097222223,113.78863752357951L98.33489340277778,113.96079377122156L98.37996180555557,114.1157343940994L98.43229930555556,113.72772095468946L98.48899826388889,113.21920885922052L98.68962534722222,112.74738797329847L98.78412361111111,112.32274917596862L98.81756145833333,112.12465425837175L98.97166631944445,112.34284883253459L99.12431736111111,111.89140394928113L99.19119305555556,111.48510355435302L99.62006979166667,111.4167931989177L100.08819965277777,112.32173387902596L100.710434375,111.93612049112336L100.82528611111111,112.08466844201102L101.00846736111112,112.21836159780992L101.77753784722222,112.07672543802893L101.85022881944445,112.69973289422603L101.98543402777779,112.27631960480343L102.00869513888888,111.8952476443231L102.05230972222222,111.55228287989078L102.15843854166667,111.7604545919017L102.68326736111112,111.59026913271153L102.95949305555555,111.6495022194404L103.19210416666667,111.25677199749634L103.41744618055556,110.80773479774672L103.55265138888889,110.46024131797205L103.63261145833334,111.20595718617484L104.38278229166666,110.82926146755736L104.39441284722221,110.49023532080163L104.609578125,110.46831178872146L104.67790763888888,110.14414060984933L105.10096909722222,110.17098654886439L105.18965208333334,110.19514789397795L105.41790173611112,109.93015310458016L105.66795868055556,109.59607779412214L105.99361423611111,109.41577001470992L106.04159027777777,109.23933301323895L106.26402465277778,109.22213971191505L106.28583194444444,111.06516574072354L106.81066076388888,110.52554916665119L107.15666979166666,109.67881424998608L107.16684652777778,108.91675282498747L107.17266180555555,108.23089754248872L107.17847708333333,108.45260778823986L107.383465625,108.36894700941588L107.44743368055555,108.12373230847429L107.68876770833333,107.98445907762685L107.74110520833334,107.85911316986417L107.7629125,107.74630185287775L107.93446319444445,107.71911166758998L108.58868194444445,107.50348050083097L108.75732500000001,107.4580924507479L108.94632152777777,107.8172632056731L109.01174340277778,106.96169688510578L109.31849930555555,106.7226871965952L109.47260416666667,106.84741847693569L109.82733611111111,107.15083662924211L109.83896666666666,107.42391296631789L110.07448541666668,107.2094816696861L110.15153784722223,107.19349350271749L110.98166875,106.87112415244574L111.22881805555555,106.68719173720116L111.24917152777778,106.52165256348104L111.37565381944445,106.70542730713294L111.6358875,106.45310457641965L111.68386354166667,106.22601411877767L111.94409722222221,106.13845270689991L112.38024305555555,106.34284743620991L112.38896597222222,106.52680269258892L112.64919965277777,106.48704242333004L113.05045381944444,106.52559818099702L113.82824722222223,105.84521836289733L114.03905104166667,105.17977652660758L114.20769409722223,105.38445887394683L114.33126875,105.56867298655214L114.44466666666668,105.06540568789691L114.48391979166666,104.61246511910723L114.50863472222223,104.2048186071965L115.23699826388888,103.08037674647684L115.30532777777779,102.06837907182917L115.48123993055555,102.83908116464626L115.783634375,102.95215304818163L115.82724895833333,104.16193774336347L116.56724305555555,103.24002396902712L116.57596597222222,102.41030157212441L116.60795,101.66355141491196L116.73879375,102.12427627342076L116.99757361111111,102.08934864607868L118.05886180555557,101.73931378147081L118.1620829861111,101.42428240332373L118.39760173611111,101.26465416299136L118.53716840277778,100.28554874669223L118.74942604166667,100.73185387202301L119.41672916666666,101.5052284848207L119.53303472222223,101.40830563633862L119.96481909722222,101.05911507270476L120.0098875,100.11826356543429L120.48528645833332,99.87329720889085L120.703359375,99.58202748800176L120.98830798611111,98.85968473920158L121.18893506944444,98.66623626528143L121.29070243055556,98.77887263875328L121.29215625,98.88024537487796L121.41427708333335,99.63700083739016L121.64398055555556,99.15696075365113L121.92602152777778,100.00640467828603L122.10484131944445,99.11418421045742L122.26476145833334,98.31118578941168L122.44939652777778,98.5018072104705L122.86518888888888,98.46096648942346L122.87972708333334,98.4242098404811L123.12106111111112,98.39112885643299L123.41473263888888,98.56313597078969L123.93229236111111,98.31084237371073L124.000621875,97.62003813633966L124.23032534722223,97.63905432270569L124.27539374999999,97.65616889043513L124.44985208333334,96.94941200139161L124.5109125,96.31333080125245L124.60686458333333,96.4700977211272L124.89472083333334,96.76340794901448L125.10116319444445,96.80790715411302L125.46316423611111,96.97539643870172L126.17408194444444,97.29605679483154L126.408146875,95.9810311153484L126.44885381944444,96.11084800381356L126.51427569444445,96.2276832034322L127.12342604166668,97.22845488308899L128.31991944444445,96.98572939478008L128.34608819444443,96.76727645530207L128.48710868055556,96.57066880977186L128.5612534722222,95.28570192879467L128.79531840277778,94.9080317359152L129.28816319444445,95.33984856232368L129.37393854166666,95.63644370609131L129.6399875,95.90337933548219L129.66034097222223,96.14362140193396L130.05287222222222,95.61997926174057L130.08340243055557,95.14870133556651L130.43668055555557,96.17241120200985L130.55153229166666,95.71315008180886L130.72162916666667,95.03785507362798L131.51686840277776,95.2938495662652L131.68841909722224,93.25510460963866L131.79890937500002,91.42023414867481L132.1754486111111,89.90691073380732L132.2932079861111,89.90427966042658L132.92125798611113,88.31953169438393L133.1044392361111,87.56585852494551L133.14223854166667,86.88755267245097L133.31088159722222,86.27707740520587L133.53476979166666,85.47984966468529L133.61618368055557,85.98010469821676L133.6903284722222,86.43033422839508L133.72231250000002,86.83554080555558L133.77028854166667,86.495766725L133.8066340277778,87.0572700525L134.18462708333334,85.85634304725001L134.1875347222222,84.77550874252499L134.33582430555558,86.26659786827251L134.3401857638889,87.60857808144523L134.56407395833332,86.22508027330072L134.80395416666667,84.97993224597064L135.02202708333334,84.74783902137358L135.21974652777777,84.53895511923622L135.46689583333335,85.07311960731259L135.66897673611112,84.36088764658133L136.35372569444445,84.03139888192317L136.36099479166666,83.73485899373087L136.42932430555558,83.46797309435777L136.51655347222223,83.22777578492199L136.54999131944444,83.0115982064298L136.93234583333333,82.07717838578682L136.94252256944446,81.23620054720813L137.97037291666666,80.88642049248733L138.36290416666668,80.24593844323857L138.79614236111112,79.94562459891472L138.8223111111111,80.19218213902326L138.9386166666667,80.25478392512093L139.4634454861111,80.34298553260881L139.7120486111111,79.70374697934793L139.88505312499998,79.45765228141316L140.19471666666666,78.95296705327183L140.26886145833333,78.49875034794464L140.47821145833333,80.00863531315018L140.54654097222223,81.36753178183517L140.71663784722222,80.53733860365163L140.8852809027778,79.86450474328649L140.89545763888887,79.25895426895784L141.30979618055557,79.61311884206205L141.7924642361111,79.71238695785583L142.187903125,79.37338826207024L142.33183125000002,79.45060943586323L142.672025,78.68466849227688L142.77815381944444,78.20418164304921L142.86102152777778,77.80360347874428L143.60246944444444,77.54928313086987L143.70132916666668,77.40181481778286L143.81327326388887,76.40533333600459L143.8336267361111,75.50850000240412L143.89032569444444,74.70135000216372L143.93684791666666,73.97491500194735L144.37880902777778,73.97602350175259L144.53727534722222,74.57882115157733L144.79750902777778,74.68591903641962L145.34705277777778,74.59114713277764L145.42846666666665,74.58373241949988L145.43428194444445,74.57705917754988L145.52878020833333,74.5214932597949L145.6232784722222,74.47148393381542L145.95038784722223,74.71321554043386L145.9736489583333,74.93077398639048L146.18299895833334,74.79381658775144L146.2207982638889,74.67055492897627L146.27458958333332,74.55961943607866L146.83140243055556,74.39605749247077L146.859025,74.2700917432237L147.0073145833333,74.15672256890134L147.3911229166667,74.5998503120112L147.5554045138889,74.51014528081008L147.60628819444443,74.42941075272907L148.22125381944446,73.42572967745616L149.3610482638889,73.23395670971055L149.410478125,73.0613610387395L149.5253298611111,73.20692493486554L149.85389305555555,73.27067244137899L149.92949166666665,73.28202519724105L150.13302638888888,73.23914267751698L150.48630451388888,73.23948840976526L150.8526670138889,74.11063956878876L151.08673194444444,73.86099561190986L151.43855625,73.22921605071888L151.48507847222223,72.660614445647L151.79328819444444,73.1294530010823L152.07242152777778,73.08412770097405L152.19599618055554,72.31409493087665L152.38790034722223,72.39632543778897L152.681571875,72.50927289401007L152.72809409722223,72.61092560460906L152.78188541666665,72.70241304414816L152.8981909722222,71.30503173973335L153.11771770833332,71.41028856576L153.3910357638889,68.90311970918403L153.43610416666667,66.6466677382656L153.48408020833332,67.23546096443904L153.64981562499997,67.67333486799514L153.74140625,67.44438138119563L154.08450763888888,66.26836324307607L154.12666840277777,65.20994691876847L155.24029409722223,65.90701222689161L155.25919375,66.79633100420246L155.36386875,66.7294179037822L155.57176493055556,66.66919611340398L156.13148541666666,65.43263650206359L156.214353125,66.00831285185724L156.3684579861111,66.85210156667152L156.46295625,67.61151141000435L156.528378125,68.29498026900393L156.76535069444444,68.77912224210351L157.21312708333335,68.24843001789316L157.993828125,68.68058701610384L158.1988166666667,69.05890831449346L158.84867395833334,68.5816574830441L158.9722486111111,68.9096917347397L158.9955097222222,69.20492256126572L159.55086875,68.53961030513915L159.57558368055555,67.14786927462522L159.76458020833334,67.8847823471627L159.88233958333333,68.54800411244645L159.9724763888889,67.3253437012018L160.26614791666668,67.02144933108161L160.57581145833333,66.69484439797345L161.48299479166667,65.57607995817611L161.51207118055558,64.56919196235852L161.8115579861111,64.65065276612265L162.06452256944445,65.3824074895104L162.28259548611112,66.04098674055936L162.311671875,66.63370806650342L162.31603333333334,67.16715725985308L162.4396079861111,65.82770153386777L162.44396944444443,64.62219138048101L162.96589062500001,65.03465224243291L163.00368993055554,65.40586701818961L163.88906597222223,65.35410031637065L163.97484131944444,65.40309028473361L164.46623229166664,63.66302125626024L164.60725277777777,64.65637913063422L164.96779999999998,64.6512412175708L165.5929423611111,64.69617709581371L166.28932187499998,64.77909938623235L166.51611770833333,65.54756944760913L166.87666493055556,67.2657925028482L167.0322236111111,65.91647325256339L167.2735576388889,64.72332592730704L167.45819270833334,63.87959333457634L167.65736597222224,64.06541400111871L167.7387798611111,64.14061260100685L167.78530208333333,62.99761134090616L167.88852326388889,63.006130206815556L168.44097465277778,63.162477186134L168.57036458333334,63.15096946752061L168.60380243055553,63.14061252076854L169.0821090277778,64.0977112686917L169.4223027777778,64.96972014182252L169.51680104166667,64.60756812764028L170.12449756944446,64.90113131487624L170.32512465277776,64.68743818338862L170.42689201388887,64.89159436504977L170.528659375,65.07533492854478L170.70311770833334,65.09910143569032L170.7670857638889,62.85843129212127L170.96480520833333,62.16932816290915L171.1770628472222,60.579175346618214L171.25556909722224,59.148037811956414L171.37187465277776,57.860014030760766L171.53179479166667,56.70079262768469L171.75422916666668,55.657493364916235L171.8603579861111,54.71852402842461L172.13949131944443,53.873451625582135L172.24125868055555,55.743106463023935L172.31249583333332,57.42579581672152L173.08592777777778,57.02153623504937L173.74160034722223,57.86484261154445L173.89570520833334,57.50871835039L173.89861284722224,57.188206515350984L174.29114409722223,58.03254586381591L174.872671875,58.711031277434316L175.2826489583333,59.105728149690904L175.31608680555556,59.46095533472182L175.55160555555557,58.785919801249634L175.7071642361111,57.3040078211247L175.79293958333332,57.95268703901223L175.80602395833333,58.536498335111006L175.90924513888888,57.15386850159989L176.01828159722223,56.8511416514399L176.1389486111111,56.578687486295934L176.2538003472222,56.33347873766634L176.4006361111111,55.061410863899695L176.4297125,53.916549777509715L176.54020277777778,53.873834799758754L176.62307048611112,53.835391319782886L176.63906250000002,53.800792187804575L177.25548194444445,52.99439296902412L177.28455833333334,52.268633672121695L177.81374861111112,53.35359030490953L178.10742013888887,52.89281127441859L178.15394236111112,53.111770146976724L178.2324486111111,53.30883313227905L178.36329236111112,53.48618981905115L178.6467871527778,54.544970837146025L178.69185555555558,55.497873753431406L178.77181562500002,55.035066378088274L178.82269930555555,54.618539740279445L178.83723750000001,54.24366576625151L179.12073229166666,55.315199189626355L179.49291006944443,54.47417927066374L179.57287013888887,54.418181343597354L180.1980125,53.69872320923763L180.6763190972222,52.98395088831384L180.76064062499998,52.110555799482455L181.29855381944444,52.23428021953421L181.44975104166667,52.345632197580784L181.47010451388888,52.44584897782269L181.49772708333333,52.53604408004041L181.55733368055556,52.617219672036384L181.57768715277777,52.690277704832724L181.59949444444445,52.756029934349456L181.61839409722222,52.81520694091451L181.67509305555555,53.764086246823055L181.8640895833333,53.05339762214075L182.1141465277778,52.41377785992667L182.3598420138889,51.10888007393399L182.6157142361111,52.437252066540594L182.749465625,53.63278685988654L182.85414062499999,54.708768173897866L182.87449409722223,55.67715135650809L183.48800590277776,53.76979622085729L183.57087361111113,52.05317659877154L183.74969340277778,51.21975893889439L184.005565625,50.274983045004944L184.15094756944444,49.424684740504475L184.3006909722222,48.96031626645404L184.78626666666665,50.5814246398086L185.74724131944444,50.012002175827746L185.80539409722223,49.49952195824497L185.8533701388889,48.12496976242045L186.12087291666668,49.627832786178416L186.7431076388889,48.23690950756057L186.94228090277778,50.227718556804504L187.8959864583333,51.605266701124066L187.89744027777778,52.84506003101164L187.98176180555555,52.10591402791049L188.27252569444443,52.67260262511944L188.38737743055555,53.18262236260749L188.7392017361111,51.51410012634673L189.08957222222222,51.86739011371205L189.2756611111111,51.310971102340844L189.32363715277776,50.81019399210675L189.605678125,51.17015459289607L189.69290729166667,51.543679133606474L189.84991979166668,49.72399122024582L189.90225729166667,48.0862720982212L189.92987986111112,46.612324888399115L190.06944652777779,46.35485239955918L190.73384201388888,46.37800715960327L190.7934486111111,46.398846443642924L190.92138472222223,46.16626179927863L191.24413263888889,47.103895619350766L191.4665670138889,46.91054605741567L191.7413388888889,46.648031451674086L191.78204583333334,46.4117683065067L192.588915625,46.18497147585603L192.8709565972222,45.980854328270425L192.92765555555556,45.712188895443376L193.216965625,45.60491000589903L193.82756979166666,45.6605790053091L194.03255833333336,45.034541104778214L194.21573958333332,44.47110699430036L194.4367201388889,43.96401629487033L194.78418298611112,43.14655466538329L195.23777465277777,42.23029919884496L195.4805625,42.54908927896045L195.49219305555553,42.8360003510644L196.00539131944444,43.18626031595798L196.4066454861111,42.23771428436217L196.48369791666667,42.53098285592594L197.00271145833335,41.85328457033333L197.02015729166666,41.243356113299996L197.37925069444444,42.659120501969994L197.38942743055557,43.933308451773L197.54353229166668,45.0411376065957L197.77759722222223,43.984983845936114L197.90844097222222,43.0344454613425L198.37947847222222,42.416140915208246L198.6280815972222,41.859666823687405L198.69931875,41.358840141318666L198.7545638888889,40.90809612718684L198.80399375000002,39.46166651446816L198.85923888888888,41.062679863021316L198.9159378472222,42.503591876719184L199.08458090277776,43.80041268904728L199.19797881944444,42.854171420142535L199.21833229166666,42.00255427812826L199.24304722222223,41.23609885031544L199.4000597222222,40.54628896528391L199.47856597222224,39.92546006875551L200.09789305555557,38.55605406187996L200.37411875,37.323588655691964L200.54276180555556,37.577269790122784L200.86260208333331,38.45694281111048L200.90476284722223,39.24864852999943L201.57497361111112,40.991323676999485L201.94860520833333,40.478211309299525L201.99076597222222,40.0164101783696L202.07944895833333,39.60078916053263L202.52141006944444,41.01443024447934L202.7656517361111,40.5556472200314L203.50564583333332,41.820702498028254L203.52745312500002,41.12907224822544L203.9592375,41.45178502340289L204.77773784722223,42.744046521062586L204.8649670138889,43.90708186895634L205.26912881944446,45.19807368206068L205.27058263888887,46.35996631385461L205.4319565972222,47.40566968246915L205.47266354166666,47.29542271422224L205.51627812499999,47.196200442800006L205.57588472222224,47.10690039852L205.7445277777778,47.026530358668L206.20393472222221,45.9736173228012L206.26499513888888,45.02599559052106L206.31733263888887,44.17313603146894L206.74184791666667,43.31706242832206L206.78691631944446,42.546596185489875L207.21288541666667,41.93459656694088L207.348090625,42.994496910246795L207.36553645833334,43.948407219222105L207.5181875,44.806926497299884L207.99649409722224,43.94057384756991L208.78301041666666,43.10775646281289L208.81790208333334,42.3582208165316L208.865878125,41.68363873487846L209.50119722222223,41.07651486139062L209.59714930555555,40.53010337525154L209.63785625,40.038333037726375L210.1248857638889,38.6151597339537L210.38511944444443,38.587463760558364L210.45635659722222,39.39443738450251L210.46071805555556,40.12071364605225L210.47671006944447,40.774362281447054L210.540678125,41.36264605330234L210.8677875,41.59120144797211L211.22688090277776,41.25528130317488L212.90458854166667,41.61493317285738L213.25786666666664,42.25721985557166L213.61841388888888,42.056477870014476L213.69546631944445,41.87581008301302L213.8539326388889,41.71320907471173L214.047290625,40.22520816724057L214.31479340277778,40.04712735051649L214.50088229166667,41.45507461546484L214.57793472222224,42.72222715391837L214.6389951388889,43.86266443852651L214.79746145833332,44.88905799467386L214.80763819444445,45.812812195206504L214.85416041666664,46.64419097568583L214.9006826388889,47.392431878117236L214.989365625,46.05158869030552L215.015534375,44.84482982127494L215.329559375,44.18000683914747L215.60869270833334,43.35864615523272L215.75988993055554,44.45668153970942L215.85002673611112,44.70859338573851L216.10299131944444,44.93531404716464L216.4053857638889,45.13936264244819L216.83280868055556,45.623906378203344L216.89096145833332,46.05999574038299L217.082865625,46.452476166344724L217.2108017361111,45.42864854971023L217.22824756944445,44.50720369473922L217.23987812500002,43.67790332526528L217.28058506944444,42.93153299273874L217.3503684027778,41.311079693464876L217.41288263888887,40.65979172411838L217.59751770833333,40.60109255170656L217.8184982638889,40.2615232965359L217.96533402777777,39.9559109668823L218.17759166666667,39.68085987019407L218.31425069444444,40.35725388317465L218.53377743055557,43.62808849485717L219.09640555555555,42.84421964537145L219.1400201388889,42.13873768083431L219.42060729166667,41.31264391275087L219.50783645833334,40.5691595214758L219.54418194444446,39.90002356932817L220.2420152777778,41.386401212395356L220.25800729166667,42.72414109115584L220.5167871527778,42.36696698204025L220.550225,42.04551028383622L220.59529340277777,41.75619925545257L220.80173576388887,41.495819329907334L220.8220892361111,40.82605739691658L221.7176420138889,40.15247165722491L221.96479131944443,39.507304491502424L222.3137079861111,38.7354940423522L222.3369690972222,38.04086463811697L222.53323472222223,38.81753817430527L222.735315625,38.557204356874735L222.89814340277778,38.30520392118726L223.15692326388887,37.21110352906854L223.20344548611112,36.22641317616166L223.3081204861111,35.340191858545495L223.68611354166666,35.445292672690954L223.89982500000002,35.53988340542185L224.436284375,35.65687506487964L224.4551840277778,35.76216755839167L224.57875868055555,35.85693080255251L224.82736180555557,35.64131772229726L225.09486458333333,35.98888595006753L225.12830243055555,36.30169735506078L225.13557152777778,36.58322761955469L225.16464791666667,36.83660485759921L225.31875277777777,38.77446437183929L225.81886666666668,39.19811793465536L226.23756666666668,36.857146141189816L226.61119826388887,36.902591527070825L227.10113541666666,36.66737237436374L227.20435659722224,35.56713513692736L227.3177545138889,34.576921623234654L227.7757076388889,33.26092946091117L227.7829767361111,32.07653651482005L227.80478402777777,31.010582863338072L228.28454444444444,30.320264577004224L228.3310666666667,29.69897811930383L228.61746909722223,31.355860307373433L228.95184756944445,30.662874276636074L229.07251458333332,30.039186848972463L229.10013715277776,29.477868164075232L229.24988055555554,29.443501347667706L229.3327482638889,29.98251121290093L229.65549618055556,30.467620091610854L229.93172187500002,31.286538082449766L230.350421875,32.02356427420477L230.39112881944445,32.68688784678429L230.51615729166667,33.283879062105854L231.0700625,33.13087115589528L231.1020465277778,32.99316404030574L231.53383090277777,32.869227636275156L231.74463472222223,32.88866487264764L231.81151041666666,32.90615838538287L232.57621944444443,33.30776254684457L232.63437222222223,33.66920629216011L232.6460027777778,33.99450566294411L232.67798680555555,34.287275096649665L232.692525,34.550767586984705L232.80301527777777,34.787910828286215L232.8524451388889,35.001339745457585L232.97892743055556,35.19342577091183L233.02399583333332,35.36630319382064L233.70292951388888,38.27247287443859L233.96025555555556,38.406485586994705L234.0503923611111,38.12353702829523L234.38913229166667,37.8688833254657L234.39785520833334,37.63969499291912L235.3064923611111,38.53790549362722L235.3588298611111,39.346294944264486L235.4998503472222,38.28968544983803L235.7804375,37.041376904854246L235.80515243055555,35.91789921436879L235.80660625000002,34.906769292931926L236.2412982638889,35.4516923636387L236.2936357638889,35.94212312727484L236.6120222222222,37.728710814547355L236.81701076388887,39.336639733092625L237.24443368055557,36.879155759783345L237.47122951388891,34.66742018380501L237.67912569444445,33.85213816542452L237.80415416666665,33.118384348882046L237.81869236111112,32.458005913993844L238.02368090277778,33.729245322594466L238.08910277777778,34.873360790335L238.1254482638889,35.8216447113015L238.3086295138889,36.67510024017133L238.410396875,37.4432102161542L238.6560923611111,36.265389194538784L238.75640590277777,35.205350275084925L238.84218124999998,34.25131524757643L239.01518576388887,32.99620372281876L239.195459375,33.371103350536885L239.22598958333333,33.70851301548319L240.2887315972222,33.67942171393486L240.77139965277777,33.66385954254139L240.78739166666668,33.64985358828724L240.91532777777778,33.63724822945849L240.9720267361111,33.62590340651266L241.03163333333333,33.651093065861374L241.236621875,35.843783759275226L241.7890732638889,35.55868538334772L241.91555555555556,34.35691684501296L242.34733993055556,32.808045160511625L243.21963159722222,34.985920644460464L243.3068607638889,36.94600858001442L243.32139895833333,38.710087722012986L243.5031263888889,40.29775894981168L244.33471111111112,40.68236305483052L244.51789236111114,41.02850674934746L244.6618204861111,39.39303607441272L244.85953993055557,37.92111246697144L245.0369059027778,36.51850122027429L245.12122743055556,35.256151098246846L245.22154097222221,34.12003598842219L245.22735625,33.09753238957995L245.3741920138889,33.20033915062197L245.4992204861111,32.73708523555976L245.52102777777776,32.32015671200378L246.33952812500002,33.5025210408034L246.50380972222223,33.62500893672305L246.68989861111112,33.75648804305075L246.7117059027778,33.87481923874566L246.81347326388888,33.98131731487112L246.98502395833333,34.537365583384L247.05916875000003,34.99532902504558L247.15948229166668,33.95963612254101L247.16529756944445,33.0275125102869L247.93146041666668,31.278821259258223L247.95908298611113,29.704999133332393L248.07538854166665,28.288559219999172L248.25275451388887,28.079303297999246L248.40540555555555,28.715792968199338L248.6656392361111,29.288633671379387L248.68599270833334,29.804190304241416L248.73833020833334,29.432751273817274L248.79793680555554,29.09845614643558L248.93459583333333,28.797590531791997L249.00583298611113,28.526811478612814L249.0290940972222,28.283110330751498L249.14685347222223,30.44973929767636L249.26752048611112,30.7854653679087L249.39400277777779,31.09823883111784L249.42017152777777,31.379734948006046L249.6164371527778,30.238321453205458L249.81415659722222,29.211049307884906L250.3767847222222,28.859984377096424L250.43057604166665,28.544025939386756L250.81874583333334,29.565923345448084L251.11823263888888,30.223671010903274L251.17202395833334,30.815643909812934L251.78989722222224,32.339619518831626" style="fill: none;" fill="none"></path></g></g></g></g><g opacity="0.2"><g><g><g><path stroke="rgb(255, 112, 67)" stroke-width="2px" d="M29.138903125000002,159.0876L29.320630555555557,158.9814L29.41076736111111,158.9814L29.766953125,159.0876L29.857089930555556,158.9814L29.919604166666666,158.9106L29.92978090277778,158.9106L29.999564236111112,158.9814L30.01846388888889,158.9814L30.115869791666665,158.8398L30.252528819444446,159.123L30.552015625000003,158.9106L31.015784027777777,158.8044L31.09138263888889,158.9283L31.101559375,158.9283L31.165527430555557,158.8044L31.53625138888889,158.9106L31.598765625,158.9106L31.60312708333333,158.9106L31.806661805555553,158.769L31.86481458333333,158.8044L32.03781909722222,158.8752L32.431804166666666,158.8044L32.55101736111111,158.9106L32.69058402777778,158.7336L32.692037847222224,158.7336L32.981347916666664,158.9106L33.49454618055555,158.8752L33.77367951388889,158.7159L33.796940625,158.69819999999999L33.88271597222222,158.9106L34.33776145833333,158.5212L34.340669097222225,158.8398L34.413360069444444,158.7336L34.63288680555555,158.3088L34.82915243055555,158.592L35.35398125,158.8221L35.47464826388889,158.69819999999999L35.608399652777784,158.3796L35.63311458333333,158.769L35.875902430555556,158.8752L36.03873020833333,158.6097L36.30477916666666,158.6628L36.54175173611111,158.9106L36.84850763888889,158.6628L36.868861111111116,158.3088L37.39805138888889,158.3442L37.60303993055556,158.2734L37.665554166666666,158.3619L37.78622118055555,158.8044L38.09152326388889,158.2734L38.119145833333334,157.88400000000001L38.81697916666667,158.8752L38.834425,157.7424L39.042321180555554,158.1672L39.20514895833333,158.2734L39.47992083333334,158.0964L39.80993784722222,157.3884L39.92333576388889,157.53L39.92769722222222,157.53L40.414726736111106,158.061L40.46561041666667,157.0344L40.80435034722222,155.9724L40.97008576388889,156.114L41.02969236111111,158.061L41.43240034722223,156.468L41.44693854166666,157.7778L41.58214375,158.6274L41.98485173611111,157.7424L42.06771944444445,155.0874L42.540210763888886,158.5212L42.84260520833334,156.8574L42.96763368055556,156.645L42.986533333333334,156.9282L43.17698368055556,156.2202L44.196111111111115,158.3088L44.312416666666664,154.9812L44.374930902777784,154.2378L44.49850555555555,154.5918L44.75001631944444,157.176L44.92738229166667,152.6094L44.931743749999995,152.6094L45.02042673611111,153.2112L45.098932986111116,153.9192L45.21814618055556,156.114L45.843288541666666,153.3528L45.89271840277778,158.238L46.06572291666667,152.9988L46.17330555555555,152.89260000000002L46.47860763888889,157.4592L46.485876736111116,147.9366L46.76210243055555,156.0078L46.945283680555555,153.2112L47.79867569444444,156.0078L48.026925347222225,153.5121L48.06617847222222,152.9988L48.845425694444444,154.7334L48.87886354166667,143.724L49.15508923611111,149.2818L49.75260902777778,146.2374L49.85873784722222,139.5468L49.92270590277778,139.5822L50.08117222222222,146.9454L50.358851736111106,140.1132L50.40246631944444,141.5115L50.56384027777778,149.9898L50.70049930555555,140.5734L51.57279097222222,140.85660000000001L51.62222083333334,145.848L51.99585243055556,143.0868L52.507596875,140.6796L52.80562986111111,140.715L53.58487708333334,140.0424L53.88872534722222,147.2286L53.93379375,142.5558L54.25363402777778,139.7592L54.28561805555555,139.7592L54.58219722222222,139.9716L54.602550694444446,143.19299999999998L55.90226527777777,138.9096L56.86905520833333,140.0424L56.94610763888889,139.4052L57.47239027777778,138.1308L57.63085659722222,138.5556L57.651210069444446,136.46699999999998L57.763154166666666,139.476L58.1469625,137.4228L58.23128402777778,138.8388L58.24436840277778,138.8388L58.35485868055555,138.8388L58.50896354166667,136.2192L58.52059409722222,136.2192L58.62381527777778,137.0688L58.79391215277778,135.8298L58.937840277777774,137.5644L58.99453923611111,142.662L59.28675694444445,137.2458L59.29111840277778,137.2458L59.39724722222222,136.8918L59.724356597222226,135.0156L59.81740104166666,135.051L59.94533715277778,136.113L60.07181944444445,134.73239999999998L60.36839861111111,138.8742L60.840889930555555,136.8918L61.41805625,132.1836L61.541630902777776,132.2898L61.58233784722222,132.2898L62.71631701388889,136.5024L62.73085520833333,134.6439L62.79482326388889,134.6439L62.83262256944444,136.57319999999999L62.93148229166666,134.8032L63.040518750000004,134.8032L63.136470833333334,134.9802L63.300752430555555,139.1928L63.48974895833334,136.29L63.50574097222222,136.29L63.53481736111111,136.29L63.87937256944444,133.1748L64.18322083333334,133.0332L64.37948645833333,132.89159999999998L64.38239409722223,132.89159999999998L64.43763923611111,130.66140000000001L64.87233125,132.573L65.01480555555555,135.582L65.02643611111111,135.582L65.27940069444445,132.75L65.3273767361111,132.75L65.79114513888888,126.80279999999999L65.905996875,129.24540000000002L65.99177222222222,125.88239999999999L66.60383020833333,129.4224L66.65471388888889,136.6086L66.76229652777776,128.4666L67.31765555555556,136.29L68.03584236111111,136.113L68.03729618055554,136.113L68.55485590277777,133.2102L68.56212500000001,133.2102L69.06514652777778,132.4668L69.20762083333334,128.2188L69.2585045138889,132.927L69.53036875,129.3516L69.66266631944444,124.2894L70.42156006944444,129.20999999999998L70.57421111111111,129.20999999999998L71.19499201388888,131.5464L71.23279131944444,131.5464L71.32874340277777,132.0774L71.53082430555556,128.7144L71.6209611111111,128.502L71.92335555555556,136.7502L71.94661666666666,136.7502L72.12689027777778,136.2546L72.44382291666666,127.8648L72.69969513888888,128.0772L72.73749444444445,128.2542L72.945390625,129.033L73.16782500000001,125.4222L73.37572118055556,123.29820000000001L73.58216354166667,135.3696L73.71882256944444,128.8206L73.73917604166667,128.8206L74.73649618055555,116.7492L74.7902875,116.7492L75.15810381944445,128.4312L75.42560659722223,125.13900000000001L75.50702048611112,131.8827L75.60588020833333,129.7056L75.90100555555556,126.024L76.2324763888889,126.4488L76.38803506944444,136.644L76.55522430555556,121.2096L76.70787534722221,129.1746L76.89977951388889,129.1746L76.91141006944444,122.41319999999999L77.10331423611112,131.865L77.31702569444445,124.0062L77.44786944444445,124.8204L77.59906666666666,132.0774L77.63977361111111,132.2898L78.12534930555556,125.95320000000001L78.14279513888889,122.307L78.17041770833333,122.307L78.1951326388889,118.5192L78.27363888888888,115.6518L78.32743020833334,115.6518L78.38122152777778,121.953L78.56004131944445,121.953L78.71269236111111,135.86520000000002L79.03398645833333,120.9264L79.06451666666666,120.9264L79.27095902777778,136.3254L79.37854166666666,121.953L79.64604444444444,125.7408L80.44564513888889,127.8648L80.47617534722222,127.8648L80.50961319444446,127.8648L80.66371805555555,121.5282L80.79456180555555,121.70519999999999L81.08241805555555,128.325L81.19581597222222,128.325L81.34701319444444,121.9884L81.371728125,121.9884L81.46913402777778,114.873L81.77298229166666,116.112L81.81514305555555,116.112L82.3297951388889,121.9884L82.37340972222222,124.43100000000001L82.53042222222221,115.86420000000001L82.6510892361111,121.7406L82.73395694444444,120.5724L83.16283368055555,121.3512L83.58007986111112,117.9174L83.97988020833334,115.0146L84.1427079861111,114.0942L84.60211493055556,122.8026L84.96120833333333,121.1034L84.98446944444444,114.873L85.36973159722223,122.9442L85.54418993055555,126.201L85.74917847222223,126.201L86.20713159722222,120.4308L86.79738229166666,117.52799999999999L86.91223402777777,120.714L87.05325451388889,127.58160000000001L87.09832291666666,126.6258L87.259696875,124.04159999999999L87.66095104166668,121.8822L87.95753020833334,125.56379999999999L88.19450277777777,111.687L88.20031805555556,111.687L88.24829409722223,111.687L88.27737048611111,111.687L88.38349930555556,111.4392L88.74259270833333,121.0326L89.039171875,110.9436L89.078425,118.23599999999999L89.18019236111111,110.76660000000001L89.46804861111112,110.12939999999999L89.49130972222223,110.12939999999999L90.33307118055556,110.271L90.79247812499999,122.8026L90.81864687500001,115.08539999999999L91.12394895833333,111.0144L92.34515729166667,110.271L92.47454722222223,115.935L92.52106944444445,118.12979999999999L92.62574444444445,113.1738L92.66499756944445,117.9882L92.67081284722222,117.9882L92.76240347222222,114.9084L93.03572152777778,107.5806L93.15202708333332,107.5806L93.33666215277778,113.457L93.34683888888888,113.457L93.41080694444445,113.457L93.487859375,113.457L94.23221493055556,122.41319999999999L94.44738020833333,108.678L94.9504017361111,118.3776L94.96348611111111,118.3776L95.04053854166668,118.3776L95.23680416666667,111.51L95.45633090277778,110.76660000000001L96.41585173611111,110.5188L96.43911284722222,110.5188L96.55396458333334,108.60719999999999L96.67899305555557,128.4666L97.84495625,110.271L98.25784097222223,109.31519999999999L98.33489340277778,115.5102L98.37996180555557,115.5102L98.43229930555556,110.2356L98.48899826388889,108.6426L98.68962534722222,108.501L98.78412361111111,108.501L98.81756145833333,110.3418L98.97166631944445,114.3066L99.12431736111111,107.8284L99.19119305555556,107.8284L99.62006979166667,110.802L100.08819965277777,120.46619999999999L100.710434375,108.4656L100.82528611111111,113.4216L101.00846736111112,113.4216L101.77753784722222,110.802L101.85022881944445,118.3068L101.98543402777779,108.4656L102.00869513888888,108.4656L102.05230972222222,108.4656L102.15843854166667,113.634L102.68326736111112,110.0586L102.95949305555555,112.1826L103.19210416666667,107.7222L103.41744618055556,106.7664L103.55265138888889,107.3328L103.63261145833334,117.9174L104.38278229166666,107.439L104.39441284722221,107.439L104.609578125,110.271L104.67790763888888,107.2266L105.10096909722222,110.4126L105.18965208333334,110.4126L105.41790173611112,107.5452L105.66795868055556,106.5894L105.99361423611111,107.79299999999999L106.04159027777777,107.65140000000001L106.26402465277778,109.0674L106.28583194444444,127.6524L106.81066076388888,105.669L107.15666979166666,102.0582L107.16684652777778,102.0582L107.17266180555555,102.0582L107.17847708333333,110.448L107.383465625,107.616L107.44743368055555,105.9168L107.68876770833333,106.731L107.74110520833334,106.731L107.7629125,106.731L107.93446319444445,107.4744L108.58868194444445,105.5628L108.75732500000001,107.0496L108.94632152777777,111.0498L109.01174340277778,99.2616L109.31849930555555,104.5716L109.47260416666667,107.97L109.82733611111111,109.8816L109.83896666666666,109.8816L110.07448541666668,105.2796L110.15153784722223,107.0496L110.98166875,103.96979999999999L111.22881805555555,105.0318L111.24917152777778,105.0318L111.37565381944445,108.35940000000001L111.6358875,104.18220000000001L111.68386354166667,104.18220000000001L111.94409722222221,105.35040000000001L112.38024305555555,108.1824L112.38896597222222,108.1824L112.64919965277777,106.1292L113.05045381944444,106.8726L113.82824722222223,99.7218L114.03905104166667,99.1908L114.20769409722223,107.2266L114.33126875,107.2266L114.44466666666668,100.536L114.48391979166666,100.536L114.50863472222223,100.536L115.23699826388888,92.9604L115.30532777777779,92.9604L115.48123993055555,109.77539999999999L115.783634375,103.96979999999999L115.82724895833333,115.05000000000001L116.56724305555555,94.94279999999999L116.57596597222222,94.94279999999999L116.60795,94.94279999999999L116.73879375,106.2708L116.99757361111111,101.775L118.05886180555557,98.589L118.1620829861111,98.589L118.39760173611111,99.828L118.53716840277778,91.47359999999999L118.74942604166667,104.7486L119.41672916666666,108.4656L119.53303472222223,100.536L119.96481909722222,97.91640000000001L120.0098875,91.6506L120.48528645833332,97.6686L120.703359375,96.9606L120.98830798611111,92.3586L121.18893506944444,96.92519999999999L121.29070243055556,99.79260000000001L121.29215625,99.79260000000001L121.41427708333335,106.4478L121.64398055555556,94.8366L121.92602152777778,107.65140000000001L122.10484131944445,91.0842L122.26476145833334,91.0842L122.44939652777778,100.2174L122.86518888888888,98.0934L122.87972708333334,98.0934L123.12106111111112,98.0934L123.41473263888888,100.1112L123.93229236111111,96.0402L124.000621875,91.4028L124.23032534722223,97.8102L124.27539374999999,97.8102L124.44985208333334,90.5886L124.5109125,90.5886L124.60686458333333,97.881L124.89472083333334,99.4032L125.10116319444445,97.2084L125.46316423611111,98.4828L126.17408194444444,100.182L126.408146875,84.14580000000001L126.44885381944444,97.2792L126.51427569444445,97.2792L127.12342604166668,106.2354L128.31991944444445,94.80120000000001L128.34608819444443,94.80120000000001L128.48710868055556,94.80120000000001L128.5612534722222,83.72099999999999L128.79531840277778,91.509L129.28816319444445,99.22619999999999L129.37393854166666,98.3058L129.6399875,98.3058L129.66034097222223,98.3058L130.05287222222222,90.9072L130.08340243055557,90.9072L130.43668055555557,105.3858L130.55153229166666,91.5798L130.72162916666667,88.9602L131.51686840277776,97.5978L131.68841909722224,74.9064L131.79890937500002,74.9064L132.1754486111111,76.287L132.2932079861111,89.8806L132.92125798611113,74.0568L133.1044392361111,80.78280000000001L133.14223854166667,80.78280000000001L133.31088159722222,80.78280000000001L133.53476979166666,78.3048L133.61618368055557,90.4824L133.6903284722222,90.4824L133.72231250000002,90.4824L133.77028854166667,83.43780000000001L133.8066340277778,92.1108L134.18462708333334,75.048L134.1875347222222,75.048L134.33582430555558,99.68639999999999L134.3401857638889,99.68639999999999L134.56407395833332,73.77359999999999L134.80395416666667,73.77359999999999L135.02202708333334,82.65899999999999L135.21974652777777,82.65899999999999L135.46689583333335,89.8806L135.66897673611112,77.9508L136.35372569444445,81.06599999999999L136.36099479166666,81.06599999999999L136.42932430555558,81.06599999999999L136.51655347222223,81.06599999999999L136.54999131944444,81.06599999999999L136.93234583333333,73.6674L136.94252256944446,73.6674L137.97037291666666,77.73840000000001L138.36290416666668,74.48159999999999L138.79614236111112,77.2428L138.8223111111111,82.41120000000001L138.9386166666667,80.8182L139.4634454861111,81.13680000000001L139.7120486111111,73.9506L139.88505312499998,77.2428L140.19471666666666,74.4108L140.26886145833333,74.4108L140.47821145833333,93.5976L140.54654097222223,93.5976L140.71663784722222,73.06559999999999L140.8852809027778,73.80900000000001L140.89545763888887,73.80900000000001L141.30979618055557,82.8006L141.7924642361111,80.6058L142.187903125,76.3224L142.33183125000002,80.1456L142.672025,71.79119999999999L142.77815381944444,73.8798L142.86102152777778,74.1984L143.60246944444444,75.2604L143.70132916666668,76.07459999999999L143.81327326388887,67.437L143.8336267361111,67.437L143.89032569444444,67.437L143.93684791666666,67.437L144.37880902777778,73.986L144.53727534722222,80.00399999999999L144.79750902777778,75.6498L145.34705277777778,73.73819999999999L145.42846666666665,74.51700000000001L145.43428194444445,74.51700000000001L145.52878020833333,74.0214L145.6232784722222,74.0214L145.95038784722223,76.8888L145.9736489583333,76.8888L146.18299895833334,73.5612L146.2207982638889,73.5612L146.27458958333332,73.5612L146.83140243055556,72.924L146.859025,73.13640000000001L147.0073145833333,73.13640000000001L147.3911229166667,78.588L147.5554045138889,73.7028L147.60628819444443,73.7028L148.22125381944446,64.3926L149.3610482638889,71.50800000000001L149.410478125,71.50800000000001L149.5253298611111,74.51700000000001L149.85389305555555,73.84440000000001L149.92949166666665,73.38419999999999L150.13302638888888,72.85319999999999L150.48630451388888,73.2426L150.8526670138889,81.951L151.08673194444444,71.6142L151.43855625,67.54320000000001L151.48507847222223,67.54320000000001L151.79328819444444,77.349L152.07242152777778,72.6762L152.19599618055554,65.3838L152.38790034722223,73.13640000000001L152.681571875,73.5258L152.72809409722223,73.5258L152.78188541666665,73.5258L152.8981909722222,58.7286L153.11771770833332,72.3576L153.3910357638889,46.338600000000014L153.43610416666667,46.338600000000014L153.48408020833332,72.53460000000001L153.64981562499997,71.6142L153.74140625,65.3838L154.08450763888888,55.684200000000004L154.12666840277777,55.684200000000004L155.24029409722223,72.18060000000001L155.25919375,74.80019999999999L155.36386875,66.1272L155.57176493055556,66.1272L156.13148541666666,54.30359999999999L156.214353125,71.1894L156.3684579861111,74.44619999999999L156.46295625,74.44619999999999L156.528378125,74.44619999999999L156.76535069444444,73.13640000000001L157.21312708333335,63.4722L157.993828125,72.57000000000001L158.1988166666667,72.46379999999999L158.84867395833334,64.2864L158.9722486111111,71.86200000000001L158.9955097222222,71.86200000000001L159.55086875,62.551800000000014L159.57558368055555,54.62219999999999L159.76458020833334,74.51700000000001L159.88233958333333,74.51700000000001L159.9724763888889,56.32140000000001L160.26614791666668,64.2864L160.57581145833333,63.755399999999995L161.48299479166667,55.5072L161.51207118055558,55.5072L161.8115579861111,65.3838L162.06452256944445,71.9682L162.28259548611112,71.9682L162.311671875,71.9682L162.31603333333334,71.9682L162.4396079861111,53.7726L162.44396944444443,53.7726L162.96589062500001,68.7468L163.00368993055554,68.7468L163.88906597222223,64.88820000000001L163.97484131944444,65.844L164.46623229166664,48.002399999999994L164.60725277777777,73.5966L164.96779999999998,64.605L165.5929423611111,65.1006L166.28932187499998,65.52539999999999L166.51611770833333,72.46379999999999L166.87666493055556,82.72980000000001L167.0322236111111,53.7726L167.2735576388889,53.985000000000014L167.45819270833334,56.28599999999999L167.65736597222224,65.7378L167.7387798611111,64.81739999999999L167.78530208333333,52.710599999999985L167.88852326388889,63.082800000000006L168.44097465277778,64.56960000000001L168.57036458333334,63.047399999999996L168.60380243055553,63.047399999999996L169.0821090277778,72.7116L169.4223027777778,72.81779999999999L169.51680104166667,61.348200000000006L170.12449756944446,67.54320000000001L170.32512465277776,62.7642L170.42689201388887,66.729L170.528659375,66.729L170.70311770833334,65.313L170.7670857638889,42.69239999999999L170.96480520833333,55.96740000000001L171.1770628472222,46.267799999999994L171.25556909722224,46.267799999999994L171.37187465277776,46.267799999999994L171.53179479166667,46.267799999999994L171.75422916666668,46.267799999999994L171.8603579861111,46.267799999999994L172.13949131944443,46.267799999999994L172.24125868055555,72.57000000000001L172.31249583333332,72.57000000000001L173.08592777777778,53.3832L173.74160034722223,65.4546L173.89570520833334,54.30359999999999L173.89861284722224,54.30359999999999L174.29114409722223,65.6316L174.872671875,64.81739999999999L175.2826489583333,62.658L175.31608680555556,62.658L175.55160555555557,52.710599999999985L175.7071642361111,43.96679999999998L175.79293958333332,63.790800000000004L175.80602395833333,63.790800000000004L175.90924513888888,44.710200000000015L176.01828159722223,54.126599999999996L176.1389486111111,54.126599999999996L176.2538003472222,54.126599999999996L176.4006361111111,43.61279999999999L176.4297125,43.61279999999999L176.54020277777778,53.4894L176.62307048611112,53.4894L176.63906250000002,53.4894L177.25548194444445,45.73679999999999L177.28455833333334,45.73679999999999L177.81374861111112,63.1182L178.10742013888887,48.7458L178.15394236111112,55.08240000000001L178.2324486111111,55.08240000000001L178.36329236111112,55.08240000000001L178.6467871527778,64.074L178.69185555555558,64.074L178.77181562500002,50.8698L178.82269930555555,50.8698L178.83723750000001,50.8698L179.12073229166666,64.959L179.49291006944443,46.905L179.57287013888887,53.914199999999994L180.1980125,47.223600000000005L180.6763190972222,46.551000000000016L180.76064062499998,44.25L181.29855381944444,53.34780000000001L181.44975104166667,53.34780000000001L181.47010451388888,53.34780000000001L181.49772708333333,53.34780000000001L181.55733368055556,53.34780000000001L181.57768715277777,53.34780000000001L181.59949444444445,53.34780000000001L181.61839409722222,53.34780000000001L181.67509305555555,62.304L181.8640895833333,46.65719999999999L182.1141465277778,46.65719999999999L182.3598420138889,39.3648L182.6157142361111,64.3926L182.749465625,64.3926L182.85414062499999,64.3926L182.87449409722223,64.3926L183.48800590277776,36.6036L183.57087361111113,36.6036L183.74969340277778,43.718999999999994L184.005565625,41.77199999999999L184.15094756944444,41.77199999999999L184.3006909722222,44.781000000000006L184.78626666666665,65.17139999999999L185.74724131944444,44.88720000000001L185.80539409722223,44.88720000000001L185.8533701388889,35.75399999999999L186.12087291666668,63.1536L186.7431076388889,35.71860000000001L186.94228090277778,68.145L187.8959864583333,64.0032L187.89744027777778,64.0032L187.98176180555555,45.453599999999994L188.27252569444443,57.772800000000004L188.38737743055555,57.772800000000004L188.7392017361111,36.4974L189.08957222222222,55.04700000000001L189.2756611111111,46.303200000000004L189.32363715277776,46.303200000000004L189.605678125,54.409800000000004L189.69290729166667,54.9054L189.84991979166668,33.3468L189.90225729166667,33.3468L189.92987986111112,33.3468L190.06944652777779,44.0376L190.73384201388888,46.5864L190.7934486111111,46.5864L190.92138472222223,44.07300000000001L191.24413263888889,55.54259999999999L191.4665670138889,45.1704L191.7413388888889,44.28540000000001L191.78204583333334,44.28540000000001L192.588915625,44.1438L192.8709565972222,44.1438L192.92765555555556,43.29420000000002L193.216965625,44.639399999999995L193.82756979166666,46.16159999999999L194.03255833333336,39.40020000000001L194.21573958333332,39.40020000000001L194.4367201388889,39.40020000000001L194.78418298611112,35.7894L195.23777465277777,33.98399999999998L195.4805625,45.41820000000001L195.49219305555553,45.41820000000001L196.00539131944444,46.338600000000014L196.4066454861111,33.700800000000015L196.48369791666667,45.1704L197.00271145833335,35.75399999999999L197.02015729166666,35.75399999999999L197.37925069444444,55.400999999999996L197.38942743055557,55.400999999999996L197.54353229166668,55.01159999999999L197.77759722222223,34.479600000000005L197.90844097222222,34.479600000000005L198.37947847222222,36.85140000000001L198.6280815972222,36.85140000000001L198.69931875,36.85140000000001L198.7545638888889,36.85140000000001L198.80399375000002,26.44380000000001L198.85923888888888,55.4718L198.9159378472222,55.4718L199.08458090277776,55.4718L199.19797881944444,34.337999999999994L199.21833229166666,34.337999999999994L199.24304722222223,34.337999999999994L199.4000597222222,34.337999999999994L199.47856597222224,34.337999999999994L200.09789305555557,26.231400000000008L200.37411875,26.231400000000008L200.54276180555556,39.8604L200.86260208333331,46.373999999999995L200.90476284722223,46.373999999999995L201.57497361111112,56.67540000000001L201.94860520833333,35.86019999999999L201.99076597222222,35.86019999999999L202.07944895833333,35.86019999999999L202.52141006944444,53.7372L202.7656517361111,36.42660000000001L203.50564583333332,53.206199999999995L203.52745312500002,34.90440000000001L203.9592375,44.3562L204.77773784722223,54.37440000000001L204.8649670138889,54.37440000000001L205.26912881944446,56.81699999999999L205.27058263888887,56.81699999999999L205.4319565972222,56.81699999999999L205.47266354166666,46.303200000000004L205.51627812499999,46.303200000000004L205.57588472222224,46.303200000000004L205.7445277777778,46.303200000000004L206.20393472222221,36.4974L206.26499513888888,36.4974L206.31733263888887,36.4974L206.74184791666667,35.61240000000001L206.78691631944446,35.61240000000001L207.21288541666667,36.42660000000001L207.348090625,52.53359999999999L207.36553645833334,52.53359999999999L207.5181875,52.53359999999999L207.99649409722224,36.143400000000014L208.78301041666666,35.61240000000001L208.81790208333334,35.61240000000001L208.865878125,35.61240000000001L209.50119722222223,35.61240000000001L209.59714930555555,35.61240000000001L209.63785625,35.61240000000001L210.1248857638889,25.806600000000003L210.38511944444443,38.3382L210.45635659722222,46.65719999999999L210.46071805555556,46.65719999999999L210.47671006944447,46.65719999999999L210.540678125,46.65719999999999L210.8677875,43.6482L211.22688090277776,38.232L212.90458854166667,44.8518L213.25786666666664,48.037800000000004L213.61841388888888,40.24980000000002L213.69546631944445,40.24980000000002L213.8539326388889,40.24980000000002L214.047290625,26.833200000000005L214.31479340277778,38.4444L214.50088229166667,54.126599999999996L214.57793472222224,54.126599999999996L214.6389951388889,54.126599999999996L214.79746145833332,54.126599999999996L214.80763819444445,54.126599999999996L214.85416041666664,54.126599999999996L214.9006826388889,54.126599999999996L214.989365625,33.98399999999998L215.015534375,33.98399999999998L215.329559375,38.19659999999999L215.60869270833334,35.96640000000002L215.75988993055554,54.33900000000001L215.85002673611112,46.97579999999999L216.10299131944444,46.97579999999999L216.4053857638889,46.97579999999999L216.83280868055556,49.98479999999999L216.89096145833332,49.98479999999999L217.082865625,49.98479999999999L217.2108017361111,36.214200000000005L217.22824756944445,36.214200000000005L217.23987812500002,36.214200000000005L217.28058506944444,36.214200000000005L217.3503684027778,26.727000000000004L217.41288263888887,34.79820000000001L217.59751770833333,40.0728L217.8184982638889,37.2054L217.96533402777777,37.2054L218.17759166666667,37.2054L218.31425069444444,46.44479999999999L218.53377743055557,73.06559999999999L219.09640555555555,35.7894L219.1400201388889,35.7894L219.42060729166667,33.87780000000001L219.50783645833334,33.87780000000001L219.54418194444446,33.87780000000001L220.2420152777778,54.7638L220.25800729166667,54.7638L220.5167871527778,39.1524L220.550225,39.1524L220.59529340277777,39.1524L220.80173576388887,39.1524L220.8220892361111,34.79820000000001L221.7176420138889,34.09020000000001L221.96479131944443,33.700800000000015L222.3137079861111,31.789199999999994L222.3369690972222,31.789199999999994L222.53323472222223,45.80760000000001L222.735315625,36.214200000000005L222.89814340277778,36.03720000000001L223.15692326388887,27.364199999999983L223.20344548611112,27.364199999999983L223.3081204861111,27.364199999999983L223.68611354166666,36.3912L223.89982500000002,36.3912L224.436284375,36.7098L224.4551840277778,36.7098L224.57875868055555,36.7098L224.82736180555557,33.700800000000015L225.09486458333333,39.11699999999999L225.12830243055555,39.11699999999999L225.13557152777778,39.11699999999999L225.16464791666667,39.11699999999999L225.31875277777777,56.215199999999996L225.81886666666668,43.010999999999996L226.23756666666668,15.788399999999996L226.61119826388887,37.3116L227.10113541666666,34.550399999999996L227.20435659722224,25.664999999999992L227.3177545138889,25.664999999999992L227.7757076388889,21.417L227.7829767361111,21.417L227.80478402777777,21.417L228.28454444444444,24.107399999999984L228.3310666666667,24.107399999999984L228.61746909722223,46.267799999999994L228.95184756944445,24.426000000000016L229.07251458333332,24.426000000000016L229.10013715277776,24.426000000000016L229.24988055555554,29.134199999999993L229.3327482638889,34.83359999999999L229.65549618055556,34.83359999999999L229.93172187500002,38.656800000000004L230.350421875,38.656800000000004L230.39112881944445,38.656800000000004L230.51615729166667,38.656800000000004L231.0700625,31.753800000000012L231.1020465277778,31.753800000000012L231.53383090277777,31.753800000000012L231.74463472222223,33.06360000000001L231.81151041666666,33.06360000000001L232.57621944444443,36.922200000000004L232.63437222222223,36.922200000000004L232.6460027777778,36.922200000000004L232.67798680555555,36.922200000000004L232.692525,36.922200000000004L232.80301527777777,36.922200000000004L232.8524451388889,36.922200000000004L232.97892743055556,36.922200000000004L233.02399583333332,36.922200000000004L233.70292951388888,64.428L233.96025555555556,39.612599999999986L234.0503923611111,35.577L234.38913229166667,35.577L234.39785520833334,35.577L235.3064923611111,46.62180000000001L235.3588298611111,46.62180000000001L235.4998503472222,28.780200000000008L235.7804375,25.806600000000003L235.80515243055555,25.806600000000003L235.80660625000002,25.806600000000003L236.2412982638889,40.355999999999995L236.2936357638889,40.355999999999995L236.6120222222222,53.80800000000001L236.81701076388887,53.80800000000001L237.24443368055557,14.761799999999994L237.47122951388891,14.761799999999994L237.67912569444445,26.5146L237.80415416666665,26.5146L237.81869236111112,26.5146L238.02368090277778,45.1704L238.08910277777778,45.1704L238.1254482638889,44.3562L238.3086295138889,44.3562L238.410396875,44.3562L238.6560923611111,25.664999999999992L238.75640590277777,25.664999999999992L238.84218124999998,25.664999999999992L239.01518576388887,21.700199999999995L239.195459375,36.74520000000001L239.22598958333333,36.74520000000001L240.2887315972222,33.41759999999999L240.77139965277777,33.523799999999994L240.78739166666668,33.523799999999994L240.91532777777778,33.523799999999994L240.9720267361111,33.523799999999994L241.03163333333333,33.87780000000001L241.236621875,55.57799999999999L241.7890732638889,32.99279999999999L241.91555555555556,23.540999999999997L242.34733993055556,18.8682L243.21963159722222,54.5868L243.3068607638889,54.5868L243.32139895833333,54.5868L243.5031263888889,54.5868L244.33471111111112,44.1438L244.51789236111114,44.1438L244.6618204861111,24.6738L244.85953993055557,24.6738L245.0369059027778,23.89500000000001L245.12122743055556,23.89500000000001L245.22154097222221,23.89500000000001L245.22735625,23.89500000000001L245.3741920138889,34.12559999999999L245.4992204861111,28.567800000000005L245.52102777777776,28.567800000000005L246.33952812500002,44.1438L246.50380972222223,34.72740000000002L246.68989861111112,34.93979999999999L246.7117059027778,34.93979999999999L246.81347326388888,34.93979999999999L246.98502395833333,39.541799999999995L247.05916875000003,39.11699999999999L247.15948229166668,24.63839999999999L247.16529756944445,24.63839999999999L247.93146041666668,15.540600000000012L247.95908298611113,15.540600000000012L248.07538854166665,15.540600000000012L248.25275451388887,26.195999999999998L248.40540555555555,34.444199999999995L248.6656392361111,34.444199999999995L248.68599270833334,34.444199999999995L248.73833020833334,26.089799999999997L248.79793680555554,26.089799999999997L248.93459583333333,26.089799999999997L249.00583298611113,26.089799999999997L249.0290940972222,26.089799999999997L249.14685347222223,49.9494L249.26752048611112,33.80699999999999L249.39400277777779,33.91319999999999L249.42017152777777,33.91319999999999L249.6164371527778,19.965599999999995L249.81415659722222,19.965599999999995L250.3767847222222,25.700400000000002L250.43057604166665,25.700400000000002L250.81874583333334,38.763000000000005L251.11823263888888,36.143400000000014L251.17202395833334,36.143400000000014L251.78989722222224,46.05539999999999" style="fill: none;" fill="none"></path></g></g></g></g></g></g><g transform="translate(68, 177)" clip-path="url(#clip_1)"><clipPath id="clip_1"><rect width="261" height="23"></rect></clipPath><g><g><line x1="0" y1="0" x2="0" y2="5" style="visibility: inherit;" fill="rgb(0, 0, 0)" stroke="rgb(204, 204, 204)" stroke-width="1px"></line><line x1="29.076388888888886" y1="0" x2="29.076388888888886" y2="5" style="visibility: inherit;" fill="rgb(0, 0, 0)" stroke="rgb(204, 204, 204)" stroke-width="1px"></line><line x1="58.15277777777777" y1="0" x2="58.15277777777777" y2="5" style="visibility: inherit;" fill="rgb(0, 0, 0)" stroke="rgb(204, 204, 204)" stroke-width="1px"></line><line x1="87.22916666666666" y1="0" x2="87.22916666666666" y2="5" style="visibility: inherit;" fill="rgb(0, 0, 0)" stroke="rgb(204, 204, 204)" stroke-width="1px"></line><line x1="116.30555555555554" y1="0" x2="116.30555555555554" y2="5" style="visibility: inherit;" fill="rgb(0, 0, 0)" stroke="rgb(204, 204, 204)" stroke-width="1px"></line><line x1="145.38194444444446" y1="0" x2="145.38194444444446" y2="5" style="visibility: inherit;" fill="rgb(0, 0, 0)" stroke="rgb(204, 204, 204)" stroke-width="1px"></line><line x1="174.45833333333331" y1="0" x2="174.45833333333331" y2="5" style="visibility: inherit;" fill="rgb(0, 0, 0)" stroke="rgb(204, 204, 204)" stroke-width="1px"></line><line x1="203.53472222222223" y1="0" x2="203.53472222222223" y2="5" style="visibility: inherit;" fill="rgb(0, 0, 0)" stroke="rgb(204, 204, 204)" stroke-width="1px"></line><line x1="232.6111111111111" y1="0" x2="232.6111111111111" y2="5" style="visibility: inherit;" fill="rgb(0, 0, 0)" stroke="rgb(204, 204, 204)" stroke-width="1px"></line><line x1="261.6875" y1="0" x2="261.6875" y2="5" style="visibility: inherit;" fill="rgb(0, 0, 0)" stroke="rgb(204, 204, 204)" stroke-width="1px"></line></g><g transform="translate(0, 8)"><text x="0" y="0" dx="0em" dy="0.95em" style="text-anchor: middle; visibility: hidden; font-family: &quot;Helvetica Neue&quot;, sans-serif; font-size: 12px; font-weight: 200;" fill="rgb(50, 49, 63)" stroke="none" stroke-width="1px">-20k</text><text x="29.076388888888886" y="0" dx="0em" dy="0.95em" style="text-anchor: middle; visibility: inherit; font-family: &quot;Helvetica Neue&quot;, sans-serif; font-size: 12px; font-weight: 200;" fill="rgb(50, 49, 63)" stroke="none" stroke-width="1px">0</text><text x="58.15277777777777" y="0" dx="0em" dy="0.95em" style="text-anchor: middle; visibility: hidden; font-family: &quot;Helvetica Neue&quot;, sans-serif; font-size: 12px; font-weight: 200;" fill="rgb(50, 49, 63)" stroke="none" stroke-width="1px">20k</text><text x="87.22916666666666" y="0" dx="0em" dy="0.95em" style="text-anchor: middle; visibility: inherit; font-family: &quot;Helvetica Neue&quot;, sans-serif; font-size: 12px; font-weight: 200;" fill="rgb(50, 49, 63)" stroke="none" stroke-width="1px">40k</text><text x="116.30555555555554" y="0" dx="0em" dy="0.95em" style="text-anchor: middle; visibility: hidden; font-family: &quot;Helvetica Neue&quot;, sans-serif; font-size: 12px; font-weight: 200;" fill="rgb(50, 49, 63)" stroke="none" stroke-width="1px">60k</text><text x="145.38194444444446" y="0" dx="0em" dy="0.95em" style="text-anchor: middle; visibility: inherit; font-family: &quot;Helvetica Neue&quot;, sans-serif; font-size: 12px; font-weight: 200;" fill="rgb(50, 49, 63)" stroke="none" stroke-width="1px">80k</text><text x="174.45833333333331" y="0" dx="0em" dy="0.95em" style="text-anchor: middle; visibility: hidden; font-family: &quot;Helvetica Neue&quot;, sans-serif; font-size: 12px; font-weight: 200;" fill="rgb(50, 49, 63)" stroke="none" stroke-width="1px">100k</text><text x="203.53472222222223" y="0" dx="0em" dy="0.95em" style="text-anchor: middle; visibility: inherit; font-family: &quot;Helvetica Neue&quot;, sans-serif; font-size: 12px; font-weight: 200;" fill="rgb(50, 49, 63)" stroke="none" stroke-width="1px">120k</text><text x="232.6111111111111" y="0" dx="0em" dy="0.95em" style="text-anchor: middle; visibility: hidden; font-family: &quot;Helvetica Neue&quot;, sans-serif; font-size: 12px; font-weight: 200;" fill="rgb(50, 49, 63)" stroke="none" stroke-width="1px">140k</text><text x="261.6875" y="0" dx="0em" dy="0.95em" style="text-anchor: middle; visibility: hidden; font-family: &quot;Helvetica Neue&quot;, sans-serif; font-size: 12px; font-weight: 200;" fill="rgb(50, 49, 63)" stroke="none" stroke-width="1px">160k</text></g><line x1="0" y1="0" x2="261.6875" y2="0" fill="rgb(0, 0, 0)" stroke="rgb(204, 204, 204)" stroke-width="1px"></line></g></g></g></g></svg>