<svg viewBox="0 0 330 200" xmlns="http://www.w3.org/2000/svg"><g><g><g><g><g><line x1="39.15625" y1="177" x2="34.15625" y2="177" style="visibility: inherit;" fill="rgb(0, 0, 0)" stroke="rgb(204, 204, 204)" stroke-width="1px"></line><line x1="39.15625" y1="164.35714285714286" x2="34.15625" y2="164.35714285714286" style="visibility: inherit;" fill="rgb(0, 0, 0)" stroke="rgb(204, 204, 204)" stroke-width="1px"></line><line x1="39.15625" y1="151.71428571428572" x2="34.15625" y2="151.71428571428572" style="visibility: inherit;" fill="rgb(0, 0, 0)" stroke="rgb(204, 204, 204)" stroke-width="1px"></line><line x1="39.15625" y1="139.07142857142858" x2="34.15625" y2="139.07142857142858" style="visibility: inherit;" fill="rgb(0, 0, 0)" stroke="rgb(204, 204, 204)" stroke-width="1px"></line><line x1="39.15625" y1="126.42857142857143" x2="34.15625" y2="126.42857142857143" style="visibility: inherit;" fill="rgb(0, 0, 0)" stroke="rgb(204, 204, 204)" stroke-width="1px"></line><line x1="39.15625" y1="113.78571428571428" x2="34.15625" y2="113.78571428571428" style="visibility: inherit;" fill="rgb(0, 0, 0)" stroke="rgb(204, 204, 204)" stroke-width="1px"></line><line x1="39.15625" y1="101.14285714285715" x2="34.15625" y2="101.14285714285715" style="visibility: inherit;" fill="rgb(0, 0, 0)" stroke="rgb(204, 204, 204)" stroke-width="1px"></line><line x1="39.15625" y1="88.5" x2="34.15625" y2="88.5" style="visibility: inherit;" fill="rgb(0, 0, 0)" stroke="rgb(204, 204, 204)" stroke-width="1px"></line><line x1="39.15625" y1="75.85714285714286" x2="34.15625" y2="75.85714285714286" style="visibility: inherit;" fill="rgb(0, 0, 0)" stroke="rgb(204, 204, 204)" stroke-width="1px"></line><line x1="39.15625" y1="63.21428571428571" x2="34.15625" y2="63.21428571428571" style="visibility: inherit;" fill="rgb(0, 0, 0)" stroke="rgb(204, 204, 204)" stroke-width="1px"></line><line x1="39.15625" y1="50.57142857142857" x2="34.15625" y2="50.57142857142857" style="visibility: inherit;" fill="rgb(0, 0, 0)" stroke="rgb(204, 204, 204)" stroke-width="1px"></line><line x1="39.15625" y1="37.928571428571445" x2="34.15625" y2="37.928571428571445" style="visibility: inherit;" fill="rgb(0, 0, 0)" stroke="rgb(204, 204, 204)" stroke-width="1px"></line><line x1="39.15625" y1="25.285714285714306" x2="34.15625" y2="25.285714285714306" style="visibility: inherit;" fill="rgb(0, 0, 0)" stroke="rgb(204, 204, 204)" stroke-width="1px"></line><line x1="39.15625" y1="12.642857142857139" x2="34.15625" y2="12.642857142857139" style="visibility: inherit;" fill="rgb(0, 0, 0)" stroke="rgb(204, 204, 204)" stroke-width="1px"></line><line x1="39.15625" y1="0" x2="34.15625" y2="0" style="visibility: inherit;" fill="rgb(0, 0, 0)" stroke="rgb(204, 204, 204)" stroke-width="1px"></line></g><g transform="translate(29.15625, 0)"><text x="0" y="177" dx="0em" dy="0.3em" style="text-anchor: end; visibility: hidden; font-family: &quot;Helvetica Neue&quot;, sans-serif; font-size: 12px; font-weight: 200;" fill="rgb(50, 49, 63)" stroke="none" stroke-width="1px">-35</text><text x="0" y="164.35714285714286" dx="0em" dy="0.3em" style="text-anchor: end; visibility: inherit; font-family: &quot;Helvetica Neue&quot;, sans-serif; font-size: 12px; font-weight: 200;" fill="rgb(50, 49, 63)" stroke="none" stroke-width="1px">-30</text><text x="0" y="151.71428571428572" dx="0em" dy="0.3em" style="text-anchor: end; visibility: hidden; font-family: &quot;Helvetica Neue&quot;, sans-serif; font-size: 12px; font-weight: 200;" fill="rgb(50, 49, 63)" stroke="none" stroke-width="1px">-25</text><text x="0" y="139.07142857142858" dx="0em" dy="0.3em" style="text-anchor: end; visibility: inherit; font-family: &quot;Helvetica Neue&quot;, sans-serif; font-size: 12px; font-weight: 200;" fill="rgb(50, 49, 63)" stroke="none" stroke-width="1px">-20</text><text x="0" y="126.42857142857143" dx="0em" dy="0.3em" style="text-anchor: end; visibility: hidden; font-family: &quot;Helvetica Neue&quot;, sans-serif; font-size: 12px; font-weight: 200;" fill="rgb(50, 49, 63)" stroke="none" stroke-width="1px">-15</text><text x="0" y="113.78571428571428" dx="0em" dy="0.3em" style="text-anchor: end; visibility: inherit; font-family: &quot;Helvetica Neue&quot;, sans-serif; font-size: 12px; font-weight: 200;" fill="rgb(50, 49, 63)" stroke="none" stroke-width="1px">-10</text><text x="0" y="101.14285714285715" dx="0em" dy="0.3em" style="text-anchor: end; visibility: hidden; font-family: &quot;Helvetica Neue&quot;, sans-serif; font-size: 12px; font-weight: 200;" fill="rgb(50, 49, 63)" stroke="none" stroke-width="1px">-5</text><text x="0" y="88.5" dx="0em" dy="0.3em" style="text-anchor: end; visibility: inherit; font-family: &quot;Helvetica Neue&quot;, sans-serif; font-size: 12px; font-weight: 200;" fill="rgb(50, 49, 63)" stroke="none" stroke-width="1px">0</text><text x="0" y="75.85714285714286" dx="0em" dy="0.3em" style="text-anchor: end; visibility: hidden; font-family: &quot;Helvetica Neue&quot;, sans-serif; font-size: 12px; font-weight: 200;" fill="rgb(50, 49, 63)" stroke="none" stroke-width="1px">5</text><text x="0" y="63.21428571428571" dx="0em" dy="0.3em" style="text-anchor: end; visibility: inherit; font-family: &quot;Helvetica Neue&quot;, sans-serif; font-size: 12px; font-weight: 200;" fill="rgb(50, 49, 63)" stroke="none" stroke-width="1px">10</text><text x="0" y="50.57142857142857" dx="0em" dy="0.3em" style="text-anchor: end; visibility: hidden; font-family: &quot;Helvetica Neue&quot;, sans-serif; font-size: 12px; font-weight: 200;" fill="rgb(50, 49, 63)" stroke="none" stroke-width="1px">15</text><text x="0" y="37.928571428571445" dx="0em" dy="0.3em" style="text-anchor: end; visibility: inherit; font-family: &quot;Helvetica Neue&quot;, sans-serif; font-size: 12px; font-weight: 200;" fill="rgb(50, 49, 63)" stroke="none" stroke-width="1px">20</text><text x="0" y="25.285714285714306" dx="0em" dy="0.3em" style="text-anchor: end; visibility: hidden; font-family: &quot;Helvetica Neue&quot;, sans-serif; font-size: 12px; font-weight: 200;" fill="rgb(50, 49, 63)" stroke="none" stroke-width="1px">25</text><text x="0" y="12.642857142857139" dx="0em" dy="0.3em" style="text-anchor: end; visibility: inherit; font-family: &quot;Helvetica Neue&quot;, sans-serif; font-size: 12px; font-weight: 200;" fill="rgb(50, 49, 63)" stroke="none" stroke-width="1px">30</text><text x="0" y="0" dx="0em" dy="0.3em" style="text-anchor: end; visibility: hidden; font-family: &quot;Helvetica Neue&quot;, sans-serif; font-size: 12px; font-weight: 200;" fill="rgb(50, 49, 63)" stroke="none" stroke-width="1px">35</text></g><line x1="39.15625" y1="0" x2="39.15625" y2="177" fill="rgb(0, 0, 0)" stroke="rgb(204, 204, 204)" stroke-width="1px"></line></g></g><g transform="translate(39, 0)" clip-path="url(#clip_0)"><clipPath id="clip_0"><rect width="290" height="177"></rect></clipPath><g><g><g><line x1="0" y1="0" x2="0" y2="177" fill="rgb(0, 0, 0)" stroke="rgb(60, 60, 60)" stroke-width="1px" opacity="0.25"></line><line x1="32.31597222222222" y1="0" x2="32.31597222222222" y2="177" fill="rgb(0, 0, 0)" stroke="rgb(60, 60, 60)" stroke-width="1px" opacity="0.25"></line><line x1="64.63194444444444" y1="0" x2="64.63194444444444" y2="177" fill="rgb(0, 0, 0)" stroke="rgb(60, 60, 60)" stroke-width="1px" opacity="0.25"></line><line x1="96.94791666666666" y1="0" x2="96.94791666666666" y2="177" fill="rgb(0, 0, 0)" stroke="rgb(60, 60, 60)" stroke-width="1px" opacity="0.25"></line><line x1="129.26388888888889" y1="0" x2="129.26388888888889" y2="177" fill="rgb(0, 0, 0)" stroke="rgb(60, 60, 60)" stroke-width="1px" opacity="0.25"></line><line x1="161.57986111111111" y1="0" x2="161.57986111111111" y2="177" fill="rgb(0, 0, 0)" stroke="rgb(60, 60, 60)" stroke-width="1px" opacity="0.25"></line><line x1="193.89583333333331" y1="0" x2="193.89583333333331" y2="177" fill="rgb(0, 0, 0)" stroke="rgb(60, 60, 60)" stroke-width="1px" opacity="0.25"></line><line x1="226.21180555555557" y1="0" x2="226.21180555555557" y2="177" fill="rgb(0, 0, 0)" stroke="rgb(60, 60, 60)" stroke-width="1px" opacity="0.25"></line><line x1="258.52777777777777" y1="0" x2="258.52777777777777" y2="177" fill="rgb(0, 0, 0)" stroke="rgb(60, 60, 60)" stroke-width="1px" opacity="0.25"></line><line x1="290.84375" y1="0" x2="290.84375" y2="177" fill="rgb(0, 0, 0)" stroke="rgb(60, 60, 60)" stroke-width="1px" opacity="0.25"></line></g><g><line x1="0" y1="177" x2="290.84375" y2="177" fill="rgb(0, 0, 0)" stroke="rgb(60, 60, 60)" stroke-width="1px" opacity="0.25"></line><line x1="0" y1="164.35714285714286" x2="290.84375" y2="164.35714285714286" fill="rgb(0, 0, 0)" stroke="rgb(60, 60, 60)" stroke-width="1px" opacity="0.25"></line><line x1="0" y1="151.71428571428572" x2="290.84375" y2="151.71428571428572" fill="rgb(0, 0, 0)" stroke="rgb(60, 60, 60)" stroke-width="1px" opacity="0.25"></line><line x1="0" y1="139.07142857142858" x2="290.84375" y2="139.07142857142858" fill="rgb(0, 0, 0)" stroke="rgb(60, 60, 60)" stroke-width="1px" opacity="0.25"></line><line x1="0" y1="126.42857142857143" x2="290.84375" y2="126.42857142857143" fill="rgb(0, 0, 0)" stroke="rgb(60, 60, 60)" stroke-width="1px" opacity="0.25"></line><line x1="0" y1="113.78571428571428" x2="290.84375" y2="113.78571428571428" fill="rgb(0, 0, 0)" stroke="rgb(60, 60, 60)" stroke-width="1px" opacity="0.25"></line><line x1="0" y1="101.14285714285715" x2="290.84375" y2="101.14285714285715" fill="rgb(0, 0, 0)" stroke="rgb(60, 60, 60)" stroke-width="1px" opacity="0.25"></line><line x1="0" y1="88.5" x2="290.84375" y2="88.5" fill="rgb(0, 0, 0)" stroke="rgb(60, 60, 60)" stroke-width="1px" opacity="0.25"></line><line x1="0" y1="75.85714285714286" x2="290.84375" y2="75.85714285714286" fill="rgb(0, 0, 0)" stroke="rgb(60, 60, 60)" stroke-width="1px" opacity="0.25"></line><line x1="0" y1="63.21428571428571" x2="290.84375" y2="63.21428571428571" fill="rgb(0, 0, 0)" stroke="rgb(60, 60, 60)" stroke-width="1px" opacity="0.25"></line><line x1="0" y1="50.57142857142857" x2="290.84375" y2="50.57142857142857" fill="rgb(0, 0, 0)" stroke="rgb(60, 60, 60)" stroke-width="1px" opacity="0.25"></line><line x1="0" y1="37.928571428571445" x2="290.84375" y2="37.928571428571445" fill="rgb(0, 0, 0)" stroke="rgb(60, 60, 60)" stroke-width="1px" opacity="0.25"></line><line x1="0" y1="25.285714285714306" x2="290.84375" y2="25.285714285714306" fill="rgb(0, 0, 0)" stroke="rgb(60, 60, 60)" stroke-width="1px" opacity="0.25"></line><line x1="0" y1="12.642857142857139" x2="290.84375" y2="12.642857142857139" fill="rgb(0, 0, 0)" stroke="rgb(60, 60, 60)" stroke-width="1px" opacity="0.25"></line><line x1="0" y1="0" x2="290.84375" y2="0" fill="rgb(0, 0, 0)" stroke="rgb(60, 60, 60)" stroke-width="1px" opacity="0.25"></line></g></g></g><g><g><line x1="0" y1="88.5" x2="290.84375" y2="88.5" fill="rgb(0, 0, 0)" stroke="rgb(153, 153, 153)" stroke-width="1.5px"></line></g></g><g><g><line x1="32.31597222222222" y1="0" x2="32.31597222222222" y2="177" fill="rgb(0, 0, 0)" stroke="rgb(153, 153, 153)" stroke-width="1.5px"></line></g></g><g><g><g><g><g><path stroke="rgb(255, 112, 67)" stroke-width="2px" d="M32.3854515625,146.65714285714284L32.587426388888886,147.98796992481203L32.687605902777776,148.42994201370587L33.0834765625,148.64970714078015L33.183656076388885,148.78059702013206L33.253135416666666,148.86705726645798L33.264446006944446,148.9281374132419L33.342004340277775,148.9733634084778L33.36300972222222,149.0080284394531L33.47126822916667,149.03530925697868L33.623153298611115,149.05722813650067L33.956007812500005,149.07513385527616L34.47144756944444,149.0899606776278L34.55546909722222,148.7745150552366L34.5667796875,148.5078800529505L34.63787482638889,148.2807115514065L35.04990347222222,148.08585872148763L35.1193828125,147.9177557863045L35.12423020833333,147.7720058363658L35.35044201388889,147.93294286709664L35.41507395833333,148.0736118689425L35.607353993055554,147.91649228868218L36.04523541666667,147.77831036734784L36.177730902777775,147.6564752634473L36.332847569444446,147.82122663336753L36.33446336805555,147.96710042364708L36.65600729166667,147.82801700264383L37.22638420138889,147.97128460712008L37.53661753472222,147.83337469791243L37.5624703125,147.4464940522964L37.657802430555556,147.62731475475377L38.163547395833334,147.5268478491088L38.16677899305556,147.43710398131074L38.247568923611105,147.356876515303L38.491554513888886,147.28510663784854L38.70968732638889,147.22086295236312L39.292990625,147.42141437808132L39.42710190972222,147.34356666055538L39.57575538194445,147.2737781289742L39.60322395833333,147.2111894863916L39.87306232638888,147.41130404925963L40.054031770833326,147.59089523105578L40.349722916666664,147.75211431465513L40.61309809027778,147.64154489572596L40.95403159722222,147.7973214467872L40.97665277777778,147.93725997118838L41.564803472222216,147.5536793359004L41.79263107638889,147.20897530182842L41.86211041666667,147.1534742351136L41.99622170138888,147.1035839741264L42.33553940972222,147.31276728065023L42.36623958333333,147.24692999674468L43.14182291666667,146.4262966509247L43.1612125,145.6883144358808L43.392271701388886,145.53186401698667L43.57324114583333,145.39114935088355L43.878627083333335,145.51806154447118L44.24541336805556,145.63222294637424L44.37144565972223,145.73491999039095L44.37629305555556,145.82730829980977L44.917585590277774,145.91042618286585L44.97413854166667,145.22552950094476L45.35061961805555,145.3688786268594L45.53482065972223,145.49785711790935L45.60106840277778,145.6139088362389L46.04864461805556,145.71833196293224L46.064802604166665,145.8122938129821L46.21507187500001,145.8968441216285L46.66264809027778,145.97292696394894L46.75474861111111,146.04139145166133L47.27988315972222,145.85000152057526L47.61596927083334,145.67777109947832L47.75492795138889,145.52278033634116L47.775933333333334,145.3833021062986L47.98760295138889,145.25778259775308L49.12027777777778,145.65070660617195L49.249541666666666,146.00431334676819L49.319021006944446,146.32253927307056L49.45636388888889,146.6089262946255L49.73589704861111,146.36083660674944L49.93302447916666,145.88465931673846L49.937871875,145.45611754845112L50.036435590277776,145.0704443682443L50.12368871527778,144.84979687498966L50.25618420138889,144.52477525742435L50.95097760416667,143.2207177509521L51.00591475694445,143.5643961744805L51.19819479166667,143.62081900623735L51.317763888888884,143.418719999651L51.65708159722222,142.73108133148145L51.66516059027778,142.1122164834844L51.97216232638888,142.06099167437816L52.17575295138889,142.01488994675987L53.124226736111105,140.96191975324922L53.37790711805556,140.0142565787466L53.421533680555555,139.16136782129445L54.28760173611111,138.64664085631617L54.324765104166666,138.1833901512653L54.63176684027778,137.76646740306575L55.295860069444444,137.1383754083286L55.41381336805555,136.5730957829113L55.48490850694445,136.57007185384685L55.661030555555556,136.56735033005032L55.96964809027777,136.56490096864613L56.01812204861111,136.56269655149262L56.19747569444444,136.56071258262372L56.34936076388889,135.80034595019947L57.318839930555555,134.35743771438192L57.37377708333334,134.82884165103584L57.78903732638889,134.24166633358863L58.3577984375,133.46035033062395L58.68903715277777,132.25144908586145L59.55510520833334,132.17487508885347L59.89280711805555,131.3473825517957L59.942896875,130.6026402238017L60.29837256944444,130.18523128984162L60.333920138888885,129.80956363962235L60.66354305555556,128.7128886178058L60.68616423611111,127.72588192888043L62.13068819444444,126.3318606629262L63.20519427083333,124.3186687456508L63.29083159722222,123.26537054455633L63.87575069444444,122.82311816327109L64.05187274305555,121.91937586074908L64.07449392361112,121.10600815228557L64.19891041666666,120.12111993255171L64.62548125,119.23472085593345L64.71919756944445,118.94267693580295L64.73373975694444,118.67983748481907L64.85654045138888,118.44328204141176L65.02781510416666,118.7360969911438L65.04074149305556,118.99963038952383L65.15546319444445,119.236810402399L65.34451163194444,118.69170038803165L65.50447569444444,117.9482441406387L65.56749184027778,117.27913361190288L65.89226736111111,116.92979149114679L65.89711475694445,116.6153836182124L66.01506805555556,116.07955930836641L66.37862274305556,116.35588920030287L66.48203385416667,112.05315590279834L66.62422413194444,112.47926901945392L66.76479861111112,111.09277029211275L67.09442152777778,106.55777780903902L67.61955607638889,103.74057080360213L68.261028125,98.92936986226974L68.39837100694444,95.61071796715267L68.44361336805555,92.62393137995073L69.70393628472222,90.69439509132717L69.72009427083333,88.95781248732821L69.79118940972222,87.1420310148869L69.8332001736111,85.25497056129983L69.94307447916667,84.56804486519029L70.064259375,83.19124025501424L70.17090208333333,80.68783031286887L70.35348732638889,79.19333288714337L70.56354114583334,76.0782851087577L70.58131493055555,73.27474214696247L70.61363090277777,72.5215536066069L70.9965751736111,70.83225530817128L71.33427708333333,68.55331539374117L71.55240989583334,68.01941240515379L71.55564149305556,67.53889971934706L71.61704184027778,66.60072400374636L72.100165625,64.74493726535258L72.25851388888888,63.833300658549646L72.27144027777778,63.01282771682072L72.55258923611112,62.78011636892863L72.60591059027777,62.57067615673424L73.12135034722222,61.11789423116815L73.2489984375,61.07467623597543L73.34433055555556,61.03578004042497L74.02458177083334,62.26505919415398L74.08113472222222,61.85426755596727L74.20070381944444,60.22026935574114L74.81793888888889,60.013956704056554L75.61614340277778,58.56398959353744L75.61775920138888,57.25901919626324L76.19298350694444,55.325974407030245L76.2010625,53.58623409908864L76.76012881944445,52.02046782385942L76.91847708333334,51.36984960984388L76.97503003472222,50.025721786030445L77.277184375,49.06886388949863L77.4242220486111,48.20769178331213L78.26766892361111,47.432636888304984L78.43732777777777,46.73508748325267L79.12727378472222,47.11872159302857L79.1692845486111,47.463992291644814L79.27592725694444,48.280450206989485L79.5005232638889,49.77383376043862L79.60070277777777,51.11787895802614L79.93678888888888,50.81037677605565L79.96264166666666,50.533624812368416L80.16300069444443,49.778833758801184L80.51524479166666,49.35237895389106L80.79962534722222,48.20999820025355L80.84163611111111,47.181855522189835L81.0726953125,47.015098541268685L81.3199125,46.86501725846452L81.55097170138889,46.47708696094318L81.78041510416666,46.380806836222405L81.93230017361111,46.04129758099697L81.95492135416667,45.73573925132729L83.06335920138888,45.46073675465141L83.12314375,45.21323450766491L83.5319407986111,44.990482485394665L83.82924774305556,44.537148522431806L83.91973246527778,44.12914795579141L84.02960677083333,43.50909030291686L84.35761388888889,42.44532412953254L84.72601597222223,41.74079171643888L84.89890642361111,41.86528397338873L85.08472326388889,41.97732700463939L85.25438211805555,41.82530858986763L85.46766753472222,41.94134915946748L85.48059392361111,42.045785672104444L85.69387934027777,41.63406424770753L85.93140173611111,40.75780067999614L86.07682361111112,40.47487775482941L86.24486666666667,40.97881855081394L86.29010902777777,40.16807955281908L86.82978576388889,40.196985883253234L86.84917534722221,40.22300158064368L86.87987552083334,39.74070142255488L86.90734409722224,39.30663128027962L86.99459722222223,38.91596815223565L87.05438177083333,38.81722847986555L87.11416631944445,38.7283627747332L87.31290954861112,38.648383640114645L87.48256840277777,40.34640241900601L87.83965989583334,39.851762177093434L87.87359166666666,39.40658595937438L88.10303506944445,39.005927363429095L88.22260416666667,38.898191769941405L88.51991111111111,38.80122973580288L89.40860034722223,38.96682104793925L89.44253211805555,39.11585322886154L89.47969548611111,39.2499821916912L89.65097013888888,39.37069825823764L89.79639201388889,39.479342718129175L90.11632013888888,39.0714084463128L90.24235243055556,39.71569617311502L90.41039548611111,39.284126555800526L90.4378640625,39.90714247165292L90.54612256944445,39.9621425102022L90.88382447916666,39.758785402038114L90.9306826388889,39.575764004690626L91.50267534722222,39.916759032794374L91.55114930555555,40.223654558087446L91.72565555555555,39.48843195941916L91.85976684027777,39.33244590633393L91.95186736111111,39.19205845855731L92.42852795138889,39.57142404127393L92.89226215277777,40.16571020857637L93.33660677083334,39.689139187717814L93.51757621527777,39.513082411802856L94.0281685763889,39.860345599194545L94.42727083333332,39.92002532498947L94.45312361111111,39.97373707820486L94.88131024305555,39.769220513241294L95.07520607638888,39.838012747631524L95.30303368055556,39.394211472867966L95.81201024305555,38.99479032558085L96.46802447916667,38.888168435879834L96.59567256944445,38.792208735148904L96.75240503472223,38.4529878616338L96.80249479166666,38.147689075470254L96.9818484375,37.8729201679231L97.42780885416667,37.87848529398792L97.75743177083334,37.124922478874566L98.02080694444444,37.20528737384427L98.02727013888888,37.27761577931702L98.08059149305556,36.58413991567082L98.11290746527779,38.23572592410417L98.2308607638889,38.2050104745509L98.62996302083333,37.92450942709573L98.9595859375,37.41920134152892L99.00321249999999,36.96442406451882L99.11631840277776,37.31369594378128L99.43624652777778,37.375183492260305L99.46209930555555,37.43052228589141L100.3976467013889,36.97461291444509L100.90823906249999,40.10429448014372L100.93732343750001,42.92100788927249L101.27664114583334,42.42176424320232L102.63391197916667,41.71958781888205L102.77771805555555,40.83477189413662L102.82942361111111,40.54415184758011L102.94576111111112,40.28259380567923L102.98938767361112,40.8057629965399L102.99585086805556,41.023758125457334L103.09764618055556,40.46138231291158L103.40141631944445,40.46095836733468L103.53068020833332,40.20771967345837L103.73588663194444,39.97980484896968L103.74719722222221,39.774681506929824L103.81829236111112,38.83149907052254L103.90392968750001,38.488349163470275L104.73121857638888,38.17951424712325L104.97035677083333,37.395848536696604L105.52942309027777,37.19626368302693L105.54396527777777,36.7637801718671L105.62960260416668,36.374545011823244L105.84773541666667,36.27709051064093L106.09172100694444,36.18938145957682L107.15814809027778,35.85758617076198L107.18400086805556,35.558970410828636L107.31164895833334,35.5430733697458L107.4506076388889,35.528766032771216L108.746478125,35.26303228663693L109.20536493055556,35.52958620083041L109.29100225694445,35.769484723604506L109.3410920138889,34.97396482267263L109.39926076388889,35.269425483262495L109.46227690972222,35.28248293493624L109.68525711805556,35.547091784299795L109.79028402777777,35.78523974872692L109.82744739583333,35.99957291671137L109.99872204861111,35.433901339325956L110.16838090277778,34.92479691967907L110.24270763888889,34.466602941996854L110.71936822916666,34.559942647797186L111.23965538194444,33.88537695444603L111.93121718750001,33.7839821161443L112.05886527777778,33.43986961881558L112.26245590277777,33.13016837121975L113.11721336805554,33.61000867695489L113.19800329861111,34.041864952116555L113.34827256944445,33.41910702833346L113.37412534722222,33.8700534683573L113.42259930555555,34.27590526437868L113.54055260416668,33.88260045222654L114.12385590277778,33.52862612128959L114.43085763888888,33.21004922344636L114.68938541666667,32.67047287253027L114.93983420138889,32.43771129956295L115.09010347222222,31.975368741035226L115.17897239583334,32.064974724074574L116.01272447916666,32.14562010880999L116.02565086805555,32.218200955071836L116.2647890625,32.28352371670752L116.34073159722222,32.34231420217964L116.81092899305554,32.395225639104524L116.90949270833335,32.695703075194075L117.16317309027778,32.71327562481753L117.44109045138889,32.476233776621456L117.80302934027777,32.76861039895931L117.85635069444444,33.03174935906338L118.10356788194444,32.76286013744277L118.1278048611111,32.520859837984204L118.71110815972222,32.050202425614344L119.09566822916666,31.87946789733863L119.10697881944445,31.47294967903335L119.11344201388889,31.107083282558563L119.11990520833334,30.777803525731315L119.3477328125,31.492880316015317L119.41882795138888,32.13644942727092L119.68705052083332,32.462804484543824L119.74521927083333,32.50366689323229L119.76945625,32.540443061051946L119.96012048611112,32.57354161208963L120.68722986111112,32.603330308023516L120.87466250000001,32.882997277221165L121.08471631944444,32.37612612092761L121.15742725694444,32.172799223120535L121.49836076388888,31.98980501509419L121.66963541666667,31.572253085013358L122.06389027777777,31.196456347940597L122.07681666666667,30.85823928457512L122.33857604166667,30.553843927546183L122.42421336805556,30.27988810622014L123.346834375,30.791899295598114L123.62152013888888,31.252709366038317L123.64414131944444,30.90886700086304L123.78471579861112,31.357980300776745L124.07394375,31.256467984984795L124.12726510416667,30.91224975791488L124.41649305555555,30.602453353551965L124.9012326388889,30.576493732482476L124.91092743055556,30.553130073519952L125.20015538194444,30.65853135188223L125.6461157986111,30.626963930979713L126.51056805555557,30.345696109310325L126.74485885416668,30.345412212664996L126.93229149305556,30.345156705684218L127.069634375,30.34492674940151L127.19566666666667,30.091862645889933L127.23929322916666,29.86410495272952L127.26676180555556,29.65912302888512L128.07627690972222,29.980353583139475L128.15221944444446,30.269461081968387L128.3477310763889,30.27680068805725L128.6838171875,30.536263476394396L128.73229114583333,30.516922843040646L129.55473263888888,30.24665913016517L129.56442743055555,30.50913607429152L129.599975,30.745365324005235L129.745396875,30.452257363033283L130.03300902777778,30.44131734101566L131.2125420138889,30.178614178342684L131.32726371527778,29.94218133193698L131.58902309027778,29.729391770171844L131.74413975694443,29.53788116458324L131.98004635416666,29.61837876241063L132.72169791666667,30.196540886169544L132.85096180555556,30.2111725118383L133.33085399305554,29.971483832083038L133.38094375,29.75576402030333L133.90930989583333,30.320187618272996L134.1516796875,30.06959742787427L134.46837621527777,30.096923399372542L134.6913564236111,30.121516773721027L134.8044623263889,30.39650795349175L134.806078125,30.644000015285457L134.94180520833334,30.86674287089977L135.19710138888888,30.81435429809548L135.51056631944445,30.514347439714527L135.70930954861112,30.497198410028773L135.88704739583332,30.228907140454453L136.09225381944444,29.9874449978376L136.5543722222222,29.770129069482408L136.57053020833334,29.57454473396274L136.83875277777778,29.398518831995034L137.16514409722222,29.240095520224116L137.7403684027778,29.097514539630282L137.8163109375,29.222048799952944L138.07160711805557,29.081272491386244L138.121696875,29.20743095653333L138.31559270833336,29.068116432308557L138.38345625,28.94273336050628L138.49009895833333,29.335602881598533L138.81002708333332,29.43632830772438L139.03947048611113,29.52698119123764L139.4418043402778,29.355711643542463L140.2319298611111,29.20156905061677L140.49207343749998,29.062840716983686L140.5373157986111,29.190842359571036L140.6100267361111,29.55890098075679L141.28704635416668,29.384439454109668L142.6168486111111,29.227424080127292L142.6459329861111,29.33896738640027L142.8026654513889,29.43935636204594L142.88507118055554,29.529706440127057L143.14521475694445,30.369592938971522L143.6929704861111,30.366919359360082L143.78830260416666,30.11165599485264L144.08399375,29.88191896679595L144.10661493055557,29.675155641544933L144.54288055555557,29.741925791676152L144.5768123263889,29.54916178393711L144.9694513888889,29.375674176971955L145.09709947916667,29.219535330703337L145.28614791666666,29.58472465477587L146.16998975694443,29.660537903583986L146.36065399305556,29.98162697036844L146.4834546875,29.76489284476017L146.9019465277778,29.56983213171273L147.03282621527777,29.39427748997005L147.7308512152778,29.236278312401595L147.93444184027777,29.09407905259002L147.97645260416667,28.966099718759608L148.16388524305557,28.85091831831221L148.41271822916667,29.000112200766694L148.5032029513889,29.892958123547174L148.58560868055554,30.190805168335316L148.62115625,30.45886750864463L148.67447760416667,30.70012361492303L148.71487256944445,30.917254110573566L149.13498020833333,30.606957270944804L149.13821180555556,30.327690115278898L149.3030232638889,30.076349675179586L149.30787065972223,29.85014327909019L149.55670364583332,29.646557522609754L149.82331041666666,29.46333034177735L150.06568020833333,29.2984258790282L150.28542881944443,29.150011862553953L150.56011458333336,29.26929639058426L150.78471059027777,29.123795322954408L151.54575173611113,29.498558647801815L151.55383072916666,29.835845640164507L151.6297732638889,29.63368964757663L151.72672118055556,29.451749254247545L151.7638845486111,29.28800290025137L152.18883958333333,29.646345467369088L152.20015017361112,29.968853777775053L153.34251979166666,29.7533969714261L153.7787854166667,29.812342988569185L154.2602934027778,29.612537261140858L154.2893777777778,29.43271210645534L154.41864166666667,29.270869467238384L155.00194496527777,29.12521109194313L155.27824652777778,29.75268998274879L155.4705265625,29.81170669875965L155.81469166666665,29.864821743169387L155.89709739583336,29.91262528313817L156.12977239583336,29.702791326252935L156.20571493055556,29.51394076505619L156.39476336805555,29.5968324028363L156.58219600694446,29.418577733981238L156.59350659722222,29.763862817725993L157.05400920138888,29.568905107381937L157.59045434027777,29.39344316807231L158.0299515625,29.23552742269368L158.18991562500003,29.09340325185289L158.5680125,28.965491498096156L158.6859657986111,28.850370919715118L158.77806631944443,28.999619542029308L159.6021236111111,29.1339433021121L159.71199791666666,29.001977543329446L159.8364144097222,29.136065503282225L159.85903559027778,29.25674466723973L159.92205173611111,29.365355914801455L159.9737572916667,29.46310603760702L160.46496006944446,29.298224005274903L160.64108211805555,29.65554446189026L160.93031006944446,29.47141858712979L161.54108194444444,29.305705299845386L161.63156666666666,29.156563341289427L161.6380298611111,29.022335578589065L161.74305677083333,28.901530592158736L161.84808368055553,28.792806104371437L162.21163836805556,28.947811208219974L162.23749114583333,29.0873158016837L162.47016614583333,28.9600127929439L162.51217690972223,28.84544008507808L162.5719614583333,28.742324647998856L163.19081232638888,28.64952075462756L163.22151250000002,28.56599725059337L163.38632395833332,28.49082609696262L163.81289479166668,28.423172058694917L163.99548003472222,28.615140567111126L164.0520329861111,28.535055081828602L164.73551579861112,28.71583528793144L166.00230190972223,28.878537473424018L166.05723906249997,29.02496944036733L166.18488715277778,28.903901067759165L166.5500576388889,29.047796675268955L166.63407916666665,29.177302722027775L166.8602909722222,29.041001021253578L167.25293003472223,28.918329490556772L167.6601112847222,28.807925112929667L167.9202548611111,28.96141831592243L168.311278125,28.846705055758747L168.36298368055557,28.743463121611427L168.7055329861111,28.90340252373602L169.01576631944445,28.794490842790992L169.15310920138887,28.696470329940468L169.36639461805555,28.608251868374992L169.69278593750002,29.03456953868036L169.74449149305553,28.912541156240906L169.80427604166667,28.802715612045375L169.93353993055555,28.703872622269387L170.1775255208333,28.61491393147105L170.48129565972224,28.787708252609633L170.53138541666667,28.690365998777253L170.58470677083335,28.6027579703281L170.76890781249998,28.523910744723878L170.870703125,28.452948241680076L171.2520315972222,28.38908198894063L171.29888975694445,28.33160236147515L172.53659149305557,28.279870696756205L172.557596875,28.23331219850914L172.673934375,28.444266692943955L172.90499357638888,28.381268595078126L173.52707604166667,28.32457030699888L173.6191765625,28.273541847727586L173.79045121527776,28.22761623438339L173.89547812499998,28.186283182373614L173.9681890625,28.149083435564847L174.23156423611113,28.115603663436957L174.72923020833335,28.085471868521836L175.5969140625,28.058353253098204L175.82474166666668,28.28680364207409L176.5470036458333,28.23955184929528L176.68434652777776,28.197025235794314L176.71019930555556,28.158751283643454L177.327434375,28.12430472670769L177.35490295138888,28.093302825465486L177.56495677083333,28.06540111434751L177.69583645833333,28.04028957434133L177.79601597222222,28.270546331192918L178.1224072916667,28.224920269502206L178.46657239583334,28.43671395683768L179.47483072916665,28.3744711325825L179.5071467013889,28.3184525907528L179.84000121527777,28.268035903106096L180.1211501736111,28.475518027081193L180.3635199652778,28.662251938658784L180.39583593749998,28.57745531622149L180.40068333333332,28.501138356027923L180.53802621527777,28.432453091853716L180.5428736111111,28.370636354096916L181.1229453125,28.315001290115788L181.16495607638888,28.264929732532778L182.14897743055556,28.472722473565227L182.2443095486111,28.406878797637262L182.79044947916665,28.60047663215923L182.94718194444445,28.521857540371883L183.34789999999998,28.70395750062042L184.04269340277776,28.614990321986966L184.8166609375,28.787777004073973L185.06872552083334,28.94328501795229L185.4694435763889,28.830385087585654L185.6423340277778,28.728775150255643L185.9105565972222,28.637326206658656L186.11576302083333,28.555022157421377L186.33712743055557,28.733805655964943L186.42761215277778,29.147567947511305L186.47931770833333,29.01423972418874L186.59403940972223,29.147101466055602L187.20804288194444,29.013819890878608L187.35184895833333,28.893866473219305L187.38901232638887,28.785908397325983L187.92061006944445,28.68874612902195L188.29870694444446,28.854157230405463L188.4037338541667,28.750170078793502L189.07913767361111,28.65658164234273L189.30211788194444,28.572352049537017L189.4152237847222,28.749402558869036L189.5283296875,28.90874801726784L189.72222552083332,29.05215892982676L189.79332065972224,28.92837160827264L190.01306927083334,28.816963018873963L190.24897586805554,28.71669528841514L190.33622899305558,28.87931147385936L190.46549288194444,28.772808897901967L190.64323072916665,28.67695657954036L190.89044791666666,28.590689493014906L191.0084012152778,28.513049115141968L191.3186345486111,28.443172775056354L191.4317404513889,28.380284068979307L191.51091458333332,28.323684233509937L192.37051944444445,28.27274438158753L193.09924461805556,28.22689851485734L193.27051927083332,28.185637234800197L193.27375086805557,28.148502082748735L193.71001649305555,28.115080445902464L194.3563359375,28.59071525845505L194.81199114583333,28.513072304038133L194.8491545138889,28.443193645062905L195.1109138888889,28.380302851985164L195.28380434027778,28.323701138215228L195.37913645833333,28.272759595822265L195.39367864583332,28.22691220766862L195.50840034722222,28.18564955833034L195.62958524305557,28.148513173925892L195.76369652777777,28.11509042796186L195.89134461805554,28.085009956594234L196.05454027777776,28.310794675220535L196.08685625,28.514000921984206L196.20965694444445,28.44402940121435L196.30175746527777,28.381055032521488L196.31953125,28.324378100697913L197.0046298611111,28.273368862056685L197.03694583333333,28.48031769013673L197.6250965277778,28.413714492551634L197.9514878472222,28.606628757582172L198.00319340277778,28.527394453252555L198.09044652777777,28.456083579355862L198.23586840277778,28.391903792848865L198.55094913194444,28.334141984992527L198.6010388888889,28.282156357921878L198.6899078125,28.23536929355825L198.74646076388888,28.193260935631002L198.76261875,28.155363413496474L199.07769947916665,28.12125564357541L199.4913439236111,28.090558650646443L199.5802128472222,28.06293135701037L200.27500625,28.038066792737908L200.80660399305555,28.015688684892694L200.90032031249999,28.248405530689126L201.49816579861113,28.457850691905918L201.66620885416668,28.393494194143898L201.6888300347222,28.3355733461581L201.71953020833334,28.78915886868515L201.7857779513889,28.94452869610234L201.80839913194444,28.831504397920668L201.8326361111111,28.729782529557212L201.85364149305556,28.638232848030043L201.9166576388889,28.555838134655602L202.12671145833332,28.481682892618636L202.40462881944444,28.41494317478532L202.67769878472222,28.354877428735392L202.96207934027777,28.300818257290416L203.1107328125,28.50502214584708L203.2270703125,28.435948502690934L203.24969149305556,28.37378222385044L203.93155850694444,28.317832572893963L204.0236590277778,28.267477887033124L204.22240225694443,28.222158669758414L204.5067828125,28.181371374211153L204.6683626736111,28.397519951075736L204.83478993055556,28.592053670253875L205.37446666666665,29.2728483032285L206.44250954861113,29.1269920443342L206.50714149305557,28.995721411329384L206.56046284722223,28.877577841624998L206.85776979166667,28.771248628891072L207.54933159722222,28.928409480287684L207.77069600694443,28.8169971036875L208.83065989583332,28.716725964747326L208.83227569444443,28.626481939701165L208.9259920138889,28.545262317159626L209.2491517361111,28.472164656872224L209.37679982638886,28.406376762613604L209.76782309027777,28.347167657780773L210.15723055555554,28.293879463431267L210.36405277777777,28.245920088516726L210.41737413194443,28.202756651093637L210.7308390625,28.41676670026996L210.82778697916666,28.609375744528677L211.00229322916667,28.529866741504378L211.06046197916666,28.45830863878254L211.0911621527778,28.39390634633287L211.24627881944443,28.335944283128157L211.9846987847222,28.536635569101037L212.05094652777777,28.464400583619522L212.19313680555555,28.39938909668612L212.55184409722222,28.34087875844608L212.79906128472223,28.288219454030042L213.1044472222222,28.240826080055626L213.14968958333333,28.451029186335774L214.0464578125,28.38735483913078L214.35992274305553,28.330047926646273L214.4229388888889,28.278471705410198L214.7444828125,28.23205310629777L215.42311822916668,28.190276367096573L215.65094583333334,28.152677301815487L215.8545364583333,28.118838143062504L216.10013784722221,28.088382900184826L216.4863137152778,28.06097318159493L216.99044288194446,28.036304434864007L217.26028125,28.014102562806187L217.27320763888886,27.994120877954145L217.84358454861112,27.97613736158729L218.28954496527777,27.95995219685713L218.37518229166668,27.9453855486L218.95202239583335,27.932275565168567L218.97141197916667,27.920476580080305L219.37051423611112,27.909857493500823L219.3818248263889,27.90030031557933L219.55309947916666,27.89169885544996L219.81324305555555,27.883957541333558L219.95866493055556,28.38270464434305L220.48218368055555,28.57871989419445L220.75848524305556,28.502276476203576L220.837659375,28.433477400011782L220.89905972222223,28.371558231439195L220.953996875,28.31583097972384L221.01539722222222,28.518533596037173L221.07841336805555,28.700965950719166L221.26584600694443,28.612297927075815L221.39187829861112,28.532496705796802L221.41449947916666,28.46067560664568L221.44196805555558,28.648893760266844L221.61647430555556,28.56543295566874L221.70372743055557,28.74317537438756L222.3920576388889,28.650286408377383L222.69905937500002,28.566686338968225L222.8864920138889,28.49144627649997L223.2419677083333,28.42373022027857L223.28882586805557,28.6156429125364L224.03370902777777,28.53550719271135L224.44896927083335,28.463385044868772L224.49582743055555,28.398475111810455L224.59439114583333,28.592913314915137L225.0855939236111,28.515050554852195L225.35704809027777,28.697831213652677L226.17948958333332,28.60947666371598L226.2037265625,28.52995756877297L226.68361875,28.71124752618141L227.59331336805556,28.621551344991815L227.69026128472223,28.793681924778355L228.13945329861113,28.695742303729105L228.1410690972222,28.607596644784763L228.32042274305556,28.528265551734847L228.36566510416668,28.456867567989946L228.4141390625,28.392609382619526L228.48038680555555,28.587634158643283L228.66781944444446,28.76315645706464L229.17841180555556,28.668269382786775L229.24627534722222,28.58287101593669L229.30444409722222,28.506012485771578L229.77625729166667,28.436839808622977L229.82634704861113,28.627441542046427L230.29977604166666,28.54612595927034L230.4500453125,28.47294193477188L230.46943489583333,28.659933455580386L230.63909375,28.575368681450954L231.17069149305556,28.499260384734413L232.04483854166665,28.43076291768955L232.08361770833335,28.369115197349174L232.1369390625,28.313632249042826L232.84304305555557,28.263697595567123L232.94968576388888,28.218756407439002L232.994928125,28.431166480980806L233.53622065972223,28.622335547168433L233.8254486111111,28.794387706737297L233.90462274305554,28.94923465034927L233.90947013888888,29.08859689960005L233.92724392361112,29.214022923925768L233.9983390625,29.07404920296179L234.36189374999998,29.706644282665593L234.76099600694442,29.517408425827597L236.62562760416665,29.347096154673437L237.01826666666665,29.19381511063466L237.4189847222222,29.055862170999745L237.5046220486111,28.93170452532837L237.68074409722223,28.81996264422409L237.8956453125,28.719394951230242L238.19295225694444,28.628884027535804L238.39977447916667,28.547424196210812L238.48541180555557,28.72696749087541L238.5532753472222,28.635699313216435L238.72939739583333,28.553557953323377L238.74070798611112,28.479630729419625L238.79241354166666,28.41309622790621L238.84411909722223,28.353215176544182L238.9426828125,28.552179373175477L238.9717671875,28.478390007286492L239.3207796875,28.411979577986415L239.63101302083334,28.352210191616336L239.7990560763889,28.55127488674043L239.89923559027778,28.983290255209255L240.1803845486111,28.866389801116924L240.51647065972224,29.014036535290927L240.9915154513889,28.894061453190403L241.05614739583334,29.038941022157076L241.2694328125,29.16933263422709L241.41162309027777,29.03382794223296L241.4310126736111,28.911873719438205L241.44393906250002,28.802114918922967L241.48918142361111,28.703331998459248L241.56673975694446,28.61442737004191L241.6362190972222,28.53441320446626L241.84142552083333,28.462400455448233L242.08702690972223,28.903303267046283L242.25022256944445,28.794401511770218L242.48612916666667,28.696389932021788L242.6380142361111,28.608179510248164L242.8819998263889,28.781647273509066L243.5073138888889,28.68491111758675L243.55578784722223,28.597848577256627L243.86763697916666,28.772349433816686L243.96458489583333,28.676543061863583L244.0049798611111,28.590317327105794L244.78056319444445,28.765571308680933L244.79833697916666,28.923299892098555L245.08594913194446,28.812398474317263L245.1231125,28.71258719831414L245.17320225694445,28.622757049911257L245.40264565972222,28.794767059205867L245.42526684027777,28.69671892471385L246.42059878472222,28.861332746528177L246.6952845486111,29.009485186161072L247.08307621527777,29.395679524687807L247.10892899305554,29.743254429361883L247.32706180555556,29.550357557854255L247.5516578125,29.37675037349743L247.73262725694445,29.220503907576273L248.02023940972222,29.07988208824719L248.0719449652778,28.95332245085106L248.18828246527778,28.83941877719451L248.60839010416666,28.73690547090365L248.8459125,28.644643495241837L249.4421421875,28.561607717146245L249.46314756944446,28.48687551686018L249.6004904513889,28.419616536602746L249.8767920138889,28.359083454371046L250.17409895833333,28.304603680362504L250.2112623263889,28.25557188375481L250.21934131944445,28.21144326680792L250.25165729166667,28.171727511555673L250.42293194444446,28.135983331828697L250.97876666666667,28.103813570074408L251.44411666666667,28.07486078449554L251.85937690972222,28.048803277474576L252.40390104166667,28.02535152115567L252.51862274305557,28.00424494046868L252.64465503472223,27.985249017850407L253.15363159722222,28.22100983035108L253.16171059027778,28.43319456160168L253.18594756944444,28.624160819727223L253.7191611111111,28.54317330918306L253.77086666666668,28.470284549693332L254.08917899305555,28.404684666152576L254.46081267361112,28.34564477096589L254.5949239583333,28.29250886529786L254.62562413194445,28.24468655019666L254.79205138888886,28.20164646660558L254.88415190972222,28.1629103913736L255.24285920138888,28.12804792366481L255.5498609375,28.096671702726894L256.0152109375,28.068433103882768L256.0604532986111,28.043018364923057L256.19941197916665,28.02014509985935L256.81503125,27.99955916130196L256.8505788194445,27.981031816600336L257.33047100694444,27.964357206368874L257.5647618055556,27.949350057160586L257.6390885416667,27.93584362287308L258.4889986111111,27.923687832014338L258.55363055555557,27.912747620241475L258.56655694444447,27.902901429645937L258.6021045138889,27.894039858109892L258.6182625,28.138921586584615L258.74106319444445,28.106457999354745L258.7960003472222,28.077240770847823L258.9365748263889,28.050945265191615L258.9866645833333,28.02727931010105L259.74124253472223,28.005979950519503L260.02723888888886,27.986810526896136L260.1274184027778,27.969558045635097L260.5038994791667,27.95403081250015L260.5135942708333,27.940056302678727L261.5234684027778,27.9274792438394L261.5816371527778,27.916159890884046L261.7383696180556,28.158829616081363L262.05021875,28.124375225901787L262.07768732638885,28.09336627474019L262.079303125,28.065458218694715L262.5624269097222,28.040340968253844L262.6205956597222,28.01773544285703L262.97445555555555,27.997390469999914L263.20228315972224,27.979079994428503L263.6773279513889,27.96260056641421L263.92939253472224,27.947769081201358L264.1604517361111,27.934420744509794L264.29941041666666,27.922407241487406L264.3155684027778,27.91159508876723L264.5433960069444,27.901864151319074L264.6161069444444,27.89310630761574L264.65650190972224,27.885224248282753L264.86009253472224,28.130987537740168L264.9731984375,28.352174498251884L265.2462684027778,28.29838561985528L265.35775850694444,28.24997562929832L265.45309062499996,28.206406637797073L265.64537065972223,28.167194545445938L265.8457296875,28.131903662329933L265.8796614583333,28.10014186752548L267.0608102430555,28.071556252201532L267.5972553819444,28.045829198409933L267.61502916666666,28.022674849997514L267.75721944444444,28.25469307928347L267.8202355902778,28.71636662849798L267.88648333333333,29.384729965648177L268.11431093749997,29.227685540511942L268.7283144097222,29.08634555788933L268.8688888888889,28.959139573528972L269.3487810763889,28.844654187604647L270.31826024305553,28.74161734027274L270.4152081597222,28.648884177674063L270.4313661458333,28.56542433133521L270.6333409722222,28.49031046963026L271.5575777777778,28.67556513695297L271.7611684027778,28.58943719468624L271.92113246527776,28.51192204664619L272.1408810763889,28.44215841341014L272.33800850694445,28.379371143497707L272.4317248263889,28.322862600576514L272.54321493055556,28.272004911947448L272.549678125,28.22623299218128L272.7128737847222,28.18503826439172L272.85183246527777,28.14796300938113L272.87606944444445,28.367452422728718L273.7857640625,28.312135751884426L273.96834930555553,28.515207890981685L274.17517152777776,28.445115673312074L274.19940850694445,28.382032677409455L274.3125144097222,28.32525798109708L274.5031786458333,28.27416075441596L274.585584375,28.228173250402932L274.69707447916664,28.186784496791205L274.70353767361115,28.149534618540656L275.5550635416667,28.11600972811516L275.5857637152778,28.085837326732218L275.71502760416666,28.058682165487568L275.9121550347222,28.03424252036737L276.0818138888889,28.0122468397592L276.37104184027777,27.99245072721189L276.39366302083334,27.97463422591926L276.45183177083334,28.211456517613044L276.5180795138889,28.42459658013746L276.66996458333335,28.3635654935523L276.7491387152778,28.308637515625605L276.77499149305555,28.259202335491636L276.90587118055555,28.21471067337106L277.0399824652778,28.42752532031966L277.18055694444445,28.366201359716285L277.2096413194444,28.31100979517322L277.42777413194443,28.261337387084467L277.64752274305556,28.21663221980458L278.2728368055555,28.176397569252714L278.33262135416663,28.140186383756003L278.76403958333333,28.360453459666104L279.0968940972222,28.3058366851281L279.1566786458333,28.762395873758123L280.1099998263889,28.66758485781088" style="fill: none;" fill="none"></path></g></g></g></g><g opacity="0.2"><g><g><g><path stroke="rgb(255, 112, 67)" stroke-width="2px" d="M32.3854515625,146.65714285714284L32.587426388888886,149.18571428571428L32.687605902777776,149.18571428571428L33.0834765625,149.18571428571428L33.183656076388885,149.18571428571428L33.253135416666666,149.18571428571428L33.264446006944446,149.18571428571428L33.342004340277775,149.18571428571428L33.36300972222222,149.18571428571428L33.47126822916667,149.18571428571428L33.623153298611115,149.18571428571428L33.956007812500005,149.18571428571428L34.47144756944444,149.18571428571428L34.55546909722222,146.65714285714284L34.5667796875,146.65714285714284L34.63787482638889,146.65714285714284L35.04990347222222,146.65714285714284L35.1193828125,146.65714285714284L35.12423020833333,146.65714285714284L35.35044201388889,149.18571428571428L35.41507395833333,149.18571428571428L35.607353993055554,146.65714285714284L36.04523541666667,146.65714285714284L36.177730902777775,146.65714285714284L36.332847569444446,149.18571428571428L36.33446336805555,149.18571428571428L36.65600729166667,146.65714285714284L37.22638420138889,149.18571428571428L37.53661753472222,146.65714285714284L37.5624703125,144.12857142857143L37.657802430555556,149.18571428571428L38.163547395833334,146.65714285714284L38.16677899305556,146.65714285714284L38.247568923611105,146.65714285714284L38.491554513888886,146.65714285714284L38.70968732638889,146.65714285714284L39.292990625,149.18571428571428L39.42710190972222,146.65714285714284L39.57575538194445,146.65714285714284L39.60322395833333,146.65714285714284L39.87306232638888,149.18571428571428L40.054031770833326,149.18571428571428L40.349722916666664,149.18571428571428L40.61309809027778,146.65714285714284L40.95403159722222,149.18571428571428L40.97665277777778,149.18571428571428L41.564803472222216,144.12857142857143L41.79263107638889,144.12857142857143L41.86211041666667,146.65714285714284L41.99622170138888,146.65714285714284L42.33553940972222,149.18571428571428L42.36623958333333,146.65714285714284L43.14182291666667,139.07142857142858L43.1612125,139.07142857142858L43.392271701388886,144.12857142857143L43.57324114583333,144.12857142857143L43.878627083333335,146.65714285714284L44.24541336805556,146.65714285714284L44.37144565972223,146.65714285714284L44.37629305555556,146.65714285714284L44.917585590277774,146.65714285714284L44.97413854166667,139.07142857142858L45.35061961805555,146.65714285714284L45.53482065972223,146.65714285714284L45.60106840277778,146.65714285714284L46.04864461805556,146.65714285714284L46.064802604166665,146.65714285714284L46.21507187500001,146.65714285714284L46.66264809027778,146.65714285714284L46.75474861111111,146.65714285714284L47.27988315972222,144.12857142857143L47.61596927083334,144.12857142857143L47.75492795138889,144.12857142857143L47.775933333333334,144.12857142857143L47.98760295138889,144.12857142857143L49.12027777777778,149.18571428571428L49.249541666666666,149.18571428571428L49.319021006944446,149.18571428571428L49.45636388888889,149.18571428571428L49.73589704861111,144.12857142857143L49.93302447916666,141.6L49.937871875,141.6L50.036435590277776,141.6L50.12368871527778,142.8642857142857L50.25618420138889,141.6L50.95097760416667,131.4857142857143L51.00591475694445,146.65714285714284L51.19819479166667,144.12857142857143L51.317763888888884,141.6L51.65708159722222,136.54285714285714L51.66516059027778,136.54285714285714L51.97216232638888,141.6L52.17575295138889,141.6L53.124226736111105,131.4857142857143L53.37790711805556,131.4857142857143L53.421533680555555,131.4857142857143L54.28760173611111,134.0142857142857L54.324765104166666,134.0142857142857L54.63176684027778,134.0142857142857L55.295860069444444,131.4857142857143L55.41381336805555,131.4857142857143L55.48490850694445,136.54285714285714L55.661030555555556,136.54285714285714L55.96964809027777,136.54285714285714L56.01812204861111,136.54285714285714L56.19747569444444,136.54285714285714L56.34936076388889,128.95714285714286L57.318839930555555,121.37142857142857L57.37377708333334,139.07142857142858L57.78903732638889,128.95714285714286L58.3577984375,126.42857142857143L58.68903715277777,121.37142857142857L59.55510520833334,131.4857142857143L59.89280711805555,123.9L59.942896875,123.9L60.29837256944444,126.42857142857143L60.333920138888885,126.42857142857143L60.66354305555556,118.84285714285714L60.68616423611111,118.84285714285714L62.13068819444444,113.78571428571428L63.20519427083333,106.2L63.29083159722222,113.78571428571428L63.87575069444444,118.84285714285714L64.05187274305555,113.78571428571428L64.07449392361112,113.78571428571428L64.19891041666666,111.25714285714285L64.62548125,111.25714285714285L64.71919756944445,116.31428571428572L64.73373975694444,116.31428571428572L64.85654045138888,116.31428571428572L65.02781510416666,121.37142857142857L65.04074149305556,121.37142857142857L65.15546319444445,121.37142857142857L65.34451163194444,113.78571428571428L65.50447569444444,111.25714285714285L65.56749184027778,111.25714285714285L65.89226736111111,113.78571428571428L65.89711475694445,113.78571428571428L66.01506805555556,111.25714285714285L66.37862274305556,118.84285714285714L66.48203385416667,73.32857142857142L66.62422413194444,116.31428571428572L66.76479861111112,98.61428571428571L67.09442152777778,65.74285714285715L67.61955607638889,78.38571428571429L68.261028125,55.62857142857143L68.39837100694444,65.74285714285715L68.44361336805555,65.74285714285715L69.70393628472222,73.32857142857142L69.72009427083333,73.32857142857142L69.79118940972222,70.8L69.8332001736111,68.27142857142856L69.94307447916667,78.38571428571429L70.064259375,70.8L70.17090208333333,58.15714285714287L70.35348732638889,65.74285714285715L70.56354114583334,48.042857142857144L70.58131493055555,48.042857142857144L70.61363090277777,65.74285714285715L70.9965751736111,55.62857142857143L71.33427708333333,48.042857142857144L71.55240989583334,63.21428571428571L71.55564149305556,63.21428571428571L71.61704184027778,58.15714285714287L72.100165625,48.042857142857144L72.25851388888888,55.62857142857143L72.27144027777778,55.62857142857143L72.55258923611112,60.68571428571428L72.60591059027777,60.68571428571428L73.12135034722222,48.042857142857144L73.2489984375,60.68571428571428L73.34433055555556,60.68571428571428L74.02458177083334,73.32857142857142L74.08113472222222,58.15714285714287L74.20070381944444,45.514285714285705L74.81793888888889,58.15714285714287L75.61614340277778,45.514285714285705L75.61775920138888,45.514285714285705L76.19298350694444,37.928571428571445L76.2010625,37.928571428571445L76.76012881944445,37.928571428571445L76.91847708333334,45.514285714285705L76.97503003472222,37.928571428571445L77.277184375,40.457142857142856L77.4242220486111,40.457142857142856L78.26766892361111,40.457142857142856L78.43732777777777,40.457142857142856L79.12727378472222,50.57142857142857L79.1692845486111,50.57142857142857L79.27592725694444,55.62857142857143L79.5005232638889,63.21428571428571L79.60070277777777,63.21428571428571L79.93678888888888,48.042857142857144L79.96264166666666,48.042857142857144L80.16300069444443,42.985714285714295L80.51524479166666,45.514285714285705L80.79962534722222,37.928571428571445L80.84163611111111,37.928571428571445L81.0726953125,45.514285714285705L81.3199125,45.514285714285705L81.55097170138889,42.985714285714295L81.78041510416666,45.514285714285705L81.93230017361111,42.985714285714295L81.95492135416667,42.985714285714295L83.06335920138888,42.985714285714295L83.12314375,42.985714285714295L83.5319407986111,42.985714285714295L83.82924774305556,40.457142857142856L83.91973246527778,40.457142857142856L84.02960677083333,37.928571428571445L84.35761388888889,32.87142857142857L84.72601597222223,35.400000000000006L84.89890642361111,42.985714285714295L85.08472326388889,42.985714285714295L85.25438211805555,40.457142857142856L85.46766753472222,42.985714285714295L85.48059392361111,42.985714285714295L85.69387934027777,37.928571428571445L85.93140173611111,32.87142857142857L86.07682361111112,37.928571428571445L86.24486666666667,45.514285714285705L86.29010902777777,32.87142857142857L86.82978576388889,40.457142857142856L86.84917534722221,40.457142857142856L86.87987552083334,35.400000000000006L86.90734409722224,35.400000000000006L86.99459722222223,35.400000000000006L87.05438177083333,37.928571428571445L87.11416631944445,37.928571428571445L87.31290954861112,37.928571428571445L87.48256840277777,55.62857142857143L87.83965989583334,35.400000000000006L87.87359166666666,35.400000000000006L88.10303506944445,35.400000000000006L88.22260416666667,37.928571428571445L88.51991111111111,37.928571428571445L89.40860034722223,40.457142857142856L89.44253211805555,40.457142857142856L89.47969548611111,40.457142857142856L89.65097013888888,40.457142857142856L89.79639201388889,40.457142857142856L90.11632013888888,35.400000000000006L90.24235243055556,45.514285714285705L90.41039548611111,35.400000000000006L90.4378640625,45.514285714285705L90.54612256944445,40.457142857142856L90.88382447916666,37.928571428571445L90.9306826388889,37.928571428571445L91.50267534722222,42.985714285714295L91.55114930555555,42.985714285714295L91.72565555555555,32.87142857142857L91.85976684027777,37.928571428571445L91.95186736111111,37.928571428571445L92.42852795138889,42.985714285714295L92.89226215277777,45.514285714285705L93.33660677083334,35.400000000000006L93.51757621527777,37.928571428571445L94.0281685763889,42.985714285714295L94.42727083333332,40.457142857142856L94.45312361111111,40.457142857142856L94.88131024305555,37.928571428571445L95.07520607638888,40.457142857142856L95.30303368055556,35.400000000000006L95.81201024305555,35.400000000000006L96.46802447916667,37.928571428571445L96.59567256944445,37.928571428571445L96.75240503472223,35.400000000000006L96.80249479166666,35.400000000000006L96.9818484375,35.400000000000006L97.42780885416667,37.928571428571445L97.75743177083334,30.342857142857127L98.02080694444444,37.928571428571445L98.02727013888888,37.928571428571445L98.08059149305556,30.342857142857127L98.11290746527779,53.10000000000001L98.2308607638889,37.928571428571445L98.62996302083333,35.400000000000006L98.9595859375,32.87142857142857L99.00321249999999,32.87142857142857L99.11631840277776,40.457142857142856L99.43624652777778,37.928571428571445L99.46209930555555,37.928571428571445L100.3976467013889,32.87142857142857L100.90823906249999,68.27142857142856L100.93732343750001,68.27142857142856L101.27664114583334,37.928571428571445L102.63391197916667,35.400000000000006L102.77771805555555,32.87142857142857L102.82942361111111,37.928571428571445L102.94576111111112,37.928571428571445L102.98938767361112,45.514285714285705L102.99585086805556,42.985714285714295L103.09764618055556,35.400000000000006L103.40141631944445,40.457142857142856L103.53068020833332,37.928571428571445L103.73588663194444,37.928571428571445L103.74719722222221,37.928571428571445L103.81829236111112,30.342857142857127L103.90392968750001,35.400000000000006L104.73121857638888,35.400000000000006L104.97035677083333,30.342857142857127L105.52942309027777,35.400000000000006L105.54396527777777,32.87142857142857L105.62960260416668,32.87142857142857L105.84773541666667,35.400000000000006L106.09172100694444,35.400000000000006L107.15814809027778,32.87142857142857L107.18400086805556,32.87142857142857L107.31164895833334,35.400000000000006L107.4506076388889,35.400000000000006L108.746478125,32.87142857142857L109.20536493055556,37.928571428571445L109.29100225694445,37.928571428571445L109.3410920138889,27.814285714285717L109.39926076388889,37.928571428571445L109.46227690972222,35.400000000000006L109.68525711805556,37.928571428571445L109.79028402777777,37.928571428571445L109.82744739583333,37.928571428571445L109.99872204861111,30.342857142857127L110.16838090277778,30.342857142857127L110.24270763888889,30.342857142857127L110.71936822916666,35.400000000000006L111.23965538194444,27.814285714285717L111.93121718750001,32.87142857142857L112.05886527777778,30.342857142857127L112.26245590277777,30.342857142857127L113.11721336805554,37.928571428571445L113.19800329861111,37.928571428571445L113.34827256944445,27.814285714285717L113.37412534722222,37.928571428571445L113.42259930555555,37.928571428571445L113.54055260416668,30.342857142857127L114.12385590277778,30.342857142857127L114.43085763888888,30.342857142857127L114.68938541666667,27.814285714285717L114.93983420138889,30.342857142857127L115.09010347222222,27.814285714285717L115.17897239583334,32.87142857142857L116.01272447916666,32.87142857142857L116.02565086805555,32.87142857142857L116.2647890625,32.87142857142857L116.34073159722222,32.87142857142857L116.81092899305554,32.87142857142857L116.90949270833335,35.400000000000006L117.16317309027778,32.87142857142857L117.44109045138889,30.342857142857127L117.80302934027777,35.400000000000006L117.85635069444444,35.400000000000006L118.10356788194444,30.342857142857127L118.1278048611111,30.342857142857127L118.71110815972222,27.814285714285717L119.09566822916666,30.342857142857127L119.10697881944445,27.814285714285717L119.11344201388889,27.814285714285717L119.11990520833334,27.814285714285717L119.3477328125,37.928571428571445L119.41882795138888,37.928571428571445L119.68705052083332,35.400000000000006L119.74521927083333,32.87142857142857L119.76945625,32.87142857142857L119.96012048611112,32.87142857142857L120.68722986111112,32.87142857142857L120.87466250000001,35.400000000000006L121.08471631944444,27.814285714285717L121.15742725694444,30.342857142857127L121.49836076388888,30.342857142857127L121.66963541666667,27.814285714285717L122.06389027777777,27.814285714285717L122.07681666666667,27.814285714285717L122.33857604166667,27.814285714285717L122.42421336805556,27.814285714285717L123.346834375,35.400000000000006L123.62152013888888,35.400000000000006L123.64414131944444,27.814285714285717L123.78471579861112,35.400000000000006L124.07394375,30.342857142857127L124.12726510416667,27.814285714285717L124.41649305555555,27.814285714285717L124.9012326388889,30.342857142857127L124.91092743055556,30.342857142857127L125.20015538194444,31.60714285714286L125.6461157986111,30.342857142857127L126.51056805555557,27.814285714285717L126.74485885416668,30.342857142857127L126.93229149305556,30.342857142857127L127.069634375,30.342857142857127L127.19566666666667,27.814285714285717L127.23929322916666,27.814285714285717L127.26676180555556,27.814285714285717L128.07627690972222,32.87142857142857L128.15221944444446,32.87142857142857L128.3477310763889,30.342857142857127L128.6838171875,32.87142857142857L128.73229114583333,30.342857142857127L129.55473263888888,27.814285714285717L129.56442743055555,32.87142857142857L129.599975,32.87142857142857L129.745396875,27.814285714285717L130.03300902777778,30.342857142857127L131.2125420138889,27.814285714285717L131.32726371527778,27.814285714285717L131.58902309027778,27.814285714285717L131.74413975694443,27.814285714285717L131.98004635416666,30.342857142857127L132.72169791666667,35.400000000000006L132.85096180555556,30.342857142857127L133.33085399305554,27.814285714285717L133.38094375,27.814285714285717L133.90930989583333,35.400000000000006L134.1516796875,27.814285714285717L134.46837621527777,30.342857142857127L134.6913564236111,30.342857142857127L134.8044623263889,32.87142857142857L134.806078125,32.87142857142857L134.94180520833334,32.87142857142857L135.19710138888888,30.342857142857127L135.51056631944445,27.814285714285717L135.70930954861112,30.342857142857127L135.88704739583332,27.814285714285717L136.09225381944444,27.814285714285717L136.5543722222222,27.814285714285717L136.57053020833334,27.814285714285717L136.83875277777778,27.814285714285717L137.16514409722222,27.814285714285717L137.7403684027778,27.814285714285717L137.8163109375,30.342857142857127L138.07160711805557,27.814285714285717L138.121696875,30.342857142857127L138.31559270833336,27.814285714285717L138.38345625,27.814285714285717L138.49009895833333,32.87142857142857L138.81002708333332,30.342857142857127L139.03947048611113,30.342857142857127L139.4418043402778,27.814285714285717L140.2319298611111,27.814285714285717L140.49207343749998,27.814285714285717L140.5373157986111,30.342857142857127L140.6100267361111,32.87142857142857L141.28704635416668,27.814285714285717L142.6168486111111,27.814285714285717L142.6459329861111,30.342857142857127L142.8026654513889,30.342857142857127L142.88507118055554,30.342857142857127L143.14521475694445,37.928571428571445L143.6929704861111,30.342857142857127L143.78830260416666,27.814285714285717L144.08399375,27.814285714285717L144.10661493055557,27.814285714285717L144.54288055555557,30.342857142857127L144.5768123263889,27.814285714285717L144.9694513888889,27.814285714285717L145.09709947916667,27.814285714285717L145.28614791666666,32.87142857142857L146.16998975694443,30.342857142857127L146.36065399305556,32.87142857142857L146.4834546875,27.814285714285717L146.9019465277778,27.814285714285717L147.03282621527777,27.814285714285717L147.7308512152778,27.814285714285717L147.93444184027777,27.814285714285717L147.97645260416667,27.814285714285717L148.16388524305557,27.814285714285717L148.41271822916667,30.342857142857127L148.5032029513889,37.928571428571445L148.58560868055554,32.87142857142857L148.62115625,32.87142857142857L148.67447760416667,32.87142857142857L148.71487256944445,32.87142857142857L149.13498020833333,27.814285714285717L149.13821180555556,27.814285714285717L149.3030232638889,27.814285714285717L149.30787065972223,27.814285714285717L149.55670364583332,27.814285714285717L149.82331041666666,27.814285714285717L150.06568020833333,27.814285714285717L150.28542881944443,27.814285714285717L150.56011458333336,30.342857142857127L150.78471059027777,27.814285714285717L151.54575173611113,32.87142857142857L151.55383072916666,32.87142857142857L151.6297732638889,27.814285714285717L151.72672118055556,27.814285714285717L151.7638845486111,27.814285714285717L152.18883958333333,32.87142857142857L152.20015017361112,32.87142857142857L153.34251979166666,27.814285714285717L153.7787854166667,30.342857142857127L154.2602934027778,27.814285714285717L154.2893777777778,27.814285714285717L154.41864166666667,27.814285714285717L155.00194496527777,27.814285714285717L155.27824652777778,35.400000000000006L155.4705265625,30.342857142857127L155.81469166666665,30.342857142857127L155.89709739583336,30.342857142857127L156.12977239583336,27.814285714285717L156.20571493055556,27.814285714285717L156.39476336805555,30.342857142857127L156.58219600694446,27.814285714285717L156.59350659722222,32.87142857142857L157.05400920138888,27.814285714285717L157.59045434027777,27.814285714285717L158.0299515625,27.814285714285717L158.18991562500003,27.814285714285717L158.5680125,27.814285714285717L158.6859657986111,27.814285714285717L158.77806631944443,30.342857142857127L159.6021236111111,30.342857142857127L159.71199791666666,27.814285714285717L159.8364144097222,30.342857142857127L159.85903559027778,30.342857142857127L159.92205173611111,30.342857142857127L159.9737572916667,30.342857142857127L160.46496006944446,27.814285714285717L160.64108211805555,32.87142857142857L160.93031006944446,27.814285714285717L161.54108194444444,27.814285714285717L161.63156666666666,27.814285714285717L161.6380298611111,27.814285714285717L161.74305677083333,27.814285714285717L161.84808368055553,27.814285714285717L162.21163836805556,30.342857142857127L162.23749114583333,30.342857142857127L162.47016614583333,27.814285714285717L162.51217690972223,27.814285714285717L162.5719614583333,27.814285714285717L163.19081232638888,27.814285714285717L163.22151250000002,27.814285714285717L163.38632395833332,27.814285714285717L163.81289479166668,27.814285714285717L163.99548003472222,30.342857142857127L164.0520329861111,27.814285714285717L164.73551579861112,30.342857142857127L166.00230190972223,30.342857142857127L166.05723906249997,30.342857142857127L166.18488715277778,27.814285714285717L166.5500576388889,30.342857142857127L166.63407916666665,30.342857142857127L166.8602909722222,27.814285714285717L167.25293003472223,27.814285714285717L167.6601112847222,27.814285714285717L167.9202548611111,30.342857142857127L168.311278125,27.814285714285717L168.36298368055557,27.814285714285717L168.7055329861111,30.342857142857127L169.01576631944445,27.814285714285717L169.15310920138887,27.814285714285717L169.36639461805555,27.814285714285717L169.69278593750002,32.87142857142857L169.74449149305553,27.814285714285717L169.80427604166667,27.814285714285717L169.93353993055555,27.814285714285717L170.1775255208333,27.814285714285717L170.48129565972224,30.342857142857127L170.53138541666667,27.814285714285717L170.58470677083335,27.814285714285717L170.76890781249998,27.814285714285717L170.870703125,27.814285714285717L171.2520315972222,27.814285714285717L171.29888975694445,27.814285714285717L172.53659149305557,27.814285714285717L172.557596875,27.814285714285717L172.673934375,30.342857142857127L172.90499357638888,27.814285714285717L173.52707604166667,27.814285714285717L173.6191765625,27.814285714285717L173.79045121527776,27.814285714285717L173.89547812499998,27.814285714285717L173.9681890625,27.814285714285717L174.23156423611113,27.814285714285717L174.72923020833335,27.814285714285717L175.5969140625,27.814285714285717L175.82474166666668,30.342857142857127L176.5470036458333,27.814285714285717L176.68434652777776,27.814285714285717L176.71019930555556,27.814285714285717L177.327434375,27.814285714285717L177.35490295138888,27.814285714285717L177.56495677083333,27.814285714285717L177.69583645833333,27.814285714285717L177.79601597222222,30.342857142857127L178.1224072916667,27.814285714285717L178.46657239583334,30.342857142857127L179.47483072916665,27.814285714285717L179.5071467013889,27.814285714285717L179.84000121527777,27.814285714285717L180.1211501736111,30.342857142857127L180.3635199652778,30.342857142857127L180.39583593749998,27.814285714285717L180.40068333333332,27.814285714285717L180.53802621527777,27.814285714285717L180.5428736111111,27.814285714285717L181.1229453125,27.814285714285717L181.16495607638888,27.814285714285717L182.14897743055556,30.342857142857127L182.2443095486111,27.814285714285717L182.79044947916665,30.342857142857127L182.94718194444445,27.814285714285717L183.34789999999998,30.342857142857127L184.04269340277776,27.814285714285717L184.8166609375,30.342857142857127L185.06872552083334,30.342857142857127L185.4694435763889,27.814285714285717L185.6423340277778,27.814285714285717L185.9105565972222,27.814285714285717L186.11576302083333,27.814285714285717L186.33712743055557,30.342857142857127L186.42761215277778,32.87142857142857L186.47931770833333,27.814285714285717L186.59403940972223,30.342857142857127L187.20804288194444,27.814285714285717L187.35184895833333,27.814285714285717L187.38901232638887,27.814285714285717L187.92061006944445,27.814285714285717L188.29870694444446,30.342857142857127L188.4037338541667,27.814285714285717L189.07913767361111,27.814285714285717L189.30211788194444,27.814285714285717L189.4152237847222,30.342857142857127L189.5283296875,30.342857142857127L189.72222552083332,30.342857142857127L189.79332065972224,27.814285714285717L190.01306927083334,27.814285714285717L190.24897586805554,27.814285714285717L190.33622899305558,30.342857142857127L190.46549288194444,27.814285714285717L190.64323072916665,27.814285714285717L190.89044791666666,27.814285714285717L191.0084012152778,27.814285714285717L191.3186345486111,27.814285714285717L191.4317404513889,27.814285714285717L191.51091458333332,27.814285714285717L192.37051944444445,27.814285714285717L193.09924461805556,27.814285714285717L193.27051927083332,27.814285714285717L193.27375086805557,27.814285714285717L193.71001649305555,27.814285714285717L194.3563359375,32.87142857142857L194.81199114583333,27.814285714285717L194.8491545138889,27.814285714285717L195.1109138888889,27.814285714285717L195.28380434027778,27.814285714285717L195.37913645833333,27.814285714285717L195.39367864583332,27.814285714285717L195.50840034722222,27.814285714285717L195.62958524305557,27.814285714285717L195.76369652777777,27.814285714285717L195.89134461805554,27.814285714285717L196.05454027777776,30.342857142857127L196.08685625,30.342857142857127L196.20965694444445,27.814285714285717L196.30175746527777,27.814285714285717L196.31953125,27.814285714285717L197.0046298611111,27.814285714285717L197.03694583333333,30.342857142857127L197.6250965277778,27.814285714285717L197.9514878472222,30.342857142857127L198.00319340277778,27.814285714285717L198.09044652777777,27.814285714285717L198.23586840277778,27.814285714285717L198.55094913194444,27.814285714285717L198.6010388888889,27.814285714285717L198.6899078125,27.814285714285717L198.74646076388888,27.814285714285717L198.76261875,27.814285714285717L199.07769947916665,27.814285714285717L199.4913439236111,27.814285714285717L199.5802128472222,27.814285714285717L200.27500625,27.814285714285717L200.80660399305555,27.814285714285717L200.90032031249999,30.342857142857127L201.49816579861113,30.342857142857127L201.66620885416668,27.814285714285717L201.6888300347222,27.814285714285717L201.71953020833334,32.87142857142857L201.7857779513889,30.342857142857127L201.80839913194444,27.814285714285717L201.8326361111111,27.814285714285717L201.85364149305556,27.814285714285717L201.9166576388889,27.814285714285717L202.12671145833332,27.814285714285717L202.40462881944444,27.814285714285717L202.67769878472222,27.814285714285717L202.96207934027777,27.814285714285717L203.1107328125,30.342857142857127L203.2270703125,27.814285714285717L203.24969149305556,27.814285714285717L203.93155850694444,27.814285714285717L204.0236590277778,27.814285714285717L204.22240225694443,27.814285714285717L204.5067828125,27.814285714285717L204.6683626736111,30.342857142857127L204.83478993055556,30.342857142857127L205.37446666666665,35.400000000000006L206.44250954861113,27.814285714285717L206.50714149305557,27.814285714285717L206.56046284722223,27.814285714285717L206.85776979166667,27.814285714285717L207.54933159722222,30.342857142857127L207.77069600694443,27.814285714285717L208.83065989583332,27.814285714285717L208.83227569444443,27.814285714285717L208.9259920138889,27.814285714285717L209.2491517361111,27.814285714285717L209.37679982638886,27.814285714285717L209.76782309027777,27.814285714285717L210.15723055555554,27.814285714285717L210.36405277777777,27.814285714285717L210.41737413194443,27.814285714285717L210.7308390625,30.342857142857127L210.82778697916666,30.342857142857127L211.00229322916667,27.814285714285717L211.06046197916666,27.814285714285717L211.0911621527778,27.814285714285717L211.24627881944443,27.814285714285717L211.9846987847222,30.342857142857127L212.05094652777777,27.814285714285717L212.19313680555555,27.814285714285717L212.55184409722222,27.814285714285717L212.79906128472223,27.814285714285717L213.1044472222222,27.814285714285717L213.14968958333333,30.342857142857127L214.0464578125,27.814285714285717L214.35992274305553,27.814285714285717L214.4229388888889,27.814285714285717L214.7444828125,27.814285714285717L215.42311822916668,27.814285714285717L215.65094583333334,27.814285714285717L215.8545364583333,27.814285714285717L216.10013784722221,27.814285714285717L216.4863137152778,27.814285714285717L216.99044288194446,27.814285714285717L217.26028125,27.814285714285717L217.27320763888886,27.814285714285717L217.84358454861112,27.814285714285717L218.28954496527777,27.814285714285717L218.37518229166668,27.814285714285717L218.95202239583335,27.814285714285717L218.97141197916667,27.814285714285717L219.37051423611112,27.814285714285717L219.3818248263889,27.814285714285717L219.55309947916666,27.814285714285717L219.81324305555555,27.814285714285717L219.95866493055556,32.87142857142857L220.48218368055555,30.342857142857127L220.75848524305556,27.814285714285717L220.837659375,27.814285714285717L220.89905972222223,27.814285714285717L220.953996875,27.814285714285717L221.01539722222222,30.342857142857127L221.07841336805555,30.342857142857127L221.26584600694443,27.814285714285717L221.39187829861112,27.814285714285717L221.41449947916666,27.814285714285717L221.44196805555558,30.342857142857127L221.61647430555556,27.814285714285717L221.70372743055557,30.342857142857127L222.3920576388889,27.814285714285717L222.69905937500002,27.814285714285717L222.8864920138889,27.814285714285717L223.2419677083333,27.814285714285717L223.28882586805557,30.342857142857127L224.03370902777777,27.814285714285717L224.44896927083335,27.814285714285717L224.49582743055555,27.814285714285717L224.59439114583333,30.342857142857127L225.0855939236111,27.814285714285717L225.35704809027777,30.342857142857127L226.17948958333332,27.814285714285717L226.2037265625,27.814285714285717L226.68361875,30.342857142857127L227.59331336805556,27.814285714285717L227.69026128472223,30.342857142857127L228.13945329861113,27.814285714285717L228.1410690972222,27.814285714285717L228.32042274305556,27.814285714285717L228.36566510416668,27.814285714285717L228.4141390625,27.814285714285717L228.48038680555555,30.342857142857127L228.66781944444446,30.342857142857127L229.17841180555556,27.814285714285717L229.24627534722222,27.814285714285717L229.30444409722222,27.814285714285717L229.77625729166667,27.814285714285717L229.82634704861113,30.342857142857127L230.29977604166666,27.814285714285717L230.4500453125,27.814285714285717L230.46943489583333,30.342857142857127L230.63909375,27.814285714285717L231.17069149305556,27.814285714285717L232.04483854166665,27.814285714285717L232.08361770833335,27.814285714285717L232.1369390625,27.814285714285717L232.84304305555557,27.814285714285717L232.94968576388888,27.814285714285717L232.994928125,30.342857142857127L233.53622065972223,30.342857142857127L233.8254486111111,30.342857142857127L233.90462274305554,30.342857142857127L233.90947013888888,30.342857142857127L233.92724392361112,30.342857142857127L233.9983390625,27.814285714285717L234.36189374999998,35.400000000000006L234.76099600694442,27.814285714285717L236.62562760416665,27.814285714285717L237.01826666666665,27.814285714285717L237.4189847222222,27.814285714285717L237.5046220486111,27.814285714285717L237.68074409722223,27.814285714285717L237.8956453125,27.814285714285717L238.19295225694444,27.814285714285717L238.39977447916667,27.814285714285717L238.48541180555557,30.342857142857127L238.5532753472222,27.814285714285717L238.72939739583333,27.814285714285717L238.74070798611112,27.814285714285717L238.79241354166666,27.814285714285717L238.84411909722223,27.814285714285717L238.9426828125,30.342857142857127L238.9717671875,27.814285714285717L239.3207796875,27.814285714285717L239.63101302083334,27.814285714285717L239.7990560763889,30.342857142857127L239.89923559027778,32.87142857142857L240.1803845486111,27.814285714285717L240.51647065972224,30.342857142857127L240.9915154513889,27.814285714285717L241.05614739583334,30.342857142857127L241.2694328125,30.342857142857127L241.41162309027777,27.814285714285717L241.4310126736111,27.814285714285717L241.44393906250002,27.814285714285717L241.48918142361111,27.814285714285717L241.56673975694446,27.814285714285717L241.6362190972222,27.814285714285717L241.84142552083333,27.814285714285717L242.08702690972223,32.87142857142857L242.25022256944445,27.814285714285717L242.48612916666667,27.814285714285717L242.6380142361111,27.814285714285717L242.8819998263889,30.342857142857127L243.5073138888889,27.814285714285717L243.55578784722223,27.814285714285717L243.86763697916666,30.342857142857127L243.96458489583333,27.814285714285717L244.0049798611111,27.814285714285717L244.78056319444445,30.342857142857127L244.79833697916666,30.342857142857127L245.08594913194446,27.814285714285717L245.1231125,27.814285714285717L245.17320225694445,27.814285714285717L245.40264565972222,30.342857142857127L245.42526684027777,27.814285714285717L246.42059878472222,30.342857142857127L246.6952845486111,30.342857142857127L247.08307621527777,32.87142857142857L247.10892899305554,32.87142857142857L247.32706180555556,27.814285714285717L247.5516578125,27.814285714285717L247.73262725694445,27.814285714285717L248.02023940972222,27.814285714285717L248.0719449652778,27.814285714285717L248.18828246527778,27.814285714285717L248.60839010416666,27.814285714285717L248.8459125,27.814285714285717L249.4421421875,27.814285714285717L249.46314756944446,27.814285714285717L249.6004904513889,27.814285714285717L249.8767920138889,27.814285714285717L250.17409895833333,27.814285714285717L250.2112623263889,27.814285714285717L250.21934131944445,27.814285714285717L250.25165729166667,27.814285714285717L250.42293194444446,27.814285714285717L250.97876666666667,27.814285714285717L251.44411666666667,27.814285714285717L251.85937690972222,27.814285714285717L252.40390104166667,27.814285714285717L252.51862274305557,27.814285714285717L252.64465503472223,27.814285714285717L253.15363159722222,30.342857142857127L253.16171059027778,30.342857142857127L253.18594756944444,30.342857142857127L253.7191611111111,27.814285714285717L253.77086666666668,27.814285714285717L254.08917899305555,27.814285714285717L254.46081267361112,27.814285714285717L254.5949239583333,27.814285714285717L254.62562413194445,27.814285714285717L254.79205138888886,27.814285714285717L254.88415190972222,27.814285714285717L255.24285920138888,27.814285714285717L255.5498609375,27.814285714285717L256.0152109375,27.814285714285717L256.0604532986111,27.814285714285717L256.19941197916665,27.814285714285717L256.81503125,27.814285714285717L256.8505788194445,27.814285714285717L257.33047100694444,27.814285714285717L257.5647618055556,27.814285714285717L257.6390885416667,27.814285714285717L258.4889986111111,27.814285714285717L258.55363055555557,27.814285714285717L258.56655694444447,27.814285714285717L258.6021045138889,27.814285714285717L258.6182625,30.342857142857127L258.74106319444445,27.814285714285717L258.7960003472222,27.814285714285717L258.9365748263889,27.814285714285717L258.9866645833333,27.814285714285717L259.74124253472223,27.814285714285717L260.02723888888886,27.814285714285717L260.1274184027778,27.814285714285717L260.5038994791667,27.814285714285717L260.5135942708333,27.814285714285717L261.5234684027778,27.814285714285717L261.5816371527778,27.814285714285717L261.7383696180556,30.342857142857127L262.05021875,27.814285714285717L262.07768732638885,27.814285714285717L262.079303125,27.814285714285717L262.5624269097222,27.814285714285717L262.6205956597222,27.814285714285717L262.97445555555555,27.814285714285717L263.20228315972224,27.814285714285717L263.6773279513889,27.814285714285717L263.92939253472224,27.814285714285717L264.1604517361111,27.814285714285717L264.29941041666666,27.814285714285717L264.3155684027778,27.814285714285717L264.5433960069444,27.814285714285717L264.6161069444444,27.814285714285717L264.65650190972224,27.814285714285717L264.86009253472224,30.342857142857127L264.9731984375,30.342857142857127L265.2462684027778,27.814285714285717L265.35775850694444,27.814285714285717L265.45309062499996,27.814285714285717L265.64537065972223,27.814285714285717L265.8457296875,27.814285714285717L265.8796614583333,27.814285714285717L267.0608102430555,27.814285714285717L267.5972553819444,27.814285714285717L267.61502916666666,27.814285714285717L267.75721944444444,30.342857142857127L267.8202355902778,32.87142857142857L267.88648333333333,35.400000000000006L268.11431093749997,27.814285714285717L268.7283144097222,27.814285714285717L268.8688888888889,27.814285714285717L269.3487810763889,27.814285714285717L270.31826024305553,27.814285714285717L270.4152081597222,27.814285714285717L270.4313661458333,27.814285714285717L270.6333409722222,27.814285714285717L271.5575777777778,30.342857142857127L271.7611684027778,27.814285714285717L271.92113246527776,27.814285714285717L272.1408810763889,27.814285714285717L272.33800850694445,27.814285714285717L272.4317248263889,27.814285714285717L272.54321493055556,27.814285714285717L272.549678125,27.814285714285717L272.7128737847222,27.814285714285717L272.85183246527777,27.814285714285717L272.87606944444445,30.342857142857127L273.7857640625,27.814285714285717L273.96834930555553,30.342857142857127L274.17517152777776,27.814285714285717L274.19940850694445,27.814285714285717L274.3125144097222,27.814285714285717L274.5031786458333,27.814285714285717L274.585584375,27.814285714285717L274.69707447916664,27.814285714285717L274.70353767361115,27.814285714285717L275.5550635416667,27.814285714285717L275.5857637152778,27.814285714285717L275.71502760416666,27.814285714285717L275.9121550347222,27.814285714285717L276.0818138888889,27.814285714285717L276.37104184027777,27.814285714285717L276.39366302083334,27.814285714285717L276.45183177083334,30.342857142857127L276.5180795138889,30.342857142857127L276.66996458333335,27.814285714285717L276.7491387152778,27.814285714285717L276.77499149305555,27.814285714285717L276.90587118055555,27.814285714285717L277.0399824652778,30.342857142857127L277.18055694444445,27.814285714285717L277.2096413194444,27.814285714285717L277.42777413194443,27.814285714285717L277.64752274305556,27.814285714285717L278.2728368055555,27.814285714285717L278.33262135416663,27.814285714285717L278.76403958333333,30.342857142857127L279.0968940972222,27.814285714285717L279.1566786458333,32.87142857142857L280.1099998263889,27.814285714285717" style="fill: none;" fill="none"></path></g></g></g></g></g></g><g transform="translate(39, 177)" clip-path="url(#clip_1)"><clipPath id="clip_1"><rect width="290" height="23"></rect></clipPath><g><g><line x1="0" y1="0" x2="0" y2="5" style="visibility: inherit;" fill="rgb(0, 0, 0)" stroke="rgb(204, 204, 204)" stroke-width="1px"></line><line x1="32.31597222222222" y1="0" x2="32.31597222222222" y2="5" style="visibility: inherit;" fill="rgb(0, 0, 0)" stroke="rgb(204, 204, 204)" stroke-width="1px"></line><line x1="64.63194444444444" y1="0" x2="64.63194444444444" y2="5" style="visibility: inherit;" fill="rgb(0, 0, 0)" stroke="rgb(204, 204, 204)" stroke-width="1px"></line><line x1="96.94791666666666" y1="0" x2="96.94791666666666" y2="5" style="visibility: inherit;" fill="rgb(0, 0, 0)" stroke="rgb(204, 204, 204)" stroke-width="1px"></line><line x1="129.26388888888889" y1="0" x2="129.26388888888889" y2="5" style="visibility: inherit;" fill="rgb(0, 0, 0)" stroke="rgb(204, 204, 204)" stroke-width="1px"></line><line x1="161.57986111111111" y1="0" x2="161.57986111111111" y2="5" style="visibility: inherit;" fill="rgb(0, 0, 0)" stroke="rgb(204, 204, 204)" stroke-width="1px"></line><line x1="193.89583333333331" y1="0" x2="193.89583333333331" y2="5" style="visibility: inherit;" fill="rgb(0, 0, 0)" stroke="rgb(204, 204, 204)" stroke-width="1px"></line><line x1="226.21180555555557" y1="0" x2="226.21180555555557" y2="5" style="visibility: inherit;" fill="rgb(0, 0, 0)" stroke="rgb(204, 204, 204)" stroke-width="1px"></line><line x1="258.52777777777777" y1="0" x2="258.52777777777777" y2="5" style="visibility: inherit;" fill="rgb(0, 0, 0)" stroke="rgb(204, 204, 204)" stroke-width="1px"></line><line x1="290.84375" y1="0" x2="290.84375" y2="5" style="visibility: inherit;" fill="rgb(0, 0, 0)" stroke="rgb(204, 204, 204)" stroke-width="1px"></line></g><g transform="translate(0, 8)"><text x="0" y="0" dx="0em" dy="0.95em" style="text-anchor: middle; visibility: hidden; font-family: &quot;Helvetica Neue&quot;, sans-serif; font-size: 12px; font-weight: 200;" fill="rgb(50, 49, 63)" stroke="none" stroke-width="1px">-20k</text><text x="32.31597222222222" y="0" dx="0em" dy="0.95em" style="text-anchor: middle; visibility: inherit; font-family: &quot;Helvetica Neue&quot;, sans-serif; font-size: 12px; font-weight: 200;" fill="rgb(50, 49, 63)" stroke="none" stroke-width="1px">0</text><text x="64.63194444444444" y="0" dx="0em" dy="0.95em" style="text-anchor: middle; visibility: inherit; font-family: &quot;Helvetica Neue&quot;, sans-serif; font-size: 12px; font-weight: 200;" fill="rgb(50, 49, 63)" stroke="none" stroke-width="1px">20k</text><text x="96.94791666666666" y="0" dx="0em" dy="0.95em" style="text-anchor: middle; visibility: inherit; font-family: &quot;Helvetica Neue&quot;, sans-serif; font-size: 12px; font-weight: 200;" fill="rgb(50, 49, 63)" stroke="none" stroke-width="1px">40k</text><text x="129.26388888888889" y="0" dx="0em" dy="0.95em" style="text-anchor: middle; visibility: inherit; font-family: &quot;Helvetica Neue&quot;, sans-serif; font-size: 12px; font-weight: 200;" fill="rgb(50, 49, 63)" stroke="none" stroke-width="1px">60k</text><text x="161.57986111111111" y="0" dx="0em" dy="0.95em" style="text-anchor: middle; visibility: inherit; font-family: &quot;Helvetica Neue&quot;, sans-serif; font-size: 12px; font-weight: 200;" fill="rgb(50, 49, 63)" stroke="none" stroke-width="1px">80k</text><text x="193.89583333333331" y="0" dx="0em" dy="0.95em" style="text-anchor: middle; visibility: inherit; font-family: &quot;Helvetica Neue&quot;, sans-serif; font-size: 12px; font-weight: 200;" fill="rgb(50, 49, 63)" stroke="none" stroke-width="1px">100k</text><text x="226.21180555555557" y="0" dx="0em" dy="0.95em" style="text-anchor: middle; visibility: inherit; font-family: &quot;Helvetica Neue&quot;, sans-serif; font-size: 12px; font-weight: 200;" fill="rgb(50, 49, 63)" stroke="none" stroke-width="1px">120k</text><text x="258.52777777777777" y="0" dx="0em" dy="0.95em" style="text-anchor: middle; visibility: inherit; font-family: &quot;Helvetica Neue&quot;, sans-serif; font-size: 12px; font-weight: 200;" fill="rgb(50, 49, 63)" stroke="none" stroke-width="1px">140k</text><text x="290.84375" y="0" dx="0em" dy="0.95em" style="text-anchor: middle; visibility: hidden; font-family: &quot;Helvetica Neue&quot;, sans-serif; font-size: 12px; font-weight: 200;" fill="rgb(50, 49, 63)" stroke="none" stroke-width="1px">160k</text></g><line x1="0" y1="0" x2="290.84375" y2="0" fill="rgb(0, 0, 0)" stroke="rgb(204, 204, 204)" stroke-width="1px"></line></g></g></g></g></svg>