<svg viewBox="0 0 330 200" xmlns="http://www.w3.org/2000/svg"><g><g><g><g><g><line x1="68.3125" y1="177" x2="63.3125" y2="177" style="visibility: inherit;" fill="rgb(0, 0, 0)" stroke="rgb(204, 204, 204)" stroke-width="1px"></line><line x1="68.3125" y1="163.3846153846154" x2="63.3125" y2="163.3846153846154" style="visibility: inherit;" fill="rgb(0, 0, 0)" stroke="rgb(204, 204, 204)" stroke-width="1px"></line><line x1="68.3125" y1="149.76923076923077" x2="63.3125" y2="149.76923076923077" style="visibility: inherit;" fill="rgb(0, 0, 0)" stroke="rgb(204, 204, 204)" stroke-width="1px"></line><line x1="68.3125" y1="136.15384615384616" x2="63.3125" y2="136.15384615384616" style="visibility: inherit;" fill="rgb(0, 0, 0)" stroke="rgb(204, 204, 204)" stroke-width="1px"></line><line x1="68.3125" y1="122.53846153846153" x2="63.3125" y2="122.53846153846153" style="visibility: inherit;" fill="rgb(0, 0, 0)" stroke="rgb(204, 204, 204)" stroke-width="1px"></line><line x1="68.3125" y1="108.92307692307692" x2="63.3125" y2="108.92307692307692" style="visibility: inherit;" fill="rgb(0, 0, 0)" stroke="rgb(204, 204, 204)" stroke-width="1px"></line><line x1="68.3125" y1="95.3076923076923" x2="63.3125" y2="95.3076923076923" style="visibility: inherit;" fill="rgb(0, 0, 0)" stroke="rgb(204, 204, 204)" stroke-width="1px"></line><line x1="68.3125" y1="81.6923076923077" x2="63.3125" y2="81.6923076923077" style="visibility: inherit;" fill="rgb(0, 0, 0)" stroke="rgb(204, 204, 204)" stroke-width="1px"></line><line x1="68.3125" y1="68.07692307692307" x2="63.3125" y2="68.07692307692307" style="visibility: inherit;" fill="rgb(0, 0, 0)" stroke="rgb(204, 204, 204)" stroke-width="1px"></line><line x1="68.3125" y1="54.46153846153847" x2="63.3125" y2="54.46153846153847" style="visibility: inherit;" fill="rgb(0, 0, 0)" stroke="rgb(204, 204, 204)" stroke-width="1px"></line><line x1="68.3125" y1="40.84615384615384" x2="63.3125" y2="40.84615384615384" style="visibility: inherit;" fill="rgb(0, 0, 0)" stroke="rgb(204, 204, 204)" stroke-width="1px"></line><line x1="68.3125" y1="27.230769230769226" x2="63.3125" y2="27.230769230769226" style="visibility: inherit;" fill="rgb(0, 0, 0)" stroke="rgb(204, 204, 204)" stroke-width="1px"></line><line x1="68.3125" y1="13.615384615384613" x2="63.3125" y2="13.615384615384613" style="visibility: inherit;" fill="rgb(0, 0, 0)" stroke="rgb(204, 204, 204)" stroke-width="1px"></line><line x1="68.3125" y1="0" x2="63.3125" y2="0" style="visibility: inherit;" fill="rgb(0, 0, 0)" stroke="rgb(204, 204, 204)" stroke-width="1px"></line></g><g transform="translate(58.3125, 0)"><text x="0" y="177" dx="0em" dy="0.3em" style="text-anchor: end; visibility: hidden; font-family: &quot;Helvetica Neue&quot;, sans-serif; font-size: 12px; font-weight: 200;" fill="rgb(50, 49, 63)" stroke="none" stroke-width="1px">-2e+4</text><text x="0" y="163.3846153846154" dx="0em" dy="0.3em" style="text-anchor: end; visibility: inherit; font-family: &quot;Helvetica Neue&quot;, sans-serif; font-size: 12px; font-weight: 200;" fill="rgb(50, 49, 63)" stroke="none" stroke-width="1px">0</text><text x="0" y="149.76923076923077" dx="0em" dy="0.3em" style="text-anchor: end; visibility: hidden; font-family: &quot;Helvetica Neue&quot;, sans-serif; font-size: 12px; font-weight: 200;" fill="rgb(50, 49, 63)" stroke="none" stroke-width="1px">2e+4</text><text x="0" y="136.15384615384616" dx="0em" dy="0.3em" style="text-anchor: end; visibility: inherit; font-family: &quot;Helvetica Neue&quot;, sans-serif; font-size: 12px; font-weight: 200;" fill="rgb(50, 49, 63)" stroke="none" stroke-width="1px">4e+4</text><text x="0" y="122.53846153846153" dx="0em" dy="0.3em" style="text-anchor: end; visibility: hidden; font-family: &quot;Helvetica Neue&quot;, sans-serif; font-size: 12px; font-weight: 200;" fill="rgb(50, 49, 63)" stroke="none" stroke-width="1px">6e+4</text><text x="0" y="108.92307692307692" dx="0em" dy="0.3em" style="text-anchor: end; visibility: inherit; font-family: &quot;Helvetica Neue&quot;, sans-serif; font-size: 12px; font-weight: 200;" fill="rgb(50, 49, 63)" stroke="none" stroke-width="1px">8e+4</text><text x="0" y="95.3076923076923" dx="0em" dy="0.3em" style="text-anchor: end; visibility: hidden; font-family: &quot;Helvetica Neue&quot;, sans-serif; font-size: 12px; font-weight: 200;" fill="rgb(50, 49, 63)" stroke="none" stroke-width="1px">1e+5</text><text x="0" y="81.6923076923077" dx="0em" dy="0.3em" style="text-anchor: end; visibility: inherit; font-family: &quot;Helvetica Neue&quot;, sans-serif; font-size: 12px; font-weight: 200;" fill="rgb(50, 49, 63)" stroke="none" stroke-width="1px">1.2e+5</text><text x="0" y="68.07692307692307" dx="0em" dy="0.3em" style="text-anchor: end; visibility: hidden; font-family: &quot;Helvetica Neue&quot;, sans-serif; font-size: 12px; font-weight: 200;" fill="rgb(50, 49, 63)" stroke="none" stroke-width="1px">1.4e+5</text><text x="0" y="54.46153846153847" dx="0em" dy="0.3em" style="text-anchor: end; visibility: inherit; font-family: &quot;Helvetica Neue&quot;, sans-serif; font-size: 12px; font-weight: 200;" fill="rgb(50, 49, 63)" stroke="none" stroke-width="1px">1.6e+5</text><text x="0" y="40.84615384615384" dx="0em" dy="0.3em" style="text-anchor: end; visibility: hidden; font-family: &quot;Helvetica Neue&quot;, sans-serif; font-size: 12px; font-weight: 200;" fill="rgb(50, 49, 63)" stroke="none" stroke-width="1px">1.8e+5</text><text x="0" y="27.230769230769226" dx="0em" dy="0.3em" style="text-anchor: end; visibility: inherit; font-family: &quot;Helvetica Neue&quot;, sans-serif; font-size: 12px; font-weight: 200;" fill="rgb(50, 49, 63)" stroke="none" stroke-width="1px">2e+5</text><text x="0" y="13.615384615384613" dx="0em" dy="0.3em" style="text-anchor: end; visibility: hidden; font-family: &quot;Helvetica Neue&quot;, sans-serif; font-size: 12px; font-weight: 200;" fill="rgb(50, 49, 63)" stroke="none" stroke-width="1px">2.2e+5</text><text x="0" y="0" dx="0em" dy="0.3em" style="text-anchor: end; visibility: hidden; font-family: &quot;Helvetica Neue&quot;, sans-serif; font-size: 12px; font-weight: 200;" fill="rgb(50, 49, 63)" stroke="none" stroke-width="1px">2.4e+5</text></g><line x1="68.3125" y1="0" x2="68.3125" y2="177" fill="rgb(0, 0, 0)" stroke="rgb(204, 204, 204)" stroke-width="1px"></line></g></g><g transform="translate(68, 0)" clip-path="url(#clip_0)"><clipPath id="clip_0"><rect width="261" height="177"></rect></clipPath><g><g><g><line x1="0" y1="0" x2="0" y2="177" fill="rgb(0, 0, 0)" stroke="rgb(60, 60, 60)" stroke-width="1px" opacity="0.25"></line><line x1="29.076388888888886" y1="0" x2="29.076388888888886" y2="177" fill="rgb(0, 0, 0)" stroke="rgb(60, 60, 60)" stroke-width="1px" opacity="0.25"></line><line x1="58.15277777777777" y1="0" x2="58.15277777777777" y2="177" fill="rgb(0, 0, 0)" stroke="rgb(60, 60, 60)" stroke-width="1px" opacity="0.25"></line><line x1="87.22916666666666" y1="0" x2="87.22916666666666" y2="177" fill="rgb(0, 0, 0)" stroke="rgb(60, 60, 60)" stroke-width="1px" opacity="0.25"></line><line x1="116.30555555555554" y1="0" x2="116.30555555555554" y2="177" fill="rgb(0, 0, 0)" stroke="rgb(60, 60, 60)" stroke-width="1px" opacity="0.25"></line><line x1="145.38194444444446" y1="0" x2="145.38194444444446" y2="177" fill="rgb(0, 0, 0)" stroke="rgb(60, 60, 60)" stroke-width="1px" opacity="0.25"></line><line x1="174.45833333333331" y1="0" x2="174.45833333333331" y2="177" fill="rgb(0, 0, 0)" stroke="rgb(60, 60, 60)" stroke-width="1px" opacity="0.25"></line><line x1="203.53472222222223" y1="0" x2="203.53472222222223" y2="177" fill="rgb(0, 0, 0)" stroke="rgb(60, 60, 60)" stroke-width="1px" opacity="0.25"></line><line x1="232.6111111111111" y1="0" x2="232.6111111111111" y2="177" fill="rgb(0, 0, 0)" stroke="rgb(60, 60, 60)" stroke-width="1px" opacity="0.25"></line><line x1="261.6875" y1="0" x2="261.6875" y2="177" fill="rgb(0, 0, 0)" stroke="rgb(60, 60, 60)" stroke-width="1px" opacity="0.25"></line></g><g><line x1="0" y1="177" x2="261.6875" y2="177" fill="rgb(0, 0, 0)" stroke="rgb(60, 60, 60)" stroke-width="1px" opacity="0.25"></line><line x1="0" y1="163.3846153846154" x2="261.6875" y2="163.3846153846154" fill="rgb(0, 0, 0)" stroke="rgb(60, 60, 60)" stroke-width="1px" opacity="0.25"></line><line x1="0" y1="149.76923076923077" x2="261.6875" y2="149.76923076923077" fill="rgb(0, 0, 0)" stroke="rgb(60, 60, 60)" stroke-width="1px" opacity="0.25"></line><line x1="0" y1="136.15384615384616" x2="261.6875" y2="136.15384615384616" fill="rgb(0, 0, 0)" stroke="rgb(60, 60, 60)" stroke-width="1px" opacity="0.25"></line><line x1="0" y1="122.53846153846153" x2="261.6875" y2="122.53846153846153" fill="rgb(0, 0, 0)" stroke="rgb(60, 60, 60)" stroke-width="1px" opacity="0.25"></line><line x1="0" y1="108.92307692307692" x2="261.6875" y2="108.92307692307692" fill="rgb(0, 0, 0)" stroke="rgb(60, 60, 60)" stroke-width="1px" opacity="0.25"></line><line x1="0" y1="95.3076923076923" x2="261.6875" y2="95.3076923076923" fill="rgb(0, 0, 0)" stroke="rgb(60, 60, 60)" stroke-width="1px" opacity="0.25"></line><line x1="0" y1="81.6923076923077" x2="261.6875" y2="81.6923076923077" fill="rgb(0, 0, 0)" stroke="rgb(60, 60, 60)" stroke-width="1px" opacity="0.25"></line><line x1="0" y1="68.07692307692307" x2="261.6875" y2="68.07692307692307" fill="rgb(0, 0, 0)" stroke="rgb(60, 60, 60)" stroke-width="1px" opacity="0.25"></line><line x1="0" y1="54.46153846153847" x2="261.6875" y2="54.46153846153847" fill="rgb(0, 0, 0)" stroke="rgb(60, 60, 60)" stroke-width="1px" opacity="0.25"></line><line x1="0" y1="40.84615384615384" x2="261.6875" y2="40.84615384615384" fill="rgb(0, 0, 0)" stroke="rgb(60, 60, 60)" stroke-width="1px" opacity="0.25"></line><line x1="0" y1="27.230769230769226" x2="261.6875" y2="27.230769230769226" fill="rgb(0, 0, 0)" stroke="rgb(60, 60, 60)" stroke-width="1px" opacity="0.25"></line><line x1="0" y1="13.615384615384613" x2="261.6875" y2="13.615384615384613" fill="rgb(0, 0, 0)" stroke="rgb(60, 60, 60)" stroke-width="1px" opacity="0.25"></line><line x1="0" y1="0" x2="261.6875" y2="0" fill="rgb(0, 0, 0)" stroke="rgb(60, 60, 60)" stroke-width="1px" opacity="0.25"></line></g></g></g><g><g><line x1="0" y1="163.3846153846154" x2="261.6875" y2="163.3846153846154" fill="rgb(0, 0, 0)" stroke="rgb(153, 153, 153)" stroke-width="1.5px"></line></g></g><g><g><line x1="29.076388888888886" y1="0" x2="29.076388888888886" y2="177" fill="rgb(0, 0, 0)" stroke="rgb(153, 153, 153)" stroke-width="1.5px"></line></g></g><g><g><g><g><g><path stroke="rgb(255, 112, 67)" stroke-width="2px" d="M29.138903125000002,160.7976923076923L29.320630555555557,160.65437246963563L29.41076736111111,159.52658813511212L29.766953125,159.81702037712216L29.857089930555556,159.29179107113004L29.919604166666666,159.51147797822685L29.92978090277778,159.66667657066898L29.999564236111112,159.8174506893489L30.01846388888889,159.9330167364209L30.115869791666665,159.99260897681788L30.252528819444446,160.0206465743217L30.552015625000003,159.7115007837975L31.015784027777777,159.48289637912814L31.09138263888889,159.6445492778045L31.101559375,159.73832502084468L31.165527430555557,159.68452287194958L31.53625138888889,159.4913095937415L31.598765625,159.5809392585221L31.60312708333333,159.65865068658584L31.806661805555553,159.73407026224152L31.86481458333333,159.85350039071614L32.03781909722222,159.88272013470143L32.431804166666666,159.9681758549944L32.55101736111111,159.9991355027859L32.69058402777778,160.02649368307246L32.692037847222224,160.05071710200662L32.981347916666664,160.10834244414198L33.49454618055555,159.8937384911032L33.77367951388889,159.9385927184421L33.796940625,159.9785423420298L33.88271597222222,159.99292930764184L34.33776145833333,160.04806813128218L34.340669097222225,160.097321875762L34.413360069444444,160.10634052235088L34.63288680555555,160.1004434731897L34.82915243055555,160.38767774665402L35.35398125,160.36699052703446L35.47464826388889,160.38312434585387L35.608399652777784,160.37682382108488L35.63311458333333,160.3711733039596L35.875902430555556,160.40060129422892L36.03873020833333,160.4201210188516L36.30477916666666,160.40323465424314L36.54175173611111,160.42931798425496L36.84850763888889,160.17803918749206L36.868861111111116,160.23363350990292L37.39805138888889,160.17388622805066L37.60303993055556,160.2229637160176L37.665554166666666,160.25337998217478L37.78622118055555,160.0343748190388L38.09152326388889,160.0700257773807L38.119145833333334,159.87648448106086L38.81697916666667,159.9347858463691L38.834425,159.98721531554605L39.042321180555554,159.76805760091057L39.20514895833333,159.84399829841897L39.47992083333334,160.14433881838207L39.80993784722222,160.20299660914637L39.92333576388889,160.19437203542645L39.92769722222222,160.23435283163255L40.414726736111106,160.0316666653306L40.46561041666667,160.29245652194177L40.80435034722222,160.08401472980196L40.97008576388889,160.35993857612954L41.02969236111111,160.39013060193054L41.43240034722223,160.1651719358669L41.44693854166666,159.96274999048546L41.58214375,160.00543108449142L41.98485173611111,159.81221499773295L42.06771944444445,160.10837137094157L42.540210763888886,160.09560395711318L42.84260520833334,160.145414995784L42.96763368055556,160.16299691181663L42.986533333333334,160.19925058599785L43.17698368055556,160.20463521195538L44.196111111111115,160.24353079643254L44.312416666666664,159.99933530290826L44.374930902777784,160.0315258397161L44.49850555555555,159.78131251659917L44.75001631944444,159.82169008640864L44.92738229166667,159.64694825725886L44.931743749999995,159.4896871403839L45.02042673611111,159.57284705566687L45.098932986111116,159.42300240966236L45.21814618055556,159.28814630977575L45.843288541666666,159.1463536773177L45.89271840277778,159.30469639417677L46.06572291666667,159.37911836924087L46.17330555555555,159.50056296541544L46.47860763888889,159.3579573440174L46.485876736111116,159.22961434893108L46.76210243055555,159.3387750342663L46.945283680555555,159.47105872314154L47.79867569444444,159.59011264729136L48.026925347222225,159.67683605278194L48.06617847222222,159.76169434442545L48.845425694444444,159.80402645236973L48.87886354166667,159.8421250564565L49.15508923611111,159.64494519304597L49.75260902777778,159.73299147391222L49.85873784722222,159.78500126213615L49.92270590277778,159.81819415775112L50.08117222222222,159.61660160771785L50.358851736111106,159.69726977582184L50.40246631944444,159.76987086000943L50.56384027777778,160.08369589621276L50.70049930555555,160.11424977167817L51.57279097222222,160.155363726138L51.62222083333334,160.1855584334715L51.99585243055556,160.1650793235363L52.507596875,160.43938136986606L52.80562986111111,160.44117401555818L53.58487708333334,160.43597965585545L53.88872534722222,160.44492020613467L53.93379375,160.2215038867887L54.25363402777778,160.48335478690876L54.28561805555555,160.49436551083815L54.58219722222222,160.49065971421112L54.602550694444446,160.48732450005386L55.90226527777777,160.51836138104343L56.86905520833333,160.27398607116743L56.94610763888889,160.06085613733825L57.47239027777778,160.10730909449873L57.63085659722222,160.14230902843428L57.651210069444446,160.16700124959797L57.763154166666666,160.21645505566235L58.1469625,160.48561765813577L58.23128402777778,160.50320976293057L58.24436840277778,160.5190426525995L58.35485868055555,160.26098425062008L58.50896354166667,160.25338581785803L58.52059409722222,160.24654722983522L58.62381527777778,160.2403925017997L58.79391215277778,160.28931482622252L58.937840277777774,160.5648066036904L58.99453923611111,160.3157873327733L59.28675694444445,160.0848623212858L59.29111840277778,159.87702983457623L59.39724722222222,159.9486730362172L59.724356597222226,159.9995365217953L59.81740104166666,160.072544433874L59.94533715277778,160.1110207719531L60.07181944444445,160.16607255666779L60.36839861111111,160.16796530148855L60.840889930555555,160.1968995472782L61.41805625,159.99828647418784L61.541630902777776,160.25522710578653L61.58233784722222,160.513704438891L62.71631701388889,160.49444937668858L62.73085520833333,160.48392751450245L62.79482326388889,160.46084245251575L62.83262256944444,160.4809120556434L62.93148229166666,160.48535931206132L63.040518750000004,160.44851568523842L63.136470833333334,160.46981796459033L63.300752430555555,160.48899001567992L63.48974895833334,160.48582178313526L63.50574097222222,160.45573960304907L63.53481736111111,160.4831271826582L63.87937256944444,160.21504522082728L64.18322083333334,160.00100222801123L64.37948645833333,160.02620969849238L64.38239409722223,160.04889642174024L64.43763923611111,160.0829298575551L64.87233125,159.88209840460075L65.01480555555555,159.68092702057618L65.02643611111111,159.49987277592362L65.27940069444445,159.56838549973895L65.3273767361111,159.6300469509053L65.79114513888888,159.44046532958268L65.905996875,159.3038803330401L65.99177222222222,159.16733845174159L66.60383020833333,159.0444507589226L66.65471388888889,158.9474672204329L66.76229652777776,158.86698972836797L67.31765555555556,158.78094460092396L68.03584236111111,158.6898886016452L68.03729618055554,158.60793820243202L68.55485590277777,158.50695207384538L68.56212500000001,158.41606455824112L69.06514652777778,158.35468887132723L69.20762083333334,158.29264306082595L69.2585045138889,158.20276336974774L69.53036875,158.15250626335086L69.66266631944444,158.1038710214645L70.42156006944444,157.80140699530835L70.57421111111111,157.78107398802877L71.19499201388888,157.49046658849994L71.23279131944444,157.50803531430483L71.32874340277777,157.49661639823586L71.53082430555556,157.39443552745698L71.6209611111111,157.1765304358926L71.92335555555556,156.89872354573973L71.94661666666666,156.71677426784728L72.12689027777778,156.8185199181072L72.44382291666666,156.67182177229256L72.69969513888888,156.5329857487751L72.73749444444445,156.41484101994854L72.945390625,156.27447230245903L73.16782500000001,156.1277173798019L73.37572118055556,156.0160610263662L73.58216354166667,156.18787800075086L73.71882256944444,156.0702055852306L73.73917604166667,156.22299271908597L74.73649618055555,156.14265498560545L74.7902875,156.26777410247644L75.15810381944445,156.40080438458136L75.42560659722223,156.50691625384778L75.50702048611112,156.62284001311005L75.60588020833333,156.22340216554696L75.90100555555556,156.0885619489624L76.2324763888889,155.96720575404197L76.38803506944444,155.85117748630927L76.55522430555556,155.78079050689774L76.70787534722221,155.96251914854207L76.89977951388889,155.635921079799L76.91141006944444,155.34198281793837L77.10331423611112,155.56078453616772L77.31702569444445,155.79855223641974L77.44786944444445,155.99892778202573L77.59906666666666,156.13841961921855L77.63977361111111,156.0120776572879L78.12534930555556,156.1638698915686L78.14279513888889,156.17794444087409L78.17041770833333,156.31314999679353L78.1951326388889,156.1761426894156L78.27363888888888,156.08687457431654L78.32743020833334,155.95207173226453L78.38122152777778,156.10305686673541L78.56004131944445,155.7555973338976L78.71269236111111,155.89899913897327L79.03398645833333,155.83404153276666L79.06451666666666,155.77898353333495L79.27095902777778,155.49116210307272L79.37854166666666,155.43635358507217L79.64604444444444,155.4346797650265L80.44564513888889,155.3923271731386L80.47617534722222,155.35420984043964L80.50961319444446,155.32671193331845L80.66371805555555,155.28834843229387L80.79456180555555,155.28105205060288L81.08241805555555,155.492331460929L81.19581597222222,155.47144446868208L81.34701319444444,155.39137694489025L81.371728125,155.3737777119396L81.46913402777778,155.357938402284L81.77298229166666,155.32325994667082L81.81514305555555,155.55754933662016L82.3297951388889,155.51652517218875L82.37340972222222,155.49321880881595L82.53042222222221,155.47224308178045L82.6510892361111,155.4533649274485L82.73395694444444,155.17087458854905L83.16283368055555,155.1617102066172L83.58007986111112,154.9356161090319L83.97988020833334,154.9295544981287L84.1427079861111,154.94452212523893L84.60211493055556,154.71972375886855L84.96120833333333,154.50378984451984L84.98446944444444,154.30944932160608L85.36973159722223,154.14135054329142L85.54418993055555,154.21471548896236L85.74917847222223,154.04247470929676L86.20713159722222,154.11891954605943L86.79738229166666,153.97668143760723L86.91223402777777,153.56955175538468L87.05325451388889,152.91721196446122L87.09832291666666,153.1266061526306L87.259696875,152.79767630659813L87.66095104166668,152.7126779067075L87.95753020833334,152.45917934680588L88.19450277777777,152.4284537198176L88.20031805555556,152.41781988629737L88.24829409722223,152.4524994361292L88.27737048611111,152.48371103097782L88.38349930555556,152.43010915864926L88.74259270833333,152.39548285816895L89.039171875,151.54739611081342L89.078425,150.7909257305012L89.18019236111111,150.98148700360494L89.46804861111112,151.1529921493983L89.49130972222223,151.0418467806123L90.33307118055556,150.6695082563972L90.79247812499999,150.83136512306518L90.81864687500001,149.6903824569124L91.12394895833333,149.42595959583653L92.34515729166667,149.4058251747144L92.47454722222223,149.48301188801221L92.52106944444445,149.77713377613406L92.62574444444445,149.50403578313603L92.66499756944445,149.77563220482244L92.67081284722222,150.0200689843402L92.76240347222222,149.19167747052154L93.03572152777778,149.29027895423863L93.15202708333332,148.60294336650705L93.33666215277778,148.97145672216405L93.34683888888888,149.30311874225535L93.41080694444445,149.62203763726058L93.487859375,148.06418002738064L94.23221493055556,148.48656971695027L94.44738020833333,148.8258742837168L94.9504017361111,148.3824022399605L94.96348611111111,147.98327740057982L95.04053854166668,147.1134881220603L95.23680416666667,146.82083161754656L95.45633090277778,146.77528691733036L96.41585173611111,146.1964889948281L96.43911284722222,145.67557086457606L96.55396458333334,146.57509070119536L96.67899305555557,145.84612009261429L97.84495625,146.21120039104517L98.25784097222223,144.96038804424833L98.33489340277778,145.4140415475158L98.37996180555557,144.77394508507194L98.43229930555556,144.19785826887244L98.48899826388889,142.63780321121595L98.68962534722222,142.79271519778666L98.78412361111111,142.70748213954647L98.81756145833333,142.63077238713026L98.97166631944445,143.58969514841723L99.12431736111111,142.2674564028063L99.19119305555556,142.14624922406412L99.62006979166667,141.8465473785808L100.08819965277777,141.5768157176458L100.710434375,141.24555722280428L100.82528611111111,141.26738611590847L101.00846736111112,140.2658782735484L101.77753784722222,141.48852121542433L101.85022881944445,141.79239986311265L101.98543402777779,140.4116214152629L102.00869513888888,141.1023054275828L102.05230972222222,141.11803642328604L102.15843854166667,141.4793866271113L102.68326736111112,141.1238325797848L102.95949305555555,140.09583393719092L103.19210416666667,139.93990438962567L103.41744618055556,139.26176010450925L103.55265138888889,140.03339178636602L103.63261145833334,139.1348603000371L104.38278229166666,138.2444896546488L104.39441284722221,137.4431560737993L104.609578125,138.1651866202655L104.67790763888888,136.90886026593125L105.10096909722222,135.23355116241507L105.18965208333334,135.49577296925048L105.41790173611112,136.06534951847928L105.66795868055556,136.91154533586212L105.99361423611111,136.00523695612208L106.04159027777777,135.189559414356L106.26402465277778,135.07494962676657L106.28583194444444,134.97180081793607L106.81066076388888,134.48412073614244L107.15666979166666,134.0588240471436L107.16684652777778,133.6760570270446L107.17266180555555,133.33156670895553L107.17847708333333,133.02152542267538L107.383465625,134.07679595733092L107.44743368055555,135.0265394385209L107.68876770833333,134.6355008792842L107.74110520833334,134.28356617597115L107.7629125,133.96682494298943L107.93446319444445,134.73695014099818L108.58868194444445,133.76898589612912L108.75732500000001,132.89781807574698L108.94632152777777,133.27107472971073L109.01174340277778,133.60700571827812L109.31849930555555,133.10603591568108L109.47260416666667,133.16574001642067L109.82733611111111,132.695281399394L109.83896666666666,132.27186864406997L110.07448541666668,132.68048947197065L110.15153784722223,133.0482482170813L110.98166875,132.52146185691163L111.22881805555555,131.6797387481435L111.24917152777778,132.65134179640611L111.37565381944445,132.40932300138087L111.6358875,132.37190993201202L111.68386354166667,132.33823816958005L111.94409722222221,131.55568358339127L112.38024305555555,129.54430753274443L112.38896597222222,127.73406908716231L112.64919965277777,127.6774314092153L113.05045381944444,126.40107288367838L113.82824722222223,124.91877328761825L114.03905104166667,127.4106267280872L114.20769409722223,129.65329482450926L114.33126875,129.20731149590446L114.44466666666668,128.84677265400632L114.48391979166666,128.522287696298L114.50863472222223,128.2302512343605L115.23699826388888,129.1859953416937L115.30532777777779,127.47285734598586L115.48123993055555,127.47637930369496L115.783634375,126.59454906563315L115.82724895833333,128.28570954368521L116.56724305555555,126.93490782008593L116.57596597222222,126.95818626884657L116.60795,126.97913687273115L116.73879375,127.61749241622726L116.99757361111111,127.38870471306608L118.05886180555557,128.4966803956056L118.1620829861111,128.22082004835275L118.39760173611111,127.97254573582518L118.53716840277778,129.0085219314734L118.74942604166667,127.29951589217222L119.41672916666666,126.06775661064731L119.53303472222223,127.36228864189027L119.96481909722222,125.8179059315474L120.0098875,125.3197691845465L120.48528645833332,125.53859995839954L120.703359375,124.97308611640574L120.98830798611111,123.71527750476517L121.18893506944444,121.94332667736558L121.29070243055556,121.08380170193672L121.29215625,120.31022922405074L121.41427708333335,120.84620630164565L121.64398055555556,122.69693182532725L121.92602152777778,124.28089248894835L122.10484131944445,125.46138016313046L122.26476145833334,123.95731906989433L122.44939652777778,124.22389485521259L122.86518888888888,125.43731306199902L122.87972708333334,124.10585098656836L123.12106111111112,124.20099665714227L123.41473263888888,125.64816622219729L123.93229236111111,126.06561883074679L124.000621875,126.44132617844133L124.23032534722223,125.72427048367413L124.27539374999999,125.07892035838364L124.44985208333334,125.40352832254527L124.5109125,124.06863702875229L124.60686458333333,122.8672348643386L124.89472083333334,120.7784344548278L125.10116319444445,118.75555254780657L125.46316423611111,120.72684344687207L126.17408194444444,120.61527448680025L126.408146875,116.79105473042792L126.44885381944444,116.50121848815436L126.51427569444445,116.6284043316466L127.12342604166668,116.15060236002041L128.31991944444445,118.681926739403L128.34608819444443,120.9601186808473L128.48710868055556,118.73526065891642L128.5612534722222,116.92350382379402L128.79531840277778,115.13634574910692L129.28816319444445,114.55586502035007L129.37393854166666,115.04097082600738L129.6399875,114.35429682032972L129.66034097222223,113.73629021521984L130.05287222222222,114.60289196292861L130.08340243055557,115.38283353586652L130.43668055555557,117.7186271053568L130.55153229166666,116.13107208712881L130.72162916666667,114.35508026303131L131.51686840277776,114.90111069826665L131.68841909722224,116.20946116690153L131.79890937500002,115.814399665596L132.1754486111111,115.75157508365177L132.2932079861111,115.35464834451739L132.92125798611113,114.90891427929643L133.1044392361111,113.391292082136L133.14223854166667,112.02543210469163L133.31088159722222,110.66681197114556L133.53476979166666,111.90163077403099L133.61618368055557,115.10292923508943L133.6903284722222,116.99017477311895L133.72231250000002,118.68869575734551L133.77028854166667,117.74617233545712L133.8066340277778,116.89790125575756L134.18462708333334,117.71384189941257L134.1875347222222,118.44818847870208L134.33582430555558,119.34056193852417L134.3401857638889,120.14369805236407L134.56407395833332,119.37563593943536L134.80395416666667,117.26838003779952L135.02202708333334,115.61011895709649L135.21974652777777,112.87868398446376L135.46689583333335,114.13058481678661L135.66897673611112,111.4381801812618L136.35372569444445,109.62090062467408L136.36099479166666,107.98534902374513L136.42932430555558,109.66531412137061L136.51655347222223,111.17728270923355L136.54999131944444,112.5380544383102L136.93234583333333,111.46855668678687L136.94252256944446,110.50600871041587L137.97037291666666,111.71606168552813L138.36290416666668,110.68110936312917L138.79614236111112,111.91449842681624L138.8223111111111,111.88766396875L138.9386166666667,111.86351295649038L139.4634454861111,112.14812319930289L139.7120486111111,109.57908011014183L139.88505312499998,109.85386440681994L140.19471666666666,109.22978565844565L140.26886145833333,108.66811478490878L140.47821145833333,109.77603407564867L140.54654097222223,110.99781528346841L140.71663784722222,107.0393029858908L140.8852809027778,108.9023726873017L140.89545763888887,110.57913541857154L141.30979618055557,110.95814495363746L141.7924642361111,113.73640738135063L142.187903125,110.86557433552326L142.33183125000002,108.28182459427863L142.672025,108.9382190579277L142.77815381944444,107.32328176751953L142.86102152777778,105.01887666769065L143.60246944444444,107.47202746246005L143.70132916666668,106.31686317775251L143.81327326388887,106.64556147536187L143.8336267361111,106.9413899432103L143.89032569444444,101.82275094888927L143.93684791666666,97.21597585400035L144.37880902777778,98.61814749936953L144.53727534722222,98.59004428789412L144.79750902777778,101.33207832064316L145.34705277777778,102.85363971934807L145.42846666666665,103.84181420895172L145.43428194444445,106.79390201882579L145.52878020833333,109.45078104771244L145.6232784722222,110.99781832755657L145.95038784722223,111.30772880249323L145.9736489583333,108.7614559222439L146.18299895833334,106.94634879155797L146.2207982638889,105.31275237394064L146.27458958333332,103.84251559808503L146.83140243055556,104.15995634596884L146.859025,104.44565301906425L147.0073145833333,98.79370310177322L147.3911229166667,97.79837125313435L147.5554045138889,100.77614951243629L147.60628819444443,101.8971884073465L148.22125381944446,101.04081572045801L149.3610482638889,100.80788799456606L149.410478125,103.7842530412633L149.5253298611111,104.81552004482927L149.85389305555555,106.90096804034634L149.92949166666665,110.90187123631172L150.13302638888888,114.50268411268054L150.48630451388888,113.40691570141249L150.8526670138889,114.8306472081943L151.08673194444444,115.82608248737489L151.43855625,115.70762808479122L151.48507847222223,115.60101912246596L151.79328819444444,110.41291721021936L152.07242152777778,111.65270241227435L152.19599618055554,111.70650909412385L152.38790034722223,113.65428126163454L152.681571875,109.37566082777877L152.72809409722223,105.5249024373086L152.78188541666665,102.05921988588541L152.8981909722222,103.05195174345072L153.11771770833332,101.25637195372103L153.3910357638889,103.86792706604125L153.43610416666667,106.21832666712942L153.48408020833332,106.45476323118571L153.64981562499997,105.20390229268251L153.74140625,107.14158898649119L154.08450763888888,107.84393008784208L154.12666840277777,106.8489986175194L155.24029409722223,108.72429106345977L155.25919375,110.4120542648061L155.36386875,110.55588729986395L155.57176493055556,109.61652933910834L156.13148541666666,108.49199178981289L156.214353125,107.47990799544698L156.3684579861111,105.20068642667151L156.46295625,107.38377163015821L156.528378125,103.99089446714238L156.76535069444444,103.3608434819666L157.21312708333335,102.84825913376994L157.993828125,99.27581783577756L158.1988166666667,99.15131297527672L158.84867395833334,101.04072013928752L158.9722486111111,102.31910966382031L158.9955097222222,103.46966023589982L159.55086875,101.41446344307906L159.57558368055555,99.56478632954038L159.76458020833334,95.38123077350942L159.88233958333333,91.61603077308156L159.9724763888889,88.22735077269648L160.26614791666668,85.3341156954268L160.57581145833333,89.08178104896106L161.48299479166667,91.35864140560341L161.51207118055558,93.40781572658152L161.8115579861111,93.03957261546184L162.06452256944445,95.42442304622332L162.28259548611112,97.63886535698562L162.311671875,99.63186343667167L162.31603333333334,101.42556170838911L162.4396079861111,99.09823630678098L162.44396944444443,97.00364344533365L162.96589062500001,97.67139448541568L163.00368993055554,98.27237042148948L163.88906597222223,102.04690261010977L163.97484131944444,103.52421234909879L164.46623229166664,98.96513726803506L164.60725277777777,96.35285431046232L164.96779999999998,91.68718426403147L165.5929423611111,93.88050429916679L166.28932187499998,86.60964617694243L166.51611770833333,81.38656617463279L166.87666493055556,82.86037109563105L167.0322236111111,83.44475706299103L167.2735576388889,88.2118967413073L167.45819270833334,85.29978399025347L167.65736597222224,86.93369020661275L167.7387798611111,91.00474426287455L167.78530208333333,94.66869291351017L167.88852326388889,97.96624669908223L168.44097465277778,98.83727587532785L168.57036458333334,94.28397136471816L168.60380243055553,90.18599730516941L169.0821090277778,91.8554744977294L169.4223027777778,89.91331166334108L169.51680104166667,92.93074972777619L170.12449756944446,90.2547516780755L170.32512465277776,87.09750727949871L170.42689201388887,91.15898732077962L170.528659375,94.81431935793242L170.70311770833334,96.23881049906225L170.7670857638889,97.5208525260791L170.96480520833333,99.5256518888558L171.1770628472222,98.0895097768933L171.25556909722224,96.79698187612703L171.37187465277776,97.00205291928356L171.53179479166667,98.82046301197059L171.75422916666668,90.77649363385046L171.8603579861111,92.93834427046541L172.13949131944443,84.38654830495732L172.24125868055555,81.2578934744616L172.31249583333332,78.44210412701544L173.08592777777778,76.47293217585236L173.74160034722223,78.69679280442097L173.89570520833334,76.85192121628657L173.89861284722224,75.1915367869656L174.29114409722223,78.85742156980749L174.872671875,77.60237172051905L175.2826489583333,83.17840377923638L175.31608680555556,88.19683263208198L175.55160555555557,91.9237262919507L175.7071642361111,90.17216135506332L175.79293958333332,90.50190675801852L175.80602395833333,90.7986776206782L175.90924513888888,90.4735021663027L176.01828159722223,86.26642118044165L176.1389486111111,83.51481752393596L176.2538003472222,81.0383742330808L176.4006361111111,78.8095752713112L176.4297125,76.80365620571854L176.54020277777778,79.00805981591593L176.62307048611112,80.70609998817048L176.63906250000002,82.23433614319958L177.25548194444445,80.92071022118732L177.28455833333334,79.73844689137627L177.81374861111112,78.94671758685404L178.10742013888887,83.544161212784L178.15394236111112,87.68186047612099L178.2324486111111,91.40578981312426L178.36329236111112,93.4502492933503L178.6467871527778,90.59295513324604L178.69185555555558,88.0213903891522L178.77181562500002,89.09040519639083L178.82269930555555,90.0525185229056L178.83723750000001,90.91842051676889L179.12073229166666,90.9352707727843L179.49291006944443,92.04647446473663L179.57287013888887,91.8484039413399L180.1980125,95.01271739335975L180.6763190972222,94.245714884793L180.76064062499998,95.3594510886214L181.29855381944444,90.54123674899003L181.44975104166667,86.2048438433218L181.47010451388888,82.3020902282204L181.49772708333333,78.7896119746291L181.55733368055556,82.1569584694739L181.57768715277777,85.18757031483422L181.59949444444445,87.91512097565848L181.61839409722222,88.09274349347723L181.67509305555555,89.7332768364372L181.8640895833333,92.23091069125502L182.1141465277778,88.87605039136028L182.3598420138889,91.43898381376272L182.6157142361111,93.7456238939249L182.749465625,93.14617688914781L182.85414062499999,93.5869822771561L182.87449409722223,93.98370712636356L183.48800590277776,91.82191333680413L183.57087361111113,89.87629892620063L183.74969340277778,89.65697672588827L184.005565625,91.64485597637635L184.15094756944444,93.43394730181565L184.3006909722222,89.94516795624946L184.78626666666665,93.00707423754758L185.74724131944444,93.32563604456206L185.80539409722223,96.5192262862597L185.8533701388889,94.09707288840296L186.12087291666668,98.54101944571651L186.7431076388889,101.21987903960641L186.94228090277778,97.2588526741073L187.8959864583333,95.8315443297735L187.89744027777778,94.54696681987305L187.98176180555555,92.31523167634728L188.27252569444443,88.15543927794333L188.38737743055555,87.63166458091821L188.7392017361111,91.57845966128792L189.08957222222222,93.62607523362067L189.2756611111111,93.05219847948938L189.32363715277776,92.53570940077121L189.605678125,94.47398461454026L189.69290729166667,96.21843230693237L189.84991979166668,93.13878138393144L189.90225729166667,88.31798016861522L189.92987986111112,83.97925907483062L190.06944652777779,80.07441009042448L190.73384201388888,80.8488921583051L190.7934486111111,83.02319525016692L190.92138472222223,86.37564495591944L191.24413263888889,90.25061892186595L191.4665670138889,89.99386472198705L191.7413388888889,89.21817055748065L191.78204583333334,91.27716119404027L192.588915625,89.61067584386701L192.8709565972222,82.39237749024956L192.92765555555556,79.63333204891688L193.216965625,79.12442192094828L193.82756979166666,83.77217203654575L194.03255833333336,79.89483944827579L194.21573958333332,84.47235550344824L194.4367201388889,84.6164276454111L194.78418298611112,84.69843872702383L195.23777465277777,83.39028716201376L195.4805625,83.4315276765816L195.49219305555553,83.46864413969267L196.00539131944444,82.35154895649262L196.4066454861111,83.4497402146895L196.48369791666667,74.4580354239898L197.00271145833335,80.92715495851391L197.02015729166666,82.10651638573941L197.37925069444444,78.1234416702424L197.38942743055557,74.53867442629506L197.54353229166668,69.64449929135787L197.77759722222223,66.17239551606824L197.90844097222222,63.04750211830758L198.37947847222222,62.65863652186144L198.6280815972222,59.91234979275221L198.69931875,52.60042250578469L198.7545638888889,46.01968794751389L198.80399375000002,40.09702684507022L198.85923888888888,34.76663185287086L198.9159378472222,37.93427635989147L199.08458090277776,40.785156416210015L199.19797881944444,42.493179236127446L199.21833229166666,44.030399774053166L199.24304722222223,45.41389825818632L199.4000597222222,46.89050843236768L199.47856597222224,50.9765729737463L200.09789305555557,51.88330029175627L200.37411875,57.900431801042174L200.54276180555556,60.0481578517072L200.86260208333331,64.69057283576726L200.90476284722223,68.86874632142128L201.57497361111112,65.20871784312534L201.94860520833333,70.14519221265896L201.99076597222222,74.58801914523922L202.07944895833333,75.9587941537922L202.52141006944444,74.3741070461053L202.7656517361111,77.03931172611016L203.50564583333332,79.47203439965298L203.52745312500002,78.09425403661075L203.9592375,79.03952094064199L204.77773784722223,74.58026115427009L204.8649670138889,70.56692734653541L205.26912881944446,68.0781961503434L205.27058263888887,65.83833807377061L205.4319565972222,67.83900426639356L205.47266354166666,66.39914230129266L205.51627812499999,68.53434345577878L205.57588472222224,71.02787064866246L205.7445277777778,62.093814353026985L206.20393472222221,67.09670214849352L206.26499513888888,71.5993011644134L206.31733263888887,75.6516402787413L206.74184791666667,73.94789932779025L206.78691631944446,72.4145324719343L207.21288541666667,75.34377153243318L207.348090625,77.98008668688216L207.36553645833334,79.22269340280934L207.5181875,78.7344240625284L207.99649409722224,77.78440473319864L208.78301041666666,75.87419502910954L208.81790208333334,74.15500629542936L208.865878125,73.92842874280952L209.50119722222223,79.0617397146824L209.59714930555555,83.681719589368L209.63785625,83.69381686120043L210.1248857638889,84.10635825200347L210.38511944444443,80.81510704218773L210.45635659722222,82.37328864566128L210.46071805555556,83.77565208878744L210.47671006944447,85.80024072606255L210.540678125,84.40233203807166L210.8677875,82.11625268041836L211.22688090277776,78.45216587391498L212.90458854166667,82.60891082498502L213.25786666666664,80.9991351271019L213.61841388888888,84.15233699900709L213.69546631944445,82.12271868372177L213.8539326388889,82.93063912304189L214.047290625,76.48926751843003L214.31479340277778,75.56634076658702L214.50088229166667,74.42936053608214L214.57793472222224,73.40607832862779L214.6389951388889,72.48512434191883L214.79746145833332,79.0902657538808L214.80763819444445,85.03489302464658L214.85416041666664,90.38505756833575L214.9006826388889,95.20020565765603L214.989365625,86.18395432265964L215.015534375,78.06932812116291L215.329559375,81.5223183859697L215.60869270833334,81.81843270121888L215.75988993055554,80.84593558494313L215.85002673611112,74.67430356491036L216.10299131944444,73.58568090072704L216.4053857638889,68.15368973373124L216.83280868055556,68.5408592218966L216.89096145833332,72.67438868432232L217.082865625,75.29171904665931L217.2108017361111,73.87585483430108L217.22824756944445,73.40488473548635L217.23987812500002,72.9810116465531L217.28058506944444,72.59952586651316L217.3503684027778,72.25618866447724L217.41288263888887,74.10522364418337L217.59751770833333,75.76935512591888L217.8184982638889,70.3028042287116L217.96533402777777,65.38290842122507L218.17759166666667,67.38827142525642L218.31425069444444,67.02825197503846L218.53377743055557,71.8576575467654L219.09640555555555,77.27973794593498L219.1400201388889,82.08132184364919L219.42060729166667,81.1233819669766L219.50783645833334,80.79223607797124L219.54418194444446,80.49420477786643L220.2420152777778,71.85932276161824L220.25800729166667,64.08792894699486L220.5167871527778,68.34678989844922L220.550225,72.17295706245046L220.59529340277777,69.07431520235927L220.80173576388887,64.5768067590464L220.8220892361111,60.529049160064844L221.7176420138889,60.91622116713528L221.96479131944443,62.04075289657558L222.3137079861111,62.40610068384109L222.3369690972222,62.73491369238006L222.53323472222223,63.39846078468052L222.735315625,61.64699932159708L222.89814340277778,61.1122609278989L223.15692326388887,64.84495791203207L223.20344548611112,68.20438519775195L223.3081204861111,71.22786975489984L223.68611354166666,73.75158277940987L223.89982500000002,76.02292450146888L224.436284375,77.18213205132199L224.4551840277778,78.22541884618978L224.57875868055555,79.16437696157078L224.82736180555557,77.59270849618295L225.09486458333333,83.65986072348774L225.12830243055555,89.12029772806204L225.13557152777778,94.0346910321789L225.16464791666667,98.45764500588409L225.31875277777777,97.3597651206803L225.81886666666668,90.1630578393815L226.23756666666668,90.6434828246741L226.61119826388887,90.34744223451439L227.10113541666666,92.33435185721679L227.20435659722224,94.12257051764895L227.3177545138889,85.22089038896098L227.7757076388889,87.84980135006488L227.7829767361111,90.21582121505838L227.80478402777777,92.34523909355255L228.28454444444444,94.35702287650497L228.3310666666667,93.71685905039294L228.61746909722223,86.91848083766133L228.95184756944445,86.5660558308183L229.07251458333332,78.99187332465954L229.10013715277776,81.00468599219357L229.24988055555554,81.70656354682038L229.3327482638889,82.37909949983064L229.65549618055556,79.74732416523219L229.93172187500002,81.90924559486281L230.350421875,74.41951334306884L230.39112881944445,76.6172543164543L230.51615729166667,77.403875038655L231.0700625,74.2076221501741L231.1020465277778,71.33099455054133L231.53383090277777,75.4237797108718L231.74463472222223,81.71463250901539L231.81151041666666,77.02190002734461L232.57621944444443,79.36105617845632L232.63437222222223,82.58275825291838L232.6460027777778,85.48229011993423L232.67798680555555,88.09186880024849L232.692525,85.9542203817621L232.80301527777777,84.03033680512435L232.8524451388889,82.29884158615039L232.97892743055556,84.21922665830458L233.02399583333332,85.94757322324335L233.70292951388888,84.5145082086113L233.96025555555556,81.9721343108271L234.0503923611111,79.68399780282131L234.38913229166667,82.85979033023148L234.39785520833334,85.71800360490066L235.3064923611111,83.74966478287213L235.3588298611111,81.97815984304646L235.4998503472222,80.38380539720332L235.7804375,82.25742485748299L235.80515243055555,83.94368237173468L235.80660625000002,85.46131413456122L236.2412982638889,81.46952887495124L236.2936357638889,77.87692214130229L236.6120222222222,74.64357608101821L236.81701076388887,62.529564626762536L237.24443368055557,69.11591585639397L237.47122951388891,65.41074734767766L237.67912569444445,71.67494184367911L237.80415416666665,74.46029381315734L237.81869236111112,76.96711058568778L238.02368090277778,79.447899527119L238.08910277777778,81.6806095744071L238.1254482638889,79.14931784773562L238.3086295138889,79.29469375526975L238.410396875,74.46953207205048L238.6560923611111,76.64184809561465L238.75640590277777,77.58258636297623L238.84218124999998,78.61305849590937L239.01518576388887,75.5647911078569L239.195459375,72.82135045860969L239.22598958333333,70.35225387428717L240.2887315972222,72.64356694839692L240.77139965277777,70.49178717663416L240.78739166666668,68.55518538204767L240.91532777777778,63.081628382304444L240.9720267361111,62.61446554407401L241.03163333333333,62.1940189896666L241.236621875,63.13630939839224L241.7890732638889,68.30044768932224L241.91555555555556,72.97540292039001L242.34733993055556,72.27451647450485L243.21963159722222,68.0288340578236L243.3068607638889,69.82406603665663L243.32139895833333,71.43977481760635L243.5031263888889,72.85306656661496L244.33471111111112,77.05233683303037L244.51789236111114,80.83168007280425L244.6618204861111,82.30651206552382L244.85953993055557,73.53124547435606L245.0369059027778,65.63350554230506L245.12122743055556,58.52553960345918L245.22154097222221,63.89206256619019L245.22735625,68.7219332326481L245.3741920138889,67.57500914015253L245.4992204861111,70.62058514921421L245.52102777777776,72.10898817275432L246.33952812500002,76.89324320163274L246.50380972222223,79.61968811223869L246.68989861111112,77.362565454861L246.7117059027778,78.12230890937488L246.81347326388888,78.80607801843739L246.98502395833333,81.55227790890132L247.05916875000003,71.32751165647272L247.15948229166668,62.12522202928699L247.16529756944445,56.790892134050594L247.93146041666668,62.02453368987629L247.95908298611113,66.73481109011942L248.07538854166665,70.97406075033825L248.25275451388887,73.16915467530441L248.40540555555555,74.35504690008169L248.6656392361111,72.80819605622735L248.68599270833334,71.41603029675846L248.73833020833334,70.44900419015956L248.79793680555554,69.57868069422054L248.93459583333333,68.79538954787539L249.00583298611113,68.0904275161648L249.0290940972222,67.45596168762523L249.14685347222223,66.88494244193961L249.26752048611112,66.37102512082258L249.39400277777779,65.90849953181726L249.42017152777777,65.49222650171242L249.6164371527778,64.56615769769506L249.81415659722222,55.15500346638707L250.3767847222222,60.62711850436375L250.43057604166665,65.55202203854276L250.81874583333334,66.16531983468849L251.11823263888888,65.40340323583503L251.17202395833334,64.71767829686691L252.05303854166667,60.63541046718022" style="fill: none;" fill="none"></path></g></g></g></g><g opacity="0.2"><g><g><g><path stroke="rgb(255, 112, 67)" stroke-width="2px" d="M29.138903125000002,160.7976923076923L29.320630555555557,160.5253846153846L29.41076736111111,157.59807692307692L29.766953125,160.5253846153846L29.857089930555556,157.66615384615386L29.919604166666666,160.32115384615383L29.92978090277778,160.32115384615383L29.999564236111112,160.5253846153846L30.01846388888889,160.5253846153846L30.115869791666665,160.32115384615383L30.252528819444446,160.185L30.552015625000003,157.8023076923077L31.015784027777777,158.00653846153847L31.09138263888889,160.72961538461539L31.101559375,160.38923076923078L31.165527430555557,159.3L31.53625138888889,158.07461538461538L31.598765625,160.25307692307692L31.60312708333333,160.25307692307692L31.806661805555553,160.32115384615383L31.86481458333333,160.7976923076923L32.03781909722222,160.1169230769231L32.431804166666666,160.66153846153847L32.55101736111111,160.25307692307692L32.69058402777778,160.25307692307692L32.692037847222224,160.25307692307692L32.981347916666664,160.59346153846153L33.49454618055555,158.07461538461538L33.77367951388889,160.32115384615383L33.796940625,160.32115384615383L33.88271597222222,160.1169230769231L34.33776145833333,160.5253846153846L34.340669097222225,160.5253846153846L34.413360069444444,160.185L34.63288680555555,160.04884615384614L34.82915243055555,162.90807692307692L35.35398125,160.185L35.47464826388889,160.5253846153846L35.608399652777784,160.32115384615383L35.63311458333333,160.32115384615383L35.875902430555556,160.66153846153847L36.03873020833333,160.59346153846153L36.30477916666666,160.25307692307692L36.54175173611111,160.66153846153847L36.84850763888889,157.93846153846152L36.868861111111116,160.72961538461539L37.39805138888889,159.64038461538462L37.60303993055556,160.66153846153847L37.665554166666666,160.5253846153846L37.78622118055555,158.07461538461538L38.09152326388889,160.38923076923078L38.119145833333334,158.1426923076923L38.81697916666667,160.4573076923077L38.834425,160.4573076923077L39.042321180555554,157.8023076923077L39.20514895833333,160.5253846153846L39.47992083333334,162.84L39.80993784722222,160.72961538461539L39.92333576388889,160.1169230769231L39.92769722222222,160.59346153846153L40.414726736111106,158.21076923076924L40.46561041666667,162.63576923076923L40.80435034722222,158.21076923076924L40.97008576388889,162.84L41.02969236111111,160.66153846153847L41.43240034722223,158.1426923076923L41.44693854166666,158.1426923076923L41.58214375,160.38923076923078L41.98485173611111,158.07461538461538L42.06771944444445,162.7719230769231L42.540210763888886,159.98076923076923L42.84260520833334,160.59346153846153L42.96763368055556,160.32115384615383L42.986533333333334,160.5253846153846L43.17698368055556,160.25307692307692L44.196111111111115,160.59346153846153L44.312416666666664,157.8023076923077L44.374930902777784,160.32115384615383L44.49850555555555,157.53L44.75001631944444,160.185L44.92738229166667,158.07461538461538L44.931743749999995,158.07461538461538L45.02042673611111,160.32115384615383L45.098932986111116,158.07461538461538L45.21814618055556,158.07461538461538L45.843288541666666,157.8703846153846L45.89271840277778,160.72961538461539L46.06572291666667,160.04884615384614L46.17330555555555,160.59346153846153L46.47860763888889,158.07461538461538L46.485876736111116,158.07461538461538L46.76210243055555,160.32115384615383L46.945283680555555,160.66153846153847L47.79867569444444,160.66153846153847L48.026925347222225,160.4573076923077L48.06617847222222,160.5253846153846L48.845425694444444,160.185L48.87886354166667,160.185L49.15508923611111,157.8703846153846L49.75260902777778,160.5253846153846L49.85873784722222,160.25307692307692L49.92270590277778,160.1169230769231L50.08117222222222,157.8023076923077L50.358851736111106,160.42326923076922L50.40246631944444,160.42326923076922L50.56384027777778,162.90807692307692L50.70049930555555,160.38923076923078L51.57279097222222,160.5253846153846L51.62222083333334,160.4573076923077L51.99585243055556,159.98076923076923L52.507596875,162.90807692307692L52.80562986111111,160.4573076923077L53.58487708333334,160.38923076923078L53.88872534722222,160.5253846153846L53.93379375,158.21076923076924L54.25363402777778,162.84L54.28561805555555,160.59346153846153L54.58219722222222,160.4573076923077L54.602550694444446,160.4573076923077L55.90226527777777,160.7976923076923L56.86905520833333,158.07461538461538L56.94610763888889,158.1426923076923L57.47239027777778,160.5253846153846L57.63085659722222,160.4573076923077L57.651210069444446,160.38923076923078L57.763154166666666,160.66153846153847L58.1469625,162.90807692307692L58.23128402777778,160.66153846153847L58.24436840277778,160.66153846153847L58.35485868055555,157.93846153846152L58.50896354166667,160.185L58.52059409722222,160.185L58.62381527777778,160.185L58.79391215277778,160.72961538461539L58.937840277777774,163.04423076923078L58.99453923611111,158.07461538461538L59.28675694444445,158.00653846153847L59.29111840277778,158.00653846153847L59.39724722222222,160.59346153846153L59.724356597222226,160.4573076923077L59.81740104166666,160.72961538461539L59.94533715277778,160.4573076923077L60.07181944444445,160.66153846153847L60.36839861111111,160.185L60.840889930555555,160.4573076923077L61.41805625,158.21076923076924L61.541630902777776,162.5676923076923L61.58233784722222,162.84L62.71631701388889,160.32115384615383L62.73085520833333,160.38923076923078L62.79482326388889,160.25307692307692L62.83262256944444,160.66153846153847L62.93148229166666,160.5253846153846L63.040518750000004,160.1169230769231L63.136470833333334,160.66153846153847L63.300752430555555,160.66153846153847L63.48974895833334,160.4573076923077L63.50574097222222,160.185L63.53481736111111,160.72961538461539L63.87937256944444,157.8023076923077L64.18322083333334,158.07461538461538L64.37948645833333,160.25307692307692L64.38239409722223,160.25307692307692L64.43763923611111,160.38923076923078L64.87233125,158.07461538461538L65.01480555555555,157.8703846153846L65.02643611111111,157.8703846153846L65.27940069444445,160.185L65.3273767361111,160.185L65.79114513888888,157.73423076923078L65.905996875,158.07461538461538L65.99177222222222,157.93846153846152L66.60383020833333,157.93846153846152L66.65471388888889,158.07461538461538L66.76229652777776,158.1426923076923L67.31765555555556,158.00653846153847L68.03584236111111,157.8703846153846L68.03729618055554,157.8703846153846L68.55485590277777,157.59807692307692L68.56212500000001,157.59807692307692L69.06514652777778,157.8023076923077L69.20762083333334,157.73423076923078L69.2585045138889,157.39384615384614L69.53036875,157.7001923076923L69.66266631944444,157.66615384615386L70.42156006944444,155.07923076923078L70.57421111111111,157.59807692307692L71.19499201388888,154.875L71.23279131944444,157.66615384615386L71.32874340277777,157.39384615384614L71.53082430555556,156.4748076923077L71.6209611111111,155.2153846153846L71.92335555555556,154.39846153846153L71.94661666666666,155.07923076923078L72.12689027777778,157.73423076923078L72.44382291666666,155.35153846153847L72.69969513888888,155.28346153846155L72.73749444444445,155.35153846153847L72.945390625,155.01115384615383L73.16782500000001,154.80692307692308L73.37572118055556,155.01115384615383L73.58216354166667,157.73423076923078L73.71882256944444,155.01115384615383L73.73917604166667,157.59807692307692L74.73649618055555,155.41961538461538L74.7902875,157.39384615384614L75.15810381944445,157.59807692307692L75.42560659722223,157.46192307692309L75.50702048611112,157.66615384615386L75.60588020833333,152.62846153846152L75.90100555555556,154.875L76.2324763888889,154.875L76.38803506944444,154.80692307692308L76.55522430555556,155.1473076923077L76.70787534722221,157.59807692307692L76.89977951388889,152.69653846153847L76.91141006944444,152.69653846153847L77.10331423611112,157.53L77.31702569444445,157.93846153846152L77.44786944444445,157.8023076923077L77.59906666666666,157.39384615384614L77.63977361111111,154.875L78.12534930555556,157.53L78.14279513888889,156.30461538461537L78.17041770833333,157.53L78.1951326388889,154.94307692307692L78.27363888888888,155.28346153846155L78.32743020833334,154.73884615384617L78.38122152777778,157.46192307692309L78.56004131944445,152.62846153846152L78.71269236111111,157.1896153846154L79.03398645833333,155.24942307692308L79.06451666666666,155.28346153846155L79.27095902777778,152.90076923076924L79.37854166666666,154.94307692307692L79.64604444444444,155.41961538461538L80.44564513888889,155.01115384615383L80.47617534722222,155.01115384615383L80.50961319444446,155.07923076923078L80.66371805555555,154.94307692307692L80.79456180555555,155.2153846153846L81.08241805555555,157.39384615384614L81.19581597222222,155.28346153846155L81.34701319444444,154.67076923076922L81.371728125,155.2153846153846L81.46913402777778,155.2153846153846L81.77298229166666,155.01115384615383L81.81514305555555,157.66615384615386L82.3297951388889,155.1473076923077L82.37340972222222,155.28346153846155L82.53042222222221,155.28346153846155L82.6510892361111,155.28346153846155L82.73395694444444,152.62846153846152L83.16283368055555,155.07923076923078L83.58007986111112,152.90076923076924L83.97988020833334,154.875L84.1427079861111,155.07923076923078L84.60211493055556,152.69653846153847L84.96120833333333,152.5603846153846L84.98446944444444,152.5603846153846L85.36973159722223,152.62846153846152L85.54418993055555,154.875L85.74917847222223,152.4923076923077L86.20713159722222,154.80692307692308L86.79738229166666,152.69653846153847L86.91223402777777,149.9053846153846L87.05325451388889,147.04615384615386L87.09832291666666,155.01115384615383L87.259696875,149.8373076923077L87.66095104166668,151.9476923076923L87.95753020833334,150.1776923076923L88.19450277777777,152.15192307692308L88.20031805555556,152.3221153846154L88.24829409722223,152.76461538461538L88.27737048611111,152.76461538461538L88.38349930555556,151.9476923076923L88.74259270833333,152.08384615384617L89.039171875,143.9146153846154L89.078425,143.9826923076923L89.18019236111111,152.69653846153847L89.46804861111112,152.69653846153847L89.49130972222223,150.04153846153847L90.33307118055556,147.31846153846155L90.79247812499999,152.28807692307691L90.81864687500001,139.42153846153846L91.12394895833333,147.04615384615386L92.34515729166667,149.2246153846154L92.47454722222223,150.1776923076923L92.52106944444445,152.42423076923077L92.62574444444445,147.04615384615386L92.66499756944445,152.22L92.67081284722222,152.22L92.76240347222222,141.73615384615385L93.03572152777778,150.1776923076923L93.15202708333332,142.41692307692307L93.33666215277778,152.28807692307691L93.34683888888888,152.28807692307691L93.41080694444445,152.4923076923077L93.487859375,134.04346153846154L94.23221493055556,152.28807692307691L94.44738020833333,151.8796153846154L94.9504017361111,144.39115384615386L94.96348611111111,144.39115384615386L95.04053854166668,139.2853846153846L95.23680416666667,144.18692307692308L95.45633090277778,146.3653846153846L96.41585173611111,140.9873076923077L96.43911284722222,140.9873076923077L96.55396458333334,154.67076923076922L96.67899305555557,139.2853846153846L97.84495625,149.49692307692308L98.25784097222223,133.70307692307694L98.33489340277778,149.49692307692308L98.37996180555557,139.01307692307694L98.43229930555556,139.01307692307694L98.48899826388889,128.59730769230768L98.68962534722222,144.18692307692308L98.78412361111111,141.94038461538463L98.81756145833333,141.94038461538463L98.97166631944445,152.22L99.12431736111111,130.3673076923077L99.19119305555556,141.0553846153846L99.62006979166667,139.14923076923077L100.08819965277777,139.14923076923077L100.710434375,138.26423076923078L100.82528611111111,141.46384615384616L101.00846736111112,131.25230769230768L101.77753784722222,152.4923076923077L101.85022881944445,144.5273076923077L101.98543402777779,127.98461538461538L102.00869513888888,147.31846153846155L102.05230972222222,141.2596153846154L102.15843854166667,144.73153846153846L102.68326736111112,137.92384615384617L102.95949305555555,130.84384615384616L103.19210416666667,138.53653846153847L103.41744618055556,133.15846153846155L103.55265138888889,146.9780769230769L103.63261145833334,131.0480769230769L104.38278229166666,130.23115384615386L104.39441284722221,130.23115384615386L104.609578125,144.66346153846155L104.67790763888888,125.60192307692307L105.10096909722222,120.15576923076922L105.18965208333334,137.85576923076923L105.41790173611112,141.19153846153847L105.66795868055556,144.5273076923077L105.99361423611111,127.84846153846155L106.04159027777777,127.84846153846155L106.26402465277778,134.04346153846154L106.28583194444444,134.04346153846154L106.81066076388888,130.095L107.15666979166666,130.23115384615386L107.16684652777778,130.23115384615386L107.17266180555555,130.23115384615386L107.17847708333333,130.23115384615386L107.383465625,143.57423076923078L107.44743368055555,143.57423076923078L107.68876770833333,131.11615384615385L107.74110520833334,131.11615384615385L107.7629125,131.11615384615385L107.93446319444445,141.6680769230769L108.58868194444445,125.05730769230769L108.75732500000001,125.05730769230769L108.94632152777777,136.63038461538463L109.01174340277778,136.63038461538463L109.31849930555555,128.59730769230768L109.47260416666667,133.70307692307694L109.82733611111111,128.46115384615385L109.83896666666666,128.46115384615385L110.07448541666668,136.3580769230769L110.15153784722223,136.3580769230769L110.98166875,127.78038461538462L111.22881805555555,124.10423076923077L111.24917152777778,141.39576923076925L111.37565381944445,130.23115384615386L111.6358875,132.0351923076923L111.68386354166667,132.0351923076923L111.94409722222221,124.5126923076923L112.38024305555555,111.44192307692308L112.38896597222222,111.44192307692308L112.64919965277777,127.1676923076923L113.05045381944444,114.91384615384615L113.82824722222223,111.57807692307692L114.03905104166667,149.8373076923077L114.20769409722223,149.8373076923077L114.33126875,125.19346153846155L114.44466666666668,125.60192307692307L114.48391979166666,125.60192307692307L114.50863472222223,125.60192307692307L115.23699826388888,137.7876923076923L115.30532777777779,112.05461538461539L115.48123993055555,127.50807692307693L115.783634375,118.65807692307692L115.82724895833333,143.50615384615384L116.56724305555555,114.77769230769232L116.57596597222222,127.1676923076923L116.60795,127.1676923076923L116.73879375,133.3626923076923L116.99757361111111,125.32961538461538L118.05886180555557,138.46846153846155L118.1620829861111,125.73807692307693L118.39760173611111,125.73807692307693L118.53716840277778,138.3323076923077L118.74942604166667,111.91846153846154L119.41672916666666,114.98192307692307L119.53303472222223,139.01307692307694L119.96481909722222,111.91846153846154L120.0098875,120.83653846153847L120.48528645833332,127.50807692307693L120.703359375,119.88346153846155L120.98830798611111,112.395L121.18893506944444,105.99576923076923L121.29070243055556,113.34807692307692L121.29215625,113.34807692307692L121.41427708333335,125.67L121.64398055555556,139.35346153846154L121.92602152777778,138.53653846153847L122.10484131944445,136.08576923076924L122.26476145833334,110.42076923076922L122.44939652777778,126.62307692307692L122.86518888888888,136.3580769230769L122.87972708333334,112.1226923076923L123.12106111111112,125.05730769230769L123.41473263888888,138.6726923076923L123.93229236111111,129.8226923076923L124.000621875,129.8226923076923L124.23032534722223,119.27076923076923L124.27539374999999,119.27076923076923L124.44985208333334,128.325L124.5109125,112.05461538461539L124.60686458333333,112.05461538461539L124.89472083333334,101.97923076923077L125.10116319444445,100.5496153846154L125.46316423611111,138.46846153846155L126.17408194444444,119.61115384615385L126.408146875,82.37307692307692L126.44885381944444,113.8926923076923L126.51427569444445,117.77307692307693L127.12342604166668,111.85038461538461L128.31991944444445,141.46384615384616L128.34608819444443,141.46384615384616L128.48710868055556,98.71153846153847L128.5612534722222,100.61769230769231L128.79531840277778,99.05192307692307L129.28816319444445,109.33153846153846L129.37393854166666,119.40692307692308L129.6399875,108.17423076923077L129.66034097222223,108.17423076923077L130.05287222222222,122.40230769230769L130.08340243055557,122.40230769230769L130.43668055555557,138.74076923076922L130.55153229166666,101.84307692307692L130.72162916666667,98.37115384615385L131.51686840277776,119.8153846153846L131.68841909722224,127.98461538461538L131.79890937500002,112.25884615384615L132.1754486111111,115.18615384615384L132.2932079861111,111.7823076923077L132.92125798611113,110.89730769230769L133.1044392361111,99.7326923076923L133.14223854166667,99.7326923076923L133.31088159722222,98.43923076923078L133.53476979166666,123.015L133.61618368055557,143.9146153846154L133.6903284722222,133.9753846153846L133.72231250000002,133.9753846153846L133.77028854166667,109.26346153846154L133.8066340277778,109.26346153846154L134.18462708333334,125.05730769230769L134.1875347222222,125.05730769230769L134.33582430555558,127.37192307692308L134.3401857638889,127.37192307692308L134.56407395833332,112.46307692307693L134.80395416666667,98.30307692307692L135.02202708333334,100.68576923076922L135.21974652777777,88.29576923076922L135.46689583333335,125.39769230769231L135.66897673611112,87.20653846153846L136.35372569444445,93.26538461538462L136.36099479166666,93.26538461538462L136.42932430555558,124.785L136.51655347222223,124.785L136.54999131944444,124.785L136.93234583333333,101.84307692307692L136.94252256944446,101.84307692307692L137.97037291666666,122.60653846153846L138.36290416666668,101.36653846153845L138.79614236111112,123.015L138.8223111111111,111.64615384615384L138.9386166666667,111.64615384615384L139.4634454861111,114.70961538461538L139.7120486111111,86.45769230769231L139.88505312499998,112.32692307692308L140.19471666666666,103.61307692307692L140.26886145833333,103.61307692307692L140.47821145833333,119.74730769230769L140.54654097222223,121.99384615384616L140.71663784722222,71.4126923076923L140.8852809027778,125.67L140.89545763888887,125.67L141.30979618055557,114.36923076923077L141.7924642361111,138.74076923076922L142.187903125,85.02807692307692L142.33183125000002,85.02807692307692L142.672025,114.84576923076924L142.77815381944444,92.78884615384615L142.86102152777778,84.27923076923076L143.60246944444444,129.55038461538462L143.70132916666668,95.9203846153846L143.81327326388887,109.60384615384616L143.8336267361111,109.60384615384616L143.89032569444444,55.754999999999995L143.93684791666666,55.754999999999995L144.37880902777778,111.23769230769231L144.53727534722222,98.33711538461539L144.79750902777778,126.01038461538462L145.34705277777778,116.54769230769232L145.42846666666665,112.73538461538462L145.43428194444445,133.3626923076923L145.52878020833333,133.3626923076923L145.6232784722222,124.92115384615384L145.95038784722223,114.09692307692308L145.9736489583333,85.845L146.18299895833334,90.61038461538462L146.2207982638889,90.61038461538462L146.27458958333332,90.61038461538462L146.83140243055556,107.01692307692308L146.859025,107.01692307692308L147.0073145833333,47.92615384615385L147.3911229166667,88.84038461538461L147.5554045138889,127.57615384615384L147.60628819444443,111.98653846153846L148.22125381944446,93.33346153846153L149.3610482638889,98.71153846153847L149.410478125,130.57153846153847L149.5253298611111,114.09692307692308L149.85389305555555,125.67L149.92949166666665,146.91L150.13302638888888,146.91L150.48630451388888,103.545L150.8526670138889,127.64423076923077L151.08673194444444,124.785L151.43855625,114.64153846153846L151.48507847222223,114.64153846153846L151.79328819444444,63.72L152.07242152777778,122.81076923076924L152.19599618055554,112.19076923076923L152.38790034722223,131.18423076923077L152.681571875,70.86807692307691L152.72809409722223,70.86807692307691L152.78188541666665,70.86807692307691L152.8981909722222,111.98653846153846L153.11771770833332,85.09615384615384L153.3910357638889,127.37192307692308L153.43610416666667,127.37192307692308L153.48408020833332,108.5826923076923L153.64981562499997,93.94615384615385L153.74140625,124.58076923076922L154.08450763888888,114.165L154.12666840277777,97.89461538461538L155.24029409722223,125.60192307692307L155.25919375,125.60192307692307L155.36386875,111.85038461538461L155.57176493055556,101.16230769230769L156.13148541666666,98.37115384615385L156.214353125,98.37115384615385L156.3684579861111,84.68769230769232L156.46295625,127.03153846153846L156.528378125,73.45500000000001L156.76535069444444,97.69038461538462L157.21312708333335,98.235L157.993828125,67.12384615384616L158.1988166666667,98.03076923076922L158.84867395833334,118.04538461538462L158.9722486111111,113.82461538461538L158.9955097222222,113.82461538461538L159.55086875,82.9176923076923L159.57558368055555,82.9176923076923L159.76458020833334,57.72923076923077L159.88233958333333,57.72923076923077L159.9724763888889,57.72923076923077L160.26614791666668,59.29499999999999L160.57581145833333,122.81076923076924L161.48299479166667,111.85038461538461L161.51207118055558,111.85038461538461L161.8115579861111,89.72538461538461L162.06452256944445,116.88807692307692L162.28259548611112,117.56884615384615L162.311671875,117.56884615384615L162.31603333333334,117.56884615384615L162.4396079861111,78.15230769230769L162.44396944444443,78.15230769230769L162.96589062500001,103.68115384615385L163.00368993055554,103.68115384615385L163.88906597222223,136.0176923076923L163.97484131944444,116.82L164.46623229166664,57.93346153846154L164.60725277777777,72.84230769230768L164.96779999999998,49.69615384615385L165.5929423611111,113.62038461538461L166.28932187499998,21.171923076923065L166.51611770833333,34.378846153846155L166.87666493055556,96.12461538461538L167.0322236111111,88.70423076923078L167.2735576388889,131.11615384615385L167.45819270833334,59.090769230769226L167.65736597222224,101.63884615384615L167.7387798611111,127.64423076923077L167.78530208333333,127.64423076923077L167.88852326388889,127.64423076923077L168.44097465277778,106.67653846153846L168.57036458333334,53.304230769230756L168.60380243055553,53.304230769230756L169.0821090277778,106.88076923076923L169.4223027777778,72.43384615384615L169.51680104166667,120.08769230769231L170.12449756944446,66.17076923076922L170.32512465277776,58.6823076923077L170.42689201388887,127.71230769230769L170.528659375,127.71230769230769L170.70311770833334,109.05923076923077L170.7670857638889,109.05923076923077L170.96480520833333,117.56884615384615L171.1770628472222,85.16423076923077L171.25556909722224,85.16423076923077L171.37187465277776,98.84769230769231L171.53179479166667,115.18615384615384L171.75422916666668,18.380769230769232L171.8603579861111,112.395L172.13949131944443,7.42038461538462L172.24125868055555,53.10000000000001L172.31249583333332,53.10000000000001L173.08592777777778,58.750384615384604L173.74160034722223,98.71153846153847L173.89570520833334,60.24807692307692L173.89861284722224,60.24807692307692L174.29114409722223,111.85038461538461L174.872671875,66.30692307692307L175.2826489583333,133.3626923076923L175.31608680555556,133.3626923076923L175.55160555555557,125.46576923076924L175.7071642361111,74.40807692307692L175.79293958333332,93.46961538461538L175.80602395833333,93.46961538461538L175.90924513888888,87.54692307692306L176.01828159722223,48.40269230769229L176.1389486111111,58.750384615384604L176.2538003472222,58.750384615384604L176.4006361111111,58.750384615384604L176.4297125,58.750384615384604L176.54020277777778,98.84769230769231L176.62307048611112,95.98846153846154L176.63906250000002,95.98846153846154L177.25548194444445,69.09807692307692L177.28455833333334,69.09807692307692L177.81374861111112,71.82115384615385L178.10742013888887,124.92115384615384L178.15394236111112,124.92115384615384L178.2324486111111,124.92115384615384L178.36329236111112,111.85038461538461L178.6467871527778,64.8773076923077L178.69185555555558,64.8773076923077L178.77181562500002,98.71153846153847L178.82269930555555,98.71153846153847L178.83723750000001,98.71153846153847L179.12073229166666,91.08692307692309L179.49291006944443,102.0473076923077L179.57287013888887,90.06576923076923L180.1980125,123.49153846153845L180.6763190972222,87.34269230769232L180.76064062499998,105.38307692307693L181.29855381944444,47.17730769230769L181.44975104166667,47.17730769230769L181.47010451388888,47.17730769230769L181.49772708333333,47.17730769230769L181.55733368055556,112.46307692307693L181.57768715277777,112.46307692307693L181.59949444444445,112.46307692307693L181.61839409722222,89.69134615384615L181.67509305555555,104.49807692307692L181.8640895833333,114.70961538461538L182.1141465277778,58.6823076923077L182.3598420138889,114.50538461538461L182.6157142361111,114.50538461538461L182.749465625,87.75115384615384L182.85414062499999,97.55423076923077L182.87449409722223,97.55423076923077L183.48800590277776,72.36576923076923L183.57087361111113,72.36576923076923L183.74969340277778,87.68307692307692L184.005565625,109.53576923076923L184.15094756944444,109.53576923076923L184.3006909722222,58.54615384615386L184.78626666666665,120.56423076923076L185.74724131944444,96.1926923076923L185.80539409722223,125.26153846153846L185.8533701388889,72.2976923076923L186.12087291666668,138.53653846153847L186.7431076388889,125.32961538461538L186.94228090277778,61.60961538461538L187.8959864583333,82.98576923076922L187.89744027777778,82.98576923076922L187.98176180555555,72.22961538461539L188.27252569444443,50.717307692307685L188.38737743055555,82.9176923076923L188.7392017361111,127.09961538461539L189.08957222222222,112.05461538461539L189.2756611111111,87.88730769230769L189.32363715277776,87.88730769230769L189.605678125,111.91846153846154L189.69290729166667,111.91846153846154L189.84991979166668,65.42192307692306L189.90225729166667,44.930769230769215L189.92987986111112,44.930769230769215L190.06944652777779,44.930769230769215L190.73384201388888,87.81923076923077L190.7934486111111,102.59192307692307L190.92138472222223,116.54769230769232L191.24413263888889,125.12538461538462L191.4665670138889,87.68307692307692L191.7413388888889,82.23692307692308L191.78204583333334,109.80807692307692L192.588915625,74.6123076923077L192.8709565972222,17.427692307692325L192.92765555555556,54.801923076923075L193.216965625,74.54423076923077L193.82756979166666,125.60192307692307L194.03255833333336,44.99884615384616L194.21573958333332,125.67L194.4367201388889,85.91307692307693L194.78418298611112,85.43653846153845L195.23777465277777,71.61692307692307L195.4805625,83.80269230769231L195.49219305555553,83.80269230769231L196.00539131944444,72.2976923076923L196.4066454861111,93.33346153846153L196.48369791666667,-6.467307692307713L197.00271145833335,139.14923076923077L197.02015729166666,92.72076923076924L197.37925069444444,42.275769230769214L197.38942743055557,42.275769230769214L197.54353229166668,25.596923076923076L197.77759722222223,34.92346153846154L197.90844097222222,34.92346153846154L198.37947847222222,59.158846153846156L198.6280815972222,35.19576923076923L198.69931875,-13.206923076923061L198.85923888888888,-13.206923076923061L198.9159378472222,66.44307692307693L199.08458090277776,66.44307692307693L199.19797881944444,57.86538461538461L199.21833229166666,57.86538461538461L199.24304722222223,57.86538461538461L199.4000597222222,60.17999999999999L199.47856597222224,87.75115384615384L200.09789305555557,60.04384615384615L200.37411875,112.05461538461539L200.54276180555556,79.37769230769231L200.86260208333331,106.4723076923077L200.90476284722223,106.4723076923077L201.57497361111112,32.26846153846154L201.94860520833333,114.57346153846154L201.99076597222222,114.57346153846154L202.07944895833333,88.29576923076922L202.52141006944444,60.11192307692308L202.7656517361111,101.02615384615385L203.50564583333332,101.36653846153845L203.52745312500002,65.69423076923077L203.9592375,87.54692307692306L204.77773784722223,34.44692307692307L204.8649670138889,34.44692307692307L205.26912881944446,45.679615384615374L205.27058263888887,45.679615384615374L205.4319565972222,85.845L205.47266354166666,53.440384615384616L205.51627812499999,87.75115384615384L205.57588472222224,93.46961538461538L205.7445277777778,-18.312692307692316L206.20393472222221,112.1226923076923L206.26499513888888,112.1226923076923L206.31733263888887,112.1226923076923L206.74184791666667,58.61423076923077L206.78691631944446,58.61423076923077L207.21288541666667,101.70692307692308L207.348090625,101.70692307692308L207.36553645833334,90.40615384615384L207.5181875,74.34L207.99649409722224,69.23423076923078L208.78301041666666,58.6823076923077L208.81790208333334,58.6823076923077L208.865878125,71.88923076923078L209.50119722222223,125.26153846153846L209.59714930555555,125.26153846153846L209.63785625,83.80269230769231L210.1248857638889,87.81923076923077L210.38511944444443,51.19384615384614L210.45635659722222,96.39692307692307L210.46071805555556,96.39692307692307L210.47671006944447,104.02153846153846L210.540678125,71.82115384615385L210.8677875,61.541538461538465L211.22688090277776,45.47538461538463L212.90458854166667,120.01961538461538L213.25786666666664,66.51115384615385L213.61841388888888,112.53115384615384L213.69546631944445,63.856153846153845L213.8539326388889,90.20192307692308L214.047290625,18.516923076923092L214.31479340277778,67.26L214.50088229166667,64.19653846153845L214.57793472222224,64.19653846153845L214.6389951388889,64.19653846153845L214.79746145833332,138.53653846153847L214.80763819444445,138.53653846153847L214.85416041666664,138.53653846153847L214.9006826388889,138.53653846153847L214.989365625,5.037692307692311L215.015534375,5.037692307692311L215.329559375,112.59923076923077L215.60869270833334,84.48346153846154L215.75988993055554,72.09346153846153L215.85002673611112,19.12961538461539L216.10299131944444,63.78807692307693L216.4053857638889,19.265769230769223L216.83280868055556,72.02538461538462L216.89096145833332,109.87615384615385L217.082865625,98.84769230769231L217.2108017361111,61.13307692307693L217.22824756944445,69.16615384615385L217.23987812500002,69.16615384615385L217.28058506944444,69.16615384615385L217.3503684027778,69.16615384615385L217.41288263888887,90.74653846153846L217.59751770833333,90.74653846153846L217.8184982638889,21.10384615384615L217.96533402777777,21.10384615384615L218.17759166666667,85.43653846153845L218.31425069444444,63.78807692307693L218.53377743055557,115.32230769230769L219.09640555555555,126.07846153846154L219.1400201388889,125.29557692307692L219.42060729166667,72.50192307692308L219.50783645833334,77.81192307692308L219.54418194444446,77.81192307692308L220.2420152777778,-5.854615384615386L220.25800729166667,-5.854615384615386L220.5167871527778,106.67653846153846L220.550225,106.60846153846154L220.59529340277777,41.18653846153845L220.80173576388887,24.099230769230786L220.8220892361111,24.099230769230786L221.7176420138889,64.40076923076923L221.96479131944443,72.16153846153846L222.3137079861111,65.69423076923077L222.3369690972222,65.69423076923077L222.53323472222223,69.37038461538462L222.735315625,45.88384615384615L222.89814340277778,56.29961538461538L223.15692326388887,98.43923076923078L223.20344548611112,98.43923076923078L223.3081204861111,98.43923076923078L223.68611354166666,96.465L223.89982500000002,96.465L224.436284375,87.615L224.4551840277778,87.615L224.57875868055555,87.615L224.82736180555557,63.44769230769231L225.09486458333333,138.26423076923078L225.12830243055555,138.26423076923078L225.13557152777778,138.26423076923078L225.16464791666667,138.26423076923078L225.31875277777777,87.47884615384616L225.81886666666668,25.3926923076923L226.23756666666668,94.96730769230768L226.61119826388887,87.68307692307692L227.10113541666666,110.21653846153846L227.20435659722224,110.21653846153846L227.3177545138889,5.105769230769226L227.7757076388889,111.51L227.7829767361111,111.51L227.80478402777777,111.51L228.28454444444444,112.46307692307693L228.3310666666667,87.95538461538462L228.61746909722223,25.733076923076908L228.95184756944445,83.39423076923077L229.07251458333332,10.824230769230752L229.10013715277776,99.12L229.24988055555554,88.02346153846155L229.3327482638889,88.43192307692307L229.65549618055556,56.06134615384616L229.93172187500002,101.36653846153845L230.350421875,7.011923076923068L230.39112881944445,96.39692307692307L230.51615729166667,84.48346153846154L231.0700625,45.441346153846155L231.1020465277778,45.441346153846155L231.53383090277777,112.25884615384615L231.74463472222223,138.3323076923077L231.81151041666666,34.78730769230771L232.57621944444443,100.41346153846153L232.63437222222223,111.57807692307692L232.6460027777778,111.57807692307692L232.67798680555555,111.57807692307692L232.692525,66.71538461538461L232.80301527777777,66.71538461538461L232.8524451388889,66.71538461538461L232.97892743055556,101.50269230769231L233.02399583333332,101.50269230769231L233.70292951388888,71.61692307692307L233.96025555555556,59.090769230769226L234.0503923611111,59.090769230769226L234.38913229166667,111.44192307692308L234.39785520833334,111.44192307692308L235.3064923611111,66.03461538461539L235.3588298611111,66.03461538461539L235.4998503472222,66.03461538461539L235.7804375,99.12L235.80515243055555,99.12L235.80660625000002,99.12L236.2412982638889,45.54346153846154L236.2936357638889,45.54346153846154L236.6120222222222,45.54346153846154L236.81701076388887,-46.49653846153848L237.24443368055557,128.39307692307693L237.47122951388891,32.06423076923076L237.67912569444445,128.05269230769233L237.80415416666665,99.52846153846153L237.81869236111112,99.52846153846153L238.02368090277778,101.775L238.08910277777778,101.775L238.1254482638889,56.36769230769231L238.3086295138889,80.60307692307693L238.410396875,31.04307692307691L238.6560923611111,96.1926923076923L238.75640590277777,86.04923076923077L238.84218124999998,87.88730769230769L239.01518576388887,48.13038461538463L239.195459375,48.13038461538463L239.22598958333333,48.13038461538463L240.2887315972222,93.26538461538462L240.77139965277777,51.12576923076924L240.78739166666668,51.12576923076924L240.91532777777778,13.819615384615389L240.9720267361111,58.41L241.03163333333333,58.41L241.236621875,71.61692307692307L241.7890732638889,114.77769230769232L241.91555555555556,115.05000000000001L242.34733993055556,65.96653846153845L243.21963159722222,29.81769230769231L243.3068607638889,85.98115384615384L243.32139895833333,85.98115384615384L243.5031263888889,85.57269230769231L244.33471111111112,114.84576923076924L244.51789236111114,114.84576923076924L244.6618204861111,95.58L244.85953993055557,-5.446153846153834L245.12122743055556,-5.446153846153834L245.22154097222221,112.19076923076923L245.22735625,112.19076923076923L245.3741920138889,57.252692307692314L245.4992204861111,98.03076923076922L245.52102777777776,85.50461538461538L246.33952812500002,119.95153846153846L246.50380972222223,104.15769230769232L246.68989861111112,57.04846153846154L246.7117059027778,84.96L246.81347326388888,84.96L246.98502395833333,106.26807692307693L247.05916875000003,-20.695384615384626L247.15948229166668,-20.695384615384626L247.16529756944445,8.781923076923078L247.93146041666668,109.1273076923077L247.95908298611113,109.1273076923077L248.07538854166665,109.1273076923077L248.25275451388887,92.925L248.40540555555555,85.02807692307692L248.6656392361111,58.886538461538464L248.68599270833334,58.886538461538464L248.73833020833334,61.74576923076923L248.79793680555554,61.74576923076923L248.93459583333333,61.74576923076923L249.00583298611113,61.74576923076923L249.0290940972222,61.74576923076923L249.14685347222223,61.74576923076923L249.26752048611112,61.74576923076923L249.39400277777779,61.74576923076923L249.42017152777777,61.74576923076923L249.6164371527778,56.23153846153846L249.81415659722222,-29.54538461538462L250.3767847222222,109.87615384615385L250.43057604166665,109.87615384615385L250.81874583333334,71.685L251.11823263888888,58.54615384615386L251.17202395833334,58.54615384615386L252.05303854166667,23.89500000000001" style="fill: none;" fill="none"></path></g></g></g></g></g></g><g transform="translate(68, 177)" clip-path="url(#clip_1)"><clipPath id="clip_1"><rect width="261" height="23"></rect></clipPath><g><g><line x1="0" y1="0" x2="0" y2="5" style="visibility: inherit;" fill="rgb(0, 0, 0)" stroke="rgb(204, 204, 204)" stroke-width="1px"></line><line x1="29.076388888888886" y1="0" x2="29.076388888888886" y2="5" style="visibility: inherit;" fill="rgb(0, 0, 0)" stroke="rgb(204, 204, 204)" stroke-width="1px"></line><line x1="58.15277777777777" y1="0" x2="58.15277777777777" y2="5" style="visibility: inherit;" fill="rgb(0, 0, 0)" stroke="rgb(204, 204, 204)" stroke-width="1px"></line><line x1="87.22916666666666" y1="0" x2="87.22916666666666" y2="5" style="visibility: inherit;" fill="rgb(0, 0, 0)" stroke="rgb(204, 204, 204)" stroke-width="1px"></line><line x1="116.30555555555554" y1="0" x2="116.30555555555554" y2="5" style="visibility: inherit;" fill="rgb(0, 0, 0)" stroke="rgb(204, 204, 204)" stroke-width="1px"></line><line x1="145.38194444444446" y1="0" x2="145.38194444444446" y2="5" style="visibility: inherit;" fill="rgb(0, 0, 0)" stroke="rgb(204, 204, 204)" stroke-width="1px"></line><line x1="174.45833333333331" y1="0" x2="174.45833333333331" y2="5" style="visibility: inherit;" fill="rgb(0, 0, 0)" stroke="rgb(204, 204, 204)" stroke-width="1px"></line><line x1="203.53472222222223" y1="0" x2="203.53472222222223" y2="5" style="visibility: inherit;" fill="rgb(0, 0, 0)" stroke="rgb(204, 204, 204)" stroke-width="1px"></line><line x1="232.6111111111111" y1="0" x2="232.6111111111111" y2="5" style="visibility: inherit;" fill="rgb(0, 0, 0)" stroke="rgb(204, 204, 204)" stroke-width="1px"></line><line x1="261.6875" y1="0" x2="261.6875" y2="5" style="visibility: inherit;" fill="rgb(0, 0, 0)" stroke="rgb(204, 204, 204)" stroke-width="1px"></line></g><g transform="translate(0, 8)"><text x="0" y="0" dx="0em" dy="0.95em" style="text-anchor: middle; visibility: hidden; font-family: &quot;Helvetica Neue&quot;, sans-serif; font-size: 12px; font-weight: 200;" fill="rgb(50, 49, 63)" stroke="none" stroke-width="1px">-20k</text><text x="29.076388888888886" y="0" dx="0em" dy="0.95em" style="text-anchor: middle; visibility: inherit; font-family: &quot;Helvetica Neue&quot;, sans-serif; font-size: 12px; font-weight: 200;" fill="rgb(50, 49, 63)" stroke="none" stroke-width="1px">0</text><text x="58.15277777777777" y="0" dx="0em" dy="0.95em" style="text-anchor: middle; visibility: hidden; font-family: &quot;Helvetica Neue&quot;, sans-serif; font-size: 12px; font-weight: 200;" fill="rgb(50, 49, 63)" stroke="none" stroke-width="1px">20k</text><text x="87.22916666666666" y="0" dx="0em" dy="0.95em" style="text-anchor: middle; visibility: inherit; font-family: &quot;Helvetica Neue&quot;, sans-serif; font-size: 12px; font-weight: 200;" fill="rgb(50, 49, 63)" stroke="none" stroke-width="1px">40k</text><text x="116.30555555555554" y="0" dx="0em" dy="0.95em" style="text-anchor: middle; visibility: hidden; font-family: &quot;Helvetica Neue&quot;, sans-serif; font-size: 12px; font-weight: 200;" fill="rgb(50, 49, 63)" stroke="none" stroke-width="1px">60k</text><text x="145.38194444444446" y="0" dx="0em" dy="0.95em" style="text-anchor: middle; visibility: inherit; font-family: &quot;Helvetica Neue&quot;, sans-serif; font-size: 12px; font-weight: 200;" fill="rgb(50, 49, 63)" stroke="none" stroke-width="1px">80k</text><text x="174.45833333333331" y="0" dx="0em" dy="0.95em" style="text-anchor: middle; visibility: hidden; font-family: &quot;Helvetica Neue&quot;, sans-serif; font-size: 12px; font-weight: 200;" fill="rgb(50, 49, 63)" stroke="none" stroke-width="1px">100k</text><text x="203.53472222222223" y="0" dx="0em" dy="0.95em" style="text-anchor: middle; visibility: inherit; font-family: &quot;Helvetica Neue&quot;, sans-serif; font-size: 12px; font-weight: 200;" fill="rgb(50, 49, 63)" stroke="none" stroke-width="1px">120k</text><text x="232.6111111111111" y="0" dx="0em" dy="0.95em" style="text-anchor: middle; visibility: hidden; font-family: &quot;Helvetica Neue&quot;, sans-serif; font-size: 12px; font-weight: 200;" fill="rgb(50, 49, 63)" stroke="none" stroke-width="1px">140k</text><text x="261.6875" y="0" dx="0em" dy="0.95em" style="text-anchor: middle; visibility: hidden; font-family: &quot;Helvetica Neue&quot;, sans-serif; font-size: 12px; font-weight: 200;" fill="rgb(50, 49, 63)" stroke="none" stroke-width="1px">160k</text></g><line x1="0" y1="0" x2="261.6875" y2="0" fill="rgb(0, 0, 0)" stroke="rgb(204, 204, 204)" stroke-width="1px"></line></g></g></g></g></svg>