<svg viewBox="0 0 330 200" xmlns="http://www.w3.org/2000/svg"><g><g><g><g><g><line x1="39.15625" y1="177" x2="34.15625" y2="177" style="visibility: inherit;" fill="rgb(0, 0, 0)" stroke="rgb(204, 204, 204)" stroke-width="1px"></line><line x1="39.15625" y1="160.9090909090909" x2="34.15625" y2="160.9090909090909" style="visibility: inherit;" fill="rgb(0, 0, 0)" stroke="rgb(204, 204, 204)" stroke-width="1px"></line><line x1="39.15625" y1="144.8181818181818" x2="34.15625" y2="144.8181818181818" style="visibility: inherit;" fill="rgb(0, 0, 0)" stroke="rgb(204, 204, 204)" stroke-width="1px"></line><line x1="39.15625" y1="128.72727272727275" x2="34.15625" y2="128.72727272727275" style="visibility: inherit;" fill="rgb(0, 0, 0)" stroke="rgb(204, 204, 204)" stroke-width="1px"></line><line x1="39.15625" y1="112.63636363636364" x2="34.15625" y2="112.63636363636364" style="visibility: inherit;" fill="rgb(0, 0, 0)" stroke="rgb(204, 204, 204)" stroke-width="1px"></line><line x1="39.15625" y1="96.54545454545455" x2="34.15625" y2="96.54545454545455" style="visibility: inherit;" fill="rgb(0, 0, 0)" stroke="rgb(204, 204, 204)" stroke-width="1px"></line><line x1="39.15625" y1="80.45454545454547" x2="34.15625" y2="80.45454545454547" style="visibility: inherit;" fill="rgb(0, 0, 0)" stroke="rgb(204, 204, 204)" stroke-width="1px"></line><line x1="39.15625" y1="64.36363636363636" x2="34.15625" y2="64.36363636363636" style="visibility: inherit;" fill="rgb(0, 0, 0)" stroke="rgb(204, 204, 204)" stroke-width="1px"></line><line x1="39.15625" y1="48.27272727272728" x2="34.15625" y2="48.27272727272728" style="visibility: inherit;" fill="rgb(0, 0, 0)" stroke="rgb(204, 204, 204)" stroke-width="1px"></line><line x1="39.15625" y1="32.18181818181819" x2="34.15625" y2="32.18181818181819" style="visibility: inherit;" fill="rgb(0, 0, 0)" stroke="rgb(204, 204, 204)" stroke-width="1px"></line><line x1="39.15625" y1="16.090909090909093" x2="34.15625" y2="16.090909090909093" style="visibility: inherit;" fill="rgb(0, 0, 0)" stroke="rgb(204, 204, 204)" stroke-width="1px"></line><line x1="39.15625" y1="0" x2="34.15625" y2="0" style="visibility: inherit;" fill="rgb(0, 0, 0)" stroke="rgb(204, 204, 204)" stroke-width="1px"></line></g><g transform="translate(29.15625, 0)"><text x="0" y="177" dx="0em" dy="0.3em" style="text-anchor: end; visibility: hidden; font-family: &quot;Helvetica Neue&quot;, sans-serif; font-size: 12px; font-weight: 200;" fill="rgb(50, 49, 63)" stroke="none" stroke-width="1px">-50</text><text x="0" y="160.9090909090909" dx="0em" dy="0.3em" style="text-anchor: end; visibility: inherit; font-family: &quot;Helvetica Neue&quot;, sans-serif; font-size: 12px; font-weight: 200;" fill="rgb(50, 49, 63)" stroke="none" stroke-width="1px">0</text><text x="0" y="144.8181818181818" dx="0em" dy="0.3em" style="text-anchor: end; visibility: hidden; font-family: &quot;Helvetica Neue&quot;, sans-serif; font-size: 12px; font-weight: 200;" fill="rgb(50, 49, 63)" stroke="none" stroke-width="1px">50</text><text x="0" y="128.72727272727275" dx="0em" dy="0.3em" style="text-anchor: end; visibility: inherit; font-family: &quot;Helvetica Neue&quot;, sans-serif; font-size: 12px; font-weight: 200;" fill="rgb(50, 49, 63)" stroke="none" stroke-width="1px">100</text><text x="0" y="112.63636363636364" dx="0em" dy="0.3em" style="text-anchor: end; visibility: hidden; font-family: &quot;Helvetica Neue&quot;, sans-serif; font-size: 12px; font-weight: 200;" fill="rgb(50, 49, 63)" stroke="none" stroke-width="1px">150</text><text x="0" y="96.54545454545455" dx="0em" dy="0.3em" style="text-anchor: end; visibility: inherit; font-family: &quot;Helvetica Neue&quot;, sans-serif; font-size: 12px; font-weight: 200;" fill="rgb(50, 49, 63)" stroke="none" stroke-width="1px">200</text><text x="0" y="80.45454545454547" dx="0em" dy="0.3em" style="text-anchor: end; visibility: hidden; font-family: &quot;Helvetica Neue&quot;, sans-serif; font-size: 12px; font-weight: 200;" fill="rgb(50, 49, 63)" stroke="none" stroke-width="1px">250</text><text x="0" y="64.36363636363636" dx="0em" dy="0.3em" style="text-anchor: end; visibility: inherit; font-family: &quot;Helvetica Neue&quot;, sans-serif; font-size: 12px; font-weight: 200;" fill="rgb(50, 49, 63)" stroke="none" stroke-width="1px">300</text><text x="0" y="48.27272727272728" dx="0em" dy="0.3em" style="text-anchor: end; visibility: hidden; font-family: &quot;Helvetica Neue&quot;, sans-serif; font-size: 12px; font-weight: 200;" fill="rgb(50, 49, 63)" stroke="none" stroke-width="1px">350</text><text x="0" y="32.18181818181819" dx="0em" dy="0.3em" style="text-anchor: end; visibility: inherit; font-family: &quot;Helvetica Neue&quot;, sans-serif; font-size: 12px; font-weight: 200;" fill="rgb(50, 49, 63)" stroke="none" stroke-width="1px">400</text><text x="0" y="16.090909090909093" dx="0em" dy="0.3em" style="text-anchor: end; visibility: hidden; font-family: &quot;Helvetica Neue&quot;, sans-serif; font-size: 12px; font-weight: 200;" fill="rgb(50, 49, 63)" stroke="none" stroke-width="1px">450</text><text x="0" y="0" dx="0em" dy="0.3em" style="text-anchor: end; visibility: hidden; font-family: &quot;Helvetica Neue&quot;, sans-serif; font-size: 12px; font-weight: 200;" fill="rgb(50, 49, 63)" stroke="none" stroke-width="1px">500</text></g><line x1="39.15625" y1="0" x2="39.15625" y2="177" fill="rgb(0, 0, 0)" stroke="rgb(204, 204, 204)" stroke-width="1px"></line></g></g><g transform="translate(39, 0)" clip-path="url(#clip_0)"><clipPath id="clip_0"><rect width="290" height="177"></rect></clipPath><g><g><g><line x1="0" y1="0" x2="0" y2="177" fill="rgb(0, 0, 0)" stroke="rgb(60, 60, 60)" stroke-width="1px" opacity="0.25"></line><line x1="32.31597222222222" y1="0" x2="32.31597222222222" y2="177" fill="rgb(0, 0, 0)" stroke="rgb(60, 60, 60)" stroke-width="1px" opacity="0.25"></line><line x1="64.63194444444444" y1="0" x2="64.63194444444444" y2="177" fill="rgb(0, 0, 0)" stroke="rgb(60, 60, 60)" stroke-width="1px" opacity="0.25"></line><line x1="96.94791666666666" y1="0" x2="96.94791666666666" y2="177" fill="rgb(0, 0, 0)" stroke="rgb(60, 60, 60)" stroke-width="1px" opacity="0.25"></line><line x1="129.26388888888889" y1="0" x2="129.26388888888889" y2="177" fill="rgb(0, 0, 0)" stroke="rgb(60, 60, 60)" stroke-width="1px" opacity="0.25"></line><line x1="161.57986111111111" y1="0" x2="161.57986111111111" y2="177" fill="rgb(0, 0, 0)" stroke="rgb(60, 60, 60)" stroke-width="1px" opacity="0.25"></line><line x1="193.89583333333331" y1="0" x2="193.89583333333331" y2="177" fill="rgb(0, 0, 0)" stroke="rgb(60, 60, 60)" stroke-width="1px" opacity="0.25"></line><line x1="226.21180555555557" y1="0" x2="226.21180555555557" y2="177" fill="rgb(0, 0, 0)" stroke="rgb(60, 60, 60)" stroke-width="1px" opacity="0.25"></line><line x1="258.52777777777777" y1="0" x2="258.52777777777777" y2="177" fill="rgb(0, 0, 0)" stroke="rgb(60, 60, 60)" stroke-width="1px" opacity="0.25"></line><line x1="290.84375" y1="0" x2="290.84375" y2="177" fill="rgb(0, 0, 0)" stroke="rgb(60, 60, 60)" stroke-width="1px" opacity="0.25"></line></g><g><line x1="0" y1="177" x2="290.84375" y2="177" fill="rgb(0, 0, 0)" stroke="rgb(60, 60, 60)" stroke-width="1px" opacity="0.25"></line><line x1="0" y1="160.9090909090909" x2="290.84375" y2="160.9090909090909" fill="rgb(0, 0, 0)" stroke="rgb(60, 60, 60)" stroke-width="1px" opacity="0.25"></line><line x1="0" y1="144.8181818181818" x2="290.84375" y2="144.8181818181818" fill="rgb(0, 0, 0)" stroke="rgb(60, 60, 60)" stroke-width="1px" opacity="0.25"></line><line x1="0" y1="128.72727272727275" x2="290.84375" y2="128.72727272727275" fill="rgb(0, 0, 0)" stroke="rgb(60, 60, 60)" stroke-width="1px" opacity="0.25"></line><line x1="0" y1="112.63636363636364" x2="290.84375" y2="112.63636363636364" fill="rgb(0, 0, 0)" stroke="rgb(60, 60, 60)" stroke-width="1px" opacity="0.25"></line><line x1="0" y1="96.54545454545455" x2="290.84375" y2="96.54545454545455" fill="rgb(0, 0, 0)" stroke="rgb(60, 60, 60)" stroke-width="1px" opacity="0.25"></line><line x1="0" y1="80.45454545454547" x2="290.84375" y2="80.45454545454547" fill="rgb(0, 0, 0)" stroke="rgb(60, 60, 60)" stroke-width="1px" opacity="0.25"></line><line x1="0" y1="64.36363636363636" x2="290.84375" y2="64.36363636363636" fill="rgb(0, 0, 0)" stroke="rgb(60, 60, 60)" stroke-width="1px" opacity="0.25"></line><line x1="0" y1="48.27272727272728" x2="290.84375" y2="48.27272727272728" fill="rgb(0, 0, 0)" stroke="rgb(60, 60, 60)" stroke-width="1px" opacity="0.25"></line><line x1="0" y1="32.18181818181819" x2="290.84375" y2="32.18181818181819" fill="rgb(0, 0, 0)" stroke="rgb(60, 60, 60)" stroke-width="1px" opacity="0.25"></line><line x1="0" y1="16.090909090909093" x2="290.84375" y2="16.090909090909093" fill="rgb(0, 0, 0)" stroke="rgb(60, 60, 60)" stroke-width="1px" opacity="0.25"></line><line x1="0" y1="0" x2="290.84375" y2="0" fill="rgb(0, 0, 0)" stroke="rgb(60, 60, 60)" stroke-width="1px" opacity="0.25"></line></g></g></g><g><g><line x1="0" y1="160.9090909090909" x2="290.84375" y2="160.9090909090909" fill="rgb(0, 0, 0)" stroke="rgb(153, 153, 153)" stroke-width="1.5px"></line></g></g><g><g><line x1="32.31597222222222" y1="0" x2="32.31597222222222" y2="177" fill="rgb(0, 0, 0)" stroke="rgb(153, 153, 153)" stroke-width="1.5px"></line></g></g><g><g><g><g><g><path stroke="rgb(255, 112, 67)" stroke-width="2px" d="M32.3854515625,154.47272727272727L32.587426388888886,152.4401913875598L32.687605902777776,150.340154310634L33.0834765625,151.2610959845621L33.183656076388885,146.2299821738175L33.253135416666666,145.79131026285813L33.264446006944446,145.48140893999602L33.342004340277775,147.9077119207259L33.36300972222222,147.45589923828607L33.47126822916667,146.11212936891565L33.623153298611115,144.98557289004128L33.956007812500005,143.84103781859505L34.47144756944444,141.42620747187166L34.55546909722222,139.69617425191728L34.5667796875,138.2338384995271L34.63787482638889,136.84969786905398L35.04990347222222,136.26111440252717L35.1193828125,135.1474903263371L35.12423020833333,135.3726055705961L35.35044201388889,136.24639567279428L35.41507395833333,135.14915127851742L35.607353993055554,136.11458165191945L36.04523541666667,134.42122407030652L36.177730902777775,133.1030462133768L36.332847569444446,131.7995257571594L36.33446336805555,130.6453655838786L36.65600729166667,129.69000216677085L37.22638420138889,128.94319046365206L37.53661753472222,128.27885299479226L37.5624703125,127.68715777695577L37.657802430555556,126.92537856648661L38.163547395833334,126.44545247435393L38.16677899305556,126.01674987334627L38.247568923611105,125.63350671485901L38.491554513888886,125.2246489709768L38.70968732638889,124.85866634375381L39.292990625,124.62942442853858L39.42710190972222,123.70284651584178L39.57575538194445,123.59201437271513L39.60322395833333,123.49261647401096L39.87306232638888,123.40344127451608L40.054031770833326,123.29083993490732L40.349722916666664,122.34391622513749L40.61309809027778,121.46114554263237L40.95403159722222,120.08391970231892L40.97665277777778,118.84671839989154L41.564803472222216,117.67027497058118L41.79263107638889,117.94096981969852L41.86211041666667,118.18426605339228L41.99622170138888,117.88539001723876L42.33553940972222,118.36032668794228L42.36623958333333,118.10869812659948L43.14182291666667,118.33467734092613L43.1612125,118.5378967713723L43.392271701388886,117.33262095350318L43.57324114583333,117.82981153617854L43.878627083333335,117.92214890647392L44.24541336805556,116.90859450463732L44.37144565972223,115.9968236321393L44.37629305555556,115.17657636705061L44.917585590277774,115.00272847362687L44.97413854166667,114.84631886892187L45.35061961805555,114.14167297236294L45.53482065972223,113.60432667938356L45.60106840277778,113.18526752263074L46.04864461805556,113.87121403450067L46.064802604166665,113.10343271958942L46.21507187500001,112.5091752118978L46.66264809027778,112.0388393344334L46.75474861111111,111.77660927502586L47.27988315972222,111.60503341049372L47.61596927083334,111.0320574494686L47.75492795138889,110.8383996099227L47.775933333333334,110.66412436830832L47.98760295138889,110.36241848559321L49.12027777777778,110.07480813849621L49.249541666666666,110.13789168474247L49.319021006944446,109.87275827678701L49.45636388888889,109.859479225626L49.73589704861111,109.65439558842729L49.93302447916666,111.01485989730526L49.937871875,112.23922694052347L50.036435590277776,111.9570774909359L50.12368871527778,111.63877866198628L50.25618420138889,111.35231838585912L50.95097760416667,111.06232560455503L51.00591475694445,110.80133849934818L51.19819479166667,110.69519466699897L51.317763888888884,110.27782169140707L51.65708159722222,110.1274826152888L51.66516059027778,109.99217962289363L51.97216232638888,109.74167347618746L52.17575295138889,109.58058809205879L53.124226736111105,109.56434665292464L53.37790711805556,109.45317971439788L53.421533680555555,109.38531354093435L54.28760173611111,109.13113656216734L54.324765104166666,108.9989276614852L54.63176684027778,109.00867154654107L55.295860069444444,108.98525831545334L55.41381336805555,108.93200393812104L55.48490850694445,108.6587976663489L55.661030555555556,108.50946046260441L55.96964809027777,108.47160466572441L56.01812204861111,108.37316992800515L56.19747569444444,108.15584986755456L56.34936076388889,108.15335575820426L57.318839930555555,107.95801794892819L57.37377708333334,107.94312509169055L57.78903732638889,107.86535731682947L58.3577984375,107.82754854272828L58.68903715277777,107.97052203373032L59.55510520833334,107.98656084773506L59.89280711805555,108.0009957597647L59.942896875,108.04616915810328L60.29837256944444,107.99027923993671L60.333920138888885,108.10088816954297L60.66354305555556,108.10389027364813L60.68616423611111,108.10659216506876L62.13068819444444,108.20556963182084L63.20519427083333,107.94064826232847L63.29083159722222,107.57349156663689L63.87575069444444,107.37177829875225L64.05187274305555,107.12587267514745L64.07449392361112,106.90455771289378L64.19891041666666,106.7053743270478L64.62548125,106.5261093447341L64.71919756944445,106.26822532450738L64.73373975694444,106.03612977441473L64.85654045138888,105.92378939775426L65.02781510416666,105.59741012723535L65.04074149305556,105.30366884660964L65.15546319444445,105.20021096793633L65.34451163194444,105.1714625771776L65.50447569444444,105.11340718995129L65.56749184027778,104.28879325024616L65.89226736111111,104.28682301506957L65.89711475694445,104.28504980361224L66.01506805555556,104.25127208124366L66.37862274305556,104.34959945717725L66.48203385416667,104.245003110865L66.62422413194444,104.24741189145361L66.76479861111112,104.2495797938378L67.09442152777778,104.25153090586568L67.61955607638889,104.31765055788016L68.261028125,104.31279459198807L68.39837100694444,104.30842422287769L68.44361336805555,104.30449089083427L69.70393628472222,104.33313271519822L69.72009427083333,104.39109217888527L69.79118940972222,104.25016476181598L69.8332001736111,104.1876937332529L69.94307447916667,104.22801527304237L70.064259375,104.29648647916056L70.17090208333333,104.26156510114897L70.35348732638889,104.35886314356702L70.56354114583334,103.60970405288658L70.58131493055555,102.93546088059385L70.61363090277777,102.32864203307938L70.9965751736111,102.5226869299425L71.33427708333333,102.72950915492383L71.55240989583334,103.04437643342308L71.55564149305556,103.32775698175946L71.61704184027778,103.26098128149233L72.100165625,103.32961042800467L72.25851388888888,103.39137665949826L72.27144027777778,103.4469662675448L72.55258923611112,103.6579060087608L72.60591059027777,103.84775177503172L73.12135034722222,103.92206750785628L73.2489984375,103.92458802983568L73.34433055555556,103.92685649960995L74.02458177083334,103.86453448525647L74.08113472222222,103.808444672482L74.20070381944444,103.91887293359174L74.81793888888889,103.37462199905521L75.61614340277778,103.43188707233281L75.61775920138888,103.48342563819604L76.19298350694444,103.59417398418141L76.2010625,103.69384749543258L76.76012881944445,103.65482638204917L76.91847708333334,103.81279829004131L76.97503003472222,103.95497300709319L77.277184375,103.88983934249951L77.4242220486111,103.86340086270444L78.26766892361111,103.87178804918713L78.43732777777777,103.97588197183006L79.12727378472222,103.97302104736718L79.1692845486111,104.06699167011446L79.27592725694444,104.15156523054685L79.5005232638889,104.03459052546097L79.60070277777777,104.18676783680066L79.93678888888888,104.2271819622711L79.96264166666666,104.26355467518319L80.16300069444443,104.36065375323543L80.51524479166666,104.5767701963261L80.79962534722222,104.61036590399871L80.84163611111111,104.7693293137373L81.0726953125,104.65494183681936L81.3199125,104.58417492581479L81.55097170138889,104.52048470592014L81.78041510416666,104.49534532622285L81.93230017361111,104.47271988449802L81.95492135416667,104.48453880514458L83.06335920138888,104.55953947011592L83.12314375,104.53049461400254L83.5319407986111,104.50435424350255L83.82924774305556,104.57737336462901L83.91973246527778,104.67527239182924L84.02960677083333,104.73119969811461L84.35761388888889,104.7493524555799L84.72601597222223,104.70132630092142L84.89890642361111,104.706375489012L85.08472326388889,104.63046521282583L85.25438211805555,104.75523687337956L85.46766753472222,104.61007682238626L85.48059392361111,104.47943277649588L85.69387934027777,104.71585313523498L85.93140173611111,104.83208600354074L86.07682361111112,104.90451376682924L86.24486666666667,104.84097148105052L86.29010902777777,104.81596524203464L86.82978576388889,104.89000508147217L86.84917534722221,104.95664093696507L86.87987552083334,105.01661320690796L86.90734409722224,104.94186097712286L86.99459722222223,104.81022033395061L87.05438177083333,104.69174375509662L87.11416631944445,104.58511483412887L87.31290954861112,104.74660335072082L87.48256840277777,104.89194301565264L87.83965989583334,104.89402144136015L87.87359166666666,104.76716475176683L88.10303506944445,104.97481191295785L88.22260416666667,105.00078526711707L88.51991111111111,104.89543401313097L89.40860034722223,104.89716333909061L89.44253211805555,104.8987197324543L89.47969548611111,104.93230230466379L89.65097013888888,104.86598116510584L89.79639201388889,104.93501941223225L90.11632013888888,104.99715383464593L90.24235243055556,104.95652936027194L90.41039548611111,104.88778551515335L90.4378640625,104.82591605454674L90.54612256944445,104.73805172181885L90.88382447916666,104.75551927690978L90.9306826388889,104.80342189467356L91.50267534722222,104.78217061429703L91.55114930555555,104.6986808255943L91.72565555555555,104.65572183394382L91.85976684027777,104.61705874145841L91.95186736111111,104.64662559458536L92.42852795138889,104.64105394421772L92.89226215277777,104.60385764070496L93.33660677083334,104.63474460390725L93.51757621527777,104.66254287078931L94.0281685763889,103.97956131098202L94.42727083333332,104.08896881624761L94.45312361111111,104.18743557098662L94.88131024305555,104.25996474116077L95.07520607638888,104.26087735795379L95.30303368055556,104.32606234943118L95.81201024305555,104.352547023579L96.46802447916667,104.40856504849387L96.59567256944445,104.36243581637173L96.75240503472223,104.25655587109813L96.80249479166666,104.1612639203519L96.9818484375,104.22031934649856L97.42780885416667,104.25737832093962L97.75743177083334,104.25854957975476L98.02080694444444,104.25960371268836L98.02727013888888,104.26055243232862L98.08059149305556,104.26140628000486L98.11290746527779,104.26217474291346L98.2308607638889,104.19850272316755L98.62996302083333,104.33428881448721L98.9595859375,104.29558720576574L99.00321249999999,104.29293757609827L99.11631840277776,104.22618927303388L99.43624652777778,104.16611580027595L99.46209930555555,104.1120496747938L100.3976467013889,104.09557198004168L100.90823906249999,104.14510569112842L100.93732343750001,104.22186784928832L101.27664114583334,104.25877197345041L102.63391197916667,104.22762204883263L102.77771805555555,104.16740529849481L102.82942361111111,104.11321022319078L102.94576111111112,104.1287982917808L102.98938767361112,104.14282755351181L102.99585086805556,104.15545388906972L103.09764618055556,104.16681759107183L103.40141631944445,104.20922674105556L103.53068020833332,104.18303133967729L103.73588663194444,104.25600093298227L103.74719722222221,104.32167356695678L103.81829236111112,104.38077893753382L103.90392968750001,104.40179195287135L104.73121857638888,104.42070366667512L104.97035677083333,104.43772420909852L105.52942309027777,104.4852245154614L105.54396527777777,104.52797479118799L105.62960260416668,104.46990458479647L105.84773541666667,104.48200503540772L106.09172100694444,104.52507725913966L107.15814809027778,104.56384226049843L107.18400086805556,104.5987307617213L107.31164895833334,104.791039503731L107.4506076388889,104.96411737153971L108.746478125,104.92679654347666L109.20536493055556,104.76448052549262L109.29100225694445,104.87585065476155L109.3410920138889,104.6864474074672L109.39926076388889,104.51598448490229L109.46227690972222,104.58784058186662L109.68525711805556,104.1376019782254L109.79028402777777,104.11856905313014L109.82744739583333,104.06925760236257L109.99872204861111,103.92833184212631L110.16838090277778,103.86586229427732L110.24270763888889,103.71309424666777L110.71936822916666,103.51123936745553L111.23965538194444,103.78011543070998L111.93121718750001,103.63592206945717L112.05886527777778,103.02342077160236L112.26245590277777,103.01926051262393L113.11721336805554,102.85460718863428L113.19800329861111,102.83514646977083L113.34827256944445,102.7210863682483L113.37412534722222,102.61843227687801L113.42259930555555,102.52604359464475L113.54055260416668,102.47507559881664L114.12385590277778,102.42920440257136L114.43085763888888,102.25919305322331L114.68938541666667,102.13836465699188L114.93983420138889,102.06180091856542L115.09010347222222,101.96071173579979L115.17897239583334,101.80536783494708L116.01272447916666,101.69774014236147L116.02565086805555,101.60087521903442L116.2647890625,101.54587860622189L116.34073159722222,101.49638165469061L116.81092899305554,101.355288943767L116.90949270833335,101.29266914029938L117.16317309027778,101.332856771724L117.44109045138889,101.3046620036425L117.80302934027777,101.18274125782371L117.85635069444444,101.07301258658678L118.10356788194444,100.97425678247355L118.1278048611111,100.88537655877164L118.71110815972222,100.80538435743993L119.09566822916666,99.99320955805956L119.10697881944445,99.26225223861725L119.11344201388889,98.60439065111918L119.11990520833334,98.78467885873454L119.3477328125,98.94693824558836L119.41882795138888,99.1251535119386L119.68705052083332,98.94763816074475L119.74521927083333,98.80396525376119L119.76945625,98.89993236474871L119.96012048611112,98.63230276463747L120.68722986111112,97.10416339726463L120.87466250000001,96.66211069390181L121.08471631944444,95.6206268972389L121.15742725694444,94.68329148024229L121.49836076388888,93.80750778676352L121.66963541666667,93.01930246263264L122.06389027777777,92.05246312546028L122.07681666666667,91.2466713583688L122.33857604166667,90.9398224043501L122.42421336805556,90.24529470936962L123.346834375,89.52367432934176L123.62152013888888,88.32712507822575L123.64414131944444,88.022594388585L123.78471579861112,87.61978949518102L124.07394375,87.19290145475385L124.12726510416667,86.87306585473299L124.41649305555555,85.84503199653244L124.9012326388889,85.53125606960647L124.91092743055556,85.24885773537311L125.20015538194444,85.2843355981994L125.6461157986111,85.09099294747037L126.51056805555557,85.850257289087L126.74485885416668,86.53359519654192L126.93229149305556,86.6658720405241L127.069634375,84.46783029101712L127.19566666666667,84.9997745346427L127.23929322916666,84.64179708117842L127.26676180555556,84.86670828215149L128.07627690972222,84.97258290848181L128.15221944444446,82.62205189036091L128.3477310763889,82.75930124677934L128.6838171875,81.98173475846505L128.73229114583333,81.28192491898217L129.55473263888888,78.49591424526578L129.56442743055555,75.98850463892103L129.599975,73.73183599321074L129.745396875,76.23847057570785L130.03300902777778,77.04625988177344L131.2125420138889,76.74345207541427L131.32726371527778,74.63656141332739L131.58902309027778,74.63908709017646L131.74413975694443,73.3862692902497L131.98004635416666,75.25164236122474L132.72169791666667,73.35829630692047L132.85096180555556,74.61501213077386L133.33085399305554,74.65187455406011L133.38094375,74.68505073501773L133.90930989583333,72.59090929787958L134.1516796875,70.83490927718253L134.46837621527777,71.05669107673701L134.6913564236111,69.35756742360877L134.8044623263889,69.7270834085206L134.806078125,70.05964779494128L134.94180520833334,68.6211375609017L135.19710138888888,68.00229653208423L135.51056631944445,66.70515778796673L135.70930954861112,68.91682382735189L135.88704739583332,69.4913232627985L136.09225381944444,69.75091820924595L136.5543722222222,70.14546275195771L136.57053020833334,70.50055284039829L136.83875277777778,68.8248611927221L137.16514409722222,69.44073870981352L137.7403684027778,69.96284665701398L137.8163109375,68.50183471858533L138.07160711805557,68.92474215581771L138.121696875,69.30535884932686L138.31559270833336,68.9399138734851L138.38345625,68.12828612250019L138.49009895833333,68.71727569206836L138.81002708333332,69.15082085013425L139.03947048611113,69.66973876512083L139.4418043402778,68.49549216133602L140.2319298611111,67.95357930883878L140.49207343749998,68.72094865068217L140.5373157986111,69.41158105834121L140.6100267361111,70.03315022523437L141.28704635416668,70.36728974816548L142.6168486111111,70.79674259153074L142.6459329861111,69.38106833237768L142.8026654513889,68.04259786277628L142.88507118055554,66.61270171286226L143.14521475694445,65.77634063248513L143.6929704861111,66.53616111469115L143.78830260416666,67.28436318504022L144.08399375,67.76465413926348L144.10661493055557,67.00618872533711L144.54288055555557,67.64302439825795L144.5768123263889,68.08744923115943L144.9694513888889,67.65070430804347L145.09709947916667,68.83454296814821L145.28614791666666,67.45417958042431L146.16998975694443,65.98657980420006L146.36065399305556,65.53464909650734L146.4834546875,64.67736600503841L146.9019465277778,65.51490213180729L147.03282621527777,66.26868464589927L147.7308512152778,64.21163436312752L147.93444184027777,65.22447092681477L147.97645260416667,64.07638747049693L148.16388524305557,63.84765781435634L148.41271822916667,64.7038011238298L148.5032029513889,63.865239193265L148.58560868055554,64.84835163757486L148.62115625,65.86188011018099L148.67447760416667,64.84314664461745L148.71487256944445,65.8250137983375L149.13498020833333,64.8099669639583L149.13821180555556,63.896424813017035L149.3030232638889,63.07423687716985L149.30787065972223,62.334267734907414L149.55670364583332,61.53956823414393L149.82331041666666,60.85652050163863L150.06568020833333,62.269232087838404L150.28542881944443,63.331490697236404L150.56011458333336,64.75415980933094L150.78471059027777,65.90583473748875L151.54575173611113,67.48943308192169L151.55383072916666,68.91467159191134L151.6297732638889,70.19738625090203L151.72672118055556,71.35182944399364L151.7638845486111,72.3908283177761L152.18883958333333,71.5720182132712L152.20015017361112,70.83508911921682L153.34251979166666,69.28685293456785L153.7787854166667,69.66344036838379L154.2602934027778,68.23236905881812L154.2893777777778,66.94440488020904L154.41864166666667,67.74832802855177L155.00194496527777,66.63749522569661L155.27824652777778,65.73429115767239L155.4705265625,66.56268022372333L155.81469166666665,67.340412201351L155.89709739583336,68.0403709812159L156.12977239583336,68.79906115582159L156.20571493055556,69.32097322205763L156.39476336805555,69.9194213543973L156.58219600694446,68.65584285532121L156.59350659722222,67.51862220615273L157.05400920138888,66.334214530992L157.59045434027777,66.84515671425643L158.0299515625,65.5028228610126L158.18991562500003,65.19581330218409L158.5680125,64.3402319719657L158.6859657986111,65.05057241113273L158.77806631944443,64.24169698820128L159.6021236111111,65.1871636530175L159.71199791666666,64.10717456044303L159.8364144097222,64.96954801348964L159.85903559027778,65.74568412123159L159.92205173611111,66.47638843638117L159.9737572916667,67.5202041381976L160.46496006944446,66.33563826983237L160.64108211805555,66.3637108064855L160.93031006944446,65.74533972583696L161.54108194444444,64.64171484416235L161.63156666666666,65.48281608701882L161.6380298611111,66.23980720558966L161.74305677083333,65.34419012139433L161.84808368055553,64.280680200164L162.21163836805556,63.32352127105669L162.23749114583333,62.462078234860115L162.47016614583333,63.52114313864682L162.51217690972223,62.929574279327596L162.5719614583333,62.33279866957666L163.19081232638888,61.795700620800815L163.22151250000002,61.31231237690254L163.38632395833332,62.87253568466683L163.81289479166668,61.9918275707456L163.99548003472222,63.355372086398305L164.0520329861111,64.58256215048574L164.73551579861112,65.30085138998264L166.00230190972223,66.10822079643891L166.05723906249997,64.83958053497685L166.18488715277778,63.7299861178428L166.5500576388889,63.18189659696762L166.63407916666665,64.68388875545267L166.8602909722222,63.943863516271065L167.25293003472223,62.98820443737124L167.6601112847222,62.1281112663614L167.9202548611111,61.643663776088886L168.311278125,61.01457012575271L168.36298368055557,60.54493129499561L168.7055329861111,60.50843816549603L169.01576631944445,60.08941253076462L169.15310920138887,61.45010764132451L169.36639461805555,62.57818778628298L169.69278593750002,63.49691446220015L169.74449149305553,64.61340483416194L169.80427604166667,65.3286098052912L169.93353993055555,65.97229427930753L170.1775255208333,64.84597394228585L170.48129565972224,63.83228563896637L170.53138541666667,62.91996616597882L170.58470677083335,64.12633318574457L170.76890781249998,65.14769986717013L170.870703125,66.06692988045312L171.2520315972222,64.9311459833169L171.29888975694445,65.0031222940761L172.53659149305557,64.3277191555776L172.557596875,63.719856330928934L172.673934375,63.17277978874513L172.90499357638888,64.41822908259792L173.52707604166667,63.57604253797449L173.6191765625,64.6202564659952L173.79045121527776,62.40623081939569L173.89547812499998,61.50778955563794L173.9681890625,62.91973787280142L174.23156423611113,62.002127721884904L174.72923020833335,62.97846040424187L175.5969140625,62.15152345472677L175.82474166666668,60.53837110925407L176.5470036458333,61.821988543783206L176.68434652777776,62.84851696213218L176.71019930555556,63.772392538646216L177.327434375,64.79697146659977L177.35490295138888,65.71909250175797L177.56495677083333,66.61336506976397L177.69583645833333,68.41584674460577L177.79601597222222,69.07262570650884L178.1224072916667,69.69590859040339L178.46657239583334,68.06849954954487L179.47483072916665,68.85655868549948L179.5071467013889,67.60272099876771L179.84000121527777,68.4051761716182L180.1211501736111,66.13447673627455L180.3635199652778,64.95975633537437L180.39583593749998,63.90250797456419L180.40068333333332,62.95098444983505L180.53802621527777,62.25552236848792L180.5428736111111,61.629606495275496L181.1229453125,60.93755493665702L181.16495607638888,60.314708533900415L182.14897743055556,61.84596495323764L182.2443095486111,63.03100482155024L182.79044947916665,62.005722521213386L182.94718194444445,61.01860481454658L183.34789999999998,62.35074433309194L184.04269340277776,63.03476080887364L184.8166609375,62.073466546168106L185.06872552083334,61.594483527914946L185.4694435763889,60.809398811487085L185.6423340277778,60.23154983942929L185.9105565972222,61.54584940094091L186.11576302083333,60.829991733574076L186.33712743055557,60.25008346930758L186.42761215277778,59.72816603146774L186.47931770833333,60.89971306468459L186.59403940972223,61.954105394579756L187.20804288194444,63.192694855121786L187.35184895833333,64.33960718779142L187.38901232638887,65.37182828719409L187.92061006944445,64.17682727665651L188.29870694444446,65.19314454899086L188.4037338541667,66.39746645772813L189.07913767361111,65.13208344831894L189.30211788194444,63.89669328530523L189.4152237847222,63.042296684047415L189.5283296875,62.241157924733585L189.72222552083332,63.35449667771478L189.79332065972224,62.409501555397824L190.01306927083334,63.69909685440349L190.24897586805554,65.02064171441772L190.33622899305558,63.86075936115775L190.46549288194444,62.91341069776925L190.64323072916665,63.99170599162868L190.89044791666666,63.06344448337492L191.0084012152778,62.099281853219225L191.3186345486111,62.2291718497155L191.4317404513889,63.63334557383483L191.51091458333332,64.92928374372408L192.37051944444445,66.03126446026076L193.09924461805556,64.89904710514377L193.27051927083332,63.847869667356676L193.27375086805557,62.90180997334825L193.71001649305555,62.05035624874071L194.3563359375,61.25186607841209L194.81199114583333,60.694134016025416L194.8491545138889,60.19217515987742L195.1109138888889,59.5151394620715L195.28380434027778,59.291989152228L195.37913645833333,58.640608418823376L195.39367864583332,60.468002122395575L195.50840034722222,62.27356554651965L195.62958524305557,61.32402717368588L195.76369652777777,60.8878062744991L195.89134461805554,60.398662010685555L196.05454027777776,62.050250355071526L196.08685625,63.5366798650189L196.20965694444445,64.77792096942609L196.30175746527777,63.57794705430166L196.31953125,62.4979705306897L197.0046298611111,61.59035529580254L197.03694583333333,59.19659249349499L197.6250965277778,58.61911506232734L197.9514878472222,59.29011264700368L198.00319340277778,60.7629195641215L198.09044652777777,60.0288094258912L198.23586840277778,61.5242921196657L198.55094913194444,62.83804472588095L198.6010388888889,64.02042207147467L198.6899078125,62.99274350069081L198.74646076388888,64.0631055142581L198.76261875,65.02643132646865L199.07769947916665,64.12342455745816L199.4913439236111,63.471627556257815L199.5802128472222,62.337919346086565L200.27500625,61.57503650238699L200.80660399305555,61.30680557942101L200.90032031249999,62.89976138511527L201.49816579861113,60.503785246603755L201.66620885416668,62.11267944921612L201.6888300347222,61.30795695883995L201.71953020833334,61.9675248993196L201.7857779513889,61.28995422756945L201.80839913194444,60.680140622994315L201.8326361111111,60.131308378876696L201.85364149305556,59.637359359170844L201.9166576388889,56.248168877799216L202.12671145833332,56.44826108092839L202.40462881944444,58.108707700108255L202.67769878472222,59.120382384642895L202.96207934027777,58.58270778254223L203.1107328125,58.066618822469835L203.2270703125,57.85959330385923L203.24969149305556,59.31454306438238L203.93155850694444,60.559634212489584L204.0236590277778,61.03657988214974L204.22240225694443,60.5003764393893L204.5067828125,58.50524788635947L204.6683626736111,59.18763218863262L204.83478993055556,60.60632351522388L205.37446666666665,59.59823661824693L206.44250954861113,58.94841295642223L206.50714149305557,58.36357166078001L206.56046284722223,56.22812358561109L206.85776979166667,57.23476577250452L207.54933159722222,58.91310737707224L207.77069600694443,56.819251184819564L208.83065989583332,54.1302351572467L208.83227569444443,51.71012073243111L208.9259920138889,49.5320177500971L209.2491517361111,50.04972506599648L209.37679982638886,48.938752559396846L209.76782309027777,48.003240939820785L210.15723055555554,46.099280482202346L210.36405277777777,46.92807970670938L210.41737413194443,47.67399900876572L210.7308390625,48.60278092607095L210.82778697916666,46.44577556073659L211.00229322916667,47.111198004662924L211.06046197916666,47.710078204196634L211.0911621527778,48.31343402014059L211.24627881944443,47.21518152721745L211.9846987847222,48.38293610176842L212.05094652777777,49.0477334006825L212.19313680555555,49.67823278788697L212.55184409722222,50.213500418189184L212.79906128472223,50.72742310364299L213.1044472222222,51.350862611460514L213.14968958333333,51.49359453213265L214.0464578125,49.98078053346485L214.35992274305553,50.163975207391104L214.4229388888889,50.32885041392471L214.7444828125,48.964692645259504L215.42311822916668,49.57131428982446L215.65094583333334,50.213819224478385L215.8545364583333,50.88861912021234L216.10013784722221,51.75339357182747L216.4863137152778,52.14550876009929L216.99044288194446,52.56277606590754L217.26028125,50.42813482295314L217.27320763888886,48.506957704294194L217.84358454861112,46.681352842955675L218.28954496527777,47.548490285932814L218.37518229166668,45.69000489370316L218.95202239583335,45.626458949787406L218.97141197916667,45.5692676002632L219.37051423611112,46.86943174932779L219.3818248263889,48.03957948348591L219.55309947916666,46.48598517150097L219.81324305555555,47.53356847253269L219.95866493055556,48.44421162527942L220.48218368055555,49.167245008206024L220.75848524305556,49.78579323465814L220.837659375,47.6070320930105L220.89905972222223,46.25760161098219L220.953996875,46.42693235897488L221.01539722222222,44.42314821398648L221.07841336805555,42.61974248349691L221.26584600694443,44.18267732605631L221.39187829861112,42.33895504799614L221.41449947916666,40.67960499774199L221.44196805555558,39.186189952513246L221.61647430555556,37.906480048171005L221.70372743055557,36.7869229524448L222.3920576388889,38.61132156629125L222.69905937500002,37.42128031875305L222.8864920138889,36.35024319596863L223.2419677083333,38.21830978546268L223.28882586805557,38.22611517055279L224.03370902777777,39.87441274440661L224.44896927083335,38.268426015420516L224.49582743055555,37.24140159569663L224.59439114583333,39.27780689067242L225.0855939236111,41.110571656150626L225.35704809027777,39.734969035990105L226.17948958333332,41.39329031420928L226.2037265625,42.885779464606514L226.68361875,44.422110609054954L227.59331336805556,44.13135409360399L227.69026128472223,45.25349141151631L228.13945329861113,46.456505906728324L228.1410690972222,47.539218952419134L228.32042274305556,48.41711523899539L228.36566510416668,49.3037673514595L228.4141390625,50.10175425267718L228.48038680555555,50.69121519104581L228.66781944444446,51.15736639921394L229.17841180555556,48.71272066838347L229.24627534722222,46.28726678336329L229.30444409722222,45.74563101411786L229.77625729166667,48.15452245816064L229.82634704861113,50.3225247577991L230.29977604166666,50.986454100201L230.4500453125,52.58162687199906L230.46943489583333,54.01728236661734L230.63909375,54.05428140268286L231.17069149305556,54.28067144423275L232.04483854166665,51.234058845264045L232.08361770833335,48.68519841528311L232.1369390625,49.38413311920934L232.84304305555557,50.07753798910656L232.94968576388888,50.66942055383225L232.994928125,51.202114862085395L233.53622065972223,51.649357921331415L233.8254486111111,52.47024031101644L233.90462274305554,52.69412537082388L233.90947013888888,52.8956219246506L233.92724392361112,53.07696882309462L233.9983390625,52.40345375896699L234.36189374999998,52.859290201252094L234.76099600694442,50.147906635672356L236.62562760416665,50.89366142665057L237.01826666666665,51.59702255671279L237.4189847222222,52.19786575558696L237.5046220486111,52.70644281639191L237.68074409722223,50.75052580747999L237.8956453125,48.1856550449138L238.19295225694444,47.00363499496788L238.39977447916667,48.03163513183475L238.48541180555557,48.95683525501491L238.5532753472222,49.59642445678614L238.72939739583333,50.23641837474386L238.74070798611112,50.812412900905855L238.79241354166666,48.11262615626984L238.84411909722223,45.6828180860974L238.9426828125,43.72126355021493L238.9717671875,45.20622810428435L239.3207796875,46.22087802112864L239.63101302083334,47.13406294628848L239.7990560763889,47.98811119711419L239.89923559027778,48.82111825922095L240.1803845486111,46.610097342389764L240.51647065972224,47.64526942633259L240.9915154513889,49.02746975642661L241.05614739583334,46.63490459896576L241.2694328125,44.6425050481601L241.41162309027777,45.745709088798634L241.4310126736111,43.84222908900969L241.44393906250002,42.12909708919963L241.48918142361111,43.25836919846148L241.56673975694446,44.27471409679717L241.6362190972222,45.189424505299286L241.84142552083333,46.01266387295118L242.08702690972223,47.0110338492924L242.25022256944445,44.916657737090446L242.48612916666667,43.09608287247232L242.6380142361111,41.26447458522506L242.8819998263889,39.58384530852075L243.5073138888889,41.19291532312323L243.55578784722223,42.64107833626545L243.86763697916666,40.91933413900256L243.96458489583333,39.36976436146594L244.0049798611111,40.8393333798648L244.78056319444445,39.29776367824198L244.79833697916666,37.91035094678142L245.08594913194446,36.822588579375974L245.1231125,38.73996608507474L245.17320225694445,40.658696749294535L245.40264565972222,42.16028161981964L245.42526684027777,43.447344366928576L246.42059878472222,44.86315538478118L246.6952845486111,46.105203482666695L247.08307621527777,46.901228588945486L247.10892899305554,47.61765118459638L247.32706180555556,45.301704247954945L247.5516578125,43.37826109588673L247.73262725694445,41.42188953175261L248.02023940972222,39.85424603312279L248.0719449652778,38.44336688435595L248.18828246527778,40.423939286829466L248.60839010416666,41.94899990360105L248.8459125,40.232099913240944L249.4421421875,41.64761719464411L249.46314756944446,42.92158274790697L249.6004904513889,41.30051538220718L249.8767920138889,39.712827480350114L250.17409895833333,41.53427200504237L250.2112623263889,40.21284480453812L250.21934131944445,39.023560324084315L250.25165729166667,37.95320429167589L250.42293194444446,39.75752022614466L250.97876666666667,38.58158638534837L251.44411666666667,40.61270047408627L251.85937690972222,42.08670315395037L252.40390104166667,40.71003283855532L252.51862274305557,42.39957500924527L252.64465503472223,40.927253871957106L253.15363159722222,42.88471030294323L253.16171059027778,44.64642109083073L253.18594756944444,46.23196079992948L253.7191611111111,44.05458290175471L253.77086666666668,45.34530642976105L254.08917899305555,43.48186669587585L254.46081267361112,44.82986184447009L254.5949239583333,45.97869384184125L254.62562413194445,47.0126426394753L254.79205138888886,47.84665110280051L254.88415190972222,48.59725871979316L255.24285920138888,48.98316921145022L255.5498609375,49.81321592666883L256.0152109375,50.495894334001946L256.0604532986111,51.11030490060176L256.19941197916665,48.766910774177944L256.81503125,49.77949242403288L256.8505788194445,47.56917954526594L257.33047100694444,48.28317068164844L257.5647618055556,46.125944522574514L257.6390885416667,44.08789552486252L258.4889986111111,45.407469608739916L258.55363055555557,46.53072264786593L258.56655694444447,47.54165038307934L258.6021045138889,47.35730352658959L258.6182625,47.191391355748806L258.74106319444445,45.207706765628444L258.7960003472222,43.422390634520156L258.9365748263889,41.71906066197724L258.9866645833333,41.473336413961306L259.74124253472223,42.829093681656104L260.02723888888886,44.17800249530865L260.1274184027778,45.39202042759598L260.5038994791667,43.942272930290926L260.5135942708333,42.637500182716366L261.5234684027778,41.23793198262655L261.5816371527778,39.97832060254572L261.7383696180556,38.68376126956386L262.05021875,40.54374877897112L262.07768732638885,42.21773753743764L262.079303125,43.724327420057506L262.5624269097222,44.887167405324476L262.6205956597222,45.93372339206476L262.97445555555555,43.97926014376736L263.20228315972224,42.25242503848153L263.6773279513889,43.691182534633384L263.92939253472224,42.18624609935185L264.1604517361111,40.67089421668942L264.29941041666666,39.307077522293184L264.3155684027778,38.07964249733661L264.5433960069444,36.97495097487567L264.6161069444444,36.01291042284262L264.65650190972224,35.14707392601292L264.86009253472224,34.33563926068439L264.9731984375,33.7018935164341L265.2462684027778,35.99570416479068L265.35775850694444,35.00286102103888L265.45309062499996,34.141484009844106L265.64537065972223,36.487881063405126L265.8457296875,38.24563841161006L265.8796614583333,39.8276200249945L267.0608102430555,41.444494386131424L267.5972553819444,39.87459040206372L267.61502916666666,38.461676816402786L267.75721944444444,40.27950913476252L267.8202355902778,42.012103675831725L267.88648333333333,43.571438762794L268.11431093749997,44.813931250150944L268.7283144097222,42.90708357968131L268.8688888888889,41.384011585349555L269.3487810763889,41.34879224499642L270.31826024305553,40.46427665686042L270.4152081597222,39.668212627538L270.4313661458333,38.46902772842057L270.6333409722222,37.293215864669435L271.5575777777778,36.13843973274794L271.7611684027778,37.86677757765494L271.92113246527776,36.65464527443493L272.1408810763889,38.65318074699144L272.33800850694445,37.36240812683775L272.4317248263889,39.0005309505176L272.54321493055556,40.63575058273855L272.549678125,42.107448251737424L272.7128737847222,43.657248881109126L272.85183246527777,44.92334217481641L272.87606944444445,46.062826139152946L273.7857640625,47.217088979783085L273.96834930555553,45.00556189998659L274.17517152777776,44.205914800897006L274.19940850694445,43.4862324117164L274.3125144097222,41.90524553418112L274.5031786458333,42.348902798944835L274.585584375,41.07473979177763L274.69707447916664,39.86362944896348L274.70353767361115,38.77363014043078L275.5550635416667,37.567358035478605L275.5857637152778,36.48171314102166L275.71502760416666,38.4975418269195L275.9121550347222,40.34396946240935L276.0818138888889,41.877027061622954L276.37104184027777,43.482051628187946L276.39366302083334,44.92657373809641L276.45183177083334,46.001370909741325L276.5180795138889,44.32977927331265L276.66996458333335,45.56080134598139L276.7491387152778,43.64363030229234L276.77499149305555,41.91817636297219L276.90587118055555,43.390358726674975L277.0399824652778,41.915504672189286L277.18055694444445,43.48449965951579L277.2096413194444,44.73568605720058L277.42777413194443,42.83666290602599L277.64752274305556,41.48154206996884L278.2728368055555,39.907933317517404L278.33262135416663,38.49168544031113L278.76403958333333,37.796335078098195L279.0968940972222,36.494701570288356L279.1566786458333,36.57832232235046L280.1083840277778,38.52012645375177" style="fill: none;" fill="none"></path></g></g></g></g><g opacity="0.2"><g><g><g><path stroke="rgb(255, 112, 67)" stroke-width="2px" d="M32.3854515625,154.47272727272727L32.587426388888886,150.6109090909091L32.687605902777776,146.7490909090909L33.0834765625,153.50727272727272L33.183656076388885,130.65818181818182L33.253135416666666,144.17454545454547L33.264446006944446,144.17454545454547L33.342004340277775,159.3L33.36300972222222,145.14L33.47126822916667,138.70363636363635L33.623153298611115,138.38181818181818L33.956007812500005,136.77272727272728L34.47144756944444,125.8309090909091L34.55546909722222,128.08363636363637L34.5667796875,128.08363636363637L34.63787482638889,126.95727272727274L35.04990347222222,131.94545454545454L35.1193828125,126.79636363636364L35.12423020833333,137.09454545454545L35.35044201388889,143.04818181818183L35.41507395833333,126.47454545454545L35.607353993055554,143.85272727272726L36.04523541666667,120.68181818181819L36.177730902777775,122.29090909090908L36.332847569444446,121.00363636363636L36.33446336805555,121.00363636363636L36.65600729166667,121.64727272727272L37.22638420138889,122.61272727272728L37.53661753472222,122.61272727272728L37.5624703125,122.61272727272728L37.657802430555556,120.36L38.163547395833334,122.29090909090908L38.16677899305556,122.29090909090908L38.247568923611105,122.29090909090908L38.491554513888886,121.64727272727272L38.70968732638889,121.64727272727272L39.292990625,122.61272727272728L39.42710190972222,115.53272727272727L39.57575538194445,122.61272727272728L39.60322395833333,122.61272727272728L39.87306232638888,122.61272727272728L40.054031770833326,122.29090909090908L40.349722916666664,113.92363636363636L40.61309809027778,113.60181818181819L40.95403159722222,107.80909090909091L40.97665277777778,107.80909090909091L41.564803472222216,107.16545454545455L41.79263107638889,120.36L41.86211041666667,120.36L41.99622170138888,115.21090909090908L42.33553940972222,122.61272727272728L42.36623958333333,115.85454545454544L43.14182291666667,120.36L43.1612125,120.36L43.392271701388886,106.52181818181818L43.57324114583333,122.29090909090908L43.878627083333335,118.75090909090909L44.24541336805556,107.80909090909091L44.37144565972223,107.80909090909091L44.37629305555556,107.80909090909091L44.917585590277774,113.44090909090909L44.97413854166667,113.44090909090909L45.35061961805555,107.80909090909091L45.53482065972223,108.77454545454546L45.60106840277778,109.41818181818182L46.04864461805556,120.03818181818181L46.064802604166665,106.2L46.21507187500001,107.16545454545455L46.66264809027778,107.80909090909091L46.75474861111111,109.41818181818182L47.27988315972222,110.06181818181818L47.61596927083334,105.87818181818182L47.75492795138889,109.09636363636365L47.775933333333334,109.09636363636365L47.98760295138889,107.64818181818181L49.12027777777778,107.48727272727272L49.249541666666666,110.70545454545454L49.319021006944446,107.48727272727272L49.45636388888889,109.74L49.73589704861111,107.80909090909091L49.93302447916666,123.25636363636363L49.937871875,123.25636363636363L50.036435590277776,109.41818181818182L50.12368871527778,108.77454545454546L50.25618420138889,108.77454545454546L50.95097760416667,108.45272727272727L51.00591475694445,108.45272727272727L51.19819479166667,109.74L51.317763888888884,106.52181818181818L51.65708159722222,108.77454545454546L51.66516059027778,108.77454545454546L51.97216232638888,107.48727272727272L52.17575295138889,108.13090909090909L53.124226736111105,109.41818181818182L53.37790711805556,108.45272727272727L53.421533680555555,108.77454545454546L54.28760173611111,106.84363636363636L54.324765104166666,107.80909090909091L54.63176684027778,109.09636363636365L55.295860069444444,108.77454545454546L55.41381336805555,108.45272727272727L55.48490850694445,106.2L55.661030555555556,107.16545454545455L55.96964809027777,108.13090909090909L56.01812204861111,107.48727272727272L56.19747569444444,106.2L56.34936076388889,108.13090909090909L57.318839930555555,106.2L57.37377708333334,107.80909090909091L57.78903732638889,107.16545454545455L58.3577984375,107.48727272727272L58.68903715277777,109.25727272727272L59.55510520833334,108.13090909090909L59.89280711805555,108.13090909090909L59.942896875,108.45272727272727L60.29837256944444,107.48727272727272L60.333920138888885,109.09636363636365L60.66354305555556,108.13090909090909L60.68616423611111,108.13090909090909L62.13068819444444,109.09636363636365L63.20519427083333,105.55636363636364L63.29083159722222,104.2690909090909L63.87575069444444,105.55636363636364L64.05187274305555,104.91272727272727L64.07449392361112,104.91272727272727L64.19891041666666,104.91272727272727L64.62548125,104.91272727272727L64.71919756944445,103.94727272727273L64.73373975694444,103.94727272727273L64.85654045138888,104.91272727272727L65.02781510416666,102.66L65.04074149305556,102.66L65.15546319444445,104.2690909090909L65.34451163194444,104.91272727272727L65.50447569444444,104.5909090909091L65.56749184027778,96.86727272727273L65.89226736111111,104.2690909090909L65.89711475694445,104.2690909090909L66.01506805555556,103.94727272727273L66.37862274305556,105.23454545454545L66.48203385416667,103.30363636363636L66.62422413194444,104.2690909090909L66.76479861111112,104.2690909090909L67.09442152777778,104.2690909090909L67.61955607638889,104.91272727272727L68.261028125,104.2690909090909L68.39837100694444,104.2690909090909L68.44361336805555,104.2690909090909L69.70393628472222,104.5909090909091L69.72009427083333,104.91272727272727L69.79118940972222,102.98181818181818L69.8332001736111,103.62545454545455L69.94307447916667,104.5909090909091L70.064259375,104.91272727272727L70.17090208333333,103.94727272727273L70.35348732638889,105.23454545454545L70.56354114583334,96.86727272727273L70.58131493055555,96.86727272727273L70.61363090277777,96.86727272727273L70.9965751736111,104.2690909090909L71.33427708333333,104.5909090909091L71.55240989583334,105.87818181818182L71.55564149305556,105.87818181818182L71.61704184027778,102.66L72.100165625,103.94727272727273L72.25851388888888,103.94727272727273L72.27144027777778,103.94727272727273L72.55258923611112,105.55636363636364L72.60591059027777,105.55636363636364L73.12135034722222,104.5909090909091L73.2489984375,103.94727272727273L73.34433055555556,103.94727272727273L74.02458177083334,103.30363636363636L74.08113472222222,103.30363636363636L74.20070381944444,104.91272727272727L74.81793888888889,98.47636363636363L75.61614340277778,103.94727272727273L75.61775920138888,103.94727272727273L76.19298350694444,104.5909090909091L76.2010625,104.5909090909091L76.76012881944445,103.30363636363636L76.91847708333334,105.23454545454545L76.97503003472222,105.23454545454545L77.277184375,103.30363636363636L77.4242220486111,103.62545454545455L78.26766892361111,103.94727272727273L78.43732777777777,104.91272727272727L79.12727378472222,103.94727272727273L79.1692845486111,104.91272727272727L79.27592725694444,104.91272727272727L79.5005232638889,102.98181818181818L79.60070277777777,105.55636363636364L79.93678888888888,104.5909090909091L79.96264166666666,104.5909090909091L80.16300069444443,105.23454545454545L80.51524479166666,106.52181818181818L80.79962534722222,104.91272727272727L80.84163611111111,106.2L81.0726953125,103.62545454545455L81.3199125,103.94727272727273L81.55097170138889,103.94727272727273L81.78041510416666,104.2690909090909L81.93230017361111,104.2690909090909L81.95492135416667,104.5909090909091L83.06335920138888,105.23454545454545L83.12314375,104.2690909090909L83.5319407986111,104.2690909090909L83.82924774305556,105.23454545454545L83.91973246527778,105.55636363636364L84.02960677083333,105.23454545454545L84.35761388888889,104.91272727272727L84.72601597222223,104.2690909090909L84.89890642361111,104.75181818181818L85.08472326388889,103.94727272727273L85.25438211805555,105.87818181818182L85.46766753472222,103.30363636363636L85.48059392361111,103.30363636363636L85.69387934027777,106.84363636363636L85.93140173611111,105.87818181818182L86.07682361111112,105.55636363636364L86.24486666666667,104.2690909090909L86.29010902777777,104.5909090909091L86.82978576388889,105.55636363636364L86.84917534722221,105.55636363636364L86.87987552083334,105.55636363636364L86.90734409722224,104.2690909090909L86.99459722222223,103.62545454545455L87.05438177083333,103.62545454545455L87.11416631944445,103.62545454545455L87.31290954861112,106.2L87.48256840277777,106.2L87.83965989583334,104.91272727272727L87.87359166666666,103.62545454545455L88.10303506944445,106.84363636363636L88.22260416666667,105.23454545454545L88.51991111111111,103.94727272727273L89.40860034722223,104.91272727272727L89.44253211805555,104.91272727272727L89.47969548611111,105.23454545454545L89.65097013888888,104.2690909090909L89.79639201388889,105.55636363636364L90.11632013888888,105.55636363636364L90.24235243055556,104.5909090909091L90.41039548611111,104.2690909090909L90.4378640625,104.2690909090909L90.54612256944445,103.94727272727273L90.88382447916666,104.91272727272727L90.9306826388889,105.23454545454545L91.50267534722222,104.5909090909091L91.55114930555555,103.94727272727273L91.72565555555555,104.2690909090909L91.85976684027777,104.2690909090909L91.95186736111111,104.91272727272727L92.42852795138889,104.5909090909091L92.89226215277777,104.2690909090909L93.33660677083334,104.91272727272727L93.51757621527777,104.91272727272727L94.0281685763889,97.83272727272727L94.42727083333332,105.07363636363637L94.45312361111111,105.07363636363637L94.88131024305555,104.91272727272727L95.07520607638888,104.2690909090909L95.30303368055556,104.91272727272727L95.81201024305555,104.5909090909091L96.46802447916667,104.91272727272727L96.59567256944445,103.94727272727273L96.75240503472223,103.30363636363636L96.80249479166666,103.30363636363636L96.9818484375,104.75181818181818L97.42780885416667,104.5909090909091L97.75743177083334,104.2690909090909L98.02080694444444,104.2690909090909L98.02727013888888,104.2690909090909L98.08059149305556,104.2690909090909L98.11290746527779,104.2690909090909L98.2308607638889,103.62545454545455L98.62996302083333,105.55636363636364L98.9595859375,103.94727272727273L99.00321249999999,104.2690909090909L99.11631840277776,103.62545454545455L99.43624652777778,103.62545454545455L99.46209930555555,103.62545454545455L100.3976467013889,103.94727272727273L100.90823906249999,104.5909090909091L100.93732343750001,104.91272727272727L101.27664114583334,104.5909090909091L102.63391197916667,103.94727272727273L102.77771805555555,103.62545454545455L102.82942361111111,103.62545454545455L102.94576111111112,104.2690909090909L102.98938767361112,104.2690909090909L102.99585086805556,104.2690909090909L103.09764618055556,104.2690909090909L103.40141631944445,104.5909090909091L103.53068020833332,103.94727272727273L103.73588663194444,104.91272727272727L103.74719722222221,104.91272727272727L103.81829236111112,104.91272727272727L103.90392968750001,104.5909090909091L104.73121857638888,104.5909090909091L104.97035677083333,104.5909090909091L105.52942309027777,104.91272727272727L105.54396527777777,104.91272727272727L105.62960260416668,103.94727272727273L105.84773541666667,104.5909090909091L106.09172100694444,104.91272727272727L107.15814809027778,104.91272727272727L107.18400086805556,104.91272727272727L107.31164895833334,106.52181818181818L107.4506076388889,106.52181818181818L108.746478125,104.5909090909091L109.20536493055556,103.30363636363636L109.29100225694445,105.87818181818182L109.3410920138889,102.98181818181818L109.39926076388889,102.98181818181818L109.46227690972222,105.23454545454545L109.68525711805556,100.08545454545454L109.79028402777777,103.94727272727273L109.82744739583333,103.62545454545455L109.99872204861111,102.66L110.16838090277778,103.30363636363636L110.24270763888889,102.33818181818182L110.71936822916666,101.69454545454545L111.23965538194444,106.2L111.93121718750001,102.33818181818182L112.05886527777778,97.5109090909091L112.26245590277777,102.98181818181818L113.11721336805554,101.37272727272727L113.19800329861111,102.66L113.34827256944445,101.69454545454545L113.37412534722222,101.69454545454545L113.42259930555555,101.69454545454545L113.54055260416668,102.01636363636364L114.12385590277778,102.01636363636364L114.43085763888888,100.72909090909091L114.68938541666667,101.05090909090909L114.93983420138889,101.37272727272727L115.09010347222222,101.05090909090909L115.17897239583334,100.40727272727273L116.01272447916666,100.72909090909091L116.02565086805555,100.72909090909091L116.2647890625,101.05090909090909L116.34073159722222,101.05090909090909L116.81092899305554,100.08545454545454L116.90949270833335,100.72909090909091L117.16317309027778,101.69454545454545L117.44109045138889,101.05090909090909L117.80302934027777,100.08545454545454L117.85635069444444,100.08545454545454L118.10356788194444,100.08545454545454L118.1278048611111,100.08545454545454L118.71110815972222,100.08545454545454L119.09566822916666,92.68363636363637L119.10697881944445,92.68363636363637L119.11344201388889,92.68363636363637L119.11990520833334,100.40727272727273L119.3477328125,100.40727272727273L119.41882795138888,100.72909090909091L119.68705052083332,97.35L119.74521927083333,97.5109090909091L119.76945625,99.76363636363637L119.96012048611112,96.22363636363636L120.68722986111112,83.3509090909091L120.87466250000001,92.68363636363637L121.08471631944444,86.24727272727273L121.15742725694444,86.24727272727273L121.49836076388888,85.92545454545454L121.66963541666667,85.92545454545454L122.06389027777777,83.3509090909091L122.07681666666667,83.99454545454545L122.33857604166667,88.17818181818181L122.42421336805556,83.99454545454545L123.346834375,83.02909090909091L123.62152013888888,77.55818181818182L123.64414131944444,85.28181818181818L123.78471579861112,83.99454545454545L124.07394375,83.3509090909091L124.12726510416667,83.99454545454545L124.41649305555555,76.59272727272727L124.9012326388889,82.70727272727272L124.91092743055556,82.70727272727272L125.20015538194444,85.60363636363637L125.6461157986111,83.3509090909091L126.51056805555557,92.68363636363637L126.74485885416668,92.68363636363637L126.93229149305556,87.85636363636364L127.069634375,64.68545454545455L127.19566666666667,89.78727272727272L127.23929322916666,81.41999999999999L127.26676180555556,86.8909090909091L128.07627690972222,85.92545454545454L128.15221944444446,61.46727272727273L128.3477310763889,83.99454545454545L128.6838171875,74.98363636363635L128.73229114583333,74.98363636363635L129.55473263888888,53.42181818181817L129.56442743055555,53.42181818181817L129.599975,53.42181818181817L129.745396875,98.79818181818182L130.03300902777778,84.31636363636363L131.2125420138889,74.01818181818183L131.32726371527778,55.674545454545466L131.58902309027778,74.66181818181819L131.74413975694443,62.110909090909104L131.98004635416666,92.04L132.72169791666667,56.31818181818183L132.85096180555556,85.92545454545454L133.33085399305554,74.98363636363635L133.38094375,74.98363636363635L133.90930989583333,53.743636363636355L134.1516796875,55.03090909090909L134.46837621527777,73.05272727272727L134.6913564236111,54.06545454545454L134.8044623263889,73.05272727272727L134.806078125,73.05272727272727L134.94180520833334,55.674545454545466L135.19710138888888,62.43272727272728L135.51056631944445,55.03090909090909L135.70930954861112,88.82181818181819L135.88704739583332,74.66181818181819L136.09225381944444,72.08727272727272L136.5543722222222,73.69636363636364L136.57053020833334,73.69636363636364L136.83875277777778,53.743636363636355L137.16514409722222,74.98363636363635L137.7403684027778,74.66181818181819L137.8163109375,55.35272727272728L138.07160711805557,72.7309090909091L138.121696875,72.7309090909091L138.31559270833336,65.65090909090908L138.38345625,60.82363636363637L138.49009895833333,74.01818181818183L138.81002708333332,73.05272727272727L139.03947048611113,74.34L139.4418043402778,57.92727272727272L140.2319298611111,63.076363636363624L140.49207343749998,75.62727272727273L140.5373157986111,75.62727272727273L140.6100267361111,75.62727272727273L141.28704635416668,73.37454545454545L142.6168486111111,74.66181818181819L142.6459329861111,56.639999999999986L142.8026654513889,55.99636363636364L142.88507118055554,53.743636363636355L143.14521475694445,58.24909090909091L143.6929704861111,73.37454545454545L143.78830260416666,74.01818181818183L144.08399375,72.08727272727272L144.10661493055557,60.17999999999999L144.54288055555557,73.37454545454545L144.5768123263889,72.08727272727272L144.9694513888889,63.72L145.09709947916667,79.4890909090909L145.28614791666666,55.03090909090909L146.16998975694443,52.77818181818182L146.36065399305556,61.46727272727273L146.4834546875,56.961818181818174L146.9019465277778,73.05272727272727L147.03282621527777,73.05272727272727L147.7308512152778,45.69818181818181L147.93444184027777,74.34L147.97645260416667,53.743636363636355L148.16388524305557,61.789090909090916L148.41271822916667,72.4090909090909L148.5032029513889,56.31818181818183L148.58560868055554,73.69636363636364L148.62115625,74.98363636363635L148.67447760416667,55.674545454545466L148.71487256944445,74.66181818181819L149.13498020833333,55.674545454545466L149.13821180555556,55.674545454545466L149.3030232638889,55.674545454545466L149.30787065972223,55.674545454545466L149.55670364583332,54.38727272727273L149.82331041666666,54.709090909090904L150.06568020833333,74.98363636363635L150.28542881944443,72.8918181818182L150.56011458333336,77.55818181818182L150.78471059027777,76.27090909090909L151.54575173611113,81.74181818181818L151.55383072916666,81.74181818181818L151.6297732638889,81.74181818181818L151.72672118055556,81.74181818181818L151.7638845486111,81.74181818181818L152.18883958333333,64.20272727272726L152.20015017361112,64.20272727272726L153.34251979166666,55.35272727272728L153.7787854166667,73.05272727272727L154.2602934027778,55.35272727272728L154.2893777777778,55.35272727272728L154.41864166666667,74.98363636363635L155.00194496527777,56.639999999999986L155.27824652777778,57.60545454545455L155.4705265625,74.01818181818183L155.81469166666665,74.34L155.89709739583336,74.34L156.12977239583336,75.62727272727273L156.20571493055556,74.01818181818183L156.39476336805555,75.30545454545454L156.58219600694446,57.28363636363636L156.59350659722222,57.28363636363636L157.05400920138888,55.674545454545466L157.59045434027777,71.44363636363637L158.0299515625,53.42181818181817L158.18991562500003,62.43272727272728L158.5680125,56.639999999999986L158.6859657986111,71.44363636363637L158.77806631944443,56.961818181818174L159.6021236111111,73.69636363636364L159.71199791666666,54.38727272727273L159.8364144097222,72.7309090909091L159.85903559027778,72.7309090909091L159.92205173611111,73.05272727272727L159.9737572916667,76.91454545454546L160.46496006944446,55.674545454545466L160.64108211805555,66.61636363636363L160.93031006944446,60.17999999999999L161.54108194444444,54.709090909090904L161.63156666666666,73.05272727272727L161.6380298611111,73.05272727272727L161.74305677083333,57.28363636363636L161.84808368055553,54.709090909090904L162.21163836805556,54.709090909090904L162.23749114583333,54.709090909090904L162.47016614583333,73.05272727272727L162.51217690972223,57.60545454545455L162.5719614583333,56.961818181818174L163.19081232638888,56.961818181818174L163.22151250000002,56.961818181818174L163.38632395833332,76.91454545454546L163.81289479166668,54.06545454545454L163.99548003472222,75.62727272727273L164.0520329861111,75.62727272727273L164.73551579861112,71.76545454545453L166.00230190972223,73.37454545454545L166.05723906249997,53.42181818181817L166.18488715277778,53.743636363636355L166.5500576388889,58.24909090909091L166.63407916666665,78.20181818181817L166.8602909722222,57.28363636363636L167.25293003472223,54.38727272727273L167.6601112847222,54.38727272727273L167.9202548611111,57.28363636363636L168.311278125,55.35272727272728L168.36298368055557,56.31818181818183L168.7055329861111,60.17999999999999L169.01576631944445,56.31818181818183L169.15310920138887,73.69636363636364L169.36639461805555,72.7309090909091L169.69278593750002,71.76545454545453L169.74449149305553,74.66181818181819L169.80427604166667,71.76545454545453L169.93353993055555,71.76545454545453L170.1775255208333,54.709090909090904L170.48129565972224,54.709090909090904L170.53138541666667,54.709090909090904L170.58470677083335,74.98363636363635L170.76890781249998,74.34L170.870703125,74.34L171.2520315972222,54.709090909090904L171.29888975694445,65.65090909090908L172.53659149305557,58.24909090909091L172.557596875,58.24909090909091L172.673934375,58.24909090909091L172.90499357638888,75.62727272727273L173.52707604166667,55.99636363636364L173.6191765625,74.01818181818183L173.79045121527776,42.47999999999999L173.89547812499998,53.42181818181817L173.9681890625,75.62727272727273L174.23156423611113,53.743636363636355L174.72923020833335,71.76545454545453L175.5969140625,54.709090909090904L175.82474166666668,46.02000000000001L176.5470036458333,73.37454545454545L176.68434652777776,72.08727272727272L176.71019930555556,72.08727272727272L177.327434375,74.01818181818183L177.35490295138888,74.01818181818183L177.56495677083333,74.66181818181819L177.69583645833333,84.6381818181818L177.79601597222222,74.98363636363635L178.1224072916667,75.30545454545454L178.46657239583334,53.42181818181817L179.47483072916665,75.94909090909091L179.5071467013889,56.31818181818183L179.84000121527777,75.62727272727273L180.1211501736111,45.69818181818181L180.3635199652778,54.38727272727273L180.39583593749998,54.38727272727273L180.40068333333332,54.38727272727273L180.53802621527777,55.99636363636364L180.5428736111111,55.99636363636364L181.1229453125,54.709090909090904L181.16495607638888,54.709090909090904L182.14897743055556,75.62727272727273L182.2443095486111,73.69636363636364L182.79044947916665,52.77818181818182L182.94718194444445,52.13454545454546L183.34789999999998,74.34L184.04269340277776,69.19090909090909L184.8166609375,53.42181818181817L185.06872552083334,57.28363636363636L185.4694435763889,53.743636363636355L185.6423340277778,55.03090909090909L185.9105565972222,73.37454545454545L186.11576302083333,54.38727272727273L186.33712743055557,55.03090909090909L186.42761215277778,55.03090909090909L186.47931770833333,71.44363636363637L186.59403940972223,71.44363636363637L187.20804288194444,74.34L187.35184895833333,74.66181818181819L187.38901232638887,74.66181818181819L187.92061006944445,53.42181818181817L188.29870694444446,74.34L188.4037338541667,77.23636363636365L189.07913767361111,53.743636363636355L189.30211788194444,52.77818181818182L189.4152237847222,55.35272727272728L189.5283296875,55.03090909090909L189.72222552083332,73.37454545454545L189.79332065972224,53.904545454545456L190.01306927083334,75.30545454545454L190.24897586805554,76.91454545454546L190.33622899305558,53.42181818181817L190.46549288194444,54.38727272727273L190.64323072916665,73.69636363636364L190.89044791666666,54.709090909090904L191.0084012152778,53.42181818181817L191.3186345486111,63.39818181818181L191.4317404513889,76.27090909090909L191.51091458333332,76.59272727272727L192.37051944444445,75.94909090909091L193.09924461805556,54.709090909090904L193.27051927083332,54.38727272727273L193.27375086805557,54.38727272727273L193.71001649305555,54.38727272727273L194.3563359375,54.06545454545454L194.81199114583333,55.674545454545466L194.8491545138889,55.674545454545466L195.1109138888889,53.42181818181817L195.28380434027778,57.28363636363636L195.37913645833333,52.77818181818182L195.39367864583332,76.91454545454546L195.50840034722222,78.52363636363636L195.62958524305557,52.77818181818182L195.76369652777777,56.961818181818174L195.89134461805554,55.99636363636364L196.05454027777776,76.91454545454546L196.08685625,76.91454545454546L196.20965694444445,75.94909090909091L196.30175746527777,52.77818181818182L196.31953125,52.77818181818182L197.0046298611111,53.42181818181817L197.03694583333333,37.652727272727276L197.6250965277778,53.42181818181817L197.9514878472222,65.32909090909092L198.00319340277778,74.01818181818183L198.09044652777777,53.42181818181817L198.23586840277778,74.98363636363635L198.55094913194444,74.66181818181819L198.6010388888889,74.66181818181819L198.6899078125,53.743636363636355L198.74646076388888,73.69636363636364L198.76261875,73.69636363636364L199.07769947916665,55.99636363636364L199.4913439236111,57.60545454545455L199.5802128472222,52.13454545454546L200.27500625,54.709090909090904L200.80660399305555,58.892727272727285L200.90032031249999,77.23636363636365L201.49816579861113,38.94L201.66620885416668,76.59272727272727L201.6888300347222,54.06545454545454L201.71953020833334,67.90363636363637L201.7857779513889,55.19181818181818L201.80839913194444,55.19181818181818L201.8326361111111,55.19181818181818L201.85364149305556,55.19181818181818L201.9166576388889,25.74545454545455L202.12671145833332,58.24909090909091L202.40462881944444,73.05272727272727L202.67769878472222,68.22545454545455L202.96207934027777,53.743636363636355L203.1107328125,53.42181818181817L203.2270703125,55.99636363636364L203.24969149305556,72.4090909090909L203.93155850694444,71.76545454545453L204.0236590277778,65.32909090909092L204.22240225694443,55.674545454545466L204.5067828125,40.54909090909092L204.6683626736111,65.32909090909092L204.83478993055556,73.37454545454545L205.37446666666665,50.52545454545454L206.44250954861113,53.10000000000001L206.50714149305557,53.10000000000001L206.56046284722223,37.0090909090909L206.85776979166667,66.29454545454544L207.54933159722222,74.01818181818183L207.77069600694443,37.97454545454545L208.83065989583332,29.929090909090917L208.83227569444443,29.929090909090917L208.9259920138889,29.929090909090917L209.2491517361111,54.709090909090904L209.37679982638886,38.94L209.76782309027777,39.58363636363637L210.15723055555554,28.96363636363637L210.36405277777777,54.38727272727273L210.41737413194443,54.38727272727273L210.7308390625,56.961818181818174L210.82778697916666,27.03272727272727L211.00229322916667,53.10000000000001L211.06046197916666,53.10000000000001L211.0911621527778,53.743636363636355L211.24627881944443,37.3309090909091L211.9846987847222,58.892727272727285L212.05094652777777,55.03090909090909L212.19313680555555,55.35272727272728L212.55184409722222,55.03090909090909L212.79906128472223,55.35272727272728L213.1044472222222,56.961818181818174L213.14968958333333,52.77818181818182L214.0464578125,36.365454545454554L214.35992274305553,51.81272727272727L214.4229388888889,51.81272727272727L214.7444828125,36.68727272727273L215.42311822916668,55.03090909090909L215.65094583333334,55.99636363636364L215.8545364583333,56.961818181818174L216.10013784722221,59.53636363636363L216.4863137152778,55.674545454545466L216.99044288194446,56.31818181818183L217.26028125,31.21636363636364L217.27320763888886,31.21636363636364L217.84358454861112,30.25090909090909L218.28954496527777,55.35272727272728L218.37518229166668,28.96363636363637L218.95202239583335,45.05454545454546L218.97141197916667,45.05454545454546L219.37051423611112,58.5709090909091L219.3818248263889,58.5709090909091L219.55309947916666,32.50363636363636L219.81324305555555,56.961818181818174L219.95866493055556,56.639999999999986L220.48218368055555,55.674545454545466L220.75848524305556,55.35272727272728L220.837659375,27.99818181818182L220.89905972222223,34.112727272727284L220.953996875,47.95090909090908L221.01539722222222,26.389090909090896L221.07841336805555,26.389090909090896L221.26584600694443,58.24909090909091L221.39187829861112,25.74545454545455L221.41449947916666,25.74545454545455L221.44196805555558,25.74545454545455L221.61647430555556,26.389090909090896L221.70372743055557,26.710909090909098L222.3920576388889,55.03090909090909L222.69905937500002,26.710909090909098L222.8864920138889,26.710909090909098L223.2419677083333,55.03090909090909L223.28882586805557,38.29636363636362L224.03370902777777,54.709090909090904L224.44896927083335,23.814545454545453L224.49582743055555,27.99818181818182L224.59439114583333,57.60545454545455L225.0855939236111,57.60545454545455L225.35704809027777,27.354545454545445L226.17948958333332,56.31818181818183L226.2037265625,56.31818181818183L226.68361875,58.24909090909091L227.59331336805556,41.51454545454544L227.69026128472223,55.35272727272728L228.13945329861113,57.28363636363636L228.1410690972222,57.28363636363636L228.32042274305556,56.31818181818183L228.36566510416668,57.28363636363636L228.4141390625,57.28363636363636L228.48038680555555,55.99636363636364L228.66781944444446,55.35272727272728L229.17841180555556,26.710909090909098L229.24627534722222,24.458181818181828L229.30444409722222,40.870909090909095L229.77625729166667,69.83454545454545L229.82634704861113,69.83454545454545L230.29977604166666,56.961818181818174L230.4500453125,66.93818181818182L230.46943489583333,66.93818181818182L230.63909375,54.38727272727273L231.17069149305556,56.31818181818183L232.04483854166665,23.814545454545453L232.08361770833335,25.74545454545455L232.1369390625,55.674545454545466L232.84304305555557,56.31818181818183L232.94968576388888,55.99636363636364L232.994928125,55.99636363636364L233.53622065972223,55.674545454545466L233.8254486111111,59.858181818181805L233.90462274305554,54.709090909090904L233.90947013888888,54.709090909090904L233.92724392361112,54.709090909090904L233.9983390625,46.341818181818184L234.36189374999998,56.961818181818174L234.76099600694442,25.74545454545455L236.62562760416665,57.60545454545455L237.01826666666665,57.92727272727272L237.4189847222222,57.60545454545455L237.5046220486111,57.28363636363636L237.68074409722223,33.147272727272735L237.8956453125,25.101818181818174L238.19295225694444,36.365454545454554L238.39977447916667,57.28363636363636L238.48541180555557,57.28363636363636L238.5532753472222,55.35272727272728L238.72939739583333,55.99636363636364L238.74070798611112,55.99636363636364L238.79241354166666,23.814545454545453L238.84411909722223,23.814545454545453L238.9426828125,26.067272727272723L238.9717671875,58.5709090909091L239.3207796875,55.35272727272728L239.63101302083334,55.35272727272728L239.7990560763889,55.674545454545466L239.89923559027778,56.31818181818183L240.1803845486111,26.710909090909098L240.51647065972224,56.961818181818174L240.9915154513889,61.46727272727273L241.05614739583334,25.101818181818174L241.2694328125,26.710909090909098L241.41162309027777,55.674545454545466L241.4310126736111,26.710909090909098L241.44393906250002,26.710909090909098L241.48918142361111,53.42181818181817L241.56673975694446,53.42181818181817L241.6362190972222,53.42181818181817L241.84142552083333,53.42181818181817L242.08702690972223,55.99636363636364L242.25022256944445,26.067272727272723L242.48612916666667,26.710909090909098L242.6380142361111,24.78L242.8819998263889,24.458181818181828L243.5073138888889,55.674545454545466L243.55578784722223,55.674545454545466L243.86763697916666,25.423636363636376L243.96458489583333,25.423636363636376L244.0049798611111,54.06545454545454L244.78056319444445,25.423636363636376L244.79833697916666,25.423636363636376L245.08594913194446,27.03272727272727L245.1231125,55.99636363636364L245.17320225694445,57.92727272727272L245.40264565972222,55.674545454545466L245.42526684027777,55.03090909090909L246.42059878472222,57.60545454545455L246.6952845486111,57.28363636363636L247.08307621527777,54.06545454545454L247.10892899305554,54.06545454545454L247.32706180555556,24.458181818181828L247.5516578125,26.067272727272723L247.73262725694445,23.814545454545453L248.02023940972222,25.74545454545455L248.0719449652778,25.74545454545455L248.18828246527778,58.24909090909091L248.60839010416666,55.674545454545466L248.8459125,24.78L249.4421421875,54.38727272727273L249.46314756944446,54.38727272727273L249.6004904513889,26.710909090909098L249.8767920138889,25.423636363636376L250.17409895833333,57.92727272727272L250.2112623263889,28.319999999999993L250.21934131944445,28.319999999999993L250.25165729166667,28.319999999999993L250.42293194444446,55.99636363636364L250.97876666666667,27.99818181818182L251.44411666666667,58.892727272727285L251.85937690972222,55.35272727272728L252.40390104166667,28.319999999999993L252.51862274305557,57.60545454545455L252.64465503472223,27.676363636363646L253.15363159722222,60.50181818181818L253.16171059027778,60.50181818181818L253.18594756944444,60.50181818181818L253.7191611111111,24.458181818181828L253.77086666666668,56.961818181818174L254.08917899305555,26.710909090909098L254.46081267361112,56.961818181818174L254.5949239583333,56.31818181818183L254.62562413194445,56.31818181818183L254.79205138888886,55.35272727272728L254.88415190972222,55.35272727272728L255.24285920138888,52.45636363636363L255.5498609375,57.28363636363636L256.0152109375,56.639999999999986L256.0604532986111,56.639999999999986L256.19941197916665,27.676363636363646L256.81503125,58.892727272727285L256.8505788194445,27.676363636363646L257.33047100694444,54.709090909090904L257.5647618055556,26.710909090909098L257.6390885416667,25.74545454545455L258.4889986111111,57.28363636363636L258.55363055555557,56.639999999999986L258.56655694444447,56.639999999999986L258.6021045138889,45.69818181818181L258.6182625,45.69818181818181L258.74106319444445,27.354545454545445L258.7960003472222,27.354545454545445L258.9365748263889,26.389090909090896L258.9866645833333,39.26181818181817L259.74124253472223,55.03090909090909L260.02723888888886,56.31818181818183L260.1274184027778,56.31818181818183L260.5038994791667,30.894545454545465L260.5135942708333,30.894545454545465L261.5234684027778,28.641818181818195L261.5816371527778,28.641818181818195L261.7383696180556,27.03272727272727L262.05021875,57.28363636363636L262.07768732638885,57.28363636363636L262.079303125,57.28363636363636L262.5624269097222,55.35272727272728L262.6205956597222,55.35272727272728L262.97445555555555,26.389090909090896L263.20228315972224,26.710909090909098L263.6773279513889,56.639999999999986L263.92939253472224,28.641818181818195L264.1604517361111,27.03272727272727L264.29941041666666,27.03272727272727L264.3155684027778,27.03272727272727L264.5433960069444,27.03272727272727L264.6161069444444,27.354545454545445L264.65650190972224,27.354545454545445L264.86009253472224,27.03272727272727L264.9731984375,27.99818181818182L265.2462684027778,56.639999999999986L265.35775850694444,26.067272727272723L265.45309062499996,26.389090909090896L265.64537065972223,57.60545454545455L265.8457296875,54.06545454545454L265.8796614583333,54.06545454545454L267.0608102430555,55.99636363636364L267.5972553819444,25.74545454545455L267.61502916666666,25.74545454545455L267.75721944444444,56.639999999999986L267.8202355902778,57.60545454545455L267.88648333333333,57.60545454545455L268.11431093749997,55.99636363636364L268.7283144097222,25.74545454545455L268.8688888888889,27.676363636363646L269.3487810763889,41.03181818181818L270.31826024305553,32.50363636363636L270.4152081597222,32.50363636363636L270.4313661458333,27.676363636363646L270.6333409722222,26.710909090909098L271.5575777777778,25.74545454545455L271.7611684027778,53.42181818181817L271.92113246527776,25.74545454545455L272.1408810763889,56.639999999999986L272.33800850694445,25.74545454545455L272.4317248263889,53.743636363636355L272.54321493055556,55.35272727272728L272.549678125,55.35272727272728L272.7128737847222,57.60545454545455L272.85183246527777,56.31818181818183L272.87606944444445,56.31818181818183L273.7857640625,57.60545454545455L273.96834930555553,25.101818181818174L274.17517152777776,37.0090909090909L274.19940850694445,37.0090909090909L274.3125144097222,27.676363636363646L274.5031786458333,46.341818181818184L274.585584375,29.607272727272715L274.69707447916664,28.96363636363637L274.70353767361115,28.96363636363637L275.5550635416667,26.710909090909098L275.5857637152778,26.710909090909098L275.71502760416666,56.639999999999986L275.9121550347222,56.961818181818174L276.0818138888889,55.674545454545466L276.37104184027777,57.92727272727272L276.39366302083334,57.92727272727272L276.45183177083334,55.674545454545466L276.5180795138889,29.28545454545454L276.66996458333335,56.639999999999986L276.7491387152778,26.389090909090896L276.77499149305555,26.389090909090896L276.90587118055555,56.639999999999986L277.0399824652778,28.641818181818195L277.18055694444445,57.60545454545455L277.2096413194444,55.99636363636364L277.42777413194443,25.74545454545455L277.64752274305556,29.28545454545454L278.2728368055555,25.74545454545455L278.33262135416663,25.74545454545455L278.76403958333333,31.538181818181812L279.0968940972222,24.78L279.1566786458333,37.3309090909091L280.1083840277778,55.99636363636364" style="fill: none;" fill="none"></path></g></g></g></g></g></g><g transform="translate(39, 177)" clip-path="url(#clip_1)"><clipPath id="clip_1"><rect width="290" height="23"></rect></clipPath><g><g><line x1="0" y1="0" x2="0" y2="5" style="visibility: inherit;" fill="rgb(0, 0, 0)" stroke="rgb(204, 204, 204)" stroke-width="1px"></line><line x1="32.31597222222222" y1="0" x2="32.31597222222222" y2="5" style="visibility: inherit;" fill="rgb(0, 0, 0)" stroke="rgb(204, 204, 204)" stroke-width="1px"></line><line x1="64.63194444444444" y1="0" x2="64.63194444444444" y2="5" style="visibility: inherit;" fill="rgb(0, 0, 0)" stroke="rgb(204, 204, 204)" stroke-width="1px"></line><line x1="96.94791666666666" y1="0" x2="96.94791666666666" y2="5" style="visibility: inherit;" fill="rgb(0, 0, 0)" stroke="rgb(204, 204, 204)" stroke-width="1px"></line><line x1="129.26388888888889" y1="0" x2="129.26388888888889" y2="5" style="visibility: inherit;" fill="rgb(0, 0, 0)" stroke="rgb(204, 204, 204)" stroke-width="1px"></line><line x1="161.57986111111111" y1="0" x2="161.57986111111111" y2="5" style="visibility: inherit;" fill="rgb(0, 0, 0)" stroke="rgb(204, 204, 204)" stroke-width="1px"></line><line x1="193.89583333333331" y1="0" x2="193.89583333333331" y2="5" style="visibility: inherit;" fill="rgb(0, 0, 0)" stroke="rgb(204, 204, 204)" stroke-width="1px"></line><line x1="226.21180555555557" y1="0" x2="226.21180555555557" y2="5" style="visibility: inherit;" fill="rgb(0, 0, 0)" stroke="rgb(204, 204, 204)" stroke-width="1px"></line><line x1="258.52777777777777" y1="0" x2="258.52777777777777" y2="5" style="visibility: inherit;" fill="rgb(0, 0, 0)" stroke="rgb(204, 204, 204)" stroke-width="1px"></line><line x1="290.84375" y1="0" x2="290.84375" y2="5" style="visibility: inherit;" fill="rgb(0, 0, 0)" stroke="rgb(204, 204, 204)" stroke-width="1px"></line></g><g transform="translate(0, 8)"><text x="0" y="0" dx="0em" dy="0.95em" style="text-anchor: middle; visibility: hidden; font-family: &quot;Helvetica Neue&quot;, sans-serif; font-size: 12px; font-weight: 200;" fill="rgb(50, 49, 63)" stroke="none" stroke-width="1px">-20k</text><text x="32.31597222222222" y="0" dx="0em" dy="0.95em" style="text-anchor: middle; visibility: inherit; font-family: &quot;Helvetica Neue&quot;, sans-serif; font-size: 12px; font-weight: 200;" fill="rgb(50, 49, 63)" stroke="none" stroke-width="1px">0</text><text x="64.63194444444444" y="0" dx="0em" dy="0.95em" style="text-anchor: middle; visibility: inherit; font-family: &quot;Helvetica Neue&quot;, sans-serif; font-size: 12px; font-weight: 200;" fill="rgb(50, 49, 63)" stroke="none" stroke-width="1px">20k</text><text x="96.94791666666666" y="0" dx="0em" dy="0.95em" style="text-anchor: middle; visibility: inherit; font-family: &quot;Helvetica Neue&quot;, sans-serif; font-size: 12px; font-weight: 200;" fill="rgb(50, 49, 63)" stroke="none" stroke-width="1px">40k</text><text x="129.26388888888889" y="0" dx="0em" dy="0.95em" style="text-anchor: middle; visibility: inherit; font-family: &quot;Helvetica Neue&quot;, sans-serif; font-size: 12px; font-weight: 200;" fill="rgb(50, 49, 63)" stroke="none" stroke-width="1px">60k</text><text x="161.57986111111111" y="0" dx="0em" dy="0.95em" style="text-anchor: middle; visibility: inherit; font-family: &quot;Helvetica Neue&quot;, sans-serif; font-size: 12px; font-weight: 200;" fill="rgb(50, 49, 63)" stroke="none" stroke-width="1px">80k</text><text x="193.89583333333331" y="0" dx="0em" dy="0.95em" style="text-anchor: middle; visibility: inherit; font-family: &quot;Helvetica Neue&quot;, sans-serif; font-size: 12px; font-weight: 200;" fill="rgb(50, 49, 63)" stroke="none" stroke-width="1px">100k</text><text x="226.21180555555557" y="0" dx="0em" dy="0.95em" style="text-anchor: middle; visibility: inherit; font-family: &quot;Helvetica Neue&quot;, sans-serif; font-size: 12px; font-weight: 200;" fill="rgb(50, 49, 63)" stroke="none" stroke-width="1px">120k</text><text x="258.52777777777777" y="0" dx="0em" dy="0.95em" style="text-anchor: middle; visibility: inherit; font-family: &quot;Helvetica Neue&quot;, sans-serif; font-size: 12px; font-weight: 200;" fill="rgb(50, 49, 63)" stroke="none" stroke-width="1px">140k</text><text x="290.84375" y="0" dx="0em" dy="0.95em" style="text-anchor: middle; visibility: hidden; font-family: &quot;Helvetica Neue&quot;, sans-serif; font-size: 12px; font-weight: 200;" fill="rgb(50, 49, 63)" stroke="none" stroke-width="1px">160k</text></g><line x1="0" y1="0" x2="290.84375" y2="0" fill="rgb(0, 0, 0)" stroke="rgb(204, 204, 204)" stroke-width="1px"></line></g></g></g></g></svg>