<svg viewBox="0 0 330 200" xmlns="http://www.w3.org/2000/svg"><g><g><g><g><g><line x1="68.3125" y1="177" x2="63.3125" y2="177" style="visibility: inherit;" fill="rgb(0, 0, 0)" stroke="rgb(204, 204, 204)" stroke-width="1px"></line><line x1="68.3125" y1="162.25" x2="63.3125" y2="162.25" style="visibility: inherit;" fill="rgb(0, 0, 0)" stroke="rgb(204, 204, 204)" stroke-width="1px"></line><line x1="68.3125" y1="147.5" x2="63.3125" y2="147.5" style="visibility: inherit;" fill="rgb(0, 0, 0)" stroke="rgb(204, 204, 204)" stroke-width="1px"></line><line x1="68.3125" y1="132.75" x2="63.3125" y2="132.75" style="visibility: inherit;" fill="rgb(0, 0, 0)" stroke="rgb(204, 204, 204)" stroke-width="1px"></line><line x1="68.3125" y1="118" x2="63.3125" y2="118" style="visibility: inherit;" fill="rgb(0, 0, 0)" stroke="rgb(204, 204, 204)" stroke-width="1px"></line><line x1="68.3125" y1="103.25" x2="63.3125" y2="103.25" style="visibility: inherit;" fill="rgb(0, 0, 0)" stroke="rgb(204, 204, 204)" stroke-width="1px"></line><line x1="68.3125" y1="88.5" x2="63.3125" y2="88.5" style="visibility: inherit;" fill="rgb(0, 0, 0)" stroke="rgb(204, 204, 204)" stroke-width="1px"></line><line x1="68.3125" y1="73.75" x2="63.3125" y2="73.75" style="visibility: inherit;" fill="rgb(0, 0, 0)" stroke="rgb(204, 204, 204)" stroke-width="1px"></line><line x1="68.3125" y1="59" x2="63.3125" y2="59" style="visibility: inherit;" fill="rgb(0, 0, 0)" stroke="rgb(204, 204, 204)" stroke-width="1px"></line><line x1="68.3125" y1="44.25" x2="63.3125" y2="44.25" style="visibility: inherit;" fill="rgb(0, 0, 0)" stroke="rgb(204, 204, 204)" stroke-width="1px"></line><line x1="68.3125" y1="29.5" x2="63.3125" y2="29.5" style="visibility: inherit;" fill="rgb(0, 0, 0)" stroke="rgb(204, 204, 204)" stroke-width="1px"></line><line x1="68.3125" y1="14.75" x2="63.3125" y2="14.75" style="visibility: inherit;" fill="rgb(0, 0, 0)" stroke="rgb(204, 204, 204)" stroke-width="1px"></line><line x1="68.3125" y1="0" x2="63.3125" y2="0" style="visibility: inherit;" fill="rgb(0, 0, 0)" stroke="rgb(204, 204, 204)" stroke-width="1px"></line></g><g transform="translate(58.3125, 0)"><text x="0" y="177" dx="0em" dy="0.3em" style="text-anchor: end; visibility: hidden; font-family: &quot;Helvetica Neue&quot;, sans-serif; font-size: 12px; font-weight: 200;" fill="rgb(50, 49, 63)" stroke="none" stroke-width="1px">-1e+5</text><text x="0" y="162.25" dx="0em" dy="0.3em" style="text-anchor: end; visibility: inherit; font-family: &quot;Helvetica Neue&quot;, sans-serif; font-size: 12px; font-weight: 200;" fill="rgb(50, 49, 63)" stroke="none" stroke-width="1px">0</text><text x="0" y="147.5" dx="0em" dy="0.3em" style="text-anchor: end; visibility: hidden; font-family: &quot;Helvetica Neue&quot;, sans-serif; font-size: 12px; font-weight: 200;" fill="rgb(50, 49, 63)" stroke="none" stroke-width="1px">1e+5</text><text x="0" y="132.75" dx="0em" dy="0.3em" style="text-anchor: end; visibility: inherit; font-family: &quot;Helvetica Neue&quot;, sans-serif; font-size: 12px; font-weight: 200;" fill="rgb(50, 49, 63)" stroke="none" stroke-width="1px">2e+5</text><text x="0" y="118" dx="0em" dy="0.3em" style="text-anchor: end; visibility: hidden; font-family: &quot;Helvetica Neue&quot;, sans-serif; font-size: 12px; font-weight: 200;" fill="rgb(50, 49, 63)" stroke="none" stroke-width="1px">3e+5</text><text x="0" y="103.25" dx="0em" dy="0.3em" style="text-anchor: end; visibility: inherit; font-family: &quot;Helvetica Neue&quot;, sans-serif; font-size: 12px; font-weight: 200;" fill="rgb(50, 49, 63)" stroke="none" stroke-width="1px">4e+5</text><text x="0" y="88.5" dx="0em" dy="0.3em" style="text-anchor: end; visibility: hidden; font-family: &quot;Helvetica Neue&quot;, sans-serif; font-size: 12px; font-weight: 200;" fill="rgb(50, 49, 63)" stroke="none" stroke-width="1px">5e+5</text><text x="0" y="73.75" dx="0em" dy="0.3em" style="text-anchor: end; visibility: inherit; font-family: &quot;Helvetica Neue&quot;, sans-serif; font-size: 12px; font-weight: 200;" fill="rgb(50, 49, 63)" stroke="none" stroke-width="1px">6e+5</text><text x="0" y="59" dx="0em" dy="0.3em" style="text-anchor: end; visibility: hidden; font-family: &quot;Helvetica Neue&quot;, sans-serif; font-size: 12px; font-weight: 200;" fill="rgb(50, 49, 63)" stroke="none" stroke-width="1px">7e+5</text><text x="0" y="44.25" dx="0em" dy="0.3em" style="text-anchor: end; visibility: inherit; font-family: &quot;Helvetica Neue&quot;, sans-serif; font-size: 12px; font-weight: 200;" fill="rgb(50, 49, 63)" stroke="none" stroke-width="1px">8e+5</text><text x="0" y="29.5" dx="0em" dy="0.3em" style="text-anchor: end; visibility: hidden; font-family: &quot;Helvetica Neue&quot;, sans-serif; font-size: 12px; font-weight: 200;" fill="rgb(50, 49, 63)" stroke="none" stroke-width="1px">9e+5</text><text x="0" y="14.75" dx="0em" dy="0.3em" style="text-anchor: end; visibility: inherit; font-family: &quot;Helvetica Neue&quot;, sans-serif; font-size: 12px; font-weight: 200;" fill="rgb(50, 49, 63)" stroke="none" stroke-width="1px">1e+6</text><text x="0" y="0" dx="0em" dy="0.3em" style="text-anchor: end; visibility: hidden; font-family: &quot;Helvetica Neue&quot;, sans-serif; font-size: 12px; font-weight: 200;" fill="rgb(50, 49, 63)" stroke="none" stroke-width="1px">1.1e+6</text></g><line x1="68.3125" y1="0" x2="68.3125" y2="177" fill="rgb(0, 0, 0)" stroke="rgb(204, 204, 204)" stroke-width="1px"></line></g></g><g transform="translate(68, 0)" clip-path="url(#clip_0)"><clipPath id="clip_0"><rect width="261" height="177"></rect></clipPath><g><g><g><line x1="0" y1="0" x2="0" y2="177" fill="rgb(0, 0, 0)" stroke="rgb(60, 60, 60)" stroke-width="1px" opacity="0.25"></line><line x1="29.076388888888886" y1="0" x2="29.076388888888886" y2="177" fill="rgb(0, 0, 0)" stroke="rgb(60, 60, 60)" stroke-width="1px" opacity="0.25"></line><line x1="58.15277777777777" y1="0" x2="58.15277777777777" y2="177" fill="rgb(0, 0, 0)" stroke="rgb(60, 60, 60)" stroke-width="1px" opacity="0.25"></line><line x1="87.22916666666666" y1="0" x2="87.22916666666666" y2="177" fill="rgb(0, 0, 0)" stroke="rgb(60, 60, 60)" stroke-width="1px" opacity="0.25"></line><line x1="116.30555555555554" y1="0" x2="116.30555555555554" y2="177" fill="rgb(0, 0, 0)" stroke="rgb(60, 60, 60)" stroke-width="1px" opacity="0.25"></line><line x1="145.38194444444446" y1="0" x2="145.38194444444446" y2="177" fill="rgb(0, 0, 0)" stroke="rgb(60, 60, 60)" stroke-width="1px" opacity="0.25"></line><line x1="174.45833333333331" y1="0" x2="174.45833333333331" y2="177" fill="rgb(0, 0, 0)" stroke="rgb(60, 60, 60)" stroke-width="1px" opacity="0.25"></line><line x1="203.53472222222223" y1="0" x2="203.53472222222223" y2="177" fill="rgb(0, 0, 0)" stroke="rgb(60, 60, 60)" stroke-width="1px" opacity="0.25"></line><line x1="232.6111111111111" y1="0" x2="232.6111111111111" y2="177" fill="rgb(0, 0, 0)" stroke="rgb(60, 60, 60)" stroke-width="1px" opacity="0.25"></line><line x1="261.6875" y1="0" x2="261.6875" y2="177" fill="rgb(0, 0, 0)" stroke="rgb(60, 60, 60)" stroke-width="1px" opacity="0.25"></line></g><g><line x1="0" y1="177" x2="261.6875" y2="177" fill="rgb(0, 0, 0)" stroke="rgb(60, 60, 60)" stroke-width="1px" opacity="0.25"></line><line x1="0" y1="162.25" x2="261.6875" y2="162.25" fill="rgb(0, 0, 0)" stroke="rgb(60, 60, 60)" stroke-width="1px" opacity="0.25"></line><line x1="0" y1="147.5" x2="261.6875" y2="147.5" fill="rgb(0, 0, 0)" stroke="rgb(60, 60, 60)" stroke-width="1px" opacity="0.25"></line><line x1="0" y1="132.75" x2="261.6875" y2="132.75" fill="rgb(0, 0, 0)" stroke="rgb(60, 60, 60)" stroke-width="1px" opacity="0.25"></line><line x1="0" y1="118" x2="261.6875" y2="118" fill="rgb(0, 0, 0)" stroke="rgb(60, 60, 60)" stroke-width="1px" opacity="0.25"></line><line x1="0" y1="103.25" x2="261.6875" y2="103.25" fill="rgb(0, 0, 0)" stroke="rgb(60, 60, 60)" stroke-width="1px" opacity="0.25"></line><line x1="0" y1="88.5" x2="261.6875" y2="88.5" fill="rgb(0, 0, 0)" stroke="rgb(60, 60, 60)" stroke-width="1px" opacity="0.25"></line><line x1="0" y1="73.75" x2="261.6875" y2="73.75" fill="rgb(0, 0, 0)" stroke="rgb(60, 60, 60)" stroke-width="1px" opacity="0.25"></line><line x1="0" y1="59" x2="261.6875" y2="59" fill="rgb(0, 0, 0)" stroke="rgb(60, 60, 60)" stroke-width="1px" opacity="0.25"></line><line x1="0" y1="44.25" x2="261.6875" y2="44.25" fill="rgb(0, 0, 0)" stroke="rgb(60, 60, 60)" stroke-width="1px" opacity="0.25"></line><line x1="0" y1="29.5" x2="261.6875" y2="29.5" fill="rgb(0, 0, 0)" stroke="rgb(60, 60, 60)" stroke-width="1px" opacity="0.25"></line><line x1="0" y1="14.75" x2="261.6875" y2="14.75" fill="rgb(0, 0, 0)" stroke="rgb(60, 60, 60)" stroke-width="1px" opacity="0.25"></line><line x1="0" y1="0" x2="261.6875" y2="0" fill="rgb(0, 0, 0)" stroke="rgb(60, 60, 60)" stroke-width="1px" opacity="0.25"></line></g></g></g><g><g><line x1="0" y1="162.25" x2="261.6875" y2="162.25" fill="rgb(0, 0, 0)" stroke="rgb(153, 153, 153)" stroke-width="1.5px"></line></g></g><g><g><line x1="29.076388888888886" y1="0" x2="29.076388888888886" y2="177" fill="rgb(0, 0, 0)" stroke="rgb(153, 153, 153)" stroke-width="1.5px"></line></g></g><g><g><g><g><g><path stroke="rgb(255, 112, 67)" stroke-width="2px" d="M29.138903125000002,162.1460125L29.320630555555557,162.04315065789473L29.41076736111111,162.05552587638377L29.766953125,162.0704718268392L29.857089930555556,162.03459029000194L29.919604166666666,162.0187058891043L29.92978090277778,162.00847384541808L29.999564236111112,162.00167461522486L30.01846388888889,161.99742624995022L30.115869791666665,161.95728267632273L30.252528819444446,161.99026807691146L30.552015625000003,161.98165316310798L31.015784027777777,161.93595431199284L31.09138263888889,161.93517253538047L31.101559375,161.93766935482438L31.165527430555557,161.94414177115507L31.53625138888889,161.95659733026386L31.598765625,161.95993821309432L31.60312708333333,161.96283485201832L31.806661805555553,161.96085148578504L31.86481458333333,161.95406642243339L32.03781909722222,161.94926161692447L32.431804166666666,161.96122035037789L32.55101736111111,161.96695581277493L32.69058402777778,161.93277381258204L32.692037847222224,161.90250846225516L32.981347916666664,161.88271142342845L33.49454618055555,161.87742090294853L33.77367951388889,161.89283745195243L33.796940625,161.9152709382244L33.88271597222222,161.91150387317634L34.33776145833333,161.9126477634334L34.340669097222225,161.91366956394916L34.413360069444444,161.933851422331L34.63288680555555,161.88095212851258L34.82915243055555,161.8557823815452L35.35398125,161.84174579371773L35.47464826388889,161.86349815144882L35.608399652777784,161.86635271742117L35.63311458333333,161.87639843018343L35.875902430555556,161.81365644339914L36.03873020833333,161.7860869731582L36.30477916666666,161.7530624276572L36.54175173611111,161.69600283596088L36.84850763888889,161.6190130886552L36.868861111111116,161.56427177763828L37.39805138888889,161.55059037715483L37.60303993055556,161.52894360785547L37.665554166666666,161.52194919414103L37.78622118055555,161.464659014017L38.09152326388889,161.48546964057738L38.119145833333334,161.4751495948912L38.81697916666667,161.25711044002978L38.834425,161.26571599478004L39.042321180555554,161.2475641546652L39.20514895833333,161.2072773966914L39.47992083333334,161.18582678050893L39.80993784722222,161.04176449577966L39.92333576388889,161.05730407373684L39.92769722222222,161.0712837880538L40.414726736111106,161.0916909138822L40.46561041666667,161.0791786098552L40.80435034722222,161.1343830678418L40.97008576388889,161.15149118183982L41.02969236111111,161.1668846479184L41.43240034722223,161.01707561475823L41.44693854166666,160.88227469128805L41.58214375,160.8275498895694L41.98485173611111,160.83985596808722L42.06771944444445,160.87675849361676L42.540210763888886,160.70394018840545L42.84260520833334,160.5664263773473L42.96763368055556,160.5759305809038L42.986533333333334,160.67183945078838L43.17698368055556,160.5111435500767L44.196111111111115,160.59744293186878L44.312416666666664,160.6333519002648L44.374930902777784,160.66094665313938L44.49850555555555,160.59696395606124L44.75001631944444,160.61742703111523L44.92738229166667,160.52888441813087L44.931743749999995,160.44919937490627L45.02042673611111,160.45788582088773L45.098932986111116,160.28572756144126L45.21814618055556,160.17061995560934L45.843288541666666,159.9158946348321L45.89271840277778,159.89811081301642L46.06572291666667,159.5442989570865L46.17330555555555,159.5480418781843L46.47860763888889,159.59359866076076L46.485876736111116,159.4808935676671L46.76210243055555,159.29906799159832L46.945283680555555,158.7119310867964L47.79867569444444,158.9722359881448L48.026925347222225,158.96577709879682L48.06617847222222,159.15526205998196L48.845425694444444,159.08757588781174L48.87886354166667,158.83106738764218L49.15508923611111,158.9006777032639L49.75260902777778,158.2575203497785L49.85873784722222,158.25814957984255L49.92270590277778,158.32192099388325L50.08117222222222,158.05171116235178L50.358851736111106,157.70320647274843L50.40246631944444,157.38955340606347L50.56384027777778,157.31612952901918L50.70049930555555,157.2134677718782L51.57279097222222,157.36725275303883L51.62222083333334,157.50993644601152L51.99585243055556,157.83703583080438L52.507596875,157.88760516923196L52.80562986111111,158.10038374851484L53.58487708333334,158.16001827628892L53.88872534722222,157.9223750046454L53.93379375,157.95659269130905L54.25363402777778,158.0999316276753L54.28561805555555,158.22893653635987L54.58219722222222,158.01788454131795L54.602550694444446,157.74106009392588L55.90226527777777,157.90285460700758L56.86905520833333,157.97427685388283L56.94610763888889,157.54885555572463L57.47239027777778,157.61821266342713L57.63085659722222,157.79833927872016L57.651210069444446,157.62297251645225L57.763154166666666,157.66736534099192L58.1469625,157.85791660120648L58.23128402777778,157.74414728293686L58.24436840277778,157.64175492654255L58.35485868055555,157.76981957808505L58.50896354166667,157.87622772810755L58.52059409722222,157.42639204503115L58.62381527777778,157.5122729110217L58.79391215277778,157.75594579993236L58.937840277777774,157.61564612665765L58.99453923611111,157.6871740567932L59.28675694444445,157.7679216946003L59.29111840277778,157.84059456036425L59.39724722222222,157.41629991924063L59.724356597222226,157.02794477484798L59.81740104166666,157.40678043122128L59.94533715277778,157.2174698278971L60.07181944444445,157.1481278252613L60.36839861111111,157.41464511138616L60.840889930555555,157.6154231467933L61.41805625,157.66676584282632L61.541630902777776,157.7129742672207L61.58233784722222,157.71731809123276L62.71631701388889,157.53913875500808L62.73085520833333,157.6338048924663L62.79482326388889,157.240219354729L62.83262256944444,157.06948240032443L62.93148229166666,157.18692417201194L63.040518750000004,156.97402173568904L63.136470833333334,156.57148452958182L63.300752430555555,156.79595609295387L63.48974895833334,157.04149299973497L63.50574097222222,157.2624762127834L63.53481736111111,157.46136110205285L63.87937256944444,156.86435996335203L64.18322083333334,157.0739989760225L64.37948645833333,156.33224404974237L64.38239409722223,155.66466462153906L64.43763923611111,155.17491064404783L64.87233125,154.88546707148515L65.01480555555555,154.35283035082563L65.02643611111111,153.87345730479916L65.27940069444445,154.45460908625998L65.3273767361111,153.98659316897943L65.79114513888888,153.41861634262875L65.905996875,152.90743720070918L65.99177222222222,151.87079846666364L66.60383020833333,151.2070111119438L66.65471388888889,150.60960249422612L66.76229652777776,150.07193473951963L67.31765555555556,149.68258126212396L68.03584236111111,148.70351812811802L68.03729618055554,147.82236130899346L68.55485590277777,147.2865601746394L68.56212500000001,146.80433915437712L69.06514652777778,145.04033272972654L69.20762083333334,144.59953945468197L69.2585045138889,144.20282550753552L69.53036875,141.9883154483506L69.66266631944444,142.08695390385353L70.42156006944444,142.46541851463533L70.57421111111111,141.82427666139228L71.19499201388888,139.54672148956374L71.23279131944444,137.49692183599902L71.32874340277777,137.3111821520233L71.53082430555556,137.14401643651655L71.6209611111111,136.9935672926183L71.92335555555556,137.37087306391302L71.94661666666666,137.71044825797253L72.12689027777778,138.9315984336343L72.44382291666666,139.52898609091324L72.69969513888888,140.48391248274606L72.73749444444445,141.34334623522L72.945390625,142.11683661230435L73.16782500000001,141.61129545071725L73.37572118055556,141.15630840535664L73.58216354166667,139.99530756415749L73.71882256944444,138.95040680720433L73.73917604166667,138.0099961260486L74.73649618055555,138.22651151353395L74.7902875,138.4213753622536L75.15810381944445,137.93919782586553L75.42560659722223,139.8065330438461L75.50702048611112,139.83823223947013L75.60588020833333,139.86676151553013L75.90100555555556,138.7979878637405L76.2324763888889,138.60205907732743L76.38803506944444,139.44657066974614L76.55522430555556,140.2066311028942L76.70787534722221,140.89068549270414L76.89977951388889,139.5870644432633L76.91141006944444,138.41380549879892L77.10331423611112,137.3578724488072L77.31702569444445,138.0831327039956L77.44786944444445,136.98091193350152L77.59906666666666,135.47428574003504L77.63977361111111,134.11832216593734L78.12534930555556,134.70748494938044L78.14279513888889,135.23773145447223L78.17041770833333,135.71495330904918L78.1951326388889,136.14445297816386L78.27363888888888,136.53100268036331L78.32743020833334,136.87889741233982L78.38122152777778,137.19200267111626L78.56004131944445,137.47379740401306L78.71269236111111,137.8614901636222L79.03398645833333,138.2104136472684L79.06451666666666,138.52444478254841L79.27095902777778,138.8070728042991L79.37854166666666,139.0614380238737L79.64604444444444,139.29036672148996L80.44564513888889,137.32889004931292L80.47617534722222,135.5635610443589L80.50961319444446,133.9747649399046L80.66371805555555,127.33986844584494L80.79456180555555,125.91986910124712L81.08241805555555,124.64157469111161L81.19581597222222,121.08951472197346L81.34701319444444,117.89266074975424L81.371728125,120.01013717479185L81.46913402777778,121.91586595732323L81.77298229166666,122.62595686159445L81.81514305555555,123.26503867543788L82.3297951388889,124.57549980789939L82.37340972222222,125.75491482711374L82.53042222222221,126.81638834440585L82.6510892361111,127.77171450996806L82.73395694444444,128.432678058973L83.16283368055555,129.0170727530771L83.58007986111112,127.42345297776598L83.97988020833334,128.61971017999167L84.1427079861111,127.74034416199099L84.60211493055556,128.48822474579305L84.96120833333333,129.26235477121483L84.98446944444444,129.95907179409426L85.36973159722223,126.05122961468035L85.54418993055555,126.21842665321249L85.74917847222223,126.36890398789137L86.20713159722222,121.11040608909786L86.79738229166666,121.35027798018827L86.91223402777777,121.56616268216958L87.05325451388889,121.76045891395273L87.09832291666666,121.93532552255756L87.259696875,122.0927054703019L87.66095104166668,119.08005992327037L87.95753020833334,117.52153893094271L88.19450277777777,116.49263503784809L88.20031805555556,115.56662153406297L88.24829409722223,114.73320938065643L88.27737048611111,113.98313844259059L88.38349930555556,113.30807459833136L88.74259270833333,116.12458213849882L89.039171875,115.76253892464888L89.078425,115.43670003218394L89.18019236111111,115.1434450289655L89.46804861111112,116.33327552606912L89.49130972222223,117.40412297346234L90.33307118055556,120.0505656761164L90.79247812499999,121.35045160850488L90.81864687500001,121.2990489476544L91.12394895833333,117.70821405288866L92.34515729166667,115.59053014759965L92.47454722222223,117.29526713283978L92.52106944444445,118.82953041955591L92.62574444444445,118.80277487760031L92.66499756944445,118.77869488984027L92.67081284722222,118.75702290085624L92.76240347222222,118.73751811077062L93.03572152777778,119.55761629969358L93.15202708333332,120.29570466972424L93.33666215277778,116.17272420275171L93.34683888888888,112.46204178247643L93.41080694444445,109.12242760422872L93.487859375,108.30700234380583L94.23221493055556,108.80828460942526L94.44738020833333,113.4176111484828L94.9504017361111,113.53025753363453L94.96348611111111,113.63163928027107L95.04053854166668,111.28662535224393L95.23680416666667,113.26215781701956L95.45633090277778,113.4360745353176L96.41585173611111,113.30379458178584L96.43911284722222,113.31911512360725L96.55396458333334,113.33290361124654L96.67899305555557,114.92754575012188L97.84495625,116.1871986751097L98.25784097222223,118.22697880759874L98.33489340277778,120.06278092683888L98.37996180555557,121.715002834155L98.43229930555556,122.4743850507395L98.48899826388889,123.72717904566557L98.68962534722222,119.36916864109898L98.78412361111111,115.44695927698908L98.81756145833333,111.91697084929017L98.97166631944445,114.08656126436114L99.12431736111111,116.03919263792504L99.19119305555556,117.79656087413252L99.62006979166667,116.21903728671927L100.08819965277777,114.08964355804734L100.710434375,116.84392420224262L100.82528611111111,113.89094178201836L101.00846736111112,111.23325760381651L101.77753784722222,112.09902684343486L101.85022881944445,112.87821915909137L101.98543402777779,115.62354724318226L102.00869513888888,118.09434251886402L102.05230972222222,116.45208326697761L102.15843854166667,118.30681244027986L102.68326736111112,121.02435119625186L102.95949305555555,123.47013607662669L103.19210416666667,125.028537468964L103.41744618055556,121.93220122206759L103.55265138888889,119.14549859986084L103.63261145833334,119.80768373987476L104.38278229166666,119.9051003658873L104.39441284722221,119.99277532929857L104.609578125,120.0716827963687L104.67790763888888,121.05749451673182L105.10096909722222,121.94472506505866L105.18965208333334,122.37713755855279L105.41790173611112,122.76630880269751L105.66795868055556,120.89447542242776L105.99361423611111,118.78074788018498L106.04159027777777,116.87839309216648L106.26402465277778,118.85908378294984L106.28583194444444,116.02185790465484L106.81066076388888,117.90367961418936L107.15666979166666,114.26047415277043L107.16684652777778,110.98158923749338L107.17266180555555,108.03059281374404L107.17847708333333,105.37469603236964L107.383465625,102.98438892913268L107.44743368055555,100.8331125362194L107.68876770833333,101.40033378259747L107.74110520833334,101.91083290433772L107.7629125,102.37028211390394L107.93446319444445,102.78378640251354L108.58868194444445,108.04187776226219L108.75732500000001,112.77415998603597L108.94632152777777,110.10189398743236L109.01174340277778,107.69685458868912L109.31849930555555,109.86468912982022L109.47260416666667,108.9945077168382L109.82733611111111,111.68010194515438L109.83896666666666,114.09713675063894L110.07448541666668,116.27246807557503L110.15153784722223,117.19629126801755L110.98166875,116.69551214121579L111.22881805555555,116.24481092709419L111.24917152777778,114.90520983438478L111.37565381944445,113.69956885094629L111.6358875,109.35651196585168L111.68386354166667,105.44776076926651L111.94409722222221,101.92988469233985L112.38024305555555,103.06799372310587L112.38896597222222,104.09229185079529L112.64919965277777,105.01416016571575L113.05045381944444,107.21750914914418L113.82824722222223,109.17589073422975L114.03905104166667,110.93843416080678L114.20769409722223,107.2197382447261L114.33126875,103.87291192025349L114.44466666666668,100.86076822822814L114.48391979166666,98.14983890540532L114.50863472222223,95.71000251486478L115.23699826388888,98.88123226337831L115.30532777777779,101.73533903704046L115.48123993055555,104.30403513333641L115.783634375,106.61586162000278L115.82724895833333,108.69650545800249L116.56724305555555,110.23484991220225L116.57596597222222,111.61935992098202L116.60795,112.86541892888381L116.73879375,111.44161203599542L116.99757361111111,106.59820833239588L118.05886180555557,101.8923724991563L118.1620829861111,97.65712024924068L118.39760173611111,93.8453932243166L118.53716840277778,90.41483890188493L118.74942604166667,88.40851501169644L119.41672916666666,86.1744835105268L119.53303472222223,84.16385515947411L119.96481909722222,83.92531214352671L120.0098875,83.71062342917405L120.48528645833332,83.51740358625663L120.703359375,83.34350572763097L120.98830798611111,83.18699765486788L121.18893506944444,83.0461403893811L121.29070243055556,83.914551350443L121.29215625,84.6961212153987L121.41427708333335,85.39953409385885L121.64398055555556,86.03260568447294L121.92602152777778,86.60237011602564L122.10484131944445,80.2272031044231L122.26476145833334,74.48955279398079L122.44939652777778,69.32566751458272L122.86518888888888,70.74337076312446L122.87972708333334,72.01930368681201L123.12106111111112,73.1676433181308L123.41473263888888,74.20114898631772L123.93229236111111,75.40912033768593L124.000621875,76.49629455391734L124.23032534722223,75.81412259852561L124.27539374999999,73.47604033867303L124.44985208333334,74.79538880480574L124.5109125,75.98280242432516L124.60686458333333,79.98347968189265L124.89472083333334,83.5840892137034L125.10116319444445,81.21196779233303L125.46316423611111,80.43214101309975L126.17408194444444,75.95178941178976L126.408146875,71.9194729706108L126.44885381944444,68.29038817354972L126.51427569444445,65.02421185619474L127.12342604166668,69.89050067057525L128.31991944444445,68.67268310351773L128.34608819444443,67.57664729316593L128.48710868055556,66.59021506384934L128.5612534722222,65.67779355746441L128.79531840277778,72.74978170171796L129.28816319444445,72.33488103154616L129.37393854166666,71.96147042839155L129.6399875,70.08579588555239L129.66034097222223,68.39768879699713L130.05287222222222,74.76462741729742L130.08340243055557,80.49487217556768L130.43668055555557,79.98882995801092L130.55153229166666,79.53339196220982L130.72162916666667,79.12349776598883L131.51686840277776,79.42380048938995L131.68841909722224,79.57297544045096L131.79890937500002,79.70723289640587L132.1754486111111,73.72805460676528L132.2932079861111,68.34679414608875L132.92125798611113,71.16436723147989L133.1044392361111,73.70018300833189L133.14223854166667,75.98241720749868L133.31088159722222,76.03470548674882L133.53476979166666,73.40567243807394L133.61618368055557,80.55875019426654L133.6903284722222,86.99652017483987L133.72231250000002,92.7905131573559L133.77028854166667,98.0051068416203L133.8066340277778,102.69824115745827L134.18462708333334,101.98730204171244L134.1875347222222,101.3474568375412L134.33582430555558,100.77159615378709L134.3401857638889,100.25332153840837L134.56407395833332,98.37323438456754L134.80395416666667,93.78573094611077L135.02202708333334,89.65697785149968L135.21974652777777,88.73357006634971L135.46689583333335,85.03893805971475L135.66897673611112,89.17210675374326L136.35372569444445,89.21463607836893L136.36099479166666,89.25291247053204L136.42932430555558,89.28736122347883L136.51655347222223,89.31836510113095L136.54999131944444,89.34626859101783L136.93234583333333,86.16753423191605L136.94252256944446,83.30667330872446L137.97037291666666,82.79158847785203L138.36290416666668,82.32801213006682L138.79614236111112,81.91079341706015L138.8223111111111,81.53529657535414L138.9386166666667,81.19734941781874L139.4634454861111,80.59686947603686L139.7120486111111,77.03622752843319L139.88505312499998,71.76369977558986L140.19471666666666,67.01842479803086L140.26886145833333,62.74767731822777L140.47821145833333,58.904004586404994L140.54654097222223,55.444699127764494L140.71663784722222,52.33132421498803L140.8852809027778,51.36344929348924L140.89545763888887,50.49236186414031L141.30979618055557,49.693928177726264L141.7924642361111,51.95926285995364L142.187903125,53.99806407395826L142.33183125000002,55.83298516656244L142.672025,57.484414149906186L142.77815381944444,58.97070023491558L142.86102152777778,59.57749521142401L143.60246944444444,58.70952819028162L143.70132916666668,57.92835787125344L143.81327326388887,65.1922220841281L143.8336267361111,65.8475473757153L143.89032569444444,66.43734013814375L143.93684791666666,68.15139862432937L144.37880902777778,69.69405126189643L144.53727534722222,71.08243863570678L144.79750902777778,72.3319872721361L145.34705277777778,75.24295354492247L145.42846666666665,77.86282319043025L145.43428194444445,80.22070587138721L145.52878020833333,82.3428002842485L145.6232784722222,84.25268525582365L145.95038784722223,85.97158173024128L145.9736489583333,87.51858855721717L146.18299895833334,83.82406220149545L146.2207982638889,80.49898848134589L146.27458958333332,77.50642213321133L146.83140243055556,74.81311241989019L146.859025,72.38913367790119L147.0073145833333,70.20755281011107L147.3911229166667,70.28464502909993L147.5554045138889,70.35402802618995L147.60628819444443,70.41647272357096L148.22125381944446,72.22571045121386L149.3610482638889,71.79226940609246L149.410478125,71.40217246548322L149.5253298611111,69.92492271893488L149.85389305555555,69.26962044704139L149.92949166666665,66.69095840233726L150.13302638888888,64.37016256210352L150.48630451388888,61.47521130589317L150.8526670138889,58.86975517530385L151.08673194444444,56.52484465777346L151.43855625,56.84596269199612L151.48507847222223,57.1349689227965L151.79328819444444,57.39507453051684L152.07242152777778,57.62916957746515L152.19599618055554,57.83985511971865L152.38790034722223,59.89903460774677L152.681571875,61.752296146972085L152.72809409722223,63.42023153227487L152.78188541666665,64.92137337904737L152.8981909722222,66.27240104114263L153.11771770833332,63.73799093702837L153.3910357638889,61.457021843325535L153.43610416666667,59.404149658992964L153.48408020833332,57.55656469309366L153.64981562499997,54.257520723784296L153.74140625,51.28838115140587L154.08450763888888,48.616155536265296L154.12666840277777,46.21115248263874L155.24029409722223,46.22891223437486L155.25919375,46.244896010937396L155.36386875,44.80257140984364L155.57176493055556,43.504479268859285L156.13148541666666,44.576278841973334L156.214353125,45.540898457776024L156.3684579861111,47.065578611998404L156.46295625,48.43779075079857L156.528378125,49.672781675718724L156.76535069444444,46.91800350814685L157.21312708333335,48.48610315733217L157.993828125,48.818135341598946L158.1988166666667,51.37164930743904L158.84867395833334,47.98353937669512L158.9722486111111,44.934240439025615L158.9955097222222,42.18987139512305L159.55086875,42.56978675561075L159.57558368055555,42.911710580049686L159.76458020833334,40.5740295220447L159.88233958333333,38.47011656984023L159.9724763888889,38.32491241285621L160.26614791666668,36.494586171570575L160.57581145833333,34.847292554413514L161.48299479166667,36.25823579897215L161.51207118055558,37.52808471907494L161.8115579861111,35.99500374716743L162.06452256944445,34.615230872450695L162.28259548611112,34.20813778520562L162.311671875,38.02455900668505L162.31603333333334,41.45933810601656L162.4396079861111,44.550639295414896L162.44396944444443,47.3328103658734L162.96589062500001,49.836764329286055L163.00368993055554,52.090322896357435L163.88906597222223,50.3516706067217L163.97484131944444,48.03714104604953L164.46623229166664,45.95406444144456L164.60725277777777,44.07929549730011L164.96779999999998,41.8186709475701L165.5929423611111,39.78410885281306L166.28932187499998,43.17332296753176L166.51611770833333,44.26732317077858L166.87666493055556,46.651403353700715L167.0322236111111,48.797075518330644L167.2735576388889,50.72818046649759L167.45819270833334,52.466174919847816L167.65736597222224,54.030369927863035L167.7387798611111,55.43814543507672L167.78530208333333,56.70514339156905L167.88852326388889,53.84170155241213L168.44097465277778,51.63851639717092L168.57036458333334,49.655649757453844L168.60380243055553,47.87106978170846L169.0821090277778,46.26494780353761L169.4223027777778,44.819438023183864L169.51680104166667,41.940524220865456L170.12449756944446,39.34950179877893L170.32512465277776,38.285049118901014L170.42689201388887,37.32704170701092L170.528659375,36.46483503630981L170.70311770833334,35.68884903267883L170.7670857638889,34.99046162941096L170.96480520833333,35.00825796646984L171.1770628472222,37.50168466982285L171.25556909722224,39.745768702840564L171.37187465277776,41.76544433255651L171.53179479166667,42.30049239930085L171.75422916666668,42.78203565937076L171.8603579861111,43.21542459343365L172.13949131944443,46.22182963409031L172.24125868055555,48.92759417068126L172.31249583333332,51.36278225361312L173.08592777777778,51.60037152825181L173.74160034722223,55.19637687542664L173.89570520833334,58.432781687883946L173.89861284722224,61.345546019095565L174.29114409722223,60.48455891718599L174.872671875,59.7096705254674L175.2826489583333,55.66785597292066L175.31608680555556,52.03022287562858L175.55160555555557,48.75635308806571L175.7071642361111,45.809870279259144L175.79293958333332,49.515433251333235L175.80602395833333,52.8504399261999L175.90924513888888,55.85194593357991L176.01828159722223,58.55330134022192L176.1389486111111,56.66572120619972L176.2538003472222,54.966899085579755L176.4006361111111,53.43795917702178L176.4297125,52.06191325931961L176.54020277777778,50.82347193338764L176.62307048611112,49.708874740048856L176.63906250000002,48.70573726604397L177.25548194444445,47.80291353943957L177.28455833333334,46.9903721854956L177.81374861111112,46.259084966946034L178.10742013888887,44.86224647025142L178.15394236111112,43.605091823226275L178.2324486111111,42.47365264090362L178.36329236111112,41.455357376813254L178.6467871527778,40.53889163913195L178.69185555555558,39.71407247521873L178.77181562500002,38.971735227696854L178.82269930555555,38.30363170492717L178.83723750000001,37.70233853443446L179.12073229166666,37.320327180991L179.49291006944443,36.97651696289191L179.57287013888887,38.0106652666027L180.1980125,37.00693623994246L180.6763190972222,36.103580115948205L180.76064062499998,35.290559604353376L181.29855381944444,36.77340614391804L181.44975104166667,38.10796802952623L181.47010451388888,39.309073726573615L181.49772708333333,40.39006885391626L181.55733368055556,41.36296446852464L181.57768715277777,42.23857052167216L181.59949444444445,43.026615969504945L181.61839409722222,43.73585687255445L181.67509305555555,44.37417368529901L181.8640895833333,42.69913631676911L182.1141465277778,41.19160268509219L182.3598420138889,39.83482241658294L182.6157142361111,40.569275174924655L182.749465625,41.230282657432184L182.85414062499999,41.82518939168895L182.87449409722223,42.360605452520076L183.48800590277776,45.86268990726805L183.57087361111113,49.01456591654126L183.74969340277778,51.85125432488712L184.005565625,54.40427389239841L184.15094756944444,51.52002150315856L184.3006909722222,48.924194352842704L184.78626666666665,48.897357417558425L185.74724131944444,54.09750667580256L185.80539409722223,58.777641008222304L185.8533701388889,62.989761907400066L186.12087291666668,66.78067071666007L186.7431076388889,70.19248864499406L186.94228090277778,73.26312478049465L187.8959864583333,76.02669730244517L187.89744027777778,78.51391257220065L187.98176180555555,80.7524063149806L188.27252569444443,75.04100068348254L188.38737743055555,69.17754311513428L188.7392017361111,63.90043130362085L189.08957222222222,59.15103067325876L189.2756611111111,54.87657010593287L189.32363715277776,51.0295555953396L189.605678125,50.05070003580562L189.69290729166667,49.16973003222506L189.84991979166668,48.37685702900254L189.90225729166667,47.66327132610229L189.92987986111112,47.02104419349206L190.06944652777779,46.44303977414285L190.73384201388888,47.11360329672857L190.7934486111111,45.5044629670557L190.92138472222223,44.05623667035013L191.24413263888889,42.75283300331512L191.4665670138889,41.57976970298361L191.7413388888889,40.524012732685236L191.78204583333334,39.57383145941671L192.588915625,40.51300581347502L192.8709565972222,39.118180232127514L192.92765555555556,37.86283720891478L193.216965625,36.453220988023304L193.82756979166666,35.184566389220976L194.03255833333336,34.042777250298855L194.21573958333332,33.015167025268966L194.4367201388889,34.37715782274208L194.78418298611112,35.602949540467876L195.23777465277777,36.63624708642109L195.4805625,36.024102377778945L195.49219305555553,35.473172140001054L196.00539131944444,37.15045242600095L196.4066454861111,36.680702183400854L196.48369791666667,36.25792696506076L197.00271145833335,35.87742926855469L197.02015729166666,35.53498134169922L197.37925069444444,36.262523207529284L197.38942743055557,36.91731088677636L197.54353229166668,37.50661979809871L197.77759722222223,35.71711781828884L197.90844097222222,34.10656603645995L198.37947847222222,32.37726193281395L198.6280815972222,31.36339323953257L198.69931875,30.4509114155793L198.7545638888889,29.62967777402136L198.80399375000002,28.890567496619212L198.85923888888888,28.225368246957288L198.9159378472222,27.626688922261536L199.08458090277776,29.811170030035413L199.19797881944444,31.777203027031874L199.21833229166666,33.546632724328646L199.24304722222223,35.13911945189582L199.4000597222222,36.572357506706226L199.47856597222224,37.8622717560356L200.09789305555557,39.02319458043203L200.37411875,40.0680251223888L200.54276180555556,41.008372610149934L200.86260208333331,41.85468534913491L200.90476284722223,42.61636681422141L201.57497361111112,43.30188013279928L201.94860520833333,43.918842119519354L201.99076597222222,44.4741079075674L202.07944895833333,44.973847116810646L202.52141006944444,43.471597405129614L202.7656517361111,42.11957266461664L203.50564583333332,40.90275039815498L203.52745312500002,39.807610358339474L203.9592375,38.82198432250553L204.77773784722223,37.93492089025497L204.8649670138889,37.13656380122947L205.26912881944446,45.49887992110652L205.27058263888887,53.02496442899587L205.4319565972222,59.79844048609628L205.47266354166666,65.89456893748665L205.51627812499999,71.38108454373797L205.57588472222224,76.31894858936415L205.7445277777778,80.76302623042774L206.20393472222221,74.60481360738497L206.26499513888888,69.06242224664646L206.31733263888887,64.07427002198183L206.74184791666667,59.584933019783634L206.78691631944446,61.52993221780527L207.21288541666667,63.28043149602475L207.348090625,64.85588084642227L207.36553645833334,66.27378526178005L207.5181875,67.54989923560204L207.99649409722224,68.69840181204184L208.78301041666666,66.30607163083765L208.81790208333334,64.15297446775388L208.865878125,62.21518702097849L209.50119722222223,62.419358318880654L209.59714930555555,62.603112486992586L209.63785625,62.76849123829332L210.1248857638889,61.264152114464L210.38511944444443,59.910246903017594L210.45635659722222,58.69173221271585L210.46071805555556,57.59506899144425L210.47671006944447,56.608072092299835L210.540678125,55.719774883069846L210.8677875,54.92030739476286L211.22688090277776,54.20078665528658L212.90458854166667,52.09857298975791L213.25786666666664,50.20658069078213L213.61841388888888,46.736737621703924L213.69546631944445,43.613878859533514L213.8539326388889,43.77734847358016L214.047290625,43.92447112622213L214.31479340277778,44.056881513599905L214.50088229166667,44.17605086223992L214.57793472222224,44.283303276015914L214.6389951388889,44.37983044841431L214.79746145833332,44.46670490357289L214.80763819444445,44.544891913215594L214.85416041666664,47.900085221894045L214.9006826388889,50.919759199704615L214.989365625,53.63746577973416L215.015534375,56.083401701760735L215.329559375,52.382974031584666L215.60869270833334,49.052589128426206L215.75988993055554,46.055242715583574L215.85002673611112,43.3576309440252L216.10299131944444,40.92978034962269L216.4053857638889,38.744714814660426L216.83280868055556,36.778155833194404L216.89096145833332,35.00825274987494L217.082865625,33.415339974887445L217.2108017361111,33.498165977398685L217.22824756944445,33.572709379658846L217.23987812500002,33.63979844169293L217.28058506944444,33.70017859752366L217.3503684027778,33.75452073777129L217.41288263888887,32.808541163994164L217.59751770833333,31.957159547594728L217.8184982638889,32.65972109283527L217.96533402777777,33.29202648355172L218.17759166666667,33.861101335196565L218.31425069444444,34.37326870167689L218.53377743055557,34.83421933150919L219.09640555555555,35.24907489835826L219.1400201388889,35.62244490852245L219.42060729166667,35.958477917670194L219.50783645833334,36.26090762590317L219.54418194444446,36.53309436331287L220.2420152777778,36.77806242698156L220.25800729166667,36.998533684283416L220.5167871527778,35.416485315855056L220.550225,36.46872428426954L220.59529340277777,37.41573935584259L220.80173576388887,38.26805292025833L220.8220892361111,39.035135128232525L221.7176420138889,39.72550911540924L221.96479131944443,40.346845703868325L222.3137079861111,40.906048633481475L222.3369690972222,41.40933127013332L222.53323472222223,41.86228564312L222.735315625,42.26994457880798L222.89814340277778,42.636837620927196L223.15692326388887,42.96704135883445L223.20344548611112,43.26422472295101L223.3081204861111,43.531689750655914L223.68611354166666,43.77240827559032L223.89982500000002,43.98905494803128L224.436284375,44.226516953228156L224.4551840277778,44.440232757905335L224.57875868055555,44.632576982114784L224.82736180555557,44.562606783903334L225.09486458333333,47.89891860551299L225.12830243055555,50.90159924496167L225.13557152777778,53.6040118204655L225.16464791666667,56.03618313841898L225.31875277777777,54.80225232457707L225.81886666666668,53.69171459211937L226.23756666666668,53.118653132907426L226.61119826388887,52.602897819616686L227.10113541666666,52.13871803765501L227.20435659722224,51.720956233889495L227.3177545138889,51.34497061050055L227.7757076388889,51.00658354945048L227.7829767361111,50.70203519450544L227.80478402777777,50.427941675054896L228.28454444444444,50.18125750754939L228.3310666666667,49.959241756794455L228.61746909722223,49.759427581115006L228.95184756944445,49.579594823003504L229.07251458333332,49.41774534070315L229.10013715277776,49.27208080663283L229.24988055555554,49.14098272596955L229.3327482638889,49.02299445337259L229.65549618055556,48.91680500803534L229.93172187500002,48.20955200723179L230.350421875,47.573024306508614L230.39112881944445,47.000149375857745L230.51615729166667,46.48456193827198L231.0700625,46.02053324444478L231.1020465277778,45.60290742000032L231.53383090277777,45.227044178000284L231.74463472222223,44.88876726020027L231.81151041666666,44.58431803418023L232.57621944444443,44.52979373076221L232.63437222222223,44.48072185768598L232.6460027777778,44.43655717191737L232.67798680555555,44.39680895472566L232.692525,44.36103555925308L232.80301527777777,44.32883950332777L232.8524451388889,44.29986305299499L232.97892743055556,44.22068424769549L233.02399583333332,44.14942332292594L233.70292951388888,44.08528849063333L233.96025555555556,43.63875714156998L234.0503923611111,43.23687892741299L234.38913229166667,42.87518853467171L234.39785520833334,42.54966718120451L235.3064923611111,40.07133796308406L235.3588298611111,37.840841666775646L235.4998503472222,35.83339500009808L235.7804375,34.02669300008827L235.80515243055555,32.40066120007944L235.80660625000002,30.93723258007151L236.2412982638889,32.07513682206434L236.2936357638889,33.0992506398579L236.6120222222222,34.020953075872114L236.81701076388887,34.8504852682849L237.24443368055557,35.59706424145642L237.47122951388891,36.26898531731075L237.67912569444445,37.195854285579685L237.80415416666665,38.030036357021714L237.81869236111112,38.78080022131954L238.02368090277778,39.45648769918759L238.08910277777778,40.06460642926882L238.1254482638889,40.611913286341945L238.3086295138889,41.10448945770776L238.410396875,41.54780801193698L238.6560923611111,41.94679471074326L238.75640590277777,42.30588273966893L238.84218124999998,39.68024196570204L239.01518576388887,37.317165269131834L239.195459375,35.19039624221864L239.22598958333333,33.27630411799677L240.2887315972222,31.553621206197107L240.77139965277777,32.65230658557738L240.78739166666668,33.641123427019664L240.91532777777778,34.53105858431769L240.9720267361111,35.332000225885906L241.03163333333333,36.05284770329732L241.236621875,36.701610432967584L241.7890732638889,36.91084688967081L241.91555555555556,37.09915970070372L242.34733993055556,37.268641230633364L243.21963159722222,37.42117460757001L243.3068607638889,37.558454646813004L243.32139895833333,37.682006682131714L243.5031263888889,37.79320351391854L244.33471111111112,37.89328066252668L244.51789236111114,37.98335009627402L244.6618204861111,38.0644125866466L244.85953993055557,38.13736882798196L245.0369059027778,38.203029445183745L245.12122743055556,38.26212400066535L245.22154097222221,38.315309100598824L245.22735625,38.363175690538924L245.3741920138889,38.40625562148503L245.4992204861111,38.44502755933652L245.52102777777776,38.47992230340287L246.33952812500002,38.96680757306257L246.50380972222223,39.405004315756344L246.68989861111112,39.79938138418069L246.7117059027778,40.15432074576262L246.81347326388888,40.473766171186355L246.98502395833333,40.7612670540677L247.05916875000003,41.02001784866093L247.15948229166668,41.252893563794856L247.16529756944445,41.46248170741535L247.93146041666668,40.047638536673816L247.95908298611113,38.774279683006455L248.07538854166665,37.6282567147058L248.25275451388887,36.596836043235214L248.40540555555555,35.668557438911705L248.6656392361111,34.83310669502052L248.68599270833334,34.08120102551845L248.73833020833334,33.404485922966586L248.79793680555554,32.79544233066994L248.93459583333333,32.247303097602924L249.00583298611113,31.753977787842643L249.0290940972222,31.30998500905838L249.14685347222223,30.910391508152543L249.26752048611112,30.55075735733729L249.39400277777779,30.227086621603547L249.42017152777777,29.935782959443202L249.6164371527778,29.673609663498866L249.81415659722222,29.43765369714899L250.3767847222222,29.225293327434088L250.43057604166665,29.034168994690674L250.81874583333334,28.86215709522159L251.11823263888888,28.707346385699452L251.17202395833334,28.56801674712949L251.31740590277778,28.44262007241653" style="fill: none;" fill="none"></path></g></g></g></g><g opacity="0.2"><g><g><g><path stroke="rgb(255, 112, 67)" stroke-width="2px" d="M29.138903125000002,162.1460125L29.320630555555557,161.950575L29.41076736111111,162.0766875L29.766953125,162.106925L29.857089930555556,161.92353334533692L29.919604166666666,161.9601625L29.92978090277778,161.965325L29.999564236111112,161.96975L30.01846388888889,161.97565L30.115869791666665,161.7359625L30.252528819444446,162.183625L30.552015625000003,161.92845L31.015784027777777,161.640825L31.09138263888889,161.929925L31.101559375,161.95499999999998L31.165527430555557,161.9904L31.53625138888889,162.047925L31.598765625,161.98499167266846L31.60312708333333,161.98499167266846L31.806661805555553,161.9454125L31.86481458333333,161.900425L32.03781909722222,161.91075L32.431804166666666,162.05825L32.55101736111111,162.014L32.69058402777778,161.649675L32.692037847222224,161.649675L32.981347916666664,161.71605L33.49454618055555,161.832575L33.77367951388889,162.024325L33.796940625,162.1076625L33.88271597222222,161.8790375L34.33776145833333,161.92255L34.340669097222225,161.92255L34.413360069444444,162.109875L34.63288680555555,161.4181L34.82915243055555,161.634925L35.35398125,161.7182625L35.47464826388889,162.0553L35.608399652777784,161.891575L35.63311458333333,161.965325L35.875902430555556,161.257325L36.03873020833333,161.5412625L36.30477916666666,161.4594L36.54175173611111,161.188L36.84850763888889,160.932825L36.868861111111116,161.0759L37.39805138888889,161.428425L37.60303993055556,161.3355L37.665554166666666,161.4594L37.78622118055555,160.952L38.09152326388889,161.6718L38.119145833333334,161.3827L38.81697916666667,159.30295L38.834425,161.342875L39.042321180555554,161.08474999999999L39.20514895833333,160.8458L39.47992083333334,160.9933L39.80993784722222,159.7484L39.92333576388889,161.19685L39.92769722222222,161.19685L40.414726736111106,161.275025L40.46561041666667,160.96675L40.80435034722222,161.6305L40.97008576388889,161.3052625L41.02969236111111,161.3052625L41.43240034722223,159.670225L41.44693854166666,159.670225L41.58214375,160.33545L41.98485173611111,160.950525L42.06771944444445,161.20865L42.540210763888886,159.14955L42.84260520833334,159.3295L42.96763368055556,160.661425L42.986533333333334,161.534625L43.17698368055556,159.065475L44.196111111111115,161.37385L44.312416666666664,160.956425L44.374930902777784,160.909225L44.49850555555555,160.021275L44.75001631944444,160.80155L44.92738229166667,159.732175L44.931743749999995,159.732175L45.02042673611111,160.53605L45.098932986111116,158.73655L45.21814618055556,159.13479999999998L45.843288541666666,157.6236625L45.89271840277778,159.738075L46.06572291666667,156.360325L46.17330555555555,159.581725L46.47860763888889,160.003575L46.485876736111116,158.466625L46.76210243055555,157.66275L46.945283680555555,153.428025L47.79867569444444,161.31485L48.026925347222225,158.90765L48.06617847222222,160.86055L48.845425694444444,158.47842500000002L48.87886354166667,156.522575L49.15508923611111,159.52715L49.75260902777778,152.469275L49.85873784722222,158.2638125L49.92270590277778,158.89585L50.08117222222222,155.619875L50.358851736111106,154.566725L50.40246631944444,154.566725L50.56384027777778,156.655325L50.70049930555555,156.289525L51.57279097222222,158.75130000000001L51.62222083333334,158.794075L51.99585243055556,160.7809L52.507596875,158.342725L52.80562986111111,160.015375L53.58487708333334,158.69672500000001L53.88872534722222,155.7836L53.93379375,158.26454999999999L54.25363402777778,159.389975L54.28561805555555,159.389975L54.58219722222222,156.118425L54.602550694444446,155.24965L55.90226527777777,159.359L56.86905520833333,158.617075L56.94610763888889,153.720075L57.47239027777778,158.242425L57.63085659722222,159.419475L57.651210069444446,156.04467499999998L57.763154166666666,158.0669L58.1469625,159.572875L58.23128402777778,156.720225L58.24436840277778,156.720225L58.35485868055555,158.9224L58.50896354166667,158.8339L58.52059409722222,153.377875L58.62381527777778,158.2852L58.79391215277778,159.949L58.937840277777774,156.35295L58.99453923611111,158.330925L59.28675694444445,158.49465L59.29111840277778,158.49465L59.39724722222222,153.59765L59.724356597222226,153.53275L59.81740104166666,160.8163L59.94533715277778,155.513675L60.07181944444445,156.52405L60.36839861111111,159.8133L60.840889930555555,159.422425L61.41805625,158.12885L61.541630902777776,158.12885L61.58233784722222,157.7564125L62.71631701388889,155.935525L62.73085520833333,158.4858L62.79482326388889,153.69795L62.83262256944444,155.53285L62.93148229166666,158.2439L63.040518750000004,155.0579L63.136470833333334,152.94865L63.300752430555555,158.8162L63.48974895833334,159.251325L63.50574097222222,159.251325L63.53481736111111,159.251325L63.87937256944444,151.49135L64.18322083333334,158.96075L64.37948645833333,149.65645L64.38239409722223,149.65645L64.43763923611111,150.767125L64.87233125,152.280475L65.01480555555555,149.5591L65.02643611111111,149.5591L65.27940069444445,159.684975L65.3273767361111,149.77445L65.79114513888888,148.306825L65.905996875,148.306825L65.99177222222222,142.54104999999998L66.60383020833333,145.232925L66.65471388888889,145.232925L66.76229652777776,145.232925L67.31765555555556,146.1784L68.03584236111111,139.89195L68.03729618055554,139.89195L68.55485590277777,142.46435L68.56212500000001,142.46435L69.06514652777778,129.164275L69.20762083333334,140.63240000000002L69.2585045138889,140.63240000000002L69.53036875,122.057725L69.66266631944444,142.97469999999998L70.42156006944444,145.8716L70.57421111111111,136.054L71.19499201388888,119.04872499999999L71.23279131944444,119.04872499999999L71.32874340277777,135.639525L71.53082430555556,135.639525L71.6209611111111,135.639525L71.92335555555556,140.766625L71.94661666666666,140.766625L72.12689027777778,149.92195L72.44382291666666,144.905475L72.69969513888888,149.07825L72.73749444444445,149.07825L72.945390625,149.07825L73.16782500000001,137.06142499999999L73.37572118055556,137.06142499999999L73.58216354166667,129.5463L73.71882256944444,129.5463L73.73917604166667,129.5463L74.73649618055555,140.17515L74.7902875,140.17515L75.15810381944445,133.5996L75.42560659722223,156.61255L75.50702048611112,140.123525L75.60588020833333,140.123525L75.90100555555556,129.179025L76.2324763888889,136.83870000000002L76.38803506944444,147.047175L76.55522430555556,147.047175L76.70787534722221,147.047175L76.89977951388889,127.85447500000001L76.91141006944444,127.85447500000001L77.10331423611112,127.85447500000001L77.31702569444445,144.610475L77.44786944444445,127.060925L77.59906666666666,121.91465L77.63977361111111,121.91465L78.12534930555556,140.00995L78.14279513888889,140.00995L78.17041770833333,140.00995L78.1951326388889,140.00995L78.27363888888888,140.00995L78.32743020833334,140.00995L78.38122152777778,140.00995L78.56004131944445,140.00995L78.71269236111111,141.350725L79.03398645833333,141.350725L79.06451666666666,141.350725L79.27095902777778,141.350725L79.37854166666666,141.350725L79.64604444444444,141.350725L80.44564513888889,119.6756L80.47617534722222,119.6756L80.50961319444446,119.6756L80.66371805555555,67.6258L80.79456180555555,113.13987499999999L81.08241805555555,113.13692499999999L81.19581597222222,89.120975L81.34701319444444,89.120975L81.371728125,139.06742500000001L81.46913402777778,139.06742500000001L81.77298229166666,129.016775L81.81514305555555,129.016775L82.3297951388889,136.36965L82.37340972222222,136.36965L82.53042222222221,136.36965L82.6510892361111,136.36965L82.73395694444444,134.38135L83.16283368055555,134.276625L83.58007986111112,113.080875L83.97988020833334,139.38602500000002L84.1427079861111,119.82605000000001L84.60211493055556,135.21915L84.96120833333333,136.229525L84.98446944444444,136.229525L85.36973159722223,90.88065L85.54418993055555,127.7232L85.74917847222223,127.7232L86.20713159722222,73.783925L86.79738229166666,123.509125L86.91223402777777,123.509125L87.05325451388889,123.509125L87.09832291666666,123.509125L87.259696875,123.509125L87.66095104166668,91.96625L87.95753020833334,103.49485L88.19450277777777,107.2325L88.20031805555556,107.2325L88.24829409722223,107.2325L88.27737048611111,107.2325L88.38349930555556,107.2325L88.74259270833333,141.47315L89.039171875,112.50415L89.078425,112.50415L89.18019236111111,112.50415L89.46804861111112,127.04175000000001L89.49130972222223,127.04175000000001L90.33307118055556,143.86855L90.79247812499999,133.04942499999999L90.81864687500001,120.83642499999999L91.12394895833333,85.39070000000001L92.34515729166667,96.531375L92.47454722222223,132.6379L92.52106944444445,132.6379L92.62574444444445,118.561975L92.66499756944445,118.561975L92.67081284722222,118.561975L92.76240347222222,118.561975L93.03572152777778,126.9385L93.15202708333332,126.9385L93.33666215277778,79.0659L93.34683888888888,79.0659L93.41080694444445,79.0659L93.487859375,100.968175L94.23221493055556,113.319825L94.44738020833333,154.90155L94.9504017361111,114.54407499999999L94.96348611111111,114.54407499999999L95.04053854166668,90.1815L95.23680416666667,131.04194999999999L95.45633090277778,115.00132500000001L96.41585173611111,112.113275L96.43911284722222,113.457L96.55396458333334,113.457L96.67899305555557,129.279325L97.84495625,127.524075L98.25784097222223,136.585L98.33489340277778,136.585L98.37996180555557,136.585L98.43229930555556,129.308825L98.48899826388889,135.00232499999998L98.68962534722222,80.147075L98.78412361111111,80.147075L98.81756145833333,80.147075L98.97166631944445,133.612875L99.12431736111111,133.612875L99.19119305555556,133.612875L99.62006979166667,102.021325L100.08819965277777,94.9251L100.710434375,141.63245L100.82528611111111,87.3141L101.00846736111112,87.3141L101.77753784722222,119.89095L101.85022881944445,119.89095L101.98543402777779,140.3315L102.00869513888888,140.3315L102.05230972222222,101.67175L102.15843854166667,134.999375L102.68326736111112,145.4822L102.95949305555555,145.4822L103.19210416666667,139.05415L103.41744618055556,94.065175L103.55265138888889,94.065175L103.63261145833334,125.76735L104.38278229166666,120.78184999999999L104.39441284722221,120.78184999999999L104.609578125,120.78184999999999L104.67790763888888,129.9298L105.10096909722222,129.9298L105.18965208333334,126.26884999999999L105.41790173611112,126.26884999999999L105.66795868055556,104.047975L105.99361423611111,99.7572L106.04159027777777,99.7572L106.26402465277778,136.68529999999998L106.28583194444444,90.486825L106.81066076388888,134.840075L107.15666979166666,81.471625L107.16684652777778,81.471625L107.17266180555555,81.471625L107.17847708333333,81.471625L107.383465625,81.471625L107.44743368055555,81.471625L107.68876770833333,106.505325L107.74110520833334,106.505325L107.7629125,106.505325L107.93446319444445,106.505325L108.58868194444445,155.3647L108.75732500000001,155.3647L108.94632152777777,86.05149999999999L109.01174340277778,86.05149999999999L109.31849930555555,129.3752L109.47260416666667,101.162875L109.82733611111111,135.85045L109.83896666666666,135.85045L110.07448541666668,135.85045L110.15153784722223,125.5107L110.98166875,112.1885L111.22881805555555,112.1885L111.24917152777778,102.8488L111.37565381944445,102.8488L111.6358875,70.269L111.68386354166667,70.269L111.94409722222221,70.269L112.38024305555555,113.310975L112.38896597222222,113.310975L112.64919965277777,113.310975L113.05045381944444,127.04765L113.82824722222223,126.80132499999999L114.03905104166667,126.80132499999999L114.20769409722223,73.751475L114.33126875,73.751475L114.44466666666668,73.751475L114.48391979166666,73.751475L114.50863472222223,73.751475L115.23699826388888,127.4223L115.30532777777779,127.4223L115.48123993055555,127.4223L115.783634375,127.4223L115.82724895833333,127.4223L116.56724305555555,124.07995L116.57596597222222,124.07995L116.60795,124.07995L116.73879375,98.62735L116.99757361111111,63.007575L118.05886180555557,59.53985L118.1620829861111,59.53985L118.39760173611111,59.53985L118.53716840277778,59.53985L118.74942604166667,70.35159999999999L119.41672916666666,66.06819999999999L119.53303472222223,66.06819999999999L119.96481909722222,81.778425L120.0098875,81.778425L120.48528645833332,81.778425L120.703359375,81.778425L120.98830798611111,81.778425L121.18893506944444,81.778425L121.29070243055556,91.73025L121.29215625,91.73025L121.41427708333335,91.73025L121.64398055555556,91.73025L121.92602152777778,91.73025L122.10484131944445,22.85069999999999L122.26476145833334,22.85069999999999L122.44939652777778,22.85069999999999L122.86518888888888,83.5027L122.87972708333334,83.5027L123.12106111111112,83.5027L123.41473263888888,83.5027L123.93229236111111,86.2808625L124.000621875,86.2808625L124.23032534722223,69.674575L124.27539374999999,52.4333L124.44985208333334,86.669525L124.5109125,86.669525L124.60686458333333,115.989575L124.89472083333334,115.989575L125.10116319444445,59.862875L125.46316423611111,73.41369999999999L126.17408194444444,35.628625L126.408146875,35.628625L126.44885381944444,35.628625L126.51427569444445,35.628625L127.12342604166668,113.68709999999999L128.31991944444445,57.71232500000001L128.34608819444443,57.71232500000001L128.48710868055556,57.71232500000001L128.5612534722222,57.465999999999994L128.79531840277778,136.397675L129.28816319444445,68.600775L129.37393854166666,68.600775L129.6399875,53.20472500000001L129.66034097222223,53.20472500000001L130.05287222222222,132.067075L130.08340243055557,132.067075L130.43668055555557,75.43445L130.55153229166666,75.43445L130.72162916666667,75.43445L131.51686840277776,82.126525L131.68841909722224,80.91555L131.79890937500002,80.91555L132.1754486111111,19.91545000000002L132.2932079861111,19.91545000000002L132.92125798611113,96.522525L133.1044392361111,96.522525L133.14223854166667,96.522525L133.31088159722222,76.5053L133.53476979166666,49.74437499999999L133.61618368055557,144.93645L133.6903284722222,144.93645L133.72231250000002,144.93645L133.77028854166667,144.93645L133.8066340277778,144.93645L134.18462708333334,95.58885L134.1875347222222,95.58885L134.33582430555558,95.58885L134.3401857638889,95.58885L134.56407395833332,81.45245000000001L134.80395416666667,52.4982L135.02202708333334,52.4982L135.21974652777777,80.4229L135.46689583333335,51.78725L135.66897673611112,126.37062499999999L136.35372569444445,89.5974L136.36099479166666,89.5974L136.42932430555558,89.5974L136.51655347222223,89.5974L136.54999131944444,89.5974L136.93234583333333,57.558925L136.94252256944446,57.558925L137.97037291666666,78.15582500000001L138.36290416666668,78.15582500000001L138.79614236111112,78.15582500000001L138.8223111111111,78.15582500000001L138.9386166666667,78.15582500000001L139.4634454861111,75.19255L139.7120486111111,44.99045000000001L139.88505312499998,24.31094999999999L140.19471666666666,24.31094999999999L140.26886145833333,24.31094999999999L140.47821145833333,24.31094999999999L140.54654097222223,24.31094999999999L140.71663784722222,24.31094999999999L140.8852809027778,42.65257500000001L140.89545763888887,42.65257500000001L141.30979618055557,42.508025L141.7924642361111,72.347275L142.187903125,72.347275L142.33183125000002,72.347275L142.672025,72.347275L142.77815381944444,72.347275L142.86102152777778,65.03865L143.60246944444444,50.89782500000001L143.70132916666668,50.89782500000001L143.81327326388887,130.567L143.8336267361111,71.74547500000001L143.89032569444444,71.74547500000001L143.93684791666666,83.57792500000001L144.37880902777778,83.57792500000001L144.53727534722222,83.57792500000001L144.79750902777778,83.57792500000001L145.34705277777778,101.44165L145.42846666666665,101.44165L145.43428194444445,101.44165L145.52878020833333,101.44165L145.6232784722222,101.44165L145.95038784722223,101.44165L145.9736489583333,101.44165L146.18299895833334,50.573325L146.2207982638889,50.573325L146.27458958333332,50.573325L146.83140243055556,50.573325L146.859025,50.573325L147.0073145833333,50.573325L147.3911229166667,70.97847499999999L147.5554045138889,70.97847499999999L147.60628819444443,70.97847499999999L148.22125381944446,88.50885L149.3610482638889,67.89129999999999L149.410478125,67.89129999999999L149.5253298611111,56.629675000000006L149.85389305555555,63.3719L149.92949166666665,43.483000000000004L150.13302638888888,43.483000000000004L150.48630451388888,35.42065000000002L150.8526670138889,35.42065000000002L151.08673194444444,35.42065000000002L151.43855625,59.736025L151.48507847222223,59.736025L151.79328819444444,59.736025L152.07242152777778,59.736025L152.19599618055554,59.736025L152.38790034722223,78.43165L152.681571875,78.43165L152.72809409722223,78.43165L152.78188541666665,78.43165L152.8981909722222,78.43165L153.11771770833332,40.92829999999998L153.3910357638889,40.92829999999998L153.43610416666667,40.92829999999998L153.48408020833332,40.92829999999998L153.64981562499997,24.566125L153.74140625,24.566125L154.08450763888888,24.566125L154.12666840277777,24.566125L155.24029409722223,46.38874999999999L155.25919375,46.38874999999999L155.36386875,31.821650000000005L155.57176493055556,31.821650000000005L156.13148541666666,54.22247499999999L156.214353125,54.22247499999999L156.3684579861111,60.7877L156.46295625,60.7877L156.528378125,60.7877L156.76535069444444,22.125L157.21312708333335,62.599000000000004L157.993828125,51.806425000000004L158.1988166666667,74.353275L158.84867395833334,17.490550000000013L158.9722486111111,17.490550000000013L158.9955097222222,17.490550000000013L159.55086875,45.989025L159.57558368055555,45.989025L159.76458020833334,19.534899999999993L159.88233958333333,19.534899999999993L159.9724763888889,37.01807500000001L160.26614791666668,20.021649999999994L160.57581145833333,20.021649999999994L161.48299479166667,48.956725000000006L161.51207118055558,48.956725000000006L161.8115579861111,22.19727499999999L162.06452256944445,22.19727499999999L162.28259548611112,30.544299999999993L162.311671875,72.37235000000001L162.31603333333334,72.37235000000001L162.4396079861111,72.37235000000001L162.44396944444443,72.37235000000001L162.96589062500001,72.37235000000001L163.00368993055554,72.37235000000001L163.88906597222223,34.7038L163.97484131944444,27.20637500000001L164.46623229166664,27.20637500000001L164.60725277777777,27.20637500000001L164.96779999999998,21.47305L165.5929423611111,21.47305L166.28932187499998,73.67625L166.51611770833333,54.113325L166.87666493055556,68.108125L167.0322236111111,68.108125L167.2735576388889,68.108125L167.45819270833334,68.108125L167.65736597222224,68.108125L167.7387798611111,68.108125L167.78530208333333,68.108125L167.88852326388889,28.07072500000001L168.44097465277778,31.809849999999983L168.57036458333334,31.809849999999983L168.60380243055553,31.809849999999983L169.0821090277778,31.809849999999983L169.4223027777778,31.809849999999983L169.51680104166667,16.03030000000001L170.12449756944446,16.03030000000001L170.32512465277776,28.70497499999999L170.42689201388887,28.70497499999999L170.528659375,28.70497499999999L170.70311770833334,28.70497499999999L170.7670857638889,28.70497499999999L170.96480520833333,35.16842500000001L171.1770628472222,59.94252499999999L171.25556909722224,59.94252499999999L171.37187465277776,59.94252499999999L171.53179479166667,47.115925000000004L171.75422916666668,47.115925000000004L171.8603579861111,47.115925000000004L172.13949131944443,73.27947499999999L172.24125868055555,73.27947499999999L172.31249583333332,73.27947499999999L173.08592777777778,53.738675L173.74160034722223,87.560425L173.89570520833334,87.560425L173.89861284722224,87.560425L174.29114409722223,52.735675L174.872671875,52.735675L175.2826489583333,19.291525000000007L175.31608680555556,19.291525000000007L175.55160555555557,19.291525000000007L175.7071642361111,19.291525000000007L175.79293958333332,82.8655L175.80602395833333,82.8655L175.90924513888888,82.8655L176.01828159722223,82.8655L176.1389486111111,39.67749999999998L176.2538003472222,39.67749999999998L176.4006361111111,39.67749999999998L176.4297125,39.67749999999998L176.54020277777778,39.67749999999998L176.62307048611112,39.67749999999998L176.63906250000002,39.67749999999998L177.25548194444445,39.67749999999998L177.28455833333334,39.67749999999998L177.81374861111112,39.67749999999998L178.10742013888887,32.29069999999999L178.15394236111112,32.29069999999999L178.2324486111111,32.29069999999999L178.36329236111112,32.29069999999999L178.6467871527778,32.29069999999999L178.69185555555558,32.29069999999999L178.77181562500002,32.29069999999999L178.82269930555555,32.29069999999999L178.83723750000001,32.29069999999999L179.12073229166666,33.882225000000005L179.49291006944443,33.882225000000005L179.57287013888887,47.317999999999984L180.1980125,27.973375000000004L180.6763190972222,27.973375000000004L180.76064062499998,27.973375000000004L181.29855381944444,50.11902499999999L181.44975104166667,50.11902499999999L181.47010451388888,50.11902499999999L181.49772708333333,50.11902499999999L181.55733368055556,50.11902499999999L181.57768715277777,50.11902499999999L181.59949444444445,50.11902499999999L181.61839409722222,50.11902499999999L181.67509305555555,50.11902499999999L181.8640895833333,27.623800000000017L182.1141465277778,27.623800000000017L182.3598420138889,27.623800000000017L182.6157142361111,47.17935L182.749465625,47.17935L182.85414062499999,47.17935L182.87449409722223,47.17935L183.48800590277776,77.38145L183.57087361111113,77.38145L183.74969340277778,77.38145L184.005565625,77.38145L184.15094756944444,25.56174999999999L184.3006909722222,25.56174999999999L184.78626666666665,48.65582499999999L185.74724131944444,100.89885L185.80539409722223,100.89885L185.8533701388889,100.89885L186.12087291666668,100.89885L186.7431076388889,100.89885L186.94228090277778,100.89885L187.8959864583333,100.89885L187.89744027777778,100.89885L187.98176180555555,100.89885L188.27252569444443,23.638350000000003L188.38737743055555,16.406424999999984L188.7392017361111,16.406424999999984L189.08957222222222,16.406424999999984L189.2756611111111,16.406424999999984L189.32363715277776,16.406424999999984L189.605678125,41.240999999999985L189.69290729166667,41.240999999999985L189.84991979166668,41.240999999999985L189.90225729166667,41.240999999999985L189.92987986111112,41.240999999999985L190.06944652777779,41.240999999999985L190.73384201388888,53.148675L190.7934486111111,31.022199999999998L190.92138472222223,31.022199999999998L191.24413263888889,31.022199999999998L191.4665670138889,31.022199999999998L191.7413388888889,31.022199999999998L191.78204583333334,31.022199999999998L192.588915625,48.965575L192.8709565972222,26.564750000000004L192.92765555555556,26.564750000000004L193.216965625,23.766674999999992L193.82756979166666,23.766674999999992L194.03255833333336,23.766674999999992L194.21573958333332,23.766674999999992L194.4367201388889,46.635075L194.78418298611112,46.635075L195.23777465277777,45.935925L195.4805625,30.514800000000008L195.49219305555553,30.514800000000008L196.00539131944444,52.24597499999999L196.4066454861111,32.452950000000016L196.48369791666667,32.452950000000016L197.00271145833335,32.452950000000016L197.02015729166666,32.452950000000016L197.37925069444444,42.810400000000016L197.38942743055557,42.810400000000016L197.54353229166668,42.810400000000016L197.77759722222223,19.61160000000001L197.90844097222222,19.61160000000001L198.37947847222222,16.813525L198.6280815972222,22.238574999999997L198.69931875,22.238574999999997L198.7545638888889,22.238574999999997L198.80399375000002,22.238574999999997L198.85923888888888,22.238574999999997L198.9159378472222,22.238574999999997L199.08458090277776,49.47149999999999L199.19797881944444,49.47149999999999L199.21833229166666,49.47149999999999L199.24304722222223,49.47149999999999L199.4000597222222,49.47149999999999L199.47856597222224,49.47149999999999L200.09789305555557,49.47149999999999L200.37411875,49.47149999999999L200.54276180555556,49.47149999999999L200.86260208333331,49.47149999999999L200.90476284722223,49.47149999999999L201.57497361111112,49.47149999999999L201.94860520833333,49.47149999999999L201.99076597222222,49.47149999999999L202.07944895833333,49.47149999999999L202.52141006944444,29.95134999999999L202.7656517361111,29.95134999999999L203.50564583333332,29.95134999999999L203.52745312500002,29.95134999999999L203.9592375,29.95134999999999L204.77773784722223,29.95134999999999L204.8649670138889,29.95134999999999L205.26912881944446,120.759725L205.27058263888887,120.759725L205.4319565972222,120.759725L205.47266354166666,120.759725L205.51627812499999,120.759725L205.57588472222224,120.759725L205.7445277777778,120.759725L206.20393472222221,19.18089999999998L206.26499513888888,19.18089999999998L206.31733263888887,19.18089999999998L206.74184791666667,19.18089999999998L206.78691631944446,79.03492499999999L207.21288541666667,79.03492499999999L207.348090625,79.03492499999999L207.36553645833334,79.03492499999999L207.5181875,79.03492499999999L207.99649409722224,79.03492499999999L208.78301041666666,44.77510000000001L208.81790208333334,44.77510000000001L208.865878125,44.77510000000001L209.50119722222223,64.2569L209.59714930555555,64.2569L209.63785625,64.2569L210.1248857638889,47.7251L210.38511944444443,47.7251L210.45635659722222,47.7251L210.46071805555556,47.7251L210.47671006944447,47.7251L210.540678125,47.7251L210.8677875,47.7251L211.22688090277776,47.7251L212.90458854166667,33.178650000000005L213.25786666666664,33.178650000000005L213.61841388888888,15.50815L213.69546631944445,15.50815L213.8539326388889,45.24857499999999L214.047290625,45.24857499999999L214.31479340277778,45.24857499999999L214.50088229166667,45.24857499999999L214.57793472222224,45.24857499999999L214.6389951388889,45.24857499999999L214.79746145833332,45.24857499999999L214.80763819444445,45.24857499999999L214.85416041666664,78.096825L214.9006826388889,78.096825L214.989365625,78.096825L215.015534375,78.096825L215.329559375,19.079125000000005L215.60869270833334,19.079125000000005L215.75988993055554,19.079125000000005L215.85002673611112,19.079125000000005L216.10299131944444,19.079125000000005L216.4053857638889,19.079125000000005L216.83280868055556,19.079125000000005L216.89096145833332,19.079125000000005L217.082865625,19.079125000000005L217.2108017361111,34.243600000000015L217.22824756944445,34.243600000000015L217.23987812500002,34.243600000000015L217.28058506944444,34.243600000000015L217.3503684027778,34.243600000000015L217.41288263888887,24.294725L217.59751770833333,24.294725L217.8184982638889,38.982775000000004L217.96533402777777,38.982775000000004L218.17759166666667,38.982775000000004L218.31425069444444,38.982775000000004L218.53377743055557,38.982775000000004L219.09640555555555,38.982775000000004L219.1400201388889,38.982775000000004L219.42060729166667,38.982775000000004L219.50783645833334,38.982775000000004L219.54418194444446,38.982775000000004L220.2420152777778,38.982775000000004L220.25800729166667,38.982775000000004L220.5167871527778,21.178050000000013L220.550225,45.938874999999996L220.59529340277777,45.938874999999996L220.80173576388887,45.938874999999996L220.8220892361111,45.938874999999996L221.7176420138889,45.938874999999996L221.96479131944443,45.938874999999996L222.3137079861111,45.938874999999996L222.3369690972222,45.938874999999996L222.53323472222223,45.938874999999996L222.735315625,45.938874999999996L222.89814340277778,45.938874999999996L223.15692326388887,45.938874999999996L223.20344548611112,45.938874999999996L223.3081204861111,45.938874999999996L223.68611354166666,45.938874999999996L223.89982500000002,45.938874999999996L224.436284375,46.363675L224.4551840277778,46.363675L224.57875868055555,46.363675L224.82736180555557,43.932874999999996L225.09486458333333,77.925725L225.12830243055555,77.925725L225.13557152777778,77.925725L225.16464791666667,77.925725L225.31875277777777,43.696875000000006L225.81886666666668,43.696875000000006L226.23756666666668,47.961100000000016L226.61119826388887,47.961100000000016L227.10113541666666,47.961100000000016L227.20435659722224,47.961100000000016L227.3177545138889,47.961100000000016L227.7757076388889,47.961100000000016L227.7829767361111,47.961100000000016L227.80478402777777,47.961100000000016L228.28454444444444,47.961100000000016L228.3310666666667,47.961100000000016L228.61746909722223,47.961100000000016L228.95184756944445,47.961100000000016L229.07251458333332,47.961100000000016L229.10013715277776,47.961100000000016L229.24988055555554,47.961100000000016L229.3327482638889,47.961100000000016L229.65549618055556,47.961100000000016L229.93172187500002,41.84427500000001L230.350421875,41.84427500000001L230.39112881944445,41.84427500000001L230.51615729166667,41.84427500000001L231.0700625,41.84427500000001L231.1020465277778,41.84427500000001L231.53383090277777,41.84427500000001L231.74463472222223,41.84427500000001L231.81151041666666,41.84427500000001L232.57621944444443,44.039075L232.63437222222223,44.039075L232.6460027777778,44.039075L232.67798680555555,44.039075L232.692525,44.039075L232.80301527777777,44.039075L232.8524451388889,44.039075L232.97892743055556,43.50807499999999L233.02399583333332,43.50807499999999L233.70292951388888,43.50807499999999L233.96025555555556,39.61997500000001L234.0503923611111,39.61997500000001L234.38913229166667,39.61997500000001L234.39785520833334,39.61997500000001L235.3064923611111,17.76637500000001L235.3588298611111,17.76637500000001L235.4998503472222,17.76637500000001L235.7804375,17.76637500000001L235.80515243055555,17.76637500000001L235.80660625000002,17.76637500000001L236.2412982638889,42.31627500000002L236.2936357638889,42.31627500000002L236.6120222222222,42.31627500000002L236.81701076388887,42.31627500000002L237.24443368055557,42.31627500000002L237.47122951388891,42.31627500000002L237.67912569444445,45.53767500000001L237.80415416666665,45.53767500000001L237.81869236111112,45.53767500000001L238.02368090277778,45.53767500000001L238.08910277777778,45.53767500000001L238.1254482638889,45.53767500000001L238.3086295138889,45.53767500000001L238.410396875,45.53767500000001L238.6560923611111,45.53767500000001L238.75640590277777,45.53767500000001L238.84218124999998,16.049475L239.01518576388887,16.049475L239.195459375,16.049475L239.22598958333333,16.049475L240.2887315972222,16.049475L240.77139965277777,42.540475000000015L240.78739166666668,42.540475000000015L240.91532777777778,42.540475000000015L240.9720267361111,42.540475000000015L241.03163333333333,42.540475000000015L241.236621875,42.540475000000015L241.7890732638889,38.79397499999999L241.91555555555556,38.79397499999999L242.34733993055556,38.79397499999999L243.21963159722222,38.79397499999999L243.3068607638889,38.79397499999999L243.32139895833333,38.79397499999999L243.5031263888889,38.79397499999999L244.33471111111112,38.79397499999999L244.51789236111114,38.79397499999999L244.6618204861111,38.79397499999999L244.85953993055557,38.79397499999999L245.0369059027778,38.79397499999999L245.12122743055556,38.79397499999999L245.22154097222221,38.79397499999999L245.22735625,38.79397499999999L245.3741920138889,38.79397499999999L245.4992204861111,38.79397499999999L245.52102777777776,38.79397499999999L246.33952812500002,43.34877499999999L246.50380972222223,43.34877499999999L246.68989861111112,43.34877499999999L246.7117059027778,43.34877499999999L246.81347326388888,43.34877499999999L246.98502395833333,43.34877499999999L247.05916875000003,43.34877499999999L247.15948229166668,43.34877499999999L247.16529756944445,43.34877499999999L247.93146041666668,27.31405000000001L247.95908298611113,27.31405000000001L248.07538854166665,27.31405000000001L248.25275451388887,27.31405000000001L248.40540555555555,27.31405000000001L248.6656392361111,27.31405000000001L248.68599270833334,27.31405000000001L248.73833020833334,27.31405000000001L248.79793680555554,27.31405000000001L248.93459583333333,27.31405000000001L249.00583298611113,27.31405000000001L249.0290940972222,27.31405000000001L249.14685347222223,27.31405000000001L249.26752048611112,27.31405000000001L249.39400277777779,27.31405000000001L249.42017152777777,27.31405000000001L249.6164371527778,27.31405000000001L249.81415659722222,27.31405000000001L250.3767847222222,27.31405000000001L250.43057604166665,27.31405000000001L250.81874583333334,27.31405000000001L251.11823263888888,27.31405000000001L251.17202395833334,27.31405000000001L251.31740590277778,27.31405000000001" style="fill: none;" fill="none"></path></g></g></g></g></g></g><g transform="translate(68, 177)" clip-path="url(#clip_1)"><clipPath id="clip_1"><rect width="261" height="23"></rect></clipPath><g><g><line x1="0" y1="0" x2="0" y2="5" style="visibility: inherit;" fill="rgb(0, 0, 0)" stroke="rgb(204, 204, 204)" stroke-width="1px"></line><line x1="29.076388888888886" y1="0" x2="29.076388888888886" y2="5" style="visibility: inherit;" fill="rgb(0, 0, 0)" stroke="rgb(204, 204, 204)" stroke-width="1px"></line><line x1="58.15277777777777" y1="0" x2="58.15277777777777" y2="5" style="visibility: inherit;" fill="rgb(0, 0, 0)" stroke="rgb(204, 204, 204)" stroke-width="1px"></line><line x1="87.22916666666666" y1="0" x2="87.22916666666666" y2="5" style="visibility: inherit;" fill="rgb(0, 0, 0)" stroke="rgb(204, 204, 204)" stroke-width="1px"></line><line x1="116.30555555555554" y1="0" x2="116.30555555555554" y2="5" style="visibility: inherit;" fill="rgb(0, 0, 0)" stroke="rgb(204, 204, 204)" stroke-width="1px"></line><line x1="145.38194444444446" y1="0" x2="145.38194444444446" y2="5" style="visibility: inherit;" fill="rgb(0, 0, 0)" stroke="rgb(204, 204, 204)" stroke-width="1px"></line><line x1="174.45833333333331" y1="0" x2="174.45833333333331" y2="5" style="visibility: inherit;" fill="rgb(0, 0, 0)" stroke="rgb(204, 204, 204)" stroke-width="1px"></line><line x1="203.53472222222223" y1="0" x2="203.53472222222223" y2="5" style="visibility: inherit;" fill="rgb(0, 0, 0)" stroke="rgb(204, 204, 204)" stroke-width="1px"></line><line x1="232.6111111111111" y1="0" x2="232.6111111111111" y2="5" style="visibility: inherit;" fill="rgb(0, 0, 0)" stroke="rgb(204, 204, 204)" stroke-width="1px"></line><line x1="261.6875" y1="0" x2="261.6875" y2="5" style="visibility: inherit;" fill="rgb(0, 0, 0)" stroke="rgb(204, 204, 204)" stroke-width="1px"></line></g><g transform="translate(0, 8)"><text x="0" y="0" dx="0em" dy="0.95em" style="text-anchor: middle; visibility: hidden; font-family: &quot;Helvetica Neue&quot;, sans-serif; font-size: 12px; font-weight: 200;" fill="rgb(50, 49, 63)" stroke="none" stroke-width="1px">-20k</text><text x="29.076388888888886" y="0" dx="0em" dy="0.95em" style="text-anchor: middle; visibility: inherit; font-family: &quot;Helvetica Neue&quot;, sans-serif; font-size: 12px; font-weight: 200;" fill="rgb(50, 49, 63)" stroke="none" stroke-width="1px">0</text><text x="58.15277777777777" y="0" dx="0em" dy="0.95em" style="text-anchor: middle; visibility: hidden; font-family: &quot;Helvetica Neue&quot;, sans-serif; font-size: 12px; font-weight: 200;" fill="rgb(50, 49, 63)" stroke="none" stroke-width="1px">20k</text><text x="87.22916666666666" y="0" dx="0em" dy="0.95em" style="text-anchor: middle; visibility: inherit; font-family: &quot;Helvetica Neue&quot;, sans-serif; font-size: 12px; font-weight: 200;" fill="rgb(50, 49, 63)" stroke="none" stroke-width="1px">40k</text><text x="116.30555555555554" y="0" dx="0em" dy="0.95em" style="text-anchor: middle; visibility: hidden; font-family: &quot;Helvetica Neue&quot;, sans-serif; font-size: 12px; font-weight: 200;" fill="rgb(50, 49, 63)" stroke="none" stroke-width="1px">60k</text><text x="145.38194444444446" y="0" dx="0em" dy="0.95em" style="text-anchor: middle; visibility: inherit; font-family: &quot;Helvetica Neue&quot;, sans-serif; font-size: 12px; font-weight: 200;" fill="rgb(50, 49, 63)" stroke="none" stroke-width="1px">80k</text><text x="174.45833333333331" y="0" dx="0em" dy="0.95em" style="text-anchor: middle; visibility: hidden; font-family: &quot;Helvetica Neue&quot;, sans-serif; font-size: 12px; font-weight: 200;" fill="rgb(50, 49, 63)" stroke="none" stroke-width="1px">100k</text><text x="203.53472222222223" y="0" dx="0em" dy="0.95em" style="text-anchor: middle; visibility: inherit; font-family: &quot;Helvetica Neue&quot;, sans-serif; font-size: 12px; font-weight: 200;" fill="rgb(50, 49, 63)" stroke="none" stroke-width="1px">120k</text><text x="232.6111111111111" y="0" dx="0em" dy="0.95em" style="text-anchor: middle; visibility: hidden; font-family: &quot;Helvetica Neue&quot;, sans-serif; font-size: 12px; font-weight: 200;" fill="rgb(50, 49, 63)" stroke="none" stroke-width="1px">140k</text><text x="261.6875" y="0" dx="0em" dy="0.95em" style="text-anchor: middle; visibility: hidden; font-family: &quot;Helvetica Neue&quot;, sans-serif; font-size: 12px; font-weight: 200;" fill="rgb(50, 49, 63)" stroke="none" stroke-width="1px">160k</text></g><line x1="0" y1="0" x2="261.6875" y2="0" fill="rgb(0, 0, 0)" stroke="rgb(204, 204, 204)" stroke-width="1px"></line></g></g></g></g></svg>