<svg viewBox="0 0 330 200" xmlns="http://www.w3.org/2000/svg"><g><g><g><g><g><line x1="68.3125" y1="177" x2="63.3125" y2="177" style="visibility: inherit;" fill="rgb(0, 0, 0)" stroke="rgb(204, 204, 204)" stroke-width="1px"></line><line x1="68.3125" y1="163.3846153846154" x2="63.3125" y2="163.3846153846154" style="visibility: inherit;" fill="rgb(0, 0, 0)" stroke="rgb(204, 204, 204)" stroke-width="1px"></line><line x1="68.3125" y1="149.76923076923077" x2="63.3125" y2="149.76923076923077" style="visibility: inherit;" fill="rgb(0, 0, 0)" stroke="rgb(204, 204, 204)" stroke-width="1px"></line><line x1="68.3125" y1="136.15384615384616" x2="63.3125" y2="136.15384615384616" style="visibility: inherit;" fill="rgb(0, 0, 0)" stroke="rgb(204, 204, 204)" stroke-width="1px"></line><line x1="68.3125" y1="122.53846153846153" x2="63.3125" y2="122.53846153846153" style="visibility: inherit;" fill="rgb(0, 0, 0)" stroke="rgb(204, 204, 204)" stroke-width="1px"></line><line x1="68.3125" y1="108.92307692307692" x2="63.3125" y2="108.92307692307692" style="visibility: inherit;" fill="rgb(0, 0, 0)" stroke="rgb(204, 204, 204)" stroke-width="1px"></line><line x1="68.3125" y1="95.3076923076923" x2="63.3125" y2="95.3076923076923" style="visibility: inherit;" fill="rgb(0, 0, 0)" stroke="rgb(204, 204, 204)" stroke-width="1px"></line><line x1="68.3125" y1="81.6923076923077" x2="63.3125" y2="81.6923076923077" style="visibility: inherit;" fill="rgb(0, 0, 0)" stroke="rgb(204, 204, 204)" stroke-width="1px"></line><line x1="68.3125" y1="68.07692307692307" x2="63.3125" y2="68.07692307692307" style="visibility: inherit;" fill="rgb(0, 0, 0)" stroke="rgb(204, 204, 204)" stroke-width="1px"></line><line x1="68.3125" y1="54.46153846153847" x2="63.3125" y2="54.46153846153847" style="visibility: inherit;" fill="rgb(0, 0, 0)" stroke="rgb(204, 204, 204)" stroke-width="1px"></line><line x1="68.3125" y1="40.84615384615384" x2="63.3125" y2="40.84615384615384" style="visibility: inherit;" fill="rgb(0, 0, 0)" stroke="rgb(204, 204, 204)" stroke-width="1px"></line><line x1="68.3125" y1="27.230769230769226" x2="63.3125" y2="27.230769230769226" style="visibility: inherit;" fill="rgb(0, 0, 0)" stroke="rgb(204, 204, 204)" stroke-width="1px"></line><line x1="68.3125" y1="13.615384615384613" x2="63.3125" y2="13.615384615384613" style="visibility: inherit;" fill="rgb(0, 0, 0)" stroke="rgb(204, 204, 204)" stroke-width="1px"></line><line x1="68.3125" y1="0" x2="63.3125" y2="0" style="visibility: inherit;" fill="rgb(0, 0, 0)" stroke="rgb(204, 204, 204)" stroke-width="1px"></line></g><g transform="translate(58.3125, 0)"><text x="0" y="177" dx="0em" dy="0.3em" style="text-anchor: end; visibility: hidden; font-family: &quot;Helvetica Neue&quot;, sans-serif; font-size: 12px; font-weight: 200;" fill="rgb(50, 49, 63)" stroke="none" stroke-width="1px">-200</text><text x="0" y="163.3846153846154" dx="0em" dy="0.3em" style="text-anchor: end; visibility: inherit; font-family: &quot;Helvetica Neue&quot;, sans-serif; font-size: 12px; font-weight: 200;" fill="rgb(50, 49, 63)" stroke="none" stroke-width="1px">0</text><text x="0" y="149.76923076923077" dx="0em" dy="0.3em" style="text-anchor: end; visibility: hidden; font-family: &quot;Helvetica Neue&quot;, sans-serif; font-size: 12px; font-weight: 200;" fill="rgb(50, 49, 63)" stroke="none" stroke-width="1px">200</text><text x="0" y="136.15384615384616" dx="0em" dy="0.3em" style="text-anchor: end; visibility: inherit; font-family: &quot;Helvetica Neue&quot;, sans-serif; font-size: 12px; font-weight: 200;" fill="rgb(50, 49, 63)" stroke="none" stroke-width="1px">400</text><text x="0" y="122.53846153846153" dx="0em" dy="0.3em" style="text-anchor: end; visibility: hidden; font-family: &quot;Helvetica Neue&quot;, sans-serif; font-size: 12px; font-weight: 200;" fill="rgb(50, 49, 63)" stroke="none" stroke-width="1px">600</text><text x="0" y="108.92307692307692" dx="0em" dy="0.3em" style="text-anchor: end; visibility: inherit; font-family: &quot;Helvetica Neue&quot;, sans-serif; font-size: 12px; font-weight: 200;" fill="rgb(50, 49, 63)" stroke="none" stroke-width="1px">800</text><text x="0" y="95.3076923076923" dx="0em" dy="0.3em" style="text-anchor: end; visibility: hidden; font-family: &quot;Helvetica Neue&quot;, sans-serif; font-size: 12px; font-weight: 200;" fill="rgb(50, 49, 63)" stroke="none" stroke-width="1px">1e+3</text><text x="0" y="81.6923076923077" dx="0em" dy="0.3em" style="text-anchor: end; visibility: inherit; font-family: &quot;Helvetica Neue&quot;, sans-serif; font-size: 12px; font-weight: 200;" fill="rgb(50, 49, 63)" stroke="none" stroke-width="1px">1.2e+3</text><text x="0" y="68.07692307692307" dx="0em" dy="0.3em" style="text-anchor: end; visibility: hidden; font-family: &quot;Helvetica Neue&quot;, sans-serif; font-size: 12px; font-weight: 200;" fill="rgb(50, 49, 63)" stroke="none" stroke-width="1px">1.4e+3</text><text x="0" y="54.46153846153847" dx="0em" dy="0.3em" style="text-anchor: end; visibility: inherit; font-family: &quot;Helvetica Neue&quot;, sans-serif; font-size: 12px; font-weight: 200;" fill="rgb(50, 49, 63)" stroke="none" stroke-width="1px">1.6e+3</text><text x="0" y="40.84615384615384" dx="0em" dy="0.3em" style="text-anchor: end; visibility: hidden; font-family: &quot;Helvetica Neue&quot;, sans-serif; font-size: 12px; font-weight: 200;" fill="rgb(50, 49, 63)" stroke="none" stroke-width="1px">1.8e+3</text><text x="0" y="27.230769230769226" dx="0em" dy="0.3em" style="text-anchor: end; visibility: inherit; font-family: &quot;Helvetica Neue&quot;, sans-serif; font-size: 12px; font-weight: 200;" fill="rgb(50, 49, 63)" stroke="none" stroke-width="1px">2e+3</text><text x="0" y="13.615384615384613" dx="0em" dy="0.3em" style="text-anchor: end; visibility: hidden; font-family: &quot;Helvetica Neue&quot;, sans-serif; font-size: 12px; font-weight: 200;" fill="rgb(50, 49, 63)" stroke="none" stroke-width="1px">2.2e+3</text><text x="0" y="0" dx="0em" dy="0.3em" style="text-anchor: end; visibility: hidden; font-family: &quot;Helvetica Neue&quot;, sans-serif; font-size: 12px; font-weight: 200;" fill="rgb(50, 49, 63)" stroke="none" stroke-width="1px">2.4e+3</text></g><line x1="68.3125" y1="0" x2="68.3125" y2="177" fill="rgb(0, 0, 0)" stroke="rgb(204, 204, 204)" stroke-width="1px"></line></g></g><g transform="translate(68, 0)" clip-path="url(#clip_0)"><clipPath id="clip_0"><rect width="261" height="177"></rect></clipPath><g><g><g><line x1="0" y1="0" x2="0" y2="177" fill="rgb(0, 0, 0)" stroke="rgb(60, 60, 60)" stroke-width="1px" opacity="0.25"></line><line x1="29.076388888888886" y1="0" x2="29.076388888888886" y2="177" fill="rgb(0, 0, 0)" stroke="rgb(60, 60, 60)" stroke-width="1px" opacity="0.25"></line><line x1="58.15277777777777" y1="0" x2="58.15277777777777" y2="177" fill="rgb(0, 0, 0)" stroke="rgb(60, 60, 60)" stroke-width="1px" opacity="0.25"></line><line x1="87.22916666666666" y1="0" x2="87.22916666666666" y2="177" fill="rgb(0, 0, 0)" stroke="rgb(60, 60, 60)" stroke-width="1px" opacity="0.25"></line><line x1="116.30555555555554" y1="0" x2="116.30555555555554" y2="177" fill="rgb(0, 0, 0)" stroke="rgb(60, 60, 60)" stroke-width="1px" opacity="0.25"></line><line x1="145.38194444444446" y1="0" x2="145.38194444444446" y2="177" fill="rgb(0, 0, 0)" stroke="rgb(60, 60, 60)" stroke-width="1px" opacity="0.25"></line><line x1="174.45833333333331" y1="0" x2="174.45833333333331" y2="177" fill="rgb(0, 0, 0)" stroke="rgb(60, 60, 60)" stroke-width="1px" opacity="0.25"></line><line x1="203.53472222222223" y1="0" x2="203.53472222222223" y2="177" fill="rgb(0, 0, 0)" stroke="rgb(60, 60, 60)" stroke-width="1px" opacity="0.25"></line><line x1="232.6111111111111" y1="0" x2="232.6111111111111" y2="177" fill="rgb(0, 0, 0)" stroke="rgb(60, 60, 60)" stroke-width="1px" opacity="0.25"></line><line x1="261.6875" y1="0" x2="261.6875" y2="177" fill="rgb(0, 0, 0)" stroke="rgb(60, 60, 60)" stroke-width="1px" opacity="0.25"></line></g><g><line x1="0" y1="177" x2="261.6875" y2="177" fill="rgb(0, 0, 0)" stroke="rgb(60, 60, 60)" stroke-width="1px" opacity="0.25"></line><line x1="0" y1="163.3846153846154" x2="261.6875" y2="163.3846153846154" fill="rgb(0, 0, 0)" stroke="rgb(60, 60, 60)" stroke-width="1px" opacity="0.25"></line><line x1="0" y1="149.76923076923077" x2="261.6875" y2="149.76923076923077" fill="rgb(0, 0, 0)" stroke="rgb(60, 60, 60)" stroke-width="1px" opacity="0.25"></line><line x1="0" y1="136.15384615384616" x2="261.6875" y2="136.15384615384616" fill="rgb(0, 0, 0)" stroke="rgb(60, 60, 60)" stroke-width="1px" opacity="0.25"></line><line x1="0" y1="122.53846153846153" x2="261.6875" y2="122.53846153846153" fill="rgb(0, 0, 0)" stroke="rgb(60, 60, 60)" stroke-width="1px" opacity="0.25"></line><line x1="0" y1="108.92307692307692" x2="261.6875" y2="108.92307692307692" fill="rgb(0, 0, 0)" stroke="rgb(60, 60, 60)" stroke-width="1px" opacity="0.25"></line><line x1="0" y1="95.3076923076923" x2="261.6875" y2="95.3076923076923" fill="rgb(0, 0, 0)" stroke="rgb(60, 60, 60)" stroke-width="1px" opacity="0.25"></line><line x1="0" y1="81.6923076923077" x2="261.6875" y2="81.6923076923077" fill="rgb(0, 0, 0)" stroke="rgb(60, 60, 60)" stroke-width="1px" opacity="0.25"></line><line x1="0" y1="68.07692307692307" x2="261.6875" y2="68.07692307692307" fill="rgb(0, 0, 0)" stroke="rgb(60, 60, 60)" stroke-width="1px" opacity="0.25"></line><line x1="0" y1="54.46153846153847" x2="261.6875" y2="54.46153846153847" fill="rgb(0, 0, 0)" stroke="rgb(60, 60, 60)" stroke-width="1px" opacity="0.25"></line><line x1="0" y1="40.84615384615384" x2="261.6875" y2="40.84615384615384" fill="rgb(0, 0, 0)" stroke="rgb(60, 60, 60)" stroke-width="1px" opacity="0.25"></line><line x1="0" y1="27.230769230769226" x2="261.6875" y2="27.230769230769226" fill="rgb(0, 0, 0)" stroke="rgb(60, 60, 60)" stroke-width="1px" opacity="0.25"></line><line x1="0" y1="13.615384615384613" x2="261.6875" y2="13.615384615384613" fill="rgb(0, 0, 0)" stroke="rgb(60, 60, 60)" stroke-width="1px" opacity="0.25"></line><line x1="0" y1="0" x2="261.6875" y2="0" fill="rgb(0, 0, 0)" stroke="rgb(60, 60, 60)" stroke-width="1px" opacity="0.25"></line></g></g></g><g><g><line x1="0" y1="163.3846153846154" x2="261.6875" y2="163.3846153846154" fill="rgb(0, 0, 0)" stroke="rgb(153, 153, 153)" stroke-width="1.5px"></line></g></g><g><g><line x1="29.076388888888886" y1="0" x2="29.076388888888886" y2="177" fill="rgb(0, 0, 0)" stroke="rgb(153, 153, 153)" stroke-width="1.5px"></line></g></g><g><g><g><g><g><path stroke="rgb(255, 112, 67)" stroke-width="2px" d="M29.138903125000002,163.3846153846154L29.320630555555557,163.3846153846154L29.41076736111111,163.3846153846154L29.766953125,163.3846153846154L29.857089930555556,163.3846153846154L29.919604166666666,163.3846153846154L29.92978090277778,163.3846153846154L29.999564236111112,163.3846153846154L30.01846388888889,163.3846153846154L30.115869791666665,163.3846153846154L30.252528819444446,163.3846153846154L30.552015625000003,163.3846153846154L31.015784027777777,161.55904020696556L31.09138263888889,160.0303421907621L31.101559375,158.73818794891395L31.165527430555557,157.63729444143155L31.53625138888889,155.87598148067752L31.598765625,155.15746022348074L31.60312708333333,154.5344821823643L31.806661805555553,153.99200440806146L31.86481458333333,153.51784500119146L32.03781909722222,152.34690342831342L32.431804166666666,152.06406869501177L32.55101736111111,151.8146930980759L32.69058402777778,151.59432681400222L32.692037847222224,151.3992105905486L32.981347916666664,151.22614913000058L33.49454618055555,150.3540467938143L33.77367951388889,150.2926744762124L33.796940625,149.5271076084849L33.88271597222222,148.844508129493L34.33776145833333,148.94026850187967L34.340669097222225,149.02580817431797L34.413360069444444,149.10227725606407L34.516581249999994,149.1706849585514L34.63288680555555,149.2319190455981L34.82915243055555,149.28676219347426L35.35398125,147.25563738587735L35.47464826388889,147.51119377880016L35.608399652777784,147.74038512835216L35.63311458333333,147.9460050115212L35.875902430555556,148.13053689810596L36.03873020833333,146.9198220519908L36.30477916666666,145.1452458576594L36.54175173611111,144.2381891291979L36.84850763888889,144.1095132922164L36.868861111111116,143.99389845264136L37.39805138888889,143.89000138919812L37.60303993055556,143.11193030626654L37.665554166666666,143.09681321168648L37.78622118055555,143.08322269846659L38.09152326388889,141.02013409962038L38.119145833333334,141.21500669204352L38.63525173611111,140.70717345502268L38.81697916666667,138.2019088793577L38.834425,139.3618179752071L39.042321180555554,139.04022806277607L39.20514895833333,138.7509480952396L39.47992083333334,138.4907183059762L39.80993784722222,139.6205999612739L39.92333576388889,139.95523501968236L39.92769722222222,140.2563035927627L39.997480555555555,139.1638574913043L40.414726736111106,139.54407387045669L40.46561041666667,139.88618334761418L40.80435034722222,138.14975286699323L40.97008576388889,138.63134535733906L41.02969236111111,139.06469989089624L41.236134722222225,139.45465523432816L41.43240034722223,139.80556342866635L41.44693854166666,140.121339004392L41.58214375,141.0866180877973L41.98485173611111,141.27419580615393L42.06771944444445,141.44299946659305L42.540210763888886,140.91388837030541L42.84260520833334,141.11872158676704L42.96763368055556,141.30305851830323L42.986533333333334,141.46895125748273L43.17698368055556,141.61824621915738L44.017291319444446,141.75260479731875L44.196111111111115,142.55442505406205L44.312416666666664,143.27603332451415L44.374930902777784,137.79755744665482L44.49850555555555,136.95229592587182L44.75001631944444,137.55329771288072L44.92738229166667,138.0941845881241L44.931743749999995,138.5809708425244L45.02042673611111,136.97656902437035L45.098932986111116,135.53263605913054L45.21814618055556,135.59476180117636L45.843288541666666,136.33148997701136L45.89271840277778,136.31372449849994L46.06572291666667,135.61692873790656L46.17330555555555,132.94741013399576L46.47860763888889,133.9488680142906L46.485876736111116,134.85017154717673L46.76210243055555,134.98054375800592L46.945283680555555,136.45946095556002L47.79867569444444,137.10968789608802L48.026925347222225,134.97173924264916L48.06617847222222,133.04759624432444L48.771280902777775,134.0390117960868L48.845425694444444,134.9312817398867L48.87886354166667,135.73432140657098L49.15508923611111,134.41471472273156L49.75260902777778,135.95018800184033L49.85873784722222,135.2897761962451L49.92270590277778,134.69540716533263L50.08117222222222,136.20280503749495L50.358851736111106,136.87868463948195L50.40246631944444,137.48697509193963L50.56384027777778,136.67288686029616L50.70049930555555,137.982530093313L51.57279097222222,137.79966058817877L51.62222083333334,137.63507824468473L51.99585243055556,135.44463656220026L52.507596875,136.19633008190542L52.80562986111111,134.14976583770607L53.51509375,135.71171793522254L53.58487708333334,136.4367023290071L53.88872534722222,137.769959047902L53.93379375,137.6083473357704L54.25363402777778,138.1436677085558L54.28561805555555,138.6254558046225L54.58219722222222,136.3359827815842L54.602550694444446,133.59468749124932L55.90226527777777,129.08521177706618L56.86905520833333,127.06899548895619L56.94610763888889,127.97748169203054L57.47239027777778,126.07203906966689L57.63085659722222,122.31483135525252L57.651210069444446,118.93334513569533L57.763154166666666,115.20923833449422L58.1469625,114.92100659580652L58.23128402777778,115.68275259653645L58.24436840277778,116.3683239009651L58.35485868055555,112.90072041263112L58.50896354166667,111.14141674941592L58.52059409722222,112.2811217254863L58.62381527777778,112.62608661144813L58.79391215277778,110.21347709782985L58.937840277777774,107.36135925028489L58.99453923611111,104.79445335982312L59.28675694444445,101.12269938574264L59.29111840277778,97.81812098877046L59.39724722222222,94.16323120424481L59.724356597222226,94.95844669468421L59.81740104166666,90.90875518696438L59.94533715277778,93.39095696889184L60.07181944444445,92.90186120504961L60.36839861111111,93.14244434495428L60.840889930555555,91.99743055272809L61.41805625,90.96691816384721L61.541630902777776,91.40099561721819L61.58233784722222,91.79166531784462L61.74807326388889,92.82403732270342L62.71631701388889,90.34932573609423L62.73085520833333,87.44131606804673L62.79482326388889,88.90872300060381L62.83262256944444,91.59092775164494L62.93148229166666,91.28183496320247L63.040518750000004,90.32288219903776L63.136470833333334,89.45982471833382L63.300752430555555,86.64076523514079L63.48974895833334,85.46515021695383L63.50574097222222,84.4070967068811L63.53481736111111,83.45484855291505L63.87937256944444,79.87474823944899L64.18322083333334,80.05650418809591L64.37948645833333,78.17777681494209L64.38239409722223,76.48692218504443L64.43763923611111,80.41130694252027L64.87233125,83.9432532141969L65.01480555555555,80.99508170673893L65.02643611111111,80.38403506852156L65.27940069444445,77.11101614810525L65.3273767361111,77.5691453061723L65.79114513888888,75.25838460515419L65.905996875,73.17869997738329L65.99177222222222,70.62621458021754L66.60383020833333,69.69051619423202L66.65471388888889,69.52915688174267L66.76229652777776,68.7031642669972L67.31765555555556,67.27900168102906L68.03584236111111,69.40110152019774L68.03729618055554,71.31099137406797L68.08236458333333,72.34912300877333L68.53741006944445,73.96421071193048L68.55485590277777,75.41778964400535L68.56212500000001,76.72601068225185L68.72931423611111,73.81879422411711L69.06514652777778,75.28691480411155L69.20762083333334,73.8851463985558L69.2585045138889,74.66586252896741L69.53036875,74.00696858297574L69.66266631944444,72.05242556873029L70.42156006944444,70.97410608773676L70.57421111111111,67.96131086095434L71.19499201388888,70.01517977646891L71.23279131944444,71.18289256887662L71.32874340277777,70.19152638828258L71.53082430555556,72.02237375050058L71.6209611111111,71.62782868293989L71.92335555555556,70.59196889108951L71.94661666666666,70.34046430956809L72.12689027777778,71.47564864826766L72.44382291666666,71.13577609101851L72.69969513888888,69.46835232756412L72.73749444444445,67.96767094055136L72.945390625,67.29782692325452L73.16782500000001,65.33342884587877L73.37572118055556,64.24623980722812L73.58216354166667,62.58700044159238L73.71882256944444,63.81676193609316L73.73917604166667,64.92354728110614L74.73649618055555,65.23888486072904L74.7902875,63.48038098983386L75.15810381944445,70.74772750700463L75.42560659722223,70.48064706397103L75.50702048611112,68.87873620359036L75.60588020833333,66.07547796763033L75.90100555555556,71.04100709428921L76.2324763888889,71.42536792334583L76.38803506944444,69.72898497706963L76.55522430555556,68.88300955624291L76.70787534722221,66.76009321590645L76.89977951388889,62.80716081723057L76.91141006944444,63.33413704321926L77.10331423611112,61.085338723438L77.31702569444445,61.103727928017804L77.44786944444445,61.12027821213954L77.54963680555556,61.81594269863476L77.59906666666666,61.080502274909094L77.63977361111111,65.18399050903717L78.12534930555556,62.75020684270585L78.14279513888889,61.921340004575924L78.17041770833333,62.53689831181944L78.1951326388889,62.41013155755894L78.27363888888888,61.61527224794767L78.32743020833334,61.9210527154638L78.38122152777778,61.85587052083986L78.56004131944445,61.79720654567848L78.71269236111111,64.46748589113093L79.03398645833333,64.14766037893871L79.06451666666666,63.85981741796613L79.27095902777778,65.64306644541018L79.37854166666666,66.5672213393353L79.64604444444444,66.03742228232247L80.44564513888889,64.19906466946742L80.47617534722222,62.54454281789927L80.50961319444446,61.05547315148907L80.66371805555555,60.39607968249206L80.79456180555555,59.80262556039513L81.08241805555555,57.90697838896648L81.19581597222222,58.9239728577643L81.34701319444444,59.839267879681955L81.371728125,60.66303339940751L81.46913402777778,60.04288390561962L81.77298229166666,61.527057053521276L81.81514305555555,62.8628128866324L82.3297951388889,65.42653159797207L82.37340972222222,65.01080151509751L82.53042222222221,64.6366444405105L82.6510892361111,63.61913384261244L82.73395694444444,66.10722045835304L83.16283368055555,66.98495995097988L83.53065,67.09415626357428L83.58007986111112,64.46935602183078L83.97988020833334,63.12818965041629L84.1427079861111,62.94229376229762L84.60211493055556,62.77498746299091L84.96120833333333,63.98595025515378L84.98446944444444,66.43735522963918L85.36973159722223,69.32438893744533L85.54418993055555,67.15733465908487L85.74917847222223,65.88775503932992L86.20713159722222,68.82974876616679L86.79738229166666,67.39292773570368L86.83808923611112,65.41901957751759L86.91223402777777,65.68480992745818L87.05325451388889,67.28555970394333L87.09832291666666,67.3646960412413L87.259696875,68.1166879755788L87.66095104166668,68.79348071648253L87.95753020833334,65.3179787986801L88.17124166666666,64.23233476496586L88.19450277777777,65.97833205770017L88.20031805555556,67.54972962116102L88.24829409722223,65.56014127442941L88.27737048611111,66.49258868544806L88.38349930555556,67.33179135536481L88.74259270833333,64.6832276044436L89.039171875,64.34182792092231L89.078425,65.39610666729166L89.18019236111111,67.70649600056257L89.46804861111112,67.74353870819863L89.49130972222223,71.1807232989173L90.33307118055556,69.50880481517939L90.79247812499999,70.04638587212295L90.81864687500001,70.5302088233722L91.12394895833333,73.00795717180425L91.56445624999999,71.15331530077765L92.34515729166667,68.80336838608449L92.47454722222223,66.6884161628606L92.52106944444445,64.78495916195914L92.62574444444445,62.39107863037859L92.66499756944445,62.27889384426379L92.67081284722222,62.17792753676049L92.76240347222222,62.76782709077676L93.03572152777778,61.25642899708369L93.15202708333332,59.215401481990696L93.33666215277778,62.82463056456086L93.34683888888888,63.34985981579709L93.41080694444445,63.822566141909675L93.487859375,60.84415568156484L93.8963826388889,58.84435549802373L94.23221493055556,59.08684302514443L94.44738020833333,57.26277410724538L94.9504017361111,56.30188131190543L94.96348611111111,55.4370777960995L95.04053854166668,53.977985401104945L95.23680416666667,55.38787916868674L95.45633090277778,55.295245097971915L96.41585173611111,56.57341289586705L96.43911284722222,57.72376391397266L96.55396458333334,58.75907983026771L96.67899305555557,59.01009492416401L97.75772708333334,60.59754697020912L97.84495625,59.983946119342065L98.25784097222223,58.07016689202324L98.33489340277778,57.70930404897476L98.37996180555557,57.38452749023112L98.43229930555556,62.53838243351569L98.48899826388889,63.09223649785645L98.68962534722222,63.590705155763104L98.78412361111111,61.31625002480217L98.81756145833333,60.63077886847579L98.97166631944445,59.333085597012825L99.12431736111111,60.207469345003844L99.19119305555556,57.590568564349624L99.62006979166667,56.59689632329926L100.08819965277777,61.82951438327703L100.710434375,61.09271679110317L100.82528611111111,58.727675881223604L101.00846736111112,58.98183137002434L101.77753784722222,58.52980207917575L101.85022881944445,58.12297571741202L101.98543402777779,57.07606276105541L102.00869513888888,56.13384110033448L102.05230972222222,55.96661083645489L102.15843854166667,57.1776420605017L102.68326736111112,55.54449323906691L102.95949305555555,54.074659299775604L103.19210416666667,55.47488567749036L103.41744618055556,53.33124326358748L103.55265138888889,54.12504201415183L103.63261145833334,54.158691658890476L104.38278229166666,55.55051480069373L104.39441284722221,56.803155628316674L104.609578125,60.65360929625423L104.67790763888888,60.03440221278265L104.77385972222223,58.11557737611976L105.02100902777778,55.70786579235396L105.10096909722222,56.26400229004162L105.18965208333334,54.72221744565283L105.41790173611112,54.696149547241404L105.66795868055556,51.949611515594185L105.99361423611111,50.158496517880906L106.04159027777777,51.26956994301588L106.26402465277778,51.58876679486815L106.28583194444444,50.514505499996716L106.81066076388888,49.547670334612434L107.15666979166666,49.35828791653579L107.16684652777778,49.187843740266814L107.17266180555555,48.35367475085553L107.17847708333333,47.60292266038533L107.383465625,48.969553471269904L107.44743368055555,48.83798273952752L107.68876770833333,47.35803061942093L107.74110520833334,45.34530448055574L107.7629125,44.89538941711555L107.93446319444445,45.1712350907886L108.58868194444445,45.41949619709436L108.75732500000001,46.32370042353878L108.94632152777777,45.77594576580029L109.01174340277778,46.644505035374095L109.31849930555555,46.06466991645206L109.47260416666667,48.26589523249916L109.82733611111111,49.56622878617233L109.83896666666666,49.3749905229397L110.07448541666668,49.88364531679957L110.15153784722223,53.06451155435039L110.98166875,51.161906552761494L111.22881805555555,50.811100512869956L111.24917152777778,51.176144307736806L111.37565381944445,50.82391449234774L111.6358875,53.2299845815745L111.68386354166667,54.71467843110936L111.94409722222221,53.66821058799843L112.38024305555555,55.109081836890894L112.38896597222222,56.405865960894104L112.64919965277777,55.5306639801893L113.05045381944444,56.10452065909345L113.82824722222223,55.259453208568715L114.03905104166667,54.49889250309647L114.20769409722223,57.8990032527868L114.33126875,55.51294908135429L114.44466666666668,56.088577250141924L114.48391979166666,56.6066426020508L114.50863472222223,54.34982449569186L115.23699826388888,52.65907281535344L115.30532777777779,50.79701168766425L115.48123993055555,50.48269513428245L115.783634375,49.51904100546959L115.82724895833333,49.33252152030724L116.56724305555555,48.483884752891896L116.57596597222222,49.081650123756546L116.60795,50.981177419073205L116.73879375,51.32921352331974L116.99757361111111,51.642446017141594L117.93819479166666,51.92435526158127L118.05886180555557,52.85884281234621L118.1620829861111,50.97680468495774L118.39760173611111,49.28297037030812L118.53716840277778,49.12005794866194L118.74942604166667,48.29266753841111L119.41672916666666,46.867246938416145L119.53303472222223,46.26513762918992L119.96481909722222,46.40400848165555L120.0098875,47.209761479643845L120.48528645833332,48.61570840860253L120.703359375,47.83875295235765L120.98830798611111,48.501031503275726L121.18893506944444,48.41631296833276L121.29070243055556,46.97852782534562L121.29215625,45.684521196657215L121.41427708333335,45.20068446160687L121.64398055555556,44.08446216929235L121.92602152777778,43.76063133697849L122.10484131944445,42.78841435712678L122.26476145833334,42.59418830602951L122.44939652777778,42.41938486004193L122.86518888888888,44.30436945096079L122.87972708333334,43.27777865971086L123.12106111111112,43.03461617835518L123.41473263888888,42.81576994513503L123.93229236111111,42.618808335236906L124.000621875,42.44154288632859L124.23032534722223,42.282003982311124L124.27539374999999,42.13841896869542L124.44985208333334,41.328423225672026L124.5109125,39.91865782618174L124.60686458333333,44.09602281279433L124.89472083333334,45.813343608437975L125.10116319444445,45.99739386297878L125.46316423611111,46.16303909206553L125.97054722222222,44.2698121059359L126.17408194444444,43.92744627995768L126.408146875,43.619317036577286L126.44885381944444,44.02276994830419L126.51427569444445,44.385877568858376L127.12342604166668,46.07421288889563L127.17285590277778,47.593714676929125L127.22955486111111,46.918958593851585L128.31991944444445,45.630908888312604L128.34608819444443,44.47166415332748L128.48710868055556,42.74757466107167L128.5612534722222,41.876663348810666L128.68192048611112,41.092843167775726L128.79531840277778,39.70663577407507L129.28816319444445,40.501356812052194L129.37393854166666,40.535836515462336L129.6399875,41.928406710069964L129.66034097222223,41.139412192909106L130.05287222222222,43.15239405054126L130.08340243055557,42.92177003010255L130.43668055555557,46.11805456555382L130.55153229166666,47.633172185921495L130.72162916666667,46.954470351944735L131.51686840277776,44.98210023982719L131.68841909722224,43.88773636969063L131.79890937500002,43.58357811733694L132.1754486111111,41.94829722868016L132.2932079861111,41.157313659658286L132.92125798611113,41.12619767830785L133.1044392361111,41.77896252586169L133.14223854166667,44.749143196352435L133.31088159722222,42.997305799794105L133.53476979166666,44.14372906596853L133.61618368055557,43.13320231321782L133.6903284722222,44.26603592804989L133.72231250000002,43.24327848909107L133.77028854166667,41.642027563258864L133.8066340277778,41.56244019154835L134.18462708333334,40.12927309547047L134.1875347222222,38.83942270900033L134.33582430555558,39.04009582271567L134.3401857638889,39.22070162505949L134.56407395833332,40.06401607793816L134.80395416666667,39.46146062399052L135.02202708333334,39.599929946206856L135.21974652777777,38.36301387466307L135.46689583333335,39.29209710258138L135.66897673611112,38.08596431540016L136.35372569444445,38.36198326847554L136.36099479166666,38.610400326243365L136.42932430555558,38.15320644746518L136.51655347222223,38.422501187334035L136.54999131944444,38.66486645321601L136.93234583333333,40.24453365404827L136.94252256944446,40.304695673258806L137.97037291666666,41.72037995208677L138.36290416666668,41.632957341493466L138.79614236111112,40.19273853042108L138.8223111111111,38.89654160045586L138.9386166666667,38.41073359425644L139.4634454861111,38.654275619446196L139.649534375,38.192694211347714L139.7120486111111,38.45804017482831L139.88505312499998,38.69685154196088L140.19471666666666,37.55024331084172L140.26886145833333,36.51829590283447L140.47821145833333,36.27031246639717L140.54654097222223,36.72789660437283L140.71663784722222,37.13972232855093L140.8852809027778,38.19113471108045L140.89545763888887,39.13740585535703L141.30979618055557,38.62751142366747L141.49297743055556,37.48783720437763L141.7924642361111,38.50443809932449L142.187903125,40.10014813554588L142.33183125000002,40.85551793737591L142.672025,40.8545815282537L142.77815381944444,40.17296952927447L142.86102152777778,39.55951873019316L143.60246944444444,41.73048993409694L143.70132916666668,40.96128709453339L143.81327326388887,39.58823530815698L143.8336267361111,38.352488700418206L143.89032569444444,38.60185521499179L143.93684791666666,38.14551584733874L144.37880902777778,37.0540411856818L144.53727534722222,36.071713990190574L144.79750902777778,36.54915797578684L145.11008020833333,36.97885756282358L145.34705277777778,40.76943334500274L145.380490625,39.415566933579385L145.42846666666665,39.89901024022146L145.43428194444445,39.312955370045444L145.52878020833333,38.10473675611783L145.6232784722222,37.69810923435219L145.95038784722223,40.05522138784005L145.9736489583333,39.45354540290219L146.18299895833334,38.91203701645813L146.2207982638889,38.42467946865847L146.27458958333332,37.98605767563876L146.83140243055556,37.59129806192104L146.859025,37.23601440957509L147.0073145833333,37.59702835323296L147.3911229166667,37.24117167175581L147.5554045138889,38.282439119964835L147.60628819444443,38.53881059258373L148.22125381944446,37.40800645640229L149.3610482638889,38.432590426146675L149.410478125,37.312408306608944L149.5253298611111,38.346552091332654L149.85389305555555,37.91574303604554L149.92949166666665,38.20878411705638L150.13302638888888,37.79175185919689L150.48630451388888,36.7356535963541L150.8526670138889,37.82747285210331L151.08673194444444,37.448571720739125L151.43855625,37.78832993328058L151.48507847222223,38.774881555337146L151.77148090277777,38.98200878441884L151.79328819444444,38.487654059823086L152.07242152777778,42.127350192302316L152.19599618055554,41.31846132691825L152.27450243055557,40.59046134807258L152.38790034722223,42.6583382901884L152.681571875,41.11558138424647L152.72809409722223,41.0886386304372L152.78188541666665,41.06439015200888L152.8981909722222,40.36179729065415L153.11771770833332,40.410232946204104L153.3910357638889,39.09228657466062L153.43610416666667,39.94844253257915L153.48408020833332,39.357444433167416L153.64981562499997,38.1447769129276L153.74140625,40.457222298557895L154.08450763888888,39.81534622254824L154.12666840277777,39.237657754139576L154.76344131944444,38.71773813257178L155.24029409722223,38.93057970392999L155.25919375,39.12213711815235L155.32606944444444,38.6137695601833L155.36386875,37.47546952724187L155.57176493055556,37.81253795913307L156.13148541666666,37.4351303170659L156.214353125,37.095463439205474L156.3684579861111,39.512840172208L156.46295625,39.64617153960259L156.528378125,39.76616977025773L156.76535069444444,39.87416817784734L157.21312708333335,41.33290520621645L157.65508819444443,44.0073069932871L157.993828125,43.01042244780453L158.1988166666667,42.11322635687023L158.84867395833334,41.98651910579861L158.9722486111111,40.51094411829567L158.9955097222222,39.182926629543005L159.55086875,38.66848012043488L159.57558368055555,38.88624749300675L159.76458020833334,37.72069966678302L159.88233958333333,36.67170662318162L159.9724763888889,36.40838211470961L160.26614791666668,36.17139005708478L160.57581145833333,35.95809720522246L161.48299479166667,37.808441330854066L161.51207118055558,38.112212582384046L161.8115579861111,37.02406824722257L162.06452256944445,36.72550757634647L162.28259548611112,35.77603374178875L162.311671875,34.921507290686776L162.31603333333334,34.152433484695024L162.4396079861111,33.46026705930245L162.44396944444443,32.83731727644911L162.96589062500001,32.957431702650354L163.00368993055554,33.0655346862315L163.88906597222223,33.162827371454455L163.97484131944444,32.569621557385915L163.97774895833334,32.03573632472427L164.0228173611111,31.55523961532876L164.46623229166664,31.80356180764204L164.60725277777777,32.707821011493195L164.96779999999998,32.16011583342083L165.5929423611111,31.667181173155655L166.28932187499998,31.223539978917017L166.35328993055555,30.824262904102255L166.51611770833333,31.145682767538176L166.87666493055556,30.754191413861264L167.0322236111111,31.08261842632129L167.2735576388889,32.05897196830455L167.45819270833334,32.25692092532029L167.65736597222224,34.477382678942064L167.7387798611111,33.7527213341248L167.78530208333333,33.10052612378925L167.88852326388889,33.19431966525647L168.44097465277778,33.27873385257698L168.57036458333334,32.333552775011555L168.60380243055553,32.50404365135657L169.0821090277778,31.97671620929782L169.4223027777778,32.1828907422142L169.51680104166667,32.36844782183894L170.12449756944446,32.8758338088858L170.32512465277776,32.992096581843384L170.42689201388887,36.50057923135134L170.528659375,35.57359823129315L170.70311770833334,37.46239225431765L170.7670857638889,37.80076841350126L170.96480520833333,40.82838387984347L171.04767291666664,40.83016087647451L171.1770628472222,40.15099094267319L171.25556909722224,39.53973800225202L171.37187465277776,38.989610355873L171.53179479166667,37.81372624336262L171.75422916666668,37.4361997728725L171.8603579861111,37.777195180200636L172.13949131944443,37.40332181602673L172.24125868055555,37.0668357882702L172.31249583333332,36.0832291325201L173.08592777777778,36.55952160388347L173.74160034722223,39.03049252041819L173.89570520833334,37.85052019145331L173.89861284722224,36.788545095384904L174.29114409722223,35.832767508923325L174.872671875,36.33410614264636L175.2826489583333,36.104541682227875L175.31608680555556,35.217164437082005L175.55160555555557,35.09929414721998L175.7071642361111,34.31244165557493L175.79293958333332,33.60427441309437L175.80602395833333,32.96692389486185L175.90924513888888,32.39330842845257L176.01828159722223,31.87705450868424L176.1389486111111,32.77396444243118L176.2538003472222,32.900414152034244L176.4006361111111,32.33344965990773L176.4297125,32.50395084776309L176.54020277777778,31.295863455294494L176.62307048611112,30.889354032841936L176.63906250000002,31.88503401417313L177.25548194444445,31.41960753583274L177.28455833333334,31.00072370532638L177.81374861111112,30.623728257870653L178.10742013888887,30.284432355160533L178.15394236111112,30.659835273490586L178.2324486111111,30.31692866921847L178.36329236111112,30.008312725373543L178.6467871527778,29.73055837591312L178.69185555555558,30.161348692167962L178.77181562500002,29.868290746028066L178.82269930555555,30.96607705604069L178.83723750000001,30.592546273513534L179.12073229166666,30.256368569239072L179.49291006944443,29.953808635392107L179.57287013888887,29.6815046949298L180.1980125,30.797969610052235L180.6763190972222,31.122018802893166L180.76064062499998,31.41366307644998L181.29855381944444,31.676142922651138L181.44975104166667,33.95468247653989L181.47010451388888,36.005368075039684L181.49772708333333,35.8086774213819L181.55733368055556,34.95088660232062L181.57768715277777,34.17887486516548L181.59949444444445,33.48406430172585L181.61839409722222,34.22027325616864L181.67509305555555,33.5213228536287L181.8640895833333,33.57303672211199L182.1141465277778,33.61957920374692L182.3598420138889,33.66146743721839L182.6157142361111,37.103013001188856L182.749465625,36.79655785491613L182.85414062499999,36.52074822327063L182.87449409722223,36.27251955478977L183.48800590277776,35.3683445223877L183.57087361111113,35.2353562239951L183.74969340277778,34.43489752467249L184.005565625,33.71448469528215L184.15094756944444,33.06611314883088L184.3006909722222,31.801809526255454L184.78626666666665,32.02547472747608L185.74724131944444,31.886388793190036L185.80539409722223,31.420826836947953L185.8533701388889,31.00182107633006L186.12087291666668,30.96510050715858L186.7431076388889,30.591667379519635L186.94228090277778,31.617116026183055L187.6866364583333,31.17848134664169L187.8959864583333,31.12409475043907L187.89744027777778,31.07514681385669L187.98176180555555,31.37147828631717L188.27252569444443,31.638176611531605L188.38737743055555,31.197435873455362L188.7392017361111,30.80076920918674L189.08957222222222,30.443769211345L189.2756611111111,29.441699982518173L189.32363715277776,29.220606907343296L189.44285034722222,29.021623139685886L189.605678125,29.523306979563444L189.69290729166667,29.29405320468402L189.84991979166668,29.087724807292545L189.90225729166667,29.58279848040945L189.92987986111112,30.028364786214667L190.06944652777779,29.74860523067011L190.73384201388888,29.496821630680017L190.7934486111111,29.95098562145816L190.92138472222223,30.359733213158506L191.24413263888889,30.046836814919573L191.4665670138889,29.76523005650455L191.7413388888889,29.511783973931017L191.78204583333334,29.96445173038404L192.588915625,30.371852711191792L192.8709565972222,30.05774436314951L192.92765555555556,29.77504684991149L193.216965625,30.201388318766504L193.82756979166666,31.265864871505215L194.03255833333336,31.089278661360396L194.21573958333332,30.703427718301327L194.4367201388889,31.036931100317304L194.78418298611112,31.33708414413175L195.23777465277777,30.92645265279546L195.4805625,30.556884310592864L195.49219305555553,30.22427280261047L196.00539131944444,29.924922445426375L196.4066454861111,30.336276354729875L196.48369791666667,30.02572564233381L197.00271145833335,30.42699923194658L197.02015729166666,30.788145462598067L197.37925069444444,30.7727924547998L197.38942743055557,30.758974747781338L197.54353229166668,30.406154196080166L197.77759722222223,30.088615699549052L197.90844097222222,29.80283105267108L198.37947847222222,29.54562487048088L198.6280815972222,29.31413930650973L198.69931875,29.105802298935657L198.7545638888889,29.599068222888263L198.80399375000002,30.04300755444558L198.85923888888888,29.761783722077922L198.9159378472222,29.508682272947084L199.08458090277776,29.96166019949851L199.14127986111112,29.688571102625588L199.19797881944444,29.44279091543993L199.21833229166666,29.221588746972884L199.24304722222223,30.38404525689097L199.4000597222222,30.749486885048043L199.42913611111112,30.397615119620156L199.47856597222224,31.44246899227349L200.09789305555557,31.021299016123123L200.37411875,31.323015268356926L200.54276180555556,30.913790664598167L200.86260208333331,31.22625775198452L200.90476284722223,30.82670889986298L201.57497361111112,31.82865339449205L201.94860520833333,31.368864978119802L201.99076597222222,30.955055403384733L202.07944895833333,30.582626786123143L202.52141006944444,30.247441030587765L202.7656517361111,30.626543081375132L203.50564583333332,30.967734927083796L203.52745312500002,29.913269126683076L203.9592375,29.645019137091708L204.77773784722223,30.08436337722867L204.8649670138889,29.79900396258273L205.26912881944446,30.90371895093986L205.27058263888887,31.897962440461242L205.4319565972222,31.43124311949208L205.47266354166666,31.691964961388976L205.51627812499999,32.6073838498655L205.57588472222224,32.75049161872511L205.7445277777778,32.19851937992951L206.20393472222221,31.701744365013468L206.26499513888888,31.935416082358245L206.31733263888887,31.46495139719937L206.74184791666667,31.38191779594098L206.78691631944446,32.328341400962245L207.21288541666667,32.499353414712175L207.348090625,31.972494996317863L207.36553645833334,31.498322419763014L207.5181875,31.752336331632847L207.99649409722224,31.300179621546476L208.69723506944445,31.574007813237984L208.78301041666666,31.139683954991114L208.81790208333334,30.748792482568945L208.865878125,30.396990157388956L209.50119722222223,30.761137295496212L209.59714930555555,31.08886971979277L209.63785625,31.383828901659626L209.66984027777775,31.6492921653398L210.1248857638889,31.20743987188274L210.38511944444443,34.213618961617556L210.45635659722222,34.19610321930193L210.46071805555556,34.18033905121791L210.47671006944447,33.485382069173056L210.540678125,32.85992078533266L210.8677875,32.97777486064555L211.22688090277776,32.40307429765792L212.90458854166667,32.22622840635361L213.13574583333335,33.08822095033369L213.25786666666664,32.5024757783772L213.61841388888888,31.97530512361641L213.69546631944445,31.500851534331673L213.8539326388889,31.07384330397545L214.047290625,30.68953589665483L214.31479340277778,30.343659230066265L214.50088229166667,30.71313946090578L214.57793472222224,30.364902437892113L214.6389951388889,29.370719886410626L214.79746145833332,29.15672482084645L214.80763819444445,28.964129261838764L214.85416041666664,28.79079325873178L214.9006826388889,28.634790855935506L214.989365625,28.494388693418927L215.015534375,28.36802674715392L215.329559375,28.25430099551548L215.60869270833334,28.151947819040828L215.75988993055554,28.05982996021362L215.85002673611112,27.97692388726921L216.10299131944444,27.902308421619182L216.4053857638889,27.83515450253421L216.83280868055556,27.77471597535768L216.89096145833332,27.72032130089886L217.082865625,27.671366093885894L217.19626354166667,29.669614099881926L217.2108017361111,31.46803730527833L217.22824756944445,31.04431049782744L217.23987812500002,30.662956371121595L217.28058506944444,30.319737657086364L217.3503684027778,30.691610045223882L217.41288263888887,31.02629519454763L217.59751770833333,30.646742598169794L217.8184982638889,30.98591449219893L217.96533402777777,30.61039996605598L218.17323020833334,30.27243689252731L218.17759166666667,29.968270126351484L218.31425069444444,30.375289267562465L218.53377743055557,30.741606494652387L219.09640555555555,30.39052276826405L219.1400201388889,30.755316645283813L219.18654236111112,31.083631134601603L219.42060729166667,30.69834494421832L219.50783645833334,30.35158737287341L219.54418194444446,30.039505558663024L220.2420152777778,29.75863192587363L220.25800729166667,29.505845656363164L220.5167871527778,29.27833801380379L220.550225,30.435119597038806L220.59529340277777,30.11468456041183L220.80173576388887,29.826293027447576L220.8220892361111,29.56674064777974L221.7176420138889,30.013912736847885L221.96479131944443,29.735598386240042L222.3137079861111,29.485115470692932L222.3369690972222,29.259680846700576L222.53323472222223,29.056789685107447L222.735315625,28.874187639673607L222.89814340277778,29.05023041416777L223.15692326388887,29.549053526597163L223.20344548611112,29.317225097014358L223.3081204861111,29.789348741159074L223.68611354166666,30.2142600208893L223.89982500000002,29.915910941877314L224.436284375,29.647396770766505L224.4551840277778,29.405734016766758L224.57875868055555,29.188237538166987L224.82736180555557,28.99249070742721L225.09486458333333,28.81631855976144L225.12830243055555,28.65776362686219L225.13557152777778,28.515064187252904L225.16464791666667,28.38663469160454L225.31875277777777,28.951817376290222L225.81886666666668,28.779712561738137L226.23756666666668,28.62481822864126L226.61119826388887,29.16618255962328L227.10113541666666,28.972641226737892L227.20435659722224,29.479223257910235L227.3177545138889,29.25437785519614L227.4689517361111,29.052016992753437L227.7757076388889,28.86989221655503L227.7829767361111,28.705979917976435L227.80478402777777,28.558458849255743L228.28454444444444,28.42568988740709L228.3310666666667,28.306197821743268L228.61746909722223,28.19865496264586L228.95184756944445,28.101866389458195L229.07251458333332,28.014756673589318L229.10013715277776,27.93635792930729L229.24988055555554,28.546568290222723L229.3327482638889,28.414988384277365L229.65549618055556,28.97733569969577L229.93172187500002,28.802679052803114L230.350421875,30.007026532138212L230.39112881944445,29.729400802001294L230.51615729166667,29.479537644878093L231.0700625,29.93543003423642L231.1020465277778,29.664963953889696L231.53383090277777,29.421544481577627L231.74463472222223,29.202466956496778L231.81151041666666,29.686066414693272L232.57621944444443,29.440536696300853L232.63437222222223,29.21955994974769L232.6460027777778,29.020680877849856L232.67798680555555,28.84168971314179L232.692525,28.680597664904525L232.80301527777777,29.216384052260224L232.8524451388889,29.01782257011112L232.97892743055556,28.839117236176946L233.02399583333332,28.678282435636163L233.70292951388888,29.21430034591873L233.96025555555556,29.696716465172983L234.0503923611111,29.450121741732602L234.38913229166667,29.22818649063626L234.39785520833334,29.02844476464955L235.27886979166666,29.18906182664614L235.3064923611111,28.993232567058413L235.3588298611111,29.497755464198775L235.4998503472222,29.271056840855834L235.7804375,29.067028079847148L235.80515243055555,28.88340219493935L235.80660625000002,28.71813889852234L235.8909277777778,28.569401931747024L236.2412982638889,29.797077123187705L236.2936357638889,29.54044633394585L236.6120222222222,29.99024785439741L236.81701076388887,29.714299992034597L237.24443368055557,29.465946915908063L237.47122951388891,29.92319837816339L237.67912569444445,29.653955463424012L237.80415416666665,30.09240607092775L237.81869236111112,30.487011617681105L238.02368090277778,30.842156609759144L238.08910277777778,30.481017871860132L238.1254482638889,31.063685592449076L238.3086295138889,30.680393956281108L238.410396875,31.016200714499178L238.6560923611111,30.637657566126137L238.75640590277777,30.296968732590443L238.84218124999998,31.351887243946777L239.01518576388887,30.939775442629042L239.195459375,30.568874821443046L239.22598958333333,30.575448877760294L240.2887315972222,30.24098091306118L240.77139965277777,29.93995974483201L240.78739166666668,29.66904069342573L240.91532777777778,30.105982777929256L240.9720267361111,29.81846142321328L241.03163333333333,29.559692203968893L241.0374486111111,29.326799906648915" style="fill: none;" fill="none"></path></g></g></g></g><g opacity="0.2"><g><g><g><path stroke="rgb(255, 112, 67)" stroke-width="2px" d="M29.138903125000002,163.3846153846154L29.320630555555557,163.3846153846154L29.41076736111111,163.3846153846154L29.766953125,163.3846153846154L29.857089930555556,163.3846153846154L29.919604166666666,163.3846153846154L29.92978090277778,163.3846153846154L29.999564236111112,163.3846153846154L30.01846388888889,163.3846153846154L30.115869791666665,163.3846153846154L30.252528819444446,163.3846153846154L30.552015625000003,163.3846153846154L31.015784027777777,149.76923076923077L31.09138263888889,149.76923076923077L31.101559375,149.76923076923077L31.165527430555557,149.76923076923077L31.53625138888889,142.96153846153845L31.598765625,149.76923076923077L31.60312708333333,149.76923076923077L31.806661805555553,149.76923076923077L31.86481458333333,149.76923076923077L32.03781909722222,142.96153846153845L32.431804166666666,149.76923076923077L32.55101736111111,149.76923076923077L32.69058402777778,149.76923076923077L32.692037847222224,149.76923076923077L32.981347916666664,149.76923076923077L33.49454618055555,142.96153846153845L33.77367951388889,149.76923076923077L33.796940625,142.96153846153845L33.88271597222222,142.96153846153845L34.33776145833333,149.76923076923077L34.340669097222225,149.76923076923077L34.413360069444444,149.76923076923077L34.516581249999994,149.76923076923077L34.63288680555555,149.76923076923077L34.82915243055555,149.76923076923077L35.35398125,129.34615384615384L35.47464826388889,149.76923076923077L35.608399652777784,149.76923076923077L35.63311458333333,149.76923076923077L35.875902430555556,149.76923076923077L36.03873020833333,136.15384615384616L36.30477916666666,129.34615384615384L36.54175173611111,136.15384615384616L36.84850763888889,142.96153846153845L36.868861111111116,142.96153846153845L37.39805138888889,142.96153846153845L37.60303993055556,136.15384615384616L37.665554166666666,142.96153846153845L37.78622118055555,142.96153846153845L38.09152326388889,122.53846153846153L38.119145833333334,142.96153846153845L38.63525173611111,136.15384615384616L38.81697916666667,115.73076923076923L38.834425,149.76923076923077L39.042321180555554,136.15384615384616L39.20514895833333,136.15384615384616L39.47992083333334,136.15384615384616L39.80993784722222,149.76923076923077L39.92333576388889,142.96153846153845L39.92769722222222,142.96153846153845L39.997480555555555,129.34615384615384L40.414726736111106,142.96153846153845L40.46561041666667,142.96153846153845L40.80435034722222,122.53846153846153L40.97008576388889,142.96153846153845L41.02969236111111,142.96153846153845L41.236134722222225,142.96153846153845L41.43240034722223,142.96153846153845L41.44693854166666,142.96153846153845L41.58214375,149.76923076923077L41.98485173611111,142.96153846153845L42.06771944444445,142.96153846153845L42.540210763888886,136.15384615384616L42.84260520833334,142.96153846153845L42.96763368055556,142.96153846153845L42.986533333333334,142.96153846153845L43.17698368055556,142.96153846153845L44.017291319444446,142.96153846153845L44.196111111111115,149.76923076923077L44.312416666666664,149.76923076923077L44.374930902777784,88.5L44.49850555555555,129.34615384615384L44.75001631944444,142.96153846153845L44.92738229166667,142.96153846153845L44.931743749999995,142.96153846153845L45.02042673611111,122.53846153846153L45.098932986111116,122.53846153846153L45.21814618055556,136.15384615384616L45.843288541666666,142.96153846153845L45.89271840277778,136.15384615384616L46.06572291666667,129.34615384615384L46.17330555555555,108.92307692307692L46.47860763888889,142.96153846153845L46.485876736111116,142.96153846153845L46.76210243055555,136.15384615384616L46.945283680555555,149.76923076923077L47.79867569444444,142.96153846153845L48.026925347222225,115.73076923076923L48.06617847222222,115.73076923076923L48.771280902777775,142.96153846153845L48.845425694444444,142.96153846153845L48.87886354166667,142.96153846153845L49.15508923611111,122.53846153846153L49.75260902777778,149.76923076923077L49.85873784722222,129.34615384615384L49.92270590277778,129.34615384615384L50.08117222222222,149.76923076923077L50.358851736111106,142.96153846153845L50.40246631944444,142.96153846153845L50.56384027777778,129.34615384615384L50.70049930555555,149.76923076923077L51.57279097222222,136.15384615384616L51.62222083333334,136.15384615384616L51.99585243055556,115.73076923076923L52.507596875,142.96153846153845L52.80562986111111,115.73076923076923L53.51509375,149.76923076923077L53.58487708333334,142.96153846153845L53.88872534722222,149.76923076923077L53.93379375,136.15384615384616L54.25363402777778,142.96153846153845L54.28561805555555,142.96153846153845L54.58219722222222,115.73076923076923L54.602550694444446,108.92307692307692L55.90226527777777,88.5L56.86905520833333,108.92307692307692L56.94610763888889,136.15384615384616L57.47239027777778,108.92307692307692L57.63085659722222,88.5L57.651210069444446,88.5L57.763154166666666,81.6923076923077L58.1469625,112.32692307692308L58.23128402777778,122.53846153846153L58.24436840277778,122.53846153846153L58.35485868055555,81.6923076923077L58.50896354166667,95.3076923076923L58.52059409722222,122.53846153846153L58.62381527777778,115.73076923076923L58.79391215277778,88.5L58.937840277777774,81.6923076923077L58.99453923611111,81.6923076923077L59.28675694444445,68.07692307692307L59.29111840277778,68.07692307692307L59.39724722222222,61.269230769230774L59.724356597222226,102.11538461538461L59.81740104166666,54.46153846153847L59.94533715277778,115.73076923076923L60.07181944444445,88.5L60.36839861111111,95.3076923076923L60.840889930555555,81.6923076923077L61.41805625,81.6923076923077L61.541630902777776,95.3076923076923L61.58233784722222,95.3076923076923L61.74807326388889,102.11538461538461L62.71631701388889,68.07692307692307L62.73085520833333,61.269230769230774L62.79482326388889,102.11538461538461L62.83262256944444,115.73076923076923L62.93148229166666,88.5L63.040518750000004,81.6923076923077L63.136470833333334,81.6923076923077L63.300752430555555,61.269230769230774L63.48974895833334,74.88461538461539L63.50574097222222,74.88461538461539L63.53481736111111,74.88461538461539L63.87937256944444,47.65384615384616L64.18322083333334,81.6923076923077L64.37948645833333,61.269230769230774L64.38239409722223,61.269230769230774L64.43763923611111,115.73076923076923L64.87233125,115.73076923076923L65.01480555555555,54.46153846153847L65.02643611111111,74.88461538461539L65.27940069444445,47.65384615384616L65.3273767361111,81.6923076923077L65.79114513888888,54.46153846153847L65.905996875,54.46153846153847L65.99177222222222,47.65384615384616L66.60383020833333,61.269230769230774L66.65471388888889,68.07692307692307L66.76229652777776,61.269230769230774L67.31765555555556,54.46153846153847L68.03584236111111,88.5L68.03729618055554,88.5L68.08236458333333,81.6923076923077L68.53741006944445,88.5L68.55485590277777,88.5L68.56212500000001,88.5L68.72931423611111,47.65384615384616L69.06514652777778,88.5L69.20762083333334,61.269230769230774L69.2585045138889,81.6923076923077L69.53036875,68.07692307692307L69.66266631944444,54.46153846153847L70.42156006944444,61.269230769230774L70.57421111111111,40.84615384615384L71.19499201388888,88.5L71.23279131944444,81.6923076923077L71.32874340277777,61.269230769230774L71.53082430555556,88.5L71.6209611111111,68.07692307692307L71.92335555555556,61.269230769230774L71.94661666666666,68.07692307692307L72.12689027777778,81.6923076923077L72.44382291666666,68.07692307692307L72.69969513888888,54.46153846153847L72.73749444444445,54.46153846153847L72.945390625,61.269230769230774L73.16782500000001,47.65384615384616L73.37572118055556,54.46153846153847L73.58216354166667,47.65384615384616L73.71882256944444,74.88461538461539L73.73917604166667,74.88461538461539L74.73649618055555,68.07692307692307L74.7902875,47.65384615384616L75.15810381944445,136.15384615384616L75.42560659722223,68.07692307692307L75.50702048611112,54.46153846153847L75.60588020833333,40.84615384615384L75.90100555555556,115.73076923076923L76.2324763888889,74.88461538461539L76.38803506944444,54.46153846153847L76.55522430555556,61.269230769230774L76.70787534722221,47.65384615384616L76.89977951388889,27.230769230769226L76.91141006944444,68.07692307692307L77.10331423611112,40.84615384615384L77.31702569444445,61.269230769230774L77.44786944444445,61.269230769230774L77.54963680555556,68.07692307692307L77.59906666666666,54.46153846153847L77.63977361111111,102.11538461538461L78.12534930555556,40.84615384615384L78.14279513888889,54.46153846153847L78.17041770833333,68.07692307692307L78.1951326388889,61.269230769230774L78.27363888888888,54.46153846153847L78.32743020833334,64.67307692307693L78.38122152777778,61.269230769230774L78.56004131944445,61.269230769230774L78.71269236111111,88.5L79.03398645833333,61.269230769230774L79.06451666666666,61.269230769230774L79.27095902777778,81.6923076923077L79.37854166666666,74.88461538461539L79.64604444444444,61.269230769230774L80.44564513888889,47.65384615384616L80.47617534722222,47.65384615384616L80.50961319444446,47.65384615384616L80.66371805555555,54.46153846153847L80.79456180555555,54.46153846153847L81.08241805555555,40.84615384615384L81.19581597222222,68.07692307692307L81.34701319444444,68.07692307692307L81.371728125,68.07692307692307L81.46913402777778,54.46153846153847L81.77298229166666,74.88461538461539L81.81514305555555,74.88461538461539L82.3297951388889,88.5L82.37340972222222,61.269230769230774L82.53042222222221,61.269230769230774L82.6510892361111,54.46153846153847L82.73395694444444,88.5L83.16283368055555,74.88461538461539L83.53065,68.07692307692307L83.58007986111112,40.84615384615384L83.97988020833334,51.05769230769231L84.1427079861111,61.269230769230774L84.60211493055556,61.269230769230774L84.96120833333333,74.88461538461539L84.98446944444444,88.5L85.36973159722223,95.3076923076923L85.54418993055555,47.65384615384616L85.74917847222223,54.46153846153847L86.20713159722222,95.3076923076923L86.79738229166666,54.46153846153847L86.83808923611112,47.65384615384616L86.91223402777777,68.07692307692307L87.05325451388889,81.6923076923077L87.09832291666666,68.07692307692307L87.259696875,74.88461538461539L87.66095104166668,74.88461538461539L87.95753020833334,34.03846153846155L88.17124166666666,54.46153846153847L88.19450277777777,81.6923076923077L88.20031805555556,81.6923076923077L88.24829409722223,47.65384615384616L88.27737048611111,74.88461538461539L88.38349930555556,74.88461538461539L88.74259270833333,40.84615384615384L89.039171875,61.269230769230774L89.078425,74.88461538461539L89.18019236111111,88.5L89.46804861111112,68.07692307692307L89.49130972222223,102.11538461538461L90.33307118055556,54.46153846153847L90.79247812499999,74.88461538461539L90.81864687500001,74.88461538461539L91.12394895833333,95.3076923076923L91.56445624999999,54.46153846153847L92.34515729166667,47.65384615384616L92.47454722222223,47.65384615384616L92.52106944444445,47.65384615384616L92.62574444444445,40.84615384615384L92.66499756944445,61.269230769230774L92.67081284722222,61.269230769230774L92.76240347222222,68.07692307692307L93.03572152777778,47.65384615384616L93.15202708333332,40.84615384615384L93.33666215277778,95.3076923076923L93.34683888888888,68.07692307692307L93.41080694444445,68.07692307692307L93.487859375,34.03846153846155L93.8963826388889,40.84615384615384L94.23221493055556,61.269230769230774L94.44738020833333,40.84615384615384L94.9504017361111,47.65384615384616L94.96348611111111,47.65384615384616L95.04053854166668,40.84615384615384L95.23680416666667,68.07692307692307L95.45633090277778,54.46153846153847L96.41585173611111,68.07692307692307L96.43911284722222,68.07692307692307L96.55396458333334,68.07692307692307L96.67899305555557,61.269230769230774L97.75772708333334,74.88461538461539L97.84495625,54.46153846153847L98.25784097222223,40.84615384615384L98.33489340277778,54.46153846153847L98.37996180555557,54.46153846153847L98.43229930555556,108.92307692307692L98.48899826388889,68.07692307692307L98.68962534722222,68.07692307692307L98.78412361111111,40.84615384615384L98.81756145833333,54.46153846153847L98.97166631944445,47.65384615384616L99.12431736111111,68.07692307692307L99.19119305555556,34.03846153846155L99.62006979166667,47.65384615384616L100.08819965277777,108.92307692307692L100.710434375,54.46153846153847L100.82528611111111,37.44230769230771L101.00846736111112,61.269230769230774L101.77753784722222,54.46153846153847L101.85022881944445,54.46153846153847L101.98543402777779,47.65384615384616L102.00869513888888,47.65384615384616L102.05230972222222,54.46153846153847L102.15843854166667,68.07692307692307L102.68326736111112,40.84615384615384L102.95949305555555,40.84615384615384L103.19210416666667,68.07692307692307L103.41744618055556,34.03846153846155L103.55265138888889,61.269230769230774L103.63261145833334,54.46153846153847L104.38278229166666,68.07692307692307L104.39441284722221,68.07692307692307L104.609578125,95.3076923076923L104.67790763888888,54.46153846153847L104.77385972222223,40.84615384615384L105.02100902777778,34.03846153846155L105.10096909722222,61.269230769230774L105.18965208333334,40.84615384615384L105.41790173611112,54.46153846153847L105.66795868055556,27.230769230769226L105.99361423611111,34.03846153846155L106.04159027777777,61.269230769230774L106.26402465277778,54.46153846153847L106.28583194444444,40.84615384615384L106.81066076388888,40.84615384615384L107.15666979166666,47.65384615384616L107.16684652777778,47.65384615384616L107.17266180555555,40.84615384615384L107.17847708333333,40.84615384615384L107.383465625,61.269230769230774L107.44743368055555,47.65384615384616L107.68876770833333,34.03846153846155L107.74110520833334,27.230769230769226L107.7629125,40.84615384615384L107.93446319444445,47.65384615384616L108.58868194444445,47.65384615384616L108.75732500000001,54.46153846153847L108.94632152777777,40.84615384615384L109.01174340277778,54.46153846153847L109.31849930555555,40.84615384615384L109.47260416666667,68.07692307692307L109.82733611111111,61.269230769230774L109.83896666666666,47.65384615384616L110.07448541666668,54.46153846153847L110.15153784722223,81.6923076923077L110.98166875,34.03846153846155L111.22881805555555,47.65384615384616L111.24917152777778,54.46153846153847L111.37565381944445,47.65384615384616L111.6358875,74.88461538461539L111.68386354166667,68.07692307692307L111.94409722222221,44.25L112.38024305555555,68.07692307692307L112.38896597222222,68.07692307692307L112.64919965277777,47.65384615384616L113.05045381944444,61.269230769230774L113.82824722222223,47.65384615384616L114.03905104166667,47.65384615384616L114.20769409722223,88.5L114.33126875,34.03846153846155L114.44466666666668,61.269230769230774L114.48391979166666,61.269230769230774L114.50863472222223,34.03846153846155L115.23699826388888,37.44230769230771L115.30532777777779,34.03846153846155L115.48123993055555,47.65384615384616L115.783634375,40.84615384615384L115.82724895833333,47.65384615384616L116.56724305555555,40.84615384615384L116.57596597222222,54.46153846153847L116.60795,68.07692307692307L116.73879375,54.46153846153847L116.99757361111111,54.46153846153847L117.93819479166666,54.46153846153847L118.05886180555557,61.269230769230774L118.1620829861111,34.03846153846155L118.39760173611111,34.03846153846155L118.53716840277778,47.65384615384616L118.74942604166667,40.84615384615384L119.41672916666666,34.03846153846155L119.53303472222223,40.84615384615384L119.96481909722222,47.65384615384616L120.0098875,54.46153846153847L120.48528645833332,61.269230769230774L120.703359375,40.84615384615384L120.98830798611111,54.46153846153847L121.18893506944444,47.65384615384616L121.29070243055556,34.03846153846155L121.29215625,34.03846153846155L121.41427708333335,40.84615384615384L121.64398055555556,34.03846153846155L121.92602152777778,40.84615384615384L122.10484131944445,34.03846153846155L122.26476145833334,40.84615384615384L122.44939652777778,40.84615384615384L122.86518888888888,61.269230769230774L122.87972708333334,34.03846153846155L123.12106111111112,40.84615384615384L123.41473263888888,40.84615384615384L123.93229236111111,40.84615384615384L124.000621875,40.84615384615384L124.23032534722223,40.84615384615384L124.27539374999999,40.84615384615384L124.44985208333334,34.03846153846155L124.5109125,27.230769230769226L124.60686458333333,81.6923076923077L124.89472083333334,61.269230769230774L125.10116319444445,47.65384615384616L125.46316423611111,47.65384615384616L125.97054722222222,27.230769230769226L126.17408194444444,40.84615384615384L126.408146875,40.84615384615384L126.44885381944444,47.65384615384616L126.51427569444445,47.65384615384616L127.12342604166668,61.269230769230774L127.17285590277778,61.269230769230774L127.22955486111111,40.84615384615384L128.31991944444445,34.03846153846155L128.34608819444443,34.03846153846155L128.48710868055556,27.230769230769226L128.5612534722222,34.03846153846155L128.68192048611112,34.03846153846155L128.79531840277778,27.230769230769226L129.28816319444445,47.65384615384616L129.37393854166666,40.84615384615384L129.6399875,54.46153846153847L129.66034097222223,34.03846153846155L130.05287222222222,61.269230769230774L130.08340243055557,40.84615384615384L130.43668055555557,74.88461538461539L130.55153229166666,61.269230769230774L130.72162916666667,40.84615384615384L131.51686840277776,27.230769230769226L131.68841909722224,34.03846153846155L131.79890937500002,40.84615384615384L132.1754486111111,27.230769230769226L132.2932079861111,34.03846153846155L132.92125798611113,40.84615384615384L133.1044392361111,47.65384615384616L133.14223854166667,71.48076923076923L133.31088159722222,27.230769230769226L133.53476979166666,54.46153846153847L133.61618368055557,34.03846153846155L133.6903284722222,54.46153846153847L133.72231250000002,34.03846153846155L133.77028854166667,27.230769230769226L133.8066340277778,40.84615384615384L134.18462708333334,27.230769230769226L134.1875347222222,27.230769230769226L134.33582430555558,40.84615384615384L134.3401857638889,40.84615384615384L134.56407395833332,47.65384615384616L134.80395416666667,34.03846153846155L135.02202708333334,40.84615384615384L135.21974652777777,27.230769230769226L135.46689583333335,47.65384615384616L135.66897673611112,27.230769230769226L136.35372569444445,40.84615384615384L136.36099479166666,40.84615384615384L136.42932430555558,34.03846153846155L136.51655347222223,40.84615384615384L136.54999131944444,40.84615384615384L136.93234583333333,54.46153846153847L136.94252256944446,40.84615384615384L137.97037291666666,54.46153846153847L138.36290416666668,40.84615384615384L138.79614236111112,27.230769230769226L138.8223111111111,27.230769230769226L138.9386166666667,34.03846153846155L139.4634454861111,40.84615384615384L139.649534375,34.03846153846155L139.7120486111111,40.84615384615384L139.88505312499998,40.84615384615384L140.19471666666666,27.230769230769226L140.26886145833333,27.230769230769226L140.47821145833333,34.03846153846155L140.54654097222223,40.84615384615384L140.71663784722222,40.84615384615384L140.8852809027778,47.65384615384616L140.89545763888887,47.65384615384616L141.30979618055557,34.03846153846155L141.49297743055556,27.230769230769226L141.7924642361111,47.65384615384616L142.187903125,54.46153846153847L142.33183125000002,47.65384615384616L142.672025,40.84615384615384L142.77815381944444,34.03846153846155L142.86102152777778,34.03846153846155L143.60246944444444,61.269230769230774L143.70132916666668,34.03846153846155L143.81327326388887,27.230769230769226L143.8336267361111,27.230769230769226L143.89032569444444,40.84615384615384L143.93684791666666,34.03846153846155L144.37880902777778,27.230769230769226L144.53727534722222,27.230769230769226L144.79750902777778,40.84615384615384L145.11008020833333,40.84615384615384L145.34705277777778,74.88461538461539L145.380490625,27.230769230769226L145.42846666666665,44.25L145.43428194444445,34.03846153846155L145.52878020833333,27.230769230769226L145.6232784722222,34.03846153846155L145.95038784722223,61.269230769230774L145.9736489583333,34.03846153846155L146.18299895833334,34.03846153846155L146.2207982638889,34.03846153846155L146.27458958333332,34.03846153846155L146.83140243055556,34.03846153846155L146.859025,34.03846153846155L147.0073145833333,40.84615384615384L147.3911229166667,34.03846153846155L147.5554045138889,47.65384615384616L147.60628819444443,40.84615384615384L148.22125381944446,27.230769230769226L149.3610482638889,47.65384615384616L149.410478125,27.230769230769226L149.5253298611111,47.65384615384616L149.85389305555555,34.03846153846155L149.92949166666665,40.84615384615384L150.13302638888888,34.03846153846155L150.48630451388888,27.230769230769226L150.8526670138889,47.65384615384616L151.08673194444444,34.03846153846155L151.43855625,40.84615384615384L151.48507847222223,47.65384615384616L151.77148090277777,40.84615384615384L151.79328819444444,34.03846153846155L152.07242152777778,74.88461538461539L152.19599618055554,34.03846153846155L152.27450243055557,34.03846153846155L152.38790034722223,61.269230769230774L152.681571875,27.230769230769226L152.72809409722223,40.84615384615384L152.78188541666665,40.84615384615384L152.8981909722222,34.03846153846155L153.11771770833332,40.84615384615384L153.3910357638889,27.230769230769226L153.43610416666667,47.65384615384616L153.48408020833332,34.03846153846155L153.64981562499997,27.230769230769226L153.74140625,61.269230769230774L154.08450763888888,34.03846153846155L154.12666840277777,34.03846153846155L154.76344131944444,34.03846153846155L155.24029409722223,40.84615384615384L155.25919375,40.84615384615384L155.32606944444444,34.03846153846155L155.36386875,27.230769230769226L155.57176493055556,40.84615384615384L156.13148541666666,34.03846153846155L156.214353125,34.03846153846155L156.3684579861111,61.269230769230774L156.46295625,40.84615384615384L156.528378125,40.84615384615384L156.76535069444444,40.84615384615384L157.21312708333335,54.46153846153847L157.65508819444443,68.07692307692307L157.993828125,34.03846153846155L158.1988166666667,34.03846153846155L158.84867395833334,40.84615384615384L158.9722486111111,27.230769230769226L158.9955097222222,27.230769230769226L159.55086875,34.03846153846155L159.57558368055555,40.84615384615384L159.76458020833334,27.230769230769226L159.88233958333333,27.230769230769226L159.9724763888889,34.03846153846155L160.26614791666668,34.03846153846155L160.57581145833333,34.03846153846155L161.48299479166667,54.46153846153847L161.51207118055558,40.84615384615384L161.8115579861111,27.230769230769226L162.06452256944445,34.03846153846155L162.28259548611112,27.230769230769226L162.311671875,27.230769230769226L162.31603333333334,27.230769230769226L162.4396079861111,27.230769230769226L162.44396944444443,27.230769230769226L162.96589062500001,34.03846153846155L163.00368993055554,34.03846153846155L163.88906597222223,34.03846153846155L163.97484131944444,27.230769230769226L163.97774895833334,27.230769230769226L164.0228173611111,27.230769230769226L164.46623229166664,34.03846153846155L164.60725277777777,40.84615384615384L164.96779999999998,27.230769230769226L165.5929423611111,27.230769230769226L166.28932187499998,27.230769230769226L166.35328993055555,27.230769230769226L166.51611770833333,34.03846153846155L166.87666493055556,27.230769230769226L167.0322236111111,34.03846153846155L167.2735576388889,40.84615384615384L167.45819270833334,34.03846153846155L167.65736597222224,54.46153846153847L167.7387798611111,27.230769230769226L167.78530208333333,27.230769230769226L167.88852326388889,34.03846153846155L168.44097465277778,34.03846153846155L168.57036458333334,23.826923076923066L168.60380243055553,34.03846153846155L169.0821090277778,27.230769230769226L169.4223027777778,34.03846153846155L169.51680104166667,34.03846153846155L170.12449756944446,37.44230769230771L170.32512465277776,34.03846153846155L170.42689201388887,68.07692307692307L170.528659375,27.230769230769226L170.70311770833334,54.46153846153847L170.7670857638889,40.84615384615384L170.96480520833333,68.07692307692307L171.04767291666664,40.84615384615384L171.1770628472222,34.03846153846155L171.25556909722224,34.03846153846155L171.37187465277776,34.03846153846155L171.53179479166667,27.230769230769226L171.75422916666668,34.03846153846155L171.8603579861111,40.84615384615384L172.13949131944443,34.03846153846155L172.24125868055555,34.03846153846155L172.31249583333332,27.230769230769226L173.08592777777778,40.84615384615384L173.74160034722223,61.269230769230774L173.89570520833334,27.230769230769226L173.89861284722224,27.230769230769226L174.29114409722223,27.230769230769226L174.872671875,40.84615384615384L175.2826489583333,34.03846153846155L175.31608680555556,27.230769230769226L175.55160555555557,34.03846153846155L175.7071642361111,27.230769230769226L175.79293958333332,27.230769230769226L175.80602395833333,27.230769230769226L175.90924513888888,27.230769230769226L176.01828159722223,27.230769230769226L176.1389486111111,40.84615384615384L176.2538003472222,34.03846153846155L176.4006361111111,27.230769230769226L176.4297125,34.03846153846155L176.54020277777778,20.423076923076934L176.62307048611112,27.230769230769226L176.63906250000002,40.84615384615384L177.25548194444445,27.230769230769226L177.28455833333334,27.230769230769226L177.81374861111112,27.230769230769226L178.10742013888887,27.230769230769226L178.15394236111112,34.03846153846155L178.2324486111111,27.230769230769226L178.36329236111112,27.230769230769226L178.6467871527778,27.230769230769226L178.69185555555558,34.03846153846155L178.77181562500002,27.230769230769226L178.82269930555555,40.84615384615384L178.83723750000001,27.230769230769226L179.12073229166666,27.230769230769226L179.49291006944443,27.230769230769226L179.57287013888887,27.230769230769226L180.1980125,40.84615384615384L180.6763190972222,34.03846153846155L180.76064062499998,34.03846153846155L181.29855381944444,34.03846153846155L181.44975104166667,54.46153846153847L181.47010451388888,54.46153846153847L181.49772708333333,34.03846153846155L181.55733368055556,27.230769230769226L181.57768715277777,27.230769230769226L181.59949444444445,27.230769230769226L181.61839409722222,40.84615384615384L181.67509305555555,27.230769230769226L181.8640895833333,34.03846153846155L182.1141465277778,34.03846153846155L182.3598420138889,34.03846153846155L182.6157142361111,68.07692307692307L182.749465625,34.03846153846155L182.85414062499999,34.03846153846155L182.87449409722223,34.03846153846155L183.48800590277776,27.230769230769226L183.57087361111113,34.03846153846155L183.74969340277778,27.230769230769226L184.005565625,27.230769230769226L184.15094756944444,27.230769230769226L184.3006909722222,20.423076923076934L184.78626666666665,34.03846153846155L185.74724131944444,30.634615384615387L185.80539409722223,27.230769230769226L185.8533701388889,27.230769230769226L186.12087291666668,30.634615384615387L186.7431076388889,27.230769230769226L186.94228090277778,40.84615384615384L187.6866364583333,27.230769230769226L187.8959864583333,30.634615384615387L187.89744027777778,30.634615384615387L187.98176180555555,34.03846153846155L188.27252569444443,34.03846153846155L188.38737743055555,27.230769230769226L188.7392017361111,27.230769230769226L189.08957222222222,27.230769230769226L189.2756611111111,20.423076923076934L189.32363715277776,27.230769230769226L189.44285034722222,27.230769230769226L189.605678125,34.03846153846155L189.69290729166667,27.230769230769226L189.84991979166668,27.230769230769226L189.90225729166667,34.03846153846155L189.92987986111112,34.03846153846155L190.06944652777779,27.230769230769226L190.73384201388888,27.230769230769226L190.7934486111111,34.03846153846155L190.92138472222223,34.03846153846155L191.24413263888889,27.230769230769226L191.4665670138889,27.230769230769226L191.7413388888889,27.230769230769226L191.78204583333334,34.03846153846155L192.588915625,34.03846153846155L192.8709565972222,27.230769230769226L192.92765555555556,27.230769230769226L193.216965625,34.03846153846155L193.82756979166666,40.84615384615384L194.03255833333336,29.500002770057108L194.21573958333332,27.230769230769226L194.4367201388889,34.03846153846155L194.78418298611112,34.03846153846155L195.23777465277777,27.230769230769226L195.4805625,27.230769230769226L195.49219305555553,27.230769230769226L196.00539131944444,27.230769230769226L196.4066454861111,34.03846153846155L196.48369791666667,27.230769230769226L197.00271145833335,34.03846153846155L197.02015729166666,34.03846153846155L197.37925069444444,30.634615384615387L197.38942743055557,30.634615384615387L197.54353229166668,27.230769230769226L197.77759722222223,27.230769230769226L197.90844097222222,27.230769230769226L198.37947847222222,27.230769230769226L198.6280815972222,27.230769230769226L198.69931875,27.230769230769226L198.7545638888889,34.03846153846155L198.80399375000002,34.03846153846155L198.85923888888888,27.230769230769226L198.9159378472222,27.230769230769226L199.08458090277776,34.03846153846155L199.14127986111112,27.230769230769226L199.19797881944444,27.230769230769226L199.21833229166666,27.230769230769226L199.24304722222223,40.84615384615384L199.4000597222222,34.03846153846155L199.42913611111112,27.230769230769226L199.47856597222224,40.84615384615384L200.09789305555557,27.230769230769226L200.37411875,34.03846153846155L200.54276180555556,27.230769230769226L200.86260208333331,34.03846153846155L200.90476284722223,27.230769230769226L201.57497361111112,40.84615384615384L201.94860520833333,27.230769230769226L201.99076597222222,27.230769230769226L202.07944895833333,27.230769230769226L202.52141006944444,27.230769230769226L202.7656517361111,34.03846153846155L203.50564583333332,34.03846153846155L203.52745312500002,20.423076923076934L203.9592375,27.230769230769226L204.77773784722223,34.03846153846155L204.8649670138889,27.230769230769226L205.26912881944446,40.84615384615384L205.27058263888887,40.84615384615384L205.4319565972222,27.230769230769226L205.47266354166666,34.03846153846155L205.51627812499999,40.84615384615384L205.57588472222224,34.03846153846155L205.7445277777778,27.230769230769226L206.20393472222221,27.230769230769226L206.26499513888888,34.03846153846155L206.31733263888887,27.230769230769226L206.74184791666667,30.634615384615387L206.78691631944446,40.84615384615384L207.21288541666667,34.03846153846155L207.348090625,27.230769230769226L207.36553645833334,27.230769230769226L207.5181875,34.03846153846155L207.99649409722224,27.230769230769226L208.69723506944445,34.03846153846155L208.78301041666666,27.230769230769226L208.81790208333334,27.230769230769226L208.865878125,27.230769230769226L209.50119722222223,34.03846153846155L209.59714930555555,34.03846153846155L209.63785625,34.03846153846155L209.66984027777775,34.03846153846155L210.1248857638889,27.230769230769226L210.38511944444443,61.269230769230774L210.45635659722222,34.03846153846155L210.46071805555556,34.03846153846155L210.47671006944447,27.230769230769226L210.540678125,27.230769230769226L210.8677875,34.03846153846155L211.22688090277776,27.230769230769226L212.90458854166667,30.634615384615387L213.13574583333335,40.84615384615384L213.25786666666664,27.230769230769226L213.61841388888888,27.230769230769226L213.69546631944445,27.230769230769226L213.8539326388889,27.230769230769226L214.047290625,27.230769230769226L214.31479340277778,27.230769230769226L214.50088229166667,34.03846153846155L214.57793472222224,27.230769230769226L214.6389951388889,20.423076923076934L214.79746145833332,27.230769230769226L214.80763819444445,27.230769230769226L214.85416041666664,27.230769230769226L214.9006826388889,27.230769230769226L214.989365625,27.230769230769226L215.015534375,27.230769230769226L215.329559375,27.230769230769226L215.60869270833334,27.230769230769226L215.75988993055554,27.230769230769226L215.85002673611112,27.230769230769226L216.10299131944444,27.230769230769226L216.4053857638889,27.230769230769226L216.83280868055556,27.230769230769226L216.89096145833332,27.230769230769226L217.082865625,27.230769230769226L217.19626354166667,47.65384615384616L217.2108017361111,47.65384615384616L217.22824756944445,27.230769230769226L217.23987812500002,27.230769230769226L217.28058506944444,27.230769230769226L217.3503684027778,34.03846153846155L217.41288263888887,34.03846153846155L217.59751770833333,27.230769230769226L217.8184982638889,34.03846153846155L217.96533402777777,27.230769230769226L218.17323020833334,27.230769230769226L218.17759166666667,27.230769230769226L218.31425069444444,34.03846153846155L218.53377743055557,34.03846153846155L219.09640555555555,27.230769230769226L219.1400201388889,34.03846153846155L219.18654236111112,34.03846153846155L219.42060729166667,27.230769230769226L219.50783645833334,27.230769230769226L219.54418194444446,27.230769230769226L220.2420152777778,27.230769230769226L220.25800729166667,27.230769230769226L220.5167871527778,27.230769230769226L220.550225,40.84615384615384L220.59529340277777,27.230769230769226L220.80173576388887,27.230769230769226L220.8220892361111,27.230769230769226L221.7176420138889,34.03846153846155L221.96479131944443,27.230769230769226L222.3137079861111,27.230769230769226L222.3369690972222,27.230769230769226L222.53323472222223,27.230769230769226L222.735315625,27.230769230769226L222.89814340277778,30.634615384615387L223.15692326388887,34.03846153846155L223.20344548611112,27.230769230769226L223.3081204861111,34.03846153846155L223.68611354166666,34.03846153846155L223.89982500000002,27.230769230769226L224.436284375,27.230769230769226L224.4551840277778,27.230769230769226L224.57875868055555,27.230769230769226L224.82736180555557,27.230769230769226L225.09486458333333,27.230769230769226L225.12830243055555,27.230769230769226L225.13557152777778,27.230769230769226L225.16464791666667,27.230769230769226L225.31875277777777,34.03846153846155L225.81886666666668,27.230769230769226L226.23756666666668,27.230769230769226L226.61119826388887,34.03846153846155L227.10113541666666,27.230769230769226L227.20435659722224,34.03846153846155L227.3177545138889,27.230769230769226L227.4689517361111,27.230769230769226L227.7757076388889,27.230769230769226L227.7829767361111,27.230769230769226L227.80478402777777,27.230769230769226L228.28454444444444,27.230769230769226L228.3310666666667,27.230769230769226L228.61746909722223,27.230769230769226L228.95184756944445,27.230769230769226L229.07251458333332,27.230769230769226L229.10013715277776,27.230769230769226L229.24988055555554,34.03846153846155L229.3327482638889,27.230769230769226L229.65549618055556,34.03846153846155L229.93172187500002,27.230769230769226L230.350421875,40.84615384615384L230.39112881944445,27.230769230769226L230.51615729166667,27.230769230769226L231.0700625,34.03846153846155L231.1020465277778,27.230769230769226L231.53383090277777,27.230769230769226L231.74463472222223,27.230769230769226L231.81151041666666,34.03846153846155L232.57621944444443,27.230769230769226L232.63437222222223,27.230769230769226L232.6460027777778,27.230769230769226L232.67798680555555,27.230769230769226L232.692525,27.230769230769226L232.80301527777777,34.03846153846155L232.8524451388889,27.230769230769226L232.97892743055556,27.230769230769226L233.02399583333332,27.230769230769226L233.70292951388888,34.03846153846155L233.96025555555556,34.03846153846155L234.0503923611111,27.230769230769226L234.38913229166667,27.230769230769226L234.39785520833334,27.230769230769226L235.27886979166666,30.634615384615387L235.3064923611111,27.230769230769226L235.3588298611111,34.03846153846155L235.4998503472222,27.230769230769226L235.7804375,27.230769230769226L235.80515243055555,27.230769230769226L235.80660625000002,27.230769230769226L235.8909277777778,27.230769230769226L236.2412982638889,40.84615384615384L236.2936357638889,27.230769230769226L236.6120222222222,34.03846153846155L236.81701076388887,27.230769230769226L237.24443368055557,27.230769230769226L237.47122951388891,34.03846153846155L237.67912569444445,27.230769230769226L237.80415416666665,34.03846153846155L237.81869236111112,34.03846153846155L238.02368090277778,34.03846153846155L238.08910277777778,27.230769230769226L238.1254482638889,36.3076950777494L238.3086295138889,27.230769230769226L238.410396875,34.03846153846155L238.6560923611111,27.230769230769226L238.75640590277777,27.230769230769226L238.84218124999998,40.84615384615384L239.01518576388887,27.230769230769226L239.195459375,27.230769230769226L239.22598958333333,30.634615384615387L240.2887315972222,27.230769230769226L240.77139965277777,27.230769230769226L240.78739166666668,27.230769230769226L240.91532777777778,34.03846153846155L240.9720267361111,27.230769230769226L241.03163333333333,27.230769230769226L241.0374486111111,27.230769230769226" style="fill: none;" fill="none"></path></g></g></g></g></g></g><g transform="translate(68, 177)" clip-path="url(#clip_1)"><clipPath id="clip_1"><rect width="261" height="23"></rect></clipPath><g><g><line x1="0" y1="0" x2="0" y2="5" style="visibility: inherit;" fill="rgb(0, 0, 0)" stroke="rgb(204, 204, 204)" stroke-width="1px"></line><line x1="29.076388888888886" y1="0" x2="29.076388888888886" y2="5" style="visibility: inherit;" fill="rgb(0, 0, 0)" stroke="rgb(204, 204, 204)" stroke-width="1px"></line><line x1="58.15277777777777" y1="0" x2="58.15277777777777" y2="5" style="visibility: inherit;" fill="rgb(0, 0, 0)" stroke="rgb(204, 204, 204)" stroke-width="1px"></line><line x1="87.22916666666666" y1="0" x2="87.22916666666666" y2="5" style="visibility: inherit;" fill="rgb(0, 0, 0)" stroke="rgb(204, 204, 204)" stroke-width="1px"></line><line x1="116.30555555555554" y1="0" x2="116.30555555555554" y2="5" style="visibility: inherit;" fill="rgb(0, 0, 0)" stroke="rgb(204, 204, 204)" stroke-width="1px"></line><line x1="145.38194444444446" y1="0" x2="145.38194444444446" y2="5" style="visibility: inherit;" fill="rgb(0, 0, 0)" stroke="rgb(204, 204, 204)" stroke-width="1px"></line><line x1="174.45833333333331" y1="0" x2="174.45833333333331" y2="5" style="visibility: inherit;" fill="rgb(0, 0, 0)" stroke="rgb(204, 204, 204)" stroke-width="1px"></line><line x1="203.53472222222223" y1="0" x2="203.53472222222223" y2="5" style="visibility: inherit;" fill="rgb(0, 0, 0)" stroke="rgb(204, 204, 204)" stroke-width="1px"></line><line x1="232.6111111111111" y1="0" x2="232.6111111111111" y2="5" style="visibility: inherit;" fill="rgb(0, 0, 0)" stroke="rgb(204, 204, 204)" stroke-width="1px"></line><line x1="261.6875" y1="0" x2="261.6875" y2="5" style="visibility: inherit;" fill="rgb(0, 0, 0)" stroke="rgb(204, 204, 204)" stroke-width="1px"></line></g><g transform="translate(0, 8)"><text x="0" y="0" dx="0em" dy="0.95em" style="text-anchor: middle; visibility: hidden; font-family: &quot;Helvetica Neue&quot;, sans-serif; font-size: 12px; font-weight: 200;" fill="rgb(50, 49, 63)" stroke="none" stroke-width="1px">-20k</text><text x="29.076388888888886" y="0" dx="0em" dy="0.95em" style="text-anchor: middle; visibility: inherit; font-family: &quot;Helvetica Neue&quot;, sans-serif; font-size: 12px; font-weight: 200;" fill="rgb(50, 49, 63)" stroke="none" stroke-width="1px">0</text><text x="58.15277777777777" y="0" dx="0em" dy="0.95em" style="text-anchor: middle; visibility: hidden; font-family: &quot;Helvetica Neue&quot;, sans-serif; font-size: 12px; font-weight: 200;" fill="rgb(50, 49, 63)" stroke="none" stroke-width="1px">20k</text><text x="87.22916666666666" y="0" dx="0em" dy="0.95em" style="text-anchor: middle; visibility: inherit; font-family: &quot;Helvetica Neue&quot;, sans-serif; font-size: 12px; font-weight: 200;" fill="rgb(50, 49, 63)" stroke="none" stroke-width="1px">40k</text><text x="116.30555555555554" y="0" dx="0em" dy="0.95em" style="text-anchor: middle; visibility: hidden; font-family: &quot;Helvetica Neue&quot;, sans-serif; font-size: 12px; font-weight: 200;" fill="rgb(50, 49, 63)" stroke="none" stroke-width="1px">60k</text><text x="145.38194444444446" y="0" dx="0em" dy="0.95em" style="text-anchor: middle; visibility: inherit; font-family: &quot;Helvetica Neue&quot;, sans-serif; font-size: 12px; font-weight: 200;" fill="rgb(50, 49, 63)" stroke="none" stroke-width="1px">80k</text><text x="174.45833333333331" y="0" dx="0em" dy="0.95em" style="text-anchor: middle; visibility: hidden; font-family: &quot;Helvetica Neue&quot;, sans-serif; font-size: 12px; font-weight: 200;" fill="rgb(50, 49, 63)" stroke="none" stroke-width="1px">100k</text><text x="203.53472222222223" y="0" dx="0em" dy="0.95em" style="text-anchor: middle; visibility: inherit; font-family: &quot;Helvetica Neue&quot;, sans-serif; font-size: 12px; font-weight: 200;" fill="rgb(50, 49, 63)" stroke="none" stroke-width="1px">120k</text><text x="232.6111111111111" y="0" dx="0em" dy="0.95em" style="text-anchor: middle; visibility: hidden; font-family: &quot;Helvetica Neue&quot;, sans-serif; font-size: 12px; font-weight: 200;" fill="rgb(50, 49, 63)" stroke="none" stroke-width="1px">140k</text><text x="261.6875" y="0" dx="0em" dy="0.95em" style="text-anchor: middle; visibility: hidden; font-family: &quot;Helvetica Neue&quot;, sans-serif; font-size: 12px; font-weight: 200;" fill="rgb(50, 49, 63)" stroke="none" stroke-width="1px">160k</text></g><line x1="0" y1="0" x2="261.6875" y2="0" fill="rgb(0, 0, 0)" stroke="rgb(204, 204, 204)" stroke-width="1px"></line></g></g></g></g></svg>