<svg viewBox="0 0 330 200" xmlns="http://www.w3.org/2000/svg"><g><g><g><g><g><line x1="68.3125" y1="177" x2="63.3125" y2="177" style="visibility: inherit;" fill="rgb(0, 0, 0)" stroke="rgb(204, 204, 204)" stroke-width="1px"></line><line x1="68.3125" y1="163.3846153846154" x2="63.3125" y2="163.3846153846154" style="visibility: inherit;" fill="rgb(0, 0, 0)" stroke="rgb(204, 204, 204)" stroke-width="1px"></line><line x1="68.3125" y1="149.76923076923077" x2="63.3125" y2="149.76923076923077" style="visibility: inherit;" fill="rgb(0, 0, 0)" stroke="rgb(204, 204, 204)" stroke-width="1px"></line><line x1="68.3125" y1="136.15384615384616" x2="63.3125" y2="136.15384615384616" style="visibility: inherit;" fill="rgb(0, 0, 0)" stroke="rgb(204, 204, 204)" stroke-width="1px"></line><line x1="68.3125" y1="122.53846153846153" x2="63.3125" y2="122.53846153846153" style="visibility: inherit;" fill="rgb(0, 0, 0)" stroke="rgb(204, 204, 204)" stroke-width="1px"></line><line x1="68.3125" y1="108.92307692307692" x2="63.3125" y2="108.92307692307692" style="visibility: inherit;" fill="rgb(0, 0, 0)" stroke="rgb(204, 204, 204)" stroke-width="1px"></line><line x1="68.3125" y1="95.3076923076923" x2="63.3125" y2="95.3076923076923" style="visibility: inherit;" fill="rgb(0, 0, 0)" stroke="rgb(204, 204, 204)" stroke-width="1px"></line><line x1="68.3125" y1="81.6923076923077" x2="63.3125" y2="81.6923076923077" style="visibility: inherit;" fill="rgb(0, 0, 0)" stroke="rgb(204, 204, 204)" stroke-width="1px"></line><line x1="68.3125" y1="68.07692307692307" x2="63.3125" y2="68.07692307692307" style="visibility: inherit;" fill="rgb(0, 0, 0)" stroke="rgb(204, 204, 204)" stroke-width="1px"></line><line x1="68.3125" y1="54.46153846153847" x2="63.3125" y2="54.46153846153847" style="visibility: inherit;" fill="rgb(0, 0, 0)" stroke="rgb(204, 204, 204)" stroke-width="1px"></line><line x1="68.3125" y1="40.84615384615384" x2="63.3125" y2="40.84615384615384" style="visibility: inherit;" fill="rgb(0, 0, 0)" stroke="rgb(204, 204, 204)" stroke-width="1px"></line><line x1="68.3125" y1="27.230769230769226" x2="63.3125" y2="27.230769230769226" style="visibility: inherit;" fill="rgb(0, 0, 0)" stroke="rgb(204, 204, 204)" stroke-width="1px"></line><line x1="68.3125" y1="13.615384615384613" x2="63.3125" y2="13.615384615384613" style="visibility: inherit;" fill="rgb(0, 0, 0)" stroke="rgb(204, 204, 204)" stroke-width="1px"></line><line x1="68.3125" y1="0" x2="63.3125" y2="0" style="visibility: inherit;" fill="rgb(0, 0, 0)" stroke="rgb(204, 204, 204)" stroke-width="1px"></line></g><g transform="translate(58.3125, 0)"><text x="0" y="177" dx="0em" dy="0.3em" style="text-anchor: end; visibility: hidden; font-family: &quot;Helvetica Neue&quot;, sans-serif; font-size: 12px; font-weight: 200;" fill="rgb(50, 49, 63)" stroke="none" stroke-width="1px">-1e+4</text><text x="0" y="163.3846153846154" dx="0em" dy="0.3em" style="text-anchor: end; visibility: inherit; font-family: &quot;Helvetica Neue&quot;, sans-serif; font-size: 12px; font-weight: 200;" fill="rgb(50, 49, 63)" stroke="none" stroke-width="1px">0</text><text x="0" y="149.76923076923077" dx="0em" dy="0.3em" style="text-anchor: end; visibility: hidden; font-family: &quot;Helvetica Neue&quot;, sans-serif; font-size: 12px; font-weight: 200;" fill="rgb(50, 49, 63)" stroke="none" stroke-width="1px">1e+4</text><text x="0" y="136.15384615384616" dx="0em" dy="0.3em" style="text-anchor: end; visibility: inherit; font-family: &quot;Helvetica Neue&quot;, sans-serif; font-size: 12px; font-weight: 200;" fill="rgb(50, 49, 63)" stroke="none" stroke-width="1px">2e+4</text><text x="0" y="122.53846153846153" dx="0em" dy="0.3em" style="text-anchor: end; visibility: hidden; font-family: &quot;Helvetica Neue&quot;, sans-serif; font-size: 12px; font-weight: 200;" fill="rgb(50, 49, 63)" stroke="none" stroke-width="1px">3e+4</text><text x="0" y="108.92307692307692" dx="0em" dy="0.3em" style="text-anchor: end; visibility: inherit; font-family: &quot;Helvetica Neue&quot;, sans-serif; font-size: 12px; font-weight: 200;" fill="rgb(50, 49, 63)" stroke="none" stroke-width="1px">4e+4</text><text x="0" y="95.3076923076923" dx="0em" dy="0.3em" style="text-anchor: end; visibility: hidden; font-family: &quot;Helvetica Neue&quot;, sans-serif; font-size: 12px; font-weight: 200;" fill="rgb(50, 49, 63)" stroke="none" stroke-width="1px">5e+4</text><text x="0" y="81.6923076923077" dx="0em" dy="0.3em" style="text-anchor: end; visibility: inherit; font-family: &quot;Helvetica Neue&quot;, sans-serif; font-size: 12px; font-weight: 200;" fill="rgb(50, 49, 63)" stroke="none" stroke-width="1px">6e+4</text><text x="0" y="68.07692307692307" dx="0em" dy="0.3em" style="text-anchor: end; visibility: hidden; font-family: &quot;Helvetica Neue&quot;, sans-serif; font-size: 12px; font-weight: 200;" fill="rgb(50, 49, 63)" stroke="none" stroke-width="1px">7e+4</text><text x="0" y="54.46153846153847" dx="0em" dy="0.3em" style="text-anchor: end; visibility: inherit; font-family: &quot;Helvetica Neue&quot;, sans-serif; font-size: 12px; font-weight: 200;" fill="rgb(50, 49, 63)" stroke="none" stroke-width="1px">8e+4</text><text x="0" y="40.84615384615384" dx="0em" dy="0.3em" style="text-anchor: end; visibility: hidden; font-family: &quot;Helvetica Neue&quot;, sans-serif; font-size: 12px; font-weight: 200;" fill="rgb(50, 49, 63)" stroke="none" stroke-width="1px">9e+4</text><text x="0" y="27.230769230769226" dx="0em" dy="0.3em" style="text-anchor: end; visibility: inherit; font-family: &quot;Helvetica Neue&quot;, sans-serif; font-size: 12px; font-weight: 200;" fill="rgb(50, 49, 63)" stroke="none" stroke-width="1px">1e+5</text><text x="0" y="13.615384615384613" dx="0em" dy="0.3em" style="text-anchor: end; visibility: hidden; font-family: &quot;Helvetica Neue&quot;, sans-serif; font-size: 12px; font-weight: 200;" fill="rgb(50, 49, 63)" stroke="none" stroke-width="1px">1.1e+5</text><text x="0" y="0" dx="0em" dy="0.3em" style="text-anchor: end; visibility: hidden; font-family: &quot;Helvetica Neue&quot;, sans-serif; font-size: 12px; font-weight: 200;" fill="rgb(50, 49, 63)" stroke="none" stroke-width="1px">1.2e+5</text></g><line x1="68.3125" y1="0" x2="68.3125" y2="177" fill="rgb(0, 0, 0)" stroke="rgb(204, 204, 204)" stroke-width="1px"></line></g></g><g transform="translate(68, 0)" clip-path="url(#clip_0)"><clipPath id="clip_0"><rect width="261" height="177"></rect></clipPath><g><g><g><line x1="0" y1="0" x2="0" y2="177" fill="rgb(0, 0, 0)" stroke="rgb(60, 60, 60)" stroke-width="1px" opacity="0.25"></line><line x1="29.076388888888886" y1="0" x2="29.076388888888886" y2="177" fill="rgb(0, 0, 0)" stroke="rgb(60, 60, 60)" stroke-width="1px" opacity="0.25"></line><line x1="58.15277777777777" y1="0" x2="58.15277777777777" y2="177" fill="rgb(0, 0, 0)" stroke="rgb(60, 60, 60)" stroke-width="1px" opacity="0.25"></line><line x1="87.22916666666666" y1="0" x2="87.22916666666666" y2="177" fill="rgb(0, 0, 0)" stroke="rgb(60, 60, 60)" stroke-width="1px" opacity="0.25"></line><line x1="116.30555555555554" y1="0" x2="116.30555555555554" y2="177" fill="rgb(0, 0, 0)" stroke="rgb(60, 60, 60)" stroke-width="1px" opacity="0.25"></line><line x1="145.38194444444446" y1="0" x2="145.38194444444446" y2="177" fill="rgb(0, 0, 0)" stroke="rgb(60, 60, 60)" stroke-width="1px" opacity="0.25"></line><line x1="174.45833333333331" y1="0" x2="174.45833333333331" y2="177" fill="rgb(0, 0, 0)" stroke="rgb(60, 60, 60)" stroke-width="1px" opacity="0.25"></line><line x1="203.53472222222223" y1="0" x2="203.53472222222223" y2="177" fill="rgb(0, 0, 0)" stroke="rgb(60, 60, 60)" stroke-width="1px" opacity="0.25"></line><line x1="232.6111111111111" y1="0" x2="232.6111111111111" y2="177" fill="rgb(0, 0, 0)" stroke="rgb(60, 60, 60)" stroke-width="1px" opacity="0.25"></line><line x1="261.6875" y1="0" x2="261.6875" y2="177" fill="rgb(0, 0, 0)" stroke="rgb(60, 60, 60)" stroke-width="1px" opacity="0.25"></line></g><g><line x1="0" y1="177" x2="261.6875" y2="177" fill="rgb(0, 0, 0)" stroke="rgb(60, 60, 60)" stroke-width="1px" opacity="0.25"></line><line x1="0" y1="163.3846153846154" x2="261.6875" y2="163.3846153846154" fill="rgb(0, 0, 0)" stroke="rgb(60, 60, 60)" stroke-width="1px" opacity="0.25"></line><line x1="0" y1="149.76923076923077" x2="261.6875" y2="149.76923076923077" fill="rgb(0, 0, 0)" stroke="rgb(60, 60, 60)" stroke-width="1px" opacity="0.25"></line><line x1="0" y1="136.15384615384616" x2="261.6875" y2="136.15384615384616" fill="rgb(0, 0, 0)" stroke="rgb(60, 60, 60)" stroke-width="1px" opacity="0.25"></line><line x1="0" y1="122.53846153846153" x2="261.6875" y2="122.53846153846153" fill="rgb(0, 0, 0)" stroke="rgb(60, 60, 60)" stroke-width="1px" opacity="0.25"></line><line x1="0" y1="108.92307692307692" x2="261.6875" y2="108.92307692307692" fill="rgb(0, 0, 0)" stroke="rgb(60, 60, 60)" stroke-width="1px" opacity="0.25"></line><line x1="0" y1="95.3076923076923" x2="261.6875" y2="95.3076923076923" fill="rgb(0, 0, 0)" stroke="rgb(60, 60, 60)" stroke-width="1px" opacity="0.25"></line><line x1="0" y1="81.6923076923077" x2="261.6875" y2="81.6923076923077" fill="rgb(0, 0, 0)" stroke="rgb(60, 60, 60)" stroke-width="1px" opacity="0.25"></line><line x1="0" y1="68.07692307692307" x2="261.6875" y2="68.07692307692307" fill="rgb(0, 0, 0)" stroke="rgb(60, 60, 60)" stroke-width="1px" opacity="0.25"></line><line x1="0" y1="54.46153846153847" x2="261.6875" y2="54.46153846153847" fill="rgb(0, 0, 0)" stroke="rgb(60, 60, 60)" stroke-width="1px" opacity="0.25"></line><line x1="0" y1="40.84615384615384" x2="261.6875" y2="40.84615384615384" fill="rgb(0, 0, 0)" stroke="rgb(60, 60, 60)" stroke-width="1px" opacity="0.25"></line><line x1="0" y1="27.230769230769226" x2="261.6875" y2="27.230769230769226" fill="rgb(0, 0, 0)" stroke="rgb(60, 60, 60)" stroke-width="1px" opacity="0.25"></line><line x1="0" y1="13.615384615384613" x2="261.6875" y2="13.615384615384613" fill="rgb(0, 0, 0)" stroke="rgb(60, 60, 60)" stroke-width="1px" opacity="0.25"></line><line x1="0" y1="0" x2="261.6875" y2="0" fill="rgb(0, 0, 0)" stroke="rgb(60, 60, 60)" stroke-width="1px" opacity="0.25"></line></g></g></g><g><g><line x1="0" y1="163.3846153846154" x2="261.6875" y2="163.3846153846154" fill="rgb(0, 0, 0)" stroke="rgb(153, 153, 153)" stroke-width="1.5px"></line></g></g><g><g><line x1="29.076388888888886" y1="0" x2="29.076388888888886" y2="177" fill="rgb(0, 0, 0)" stroke="rgb(153, 153, 153)" stroke-width="1.5px"></line></g></g><g><g><g><g><g><path stroke="rgb(255, 112, 67)" stroke-width="2px" d="M29.138903125000002,157.70087307692307L29.320630555555557,157.18169696356276L29.41076736111111,156.35262343173432L29.766953125,156.7191341657906L29.857089930555556,157.00259030088492L29.919604166666666,155.61808238304937L29.92978090277778,155.8725983360791L29.999564236111112,155.598465698491L30.01846388888889,155.7050722164038L30.115869791666665,155.82283469291366L30.252528819444446,155.9200308779131L30.552015625000003,154.68014941150295L31.015784027777777,154.9512675165596L31.09138263888889,155.14846070227313L31.101559375,154.93845472522273L31.165527430555557,155.0702127404682L31.598765625,155.05952986364238L31.60312708333333,155.05031355946366L31.806661805555553,155.1473210990496L31.86481458333333,155.2472932714127L32.03781909722222,155.4048480435569L32.431804166666666,155.5998000023766L32.55101736111111,155.74488621069463L32.69058402777778,155.785588914952L32.692037847222224,155.82155676344703L32.981347916666664,155.3147397990691L33.49454618055555,155.3403308554365L33.77367951388889,155.41837853033093L33.796940625,155.4830918341133L33.88271597222222,155.4759655596743L34.33776145833333,155.65568489415384L34.340669097222225,155.78252635483594L34.413360069444444,154.46684898461658L34.63288680555555,154.7344506955975L34.82915243055555,154.8741320680005L35.35398125,154.93091265227397L35.47464826388889,154.8710067615902L35.608399652777784,154.67808722753472L35.63311458333333,154.6250177024136L35.875902430555556,154.69710139276125L36.03873020833333,154.547059897672L36.30477916666666,153.3848041681525L36.54175173611111,153.4532777258213L36.84850763888889,153.59917948556105L36.868861111111116,153.71552313397584L37.39805138888889,153.99336175091048L37.60303993055556,154.04197618596095L37.665554166666666,154.18254062699506L37.78622118055555,153.33456377222922L38.09152326388889,153.1717552395037L38.119145833333334,153.36366525514129L38.81697916666667,152.89723196144314L38.834425,150.90074082111377L39.042321180555554,150.09237796275457L39.20514895833333,149.2532487920384L39.47992083333334,149.77505386831226L39.92333576388889,150.09890756130434L39.92769722222222,150.2132396853314L40.414726736111106,149.33041068376275L40.46561041666667,148.257673433961L40.80435034722222,147.35462712385794L40.97008576388889,145.90948859142952L41.02969236111111,144.90415118119952L41.43240034722223,145.64750479840723L41.44693854166666,146.66105519834835L41.58214375,145.74874842102452L41.98485173611111,144.8299954451071L42.06771944444445,145.5579859636583L42.540210763888886,144.79622010388348L42.84260520833334,143.75010646707594L42.96763368055556,143.3330806508058L42.986533333333334,142.84950484939347L43.17698368055556,142.38000683214818L44.196111111111115,141.8245585743203L44.312416666666664,140.80398973355364L44.374930902777784,139.82562189692487L44.49850555555555,139.7737610881086L44.75001631944444,139.77366649224473L44.92738229166667,139.50965113805495L44.931743749999995,138.00622294814198L45.02042673611111,138.40598079499563L45.098932986111116,138.93869390980066L45.21814618055556,139.01885113144766L45.843288541666666,139.39724410372912L45.89271840277778,139.3836056262047L46.06572291666667,139.1270429673491L46.17330555555555,137.76022815206795L46.47860763888889,137.68794700063862L46.485876736111116,137.4991209334382L46.76210243055555,137.69641540792577L46.945283680555555,137.50347756246606L47.79867569444444,137.6853556441459L48.026925347222225,137.33476214858374L48.06617847222222,138.30315856490688L48.845425694444444,136.532862307786L48.87886354166667,135.6702419241164L49.15508923611111,136.0095754800704L49.75260902777778,135.56528567067068L49.85873784722222,133.63760021246762L49.92270590277778,134.01109241938866L50.08117222222222,135.8429192754375L50.358851736111106,134.8694479423794L50.40246631944444,134.54816538860234L50.56384027777778,133.71547664622284L50.70049930555555,133.45908034483472L51.57279097222222,131.24753032328644L51.62222083333334,128.7923060992129L51.99585243055556,128.15615821569676L52.507596875,128.71126426025322L52.80562986111111,126.99520655653777L53.58487708333334,124.38507260630757L53.88872534722222,124.32158794635552L53.93379375,123.35357646229471L54.25363402777778,122.04694472260708L54.28561805555555,121.33907714842175L54.58219722222222,121.60892230018679L54.602550694444446,123.21577795727576L55.90226527777777,123.14014909080603L56.86905520833333,122.95784968147197L56.94610763888889,123.90221237828887L57.47239027777778,125.33188298784998L57.63085659722222,123.25462387098523L57.651210069444446,125.65583944432944L57.763154166666666,124.54582930195494L58.1469625,122.60204728066765L58.23128402777778,121.68849406172617L58.24436840277778,119.5677952262067L58.35485868055555,117.35513493549354L58.50896354166667,117.8778251727925L58.52059409722222,116.16106841480698L58.62381527777778,116.70363673853423L58.79391215277778,115.88160231495709L58.937840277777774,114.18406453622357L58.99453923611111,114.8783132108606L59.28675694444445,116.38228288972354L59.29111840277778,117.73585541070977L59.39724722222222,117.52554360252981L59.724356597222226,119.17828927411949L59.81740104166666,117.98393674878011L59.94533715277778,117.27636279610792L60.07181944444445,119.76781816606082L60.36839861111111,119.92533947647065L60.840889930555555,117.24817860875774L61.41805625,118.41032258569491L61.541630902777776,118.8938004392086L61.58233784722222,120.18669989581298L62.71631701388889,120.22377222088542L62.73085520833333,119.44375409774162L62.79482326388889,118.5041493142828L62.83262256944444,117.6585050363238L62.93148229166666,117.12616369787494L63.040518750000004,117.82914432911232L63.136470833333334,119.62716776794055L63.300752430555555,119.56034867745286L63.48974895833334,118.95137529894394L63.50574097222222,118.40329926763869L63.53481736111111,115.04862142892037L63.87937256944444,113.41436842049546L64.18322083333334,111.77334841449205L64.37948645833333,112.18842436208564L64.38239409722223,112.5619927111556L64.43763923611111,112.93251499282678L64.87233125,113.2079835031293L65.01480555555555,112.87316668079266L65.02643611111111,112.57183154268188L65.27940069444445,110.80389065125995L65.3273767361111,107.70633766926407L65.79114513888888,108.27527699095056L65.905996875,110.43151625480562L65.99177222222222,110.5574730929598L66.60383020833333,108.08445574662166L66.65471388888889,107.51668554892096L66.76229652777776,106.77096313882747L67.31765555555556,108.32238838034681L68.03584236111111,106.59189798684434L68.03729618055554,106.81997819017721L68.55485590277777,105.48194651435465L68.56212500000001,104.27771800813802L69.06514652777778,101.99657542338518L69.20762083333334,100.54248787260862L69.2585045138889,98.2736521504214L69.53036875,96.17914461784187L69.66266631944444,95.95543707818825L70.42156006944444,95.15543182886199L70.57421111111111,95.83250172521892L71.19499201388888,95.900244629829L71.23279131944444,94.15254554661067L71.32874340277777,94.8849733014715L71.53082430555556,94.37364366248248L71.6209611111111,91.09451775113777L71.92335555555556,90.31264366690787L71.94661666666666,89.60895699137149L72.12689027777778,90.26964513936272L72.44382291666666,89.08058100846331L72.69969513888888,90.64983367872267L72.73749444444445,90.43539492600442L72.945390625,90.08827389460652L73.16782500000001,89.05724496578631L73.37572118055556,90.87962662448237L73.58216354166667,89.41709626869462L73.71882256944444,88.57300048744304L73.73917604166667,87.81331428441845L74.73649618055555,91.67386747334676L74.7902875,94.66746995816702L75.15810381944445,94.14221834674689L75.42560659722223,92.21713881904273L75.50702048611112,92.8221926296503L75.60588020833333,92.38044259732035L75.90100555555556,91.46017295272138L76.2324763888889,92.49505950385768L76.38803506944444,95.55154663107167L76.55522430555556,101.46074581529581L76.70787534722221,100.55870046437369L76.89977951388889,100.62232887948505L76.91141006944444,100.67959445308333L77.10331423611112,99.01314423832635L77.31702569444445,99.15508212220273L77.44786944444445,98.71833237147466L77.59906666666666,97.13159682648367L77.63977361111111,95.06973868211999L78.12534930555556,94.2281401984584L78.14279513888889,93.47070156317533L78.17041770833333,93.18820986837858L78.1951326388889,92.93396734306488L78.27363888888888,92.87112060875519L78.32743020833334,94.33321854794633L78.38122152777778,92.30135592383756L78.56004131944445,90.6055657160066L79.03398645833333,89.41048068282774L79.06451666666666,91.47039107614505L79.27095902777778,90.72295504543351L79.37854166666666,92.74529184863144L79.64604444444444,94.45769727919026L80.44564513888889,92.8372337050856L80.47617534722222,91.37881648839743L80.50961319444446,90.62910099339193L80.66371805555555,88.28960397094235L80.79456180555555,87.14734511229494L81.08241805555555,88.62195598569792L81.19581597222222,90.64988961791852L81.34701319444444,92.87014834845519L81.371728125,94.59729889823964L81.46913402777778,95.7732267007323L81.77298229166666,96.96172479989796L81.81514305555555,94.46904385835437L82.3297951388889,92.71660178020153L82.37340972222222,91.13940390986582L82.53042222222221,89.46531813425635L82.6510892361111,88.63505324390428L82.73395694444444,87.18512484258551L83.16283368055555,86.17278389678518L83.58007986111112,84.38797781479373L83.97988020833334,83.58264541792758L84.1427079861111,82.64027241459411L84.60211493055556,84.31710978852293L84.96120833333333,83.58449034813076L84.98446944444444,82.15150669793059L85.36973159722223,84.38180679737178L85.54418993055555,84.46733342532701L85.74917847222223,81.05475239048229L86.20713159722222,82.92744792066698L86.79738229166666,84.72683466706367L86.91223402777777,87.05509966189793L87.05325451388889,87.3324758495545L87.09832291666666,86.83217903382945L87.259696875,87.11455574583131L87.66095104166668,85.35212017124711L87.95753020833334,83.21287123104432L88.19450277777777,84.16148256947879L88.20031805555556,85.01523277406977L88.24829409722223,85.13728565050899L88.27737048611111,83.49728400853444L88.38349930555556,82.84542176152695L88.74259270833333,82.58810189306648L89.039171875,81.0042340114517L89.078425,79.57875291799853L89.18019236111111,78.56867224158306L89.46804861111112,77.00687809434753L89.49130972222223,75.60126336183563L90.33307118055556,74.35717779488265L90.79247812499999,73.92984309231741L90.81864687500001,72.43667724462394L91.12394895833333,73.41125567400782L92.34515729166667,80.76821010660778L92.47454722222223,84.03913140363962L92.52106944444445,87.13463595558359L92.62574444444445,86.91281543694828L92.66499756944445,85.47145389325337L92.67081284722222,84.17422850392796L92.76240347222222,82.12826103815044L93.03572152777778,85.2630410881817L93.15202708333332,82.21801851782496L93.33666215277778,81.35655743527317L93.34683888888888,80.58124246097663L93.41080694444445,80.56504513795588L93.487859375,79.82490370108334L94.23221493055556,76.80848871559031L94.44738020833333,74.85998907480048L94.9504017361111,73.17237401347423L94.96348611111111,70.56279199674212L95.04053854166668,69.95040202783713L95.23680416666667,72.84693874813038L95.45633090277778,71.11405410408655L96.41585173611111,70.22746638598561L96.43911284722222,69.42953743969471L96.55396458333334,69.65780677264836L96.67899305555557,67.77505763384502L97.84495625,67.89510571661435L98.25784097222223,66.91487129879908L98.33489340277778,67.74234416891916L98.37996180555557,66.34986282895034L98.43229930555556,64.24675731528605L98.48899826388889,63.6973923529882L98.68962534722222,62.77462388692017L98.78412361111111,62.323456882843516L98.81756145833333,61.91740657917454L98.97166631944445,62.166900152026315L99.12431736111111,63.40871782913139L99.19119305555556,62.058973738525935L99.62006979166667,61.09704174928872L100.08819965277777,60.70797757435987L100.710434375,66.03543520153929L100.82528611111111,66.9535747583084L101.00846736111112,69.14824651324682L101.77753784722222,68.72373955422981L101.85022881944445,69.23920944496068L101.98543402777779,69.31169003892614L102.00869513888888,69.37692257349507L102.05230972222222,68.95255800845325L102.15843854166667,69.52180066914637L102.68326736111112,67.88819829453944L102.95949305555555,65.83821308047011L103.19210416666667,66.56313023396156L103.41744618055556,68.03860567210386L103.55265138888889,69.52256587412424L103.63261145833334,67.92306159440412L104.38278229166666,72.87960697342524L104.39441284722221,70.2396662760827L104.609578125,68.79378657155135L104.67790763888888,67.52340176055009L105.10096909722222,66.51607312295661L105.18965208333334,66.65609196450711L105.41790173611112,66.85821892190255L105.66795868055556,64.34578472201997L105.99361423611111,68.99113394212567L106.04159027777777,68.87806439406695L106.26402465277778,69.77485410850642L106.28583194444444,71.94282254380961L106.81066076388888,71.24866105865944L107.15666979166666,70.87525572202425L107.16684652777778,70.5391909190526L107.17266180555555,70.23673259637812L107.17847708333333,70.28203087520183L107.383465625,68.76519932614318L107.44743368055555,67.06769939352886L107.68876770833333,66.24631560802214L107.74110520833334,69.90075481645071L107.7629125,73.1897501040364L107.93446319444445,72.09205278594045L108.58868194444445,74.34935212273102L108.75732500000001,73.18688844891946L108.94632152777777,73.2753772963352L109.01174340277778,71.12835725900938L109.31849930555555,77.16948076387769L109.47260416666667,81.22534730287452L109.82733611111111,78.05459180335632L109.83896666666666,75.2009118537899L110.07448541666668,73.12792759148783L110.15153784722223,70.54117098618522L110.98166875,69.74332311833592L111.22881805555555,68.98169080650233L111.24917152777778,68.11540941815979L111.37565381944445,72.9655815532669L111.6358875,69.7931233979402L111.68386354166667,66.93791105814621L111.94409722222221,65.20665533694698L112.38024305555555,64.75885980325228L112.38896597222222,63.07558920754245L112.64919965277777,64.01917567140357L113.05045381944444,64.71468579657092L113.82824722222223,62.98273260152921L114.03905104166667,63.67786549522242L114.20769409722223,61.99554125339249L114.33126875,61.63698712805325L114.44466666666668,61.00304072294024L114.48391979166666,60.43248895833851L114.50863472222223,60.09789852404313L115.23699826388888,59.54978405625418L115.30532777777779,59.961631804474905L115.48123993055555,57.74278477787355L115.783634375,57.70602937700927L115.82724895833333,59.54356720853913L116.56724305555555,58.938150487685235L116.57596597222222,58.39327543891672L116.60795,57.90288789502506L116.73879375,57.289168336291766L116.99757361111111,55.71621150266259L118.05886180555557,53.54571342931939L118.1620829861111,53.84139054792591L118.39760173611111,55.74651995467177L118.53716840277778,54.73057103612767L118.74942604166667,55.28395547097641L119.41672916666666,59.33684223157108L119.53303472222223,59.00398262379859L119.96481909722222,58.738992053726406L120.0098875,58.50050054066146L120.48528645833332,59.64331202505686L120.703359375,57.72057159178196L120.98830798611111,57.48044520183451L121.18893506944444,57.05016145088183L121.29070243055556,57.732122228870566L121.29215625,58.34588692906043L121.41427708333335,57.289889774615915L121.64398055555556,56.08856079715433L121.92602152777778,57.2080193328235L122.10484131944445,57.44176970723345L122.26476145833334,57.250082736510095L122.44939652777778,56.325042155166784L122.86518888888888,57.567081785803964L122.87972708333334,58.47265360722356L123.12106111111112,57.40615824650121L123.41473263888888,55.42243549877416L123.93229236111111,55.267255025819836L124.000621875,55.12759260016094L124.23032534722223,56.15831910937558L124.27539374999999,55.23979489074573L124.44985208333334,54.90218770936346L124.5109125,54.16142355381173L124.60686458333333,53.32917273689209L124.89472083333334,53.0828270016644L125.10116319444445,55.05223968611334L125.46316423611111,60.568805717502L126.17408194444444,59.287112838059485L126.408146875,58.701486938868925L126.44885381944444,58.1744236295974L126.51427569444445,56.6910304974069L127.12342604166668,55.78281898612772L128.31991944444445,55.560148625976495L128.34608819444443,58.650311455686534L128.48710868055556,57.394088002425576L128.5612534722222,56.83955381756765L128.79531840277778,57.710044589657045L129.28816319444445,58.96335320761442L129.37393854166666,58.07502865608376L129.6399875,58.24168425201384L129.66034097222223,57.65276736527399L130.05287222222222,59.062253705669676L130.08340243055557,59.406579104333474L130.43668055555557,57.92264504005398L130.55153229166666,56.58533438220245L130.72162916666667,55.10767709782834L131.51686840277776,54.31123631112243L131.68841909722224,55.40229037231789L131.79890937500002,54.11632441200918L132.1754486111111,59.25552581696212L132.2932079861111,57.93837246603513L132.92125798611113,56.15181521943158L133.1044392361111,55.993271389796135L133.14223854166667,55.8505819431242L133.31088159722222,55.50363451804256L133.53476979166666,53.36188260469983L133.61618368055557,54.33601665192214L133.6903284722222,58.63305806365301L133.72231250000002,57.510901488056916L133.77028854166667,56.78674749309738L133.8066340277778,55.57636966686455L134.18462708333334,56.40366731556273L134.1875347222222,57.14823519939107L134.33582430555558,55.9500432179135L134.3401857638889,54.87167043458369L134.56407395833332,53.81821723727916L134.80395416666667,54.02346859047431L135.02202708333334,55.181967116042244L135.21974652777777,54.381909635207265L135.46689583333335,53.21500097937884L135.66897673611112,52.74425395836404L136.35372569444445,52.2586316394507L136.36099479166666,51.310041552428714L136.42932430555558,52.85643047410892L136.51655347222223,52.94791127285187L136.54999131944444,51.91337399172052L136.93234583333333,51.618945823317716L136.94252256944446,51.3539604717552L137.97037291666666,52.46094596304121L138.36290416666668,51.73624828981403L138.79614236111112,50.477182691601854L138.8223111111111,50.04848365321088L138.9386166666667,51.26913374942826L139.4634454861111,51.224026528331606L139.7120486111111,56.42072387549844L139.88505312499998,55.553839180256276L140.19471666666666,54.13385603146142L140.26886145833333,55.935398889853744L140.47821145833333,54.62947977009914L140.54654097222223,54.42016410078155L140.71663784722222,52.67635845993415L140.8852809027778,51.587147998556134L140.89545763888887,50.6068585833159L141.30979618055557,56.716234263445855L141.7924642361111,56.46884391402433L142.187903125,57.594660291852676L142.33183125000002,56.29273503189816L142.672025,56.52638229793911L142.77815381944444,62.84289252968365L142.86102152777778,68.52775173825374L143.60246944444444,66.05068887212066L143.70132916666668,69.3166376772163L143.81327326388887,72.68800775564851L143.8336267361111,75.72224082623751L143.89032569444444,75.07017212822915L143.93684791666666,72.06903030002161L144.53727534722222,70.42305880848099L144.79750902777778,68.39162292763287L145.34705277777778,66.95136909640804L145.42846666666665,63.64142526369031L145.43428194444445,60.662475814244345L145.52878020833333,59.23335592512761L145.6232784722222,60.55000110184561L145.95038784722223,59.202928683968764L145.9736489583333,57.99056350787957L146.18299895833334,58.844528695553166L146.2207982638889,57.85998044138246L146.27458958333332,55.82297855109039L146.83140243055556,55.24406223444289L146.859025,55.427361395613985L147.0073145833333,54.44564294836026L147.3911229166667,53.68858326890884L147.5554045138889,57.03969801894104L147.60628819444443,56.44176975550846L148.22125381944446,54.11865739534224L149.3610482638889,53.96804857888493L149.410478125,52.3169721825349L149.5253298611111,51.97741881043527L149.85389305555555,53.617595390930205L149.92949166666665,55.23140585183718L150.13302638888888,53.353376035884224L150.48630451388888,52.93060535537272L150.8526670138889,52.2247040506047L151.08673194444444,52.48705518400574L151.43855625,53.91519812714361L151.48507847222223,53.65204908366003L151.79328819444444,52.27833032914019L152.07242152777778,52.59400114238002L152.19599618055554,52.04402641275739L152.38790034722223,53.171594540712434L152.681571875,52.25642508664119L152.72809409722223,51.432772577977076L152.78188541666665,51.24072993556398L152.8981909722222,52.26604540354606L153.11771770833332,57.241584709345275L153.3910357638889,56.96643931533386L153.43610416666667,55.765731537646616L153.48408020833332,55.43925069157426L153.64981562499997,55.14773254549375L153.74140625,55.099944675559755L154.08450763888888,54.9839571310807L154.12666840277777,54.72557834104957L155.24029409722223,54.02630204540614L155.25919375,53.39695337932706L155.36386875,52.197696502932814L155.57176493055556,51.15226762187032L156.13148541666666,50.87172778276023L156.214353125,50.61924192756112L156.3684579861111,55.64209696557427L156.46295625,55.49136419209377L156.528378125,55.21315161903823L156.76535069444444,54.27286876482671L157.21312708333335,53.53730727295941L157.993828125,52.69707654566348L158.1988166666667,52.135841198789436L158.84867395833334,52.27133323275663L158.9722486111111,52.489809140250216L158.9955097222222,51.05476976468671L159.55086875,49.73845432667959L159.57558368055555,48.55377043247316L159.76458020833334,50.473817235379684L159.88233958333333,50.311771665687886L159.9724763888889,50.165930652965244L160.26614791666668,50.978900664591805L160.57581145833333,50.5264436750557L161.48299479166667,50.12236392293474L161.51207118055558,50.640560607564325L161.8115579861111,50.25937993142328L162.06452256944445,49.86090270751173L162.28259548611112,49.32758782137594L162.311671875,48.84760442385371L162.31603333333334,49.11259090454526L162.4396079861111,53.24017719870612L162.44396944444443,56.95500486345088L162.96589062500001,54.92585514633657L163.00368993055554,56.04204117016445L163.88906597222223,54.26907013007107L163.97484131944444,55.06126234783319L164.46623229166664,54.73565380535754L164.60725277777777,53.30926150174487L164.96779999999998,52.722343813108836L165.5929423611111,55.60872020102872L166.28932187499998,54.26766433477199L166.51611770833333,52.52712713206404L166.87666493055556,52.01338518808842L167.0322236111111,51.698335900048804L167.2735576388889,51.3645507715824L167.45819270833334,50.52129877134722L167.65736597222224,49.943048124981715L167.7387798611111,49.79432254325279L167.78530208333333,49.57741567354289L167.88852326388889,48.11923641388091L168.44097465277778,47.76825738787744L168.57036458333334,49.45628857216661L168.60380243055553,50.97551663802686L169.0821090277778,51.239975743454934L169.4223027777778,50.65207970757098L169.51680104166667,51.48682635219849L170.12449756944446,51.216263716978645L170.32512465277776,49.16177503758847L170.42689201388887,49.1446852261373L170.528659375,49.060546703523556L170.70311770833334,49.800383571632736L170.7670857638889,50.464330599084846L170.96480520833333,51.119748308407125L171.1770628472222,50.87554578525871L171.25556909722224,50.78483736057899L171.37187465277776,50.844255162982634L171.53179479166667,50.443930415915105L171.75422916666668,54.25239660509284L171.8603579861111,53.97840155996818L172.13949131944443,53.0352429424329L172.24125868055555,53.30626557126652L172.31249583333332,52.097832860293735L173.08592777777778,51.89810265118743L173.74160034722223,53.25320777068407L173.89570520833334,51.63644545515412L173.89861284722224,50.18135937117718L174.29114409722223,49.27343574175177L174.872671875,49.05333909065352L175.2826489583333,49.20707364312662L175.31608680555556,49.30880935573704L175.55160555555557,49.02376995862487L175.7071642361111,49.469107578147L175.79293958333332,48.93072220494767L175.80602395833333,48.59376613829906L175.90924513888888,47.260910293699936L176.01828159722223,47.0906631104838L176.1389486111111,47.60132679943541L176.2538003472222,47.449525273338025L176.4006361111111,51.86309736138884L176.4297125,50.8806737790961L176.54020277777778,50.48120024734034L176.62307048611112,50.07538176106786L176.63906250000002,49.71014512342259L177.25548194444445,49.457269841849566L177.28455833333334,49.22968208843386L177.81374861111112,48.90762464882121L178.10742013888887,48.77938756855448L178.15394236111112,48.6639741963144L178.2324486111111,48.54267446899067L178.36329236111112,48.37155471439931L178.6467871527778,48.54023155065167L178.69185555555558,46.38055685712496L178.77181562500002,44.53052347910477L178.82269930555555,42.8654934388866L178.83723750000001,41.36696640269025L179.12073229166666,42.24073130088277L179.49291006944443,42.18718663233295L179.57287013888887,42.138996430638116L180.1980125,42.262686018343516L180.6763190972222,42.11449741650918L180.76064062499998,42.05560382870439L181.29855381944444,42.44850344583395L181.44975104166667,42.874683101250554L181.47010451388888,42.7467147911255L181.49772708333333,42.63154331201295L181.55733368055556,43.103547442350106L181.57768715277777,43.52835115965357L181.59949444444445,43.910674505226666L181.61839409722222,43.82969320855017L181.67509305555555,43.756810041541314L181.8640895833333,43.79959365277176L182.1141465277778,44.082086595186894L182.3598420138889,43.242334089514344L182.6157142361111,42.699773757485985L182.749465625,42.22358715096817L182.85414062499999,41.456540743563664L182.87449409722223,40.7661989768996L183.48800590277776,41.404042156132704L183.57087361111113,41.71151178667327L183.74969340277778,41.857662915698285L184.005565625,41.98143816258997L184.15094756944444,42.996488961715585L184.3006909722222,43.910034680928646L184.78626666666665,44.00638967437422L185.74724131944444,44.29339147616761L185.80539409722223,43.95084617470468L185.8533701388889,43.64255540338806L186.12087291666668,44.48087447843386L186.7431076388889,44.04687472289817L186.94228090277778,44.47265340445449L187.8959864583333,43.84463960247061L187.89744027777778,43.279427180685076L187.98176180555555,43.991355231847336L188.27252569444443,43.37021663173954L188.38737743055555,44.31541958395022L188.7392017361111,44.97780147170903L189.08957222222222,44.6870390168458L189.2756611111111,44.938108192084286L189.32363715277776,45.16407044979894L189.605678125,45.28982878943444L189.69290729166667,46.04402360279866L189.84991979166668,45.391486627134185L189.90225729166667,44.80420334903616L189.92987986111112,44.275648398747904L190.06944652777779,44.53586048195004L190.73384201388888,44.978639049139645L190.7934486111111,44.68261899037955L190.92138472222223,44.96040786057236L191.24413263888889,45.33064168989975L191.4665670138889,44.39653213629441L191.7413388888889,43.786886614972644L191.78204583333334,43.6481648765523L192.588915625,44.45025069658939L192.8709565972222,45.08526178077659L192.92765555555556,45.13394098731433L193.216965625,44.69699304242906L193.82756979166666,44.765709892032305L194.03255833333336,44.71917659513676L194.21573958333332,44.245961243315406L194.4367201388889,44.657685888214644L194.78418298611112,45.20612306862395L195.23777465277777,44.88340614637693L195.4805625,40.75396707020076L195.49219305555553,37.03747190164222L196.00539131944444,37.53243701917032L196.4066454861111,37.68694485571481L196.48369791666667,38.69902037014333L197.00271145833335,38.05501141005209L197.02015729166666,37.803534115200705L197.37925069444444,40.389598395988344L197.38942743055557,42.71705624869722L197.54353229166668,42.356506008442864L197.77759722222223,42.45163694606012L197.90844097222222,42.549644789915675L198.37947847222222,42.98014261861641L198.6280815972222,43.023257587524L198.69931875,42.79329336723313L198.7545638888889,43.728111722817516L198.80399375000002,43.74394747361268L198.85923888888888,43.88618426471294L198.9159378472222,44.11386199208778L199.08458090277776,44.68802117749439L199.19797881944444,45.12824598282188L199.21833229166666,45.52444830761661L199.24304722222223,45.137221938393395L199.4000597222222,45.08594205224637L200.09789305555557,45.90259707779097L200.37411875,45.56483044693496L200.54276180555556,45.920233556087595L200.86260208333331,46.666121738940376L200.90476284722223,47.01568956504633L201.57497361111112,47.513972147003244L201.94860520833333,47.737091855379845L201.99076597222222,48.103734977534145L202.07944895833333,47.619105325934584L202.52141006944444,47.94022633180268L202.7656517361111,47.4865160063147L203.50564583333332,47.47819671337555L203.52745312500002,47.299700118961056L203.9592375,47.79109395321882L204.77773784722223,47.8421784040508L204.8649670138889,48.31322671749186L205.26912881944446,48.622120199588835L205.27058263888887,48.90012433347613L205.4319565972222,49.93607190012848L205.47266354166666,49.29816240242333L205.51627812499999,48.70688846987332L205.57588472222224,47.98412654596291L205.7445277777778,47.661635429828124L206.20393472222221,47.92295265607609L206.26499513888888,47.578463159699254L206.31733263888887,49.28574607449855L206.74184791666667,50.65932454397176L206.78691631944446,51.895545166497655L207.21288541666667,51.23664603446328L207.348090625,50.4091798925554L207.36553645833334,50.480702672530626L207.5181875,48.51365778989293L207.99649409722224,48.59936662628826L208.78301041666666,48.684265348274835L208.81790208333334,48.40572112113966L208.865878125,49.40424285517953L209.50119722222223,49.996293954276965L209.59714930555555,49.62752917423386L209.63785625,48.82386779527201L210.1248857638889,48.98516409266787L210.38511944444443,47.18047152955495L210.45635659722222,46.402308222753305L210.46071805555556,45.70196124663181L210.47671006944447,45.071648968122474L210.540678125,44.752712532848705L210.8677875,43.02393666417919L211.22688090277776,42.62248684391514L212.90458854166667,43.56798662106209L213.25786666666664,43.29103795895588L213.61841388888888,42.37286031690644L213.69546631944445,43.42487890060039L213.8539326388889,44.36339024130959L214.047290625,43.65385429410168L214.31479340277778,46.487195018537676L214.50088229166667,45.856239362837755L214.57793472222224,45.713860041938574L214.6389951388889,45.13722788389856L214.79746145833332,45.87849894166257L214.80763819444445,46.545642893650154L214.85416041666664,46.2578047581313L214.9006826388889,45.227302743856654L214.989365625,46.01620631562483L215.015534375,45.214639530216175L215.329559375,46.7128094233484L215.60869270833334,45.75689463485972L215.75988993055554,45.50449824829684L215.85002673611112,45.277341500390236L216.10299131944444,44.98794042727428L216.4053857638889,44.33399484608529L216.83280868055556,45.3113492076306L216.89096145833332,44.86210659455986L217.082865625,44.862573627411564L217.2108017361111,47.07944241851658L217.22824756944445,47.21857509974183L217.23987812500002,47.34379451284454L217.28058506944444,47.45649198463701L217.3503684027778,46.79913432463485L217.41288263888887,46.207512430632875L217.59751770833333,46.19434349526193L217.8184982638889,47.07906453035113L217.96533402777777,47.297068077316L218.17759166666667,50.01592973112284L218.31425069444444,49.4156459887798L218.53377743055557,49.385150620671055L219.09640555555555,48.90989478937317L219.1400201388889,48.45629531043588L219.42060729166667,45.82153193323842L219.50783645833334,45.466274893760755L219.54418194444446,45.5507843274616L220.2420152777778,45.74257358702312L220.25800729166667,45.91518392062849L220.5167871527778,45.12644245164256L220.550225,44.41657512955524L220.59529340277777,44.26961838583048L220.80173576388887,44.11924885493971L220.8220892361111,43.676480892522676L221.7176420138889,44.66458049557812L221.96479131944443,44.30002936909722L222.3137079861111,44.295843355264424L222.3369690972222,43.777005942814924L222.53323472222223,39.72838919468725L222.735315625,40.324873352141594L222.89814340277778,40.236899093850525L223.15692326388887,41.57726226138854L223.20344548611112,42.78358911217276L223.3081204861111,43.89624173941701L223.68611354166666,44.01957295009072L223.89982500000002,43.02949488585088L224.436284375,43.30390155111195L224.4551840277778,43.550867549846885L224.57875868055555,44.39182002563143L225.09486458333333,43.34491109999135L225.12830243055555,45.197523066915295L225.13557152777778,46.86487383714683L225.16464791666667,48.365489530355205L225.31875277777777,48.33653288501199L225.81886666666668,47.557541134972325L226.23756666666668,47.712720098398165L226.61119826388887,47.54045270394295L227.10113541666666,47.28207127970251L227.20435659722224,47.438247228655314L227.3177545138889,47.18110019809748L227.7757076388889,47.12666787059541L227.7829767361111,47.077678775843594L227.80478402777777,46.523964744413064L228.28454444444444,48.01864211612559L228.3310666666667,49.36385175066688L228.61746909722223,48.68812888329251L228.95184756944445,48.209596764194L229.07251458333332,47.13804170315922L229.10013715277776,46.17364214822791L229.24988055555554,45.799104087251294L229.3327482638889,45.482715216987685L229.65549618055556,44.36851600298121L229.93172187500002,44.519095941144656L230.350421875,43.68710865472249L230.39112881944445,43.425002020019434L230.51615729166667,44.83609104878673L231.0700625,43.57388194390808L231.1020465277778,42.43789374951726L231.53383090277777,46.30478898995014L231.74463472222223,48.98549932172435L231.81151041666666,56.61637092801345L232.57621944444443,65.2654561429044L232.63437222222223,73.04963283630627L232.6460027777778,80.05539186036795L232.67798680555555,86.01338267433117L232.692525,90.18817671459036L232.80301527777777,90.2329844277467L232.8524451388889,87.25083213881817L232.97892743055556,84.4014681557056L233.02399583333332,84.31871672475042L233.70292951388888,89.47282043689076L233.96025555555556,88.18854916243247L234.0503923611111,86.47011732311229L234.38913229166667,82.99804097541646L234.39785520833334,79.8731722624902L235.3064923611111,77.42146195931812L235.3588298611111,75.21492268646321L235.4998503472222,74.80229503320152L235.7804375,72.77897552988135L235.80515243055555,74.24501413073936L235.80660625000002,75.5644488715116L236.2412982638889,80.99231552282195L236.2936357638889,88.38153704746283L236.6120222222222,91.82541334271654L236.81701076388887,88.54418816229105L237.24443368055557,85.49904549990809L237.47122951388891,84.71413094991729L237.67912569444445,83.13537016261787L237.80415416666665,79.2567723771253L237.81869236111112,75.76603437018201L238.02368090277778,75.32198631777919L238.08910277777778,76.33738999369359L238.1254482638889,75.99809330201651L238.3086295138889,73.15699704873795L238.410396875,71.958281190018L238.6560923611111,71.55516845563159L238.75640590277777,70.67416545622228L238.84218124999998,69.3429104490616L239.01518576388887,68.34057017338621L239.195459375,65.99196546373989L239.22598958333333,63.8782212250582L240.2887315972222,63.98289525639852L240.77139965277777,61.847718807681744L240.78739166666668,59.92606000383665L240.91532777777778,59.85029169576066L240.9720267361111,58.42396560310766L241.03163333333333,57.45574058125844L241.236621875,58.0437711385172L241.7890732638889,59.094876332357785L241.91555555555556,59.622470237583556L242.34733993055556,57.37218552151751L243.21963159722222,55.320787738596536L243.3068607638889,55.884180503198394L243.32139895833333,56.3912339913401L243.5031263888889,56.61857136143685L244.33471111111112,56.68565960990853L244.51789236111114,55.979492879686916L244.6618204861111,55.59065359171821L244.85953993055557,55.76965592485409L245.0369059027778,55.01702956313791L245.12122743055556,52.9394596837472L245.22154097222221,53.524364484603225L245.22735625,54.05077880537368L245.3741920138889,54.22678323252863L245.4992204861111,54.099400293891165L245.52102777777776,55.60403334142512L246.33952812500002,55.380996930359544L246.50380972222223,54.454155698862024L246.68989861111112,54.01076012897582L246.7117059027778,53.61170411607826L246.81347326388888,54.90627831985503L246.98502395833333,54.51733510325417L247.05916875000003,53.70436313139027L247.15948229166668,54.766106818251245L247.16529756944445,55.7216761364261L247.93146041666668,55.73971313816811L247.95908298611113,56.9177472089667L248.07538854166665,55.49180864191618L248.25275451388887,53.979861623878406L248.40540555555555,53.50424546149057L248.6656392361111,53.22473476149533L248.68599270833334,51.5125166699612L248.73833020833334,49.51635807988815L248.79793680555554,47.70075381036088L248.93459583333333,47.18643919855555L249.00583298611113,47.27620450946924L249.0290940972222,47.35699328929155L249.14685347222223,47.53209088343931L249.26752048611112,48.77291871817232L249.39400277777779,47.07726992327818L249.42017152777777,47.166923700181115L249.6164371527778,52.64475056093222L249.81415659722222,58.32023704330054L250.3767847222222,58.37986256973973L250.43057604166665,57.74458708199653L250.81874583333334,57.70438375841226L251.11823263888888,56.66365769026332L251.17202395833334,55.72700422892932L252.32054131944443,55.159046882959444L252.4179472222222,53.67887834850964L252.50663020833332,53.166917436735616L252.65346597222222,50.738184923831284L253.03000520833334,49.22724027760201L253.12304965277778,47.83130932676488L253.49086597222222,48.08355608639607" style="fill: none;" fill="none"></path></g></g></g></g><g opacity="0.2"><g><g><g><path stroke="rgb(255, 112, 67)" stroke-width="2px" d="M29.138903125000002,157.70087307692307L29.320630555555557,156.71443846153846L29.41076736111111,154.9349076923077L29.766953125,157.61305384615383L29.857089930555556,157.87991538461537L29.919604166666666,150.51535384615386L29.92978090277778,156.9459L29.999564236111112,154.3113230769231L30.01846388888889,156.25151538461537L30.115869791666665,156.47208461538463L30.252528819444446,156.48978461538462L30.552015625000003,147.0230076923077L31.015784027777777,156.70218461538462L31.09138263888889,156.47208461538463L31.101559375,153.4807846153846L31.165527430555557,156.01188461538462L31.598765625,154.9812L31.60312708333333,154.9812L31.806661805555553,155.88934615384616L31.86481458333333,156.0255L32.03781909722222,156.65044615384616L32.431804166666666,157.1623846153846L32.55101736111111,156.92207307692308L32.69058402777778,156.11944615384616L32.692037847222224,156.11944615384616L32.981347916666664,151.08084571063702L33.49454618055555,155.55576923076922L33.77367951388889,156.07996153846153L33.796940625,156.03503076923076L33.88271597222222,155.41485L34.33776145833333,157.2045923076923L34.340669097222225,156.88054615384615L34.413360069444444,143.03233846153847L34.63288680555555,157.06843846153845L34.82915243055555,156.09629999999999L35.35398125,155.42914615384615L35.47464826388889,154.344L35.608399652777784,152.97701538461538L35.63311458333333,154.1561076923077L35.875902430555556,155.3352L36.03873020833333,153.21664615384614L36.30477916666666,143.06365384615384L36.54175173611111,154.06216153846154L36.84850763888889,154.89814615384614L36.868861111111116,154.75246153846155L37.39805138888889,156.47208461538463L37.60303993055556,154.47606923076924L37.665554166666666,155.4386769230769L37.78622118055555,145.75133076923078L38.09152326388889,151.71486923076924L38.119145833333334,155.08195384615385L38.81697916666667,148.71880384615383L38.834425,133.00733076923078L39.042321180555554,142.84444615384615L39.20514895833333,141.7266230769231L39.47992083333334,154.45700769230768L39.92333576388889,153.0056076923077L39.92769722222222,151.2396923076923L40.414726736111106,141.40257692307694L40.46561041666667,138.62231538461538L40.80435034722222,139.2418153846154L40.97008576388889,132.92427692307692L41.02969236111111,135.86928461538463L41.43240034722223,152.32892307692308L41.44693854166666,155.77225384615383L41.58214375,137.5467L41.98485173611111,136.56911538461537L42.06771944444445,152.10426923076923L42.540210763888886,137.94563076923077L42.84260520833334,134.34163846153845L42.96763368055556,139.5822L42.986533333333334,138.49977692307692L43.17698368055556,138.15666923076924L44.196111111111115,136.8278076923077L44.312416666666664,131.62264615384615L44.374930902777784,131.02356923076923L44.49850555555555,139.30716923076923L44.75001631944444,139.7728153846154L44.92738229166667,137.13415384615385L44.931743749999995,124.47865384615385L45.02042673611111,142.0030153846154L45.098932986111116,143.73216923076922L45.21814618055556,139.74013846153846L45.843288541666666,142.80223846153848L45.89271840277778,139.26087692307692L46.06572291666667,136.81827692307692L46.17330555555555,125.46032307692309L46.47860763888889,137.0374846153846L46.485876736111116,135.79984615384615L46.76210243055555,139.4719153846154L46.945283680555555,135.76716923076924L47.79867569444444,139.32214615384615L48.026925347222225,134.17961538461537L48.06617847222222,147.0182423076923L48.845425694444444,120.60099230769231L48.87886354166667,127.9070076923077L49.15508923611111,139.06345384615383L49.75260902777778,131.56682307692307L49.85873784722222,116.28899999999999L49.92270590277778,137.37242307692307L50.08117222222222,152.32892307692308L50.358851736111106,126.10841538461538L50.40246631944444,131.65668461538462L50.56384027777778,126.22142307692307L50.70049930555555,131.15155384615383L51.57279097222222,111.3438923076923L51.62222083333334,106.6956L51.99585243055556,122.4309L52.507596875,133.70716153846155L52.80562986111111,111.55084615384615L53.58487708333334,100.89408461538461L53.88872534722222,123.75023076923077L53.93379375,114.64153846153846L54.25363402777778,110.28733846153845L54.28561805555555,114.96830769230769L54.58219722222222,124.03751538461538L54.602550694444446,137.6774076923077L55.90226527777777,122.4594923076923L56.86905520833333,121.31716153846153L56.94610763888889,132.40144615384617L57.47239027777778,138.1988769230769L57.63085659722222,104.55934615384615L57.651210069444446,147.26672307692309L57.763154166666666,114.55576153846154L58.1469625,105.10804615384615L58.23128402777778,113.46653076923076L58.24436840277778,100.48153846153846L58.35485868055555,97.44122307692308L58.50896354166667,122.58203076923076L58.52059409722222,100.71027692307692L58.62381527777778,121.58674615384615L58.79391215277778,108.4833L58.937840277777774,98.90623846153846L58.99453923611111,121.12654615384616L59.28675694444445,129.918L59.29111840277778,129.918L59.39724722222222,115.63273846153845L59.724356597222226,134.0529923076923L59.81740104166666,107.23476923076923L59.94533715277778,110.9082L60.07181944444445,142.1909076923077L60.36839861111111,121.34303076923078L60.840889930555555,93.15373846153845L61.41805625,128.86961538461537L61.541630902777776,123.2451L61.58233784722222,131.8227923076923L62.71631701388889,120.55742307692307L62.73085520833333,112.4235923076923L62.79482326388889,110.04770769230768L62.83262256944444,110.04770769230768L62.93148229166666,112.3350923076923L63.040518750000004,124.15596923076923L63.136470833333334,135.8093769230769L63.300752430555555,118.95897692307693L63.48974895833334,113.47061538461539L63.50574097222222,113.47061538461539L63.53481736111111,84.85652307692307L63.87937256944444,98.70609230769232L64.18322083333334,97.00416923076924L64.37948645833333,115.9241076923077L64.38239409722223,115.9241076923077L64.43763923611111,116.26721538461538L64.87233125,115.6872L65.01480555555555,109.85981538461539L65.02643611111111,109.85981538461539L65.27940069444445,94.89242307692308L65.3273767361111,79.82836153846154L65.79114513888888,113.39573076923077L65.905996875,129.83766923076922L65.99177222222222,111.69108461538461L66.60383020833333,85.8273L66.65471388888889,102.40675384615385L66.76229652777776,100.05946153846153L67.31765555555556,122.28521538461538L68.03584236111111,91.01748461538462L68.03729618055554,108.8727L68.55485590277777,93.43966153846154L68.56212500000001,93.43966153846154L69.06514652777778,81.46629230769231L69.20762083333334,87.4557L69.2585045138889,77.85413076923076L69.53036875,77.32857692307694L69.66266631944444,93.94206923076923L70.42156006944444,87.95538461538462L70.57421111111111,101.92613076923077L71.19499201388888,96.50993076923076L71.23279131944444,78.42325384615384L71.32874340277777,101.47682307692308L71.53082430555556,89.77167692307692L71.6209611111111,61.58238461538461L71.92335555555556,83.27577692307692L71.94661666666666,83.27577692307692L72.12689027777778,96.21583846153847L72.44382291666666,78.37900384615385L72.69969513888888,104.77310769230769L72.73749444444445,88.50544615384615L72.945390625,86.96418461538462L73.16782500000001,79.77798461538461L73.37572118055556,107.28106153846153L73.58216354166667,76.25432307692307L73.71882256944444,80.97613846153845L73.73917604166667,80.97613846153845L74.73649618055555,126.41884615384615L74.7902875,121.6098923076923L75.15810381944445,89.41495384615385L75.42560659722223,74.89142307692306L75.50702048611112,98.26767692307692L75.60588020833333,88.40469230769232L75.90100555555556,83.17774615384616L76.2324763888889,101.80903846153846L76.38803506944444,123.05993076923077L76.55522430555556,154.64353846153847L76.70787534722221,92.4402923076923L76.89977951388889,101.19498461538461L76.91141006944444,101.19498461538461L77.10331423611112,84.01509230769231L77.31702569444445,100.43252307692308L77.44786944444445,94.78758461538462L77.59906666666666,82.85097692307693L77.63977361111111,76.51301538461539L78.12534930555556,86.65375384615385L78.14279513888889,86.65375384615385L78.17041770833333,90.64578461538461L78.1951326388889,90.64578461538461L78.27363888888888,92.30550000000001L78.32743020833334,107.49210000000001L78.38122152777778,74.01459230769231L78.56004131944445,75.34345384615385L79.03398645833333,78.65471538461539L79.06451666666666,110.00958461538461L79.27095902777778,83.99603076923076L79.37854166666666,110.94632307692308L79.64604444444444,109.86934615384615L80.44564513888889,78.25306153846154L80.47617534722222,78.25306153846154L80.50961319444446,83.88166153846154L80.66371805555555,67.23413076923077L80.79456180555555,76.86701538461539L81.08241805555555,101.89345384615385L81.19581597222222,108.90129230769232L81.34701319444444,112.85247692307692L81.371728125,110.14165384615386L81.46913402777778,106.35657692307693L81.77298229166666,107.6582076923077L81.81514305555555,72.03491538461539L82.3297951388889,76.94462307692308L82.37340972222222,76.94462307692308L82.53042222222221,74.39854615384617L82.6510892361111,81.16266923076923L82.73395694444444,74.13576923076923L83.16283368055555,77.06171538461538L83.58007986111112,68.32472307692308L83.97988020833334,76.33465384615384L84.1427079861111,74.15891538461537L84.60211493055556,99.40864615384615L84.96120833333333,76.99091538461538L84.98446944444444,69.25465384615386L85.36973159722223,104.4545076923077L85.54418993055555,85.23707307692307L85.74917847222223,50.34152307692308L86.20713159722222,99.78170769230769L86.79738229166666,100.92131538461538L86.91223402777777,108.00948461538462L87.05325451388889,89.82886153846154L87.09832291666666,82.32950769230769L87.259696875,89.65594615384616L87.66095104166668,69.49019999999999L87.95753020833334,63.95963076923077L88.19450277777777,92.69898461538462L88.20031805555556,92.69898461538462L88.24829409722223,86.23576153846155L88.27737048611111,68.73726923076924L88.38349930555556,76.97866153846154L88.74259270833333,80.27222307692308L89.039171875,66.74942307692308L89.078425,66.74942307692308L89.18019236111111,69.47794615384616L89.46804861111112,62.95073076923077L89.49130972222223,62.95073076923077L90.33307118055556,63.1604076923077L90.79247812499999,70.08383076923076L90.81864687500001,58.998184615384616L91.12394895833333,82.18246153846154L92.34515729166667,146.9808L92.47454722222223,113.47742307692309L92.52106944444445,114.99417692307692L92.62574444444445,84.91643076923077L92.66499756944445,72.49919999999999L92.67081284722222,72.49919999999999L92.76240347222222,63.71455384615385L93.03572152777778,113.47606153846155L93.15202708333332,54.81281538461539L93.33666215277778,73.60340769230768L93.34683888888888,73.60340769230768L93.41080694444445,80.41926923076923L93.487859375,73.16363076923078L94.23221493055556,49.66075384615385L94.44738020833333,57.323492307692305L94.9504017361111,57.98383846153847L94.96348611111111,47.07655384615384L95.04053854166668,64.4388923076923L95.23680416666667,98.91576923076923L95.45633090277778,55.5180923076923L96.41585173611111,62.248176923076926L96.43911284722222,62.248176923076926L96.55396458333334,71.71223076923077L96.67899305555557,50.83031538461539L97.84495625,68.97553846153846L98.25784097222223,58.092761538461545L98.33489340277778,75.1896L98.37996180555557,53.81753076923076L98.43229930555556,45.3188076923077L98.48899826388889,58.753107692307694L98.68962534722222,54.46970769230769L98.78412361111111,58.26295384615385L98.81756145833333,58.26295384615385L98.97166631944445,64.41234230769231L99.12431736111111,74.58507692307691L99.19119305555556,49.911276923076926L99.62006979166667,52.439653846153846L100.08819965277777,57.2064L100.710434375,113.98255384615385L100.82528611111111,75.21683076923077L101.00846736111112,88.90029230769231L101.77753784722222,64.90317692307693L101.85022881944445,73.87843846153847L101.98543402777779,69.96401538461538L102.00869513888888,69.96401538461538L102.05230972222222,65.13327692307692L102.15843854166667,74.64498461538463L102.68326736111112,53.185776923076915L102.95949305555555,47.38834615384616L103.19210416666667,73.08738461538462L103.41744618055556,81.31788461538461L103.55265138888889,82.87820769230768L103.63261145833334,53.527523076923075L104.38278229166666,117.4885153846154L104.39441284722221,46.480199999999996L104.609578125,55.78086923076923L104.67790763888888,56.089938461538466L105.10096909722222,57.45011538461539L105.18965208333334,67.91626153846154L105.41790173611112,68.67736153846154L105.66795868055556,41.733876923076934L105.99361423611111,110.79927692307692L106.04159027777777,67.86043846153846L106.26402465277778,77.84596153846155L106.28583194444444,91.45453846153846L106.81066076388888,65.00120769230769L107.15666979166666,67.51460769230769L107.16684652777778,67.51460769230769L107.17266180555555,67.51460769230769L107.17847708333333,70.68971538461538L107.383465625,55.11371538461539L107.44743368055555,51.7902L107.68876770833333,58.85386153846153L107.74110520833334,102.79070769230769L107.7629125,102.79070769230769L107.93446319444445,62.21277692307693L108.58868194444445,94.66504615384615L108.75732500000001,62.72471538461538L108.94632152777777,74.07177692307691L109.01174340277778,51.80517692307693L109.31849930555555,131.53959230769232L109.47260416666667,117.72814615384615L109.82733611111111,49.51779230769232L109.83896666666666,49.51779230769232L110.07448541666668,54.471069230769245L110.15153784722223,47.260361538461524L110.98166875,62.562692307692316L111.22881805555555,62.126999999999995L111.24917152777778,60.318876923076914L111.37565381944445,116.61713076923078L111.6358875,41.240999999999985L111.68386354166667,41.240999999999985L111.94409722222221,49.62535384615386L112.38024305555555,60.72869999999999L112.38896597222222,47.92615384615385L112.64919965277777,72.51145384615386L113.05045381944444,70.97427692307693L113.82824722222223,47.395153846153846L114.03905104166667,69.93406153846153L114.20769409722223,46.854623076923076L114.33126875,58.41L114.44466666666668,55.297523076923085L114.48391979166666,55.297523076923085L114.50863472222223,57.08658461538461L115.23699826388888,54.616753846153856L115.30532777777779,63.668261538461536L115.48123993055555,37.77316153846155L115.783634375,57.37523076923077L115.82724895833333,76.08140769230769L116.56724305555555,53.4894L116.57596597222222,53.4894L116.60795,53.4894L116.73879375,51.765692307692305L116.99757361111111,41.55959999999999L118.05886180555557,34.011230769230764L118.1620829861111,56.50248461538462L118.39760173611111,72.89268461538462L118.53716840277778,45.58703076923078L118.74942604166667,60.26441538461539L119.41672916666666,95.81282307692308L119.53303472222223,56.008246153846144L119.96481909722222,56.35407692307692L120.0098875,56.35407692307692L120.48528645833332,69.92861538461538L120.703359375,40.415907692307684L120.98830798611111,55.31930769230769L121.18893506944444,53.17760769230769L121.29070243055556,63.86976923076922L121.29215625,63.86976923076922L121.41427708333335,47.78591538461538L121.64398055555556,45.2766L121.92602152777778,67.28314615384616L122.10484131944445,59.54552307692306L122.26476145833334,55.5249L122.44939652777778,47.99967692307692L122.86518888888888,68.74543846153847L122.87972708333334,66.6228L123.12106111111112,47.80770000000001L123.41473263888888,37.568930769230775L123.93229236111111,53.87063076923077L124.000621875,53.87063076923077L124.23032534722223,65.4348576923077L124.27539374999999,46.97307692307692L124.44985208333334,51.863723076923065L124.5109125,47.49454615384616L124.60686458333333,45.838915384615376L124.89472083333334,50.865715384615385L125.10116319444445,72.77695384615384L125.46316423611111,110.2179L126.17408194444444,47.751876923076935L126.408146875,53.43085384615385L126.44885381944444,53.43085384615385L126.51427569444445,43.3404923076923L127.12342604166668,47.608915384615386L128.31991944444445,53.55611538461538L128.34608819444443,86.46177692307693L128.48710868055556,46.088076923076926L128.5612534722222,51.84874615384615L128.79531840277778,65.54446153846155L129.28816319444445,70.24313076923076L129.37393854166666,50.080107692307706L129.6399875,59.74158461538461L129.66034097222223,52.35251538461537L130.05287222222222,71.74763076923077L130.08340243055557,62.50550769230769L130.43668055555557,44.567238461538466L130.55153229166666,44.54953846153845L130.72162916666667,41.80876153846154L131.51686840277776,47.14326923076925L131.68841909722224,65.22177692307693L131.79890937500002,42.542630769230755L132.1754486111111,105.50833846153846L132.2932079861111,46.08399230769231L132.92125798611113,40.0728L133.1044392361111,54.566376923076916L133.14223854166667,54.566376923076916L133.31088159722222,52.38110769230768L133.53476979166666,34.0861153846154L133.61618368055557,63.10322307692307L133.6903284722222,97.30643076923077L133.72231250000002,47.4114923076923L133.77028854166667,50.26936153846154L133.8066340277778,44.68296923076923L134.18462708333334,63.84934615384614L134.1875347222222,63.84934615384614L134.33582430555558,45.16631538461539L134.3401857638889,45.16631538461539L134.56407395833332,44.33713846153847L134.80395416666667,55.870730769230775L135.02202708333334,65.60845384615385L135.21974652777777,47.181392307692306L135.46689583333335,42.71282307692309L135.66897673611112,48.50753076923078L136.35372569444445,47.88803076923077L136.36099479166666,42.77273076923075L136.42932430555558,66.77393076923077L136.51655347222223,53.77123846153846L136.54999131944444,42.602538461538444L136.93234583333333,48.96909230769231L136.94252256944446,48.96909230769231L137.97037291666666,62.423815384615395L138.36290416666668,45.21396923076924L138.79614236111112,39.14559230769231L138.8223111111111,46.190192307692314L138.9386166666667,62.254984615384615L139.4634454861111,50.818061538461535L139.7120486111111,103.191L139.88505312499998,47.751876923076935L140.19471666666666,41.354007692307704L140.26886145833333,72.14928461538463L140.47821145833333,42.8762076923077L140.54654097222223,52.53632307692307L140.71663784722222,36.98210769230769L140.8852809027778,41.78425384615386L140.89545763888887,41.78425384615386L141.30979618055557,111.70061538461539L141.7924642361111,54.242330769230776L142.187903125,67.72700769230771L142.33183125000002,44.57540769230769L142.672025,58.6292076923077L142.77815381944444,119.69148461538461L142.86102152777778,119.69148461538461L143.60246944444444,43.75712307692308L143.70132916666668,98.71017692307693L143.81327326388887,103.03033846153846L143.8336267361111,103.03033846153846L143.89032569444444,69.20155384615384L143.93684791666666,45.05875384615385L144.53727534722222,55.6093153846154L144.79750902777778,50.1087L145.34705277777778,53.98908461538463L145.42846666666665,33.85193076923076L145.43428194444445,33.85193076923076L145.52878020833333,46.37127692307692L145.6232784722222,72.3998076923077L145.95038784722223,47.07927692307692L145.9736489583333,47.07927692307692L146.18299895833334,66.53021538461539L146.2207982638889,48.99904615384614L146.27458958333332,37.48996153846153L146.83140243055556,50.03381538461538L146.859025,57.077053846153845L147.0073145833333,45.61017692307692L147.3911229166667,46.87504615384614L147.5554045138889,87.19973076923075L147.60628819444443,51.06041538461538L148.22125381944446,33.21064615384617L149.3610482638889,52.612569230769225L149.410478125,37.45728461538462L149.5253298611111,48.92143846153846L149.85389305555555,68.3791846153846L149.92949166666665,69.7557L150.13302638888888,36.45110769230769L150.48630451388888,49.12566923076923L150.8526670138889,45.87159230769231L151.08673194444444,54.848215384615386L151.43855625,66.76848461538461L151.48507847222223,51.283707692307686L151.79328819444444,39.91486153846154L152.07242152777778,55.435038461538454L152.19599618055554,47.09425384615383L152.38790034722223,63.3197076923077L152.681571875,44.01990000000001L152.72809409722223,44.01990000000001L152.78188541666665,49.51234615384615L152.8981909722222,61.493884615384616L153.11771770833332,102.02143846153847L153.3910357638889,54.490130769230774L153.43610416666667,44.959361538461536L153.48408020833332,52.50092307692307L153.64981562499997,52.52406923076924L153.74140625,54.66985384615384L154.08450763888888,53.94006923076924L154.12666840277777,52.40016923076924L155.24029409722223,47.73281538461538L155.25919375,47.73281538461538L155.36386875,41.4043846153846L155.57176493055556,41.7434076923077L156.13148541666666,48.346869230769215L156.214353125,48.346869230769215L156.3684579861111,100.84779230769232L156.46295625,54.13476923076924L156.528378125,52.70923846153846L156.76535069444444,45.81032307692308L157.21312708333335,46.91725384615384L157.993828125,45.13499999999999L158.1988166666667,47.0847230769231L158.84867395833334,53.49076153846154L158.9722486111111,54.4560923076923L158.9955097222222,38.139415384615404L159.55086875,37.89161538461539L159.57558368055555,37.89161538461539L159.76458020833334,67.75423846153845L159.88233958333333,48.85336153846154L159.9724763888889,48.85336153846154L160.26614791666668,58.295630769230755L160.57581145833333,46.45433076923078L161.48299479166667,46.48564615384615L161.51207118055558,55.30433076923077L161.8115579861111,46.82875384615386L162.06452256944445,46.27460769230768L162.28259548611112,44.52775384615384L162.311671875,44.52775384615384L162.31603333333334,51.49746923076923L162.4396079861111,90.38845384615385L162.44396944444443,90.38845384615385L162.96589062500001,36.66350769230769L163.00368993055554,66.08771538461538L163.88906597222223,38.312330769230755L163.97484131944444,62.19099230769231L164.46623229166664,51.80517692307693L164.60725277777777,40.47173076923079L164.96779999999998,47.44008461538462L165.5929423611111,81.58610769230769L166.28932187499998,42.198161538461534L166.51611770833333,36.862292307692314L166.87666493055556,47.389707692307695L167.0322236111111,48.862892307692306L167.2735576388889,48.36048461538462L167.45819270833334,42.93203076923075L167.65736597222224,44.73879230769231L167.7387798611111,48.45579230769232L167.78530208333333,47.62525384615384L167.88852326388889,34.99562307692307L168.44097465277778,44.609446153846164L168.57036458333334,64.64856923076924L168.60380243055553,64.64856923076924L169.0821090277778,53.620107692307684L169.4223027777778,45.36101538461537L169.51680104166667,58.999546153846154L170.12449756944446,48.781199999999984L170.32512465277776,30.671376923076934L170.42689201388887,48.99087692307694L170.528659375,48.30330000000001L170.70311770833334,56.45891538461538L170.7670857638889,56.43985384615385L170.96480520833333,57.01850769230768L171.1770628472222,48.67772307692309L171.25556909722224,49.968461538461526L171.37187465277776,51.379015384615386L171.53179479166667,46.84100769230767L171.75422916666668,88.5285923076923L171.8603579861111,51.512446153846156L172.13949131944443,44.5468153846154L172.24125868055555,55.74546923076923L172.31249583333332,41.22193846153846L173.08592777777778,50.10053076923076L173.74160034722223,65.44915384615383L173.89570520833334,37.08558461538462L173.89861284722224,37.08558461538462L174.29114409722223,41.10212307692308L174.872671875,47.07246923076923L175.2826489583333,50.59068461538462L175.31608680555556,50.224430769230764L175.55160555555557,46.45841538461539L175.7071642361111,53.47714615384615L175.79293958333332,44.08525384615385L175.80602395833333,45.56116153846153L175.90924513888888,35.26520769230771L176.01828159722223,45.55843846153846L176.1389486111111,52.19730000000001L176.2538003472222,46.083311538461544L176.4006361111111,91.58524615384616L176.4297125,42.03886153846153L176.54020277777778,46.885938461538444L176.62307048611112,46.42301538461538L176.63906250000002,46.42301538461538L177.25548194444445,47.181392307692306L177.28455833333334,47.181392307692306L177.81374861111112,46.00910769230771L178.10742013888887,47.62525384615384L178.15394236111112,47.62525384615384L178.2324486111111,47.45097692307692L178.36329236111112,46.831476923076934L178.6467871527778,50.058323076923074L178.69185555555558,26.94348461538462L178.77181562500002,27.880223076923073L178.82269930555555,27.880223076923073L178.83723750000001,27.880223076923073L179.12073229166666,50.104615384615386L179.49291006944443,41.70528461538461L179.57287013888887,41.70528461538461L180.1980125,43.37589230769231L180.6763190972222,40.7808L180.76064062499998,41.525561538461545L181.29855381944444,45.9846L181.44975104166667,46.71030000000002L181.47010451388888,41.595L181.49772708333333,41.595L181.55733368055556,47.35158461538464L181.57768715277777,47.35158461538464L181.59949444444445,47.35158461538464L181.61839409722222,43.100861538461544L181.67509305555555,43.100861538461544L181.8640895833333,44.18464615384616L182.1141465277778,46.62452307692308L182.3598420138889,35.68456153846154L182.6157142361111,37.81673076923079L182.749465625,37.937907692307704L182.85414062499999,34.55312307692307L182.87449409722223,34.55312307692307L183.48800590277776,47.14463076923076L183.57087361111113,44.478738461538455L183.74969340277778,43.17302307692307L184.005565625,43.095415384615364L184.15094756944444,52.13194615384616L184.3006909722222,52.13194615384616L184.78626666666665,44.87358461538463L185.74724131944444,46.87640769230771L185.80539409722223,40.86793846153847L185.8533701388889,40.86793846153847L186.12087291666668,52.02574615384616L186.7431076388889,40.14087692307692L186.94228090277778,48.304661538461545L187.8959864583333,38.192515384615376L187.89744027777778,38.192515384615376L187.98176180555555,50.39870769230768L188.27252569444443,37.77996923076924L188.38737743055555,52.822246153846166L188.7392017361111,50.939238461538466L189.08957222222222,42.07017692307693L189.2756611111111,47.19773076923076L189.32363715277776,47.19773076923076L189.605678125,46.421653846153845L189.69290729166667,52.831776923076916L189.84991979166668,39.51865384615385L189.90225729166667,39.51865384615385L189.92987986111112,39.51865384615385L190.06944652777779,46.87776923076922L190.73384201388888,48.963646153846156L190.7934486111111,42.018438461538466L190.92138472222223,47.46050769230769L191.24413263888889,48.66274615384614L191.4665670138889,35.98954615384616L191.7413388888889,38.300076923076915L191.78204583333334,42.399669230769234L192.588915625,51.66902307692307L192.8709565972222,50.80036153846153L192.92765555555556,45.572053846153835L193.216965625,40.764461538461546L193.82756979166666,45.38416153846154L194.03255833333336,44.300376923076925L194.21573958333332,39.987023076923066L194.4367201388889,48.3632076923077L194.78418298611112,50.14205769230769L195.23777465277777,41.97895384615384L195.4805625,3.5890153846153794L195.49219305555553,3.5890153846153794L196.00539131944444,41.98712307692307L196.4066454861111,39.077515384615396L196.48369791666667,47.80770000000001L197.00271145833335,32.25893076923077L197.02015729166666,35.54023846153848L197.37925069444444,63.66417692307692L197.38942743055557,63.66417692307692L197.54353229166668,39.11155384615384L197.77759722222223,43.307815384615395L197.90844097222222,43.43171538461539L198.37947847222222,46.854623076923076L198.6280815972222,43.41129230769229L198.69931875,40.723615384615385L198.7545638888889,52.14147692307691L198.80399375000002,43.88646923076922L198.85923888888888,45.16631538461539L198.9159378472222,46.16296153846153L199.08458090277776,49.85545384615385L199.19797881944444,49.09026923076922L199.21833229166666,49.09026923076922L199.24304722222223,41.65218461538461L199.4000597222222,44.62442307692308L200.09789305555557,53.25249230769232L200.37411875,42.524930769230764L200.54276180555556,49.118861538461545L200.86260208333331,53.37911538461539L200.90476284722223,50.1618L201.57497361111112,51.998515384615374L201.94860520833333,49.745169230769235L201.99076597222222,51.40352307692308L202.07944895833333,43.25743846153847L202.52141006944444,50.83031538461539L202.7656517361111,43.403123076923066L203.50564583333332,47.40332307692307L203.52745312500002,45.69323076923078L203.9592375,52.21363846153845L204.77773784722223,48.30193846153844L204.8649670138889,52.552661538461535L205.26912881944446,51.40216153846153L205.27058263888887,51.40216153846153L205.4319565972222,59.25959999999999L205.47266354166666,43.55697692307692L205.51627812499999,43.385423076923075L205.57588472222224,41.47926923076923L205.7445277777778,44.7592153846154L206.20393472222221,50.274807692307704L206.26499513888888,44.47805769230769L206.31733263888887,64.6512923076923L206.74184791666667,63.021530769230765L206.78691631944446,63.021530769230765L207.21288541666667,45.30655384615383L207.348090625,42.96198461538461L207.36553645833334,51.124407692307685L207.5181875,30.81025384615384L207.99649409722224,49.370746153846156L208.78301041666666,49.44835384615385L208.81790208333334,45.898823076923065L208.865878125,58.39093846153847L209.50119722222223,55.324753846153854L209.59714930555555,46.308646153846155L209.63785625,41.590915384615386L210.1248857638889,50.43683076923077L210.38511944444443,30.938238461538475L210.45635659722222,39.398838461538446L210.46071805555556,39.398838461538446L210.47671006944447,39.398838461538446L210.540678125,41.882284615384606L210.8677875,27.464953846153833L211.22688090277776,39.00943846153845L212.90458854166667,52.07748461538462L213.25786666666664,40.79850000000002L213.61841388888888,34.10926153846154L213.69546631944445,52.89304615384616L213.8539326388889,52.80999230769231L214.047290625,37.26803076923079L214.31479340277778,71.98726153846154L214.50088229166667,40.177638461538464L214.57793472222224,44.43244615384617L214.6389951388889,39.94753846153847L214.79746145833332,52.54993846153846L214.80763819444445,52.54993846153846L214.85416041666664,43.66726153846153L214.9006826388889,35.952784615384616L214.989365625,53.11633846153846L215.015534375,38.00053846153847L215.329559375,60.19633846153846L215.60869270833334,37.153661538461535L215.75988993055554,43.23293076923076L215.85002673611112,43.23293076923076L216.10299131944444,42.38333076923075L216.4053857638889,38.448484615384615L216.83280868055556,54.10753846153847L216.89096145833332,40.818923076923085L217.082865625,44.86677692307694L217.2108017361111,67.03126153846154L217.22824756944445,48.470769230769235L217.23987812500002,48.470769230769235L217.28058506944444,48.470769230769235L217.3503684027778,40.88291538461539L217.41288263888887,40.88291538461539L217.59751770833333,46.075823076923086L217.8184982638889,55.041553846153846L217.96533402777777,49.259100000000004L218.17759166666667,74.48568461538463L218.31425069444444,44.01309230769232L218.53377743055557,49.110692307692304L219.09640555555555,44.632592307692306L219.1400201388889,44.37389999999999L219.42060729166667,22.10866153846152L219.50783645833334,42.268961538461525L219.54418194444446,46.31136923076923L220.2420152777778,47.46867692307691L220.25800729166667,47.46867692307691L220.5167871527778,38.02776923076922L220.550225,38.02776923076922L220.59529340277777,42.94700769230769L220.80173576388887,42.76592307692306L220.8220892361111,39.69156923076923L221.7176420138889,53.55747692307692L221.96479131944443,41.01906923076922L222.3137079861111,44.25816923076923L222.3369690972222,39.107469230769226L222.53323472222223,3.2908384615384705L222.735315625,45.69323076923078L222.89814340277778,39.445130769230786L223.15692326388887,53.640530769230764L223.20344548611112,53.640530769230764L223.3081204861111,53.91011538461538L223.68611354166666,45.12955384615384L223.89982500000002,34.1187923076923L224.436284375,45.773561538461536L224.4551840277778,45.773561538461536L224.57875868055555,51.9603923076923L225.09486458333333,33.92273076923078L225.12830243055555,61.87103076923076L225.13557152777778,61.87103076923076L225.16464791666667,61.87103076923076L225.31875277777777,48.07592307692306L225.81886666666668,40.54661538461539L226.23756666666668,49.109330769230766L226.61119826388887,45.99004615384615L227.10113541666666,44.95663846153846L227.20435659722224,48.84383076923075L227.3177545138889,44.86677692307694L227.7757076388889,46.63677692307692L227.7829767361111,46.63677692307692L227.80478402777777,41.54053846153846L228.28454444444444,61.47073846153846L228.3310666666667,61.47073846153846L228.61746909722223,42.606623076923086L228.95184756944445,43.902807692307704L229.07251458333332,37.49404615384617L229.10013715277776,37.49404615384617L229.24988055555554,42.42826153846153L229.3327482638889,42.63521538461538L229.65549618055556,34.34072307692307L229.93172187500002,45.874315384615386L230.350421875,36.19922307692309L230.39112881944445,41.0660423076923L230.51615729166667,57.53589230769232L231.0700625,32.214L231.1020465277778,32.214L231.53383090277777,81.10684615384615L231.74463472222223,73.11189230769232L231.81151041666666,125.29421538461538L232.57621944444443,143.10722307692308L232.63437222222223,143.10722307692308L232.6460027777778,143.10722307692308L232.67798680555555,139.6353L232.692525,127.76132307692308L232.80301527777777,90.63625384615385L232.8524451388889,60.41146153846154L232.97892743055556,58.75719230769231L233.02399583333332,83.57395384615386L233.70292951388888,135.85975384615386L233.96025555555556,76.63010769230769L234.0503923611111,71.00423076923077L234.38913229166667,51.74935384615384L234.39785520833334,51.74935384615384L235.3064923611111,55.356069230769236L235.3588298611111,55.356069230769236L235.4998503472222,71.08864615384616L235.7804375,54.569100000000006L235.80515243055555,87.43936153846153L235.80660625000002,87.43936153846153L236.2412982638889,129.84311538461537L236.2936357638889,154.88453076923076L236.6120222222222,122.8203L236.81701076388887,59.01316153846153L237.24443368055557,58.092761538461545L237.47122951388891,77.6499L237.67912569444445,68.92652307692308L237.80415416666665,44.34939230769231L237.81869236111112,44.34939230769231L238.02368090277778,71.32555384615384L238.08910277777778,85.47602307692308L238.1254482638889,72.94442307692309L238.3086295138889,47.587130769230754L238.410396875,61.16983846153845L238.6560923611111,67.92715384615384L238.75640590277777,62.74513846153846L238.84218124999998,57.36161538461538L239.01518576388887,59.31950769230768L239.195459375,44.85452307692307L239.22598958333333,44.85452307692307L240.2887315972222,64.92496153846153L240.77139965277777,42.631130769230765L240.78739166666668,42.631130769230765L240.91532777777778,59.16837692307692L240.9720267361111,45.58703076923078L241.03163333333333,48.74171538461539L241.236621875,63.33604615384617L241.7890732638889,68.55482307692307L241.91555555555556,64.3708153846154L242.34733993055556,37.11962307692309L243.21963159722222,36.85820769230767L243.3068607638889,60.95471538461537L243.32139895833333,60.95471538461537L243.5031263888889,58.6646076923077L244.33471111111112,57.28945384615386L244.51789236111114,49.623992307692305L244.6618204861111,52.0911L244.85953993055557,57.38067692307693L245.0369059027778,48.24339230769229L245.12122743055556,34.241330769230785L245.22154097222221,58.78850769230769L245.22735625,58.78850769230769L245.3741920138889,55.810823076923086L245.4992204861111,52.95295384615385L245.52102777777776,69.14573076923077L246.33952812500002,53.373669230769224L246.50380972222223,46.112584615384634L246.68989861111112,50.02019999999999L246.7117059027778,50.02019999999999L246.81347326388888,66.55744615384616L246.98502395833333,51.016846153846146L247.05916875000003,46.3876153846154L247.15948229166668,64.3218L247.16529756944445,64.3218L247.93146041666668,55.90204615384616L247.95908298611113,67.52005384615384L248.07538854166665,42.65836153846152L248.25275451388887,40.372338461538476L248.40540555555555,49.22370000000001L248.6656392361111,50.70913846153846L248.68599270833334,36.10255384615385L248.73833020833334,31.550930769230774L248.79793680555554,31.360315384615404L248.93459583333333,42.55760769230767L249.00583298611113,48.084092307692316L249.0290940972222,48.084092307692316L249.14685347222223,49.10796923076924L249.26752048611112,59.94036923076922L249.39400277777779,31.816430769230777L249.42017152777777,47.9738076923077L249.6164371527778,101.94519230769231L249.81415659722222,109.39961538461539L250.3767847222222,58.91649230769231L250.43057604166665,52.02710769230771L250.81874583333334,57.34255384615385L251.11823263888888,47.29712307692307L251.17202395833334,47.29712307692307L252.32054131944443,50.04743076923077L252.4179472222222,40.35736153846156L252.50663020833332,48.55926923076922L252.65346597222222,28.87959230769232L253.03000520833334,35.62873846153846L253.12304965277778,35.26793076923076L253.49086597222222,50.35377692307692" style="fill: none;" fill="none"></path></g></g></g></g></g></g><g transform="translate(68, 177)" clip-path="url(#clip_1)"><clipPath id="clip_1"><rect width="261" height="23"></rect></clipPath><g><g><line x1="0" y1="0" x2="0" y2="5" style="visibility: inherit;" fill="rgb(0, 0, 0)" stroke="rgb(204, 204, 204)" stroke-width="1px"></line><line x1="29.076388888888886" y1="0" x2="29.076388888888886" y2="5" style="visibility: inherit;" fill="rgb(0, 0, 0)" stroke="rgb(204, 204, 204)" stroke-width="1px"></line><line x1="58.15277777777777" y1="0" x2="58.15277777777777" y2="5" style="visibility: inherit;" fill="rgb(0, 0, 0)" stroke="rgb(204, 204, 204)" stroke-width="1px"></line><line x1="87.22916666666666" y1="0" x2="87.22916666666666" y2="5" style="visibility: inherit;" fill="rgb(0, 0, 0)" stroke="rgb(204, 204, 204)" stroke-width="1px"></line><line x1="116.30555555555554" y1="0" x2="116.30555555555554" y2="5" style="visibility: inherit;" fill="rgb(0, 0, 0)" stroke="rgb(204, 204, 204)" stroke-width="1px"></line><line x1="145.38194444444446" y1="0" x2="145.38194444444446" y2="5" style="visibility: inherit;" fill="rgb(0, 0, 0)" stroke="rgb(204, 204, 204)" stroke-width="1px"></line><line x1="174.45833333333331" y1="0" x2="174.45833333333331" y2="5" style="visibility: inherit;" fill="rgb(0, 0, 0)" stroke="rgb(204, 204, 204)" stroke-width="1px"></line><line x1="203.53472222222223" y1="0" x2="203.53472222222223" y2="5" style="visibility: inherit;" fill="rgb(0, 0, 0)" stroke="rgb(204, 204, 204)" stroke-width="1px"></line><line x1="232.6111111111111" y1="0" x2="232.6111111111111" y2="5" style="visibility: inherit;" fill="rgb(0, 0, 0)" stroke="rgb(204, 204, 204)" stroke-width="1px"></line><line x1="261.6875" y1="0" x2="261.6875" y2="5" style="visibility: inherit;" fill="rgb(0, 0, 0)" stroke="rgb(204, 204, 204)" stroke-width="1px"></line></g><g transform="translate(0, 8)"><text x="0" y="0" dx="0em" dy="0.95em" style="text-anchor: middle; visibility: hidden; font-family: &quot;Helvetica Neue&quot;, sans-serif; font-size: 12px; font-weight: 200;" fill="rgb(50, 49, 63)" stroke="none" stroke-width="1px">-20k</text><text x="29.076388888888886" y="0" dx="0em" dy="0.95em" style="text-anchor: middle; visibility: inherit; font-family: &quot;Helvetica Neue&quot;, sans-serif; font-size: 12px; font-weight: 200;" fill="rgb(50, 49, 63)" stroke="none" stroke-width="1px">0</text><text x="58.15277777777777" y="0" dx="0em" dy="0.95em" style="text-anchor: middle; visibility: hidden; font-family: &quot;Helvetica Neue&quot;, sans-serif; font-size: 12px; font-weight: 200;" fill="rgb(50, 49, 63)" stroke="none" stroke-width="1px">20k</text><text x="87.22916666666666" y="0" dx="0em" dy="0.95em" style="text-anchor: middle; visibility: inherit; font-family: &quot;Helvetica Neue&quot;, sans-serif; font-size: 12px; font-weight: 200;" fill="rgb(50, 49, 63)" stroke="none" stroke-width="1px">40k</text><text x="116.30555555555554" y="0" dx="0em" dy="0.95em" style="text-anchor: middle; visibility: hidden; font-family: &quot;Helvetica Neue&quot;, sans-serif; font-size: 12px; font-weight: 200;" fill="rgb(50, 49, 63)" stroke="none" stroke-width="1px">60k</text><text x="145.38194444444446" y="0" dx="0em" dy="0.95em" style="text-anchor: middle; visibility: inherit; font-family: &quot;Helvetica Neue&quot;, sans-serif; font-size: 12px; font-weight: 200;" fill="rgb(50, 49, 63)" stroke="none" stroke-width="1px">80k</text><text x="174.45833333333331" y="0" dx="0em" dy="0.95em" style="text-anchor: middle; visibility: hidden; font-family: &quot;Helvetica Neue&quot;, sans-serif; font-size: 12px; font-weight: 200;" fill="rgb(50, 49, 63)" stroke="none" stroke-width="1px">100k</text><text x="203.53472222222223" y="0" dx="0em" dy="0.95em" style="text-anchor: middle; visibility: inherit; font-family: &quot;Helvetica Neue&quot;, sans-serif; font-size: 12px; font-weight: 200;" fill="rgb(50, 49, 63)" stroke="none" stroke-width="1px">120k</text><text x="232.6111111111111" y="0" dx="0em" dy="0.95em" style="text-anchor: middle; visibility: hidden; font-family: &quot;Helvetica Neue&quot;, sans-serif; font-size: 12px; font-weight: 200;" fill="rgb(50, 49, 63)" stroke="none" stroke-width="1px">140k</text><text x="261.6875" y="0" dx="0em" dy="0.95em" style="text-anchor: middle; visibility: hidden; font-family: &quot;Helvetica Neue&quot;, sans-serif; font-size: 12px; font-weight: 200;" fill="rgb(50, 49, 63)" stroke="none" stroke-width="1px">160k</text></g><line x1="0" y1="0" x2="261.6875" y2="0" fill="rgb(0, 0, 0)" stroke="rgb(204, 204, 204)" stroke-width="1px"></line></g></g></g></g></svg>