<svg viewBox="0 0 330 200" xmlns="http://www.w3.org/2000/svg"><g><g><g><g><g><line x1="58.59375" y1="177" x2="53.59375" y2="177" style="visibility: inherit;" fill="rgb(0, 0, 0)" stroke="rgb(204, 204, 204)" stroke-width="1px"></line><line x1="58.59375" y1="157.33333333333334" x2="53.59375" y2="157.33333333333334" style="visibility: inherit;" fill="rgb(0, 0, 0)" stroke="rgb(204, 204, 204)" stroke-width="1px"></line><line x1="58.59375" y1="137.66666666666669" x2="53.59375" y2="137.66666666666669" style="visibility: inherit;" fill="rgb(0, 0, 0)" stroke="rgb(204, 204, 204)" stroke-width="1px"></line><line x1="58.59375" y1="118" x2="53.59375" y2="118" style="visibility: inherit;" fill="rgb(0, 0, 0)" stroke="rgb(204, 204, 204)" stroke-width="1px"></line><line x1="58.59375" y1="98.33333333333334" x2="53.59375" y2="98.33333333333334" style="visibility: inherit;" fill="rgb(0, 0, 0)" stroke="rgb(204, 204, 204)" stroke-width="1px"></line><line x1="58.59375" y1="78.66666666666666" x2="53.59375" y2="78.66666666666666" style="visibility: inherit;" fill="rgb(0, 0, 0)" stroke="rgb(204, 204, 204)" stroke-width="1px"></line><line x1="58.59375" y1="59" x2="53.59375" y2="59" style="visibility: inherit;" fill="rgb(0, 0, 0)" stroke="rgb(204, 204, 204)" stroke-width="1px"></line><line x1="58.59375" y1="39.33333333333334" x2="53.59375" y2="39.33333333333334" style="visibility: inherit;" fill="rgb(0, 0, 0)" stroke="rgb(204, 204, 204)" stroke-width="1px"></line><line x1="58.59375" y1="19.666666666666686" x2="53.59375" y2="19.666666666666686" style="visibility: inherit;" fill="rgb(0, 0, 0)" stroke="rgb(204, 204, 204)" stroke-width="1px"></line><line x1="58.59375" y1="0" x2="53.59375" y2="0" style="visibility: inherit;" fill="rgb(0, 0, 0)" stroke="rgb(204, 204, 204)" stroke-width="1px"></line></g><g transform="translate(48.59375, 0)"><text x="0" y="177" dx="0em" dy="0.3em" style="text-anchor: end; visibility: hidden; font-family: &quot;Helvetica Neue&quot;, sans-serif; font-size: 12px; font-weight: 200;" fill="rgb(50, 49, 63)" stroke="none" stroke-width="1px">-1e+4</text><text x="0" y="157.33333333333334" dx="0em" dy="0.3em" style="text-anchor: end; visibility: inherit; font-family: &quot;Helvetica Neue&quot;, sans-serif; font-size: 12px; font-weight: 200;" fill="rgb(50, 49, 63)" stroke="none" stroke-width="1px">0</text><text x="0" y="137.66666666666669" dx="0em" dy="0.3em" style="text-anchor: end; visibility: hidden; font-family: &quot;Helvetica Neue&quot;, sans-serif; font-size: 12px; font-weight: 200;" fill="rgb(50, 49, 63)" stroke="none" stroke-width="1px">1e+4</text><text x="0" y="118" dx="0em" dy="0.3em" style="text-anchor: end; visibility: inherit; font-family: &quot;Helvetica Neue&quot;, sans-serif; font-size: 12px; font-weight: 200;" fill="rgb(50, 49, 63)" stroke="none" stroke-width="1px">2e+4</text><text x="0" y="98.33333333333334" dx="0em" dy="0.3em" style="text-anchor: end; visibility: hidden; font-family: &quot;Helvetica Neue&quot;, sans-serif; font-size: 12px; font-weight: 200;" fill="rgb(50, 49, 63)" stroke="none" stroke-width="1px">3e+4</text><text x="0" y="78.66666666666666" dx="0em" dy="0.3em" style="text-anchor: end; visibility: inherit; font-family: &quot;Helvetica Neue&quot;, sans-serif; font-size: 12px; font-weight: 200;" fill="rgb(50, 49, 63)" stroke="none" stroke-width="1px">4e+4</text><text x="0" y="59" dx="0em" dy="0.3em" style="text-anchor: end; visibility: hidden; font-family: &quot;Helvetica Neue&quot;, sans-serif; font-size: 12px; font-weight: 200;" fill="rgb(50, 49, 63)" stroke="none" stroke-width="1px">5e+4</text><text x="0" y="39.33333333333334" dx="0em" dy="0.3em" style="text-anchor: end; visibility: inherit; font-family: &quot;Helvetica Neue&quot;, sans-serif; font-size: 12px; font-weight: 200;" fill="rgb(50, 49, 63)" stroke="none" stroke-width="1px">6e+4</text><text x="0" y="19.666666666666686" dx="0em" dy="0.3em" style="text-anchor: end; visibility: hidden; font-family: &quot;Helvetica Neue&quot;, sans-serif; font-size: 12px; font-weight: 200;" fill="rgb(50, 49, 63)" stroke="none" stroke-width="1px">7e+4</text><text x="0" y="0" dx="0em" dy="0.3em" style="text-anchor: end; visibility: hidden; font-family: &quot;Helvetica Neue&quot;, sans-serif; font-size: 12px; font-weight: 200;" fill="rgb(50, 49, 63)" stroke="none" stroke-width="1px">8e+4</text></g><line x1="58.59375" y1="0" x2="58.59375" y2="177" fill="rgb(0, 0, 0)" stroke="rgb(204, 204, 204)" stroke-width="1px"></line></g></g><g transform="translate(58, 0)" clip-path="url(#clip_0)"><clipPath id="clip_0"><rect width="271" height="177"></rect></clipPath><g><g><g><line x1="0" y1="0" x2="0" y2="177" fill="rgb(0, 0, 0)" stroke="rgb(60, 60, 60)" stroke-width="1px" opacity="0.25"></line><line x1="30.15625" y1="0" x2="30.15625" y2="177" fill="rgb(0, 0, 0)" stroke="rgb(60, 60, 60)" stroke-width="1px" opacity="0.25"></line><line x1="60.3125" y1="0" x2="60.3125" y2="177" fill="rgb(0, 0, 0)" stroke="rgb(60, 60, 60)" stroke-width="1px" opacity="0.25"></line><line x1="90.46875" y1="0" x2="90.46875" y2="177" fill="rgb(0, 0, 0)" stroke="rgb(60, 60, 60)" stroke-width="1px" opacity="0.25"></line><line x1="120.625" y1="0" x2="120.625" y2="177" fill="rgb(0, 0, 0)" stroke="rgb(60, 60, 60)" stroke-width="1px" opacity="0.25"></line><line x1="150.78125" y1="0" x2="150.78125" y2="177" fill="rgb(0, 0, 0)" stroke="rgb(60, 60, 60)" stroke-width="1px" opacity="0.25"></line><line x1="180.9375" y1="0" x2="180.9375" y2="177" fill="rgb(0, 0, 0)" stroke="rgb(60, 60, 60)" stroke-width="1px" opacity="0.25"></line><line x1="211.09375" y1="0" x2="211.09375" y2="177" fill="rgb(0, 0, 0)" stroke="rgb(60, 60, 60)" stroke-width="1px" opacity="0.25"></line><line x1="241.25" y1="0" x2="241.25" y2="177" fill="rgb(0, 0, 0)" stroke="rgb(60, 60, 60)" stroke-width="1px" opacity="0.25"></line><line x1="271.40625" y1="0" x2="271.40625" y2="177" fill="rgb(0, 0, 0)" stroke="rgb(60, 60, 60)" stroke-width="1px" opacity="0.25"></line></g><g><line x1="0" y1="177" x2="271.40625" y2="177" fill="rgb(0, 0, 0)" stroke="rgb(60, 60, 60)" stroke-width="1px" opacity="0.25"></line><line x1="0" y1="157.33333333333334" x2="271.40625" y2="157.33333333333334" fill="rgb(0, 0, 0)" stroke="rgb(60, 60, 60)" stroke-width="1px" opacity="0.25"></line><line x1="0" y1="137.66666666666669" x2="271.40625" y2="137.66666666666669" fill="rgb(0, 0, 0)" stroke="rgb(60, 60, 60)" stroke-width="1px" opacity="0.25"></line><line x1="0" y1="118" x2="271.40625" y2="118" fill="rgb(0, 0, 0)" stroke="rgb(60, 60, 60)" stroke-width="1px" opacity="0.25"></line><line x1="0" y1="98.33333333333334" x2="271.40625" y2="98.33333333333334" fill="rgb(0, 0, 0)" stroke="rgb(60, 60, 60)" stroke-width="1px" opacity="0.25"></line><line x1="0" y1="78.66666666666666" x2="271.40625" y2="78.66666666666666" fill="rgb(0, 0, 0)" stroke="rgb(60, 60, 60)" stroke-width="1px" opacity="0.25"></line><line x1="0" y1="59" x2="271.40625" y2="59" fill="rgb(0, 0, 0)" stroke="rgb(60, 60, 60)" stroke-width="1px" opacity="0.25"></line><line x1="0" y1="39.33333333333334" x2="271.40625" y2="39.33333333333334" fill="rgb(0, 0, 0)" stroke="rgb(60, 60, 60)" stroke-width="1px" opacity="0.25"></line><line x1="0" y1="19.666666666666686" x2="271.40625" y2="19.666666666666686" fill="rgb(0, 0, 0)" stroke="rgb(60, 60, 60)" stroke-width="1px" opacity="0.25"></line><line x1="0" y1="0" x2="271.40625" y2="0" fill="rgb(0, 0, 0)" stroke="rgb(60, 60, 60)" stroke-width="1px" opacity="0.25"></line></g></g></g><g><g><line x1="0" y1="157.33333333333334" x2="271.40625" y2="157.33333333333334" fill="rgb(0, 0, 0)" stroke="rgb(153, 153, 153)" stroke-width="1.5px"></line></g></g><g><g><line x1="30.15625" y1="0" x2="30.15625" y2="177" fill="rgb(0, 0, 0)" stroke="rgb(153, 153, 153)" stroke-width="1.5px"></line></g></g><g><g><g><g><g><path stroke="rgb(255, 112, 67)" stroke-width="2px" d="M30.2210859375,152.81L30.4095625,152.81L30.503046875,153.89856088560884L30.8724609375,153.5820267519628L30.9659453125,153.39350223437768L31.03078125,153.89856088560884L31.0413359375,154.25536135591295L31.1137109375,154.51954959415067L31.1333125,154.72204582257078L31.2343359375,154.94179710962817L31.3760703125,155.23299992899348L31.686679687500003,155.44347868768332L32.167671875,155.30133249804024L32.246078125000004,154.92729906203604L32.2566328125,154.31395338712665L32.3229765625,154.2017702949486L32.70746875,153.63348615323673L32.7723046875,153.14321751161847L32.776828125,152.71814087690936L32.987921875,152.7733753443173L33.048234375,152.82165371358062L33.2276640625,153.2348448718606L33.63628125,152.99401585822153L33.759921874999996,152.54659148855154L33.904671875,152.4478432214741L33.9061796875,152.36040975121463L34.206234375,152.15757392621464L34.7384921875,151.56233131932032L35.0279921875,150.49621612290977L35.052117187499995,148.8278714474226L35.141078125,147.17675760390307L35.613023437500004,147.08803540367867L35.6160390625,147.008782704926L35.6914296875,147.2211441422202L35.919109375,147.06820133161503L36.12266406249999,146.97153683539418L36.666984375,146.90503478558088L36.7921328125,146.24447745444547L36.9308515625,145.1924181925594L36.956484374999995,145.02740398427377L37.2082890625,145.0786790204566L37.37716406249999,144.4081161273254L37.65309375,144.83995772163274L37.8988671875,144.27447807642292L38.217015625,143.98483561324758L38.238125000000004,144.18055613602257L38.78696875,144.11873010062556L38.999570312500005,143.94441464280402L39.06440625,143.80752261101304L39.1895546875,143.36817270593025L39.5061953125,143.2300480917798L39.53484375,142.71087596850384L40.25859375,142.87574112019874L40.2766875,143.0240016685314L40.492304687499995,142.78253331913334L40.661179687499995,142.90060337253027L40.94615625,142.96737429458403L41.2884296875,142.8894640187452L41.4060390625,143.19379192841316L41.410562500000005,142.95531752795128L41.915679687499996,142.20891193981265L41.968453125,140.69047721179282L42.3197734375,139.44246123074993L42.4916640625,139.4025013275448L42.553484375000004,139.366546375727L42.971148437500005,138.15306619190437L42.98622656249999,137.06115440299948L43.126453125000005,136.62970521344877L43.5441171875,135.9068981414924L43.6300625,135.3745414306083L44.1201015625,134.26579537583723L44.433726562500006,134.2518754401521L44.5633984375,133.49167398776197L44.583,132.80755868366919L44.7805234375,132.1919083651069L45.8375,132.07067715986125L45.958125,131.76485112399797L46.0229609375,131.48962511052926L46.151125,132.2058364593838L46.4119765625,131.86684541921392L46.595929687499996,131.81748450493487L46.600453124999994,131.7730615264914L46.692429687499995,131.85110113638123L46.773851562500006,131.29191086778383L46.8974921875,131.6344306351224L47.5458515625,131.11659411419075L47.597117187500004,130.49320289441786L47.776546875,130.51238440892288L47.888124999999995,130.8935115605369L48.204765625,130.68581124909096L48.2123046875,130.49888397518694L48.498789062499995,130.27164822305915L48.6887734375,130.08680646921644L49.573859375,130.0777920384206L49.8105859375,129.77466586603518L49.851296874999996,129.19700922704877L50.659484375,130.2800144307269L50.6941640625,131.25471161644526L50.9806484375,131.56158284472195L51.600359375,132.78179030400014L51.710429687499996,131.97225858820144L51.776773437500005,129.5326469084538L51.941125,130.20839530230015L52.229117187499995,129.59721178768214L52.2743515625,129.87316160364384L52.44171875,129.53150728721653L52.583453125,130.40403430994965L53.488140625,130.61896666978407L53.53940625,130.81240532670597L53.9269140625,129.7081545671416L54.4576640625,129.68783894109166L54.766765625,129.9350569015433L55.574953125,128.64320915607942L55.8900859375,124.90419885409719L55.936828125,123.82043970853928L56.268546875,122.17638764585702L56.30171875,121.16874441772141L56.6093125,120.4388670661301L56.630421875,119.78197800256552L57.97840625,119.15144483282893L58.9811015625,117.93496348072688L59.061015625,116.84013093557911L59.606843749999996,116.48411700392157L59.7711953125,115.47536983295507L59.7923046875,114.46916426432239L59.90840625,112.77691160039109L60.30646875,112.82722051805604L60.393921875000004,111.86949713493398L60.407492187500004,111.00754634307458L60.5220859375,112.59179349257944L60.6819140625,112.71961427285146L60.693976562500005,112.83465295048553L60.80103125,112.36785393894056L60.9774453125,112.73440214916656L61.126718749999995,112.31696165670495L61.185523437499995,111.29226487787044L61.48859375,109.99637102551667L61.493117187500005,108.83006669099937L61.6031875,108.8030600101185L61.9424453125,107.55942018751917L62.0389453125,105.98781094678685L62.1716328125,109.29336423662976L62.3028125,108.78736100147893L62.61040625,110.59362536659849L63.1004453125,111.29492965918651L63.699046875,110.9231032823551L63.8272109375,109.80179274356011L63.8694296875,108.79261329865095L65.0455234375,108.67101861695775L65.0606015625,107.36191657605708L65.1269453125,108.05205833681177L65.1661484375,108.67318590533586L65.2686796875,109.23220070392186L65.381765625,109.14531395905932L65.48128125,108.98844921714019L65.6516640625,107.96227088743862L65.8476796875,107.33371042420657L65.864265625,106.76800601511717L65.894421875,106.25887205327041L66.25177343749999,105.34831813781496L66.56690625,105.29581965511157L66.7704609375,105.03223767940975L66.77347656250001,104.79501390321434L66.8307734375,103.67684581120926L67.281609375,103.77182789943204L67.429375,105.70597849188437L67.4414375,105.55871397266725L67.70379687500001,104.08884254519955L67.7535546875,102.76595826621681L68.23454687499999,102.55869576947904L68.3536640625,103.53249287378382L68.442625,103.50424358602463L69.0774140625,105.36681925002007L69.1301875,105.43047065904643L69.241765625,104.15042358056223L69.81775,104.94538122953713L70.562609375,104.08750976642128L70.56411718749999,103.31542545091446L71.10089843749999,107.02588292974717L71.10843750000001,110.36529465615101L71.630140625,109.64393185343512L71.77790625,107.43120532435752L71.83067968750001,106.58041812165597L72.112640625,105.67704297271757L72.2498515625,104.43133867117726L73.03692968749999,102.13020479696296L73.19524999999999,101.5735176490549L73.83908593749999,100.22683254745205L73.87828906249999,99.62448262468597L73.9778046875,99.16103436127966L74.187390625,96.56093092041681L74.280875,96.08917116093527L74.5945,95.93992071128825L74.618625,95.80559530664777L74.80559375,96.27470244321015L75.13429687499999,95.02523219754556L75.399671875,95.57237564498719L75.43887500000001,95.6911380805919L75.6544921875,92.82835760362194L75.8851875,93.83118851063391L76.1008046875,94.47806965998124L76.31491406250001,93.78192936025197L76.4566484375,94.61073642465304L76.4777578125,95.35666278253301L77.5121171875,93.19599650337958L77.56790625,93.10006351967232L77.94938281249999,91.83372383394442L78.22682031250001,90.49735145014415L78.3112578125,91.00561630526865L78.4137890625,88.69005467417217L78.719875,92.7813825409941L79.06365625000001,93.45457762036216L79.22499218749999,92.50678652482264L79.398390625,92.16510787228523L79.5567109375,90.77593041818827L79.7557421875,91.47267070979385L79.76780468749999,92.09973697222158L79.96683593750001,93.01809660843L80.188484375,93.45128694762828L80.32418750000001,94.60815825296467L80.481,94.84300909435302L80.52321875,95.05437485159908L81.026828125,95.50027069980037L81.044921875,95.90157696317625L81.07357031250001,96.26275260021026L81.099203125,96.58781067353738L81.18062499999999,96.95902960619887L81.2364140625,96.82112664557387L81.292203125,96.65768064767774L81.4776640625,96.6777459162439L81.63598437499999,94.8373046579033L81.9692109375,92.98424085873474L82.000875,91.31648343949156L82.214984375,92.58850176223406L82.32656250000001,90.80298491931245L82.604,91.30035309405578L83.43329687500001,92.8689844513393L83.46496093750001,94.28075267289023L83.499640625,93.89934407226343L83.65946875,94.83440966504686L83.795171875,95.30230203187989L84.09371875,95.58573849536096L84.211328125,95.82116464582666L84.368140625,96.15104818124624L84.3937734375,94.52061002977825L84.494796875,93.62354902679544L84.8099296875,92.42286079077658L84.85365625,92.28624137836496L85.387421875,92.94995057386447L85.43265625,93.68495551648071L85.5955,91.98645996482708L85.7206484375,93.66348063501599L85.80659375,93.16679923817972L86.2513984375,93.46711931436248L86.684140625,93.16707404959223L87.0987890625,90.9303666446287L87.26766406249999,88.32732998016132L87.7441328125,89.15093031547981L88.1165625,89.36117061726547L88.1406875,89.55038688887251L88.5402578125,89.42568153331844L88.7211953125,88.92011337998608L88.933796875,89.50743537532134L89.4087578125,88.24635850445485L90.0209296875,86.87538932067498L90.140046875,85.64151705527333L90.2863046875,85.10136534974568L90.333046875,84.61522881477083L90.50041406250001,85.65270593329427L90.9165703125,85.36710200663138L91.22416406250001,83.87105847263432L91.4699375,84.45195262537108L91.47596874999999,84.97475736283414L91.5257265625,85.83861495988431L91.5558828125,87.16675346389623L91.665953125,87.77207811750674L92.0383828125,89.35920363908974L92.3459765625,89.6469499418475L92.3866875,89.90592161432946L92.492234375,89.86366278622984L92.79078125000001,88.6062965076067L92.81490624999999,87.16000019017916L93.6879296875,87.74633350449466L94.1643984375,87.72336682071185L94.19153906250001,88.41069680530741L94.5081796875,87.5346271247766L95.7747421875,86.47083107896553L95.90893750000001,87.44074797106906L95.9571875,85.36367317396201L96.06575000000001,86.52297252323254L96.1064609375,87.566341937576L96.1124921875,88.50537441048513L96.207484375,86.69550363610323L96.490953125,88.56728660582628L96.611578125,90.35022461191038L96.8030703125,90.20453548405267L96.81362499999999,90.07341526898074L96.87996875,87.57574040874927L96.9598828125,85.32783303454096L97.7318828125,85.35004973108686L97.95503906249999,83.65904475797812L98.4767421875,84.22180694884699L98.4903125,84.72829292062899L98.57022656250001,85.18413029523273L98.77378125,86.12538393237614L99.0014609375,86.9725122058052L99.9966171875,87.55792765189135L100.0207421875,88.08480155336889L100.139859375,87.20198806469865L100.26953125,88.5707892582288L101.478796875,86.61671033240592L101.907015625,86.39203929916533L101.98692968750001,86.40616870258212L102.03367187500001,86.41888516565723L102.087953125,86.43032998242484L102.1467578125,83.80529698418236L102.3548359375,83.82243395243079L102.45284375,83.83785722385437L102.4875234375,84.99240483480226L102.6473515625,85.51033101798869L102.805671875,87.26463124952316L102.87503125,85.73616812457085L103.3198359375,83.25921797878041L103.8053515625,82.01329618090237L104.4506953125,81.02963322947882L104.5698125,83.48766990653093L104.75979687499999,84.55923624921115L105.55742968749999,81.57064595762337L105.6328203125,78.88091469519435L105.773046875,77.99415655900825L105.797171875,79.49707423644075L105.84240625,80.57436681279667L105.95247656250001,80.63926346485034L106.496796875,79.34067045169864L106.78328125,80.39427007319547L107.02453125,80.59517639920924L107.2582421875,80.77599209262165L107.39846875,83.63305955002616L107.4813984375,86.20442026169019L108.25942968749999,85.09664490218785L108.2714921875,84.09964707863573L108.4946484375,84.00868237077215L108.56551562499999,84.39881413369494L109.00428906249999,84.14026605365876L109.096265625,86.16923944829288L109.33299218750001,88.15264883679693L109.5923359375,86.51571728645057L109.9300859375,85.49481222447217L109.97984375,84.57599766869161L110.2105390625,85.08639790182245L110.23315625,85.5457581116402L110.7774765625,85.13318230047618L111.1363359375,83.44419740376189L111.146890625,81.92411099671904L111.15292187499999,80.55603323038045L111.15895312500001,79.89509657400907L111.3715546875,81.48325358327484L111.4378984375,80.55259489161402L111.6881953125,81.24900206911929L111.7424765625,81.87576852887403L111.76509375,82.43985834265328L111.943015625,80.37120584172128L112.62153125,83.03275192421583L112.79643750000001,80.59014339846091L112.992453125,82.26612905861481L113.06030468750001,83.26318281941998L113.378453125,82.72486453747798L113.53828125,82.1223780837302L113.9061875,84.88414027535718L113.91825,87.36972624782148L114.16251562500001,86.34208695637265L114.2424296875,86.7348782607354L115.10339062499999,84.88572376799519L115.35971875,85.67981805786233L115.38082812500001,86.39450291874277L115.5120078125,84.46138596020182L115.78190624999999,85.39624736418165L115.83166406250001,83.18928929443017L116.1015625,85.54936036498714L116.55390625000001,90.26942432848843L116.562953125,94.51748189563959L116.8328515625,95.35140037274228L117.2490078125,96.35759366880139L118.0556875,93.95916763525459L118.27432031250001,92.94125087172911L118.4492265625,91.1991257845562L118.577390625,89.49354653943392L118.69500000000001,89.8858585521572L118.7357109375,90.23893936360815L118.76134375000001,90.556712093914L119.51675781249999,88.6400408845226L119.587625,86.91503679607035L119.7700703125,85.16586644979664L120.0836953125,83.76861313815031L120.1289296875,84.1827518243353L120.89640625,82.05780997523509L120.905453125,80.1453623110449L120.938625,78.42415941327376L121.074328125,76.8750768052797L121.34271874999999,77.32956912475173L122.443421875,76.44061221227653L122.5504765625,75.6405509910489L122.7947421875,76.72982922527733L122.9394921875,77.71017963608294L123.15963281249999,76.25216167247463L123.85171874999999,79.5812788385605L123.97234375000001,80.59115095470446L124.42016406249999,79.65136919256733L124.46690625000001,80.49689893997726L124.9599609375,79.97954237931287L125.18613281249999,78.37325480804826L125.4816640625,78.93359599391009L125.6897421875,76.70423639451906L125.79528906249999,77.72647942173383L125.79679687500001,78.6464981462271L125.92345312500001,79.47451499827106L126.1616875,80.75073016511062L126.454203125,79.81465714859955L126.6396640625,78.0281914337396L126.8055234375,79.42937229036563L126.997015625,79.13676839466241L127.42824999999999,80.15175822186283L127.44332812500001,81.06524906634321L127.693625,81.86772415970889L127.99820312499999,82.62928507707133L128.534984375,80.6203565693642L128.6058515625,78.81232091242778L128.8440859375,77.55875548785167L128.89082812499998,77.47287993906649L129.071765625,76.54992527849318L129.13509375,76.07326608397719L129.234609375,74.03160614224613L129.53315625,75.45877886135486L129.747265625,77.35290097521938L130.12271093750002,77.58261087769745L130.86003125,76.53068312326103L131.1027890625,75.60361481093493L131.1450078125,74.76925332984142L131.212859375,74.01832799685728L131.8446328125,73.42116186383821L133.0855625,74.81104567745437L133.112703125,76.06194110970895L133.2589609375,74.86708033207137L133.33585937499998,73.79170563219756L133.57861718750002,77.81920173564448L134.089765625,76.5469482287467L134.1787265625,77.44725340587203L134.45465625,74.42252806528482L134.475765625,71.70027525875634L134.882875,71.61024773288071L134.9145390625,71.33255629292596L135.2809375,71.59396733030005L135.40005468750002,70.19690393060336L135.57646875,74.46588020420968L136.4012421875,75.5152921837887L136.5791640625,74.2964296320765L136.69375781250002,75.04812000220217L137.08428125,72.79430800198197L137.2064140625,70.84454386845043L137.85778906250002,71.88242281493872L138.04777343749998,71.20384720011151L138.0869765625,70.59312914676704L138.2618828125,69.84681623209033L138.4940859375,69.90280127554796L138.5785234375,70.6808544813265L138.655421875,71.38110236652719L138.68859375,72.01132546320777L138.7383515625,73.93552625022032L138.776046875,72.5599736251983L139.16807812500002,71.43997626267847L139.17109375,70.4319786364106L139.32489062500002,72.47478077276955L139.3294140625,74.31330269549258L139.5616171875,72.52630575927665L139.81040625,73.14034185001566L140.036578125,72.29664099834743L140.241640625,72.97297689851268L140.49796875,72.00834587532806L140.7075546875,71.33684462112859L141.417734375,73.1908268256824L141.4252734375,74.85941080978083L141.496140625,76.36113639546939L141.586609375,75.33302275592246L141.62128906249998,74.40772048033021L142.01784375,76.58394843229719L142.02839843750002,78.54255358906747L143.094421875,77.78796489682739L143.50153125000003,76.93183507381131L143.950859375,77.36098489976352L143.978,77.09821974312051L144.098625,77.31406443547512L144.6429453125,78.4326579919276L144.90078125,77.11872552606816L145.0802109375,75.03151964012802L145.40137499999997,74.3920343427819L145.4782734375,73.81649757517036L145.69539843750002,75.79618115098665L145.766265625,75.00156303588798L145.9426796875,72.69340673229918L146.1175859375,71.89439939240259L146.128140625,71.17529278649566L146.5578671875,70.72476350784609L147.0584609375,71.44028715706148L147.4685859375,73.26425844135532L147.61785937500002,73.76516593055312L147.9706875,72.24931600416448L148.0807578125,71.27838440374803L148.166703125,70.81754596337323L148.9356875,72.72345803370256L149.03821875,74.43877889699897L149.15432031249998,72.79656767396574L149.1754296875,71.31857757323581L149.234234375,71.01105314924558L149.28248437500002,70.41961450098768L149.740859375,71.91298638422225L149.9052109375,73.51268774580002L150.175109375,72.74975230455335L150.74506250000002,72.25977707409803L150.8295,71.89746603335489L150.83553125,71.57138609668604L150.93353906250002,74.44424748701744L151.03154687499998,75.4368227383157L151.3708046875,74.08814046448413L151.3949296875,72.67765975136906L151.6120546875,74.8105604428988L151.6512578125,76.7301710652756L151.70704687499997,78.45782062541471L152.2845390625,77.73137189620657L152.3131875,77.07756803991926L152.46698437499998,75.74181123592733L152.86504687500002,74.97229677900127L153.0354296875,76.12840043443447L153.088203125,76.12656039099103L153.7260078125,74.0795710185586L154.9081328125,75.50194725003607L154.9593984375,73.83208585836577L155.078515625,72.68321060586253L155.41928124999998,72.61288954527627L155.49768749999998,74.00493392408198L155.70878125,73.50744053167377L156.0751796875,73.04002981183973L156.4551484375,72.89469349732242L156.69790625,74.76989081425684L157.062796875,72.64223506616447L157.111046875,72.46784489288136L157.430703125,72.08472707025989L157.72020312499998,71.18925436323391L157.8483671875,70.38332892691051L158.0473984375,69.14666270088613L158.3519765625,69.6659964307975L158.4002265625,70.78239678771777L158.456015625,69.05349044227931L158.576640625,67.49747473138471L158.80432031249998,65.9593939249129L159.0877890625,68.11512119908828L159.13453125,70.05527574584612L159.1842890625,71.80141483792816L159.35617968749997,69.85260668746868L159.451171875,68.64934601872181L159.807015625,68.19574475018295L159.8507421875,67.78750360849799L161.0057265625,67.89208658098151L161.02532812500002,66.3342112562167L161.133890625,64.93212346392836L161.3495078125,64.3585777842022L161.930015625,64.15705333911531L162.01596093749998,64.56568133853712L162.17578906249997,65.87744653801673L162.273796875,67.05803521754838L162.3416484375,65.81956502912688L162.587421875,68.38260852621418L163.05182812500001,68.2506810069261L163.8615234375,69.00711290623349L164.074125,67.37706828227681L164.7481171875,64.94636145404911L164.87628125,66.37739197531087L164.90040625,65.08898611111312L165.476390625,63.831087500001814L165.5020234375,66.02264541666828L165.69803906250002,64.33704754166814L165.820171875,63.351009454167965L165.91365625,64.0172418420845L166.218234375,64.47918432454273L166.5393984375,64.89493255875512L167.4802734375,64.28577263621293L167.51042968750002,62.14452870592497L167.8210390625,63.8459091686658L168.0833984375,65.05265158513255L168.3095703125,66.13871975995262L168.3397265625,67.1161811172907L168.34425,67.99589633889495L168.47241406249998,67.82397337167212L168.4769375,67.66924270117157L169.0182421875,65.93698509772108L169.0574453125,67.42628658794897L169.97570312500002,66.78032459582074L170.0646640625,66.63162546957201L170.5743046875,69.6444629226148L170.7205625,68.20634996368666L171.09449999999998,68.26904830065133L171.742859375,68.05014347058618L172.4651015625,67.67612912352757L172.7003203125,69.62084954450815L173.0742578125,68.99143125672398L173.23559375,67.77595479771826L173.485890625,65.9150259846131L173.6773828125,65.63652338615177L173.883953125,65.36620438086993L173.968390625,65.85058394278293L174.016640625,68.17452554850465L174.12369531250002,69.4794063269875L174.6966640625,70.20146569428874L174.830859375,70.85131912485988L174.86553906249998,69.88252054570722L175.361609375,71.42960182446983L175.7144375,70.42264164202285L175.81244531250002,71.58137747782057L176.4427109375,70.40190639670519L176.6507890625,69.98938242370133L176.75633593749998,69.65744418133119L176.8618828125,69.35869976319808L177.0428203125,68.01799645354492L177.1091640625,66.81136347485709L177.3142265625,65.59756046070473L177.53436718749998,65.60647108130092L177.61578906250003,65.6144906398375L177.7364140625,67.45070824252042L177.90227343749999,68.27730408493503L178.13296875,68.0772403431082L178.2430390625,68.40851630879736L178.5325390625,67.31033134458431L178.6380859375,66.65629821012585L178.71196874999998,66.02833505577993L179.514125,68.15750155020194L180.1941484375,67.22208472851509L180.35397656249998,67.14720958899692L180.35699218750003,67.07982196343056L180.7641015625,64.69850643375416L181.3672265625,66.3313224570454L181.79242968749998,66.9355235446742L181.827109375,67.47930452354011L182.07137500000002,67.22137407118609L182.2327109375,65.94690333073413L182.321671875,67.14021299766073L182.3352421875,68.21419169789465L182.44229687499998,65.71943919477185L182.5553828125,63.454495275294676L182.68053125,60.15737908109854L182.7996484375,59.903974506322L182.95193749999999,60.01024372235646L182.98209375000002,58.43421935012083L183.0966875,57.01579741510872L183.1826328125,56.93888434026452L183.19921875,56.869662572904744L183.83853125000002,57.31869631561426L183.8686875,57.7424933507195L184.41753125,54.64291068231422L184.72210937499997,54.94095294741612L184.770359375,55.209190986007826L184.85178125,55.45060522074037L184.987484375,56.76921136533299L185.2815078125,55.064956895466366L185.32825,55.22246120591973L185.4111796875,57.15388175199443L185.463953125,55.68649357679499L185.47903125,54.36584421911547L185.7730546875,56.264926463870594L186.1590546875,56.479433817483525L186.241984375,56.672490435735185L186.89034375,56.92490805882832L187.3864140625,57.66341725294548L187.4738671875,59.31140886098427L188.0317578125,58.94593464155251L188.18857031250002,56.78800784406393L188.2096796875,55.14087372632419L188.238328125,56.1561196870251L188.3001484375,55.16217438498927L188.3212578125,54.267623613157L188.343875,53.46252791850796L188.3634765625,52.73794179332381L188.42228125,53.60014761399145L188.618296875,53.80579951925897L188.877640625,53.87288623399972L189.1324609375,53.146597610599756L189.3978359375,52.02093784953979L189.5365546875,51.00784406458581L189.6451171875,50.509059658127214L189.66622656250001,50.0601536923145L190.30252343749999,50.16747165641637L190.38846875000002,50.264057824108065L190.5739296875,50.724652041697254L190.8393046875,48.87752017086086L190.9900859375,50.75510148710811L191.145390625,47.58725800506397L191.64899999999997,48.23686553789091L192.6456640625,49.942512317435146L192.7059765625,50.022261085691625L192.755734375,50.09403497712246L193.03317187500002,49.312964812743544L193.678515625,49.16066833146918L193.88508593749998,49.534934831655605L194.87421093749998,47.23644134849002L194.87571875,45.16779721364102L194.963171875,45.25301749227694L195.264734375,46.90304907638256L195.38385156249998,48.388077502077635L195.7487421875,49.68526975186987L196.112125,49.61374277668287L196.305125,50.98503516568125L196.3548828125,52.21919831577979L196.64739843750002,51.540278484201835L196.7378671875,50.92925063578163L196.9007109375,53.15232557220345L196.9549921875,51.219759681649776L196.98364062500002,49.48045038015148L197.128390625,51.258405342136314L197.8174609375,53.15356480792268L197.87928125,57.828874993797086L198.01196875,57.72965416108404L198.346703125,57.935355411642306L198.5773984375,60.559153203811405L198.862375,59.6755712167636L198.90459375,58.88034742842058L199.7414296875,57.49597935224517L200.03394531249998,54.99138141702065L200.09275000000002,52.73724327531859L200.3928046875,54.07151894778673L201.0260859375,53.08936705300806L201.23868750000003,50.76976368104059L201.428671875,50.42262064626986L201.657859375,49.294025248309524L202.0182265625,49.851622723478584L202.4886640625,51.07129378446406L202.74046875,52.31649773935098L202.75253124999998,51.27384796541588L203.2847890625,51.889129835540956L203.70094531249998,51.911883518653525L203.780859375,53.07302850012151L204.31914843750002,51.325392316776004L204.3372421875,49.75251975176508L204.709671875,47.76660110992188L204.72022656250002,45.97927433226303L204.8800546875,47.851680232370086L205.1228125,47.80617887579976L205.258515625,47.88322765488644L205.747046875,49.053904889397785L206.0048828125,47.88518106712468L206.078765625,46.71532962707886L206.1360625,45.66246333103763L206.18732812500002,47.232216997933875L206.24462499999998,48.644995298140486L206.3034296875,46.96649576832644L206.4783359375,47.127512858160486L206.5959453125,45.99409490567777L206.6170546875,44.97401874844334L206.64268750000002,44.055950206932295L206.80553125,43.760688519572426L206.88695312500002,47.58561966761519L207.52928125,49.061391034187L207.815765625,50.84191859743497L207.990671875,51.716726737691445L208.322390625,51.7370540639223L208.3661171875,51.755348657530064L209.06121875,52.7551471251104L209.4487265625,52.69129907926602L209.492453125,52.47650250467275L209.5844296875,50.69018558753881L210.0428046875,48.748167028784934L210.2961171875,52.52668365923975L211.06359375,51.99401529331577L211.08621093750003,50.078947097317524L211.53403125,52.387052387585754L212.38292968750002,52.75334714882719L212.4733984375,53.08301243394446L212.8925703125,53.24204452388335L212.894078125,53.385173404828336L213.06144531249998,53.513989397678856L213.1036640625,53.629923791244295L213.1488984375,53.95059807878651L213.21071875,55.30120493757454L213.385625,52.839084443817086L213.86209375,51.92117599943536L213.92542187499998,50.033058399491836L213.979703125,48.33375255954266L214.419984375,55.71337730358837L214.4667265625,54.27203957322955L214.90851562499998,53.9188356159066L215.0487421875,51.29995205431592L215.0668359375,48.942956848884336L215.22515625,54.33432783066257L215.7212265625,51.319895047596304L216.536953125,48.39057220950335L216.573140625,45.75418165521967L216.6228984375,43.38143015636439L217.2818125,41.79662047406126L217.381328125,42.92695842665512L217.423546875,41.938262583989626L217.9286640625,43.25110299225733L218.1985625,44.43265935969825L218.2724453125,43.214726757061754L218.27696875,42.11858741468893L218.2935546875,41.132062006553355L218.3598984375,41.286522472564684L218.69915625,43.05787022530822L219.07158593749998,42.292083202777405L220.8116015625,44.27754154916633L221.178,43.56678739424967L221.5519375,44.382441988158035L221.6318515625,46.23753112267556L221.796203125,47.90711134374135L221.9967421875,46.99073354270055L222.2741796875,45.71366018843048L222.4671796875,46.648960836254105L222.54709375000002,47.92339808596202L222.61042187500001,49.07039161069915L222.7747734375,47.30018578296256L222.785328125,45.70700053799962L222.83357812499997,44.273133817532994L222.881828125,43.01215376911304L222.9738046875,43.90293839220172L223.0009453125,44.70464455298156L223.32663281249998,44.50184676435006L223.61613281249998,41.95932875458172L223.77294531249998,45.197395879123576L223.86642968750002,48.11165629121123L224.1287890625,50.04615732875676L224.4424140625,50.5088749292144L224.8857109375,51.25965410295963L224.9460234375,51.93535535933033L225.1450546875,53.48748649006396L225.2777421875,54.294404507724224L225.2958359375,55.020630723618495L225.30789843750003,55.67423431792331L225.3501171875,53.39114421946431L225.4224921875,54.60102979751788L225.48732812499998,55.060593484432744L225.6788203125,51.93420080265615L225.9080078125,49.120447389057205L226.060296875,46.72573598348484L226.2804375,44.57049571846966L226.422171875,43.2994461466227L226.6498515625,42.391501531960415L227.233375,43.73768471209769L227.278609375,40.976582907554615L227.5696171875,38.49159128346582L227.66008593749999,39.716432155119236L227.69778125,40.81878893960729L228.42153125000002,40.21791004564659L228.4381171875,43.807119041081904L228.7065078125,42.10107380364039L228.7411875,44.06629975660971L228.7879296875,42.62933644761537L229.0020390625,40.13640280285384L229.0231484375,37.89276252256843L229.95196093750002,39.09881960364493L230.2082890625,39.2402709766138L230.5701640625,40.783577212285735L230.5942890625,38.435886157723814L230.79784375,38.525630875284804L231.00742968749998,37.19040112108962L231.17630468750002,36.559027675647314L231.4446953125,36.187458241415925L231.4929453125,35.853045750607635L231.6015078125,35.552074508880224L231.9935390625,35.45820039132553L232.2151875,37.32071368552633L232.77157031250002,37.63997565030701L232.791171875,37.927311418609634L232.91933593750002,36.86824694341536L233.177171875,39.553422249073776L233.454609375,38.88241335749976L233.4892890625,38.27850535508313L233.496828125,37.73498815290816L233.526984375,37.245822670950645L233.6868125,39.971907070522235L234.2055,37.154716363470015L234.63975000000002,38.41491139378968L235.02725781249998,40.11942025441073L235.535390625,43.207144895636304L235.6424453125,44.19643040607269L235.7600546875,39.167120698798726L236.23501562500002,37.86607529558552L236.2425546875,36.695134432693635L236.265171875,35.641287656090924L236.76275,37.01349222381518L236.811,38.24847633476699L237.1080390625,37.17696203462364L237.4548359375,37.72693249782793L237.57998437499998,37.789239248045135L237.6086328125,37.84531532324064L237.7639375,36.58795045758322L237.8498828125,37.76715541182489L238.1846171875,40.657439870642406L238.47110156250002,39.83669588357819L238.9053515625,39.15702629522036L238.9475703125,38.545323665698334L239.07724218750002,37.99479129912848L239.65171875000001,38.48264550254896L239.684890625,44.861047618960754L240.13271093749998,47.21894285706469L240.35134375,47.708715238024865L240.42070312500002,48.14951038088907L241.2138125,46.18622600946679L241.274125,48.01827007518682L241.2861875,49.6671097343348L241.31935937499998,50.856065427567984L241.3344375,51.92612555147784L241.44903125,47.36284632966337L241.500296875,45.75356169669706L241.6314765625,45.032872193694004L241.67821874999998,44.38425164099124L242.3823671875,43.367826476892134L242.64925,42.453043829202926L242.742734375,43.045739446282596L243.0940546875,41.80916550165435L243.1031015625,40.69624895148894L244.045484375,37.786957389673375L244.099765625,35.168594984039345L244.24602343749999,38.358068818968746L244.53703125,38.45559527040521L244.5626640625,39.841369076698015L244.564171875,41.088565502361575L245.01500781250002,40.08704228545875L245.0692890625,39.1856713902462L245.3995,37.587770917888236L245.6121015625,37.21166049276607L246.0553984375,39.567494443489466L246.2906171875,38.226411665807206L246.50623437500002,37.25543716589314L246.63590624999998,39.115226782637194L246.650984375,40.78903743770681L246.8635859375,43.573800360602746L246.9314375,41.183086991209166L246.9691328125,39.03144495875489L247.15911718750002,38.84530046287941L247.2646640625,39.62177041659146L247.519484375,40.47792670826564L247.6235234375,41.2484673707724L247.71248437499997,41.941953967028496L247.89191406249998,40.284758570325664L248.0788828125,39.56028271329308L248.110546875,38.90825444196378L249.2127578125,40.6224289977674L249.71335156249998,42.263519431324L249.7299375,43.740500821524904L249.862625,45.069784072705744L249.9214296875,45.007472332101855L249.98325,44.95139176555833L250.1958515625,45.09758592233581L250.7688203125,43.36082733010224L250.89999999999998,41.915744597092015L251.3478203125,41.7361701373828L252.2525078125,41.18121979031119L252.3429765625,44.45776447794674L252.3580546875,47.40665469681875L252.54653125,45.871655893803535L253.409,46.456823637756514L253.59898437500001,43.97447460731419L253.7482578125,43.68736047991612L253.9533203125,43.42895776525782L254.13727343750003,41.15106198873204L254.22472656250002,40.851289123192146L254.328765625,40.58149354420627L254.33479687500002,40.338677523118974L254.48708593749998,36.993143104140415L254.6167578125,36.224162127059714L254.639375,35.53207924768711L255.4882734375,35.93187132291837L255.65865625,36.48835085729323L255.85165625000002,36.812182438230536L255.8742734375,37.10363086107415L255.9798203125,37.365934441633385L256.1577421875,36.20567433080339L256.234640625,38.36710689772303L256.3386796875,37.441062874617415L256.3447109375,36.60762325382234L257.139328125,38.39452759510678L257.16797656250003,40.00274150226275L257.2886015625,40.56513401870316L257.4725546875,40.22562061683283L257.630875,39.310391888482854L257.9007734375,37.6803526996346L257.92188281250003,36.21331742967112L257.9761640625,34.89298568670401L258.037984375,34.589687118033595L258.17971875,34.31671840623025L258.2536015625,34.07104656560722L258.2777265625,33.84994190904649L258.399859375,35.735614384808514L258.5250078125,37.000052946327656L258.6561875,38.138047651694876L258.683328125,39.162242886525405L258.8868828125,40.63468526453954L259.0919453125,39.97355007141891L259.67546875,38.906528397610344L259.73125781249996,37.946208891182636L260.13384375,37.750588002064376L260.444453125,37.00419586852459L260.5002421875,35.742442948338805L261.162171875,35.137865320171585" style="fill: none;" fill="none"></path></g></g></g></g><g opacity="0.2"><g><g><g><path stroke="rgb(255, 112, 67)" stroke-width="2px" d="M30.2210859375,152.81L30.4095625,152.81L30.503046875,155.76L30.8724609375,152.81L30.9659453125,152.81L31.03078125,155.76L31.0413359375,155.76L31.1137109375,155.76L31.1333125,155.76L31.2343359375,156.15333333333334L31.3760703125,156.94L31.686679687500003,156.74333333333334L32.167671875,154.38333333333333L32.246078125000004,152.41666666666666L32.2566328125,150.05666666666667L32.3229765625,153.4L32.70746875,149.46666666666667L32.7723046875,149.46666666666667L32.776828125,149.46666666666667L32.987921875,153.20333333333332L33.048234375,153.20333333333332L33.2276640625,156.54666666666668L33.63628125,151.04L33.759921874999996,148.87666666666667L33.904671875,151.63L33.9061796875,151.63L34.206234375,150.45L34.7384921875,146.51666666666665L35.0279921875,141.40333333333334L35.052117187499995,134.52L35.141078125,132.94666666666666L35.613023437500004,146.32L35.6160390625,146.32L35.6914296875,149.07333333333332L35.919109375,145.73L36.12266406249999,146.12333333333333L36.666984375,146.32L36.7921328125,140.42000000000002L36.9308515625,135.89666666666668L36.956484374999995,143.56666666666666L37.2082890625,145.53333333333333L37.37716406249999,138.45333333333332L37.65309375,148.68L37.8988671875,139.24L38.217015625,141.40333333333334L38.238125000000004,145.92666666666668L38.78696875,143.56666666666666L38.999570312500005,142.38666666666666L39.06440625,142.58333333333334L39.1895546875,139.43666666666667L39.5061953125,141.99333333333334L39.53484375,138.06L40.25859375,144.35333333333332L40.2766875,144.35333333333332L40.492304687499995,140.61666666666667L40.661179687499995,143.96L40.94615625,143.56666666666666L41.2884296875,142.19L41.4060390625,145.92666666666668L41.410562500000005,140.81333333333333L41.915679687499996,135.50333333333333L41.968453125,127.04666666666667L42.3197734375,128.22666666666666L42.4916640625,139.04333333333335L42.553484375000004,139.04333333333335L42.971148437500005,127.24333333333334L42.98622656249999,127.24333333333334L43.126453125000005,132.75L43.5441171875,129.40666666666667L43.6300625,130.58666666666667L44.1201015625,124.29333333333334L44.433726562500006,134.12666666666667L44.5633984375,126.65333333333334L44.583,126.65333333333334L44.7805234375,126.65333333333334L45.8375,130.98L45.958125,129.01333333333332L46.0229609375,129.01333333333332L46.151125,138.65L46.4119765625,128.81666666666666L46.595929687499996,131.37333333333333L46.600453124999994,131.37333333333333L46.692429687499995,132.55333333333334L46.773851562500006,126.25999999999999L46.8974921875,134.71666666666667L47.5458515625,126.45666666666666L47.597117187500004,124.88333333333333L47.776546875,130.685L47.888124999999995,134.32333333333332L48.204765625,128.81666666666666L48.2123046875,128.81666666666666L48.498789062499995,128.22666666666666L48.6887734375,128.42333333333335L49.573859375,129.99666666666667L49.8105859375,127.04666666666667L49.851296874999996,123.99833333333333L50.659484375,140.02666666666667L50.6941640625,140.02666666666667L50.9806484375,134.32333333333332L51.600359375,143.76333333333332L51.710429687499996,124.68666666666667L51.776773437500005,107.57666666666667L51.941125,136.29L52.229117187499995,124.09666666666666L52.2743515625,132.35666666666665L52.44171875,126.45666666666666L52.583453125,138.25666666666666L53.488140625,132.55333333333334L53.53940625,132.55333333333334L53.9269140625,119.77000000000001L54.4576640625,129.505L54.766765625,132.16L55.574953125,117.01666666666667L55.8900859375,91.25333333333333L55.936828125,114.06666666666666L56.268546875,107.38000000000001L56.30171875,112.10000000000001L56.6093125,113.87L56.630421875,113.87L57.97840625,113.47666666666667L58.9811015625,106.98666666666666L59.061015625,106.98666666666666L59.606843749999996,113.28L59.7711953125,106.39666666666666L59.7923046875,105.41333333333334L59.90840625,97.54666666666667L60.30646875,113.28L60.393921875000004,103.25L60.407492187500004,103.25L60.5220859375,126.85L60.6819140625,113.87L60.693976562500005,113.87L60.80103125,108.16666666666667L60.9774453125,116.03333333333333L61.126718749999995,108.56L61.185523437499995,102.07L61.48859375,98.33333333333334L61.493117187500005,98.33333333333334L61.6031875,108.56L61.9424453125,96.36666666666667L62.0389453125,91.84333333333333L62.1716328125,139.04333333333335L62.3028125,104.23333333333333L62.61040625,126.85L63.1004453125,117.60666666666667L63.699046875,107.57666666666667L63.8272109375,99.71000000000001L63.8694296875,99.71000000000001L65.0455234375,107.57666666666667L65.0606015625,95.58L65.1269453125,114.26333333333334L65.1661484375,114.26333333333334L65.2686796875,114.26333333333334L65.381765625,108.36333333333333L65.48128125,107.57666666666667L65.6516640625,98.72666666666666L65.8476796875,101.67666666666666L65.864265625,101.67666666666666L65.894421875,101.67666666666666L66.25177343749999,97.15333333333334L66.56690625,104.82333333333332L66.7704609375,102.66L66.77347656250001,102.66L66.8307734375,93.61333333333333L67.281609375,104.62666666666667L67.429375,123.11333333333333L67.4414375,104.23333333333333L67.70379687500001,90.86L67.7535546875,90.86L68.23454687499999,100.69333333333333L68.3536640625,112.29666666666667L68.442625,103.25L69.0774140625,122.13L69.1301875,106.00333333333334L69.241765625,92.63L69.81775,112.10000000000001L70.562609375,96.36666666666667L70.56411718749999,96.36666666666667L71.10089843749999,140.42000000000002L71.10843750000001,140.42000000000002L71.630140625,103.15166666666667L71.77790625,87.51666666666667L71.83067968750001,98.92333333333333L72.112640625,97.54666666666667L72.2498515625,93.22L73.03692968749999,81.41999999999999L73.19524999999999,96.56333333333333L73.83908593749999,88.10666666666667L73.87828906249999,94.20333333333333L73.9778046875,94.99000000000001L74.187390625,73.16L74.280875,91.84333333333333L74.5945,94.59666666666666L74.618625,94.59666666666666L74.80559375,100.49666666666667L75.13429687499999,83.78000000000002L75.399671875,100.49666666666667L75.43887500000001,96.76L75.6544921875,67.06333333333335L75.8851875,102.85666666666667L76.1008046875,100.3L76.31491406250001,87.51666666666667L76.4566484375,102.07L76.4777578125,102.07L77.5121171875,73.75L77.56790625,92.23666666666666L77.94938281249999,80.43666666666667L78.22682031250001,78.47L78.3112578125,95.58L78.4137890625,67.85L78.719875,129.60333333333332L79.06365625000001,99.51333333333334L79.22499218749999,83.97666666666667L79.398390625,89.09L79.5567109375,78.27333333333333L79.7557421875,97.74333333333334L79.76780468749999,97.74333333333334L79.96683593750001,101.28333333333333L80.188484375,97.35L80.32418750000001,105.02L80.481,96.95666666666666L80.52321875,96.95666666666666L81.026828125,99.51333333333334L81.044921875,99.51333333333334L81.07357031250001,99.51333333333334L81.099203125,99.51333333333334L81.18062499999999,100.3L81.2364140625,95.58L81.292203125,95.18666666666667L81.4776640625,96.85833333333333L81.63598437499999,78.27333333333333L81.9692109375,76.30666666666667L82.000875,76.30666666666667L82.214984375,104.03666666666666L82.32656250000001,74.73333333333335L82.604,95.77666666666667L83.43329687500001,106.98666666666666L83.46496093750001,106.98666666666666L83.499640625,90.46666666666667L83.65946875,103.25L83.795171875,99.51333333333334L84.09371875,98.13666666666667L84.211328125,97.94L84.368140625,99.12L84.3937734375,79.84666666666666L84.494796875,85.55L84.8099296875,81.61666666666667L84.85365625,91.05666666666666L85.387421875,98.92333333333333L85.43265625,100.3L85.5955,76.7L85.7206484375,108.75666666666667L85.80659375,88.69666666666667L86.2513984375,96.17L86.684140625,90.46666666666667L87.0987890625,70.8L87.26766406249999,64.9L87.7441328125,96.56333333333333L88.1165625,91.25333333333333L88.1406875,91.25333333333333L88.5402578125,88.30333333333334L88.7211953125,84.37L88.933796875,94.79333333333334L89.4087578125,76.89666666666666L90.0209296875,74.53666666666666L90.140046875,74.53666666666666L90.2863046875,80.24000000000001L90.333046875,80.24000000000001L90.50041406250001,94.99000000000001L90.9165703125,82.79666666666665L91.22416406250001,70.40666666666667L91.4699375,89.67999999999999L91.47596874999999,89.67999999999999L91.5257265625,93.61333333333333L91.5558828125,99.12L91.665953125,93.22L92.0383828125,103.64333333333333L92.3459765625,92.23666666666666L92.3866875,92.23666666666666L92.492234375,89.48333333333333L92.79078125000001,77.28999999999999L92.81490624999999,74.14333333333333L93.6879296875,93.02333333333333L94.1643984375,87.51666666666667L94.19153906250001,94.59666666666666L94.5081796875,79.64999999999999L95.7747421875,76.89666666666666L95.90893750000001,96.17L95.9571875,66.67L96.06575000000001,96.95666666666666L96.1064609375,96.95666666666666L96.1124921875,96.95666666666666L96.207484375,70.40666666666667L96.490953125,105.41333333333334L96.611578125,106.39666666666666L96.8030703125,88.89333333333333L96.81362499999999,88.89333333333333L96.87996875,65.09666666666666L96.9598828125,65.09666666666666L97.7318828125,85.55L97.95503906249999,68.44000000000001L98.4767421875,89.28666666666666L98.4903125,89.28666666666666L98.57022656250001,89.28666666666666L98.77378125,94.59666666666666L99.0014609375,94.59666666666666L99.9966171875,92.82666666666667L100.0207421875,92.82666666666667L100.139859375,79.25666666666667L100.26953125,100.89L101.478796875,69.03L101.907015625,84.37L101.98692968750001,86.53333333333335L102.03367187500001,86.53333333333335L102.087953125,86.53333333333335L102.1467578125,60.17999999999999L102.3548359375,83.97666666666667L102.45284375,83.97666666666667L102.4875234375,95.38333333333333L102.6473515625,90.17166666666667L102.805671875,103.05333333333333L102.87503125,71.97999999999999L103.3198359375,60.96666666666667L103.8053515625,70.8L104.4506953125,72.17666666666668L104.5698125,105.61L104.75979687499999,94.20333333333333L105.55742968749999,54.67333333333333L105.6328203125,54.67333333333333L105.773046875,70.01333333333334L105.797171875,93.02333333333333L105.84240625,90.27L105.95247656250001,81.22333333333333L106.496796875,67.65333333333334L106.78328125,89.87666666666667L107.02453125,82.40333333333332L107.2582421875,82.40333333333332L107.39846875,109.34666666666666L107.4813984375,109.34666666666666L108.25942968749999,75.12666666666667L108.2714921875,75.12666666666667L108.4946484375,83.19L108.56551562499999,87.91000000000001L109.00428906249999,81.81333333333333L109.096265625,104.43L109.33299218750001,106.00333333333334L109.5923359375,71.78333333333333L109.9300859375,76.30666666666667L109.97984375,76.30666666666667L110.2105390625,89.67999999999999L110.23315625,89.67999999999999L110.7774765625,81.41999999999999L111.1363359375,68.24333333333333L111.146890625,68.24333333333333L111.15292187499999,68.24333333333333L111.15895312500001,73.94666666666667L111.3715546875,95.77666666666667L111.4378984375,72.17666666666668L111.6881953125,87.51666666666667L111.7424765625,87.51666666666667L111.76509375,87.51666666666667L111.943015625,61.753333333333345L112.62153125,106.98666666666666L112.79643750000001,58.60666666666667L112.992453125,97.35L113.06030468750001,92.23666666666666L113.378453125,77.88L113.53828125,76.7L113.9061875,109.74L113.91825,109.74L114.16251562500001,77.09333333333333L114.2424296875,90.27L115.10339062499999,68.24333333333333L115.35971875,92.82666666666667L115.38082812500001,92.82666666666667L115.5120078125,67.06333333333335L115.78190624999999,93.81L115.83166406250001,63.32666666666667L116.1015625,106.79L116.55390625000001,132.75L116.562953125,132.75L116.8328515625,102.85666666666667L117.2490078125,105.41333333333334L118.0556875,72.37333333333333L118.27432031250001,83.78000000000002L118.4492265625,75.52L118.577390625,74.14333333333333L118.69500000000001,93.41666666666667L118.7357109375,93.41666666666667L118.76134375000001,93.41666666666667L119.51675781249999,71.39L119.587625,71.39L119.7700703125,69.42333333333333L120.0836953125,71.19333333333334L120.1289296875,87.91000000000001L120.89640625,62.93333333333332L120.905453125,62.93333333333332L120.938625,62.93333333333332L121.074328125,62.93333333333332L121.34271874999999,81.41999999999999L122.443421875,68.44000000000001L122.5504765625,68.44000000000001L122.7947421875,86.53333333333335L122.9394921875,86.53333333333335L123.15963281249999,63.13000000000001L123.85171874999999,109.54333333333334L123.97234375000001,89.67999999999999L124.42016406249999,71.19333333333334L124.46690625000001,88.10666666666667L124.9599609375,75.32333333333334L125.18613281249999,63.91666666666667L125.4816640625,83.97666666666667L125.6897421875,56.639999999999986L125.79528906249999,86.92666666666668L125.79679687500001,86.92666666666668L125.92345312500001,86.92666666666668L126.1616875,92.23666666666666L126.454203125,71.39L126.6396640625,61.95L126.8055234375,92.04L126.997015625,76.50333333333333L127.42824999999999,89.28666666666666L127.44332812500001,89.28666666666666L127.693625,89.09L127.99820312499999,89.48333333333333L128.534984375,62.540000000000006L128.6058515625,62.540000000000006L128.8440859375,66.27666666666667L128.89082812499998,76.7L129.071765625,68.24333333333333L129.13509375,71.78333333333333L129.234609375,55.656666666666666L129.53315625,88.30333333333334L129.747265625,94.4L130.12271093750002,79.64999999999999L130.86003125,67.06333333333335L131.1027890625,67.26L131.1450078125,67.26L131.212859375,67.26L131.8446328125,68.04666666666667L133.0855625,87.32L133.112703125,87.32L133.2589609375,64.11333333333333L133.33585937499998,64.11333333333333L133.57861718750002,114.06666666666666L134.089765625,65.09666666666666L134.1787265625,85.55L134.45465625,47.20000000000002L134.475765625,47.20000000000002L134.882875,70.8L134.9145390625,68.83333333333333L135.2809375,73.94666666666667L135.40005468750002,57.623333333333335L135.57646875,112.88666666666667L136.4012421875,84.96L136.5791640625,63.32666666666667L136.69375781250002,81.81333333333333L137.08428125,52.50999999999999L137.2064140625,53.29666666666667L137.85778906250002,81.22333333333333L138.04777343749998,65.09666666666666L138.0869765625,65.09666666666666L138.2618828125,63.13000000000001L138.4940859375,70.40666666666667L138.5785234375,77.68333333333334L138.655421875,77.68333333333334L138.68859375,77.68333333333334L138.7383515625,91.25333333333333L138.776046875,60.17999999999999L139.16807812500002,61.36L139.17109375,61.36L139.32489062500002,90.86L139.3294140625,90.86L139.5616171875,56.44333333333333L139.81040625,78.66666666666666L140.036578125,64.70333333333333L140.241640625,79.06L140.49796875,63.32666666666667L140.7075546875,65.29333333333334L141.417734375,89.87666666666667L141.4252734375,89.87666666666667L141.496140625,89.87666666666667L141.586609375,66.08L141.62128906249998,66.08L142.01784375,96.17L142.02839843750002,96.17L143.094421875,70.99666666666666L143.50153125000003,69.22666666666666L143.950859375,81.22333333333333L143.978,74.73333333333335L144.098625,79.25666666666667L144.6429453125,88.5L144.90078125,65.29333333333334L145.0802109375,56.24666666666667L145.40137499999997,68.63666666666667L145.4782734375,68.63666666666667L145.69539843750002,93.61333333333333L145.766265625,67.85L145.9426796875,51.92L146.1175859375,64.70333333333333L146.128140625,64.70333333333333L146.5578671875,66.67L147.0584609375,77.88L147.4685859375,89.67999999999999L147.61785937500002,78.27333333333333L147.9706875,58.60666666666667L148.0807578125,62.540000000000006L148.166703125,66.67L148.9356875,89.87666666666667L149.03821875,89.87666666666667L149.15432031249998,58.01666666666665L149.1754296875,58.01666666666665L149.234234375,68.24333333333333L149.28248437500002,65.09666666666666L149.740859375,85.35333333333334L149.9052109375,87.91000000000001L150.175109375,65.88333333333334L150.74506250000002,67.85L150.8295,68.63666666666667L150.83553125,68.63666666666667L150.93353906250002,100.3L151.03154687499998,84.37L151.3708046875,61.95L151.3949296875,59.983333333333334L151.6120546875,94.00666666666666L151.6512578125,94.00666666666666L151.70704687499997,94.00666666666666L152.2845390625,71.19333333333334L152.3131875,71.19333333333334L152.46698437499998,63.72L152.86504687500002,68.04666666666667L153.0354296875,86.53333333333335L153.088203125,76.11000000000001L153.7260078125,55.656666666666666L154.9081328125,88.30333333333334L154.9593984375,58.80333333333333L155.078515625,62.343333333333334L155.41928124999998,71.97999999999999L155.49768749999998,86.53333333333335L155.70878125,69.03L156.0751796875,68.83333333333333L156.4551484375,71.58666666666667L156.69790625,91.64666666666666L157.062796875,53.493333333333325L157.111046875,70.89833333333333L157.430703125,68.63666666666667L157.72020312499998,63.13000000000001L157.8483671875,63.13000000000001L158.0473984375,58.01666666666665L158.3519765625,74.34L158.4002265625,80.83L158.456015625,53.493333333333325L158.576640625,53.493333333333325L158.80432031249998,52.11666666666666L159.0877890625,87.51666666666667L159.13453125,87.51666666666667L159.1842890625,87.51666666666667L159.35617968749997,52.31333333333333L159.451171875,57.81999999999999L159.807015625,64.11333333333333L159.8507421875,64.11333333333333L161.0057265625,68.83333333333333L161.02532812500002,52.31333333333333L161.133890625,52.31333333333333L161.3495078125,59.19666666666666L161.930015625,62.343333333333334L162.01596093749998,68.24333333333333L162.17578906249997,77.68333333333334L162.273796875,77.68333333333334L162.3416484375,54.67333333333333L162.587421875,91.45L163.05182812500001,67.06333333333335L163.8615234375,75.815L164.074125,52.70666666666668L164.7481171875,43.06999999999999L164.87628125,79.25666666666667L164.90040625,53.493333333333325L165.476390625,52.50999999999999L165.5020234375,85.74666666666667L165.69803906250002,49.16666666666667L165.820171875,54.476666666666674L165.91365625,70.01333333333334L166.218234375,68.63666666666667L166.5393984375,68.63666666666667L167.4802734375,58.80333333333333L167.51042968750002,42.873333333333335L167.8210390625,79.15833333333333L168.0833984375,75.91333333333333L168.3095703125,75.91333333333333L168.3397265625,75.91333333333333L168.34425,75.91333333333333L168.47241406249998,66.27666666666667L168.4769375,66.27666666666667L169.0182421875,50.34666666666668L169.0574453125,80.83L169.97570312500002,60.96666666666667L170.0646640625,65.29333333333334L170.5743046875,96.76L170.7205625,55.26333333333332L171.09449999999998,68.83333333333333L171.742859375,66.08L172.4651015625,64.30999999999999L172.7003203125,87.12333333333333L173.0742578125,63.32666666666667L173.23559375,56.83666666666667L173.485890625,49.16666666666667L173.6773828125,63.13000000000001L173.883953125,62.93333333333332L173.968390625,70.21L174.016640625,89.09L174.12369531250002,81.22333333333333L174.6966640625,76.7L174.830859375,76.7L174.86553906249998,61.16333333333333L175.361609375,85.35333333333334L175.7144375,61.36L175.81244531250002,82.01L176.4427109375,59.78666666666666L176.6507890625,66.27666666666667L176.75633593749998,66.67L176.8618828125,66.67L177.0428203125,55.95166666666667L177.1091640625,55.95166666666667L177.3142265625,54.67333333333333L177.53436718749998,65.68666666666665L177.61578906250003,65.68666666666665L177.7364140625,83.97666666666667L177.90227343749999,75.71666666666667L178.13296875,66.27666666666667L178.2430390625,71.39L178.5325390625,57.42666666666666L178.6380859375,60.77000000000001L178.71196874999998,60.376666666666665L179.514125,87.32L180.1941484375,58.80333333333333L180.35397656249998,66.47333333333333L180.35699218750003,66.47333333333333L180.7641015625,43.26666666666668L181.3672265625,81.02666666666666L181.79242968749998,72.37333333333333L181.827109375,72.37333333333333L182.07137500000002,64.9L182.2327109375,54.476666666666674L182.321671875,77.88L182.3352421875,77.88L182.44229687499998,43.26666666666668L182.5553828125,43.06999999999999L182.68053125,30.48333333333335L182.7996484375,57.623333333333335L182.95193749999999,60.96666666666667L182.98209375000002,44.25L183.0966875,44.25L183.1826328125,56.24666666666667L183.19921875,56.24666666666667L183.83853125000002,61.36L183.8686875,61.55666666666666L184.41753125,26.74666666666667L184.72210937499997,57.623333333333335L184.770359375,57.623333333333335L184.85178125,57.623333333333335L184.987484375,68.63666666666667L185.2815078125,39.72666666666666L185.32825,56.639999999999986L185.4111796875,74.53666666666666L185.463953125,42.47999999999999L185.47903125,42.47999999999999L185.7730546875,73.35666666666665L186.1590546875,58.41L186.241984375,58.41L186.89034375,59.19666666666666L187.3864140625,64.30999999999999L187.4738671875,74.14333333333333L188.0317578125,55.656666666666666L188.18857031250002,37.366666666666674L188.2096796875,40.31666666666666L188.238328125,65.29333333333334L188.3001484375,46.21666666666667L188.3212578125,46.21666666666667L188.343875,46.21666666666667L188.3634765625,46.21666666666667L188.42228125,61.36L188.618296875,55.656666666666666L188.877640625,54.476666666666674L189.1324609375,46.609999999999985L189.3978359375,41.890000000000015L189.5365546875,41.890000000000015L189.6451171875,46.02000000000001L189.66622656250001,46.02000000000001L190.30252343749999,51.133333333333326L190.38846875000002,51.133333333333326L190.5739296875,54.870000000000005L190.8393046875,32.25333333333333L190.9900859375,67.65333333333334L191.145390625,19.076666666666654L191.64899999999997,54.08333333333334L192.6456640625,65.29333333333334L192.7059765625,50.739999999999995L192.755734375,50.739999999999995L193.03317187500002,42.28333333333333L193.678515625,47.78999999999999L193.88508593749998,52.903333333333336L194.87421093749998,26.55000000000001L194.87571875,26.55000000000001L194.963171875,46.02000000000001L195.264734375,61.753333333333345L195.38385156249998,61.753333333333345L195.7487421875,61.36L196.112125,48.97L196.305125,63.32666666666667L196.3548828125,63.32666666666667L196.64739843750002,45.43000000000001L196.7378671875,45.43000000000001L196.9007109375,73.16L196.9549921875,33.82666666666668L196.98364062500002,33.82666666666668L197.128390625,67.26L197.8174609375,70.21L197.87928125,99.90666666666667L198.01196875,56.83666666666667L198.346703125,59.78666666666666L198.5773984375,84.17333333333333L198.862375,51.72333333333334L198.90459375,51.72333333333334L199.7414296875,45.03666666666666L200.03394531249998,32.44999999999999L200.09275000000002,32.44999999999999L200.3928046875,66.08L201.0260859375,44.25L201.23868750000003,29.893333333333317L201.428671875,47.298333333333346L201.657859375,39.136666666666684L202.0182265625,54.870000000000005L202.4886640625,62.04833333333333L202.74046875,63.52333333333334L202.75253124999998,41.890000000000015L203.2847890625,57.42666666666666L203.70094531249998,52.11666666666666L203.780859375,63.52333333333334L204.31914843750002,35.596666666666664L204.3372421875,35.596666666666664L204.709671875,29.893333333333317L204.72022656250002,29.893333333333317L204.8800546875,64.70333333333333L205.1228125,47.396666666666675L205.258515625,48.57666666666668L205.747046875,59.59L206.0048828125,37.366666666666674L206.078765625,36.18666666666667L206.1360625,36.18666666666667L206.18732812500002,61.36L206.24462499999998,61.36L206.3034296875,31.860000000000014L206.4783359375,48.57666666666668L206.5959453125,35.79333333333332L206.6170546875,35.79333333333332L206.64268750000002,35.79333333333332L206.80553125,41.103333333333325L206.88695312500002,82.01L207.52928125,62.343333333333334L207.815765625,66.86666666666666L207.990671875,59.59L208.322390625,51.92L208.3661171875,51.92L209.06121875,61.753333333333345L209.4487265625,52.11666666666666L209.492453125,50.54333333333334L209.5844296875,34.613333333333344L210.0428046875,31.269999999999982L210.2961171875,86.53333333333335L211.06359375,47.20000000000002L211.08621093750003,32.843333333333334L211.53403125,73.16L212.38292968750002,56.05L212.4733984375,56.05L212.8925703125,54.67333333333333L212.894078125,54.67333333333333L213.06144531249998,54.67333333333333L213.1036640625,54.67333333333333L213.1488984375,56.83666666666667L213.21071875,67.45666666666666L213.385625,30.680000000000007L213.86209375,43.66L213.92542187499998,33.03999999999999L213.979703125,33.03999999999999L214.419984375,122.13L214.4667265625,41.29999999999998L214.90851562499998,50.739999999999995L215.0487421875,27.72999999999999L215.0668359375,27.72999999999999L215.22515625,102.85666666666667L215.7212265625,24.189999999999998L216.536953125,22.02666666666667L216.573140625,22.02666666666667L216.6228984375,22.02666666666667L217.2818125,27.53333333333333L217.381328125,53.10000000000001L217.423546875,33.03999999999999L217.9286640625,55.06666666666666L218.1985625,55.06666666666666L218.2724453125,32.25333333333333L218.27696875,32.25333333333333L218.2935546875,32.25333333333333L218.3598984375,42.67666666666668L218.69915625,59L219.07158593749998,35.400000000000006L220.8116015625,62.146666666666675L221.178,37.16999999999999L221.5519375,51.72333333333334L221.6318515625,62.93333333333332L221.796203125,62.93333333333332L221.9967421875,38.74333333333334L222.2741796875,34.22L222.4671796875,55.06666666666666L222.54709375000002,59.393333333333345L222.61042187500001,59.393333333333345L222.7747734375,31.36833333333331L222.785328125,31.36833333333331L222.83357812499997,31.36833333333331L222.881828125,31.663333333333327L222.9738046875,51.92L223.0009453125,51.92L223.32663281249998,42.67666666666668L223.61613281249998,19.076666666666654L223.77294531249998,74.34L223.86642968750002,74.34L224.1287890625,67.45666666666666L224.4424140625,54.67333333333333L224.8857109375,58.01666666666665L224.9460234375,58.01666666666665L225.1450546875,67.45666666666666L225.2777421875,61.55666666666666L225.2958359375,61.55666666666666L225.30789843750003,61.55666666666666L225.3501171875,32.843333333333334L225.4224921875,65.49L225.48732812499998,59.19666666666666L225.6788203125,23.79666666666668L225.9080078125,23.79666666666668L226.060296875,25.173333333333346L226.2804375,25.173333333333346L226.422171875,31.860000000000014L226.6498515625,34.22L227.233375,55.85333333333334L227.278609375,16.126666666666665L227.5696171875,16.126666666666665L227.66008593749999,50.739999999999995L227.69778125,50.739999999999995L228.42153125000002,34.81L228.4381171875,76.11000000000001L228.7065078125,26.74666666666667L228.7411875,61.753333333333345L228.7879296875,29.69666666666666L229.0020390625,17.69999999999999L229.0231484375,17.69999999999999L229.95196093750002,49.95333333333335L230.2082890625,40.51333333333335L230.5701640625,54.67333333333333L230.5942890625,17.306666666666672L230.79784375,39.33333333333334L231.00742968749998,25.173333333333346L231.17630468750002,30.876666666666665L231.4446953125,32.843333333333334L231.4929453125,32.843333333333334L231.6015078125,32.843333333333334L231.9935390625,34.613333333333344L232.2151875,54.08333333333334L232.77157031250002,40.51333333333335L232.791171875,40.51333333333335L232.91933593750002,27.336666666666673L233.177171875,63.72L233.454609375,32.843333333333334L233.4892890625,32.843333333333334L233.496828125,32.843333333333334L233.526984375,32.843333333333334L233.6868125,64.50666666666667L234.2055,11.800000000000011L234.63975000000002,49.75666666666666L235.02725781249998,55.46000000000001L235.535390625,70.99666666666666L235.6424453125,53.10000000000001L235.7600546875,-6.096666666666664L236.23501562500002,26.156666666666666L236.2425546875,26.156666666666666L236.265171875,26.156666666666666L236.76275,49.36333333333333L236.811,49.36333333333333L237.1080390625,27.53333333333333L237.4548359375,42.67666666666668L237.57998437499998,38.349999999999994L237.6086328125,38.349999999999994L237.7639375,25.271666666666675L237.8498828125,48.379999999999995L238.1846171875,66.67L238.47110156250002,32.44999999999999L238.9053515625,33.03999999999999L238.9475703125,33.03999999999999L239.07724218750002,33.03999999999999L239.65171875000001,42.873333333333335L239.684890625,102.26666666666667L240.13271093749998,68.44000000000001L240.35134375,52.11666666666666L240.42070312500002,52.11666666666666L241.2138125,28.51666666666665L241.274125,64.50666666666667L241.2861875,64.50666666666667L241.31935937499998,61.55666666666666L241.3344375,61.55666666666666L241.44903125,6.293333333333322L241.500296875,31.269999999999982L241.6314765625,38.54666666666665L241.67821874999998,38.54666666666665L242.3823671875,34.22L242.64925,34.22L242.742734375,48.379999999999995L243.0940546875,30.680000000000007L243.1031015625,30.680000000000007L244.045484375,11.603333333333353L244.099765625,11.603333333333353L244.24602343749999,67.06333333333335L244.53703125,39.33333333333334L244.5626640625,52.31333333333333L244.564171875,52.31333333333333L245.01500781250002,31.073333333333323L245.0692890625,31.073333333333323L245.3995,23.20666666666665L245.6121015625,33.82666666666668L246.0553984375,60.77000000000001L246.2906171875,26.156666666666666L246.50623437500002,28.51666666666665L246.63590624999998,55.85333333333334L246.650984375,55.85333333333334L246.8635859375,68.63666666666667L246.9314375,19.666666666666686L246.9691328125,19.666666666666686L247.15911718750002,37.16999999999999L247.2646640625,46.609999999999985L247.519484375,48.18333333333334L247.6235234375,48.18333333333334L247.71248437499997,48.18333333333334L247.89191406249998,25.370000000000005L248.0788828125,33.03999999999999L248.110546875,33.03999999999999L249.2127578125,56.05L249.71335156249998,57.03333333333333L249.7299375,57.03333333333333L249.862625,57.03333333333333L249.9214296875,44.44666666666666L249.98325,44.44666666666666L250.1958515625,46.41333333333333L250.7688203125,27.72999999999999L250.89999999999998,28.909999999999997L251.3478203125,40.120000000000005L252.2525078125,36.18666666666667L252.3429765625,73.94666666666667L252.3580546875,73.94666666666667L252.54653125,32.05666666666667L253.409,51.72333333333334L253.59898437500001,21.633333333333326L253.7482578125,41.103333333333325L253.9533203125,41.103333333333325L254.13727343750003,20.650000000000006L254.22472656250002,38.153333333333336L254.328765625,38.153333333333336L254.33479687500002,38.153333333333336L254.48708593749998,6.883333333333326L254.6167578125,29.30333333333334L254.639375,29.30333333333334L255.4882734375,39.53L255.65865625,41.49666666666667L255.85165625000002,39.72666666666666L255.8742734375,39.72666666666666L255.9798203125,39.72666666666666L256.1577421875,25.76333333333332L256.234640625,57.81999999999999L256.3386796875,29.106666666666655L256.3447109375,29.106666666666655L257.139328125,54.476666666666674L257.16797656250003,54.476666666666674L257.2886015625,45.626666666666665L257.4725546875,37.16999999999999L257.630875,31.073333333333323L257.9007734375,23.00999999999999L257.92188281250003,23.00999999999999L257.9761640625,23.00999999999999L258.037984375,31.860000000000014L258.17971875,31.860000000000014L258.2536015625,31.860000000000014L258.2777265625,31.860000000000014L258.399859375,52.70666666666668L258.5250078125,48.379999999999995L258.6561875,48.379999999999995L258.683328125,48.379999999999995L258.8868828125,53.886666666666656L259.0919453125,34.02333333333334L259.67546875,29.30333333333334L259.73125781249996,29.30333333333334L260.13384375,35.99000000000001L260.444453125,30.28666666666666L260.5002421875,24.386666666666656L261.162171875,29.69666666666666" style="fill: none;" fill="none"></path></g></g></g></g></g><g><g><span fill="rgb(0, 0, 0)" stroke="none" stroke-width="1px">Alt + Scroll to Zoom</span></g></g></g><g transform="translate(58, 177)" clip-path="url(#clip_1)"><clipPath id="clip_1"><rect width="271" height="23"></rect></clipPath><g><g><line x1="0" y1="0" x2="0" y2="5" style="visibility: inherit;" fill="rgb(0, 0, 0)" stroke="rgb(204, 204, 204)" stroke-width="1px"></line><line x1="30.15625" y1="0" x2="30.15625" y2="5" style="visibility: inherit;" fill="rgb(0, 0, 0)" stroke="rgb(204, 204, 204)" stroke-width="1px"></line><line x1="60.3125" y1="0" x2="60.3125" y2="5" style="visibility: inherit;" fill="rgb(0, 0, 0)" stroke="rgb(204, 204, 204)" stroke-width="1px"></line><line x1="90.46875" y1="0" x2="90.46875" y2="5" style="visibility: inherit;" fill="rgb(0, 0, 0)" stroke="rgb(204, 204, 204)" stroke-width="1px"></line><line x1="120.625" y1="0" x2="120.625" y2="5" style="visibility: inherit;" fill="rgb(0, 0, 0)" stroke="rgb(204, 204, 204)" stroke-width="1px"></line><line x1="150.78125" y1="0" x2="150.78125" y2="5" style="visibility: inherit;" fill="rgb(0, 0, 0)" stroke="rgb(204, 204, 204)" stroke-width="1px"></line><line x1="180.9375" y1="0" x2="180.9375" y2="5" style="visibility: inherit;" fill="rgb(0, 0, 0)" stroke="rgb(204, 204, 204)" stroke-width="1px"></line><line x1="211.09375" y1="0" x2="211.09375" y2="5" style="visibility: inherit;" fill="rgb(0, 0, 0)" stroke="rgb(204, 204, 204)" stroke-width="1px"></line><line x1="241.25" y1="0" x2="241.25" y2="5" style="visibility: inherit;" fill="rgb(0, 0, 0)" stroke="rgb(204, 204, 204)" stroke-width="1px"></line><line x1="271.40625" y1="0" x2="271.40625" y2="5" style="visibility: inherit;" fill="rgb(0, 0, 0)" stroke="rgb(204, 204, 204)" stroke-width="1px"></line></g><g transform="translate(0, 8)"><text x="0" y="0" dx="0em" dy="0.95em" style="text-anchor: middle; visibility: hidden; font-family: &quot;Helvetica Neue&quot;, sans-serif; font-size: 12px; font-weight: 200;" fill="rgb(50, 49, 63)" stroke="none" stroke-width="1px">-20k</text><text x="30.15625" y="0" dx="0em" dy="0.95em" style="text-anchor: middle; visibility: inherit; font-family: &quot;Helvetica Neue&quot;, sans-serif; font-size: 12px; font-weight: 200;" fill="rgb(50, 49, 63)" stroke="none" stroke-width="1px">0</text><text x="60.3125" y="0" dx="0em" dy="0.95em" style="text-anchor: middle; visibility: hidden; font-family: &quot;Helvetica Neue&quot;, sans-serif; font-size: 12px; font-weight: 200;" fill="rgb(50, 49, 63)" stroke="none" stroke-width="1px">20k</text><text x="90.46875" y="0" dx="0em" dy="0.95em" style="text-anchor: middle; visibility: inherit; font-family: &quot;Helvetica Neue&quot;, sans-serif; font-size: 12px; font-weight: 200;" fill="rgb(50, 49, 63)" stroke="none" stroke-width="1px">40k</text><text x="120.625" y="0" dx="0em" dy="0.95em" style="text-anchor: middle; visibility: hidden; font-family: &quot;Helvetica Neue&quot;, sans-serif; font-size: 12px; font-weight: 200;" fill="rgb(50, 49, 63)" stroke="none" stroke-width="1px">60k</text><text x="150.78125" y="0" dx="0em" dy="0.95em" style="text-anchor: middle; visibility: inherit; font-family: &quot;Helvetica Neue&quot;, sans-serif; font-size: 12px; font-weight: 200;" fill="rgb(50, 49, 63)" stroke="none" stroke-width="1px">80k</text><text x="180.9375" y="0" dx="0em" dy="0.95em" style="text-anchor: middle; visibility: hidden; font-family: &quot;Helvetica Neue&quot;, sans-serif; font-size: 12px; font-weight: 200;" fill="rgb(50, 49, 63)" stroke="none" stroke-width="1px">100k</text><text x="211.09375" y="0" dx="0em" dy="0.95em" style="text-anchor: middle; visibility: inherit; font-family: &quot;Helvetica Neue&quot;, sans-serif; font-size: 12px; font-weight: 200;" fill="rgb(50, 49, 63)" stroke="none" stroke-width="1px">120k</text><text x="241.25" y="0" dx="0em" dy="0.95em" style="text-anchor: middle; visibility: hidden; font-family: &quot;Helvetica Neue&quot;, sans-serif; font-size: 12px; font-weight: 200;" fill="rgb(50, 49, 63)" stroke="none" stroke-width="1px">140k</text><text x="271.40625" y="0" dx="0em" dy="0.95em" style="text-anchor: middle; visibility: hidden; font-family: &quot;Helvetica Neue&quot;, sans-serif; font-size: 12px; font-weight: 200;" fill="rgb(50, 49, 63)" stroke="none" stroke-width="1px">160k</text></g><line x1="0" y1="0" x2="271.40625" y2="0" fill="rgb(0, 0, 0)" stroke="rgb(204, 204, 204)" stroke-width="1px"></line></g></g></g></g></svg>